<svg width="560" height="560" viewBox="0 0 560 560" fill="none" xmlns="http://www.w3.org/2000/svg">
<path d="M463.986 225.6V156.181" stroke="black" stroke-width="0.5" stroke-linejoin="round"/>
<path d="M461.709 226.815C461.709 225.558 462.729 224.538 463.986 224.538C465.244 224.538 466.264 225.558 466.264 226.815V238.236C466.264 239.494 465.244 240.513 463.986 240.513C462.729 240.513 461.709 239.494 461.709 238.236V226.815Z" fill="black"/>
<path d="M484.922 190.771H491.776V488.042H484.922V190.771Z" fill="#333333"/>
<path d="M419.935 488.042H426.79L491.776 190.771H484.922L419.935 488.042Z" fill="#333333"/>
<path d="M546.145 488.042H553L491.776 190.771H484.922L546.145 488.042Z" fill="#333333"/>
<path d="M517.272 110.19C517.102 109.236 516.272 108.541 515.302 108.541H460.308C459.329 108.541 458.495 109.248 458.335 110.214L444.105 196.019C443.903 197.238 444.843 198.347 446.078 198.347H530.579C531.824 198.347 532.767 197.222 532.548 195.996L517.272 110.19Z" fill="#808080" stroke="black" stroke-width="0.5" stroke-linecap="round" stroke-linejoin="round"/>
<path d="M459.401 197.797L468.269 108.14" stroke="black" stroke-width="0.5" stroke-linejoin="round"/>
<path d="M517.531 197.797L508.664 108.14" stroke="black" stroke-width="0.5" stroke-linejoin="round"/>
<path d="M479.107 197.797L480.092 108.14" stroke="black" stroke-width="0.5" stroke-linejoin="round"/>
<path d="M497.826 197.797L496.841 108.14" stroke="black" stroke-width="0.5" stroke-linejoin="round"/>
<path d="M45.4182 248.55H440.434C445.87 248.55 450.277 252.957 450.277 258.393V371.459C450.277 376.895 445.87 381.302 440.434 381.302H45.4182C39.982 381.302 35.5751 376.895 35.5751 371.459V258.393C35.5751 252.957 39.982 248.55 45.4182 248.55Z" fill="#333333" stroke="black" stroke-width="0.5" stroke-miterlimit="10" stroke-linejoin="round"/>
<path d="M321.335 257.063H420.147C426.981 257.063 432.521 262.603 432.521 269.438V336.407C432.521 343.241 426.981 348.781 420.147 348.781H321.335C314.5 348.781 308.96 343.241 308.96 336.407V269.438C308.96 262.603 314.5 257.063 321.335 257.063Z" fill="#4C4C4C" stroke="black" stroke-width="0.5" stroke-miterlimit="10" stroke-linejoin="round"/>
<path d="M189.094 257.063H287.905C294.74 257.063 300.28 262.603 300.28 269.438V336.407C300.28 343.241 294.74 348.781 287.905 348.781H189.094C182.259 348.781 176.719 343.241 176.719 336.407V269.438C176.719 262.603 182.259 257.063 189.094 257.063Z" fill="#4C4C4C" stroke="black" stroke-width="0.5" stroke-miterlimit="10" stroke-linejoin="round"/>
<path d="M58.531 257.063H157.343C164.177 257.063 169.718 262.603 169.718 269.438V336.407C169.718 343.241 164.177 348.781 157.343 348.781H58.531C51.6966 348.781 46.1562 343.241 46.1562 336.407V269.438C46.1562 262.603 51.6966 257.063 58.531 257.063Z" fill="#4C4C4C" stroke="black" stroke-width="0.5" stroke-miterlimit="10" stroke-linejoin="round"/>
<path d="M375.567 399.035H396.907L411.951 481.993C412.094 482.785 412.063 483.598 411.857 484.376C411.652 485.153 411.279 485.876 410.764 486.494C410.249 487.112 409.605 487.609 408.877 487.95C408.148 488.292 407.354 488.469 406.55 488.47C405.368 488.47 404.218 488.09 403.27 487.385C402.322 486.68 401.626 485.688 401.286 484.557L375.567 399.035Z" fill="black" stroke="black" stroke-width="0.5" stroke-miterlimit="10" stroke-linejoin="round"/>
<path d="M111.275 399.035H89.935L74.8912 481.993C74.7477 482.785 74.7795 483.598 74.9845 484.376C75.1896 485.153 75.5628 485.876 76.0779 486.494C76.5929 487.112 77.2373 487.609 77.9655 487.95C78.6937 488.292 79.4879 488.469 80.2922 488.47C81.4736 488.47 82.6237 488.09 83.5718 487.385C84.52 486.68 85.2157 485.688 85.5558 484.557L111.275 399.035Z" fill="black" stroke="black" stroke-width="0.5" stroke-miterlimit="10" stroke-linejoin="round"/>
<path d="M438.343 355.346H46.7773C42.8525 355.346 39.0885 356.905 36.3133 359.681C33.538 362.456 31.9789 366.22 31.9789 370.145V376.556C31.9789 377.711 32.4379 378.82 33.2549 379.637C34.072 380.454 35.1801 380.913 36.3356 380.913H448.785C449.94 380.912 451.048 380.453 451.864 379.636C452.681 378.819 453.14 377.711 453.14 376.556V370.142C453.139 366.218 451.58 362.455 448.805 359.681C446.031 356.906 442.267 355.347 438.343 355.346Z" fill="#666666" stroke="black" stroke-width="0.5" stroke-miterlimit="10" stroke-linejoin="round"/>
<path d="M448.477 380.922H36.6368C35.4001 380.922 34.2141 381.413 33.3397 382.288C32.4653 383.162 31.974 384.348 31.974 385.585V425.642C31.974 430.447 33.8828 435.055 37.2806 438.453C40.6783 441.85 45.2867 443.759 50.0918 443.759H435.024C439.829 443.759 444.437 441.85 447.835 438.453C451.233 435.055 453.142 430.447 453.142 425.642V385.585C453.142 384.972 453.021 384.366 452.787 383.8C452.552 383.235 452.209 382.721 451.776 382.288C451.343 381.855 450.829 381.511 450.263 381.277C449.697 381.043 449.091 380.922 448.479 380.922H448.477Z" fill="#4C4C4C" stroke="black" stroke-width="0.5" stroke-miterlimit="10" stroke-linejoin="round"/>
<path d="M394.375 355.929C400.287 370.489 421.343 370.489 421.343 370.489C425.691 370.489 430.344 352.171 430.344 348.181L447.618 288.647C449.194 258.186 433.86 254.79 429.512 254.79H417.371C413.023 254.79 410.127 265.356 411.543 277.888C417.472 330.403 412.218 337.973 412.218 337.973C412.22 341.957 388.464 341.369 394.375 355.929Z" fill="#CCCCCC" stroke="black" stroke-width="0.5" stroke-miterlimit="10" stroke-linejoin="round"/>
<path d="M178 72.3273L178 9L279.568 9L279.568 72.3273L178 72.3273Z" fill="#CCCCCC"/>
<path d="M182.709 67.7789L182.709 13.5487L274.858 13.5487L274.858 67.7789L182.709 67.7789Z" fill="white"/>
<path d="M211.112 52.6568L211.112 28.6691L246.456 28.6691L246.456 52.6568L211.112 52.6568Z" fill="#E5E5E5"/>
<path d="M370.345 38.667H433.672V140.235H370.345V38.667Z" fill="#CCCCCC"/>
<path d="M374.892 43.3762H429.122V135.525H374.892V43.3762Z" fill="white"/>
<path d="M390.014 71.7795H414.002V107.123H390.014V71.7795Z" fill="#E5E5E5"/>
<path d="M292.056 38.667H355.383V101.994H292.056V38.667Z" fill="#CCCCCC"/>
<path d="M296.764 43.3764H350.674V97.2867H296.764V43.3764Z" fill="white"/>
<path d="M326.65 66.5925H341.446V88.393H326.65V66.5925Z" fill="#E5E5E5"/>
<path d="M305.992 52.2718H320.788V88.3927H305.992V52.2718Z" fill="#E5E5E5"/>
<path d="M114.633 279.56C114.633 279.56 76.1896 267.712 69.1076 261.904C56.6923 251.719 38.1672 212.215 33.4864 211.401C28.8056 210.586 27.4486 223.213 29.6765 236.751C31.9044 250.29 38.4845 256.089 39.6254 266.814C40.7663 277.54 39.9472 290.36 57.2189 289.129C66.1686 288.49 107.234 308.953 107.234 308.953L114.633 279.56Z" fill="white" stroke="black" stroke-width="0.5" stroke-miterlimit="10" stroke-linejoin="round"/>
<path d="M39.6248 266.814C39.6248 266.814 40.5407 281.806 44.6769 285.765C48.8131 289.723 58.5978 289.154 58.5978 289.154C58.5978 289.154 61.9036 278.057 56.9528 271.864C52.0019 265.671 39.6248 266.814 39.6248 266.814Z" fill="black" stroke="black" stroke-width="0.5" stroke-miterlimit="10" stroke-linejoin="round"/>
<path d="M29.6763 236.751L46.1514 230.407L40.0461 219.567C40.0461 219.567 34.9917 209.857 32.3948 211.466C29.7979 213.075 28.2136 217.87 28.6367 225.027C29.0597 232.183 29.6763 236.751 29.6763 236.751Z" fill="black" stroke="black" stroke-width="0.5" stroke-miterlimit="10" stroke-linejoin="round"/>
<path d="M106.687 309.198L113.859 279.122C114.135 277.962 114.856 276.958 115.867 276.326C116.878 275.694 118.097 275.486 119.26 275.746L321.452 320.819L278.141 368.594L109.714 314.565C108.626 314.217 107.709 313.47 107.148 312.475C106.587 311.48 106.422 310.309 106.687 309.198Z" fill="#999999" stroke="black" stroke-width="0.5" stroke-linecap="round" stroke-linejoin="round"/>
<path d="M148.531 313.545C148.531 313.545 126.086 344.033 116.969 344.925C100.992 346.489 59.9671 331.62 56.0785 334.348C52.1898 337.075 60.1516 346.975 71.2955 354.982C82.4394 362.988 91.1844 362.437 99.5783 369.224C107.972 376.011 116.44 385.652 127.794 372.586C133.676 365.813 170.447 336.652 170.447 336.652L148.531 313.545Z" fill="white" stroke="black" stroke-width="0.5" stroke-miterlimit="10" stroke-linejoin="round"/>
<path d="M99.5772 369.227C99.5772 369.227 110.816 379.189 116.541 379.067C122.266 378.946 128.787 371.63 128.787 371.63C128.787 371.63 123.276 361.452 115.404 360.563C107.532 359.674 99.5772 369.227 99.5772 369.227Z" fill="black" stroke="black" stroke-width="0.5" stroke-miterlimit="10" stroke-linejoin="round"/>
<path d="M71.2942 354.984L78.4707 338.851L66.4919 335.495C66.4919 335.495 56.0547 332.194 55.3503 335.174C54.6459 338.153 56.9256 342.661 62.2725 347.427C67.6194 352.193 71.2942 354.984 71.2942 354.984Z" fill="black" stroke="black" stroke-width="0.5" stroke-miterlimit="10" stroke-linejoin="round"/>
<path d="M304.808 310.998L227.439 263.121C221.75 259.601 215.09 257.975 208.418 258.479C201.746 258.982 195.405 261.588 190.308 265.923L146.347 305.12C145.493 305.882 144.8 306.808 144.312 307.843C143.823 308.878 143.548 310.001 143.503 311.145C143.458 312.289 143.643 313.43 144.049 314.501C144.454 315.571 145.071 316.549 145.863 317.376L165.385 337.762C166.129 338.538 167.021 339.158 168.009 339.583C168.997 340.009 170.06 340.231 171.136 340.238C172.211 340.245 173.277 340.035 174.27 339.622C175.263 339.209 176.163 338.601 176.916 337.834L207.848 306.344C207.848 306.344 239.691 340.116 259.206 357.203C270.023 366.672 288.04 374.411 302.395 373.631L338.709 369.722L304.808 310.998Z" fill="#999999" stroke="black" stroke-width="0.5" stroke-linecap="round" stroke-linejoin="round"/>
<path d="M39.6251 444.722C30.7811 444.722 23.5281 438.516 23.2221 430.684L18.0215 298.279C17.6997 290.054 25.1372 283.23 34.4245 283.23H44.828C54.1176 283.23 61.5551 290.054 61.231 298.279L56.0326 430.684C55.7243 438.516 48.4714 444.722 39.6251 444.722Z" fill="#808080" stroke="black" stroke-width="0.5" stroke-miterlimit="10" stroke-linejoin="round"/>
<path d="M39.6303 321.851C34.4588 321.851 30.2664 315.144 30.2664 306.871C30.2664 298.597 34.4588 291.89 39.6303 291.89C44.8018 291.89 48.9941 298.597 48.9941 306.871C48.9941 315.144 44.8018 321.851 39.6303 321.851Z" fill="#666666" stroke="black" stroke-width="0.5" stroke-miterlimit="10" stroke-linejoin="round"/>
<path d="M424.773 260.085C424.773 260.085 428.803 258.151 429.586 255.2C430.369 252.25 427.988 249.668 424.903 252.193C421.492 255.001 418.225 257.98 415.114 261.117C412.211 264.075 406.432 265.938 399.981 263.096C399.2 262.751 395.967 268.393 395.967 268.393L385.457 287.427C385.457 287.427 385.294 299.651 395.14 301.55C406.772 303.789 411.504 295.382 411.504 295.382L424.773 260.085Z" fill="#E5E5E5" stroke="black" stroke-width="0.5" stroke-miterlimit="10" stroke-linejoin="round"/>
<path d="M408.84 226.816L385.256 255.061C385.256 255.061 378.858 268.899 387.674 274.106C408.744 286.561 418.907 265.504 418.907 265.504L436.293 250.209L408.84 226.816Z" fill="#E5E5E5" stroke="black" stroke-width="0.5" stroke-miterlimit="10" stroke-linejoin="round"/>
<path d="M403.515 241.965L407.874 245.163" stroke="black" stroke-width="0.5" stroke-linecap="round" stroke-linejoin="round"/>
<path d="M394.599 244.901C394.599 244.901 388.211 246.775 387.295 247.963C386.378 249.151 388.303 251.988 388.303 251.988" fill="#E5E5E5"/>
<path d="M394.599 244.901C394.599 244.901 388.211 246.775 387.295 247.963C386.378 249.151 388.303 251.988 388.303 251.988" stroke="black" stroke-width="0.5" stroke-linecap="round" stroke-linejoin="round"/>
<path d="M401.924 247.198C401.257 246.725 401.099 245.801 401.572 245.134C402.045 244.467 402.97 244.309 403.637 244.782C404.304 245.255 404.461 246.179 403.988 246.847C403.515 247.514 402.591 247.671 401.924 247.198Z" fill="black"/>
<path d="M396.981 287.421C402.369 289.223 412.019 288.015 415.057 287.568C415.657 287.48 416.282 287.668 416.729 288.079C444.483 313.591 416.172 343.731 396.981 357.407C377.626 371.2 307.947 375.141 307.947 375.141L307.947 311.003C307.947 311.003 313.126 311.066 329.925 308.365C345.198 305.91 379.053 286.951 385.074 283.528C385.658 283.197 386.359 283.179 386.968 283.462C388.629 284.233 392.299 285.855 396.981 287.421Z" fill="#B3B3B3" stroke="black" stroke-width="0.5" stroke-miterlimit="10" stroke-linejoin="round"/>
<path d="M415.18 259.98C410.894 265.835 402.459 267.97 399.457 265.633C394.987 262.152 397.549 258.694 392.583 255.543C390.706 254.354 385.968 254.2 385.968 254.2C385.968 254.2 377.671 263.15 383.916 270.805C390.16 278.459 402.285 279.59 407.782 276.599C412.472 274.045 417.143 270.071 418.899 265.515C420.212 262.107 419.033 259.393 420.984 255.959C424.587 249.609 420.372 246.317 420.372 246.317C420.372 246.317 417.708 256.53 415.18 259.98Z" fill="#666666" stroke="black" stroke-width="0.5" stroke-miterlimit="10" stroke-linejoin="round"/>
<path d="M393.617 262.009C393.617 262.009 388.151 265.758 386.35 258.617" stroke="black" stroke-width="0.5" stroke-linecap="round" stroke-linejoin="round"/>
<path d="M419.074 244.625C419.074 244.625 414.234 242.78 410.379 239.54C397.828 228.987 399.297 222.876 401.944 220.184C404.591 217.493 412.144 221.967 412.144 221.967C412.144 221.967 414.973 214.086 421.165 218.581C427.358 223.076 429.029 228.696 429.029 228.696C429.029 228.696 443.538 231.186 446.041 241.551C451.332 263.474 429.143 273.831 429.143 273.831L418.166 278.052C418.166 278.052 419.402 274.795 421.68 267.611C420.849 262.946 421.154 257.112 419.553 254.708C417.455 251.571 419.074 244.625 419.074 244.625Z" fill="#4C4C4C" stroke="black" stroke-width="0.5" stroke-miterlimit="10" stroke-linejoin="round"/>
<path d="M418.904 265.507C418.904 265.507 421.77 266.405 424.448 266.033C428.074 265.528 434.306 261.003 429.272 255.504C427.138 253.164 424.13 254.134 422.068 255.285C421.156 255.783 420.364 256.473 419.747 257.309C419.13 258.145 418.703 259.105 418.495 260.122C418.323 260.943 418.299 261.788 418.426 262.617L418.904 265.507Z" fill="#E5E5E5" stroke="black" stroke-width="0.5" stroke-linecap="round" stroke-linejoin="round"/>
<path d="M425.964 256.075C425.964 256.075 424.437 255.66 422.566 257.561C421.878 258.272 421.358 259.128 421.044 260.065C420.729 261.003 420.628 261.999 420.748 262.981" stroke="black" stroke-width="0.5" stroke-linecap="round" stroke-linejoin="round"/>
<mask id="path-52-outside-1_2386_415143" maskUnits="userSpaceOnUse" x="310.933" y="243.933" width="109.206" height="57.2161" fill="black">
<rect fill="white" x="310.933" y="243.933" width="109.206" height="57.2161"/>
<path fill-rule="evenodd" clip-rule="evenodd" d="M339.525 292.713C347.037 296.456 356.476 298.157 368.259 296.064C368.266 296.063 368.274 296.061 368.281 296.06C386.97 292.033 399.242 285.23 406.848 279.423C410.649 276.52 413.282 273.868 414.968 271.937C415.81 270.972 416.416 270.187 416.812 269.641C417.01 269.369 417.156 269.156 417.253 269.01C417.301 268.937 417.338 268.881 417.362 268.842C417.374 268.823 417.383 268.809 417.39 268.798L417.397 268.786L417.399 268.783L417.4 268.782C417.4 268.782 417.4 268.781 416.955 268.624C416.509 268.467 416.509 268.467 416.509 268.467L416.508 268.469L416.502 268.478L416.479 268.516C416.457 268.55 416.423 268.602 416.378 268.671C416.287 268.808 416.147 269.012 415.956 269.276C415.572 269.803 414.982 270.569 414.156 271.514C412.505 273.406 409.916 276.016 406.169 278.877C398.68 284.595 386.561 291.322 368.06 295.31C356.54 297.354 347.37 295.688 340.077 292.054C332.766 288.411 327.312 282.776 323.288 276.854C319.266 270.934 316.688 264.751 315.117 260.044C314.331 257.692 313.798 255.71 313.461 254.318C313.292 253.622 313.173 253.073 313.096 252.699C313.058 252.512 313.03 252.369 313.011 252.273C313.002 252.225 312.995 252.188 312.991 252.164L312.986 252.137L312.985 252.131L312.985 252.129C312.985 252.129 312.985 252.129 312.494 252.194C312.004 252.26 312.004 252.26 312.004 252.261L312.005 252.27L312.011 252.3C312.015 252.325 312.022 252.363 312.032 252.413C312.051 252.512 312.079 252.658 312.118 252.848C312.197 253.229 312.318 253.784 312.488 254.488C312.828 255.894 313.366 257.893 314.158 260.264C315.741 265.006 318.341 271.248 322.41 277.236C326.477 283.222 332.027 288.977 339.525 292.713Z"/>
</mask>
<path fill-rule="evenodd" clip-rule="evenodd" d="M339.525 292.713C347.037 296.456 356.476 298.157 368.259 296.064C368.266 296.063 368.274 296.061 368.281 296.06C386.97 292.033 399.242 285.23 406.848 279.423C410.649 276.52 413.282 273.868 414.968 271.937C415.81 270.972 416.416 270.187 416.812 269.641C417.01 269.369 417.156 269.156 417.253 269.01C417.301 268.937 417.338 268.881 417.362 268.842C417.374 268.823 417.383 268.809 417.39 268.798L417.397 268.786L417.399 268.783L417.4 268.782C417.4 268.782 417.4 268.781 416.955 268.624C416.509 268.467 416.509 268.467 416.509 268.467L416.508 268.469L416.502 268.478L416.479 268.516C416.457 268.55 416.423 268.602 416.378 268.671C416.287 268.808 416.147 269.012 415.956 269.276C415.572 269.803 414.982 270.569 414.156 271.514C412.505 273.406 409.916 276.016 406.169 278.877C398.68 284.595 386.561 291.322 368.06 295.31C356.54 297.354 347.37 295.688 340.077 292.054C332.766 288.411 327.312 282.776 323.288 276.854C319.266 270.934 316.688 264.751 315.117 260.044C314.331 257.692 313.798 255.71 313.461 254.318C313.292 253.622 313.173 253.073 313.096 252.699C313.058 252.512 313.03 252.369 313.011 252.273C313.002 252.225 312.995 252.188 312.991 252.164L312.986 252.137L312.985 252.131L312.985 252.129C312.985 252.129 312.985 252.129 312.494 252.194C312.004 252.26 312.004 252.26 312.004 252.261L312.005 252.27L312.011 252.3C312.015 252.325 312.022 252.363 312.032 252.413C312.051 252.512 312.079 252.658 312.118 252.848C312.197 253.229 312.318 253.784 312.488 254.488C312.828 255.894 313.366 257.893 314.158 260.264C315.741 265.006 318.341 271.248 322.41 277.236C326.477 283.222 332.027 288.977 339.525 292.713Z" fill="white"/>
<path d="M368.259 296.064L368.346 296.556L368.346 296.556L368.259 296.064ZM339.525 292.713L339.748 292.265L339.525 292.713ZM368.281 296.06L368.176 295.571L368.176 295.571L368.281 296.06ZM406.848 279.423L406.544 279.025L406.848 279.423ZM414.968 271.937L415.344 272.266L415.344 272.266L414.968 271.937ZM416.812 269.641L417.217 269.935L417.217 269.935L416.812 269.641ZM417.253 269.01L417.669 269.287L417.669 269.287L417.253 269.01ZM417.362 268.842L417.784 269.111L417.784 269.111L417.362 268.842ZM417.39 268.798L417.815 269.061L417.814 269.062L417.39 268.798ZM417.397 268.786L417.823 269.048L417.822 269.05L417.397 268.786ZM417.399 268.783L417.826 269.044L417.825 269.045L417.399 268.783ZM417.4 268.782L417.827 269.042L417.826 269.043L417.4 268.782ZM416.509 268.467L416.083 268.206C416.227 267.971 416.534 267.897 416.769 268.04C417.005 268.183 417.08 268.49 416.937 268.726L416.509 268.467ZM416.508 268.469L416.934 268.731L416.933 268.733L416.508 268.469ZM416.502 268.478L416.928 268.741L416.926 268.745L416.502 268.478ZM416.479 268.516L416.902 268.783L416.901 268.784L416.479 268.516ZM416.378 268.671L415.961 268.394L415.961 268.394L416.378 268.671ZM415.956 269.276L415.551 268.982L415.551 268.982L415.956 269.276ZM414.156 271.514L413.78 271.186L413.78 271.186L414.156 271.514ZM406.169 278.877L406.473 279.274L406.169 278.877ZM368.06 295.31L368.166 295.799C368.16 295.8 368.154 295.801 368.148 295.802L368.06 295.31ZM340.077 292.054L339.854 292.502L340.077 292.054ZM323.288 276.854L323.701 276.573L323.288 276.854ZM315.117 260.044L314.642 260.203L314.642 260.203L315.117 260.044ZM313.461 254.318L312.975 254.436L312.975 254.436L313.461 254.318ZM313.096 252.699L313.586 252.598L313.586 252.598L313.096 252.699ZM313.011 252.273L313.503 252.179L313.503 252.179L313.011 252.273ZM312.991 252.164L312.499 252.254L312.499 252.253L312.991 252.164ZM312.986 252.137L312.494 252.226L312.494 252.225L312.986 252.137ZM312.985 252.131L312.493 252.219L312.493 252.217L312.985 252.131ZM312.985 252.129L313.476 252.038L313.477 252.043L312.985 252.129ZM312.004 252.261L311.511 252.348L311.511 252.345L312.004 252.261ZM312.005 252.27L311.513 252.359L311.513 252.358L312.005 252.27ZM312.011 252.3L311.519 252.389L311.519 252.389L312.011 252.3ZM312.032 252.413L311.541 252.506L311.541 252.506L312.032 252.413ZM312.118 252.848L311.629 252.949L311.629 252.949L312.118 252.848ZM312.488 254.488L312.974 254.37L312.974 254.37L312.488 254.488ZM314.158 260.264L314.632 260.106L314.632 260.106L314.158 260.264ZM322.41 277.236L321.997 277.517L322.41 277.236ZM368.346 296.556C356.466 298.666 346.918 296.955 339.302 293.16L339.748 292.265C347.157 295.957 356.486 297.647 368.171 295.572L368.346 296.556ZM368.386 296.548C368.373 296.551 368.36 296.554 368.346 296.556L368.171 295.572C368.173 295.571 368.174 295.571 368.176 295.571L368.386 296.548ZM407.151 279.82C399.487 285.672 387.147 292.506 368.386 296.548L368.176 295.571C386.792 291.56 398.998 284.788 406.544 279.025L407.151 279.82ZM415.344 272.266C413.639 274.22 410.981 276.896 407.151 279.82L406.544 279.025C410.317 276.144 412.926 273.515 414.591 271.608L415.344 272.266ZM417.217 269.935C416.812 270.492 416.197 271.289 415.344 272.266L414.591 271.608C415.423 270.655 416.02 269.882 416.408 269.348L417.217 269.935ZM417.669 269.287C417.569 269.438 417.419 269.657 417.217 269.935L416.408 269.348C416.602 269.081 416.743 268.873 416.836 268.733L417.669 269.287ZM417.784 269.111C417.758 269.152 417.72 269.211 417.669 269.287L416.836 268.733C416.883 268.663 416.917 268.61 416.94 268.574L417.784 269.111ZM417.814 269.062C417.807 269.074 417.797 269.09 417.784 269.111L416.94 268.574C416.951 268.556 416.96 268.543 416.965 268.534L417.814 269.062ZM417.822 269.05L417.815 269.061L416.965 268.535L416.972 268.523L417.822 269.05ZM417.825 269.045L417.823 269.048L416.971 268.525L416.973 268.521L417.825 269.045ZM417.826 269.043L417.826 269.044L416.973 268.522L416.973 268.521L417.826 269.043ZM417.121 268.153C417.344 268.231 417.455 268.271 417.512 268.291C417.539 268.3 417.555 268.306 417.564 268.31C417.567 268.31 417.577 268.314 417.588 268.319C417.592 268.32 417.599 268.323 417.608 268.327C417.613 268.33 417.635 268.34 417.661 268.355C417.673 268.363 417.699 268.38 417.728 268.405C417.754 268.427 417.81 268.48 417.851 268.567C417.902 268.673 417.913 268.793 417.884 268.906C417.863 268.991 417.819 269.054 417.827 269.042L416.973 268.522C416.98 268.51 416.937 268.573 416.915 268.658C416.887 268.771 416.898 268.891 416.948 268.997C416.99 269.084 417.046 269.137 417.072 269.159C417.101 269.184 417.126 269.201 417.139 269.208C417.165 269.224 417.186 269.234 417.191 269.236C417.2 269.24 417.207 269.243 417.21 269.244C417.219 269.248 417.226 269.251 417.222 269.249C417.217 269.247 417.205 269.243 417.177 269.233C417.122 269.214 417.011 269.174 416.789 269.096L417.121 268.153ZM416.937 268.726C416.926 268.744 417.003 268.636 417.009 268.488C417.016 268.312 416.932 268.19 416.883 268.135C416.838 268.085 416.794 268.056 416.78 268.047C416.76 268.034 416.744 268.026 416.736 268.022C416.72 268.014 416.707 268.008 416.704 268.007C416.698 268.004 416.694 268.003 416.692 268.002C416.688 268 416.684 267.999 416.683 267.999C416.682 267.998 416.681 267.998 416.681 267.998C416.68 267.997 416.68 267.997 416.684 267.999C416.69 268.001 416.703 268.006 416.731 268.015C416.787 268.035 416.898 268.074 417.121 268.153L416.789 269.096C416.566 269.017 416.454 268.978 416.398 268.958C416.371 268.949 416.356 268.944 416.349 268.941C416.345 268.94 416.342 268.939 416.339 268.938C416.339 268.937 416.337 268.937 416.336 268.936C416.335 268.936 416.331 268.934 416.327 268.933C416.325 268.932 416.32 268.93 416.315 268.928C416.311 268.926 416.298 268.921 416.282 268.913C416.274 268.909 416.258 268.9 416.239 268.888C416.225 268.879 416.18 268.85 416.135 268.799C416.086 268.744 416.002 268.623 416.01 268.446C416.016 268.298 416.092 268.19 416.081 268.209L416.937 268.726ZM416.077 268.215L416.083 268.206L416.933 268.733L416.928 268.741L416.077 268.215ZM416.056 268.25L416.079 268.212L416.926 268.745L416.902 268.783L416.056 268.25ZM415.961 268.394C416.005 268.328 416.037 268.279 416.057 268.248L416.901 268.784C416.877 268.821 416.842 268.876 416.794 268.947L415.961 268.394ZM415.551 268.982C415.738 268.724 415.874 268.525 415.961 268.394L416.794 268.947C416.699 269.09 416.556 269.3 416.36 269.569L415.551 268.982ZM413.78 271.186C414.595 270.252 415.176 269.498 415.551 268.982L416.36 269.569C415.969 270.108 415.369 270.886 414.533 271.843L413.78 271.186ZM405.866 278.479C409.584 275.64 412.149 273.053 413.78 271.186L414.533 271.843C412.861 273.758 410.247 276.392 406.473 279.274L405.866 278.479ZM367.955 294.821C386.384 290.849 398.435 284.153 405.866 278.479L406.473 279.274C398.925 285.037 386.739 291.795 368.166 295.799L367.955 294.821ZM340.3 291.607C347.49 295.189 356.55 296.844 367.973 294.818L368.148 295.802C356.53 297.864 347.25 296.187 339.854 292.502L340.3 291.607ZM323.701 276.573C327.691 282.445 333.085 288.012 340.3 291.607L339.854 292.502C332.446 288.811 326.932 283.107 322.874 277.135L323.701 276.573ZM315.591 259.886C317.153 264.565 319.713 270.702 323.701 276.573L322.874 277.135C318.818 271.166 316.223 264.938 314.642 260.203L315.591 259.886ZM313.947 254.2C314.281 255.581 314.811 257.549 315.591 259.886L314.642 260.203C313.852 257.835 313.315 255.84 312.975 254.436L313.947 254.2ZM313.586 252.598C313.662 252.967 313.78 253.51 313.947 254.2L312.975 254.436C312.805 253.734 312.684 253.179 312.606 252.8L313.586 252.598ZM313.503 252.179C313.52 252.273 313.548 252.414 313.586 252.598L312.606 252.8C312.567 252.611 312.539 252.465 312.52 252.366L313.503 252.179ZM313.483 252.075C313.487 252.097 313.494 252.133 313.503 252.179L312.52 252.366C312.511 252.317 312.504 252.279 312.499 252.254L313.483 252.075ZM313.478 252.048L313.483 252.075L312.499 252.253L312.494 252.226L313.478 252.048ZM313.477 252.043L313.478 252.049L312.494 252.225L312.493 252.219L313.477 252.043ZM313.477 252.043L313.478 252.044L312.493 252.217L312.492 252.215L313.477 252.043ZM312.428 251.699C312.673 251.666 312.796 251.65 312.858 251.641C312.888 251.637 312.905 251.635 312.914 251.634C312.917 251.634 312.924 251.633 312.932 251.632C312.934 251.632 312.938 251.631 312.944 251.631C312.948 251.63 312.962 251.629 312.98 251.629C312.989 251.629 313.007 251.629 313.029 251.631C313.047 251.633 313.094 251.638 313.151 251.658C313.214 251.68 313.317 251.731 313.395 251.844C313.466 251.945 313.479 252.05 313.476 252.038L312.493 252.22C312.491 252.208 312.504 252.314 312.574 252.415C312.653 252.527 312.755 252.578 312.818 252.601C312.875 252.621 312.922 252.626 312.94 252.627C312.963 252.629 312.98 252.629 312.989 252.629C313.007 252.629 313.021 252.628 313.024 252.628C313.03 252.627 313.034 252.627 313.036 252.626C313.042 252.626 313.045 252.625 313.041 252.626C313.034 252.627 313.02 252.629 312.989 252.633C312.928 252.641 312.806 252.657 312.56 252.69L312.428 251.699ZM311.511 252.345C311.511 252.349 311.467 252.161 311.59 251.981C311.678 251.851 311.799 251.804 311.813 251.799C311.846 251.785 311.874 251.778 311.882 251.776C311.894 251.773 311.903 251.771 311.908 251.77C311.922 251.767 311.936 251.765 311.938 251.765C311.949 251.763 311.967 251.761 311.998 251.757C312.06 251.748 312.183 251.732 312.428 251.699L312.56 252.69C312.315 252.723 312.193 252.739 312.132 252.747C312.101 252.752 312.089 252.753 312.084 252.754C312.079 252.755 312.089 252.754 312.102 252.751C312.106 252.75 312.115 252.748 312.126 252.745C312.134 252.744 312.162 252.737 312.195 252.723C312.212 252.716 312.243 252.702 312.279 252.678C312.313 252.656 312.369 252.613 312.418 252.541C312.472 252.461 312.498 252.373 312.503 252.29C312.507 252.224 312.495 252.168 312.497 252.177L311.511 252.345ZM311.519 252.389L311.513 252.359L312.498 252.182L312.503 252.211L311.519 252.389ZM311.541 252.506C311.531 252.455 311.524 252.416 311.519 252.389L312.503 252.21C312.507 252.234 312.514 252.271 312.523 252.319L311.541 252.506ZM311.629 252.949C311.589 252.756 311.56 252.608 311.541 252.506L312.523 252.319C312.541 252.416 312.569 252.56 312.608 252.747L311.629 252.949ZM312.002 254.605C311.83 253.896 311.708 253.335 311.629 252.949L312.608 252.747C312.685 253.123 312.805 253.673 312.974 254.37L312.002 254.605ZM313.684 260.423C312.887 258.036 312.345 256.023 312.002 254.605L312.974 254.37C313.311 255.765 313.846 257.75 314.632 260.106L313.684 260.423ZM321.997 277.517C317.894 271.48 315.276 265.192 313.684 260.423L314.632 260.106C316.206 264.819 318.789 271.017 322.824 276.955L321.997 277.517ZM339.302 293.16C331.708 289.376 326.097 283.553 321.997 277.517L322.824 276.955C326.857 282.891 332.347 288.578 339.748 292.265L339.302 293.16ZM416.082 268.208L416.083 268.206L416.935 268.729L416.934 268.731L416.082 268.208ZM311.513 252.358L311.511 252.348L312.496 252.173L312.498 252.183L311.513 252.358Z" fill="black" mask="url(#path-52-outside-1_2386_415143)"/>
<path d="M316.131 201.312L316.616 201.414C317.437 201.586 317.963 202.392 317.79 203.213L309.168 244.275C308.996 245.096 308.19 245.622 307.369 245.45L306.885 245.348C306.064 245.176 305.538 244.37 305.71 243.549L314.333 202.487C314.505 201.666 315.31 201.14 316.131 201.312Z" fill="white" stroke="black" stroke-width="0.5" stroke-miterlimit="10" stroke-linejoin="round"/>
<path d="M376.707 305.728L328.25 309.67C328.25 309.67 317.415 288.462 315.018 270.699C312.621 252.936 314.387 245.676 314.387 245.676L321.252 236.803C321.923 235.938 322.255 234.858 322.187 233.765C322.119 232.673 321.655 231.642 320.882 230.867L317.469 227.44C317.214 227.184 316.9 226.994 316.554 226.888C316.208 226.783 315.841 226.764 315.487 226.834L314.348 227.06L309.674 210.728C309.477 210.041 309.024 209.456 308.408 209.094C307.792 208.733 307.06 208.622 306.365 208.785C305.66 208.951 305.047 209.385 304.657 209.996C304.267 210.607 304.13 211.346 304.276 212.055L305.264 216.863L304.565 216.44C304.115 216.166 303.6 216.016 303.073 216.004C302.547 215.993 302.026 216.121 301.564 216.375C301.103 216.629 300.716 217.001 300.444 217.452C300.172 217.903 300.024 218.419 300.014 218.945L299.951 221.869L299.338 224.042C299.338 224.042 297.338 225.462 296.74 227.028C296.392 227.869 296.205 228.768 296.188 229.677C296.188 229.677 294.949 230.855 294.66 231.909C294.372 232.963 293.982 240.706 295.068 242.679C296.154 244.653 297.134 247.088 297.245 251.101C297.355 255.115 294.946 281.979 296.278 295.853C296.836 301.666 298.427 310.707 300.087 319.249C301.268 325.332 304.791 330.709 309.897 334.221C315.002 337.734 326.184 341.887 332.288 340.816L389.119 337.597L376.707 305.728Z" fill="#E5E5E5" stroke="black" stroke-width="0.5" stroke-miterlimit="10" stroke-linejoin="round"/>
<path d="M316.068 234.037L313.389 223.712" stroke="black" stroke-width="0.5" stroke-linecap="round" stroke-linejoin="round"/>
<path d="M378.5 341C378.5 341 433.401 336.6 432.493 310.829C431.882 293.5 375 303.5 375 303.5L378.5 341Z" fill="#B3B3B3" stroke="black" stroke-width="0.5" stroke-miterlimit="10" stroke-linejoin="round"/>
<path d="M429.5 275C429.5 275 439.313 288.159 419.316 316.034C408.402 331.247 408.224 347.65 410.54 356.375C412.928 365.356 418.932 371.974 428.223 371.997L437.637 372.019" fill="#CCCCCC"/>
<path d="M429.5 275C429.5 275 439.313 288.159 419.316 316.034C408.402 331.247 408.224 347.65 410.54 356.375C412.928 365.356 418.932 371.974 428.223 371.997L437.637 372.019" stroke="black" stroke-width="0.5" stroke-miterlimit="10" stroke-linejoin="round"/>
<path d="M445.726 444.722C436.882 444.722 429.629 438.516 429.323 430.684L424.123 298.279C423.801 290.054 431.238 283.23 440.526 283.23H450.925C460.212 283.23 467.65 290.054 467.328 298.279L462.129 430.684C461.821 438.516 454.568 444.722 445.726 444.722Z" fill="#808080" stroke="black" stroke-width="0.5" stroke-miterlimit="10" stroke-linejoin="round"/>
<path d="M445.727 321.851C440.555 321.851 436.363 315.144 436.363 306.871C436.363 298.597 440.555 291.89 445.727 291.89C450.898 291.89 455.091 298.597 455.091 306.871C455.091 315.144 450.898 321.851 445.727 321.851Z" fill="#666666" stroke="black" stroke-width="0.5" stroke-miterlimit="10" stroke-linejoin="round"/>
<path d="M421.984 262.825L422.345 263.118C423.127 263.753 423.245 264.901 422.611 265.682L418.339 270.939C417.704 271.72 416.556 271.839 415.775 271.204L415.414 270.911C414.633 270.276 414.514 269.129 415.149 268.348L419.421 263.09C420.056 262.309 421.203 262.19 421.984 262.825Z" fill="white" stroke="black" stroke-width="0.5" stroke-miterlimit="10" stroke-linejoin="round"/>
<path d="M422.602 266.083C420.537 265.748 419.135 263.803 419.469 261.738C419.804 259.674 421.749 258.271 423.814 258.606C425.879 258.941 427.281 260.886 426.947 262.951C426.612 265.015 424.667 266.418 422.602 266.083Z" fill="white" stroke="black" stroke-width="0.5" stroke-miterlimit="10" stroke-linejoin="round"/>
<path d="M312.254 141.025C310.899 137.944 313.472 133.834 317.994 131.847C322.516 129.859 327.287 130.743 328.639 133.824C329.992 136.905 327.424 141.013 322.9 143C318.375 144.988 313.607 144.104 312.254 141.025Z" fill="#1A1A1A"/>
<path d="M313.177 175.534C312.865 175.534 312.567 175.41 312.347 175.19C312.127 174.97 312.003 174.671 312.003 174.36V138.554C312.017 138.252 312.147 137.967 312.366 137.758C312.585 137.55 312.876 137.433 313.178 137.433C313.481 137.433 313.771 137.55 313.99 137.758C314.209 137.967 314.339 138.252 314.353 138.554V174.37C314.351 174.68 314.225 174.976 314.005 175.194C313.785 175.412 313.487 175.534 313.177 175.534Z" fill="#1A1A1A"/>
<path d="M60.8141 179.431C61.6874 181.419 60.0367 184.073 57.1059 185.355C54.175 186.638 51.1068 186.068 50.2335 184.08C49.3602 182.093 51.0109 179.439 53.9418 178.154C56.8726 176.868 59.9382 177.428 60.8141 179.431Z" fill="#999999"/>
<path d="M59.9067 182.574C59.7054 182.574 59.5122 182.494 59.3699 182.352C59.2275 182.21 59.1475 182.017 59.1475 181.815V158.7C59.1476 158.536 59.201 158.376 59.2996 158.245C59.3982 158.114 59.5366 158.018 59.6942 157.972L78.0931 152.564C78.2061 152.53 78.3254 152.524 78.4414 152.545C78.5574 152.565 78.667 152.613 78.7617 152.683C78.8561 152.754 78.9326 152.846 78.9853 152.951C79.0379 153.057 79.0651 153.174 79.0648 153.292V176.415C79.0648 176.616 78.9849 176.809 78.8425 176.952C78.7001 177.094 78.5069 177.174 78.3056 177.174C78.1042 177.174 77.9111 177.094 77.7687 176.952C77.6263 176.809 77.5463 176.616 77.5463 176.415V154.295L60.6582 159.257V181.802C60.66 181.902 60.6418 182.002 60.6049 182.095C60.568 182.188 60.5131 182.273 60.4432 182.345C60.3734 182.417 60.29 182.474 60.1979 182.513C60.1059 182.553 60.0069 182.573 59.9067 182.574Z" fill="#999999"/>
<path d="M79.2204 174.01C80.0937 175.997 78.443 178.651 75.5121 179.934C72.5813 181.216 69.5131 180.646 68.6398 178.659C67.7665 176.671 69.4172 174.018 72.348 172.732C75.2789 171.447 78.3471 172.02 79.2204 174.01Z" fill="#999999"/>
<path d="M59.9072 163.041C59.7412 163.041 59.5799 162.986 59.4479 162.886C59.316 162.785 59.2206 162.644 59.1764 162.484C59.1227 162.292 59.147 162.086 59.244 161.911C59.341 161.737 59.5029 161.607 59.6947 161.551L78.0935 156.428C78.2859 156.374 78.4921 156.398 78.6669 156.495C78.8417 156.592 78.971 156.754 79.0264 156.946C79.0816 157.139 79.058 157.346 78.9609 157.521C78.8637 157.697 78.7008 157.826 78.5081 157.882L60.1093 163.005C60.044 163.027 59.9759 163.039 59.9072 163.041Z" fill="#999999"/>
<path d="M142.898 206.273C143.768 208.258 142.12 210.906 139.195 212.187C136.269 213.467 133.208 212.899 132.335 210.914C131.462 208.929 133.113 206.281 136.036 204.998C138.959 203.715 142.024 204.288 142.898 206.273Z" fill="#666666"/>
<path d="M141.994 209.424C141.793 209.424 141.6 209.344 141.458 209.202C141.315 209.061 141.235 208.868 141.234 208.667V185.583C141.235 185.382 141.315 185.19 141.458 185.048C141.6 184.906 141.793 184.826 141.994 184.826H160.356C160.557 184.826 160.749 184.906 160.891 185.048C161.033 185.19 161.113 185.382 161.113 185.583C161.113 185.683 161.094 185.781 161.056 185.873C161.018 185.966 160.962 186.049 160.892 186.12C160.822 186.19 160.738 186.246 160.646 186.284C160.554 186.323 160.456 186.342 160.356 186.342H142.735V208.667C142.735 208.865 142.657 209.055 142.519 209.197C142.38 209.338 142.192 209.42 141.994 209.424Z" fill="#666666"/>
<path d="M160.354 209.424C160.154 209.424 159.961 209.344 159.819 209.202C159.677 209.06 159.598 208.868 159.598 208.667V185.583C159.598 185.382 159.677 185.19 159.819 185.048C159.961 184.906 160.154 184.826 160.354 184.826C160.555 184.826 160.747 184.906 160.889 185.048C161.031 185.19 161.111 185.382 161.111 185.583V208.667C161.111 208.868 161.031 209.06 160.889 209.202C160.747 209.344 160.555 209.424 160.354 209.424Z" fill="#666666"/>
<path d="M161.269 206.273C162.142 208.258 160.492 210.906 157.569 212.187C154.645 213.467 151.58 212.899 150.709 210.914C149.838 208.929 151.487 206.281 154.41 204.998C157.333 203.715 160.396 204.288 161.269 206.273Z" fill="#666666"/>
<path d="M160.356 190.351H141.983C141.883 190.352 141.785 190.332 141.693 190.295C141.6 190.257 141.517 190.201 141.446 190.131C141.376 190.06 141.32 189.977 141.281 189.885C141.243 189.793 141.224 189.694 141.224 189.595C141.224 189.394 141.305 189.201 141.447 189.06C141.589 188.918 141.782 188.838 141.983 188.838H160.356C160.557 188.838 160.749 188.918 160.891 189.06C161.033 189.202 161.113 189.394 161.113 189.595C161.113 189.694 161.094 189.793 161.056 189.885C161.018 189.977 160.962 190.06 160.892 190.131C160.821 190.201 160.738 190.257 160.646 190.294C160.554 190.332 160.455 190.352 160.356 190.351Z" fill="#666666"/>
<path d="M92.6923 176.436C92.4241 176.371 92.1854 176.218 92.0144 176.001C91.8434 175.785 91.75 175.517 91.749 175.241V140.649C91.7494 140.372 91.8426 140.104 92.0136 139.887C92.1847 139.67 92.4237 139.517 92.6923 139.452C93.2106 139.358 93.6382 139.752 93.6382 140.33V175.557C93.6382 176.135 93.2158 176.532 92.6923 176.436Z" fill="#999999"/>
<path d="M97.8248 191.411C97.549 191.308 97.311 191.123 97.1422 190.882C96.9733 190.64 96.8815 190.353 96.8789 190.059V125.831C96.8814 125.536 96.9731 125.249 97.1419 125.007C97.3107 124.765 97.5488 124.58 97.8248 124.476C98.343 124.323 98.7706 124.691 98.7706 125.297V190.6C98.7654 191.196 98.343 191.567 97.8248 191.411Z" fill="#999999"/>
<path d="M102.961 167.856C102.443 167.811 102.013 167.275 102.013 166.656V149.234C102.013 148.612 102.438 148.075 102.961 148.034C103.485 147.993 103.912 148.469 103.912 149.102V166.785C103.912 167.418 103.485 167.897 102.961 167.856Z" fill="#999999"/>
<path d="M108.115 168.703C107.597 168.662 107.164 168.104 107.164 167.459V148.431C107.164 147.785 107.592 147.228 108.115 147.187C108.639 147.145 109.069 147.643 109.069 148.298V167.589C109.069 168.244 108.641 168.744 108.115 168.703Z" fill="#999999"/>
<path d="M113.285 174.287C112.766 174.23 112.331 173.64 112.331 172.971V142.911C112.331 142.242 112.756 141.654 113.285 141.597C113.813 141.54 114.238 142.045 114.238 142.724V173.16C114.238 173.839 113.811 174.344 113.285 174.287Z" fill="#999999"/>
<path d="M118.465 177.747C117.947 177.685 117.509 177.073 117.509 176.381V139.506C117.509 138.817 117.936 138.21 118.465 138.14C118.994 138.07 119.421 138.596 119.421 139.299V176.581C119.421 177.291 118.994 177.809 118.465 177.747Z" fill="#999999"/>
<path d="M123.658 170.294C123.127 170.26 122.699 169.651 122.699 168.941V146.948C122.699 146.235 123.127 145.629 123.658 145.593C124.189 145.556 124.617 146.111 124.617 146.834V169.065C124.617 169.775 124.187 170.33 123.658 170.294Z" fill="#999999"/>
<path d="M128.859 184.555C128.341 184.488 127.9 183.837 127.9 183.104V132.787C127.9 132.056 128.331 131.406 128.859 131.336C129.388 131.266 129.821 131.812 129.821 132.551V183.342C129.821 184.081 129.39 184.615 128.859 184.555Z" fill="#999999"/>
<path d="M134.073 185.202C133.554 185.138 133.111 184.477 133.111 183.728V132.159C133.111 131.408 133.542 130.75 134.073 130.685C134.604 130.62 135.034 131.185 135.034 131.942V183.943C135.034 184.702 134.604 185.265 134.073 185.202Z" fill="#999999"/>
<path d="M139.286 170.677C138.768 170.652 138.322 170.006 138.322 169.239V146.648C138.322 145.87 138.755 145.238 139.286 145.209C139.817 145.181 140.25 145.787 140.25 146.562V169.325C140.258 170.102 139.828 170.706 139.286 170.677Z" fill="#808080"/>
<path d="M144.527 169.276C143.993 169.255 143.561 168.602 143.561 167.82V148.076C143.561 147.299 143.993 146.643 144.527 146.62C145.061 146.596 145.491 147.221 145.491 148.009V167.895C145.491 168.678 145.058 169.3 144.527 169.276Z" fill="#808080"/>
<path d="M149.764 172.277C149.231 172.251 148.798 171.585 148.798 170.789V145.098C148.798 144.303 149.231 143.637 149.764 143.613C150.298 143.59 150.731 144.22 150.731 145.02V170.88C150.731 171.67 150.298 172.3 149.764 172.277Z" fill="#808080"/>
<path d="M155.01 171.359C154.476 171.341 154.043 170.667 154.043 169.859V146.031C154.043 145.223 154.476 144.549 155.01 144.528C155.543 144.507 155.979 145.153 155.979 145.966V169.921C155.979 170.735 155.546 171.38 155.01 171.359Z" fill="#808080"/>
<path d="M160.261 169.812C159.725 169.797 159.292 169.118 159.292 168.299V147.591C159.292 146.769 159.725 146.093 160.261 146.078C160.798 146.062 161.23 146.718 161.23 147.542V168.345C161.23 169.169 160.795 169.828 160.261 169.812Z" fill="#808080"/>
<path d="M165.519 168.783C164.983 168.783 164.55 168.089 164.55 167.257V148.63C164.55 147.801 164.983 147.117 165.519 147.104C166.055 147.091 166.488 147.759 166.488 148.594V167.296C166.496 168.13 166.055 168.807 165.519 168.783Z" fill="#808080"/>
<path d="M170.781 198.934C170.247 198.898 169.812 198.185 169.812 197.345V118.534C169.812 117.694 170.247 116.979 170.781 116.945C171.315 116.912 171.752 117.562 171.752 118.404V197.47C171.752 198.32 171.317 198.973 170.781 198.934Z" fill="#808080"/>
<path d="M176.048 187.983C175.512 187.96 175.076 187.255 175.076 186.41V129.475C175.076 128.63 175.512 127.92 176.048 127.902C176.584 127.883 177.02 128.549 177.02 129.399V186.49C177.02 187.338 176.584 188.009 176.048 187.983Z" fill="#808080"/>
<path d="M181.316 175.627C180.78 175.627 180.345 174.917 180.345 174.072V141.823C180.345 140.97 180.78 140.268 181.316 140.268C181.853 140.268 182.288 140.942 182.288 141.797V174.109C182.288 174.953 181.853 175.638 181.316 175.627Z" fill="#666666"/>
<path d="M186.59 168.506C186.051 168.506 185.615 167.804 185.615 166.951V148.946C185.615 148.091 186.051 147.392 186.59 147.392C187.129 147.392 187.561 148.078 187.561 148.946V166.98C187.561 167.817 187.126 168.511 186.59 168.506Z" fill="#666666"/>
<path d="M191.863 173.964C191.327 173.964 190.892 173.259 190.892 172.409V143.489C190.892 142.631 191.327 141.934 191.863 141.934C192.4 141.934 192.835 142.623 192.835 143.489V172.424C192.835 173.272 192.41 173.966 191.863 173.964Z" fill="#666666"/>
<path d="M197.14 174.591C196.601 174.591 196.166 173.891 196.166 173.036V142.859C196.166 141.999 196.601 141.304 197.14 141.304C197.679 141.304 198.112 142.001 198.112 142.859V173.038C198.112 173.896 197.677 174.593 197.14 174.591Z" fill="#666666"/>
<path d="M202.413 185.757C201.877 185.757 201.441 185.062 201.441 184.202V131.687C201.441 130.827 201.877 130.133 202.413 130.133C202.95 130.133 203.388 130.837 203.388 131.687V184.186C203.388 185.054 202.952 185.754 202.413 185.757Z" fill="#666666"/>
<path d="M207.699 205.9C207.163 205.9 206.728 205.221 206.728 204.36V111.537C206.728 110.677 207.163 109.982 207.699 110C208.236 110.018 208.671 110.718 208.671 111.578V204.332C208.661 205.179 208.218 205.887 207.699 205.9Z" fill="#666666"/>
<path d="M212.963 171.509C212.427 171.509 211.991 170.823 211.991 169.955V145.912C211.991 145.054 212.427 144.357 212.963 144.357C213.499 144.357 213.937 145.062 213.937 145.912V169.918C213.935 170.805 213.502 171.502 212.963 171.509Z" fill="#4C4C4C"/>
<path d="M218.236 172.041C217.7 172.041 217.265 171.364 217.265 170.509V145.373C217.265 144.52 217.7 143.834 218.236 143.841C218.773 143.849 219.208 144.549 219.208 145.396V170.476C219.208 171.336 218.773 172.033 218.236 172.041Z" fill="#4C4C4C"/>
<path d="M223.507 178.483C222.971 178.498 222.535 177.822 222.535 176.974V138.915C222.535 138.065 222.971 137.388 223.507 137.404C224.043 137.42 224.479 138.119 224.479 138.959V176.917C224.476 177.767 224.041 178.467 223.507 178.483Z" fill="#4C4C4C"/>
<path d="M228.77 181.852C228.236 181.873 227.801 181.209 227.801 180.367V135.523C227.801 134.681 228.236 134.015 228.77 134.038C229.304 134.062 229.742 134.759 229.742 135.593V180.289C229.742 181.131 229.306 181.829 228.77 181.852Z" fill="#4C4C4C"/>
<path d="M234.033 172.284C233.496 172.3 233.063 171.636 233.063 170.802V145.088C233.063 144.253 233.496 143.59 234.033 143.605C234.569 143.621 235.002 144.308 235.002 145.137V170.75C235.002 171.582 234.569 172.269 234.033 172.284Z" fill="#4C4C4C"/>
<path d="M239.292 187.685C238.756 187.724 238.323 187.086 238.323 186.26V129.627C238.323 128.803 238.756 128.166 239.292 128.202C239.829 128.238 240.262 128.938 240.262 129.757V186.127C240.262 186.946 239.834 187.646 239.292 187.685Z" fill="#4C4C4C"/>
<path d="M244.543 187.289C244.007 187.333 243.574 186.705 243.574 185.892V129.998C243.574 129.182 244.007 128.557 244.543 128.601C245.08 128.646 245.51 129.335 245.51 130.156V185.754C245.51 186.553 245.077 187.245 244.543 187.289Z" fill="#4C4C4C"/>
<path d="M249.789 171.154C249.255 171.178 248.822 170.546 248.822 169.742V146.145C248.822 145.342 249.255 144.709 249.789 144.733C250.323 144.756 250.755 145.419 250.755 146.215V169.672C250.755 170.468 250.323 171.139 249.789 171.154Z" fill="#333333"/>
<path d="M255.026 169.276C254.507 169.299 254.062 168.677 254.062 167.887V148.001C254.062 147.223 254.494 146.591 255.026 146.612C255.557 146.632 255.992 147.285 255.992 148.068V167.819C255.992 168.602 255.559 169.255 255.026 169.276Z" fill="#333333"/>
<path d="M260.258 171.758C259.724 171.787 259.294 171.183 259.294 170.411V145.484C259.294 144.707 259.724 144.106 260.258 144.134C260.792 144.163 261.222 144.811 261.222 145.578V170.32C261.222 171.082 260.789 171.73 260.258 171.758Z" fill="#333333"/>
<path d="M265.488 170.405C264.957 170.434 264.526 169.846 264.526 169.087V146.801C264.526 146.044 264.957 145.453 265.488 145.482C266.019 145.51 266.449 146.145 266.449 146.894V168.993C266.441 169.745 266.006 170.377 265.488 170.405Z" fill="#333333"/>
<path d="M270.693 168.563C270.162 168.591 269.731 168.013 269.731 167.267V148.609C269.731 147.871 270.162 147.293 270.693 147.313C271.224 147.334 271.652 147.956 271.652 148.69V167.174C271.652 167.918 271.221 168.547 270.693 168.563Z" fill="#333333"/>
<path d="M275.894 167.281C275.376 167.309 274.936 166.744 274.936 166.024V149.864C274.936 149.143 275.366 148.568 275.894 148.607C276.423 148.646 276.853 149.234 276.853 149.947V165.941C276.853 166.653 276.426 167.252 275.894 167.281Z" fill="#333333"/>
<path d="M281.087 191.899C280.569 192.005 280.131 191.523 280.131 190.821V125.067C280.131 124.367 280.558 123.885 281.087 123.991C281.616 124.098 282.043 124.745 282.043 125.437V190.453C282.043 191.145 281.616 191.792 281.087 191.899Z" fill="#1A1A1A"/>
<path d="M286.267 181.847C285.749 181.93 285.313 181.445 285.313 180.766V135.119C285.313 134.44 285.741 133.955 286.267 134.038C286.793 134.121 287.221 134.733 287.221 135.401V180.491C287.221 181.155 286.793 181.764 286.267 181.847Z" fill="#1A1A1A"/>
<path d="M291.435 171.44C290.917 171.491 290.484 171.002 290.484 170.344V145.544C290.484 144.888 290.912 144.399 291.435 144.45C291.959 144.502 292.389 145.067 292.389 145.712V170.178C292.389 170.823 291.961 171.398 291.435 171.44Z" fill="#1A1A1A"/>
<path d="M296.584 165.661C296.066 165.695 295.633 165.208 295.633 164.575V151.313C295.633 150.68 296.06 150.196 296.584 150.229C297.107 150.263 297.532 150.792 297.532 151.411V164.477C297.54 165.099 297.115 165.627 296.584 165.661Z" fill="#1A1A1A"/>
<path d="M301.733 169.123C301.215 169.175 300.787 168.726 300.787 168.12V147.767C300.787 147.164 301.21 146.713 301.733 146.764C302.005 146.813 302.251 146.958 302.425 147.173C302.598 147.389 302.689 147.659 302.679 147.936V167.954C302.689 168.23 302.598 168.501 302.424 168.715C302.251 168.93 302.005 169.075 301.733 169.123Z" fill="#1A1A1A"/>
<path d="M306.862 169.014C306.735 169.024 306.608 169.006 306.488 168.962C306.369 168.918 306.261 168.848 306.171 168.758C306.081 168.669 306.012 168.56 305.968 168.441C305.924 168.322 305.906 168.195 305.916 168.068V147.816C305.906 147.69 305.924 147.562 305.968 147.443C306.012 147.324 306.081 147.216 306.171 147.126C306.261 147.036 306.369 146.967 306.488 146.923C306.608 146.879 306.735 146.861 306.862 146.871C307.128 146.914 307.369 147.052 307.542 147.259C307.715 147.466 307.808 147.728 307.805 147.998V167.879C307.81 168.15 307.717 168.413 307.544 168.622C307.371 168.83 307.129 168.969 306.862 169.014Z" fill="#1A1A1A"/>
<path d="M262.711 117.145C262.711 117.145 265.214 109.025 270.021 111.453C276.992 114.971 263.308 130.809 263.308 130.809C263.308 130.809 252.807 120.14 255.417 116.234C258.441 111.681 262.711 117.145 262.711 117.145Z" fill="#666666" stroke="#1D1E1C" stroke-width="0.333669" stroke-linecap="round" stroke-linejoin="round"/>
<path d="M178 9H279.6V72.3H178V9Z" fill="url(#paint0_linear_2386_415143)" style="mix-blend-mode:overlay"/>
<path d="M493.401 198.6L553.001 488H546.101L491.701 224V488H484.801V222.2L467.301 302.2L462.301 430.7C461.901 438.7 454.601 445 445.601 445C443.101 445 440.701 444.6 438.601 443.7C437.903 443.8 437.105 443.899 436.307 443.999L436.301 444L426.701 488.1H419.801L429.401 444.1H405.201L412.101 482C412.201 482.8 412.201 483.7 412.001 484.5C411.801 485.3 411.401 486.1 410.901 486.7C410.301 487.3 409.701 487.8 408.901 488.2C408.201 488.5 407.301 488.7 406.501 488.7C405.301 488.7 404.101 488.3 403.101 487.6C402.101 486.8 401.401 485.8 401.001 484.6L388.801 444H98.0007L85.8007 484.6C85.4007 485.8 84.7007 486.9 83.7007 487.6C82.7007 488.3 81.5007 488.7 80.3007 488.7C79.5007 488.7 78.7007 488.6 77.9007 488.2C77.1007 487.9 76.4007 487.3 75.9007 486.7C75.4007 486.1 75.0007 485.3 74.8007 484.5C74.6007 483.7 74.6007 482.8 74.7007 482L81.6007 444.1H50.2007C49.0007 444.1 47.8007 443.9 46.6007 443.7C44.5007 444.5 42.2007 445 39.7007 445C30.6007 445 23.3007 438.7 23.0007 430.7L17.6007 298.3C17.5007 294.6 18.9007 291 21.6007 288.2C24.8007 284.9 29.4007 283 34.3007 283H35.2007V258.4C35.2007 257.3 35.4007 256.2 35.7007 255.2L34.8007 253.1C32.6007 248.5 30.4007 243.7 29.3007 236.8C28.7007 232.7 28.3007 228.7 28.3007 225.1C28.0007 220.8 28.5007 217.1 29.6007 214.6C30.0007 213.5 30.5007 212.6 31.1007 212C31.4007 211.7 31.8007 211.4 32.2007 211.3C32.5007 211.1 33.0007 211.1 33.4007 211.2C35.5007 211.7 38.3007 216.1 39.5007 218.3C41.0471 220.583 42.7021 223.354 44.5053 226.373C45.1508 227.454 45.8154 228.567 46.5007 229.7C50.1007 235.7 54.2007 242.5 58.2007 248.4H296.801C296.401 245.9 295.601 244.3 294.901 242.9C293.801 240.8 294.201 233 294.501 231.9C294.701 230.9 295.701 229.9 296.001 229.6C296.101 228.7 296.301 227.8 296.601 227C297.101 225.6 298.801 224.3 299.201 224L299.801 221.9L299.901 219C299.901 218.4 300.101 217.9 300.401 217.4C300.701 216.9 301.101 216.5 301.601 216.2C302.101 215.9 302.601 215.8 303.201 215.8C303.801 215.8 304.301 216 304.801 216.3L305.001 216.4L304.101 212.2C303.901 211.5 304.101 210.7 304.501 210C305.001 209.4 305.601 208.9 306.401 208.7C307.101 208.5 307.901 208.6 308.601 209C309.301 209.4 309.801 210 310.001 210.8L311.401 215.7L314.201 202.5C314.401 201.5 315.301 200.9 316.301 201.1L316.801 201.2C317.201 201.3 317.601 201.6 317.901 202C318.101 202.4 318.201 202.8 318.101 203.3L313.801 223.9L314.601 226.8L315.501 226.6C315.901 226.6 316.301 226.6 316.701 226.7C317.101 226.8 317.401 227 317.701 227.3L321.101 230.7C321.901 231.6 322.401 232.6 322.501 233.8C322.601 234.9 322.201 236.1 321.501 237L314.701 245.8C314.601 246 314.401 246.8 314.301 248.3H386.901C386.901 248.1 387.001 247.9 387.101 247.8C387.801 246.8 391.401 245.6 393.301 245L403.401 233C401.201 230.1 400.001 227.5 399.901 225.1C399.801 222.7 400.901 221 401.801 220.1C404.301 217.6 410.701 220.9 412.101 221.7C412.501 220.8 413.801 218 416.301 217.2C417.901 216.7 419.601 217.1 421.401 218.4C427.001 222.5 429.001 227.6 429.301 228.5C430.901 228.8 444.001 231.7 446.401 241.5C447.201 244.8 447.401 247.9 447.101 250.7C449.301 252.6 450.701 255.3 450.701 258.4V283H451.101C456.001 283 460.601 284.9 463.801 288.2L483.401 198.6H464.401V224.6C465.501 224.8 466.401 225.7 466.401 226.9V238.3C466.401 239.6 465.401 240.6 464.101 240.6C462.801 240.6 461.801 239.6 461.801 238.3V226.9C461.801 225.7 462.701 224.7 463.801 224.6V198.6H446.101C445.501 198.6 444.801 198.3 444.401 197.8C444.001 197.3 443.801 196.7 443.901 196L458.101 110.2C458.301 109.1 459.201 108.3 460.301 108.3H468.001V108.1H468.501V108.2H479.801V108H480.301V108.1H496.601V108H497.101V108.2H508.401V108.1H508.901V108.3H515.301C516.401 108.3 517.301 109.1 517.501 110.2L532.801 196C532.901 196.6 532.701 197.3 532.301 197.8C531.901 198.3 531.301 198.6 530.601 198.6H493.401Z" fill="url(#paint1_linear_2386_415143)" style="mix-blend-mode:overlay"/>
<path d="M433.6 38.7H370.3V140.3H433.6V38.7Z" fill="url(#paint2_linear_2386_415143)" style="mix-blend-mode:overlay"/>
<path d="M292.101 38.7H355.401V102H292.101V38.7Z" fill="url(#paint3_linear_2386_415143)" style="mix-blend-mode:overlay"/>
<path d="M312.3 175.2C312.5 175.4 312.8 175.5 313.1 175.5C313.4 175.5 313.7 175.4 313.9 175.2C314.1 175 314.2 174.7 314.2 174.4V143.2C316.4 144.4 319.6 144.4 322.7 143C327.2 141 329.8 136.9 328.4 133.8C327 130.7 322.3 129.8 317.8 131.8C313.7 133.6 311.2 137.2 311.8 140.2V174.3C311.854 174.407 311.9 174.507 311.944 174.6C312.061 174.853 312.154 175.054 312.3 175.2Z" fill="url(#paint4_linear_2386_415143)" style="mix-blend-mode:overlay"/>
<path fill-rule="evenodd" clip-rule="evenodd" d="M60.8005 179.5C61.7005 181.5 60.0005 184.1 57.1005 185.4C54.2005 186.6 51.1005 186.1 50.2005 184.2C49.3005 182.2 51.0005 179.6 53.9005 178.3C55.8005 177.5 57.7005 177.4 59.1005 178V158.8C59.1005 158.6 59.2005 158.4 59.3005 158.3C59.4005 158.1 59.5005 158 59.7005 158L78.1005 152.8H78.4005C78.5005 152.8 78.6005 152.8 78.7005 152.9C78.7505 152.95 78.7755 153 78.8005 153.05C78.8255 153.1 78.8505 153.15 78.9005 153.2C79.0005 153.3 79.0005 153.4 79.0005 153.5V174C79.1005 174 79.2005 174.1 79.2005 174.2C80.1005 176.2 78.4005 178.8 75.5005 180.1C72.5005 181.4 69.5005 180.8 68.6005 178.8C67.7005 176.8 69.4005 174.2 72.3005 172.9C74.2005 172.1 76.1005 172 77.5005 172.6V158.3L60.6005 163V179.3C60.7005 179.3 60.8005 179.4 60.8005 179.5ZM77.5005 156.6V154.3L60.6005 159.3V161.3L77.5005 156.6Z" fill="url(#paint5_linear_2386_415143)" style="mix-blend-mode:overlay"/>
<path fill-rule="evenodd" clip-rule="evenodd" d="M139.201 212.2C142.101 210.9 143.801 208.3 142.901 206.3C142.901 206.2 142.801 206.1 142.701 206V190.3H159.601V204.7C158.201 204.1 156.301 204.2 154.401 205C151.501 206.3 149.801 208.9 150.701 210.9C151.601 212.9 154.601 213.5 157.601 212.2C160.501 210.9 162.201 208.3 161.301 206.3C161.301 206.2 161.201 206.1 161.101 206V185.6C161.101 185.4 161.001 185.2 160.901 185.1C160.801 185 160.601 184.9 160.401 184.9H142.001C141.801 184.9 141.601 185 141.501 185.1C141.401 185.2 141.301 185.4 141.301 185.6V204.9C139.901 204.3 138.001 204.3 136.101 205.2C133.201 206.5 131.501 209.1 132.401 211.1C133.201 212.9 136.301 213.5 139.201 212.2ZM159.601 186.3V188.8H142.701V186.3H159.601Z" fill="url(#paint6_linear_2386_415143)" style="mix-blend-mode:overlay"/>
<path d="M93.6007 175.5C93.6007 176.1 93.2007 176.5 92.7007 176.4C92.4007 176.4 92.2007 176.2 92.0007 176C91.8007 175.7 91.7007 175.5 91.7007 175.2V140.6C91.7007 140.3 91.8007 140 92.0007 139.8C92.2007 139.6 92.4007 139.5 92.7007 139.4C93.2007 139.3 93.6007 139.7 93.6007 140.3V175.5Z" fill="url(#paint7_linear_2386_415143)" style="mix-blend-mode:overlay"/>
<path d="M97.8003 191.4C98.3003 191.6 98.7003 191.2 98.7003 190.6V125.3C98.7003 124.7 98.3003 124.3 97.8003 124.5C97.5003 124.6 97.3003 124.8 97.1003 125C96.9003 125.2 96.8003 125.5 96.8003 125.8V190C96.8003 190.3 96.9003 190.6 97.1003 190.8C97.3003 191.1 97.5003 191.3 97.8003 191.4Z" fill="url(#paint8_linear_2386_415143)" style="mix-blend-mode:overlay"/>
<path d="M104 166.8C104 167.5 103.5 167.9 103 167.9C102.4 167.8 102 167.3 102.1 166.6V149.2C102.1 148.6 102.5 148 103 148C103.6 148 104 148.5 104 149.1V166.8Z" fill="url(#paint9_linear_2386_415143)" style="mix-blend-mode:overlay"/>
<path d="M108.101 168.7C108.601 168.7 109.101 168.2 109.101 167.6V148.3C109.101 147.6 108.701 147.1 108.101 147.2C107.601 147.2 107.101 147.8 107.101 148.4V167.4C107.201 168.1 107.601 168.7 108.101 168.7Z" fill="url(#paint10_linear_2386_415143)" style="mix-blend-mode:overlay"/>
<path d="M114.3 173.2C114.3 173.9 113.8 174.4 113.3 174.3C112.8 174.2 112.3 173.6 112.3 173V143C112.3 142.3 112.8 141.8 113.3 141.7C113.9 141.6 114.3 142.1 114.3 142.8V173.2Z" fill="url(#paint11_linear_2386_415143)" style="mix-blend-mode:overlay"/>
<path d="M118.5 177.7C119 177.8 119.5 177.2 119.5 176.5V139.2C119.5 138.5 119.1 138 118.5 138C118 138.1 117.5 138.7 117.5 139.4V176.3C117.5 177.1 117.9 177.7 118.5 177.7Z" fill="url(#paint12_linear_2386_415143)" style="mix-blend-mode:overlay"/>
<path d="M124.701 169.1C124.701 169.8 124.201 170.3 123.701 170.3C123.101 170.3 122.701 169.7 122.701 169.1V147.1C122.701 146.3 123.201 145.7 123.701 145.7C124.301 145.6 124.701 146.2 124.701 146.9V169.1Z" fill="url(#paint13_linear_2386_415143)" style="mix-blend-mode:overlay"/>
<path d="M128.9 184.6C129.4 184.7 129.9 184.1 129.9 183.4V132.6C129.9 131.9 129.5 131.3 128.9 131.4C128.4 131.5 127.9 132.1 127.9 132.9V183.2C127.9 183.8 128.3 184.5 128.9 184.6Z" fill="url(#paint14_linear_2386_415143)" style="mix-blend-mode:overlay"/>
<path d="M135.101 183.9C135.101 184.7 134.601 185.3 134.101 185.2C133.601 185.1 133.101 184.5 133.101 183.7V132.1C133.101 131.3 133.501 130.6 134.101 130.6C134.701 130.6 135.101 131.1 135.101 131.9V183.9Z" fill="url(#paint15_linear_2386_415143)" style="mix-blend-mode:overlay"/>
<path d="M139.3 170.7C139.8 170.7 140.3 170.1 140.3 169.3V146.5C140.3 145.7 139.9 145.1 139.3 145.1C138.8 145.1 138.3 145.8 138.3 146.5V169.1C138.3 170 138.8 170.7 139.3 170.7Z" fill="url(#paint16_linear_2386_415143)" style="mix-blend-mode:overlay"/>
<path d="M145.5 167.9C145.5 168.7 145 169.3 144.5 169.3C144 169.3 143.6 168.6 143.5 167.8V148.1C143.5 147.3 144 146.6 144.5 146.6C145.1 146.6 145.5 147.2 145.5 148V167.9Z" fill="url(#paint17_linear_2386_415143)" style="mix-blend-mode:overlay"/>
<path d="M149.8 172.3C150.3 172.3 150.8 171.7 150.8 170.9V145C150.8 144.2 150.4 143.6 149.8 143.6C149.3 143.6 148.8 144.3 148.8 145.1V170.8C148.8 171.6 149.2 172.3 149.8 172.3Z" fill="url(#paint18_linear_2386_415143)" style="mix-blend-mode:overlay"/>
<path d="M156 170C156 170.8 155.5 171.4 155 171.4C154.5 171.3 154 170.7 154 169.9V146.1C154 145.3 154.5 144.6 155 144.6C155.6 144.5 156 145.2 156 146V170Z" fill="url(#paint19_linear_2386_415143)" style="mix-blend-mode:overlay"/>
<path d="M160.3 169.8C160.8 169.8 161.3 169.2 161.3 168.3V147.5C161.3 146.7 160.9 146 160.3 146C159.8 146 159.3 146.7 159.3 147.5V168.2C159.3 169.1 159.7 169.8 160.3 169.8Z" fill="url(#paint20_linear_2386_415143)" style="mix-blend-mode:overlay"/>
<path d="M166.5 167.3C166.5 168.1 166 168.8 165.5 168.8C165 168.8 164.5 168.1 164.5 167.2V148.6C164.5 147.8 165 147.1 165.5 147.1C166.1 147.1 166.5 147.8 166.5 148.6V167.3Z" fill="url(#paint21_linear_2386_415143)" style="mix-blend-mode:overlay"/>
<path d="M170.8 198.9C171.3 198.9 171.8 198.3 171.8 197.4V118.3C171.8 117.5 171.4 116.8 170.8 116.8C170.2 116.8 169.8 117.5 169.8 118.4V197.2C169.8 198.2 170.2 198.9 170.8 198.9Z" fill="url(#paint22_linear_2386_415143)" style="mix-blend-mode:overlay"/>
<path d="M177 186.5C177 187.4 176.5 188 176 188C175.5 188 175.1 187.3 175 186.4V129.5C175 128.6 175.5 127.9 176 127.9C176.6 127.9 177 128.6 177 129.4V186.5Z" fill="url(#paint23_linear_2386_415143)" style="mix-blend-mode:overlay"/>
<path d="M180.3 141.8V174C180.3 174.8 180.7 175.6 181.3 175.6C181.8 175.6 182.3 174.9 182.3 174.1V141.8C182.3 140.9 181.9 140.3 181.3 140.3C180.8 140.3 180.3 141 180.3 141.8Z" fill="url(#paint24_linear_2386_415143)" style="mix-blend-mode:overlay"/>
<path d="M185.601 166.9V148.9C185.601 148.1 186.001 147.4 186.601 147.4C187.201 147.4 187.601 148.1 187.601 149V167C187.601 167.8 187.101 168.5 186.601 168.5C186.001 168.5 185.601 167.8 185.601 166.9Z" fill="url(#paint25_linear_2386_415143)" style="mix-blend-mode:overlay"/>
<path d="M190.9 143.5V172.4C190.9 173.2 191.3 174 191.9 174C192.4 174 192.9 173.3 192.9 172.5V143.6C192.9 142.7 192.5 142 191.9 142C191.3 141.9 190.9 142.6 190.9 143.5Z" fill="url(#paint26_linear_2386_415143)" style="mix-blend-mode:overlay"/>
<path d="M196.201 173V142.9C196.201 142 196.601 141.2 197.201 141.2C197.801 141.2 198.201 141.9 198.201 142.8V173C198.201 173.9 197.701 174.6 197.201 174.6C196.601 174.6 196.201 173.9 196.201 173Z" fill="url(#paint27_linear_2386_415143)" style="mix-blend-mode:overlay"/>
<path d="M201.4 131.7V184.2C201.4 185.1 201.8 185.8 202.4 185.8C202.9 185.8 203.4 185.1 203.4 184.2V131.7C203.4 130.8 203 130.1 202.4 130.1C201.9 130.1 201.4 130.8 201.4 131.7Z" fill="url(#paint28_linear_2386_415143)" style="mix-blend-mode:overlay"/>
<path d="M206.701 204.3V111.5C206.701 110.7 207.201 110 207.701 109.8C208.301 109.8 208.701 110.5 208.701 111.4V204.2C208.701 205.1 208.201 205.8 207.701 205.8C207.101 205.8 206.701 205.2 206.701 204.3Z" fill="url(#paint29_linear_2386_415143)" style="mix-blend-mode:overlay"/>
<path d="M212 145.9V169.9C212 170.8 212.4 171.5 213 171.5C213.5 171.5 214 170.8 214 169.9V145.9C214 145.1 213.6 144.3 213 144.3C212.4 144.4 212 145.1 212 145.9Z" fill="url(#paint30_linear_2386_415143)" style="mix-blend-mode:overlay"/>
<path d="M217.3 170.5V145.4C217.3 144.5 217.7 143.8 218.3 143.7C218.9 143.8 219.3 144.5 219.3 145.3V170.4C219.3 171.3 218.8 172 218.3 172C217.7 172 217.3 171.4 217.3 170.5Z" fill="url(#paint31_linear_2386_415143)" style="mix-blend-mode:overlay"/>
<path d="M222.5 138.9V177C222.5 177.8 222.9 178.5 223.5 178.5C224 178.5 224.5 177.8 224.5 176.9V138.9C224.5 138.1 224.1 137.4 223.5 137.3C223 137.4 222.5 138.1 222.5 138.9Z" fill="url(#paint32_linear_2386_415143)" style="mix-blend-mode:overlay"/>
<path d="M227.8 180.3V135.5C227.8 134.7 228.2 134 228.8 133.9C229.4 134 229.8 134.7 229.8 135.5V180.2C229.8 181.1 229.3 181.8 228.8 181.8C228.2 181.8 227.8 181.1 227.8 180.3Z" fill="url(#paint33_linear_2386_415143)" style="mix-blend-mode:overlay"/>
<path d="M233.101 145.1V170.8C233.101 171.6 233.501 172.3 234.101 172.3C234.601 172.3 235.101 171.6 235.101 170.8V145.2C235.101 144.4 234.701 143.7 234.101 143.7C233.501 143.6 233.101 144.3 233.101 145.1Z" fill="url(#paint34_linear_2386_415143)" style="mix-blend-mode:overlay"/>
<path d="M238.3 186.2V129.6C238.3 128.8 238.8 128.2 239.3 128C239.9 128.1 240.3 128.8 240.3 129.6V186C240.3 186.9 239.8 187.6 239.3 187.6C238.7 187.7 238.3 187 238.3 186.2Z" fill="url(#paint35_linear_2386_415143)" style="mix-blend-mode:overlay"/>
<path d="M243.601 130V185.9C243.601 186.7 244.001 187.3 244.601 187.3C245.101 187.3 245.601 186.6 245.601 185.8V130.2C245.601 129.4 245.201 128.7 244.601 128.6C244.001 128.6 243.601 129.2 243.601 130Z" fill="url(#paint36_linear_2386_415143)" style="mix-blend-mode:overlay"/>
<path d="M248.8 169.7V146.1C248.8 145.3 249.3 144.7 249.8 144.6C250.4 144.6 250.8 145.3 250.8 146.1V169.6C250.8 170.4 250.3 171.1 249.8 171.1C249.2 171.1 248.8 170.5 248.8 169.7Z" fill="url(#paint37_linear_2386_415143)" style="mix-blend-mode:overlay"/>
<path d="M254.101 148V167.9C254.101 168.7 254.501 169.3 255.101 169.3C255.601 169.3 256.101 168.6 256.101 167.8V148C256.101 147.2 255.701 146.6 255.101 146.5C254.501 146.6 254.101 147.2 254.101 148Z" fill="url(#paint38_linear_2386_415143)" style="mix-blend-mode:overlay"/>
<path d="M259.3 170.4V145.5C259.3 144.7 259.7 144.1 260.3 144.2C260.9 144.2 261.3 144.8 261.3 145.6V170.3C261.3 171 260.8 171.7 260.3 171.7C259.7 171.8 259.3 171.2 259.3 170.4Z" fill="url(#paint39_linear_2386_415143)" style="mix-blend-mode:overlay"/>
<path d="M264.5 146.8V169.1C264.5 169.9 264.9 170.4 265.5 170.4C266 170.4 266.5 169.7 266.5 169V146.9C266.5 146.2 266.1 145.5 265.5 145.5C265 145.5 264.5 146 264.5 146.8Z" fill="url(#paint40_linear_2386_415143)" style="mix-blend-mode:overlay"/>
<path d="M269.701 167.3V148.6C269.701 147.9 270.201 147.3 270.701 147.3C271.301 147.3 271.701 148 271.701 148.7V167.2C271.701 168 271.201 168.6 270.701 168.6C270.101 168.6 269.701 168 269.701 167.3Z" fill="url(#paint41_linear_2386_415143)" style="mix-blend-mode:overlay"/>
<path d="M274.9 149.9V166C274.9 166.7 275.3 167.3 275.9 167.3C276.4 167.3 276.9 166.7 276.9 166V150C276.9 149.3 276.5 148.7 275.9 148.7C275.4 148.6 274.9 149.1 274.9 149.9Z" fill="url(#paint42_linear_2386_415143)" style="mix-blend-mode:overlay"/>
<path d="M282.101 190.5C282.101 191.1 281.601 191.8 281.101 191.9C280.601 192 280.101 191.5 280.101 191V125.2C280.101 124.5 280.601 124 281.101 124.1C281.701 124.2 282.101 124.8 282.101 125.5V190.5Z" fill="url(#paint43_linear_2386_415143)" style="mix-blend-mode:overlay"/>
<path d="M286.3 181.8C286.8 181.7 287.3 181.1 287.3 180.4V135.3C287.3 134.6 286.9 134 286.3 133.9C285.8 133.8 285.3 134.3 285.3 135V180.6C285.3 181.4 285.7 181.9 286.3 181.8Z" fill="url(#paint44_linear_2386_415143)" style="mix-blend-mode:overlay"/>
<path d="M292.4 170.1C292.4 170.8 291.9 171.4 291.4 171.4C290.9 171.5 290.5 171 290.4 170.2V145.4C290.4 144.7 290.9 144.2 291.4 144.3C292 144.4 292.4 145 292.4 145.6V170.1Z" fill="url(#paint45_linear_2386_415143)" style="mix-blend-mode:overlay"/>
<path d="M295.601 151.3V164.6C295.601 165.2 296.001 165.7 296.601 165.7C297.101 165.7 297.601 165.1 297.501 164.5V151.4C297.501 150.8 297.101 150.3 296.601 150.2C296.101 150.2 295.601 150.7 295.601 151.3Z" fill="url(#paint46_linear_2386_415143)" style="mix-blend-mode:overlay"/>
<path d="M300.8 168.2V147.8C300.8 147.2 301.2 146.7 301.7 146.8C302 146.8 302.2 147 302.4 147.2C302.6 147.5 302.7 147.7 302.7 148V168C302.7 168.3 302.6 168.6 302.4 168.8C302.2 169 302 169.2 301.7 169.2C301.2 169.3 300.8 168.8 300.8 168.2Z" fill="url(#paint47_linear_2386_415143)" style="mix-blend-mode:overlay"/>
<path d="M306.5 146.9C306.4 146.9 306.3 147 306.2 147.1C306.1 147.2 306 147.3 306 147.4C306 147.441 305.983 147.483 305.963 147.531C305.935 147.6 305.9 147.683 305.9 147.8V168.1C305.9 168.2 305.9 168.4 306 168.5C306 168.6 306.1 168.7 306.2 168.8C306.3 168.9 306.4 169 306.5 169C306.528 169 306.555 169.007 306.585 169.018C306.6 169.024 306.615 169.03 306.632 169.037C306.7 169.066 306.783 169.1 306.9 169.1C307.2 169.1 307.4 168.9 307.6 168.7C307.8 168.5 307.9 168.2 307.9 168V148C307.9 147.7 307.8 147.5 307.6 147.3C307.4 147.1 307.2 147 306.9 146.9H306.5Z" fill="url(#paint48_linear_2386_415143)" style="mix-blend-mode:overlay"/>
<path d="M270.1 111.3C271.201 111.9 271.9 112.7 272.1 113.9C273.201 119.5 263.8 130.5 263.4 130.8C263.4 130.9 263.3 130.9 263.3 130.9H263.201C263.164 130.855 263.047 130.728 262.866 130.533C261.053 128.58 252.846 119.737 255.3 116.1C256.1 114.9 257.1 114.2 258.201 114.2H258.3C260.3 114.2 262.1 116.1 262.701 116.8C263 115.7 264.4 112.1 266.9 111.1C267.9 110.7 269 110.7 270.1 111.3Z" fill="url(#paint49_linear_2386_415143)" style="mix-blend-mode:overlay"/>
<defs>
<linearGradient id="paint0_linear_2386_415143" x1="553.001" y1="248.103" x2="17.5957" y2="248.103" gradientUnits="userSpaceOnUse">
<stop stop-color="#E60050"/>
<stop offset="1" stop-color="#5D6AE8"/>
</linearGradient>
<linearGradient id="paint1_linear_2386_415143" x1="553.001" y1="248.103" x2="17.5957" y2="248.103" gradientUnits="userSpaceOnUse">
<stop stop-color="#E60050"/>
<stop offset="1" stop-color="#5D6AE8"/>
</linearGradient>
<linearGradient id="paint2_linear_2386_415143" x1="553.001" y1="248.103" x2="17.5957" y2="248.103" gradientUnits="userSpaceOnUse">
<stop stop-color="#E60050"/>
<stop offset="1" stop-color="#5D6AE8"/>
</linearGradient>
<linearGradient id="paint3_linear_2386_415143" x1="553.001" y1="248.103" x2="17.5957" y2="248.103" gradientUnits="userSpaceOnUse">
<stop stop-color="#E60050"/>
<stop offset="1" stop-color="#5D6AE8"/>
</linearGradient>
<linearGradient id="paint4_linear_2386_415143" x1="553.001" y1="248.103" x2="17.5957" y2="248.103" gradientUnits="userSpaceOnUse">
<stop stop-color="#E60050"/>
<stop offset="1" stop-color="#5D6AE8"/>
</linearGradient>
<linearGradient id="paint5_linear_2386_415143" x1="553.001" y1="248.103" x2="17.5957" y2="248.103" gradientUnits="userSpaceOnUse">
<stop stop-color="#E60050"/>
<stop offset="1" stop-color="#5D6AE8"/>
</linearGradient>
<linearGradient id="paint6_linear_2386_415143" x1="553.001" y1="248.103" x2="17.5957" y2="248.103" gradientUnits="userSpaceOnUse">
<stop stop-color="#E60050"/>
<stop offset="1" stop-color="#5D6AE8"/>
</linearGradient>
<linearGradient id="paint7_linear_2386_415143" x1="553.001" y1="248.103" x2="17.5957" y2="248.103" gradientUnits="userSpaceOnUse">
<stop stop-color="#E60050"/>
<stop offset="1" stop-color="#5D6AE8"/>
</linearGradient>
<linearGradient id="paint8_linear_2386_415143" x1="553.001" y1="248.103" x2="17.5957" y2="248.103" gradientUnits="userSpaceOnUse">
<stop stop-color="#E60050"/>
<stop offset="1" stop-color="#5D6AE8"/>
</linearGradient>
<linearGradient id="paint9_linear_2386_415143" x1="553.001" y1="248.103" x2="17.5957" y2="248.103" gradientUnits="userSpaceOnUse">
<stop stop-color="#E60050"/>
<stop offset="1" stop-color="#5D6AE8"/>
</linearGradient>
<linearGradient id="paint10_linear_2386_415143" x1="553.001" y1="248.103" x2="17.5957" y2="248.103" gradientUnits="userSpaceOnUse">
<stop stop-color="#E60050"/>
<stop offset="1" stop-color="#5D6AE8"/>
</linearGradient>
<linearGradient id="paint11_linear_2386_415143" x1="553.001" y1="248.103" x2="17.5957" y2="248.103" gradientUnits="userSpaceOnUse">
<stop stop-color="#E60050"/>
<stop offset="1" stop-color="#5D6AE8"/>
</linearGradient>
<linearGradient id="paint12_linear_2386_415143" x1="553.001" y1="248.103" x2="17.5957" y2="248.103" gradientUnits="userSpaceOnUse">
<stop stop-color="#E60050"/>
<stop offset="1" stop-color="#5D6AE8"/>
</linearGradient>
<linearGradient id="paint13_linear_2386_415143" x1="553.001" y1="248.103" x2="17.5957" y2="248.103" gradientUnits="userSpaceOnUse">
<stop stop-color="#E60050"/>
<stop offset="1" stop-color="#5D6AE8"/>
</linearGradient>
<linearGradient id="paint14_linear_2386_415143" x1="553.001" y1="248.103" x2="17.5957" y2="248.103" gradientUnits="userSpaceOnUse">
<stop stop-color="#E60050"/>
<stop offset="1" stop-color="#5D6AE8"/>
</linearGradient>
<linearGradient id="paint15_linear_2386_415143" x1="553.001" y1="248.103" x2="17.5957" y2="248.103" gradientUnits="userSpaceOnUse">
<stop stop-color="#E60050"/>
<stop offset="1" stop-color="#5D6AE8"/>
</linearGradient>
<linearGradient id="paint16_linear_2386_415143" x1="553.001" y1="248.103" x2="17.5957" y2="248.103" gradientUnits="userSpaceOnUse">
<stop stop-color="#E60050"/>
<stop offset="1" stop-color="#5D6AE8"/>
</linearGradient>
<linearGradient id="paint17_linear_2386_415143" x1="553.001" y1="248.103" x2="17.5957" y2="248.103" gradientUnits="userSpaceOnUse">
<stop stop-color="#E60050"/>
<stop offset="1" stop-color="#5D6AE8"/>
</linearGradient>
<linearGradient id="paint18_linear_2386_415143" x1="553.001" y1="248.103" x2="17.5957" y2="248.103" gradientUnits="userSpaceOnUse">
<stop stop-color="#E60050"/>
<stop offset="1" stop-color="#5D6AE8"/>
</linearGradient>
<linearGradient id="paint19_linear_2386_415143" x1="553.001" y1="248.103" x2="17.5957" y2="248.103" gradientUnits="userSpaceOnUse">
<stop stop-color="#E60050"/>
<stop offset="1" stop-color="#5D6AE8"/>
</linearGradient>
<linearGradient id="paint20_linear_2386_415143" x1="553.001" y1="248.103" x2="17.5957" y2="248.103" gradientUnits="userSpaceOnUse">
<stop stop-color="#E60050"/>
<stop offset="1" stop-color="#5D6AE8"/>
</linearGradient>
<linearGradient id="paint21_linear_2386_415143" x1="553.001" y1="248.103" x2="17.5957" y2="248.103" gradientUnits="userSpaceOnUse">
<stop stop-color="#E60050"/>
<stop offset="1" stop-color="#5D6AE8"/>
</linearGradient>
<linearGradient id="paint22_linear_2386_415143" x1="553.001" y1="248.103" x2="17.5957" y2="248.103" gradientUnits="userSpaceOnUse">
<stop stop-color="#E60050"/>
<stop offset="1" stop-color="#5D6AE8"/>
</linearGradient>
<linearGradient id="paint23_linear_2386_415143" x1="553.001" y1="248.103" x2="17.5957" y2="248.103" gradientUnits="userSpaceOnUse">
<stop stop-color="#E60050"/>
<stop offset="1" stop-color="#5D6AE8"/>
</linearGradient>
<linearGradient id="paint24_linear_2386_415143" x1="553.001" y1="248.103" x2="17.5957" y2="248.103" gradientUnits="userSpaceOnUse">
<stop stop-color="#E60050"/>
<stop offset="1" stop-color="#5D6AE8"/>
</linearGradient>
<linearGradient id="paint25_linear_2386_415143" x1="553.001" y1="248.103" x2="17.5957" y2="248.103" gradientUnits="userSpaceOnUse">
<stop stop-color="#E60050"/>
<stop offset="1" stop-color="#5D6AE8"/>
</linearGradient>
<linearGradient id="paint26_linear_2386_415143" x1="553.001" y1="248.103" x2="17.5957" y2="248.103" gradientUnits="userSpaceOnUse">
<stop stop-color="#E60050"/>
<stop offset="1" stop-color="#5D6AE8"/>
</linearGradient>
<linearGradient id="paint27_linear_2386_415143" x1="553.001" y1="248.103" x2="17.5957" y2="248.103" gradientUnits="userSpaceOnUse">
<stop stop-color="#E60050"/>
<stop offset="1" stop-color="#5D6AE8"/>
</linearGradient>
<linearGradient id="paint28_linear_2386_415143" x1="553.001" y1="248.103" x2="17.5957" y2="248.103" gradientUnits="userSpaceOnUse">
<stop stop-color="#E60050"/>
<stop offset="1" stop-color="#5D6AE8"/>
</linearGradient>
<linearGradient id="paint29_linear_2386_415143" x1="553.001" y1="248.103" x2="17.5957" y2="248.103" gradientUnits="userSpaceOnUse">
<stop stop-color="#E60050"/>
<stop offset="1" stop-color="#5D6AE8"/>
</linearGradient>
<linearGradient id="paint30_linear_2386_415143" x1="553.001" y1="248.103" x2="17.5957" y2="248.103" gradientUnits="userSpaceOnUse">
<stop stop-color="#E60050"/>
<stop offset="1" stop-color="#5D6AE8"/>
</linearGradient>
<linearGradient id="paint31_linear_2386_415143" x1="553.001" y1="248.103" x2="17.5957" y2="248.103" gradientUnits="userSpaceOnUse">
<stop stop-color="#E60050"/>
<stop offset="1" stop-color="#5D6AE8"/>
</linearGradient>
<linearGradient id="paint32_linear_2386_415143" x1="553.001" y1="248.103" x2="17.5957" y2="248.103" gradientUnits="userSpaceOnUse">
<stop stop-color="#E60050"/>
<stop offset="1" stop-color="#5D6AE8"/>
</linearGradient>
<linearGradient id="paint33_linear_2386_415143" x1="553.001" y1="248.103" x2="17.5957" y2="248.103" gradientUnits="userSpaceOnUse">
<stop stop-color="#E60050"/>
<stop offset="1" stop-color="#5D6AE8"/>
</linearGradient>
<linearGradient id="paint34_linear_2386_415143" x1="553.001" y1="248.103" x2="17.5957" y2="248.103" gradientUnits="userSpaceOnUse">
<stop stop-color="#E60050"/>
<stop offset="1" stop-color="#5D6AE8"/>
</linearGradient>
<linearGradient id="paint35_linear_2386_415143" x1="553.001" y1="248.103" x2="17.5957" y2="248.103" gradientUnits="userSpaceOnUse">
<stop stop-color="#E60050"/>
<stop offset="1" stop-color="#5D6AE8"/>
</linearGradient>
<linearGradient id="paint36_linear_2386_415143" x1="553.001" y1="248.103" x2="17.5957" y2="248.103" gradientUnits="userSpaceOnUse">
<stop stop-color="#E60050"/>
<stop offset="1" stop-color="#5D6AE8"/>
</linearGradient>
<linearGradient id="paint37_linear_2386_415143" x1="553.001" y1="248.103" x2="17.5957" y2="248.103" gradientUnits="userSpaceOnUse">
<stop stop-color="#E60050"/>
<stop offset="1" stop-color="#5D6AE8"/>
</linearGradient>
<linearGradient id="paint38_linear_2386_415143" x1="553.001" y1="248.103" x2="17.5957" y2="248.103" gradientUnits="userSpaceOnUse">
<stop stop-color="#E60050"/>
<stop offset="1" stop-color="#5D6AE8"/>
</linearGradient>
<linearGradient id="paint39_linear_2386_415143" x1="553.001" y1="248.103" x2="17.5957" y2="248.103" gradientUnits="userSpaceOnUse">
<stop stop-color="#E60050"/>
<stop offset="1" stop-color="#5D6AE8"/>
</linearGradient>
<linearGradient id="paint40_linear_2386_415143" x1="553.001" y1="248.103" x2="17.5957" y2="248.103" gradientUnits="userSpaceOnUse">
<stop stop-color="#E60050"/>
<stop offset="1" stop-color="#5D6AE8"/>
</linearGradient>
<linearGradient id="paint41_linear_2386_415143" x1="553.001" y1="248.103" x2="17.5957" y2="248.103" gradientUnits="userSpaceOnUse">
<stop stop-color="#E60050"/>
<stop offset="1" stop-color="#5D6AE8"/>
</linearGradient>
<linearGradient id="paint42_linear_2386_415143" x1="553.001" y1="248.103" x2="17.5957" y2="248.103" gradientUnits="userSpaceOnUse">
<stop stop-color="#E60050"/>
<stop offset="1" stop-color="#5D6AE8"/>
</linearGradient>
<linearGradient id="paint43_linear_2386_415143" x1="553.001" y1="248.103" x2="17.5957" y2="248.103" gradientUnits="userSpaceOnUse">
<stop stop-color="#E60050"/>
<stop offset="1" stop-color="#5D6AE8"/>
</linearGradient>
<linearGradient id="paint44_linear_2386_415143" x1="553.001" y1="248.103" x2="17.5957" y2="248.103" gradientUnits="userSpaceOnUse">
<stop stop-color="#E60050"/>
<stop offset="1" stop-color="#5D6AE8"/>
</linearGradient>
<linearGradient id="paint45_linear_2386_415143" x1="553.001" y1="248.103" x2="17.5957" y2="248.103" gradientUnits="userSpaceOnUse">
<stop stop-color="#E60050"/>
<stop offset="1" stop-color="#5D6AE8"/>
</linearGradient>
<linearGradient id="paint46_linear_2386_415143" x1="553.001" y1="248.103" x2="17.5957" y2="248.103" gradientUnits="userSpaceOnUse">
<stop stop-color="#E60050"/>
<stop offset="1" stop-color="#5D6AE8"/>
</linearGradient>
<linearGradient id="paint47_linear_2386_415143" x1="553.001" y1="248.103" x2="17.5957" y2="248.103" gradientUnits="userSpaceOnUse">
<stop stop-color="#E60050"/>
<stop offset="1" stop-color="#5D6AE8"/>
</linearGradient>
<linearGradient id="paint48_linear_2386_415143" x1="553.001" y1="248.103" x2="17.5957" y2="248.103" gradientUnits="userSpaceOnUse">
<stop stop-color="#E60050"/>
<stop offset="1" stop-color="#5D6AE8"/>
</linearGradient>
<linearGradient id="paint49_linear_2386_415143" x1="553.001" y1="248.103" x2="17.5957" y2="248.103" gradientUnits="userSpaceOnUse">
<stop stop-color="#E60050"/>
<stop offset="1" stop-color="#5D6AE8"/>
</linearGradient>
</defs>
</svg>
