<svg width="72" height="36" viewBox="0 0 72 36" fill="none" xmlns="http://www.w3.org/2000/svg">
<circle cx="9" cy="13" r="4" stroke="#5D6AE8" stroke-width="2"/>
<path d="M0 27C0 27.5523 0.447715 28 1 28C1.55228 28 2 27.5523 2 27H0ZM16 27C16 27.5523 16.4477 28 17 28C17.5523 28 18 27.5523 18 27H16ZM2 27V25H0V27H2ZM5 22H13V20H5V22ZM16 25V27H18V25H16ZM13 22C14.6569 22 16 23.3431 16 25H18C18 22.2386 15.7614 20 13 20V22ZM2 25C2 23.3431 3.34315 22 5 22V20C2.23858 20 0 22.2386 0 25H2Z" fill="#5D6AE8"/>
<path fill-rule="evenodd" clip-rule="evenodd" d="M53 24H56V35H53C51.8954 35 51 34.1046 51 33V26C51 24.8954 51.8954 24 53 24Z" stroke="#5D6AE8" stroke-width="2" stroke-linejoin="round"/>
<path fill-rule="evenodd" clip-rule="evenodd" d="M56 24L60 15C61.6569 15 63 16.3431 63 18V22H68.6688C69.7733 22 70.6688 22.8954 70.6688 24C70.6688 24.1018 70.661 24.2035 70.6455 24.3041L69.2609 33.3041C69.1108 34.2798 68.2713 35 67.2842 35H56V24Z" stroke="#5D6AE8" stroke-width="2" stroke-linejoin="round"/>
<path d="M43 13V10C43 5.02944 38.9706 1 34 1C29.0294 1 25 5.02944 25 10V13" stroke="#5D6AE8" stroke-width="2"/>
<path d="M29 14V12C29 10.8954 28.1046 10 27 10C25.8954 10 25 10.8954 25 12V14C25 15.1046 25.8954 16 27 16C28.1046 16 29 15.1046 29 14Z" stroke="#5D6AE8" stroke-width="2"/>
<path d="M43 14V12C43 10.8954 42.1046 10 41 10C39.8954 10 39 10.8954 39 12V14C39 15.1046 39.8954 16 41 16C42.1046 16 43 15.1046 43 14Z" stroke="#5D6AE8" stroke-width="2"/>
<path d="M35 19H38C39.6569 19 41 17.6569 41 16" stroke="#5D6AE8" stroke-width="2" stroke-linecap="round" stroke-linejoin="round"/>
</svg>
