<svg width="95" height="38" viewBox="0 0 95 38" fill="none" xmlns="http://www.w3.org/2000/svg">
<path d="M1 16H5L10 12V26L5 22H1V16Z" stroke="#5D6AE8" stroke-width="2" stroke-linejoin="round"/>
<path d="M16 16L22 22" stroke="#5D6AE8" stroke-width="2" stroke-miterlimit="10" stroke-linecap="round"/>
<path d="M22 16L16 22" stroke="#5D6AE8" stroke-width="2" stroke-miterlimit="10" stroke-linecap="round"/>
<path fill-rule="evenodd" clip-rule="evenodd" d="M40 25C41.1046 25 42 25.8954 42 27C42 28.1046 41.1046 29 40 29C38.8954 29 38 28.1046 38 27C38 25.8954 38.8954 25 40 25ZM40 17C41.1046 17 42 17.8954 42 19C42 20.1046 41.1046 21 40 21C38.8954 21 38 20.1046 38 19C38 17.8954 38.8954 17 40 17ZM40 9C41.1046 9 42 9.89543 42 11C42 12.1046 41.1046 13 40 13C38.8954 13 38 12.1046 38 11C38 9.89543 38.8954 9 40 9Z" stroke="#5D6AE8" stroke-width="2"/>
<path fill-rule="evenodd" clip-rule="evenodd" d="M48 25C49.1046 25 50 25.8954 50 27C50 28.1046 49.1046 29 48 29C46.8954 29 46 28.1046 46 27C46 25.8954 46.8954 25 48 25ZM48 33C49.1046 33 50 33.8954 50 35C50 36.1046 49.1046 37 48 37C46.8954 37 46 36.1046 46 35C46 33.8954 46.8954 33 48 33ZM48 17C49.1046 17 50 17.8954 50 19C50 20.1046 49.1046 21 48 21C46.8954 21 46 20.1046 46 19C46 17.8954 46.8954 17 48 17ZM48 9C49.1046 9 50 9.89543 50 11C50 12.1046 49.1046 13 48 13C46.8954 13 46 12.1046 46 11C46 9.89543 46.8954 9 48 9Z" stroke="#5D6AE8" stroke-width="2"/>
<path fill-rule="evenodd" clip-rule="evenodd" d="M56 25C57.1046 25 58 25.8954 58 27C58 28.1046 57.1046 29 56 29C54.8954 29 54 28.1046 54 27C54 25.8954 54.8954 25 56 25ZM56 17C57.1046 17 58 17.8954 58 19C58 20.1046 57.1046 21 56 21C54.8954 21 54 20.1046 54 19C54 17.8954 54.8954 17 56 17ZM56 9C57.1046 9 58 9.89543 58 11C58 12.1046 57.1046 13 56 13C54.8954 13 54 12.1046 54 11C54 9.89543 54.8954 9 56 9Z" stroke="#5D6AE8" stroke-width="2"/>
<path d="M77.125 12.0239C75.5721 9.55136 74.5382 6.63962 74.0233 3.28873C73.8567 2.20409 74.6008 1.18971 75.6855 1.02305C75.8198 1.00241 75.9559 0.995602 76.0917 1.00275L79.0171 1.15672C79.8589 1.20102 80.5811 1.77161 80.8189 2.58027L81.58 5.16789C81.9381 6.38554 81.4858 7.69641 80.453 8.43414M94 1L74 21M82.5295 12.4705L82.9197 12.8521C83.8304 13.7223 84.741 14.4508 85.6516 15.0377L86.0419 15.2805L86.5659 14.547C87.2648 13.5685 88.4781 13.1111 89.6392 13.3702L89.8321 13.42L92.4197 14.1811C93.1778 14.4041 93.7267 15.0527 93.8289 15.8265L93.8433 15.9829L93.9973 18.9083C94.0044 19.0441 93.9976 19.1802 93.9769 19.3145C93.8103 20.3992 92.7959 21.1433 91.7113 20.9767C86.9232 20.2409 83.0317 18.4455 80.0369 15.5905L79.7195 15.2805L82.5295 12.4705Z" stroke="#5D6AE8" stroke-width="2" stroke-linecap="round" stroke-linejoin="round"/>
</svg>
