<svg width="120" height="40" viewBox="0 0 120 40" fill="none" xmlns="http://www.w3.org/2000/svg">
<path fill-rule="evenodd" clip-rule="evenodd" d="M78.0233 3.28873C77.8567 2.20409 78.6008 1.18971 79.6855 1.02305C79.8198 1.00241 79.9559 0.995602 80.0917 1.00275L83.0171 1.15672C83.8589 1.20102 84.5811 1.77161 84.8189 2.58027L85.58 5.16789C85.9381 6.38554 85.4858 7.69641 84.453 8.43414L83.7195 8.95808C84.422 10.1289 85.3586 11.2997 86.5295 12.4705L86.9197 12.8521C87.8304 13.7223 88.741 14.4508 89.6516 15.0377L90.0419 15.2805L90.5659 14.547C91.2648 13.5685 92.4781 13.1111 93.6392 13.3702L93.8321 13.42L96.4197 14.1811C97.1779 14.4041 97.7267 15.0527 97.8289 15.8265L97.8433 15.9829L97.9973 18.9083C98.0044 19.0441 97.9976 19.1802 97.977 19.3145C97.8103 20.3992 96.7959 21.1433 95.7113 20.9767C90.9232 20.2409 87.0317 18.4455 84.0369 15.5905L83.7195 15.2805C80.6841 12.2451 78.7853 8.24782 78.0233 3.28873Z" stroke="#5D6AE8" stroke-width="2" stroke-linejoin="round"/>
<path d="M28 20H43C45.7614 20 48 17.7614 48 15V14C48 11.2386 50.2386 9 53 9H68" stroke="#5D6AE8" stroke-width="2" stroke-linecap="round" stroke-linejoin="round"/>
<path d="M28 20H43C45.7614 20 48 22.2386 48 25V26C48 28.7614 50.2386 31 53 31H90" stroke="#5D6AE8" stroke-width="2" stroke-linecap="round" stroke-linejoin="round"/>
<path d="M62 3L68 9L62 15" stroke="#5D6AE8" stroke-width="2" stroke-linecap="round" stroke-linejoin="round"/>
<path d="M84 25L90 31L84 37" stroke="#5D6AE8" stroke-width="2" stroke-linecap="round" stroke-linejoin="round"/>
<path fill-rule="evenodd" clip-rule="evenodd" d="M118.977 21.2887C119.143 20.2041 118.399 19.1897 117.315 19.023C117.18 19.0024 117.044 18.9956 116.908 19.0027L113.983 19.1567C113.141 19.201 112.419 19.7716 112.181 20.5803L111.42 23.1679C111.062 24.3855 111.514 25.6964 112.547 26.4341L113.281 26.9581C112.578 28.1289 111.641 29.2997 110.471 30.4705L110.08 30.8521C109.17 31.7223 108.259 32.4508 107.348 33.0377L106.958 33.2805L106.434 32.547C105.735 31.5685 104.522 31.1111 103.361 31.3702L103.168 31.42L100.58 32.1811C99.8221 32.4041 99.2733 33.0527 99.1711 33.8265L99.1567 33.9829L99.0027 36.9083C98.9956 37.0441 99.0024 37.1802 99.023 37.3145C99.1897 38.3992 100.204 39.1433 101.289 38.9767C106.077 38.2409 109.968 36.4455 112.963 33.5905L113.281 33.2805C116.316 30.2451 118.215 26.2478 118.977 21.2887Z" stroke="#5D6AE8" stroke-width="2" stroke-linejoin="round"/>
<path d="M19 23V20C19 15.0294 14.9706 11 10 11C5.02944 11 1 15.0294 1 20V23" stroke="#5D6AE8" stroke-width="2"/>
<path d="M5 24V22C5 20.8954 4.10457 20 3 20C1.89543 20 1 20.8954 1 22V24C1 25.1046 1.89543 26 3 26C4.10457 26 5 25.1046 5 24Z" stroke="#5D6AE8" stroke-width="2"/>
<path d="M19 24V22C19 20.8954 18.1046 20 17 20C15.8954 20 15 20.8954 15 22V24C15 25.1046 15.8954 26 17 26C18.1046 26 19 25.1046 19 24Z" stroke="#5D6AE8" stroke-width="2"/>
<path d="M11 29H14C15.6569 29 17 27.6569 17 26" stroke="#5D6AE8" stroke-width="2" stroke-linecap="round" stroke-linejoin="round"/>
</svg>
