<svg width="260" height="260" viewBox="0 0 260 260" fill="none" xmlns="http://www.w3.org/2000/svg">
<g clip-path="url(#clip0_2642_291479)">
<path d="M86.6095 28.0043H44.1055V64.3483H86.6095V28.0043Z" fill="#CCCCCC" stroke="black" stroke-width="0.5" stroke-linecap="round" stroke-linejoin="round"/>
<path d="M87.1055 27.822H43.6641V63.7323H87.1055V27.822Z" fill="#E5E5E5" stroke="black" stroke-width="0.5" stroke-linecap="round" stroke-linejoin="round"/>
<path d="M87.7511 26.4642H43.1797V62.9088H87.7511V26.4642Z" fill="#E5E5E5" stroke="black" stroke-width="0.5" stroke-linecap="round" stroke-linejoin="round"/>
<path d="M43.1797 54.6304L54.5612 44.4503L67.609 55.4649L76.4663 47.8103L87.7511 54.8539V62.8867H43.1797V54.6304Z" fill="#CCCCCC" stroke="black" stroke-width="0.5" stroke-linecap="round" stroke-linejoin="round"/>
<path d="M76.4667 47.8103L86.7108 54.2048L84.8544 56.0272L80.814 55.1734L77.3232 56.3247L74.4622 55.2241L69.7867 57.3073L67.6094 55.4649L76.4667 47.8103Z" fill="white" stroke="black" stroke-width="0.5" stroke-linecap="round" stroke-linejoin="round"/>
<path d="M54.5612 44.4503L61.7909 50.554L61.2479 51.0876L58.2788 50.2124L55.4871 51.1463L52.8502 50.1544L49.0766 52.1209L47.4883 50.7768L54.5612 44.4503Z" fill="white" stroke="black" stroke-width="0.5" stroke-linecap="round" stroke-linejoin="round"/>
<path d="M87.7511 26.4642H43.1797V34.954H87.7511V26.4642Z" fill="#B3B3B3" stroke="black" stroke-width="0.5" stroke-linecap="round" stroke-linejoin="round"/>
<path d="M55.314 39.9542H53.4102V41.858H55.314V39.9542Z" fill="#808080" stroke="black" stroke-width="0.5" stroke-linecap="round" stroke-linejoin="round"/>
<path d="M59.0171 39.9542H57.1133V41.858H59.0171V39.9542Z" fill="#808080" stroke="black" stroke-width="0.5" stroke-linecap="round" stroke-linejoin="round"/>
<path d="M62.7163 39.9542H60.8125V41.858H62.7163V39.9542Z" fill="#808080" stroke="black" stroke-width="0.5" stroke-linecap="round" stroke-linejoin="round"/>
<path d="M66.4155 39.9542H64.5117V41.858H66.4155V39.9542Z" fill="#808080" stroke="black" stroke-width="0.5" stroke-linecap="round" stroke-linejoin="round"/>
<path d="M70.1187 39.9542H68.2148V41.858H70.1187V39.9542Z" fill="#808080" stroke="black" stroke-width="0.5" stroke-linecap="round" stroke-linejoin="round"/>
<path d="M73.8179 39.9542H71.9141V41.858H73.8179V39.9542Z" fill="#4C4C4C" stroke="black" stroke-width="0.5" stroke-miterlimit="10" stroke-linecap="round" stroke-linejoin="round"/>
<path d="M77.5171 39.9542H75.6133V41.858H77.5171V39.9542Z" fill="#4C4C4C" stroke="black" stroke-width="0.5" stroke-miterlimit="10" stroke-linecap="round" stroke-linejoin="round"/>
<path d="M55.314 43.2957H53.4102V45.1995H55.314V43.2957Z" fill="#808080" stroke="black" stroke-width="0.5" stroke-linecap="round" stroke-linejoin="round"/>
<path d="M59.0171 43.2957H57.1133V45.1995H59.0171V43.2957Z" fill="#808080" stroke="black" stroke-width="0.5" stroke-linecap="round" stroke-linejoin="round"/>
<path d="M62.7163 43.2957H60.8125V45.1995H62.7163V43.2957Z" fill="#808080" stroke="black" stroke-width="0.5" stroke-linecap="round" stroke-linejoin="round"/>
<path d="M66.4155 43.2957H64.5117V45.1995H66.4155V43.2957Z" fill="#808080" stroke="black" stroke-width="0.5" stroke-linecap="round" stroke-linejoin="round"/>
<path d="M70.1187 43.2957H68.2148V45.1995H70.1187V43.2957Z" fill="#808080" stroke="black" stroke-width="0.5" stroke-linecap="round" stroke-linejoin="round"/>
<path d="M73.8179 43.2957H71.9141V45.1995H73.8179V43.2957Z" fill="#4C4C4C" stroke="black" stroke-width="0.5" stroke-miterlimit="10" stroke-linecap="round" stroke-linejoin="round"/>
<path d="M77.5171 43.2957H75.6133V45.1995H77.5171V43.2957Z" fill="#4C4C4C" stroke="black" stroke-width="0.5" stroke-miterlimit="10" stroke-linecap="round" stroke-linejoin="round"/>
<path d="M55.314 46.637H53.4102V48.5408H55.314V46.637Z" fill="#808080" stroke="black" stroke-width="0.5" stroke-linecap="round" stroke-linejoin="round"/>
<path d="M59.0171 46.637H57.1133V48.5408H59.0171V46.637Z" fill="#808080" stroke="black" stroke-width="0.5" stroke-linecap="round" stroke-linejoin="round"/>
<path d="M62.7163 46.637H60.8125V48.5408H62.7163V46.637Z" fill="#808080" stroke="black" stroke-width="0.5" stroke-linecap="round" stroke-linejoin="round"/>
<path d="M66.4155 46.637H64.5117V48.5408H66.4155V46.637Z" fill="#808080" stroke="black" stroke-width="0.5" stroke-linecap="round" stroke-linejoin="round"/>
<path d="M70.1187 46.637H68.2148V48.5408H70.1187V46.637Z" fill="#808080" stroke="black" stroke-width="0.5" stroke-linecap="round" stroke-linejoin="round"/>
<path d="M73.8179 46.637H71.9141V48.5408H73.8179V46.637Z" fill="#4C4C4C" stroke="black" stroke-width="0.5" stroke-miterlimit="10" stroke-linecap="round" stroke-linejoin="round"/>
<path d="M77.5171 46.637H75.6133V48.5408H77.5171V46.637Z" fill="#4C4C4C" stroke="black" stroke-width="0.5" stroke-miterlimit="10" stroke-linecap="round" stroke-linejoin="round"/>
<path d="M55.314 49.9783H53.4102V51.8821H55.314V49.9783Z" fill="#808080" stroke="black" stroke-width="0.5" stroke-linecap="round" stroke-linejoin="round"/>
<path d="M59.0171 49.9783H57.1133V51.8821H59.0171V49.9783Z" fill="#808080" stroke="black" stroke-width="0.5" stroke-linecap="round" stroke-linejoin="round"/>
<path d="M62.7163 49.9783H60.8125V51.8821H62.7163V49.9783Z" fill="#808080" stroke="black" stroke-width="0.5" stroke-linecap="round" stroke-linejoin="round"/>
<path d="M66.4155 49.9783H64.5117V51.8821H66.4155V49.9783Z" fill="#808080" stroke="black" stroke-width="0.5" stroke-linecap="round" stroke-linejoin="round"/>
<path d="M70.1187 49.9783H68.2148V51.8821H70.1187V49.9783Z" fill="#808080" stroke="black" stroke-width="0.5" stroke-linecap="round" stroke-linejoin="round"/>
<path d="M73.8179 49.9783H71.9141V51.8821H73.8179V49.9783Z" fill="#4C4C4C" stroke="black" stroke-width="0.5" stroke-miterlimit="10" stroke-linecap="round" stroke-linejoin="round"/>
<path d="M77.5171 49.9783H75.6133V51.8821H77.5171V49.9783Z" fill="#4C4C4C" stroke="black" stroke-width="0.5" stroke-miterlimit="10" stroke-linecap="round" stroke-linejoin="round"/>
<path d="M55.314 53.3197H53.4102V55.2235H55.314V53.3197Z" fill="#808080" stroke="black" stroke-width="0.5" stroke-linecap="round" stroke-linejoin="round"/>
<path d="M59.0171 53.3197H57.1133V55.2235H59.0171V53.3197Z" fill="#808080" stroke="black" stroke-width="0.5" stroke-linecap="round" stroke-linejoin="round"/>
<path d="M62.7163 53.3197H60.8125V55.2235H62.7163V53.3197Z" fill="#808080" stroke="black" stroke-width="0.5" stroke-linecap="round" stroke-linejoin="round"/>
<path d="M66.4155 53.3197H64.5117V55.2235H66.4155V53.3197Z" fill="#808080" stroke="black" stroke-width="0.5" stroke-linecap="round" stroke-linejoin="round"/>
<path d="M70.1187 53.3197H68.2148V55.2235H70.1187V53.3197Z" fill="#808080" stroke="black" stroke-width="0.5" stroke-linecap="round" stroke-linejoin="round"/>
<path d="M73.8179 53.3197H71.9141V55.2235H73.8179V53.3197Z" fill="#4C4C4C" stroke="black" stroke-width="0.5" stroke-miterlimit="10" stroke-linecap="round" stroke-linejoin="round"/>
<path d="M77.5171 53.3197H75.6133V55.2235H77.5171V53.3197Z" fill="#4C4C4C" stroke="black" stroke-width="0.5" stroke-miterlimit="10" stroke-linecap="round" stroke-linejoin="round"/>
<path d="M65.4636 29.869C65.9893 29.869 66.4155 29.4428 66.4155 28.9171C66.4155 28.3914 65.9893 27.9652 65.4636 27.9652C64.9379 27.9652 64.5117 28.3914 64.5117 28.9171C64.5117 29.4428 64.9379 29.869 65.4636 29.869Z" fill="white" stroke="black" stroke-width="0.5" stroke-linecap="round" stroke-linejoin="round"/>
<path d="M152.841 207.734L141.82 189.457L152.637 185.133L160.097 206.236L152.841 207.734Z" fill="#E5E5E5" stroke="black" stroke-width="0.5" stroke-miterlimit="10" stroke-linecap="round" stroke-linejoin="round"/>
<path d="M142.793 156.409L159.416 200.467L147.584 205.209L124.22 159.382C121.539 152.935 125.842 146.702 130.603 144.866C138.045 141.998 164.982 138.745 164.982 138.745" fill="#CCCCCC"/>
<path d="M142.793 156.409L159.416 200.467L147.584 205.209L124.22 159.382C121.539 152.935 125.842 146.702 130.603 144.866C138.045 141.998 164.982 138.745 164.982 138.745" stroke="black" stroke-width="0.5" stroke-miterlimit="10" stroke-linecap="round" stroke-linejoin="round"/>
<path d="M143.237 90.2933L128.035 99.3554L130.08 111.005L149.493 100.292L143.237 90.2933Z" fill="#E5E5E5" stroke="black" stroke-width="0.5" stroke-linecap="round" stroke-linejoin="round"/>
<path d="M124.094 77.7494L125.199 104.4C125.231 105.148 125.417 105.881 125.745 106.554C126.073 107.227 126.537 107.825 127.106 108.31C127.676 108.796 128.34 109.158 129.057 109.375C129.773 109.592 130.527 109.659 131.27 109.572C132.022 109.482 132.747 109.235 133.398 108.849C134.05 108.462 134.613 107.944 135.052 107.327C135.492 106.71 135.798 106.009 135.95 105.267C136.103 104.525 136.099 103.76 135.939 103.019L130.223 76.7769L124.094 77.7494Z" fill="#E5E5E5" stroke="black" stroke-width="0.5" stroke-linecap="round" stroke-linejoin="round"/>
<path d="M128.455 79.3883C128.455 79.3883 130.196 79.5311 130.741 78.0418C131.202 76.787 130.337 68.5717 130.051 66.0044C130.028 65.7925 129.929 65.596 129.773 65.4508C129.617 65.3057 129.414 65.2215 129.201 65.2138C128.976 65.207 128.758 65.2851 128.588 65.4327C128.419 65.5802 128.312 65.7862 128.288 66.0095L128.035 68.3881L124.248 58.8245C124.145 58.5633 123.949 58.3491 123.699 58.2222C123.448 58.0954 123.16 58.0646 122.888 58.1359L122.283 58.294L121.965 57.4201C121.881 57.191 121.715 57.0014 121.499 56.8885C121.283 56.7756 121.033 56.7475 120.797 56.8097C120.547 56.8757 120.333 57.0379 120.202 57.2608C120.071 57.4838 120.034 57.7494 120.098 57.9999L120.453 59.36L119.916 59.4825C119.763 59.5172 119.619 59.5823 119.492 59.6739C119.365 59.7655 119.258 59.8817 119.177 60.0155C119.096 60.1494 119.042 60.2982 119.02 60.4532C118.997 60.6081 119.006 60.766 119.046 60.9174L119.357 62.1076L118.837 62.2436C118.553 62.3183 118.311 62.5024 118.163 62.7554C118.015 63.0085 117.974 63.3099 118.048 63.5935L119.952 70.8568C119.952 70.8568 120.935 74.4612 121.992 76.4147C123.136 78.5246 124.491 80.4169 126.243 80.1075C127.994 79.7981 128.455 79.3883 128.455 79.3883Z" fill="#E5E5E5" stroke="black" stroke-width="0.5" stroke-linecap="round" stroke-linejoin="round"/>
<path d="M122.285 58.2889L125.677 68.2946" stroke="black" stroke-width="0.5" stroke-linecap="round" stroke-linejoin="round"/>
<path d="M120.453 59.3531L123.711 69.4608" stroke="black" stroke-width="0.5" stroke-linecap="round" stroke-linejoin="round"/>
<path d="M119.359 62.1007L122.1 70.5694" stroke="black" stroke-width="0.5" stroke-linecap="round" stroke-linejoin="round"/>
<path d="M128.034 68.3812L127.672 72.8119" stroke="black" stroke-width="0.5" stroke-linecap="round" stroke-linejoin="round"/>
<path d="M185.926 219.385V222.946" stroke="black" stroke-width="0.5" stroke-linecap="round" stroke-linejoin="round"/>
<path d="M168.895 218.913V222.757" stroke="black" stroke-width="0.5" stroke-linecap="round" stroke-linejoin="round"/>
<path d="M151.859 219.385V223.457" stroke="black" stroke-width="0.5" stroke-linecap="round" stroke-linejoin="round"/>
<path d="M166.022 215.026C165.874 214.778 165.796 214.494 165.796 214.205V207.11C165.794 206.7 165.951 206.305 166.235 206.008C166.518 205.711 166.906 205.537 167.316 205.52V189.86H170.356V205.52C170.766 205.537 171.153 205.711 171.437 206.008C171.721 206.305 171.878 206.7 171.876 207.11V214.205C171.876 214.499 171.795 214.787 171.641 215.038L185.923 219.385V220.635L170.354 218.362V219.328H167.316V218.42L151.859 220.8V219.38L166.022 215.026Z" fill="black" stroke="black" stroke-width="0.5" stroke-miterlimit="10" stroke-linecap="round" stroke-linejoin="round"/>
<path d="M185.885 225.426C186.963 225.426 187.837 224.545 187.837 223.457C187.837 222.37 186.963 221.489 185.885 221.489C184.807 221.489 183.934 222.37 183.934 223.457C183.934 224.545 184.807 225.426 185.885 225.426Z" fill="#999999" stroke="black" stroke-width="0.5" stroke-linecap="round" stroke-linejoin="round"/>
<path d="M168.893 225.426C169.971 225.426 170.845 224.545 170.845 223.457C170.845 222.37 169.971 221.489 168.893 221.489C167.815 221.489 166.941 222.37 166.941 223.457C166.941 224.545 167.815 225.426 168.893 225.426Z" fill="#999999" stroke="black" stroke-width="0.5" stroke-linecap="round" stroke-linejoin="round"/>
<path d="M151.897 225.426C152.975 225.426 153.849 224.545 153.849 223.457C153.849 222.37 152.975 221.489 151.897 221.489C150.819 221.489 149.945 222.37 149.945 223.457C149.945 224.545 150.819 225.426 151.897 225.426Z" fill="#999999" stroke="black" stroke-width="0.5" stroke-linecap="round" stroke-linejoin="round"/>
<path d="M167.919 192.776H169.871V157.594H167.919V192.776Z" fill="black" stroke="black" stroke-width="0.5" stroke-miterlimit="10" stroke-linecap="round" stroke-linejoin="round"/>
<path d="M184.611 103.938H211.916C212.264 103.937 212.606 104.023 212.913 104.188C213.22 104.352 213.481 104.589 213.674 104.879C213.867 105.168 213.985 105.501 214.018 105.847C214.051 106.193 213.999 106.543 213.864 106.864L192.753 160.029H160.871L182.661 105.236C182.821 104.851 183.092 104.523 183.439 104.291C183.786 104.06 184.194 103.937 184.611 103.938Z" fill="#333333" stroke="black" stroke-width="0.5" stroke-linecap="round" stroke-linejoin="round"/>
<path d="M189.546 156.828H143.974C142.204 156.828 140.77 158.263 140.77 160.033V160.035C140.77 161.805 142.204 163.24 143.974 163.24H189.546C191.316 163.24 192.751 161.805 192.751 160.035V160.033C192.751 158.263 191.316 156.828 189.546 156.828Z" fill="#333333" stroke="black" stroke-width="0.5" stroke-linecap="round" stroke-linejoin="round"/>
<path d="M145.089 159.277L176.373 156.699C186.118 155.65 189.634 148.8 189.634 139.055L187.137 123.314H159.446L159.678 139.272L135.177 143.693C133.675 143.952 132.251 144.544 131.008 145.425C126.185 148.907 125.962 152.638 126.606 158.758L145.089 159.277Z" fill="#CCCCCC" stroke="black" stroke-width="0.5" stroke-miterlimit="10" stroke-linecap="round" stroke-linejoin="round"/>
<path d="M29.8828 219.385V222.946" stroke="black" stroke-width="0.5" stroke-linecap="round" stroke-linejoin="round"/>
<path d="M46.918 218.913V222.757" stroke="black" stroke-width="0.5" stroke-linecap="round" stroke-linejoin="round"/>
<path d="M63.9492 219.385V223.457" stroke="black" stroke-width="0.5" stroke-linecap="round" stroke-linejoin="round"/>
<path d="M49.788 215.026C49.9368 214.778 50.0155 214.494 50.0158 214.205V207.11C50.0179 206.7 49.8606 206.305 49.577 206.008C49.2935 205.711 48.9058 205.537 48.4958 205.52V189.86H45.4576V205.52C45.0478 205.537 44.6604 205.712 44.3769 206.009C44.0934 206.305 43.936 206.7 43.9376 207.11V214.205C43.9375 214.499 44.0187 214.787 44.1723 215.038L29.8906 219.385V220.635L45.4576 218.362V219.328H48.4958V218.42L63.9506 220.8V219.38L49.788 215.026Z" fill="black" stroke="black" stroke-width="0.5" stroke-miterlimit="10" stroke-linecap="round" stroke-linejoin="round"/>
<path d="M29.9206 225.426C30.9985 225.426 31.8724 224.545 31.8724 223.457C31.8724 222.37 30.9985 221.489 29.9206 221.489C28.8426 221.489 27.9688 222.37 27.9688 223.457C27.9688 224.545 28.8426 225.426 29.9206 225.426Z" fill="#999999" stroke="black" stroke-width="0.5" stroke-linecap="round" stroke-linejoin="round"/>
<path d="M46.9167 225.426C47.9946 225.426 48.8685 224.545 48.8685 223.457C48.8685 222.37 47.9946 221.489 46.9167 221.489C45.8387 221.489 44.9648 222.37 44.9648 223.457C44.9648 224.545 45.8387 225.426 46.9167 225.426Z" fill="#999999" stroke="black" stroke-width="0.5" stroke-linecap="round" stroke-linejoin="round"/>
<path d="M63.9128 225.426C64.9907 225.426 65.8646 224.545 65.8646 223.457C65.8646 222.37 64.9907 221.489 63.9128 221.489C62.8348 221.489 61.9609 222.37 61.9609 223.457C61.9609 224.545 62.8348 225.426 63.9128 225.426Z" fill="#999999" stroke="black" stroke-width="0.5" stroke-linecap="round" stroke-linejoin="round"/>
<path d="M47.8932 157.594H45.9414V192.776H47.8932V157.594Z" fill="black" stroke="black" stroke-width="0.5" stroke-miterlimit="10" stroke-linecap="round" stroke-linejoin="round"/>
<path d="M31.1982 103.938H3.89474C3.54674 103.937 3.20406 104.023 2.89719 104.187C2.59031 104.351 2.32874 104.588 2.13574 104.878C1.94275 105.168 1.82431 105.5 1.79097 105.847C1.75762 106.193 1.8104 106.542 1.94461 106.864L23.0576 160.029H54.9397L33.1483 105.236C32.9878 104.852 32.717 104.523 32.3699 104.292C32.0229 104.06 31.6151 103.937 31.1982 103.938Z" fill="#4C4C4C" stroke="black" stroke-width="0.5" stroke-linecap="round" stroke-linejoin="round"/>
<path d="M26.2622 163.238H71.8342C73.6042 163.238 75.0391 161.803 75.0391 160.033V160.032C75.0391 158.262 73.6042 156.827 71.8342 156.827H26.2622C24.4922 156.827 23.0573 158.262 23.0573 160.032V160.033C23.0573 161.803 24.4922 163.238 26.2622 163.238Z" fill="#333333" stroke="black" stroke-width="0.5" stroke-linecap="round" stroke-linejoin="round"/>
<path d="M204.178 112.047L199.898 124.957L208.151 127.886L214.098 112.583L204.178 112.047Z" fill="#E5E5E5" stroke="black" stroke-width="0.5" stroke-linecap="round" stroke-linejoin="round"/>
<path d="M47.3583 92.1606L30.2593 117.614C29.1996 119.281 28.7969 121.283 29.1292 123.231C29.4616 125.178 30.5054 126.933 32.0582 128.155L64.7019 131.443L66.669 123.178L42.8901 119.243L47.3583 92.1606Z" fill="#808080" stroke="black" stroke-width="0.5" stroke-miterlimit="10" stroke-linecap="round" stroke-linejoin="round"/>
<path d="M54.8447 195.217L77.1954 177.814L68.0739 169.395L49.6914 189.811L54.8447 195.217Z" fill="#E5E5E5" stroke="black" stroke-width="0.5" stroke-miterlimit="10" stroke-linecap="round" stroke-linejoin="round"/>
<path d="M68.8263 186.41L59.2695 175.223L74.1496 159.154L75.7325 144.645L91.104 151.867C95.6367 154.248 98.9827 161.754 92.8926 167.421L68.8263 186.41Z" fill="#B3B3B3" stroke="black" stroke-width="0.5" stroke-linecap="round" stroke-linejoin="round"/>
<path d="M74.0159 202.608L86.9493 170.903L74.2829 166.358L66.7578 199.617L74.0159 202.608Z" fill="#E5E5E5" stroke="black" stroke-width="0.5" stroke-miterlimit="10" stroke-linecap="round" stroke-linejoin="round"/>
<path d="M30.8752 130L28.1537 138.358C27.7738 140.736 27.8779 143.166 28.4599 145.503C29.0418 147.84 30.0895 150.035 31.5403 151.957C32.991 153.88 34.8149 155.489 36.9026 156.69C38.9903 157.89 41.2989 158.657 43.69 158.944L72.0425 160.603L69.8322 182.955L83.0546 187.206C83.0546 187.206 89.7602 166.394 90.3842 159.6C91.4196 148.316 86.1048 146.61 79.0014 144.104C68.6047 140.437 53.5886 138.281 53.5886 138.281L30.8752 130Z" fill="#B3B3B3" stroke="black" stroke-width="0.5" stroke-linecap="round" stroke-linejoin="round"/>
<path d="M55.5312 195.426C55.5312 195.426 60.1218 197.257 61.1725 196.037C61.8917 195.202 60.9889 194.676 59.0217 194.632C57.4848 194.595 55.5312 195.426 55.5312 195.426Z" stroke="black" stroke-width="0.5" stroke-linecap="round" stroke-linejoin="round"/>
<path d="M55.7969 195.445C55.7969 195.445 56.5467 196.926 56.987 197.759C57.4274 198.592 58.6396 200.061 59.624 199.357C60.5268 198.711 59.7022 197.772 58.5121 196.778C57.6195 196.035 55.7969 195.445 55.7969 195.445Z" stroke="black" stroke-width="0.5" stroke-linecap="round" stroke-linejoin="round"/>
<path d="M53.7296 184.99C53.7296 184.99 49.9025 187.626 47.2689 188.901C44.6353 190.176 40.6144 192.964 38.5418 196.457C37.3039 198.535 36.2345 200.709 35.3438 202.958L50.4211 220.372L54.6597 218.222C55.6388 217.726 56.4021 216.888 56.805 215.867C57.2079 214.846 57.2226 213.713 56.8461 212.682L54.1683 205.306C53.4789 203.408 53.38 201.347 53.8847 199.392C54.3893 197.437 55.4739 195.68 56.9957 194.354L59.7551 191.948L53.7296 184.99Z" fill="#666666" stroke="black" stroke-width="0.5" stroke-linecap="round" stroke-linejoin="round"/>
<path d="M39.1289 195.562C39.1289 195.562 41.9342 196.843 44.0221 200.428C46.1099 204.014 48.0872 209.043 49.5613 211.139C51.0354 213.236 55.2688 217.733 55.2688 217.733" stroke="black" stroke-width="0.5" stroke-linecap="round" stroke-linejoin="round"/>
<path d="M56.0431 210.787C56.0431 210.787 54.1508 209.812 53.0797 210.519C52.0086 211.226 50.3594 212.178 50.3594 212.178" stroke="black" stroke-width="0.5" stroke-linecap="round" stroke-linejoin="round"/>
<path d="M46.2156 189.442C46.2156 189.442 47.6897 192.915 46.9773 195.222C46.2649 197.529 44.0547 200.469 44.0547 200.469" stroke="black" stroke-width="0.5" stroke-linecap="round" stroke-linejoin="round"/>
<path d="M53.0117 194.746C53.0117 194.746 54.1236 194.462 54.6524 194.682C55.1812 194.901 55.5195 195.683 55.5195 195.683" stroke="black" stroke-width="0.5" stroke-linecap="round" stroke-linejoin="round"/>
<path d="M52.1641 196.305C52.1641 196.305 53.2692 196.219 53.7997 196.44C54.3301 196.661 54.5766 197.337 54.5766 197.337" stroke="black" stroke-width="0.5" stroke-linecap="round" stroke-linejoin="round"/>
<path d="M51.4805 198.257C51.4805 198.257 52.5856 198.17 53.1161 198.391C53.6465 198.612 53.9543 199.361 53.9543 199.361" stroke="black" stroke-width="0.5" stroke-linecap="round" stroke-linejoin="round"/>
<path d="M51.1797 199.872C51.1797 199.872 52.2865 199.786 52.8153 200.007C53.344 200.228 53.5923 200.904 53.5923 200.904" stroke="black" stroke-width="0.5" stroke-linecap="round" stroke-linejoin="round"/>
<path d="M51.0508 201.683C51.0508 201.683 52.1559 201.596 52.6864 201.816C53.2168 202.035 53.6929 202.98 53.6929 202.98" stroke="black" stroke-width="0.5" stroke-linecap="round" stroke-linejoin="round"/>
<path d="M51.4766 203.351C51.4766 203.351 52.5817 203.264 53.1121 203.483C53.6426 203.703 53.8891 204.381 53.8891 204.381" stroke="black" stroke-width="0.5" stroke-linecap="round" stroke-linejoin="round"/>
<path d="M73.918 205.335C73.918 205.335 78.7703 204.388 78.9913 202.793C79.1444 201.703 78.1021 201.753 76.4224 202.778C75.1098 203.579 73.918 205.335 73.918 205.335Z" stroke="black" stroke-width="0.5" stroke-linecap="round" stroke-linejoin="round"/>
<path d="M74.1484 205.209C74.1484 205.209 75.58 206.049 76.3961 206.513C77.2122 206.977 79.0331 207.554 79.4785 206.43C79.8883 205.396 78.688 205.055 77.1476 204.862C75.9982 204.718 74.1484 205.209 74.1484 205.209Z" stroke="black" stroke-width="0.5" stroke-linecap="round" stroke-linejoin="round"/>
<path d="M66.7543 197.538C66.7543 197.538 64.9623 201.826 63.4305 204.317C61.8986 206.807 60.0301 211.338 60.1848 215.395C60.2696 217.812 60.5476 220.219 61.0162 222.592L83.1187 229.07L85.5194 224.976C86.073 224.03 86.261 222.913 86.048 221.838C85.835 220.763 85.2357 219.803 84.3632 219.139L78.1184 214.389C76.5114 213.166 75.312 211.486 74.6781 209.569C74.0442 207.652 74.0053 205.588 74.5667 203.648L75.5868 200.132L66.7543 197.538Z" fill="#666666" stroke="black" stroke-width="0.5" stroke-linecap="round" stroke-linejoin="round"/>
<path d="M60.2031 214.334C60.2031 214.334 63.2635 213.89 66.9512 215.776C70.6389 217.661 75.0339 220.819 77.4074 221.781C79.7809 222.743 85.7757 224.234 85.7757 224.234" stroke="black" stroke-width="0.5" stroke-linecap="round" stroke-linejoin="round"/>
<path d="M82.6628 217.974C82.6628 217.974 80.5443 218.178 80.0258 219.351C79.5072 220.525 78.6367 222.221 78.6367 222.221" stroke="black" stroke-width="0.5" stroke-linecap="round" stroke-linejoin="round"/>
<path d="M62.8359 205.342C62.8359 205.342 65.9575 207.464 66.6104 209.795C67.2632 212.126 66.9929 215.79 66.9929 215.79" stroke="black" stroke-width="0.5" stroke-linecap="round" stroke-linejoin="round"/>
<path d="M71.4297 206.127C71.4297 206.127 72.2101 205.277 72.7745 205.184C73.339 205.09 74.0463 205.556 74.0463 205.556" stroke="black" stroke-width="0.5" stroke-linecap="round" stroke-linejoin="round"/>
<path d="M71.5625 207.897C71.5625 207.897 72.4449 207.226 73.0094 207.125C73.5738 207.025 74.1485 207.465 74.1485 207.465" stroke="black" stroke-width="0.5" stroke-linecap="round" stroke-linejoin="round"/>
<path d="M72.043 209.91C72.043 209.91 72.9254 209.23 73.4898 209.137C74.0543 209.043 74.7208 209.497 74.7208 209.497" stroke="black" stroke-width="0.5" stroke-linecap="round" stroke-linejoin="round"/>
<path d="M72.6602 211.43C72.6602 211.43 73.5426 210.759 74.107 210.657C74.6715 210.555 75.2461 210.997 75.2461 210.997" stroke="black" stroke-width="0.5" stroke-linecap="round" stroke-linejoin="round"/>
<path d="M73.5352 213.022C73.5352 213.022 74.4176 212.35 74.982 212.248C75.5465 212.146 76.4595 212.682 76.4595 212.682" stroke="black" stroke-width="0.5" stroke-linecap="round" stroke-linejoin="round"/>
<path d="M74.7969 214.193C74.7969 214.193 75.6793 213.521 76.2437 213.419C76.8082 213.317 77.3829 213.759 77.3829 213.759" stroke="black" stroke-width="0.5" stroke-linecap="round" stroke-linejoin="round"/>
<path d="M201.579 200.972L173.237 164.94C172.425 163.987 171.848 162.857 171.551 161.64C171.255 160.424 171.249 159.154 171.532 157.935C171.815 156.715 172.38 155.579 173.182 154.617C173.984 153.656 175.001 152.895 176.15 152.398L198.919 142.537L203.354 157.463L190.132 162.373L207.006 195.578L201.579 200.972Z" fill="#E5E5E5" stroke="black" stroke-width="0.5" stroke-miterlimit="10" stroke-linecap="round" stroke-linejoin="round"/>
<path d="M215.096 200.284L197.265 222.126C197.011 222.439 196.697 222.698 196.343 222.889C195.988 223.08 195.6 223.199 195.199 223.24C194.798 223.281 194.393 223.242 194.008 223.126C193.622 223.009 193.263 222.818 192.951 222.563C192.349 222.071 191.93 221.391 191.762 220.632C191.593 219.873 191.685 219.079 192.023 218.379L193.618 215.072C194.595 213.049 195.208 210.869 195.43 208.633L196.148 201.409L195.005 199.539C194.92 199.399 194.868 199.242 194.852 199.078C194.836 198.915 194.858 198.751 194.915 198.597C194.972 198.443 195.063 198.305 195.182 198.191C195.3 198.078 195.443 197.993 195.599 197.943C195.599 197.943 193.742 196.263 195.543 194.76C196.932 193.6 197.437 195.204 199.172 195.192C199.198 195.192 201.893 195 203.85 192.369C205.467 190.19 206.692 191.652 208.53 193.063L214.821 197.89C214.999 198.027 215.148 198.198 215.258 198.394C215.369 198.59 215.439 198.805 215.465 199.029C215.49 199.252 215.471 199.478 215.408 199.693C215.345 199.909 215.239 200.11 215.096 200.284Z" fill="#4C4C4C" stroke="black" stroke-width="0.5" stroke-linecap="round" stroke-linejoin="round"/>
<path d="M192.691 222.335C192.691 222.335 197.874 220.761 204.118 209.128C207.929 202.028 214.003 197.227 214.003 197.227" stroke="black" stroke-width="0.5" stroke-linecap="round" stroke-linejoin="round"/>
<path d="M196.461 196.574L195.932 196.832C195.696 196.947 195.597 197.232 195.712 197.469L197.348 200.825C197.463 201.061 197.748 201.16 197.984 201.044L198.513 200.787C198.75 200.671 198.848 200.387 198.733 200.15L197.097 196.794C196.982 196.558 196.697 196.459 196.461 196.574Z" stroke="black" stroke-width="0.5" stroke-linecap="round" stroke-linejoin="round"/>
<path d="M195.836 197.927L195.013 198.328C194.723 198.469 194.603 198.818 194.744 199.108L195.535 200.731C195.676 201.02 196.025 201.141 196.314 201L197.138 200.598C197.428 200.457 197.548 200.108 197.407 199.819L196.616 198.196C196.475 197.906 196.126 197.786 195.836 197.927Z" fill="#1A1A1A" stroke="black" stroke-width="0.5" stroke-linecap="round" stroke-linejoin="round"/>
<path d="M197.436 196.871L203.444 193.943C203.606 193.864 203.793 193.853 203.963 193.912C204.134 193.97 204.274 194.094 204.353 194.257C204.619 194.802 204.657 195.43 204.459 196.004C204.262 196.577 203.844 197.048 203.299 197.314L198.735 199.538C198.573 199.617 198.386 199.628 198.216 199.57C198.045 199.511 197.905 199.387 197.826 199.225L197.124 197.783C197.084 197.703 197.061 197.615 197.055 197.526C197.049 197.437 197.061 197.347 197.09 197.262C197.119 197.177 197.164 197.099 197.224 197.032C197.283 196.965 197.355 196.91 197.436 196.871Z" fill="#1A1A1A" stroke="black" stroke-width="0.5" stroke-linecap="round" stroke-linejoin="round"/>
<path d="M192.324 217.752C192.324 217.752 193.754 218.121 197.279 214.105C199.047 212.09 198.89 211.077 198.129 210.38C197.367 209.682 195.274 209.776 195.274 209.776L195.51 207.736C195.51 207.736 197.818 208.096 199.016 208.043C203.693 207.839 205.678 206.513 205.678 206.513" stroke="black" stroke-width="0.5" stroke-linecap="round" stroke-linejoin="round"/>
<path d="M209.648 201.355C209.648 201.355 207.99 200.726 208.252 198.929C208.514 197.132 209.918 196.052 208.696 195.428C207.166 194.649 203.782 197.79 202.278 198.611C200.151 199.77 198.918 199.461 198.918 199.461" stroke="black" stroke-width="0.5" stroke-linecap="round" stroke-linejoin="round"/>
<path d="M230.043 219.385V222.946" stroke="black" stroke-width="0.5" stroke-linecap="round" stroke-linejoin="round"/>
<path d="M213.012 218.913V222.757" stroke="black" stroke-width="0.5" stroke-linecap="round" stroke-linejoin="round"/>
<path d="M195.98 219.385V223.457" stroke="black" stroke-width="0.5" stroke-linecap="round" stroke-linejoin="round"/>
<path d="M210.141 215.026C209.993 214.778 209.915 214.494 209.915 214.205V207.11C209.913 206.7 210.07 206.305 210.354 206.008C210.637 205.711 211.025 205.537 211.435 205.52V189.86H214.475V205.52C214.885 205.537 215.272 205.711 215.556 206.008C215.839 206.305 215.997 206.7 215.995 207.11V214.205C215.995 214.499 215.914 214.787 215.76 215.038L230.042 219.385V220.635L214.473 218.362V219.328H211.433V218.42L195.977 220.8V219.38L210.141 215.026Z" fill="black" stroke="black" stroke-width="0.5" stroke-miterlimit="10" stroke-linecap="round" stroke-linejoin="round"/>
<path d="M230.007 225.426C231.084 225.426 231.958 224.545 231.958 223.457C231.958 222.37 231.084 221.489 230.007 221.489C228.929 221.489 228.055 222.37 228.055 223.457C228.055 224.545 228.929 225.426 230.007 225.426Z" fill="#999999" stroke="black" stroke-width="0.5" stroke-linecap="round" stroke-linejoin="round"/>
<path d="M213.01 225.426C214.088 225.426 214.962 224.545 214.962 223.457C214.962 222.37 214.088 221.489 213.01 221.489C211.932 221.489 211.059 222.37 211.059 223.457C211.059 224.545 211.932 225.426 213.01 225.426Z" fill="#999999" stroke="black" stroke-width="0.5" stroke-linecap="round" stroke-linejoin="round"/>
<path d="M196.018 225.426C197.096 225.426 197.97 224.545 197.97 223.457C197.97 222.37 197.096 221.489 196.018 221.489C194.94 221.489 194.066 222.37 194.066 223.457C194.066 224.545 194.94 225.426 196.018 225.426Z" fill="#999999" stroke="black" stroke-width="0.5" stroke-linecap="round" stroke-linejoin="round"/>
<path d="M212.036 192.776H213.988V157.594H212.036V192.776Z" fill="black" stroke="black" stroke-width="0.5" stroke-miterlimit="10" stroke-linecap="round" stroke-linejoin="round"/>
<path d="M228.739 103.938H256.042C256.389 103.939 256.73 104.026 257.036 104.191C257.341 104.356 257.601 104.594 257.793 104.883C257.984 105.172 258.102 105.504 258.135 105.85C258.168 106.195 258.116 106.543 257.982 106.864L236.874 160.029H204.992L226.784 105.231C226.945 104.847 227.217 104.518 227.565 104.288C227.913 104.058 228.322 103.936 228.739 103.938Z" fill="#4C4C4C" stroke="black" stroke-width="0.5" stroke-linecap="round" stroke-linejoin="round"/>
<path d="M233.667 156.828H188.095C186.325 156.828 184.891 158.263 184.891 160.033V160.035C184.891 161.805 186.325 163.24 188.095 163.24H233.667C235.437 163.24 236.872 161.805 236.872 160.035V160.033C236.872 158.263 235.437 156.828 233.667 156.828Z" fill="#333333" stroke="black" stroke-width="0.5" stroke-linecap="round" stroke-linejoin="round"/>
<path d="M163.662 215.681C164.146 214.639 164.235 213.456 163.91 212.353L161.36 205.553C160.94 204.764 160.323 205.034 159.408 205.325L154.862 206.921C154.378 207.074 153.855 207.039 153.396 206.823L151.789 206.063C151.518 205.934 151.22 205.869 150.92 205.871C150.619 205.872 150.322 205.942 150.052 206.073C149.782 206.205 149.544 206.396 149.357 206.631C149.171 206.867 149.039 207.142 148.972 207.435L148.685 208.707C148.59 209.12 132.052 221.177 132.052 221.177C131.171 221.949 131.073 223.19 131.979 223.933C132.581 224.428 133.761 224.94 135.366 224.406L163.662 215.681Z" fill="#808080" stroke="black" stroke-width="0.5" stroke-miterlimit="10" stroke-linecap="round" stroke-linejoin="round"/>
<path d="M138.035 216.771C137.799 216.431 137.986 215.931 138.331 215.708C138.676 215.485 139.115 215.48 139.521 215.538C140.536 215.665 141.49 216.091 142.264 216.76C142.351 216.819 142.426 216.894 142.485 216.981C142.543 217.069 142.583 217.167 142.604 217.27C142.6 217.394 142.557 217.513 142.481 217.61C142.405 217.708 142.301 217.779 142.182 217.813C141.942 217.876 141.69 217.881 141.448 217.826C140.862 217.725 140.284 217.586 139.717 217.41C139.219 217.259 138.355 217.223 138.035 216.771Z" fill="white" stroke="black" stroke-width="0.5" stroke-miterlimit="10" stroke-linecap="round" stroke-linejoin="round"/>
<path d="M140.716 214.506C140.631 214.184 140.873 213.85 141.177 213.719C141.493 213.612 141.831 213.593 142.157 213.663C143.268 213.818 144.347 214.159 145.346 214.671C145.676 214.841 146.041 215.108 146.006 215.477C145.977 215.613 145.907 215.736 145.806 215.832C145.705 215.927 145.577 215.988 145.44 216.009C145.163 216.04 144.883 216.011 144.618 215.924C143.794 215.72 142.969 215.519 142.146 215.308C141.689 215.191 140.876 215.011 140.716 214.506Z" fill="white" stroke="black" stroke-width="0.5" stroke-miterlimit="10" stroke-linecap="round" stroke-linejoin="round"/>
<path d="M145.17 211.813C145.896 211.989 146.595 212.267 147.244 212.637C147.535 212.796 147.785 212.92 147.963 213.222C148.031 213.313 148.071 213.421 148.08 213.533C148.088 213.646 148.064 213.759 148.01 213.858C147.957 213.957 147.876 214.039 147.777 214.094C147.678 214.149 147.566 214.175 147.453 214.168C147.221 214.17 146.991 214.129 146.773 214.049C145.807 213.751 144.821 213.26 143.835 213.056C143.524 212.991 143.065 213.04 142.944 212.641C142.854 212.347 143.114 212.131 143.333 211.991C143.862 211.679 144.517 211.673 145.17 211.813Z" fill="white" stroke="black" stroke-width="0.5" stroke-miterlimit="10" stroke-linecap="round" stroke-linejoin="round"/>
<path d="M131.375 222.612C131.8 223.463 133.973 223.366 135.056 223.163C137.635 222.679 139.39 221.849 141.595 220.819C146.238 218.648 150.266 215.616 154.911 213.668C158.4 212.206 159.863 211.458 163.641 211.628L163.966 212.523C164.236 213.577 164.129 214.691 163.663 215.674C156.886 217.835 141.795 222.444 135.071 224.486C133.849 224.857 131.798 224.37 131.412 223.153L131.375 222.612Z" fill="#333333"/>
<path d="M139.648 91.0006C139.648 91.0006 154.78 81.7294 159.791 80.2264C163.41 79.14 170.221 78.1029 170.221 78.1029L183.879 78.7218C183.879 78.7218 192.286 83.2715 191.341 88.1766L184.734 122.478L156.591 122.07L156.11 98.4814L146.264 103.931L139.648 91.0006Z" fill="#666666" stroke="black" stroke-width="0.5" stroke-linecap="round" stroke-linejoin="round"/>
<path d="M198.198 67.4632C199.241 65.8361 200.699 64.5166 202.421 63.6409C204.144 62.7652 206.069 62.365 207.998 62.4816C212.4 61.8015 219.389 65.4077 218.468 74.944C218.087 78.8953 219.148 82.0186 224.189 85.1452C226.896 86.8267 198.785 101.992 200.818 93.6853C202.688 86.0531 199.492 84.6589 197.622 80.2537C194.934 73.9494 196.695 69.8401 198.198 67.4632Z" fill="black"/>
<path d="M211.274 130.472C211.274 130.443 211.274 130.399 211.227 130.346C211.237 130.499 211.252 130.55 211.274 130.472Z" fill="#E5E5E5" stroke="black" stroke-width="0.5" stroke-miterlimit="10" stroke-linecap="round" stroke-linejoin="round"/>
<path d="M180.312 149.887L209.685 137.637L184.689 156.233L180.312 149.887Z" fill="#808080" stroke="black" stroke-width="0.5" stroke-miterlimit="10" stroke-linecap="round" stroke-linejoin="round"/>
<path d="M120.948 213.036L123.523 197.53L133.68 199.922L129.472 215.013L120.948 213.036Z" fill="#E5E5E5" stroke="black" stroke-width="0.5" stroke-miterlimit="10" stroke-linecap="round" stroke-linejoin="round"/>
<path d="M126.577 151.71L118.378 205.211L132.981 208.326L146.299 152.645" fill="#CCCCCC"/>
<path d="M126.577 151.71L118.378 205.211L132.981 208.326L146.299 152.645" stroke="black" stroke-width="0.5" stroke-linecap="round" stroke-linejoin="round"/>
<path d="M162.402 70.4861C164.635 70.4861 166.446 68.676 166.446 66.4431C166.446 64.2102 164.635 62.4 162.402 62.4C160.17 62.4 158.359 64.2102 158.359 66.4431C158.359 68.676 160.17 70.4861 162.402 70.4861Z" fill="#333333" stroke="black" stroke-width="0.5" stroke-linecap="round" stroke-linejoin="round"/>
<path d="M175.862 68.218C175.862 68.218 177.222 66.7848 177.086 65.4399C176.95 64.0951 175.556 63.3997 174.675 64.9298C173.704 66.6286 172.819 68.3752 172.024 70.1631C171.288 71.8428 169.187 73.5226 166.074 73.3594C165.696 73.3407 165.244 76.1835 165.244 76.1835L164.96 81.2075C164.96 81.2075 164.435 84.4991 169.627 85.2404C171.576 85.5175 172.982 85.0194 173.978 84.2883C174.671 83.7694 175.228 83.0911 175.603 82.311C175.978 81.5308 176.16 80.6717 176.132 79.8066L175.862 68.218Z" fill="#E5E5E5" stroke="black" stroke-width="0.5" stroke-miterlimit="10" stroke-linecap="round" stroke-linejoin="round"/>
<path d="M159.598 58.5439L161.651 73.3883C161.651 73.3883 162.192 76.3619 166.83 75.2279C171.468 74.0939 174.177 63.3707 174.177 63.3707L174.114 56.4781L159.598 58.5439Z" fill="#E5E5E5" stroke="black" stroke-width="0.5" stroke-miterlimit="10" stroke-linecap="round" stroke-linejoin="round"/>
<path d="M171.964 57.6293C171.964 57.6293 172.6 61.6689 172.172 64.277C171.743 66.8851 171.68 68.5275 170.697 68.4867L168.331 68.3949C167.572 68.3639 166.817 68.5046 166.121 68.8063C165.335 69.1464 164.104 69.8724 162.768 69.8265C162.191 69.8085 161.624 69.675 161.1 69.4337C161.1 69.4337 158.925 75.9132 163.14 77.0591C167.355 78.205 171.219 76.447 172.768 74.15C173.812 72.6012 174.336 68.3694 174.418 66.0962C174.432 65.6662 174.559 65.2474 174.784 64.881C175.01 64.5147 175.327 64.2133 175.705 64.0067L176.587 60.1881L171.964 57.6293Z" fill="#333333" stroke="black" stroke-width="0.5" stroke-miterlimit="10" stroke-linecap="round" stroke-linejoin="round"/>
<path d="M164.457 70.1579L167.454 68.9678C167.454 68.9678 167.832 70.4317 166.888 70.9043C165.049 71.8224 164.457 70.1579 164.457 70.1579Z" fill="white"/>
<path d="M160.859 64.4879L162.303 63.4167" stroke="black" stroke-width="0.5" stroke-linecap="round" stroke-linejoin="round"/>
<path d="M166.312 63.0681L168.688 63.3657" stroke="black" stroke-width="0.5" stroke-linecap="round" stroke-linejoin="round"/>
<path d="M164.317 63.8247C164.317 63.8247 163.876 66.7406 164.182 67.3288C164.488 67.9171 165.827 67.5685 165.827 67.5685" fill="#E5E5E5"/>
<path d="M164.317 63.8247C164.317 63.8247 163.876 66.7406 164.182 67.3288C164.488 67.9171 165.827 67.5685 165.827 67.5685" stroke="black" stroke-width="0.5" stroke-linecap="round" stroke-linejoin="round"/>
<path d="M161.953 66.1812C162.316 66.1812 162.609 65.8874 162.609 65.5249C162.609 65.1625 162.316 64.8687 161.953 64.8687C161.591 64.8687 161.297 65.1625 161.297 65.5249C161.297 65.8874 161.591 66.1812 161.953 66.1812Z" fill="black"/>
<path d="M167.391 65.5709C167.753 65.5709 168.047 65.277 168.047 64.9146C168.047 64.5521 167.753 64.2583 167.391 64.2583C167.028 64.2583 166.734 64.5521 166.734 64.9146C166.734 65.277 167.028 65.5709 167.391 65.5709Z" fill="black"/>
<path d="M171.963 57.6293C171.963 57.6293 168.702 60.6403 162.831 59.7052C156.96 58.7701 156.722 56.4646 157.113 54.8393C157.504 53.2139 159.493 52.629 159.493 52.629C159.493 52.629 158.761 49.4734 162.142 49.2864C165.568 49.096 166.733 51.0087 166.733 51.0087C166.733 51.0087 171.024 49.3935 174.3 51.5579C177.971 53.9824 176.594 60.1779 176.594 60.1779L171.963 57.6293Z" fill="#333333" stroke="black" stroke-width="0.5" stroke-miterlimit="10" stroke-linecap="round" stroke-linejoin="round"/>
<path d="M184.284 214.081L171.442 167.195C170.174 162.06 172.62 157.466 177.971 155.011L191.504 146.937L199.538 159.908L187.286 168.732L192.152 211.991L184.284 214.081Z" fill="#E5E5E5" stroke="black" stroke-width="0.5" stroke-miterlimit="10" stroke-linecap="round" stroke-linejoin="round"/>
<path d="M192.083 225.212L163.893 225.892C163.491 225.903 163.09 225.833 162.714 225.689C162.338 225.544 161.995 225.326 161.703 225.048C161.412 224.771 161.178 224.438 161.015 224.069C160.852 223.701 160.764 223.304 160.755 222.901C160.736 222.124 160.98 221.363 161.446 220.741C161.913 220.119 162.576 219.672 163.327 219.472L166.876 218.53C169.047 217.955 171.1 217.003 172.942 215.716L178.893 211.558L179.573 209.473C179.623 209.318 179.709 209.175 179.822 209.057C179.936 208.939 180.075 208.849 180.228 208.792C180.382 208.735 180.546 208.714 180.709 208.73C180.872 208.747 181.03 208.799 181.169 208.885C181.169 208.885 181.237 206.382 183.549 206.77C185.333 207.069 184.445 208.497 185.59 209.807C185.607 209.827 187.509 211.75 190.777 211.52C193.484 211.33 193.173 213.212 193.297 215.526L193.711 223.446C193.723 223.669 193.69 223.893 193.614 224.104C193.539 224.314 193.421 224.508 193.269 224.672C193.118 224.837 192.934 224.969 192.731 225.062C192.527 225.155 192.307 225.206 192.083 225.212Z" fill="#4C4C4C" stroke="black" stroke-width="0.5" stroke-linecap="round" stroke-linejoin="round"/>
<path d="M160.766 222.565C160.766 222.565 165.334 225.474 178.23 222.641C186.1 220.912 193.702 222.403 193.702 222.403" stroke="black" stroke-width="0.5" stroke-linecap="round" stroke-linejoin="round"/>
<path d="M182.766 208.651L182.226 208.418C181.985 208.313 181.704 208.424 181.6 208.665L180.117 212.092C180.012 212.333 180.123 212.613 180.364 212.718L180.904 212.951C181.145 213.056 181.426 212.945 181.53 212.704L183.013 209.277C183.118 209.036 183.007 208.756 182.766 208.651Z" stroke="black" stroke-width="0.5" stroke-linecap="round" stroke-linejoin="round"/>
<path d="M181.333 209.057L180.492 208.693C180.197 208.565 179.853 208.701 179.725 208.997L179.008 210.654C178.88 210.949 179.016 211.293 179.311 211.421L180.152 211.785C180.448 211.913 180.791 211.777 180.919 211.481L181.637 209.824C181.765 209.529 181.629 209.185 181.333 209.057Z" fill="#1A1A1A" stroke="black" stroke-width="0.5" stroke-linecap="round" stroke-linejoin="round"/>
<path d="M183.175 209.587L189.305 212.241C189.471 212.312 189.601 212.447 189.667 212.614C189.734 212.782 189.731 212.969 189.659 213.135C189.418 213.691 188.966 214.128 188.403 214.351C187.84 214.574 187.212 214.564 186.656 214.325L181.997 212.308C181.831 212.236 181.701 212.102 181.635 211.934C181.568 211.766 181.571 211.579 181.643 211.413L182.28 209.942C182.352 209.777 182.486 209.646 182.654 209.58C182.821 209.514 183.009 209.516 183.174 209.588L183.175 209.587Z" fill="#1A1A1A" stroke="black" stroke-width="0.5" stroke-linecap="round" stroke-linejoin="round"/>
<path d="M164.004 219.295C164.004 219.295 164.653 220.621 169.997 220.683C172.677 220.713 173.345 219.936 173.382 218.909C173.42 217.882 171.983 216.349 171.983 216.349L173.683 215.203C173.683 215.203 174.912 217.189 175.732 218.064C178.93 221.482 181.229 222.126 181.229 222.126" stroke="black" stroke-width="0.5" stroke-linecap="round" stroke-linejoin="round"/>
<path d="M187.728 221.776C187.728 221.776 187.126 220.108 188.661 219.136C190.197 218.163 191.929 218.529 191.606 217.194C191.203 215.528 186.616 215.002 185.013 214.394C182.748 213.535 182.184 212.394 182.184 212.394" stroke="black" stroke-width="0.5" stroke-linecap="round" stroke-linejoin="round"/>
<path d="M180.316 153.199L190.359 167.589L212.236 156.699H219.717C225.127 156.699 229.207 149.951 228.558 144.58C227.65 137.099 228.167 129.165 228.167 129.165L209.383 122.299L204.944 139.145L180.316 153.199Z" fill="#808080" stroke="black" stroke-width="0.5" stroke-miterlimit="10" stroke-linecap="round" stroke-linejoin="round"/>
<path d="M202.439 79.2812C204.927 79.2812 206.945 77.264 206.945 74.7757C206.945 72.2873 204.927 70.2701 202.439 70.2701C199.951 70.2701 197.934 72.2873 197.934 74.7757C197.934 77.264 199.951 79.2812 202.439 79.2812Z" fill="#333333" stroke="black" stroke-width="0.5" stroke-linecap="round" stroke-linejoin="round"/>
<path d="M211.789 79.8571L213.061 89.3818C213.148 90.0325 213.108 90.6958 212.944 91.3283C212.779 91.9608 212.495 92.548 212.109 93.0515C211.723 93.555 211.244 93.9633 210.703 94.2496C210.163 94.5358 209.573 94.6935 208.973 94.7124C207.924 94.7446 206.901 94.3506 206.1 93.6062C205.3 92.8618 204.779 91.8195 204.639 90.6799L203.355 80.2881L211.789 79.8571Z" fill="#E5E5E5" stroke="black" stroke-width="0.5" stroke-miterlimit="10" stroke-linecap="round" stroke-linejoin="round"/>
<path d="M211.62 72.6862C210.46 70.9231 208 70.0135 208 70.0135L204.894 66.1778C204.202 66.1081 201.565 66.948 201.05 69.2093C200.334 72.3461 199.446 76.4113 199.3 77.8921C199.05 80.4339 200.538 83.9142 204.219 84.0519C207.9 84.1896 210.183 83.4603 211.919 81.755C213.432 80.2707 213.669 78.9395 213.859 77.9296C213.859 77.933 213.021 74.8148 211.62 72.6862Z" fill="#E5E5E5" stroke="black" stroke-width="0.5" stroke-miterlimit="10" stroke-linecap="round" stroke-linejoin="round"/>
<path d="M208.977 74.32L206.75 72.9292" stroke="black" stroke-width="0.5" stroke-linecap="round" stroke-linejoin="round"/>
<path d="M203.909 71.6287L201.918 71.3975" stroke="black" stroke-width="0.5" stroke-linecap="round" stroke-linejoin="round"/>
<path d="M204.355 74.1516C204.355 74.1516 203.085 75.7141 203.094 76.5489C203.102 77.3837 204.326 77.3854 204.326 77.3854" stroke="black" stroke-width="0.5" stroke-linecap="round" stroke-linejoin="round"/>
<path d="M206.974 75.9862C207.338 75.9862 207.632 75.6917 207.632 75.3283C207.632 74.9649 207.338 74.6703 206.974 74.6703C206.611 74.6703 206.316 74.9649 206.316 75.3283C206.316 75.6917 206.611 75.9862 206.974 75.9862Z" fill="black"/>
<path d="M202.537 74.1772C202.9 74.1772 203.195 73.8826 203.195 73.5192C203.195 73.1558 202.9 72.8612 202.537 72.8612C202.173 72.8612 201.879 73.1558 201.879 73.5192C201.879 73.8826 202.173 74.1772 202.537 74.1772Z" fill="black"/>
<path d="M204.469 80.4595C204.864 80.5906 205.292 80.5804 205.681 80.4306C206.285 80.1756 206.716 79.3986 206.716 79.3986" stroke="black" stroke-width="0.5" stroke-linecap="round" stroke-linejoin="round"/>
<path d="M207.711 138.288H54.1289V143.207H207.711V138.288Z" fill="white" stroke="black" stroke-width="0.5" stroke-miterlimit="10" stroke-linecap="round" stroke-linejoin="round"/>
<path d="M54.1289 138.288H207.711L202.275 115.759H59.5644L54.1289 138.288Z" fill="white" stroke="black" stroke-width="0.5" stroke-miterlimit="10" stroke-linecap="round" stroke-linejoin="round"/>
<path d="M51.8529 69.6954C54.8135 69.6954 57.2136 67.2954 57.2136 64.3347C57.2136 61.3741 54.8135 58.974 51.8529 58.974C48.8923 58.974 46.4922 61.3741 46.4922 64.3347C46.4922 67.2954 48.8923 69.6954 51.8529 69.6954Z" fill="#666666" stroke="black" stroke-width="0.5" stroke-linecap="round" stroke-linejoin="round"/>
<path d="M69.5975 71.5827C68.642 71.5657 68.1626 71.11 67.6559 70.197C64.4119 64.3483 50.824 63.1633 46.4851 73.3492C43.86 79.5141 45.7472 82.3602 37.1034 86.66C30.998 89.7033 46.701 97.7878 50.8223 88.804C55.7528 78.0655 67.9143 87.2108 72.3093 80.7025C76.7502 74.1295 72.1308 71.6286 69.5975 71.5827Z" fill="#666666" stroke="black" stroke-width="0.5" stroke-linecap="round" stroke-linejoin="round"/>
<path d="M54.2304 79.2285L47.6541 91.1707C46.7921 93.3146 49.3679 95.9312 51.9046 96.5382L52.2089 95.3872C54.3817 95.9091 56.5699 94.9094 57.284 93.0681L60.4293 84.965L54.2304 79.2285Z" fill="#E5E5E5" stroke="black" stroke-width="0.5" stroke-miterlimit="10" stroke-linecap="round" stroke-linejoin="round"/>
<path d="M58.0494 78.5416C58.0494 78.5416 61.6997 80.536 64.6462 76.2515C67.1608 72.5927 69.2656 74.5207 69.2656 74.5207C69.2656 74.5207 68.4631 79.3408 68.0908 82.2107C67.7116 85.1299 67.5433 87.2857 66.8819 88.6153C65.5711 91.2523 63.9916 93.653 60.2835 91.5889C56.8372 89.6745 55.7116 86.0973 56.033 83.1373C53.5881 81.9471 54.5283 77.8191 55.6504 77.4331C57.3183 76.8568 58.0494 78.5416 58.0494 78.5416Z" fill="#E5E5E5" stroke="black" stroke-width="0.5" stroke-miterlimit="10" stroke-linecap="round" stroke-linejoin="round"/>
<path d="M67.728 81.9437C67.728 81.9437 69.0508 85.3135 68.7022 86.3489C68.3537 87.3843 66.832 86.893 66.832 86.893" fill="#E5E5E5"/>
<path d="M67.728 81.9437C67.728 81.9437 69.0508 85.3135 68.7022 86.3489C68.3537 87.3843 66.832 86.893 66.832 86.893" stroke="black" stroke-width="0.5" stroke-linecap="round" stroke-linejoin="round"/>
<path d="M65.4592 83.0659C65.8789 83.0659 66.2192 82.7256 66.2192 82.3059C66.2192 81.8862 65.8789 81.5459 65.4592 81.5459C65.0395 81.5459 64.6992 81.8862 64.6992 82.3059C64.6992 82.7256 65.0395 83.0659 65.4592 83.0659Z" fill="black"/>
<path d="M62.4225 85.39L65.1785 88.3534C65.1785 88.3534 63.7963 89.4399 62.5296 88.2344C61.263 87.029 62.4225 85.39 62.4225 85.39Z" fill="white" stroke="black" stroke-width="0.5" stroke-linecap="round" stroke-linejoin="round"/>
<path d="M66.4837 79.4666L63.9844 80.3047" stroke="black" stroke-width="0.5" stroke-linecap="round" stroke-linejoin="round"/>
<path d="M216.665 78.9837C211.364 78.8817 214.484 72.8273 208.948 70.6987C203.747 68.6992 203.626 64.9299 204.543 63.7397" fill="black"/>
<path d="M155.733 113.756L148.801 110.138C147.878 109.656 146.846 109.423 145.805 109.462C144.765 109.501 143.752 109.81 142.867 110.359L137.304 113.812C137.212 113.87 137.132 113.946 137.07 114.035C137.008 114.125 136.965 114.227 136.944 114.334C136.923 114.441 136.925 114.552 136.949 114.658C136.973 114.765 137.019 114.865 137.083 114.953C137.193 115.102 137.351 115.209 137.53 115.253C137.71 115.298 137.9 115.278 138.066 115.198L138.122 115.171L138.025 115.279C137.916 115.399 137.85 115.552 137.838 115.713C137.826 115.875 137.869 116.036 137.959 116.17L138.046 116.303C138.1 116.384 138.17 116.454 138.252 116.508C138.334 116.562 138.425 116.599 138.522 116.616C138.618 116.634 138.717 116.632 138.812 116.61C138.908 116.589 138.998 116.549 139.078 116.492L138.976 116.648C138.873 116.805 138.824 116.992 138.837 117.179C138.85 117.367 138.924 117.545 139.047 117.687L139.086 117.731C139.212 117.878 139.385 117.978 139.575 118.014C139.766 118.05 139.963 118.02 140.134 117.928L140.105 117.964C139.98 118.107 139.911 118.291 139.911 118.481C139.911 118.671 139.98 118.855 140.105 118.998C140.221 119.13 140.377 119.219 140.55 119.252C140.722 119.284 140.901 119.258 141.057 119.178L147.128 116.061L150.2 118.263C150.829 118.714 153.405 118.964 154.111 118.642L182.603 119.035C184.041 119.055 185.445 118.599 186.597 117.738C187.749 116.877 188.584 115.659 188.972 114.275L192.659 101.032L181.812 99.3553L179.423 108.484C179.346 108.739 179.2 108.967 179.002 109.145C178.804 109.324 178.561 109.444 178.3 109.494L155.733 113.756Z" fill="#E5E5E5" stroke="black" stroke-width="0.5" stroke-miterlimit="10" stroke-linecap="round" stroke-linejoin="round"/>
<path d="M138.031 115.232L142.873 112.045" stroke="black" stroke-width="0.5" stroke-linecap="round" stroke-linejoin="round"/>
<path d="M138.988 116.57L143.905 113.292" stroke="black" stroke-width="0.5" stroke-linecap="round" stroke-linejoin="round"/>
<path d="M140.062 117.977L145.03 114.703" stroke="black" stroke-width="0.5" stroke-linecap="round" stroke-linejoin="round"/>
<path d="M137.752 123.925H161.438V121.402H137.752V123.925Z" fill="#B3B3B3" stroke="black" stroke-width="0.5" stroke-linecap="round" stroke-linejoin="round"/>
<path d="M105.133 105.481H132.895L144.156 123.925H116.393L105.133 105.481Z" fill="#CCCCCC" stroke="black" stroke-width="0.5" stroke-linecap="round" stroke-linejoin="round"/>
<path d="M142.602 123.925H144.154L132.894 105.481H131.34L142.602 123.925Z" fill="#E5E5E5" stroke="black" stroke-width="0.5" stroke-linecap="round" stroke-linejoin="round"/>
<path d="M183.681 78.7218C183.681 78.7218 190.52 79.1723 192.9 82.5336C196.254 87.2738 194.978 93.2636 194.978 93.2636L192.779 103.922L180.766 101.467L182.928 87.5177" fill="#666666"/>
<path d="M183.681 78.7218C183.681 78.7218 190.52 79.1723 192.9 82.5336C196.254 87.2738 194.978 93.2636 194.978 93.2636L192.779 103.922L180.766 101.467L182.928 87.5177" stroke="black" stroke-width="0.5" stroke-linecap="round" stroke-linejoin="round"/>
<path d="M178.096 65.6363C178.14 62.9906 176.444 60.8168 174.307 60.781C172.17 60.7452 170.402 62.8609 170.358 65.5066C170.313 68.1524 172.01 70.3261 174.146 70.362C176.283 70.3978 178.051 68.282 178.096 65.6363Z" fill="#333333" stroke="black" stroke-width="0.5" stroke-linecap="round" stroke-linejoin="round"/>
<path d="M177.782 65.6909C177.814 63.7841 176.591 62.2174 175.05 62.1916C173.509 62.1658 172.234 63.6906 172.202 65.5974C172.17 67.5043 173.394 69.071 174.934 69.0968C176.475 69.1226 177.75 67.5978 177.782 65.6909Z" fill="#4C4C4C" stroke="black" stroke-width="0.5" stroke-linecap="round" stroke-linejoin="round"/>
<path d="M169.249 74.4322C168.692 74.59 168.112 74.6475 167.535 74.6023L167.556 74.3285C169.387 74.473 171.14 73.5243 172.365 71.7238C173.896 69.4864 175.385 65.7544 175.4 65.717L175.654 65.8173C175.638 65.8564 174.134 69.6156 172.593 71.8785C171.696 73.1911 170.527 74.0718 169.249 74.4322Z" fill="black"/>
<path d="M167.094 73.5889L165.614 73.4529C165.197 73.4146 164.828 73.7217 164.79 74.1387L164.784 74.2013C164.746 74.6183 165.053 74.9875 165.47 75.0258L166.95 75.1618C167.367 75.2001 167.736 74.8931 167.774 74.476L167.78 74.4134C167.818 73.9964 167.511 73.6272 167.094 73.5889Z" fill="#4C4C4C" stroke="black" stroke-width="0.5" stroke-linecap="round" stroke-linejoin="round"/>
<path d="M174.686 64.5576C174.872 62.5293 175.125 60.3734 173.525 56.4936C171.466 51.495 166.734 51.0139 166.734 51.0139L167.792 50.7249C167.792 50.7249 172.741 51.0139 175.149 56.2845C176.544 59.3448 177.005 62.9356 176.752 65.1816C176.692 65.7018 176.295 67.0195 175.421 66.8036C174.547 66.5876 174.633 65.1459 174.686 64.5576Z" fill="#B3B3B3" stroke="black" stroke-width="0.5" stroke-linecap="round" stroke-linejoin="round"/>
<path d="M216.789 76.1767C217.133 73.5571 215.696 71.2082 213.581 70.9304C211.465 70.6526 209.471 72.551 209.127 75.1706C208.783 77.7902 210.219 80.139 212.335 80.4169C214.451 80.6947 216.445 78.7963 216.789 76.1767Z" fill="#333333" stroke="black" stroke-width="0.5" stroke-linecap="round" stroke-linejoin="round"/>
<path d="M216.469 76.1957C216.717 74.3077 215.682 72.6148 214.156 72.4145C212.631 72.2142 211.193 73.5823 210.945 75.4703C210.697 77.3584 211.733 79.0513 213.258 79.2516C214.784 79.4519 216.221 78.0838 216.469 76.1957Z" fill="#4C4C4C" stroke="black" stroke-width="0.5" stroke-linecap="round" stroke-linejoin="round"/>
<path d="M209.515 85.3492C208.961 85.5167 208.382 85.584 207.805 85.5481L207.822 85.2761C209.653 85.3883 211.392 84.4073 212.582 82.5881C214.068 80.3234 215.496 76.566 215.51 76.5286L215.765 76.6238C215.751 76.6629 214.313 80.4475 212.81 82.7445C211.941 84.0655 210.789 84.9666 209.515 85.3492Z" fill="black"/>
<path d="M207.568 84.6571L206.083 84.5531C205.664 84.5238 205.3 84.8395 205.271 85.2583L205.267 85.3212C205.237 85.74 205.553 86.1033 205.972 86.1326L207.458 86.2366C207.877 86.2659 208.24 85.9502 208.269 85.5314L208.274 85.4685C208.303 85.0497 207.987 84.6864 207.568 84.6571Z" fill="#4C4C4C" stroke="black" stroke-width="0.5" stroke-linecap="round" stroke-linejoin="round"/>
<path d="M214.697 75.9318C215.115 73.9375 215.474 72.7457 214.335 68.706C212.866 63.5051 206.344 62.5139 206.344 62.5139L207.996 62.4816C207.996 62.4816 214.156 63.2994 215.938 68.8131C216.97 72.0078 217.188 74.5937 216.674 76.7904C216.557 77.3004 216.009 78.562 215.166 78.2475C214.323 77.9329 214.574 76.5099 214.697 75.9318Z" fill="#B3B3B3" stroke="black" stroke-width="0.5" stroke-linecap="round" stroke-linejoin="round"/>
<path d="M128.854 223.575C129.336 222.992 129.67 222.301 129.825 221.56L130.815 214.36C130.82 213.465 130.15 213.41 129.208 213.229L124.45 212.469C123.952 212.373 123.508 212.093 123.207 211.685L122.155 210.261C121.977 210.018 121.747 209.819 121.482 209.677C121.216 209.535 120.922 209.455 120.622 209.442C120.321 209.429 120.021 209.484 119.745 209.602C119.468 209.72 119.221 209.899 119.023 210.126L118.165 211.105C117.886 211.424 97.6019 214.152 97.6019 214.152C96.4596 214.411 95.7809 215.456 96.2246 216.541C96.5174 217.262 97.3121 218.274 98.978 218.57L127.124 224.195C127.442 224.259 127.77 224.234 128.075 224.125C128.38 224.016 128.649 223.826 128.854 223.575Z" fill="#808080" stroke="black" stroke-width="0.5" stroke-miterlimit="10" stroke-linecap="round" stroke-linejoin="round"/>
<path d="M104.974 213.116C104.926 212.709 105.329 212.354 105.74 212.323C106.15 212.293 106.537 212.497 106.871 212.733C107.703 213.33 108.339 214.159 108.701 215.116C108.797 215.304 108.815 215.522 108.753 215.724C108.691 215.831 108.596 215.915 108.483 215.965C108.369 216.014 108.243 216.027 108.122 216C107.881 215.941 107.658 215.825 107.472 215.662C107.005 215.295 106.563 214.898 106.149 214.472C105.78 214.116 105.038 213.673 104.974 213.116Z" fill="white" stroke="black" stroke-width="0.5" stroke-miterlimit="10" stroke-linecap="round" stroke-linejoin="round"/>
<path d="M108.403 212.414C108.481 212.093 108.85 211.912 109.19 211.944C109.518 212.001 109.824 212.145 110.078 212.36C110.981 213.027 111.767 213.841 112.402 214.767C112.612 215.07 112.806 215.482 112.599 215.787C112.51 215.894 112.39 215.971 112.255 216.006C112.121 216.041 111.979 216.034 111.849 215.984C111.59 215.88 111.357 215.722 111.165 215.52C110.539 214.947 109.907 214.379 109.285 213.802C108.932 213.471 108.305 212.927 108.403 212.414Z" fill="white" stroke="black" stroke-width="0.5" stroke-miterlimit="10" stroke-linecap="round" stroke-linejoin="round"/>
<path d="M113.603 212.16C114.158 212.662 114.641 213.238 115.037 213.873C115.215 214.15 115.376 214.38 115.386 214.728C115.402 214.84 115.387 214.954 115.341 215.056C115.295 215.159 115.221 215.247 115.127 215.309C115.033 215.371 114.923 215.405 114.81 215.407C114.698 215.409 114.587 215.378 114.491 215.32C114.286 215.211 114.103 215.066 113.951 214.891C113.242 214.17 112.61 213.269 111.84 212.619C111.597 212.414 111.171 212.239 111.254 211.829C111.314 211.529 111.639 211.455 111.908 211.44C112.518 211.421 113.095 211.727 113.603 212.16Z" fill="white" stroke="black" stroke-width="0.5" stroke-miterlimit="10" stroke-linecap="round" stroke-linejoin="round"/>
<path d="M96.3265 215.086C96.293 216.043 98.2527 216.986 99.3018 217.324C101.799 218.127 103.738 218.232 106.169 218.376C111.284 218.679 116.265 217.926 121.281 218.428C125.046 218.804 126.689 218.843 129.927 220.797L129.787 221.74C129.633 222.373 129.344 222.966 128.939 223.478C128.715 223.759 128.418 223.973 128.08 224.097C127.742 224.22 127.377 224.249 127.024 224.178C119.655 222.763 105.256 219.848 98.6828 218.504C97.4307 218.254 95.8593 216.843 96.0995 215.589L96.3265 215.086Z" fill="#333333"/>
<path d="M26.7528 135.077C26.7528 135.077 36.234 118.762 39.9273 112.125C40.5428 111.355 48.2603 88.8245 48.3079 89.2699C48.5221 91.13 50.3889 92.3133 52.5958 93.3028C55.7785 94.7293 56.9364 93.8009 56.9364 93.8009L68.2223 97.7454C68.2223 97.7454 62.2869 118.26 57.1863 127.592C56.2223 131.44 54.126 138.288 54.126 138.288C54.126 138.288 48.1056 138.203 44.644 138.203C33.6828 138.203 32.253 140.22 28.4921 138.713C27.3921 138.266 26.168 136.171 26.7528 135.077Z" fill="#808080" stroke="black" stroke-width="0.5" stroke-miterlimit="10" stroke-linecap="round" stroke-linejoin="round"/>
<path d="M230.983 132.089C230.983 132.089 224.019 115.607 215.894 90.9999C214.733 88.2142 212.876 87.2856 212.876 87.2856C211.019 88.6785 208.698 89.8392 206.84 90.0714C204.983 90.3035 204.519 90.0714 204.519 90.0714L194.305 95.4106C194.305 95.4106 194.305 103.304 202.894 118.393C204.161 123.346 206.84 134.961 206.84 134.961C206.84 134.961 212.797 134.961 216.259 134.961C227.22 134.961 226.294 136.847 230.055 135.339C231.157 134.892 231.568 133.182 230.983 132.089Z" fill="#999999" stroke="black" stroke-width="0.5" stroke-miterlimit="10" stroke-linecap="round" stroke-linejoin="round"/>
<path d="M166.193 88.8166L152.968 79.8511L146.715 72.3489C146.425 72.0015 146.067 71.7172 145.663 71.5138C145.259 71.3104 144.818 71.1922 144.366 71.1665L138.236 70.8159C138.184 70.8141 138.133 70.8252 138.086 70.8484C138.04 70.8715 138 70.9059 137.97 70.9484C137.94 70.9909 137.922 71.0402 137.916 71.0917C137.91 71.1433 137.917 71.1955 137.936 71.2436C138.025 71.4592 138.165 71.6497 138.344 71.7983C138.524 71.9468 138.737 72.0488 138.965 72.0952L137.819 72.458L137.287 72.3944C137.214 72.3867 137.14 72.3939 137.07 72.4157C137 72.4374 136.936 72.4733 136.88 72.521C136.825 72.5688 136.78 72.6274 136.748 72.6933C136.716 72.7592 136.698 72.8309 136.695 72.904C136.689 73.6426 137.625 73.8815 138.31 74.1589L143.077 76.0915L145.209 78.7389L146.95 82.8174C147.206 83.4186 147.591 83.9566 148.077 84.3937C148.563 84.8308 149.138 85.1565 149.763 85.3481L150.958 85.7186L161.796 94.4929L166.193 88.8166Z" fill="#E5E5E5" stroke="black" stroke-width="0.5" stroke-linecap="round" stroke-linejoin="round"/>
<path d="M137.82 72.4646C137.82 72.4646 142.106 73.4247 144.216 74.6341C145.265 75.236 147.272 78.241 147.272 78.241" stroke="black" stroke-width="0.5" stroke-linecap="round" stroke-linejoin="round"/>
<path d="M140.988 73.3202C140.988 73.3202 143.639 73.3622 144.713 73.649C145.787 73.9357 147.965 76.4711 147.965 76.4711" stroke="black" stroke-width="0.5" stroke-linecap="round" stroke-linejoin="round"/>
<path d="M138.953 72.1099C138.953 72.1099 143.803 71.9122 144.873 72.1464C146.225 72.445 148.65 75.3489 148.65 75.3489" stroke="black" stroke-width="0.5" stroke-linecap="round" stroke-linejoin="round"/>
<path d="M85.1034 130.013H61.418V132.536H85.1034V130.013Z" fill="#B3B3B3" stroke="black" stroke-width="0.5" stroke-linecap="round" stroke-linejoin="round"/>
<path d="M117.722 114.094H89.9596L78.6992 132.538H106.462L117.722 114.094Z" fill="#CCCCCC" stroke="black" stroke-width="0.5" stroke-linecap="round" stroke-linejoin="round"/>
<path d="M80.2532 132.538H78.6992L89.9596 114.094H91.5136L80.2532 132.538Z" fill="#E5E5E5" stroke="black" stroke-width="0.5" stroke-linecap="round" stroke-linejoin="round"/>
<path d="M55.6569 79.0228C55.6569 79.0228 55.4868 89.547 51.8739 91.9443C43.645 97.3849 36.8867 90.4464 36.8867 90.4464" fill="#666666"/>
<path d="M55.6569 79.0228C55.6569 79.0228 55.4868 89.547 51.8739 91.9443C43.645 97.3849 36.8867 90.4464 36.8867 90.4464" stroke="black" stroke-width="0.5" stroke-linecap="round" stroke-linejoin="round"/>
<path d="M59.1014 81.4819C59.5908 78.8815 58.285 76.453 56.1848 76.0577C54.0845 75.6623 51.9851 77.4499 51.4956 80.0503C51.0062 82.6507 52.312 85.0793 54.4122 85.4746C56.5125 85.8699 58.6119 84.0824 59.1014 81.4819Z" fill="#333333" stroke="black" stroke-width="0.5" stroke-linecap="round" stroke-linejoin="round"/>
<path d="M57.2787 81.1992C57.6315 79.3251 56.6899 77.5747 55.1756 77.2896C53.6613 77.0046 52.1478 78.2929 51.795 80.167C51.4422 82.0412 52.3838 83.7916 53.8981 84.0766C55.4124 84.3617 56.9259 83.0734 57.2787 81.1992Z" fill="#4C4C4C" stroke="black" stroke-width="0.5" stroke-linecap="round" stroke-linejoin="round"/>
<path d="M55.4661 91.1962C55.8825 91.598 56.3673 91.9222 56.8977 92.1534L57.0065 91.9035C55.325 91.1673 54.2267 89.5028 53.9955 87.3368C53.7064 84.6437 54.1502 80.6482 54.1553 80.6091L53.8833 80.5785C53.8833 80.6176 53.431 84.6437 53.7234 87.3657C53.8935 88.9469 54.5072 90.2747 55.4661 91.1962Z" fill="black"/>
<path d="M57.1437 92.9196L58.5125 93.498C58.8982 93.6611 59.3431 93.4805 59.5061 93.0947L59.5306 93.0368C59.6936 92.651 59.5131 92.2062 59.1273 92.0431L57.7586 91.4647C57.3728 91.3016 56.928 91.4822 56.7649 91.8679L56.7404 91.9259C56.5774 92.3117 56.758 92.7565 57.1437 92.9196Z" fill="#4C4C4C" stroke="black" stroke-width="0.5" stroke-linecap="round" stroke-linejoin="round"/>
<path d="M55.0686 79.6808C55.2964 77.6576 55.4817 75.4949 57.8297 72.0164C60.8543 67.5363 65.586 68.0175 65.586 68.0175L64.6084 67.521C64.6084 67.521 59.7033 66.8069 56.2774 71.4842C54.295 74.1943 53.1184 77.6253 52.9144 79.8763C52.8685 80.3983 52.9926 81.7686 53.892 81.7329C54.7914 81.6972 55.0023 80.2691 55.0686 79.6808Z" fill="#B3B3B3" stroke="black" stroke-width="0.5" stroke-linecap="round" stroke-linejoin="round"/>
<path d="M183.245 132.002H203.703V129.823H183.245V132.002Z" fill="#B3B3B3" stroke="black" stroke-width="0.5" stroke-linecap="round" stroke-linejoin="round"/>
<path d="M155.07 116.071H179.052L188.777 132.002H164.797L155.07 116.071Z" fill="#CCCCCC" stroke="black" stroke-width="0.5" stroke-linecap="round" stroke-linejoin="round"/>
<path d="M187.436 132.002H188.777L179.052 116.071H177.711L187.436 132.002Z" fill="#E5E5E5" stroke="black" stroke-width="0.5" stroke-linecap="round" stroke-linejoin="round"/>
<path d="M100.683 85.9816L110.481 77.3446C110.481 77.3446 111.841 77.2001 112.368 76.5387C112.895 75.8774 114.651 67.3577 114.662 66.0486C114.662 65.2824 114.749 64.5188 114.92 63.772L117.678 59.7375C117.79 59.573 117.838 59.3724 117.81 59.175C117.783 58.9775 117.683 58.7974 117.53 58.6697C117.445 58.5991 117.347 58.5468 117.241 58.5159C117.135 58.485 117.024 58.4764 116.915 58.4904C116.806 58.5045 116.7 58.5409 116.606 58.5975C116.511 58.6541 116.429 58.7296 116.365 58.8193L110.35 67.2472L107.33 73.4359L96.1992 80.6583L100.683 85.9816Z" fill="#E5E5E5" stroke="black" stroke-width="0.5" stroke-linecap="round" stroke-linejoin="round"/>
<path d="M110.458 74.7332C110.458 74.7332 112.869 72.0928 113.439 70.4334C113.762 69.5284 114.006 68.5972 114.168 67.6502L117.259 63.1702C117.358 63.0271 117.402 62.8537 117.385 62.6809C117.367 62.508 117.289 62.347 117.164 62.2266C117.091 62.1561 117.004 62.1016 116.909 62.0666C116.814 62.0315 116.713 62.0166 116.611 62.0229C116.51 62.0291 116.411 62.0563 116.321 62.1028C116.231 62.1493 116.152 62.214 116.088 62.2928L110.402 69.3061" fill="#E5E5E5"/>
<path d="M110.458 74.7332C110.458 74.7332 112.869 72.0928 113.439 70.4334C113.762 69.5284 114.006 68.5972 114.168 67.6502L117.259 63.1702C117.358 63.0271 117.402 62.8537 117.385 62.6809C117.367 62.508 117.289 62.347 117.164 62.2266V62.2266C117.091 62.1561 117.004 62.1016 116.909 62.0666C116.814 62.0315 116.713 62.0166 116.611 62.0229C116.51 62.0291 116.411 62.0563 116.321 62.1028C116.231 62.1493 116.152 62.214 116.088 62.2928L110.402 69.3061" stroke="black" stroke-width="0.5" stroke-linecap="round" stroke-linejoin="round"/>
<path d="M99.9323 76.6731L105.024 84.477L87.3084 100.289L65.1362 109.944C61.7783 111.913 57.4479 111.085 55.1475 107.952C54.1614 106.605 53.6173 104.917 54.1699 102.859C55.8837 96.4243 62.8511 95.3786 62.8511 95.3786L81.6756 88.8057L99.9323 76.6731Z" fill="#808080" stroke="black" stroke-width="0.5" stroke-miterlimit="10" stroke-linecap="round" stroke-linejoin="round"/>
<path d="M161.106 84.0356L155.07 91.6403L175.663 103.763L198.417 105.706C202.007 106.426 205.645 104.511 206.769 101.212C207.251 99.7955 207.234 98.2136 206.127 96.6272C202.673 91.66 196.115 92.7293 196.115 92.7293L177.28 92.4548L161.106 84.0356Z" fill="#999999" stroke="black" stroke-width="0.5" stroke-miterlimit="10" stroke-linecap="round" stroke-linejoin="round"/>
<path d="M194.31 115.723C194.713 114.762 196.98 114.32 198.688 114.413C200.396 114.507 201.436 114.972 202.079 115.482C203.141 116.326 205.684 119.59 204.687 120.315C203.822 120.944 203.073 119.868 203.073 119.868C203.103 120.02 203.081 120.177 203.009 120.315C202.937 120.452 202.82 120.561 202.678 120.623C202.005 120.895 201.002 119.974 201.002 119.974C201.002 119.974 200.937 120.666 200.313 120.779C199.408 120.943 198.556 119.606 198.556 119.606C198.482 119.727 198.377 119.826 198.251 119.892C198.126 119.959 197.985 119.991 197.843 119.984C196.64 119.858 193.82 116.892 194.31 115.723Z" fill="#E5E5E5" stroke="black" stroke-width="0.5" stroke-linecap="round" stroke-linejoin="round"/>
<path d="M199.98 115.673C199.98 115.673 201.227 116.844 201.906 117.861C202.349 118.533 202.751 119.231 203.109 119.951" fill="#E5E5E5"/>
<path d="M199.98 115.673C199.98 115.673 201.227 116.844 201.906 117.861C202.349 118.533 202.751 119.231 203.109 119.951" stroke="black" stroke-width="0.5" stroke-linecap="round" stroke-linejoin="round"/>
<path d="M197.98 115.892C198.643 116.568 199.261 117.286 199.83 118.042C200.261 118.661 200.654 119.307 201.007 119.974" fill="#E5E5E5"/>
<path d="M197.98 115.892C198.643 116.568 199.261 117.286 199.83 118.042C200.261 118.661 200.654 119.307 201.007 119.974" stroke="black" stroke-width="0.5" stroke-linecap="round" stroke-linejoin="round"/>
<path d="M195.734 115.841C195.734 115.841 196.701 117 197.258 117.741C197.904 118.617 198.562 119.606 198.562 119.606" fill="#E5E5E5"/>
<path d="M195.734 115.841C195.734 115.841 196.701 117 197.258 117.741C197.904 118.617 198.562 119.606 198.562 119.606" stroke="black" stroke-width="0.5" stroke-linecap="round" stroke-linejoin="round"/>
<path d="M71.6564 119.88C71.6253 119.882 71.594 119.882 71.5629 119.88C71.4252 119.859 68.1795 119.339 67.6525 116.391C67.3991 114.961 67.8089 114.125 68.1965 113.671C69.334 112.351 71.5442 112.821 71.7941 112.884C72.1818 112.975 72.4334 113.414 72.3535 113.863C72.2736 114.312 71.8962 114.602 71.5034 114.512C70.956 114.387 69.674 114.302 69.2065 114.852C69.1316 114.941 68.9021 115.208 69.0534 116.061C69.3663 117.831 71.7142 118.231 71.738 118.234C72.1308 118.294 72.4079 118.71 72.3569 119.166C72.3456 119.349 72.2686 119.522 72.1399 119.654C72.0112 119.785 71.8396 119.865 71.6564 119.88Z" fill="#CCCCCC" stroke="black" stroke-width="0.5" stroke-linecap="round" stroke-linejoin="round"/>
<path d="M78.841 122.396H71.8702C71.7595 122.396 71.6528 122.355 71.5711 122.28C71.4893 122.206 71.4383 122.104 71.4281 121.993L70.5066 111.532C70.4979 111.432 70.5102 111.33 70.5426 111.235C70.575 111.14 70.6269 111.052 70.695 110.978C70.7631 110.903 70.8459 110.844 70.9382 110.803C71.0304 110.763 71.1301 110.742 71.2309 110.741H79.4275C79.5278 110.742 79.627 110.762 79.7188 110.803C79.8106 110.843 79.893 110.902 79.9609 110.976C80.0288 111.05 80.0806 111.137 80.1132 111.232C80.1458 111.326 80.1583 111.427 80.1501 111.527L79.283 121.99C79.274 122.101 79.2235 122.204 79.1416 122.28C79.0596 122.355 78.9523 122.397 78.841 122.396Z" fill="#CCCCCC" stroke="black" stroke-width="0.5" stroke-linecap="round" stroke-linejoin="round"/>
<path d="M258.234 105.857C258.188 105.486 258.095 105.161 257.863 104.836C257.677 104.511 257.398 104.279 257.073 104.093C256.748 103.907 256.377 103.814 256.005 103.814H228.705C228.288 103.814 227.823 103.954 227.452 104.186C227.08 104.418 226.802 104.789 226.616 105.161L223.552 112.821C221.323 106.786 218.77 99.5429 216.077 91.4643C221.138 88.7715 225.223 85.8465 224.109 85.15C219.048 82.0393 218.027 78.8822 218.398 74.9357C219.28 65.65 212.734 61.9822 208.323 62.4465C208.091 62.4 207.952 62.4 207.952 62.3536L206.28 62.4C206.234 62.4 206.188 62.4465 206.188 62.4929C204.841 62.6322 203.588 63.0036 202.38 63.6072C200.663 64.4893 199.223 65.7893 198.155 67.4143C196.67 69.7822 194.905 73.9143 197.598 80.1822C199.27 84.175 202.055 85.7072 201.173 91.6036L199.316 92.5786C197.505 92.3465 196.113 92.5322 196.066 92.5322H195.138C195.37 90.8143 195.602 86.1715 192.955 82.4107C190.82 79.3929 185.202 78.6965 183.902 78.5572H183.855L176.195 78.2322L176.009 69.9215C176.38 69.6893 176.705 69.4107 176.984 69.0393C177.727 68.1107 178.191 66.9036 178.191 65.6036C178.191 64.3036 177.82 63.05 177.077 62.1215C176.984 61.9822 176.891 61.8893 176.752 61.75C176.705 61.3786 176.659 60.9607 176.566 60.5429L176.659 60.1715C176.659 60.125 178.005 53.8572 174.338 51.4429C171.32 49.4465 167.373 50.6536 166.77 50.8393C166.491 50.4679 165.238 48.9822 162.127 49.1215C161.059 49.1679 160.27 49.5393 159.805 50.1429C159.155 51.025 159.295 52.1393 159.341 52.4643C158.923 52.6036 157.345 53.2536 156.973 54.7393C156.741 55.7607 156.834 56.55 157.298 57.2929C157.716 57.9429 158.459 58.4536 159.48 58.8715L160.038 62.9107C158.923 63.6536 158.18 64.9072 158.18 66.3465C158.18 68.0643 159.202 69.5036 160.688 70.1536C160.409 71.4072 160.038 73.7286 160.92 75.4C161.384 76.2357 162.08 76.7929 163.055 77.0715C163.705 77.2572 164.355 77.35 165.005 77.3965L164.913 78.7893C163.102 79.1607 161.152 79.5786 159.713 79.9965C158.738 80.275 157.438 80.8786 155.905 81.6215L153.027 79.6715L146.805 72.1965C146.527 71.825 146.155 71.5465 145.738 71.3143C145.32 71.0822 144.855 70.9893 144.391 70.9429L138.263 70.5715C138.17 70.5715 138.123 70.5715 138.077 70.6179C138.03 70.6643 137.938 70.7107 137.938 70.7572C137.891 70.8036 137.891 70.8965 137.845 70.9429C137.845 71.0357 137.845 71.0822 137.891 71.1286C137.984 71.3607 138.123 71.5465 138.355 71.7322C138.448 71.825 138.541 71.8715 138.68 71.9179L137.891 72.15L137.38 72.1036C137.288 72.1036 137.195 72.1036 137.102 72.15C137.009 72.1965 136.916 72.2429 136.87 72.2893C136.823 72.3357 136.73 72.4286 136.73 72.5215C136.684 72.6143 136.684 72.7072 136.684 72.8C136.684 73.5429 137.427 73.8215 138.077 74.0536C138.17 74.1 138.263 74.1465 138.355 74.1465L143.091 76.05L145.18 78.65L146.898 82.7357C147.177 83.3393 147.548 83.8965 148.059 84.3607C148.43 84.6857 148.848 84.9643 149.266 85.15C144.298 87.9357 139.702 90.7215 139.609 90.7679C139.563 90.8143 139.516 90.8607 139.563 90.9072L140.073 91.9286L134.409 95.3179L130.695 78.2786C130.741 78.1857 130.788 78.0929 130.834 77.9536C131.298 76.6536 130.416 68.3893 130.138 65.8822C130.091 65.65 129.998 65.4179 129.813 65.2786C129.627 65.0929 129.395 65 129.163 65C128.93 65 128.652 65.0929 128.466 65.2322C128.28 65.4179 128.141 65.65 128.141 65.8822L127.955 67.7857L124.334 58.6393C124.241 58.3607 124.009 58.1286 123.73 57.9893C123.452 57.85 123.127 57.8036 122.848 57.8965L122.338 58.0357L122.059 57.2465C121.966 56.9679 121.78 56.7822 121.548 56.6429C121.316 56.5036 121.038 56.5036 120.759 56.55C120.48 56.6429 120.248 56.7822 120.109 57.0607C119.97 57.2929 119.923 57.6179 119.97 57.8965L120.295 59.15L119.877 59.2429C119.691 59.2893 119.552 59.3357 119.413 59.475C119.273 59.5679 119.134 59.7072 119.088 59.8465C118.995 59.9857 118.948 60.1715 118.902 60.3107C118.855 60.4965 118.902 60.6357 118.948 60.8215L119.227 61.8893L118.809 61.9822C118.484 62.075 118.252 62.2607 118.066 62.5393C117.88 62.8179 117.834 63.1429 117.927 63.4679L119.83 70.7107C119.83 70.7572 120.852 74.3322 121.873 76.2822C122.477 77.4429 123.22 78.5572 124.055 79.3L125.077 104.232C125.077 104.557 125.123 104.882 125.216 105.207H105.113C105.066 105.207 105.02 105.207 105.02 105.254C105.02 105.3 105.02 105.346 105.02 105.393L110.173 113.843H91.509H89.9769C89.9305 113.843 89.884 113.843 89.884 113.889L88.909 115.514H79.9483L80.2733 111.429C80.2733 111.289 80.2733 111.196 80.2269 111.104C80.1805 111.011 80.134 110.871 80.0412 110.825C79.9483 110.732 79.8555 110.686 79.7626 110.639C79.6698 110.593 79.5305 110.546 79.4376 110.546H71.2197C71.0805 110.546 70.9876 110.593 70.8948 110.639C70.8019 110.686 70.709 110.732 70.6162 110.825C70.5233 110.918 70.4769 111.011 70.4305 111.104C70.384 111.196 70.384 111.336 70.384 111.429L70.4769 112.543C69.6876 112.543 68.759 112.775 68.109 113.518C67.784 113.889 67.459 114.539 67.459 115.561H62.4448C63.0948 113.843 63.6983 112.079 64.2555 110.407C64.5805 110.268 64.859 110.129 65.1376 109.943L87.3305 100.286C87.3305 100.286 87.3305 100.286 87.3769 100.286L105.113 84.4536C105.159 84.4072 105.159 84.3607 105.113 84.3143L104.184 82.9215L110.498 77.35C110.73 77.3036 111.938 77.1643 112.448 76.5143C112.913 75.9572 114.213 69.7822 114.63 67.0429L117.323 63.1429C117.416 62.9572 117.509 62.7715 117.463 62.5857C117.463 62.4 117.37 62.2143 117.184 62.075C117.091 61.9822 116.998 61.9357 116.905 61.8893C116.813 61.8429 116.673 61.8429 116.58 61.8429C116.488 61.8429 116.348 61.8893 116.255 61.9357L117.741 59.7536C117.88 59.5679 117.927 59.3357 117.88 59.1036C117.834 58.8715 117.741 58.6857 117.555 58.5465C117.463 58.4536 117.37 58.4072 117.23 58.3607C117.091 58.3143 116.998 58.3143 116.859 58.3143C116.72 58.3143 116.627 58.3607 116.488 58.4536C116.395 58.5 116.302 58.5929 116.209 58.6857L110.173 67.1357L107.248 73.3572L100.702 77.6286L100.052 76.6072C100.052 76.5607 100.005 76.5607 99.959 76.5607C99.9126 76.5607 99.9126 76.5607 99.8662 76.5607L81.6198 88.6786L62.8162 95.225C62.8162 95.225 62.4912 95.2715 61.9805 95.4107L57.059 93.6929C57.1519 93.5072 57.2912 93.3215 57.3376 93.0893L58.4055 93.5536C58.4983 93.6 58.6376 93.6 58.7305 93.6C59.0555 93.6 59.3805 93.4143 59.5198 93.0893L59.5662 93.0429C59.659 92.8107 59.659 92.5786 59.5662 92.3929C59.4733 92.1607 59.334 92.0215 59.1019 91.9286L57.9876 91.4643L58.4055 90.3965C58.9162 90.8607 59.5198 91.325 60.1698 91.6965C61.1448 92.2072 61.9805 92.4857 62.7698 92.4857C63.0947 92.4857 63.4198 92.4393 63.6983 92.3465C65.2305 91.8822 66.2055 90.2107 66.9483 88.6786C67.1805 88.2607 67.3198 87.75 67.459 87.1465C67.5055 87.1465 67.5055 87.1465 67.5519 87.1465C68.0626 87.1465 68.5733 86.9607 68.759 86.4036C68.9912 85.7536 68.6198 84.3143 68.2483 83.2465C69.9198 82.9679 71.3126 82.2715 72.334 80.7857C74.6555 77.35 74.3769 75.1679 73.7733 73.9143C72.9376 72.2893 70.9876 71.5 69.5483 71.4536C68.6198 71.4536 68.1555 70.9893 67.6912 70.1072C66.1126 67.2286 61.8876 65.3715 57.4769 65.6036C57.3376 65.6036 57.1983 65.6036 57.1055 65.65C57.1983 65.2786 57.2448 64.8607 57.2912 64.4429H86.5876C86.634 64.4429 86.6805 64.3965 86.6805 64.35V63.8393H87.0519C87.0983 63.8393 87.1448 63.7929 87.1448 63.7465V63.05H87.6555C87.7019 63.05 87.7483 63.0036 87.7483 62.9572V54.925V34.9607V26.4643C87.7483 26.4179 87.7019 26.3715 87.6555 26.3715H43.1769C43.1305 26.3715 43.084 26.4179 43.084 26.4643V34.9607V54.6465V62.9107C43.084 62.9572 43.1305 63.0036 43.1769 63.0036H43.5483V63.7C43.5483 63.7465 43.5948 63.7929 43.6412 63.7929H43.9662V64.3036C43.9662 64.35 44.0126 64.3965 44.059 64.3965H46.334C46.3805 66.3929 47.4948 68.1572 49.1662 69.0857C48.0055 70.2465 47.0305 71.6393 46.334 73.2643C45.6376 74.8893 45.2662 76.2822 44.9412 77.5357C43.9662 81.0643 43.3626 83.3857 37.0483 86.4965C35.7019 87.1929 35.5162 88.0286 35.609 88.6322C35.7019 89.2357 36.1198 89.8857 36.7698 90.4429C36.8162 90.4893 40.3448 94.0643 45.4055 94.0643C45.5448 94.0643 45.7305 94.0643 45.8698 94.0643L35.1448 110.036L33.1948 105.161C33.009 104.743 32.7305 104.418 32.359 104.186C31.9876 103.954 31.5698 103.814 31.1055 103.814H3.89833C3.5269 103.814 3.15547 103.907 2.83047 104.093C2.50547 104.279 2.2269 104.511 2.04118 104.836C1.85547 105.161 1.71618 105.486 1.66975 105.857C1.62333 106.229 1.66975 106.6 1.80904 106.925L22.934 160.086C22.934 161.896 24.4198 163.382 26.2769 163.382H45.8233V189.568C45.7305 189.614 45.5912 189.707 45.4983 189.754H45.4519C45.4055 189.754 45.359 189.8 45.359 189.846C42.8983 191.379 40.0662 193.654 38.4412 196.439C37.1876 198.529 36.1198 200.711 35.2376 202.939C35.2376 202.986 35.2376 203.032 35.2376 203.079L43.7805 212.968V214.268C43.7805 214.546 43.8269 214.779 43.9662 215.011L29.8055 219.329C29.8055 219.329 29.8055 219.329 29.759 219.329C29.759 219.329 29.7126 219.329 29.7126 219.375L29.6662 219.421V221.418C28.5983 221.511 27.7626 222.393 27.7626 223.507C27.7626 224.668 28.6912 225.596 29.8519 225.596C31.0126 225.596 31.9412 224.668 31.9412 223.507C31.9412 222.393 31.059 221.464 29.9448 221.418V220.768L45.2662 218.539V219.375C45.2662 219.421 45.3126 219.468 45.359 219.468H46.7055V221.418C45.6376 221.464 44.7555 222.393 44.7555 223.507C44.7555 224.668 45.684 225.596 46.8448 225.596C48.0055 225.596 48.934 224.668 48.934 223.507C48.934 222.393 48.0519 221.511 46.984 221.418V219.468H48.4233C48.4698 219.468 48.5162 219.421 48.5162 219.375V218.586H48.609L50.234 220.443C50.234 220.489 50.2805 220.489 50.3269 220.489H50.3733L52.834 219.236L60.4019 220.396C60.4948 221.139 60.634 221.882 60.7733 222.625C60.7733 222.671 60.8198 222.718 60.8662 222.718L61.7948 222.996C61.7483 223.136 61.7483 223.321 61.7483 223.461C61.7483 224.621 62.6769 225.55 63.8376 225.55C64.7198 225.55 65.509 224.946 65.7876 224.157L83.0126 229.218C83.0126 229.218 83.0126 229.218 83.059 229.218C83.1055 229.218 83.1519 229.218 83.1519 229.171L85.5662 225.086C86.1233 224.111 86.309 222.95 86.1233 221.882C85.9376 220.814 85.2876 219.793 84.4055 219.096L78.1376 214.361C77.9055 214.175 77.6269 213.943 77.3948 213.757C77.3948 213.757 77.3948 213.757 77.3483 213.757C77.0233 213.479 76.7448 213.154 76.4662 212.829C76.5126 212.782 76.4662 212.689 76.4198 212.689C76.4198 212.689 76.3733 212.643 76.2805 212.596C75.584 211.714 75.0733 210.739 74.7019 209.671C74.7483 209.625 74.7019 209.532 74.6555 209.532C74.6555 209.532 74.6555 209.532 74.609 209.486C74.1912 208.232 74.0983 206.886 74.1912 205.586C74.6555 205.864 75.584 206.421 76.1876 206.746C76.6055 206.979 77.4412 207.35 78.184 207.35C78.3698 207.35 78.6019 207.304 78.7876 207.257C79.1126 207.164 79.3448 206.932 79.4376 206.607C79.5769 206.282 79.5769 206.004 79.4376 205.771C79.1126 205.214 78.0447 204.982 77.0233 204.889C76.8376 204.843 76.6055 204.843 76.4198 204.843C77.6269 204.379 78.8805 203.729 78.9733 202.939C79.0198 202.568 78.9269 202.289 78.6948 202.104C78.1376 201.732 77.0233 202.289 76.1876 202.8C75.4912 203.218 74.7948 203.961 74.3305 204.518C74.3769 204.286 74.4233 204.054 74.5162 203.821L75.5376 200.293C75.5376 200.246 75.5376 200.154 75.4448 200.154L75.0733 200.061L80.5055 186.736L82.8269 187.479H82.8733C82.9198 187.479 82.9662 187.432 82.9662 187.386C83.0126 187.246 85.5662 179.307 87.6555 171.693L92.7626 167.654C95.9662 164.636 96.3376 161.479 96.0126 159.343C95.5948 156.232 93.5983 153.307 90.9519 151.914L89.3733 151.171C87.609 147.225 83.8019 145.879 79.159 144.254L78.8805 144.161C78.2305 143.929 77.534 143.696 76.884 143.511H135.477C133.388 143.975 131.623 144.486 130.416 144.95C127.677 146.018 125.263 148.432 124.009 151.264C123.173 153.168 122.523 156.139 123.963 159.621L124.845 161.386L118.252 205.214C118.252 205.261 118.298 205.354 118.345 205.354L121.966 206.143L121.409 209.579C121.177 209.486 120.898 209.393 120.62 209.393C120.295 209.393 119.97 209.439 119.691 209.579C119.413 209.718 119.134 209.904 118.948 210.136L118.113 211.111C117.927 211.204 116.07 211.529 113.377 211.9C112.866 211.575 112.402 211.389 111.938 211.389C111.473 211.436 111.241 211.575 111.195 211.854C111.148 211.993 111.195 212.086 111.241 212.179C110.916 212.225 110.591 212.271 110.22 212.318C109.941 212.086 109.616 211.946 109.245 211.854C108.873 211.807 108.409 212.039 108.316 212.411C108.316 212.457 108.316 212.504 108.316 212.596C107.898 212.643 107.48 212.689 107.109 212.782C107.063 212.736 107.016 212.736 107.016 212.689C106.738 212.504 106.273 212.225 105.809 212.271C105.53 212.271 105.298 212.411 105.113 212.643C104.973 212.782 104.927 212.968 104.927 213.107C102.42 213.479 99.8662 213.804 97.6376 214.082C96.9876 214.221 96.4769 214.593 96.2448 215.104C96.0126 215.568 95.9662 216.125 96.1983 216.636C96.384 217.054 97.034 218.4 99.0305 218.725L127.166 224.343C127.305 224.389 127.398 224.389 127.538 224.389C127.77 224.389 127.955 224.343 128.188 224.296C128.513 224.204 128.791 223.971 129.023 223.693C129.534 223.089 129.859 222.393 129.998 221.604L130.973 214.407C130.973 213.757 130.648 213.479 130.091 213.339L131.53 208.186L132.97 208.511C132.97 208.511 132.97 208.511 133.016 208.511C133.063 208.511 133.109 208.464 133.109 208.418L138.216 187.107L147.502 205.307C147.502 205.354 147.548 205.354 147.595 205.354H147.641L150.566 204.193L151.588 205.911C151.355 205.864 151.17 205.818 150.938 205.818C150.613 205.818 150.288 205.911 150.009 206.05C149.73 206.189 149.452 206.375 149.266 206.654C149.08 206.886 148.941 207.211 148.848 207.489L148.57 208.743C148.477 208.929 146.945 210.089 144.763 211.714C144.159 211.668 143.648 211.714 143.277 211.946C143.138 212.039 142.72 212.318 142.859 212.736C142.905 212.875 142.952 212.968 143.045 213.014C142.766 213.2 142.534 213.432 142.255 213.618H142.209C141.884 213.525 141.513 213.571 141.141 213.664C140.816 213.804 140.491 214.175 140.63 214.593C140.63 214.639 140.677 214.686 140.723 214.732C140.398 214.964 140.073 215.243 139.702 215.475C139.655 215.475 139.609 215.475 139.563 215.475C139.005 215.382 138.588 215.475 138.309 215.661C138.077 215.8 137.938 216.032 137.891 216.311C137.845 216.496 137.891 216.682 137.938 216.821C135.895 218.307 133.852 219.839 131.995 221.139C131.53 221.557 131.252 222.161 131.252 222.718C131.252 223.229 131.484 223.739 131.948 224.064C132.273 224.343 132.97 224.807 134.084 224.807C134.502 224.807 134.966 224.761 135.477 224.575L151.82 219.514V220.814V221.418C150.752 221.511 149.916 222.393 149.916 223.507C149.916 224.668 150.845 225.596 152.005 225.596C153.166 225.596 154.095 224.668 154.095 223.507C154.095 222.393 153.213 221.464 152.098 221.418V220.954L165.238 218.911L163.38 219.421C162.591 219.607 161.895 220.071 161.43 220.721C161.013 221.279 160.78 221.882 160.734 222.579C160.734 222.625 160.734 222.625 160.734 222.671C160.734 222.764 160.734 222.857 160.734 222.996C160.734 223.414 160.827 223.832 161.013 224.204C161.198 224.575 161.43 224.946 161.709 225.225C162.034 225.504 162.359 225.736 162.777 225.875C163.148 226.014 163.52 226.107 163.938 226.107C163.984 226.107 163.984 226.107 164.03 226.107L185.573 225.596C185.713 225.643 185.852 225.643 186.038 225.643C186.223 225.643 186.409 225.596 186.548 225.55L192.213 225.411C192.445 225.411 192.677 225.364 192.909 225.271C193.141 225.179 193.327 225.039 193.466 224.854C193.652 224.668 193.745 224.482 193.838 224.25C193.93 224.018 193.977 223.786 193.93 223.554V223.275C193.977 223.275 194.023 223.321 194.07 223.321C194.07 223.414 194.07 223.461 194.07 223.554C194.07 224.714 194.998 225.643 196.159 225.643C197.32 225.643 198.248 224.714 198.248 223.554C198.248 222.996 198.016 222.486 197.645 222.114L198.898 220.582L211.48 218.632V219.421C211.48 219.468 211.527 219.514 211.573 219.514H213.013V221.464C211.945 221.511 211.063 222.439 211.063 223.554C211.063 224.714 211.991 225.643 213.152 225.643C214.313 225.643 215.241 224.714 215.241 223.554C215.241 222.439 214.359 221.557 213.291 221.464V219.514H214.638C214.684 219.514 214.73 219.468 214.73 219.421V218.586L230.052 220.814V221.464C228.938 221.511 228.055 222.439 228.055 223.554C228.055 224.714 228.984 225.643 230.145 225.643C231.305 225.643 232.234 224.714 232.234 223.554C232.234 222.439 231.398 221.557 230.33 221.464V219.468V219.421C230.33 219.421 230.33 219.421 230.284 219.421C230.284 219.421 230.284 219.421 230.238 219.421L216.077 215.104C216.216 214.871 216.263 214.593 216.263 214.361V207.257C216.263 206.793 216.077 206.375 215.798 206.096C215.52 205.818 215.148 205.632 214.73 205.586V201.268L215.334 200.525C215.473 200.339 215.613 200.107 215.659 199.875C215.705 199.643 215.752 199.411 215.705 199.179C215.659 198.946 215.613 198.714 215.473 198.482C215.334 198.25 215.195 198.111 215.009 197.925L214.73 197.693V189.986C214.73 189.939 214.684 189.893 214.638 189.893H214.266V163.521H233.813C235.623 163.521 237.109 162.036 237.109 160.225L258.234 107.064C258.234 106.554 258.28 106.182 258.234 105.857ZM69.3162 114.911C69.5948 114.586 70.1519 114.493 70.6626 114.539L70.7555 115.654H69.1305C69.084 115.143 69.2233 115.004 69.3162 114.911ZM209.948 214.964L200.988 217.704L209.763 206.932C209.763 206.979 209.763 207.071 209.763 207.118V214.221C209.809 214.454 209.855 214.732 209.948 214.964ZM66.7626 197.414C66.7162 197.414 66.6233 197.414 66.6233 197.461C66.6233 197.507 64.8126 201.779 63.3269 204.239C63.1412 204.564 62.9555 204.889 62.7698 205.261C61.284 208.046 59.984 211.993 60.0769 215.382C60.1233 216.311 60.1698 217.193 60.2626 218.121L56.3626 216.914C56.5948 216.589 56.7805 216.264 56.9198 215.893C57.3376 214.825 57.3376 213.664 56.9662 212.643L54.2733 205.261C53.9948 204.564 53.8555 203.821 53.7626 203.079C53.809 203.032 53.809 202.986 53.809 202.939C53.809 202.939 53.7626 202.893 53.7626 202.8C53.6698 201.686 53.7626 200.571 54.0412 199.457C54.0876 199.411 54.134 199.364 54.0876 199.318C54.0876 199.318 54.0876 199.318 54.0876 199.271C54.459 197.971 55.0626 196.811 55.8519 195.743C56.084 196.207 56.5948 197.182 56.9198 197.786C57.1983 198.343 57.9876 199.411 58.8233 199.596C58.9162 199.596 59.009 199.643 59.1019 199.643C59.334 199.643 59.5198 199.596 59.7055 199.457C59.984 199.271 60.1233 199.039 60.1233 198.761C60.1698 198.111 59.3805 197.368 58.5912 196.718C58.4519 196.579 58.2662 196.486 58.0805 196.346C58.684 196.486 59.2876 196.579 59.8447 196.579C60.4483 196.579 60.959 196.439 61.284 196.114C61.5626 195.789 61.609 195.511 61.5162 195.279C61.2376 194.675 60.0305 194.536 59.0555 194.536C58.2198 194.536 57.2912 194.721 56.5483 194.954C56.734 194.768 56.9198 194.629 57.059 194.443L59.7983 192.029C59.8448 191.982 59.8448 191.936 59.7983 191.843L59.6126 191.611L67.7376 185.296L68.7126 186.457C68.7126 186.504 68.759 186.504 68.8055 186.504C68.8519 186.504 68.8519 186.504 68.8983 186.457L69.7805 185.761L67.134 197.461L66.7626 197.414ZM171.505 205.911C171.227 205.632 170.855 205.446 170.438 205.4V189.846C170.438 189.8 170.391 189.754 170.345 189.754H169.973V163.382H171.041C170.902 164.636 170.995 165.889 171.32 167.236L182.184 206.839C182.091 206.886 181.998 206.932 181.905 207.025C181.302 207.536 181.116 208.371 181.116 208.696C181.023 208.65 180.884 208.604 180.791 208.604C180.745 208.604 180.698 208.604 180.698 208.604L180.605 208.557C180.234 208.418 179.863 208.557 179.677 208.929L178.98 210.6C178.888 210.786 178.888 210.971 178.98 211.157L178.888 211.482L173.641 215.15L173.316 215.382L171.923 214.964C172.063 214.732 172.109 214.454 172.109 214.221V207.118C172.016 206.654 171.83 206.236 171.505 205.911ZM57.059 196.068C57.5233 196.3 58.0805 196.579 58.4055 196.857C59.1019 197.414 59.8912 198.157 59.8447 198.714C59.8447 198.9 59.7055 199.086 59.5198 199.225C59.2876 199.364 59.0555 199.411 58.8233 199.364C58.0805 199.179 57.384 198.25 57.059 197.646C56.734 197.089 56.3162 196.207 56.0376 195.696C56.3626 195.836 56.6876 195.975 57.059 196.068ZM195.416 207.721L195.184 209.764C194.905 211.575 194.348 213.339 193.513 215.011L193.42 215.243C193.42 215.057 193.42 214.871 193.42 214.686C193.373 213.479 193.327 212.411 192.723 211.854C192.584 211.761 192.445 211.668 192.259 211.575L189.334 185.529L196.205 194.257C195.973 194.304 195.741 194.443 195.509 194.675C194.952 195.139 194.673 195.65 194.673 196.207C194.673 196.996 195.184 197.646 195.416 197.925C195.323 197.971 195.23 198.064 195.138 198.111C195.091 198.157 195.091 198.157 195.091 198.204L195.045 198.25C194.859 198.343 194.766 198.482 194.673 198.668C194.627 198.854 194.627 199.039 194.72 199.225L195.509 200.85C195.602 201.036 195.741 201.129 195.927 201.221L196.113 201.5L195.416 207.721ZM56.084 195.418C56.1305 195.371 56.1769 195.325 56.2233 195.279C56.9198 195.046 58.0805 194.721 59.009 194.721C60.2626 194.768 61.0983 195 61.284 195.325C61.3769 195.464 61.284 195.696 61.0983 195.929C60.4948 196.625 58.5448 196.254 57.1519 195.836C56.734 195.65 56.3626 195.511 56.084 195.418ZM146.155 104C146.155 104.046 146.202 104.046 146.202 104.046C146.248 104.046 146.248 104.046 146.295 104.046L155.952 98.7072L156.277 113.564L155.72 113.657L148.802 110.036C147.873 109.525 146.805 109.293 145.738 109.339C144.67 109.386 143.648 109.711 142.72 110.268L137.752 113.332L134.78 108.457L145.366 102.607L146.155 104ZM70.1055 163.336L59.1948 175.129C59.1483 175.175 59.1483 175.221 59.1948 175.268L60.8662 177.218L53.9019 184.971L53.8555 184.879C53.809 184.832 53.7626 184.832 53.7162 184.879C53.6698 184.925 50.559 187.014 48.0519 188.361V163.336H70.1055ZM211.341 205.075V205.4C211.248 205.4 211.109 205.446 211.016 205.446L211.341 205.075ZM211.434 189.754C211.388 189.754 211.341 189.8 211.341 189.846V195.046L208.602 192.957C208.37 192.771 208.184 192.632 207.952 192.446C207.023 191.704 206.188 191.007 205.305 191.146C205.166 191.146 205.027 191.193 204.934 191.239L192.445 166.679L199.13 163.336H211.945V189.707H211.434V189.754ZM164.03 212.318L161.477 205.493C161.105 204.75 160.548 204.843 159.805 205.075L158.366 200.989L159.434 200.571C159.48 200.525 159.527 200.479 159.48 200.432L145.505 163.382H167.791V189.754H167.327C167.28 189.754 167.234 189.8 167.234 189.846V205.4C166.816 205.446 166.445 205.632 166.166 205.911C165.841 206.236 165.702 206.654 165.702 207.071V214.175C165.702 214.454 165.748 214.686 165.888 214.918L163.845 215.521C164.263 214.546 164.355 213.386 164.03 212.318ZM77.1162 204.982C77.9983 205.075 79.0662 205.261 79.3447 205.771C79.4376 205.957 79.4376 206.143 79.3447 206.375C79.2519 206.607 79.0662 206.793 78.834 206.886C78.1376 207.118 77.0233 206.746 76.4198 206.421C75.8626 206.096 74.9805 205.586 74.5162 205.307C74.7948 205.261 75.1198 205.168 75.5376 205.029C76.0947 204.982 76.6519 204.936 77.1162 204.982ZM76.4662 202.893C77.3019 202.382 77.9519 202.104 78.3698 202.104C78.509 202.104 78.6019 202.15 78.6948 202.196C78.834 202.289 78.8805 202.475 78.834 202.8C78.6948 203.729 76.884 204.425 75.4448 204.843C74.9805 204.889 74.5626 204.982 74.3305 205.075C74.3305 205.029 74.3305 204.982 74.3769 204.889C74.8876 204.286 75.6769 203.404 76.4662 202.893Z" fill="url(#paint0_linear_2642_291479)" style="mix-blend-mode:overlay"/>
</g>
<defs>
<linearGradient id="paint0_linear_2642_291479" x1="1.65234" y1="26.3715" x2="258.255" y2="26.3715" gradientUnits="userSpaceOnUse">
<stop stop-color="#F38478"/>
<stop offset="1" stop-color="#5D6AE8"/>
</linearGradient>
<clipPath id="clip0_2642_291479">
<rect width="260" height="260" fill="white"/>
</clipPath>
</defs>
</svg>
