<svg width="116" height="22" viewBox="0 0 116 22" fill="none" xmlns="http://www.w3.org/2000/svg">
<path fill-rule="evenodd" clip-rule="evenodd" d="M7.31546 5.34753C7.31546 4.03874 7.71031 3.44535 9.07603 3.44535L11.0121 3.4495V0.148402C10.1669 0.0476086 9.31606 -0.00188607 8.46464 5.49363e-05C4.40144 5.49363e-05 2.94515 1.86897 2.94515 5.40715V7.51869H0V11.0264H2.94515V21.6714H7.31687V11.0264H10.5932L10.9583 7.51869H7.31546V5.34753ZM17.1798 7.21655C13.1732 7.21655 11.2612 10.1946 11.2612 14.1487V15.0374C11.2612 18.9957 13.1732 21.9696 17.1798 21.9696C19.365 21.9696 20.7307 20.8993 21.3378 19.5309V21.6715H25.5256V7.51879H21.3378V9.68441C20.6996 8.31738 19.365 7.21655 17.1798 7.21655ZM18.4536 18.6089C16.4198 18.6089 15.6315 17.2114 15.6315 15.1012V14.096C15.6315 11.9859 16.4198 10.5884 18.4536 10.5884C20.2453 10.5884 21.1553 11.8667 21.1553 13.8881V15.3092C21.1553 17.3306 20.2453 18.6089 18.4536 18.6089ZM34.6314 7.2207C36.3298 7.2207 37.9389 7.5784 38.8192 8.1718L37.8483 11.2053C36.9377 10.7805 35.9428 10.557 34.9343 10.5509C32.5666 10.5509 31.5377 11.8888 31.5377 14.1792V15.0111C31.5377 17.3015 32.5694 18.6394 34.9343 18.6394C35.9428 18.6331 36.9377 18.4098 37.8483 17.985L38.8192 21.0171C37.9389 21.6119 36.3312 21.9696 34.6314 21.9696C29.5011 21.9696 27.1646 19.2633 27.1646 14.9223V14.268C27.1646 9.92702 29.5011 7.2207 34.6314 7.2207ZM39.3951 13.888V15.1358C39.3951 19.2951 41.4585 21.9987 46.9907 22.0001C49.0839 22.0001 51.4516 21.555 52.6051 20.9589L51.8054 18.0266C50.5303 18.5617 48.8008 18.8889 47.1606 18.8889C44.7362 18.8889 43.8559 18.0266 43.764 16.0939H52.9631V13.834C52.9631 9.90897 50.9902 7.23315 46.4982 7.23315C41.7316 7.23315 39.3951 9.87431 39.3951 13.888ZM49.0471 13.2919H43.7654V13.2863C43.7654 11.3841 44.5254 10.1641 46.4996 10.1627C48.4102 10.1627 49.0471 11.3897 49.0471 12.9356V13.2919ZM69.1636 15.0418C69.1636 18.9959 67.2219 21.974 63.2196 21.974C61.0344 21.974 59.5173 20.9036 58.9101 19.5352V21.6759H54.7832V0.412128L59.1535 0.0239258V9.47941C59.7904 8.23162 61.1873 7.21952 63.221 7.21952C67.2276 7.21952 69.1651 10.1934 69.1651 14.1517L69.1636 15.0418ZM64.7933 14.0602C64.7933 12.0679 64.005 10.5816 61.9104 10.5816C60.1187 10.5816 59.1479 11.8294 59.1479 13.8522V15.3385C59.1479 17.3599 60.1187 18.6091 61.9104 18.6091C64.005 18.6091 64.7933 17.1228 64.7933 15.1305V14.0602ZM70.6255 14.2388V14.9515C70.6255 19.0248 72.9946 21.9696 77.8207 21.9696C82.6467 21.9696 85.0144 19.0248 85.0144 14.9515V14.2388C85.0144 10.1641 82.6453 7.2207 77.8193 7.2207C72.9932 7.2207 70.6255 10.1641 70.6255 14.2388ZM77.8122 10.5814C79.853 10.5814 80.6427 12.0677 80.6427 13.9408V15.2496C80.6427 17.1226 79.8459 18.6089 77.8122 18.6089C75.7785 18.6089 74.9887 17.1226 74.9887 15.2496V13.9408C74.9887 12.0677 75.7714 10.5814 77.8122 10.5814ZM86.4678 14.9515V14.2388C86.4678 10.1641 88.8355 7.2207 93.6615 7.2207C98.4875 7.2207 100.855 10.1641 100.855 14.2388V14.9515C100.855 19.0248 98.4875 21.9696 93.6615 21.9696C88.8355 21.9696 86.4678 19.0248 86.4678 14.9515ZM96.4849 13.9408C96.4849 12.0677 95.6952 10.5814 93.6615 10.5814C91.6278 10.5814 90.8395 12.0677 90.8395 13.9408V15.2496C90.8395 17.1226 91.6278 18.6089 93.6615 18.6089C95.6952 18.6089 96.4849 17.1226 96.4849 15.2496V13.9408ZM111.174 7.51899L106.864 14.2682V0.0239258L102.493 0.412128V21.6717H106.864V14.7395L111.356 21.6717H116L111.296 14.5066L115.817 7.51899H111.174Z" fill="#1877F2"/>
</svg>
