<svg width="140" height="27" viewBox="0 0 140 27" fill="none" xmlns="http://www.w3.org/2000/svg">
<path d="M8.84803 3.02197C9.09934 2.35552 9.44488 1.74197 9.95796 1.24478C12.0103 -0.775713 15.4029 -0.267946 16.7955 2.27089C17.8426 4.19618 18.9525 6.07915 20.031 7.98328C21.832 11.1462 23.654 14.3092 25.4341 17.4828C26.9314 20.138 25.3084 23.4914 22.3346 23.9462C20.5127 24.2213 18.8059 23.375 17.8635 21.7247C16.2824 18.9426 14.6908 16.1605 13.1097 13.3889C13.0783 13.3254 13.0364 13.2725 12.9945 13.2196C12.827 13.0821 12.7537 12.8811 12.649 12.7013C11.9474 11.453 11.2249 10.2153 10.5234 8.97766C10.0731 8.17369 9.60194 7.38031 9.15169 6.57634C8.74332 5.857 8.55485 5.07419 8.57579 4.24907C8.6072 3.82593 8.65956 3.40279 8.84803 3.02197Z" fill="#3C8BD9"/>
<path d="M1.08875 16.7105C1.2877 16.5307 1.47618 16.3403 1.68559 16.171C4.23004 14.1399 8.05195 15.6104 8.60691 18.8262C8.74303 19.5985 8.66973 20.3389 8.43937 21.0794C8.4289 21.1429 8.41843 21.1958 8.39749 21.2593C8.30325 21.4285 8.21948 21.6084 8.11477 21.7776C7.18286 23.3327 5.81116 24.1049 4.01015 23.9885C1.94737 23.8404 0.324368 22.2748 0.0416521 20.2014C-0.0944706 19.1965 0.104478 18.255 0.617556 17.3875C0.722265 17.1971 0.847917 17.0279 0.963098 16.8375C1.01545 16.7952 0.994511 16.7105 1.08875 16.7105Z" fill="#34A852"/>
<path d="M8.84775 3.02197C8.75351 3.4028 8.66974 3.78362 8.6488 4.18561C8.61739 5.0742 8.83728 5.89932 9.27706 6.67155C10.4289 8.67089 11.5807 10.6808 12.722 12.6907C12.8267 12.8706 12.9105 13.0504 13.0152 13.2196C12.3869 14.3198 11.7587 15.4094 11.12 16.5096C10.2404 18.0434 9.36083 19.5879 8.4708 21.1218C8.42891 21.1218 8.41844 21.1006 8.40797 21.0689C8.3975 20.9843 8.42891 20.9102 8.44985 20.8256C8.87916 19.2388 8.52315 17.8319 7.44464 16.6259C6.78497 15.896 5.94729 15.4834 4.98396 15.3459C3.72744 15.1661 2.61752 15.494 1.62278 16.2874C1.44477 16.4249 1.32959 16.6259 1.12017 16.7317C1.07829 16.7317 1.05735 16.7105 1.04688 16.6788C1.54948 15.8008 2.04162 14.9228 2.54422 14.0448C4.61748 10.4058 6.69073 6.76676 8.77445 3.13834C8.7954 3.09602 8.82681 3.06429 8.84775 3.02197Z" fill="#FABC04"/>
<path fill-rule="evenodd" clip-rule="evenodd" d="M32 13.5229C32 8.82061 35.9353 5 40.666 5C43.2617 5 45.1037 6.04962 46.4853 7.39313L44.8525 9.03053C43.8896 8.06489 42.5081 7.35115 40.666 7.35115C37.2331 7.35115 34.5538 10.1221 34.5538 13.5229C34.5538 16.9237 37.2331 19.6947 40.666 19.6947C42.8849 19.6947 44.1827 18.771 44.9781 17.9733C45.648 17.3015 46.0666 16.3359 46.2341 15.0344H40.666V12.7252H48.4948C48.5785 13.145 48.6204 13.6489 48.6204 14.1947C48.6204 15.916 48.1598 18.0573 46.6108 19.6107C45.1037 21.1641 43.2198 22.0038 40.666 22.0038C35.9353 22.0038 32 18.2252 32 13.5229ZM49.4158 16.6298C49.4158 13.3969 51.8858 11.0878 54.8582 11.0878C57.8306 11.0878 60.3007 13.4389 60.3007 16.6298C60.3007 19.8206 57.8725 22.1718 54.8582 22.1718C51.844 22.1718 49.4158 19.8206 49.4158 16.6298ZM54.8582 19.9886C53.2255 19.9886 51.8021 18.6031 51.8021 16.6298C51.8021 14.6565 53.2255 13.271 54.8582 13.271C56.491 13.271 57.9144 14.6145 57.9144 16.6298C57.9144 18.6031 56.491 19.9886 54.8582 19.9886ZM61.2217 16.6298C61.2217 13.3969 63.6499 11.0878 66.6641 11.0878C69.6784 11.0878 72.1066 13.4389 72.1066 16.6298C72.1066 19.8206 69.6365 22.1718 66.6641 22.1718C63.6499 22.1718 61.2217 19.8206 61.2217 16.6298ZM66.6641 19.9886C65.0314 19.9886 63.608 18.6031 63.608 16.6298C63.608 14.6565 65.0314 13.271 66.6641 13.271C68.2969 13.271 69.7203 14.6145 69.7203 16.6298C69.7203 18.6031 68.3387 19.9886 66.6641 19.9886ZM73.2369 16.5878C73.2369 13.4809 75.7069 11.0878 78.4282 11.0878C79.726 11.0878 80.7307 11.6756 81.275 12.3473H81.3587V11.4656H83.6194V21.2901C83.6194 25.3206 81.275 27 78.47 27C75.8325 27 74.2417 25.2366 73.6556 23.7672L75.7488 22.8855C76.1256 23.7672 77.0048 24.8168 78.47 24.8168C80.2702 24.8168 81.3587 23.6832 81.3587 21.584V20.7863H81.275C80.7307 21.458 79.726 22.0458 78.4282 22.0458C75.7069 22.0458 73.2369 19.6527 73.2369 16.5878ZM78.6375 19.9046C77.0048 19.9046 75.6232 18.5191 75.6232 16.5878C75.6232 14.6565 77.0048 13.229 78.6375 13.229C80.2702 13.229 81.5262 14.6565 81.5262 16.5878C81.5262 18.5191 80.2702 19.9046 78.6375 19.9046ZM87.764 5.67176H85.3777V21.8779H87.764V5.67176ZM94.1694 11.0878C91.3225 11.0878 88.9362 13.313 88.9362 16.6298C88.9362 19.7366 91.2807 22.1718 94.4205 22.1718C96.9743 22.1718 98.4396 20.6183 99.0257 19.7366L97.1418 18.4771C96.5138 19.4008 95.6346 19.9886 94.4205 19.9886C93.1646 19.9886 92.2854 19.4427 91.7412 18.3092L99.1513 15.2443L98.9001 14.6145C98.4396 13.3969 97.0162 11.0878 94.1694 11.0878ZM94.2112 13.229C92.9971 13.229 91.2388 14.3206 91.3225 16.4618L96.2626 14.4046C96.0114 13.6908 95.1741 13.229 94.2112 13.229Z" fill="#757575"/>
<path fill-rule="evenodd" clip-rule="evenodd" d="M109.91 6L104 21.6435H106.239L107.761 17.4095H114.342L115.865 21.6435H118.103L112.193 6H109.91ZM113.671 15.5376H108.432L111.029 8.49582H111.119L113.671 15.5376ZM118.685 16.2953C118.685 17.8997 119.178 19.2368 120.163 20.351C121.148 21.4652 122.357 22 123.789 22C124.55 22 125.267 21.8663 125.938 21.5097C126.61 21.1532 127.103 20.7075 127.461 20.1727H127.55V21.6435H129.475V6H127.461V10.9471L127.55 12.4178H127.461C127.103 11.8384 126.61 11.4373 125.938 11.0808C125.312 10.7688 124.595 10.5905 123.789 10.5905C122.357 10.5905 121.193 11.1253 120.163 12.2396C119.178 13.3983 118.685 14.7354 118.685 16.2953ZM127.505 16.2953C127.505 17.454 127.192 18.39 126.52 19.1031C125.894 19.8162 125.088 20.1727 124.103 20.1281C123.163 20.1281 122.357 19.7716 121.685 19.0585C121.013 18.3454 120.7 17.4095 120.7 16.2953C120.7 15.1811 121.013 14.2451 121.685 13.532C122.312 12.8189 123.118 12.4624 124.103 12.4624C125.088 12.4624 125.894 12.8189 126.52 13.532C127.192 14.2451 127.505 15.1811 127.505 16.2953ZM135.699 22C136.952 22 137.982 21.6435 138.788 21.0195C139.594 20.3955 140.042 19.5933 139.997 18.6574C139.997 17.0529 138.967 15.9833 136.818 15.4485L135.206 15.0474C134.042 14.8245 133.46 14.3788 133.46 13.7549C133.46 13.3538 133.684 13.0418 134.087 12.7744C134.535 12.507 134.982 12.3733 135.52 12.3733C136.102 12.3733 136.639 12.507 137.087 12.7744C137.534 13.0418 137.848 13.3983 138.072 13.844L139.863 13.0864C139.549 12.3287 139.012 11.7047 138.251 11.2591C137.445 10.8134 136.594 10.5905 135.654 10.5905C134.445 10.5905 133.415 10.9025 132.61 11.4819C131.804 12.1058 131.401 12.8635 131.401 13.844C131.401 15.3593 132.43 16.3398 134.535 16.8747L136.37 17.3203C137.4 17.6323 137.937 18.1671 137.937 18.8357C137.937 19.1922 137.758 19.5487 137.311 19.8162C136.863 20.0836 136.326 20.2173 135.699 20.2173C135.117 20.2173 134.535 20.039 134.042 19.6825C133.505 19.3259 133.147 18.7911 132.878 18.1671L131.087 18.9248C131.445 19.8607 132.027 20.5738 132.833 21.1532C133.684 21.7326 134.624 22 135.699 22Z" fill="#757575"/>
</svg>
