<svg width="260" height="260" viewBox="0 0 260 260" fill="none" xmlns="http://www.w3.org/2000/svg">
<path d="M217.771 27.1069H146.722C145.179 27.1069 143.929 28.3573 143.929 29.8998V77.8066C143.929 79.349 145.179 80.5994 146.722 80.5994H217.771C219.314 80.5994 220.564 79.349 220.564 77.8066V29.8998C220.564 28.3573 219.314 27.1069 217.771 27.1069Z" fill="#CCCCCC" stroke="black" stroke-width="0.5" stroke-linecap="round" stroke-linejoin="round"/>
<path d="M143.929 33.4629H220.564V77.8085C220.564 78.5492 220.27 79.2596 219.746 79.7833C219.222 80.3071 218.512 80.6014 217.771 80.6014H146.751C146.381 80.6014 146.014 80.5283 145.671 80.3865C145.329 80.2446 145.018 80.0367 144.755 79.7746C144.226 79.2452 143.929 78.5272 143.929 77.7786V33.4629Z" fill="white" stroke="black" stroke-width="0.5" stroke-linecap="round" stroke-linejoin="round"/>
<path d="M197.668 16.4121C197.668 16.4121 196.24 12.5313 189.043 13.0472C180.487 13.6623 174.499 25.1758 180.76 30.4625C180.683 35.2089 170.71 38.4914 165.412 43.0322C160.531 47.2177 160.767 56.8376 162.023 60.0959C163.393 63.6478 166.563 61.8644 176.815 64.3844C181.55 65.5471 195.498 65.3321 195.498 65.3321C195.498 65.3321 198.792 45.0194 193.868 34.6536C192.475 31.7224 193.741 32.6889 197.304 27.2359C198.511 25.387 200.856 23.684 200.719 20.5491C200.594 17.5954 197.668 16.4121 197.668 16.4121Z" fill="black"/>
<path d="M207.744 50.622C206.325 46.1859 202.084 43.0678 197.67 41.5816L184.138 37.2671L178.784 38.7626C169.048 41.3218 167.253 44.3708 165.984 47.517C162.137 57.0303 163.425 71.432 163.425 71.432L171.581 71.0581L168.964 80.592H198.044L200.121 67.4053L201.179 80.592H211.057C211.057 80.592 210.562 59.4324 207.744 50.622Z" fill="#4C4C4C" stroke="black" stroke-width="0.5" stroke-linecap="round" stroke-linejoin="round"/>
<path d="M194.164 40.3271L191.966 39.8112C191.967 39.805 191.967 39.7987 191.966 39.7925L191.218 28.5444L181.396 30.0699L181.856 38.3587L177.775 38.4784L180.127 52.7418L195.497 54.6206L194.164 40.3271Z" fill="white" stroke="black" stroke-width="0.5" stroke-linecap="round" stroke-linejoin="round"/>
<path d="M184.02 18.9323L188.549 17.5078L194.344 17.8537C195.534 18.0389 196.608 18.6715 197.346 19.6223C198.084 20.573 198.432 21.77 198.317 22.9683C197.988 26.4173 197.008 30.8198 196.58 32.3601C195.554 36.112 192.841 38.4506 189.878 37.5122C186.097 36.3158 184.423 34.2912 182.962 32.1171C181.5 29.943 182.18 25.7612 182.328 24.662C182.685 21.9794 184.02 18.9323 184.02 18.9323Z" fill="white" stroke="black" stroke-width="0.5" stroke-miterlimit="10" stroke-linecap="round" stroke-linejoin="round"/>
<path d="M181.938 29.554C181.938 29.554 183.984 23.6374 190.365 23.3346C196.36 23.0485 195.081 17.2759 195.081 17.2759L191.46 14.3652C191.46 14.3652 187.925 14.5522 184.543 18.3209C181.405 21.8148 181.938 29.554 181.938 29.554Z" fill="black"/>
<path d="M175.757 54.7422L175.117 58.1781" stroke="black" stroke-width="0.5" stroke-linecap="round" stroke-linejoin="round"/>
<path d="M197.668 16.4121C197.668 16.4121 194.408 13.0584 187.162 17.1842C183.382 19.3377 182.275 23.755 182.275 23.755" stroke="white" stroke-width="0.5" stroke-linecap="round" stroke-linejoin="round"/>
<path d="M197.668 16.4121C197.668 16.4121 193.1 12.4041 186.452 16.5448C182.758 18.846 181.565 23.1157 181.565 23.1157" stroke="white" stroke-width="0.5" stroke-linecap="round" stroke-linejoin="round"/>
<path d="M189.064 25.0826L191.308 24.7686" stroke="black" stroke-width="0.5" stroke-linecap="round" stroke-linejoin="round"/>
<path d="M195.5 25.2749L197.214 26.8639" stroke="black" stroke-width="0.5" stroke-linecap="round" stroke-linejoin="round"/>
<path d="M193.381 26.7534C193.381 26.7534 193.951 28.8995 193.568 29.7332C193.185 30.567 191.949 30.0174 191.949 30.0174" stroke="black" stroke-width="0.5" stroke-linecap="round" stroke-linejoin="round"/>
<path d="M190.22 27.4751C190.621 27.4751 190.946 27.1503 190.946 26.7497C190.946 26.3492 190.621 26.0244 190.22 26.0244C189.82 26.0244 189.495 26.3492 189.495 26.7497C189.495 27.1503 189.82 27.4751 190.22 27.4751Z" fill="black"/>
<path d="M195.613 28.434C196.014 28.434 196.338 28.1093 196.338 27.7087C196.338 27.3081 196.014 26.9834 195.613 26.9834C195.212 26.9834 194.888 27.3081 194.888 27.7087C194.888 28.1093 195.212 28.434 195.613 28.434Z" fill="black"/>
<path d="M188.971 30.8066L192.239 32.891C192.239 32.891 191.222 34.2276 189.76 33.4181C188.298 32.6087 188.971 30.8066 188.971 30.8066Z" fill="white" stroke="black" stroke-width="0.5" stroke-linecap="round" stroke-linejoin="round"/>
<path d="M205.991 80.6572H198.309C198.054 80.6694 197.804 80.5799 197.614 80.4082C197.425 80.2365 197.311 79.9966 197.298 79.7412C197.286 79.4857 197.375 79.2359 197.547 79.0463C197.719 78.8567 197.959 78.7429 198.214 78.7298L205.333 77.8326C205.865 77.8064 206.473 78.7672 206.497 79.2906C206.523 79.8234 206.523 80.631 205.991 80.6572Z" fill="white" stroke="black" stroke-width="0.5" stroke-miterlimit="10" stroke-linecap="round" stroke-linejoin="round"/>
<path d="M211.005 79.2889C210.562 78.1897 207.989 77.6531 206.047 77.7317C204.105 77.8102 202.912 78.3261 202.172 78.8963C200.951 79.831 198.011 83.5117 199.132 84.3511C200.108 85.0802 200.975 83.8669 200.975 83.8669C200.937 84.0395 200.96 84.22 201.04 84.3777C201.119 84.5355 201.251 84.6607 201.413 84.7325C202.175 85.054 203.321 84.0203 203.321 84.0203C203.321 84.0203 203.385 84.8073 204.092 84.9456C205.12 85.1475 206.109 83.637 206.109 83.637C206.191 83.7754 206.309 83.8892 206.451 83.9664C206.592 84.0437 206.751 84.0817 206.913 84.0763C208.292 83.9548 211.55 80.6255 211.005 79.2889Z" fill="#E5E5E5" stroke="black" stroke-width="0.5" stroke-linecap="round" stroke-linejoin="round"/>
<path d="M204.553 79.145C204.553 79.145 203.119 80.4535 202.33 81.6051C201.816 82.3634 201.349 83.1519 200.93 83.9662" fill="#E5E5E5"/>
<path d="M204.553 79.145C204.553 79.145 203.119 80.4535 202.33 81.6051C201.816 82.3634 201.349 83.1519 200.93 83.9662" stroke="black" stroke-width="0.5" stroke-linecap="round" stroke-linejoin="round"/>
<path d="M206.826 79.4238C206.062 80.1823 205.348 80.9897 204.689 81.841C204.19 82.5397 203.734 83.2683 203.324 84.0225" fill="#E5E5E5"/>
<path d="M206.826 79.4238C206.062 80.1823 205.348 80.9897 204.689 81.841C204.19 82.5397 203.734 83.2683 203.324 84.0225" stroke="black" stroke-width="0.5" stroke-linecap="round" stroke-linejoin="round"/>
<path d="M209.382 79.4014C209.382 79.4014 208.26 80.71 207.621 81.5381C206.862 82.5177 206.108 83.6412 206.108 83.6412" fill="#E5E5E5"/>
<path d="M209.382 79.4014C209.382 79.4014 208.26 80.71 207.621 81.5381C206.862 82.5177 206.108 83.6412 206.108 83.6412" stroke="black" stroke-width="0.5" stroke-linecap="round" stroke-linejoin="round"/>
<path d="M220.936 50.8945L215.915 43.9466L208.095 47.454L211.941 33.1006L224.782 36.5411L220.936 50.8945Z" fill="#B3B3B3" stroke="black" stroke-width="0.5" stroke-linecap="round" stroke-linejoin="round"/>
<path d="M229.713 37.4927C229.226 38.1266 227.983 38.0549 227.389 38.575C226.795 39.0951 226.698 40.3386 226.011 40.7352C225.486 41.0397 224.709 40.7967 224.033 40.7858C223.835 40.7752 223.636 40.7994 223.447 40.8572C222.699 41.1117 222.14 42.2236 221.347 42.3286C220.555 42.4337 219.74 41.5107 218.939 41.451C218.507 41.4224 218.023 41.6606 217.547 41.8408C217.338 41.9272 217.118 41.9893 216.894 42.0256C216.741 42.0483 216.586 42.0407 216.436 42.0034C216.287 41.9606 216.149 41.8893 216.027 41.7934C215.488 41.3798 215.113 40.5536 214.544 40.2733C213.822 39.9193 212.642 40.3076 212.019 39.8291C211.397 39.3507 211.457 38.0993 210.937 37.5052C210.802 37.3603 210.642 37.2401 210.465 37.1503C209.872 36.8288 209.078 36.6508 208.777 36.1175C208.381 35.4306 208.921 34.3116 208.664 33.5577C208.407 32.8038 207.297 32.2509 207.192 31.4583C207.087 30.6657 208.01 29.8505 208.068 29.0493C208.126 28.2481 207.306 27.3278 207.516 26.5442C207.726 25.7605 208.902 25.3536 209.246 24.6524C209.591 23.9513 209.212 22.7524 209.692 22.1284C210.173 21.5043 211.422 21.5661 212.016 21.046C212.611 20.5259 212.708 19.2824 213.395 18.884C214.082 18.4856 215.203 19.0278 215.957 18.7711C216.711 18.5145 217.263 17.4046 218.056 17.2996C218.849 17.1945 219.664 18.1175 220.465 18.1772C221.265 18.2369 222.186 17.4153 222.968 17.6248C223.75 17.8343 224.158 19.0102 224.86 19.3548C225.561 19.6995 226.762 19.3206 227.384 19.799C228.007 20.2775 227.946 21.529 228.467 22.1231C228.987 22.7173 230.232 22.8148 230.629 23.5017C231.025 24.1886 230.485 25.3095 230.741 26.0634C230.998 26.8173 232.108 27.3701 232.213 28.1627C232.318 28.9553 231.395 29.7705 231.337 30.5716C231.279 31.3728 232.099 32.2931 231.89 33.0749C231.68 33.8568 230.504 34.2674 230.159 34.9685C229.814 35.6697 230.194 36.8687 229.713 37.4927Z" fill="white" stroke="black" stroke-width="0.5" stroke-linecap="round" stroke-linejoin="round"/>
<path d="M217.229 39.0438C222.328 40.4101 227.569 37.3841 228.935 32.2851C230.302 27.1862 227.276 21.9451 222.177 20.5788C217.078 19.2126 211.837 22.2385 210.47 27.3375C209.104 32.4364 212.13 37.6775 217.229 39.0438Z" fill="#E5E5E5" stroke="black" stroke-width="0.5" stroke-linecap="round" stroke-linejoin="round"/>
<path d="M214.258 32.74L213.188 26.1768L214.529 26.5362L215.286 31.771L214.907 31.6694L218.196 27.5189L219.497 27.8673L215.295 33.0177L214.258 32.74Z" fill="black"/>
<path d="M218.381 33.8446L219.948 27.9941L221.23 28.3377L219.663 34.1881L218.381 33.8446Z" fill="black"/>
<path d="M220.84 34.5032L222.407 28.6528L225.063 29.3645C225.721 29.5407 226.185 29.8314 226.454 30.2405C226.589 30.4479 226.676 30.6826 226.708 30.9277C226.741 31.1728 226.719 31.422 226.644 31.6574C226.589 31.8976 226.482 32.1226 226.33 32.3162C226.177 32.5097 225.984 32.6669 225.763 32.7763C225.317 32.9961 224.772 33.019 224.127 32.8449L222.753 32.4767L222.118 34.8458L220.84 34.5032ZM223.019 31.499L224.228 31.8232C224.49 31.9155 224.775 31.9176 225.038 31.8291C225.138 31.7838 225.226 31.7155 225.295 31.6298C225.364 31.544 225.412 31.4433 225.435 31.3356C225.47 31.2303 225.48 31.1184 225.464 31.0086C225.448 30.8988 225.407 30.7943 225.343 30.7033C225.159 30.4938 224.91 30.3527 224.636 30.3028L223.426 29.9786L223.019 31.499Z" fill="black"/>
<path d="M222.999 26.4754L219.328 25.4918C219.224 25.464 219.136 25.3964 219.082 25.3036C219.028 25.2109 219.013 25.1006 219.04 24.9968L219.789 22.2034C219.792 22.1914 219.799 22.1807 219.809 22.1728C219.819 22.1648 219.83 22.16 219.843 22.1589C219.855 22.1578 219.868 22.1605 219.879 22.1667C219.89 22.1729 219.898 22.1823 219.904 22.1935L220.642 23.715L221.991 22.6948C221.999 22.6884 222.007 22.6839 222.017 22.6817C222.026 22.6795 222.036 22.6797 222.046 22.6823C222.055 22.6848 222.064 22.6896 222.071 22.6962C222.078 22.7029 222.084 22.7112 222.087 22.7205L222.6 24.2359L224.158 23.3122C224.168 23.3063 224.18 23.3036 224.192 23.3045C224.204 23.3053 224.216 23.3096 224.225 23.3169C224.235 23.3242 224.242 23.3341 224.246 23.3455C224.25 23.3568 224.251 23.3691 224.248 23.3808L223.496 26.1868C223.482 26.2385 223.459 26.287 223.426 26.3295C223.394 26.372 223.353 26.4077 223.307 26.4345C223.261 26.4613 223.21 26.4787 223.157 26.4857C223.104 26.4928 223.05 26.4892 222.999 26.4754Z" fill="black"/>
<path d="M181.072 52.2321C181.072 52.2321 178.734 52.167 184.322 52.4643L194.072 52.4643L191.922 80.6574H188.323L181.072 52.2321Z" fill="white" stroke="black" stroke-width="0.5" stroke-linecap="round" stroke-linejoin="round"/>
<path d="M181.723 37.2671C181.723 37.2671 182.368 44.1127 184.277 50.7098C185.853 56.2159 187.017 61.8314 187.761 67.51C188.322 71.6432 188.322 80.6574 188.322 80.6574H186.64C186.64 80.6574 184.933 68.5158 182.153 63.5432C177.177 54.6431 173.891 44.9559 173.891 44.9559L179.183 44.6025C179.183 44.6025 177.51 44.4511 176.455 44.0417C175.401 43.6323 174.653 43.2939 174.653 43.2939L176.71 39.1047L181.723 37.2671Z" fill="#666666" stroke="black" stroke-width="0.5" stroke-linecap="round" stroke-linejoin="round"/>
<path d="M179.057 44.6531L182.663 43.2417" stroke="black" stroke-width="0.5" stroke-linecap="round" stroke-linejoin="round"/>
<path d="M192.669 39.0371V52.8238C192.669 57.8375 192.368 61.5072 192.243 66.3358C192.136 70.5382 191.925 80.6572 191.925 80.6572L192.243 80.5992C192.243 80.5992 194.486 67.8388 195.794 62.7858C197.312 56.9458 200.515 47.369 200.515 47.369L196.142 45.9875H200.384L196.589 40.8055L192.669 39.0371Z" fill="#666666" stroke="black" stroke-width="0.5" stroke-linecap="round" stroke-linejoin="round"/>
<path d="M196.138 45.9896L192.667 45.2773" stroke="black" stroke-width="0.5" stroke-linecap="round" stroke-linejoin="round"/>
<path d="M180.742 30.9316L184.445 43.3948C184.464 43.4596 184.502 43.5173 184.553 43.5605C184.605 43.6038 184.669 43.6305 184.736 43.6373C184.803 43.6441 184.871 43.6308 184.93 43.5989C184.99 43.567 185.038 43.518 185.07 43.4583L187.5 38.912C187.852 38.2492 187.93 37.4744 187.717 36.7547L184.069 24.4822C184.05 24.4175 184.012 24.36 183.96 24.317C183.908 24.274 183.845 24.2473 183.778 24.2405C183.71 24.2337 183.643 24.247 183.583 24.2788C183.524 24.3105 183.475 24.3592 183.443 24.4187L180.931 29.1351C180.635 29.686 180.567 30.3312 180.742 30.9316Z" fill="#999999" stroke="black" stroke-width="0.5" stroke-linecap="round" stroke-linejoin="round"/>
<path d="M183.427 33.4704L184.098 31.4271C184.285 30.8495 184.044 29.9316 183.453 29.7876C183.332 29.7588 183.205 29.7757 183.096 29.8351C182.987 29.8945 182.903 29.9921 182.862 30.1092L181.243 34.7117L183.427 33.4704Z" fill="white" stroke="black" stroke-width="0.5" stroke-miterlimit="10" stroke-linecap="round" stroke-linejoin="round"/>
<path d="M174.522 74.3107L182.083 51.2537C182.083 51.2537 183.91 49.4068 184.164 47.6029C184.351 46.2102 184.459 42.8209 184.495 41.3497C184.506 40.8819 184.588 40.4185 184.74 39.9757L185.325 38.2578L187.908 36.6388C188.153 36.4854 188.333 36.2477 188.415 35.9706C188.497 35.6934 188.475 35.396 188.353 35.134C188.328 35.0803 188.283 35.0388 188.227 35.0185C188.171 34.9981 188.11 35.0007 188.056 35.0256L183.661 37.0464L184.136 36.1977L187.947 34.6929C188.07 34.6444 188.181 34.5709 188.273 34.4772C188.366 34.3834 188.438 34.2715 188.485 34.1484C188.532 34.0253 188.553 33.8938 188.546 33.7623C188.54 33.6307 188.506 33.502 188.447 33.3843C188.38 33.2516 188.268 33.1469 188.131 33.0887C187.994 33.0306 187.841 33.0227 187.699 33.0665L186.063 33.5675L186.998 33.1151C187.126 33.0523 187.24 32.9634 187.332 32.8541C187.423 32.7449 187.492 32.6177 187.531 32.4806C187.571 32.3436 187.582 32.1997 187.564 32.0582C187.545 31.9167 187.497 31.7807 187.422 31.6589C187.344 31.5317 187.225 31.4348 187.084 31.3842C186.943 31.3336 186.79 31.3322 186.648 31.3803L181.881 33.0179C181.64 33.1009 181.418 33.2332 181.231 33.4063C181.043 33.5794 180.894 33.7896 180.791 34.0236L178.806 38.5849C178.648 38.9481 178.561 39.3384 178.55 39.7346L178.376 45.6008C178.349 46.5146 178.113 47.41 177.685 48.2179L165.315 69.0671C163.072 72.5778 164.829 75.7072 166.537 76.9298C167.203 77.406 167.971 77.7187 168.78 77.8427C169.589 77.9666 170.416 77.8983 171.193 77.6432C171.971 77.3882 172.677 76.9536 173.255 76.3746C173.834 75.7957 174.267 75.0886 174.522 74.3107Z" fill="white" stroke="black" stroke-width="0.5" stroke-linecap="round" stroke-linejoin="round"/>
<path d="M183.894 36.6294L181.92 40.327" stroke="black" stroke-width="0.5" stroke-linecap="round" stroke-linejoin="round"/>
<path d="M186.06 33.562L182.759 34.6836C182.579 34.7458 182.415 34.8455 182.276 34.976C182.137 35.1065 182.028 35.2649 181.955 35.4408L180.348 38.9496" stroke="black" stroke-width="0.5" stroke-linecap="round" stroke-linejoin="round"/>
<path d="M200.128 67.413L201.642 60.5317" stroke="black" stroke-width="0.5" stroke-linecap="round" stroke-linejoin="round"/>
<path d="M176.133 49.7305L181.651 54.0301L175.284 74.6456C174.432 77.403 171.919 79.3603 169.025 79.364C167.892 79.3666 166.779 79.0672 165.801 78.4966C163.35 77.0927 162.948 74.7148 163.077 72.8716C163.175 71.5749 163.582 70.3205 164.264 69.2132L176.133 49.7305Z" fill="#4C4C4C" stroke="black" stroke-width="0.5" stroke-linecap="round" stroke-linejoin="round"/>
<path d="M140.828 207.746H142.9V170.391H140.828V207.746Z" fill="black" stroke="black" stroke-width="0.5" stroke-miterlimit="10" stroke-linecap="round" stroke-linejoin="round"/>
<path d="M153.09 113.419H182.072C182.442 113.42 182.805 113.511 183.131 113.686C183.456 113.861 183.734 114.113 183.938 114.42C184.143 114.728 184.269 115.081 184.305 115.448C184.34 115.816 184.285 116.187 184.143 116.528L161.726 172.982H127.875L151.023 114.799C151.193 114.391 151.48 114.042 151.848 113.797C152.216 113.551 152.648 113.42 153.09 113.419Z" fill="#999999" stroke="black" stroke-width="0.5" stroke-linecap="round" stroke-linejoin="round"/>
<path d="M158.625 169.579H115.07C113.378 169.579 112.007 171.102 112.007 172.981V172.983C112.007 174.863 113.378 176.386 115.07 176.386H158.625C160.316 176.386 161.688 174.863 161.688 172.983V172.981C161.688 171.102 160.316 169.579 158.625 169.579Z" fill="#4C4C4C" stroke="black" stroke-width="0.5" stroke-linecap="round" stroke-linejoin="round"/>
<path d="M27.8018 235.999V239.779" stroke="black" stroke-width="0.5" stroke-linecap="round" stroke-linejoin="round"/>
<path d="M45.8867 235.495V239.577" stroke="black" stroke-width="0.5" stroke-linecap="round" stroke-linejoin="round"/>
<path d="M63.9707 235.999V240.322" stroke="black" stroke-width="0.5" stroke-linecap="round" stroke-linejoin="round"/>
<path d="M48.9334 231.368C49.0908 231.105 49.1738 230.805 49.1735 230.498V222.965C49.1753 222.53 49.0081 222.11 48.7072 221.795C48.4063 221.48 47.995 221.294 47.5597 221.276V204.648H44.332V221.276C43.8967 221.294 43.4853 221.48 43.1844 221.795C42.8835 222.11 42.7163 222.53 42.7181 222.965V230.498C42.718 230.81 42.8043 231.117 42.9673 231.383L27.8037 235.999V237.325L44.3338 234.912V235.937H47.5614V234.971L63.9724 237.499V235.991L48.9334 231.368Z" fill="black" stroke="black" stroke-width="0.5" stroke-miterlimit="10" stroke-linecap="round" stroke-linejoin="round"/>
<path d="M27.8419 242.413C28.9864 242.413 29.9142 241.477 29.9142 240.322C29.9142 239.168 28.9864 238.232 27.8419 238.232C26.6974 238.232 25.7695 239.168 25.7695 240.322C25.7695 241.477 26.6974 242.413 27.8419 242.413Z" fill="white" stroke="black" stroke-width="0.5" stroke-linecap="round" stroke-linejoin="round"/>
<path d="M45.8868 242.413C47.0313 242.413 47.9592 241.477 47.9592 240.322C47.9592 239.168 47.0313 238.232 45.8868 238.232C44.7423 238.232 43.8145 239.168 43.8145 240.322C43.8145 241.477 44.7423 242.413 45.8868 242.413Z" fill="white" stroke="black" stroke-width="0.5" stroke-linecap="round" stroke-linejoin="round"/>
<path d="M63.9308 242.413C65.0753 242.413 66.0031 241.477 66.0031 240.322C66.0031 239.168 65.0753 238.232 63.9308 238.232C62.7862 238.232 61.8584 239.168 61.8584 240.322C61.8584 241.477 62.7862 242.413 63.9308 242.413Z" fill="white" stroke="black" stroke-width="0.5" stroke-linecap="round" stroke-linejoin="round"/>
<path d="M46.9229 170.391H44.8506V207.746H46.9229V170.391Z" fill="black" stroke="black" stroke-width="0.5" stroke-miterlimit="10" stroke-linecap="round" stroke-linejoin="round"/>
<path d="M35.4688 113.419H6.47747C6.10715 113.419 5.7426 113.511 5.41622 113.686C5.08983 113.861 4.81181 114.114 4.60697 114.422C4.40213 114.731 4.27681 115.085 4.24223 115.454C4.20765 115.822 4.26484 116.194 4.40873 116.535L26.8292 172.982H60.6801L37.543 114.799C37.3722 114.389 37.0839 114.04 36.7148 113.795C36.3457 113.549 35.9121 113.419 35.4688 113.419Z" fill="#999999" stroke="black" stroke-width="0.5" stroke-linecap="round" stroke-linejoin="round"/>
<path d="M29.3703 176.386H65.5833C66.9897 176.386 68.1299 174.863 68.1299 172.983V172.982C68.1299 171.102 66.9897 169.579 65.5833 169.579H29.3703C27.9638 169.579 26.8236 171.102 26.8236 172.982V172.983C26.8236 174.863 27.9638 176.386 29.3703 176.386Z" fill="#4C4C4C" stroke="black" stroke-width="0.5" stroke-linecap="round" stroke-linejoin="round"/>
<path d="M202.111 122.03L197.567 135.739L206.33 138.847L212.643 122.601L202.111 122.03Z" fill="#E5E5E5" stroke="black" stroke-width="0.5" stroke-linecap="round" stroke-linejoin="round"/>
<path d="M39.1839 104.386L26.7588 130.303C25.852 132.194 25.6796 134.354 26.275 136.364C26.8703 138.375 28.1911 140.093 29.9811 141.185L59.5157 141.766L60.2991 132.199L40.2832 130.422L39.1839 104.386Z" fill="#808080" stroke="black" stroke-width="0.5" stroke-miterlimit="10" stroke-linecap="round" stroke-linejoin="round"/>
<path d="M54.3055 210.338L78.0365 191.858L68.3517 182.921L48.834 204.598L54.3055 210.338Z" fill="#E5E5E5" stroke="black" stroke-width="0.5" stroke-miterlimit="10" stroke-linecap="round" stroke-linejoin="round"/>
<path d="M69.1475 200.987L59.0078 189.104L74.8068 172.043L76.4875 156.639L92.8063 164.315C97.6208 166.842 101.172 174.812 94.7054 180.829L69.1475 200.987Z" fill="#B3B3B3" stroke="black" stroke-width="0.5" stroke-linecap="round" stroke-linejoin="round"/>
<path d="M74.6595 218.183L88.3915 184.522L74.9429 179.695L66.9531 215.008L74.6595 218.183Z" fill="#E5E5E5" stroke="black" stroke-width="0.5" stroke-miterlimit="10" stroke-linecap="round" stroke-linejoin="round"/>
<path d="M27.5726 139.889L25.9624 149.965C25.5591 152.49 25.6697 155.071 26.2877 157.552C26.9056 160.033 28.0182 162.364 29.5588 164.405C31.0993 166.446 33.036 168.155 35.2529 169.43C37.4697 170.704 39.9211 171.518 42.46 171.822L72.5633 173.584L70.2166 197.319L84.2537 201.832C84.2537 201.832 91.3752 179.735 92.0377 172.521C93.137 160.538 87.4922 158.729 79.952 156.069C68.9114 152.175 52.9698 149.884 52.9698 149.884L27.5726 139.889Z" fill="#B3B3B3" stroke="black" stroke-width="0.5" stroke-linecap="round" stroke-linejoin="round"/>
<path d="M55.0371 210.559C55.0371 210.559 59.9111 212.505 61.0268 211.208C61.7885 210.322 60.8317 209.764 58.7431 209.717C57.1076 209.683 55.0371 210.559 55.0371 210.559Z" stroke="black" stroke-width="0.5" stroke-linecap="round" stroke-linejoin="round"/>
<path d="M55.3135 210.585C55.3135 210.585 56.1078 212.158 56.5771 213.042C57.0465 213.927 58.3317 215.485 59.3751 214.739C60.3355 214.053 59.46 213.057 58.1964 211.999C57.2469 211.205 55.3135 210.585 55.3135 210.585Z" stroke="black" stroke-width="0.5" stroke-linecap="round" stroke-linejoin="round"/>
<path d="M53.1211 199.48C53.1211 199.48 49.0558 202.278 46.2614 203.621C43.467 204.964 39.1959 207.937 36.9954 211.643C35.6818 213.851 34.5469 216.16 33.6016 218.548L49.61 237.037L54.1085 234.755C55.1461 234.229 55.9552 233.34 56.3831 232.258C56.8111 231.176 56.8284 229.975 56.4318 228.881L53.5869 221.05C52.8548 219.035 52.75 216.846 53.2861 214.77C53.8223 212.694 54.9743 210.83 56.5906 209.421L59.5205 206.865L53.1211 199.48Z" fill="#808080" stroke="black" stroke-width="0.5" stroke-linecap="round" stroke-linejoin="round"/>
<path d="M37.6182 210.708C37.6182 210.708 40.5967 212.065 42.8117 215.874C45.0267 219.683 47.1279 225.021 48.693 227.247C50.2581 229.473 54.7548 234.248 54.7548 234.248" stroke="black" stroke-width="0.5" stroke-linecap="round" stroke-linejoin="round"/>
<path d="M55.5788 226.87C55.5788 226.87 53.5715 225.834 52.4342 226.583C51.2969 227.332 49.5459 228.347 49.5459 228.347" stroke="black" stroke-width="0.5" stroke-linecap="round" stroke-linejoin="round"/>
<path d="M45.141 204.195C45.141 204.195 46.7061 207.885 45.9497 210.332C45.1933 212.78 42.8447 215.903 42.8447 215.903" stroke="black" stroke-width="0.5" stroke-linecap="round" stroke-linejoin="round"/>
<path d="M52.3584 209.836C52.3584 209.836 53.5389 209.535 54.1022 209.77C54.6654 210.004 55.0228 210.831 55.0228 210.831" stroke="black" stroke-width="0.5" stroke-linecap="round" stroke-linejoin="round"/>
<path d="M51.459 211.488C51.459 211.488 52.6323 211.396 53.1955 211.629C53.7587 211.862 54.0205 212.582 54.0205 212.582" stroke="black" stroke-width="0.5" stroke-linecap="round" stroke-linejoin="round"/>
<path d="M50.7295 213.566C50.7295 213.566 51.9046 213.474 52.466 213.707C53.0274 213.94 53.3579 214.737 53.3579 214.737" stroke="black" stroke-width="0.5" stroke-linecap="round" stroke-linejoin="round"/>
<path d="M50.4141 215.279C50.4141 215.279 51.5874 215.187 52.1506 215.419C52.7138 215.652 52.9756 216.373 52.9756 216.373" stroke="black" stroke-width="0.5" stroke-linecap="round" stroke-linejoin="round"/>
<path d="M50.2764 217.201C50.2764 217.201 51.4498 217.109 52.0112 217.344C52.5726 217.579 53.0816 218.579 53.0816 218.579" stroke="black" stroke-width="0.5" stroke-linecap="round" stroke-linejoin="round"/>
<path d="M50.7275 218.972C50.7275 218.972 51.9009 218.88 52.4642 219.115C53.0274 219.35 53.2891 220.068 53.2891 220.068" stroke="black" stroke-width="0.5" stroke-linecap="round" stroke-linejoin="round"/>
<path d="M74.5547 221.079C74.5547 221.079 79.7049 220.075 79.9413 218.382C80.102 217.225 78.9973 217.275 77.2137 218.364C75.8201 219.216 74.5547 221.079 74.5547 221.079Z" stroke="black" stroke-width="0.5" stroke-linecap="round" stroke-linejoin="round"/>
<path d="M74.7979 220.945C74.7979 220.945 76.3178 221.839 77.1861 222.332C78.0544 222.824 79.9841 223.435 80.4589 222.241C80.8939 221.146 79.6177 220.781 77.984 220.577C76.7637 220.425 74.7979 220.945 74.7979 220.945Z" stroke="black" stroke-width="0.5" stroke-linecap="round" stroke-linejoin="round"/>
<path d="M66.9514 212.8C66.9514 212.8 65.0506 217.353 63.4241 219.999C61.7976 222.646 59.8137 227.453 59.9762 231.76C60.0663 234.327 60.3621 236.883 60.8607 239.403L84.3282 246.281L86.8753 241.925C87.4633 240.921 87.6631 239.736 87.437 238.595C87.2108 237.453 86.5743 236.434 85.6478 235.73L79.0155 230.686C77.3094 229.388 76.0362 227.604 75.3631 225.569C74.69 223.533 74.6486 221.342 75.2444 219.283L76.3276 215.548L66.9514 212.8Z" fill="#808080" stroke="black" stroke-width="0.5" stroke-linecap="round" stroke-linejoin="round"/>
<path d="M59.9922 230.634C59.9922 230.634 63.2306 230.164 67.1551 232.166C71.0796 234.168 75.737 237.519 78.257 238.542C80.7771 239.566 87.144 241.145 87.144 241.145" stroke="black" stroke-width="0.5" stroke-linecap="round" stroke-linejoin="round"/>
<path d="M83.8401 234.5C83.8401 234.5 81.589 234.715 81.0403 235.963C80.4915 237.21 79.5654 239.01 79.5654 239.01" stroke="black" stroke-width="0.5" stroke-linecap="round" stroke-linejoin="round"/>
<path d="M62.7988 221.086C62.7988 221.086 66.1114 223.341 66.8064 225.816C67.5014 228.29 67.2125 232.179 67.2125 232.179" stroke="black" stroke-width="0.5" stroke-linecap="round" stroke-linejoin="round"/>
<path d="M71.9131 221.922C71.9131 221.922 72.7416 221.028 73.3409 220.92C73.9402 220.812 74.6894 221.315 74.6894 221.315" stroke="black" stroke-width="0.5" stroke-linecap="round" stroke-linejoin="round"/>
<path d="M72.0527 223.801C72.0527 223.801 72.9897 223.088 73.589 222.98C74.1883 222.872 74.8003 223.341 74.8003 223.341" stroke="black" stroke-width="0.5" stroke-linecap="round" stroke-linejoin="round"/>
<path d="M72.5635 225.938C72.5635 225.938 73.5004 225.225 74.0997 225.117C74.6991 225.009 75.4066 225.5 75.4066 225.5" stroke="black" stroke-width="0.5" stroke-linecap="round" stroke-linejoin="round"/>
<path d="M73.2256 227.554C73.2256 227.554 74.1625 226.841 74.7618 226.735C75.3612 226.628 75.9714 227.096 75.9714 227.096" stroke="black" stroke-width="0.5" stroke-linecap="round" stroke-linejoin="round"/>
<path d="M74.1504 229.242C74.1504 229.242 75.0873 228.52 75.6867 228.421C76.286 228.321 77.2553 228.879 77.2553 228.879" stroke="black" stroke-width="0.5" stroke-linecap="round" stroke-linejoin="round"/>
<path d="M75.4883 230.486C75.4883 230.486 76.4251 229.773 77.0245 229.665C77.6238 229.556 78.234 230.026 78.234 230.026" stroke="black" stroke-width="0.5" stroke-linecap="round" stroke-linejoin="round"/>
<path d="M199.349 216.449L169.257 178.191C168.394 177.18 167.781 175.98 167.466 174.688C167.151 173.396 167.144 172.048 167.445 170.753C167.746 169.458 168.346 168.251 169.198 167.23C170.049 166.209 171.129 165.402 172.349 164.874L196.522 154.404L201.232 170.25L187.193 175.464L205.11 210.719L199.349 216.449Z" fill="#E5E5E5" stroke="black" stroke-width="0.5" stroke-miterlimit="10" stroke-linecap="round" stroke-linejoin="round"/>
<path d="M213.699 215.716L194.766 238.909C194.496 239.241 194.164 239.516 193.787 239.719C193.411 239.922 192.998 240.049 192.573 240.092C192.147 240.135 191.717 240.094 191.308 239.97C190.898 239.847 190.517 239.644 190.186 239.373C189.547 238.85 189.102 238.128 188.923 237.322C188.744 236.515 188.842 235.672 189.201 234.929L190.896 231.417C191.933 229.27 192.583 226.956 192.818 224.583L193.58 216.911L192.369 214.925C192.278 214.777 192.223 214.61 192.206 214.436C192.189 214.263 192.212 214.089 192.272 213.926C192.333 213.762 192.429 213.615 192.555 213.495C192.68 213.374 192.832 213.284 192.997 213.23C192.997 213.23 191.026 211.445 192.938 209.851C194.412 208.62 194.949 210.322 196.792 210.308C196.819 210.308 199.68 210.104 201.758 207.313C203.474 204.999 204.776 206.551 206.727 208.047L213.407 213.174C213.596 213.32 213.754 213.502 213.871 213.709C213.989 213.917 214.063 214.146 214.091 214.383C214.118 214.62 214.097 214.86 214.03 215.089C213.963 215.318 213.85 215.531 213.699 215.716Z" fill="#666666" stroke="black" stroke-width="0.5" stroke-linecap="round" stroke-linejoin="round"/>
<path d="M189.921 239.131C189.921 239.131 195.423 237.459 202.052 225.108C206.099 217.568 212.549 212.472 212.549 212.472" stroke="black" stroke-width="0.5" stroke-linecap="round" stroke-linejoin="round"/>
<path d="M193.925 211.788L193.364 212.062C193.113 212.184 193.008 212.487 193.131 212.738L194.867 216.301C194.989 216.552 195.292 216.656 195.543 216.534L196.104 216.261C196.355 216.138 196.46 215.836 196.337 215.585L194.601 212.021C194.479 211.77 194.176 211.666 193.925 211.788Z" stroke="black" stroke-width="0.5" stroke-linecap="round" stroke-linejoin="round"/>
<path d="M193.262 213.224L192.388 213.65C192.08 213.8 191.953 214.171 192.102 214.478L192.942 216.201C193.092 216.509 193.463 216.637 193.77 216.487L194.645 216.061C194.952 215.911 195.08 215.54 194.93 215.233L194.09 213.509C193.94 213.202 193.57 213.074 193.262 213.224Z" fill="#333333" stroke="black" stroke-width="0.5" stroke-linecap="round" stroke-linejoin="round"/>
<path d="M194.963 212.104L201.339 208.998C201.511 208.914 201.709 208.902 201.89 208.964C202.071 209.026 202.22 209.158 202.304 209.33C202.586 209.909 202.627 210.576 202.417 211.185C202.207 211.794 201.764 212.294 201.185 212.576L196.34 214.938C196.167 215.022 195.969 215.034 195.788 214.971C195.607 214.909 195.458 214.777 195.374 214.605L194.628 213.075C194.586 212.989 194.561 212.896 194.555 212.801C194.549 212.706 194.562 212.61 194.593 212.52C194.624 212.43 194.673 212.346 194.736 212.275C194.8 212.204 194.877 212.146 194.963 212.104Z" fill="#333333" stroke="black" stroke-width="0.5" stroke-linecap="round" stroke-linejoin="round"/>
<path d="M189.522 234.264C189.522 234.264 191.041 234.656 194.783 230.392C196.66 228.253 196.494 227.175 195.685 226.437C194.877 225.698 192.653 225.794 192.653 225.794L192.904 223.628C192.904 223.628 195.355 224.01 196.626 223.956C201.592 223.74 203.699 222.332 203.699 222.332" stroke="black" stroke-width="0.5" stroke-linecap="round" stroke-linejoin="round"/>
<path d="M207.917 216.855C207.917 216.855 206.159 216.187 206.435 214.277C206.711 212.367 208.204 211.224 206.906 210.562C205.281 209.735 201.691 213.069 200.091 213.941C197.833 215.172 196.524 214.844 196.524 214.844" stroke="black" stroke-width="0.5" stroke-linecap="round" stroke-linejoin="round"/>
<path d="M159.949 235.999V239.779" stroke="black" stroke-width="0.5" stroke-linecap="round" stroke-linejoin="round"/>
<path d="M141.864 235.495V239.577" stroke="black" stroke-width="0.5" stroke-linecap="round" stroke-linejoin="round"/>
<path d="M123.78 235.999V240.322" stroke="black" stroke-width="0.5" stroke-linecap="round" stroke-linejoin="round"/>
<path d="M138.817 231.368C138.66 231.105 138.577 230.805 138.577 230.498V222.965C138.575 222.53 138.743 222.11 139.044 221.795C139.344 221.48 139.756 221.294 140.191 221.276V204.648H143.419V221.276C143.854 221.294 144.265 221.48 144.566 221.795C144.867 222.11 145.034 222.53 145.033 222.965V230.498C145.033 230.81 144.946 231.117 144.783 231.383L159.947 235.999V237.325L143.417 234.912V235.937H140.189V234.971L123.778 237.499V235.991L138.817 231.368Z" fill="black" stroke="black" stroke-width="0.5" stroke-miterlimit="10" stroke-linecap="round" stroke-linejoin="round"/>
<path d="M159.909 242.413C161.054 242.413 161.982 241.477 161.982 240.322C161.982 239.168 161.054 238.232 159.909 238.232C158.765 238.232 157.837 239.168 157.837 240.322C157.837 241.477 158.765 242.413 159.909 242.413Z" fill="white" stroke="black" stroke-width="0.5" stroke-linecap="round" stroke-linejoin="round"/>
<path d="M141.864 242.413C143.009 242.413 143.937 241.477 143.937 240.322C143.937 239.168 143.009 238.232 141.864 238.232C140.72 238.232 139.792 239.168 139.792 240.322C139.792 241.477 140.72 242.413 141.864 242.413Z" fill="white" stroke="black" stroke-width="0.5" stroke-linecap="round" stroke-linejoin="round"/>
<path d="M123.821 242.413C124.966 242.413 125.894 241.477 125.894 240.322C125.894 239.168 124.966 238.232 123.821 238.232C122.677 238.232 121.749 239.168 121.749 240.322C121.749 241.477 122.677 242.413 123.821 242.413Z" fill="white" stroke="black" stroke-width="0.5" stroke-linecap="round" stroke-linejoin="round"/>
<path d="M229.571 235.999V239.779" stroke="black" stroke-width="0.5" stroke-linecap="round" stroke-linejoin="round"/>
<path d="M211.489 235.495V239.577" stroke="black" stroke-width="0.5" stroke-linecap="round" stroke-linejoin="round"/>
<path d="M193.405 235.999V240.322" stroke="black" stroke-width="0.5" stroke-linecap="round" stroke-linejoin="round"/>
<path d="M208.442 231.368C208.284 231.106 208.2 230.805 208.201 230.498V222.965C208.199 222.53 208.366 222.11 208.667 221.795C208.968 221.48 209.379 221.294 209.814 221.276V204.648H213.044V221.276C213.479 221.294 213.89 221.48 214.191 221.795C214.492 222.11 214.659 222.53 214.658 222.965V230.498C214.658 230.81 214.572 231.117 214.409 231.383L229.572 235.999V237.325L213.044 234.912V235.937H209.814V234.971L193.405 237.499V235.991L208.442 231.368Z" fill="black" stroke="black" stroke-width="0.5" stroke-miterlimit="10" stroke-linecap="round" stroke-linejoin="round"/>
<path d="M229.532 242.413C230.677 242.413 231.605 241.477 231.605 240.322C231.605 239.168 230.677 238.232 229.532 238.232C228.388 238.232 227.46 239.168 227.46 240.322C227.46 241.477 228.388 242.413 229.532 242.413Z" fill="white" stroke="black" stroke-width="0.5" stroke-linecap="round" stroke-linejoin="round"/>
<path d="M211.489 242.413C212.634 242.413 213.562 241.477 213.562 240.322C213.562 239.168 212.634 238.232 211.489 238.232C210.345 238.232 209.417 239.168 209.417 240.322C209.417 241.477 210.345 242.413 211.489 242.413Z" fill="white" stroke="black" stroke-width="0.5" stroke-linecap="round" stroke-linejoin="round"/>
<path d="M193.444 242.413C194.589 242.413 195.517 241.477 195.517 240.322C195.517 239.168 194.589 238.232 193.444 238.232C192.3 238.232 191.372 239.168 191.372 240.322C191.372 241.477 192.3 242.413 193.444 242.413Z" fill="white" stroke="black" stroke-width="0.5" stroke-linecap="round" stroke-linejoin="round"/>
<path d="M210.451 207.746H212.523V170.391H210.451V207.746Z" fill="black" stroke="black" stroke-width="0.5" stroke-miterlimit="10" stroke-linecap="round" stroke-linejoin="round"/>
<path d="M222.887 113.419H251.879C252.248 113.42 252.612 113.511 252.937 113.686C253.263 113.861 253.54 114.113 253.745 114.42C253.95 114.728 254.076 115.081 254.111 115.448C254.147 115.816 254.091 116.187 253.949 116.528L231.533 172.982H197.682L220.819 114.799C220.989 114.39 221.277 114.042 221.645 113.796C222.013 113.551 222.445 113.42 222.887 113.419Z" fill="#666666" stroke="black" stroke-width="0.5" stroke-linecap="round" stroke-linejoin="round"/>
<path d="M228.994 169.579H190.073C188.561 169.579 187.336 171.102 187.336 172.981V172.983C187.336 174.863 188.561 176.386 190.073 176.386H228.994C230.506 176.386 231.731 174.863 231.731 172.983V172.981C231.731 171.102 230.506 169.579 228.994 169.579Z" fill="#333333" stroke="black" stroke-width="0.5" stroke-linecap="round" stroke-linejoin="round"/>
<path d="M132.898 223.628L121.197 204.222L132.682 199.631L140.603 222.037L132.898 223.628Z" fill="#E5E5E5" stroke="black" stroke-width="0.5" stroke-miterlimit="10" stroke-linecap="round" stroke-linejoin="round"/>
<path d="M144.393 232.067C144.909 230.961 145.004 229.705 144.659 228.535L141.951 221.314C141.503 220.476 140.85 220.763 139.879 221.07L135.052 222.765C134.538 222.929 133.982 222.892 133.496 222.661L131.79 221.855C131.501 221.719 131.185 221.649 130.866 221.651C130.547 221.653 130.232 221.727 129.945 221.867C129.658 222.007 129.406 222.209 129.207 222.459C129.009 222.709 128.869 223.001 128.798 223.312L128.492 224.662C128.392 225.101 110.833 237.902 110.833 237.902C109.898 238.721 109.793 240.039 110.754 240.83C111.393 241.355 112.647 241.898 114.352 241.332L144.393 232.067Z" fill="#808080" stroke="black" stroke-width="0.5" stroke-miterlimit="10" stroke-linecap="round" stroke-linejoin="round"/>
<path d="M117.179 233.22C116.928 232.859 117.126 232.33 117.491 232.094C117.856 231.857 118.325 231.852 118.755 231.913C119.832 232.05 120.845 232.502 121.666 233.211C121.853 233.338 121.982 233.532 122.027 233.753C122.024 233.884 121.978 234.011 121.897 234.115C121.816 234.219 121.704 234.295 121.578 234.331C121.323 234.398 121.056 234.402 120.8 234.343C120.178 234.237 119.564 234.09 118.962 233.901C118.435 233.74 117.518 233.701 117.179 233.22Z" fill="white" stroke="black" stroke-width="0.5" stroke-miterlimit="10" stroke-linecap="round" stroke-linejoin="round"/>
<path d="M120.024 230.816C119.934 230.477 120.19 230.119 120.513 229.982C120.848 229.868 121.208 229.848 121.553 229.923C122.734 230.088 123.878 230.45 124.94 230.993C125.29 231.173 125.678 231.457 125.638 231.847C125.61 231.992 125.537 232.124 125.43 232.226C125.322 232.327 125.185 232.392 125.039 232.412C124.745 232.445 124.447 232.414 124.165 232.323C123.292 232.105 122.416 231.894 121.542 231.67C121.053 231.545 120.192 231.354 120.024 230.816Z" fill="white" stroke="black" stroke-width="0.5" stroke-miterlimit="10" stroke-linecap="round" stroke-linejoin="round"/>
<path d="M124.753 227.958C125.525 228.146 126.266 228.44 126.956 228.832C127.264 229.002 127.53 229.133 127.719 229.455C127.781 229.549 127.819 229.656 127.83 229.768C127.841 229.88 127.826 229.993 127.784 230.097C127.724 230.205 127.637 230.295 127.531 230.359C127.425 230.422 127.305 230.456 127.181 230.458C126.935 230.46 126.69 230.417 126.459 230.33C125.432 230.016 124.387 229.494 123.34 229.278C123.01 229.209 122.522 229.262 122.394 228.836C122.298 228.525 122.564 228.294 122.807 228.146C123.365 227.816 124.06 227.81 124.753 227.958Z" fill="white" stroke="black" stroke-width="0.5" stroke-miterlimit="10" stroke-linecap="round" stroke-linejoin="round"/>
<path d="M110.104 239.423C110.556 240.335 112.863 240.225 114.013 240.008C116.751 239.495 118.614 238.614 120.955 237.52C125.884 235.215 130.162 231.995 135.092 229.928C138.798 228.375 140.352 227.581 144.363 227.762L144.708 228.711C144.999 229.832 144.888 231.02 144.394 232.067C137.2 234.36 121.178 239.255 114.038 241.423C112.74 241.817 110.563 241.299 110.153 240.006L110.104 239.423Z" fill="black"/>
<path d="M122.228 169.131L139.877 215.913L127.315 220.946L102.513 172.29C99.6667 165.443 104.236 158.825 109.288 156.878C117.191 153.83 145.791 150.379 145.791 150.379" fill="#999999"/>
<path d="M122.228 169.131L139.877 215.913L127.315 220.946L102.513 172.29C99.6667 165.443 104.236 158.825 109.288 156.878C117.191 153.83 145.791 150.379 145.791 150.379" stroke="black" stroke-width="0.5" stroke-miterlimit="10" stroke-linecap="round" stroke-linejoin="round"/>
<path d="M124.114 107.533L118.458 128.937L129.41 129.697L135.187 110.121L124.114 107.533Z" fill="#E5E5E5" stroke="black" stroke-width="0.5" stroke-miterlimit="10" stroke-linecap="round" stroke-linejoin="round"/>
<path d="M121.408 110.601L125.62 97.0029C127.244 92.526 130.734 89.8417 136.057 88.2459C139.901 87.0924 147.132 85.9912 147.132 85.9912L161.633 86.6483C161.633 86.6483 171.28 91.7967 170.277 97.0029L168.884 132.673H132.66L132.299 114.993L121.408 110.601Z" fill="#666666" stroke="black" stroke-width="0.5" stroke-linecap="round" stroke-linejoin="round"/>
<path d="M219.512 75.8336C221.055 74.4817 222.932 73.5663 224.948 73.182C226.964 72.7977 229.045 72.9584 230.978 73.6476C235.672 74.2631 241.728 79.9947 237.975 89.4484C236.421 93.3657 236.574 96.8623 240.795 101.543C243.059 104.056 209.912 111.221 214.439 103.348C218.591 96.1276 215.753 93.7519 215.143 88.7137C214.268 81.4839 217.275 77.8121 219.512 75.8336Z" fill="black"/>
<path d="M198.729 141.594C198.738 141.562 198.718 141.517 198.679 141.461C198.691 141.627 198.708 141.678 198.729 141.594Z" fill="#E5E5E5" stroke="black" stroke-width="0.5" stroke-miterlimit="10" stroke-linecap="round" stroke-linejoin="round"/>
<path d="M176.771 162.208L207.958 149.202L181.418 168.947L176.771 162.208Z" fill="#4C4C4C" stroke="black" stroke-width="0.5" stroke-miterlimit="10" stroke-linecap="round" stroke-linejoin="round"/>
<path d="M113.949 232.751L112.796 216.449H124.475L123.233 233.035L113.949 232.751Z" fill="#E5E5E5" stroke="black" stroke-width="0.5" stroke-miterlimit="10" stroke-linecap="round" stroke-linejoin="round"/>
<path d="M122.084 172.178L151.016 169.44C160.025 168.328 163.276 161.053 163.276 150.707L160.969 133.995H135.368L135.583 150.937L112.931 155.63C111.516 155.92 110.194 156.552 109.079 157.472C104.62 161.169 104.415 165.127 105.01 171.626L122.084 172.178Z" fill="#999999" stroke="black" stroke-width="0.5" stroke-miterlimit="10" stroke-linecap="round" stroke-linejoin="round"/>
<path d="M104.974 170.976L110.508 226.285L126.354 225.805L124.652 167.927" fill="#999999"/>
<path d="M104.974 170.976L110.508 226.285L126.354 225.805L124.652 167.927" stroke="black" stroke-width="0.5" stroke-linecap="round" stroke-linejoin="round"/>
<path d="M138.834 77.9043C141.205 77.9043 143.126 75.9824 143.126 73.6116C143.126 71.2408 141.205 69.3188 138.834 69.3188C136.463 69.3188 134.541 71.2408 134.541 73.6116C134.541 75.9824 136.463 77.9043 138.834 77.9043Z" fill="#333333" stroke="black" stroke-width="0.5" stroke-linecap="round" stroke-linejoin="round"/>
<path d="M153.129 75.4944C153.129 75.4944 154.573 73.9744 154.428 72.5465C154.284 71.1186 152.804 70.3803 151.869 72.005C150.838 73.8082 149.899 75.662 149.054 77.5596C148.273 79.3449 146.042 81.1284 142.736 80.9551C142.336 80.9335 141.855 83.9535 141.855 83.9535L141.554 89.2879C141.554 89.2879 140.996 92.7809 146.509 93.568C148.578 93.864 150.071 93.3351 151.129 92.5589C151.864 92.0078 152.456 91.2875 152.854 90.4592C153.252 89.6309 153.445 88.7189 153.416 87.8004L153.129 75.4944Z" fill="#E5E5E5" stroke="black" stroke-width="0.5" stroke-miterlimit="10" stroke-linecap="round" stroke-linejoin="round"/>
<path d="M135.854 65.2243L138.034 80.9837C138.034 80.9837 138.608 84.1409 143.533 82.9369C148.457 81.7328 151.333 70.3475 151.333 70.3475L151.266 63.0293L135.854 65.2243Z" fill="#E5E5E5" stroke="black" stroke-width="0.5" stroke-miterlimit="10" stroke-linecap="round" stroke-linejoin="round"/>
<path d="M148.984 64.2515C148.984 64.2515 149.661 68.5424 149.204 71.3115C148.748 74.0807 148.683 75.8245 147.639 75.7794L145.126 75.6837C144.321 75.6502 143.519 75.7989 142.78 76.1187C141.946 76.4798 140.639 77.2524 139.22 77.2018C138.608 77.1828 138.005 77.041 137.449 76.7848C137.449 76.7848 135.14 83.6644 139.615 84.8811C144.09 86.0978 148.192 84.2312 149.836 81.7906C150.945 80.1461 151.501 75.653 151.587 73.2413C151.603 72.7847 151.737 72.34 151.977 71.951C152.216 71.562 152.553 71.2421 152.954 71.0227L153.891 66.9665L148.984 64.2515Z" fill="#4C4C4C" stroke="black" stroke-width="0.5" stroke-miterlimit="10" stroke-linecap="round" stroke-linejoin="round"/>
<path d="M141.013 77.5556L144.195 76.292C144.195 76.292 144.596 77.8445 143.594 78.3481C141.641 79.3211 141.013 77.5556 141.013 77.5556Z" fill="white"/>
<path d="M137.194 71.5352L138.727 70.3979" stroke="black" stroke-width="0.5" stroke-linecap="round" stroke-linejoin="round"/>
<path d="M142.983 70.0283L145.505 70.3442" stroke="black" stroke-width="0.5" stroke-linecap="round" stroke-linejoin="round"/>
<path d="M140.863 70.8315C140.863 70.8315 140.395 73.9257 140.72 74.5521C141.045 75.1785 142.466 74.8066 142.466 74.8066" fill="#E5E5E5"/>
<path d="M140.863 70.8315C140.863 70.8315 140.395 73.9257 140.72 74.5521C141.045 75.1785 142.466 74.8066 142.466 74.8066" stroke="black" stroke-width="0.5" stroke-linecap="round" stroke-linejoin="round"/>
<path d="M138.355 73.3335C138.74 73.3335 139.052 73.0216 139.052 72.6367C139.052 72.2519 138.74 71.9399 138.355 71.9399C137.97 71.9399 137.658 72.2519 137.658 72.6367C137.658 73.0216 137.97 73.3335 138.355 73.3335Z" fill="black"/>
<path d="M144.128 72.6851C144.513 72.6851 144.825 72.3731 144.825 71.9883C144.825 71.6035 144.513 71.2915 144.128 71.2915C143.744 71.2915 143.432 71.6035 143.432 71.9883C143.432 72.3731 143.744 72.6851 144.128 72.6851Z" fill="black"/>
<path d="M148.985 64.2515C148.985 64.2515 145.522 67.4484 139.289 66.4574C133.056 65.4663 132.803 63.0167 133.218 61.2891C133.633 59.5616 135.745 58.9424 135.745 58.9424C135.745 58.9424 134.967 55.592 138.558 55.3916C142.195 55.1894 143.432 57.2202 143.432 57.2202C143.432 57.2202 147.988 55.5053 151.467 57.8052C155.364 60.3793 153.902 66.9556 153.902 66.9556L148.985 64.2515Z" fill="#4C4C4C" stroke="black" stroke-width="0.5" stroke-miterlimit="10" stroke-linecap="round" stroke-linejoin="round"/>
<path d="M180.991 230.367L167.351 180.583C166.004 175.133 168.604 170.254 174.283 167.649L188.661 159.074L197.191 172.844L184.183 182.215L189.351 228.146L180.991 230.367Z" fill="#E5E5E5" stroke="black" stroke-width="0.5" stroke-miterlimit="10" stroke-linecap="round" stroke-linejoin="round"/>
<path d="M189.267 242.185L159.337 242.907C158.91 242.918 158.484 242.845 158.085 242.691C157.686 242.537 157.322 242.306 157.012 242.011C156.702 241.716 156.454 241.363 156.281 240.972C156.108 240.581 156.015 240.16 156.005 239.732C155.985 238.907 156.243 238.099 156.739 237.438C157.234 236.778 157.938 236.304 158.736 236.093L162.505 235.093C164.811 234.481 166.991 233.469 168.946 232.103L175.265 227.69L175.987 225.476C176.04 225.311 176.131 225.16 176.251 225.035C176.372 224.909 176.519 224.813 176.683 224.753C176.846 224.693 177.02 224.67 177.194 224.688C177.367 224.705 177.533 224.761 177.682 224.852C177.682 224.852 177.754 222.193 180.209 222.606C182.104 222.924 181.16 224.44 182.375 225.83C182.391 225.85 184.411 227.894 187.881 227.65C190.755 227.448 190.425 229.446 190.558 231.901L191.011 240.306C191.024 240.545 190.989 240.784 190.907 241.009C190.826 241.234 190.7 241.44 190.538 241.615C190.375 241.791 190.179 241.931 189.96 242.029C189.742 242.127 189.507 242.18 189.267 242.185Z" fill="#666666" stroke="black" stroke-width="0.5" stroke-linecap="round" stroke-linejoin="round"/>
<path d="M156.015 239.373C156.015 239.373 160.865 242.463 174.558 239.456C182.916 237.62 190.985 239.201 190.985 239.201" stroke="black" stroke-width="0.5" stroke-linecap="round" stroke-linejoin="round"/>
<path d="M179.374 224.608L178.801 224.36C178.545 224.249 178.247 224.367 178.136 224.623L176.561 228.261C176.45 228.517 176.568 228.815 176.824 228.926L177.397 229.174C177.653 229.285 177.951 229.167 178.062 228.911L179.637 225.273C179.748 225.017 179.63 224.719 179.374 224.608Z" stroke="black" stroke-width="0.5" stroke-linecap="round" stroke-linejoin="round"/>
<path d="M177.852 225.041L176.959 224.654C176.645 224.518 176.28 224.663 176.145 224.976L175.383 226.736C175.247 227.049 175.391 227.414 175.705 227.55L176.598 227.937C176.912 228.072 177.276 227.928 177.412 227.614L178.174 225.855C178.31 225.541 178.166 225.177 177.852 225.041Z" fill="#333333" stroke="black" stroke-width="0.5" stroke-linecap="round" stroke-linejoin="round"/>
<path d="M179.809 225.6L186.317 228.418C186.493 228.494 186.631 228.637 186.702 228.815C186.772 228.993 186.769 229.192 186.693 229.368C186.437 229.959 185.957 230.424 185.358 230.661C184.76 230.898 184.091 230.887 183.5 230.631L178.554 228.49C178.378 228.414 178.24 228.271 178.169 228.093C178.099 227.915 178.102 227.716 178.178 227.54L178.854 225.978C178.93 225.802 179.073 225.664 179.251 225.593C179.429 225.523 179.628 225.526 179.804 225.602L179.809 225.6Z" fill="#333333" stroke="black" stroke-width="0.5" stroke-linecap="round" stroke-linejoin="round"/>
<path d="M159.451 235.903C159.451 235.903 160.143 237.311 165.814 237.376C168.659 237.409 169.371 236.582 169.41 235.493C169.45 234.405 167.923 232.773 167.923 232.773L169.728 231.556C169.728 231.556 171.033 233.666 171.894 234.596C175.29 238.224 177.73 238.907 177.73 238.907" stroke="black" stroke-width="0.5" stroke-linecap="round" stroke-linejoin="round"/>
<path d="M184.641 238.535C184.641 238.535 184.002 236.766 185.632 235.733C187.262 234.701 189.101 235.087 188.76 233.672C188.332 231.903 183.46 231.345 181.758 230.699C179.353 229.785 178.754 228.576 178.754 228.576" stroke="black" stroke-width="0.5" stroke-linecap="round" stroke-linejoin="round"/>
<path d="M176.771 165.723L187.435 181.004L210.662 169.442H218.605C224.349 169.442 228.683 162.277 227.992 156.574C227.028 148.631 227.579 140.207 227.579 140.207L207.633 132.916L202.92 150.801L176.771 165.723Z" fill="#4C4C4C" stroke="black" stroke-width="0.5" stroke-miterlimit="10" stroke-linecap="round" stroke-linejoin="round"/>
<path d="M231.73 139.836L241.625 141.026L242.562 132.917L232.332 131.482L231.73 139.836Z" fill="#E5E5E5" stroke="black" stroke-width="0.5" stroke-miterlimit="10" stroke-linecap="round" stroke-linejoin="round"/>
<path d="M231.503 133.704L242.038 134.89C242.038 134.89 243.641 135.129 243.63 134.639V118.616C243.757 116.992 243.63 111.757 241.224 108.146C238.984 104.796 235.922 103.453 226.828 100.455C225.027 99.8908 223.12 99.7548 221.257 100.057C220.02 100.01 217.986 100.057 212.935 101.075C207.619 102.139 205.185 105.123 202.219 111.432C200.71 114.64 198.97 121.216 198.273 123.554C198.251 123.627 198.244 123.704 198.253 123.78C198.262 123.856 198.288 123.929 198.328 123.995C198.367 124.06 198.421 124.117 198.484 124.16C198.547 124.204 198.619 124.233 198.694 124.247L206.176 125.713L206.898 125.756L203.961 145.375C203.961 145.375 213.314 146.857 216.356 147.608C221.793 148.954 224.92 149.326 229.162 150.706C229.343 150.765 229.536 150.781 229.725 150.753C229.914 150.726 230.094 150.655 230.251 150.547C230.409 150.438 230.539 150.295 230.631 150.128C230.724 149.961 230.777 149.775 230.787 149.585L231.503 133.704Z" fill="#333333" stroke="black" stroke-width="0.5" stroke-linecap="round" stroke-linejoin="round"/>
<path d="M231.959 121.49L231.504 133.704" stroke="black" stroke-width="0.5" stroke-linecap="round" stroke-linejoin="round"/>
<path d="M208.089 115.295L206.897 125.763" stroke="black" stroke-width="0.5" stroke-linecap="round" stroke-linejoin="round"/>
<path d="M221.678 89.3253C224.32 89.3253 226.462 87.1835 226.462 84.5416C226.462 81.8996 224.32 79.7578 221.678 79.7578C219.036 79.7578 216.895 81.8996 216.895 84.5416C216.895 87.1835 219.036 89.3253 221.678 89.3253Z" fill="#333333" stroke="black" stroke-width="0.5" stroke-linecap="round" stroke-linejoin="round"/>
<path d="M229.74 91.4053L228.35 101.514C228.255 102.204 228.015 102.867 227.646 103.457C227.277 104.048 226.787 104.554 226.208 104.942C225.629 105.33 224.975 105.59 224.288 105.707C223.602 105.824 222.898 105.794 222.224 105.619C221.044 105.313 220.019 104.582 219.346 103.566C218.673 102.55 218.4 101.321 218.579 100.115L220.213 89.1235L229.74 91.4053Z" fill="#E5E5E5" stroke="black" stroke-width="0.5" stroke-miterlimit="10" stroke-linecap="round" stroke-linejoin="round"/>
<path d="M231.659 85.1248C230.997 82.9838 228.756 81.3339 228.756 81.3339L226.72 76.505C226.036 76.2306 223.099 76.3083 221.904 78.4636C220.248 81.4512 218.142 85.3342 217.557 86.8018C216.55 89.32 217.041 93.3005 220.752 94.537C224.464 95.7736 227.011 95.6941 229.285 94.4684C231.271 93.3997 231.901 92.1127 232.392 91.1379C232.392 91.1342 232.459 87.708 231.659 85.1248Z" fill="#E5E5E5" stroke="black" stroke-width="0.5" stroke-miterlimit="10" stroke-linecap="round" stroke-linejoin="round"/>
<path d="M228.481 86.011L226.62 83.9351" stroke="black" stroke-width="0.5" stroke-linecap="round" stroke-linejoin="round"/>
<path d="M224.11 81.7688L222.147 80.9438" stroke="black" stroke-width="0.5" stroke-linecap="round" stroke-linejoin="round"/>
<path d="M223.819 84.4731C223.819 84.4731 222.06 85.6916 221.822 86.5436C221.584 87.3957 222.833 87.7621 222.833 87.7621" stroke="black" stroke-width="0.5" stroke-linecap="round" stroke-linejoin="round"/>
<path d="M226.138 87.1433C226.524 87.1433 226.837 86.8305 226.837 86.4447C226.837 86.0589 226.524 85.7461 226.138 85.7461C225.752 85.7461 225.439 86.0589 225.439 86.4447C225.439 86.8305 225.752 87.1433 226.138 87.1433Z" fill="black"/>
<path d="M222.151 83.9895C222.537 83.9895 222.849 83.6767 222.849 83.2909C222.849 82.9051 222.537 82.5923 222.151 82.5923C221.765 82.5923 221.452 82.9051 221.452 83.2909C221.452 83.6767 221.765 83.9895 222.151 83.9895Z" fill="black"/>
<path d="M222.069 90.934C222.434 91.1851 222.875 91.3018 223.317 91.2643C224.006 91.1794 224.676 90.5151 224.676 90.5151" stroke="black" stroke-width="0.5" stroke-linecap="round" stroke-linejoin="round"/>
<path d="M208.089 149.893H60.8916V155.115H208.089V149.893Z" fill="white" stroke="black" stroke-width="0.5" stroke-miterlimit="10" stroke-linecap="round" stroke-linejoin="round"/>
<path d="M60.8906 149.893H207.999L201.315 125.973H67.577L60.8906 149.893Z" fill="white" stroke="black" stroke-width="0.5" stroke-miterlimit="10" stroke-linecap="round" stroke-linejoin="round"/>
<path d="M187.807 125.642C188.193 124.606 190.581 124.043 192.395 124.068C194.21 124.093 195.336 124.547 196.04 125.061C197.203 125.909 200.037 129.265 199.01 130.078C198.118 130.782 197.28 129.67 197.28 129.67C197.319 129.83 197.301 129.999 197.231 130.148C197.16 130.297 197.041 130.418 196.892 130.489C196.188 130.807 195.087 129.87 195.087 129.87C195.087 129.87 195.049 130.607 194.392 130.753C193.437 130.968 192.478 129.585 192.478 129.585C192.405 129.716 192.297 129.825 192.167 129.901C192.037 129.976 191.889 130.015 191.738 130.014C190.453 129.931 187.337 126.904 187.807 125.642Z" fill="#E5E5E5" stroke="black" stroke-width="0.5" stroke-linecap="round" stroke-linejoin="round"/>
<path d="M193.824 125.352C193.824 125.352 195.194 126.541 195.96 127.592C196.458 128.286 196.913 129.009 197.323 129.758" fill="#E5E5E5"/>
<path d="M193.824 125.352C193.824 125.352 195.194 126.541 195.96 127.592C196.458 128.286 196.913 129.009 197.323 129.758" stroke="black" stroke-width="0.5" stroke-linecap="round" stroke-linejoin="round"/>
<path d="M191.71 125.667C192.442 126.356 193.128 127.092 193.764 127.87C194.248 128.509 194.691 129.177 195.093 129.87" fill="#E5E5E5"/>
<path d="M191.71 125.667C192.442 126.356 193.128 127.092 193.764 127.87C194.248 128.509 194.691 129.177 195.093 129.87" stroke="black" stroke-width="0.5" stroke-linecap="round" stroke-linejoin="round"/>
<path d="M189.325 125.709C189.325 125.709 190.399 126.897 191.02 127.659C191.753 128.561 192.484 129.585 192.484 129.585" fill="#E5E5E5"/>
<path d="M189.325 125.709C189.325 125.709 190.399 126.897 191.02 127.659C191.753 128.561 192.484 129.585 192.484 129.585" stroke="black" stroke-width="0.5" stroke-linecap="round" stroke-linejoin="round"/>
<path d="M60.8766 136.181C60.2935 135.241 61.3116 133.009 62.4471 131.59C63.5825 130.172 64.6259 129.561 65.4635 129.32C66.8481 128.922 71.2402 128.742 71.2492 130.042C71.2492 131.179 69.8664 131.161 69.8664 131.161C70.0165 131.229 70.1388 131.346 70.213 131.493C70.2872 131.64 70.3089 131.808 70.2744 131.97C70.0939 132.719 68.684 133.011 68.684 133.011C68.684 133.011 69.24 133.493 68.953 134.094C68.5378 134.979 66.8572 134.889 66.8572 134.889C66.9155 135.028 66.9357 135.18 66.9157 135.329C66.8957 135.479 66.8363 135.62 66.7435 135.739C65.886 136.719 61.5842 137.326 60.8766 136.181Z" fill="#E5E5E5" stroke="black" stroke-width="0.5" stroke-linecap="round" stroke-linejoin="round"/>
<path d="M64.335 131.249C64.335 131.249 66.1149 130.888 67.4129 130.937C68.2674 130.97 69.1192 131.054 69.9636 131.19" fill="#E5E5E5"/>
<path d="M64.335 131.249C64.335 131.249 66.1149 130.888 67.4129 130.937C68.2674 130.97 69.1192 131.054 69.9636 131.19" stroke="black" stroke-width="0.5" stroke-linecap="round" stroke-linejoin="round"/>
<path d="M63.2881 133.112C64.2812 132.957 65.2834 132.866 66.2883 132.841C67.0898 132.853 67.8898 132.913 68.6838 133.022" fill="#E5E5E5"/>
<path d="M63.2881 133.112C64.2812 132.957 65.2834 132.866 66.2883 132.841C67.0898 132.853 67.8898 132.913 68.6838 133.022" stroke="black" stroke-width="0.5" stroke-linecap="round" stroke-linejoin="round"/>
<path d="M61.8584 135.022C61.8584 135.022 63.456 134.903 64.4398 134.879C65.5951 134.85 66.8569 134.903 66.8569 134.903" fill="#E5E5E5"/>
<path d="M61.8584 135.022C61.8584 135.022 63.456 134.903 64.4398 134.879C65.5951 134.85 66.8569 134.903 66.8569 134.903" stroke="black" stroke-width="0.5" stroke-linecap="round" stroke-linejoin="round"/>
<path d="M44.1966 77.4382C47.3401 77.4382 49.8884 74.8899 49.8884 71.7464C49.8884 68.603 47.3401 66.0547 44.1966 66.0547C41.0532 66.0547 38.5049 68.603 38.5049 71.7464C38.5049 74.8899 41.0532 77.4382 44.1966 77.4382Z" fill="#999999" stroke="black" stroke-width="0.5" stroke-linecap="round" stroke-linejoin="round"/>
<path d="M63.6562 77.7234C62.6435 77.7956 62.093 77.3624 61.4702 76.4436C57.4825 70.5677 43.0013 70.6092 39.3837 81.7941C37.1958 88.5635 39.4613 91.3833 30.7314 96.7664C24.5667 100.566 41.9434 107.617 45.4437 97.7231C49.6263 85.8991 63.3657 94.4088 67.393 87.1086C71.4637 79.7308 66.3351 77.5267 63.6562 77.7234Z" fill="#999999" stroke="black" stroke-width="0.5" stroke-linecap="round" stroke-linejoin="round"/>
<path d="M49.7029 87.6611L41.5 99.5898C40.3628 101.765 42.8088 104.794 45.4299 105.708L45.8741 104.525C48.1143 105.305 50.5314 104.478 51.4809 102.608L55.6545 94.3765L49.7029 87.6611Z" fill="#E5E5E5" stroke="black" stroke-width="0.5" stroke-miterlimit="10" stroke-linecap="round" stroke-linejoin="round"/>
<path d="M52.1034 86.179C52.1034 86.179 56.1543 87.9409 58.8603 83.1282C61.1709 79.0214 63.5808 80.8573 63.5808 80.8573C63.5808 80.8573 63.1909 86.031 63.0699 89.1034C62.949 92.2246 62.9761 94.519 62.4038 95.9902C61.2684 98.9056 59.8315 101.586 55.7084 99.7649C51.8832 98.068 50.3524 94.3926 50.4047 91.2318C47.6969 90.1992 48.3053 85.753 49.4552 85.2367C51.1683 84.4677 52.1034 86.179 52.1034 86.179Z" fill="#E5E5E5" stroke="black" stroke-width="0.5" stroke-miterlimit="10" stroke-linecap="round" stroke-linejoin="round"/>
<path d="M62.6526 88.856C62.6526 88.856 64.3729 92.2858 64.0967 93.4213C63.8205 94.5567 62.167 94.1759 62.167 94.1759" fill="#E5E5E5"/>
<path d="M62.6526 88.856C62.6526 88.856 64.3729 92.2858 64.0967 93.4213C63.8205 94.5567 62.167 94.1759 62.167 94.1759" stroke="black" stroke-width="0.5" stroke-linecap="round" stroke-linejoin="round"/>
<path d="M60.2991 90.2608C60.7448 90.2608 61.106 89.8995 61.106 89.4539C61.106 89.0082 60.7448 88.647 60.2991 88.647C59.8535 88.647 59.4922 89.0082 59.4922 89.4539C59.4922 89.8995 59.8535 90.2608 60.2991 90.2608Z" fill="black"/>
<path d="M57.384 92.9971L60.5846 95.8745C60.5846 95.8745 59.2271 97.1562 57.7739 96.0027C56.3208 94.8492 57.384 92.9971 57.384 92.9971Z" fill="white" stroke="black" stroke-width="0.5" stroke-linecap="round" stroke-linejoin="round"/>
<path d="M61.1111 86.354L58.5459 87.4786" stroke="black" stroke-width="0.5" stroke-linecap="round" stroke-linejoin="round"/>
<path d="M234.952 93.039C229.576 91.3692 234.545 86.1162 229.527 82.3108C224.814 78.7347 225.805 74.8554 227.092 73.9131" fill="black"/>
<path d="M132.297 114.974L132.302 103.2" stroke="black" stroke-width="0.5" stroke-linecap="round" stroke-linejoin="round"/>
<path d="M131.757 123.844L124.398 120.005C123.418 119.493 122.321 119.245 121.217 119.286C120.112 119.327 119.037 119.655 118.098 120.238L112.191 123.904C112.092 123.965 112.007 124.046 111.942 124.142C111.876 124.237 111.83 124.345 111.808 124.459C111.786 124.573 111.788 124.69 111.813 124.804C111.839 124.917 111.888 125.024 111.956 125.117C112.073 125.275 112.241 125.388 112.431 125.435C112.622 125.482 112.823 125.462 113 125.377L113.059 125.346L112.956 125.462C112.841 125.589 112.771 125.752 112.758 125.924C112.745 126.095 112.79 126.266 112.886 126.41L112.978 126.55C113.036 126.637 113.11 126.711 113.197 126.768C113.284 126.825 113.381 126.864 113.483 126.883C113.586 126.902 113.691 126.9 113.792 126.877C113.893 126.854 113.989 126.811 114.074 126.751L113.965 126.917C113.856 127.084 113.804 127.282 113.818 127.481C113.832 127.68 113.91 127.869 114.041 128.02L114.083 128.067C114.218 128.221 114.401 128.325 114.603 128.363C114.804 128.401 115.013 128.371 115.195 128.276L115.164 128.312C115.031 128.464 114.958 128.659 114.958 128.861C114.958 129.063 115.031 129.258 115.164 129.41C115.287 129.55 115.453 129.645 115.636 129.68C115.82 129.715 116.009 129.688 116.175 129.603L122.621 126.294L125.883 128.632C126.551 129.108 129.286 129.374 130.035 129.033L160.287 129.45C161.814 129.471 163.305 128.987 164.528 128.073C165.751 127.159 166.637 125.866 167.049 124.395L170.961 110.342L159.44 108.563L156.913 118.254C156.831 118.525 156.677 118.768 156.466 118.957C156.256 119.146 155.998 119.274 155.719 119.326L131.757 123.844Z" fill="#E5E5E5" stroke="black" stroke-width="0.5" stroke-miterlimit="10" stroke-linecap="round" stroke-linejoin="round"/>
<path d="M112.958 125.413L118.099 122.03" stroke="black" stroke-width="0.5" stroke-linecap="round" stroke-linejoin="round"/>
<path d="M113.971 126.834L119.191 123.354" stroke="black" stroke-width="0.5" stroke-linecap="round" stroke-linejoin="round"/>
<path d="M115.113 128.328L120.388 124.852" stroke="black" stroke-width="0.5" stroke-linecap="round" stroke-linejoin="round"/>
<path d="M115.301 134.645H140.449V131.966H115.301V134.645Z" fill="#CCCCCC" stroke="black" stroke-width="0.5" stroke-linecap="round" stroke-linejoin="round"/>
<path d="M80.6709 115.06H110.148L122.104 134.643H92.6267L80.6709 115.06Z" fill="#B3B3B3" stroke="black" stroke-width="0.5" stroke-linecap="round" stroke-linejoin="round"/>
<path d="M120.453 134.643H122.103L110.147 115.06H108.497L120.453 134.643Z" fill="#CCCCCC" stroke="black" stroke-width="0.5" stroke-linecap="round" stroke-linejoin="round"/>
<path d="M161.419 86.6484C161.419 86.6484 168.679 87.125 171.206 90.6957C174.768 95.7285 173.412 102.088 173.412 102.088L171.206 115.375L157.974 111.312L160.28 99.3497" fill="#666666"/>
<path d="M161.419 86.6484C161.419 86.6484 168.679 87.125 171.206 90.6957C174.768 95.7285 173.412 102.088 173.412 102.088L171.206 115.375L157.974 111.312L160.28 99.3497" stroke="black" stroke-width="0.5" stroke-linecap="round" stroke-linejoin="round"/>
<path d="M155.54 72.7447C155.587 69.9357 153.786 67.6276 151.517 67.5896C149.248 67.5516 147.371 69.798 147.324 72.6071C147.276 75.4162 149.078 77.7242 151.346 77.7622C153.615 77.8002 155.493 75.5538 155.54 72.7447Z" fill="#333333" stroke="black" stroke-width="0.5" stroke-linecap="round" stroke-linejoin="round"/>
<path d="M155.206 72.8031C155.24 70.7785 153.941 69.115 152.305 69.0876C150.67 69.0602 149.316 70.6792 149.282 72.7038C149.248 74.7284 150.547 76.3919 152.183 76.4193C153.818 76.4467 155.172 74.8276 155.206 72.8031Z" fill="#666666" stroke="black" stroke-width="0.5" stroke-linecap="round" stroke-linejoin="round"/>
<path d="M146.102 82.0939C145.511 82.2614 144.895 82.3225 144.282 82.2744L144.304 81.9855C146.248 82.139 148.109 81.1299 149.411 79.22C151.035 76.8444 152.617 72.882 152.633 72.8423L152.902 72.9488C152.886 72.9885 151.288 76.9816 149.653 79.3843C148.7 80.7761 147.463 81.7112 146.102 82.0939Z" fill="black"/>
<path d="M143.814 81.1848L142.243 81.0405C141.8 80.9998 141.408 81.3257 141.368 81.7685L141.362 81.8351C141.321 82.2778 141.647 82.6698 142.09 82.7105L143.661 82.8548C144.104 82.8955 144.496 82.5695 144.536 82.1268L144.542 82.0602C144.583 81.6174 144.257 81.2255 143.814 81.1848Z" fill="#666666" stroke="black" stroke-width="0.5" stroke-linecap="round" stroke-linejoin="round"/>
<path d="M151.875 71.6093C152.071 69.4558 152.34 67.165 150.642 63.0455C148.456 57.7401 143.432 57.2274 143.432 57.2274L144.554 56.9224C144.554 56.9224 149.809 57.2274 152.366 62.8235C153.848 66.0728 154.337 69.8872 154.068 72.2718C154.005 72.8242 153.582 74.2233 152.654 73.9922C151.726 73.7612 151.819 72.2339 151.875 71.6093Z" fill="#B3B3B3" stroke="black" stroke-width="0.5" stroke-linecap="round" stroke-linejoin="round"/>
<path d="M236.685 91.8668C237.817 89.2955 237.051 86.4698 234.974 85.5556C232.897 84.6414 230.296 85.9847 229.164 88.5561C228.032 91.1274 228.798 93.953 230.875 94.8673C232.951 95.7815 235.553 94.4382 236.685 91.8668Z" fill="#333333" stroke="black" stroke-width="0.5" stroke-linecap="round" stroke-linejoin="round"/>
<path d="M236.352 91.7903C237.168 89.9371 236.615 87.9004 235.118 87.2412C233.62 86.582 231.745 87.55 230.929 89.4032C230.113 91.2565 230.666 93.2932 232.163 93.9523C233.661 94.6115 235.536 93.6435 236.352 91.7903Z" fill="#666666" stroke="black" stroke-width="0.5" stroke-linecap="round" stroke-linejoin="round"/>
<path d="M225.772 97.4163C225.157 97.4243 224.546 97.3223 223.967 97.1148L224.064 96.8404C225.9 97.4957 227.96 97.0101 229.716 95.5064C231.901 93.6362 234.468 90.2262 234.493 90.1919L234.724 90.3724C234.699 90.4067 232.114 93.842 229.904 95.7339C228.624 96.8242 227.184 97.4 225.772 97.4163Z" fill="black"/>
<path d="M223.806 95.9468L222.327 95.3968C221.91 95.2419 221.447 95.4541 221.292 95.8708L221.268 95.9334C221.113 96.3502 221.326 96.8137 221.742 96.9687L223.221 97.5187C223.638 97.6737 224.101 97.4615 224.256 97.0447L224.28 96.9821C224.435 96.5653 224.222 96.1018 223.806 95.9468Z" fill="#666666" stroke="black" stroke-width="0.5" stroke-linecap="round" stroke-linejoin="round"/>
<path d="M233.84 89.3437C234.854 87.4338 235.573 86.3236 235.603 81.8684C235.643 76.1279 229.285 73.1909 229.285 73.1909L230.98 73.6476C230.98 73.6476 237.022 76.2995 237.21 82.4497C237.32 86.0132 236.778 88.7083 235.605 90.8023C235.334 91.2879 234.403 92.4143 233.636 91.8421C232.868 91.2698 233.545 89.8961 233.84 89.3437Z" fill="#B3B3B3" stroke="black" stroke-width="0.5" stroke-linecap="round" stroke-linejoin="round"/>
<path d="M124.374 242.079C124.756 241.371 124.959 240.581 124.966 239.777L124.499 232.076C124.318 231.143 123.609 231.224 122.591 231.233L117.478 231.43C116.94 231.435 116.419 231.235 116.021 230.872L114.63 229.599C114.394 229.384 114.112 229.225 113.807 229.132C113.501 229.04 113.178 229.018 112.863 229.067C112.547 229.116 112.247 229.235 111.983 229.416C111.72 229.596 111.5 229.833 111.341 230.11L110.651 231.311C110.427 231.701 89.8751 238.761 89.8751 238.761C88.7397 239.268 88.2505 240.495 88.9383 241.533C89.3932 242.223 90.4311 243.113 92.2273 243.073H122.702C123.045 243.074 123.381 242.982 123.676 242.807C123.97 242.632 124.212 242.38 124.374 242.079Z" fill="#808080" stroke="black" stroke-width="0.5" stroke-miterlimit="10" stroke-linecap="round" stroke-linejoin="round"/>
<path d="M97.3325 236.165C97.1971 235.752 97.5437 235.298 97.9625 235.181C98.3813 235.064 98.8308 235.194 99.2261 235.372C100.216 235.819 101.051 236.549 101.627 237.47C101.766 237.646 101.831 237.87 101.808 238.093C101.765 238.218 101.684 238.326 101.577 238.401C101.469 238.477 101.34 238.516 101.208 238.513C100.945 238.502 100.689 238.427 100.461 238.297C99.8988 238.011 99.3561 237.688 98.8362 237.331C98.3795 237.031 97.5148 236.723 97.3325 236.165Z" fill="white" stroke="black" stroke-width="0.5" stroke-miterlimit="10" stroke-linecap="round" stroke-linejoin="round"/>
<path d="M100.757 234.704C100.771 234.352 101.118 234.087 101.47 234.051C101.824 234.041 102.174 234.127 102.483 234.3C103.562 234.807 104.549 235.489 105.403 236.32C105.685 236.595 105.972 236.983 105.819 237.344C105.749 237.474 105.64 237.579 105.507 237.644C105.374 237.709 105.224 237.73 105.078 237.705C104.788 237.649 104.513 237.533 104.272 237.364C103.501 236.898 102.724 236.436 101.957 235.964C101.528 235.705 100.762 235.268 100.757 234.704Z" fill="white" stroke="black" stroke-width="0.5" stroke-miterlimit="10" stroke-linecap="round" stroke-linejoin="round"/>
<path d="M106.124 233.367C106.806 233.773 107.428 234.272 107.972 234.85C108.216 235.103 108.431 235.307 108.514 235.67C108.545 235.778 108.55 235.893 108.528 236.003C108.506 236.114 108.458 236.217 108.388 236.305C108.298 236.39 108.188 236.45 108.069 236.479C107.949 236.508 107.824 236.506 107.705 236.472C107.47 236.401 107.249 236.288 107.054 236.138C106.165 235.533 105.319 234.728 104.384 234.211C104.088 234.049 103.608 233.955 103.609 233.511C103.609 233.186 103.932 233.042 104.209 232.969C104.837 232.821 105.501 233.02 106.124 233.367Z" fill="white" stroke="black" stroke-width="0.5" stroke-miterlimit="10" stroke-linecap="round" stroke-linejoin="round"/>
<path d="M88.7431 240.01C88.9074 241.013 91.144 241.588 92.3065 241.719C95.0739 242.035 97.1138 241.743 99.6735 241.387C105.064 240.636 110.091 238.818 115.42 238.297C119.419 237.905 121.137 237.603 124.915 238.965L124.966 239.975C124.936 240.667 124.758 241.344 124.444 241.961C124.269 242.301 124.004 242.586 123.678 242.785C123.352 242.984 122.978 243.089 122.596 243.089C114.629 243.149 99.0309 243.107 91.9076 243.077C90.5519 243.077 88.6222 241.936 88.6113 240.58L88.7431 240.01Z" fill="black"/>
<path d="M25.2694 149.155C25.2694 149.155 36.9454 102.298 39.8914 101.868C40.4438 100.976 42.1136 97.6817 42.2255 98.1456C42.6858 100.081 44.8033 101.092 47.253 101.857C50.7893 102.96 51.8923 101.835 51.8923 101.835L56.2663 107.07L53.3582 122.378C52.6403 127.355 52.5796 132.405 53.1776 137.398L52.9772 149.891C52.9772 149.891 48.1772 149.76 44.529 150.195C32.9758 151.577 31.7212 153.883 27.5602 152.763C26.3453 152.435 24.7911 150.381 25.2694 149.155Z" fill="#808080" stroke="black" stroke-width="0.5" stroke-miterlimit="10" stroke-linecap="round" stroke-linejoin="round"/>
<path d="M77.8834 138.147L91.6931 139.324L100.008 137.683C100.393 137.607 100.789 137.611 101.173 137.695C101.556 137.778 101.918 137.939 102.237 138.168L106.559 141.282C106.596 141.309 106.625 141.345 106.645 141.386C106.664 141.427 106.673 141.473 106.67 141.519C106.667 141.564 106.653 141.608 106.628 141.647C106.604 141.685 106.57 141.717 106.53 141.739C106.353 141.835 106.154 141.887 105.953 141.889C105.751 141.89 105.552 141.843 105.373 141.75L105.947 142.62L106.34 142.869C106.394 142.903 106.439 142.948 106.475 143.001C106.51 143.054 106.534 143.114 106.545 143.176C106.556 143.239 106.554 143.303 106.54 143.365C106.525 143.426 106.498 143.484 106.46 143.535C106.061 144.037 105.299 143.687 104.687 143.499L100.418 142.197L97.5293 142.82L94.1265 144.625C93.6265 144.891 93.0746 145.045 92.5091 145.077C91.9436 145.108 91.3781 145.015 90.8519 144.806L89.8428 144.402H77.748L77.8834 138.147Z" fill="#E5E5E5" stroke="black" stroke-width="0.5" stroke-linecap="round" stroke-linejoin="round"/>
<path d="M105.943 142.62C105.943 142.62 102.529 140.927 100.446 140.589C99.4099 140.421 96.415 141.351 96.415 141.351" stroke="black" stroke-width="0.5" stroke-linecap="round" stroke-linejoin="round"/>
<path d="M103.34 141.472C103.34 141.472 101.534 140.052 100.648 139.658C99.7618 139.264 96.915 139.784 96.915 139.784" stroke="black" stroke-width="0.5" stroke-linecap="round" stroke-linejoin="round"/>
<path d="M105.371 141.766C105.371 141.766 102.21 138.983 101.362 138.558C100.288 138.017 97.0654 138.652 97.0654 138.652" stroke="black" stroke-width="0.5" stroke-linecap="round" stroke-linejoin="round"/>
<path d="M86.7126 135.791L62.7037 133.854L57.6618 110.009C57.2743 108.224 56.218 106.654 54.7096 105.623C53.2013 104.592 51.3553 104.178 49.551 104.466C45.3576 105.124 40.267 108.126 42.1823 115.876C42.1823 115.876 47.5978 131.616 49.2225 136.878C51.4375 144.01 54.5875 145.84 58.7738 146.445L86.635 145.348L86.7126 135.791Z" fill="#808080" stroke="black" stroke-width="0.5" stroke-miterlimit="10" stroke-linecap="round" stroke-linejoin="round"/>
<path d="M110.922 145.275H85.7734V147.954H110.922V145.275Z" fill="#CCCCCC" stroke="black" stroke-width="0.5" stroke-linecap="round" stroke-linejoin="round"/>
<path d="M145.555 128.372H116.078L104.12 147.954H133.599L145.555 128.372Z" fill="#B3B3B3" stroke="black" stroke-width="0.5" stroke-linecap="round" stroke-linejoin="round"/>
<path d="M105.77 147.954H104.12L116.078 128.372H117.726L105.77 147.954Z" fill="#CCCCCC" stroke="black" stroke-width="0.5" stroke-linecap="round" stroke-linejoin="round"/>
<path d="M49.6218 86.9155C49.6218 86.9155 50.4468 98.0625 46.8527 100.933C38.6698 107.473 30.8623 100.779 30.8623 100.779" fill="#999999"/>
<path d="M49.6218 86.9155C49.6218 86.9155 50.4468 98.0625 46.8527 100.933C38.6698 107.473 30.8623 100.779 30.8623 100.779" stroke="black" stroke-width="0.5" stroke-linecap="round" stroke-linejoin="round"/>
<path d="M53.5094 89.2089C53.7792 86.4124 52.1669 83.9687 49.9083 83.7508C47.6497 83.5329 45.6 85.6234 45.3303 88.4199C45.0605 91.2164 46.6727 93.66 48.9314 93.8779C51.19 94.0958 53.2396 92.0054 53.5094 89.2089Z" fill="#333333" stroke="black" stroke-width="0.5" stroke-linecap="round" stroke-linejoin="round"/>
<path d="M51.5539 89.0826C51.7484 87.0671 50.5859 85.3059 48.9574 85.1488C47.3289 84.9917 45.8511 86.4983 45.6567 88.5138C45.4623 90.5293 46.6249 92.2904 48.2533 92.4475C49.8818 92.6046 51.3595 91.0981 51.5539 89.0826Z" fill="#666666" stroke="black" stroke-width="0.5" stroke-linecap="round" stroke-linejoin="round"/>
<path d="M50.5784 99.808C51.0575 100.192 51.6008 100.489 52.1833 100.684L52.2754 100.409C50.4269 99.79 49.1072 98.1346 48.6559 95.8673C48.0945 93.0476 48.183 88.7801 48.1848 88.7368H47.8942C47.8942 88.7801 47.8021 93.0783 48.3707 95.9305C48.701 97.5804 49.4773 98.9235 50.5784 99.808Z" fill="black"/>
<path d="M52.5373 101.513L54.0398 101.994C54.4633 102.13 54.9166 101.896 55.0522 101.473L55.0726 101.409C55.2082 100.986 54.9748 100.533 54.5514 100.397L53.0489 99.9158C52.6254 99.7802 52.1722 100.013 52.0365 100.437L52.0162 100.501C51.8805 100.924 52.1139 101.377 52.5373 101.513Z" fill="#666666" stroke="black" stroke-width="0.5" stroke-linecap="round" stroke-linejoin="round"/>
<path d="M49.0576 87.6704C49.1063 85.5042 49.0954 83.2025 51.2472 79.2997C54.0182 74.2741 59.0691 74.3318 59.0691 74.3318L57.986 73.9022C57.986 73.9022 52.7312 73.6134 49.5594 78.8863C47.7218 81.9407 46.8047 85.6811 46.8047 88.0802C46.8047 88.638 47.0665 90.0749 48.0142 89.9503C48.9619 89.8258 49.0431 88.2968 49.0576 87.6704Z" fill="#B3B3B3" stroke="black" stroke-width="0.5" stroke-linecap="round" stroke-linejoin="round"/>
<path d="M184.516 144.929H206.238V142.614H184.516V144.929Z" fill="#CCCCCC" stroke="black" stroke-width="0.5" stroke-linecap="round" stroke-linejoin="round"/>
<path d="M154.603 128.014H180.063L190.39 144.929H164.93L154.603 128.014Z" fill="#B3B3B3" stroke="black" stroke-width="0.5" stroke-linecap="round" stroke-linejoin="round"/>
<path d="M188.966 144.929H190.391L180.063 128.014H178.641L188.966 144.929Z" fill="#CCCCCC" stroke="black" stroke-width="0.5" stroke-linecap="round" stroke-linejoin="round"/>
<path d="M232.841 139.141L212.607 135.654L204.509 134.029C204.25 133.977 203.983 133.977 203.724 134.03C203.465 134.083 203.219 134.188 203.001 134.338L200.371 136.143C200.125 136.311 199.921 136.536 199.778 136.798C199.634 137.06 199.554 137.352 199.544 137.65L199.506 140.177C199.506 140.407 199.378 141.78 199.739 141.876C200.064 141.965 200.395 141.539 200.499 141.371C200.759 140.944 200.864 140.44 200.797 139.945L200.705 139.15L201.295 140.775C201.39 141.032 201.577 141.243 201.821 141.367L202.886 141.909C202.886 141.909 203.444 142.651 204.052 142.513C204.66 142.376 206.157 141.308 205.729 140.798C205.379 140.381 204.496 140.687 204.496 140.687L206.059 139.306L209.247 140.75C209.903 141.044 210.648 141.069 211.321 140.82L211.988 140.575L231.984 148.395C233.513 149.003 235.191 149.133 236.796 148.767C238.677 148.321 241.118 146.898 241.654 140.789" fill="#E5E5E5"/>
<path d="M232.841 139.141L212.607 135.654L204.509 134.029C204.25 133.977 203.983 133.977 203.724 134.03C203.465 134.083 203.219 134.188 203.001 134.338L200.371 136.143C200.125 136.311 199.921 136.536 199.778 136.798C199.634 137.06 199.554 137.352 199.544 137.65L199.506 140.177C199.506 140.407 199.378 141.78 199.739 141.876C200.064 141.965 200.395 141.539 200.499 141.371C200.759 140.944 200.864 140.44 200.797 139.945L200.705 139.15L201.295 140.775C201.39 141.032 201.577 141.243 201.821 141.367L202.886 141.909C202.886 141.909 203.444 142.651 204.052 142.513C204.66 142.376 206.157 141.308 205.729 140.798C205.379 140.381 204.496 140.687 204.496 140.687L206.059 139.306L209.247 140.75C209.903 141.044 210.647 141.069 211.321 140.82L211.988 140.575L231.984 148.395C233.513 149.003 235.191 149.133 236.796 148.767C238.677 148.321 241.118 146.898 241.654 140.789" stroke="black" stroke-width="0.5" stroke-linecap="round" stroke-linejoin="round"/>
<path d="M204.496 140.681L203.904 139.959L204.894 139.158C205.015 139.06 205.164 139.002 205.319 138.994C205.475 138.985 205.629 139.026 205.76 139.111L206.06 139.304" stroke="black" stroke-width="0.5" stroke-linecap="round" stroke-linejoin="round"/>
<path d="M204.572 137.091C204.572 137.091 202.328 138.324 202.058 139.383C201.787 140.443 202.886 141.911 202.886 141.911" stroke="black" stroke-width="0.5" stroke-linecap="round" stroke-linejoin="round"/>
<path d="M203.555 135.829C203.555 135.829 201.301 137.022 200.847 137.696C200.394 138.369 200.719 139.14 200.719 139.14" stroke="black" stroke-width="0.5" stroke-linecap="round" stroke-linejoin="round"/>
<path d="M204.933 140.587C204.581 140.642 204.238 140.749 203.917 140.905" stroke="black" stroke-width="0.5" stroke-linecap="round" stroke-linejoin="round"/>
<path d="M254.242 115.421C254.196 115.05 254.057 114.678 253.871 114.353C253.639 114.028 253.36 113.75 253.035 113.564C252.71 113.378 252.292 113.286 251.921 113.286H243.378C243.007 111.521 242.403 109.618 241.335 108.086C240.221 106.414 238.921 105.253 236.739 104.093C239.617 103.164 241.428 102.189 240.825 101.539C236.6 96.8499 236.46 93.3678 237.992 89.4213C241.66 80.2285 235.996 74.5642 231.4 73.6821C231.167 73.5892 231.075 73.4963 231.028 73.4963L229.31 73.0321C229.264 73.0321 229.171 73.0321 229.171 73.1249C227.778 72.8928 226.339 72.8463 224.946 73.1249C223.414 73.4035 221.975 74.0071 220.675 74.8892V50.6999L220.814 50.9321C220.814 50.9785 220.86 50.9785 220.907 50.9785C220.953 50.9785 221 50.9321 221 50.8856L223.692 40.8571C223.785 40.8571 223.878 40.8571 224.017 40.8571C224.203 40.8571 224.435 40.9035 224.621 40.9035C225.132 40.9499 225.642 41.0428 226.06 40.7642C226.478 40.5321 226.664 40.0213 226.896 39.5571C227.035 39.1856 227.221 38.8142 227.453 38.5821C227.685 38.3499 228.103 38.2571 228.475 38.1178C228.985 37.9785 229.496 37.8392 229.775 37.4678C230.053 37.0963 230.053 36.5856 230.053 36.0285C230.053 35.6106 230.053 35.1928 230.192 34.9142C230.332 34.6356 230.657 34.3571 230.982 34.1249C231.4 33.7999 231.817 33.4749 231.957 33.0106C232.096 32.5463 231.864 32.0821 231.678 31.5713C231.539 31.1999 231.353 30.8285 231.4 30.4571C231.446 30.1321 231.632 29.7606 231.817 29.3892C232.05 28.9249 232.328 28.4606 232.282 27.9963C232.235 27.5321 231.864 27.1606 231.492 26.7892C231.214 26.5106 230.935 26.1856 230.796 25.8606C230.703 25.5356 230.75 25.1178 230.796 24.6999C230.842 24.1892 230.935 23.6785 230.703 23.2606C230.471 22.8428 229.96 22.6571 229.496 22.4249C229.125 22.2856 228.753 22.0999 228.521 21.8678C228.289 21.6356 228.196 21.2178 228.057 20.7999C227.917 20.2892 227.778 19.7785 227.407 19.4999C227.035 19.2213 226.525 19.2213 225.967 19.2213C225.55 19.2213 225.132 19.2213 224.853 19.0821C224.575 18.9428 224.296 18.6178 224.064 18.2928C223.739 17.8749 223.414 17.4571 222.95 17.3178C222.485 17.1785 222.021 17.4106 221.51 17.5963C221.139 17.7356 220.721 17.9213 220.396 17.8749C220.071 17.8285 219.7 17.6428 219.328 17.4571C218.864 17.2249 218.446 16.9463 217.935 16.9928C217.471 17.0392 217.1 17.4106 216.728 17.7821C216.45 18.0606 216.125 18.3392 215.8 18.4785C215.475 18.5713 215.057 18.5249 214.639 18.4785C214.128 18.4321 213.617 18.3392 213.2 18.5713C212.782 18.8035 212.596 19.3142 212.364 19.7785C212.225 20.1499 212.039 20.5213 211.807 20.7535C211.575 20.9856 211.157 21.0785 210.739 21.2178C210.228 21.3571 209.717 21.4963 209.439 21.8678C209.16 22.2392 209.16 22.7499 209.16 23.3071C209.16 23.7249 209.16 24.1428 209.021 24.4213C208.882 24.6999 208.557 24.9785 208.232 25.2106C207.814 25.5356 207.396 25.8606 207.257 26.3249C207.21 26.4642 207.21 26.6499 207.21 26.7892H197.692C197.739 26.5571 197.785 26.3713 197.785 26.1392C199.039 24.6071 200.664 22.9821 200.525 20.3821C200.432 17.7356 198.064 16.5285 197.553 16.2963V16.2499V16.2035V16.1571C197.553 16.1571 197.46 16.0642 197.367 15.9713C196.903 15.1356 194.953 12.4428 188.871 12.8606C181.907 13.3713 176.614 21.0785 178.332 26.7892H146.714C145.089 26.7892 143.789 28.0892 143.789 29.7142V33.2892V56.7821C143.65 56.8285 143.51 56.8749 143.464 56.8749C143.185 56.5035 141.839 54.8785 138.542 55.0642C137.428 55.1106 136.592 55.4821 136.082 56.1785C135.385 57.1071 135.525 58.3142 135.571 58.6856C135.153 58.8249 133.435 59.5213 133.064 61.0999C132.832 62.1678 132.925 63.0499 133.435 63.7928C133.9 64.4892 134.689 65.0463 135.757 65.5106L136.36 69.7821C135.2 70.5713 134.41 71.9178 134.41 73.4499C134.41 75.2606 135.525 76.8392 137.057 77.4892C136.732 78.8356 136.36 81.2963 137.289 83.0606C137.753 83.9428 138.542 84.5463 139.564 84.8249C140.26 85.0106 140.957 85.1499 141.653 85.1964L141.56 86.6821C139.61 87.0535 137.521 87.5178 135.989 87.9821C130.371 89.6535 127.075 92.4856 125.496 96.8035L121.271 110.407C121.271 110.453 121.271 110.546 121.317 110.546L122.942 111.196L120.853 119.043C119.832 119.136 118.857 119.461 117.975 119.971L114.585 122.061L110.175 114.818C110.175 114.771 110.128 114.771 110.082 114.771H108.41H80.5995C80.5531 114.771 80.5067 114.771 80.5067 114.818C80.5067 114.864 80.5067 114.911 80.5067 114.957L87.0531 125.682H67.5067C67.4602 125.682 67.4138 125.728 67.4138 125.775L66.5781 128.839C66.0674 128.886 65.6495 128.978 65.4174 129.025C64.3495 129.35 63.3281 130.093 62.3531 131.346C62.3531 131.346 62.3531 131.346 62.3531 131.393L57.8031 109.85C57.571 108.736 57.0602 107.714 56.3638 106.878V106.832C56.3174 106.786 56.3174 106.739 56.271 106.693L52.046 101.632L52.2317 101.261C52.3245 101.353 52.4174 101.4 52.5567 101.446L54.0424 101.911C54.1352 101.957 54.2281 101.957 54.321 101.957C54.4602 101.957 54.5995 101.911 54.7388 101.864C54.971 101.771 55.1102 101.539 55.2031 101.307V101.261C55.3424 100.796 55.1102 100.239 54.5995 100.1L53.1138 99.6356H53.0674L53.671 98.4749C54.2745 98.9392 54.9245 99.3571 55.7138 99.7285C56.6424 100.146 57.4317 100.332 58.1745 100.332C58.6388 100.332 59.1031 100.239 59.4745 100.1C61.0531 99.4499 61.8888 97.5928 62.5388 95.9213C62.7245 95.4571 62.8638 94.8999 62.9102 94.2499C63.4674 94.2035 64.071 94.0178 64.2102 93.3678C64.396 92.6713 63.8388 91.1856 63.3745 90.0714C65.0924 89.6071 66.5317 88.7713 67.5067 87.0535C69.6424 83.1999 69.1317 80.9249 68.3424 79.6713C67.2745 77.9999 65.1852 77.3963 63.6531 77.4892C62.6317 77.5821 62.1674 77.1178 61.5638 76.2821C59.6138 73.4035 54.971 71.8249 50.3281 72.5213C50.1888 72.5213 50.0495 72.5678 49.9102 72.6142C49.9567 72.3356 50.0031 72.0106 50.0031 71.6856C50.0031 68.4821 47.4031 65.8821 44.1995 65.8821C40.996 65.8821 38.396 68.4821 38.396 71.6856C38.396 74.0535 39.8352 76.0963 41.8781 77.0249C40.7174 78.3713 39.8352 79.9035 39.2781 81.7142C38.721 83.4785 38.4424 85.0106 38.2102 86.3571C37.5138 90.1642 37.096 92.6713 30.6888 96.6178C29.2959 97.4535 29.2031 98.3821 29.3888 98.9856C29.5745 99.6356 30.0852 100.286 30.8745 100.843C31.2924 101.168 34.3102 103.536 38.4424 103.814C37.6067 105.625 36.5852 108.503 35.471 111.939L34.821 113.286H6.49952C6.12809 113.286 5.71024 113.378 5.38524 113.564C5.06024 113.75 4.73524 114.028 4.54952 114.353C4.36381 114.678 4.22452 115.05 4.17809 115.421C4.13166 115.793 4.22452 116.211 4.36381 116.536L26.7888 172.946C26.7888 174.896 27.996 176.475 29.4352 176.475H44.8031V204.286C44.6638 204.378 44.5245 204.425 44.4317 204.518C44.3852 204.518 44.3388 204.564 44.3388 204.611C41.5995 206.282 38.6281 208.836 37.0031 211.575C35.7031 213.803 34.5424 216.125 33.6138 218.493C33.6138 218.539 33.6138 218.586 33.6138 218.632L42.7138 229.125V230.518C42.7138 230.796 42.7602 231.075 42.8995 231.353L27.8567 235.95C27.8567 235.95 27.8567 235.95 27.8102 235.95C27.8102 235.95 27.8102 235.95 27.7638 235.95V235.996V238.132C26.6495 238.225 25.721 239.153 25.721 240.314C25.721 241.521 26.6959 242.543 27.9031 242.543C29.1102 242.543 30.0852 241.568 30.0852 240.314C30.0852 239.107 29.1567 238.178 27.996 238.132V237.436L44.2924 235.068V235.95C44.2924 235.996 44.3388 236.043 44.3852 236.043H45.8245V238.132C44.6638 238.178 43.7352 239.153 43.7352 240.314C43.7352 241.521 44.7102 242.543 45.9174 242.543C47.1245 242.543 48.0995 241.568 48.0995 240.314C48.0995 239.153 47.171 238.178 46.0102 238.132V236.043H47.5888C47.6352 236.043 47.6817 235.996 47.6817 235.95V235.114H47.821L49.5388 237.111C49.5388 237.157 49.5852 237.157 49.6317 237.157H49.6781L52.2781 235.811L60.3567 237.064C60.4495 237.853 60.5888 238.643 60.7745 239.432C60.7745 239.478 60.821 239.525 60.8674 239.525L61.8424 239.803C61.796 239.989 61.796 240.128 61.796 240.314C61.796 241.521 62.771 242.543 63.9781 242.543C64.9531 242.543 65.7424 241.893 66.021 241.057L84.3138 246.443C84.3138 246.443 84.3138 246.443 84.3602 246.443C84.4067 246.443 84.4531 246.443 84.4531 246.396L87.0067 242.032C87.6102 241.011 87.796 239.803 87.5638 238.643C87.3317 237.482 86.6817 236.414 85.7531 235.718L79.1138 230.657C78.4638 230.146 77.9067 229.589 77.396 228.986C77.4424 228.939 77.396 228.846 77.3495 228.846C77.3495 228.846 77.3031 228.8 77.2102 228.753C76.4674 227.825 75.9102 226.757 75.5388 225.643C75.5852 225.596 75.5852 225.503 75.4924 225.503C75.4924 225.503 75.4924 225.503 75.446 225.457C75.0281 224.111 74.8888 222.671 75.0281 221.278C75.4924 221.557 76.5138 222.161 77.1638 222.532C77.5817 222.764 78.4638 223.136 79.2531 223.136C79.4852 223.136 79.671 223.089 79.8567 223.043C80.1817 222.903 80.4138 222.718 80.5531 222.393C80.6924 222.068 80.6924 221.789 80.5531 221.511C80.1817 220.907 79.0674 220.675 77.9995 220.582C77.7674 220.536 77.5352 220.536 77.3031 220.536C78.6031 220.071 79.9495 219.375 80.0424 218.493C80.0888 218.075 79.996 217.796 79.7638 217.611C79.2067 217.239 77.9995 217.796 77.1174 218.353C76.3281 218.818 75.6317 219.561 75.121 220.164C75.1674 219.886 75.2602 219.653 75.3067 219.375L76.3745 215.661C76.3745 215.614 76.3745 215.521 76.2817 215.521L75.8638 215.382L81.6674 201.221L84.1281 202.011H84.1745C84.221 202.011 84.2674 201.964 84.2674 201.918C84.3138 201.778 87.0067 193.375 89.2352 185.25L94.6674 180.932C98.1031 177.775 98.4281 174.386 98.1495 172.111C97.7317 168.814 95.596 165.703 92.7638 164.218L91.0924 163.428C89.2352 159.25 85.196 157.811 80.2281 156.093L79.9031 156C79.2067 155.768 78.4638 155.489 77.721 155.257H114.167L112.775 155.536C112.032 155.675 111.289 155.953 110.639 156.278C110.082 156.464 109.571 156.603 109.153 156.789C106.275 157.903 103.675 160.457 102.375 163.521C101.492 165.518 100.796 168.721 102.328 172.389L105.532 178.703L110.314 226.339C110.314 226.386 110.36 226.432 110.407 226.432L113.285 226.339L113.471 228.986C113.239 228.939 113.007 228.939 112.775 228.986C112.45 229.032 112.125 229.171 111.846 229.357C111.567 229.543 111.335 229.821 111.15 230.1L110.453 231.261C110.314 231.4 108.41 232.096 105.671 233.118C105.114 232.886 104.557 232.793 104.092 232.886C103.628 233.025 103.396 233.211 103.396 233.536C103.396 233.675 103.442 233.768 103.489 233.861C103.164 234 102.792 234.093 102.467 234.232C102.467 234.232 102.467 234.232 102.421 234.232C102.096 234.046 101.725 233.953 101.353 233.953C100.982 234 100.564 234.278 100.517 234.696C100.517 234.743 100.517 234.836 100.564 234.882C100.146 235.021 99.7281 235.161 99.3102 235.346C99.2638 235.346 99.2174 235.3 99.171 235.3C98.6602 235.068 98.196 234.975 97.8245 235.114C97.546 235.207 97.3138 235.393 97.1745 235.625C97.0817 235.811 97.0352 235.95 97.0817 236.136C94.5281 237.018 91.9745 237.9 89.6995 238.689C89.096 238.968 88.6317 239.478 88.446 240.036C88.3067 240.546 88.3995 241.15 88.7245 241.614C89.0495 242.078 89.9781 243.193 91.9745 243.193C92.021 243.193 92.0674 243.193 92.1138 243.193H122.571C122.942 243.193 123.267 243.1 123.592 242.914C123.778 242.821 123.964 242.682 124.103 242.496C125.125 242.311 125.867 241.428 125.867 240.314C125.867 239.525 125.45 238.875 124.846 238.457V238.178L129.675 236.693L139.935 235.114V235.95C139.935 235.996 139.982 236.043 140.028 236.043H141.607V238.132C140.446 238.178 139.517 239.153 139.517 240.314C139.517 241.521 140.492 242.543 141.7 242.543C142.907 242.543 143.882 241.568 143.882 240.314C143.882 239.153 142.953 238.178 141.792 238.132V236.043H143.232C143.278 236.043 143.325 235.996 143.325 235.95V235.068L156.742 237.018C156.65 237.111 156.51 237.25 156.417 237.389C155.907 238.086 155.628 238.921 155.675 239.757C155.675 240.221 155.767 240.639 155.953 241.057C156.139 241.475 156.371 241.846 156.696 242.125C157.021 242.45 157.392 242.682 157.81 242.821C158.182 242.961 158.6 243.053 159.017 243.053C159.064 243.053 159.064 243.053 159.11 243.053L189.057 242.311C189.335 242.311 189.567 242.264 189.8 242.125C190.032 242.032 190.217 241.893 190.403 241.661C190.589 241.475 190.728 241.243 190.775 241.011C190.867 240.778 190.914 240.5 190.867 240.268V239.989C190.914 239.989 190.96 240.036 191.007 240.036C191.007 240.128 190.96 240.175 190.96 240.268C190.96 241.475 191.935 242.496 193.142 242.496C194.35 242.496 195.325 241.521 195.325 240.268C195.325 239.664 195.092 239.153 194.721 238.736L196.067 237.111L209.439 235.068V235.903C209.439 235.95 209.485 235.996 209.532 235.996H211.11V238.086C209.95 238.132 209.021 239.107 209.021 240.268C209.021 241.475 209.996 242.496 211.203 242.496C212.41 242.496 213.385 241.521 213.385 240.268C213.385 239.107 212.457 238.132 211.296 238.086V235.996H212.735C212.782 235.996 212.828 235.95 212.828 235.903V235.021L229.125 237.389V238.086C227.964 238.132 227.035 239.107 227.035 240.268C227.035 241.475 228.01 242.496 229.217 242.496C230.425 242.496 231.4 241.521 231.4 240.268C231.4 239.107 230.517 238.178 229.357 238.086V237.296V235.95C229.357 235.903 229.357 235.903 229.31 235.857C229.31 235.857 229.31 235.857 229.264 235.811L214.221 231.214C214.36 230.982 214.407 230.703 214.407 230.378V222.857C214.407 222.393 214.221 221.928 213.896 221.603C213.617 221.278 213.2 221.093 212.782 221.046V216.45L213.432 215.661C213.571 215.475 213.71 215.243 213.803 215.011C213.896 214.778 213.896 214.5 213.85 214.268C213.803 213.989 213.757 213.757 213.617 213.571C213.478 213.339 213.339 213.153 213.107 213.014L212.782 212.782V204.611C212.782 204.564 212.735 204.518 212.689 204.518H212.642V176.475H228.985C230.564 176.475 231.817 174.896 231.817 172.946C231.817 172.807 231.817 172.668 231.817 172.528L254.057 116.536C254.196 116.211 254.242 115.839 254.242 115.421ZM208.278 231.307L198.76 234.232L208.139 222.764C208.139 222.857 208.139 222.903 208.139 222.996V230.518C208.092 230.796 208.139 231.028 208.278 231.307ZM126.285 219.143L127.214 221C127.214 221.046 127.26 221.046 127.307 221.046H127.353L130.464 219.793L131.578 221.65C131.346 221.557 131.114 221.557 130.882 221.557C130.557 221.557 130.232 221.65 129.907 221.789C129.628 221.928 129.35 222.161 129.117 222.393C128.932 222.671 128.746 222.95 128.7 223.275L128.421 224.621C128.328 224.807 126.703 226.061 124.382 227.778C124.15 227.732 123.964 227.732 123.778 227.778L123.917 226.014L126.378 225.921C126.425 225.921 126.471 225.875 126.471 225.782L126.285 219.143ZM66.996 212.689C66.9495 212.689 66.8567 212.689 66.8567 212.736C66.8567 212.782 64.9531 217.332 63.3281 219.932C63.1424 220.257 62.9102 220.628 62.7245 221C61.1924 223.832 59.7531 227.964 59.8924 231.725C59.9388 232.7 59.9852 233.675 60.0781 234.65L55.8995 233.35C56.1317 233.025 56.3638 232.653 56.5031 232.282C56.921 231.168 56.9674 229.961 56.5495 228.8L53.7174 220.953C53.4388 220.211 53.2531 219.421 53.1602 218.632C53.2067 218.586 53.2531 218.539 53.2067 218.493C53.2067 218.493 53.1602 218.446 53.1602 218.353C53.0674 217.193 53.1138 215.986 53.4388 214.778C53.4852 214.732 53.5317 214.686 53.4852 214.639C53.4852 214.639 53.4852 214.639 53.4852 214.593C53.8567 213.2 54.5067 211.946 55.3888 210.832C55.621 211.343 56.1781 212.364 56.5031 213.014C56.8281 213.571 57.6174 214.732 58.546 214.918C58.6388 214.918 58.7317 214.964 58.8245 214.964C59.0567 214.964 59.2888 214.871 59.4745 214.732C59.7531 214.546 59.9388 214.268 59.9388 213.989C59.9852 213.293 59.1495 212.503 58.3138 211.807C58.1281 211.668 57.9424 211.528 57.7567 211.389C58.4067 211.528 59.1031 211.668 59.6602 211.668C60.3102 211.668 60.8674 211.528 61.146 211.203C61.4245 210.878 61.5174 210.6 61.3781 210.321C61.0995 209.718 59.7995 209.532 58.7781 209.532C58.7317 209.532 58.7317 209.532 58.6852 209.532C57.8031 209.532 56.8281 209.764 56.1317 209.996C56.3174 209.811 56.5031 209.625 56.7352 209.439L59.6602 206.886C59.7067 206.839 59.7067 206.793 59.6602 206.7L59.4281 206.421L68.0638 199.689L69.1317 200.943C69.1317 200.989 69.1781 200.989 69.2245 200.989C69.271 200.989 69.271 200.989 69.3174 200.943L70.246 200.2L67.4138 212.643L66.996 212.689ZM65.6031 176.521C66.9495 176.521 68.0638 175.175 68.2495 173.457L72.4745 173.689L72.3817 174.525L58.9638 189.011C58.9174 189.057 58.9174 189.103 58.9638 189.15L60.7281 191.239L53.2995 199.457L53.2067 199.364C53.1602 199.318 53.1138 199.318 53.0674 199.364C53.021 199.411 49.7245 201.639 47.0317 203.078V176.475H65.6031V176.521ZM56.6424 211.25C57.1531 211.482 57.7102 211.761 58.1281 212.086C58.871 212.689 59.7067 213.478 59.6602 214.082C59.6602 214.314 59.521 214.5 59.2888 214.639C59.0567 214.825 58.8245 214.871 58.546 214.778C57.8031 214.593 57.0138 213.618 56.6888 212.968C56.3638 212.364 55.8531 211.389 55.621 210.878C55.8995 210.971 56.2245 211.111 56.6424 211.25ZM55.621 210.553C55.6674 210.507 55.7138 210.461 55.7602 210.414C56.5031 210.182 57.7102 209.811 58.7317 209.811C60.0781 209.857 60.9602 210.089 61.146 210.461C61.2388 210.646 61.146 210.832 60.9602 211.111C60.3102 211.853 58.221 211.436 56.7352 210.971C56.271 210.832 55.8531 210.646 55.621 210.553ZM53.1138 149.778L53.2067 144.161C54.8317 145.6 56.6888 146.25 58.7781 146.528L61.7495 146.389L60.7745 149.825V151.032C56.6424 150.336 53.6245 149.871 53.1138 149.778ZM215.15 88.7249C215.66 92.9964 217.796 95.3642 215.846 100.425C215.01 100.564 214.035 100.75 212.921 100.982C207.396 102.096 204.982 105.346 202.103 111.382C200.85 114.028 199.457 118.903 198.621 121.828C198.435 122.478 198.25 123.082 198.157 123.5C198.11 123.593 198.11 123.686 198.11 123.778C198.11 123.871 198.157 123.964 198.203 124.057C198.25 124.15 198.296 124.196 198.389 124.243C198.482 124.289 198.575 124.336 198.621 124.336L200.989 124.8L200.664 125.821H196.996C196.625 125.45 196.253 125.125 196.021 124.939C195.139 124.289 193.885 123.964 192.307 123.918C192.26 123.918 192.214 123.918 192.214 123.918C190.589 123.918 188.035 124.428 187.617 125.589C187.571 125.682 187.571 125.775 187.571 125.821H180.467L184.135 116.536C184.275 116.164 184.321 115.793 184.321 115.421C184.275 115.05 184.135 114.678 183.95 114.353C183.717 114.028 183.439 113.75 183.114 113.564C182.789 113.378 182.371 113.286 182 113.286H171.6L173.457 102.096C173.457 102.05 174.803 95.6428 171.228 90.6285C168.953 87.4249 163.01 86.6821 161.617 86.5428H161.571L153.446 86.1713L153.307 80.7392H186.503C186.503 80.7856 186.55 80.7856 186.596 80.7856H188.267H191.889L192.167 80.7392H197.832C197.925 80.7856 198.064 80.7856 198.157 80.7856H198.203H200.153C199.364 81.8071 198.667 83.0142 198.667 83.8035C198.667 84.0821 198.76 84.3142 198.946 84.4535C199.225 84.6856 199.503 84.7321 199.828 84.6856C200.2 84.6392 200.525 84.3606 200.71 84.1749C200.71 84.2678 200.757 84.3606 200.803 84.4071C200.896 84.5928 201.035 84.7321 201.221 84.8249C201.871 85.1035 202.753 84.4999 203.078 84.2213C203.171 84.5463 203.403 84.9642 203.914 85.0571C204.007 85.0571 204.053 85.0571 204.146 85.0571C204.982 85.0571 205.725 84.1749 205.957 83.8035C206.05 83.8963 206.142 83.9892 206.235 84.0356C206.375 84.1285 206.56 84.1749 206.746 84.1749C207.814 84.0821 209.671 82.3642 210.507 80.9713C210.553 80.8785 210.6 80.7856 210.692 80.6928H215.846C215.196 82.7356 214.732 85.3356 215.15 88.7249ZM192.817 223.6C192.817 223.6 192.771 223.6 192.817 223.6L192.539 225.782C192.214 227.732 191.657 229.589 190.775 231.353L190.635 231.632C190.635 231.446 190.635 231.214 190.589 231.028C190.542 229.728 190.496 228.614 189.846 228.011C189.707 227.871 189.567 227.825 189.382 227.732L186.271 200.061L193.56 209.346C193.328 209.393 193.096 209.532 192.817 209.764C192.26 210.228 191.935 210.786 191.935 211.389C191.935 212.225 192.492 212.921 192.725 213.2C192.585 213.246 192.492 213.339 192.4 213.432C192.353 213.478 192.353 213.525 192.307 213.525H192.26C192.075 213.618 191.935 213.757 191.889 213.943C191.842 214.128 191.842 214.314 191.935 214.5L192.771 216.218C192.864 216.403 193.003 216.543 193.189 216.589L193.375 216.914L192.817 223.6ZM140.725 176.521V204.564H140.214C140.167 204.564 140.121 204.611 140.121 204.657V220.211L138.821 216.496L139.982 216.032C140.028 215.986 140.075 215.939 140.028 215.893L125.171 176.521H140.725ZM131.764 123.732L131.346 123.5L132.275 120.343L132.321 123.593L131.764 123.732ZM145.135 230.518V222.996C145.135 222.532 144.95 222.068 144.625 221.743C144.346 221.418 143.928 221.232 143.51 221.186V204.657C143.51 204.611 143.464 204.564 143.417 204.564H143V176.521H158.6C160.317 176.521 161.71 174.989 161.757 173.086L161.803 173.039L168.86 155.257H193.142L176.66 162.128C176.614 162.128 176.614 162.175 176.614 162.221C176.614 162.268 176.614 162.314 176.614 162.314L176.939 162.778L172.25 164.821C170.996 165.332 169.928 166.168 169.046 167.189C168.21 168.211 167.56 169.464 167.282 170.764C166.957 172.064 167.003 173.411 167.282 174.711C166.725 176.521 166.632 178.518 167.189 180.653L178.703 222.718C178.61 222.764 178.471 222.857 178.378 222.903C177.728 223.461 177.542 224.343 177.496 224.714C177.357 224.668 177.264 224.621 177.125 224.621C177.078 224.621 177.032 224.621 176.985 224.621L176.939 224.575C176.753 224.482 176.567 224.482 176.382 224.575C176.196 224.668 176.057 224.807 175.964 224.946L175.221 226.711C175.128 226.896 175.128 227.082 175.221 227.268L175.128 227.593L169.603 231.446L167.885 232.607C166.214 233.675 164.357 234.464 162.407 234.975L159.482 235.764L144.903 231.307C145.089 231.075 145.135 230.796 145.135 230.518ZM209.717 220.814V221.186C209.578 221.186 209.485 221.232 209.346 221.278L209.717 220.814ZM209.81 204.518C209.764 204.518 209.717 204.564 209.717 204.611V210.136L206.839 207.907C206.607 207.721 206.375 207.536 206.142 207.35C205.121 206.561 204.285 205.864 203.357 205.957C203.217 205.957 203.078 206.003 202.939 206.05L189.66 179.957L196.764 176.428H210.321V204.471H209.81V204.518ZM77.9531 220.675C78.8817 220.814 80.0424 221 80.321 221.511C80.4138 221.696 80.4138 221.928 80.321 222.161C80.2281 222.439 80.0424 222.625 79.7638 222.718C79.021 222.996 77.8138 222.578 77.2102 222.207C76.6067 221.882 75.6781 221.325 75.1674 221.046C75.446 220.953 75.8174 220.861 76.2352 220.768C76.8388 220.675 77.4888 220.628 77.9531 220.675ZM77.2567 218.446C78.1388 217.889 78.8352 217.611 79.2995 217.611C79.4388 217.611 79.5317 217.657 79.6245 217.703C79.7638 217.796 79.8567 218.028 79.8102 218.353C79.671 219.328 77.721 220.071 76.2352 220.536C75.771 220.628 75.3067 220.721 75.0281 220.768C75.0281 220.721 75.0281 220.628 75.0745 220.582C75.5852 219.932 76.3745 219.003 77.2567 218.446Z" fill="url(#paint0_linear_2386_442607)" style="mix-blend-mode:overlay"/>
<defs>
<linearGradient id="paint0_linear_2386_442607" x1="254.242" y1="129.266" x2="4.16602" y2="129.266" gradientUnits="userSpaceOnUse">
<stop stop-color="#E60050"/>
<stop offset="1" stop-color="#5D6AE8"/>
</linearGradient>
</defs>
</svg>
