<svg width="260" height="260" viewBox="0 0 260 260" fill="none" xmlns="http://www.w3.org/2000/svg">
<path d="M123.489 238.403L155.128 196.996L116.63 197.879L160.758 233.273" stroke="black" stroke-width="0.5" stroke-linecap="round" stroke-linejoin="round"/>
<path d="M74.9853 238.403L43.3474 196.996L81.8445 197.879L37.7178 233.273" stroke="black" stroke-width="0.5" stroke-linecap="round" stroke-linejoin="round"/>
<path d="M127.756 257.412C127.375 257.423 127.001 257.298 126.703 257.06C126.405 256.822 126.2 256.485 126.126 256.111L109.15 170.439L116.215 169.201L129.307 255.555C129.342 255.781 129.328 256.012 129.267 256.232C129.205 256.453 129.097 256.657 128.951 256.833C128.804 257.009 128.622 257.151 128.416 257.251C128.21 257.35 127.985 257.405 127.756 257.412Z" fill="#333333" stroke="black" stroke-width="0.5" stroke-linecap="round" stroke-linejoin="round"/>
<path d="M164.836 257.412C164.455 257.423 164.081 257.298 163.783 257.06C163.485 256.822 163.28 256.485 163.206 256.111L146.23 170.439L153.295 169.201L166.388 255.555C166.422 255.781 166.408 256.012 166.347 256.232C166.285 256.453 166.177 256.657 166.031 256.833C165.884 257.009 165.702 257.151 165.496 257.251C165.29 257.35 165.065 257.405 164.836 257.412Z" fill="#333333" stroke="black" stroke-width="0.5" stroke-linecap="round" stroke-linejoin="round"/>
<path d="M71.8152 257.412C72.1968 257.423 72.57 257.298 72.8684 257.06C73.1668 256.822 73.3711 256.486 73.445 256.111L90.4264 170.439L83.3584 169.204L70.2661 255.558C70.232 255.784 70.2463 256.014 70.3079 256.234C70.3695 256.454 70.4771 256.658 70.6235 256.833C70.77 257.009 70.9519 257.151 71.1573 257.25C71.3628 257.35 71.587 257.405 71.8152 257.412Z" fill="#333333" stroke="black" stroke-width="0.5" stroke-linecap="round" stroke-linejoin="round"/>
<path d="M34.7412 257.412C35.1228 257.423 35.496 257.298 35.7944 257.06C36.0928 256.822 36.2971 256.486 36.371 256.111L53.347 170.439L46.2823 169.204L33.1899 255.558C33.1558 255.784 33.1702 256.015 33.2319 256.235C33.2937 256.455 33.4014 256.659 33.5481 256.834C33.6947 257.009 33.8769 257.152 34.0826 257.251C34.2883 257.351 34.5128 257.405 34.7412 257.412Z" fill="#333333" stroke="black" stroke-width="0.5" stroke-linecap="round" stroke-linejoin="round"/>
<path d="M56.9469 186.992H149.041V150.442H56.9469V186.992Z" fill="#1A1A1A" stroke="black" stroke-width="0.5" stroke-miterlimit="10" stroke-linecap="round" stroke-linejoin="round"/>
<path d="M106.554 110.567H184.996C185.849 110.567 186.69 110.764 187.455 111.141C188.22 111.518 188.888 112.066 189.407 112.743C189.926 113.419 190.283 114.206 190.449 115.043C190.616 115.879 190.588 116.742 190.367 117.566L174.015 178.632C173.699 179.816 173.002 180.861 172.031 181.608C171.06 182.354 169.87 182.758 168.645 182.759H82.9541L101.184 114.692C101.501 113.509 102.198 112.464 103.169 111.718C104.14 110.973 105.33 110.568 106.554 110.567Z" fill="#4C4C4C" stroke="black" stroke-width="0.5" stroke-miterlimit="10" stroke-linecap="round" stroke-linejoin="round"/>
<path d="M130.818 107.836C129.585 108.207 106.513 119.842 106.513 119.842L100.216 112.977L116.629 97.5394L130.818 107.836Z" fill="#E5E5E5" stroke="black" stroke-width="0.5" stroke-miterlimit="10" stroke-linecap="round" stroke-linejoin="round"/>
<path d="M181.581 175.915L193.727 120.854C194.734 116.29 191.85 111.774 187.286 110.767C182.722 109.76 178.206 112.644 177.199 117.208L165.052 172.269C164.046 176.833 166.929 181.35 171.493 182.356C176.057 183.363 180.574 180.479 181.581 175.915Z" fill="#808080" stroke="black" stroke-width="0.5" stroke-miterlimit="10" stroke-linecap="round" stroke-linejoin="round"/>
<path d="M113.467 199.357H174.715C179.39 199.357 183.179 195.568 183.179 190.894C183.179 186.22 179.39 182.431 174.715 182.431H113.467C108.793 182.431 105.004 186.22 105.004 190.894C105.004 195.568 108.793 199.357 113.467 199.357Z" fill="#4C4C4C" stroke="black" stroke-width="0.5" stroke-miterlimit="10" stroke-linecap="round" stroke-linejoin="round"/>
<path d="M26.0899 199.357L136.441 199.357C141.102 199.357 144.881 195.578 144.881 190.917V190.871C144.881 186.21 141.102 182.431 136.441 182.431H26.0899C21.4289 182.431 17.6504 186.21 17.6504 190.871V190.917C17.6504 195.578 21.4289 199.357 26.0899 199.357Z" fill="#808080" stroke="black" stroke-width="0.5" stroke-miterlimit="10" stroke-linecap="round" stroke-linejoin="round"/>
<path d="M71.0914 127.015H19.3663C18.7459 127.015 18.1338 127.158 17.5773 127.432C17.0208 127.706 16.535 128.105 16.1572 128.597C15.7795 129.09 15.5201 129.662 15.399 130.271C15.278 130.879 15.2985 131.507 15.4591 132.107L27.3498 176.52C27.5809 177.379 28.0892 178.139 28.7958 178.68C29.5025 179.221 30.368 179.514 31.2581 179.513H82.9832C83.6037 179.513 84.2158 179.371 84.7722 179.096C85.3287 178.822 85.8146 178.423 86.1923 177.931C86.57 177.439 86.8294 176.866 86.9505 176.258C87.0716 175.649 87.051 175.021 86.8905 174.422L74.9998 130.014C74.7693 129.154 74.2614 128.393 73.5547 127.851C72.8481 127.309 71.9822 127.015 71.0914 127.015Z" fill="#999999" stroke="black" stroke-width="0.5" stroke-miterlimit="10" stroke-linecap="round" stroke-linejoin="round"/>
<path d="M71.8893 129.932H20.1642C19.5437 129.932 18.9316 130.074 18.3752 130.349C17.8187 130.623 17.3328 131.022 16.9551 131.514C16.5774 132.006 16.318 132.579 16.1969 133.187C16.0758 133.796 16.0964 134.424 16.2569 135.023L28.1466 179.431C28.377 180.291 28.885 181.052 29.5916 181.594C30.2983 182.136 31.1642 182.43 32.0549 182.43H83.78C84.4005 182.43 85.0126 182.287 85.569 182.013C86.1255 181.739 86.6114 181.34 86.9891 180.848C87.3668 180.355 87.6262 179.783 87.7473 179.174C87.8684 178.566 87.8478 177.938 87.6873 177.338L75.7955 132.931C75.5653 132.071 75.0577 131.31 74.3515 130.768C73.6452 130.226 72.7797 129.932 71.8893 129.932Z" fill="#666666" stroke="black" stroke-width="0.5" stroke-miterlimit="10" stroke-linecap="round" stroke-linejoin="round"/>
<path d="M114.201 98.4257L114.676 116.813C114.676 116.813 124.367 112.264 128.319 107.561C134.738 99.9232 134.426 91.8042 134.574 80.843C128.419 83.0957 114.201 98.4257 114.201 98.4257Z" fill="white" stroke="black" stroke-width="0.5" stroke-miterlimit="10" stroke-linecap="round" stroke-linejoin="round"/>
<path d="M136.147 80.5333L147.427 79.251L170.653 87.1774C173.367 88.1015 173.755 94.609 171.768 101.68L166.405 117.997L159.492 143.08L110.866 138.114L130.128 85.2733C130.592 84.0017 131.4 82.8846 132.464 82.0473C133.527 81.21 134.803 80.6857 136.147 80.5333Z" fill="white" stroke="black" stroke-width="0.5" stroke-miterlimit="10" stroke-linecap="round" stroke-linejoin="round"/>
<path d="M71.7268 134.303C71.7268 134.303 55.5899 169.518 55.5684 171.973C55.5609 173.133 55.9794 174.663 56.429 175.954C56.5457 176.296 56.5925 176.658 56.5664 177.019C56.5403 177.379 56.442 177.731 56.2773 178.053C56.1126 178.375 55.8849 178.66 55.6077 178.892C55.3305 179.124 55.0094 179.298 54.6637 179.404L34.654 185.551C34.059 185.733 33.4173 185.687 32.8548 185.421C32.2923 185.154 31.8497 184.687 31.6138 184.112C31.4069 183.606 31.3715 183.047 31.5129 182.52C31.6544 181.993 31.965 181.527 32.3969 181.193L47.2429 169.72L55.2715 129.32L71.7268 134.303Z" fill="#E5E5E5" stroke="black" stroke-width="0.5" stroke-linecap="round" stroke-linejoin="round"/>
<path d="M59.7294 179.219C59.7819 179.418 59.7946 179.625 59.7667 179.829C59.7388 180.033 59.6709 180.229 59.567 180.407C59.463 180.584 59.325 180.739 59.1609 180.863C58.9968 180.987 58.8097 181.078 58.6106 181.129C55.1939 182.014 46.9619 184.125 43.9798 184.726C40.3372 185.458 33.5684 186.655 29.2577 186.77C20.6513 187.008 24.0885 185.146 31.732 179.693C39.9392 173.841 45.0191 171.368 45.0191 171.368L48.0119 181.305L58.6708 178.593C58.8942 178.536 59.131 178.57 59.3294 178.687C59.5278 178.804 59.6717 178.996 59.7294 179.219Z" fill="#666666" stroke="black" stroke-width="0.5" stroke-linecap="round" stroke-linejoin="round"/>
<path d="M28.1191 184.663C28.1191 184.663 31.7769 184.945 38.0552 183.658C44.8176 182.271 48.315 181.233 48.315 181.233" stroke="black" stroke-width="0.5" stroke-linecap="round" stroke-linejoin="round"/>
<path d="M44.0428 174.568C44.0428 174.568 43.9213 175.773 44.5893 178.011C45.2574 180.248 45.9276 181.876 45.9276 181.876" stroke="black" stroke-width="0.5" stroke-linecap="round" stroke-linejoin="round"/>
<path d="M41.4229 175.601C41.4229 175.601 41.2884 176.756 41.9306 178.887C42.5728 181.019 43.2215 182.572 43.2215 182.572" stroke="black" stroke-width="0.5" stroke-linecap="round" stroke-linejoin="round"/>
<path d="M38.6314 176.835C38.6314 176.835 38.4658 177.867 39.0424 179.746C39.3793 180.847 39.7743 181.93 40.2257 182.989" stroke="black" stroke-width="0.5" stroke-linecap="round" stroke-linejoin="round"/>
<path d="M35.7616 178.026C35.7616 178.026 35.5755 178.983 36.1134 180.709C36.4257 181.721 36.7957 182.714 37.2215 183.684" stroke="black" stroke-width="0.5" stroke-linecap="round" stroke-linejoin="round"/>
<path d="M32.8214 179.704C32.8214 179.704 32.5858 180.469 33.0215 181.8C33.2756 182.583 33.5866 183.347 33.9521 184.086" stroke="black" stroke-width="0.5" stroke-linecap="round" stroke-linejoin="round"/>
<path d="M29.7695 181.361L30.6183 184.649" stroke="black" stroke-width="0.5" stroke-linecap="round" stroke-linejoin="round"/>
<path d="M76.3666 109.447L98.5925 150.443L125.995 156.324C125.995 156.324 125.958 183.258 103.182 182.961C73.3468 182.572 68.9006 138.968 68.9006 138.968L64.7406 152.165L48.6758 147.144L58.0642 111.638C60.3589 102.958 72.0871 101.554 76.3666 109.447Z" fill="#333333" stroke="black" stroke-width="0.5" stroke-linecap="round" stroke-linejoin="round"/>
<path d="M84.6362 134.303C84.6362 134.303 66.8921 172.386 66.6049 174.827C66.4704 175.98 66.7179 177.546 67.018 178.88C67.0961 179.233 67.1024 179.598 67.0366 179.953C66.9709 180.308 66.8345 180.647 66.6354 180.949C66.4363 181.25 66.1786 181.509 65.8777 181.709C65.5768 181.909 65.2388 182.047 64.8836 182.114L44.3156 186.02C43.704 186.137 43.071 186.02 42.541 185.693C42.011 185.367 41.6225 184.853 41.4518 184.255C41.3023 183.73 41.3292 183.17 41.5282 182.662C41.7271 182.154 42.0873 181.725 42.5535 181.441L58.5752 171.672L70.438 122.062L84.6362 134.303Z" fill="#E5E5E5" stroke="black" stroke-width="0.5" stroke-linecap="round" stroke-linejoin="round"/>
<path d="M68.3493 181.347C68.4029 181.545 68.4169 181.752 68.3902 181.956C68.3636 182.16 68.2969 182.357 68.194 182.535C68.0912 182.713 67.9542 182.869 67.7909 182.994C67.6275 183.119 67.4411 183.211 67.2424 183.264C63.8299 184.167 55.6109 186.327 52.6288 186.943C48.9894 187.696 42.2281 188.932 37.9184 189.076C29.3121 189.363 32.7396 187.482 40.3561 181.986C48.5322 176.087 53.5959 173.585 53.5959 173.585L56.6458 183.505L67.2886 180.731C67.5108 180.673 67.747 180.705 67.9457 180.82C68.1444 180.936 68.2895 181.125 68.3493 181.347Z" fill="#666666" stroke="black" stroke-width="0.5" stroke-linecap="round" stroke-linejoin="round"/>
<path d="M36.7705 186.972C36.7705 186.972 40.4282 187.232 46.7 185.909C53.4549 184.484 56.9469 183.426 56.9469 183.426" stroke="black" stroke-width="0.5" stroke-linecap="round" stroke-linejoin="round"/>
<path d="M52.6363 176.786C52.6363 176.786 52.5211 177.991 53.2021 180.222C53.8831 182.454 54.563 184.08 54.563 184.08" stroke="black" stroke-width="0.5" stroke-linecap="round" stroke-linejoin="round"/>
<path d="M50.0228 177.834C50.0228 177.834 49.8948 178.99 50.5489 181.116C51.2029 183.243 51.8613 184.795 51.8613 184.795" stroke="black" stroke-width="0.5" stroke-linecap="round" stroke-linejoin="round"/>
<path d="M47.2376 179.083C47.2376 179.083 47.0773 180.116 47.6679 181.988C48.01 183.087 48.4097 184.168 48.8653 185.225" stroke="black" stroke-width="0.5" stroke-linecap="round" stroke-linejoin="round"/>
<path d="M44.374 180.292C44.374 180.292 44.1943 181.25 44.7408 182.973C45.0594 183.984 45.4351 184.975 45.8661 185.943" stroke="black" stroke-width="0.5" stroke-linecap="round" stroke-linejoin="round"/>
<path d="M41.4437 181.986C41.4437 181.986 41.2124 182.752 41.6588 184.08C41.9173 184.863 42.233 185.625 42.6034 186.361" stroke="black" stroke-width="0.5" stroke-linecap="round" stroke-linejoin="round"/>
<path d="M38.4014 183.66L39.2695 186.944" stroke="black" stroke-width="0.5" stroke-linecap="round" stroke-linejoin="round"/>
<path d="M89.6999 109.994L110.608 140.072L113.336 137.013L153.684 143.62C153.684 143.62 147.501 183.005 109.782 182.961C87.0039 182.935 81.8498 144.49 81.8498 144.49L77.9673 153.742L61.0117 147.144L70.4012 111.638C72.6959 102.958 84.393 101.388 89.6999 109.994Z" fill="#333333" stroke="black" stroke-width="0.5" stroke-linecap="round" stroke-linejoin="round"/>
<path d="M139.991 138.556H184.02C184.461 138.556 184.897 138.656 185.294 138.847C185.691 139.039 186.04 139.318 186.314 139.663C186.589 140.008 186.782 140.411 186.879 140.841C186.976 141.271 186.975 141.717 186.876 142.147L178.137 180.002C177.988 180.648 177.625 181.224 177.106 181.637C176.588 182.049 175.945 182.274 175.282 182.274H131.25C130.809 182.274 130.373 182.174 129.976 181.983C129.579 181.791 129.23 181.513 128.956 181.167C128.681 180.822 128.488 180.42 128.391 179.989C128.293 179.559 128.294 179.113 128.393 178.683L137.132 140.828C137.281 140.182 137.645 139.605 138.164 139.193C138.684 138.78 139.327 138.556 139.991 138.556Z" fill="#999999" stroke="black" stroke-width="0.5" stroke-miterlimit="10" stroke-linecap="round" stroke-linejoin="round"/>
<path d="M142.738 138.556H186.769C187.21 138.556 187.645 138.656 188.042 138.847C188.439 139.039 188.788 139.318 189.063 139.663C189.337 140.008 189.53 140.411 189.628 140.841C189.725 141.271 189.724 141.717 189.625 142.147L180.886 180.002C180.737 180.648 180.374 181.224 179.855 181.637C179.336 182.049 178.693 182.274 178.03 182.274H133.996C133.555 182.274 133.119 182.174 132.722 181.983C132.325 181.791 131.976 181.513 131.702 181.167C131.427 180.822 131.234 180.42 131.137 179.989C131.039 179.559 131.04 179.113 131.14 178.683L139.878 140.828C140.027 140.182 140.392 139.605 140.911 139.192C141.43 138.78 142.074 138.555 142.738 138.556Z" fill="#808080" stroke="black" stroke-width="0.5" stroke-miterlimit="10" stroke-linecap="round" stroke-linejoin="round"/>
<path d="M119.581 153.742L108.426 136.797L87.9309 107.714C87.9309 107.714 83.5202 102.204 77.1935 104.664C70.8667 107.125 70.587 110.931 69.2175 116.113L64.6992 133.193" fill="#333333"/>
<path d="M119.581 153.742L108.426 136.797L87.9309 107.714C87.9309 107.714 83.5202 102.204 77.1935 104.664C70.8667 107.125 70.587 110.931 69.2175 116.113L64.6992 133.193" stroke="black" stroke-width="0.5" stroke-linecap="round" stroke-linejoin="round"/>
<path d="M85.7224 134.303L78.7588 151.855" stroke="black" stroke-width="0.5" stroke-linecap="round" stroke-linejoin="round"/>
<path d="M100.224 110.827L121.319 77.9073L124.304 70.7286C124.415 70.4628 124.591 70.2296 124.817 70.0511C125.043 69.8726 125.311 69.7548 125.595 69.7087L128.21 69.2881C128.264 69.0586 128.375 68.8467 128.534 68.6725C128.693 68.4983 128.894 68.3676 129.117 68.293L129.245 68.251L129.971 67.47C130.235 67.1876 130.58 66.9943 130.959 66.9172C131.338 66.8401 131.731 66.8829 132.084 67.0397L133.798 67.7927L131.186 74.0033L132.664 77.5781L135.805 74.9844C135.996 74.8278 136.241 74.7514 136.487 74.7715C136.733 74.7916 136.962 74.9065 137.125 75.092C137.277 75.2635 137.362 75.4838 137.364 75.7126C137.367 75.9414 137.288 76.1636 137.14 76.3388L133.703 80.4085C133.321 80.8613 132.824 81.2024 132.264 81.3961L126.51 82.7871L112.176 116.567C110.802 120.332 106.421 122.152 102.538 121.049C98.8003 119.985 98.4667 114.521 100.224 110.827Z" fill="#E5E5E5" stroke="black" stroke-width="0.5" stroke-miterlimit="10" stroke-linecap="round" stroke-linejoin="round"/>
<path d="M141.621 66.6814L133.503 78.741C133.408 78.8816 133.275 78.9919 133.12 79.0587C132.964 79.1255 132.792 79.1459 132.625 79.1175C132.459 79.0891 132.303 79.0131 132.179 78.8986C132.054 78.7841 131.965 78.636 131.922 78.4721L130.331 72.3831C130.3 72.2624 130.294 72.1364 130.315 72.0134C130.336 71.8904 130.383 71.7733 130.453 71.6699L138.571 59.6102C138.665 59.4697 138.798 59.3594 138.954 59.2926C139.109 59.2258 139.281 59.2054 139.448 59.2338C139.615 59.2622 139.77 59.3382 139.895 59.4527C140.019 59.5672 140.108 59.7153 140.151 59.8792L141.742 65.9703C141.773 66.0907 141.778 66.2163 141.757 66.3389C141.737 66.4615 141.69 66.5782 141.621 66.6814Z" fill="#333333" stroke="black" stroke-width="0.5" stroke-miterlimit="10" stroke-linecap="round" stroke-linejoin="round"/>
<path d="M131.75 66.9214L133.982 67.7315C134.227 67.8203 134.445 67.9697 134.616 68.1658C134.787 68.3618 134.906 68.5981 134.961 68.8524L135.455 71.1342C135.493 71.3175 135.462 71.5085 135.366 71.6698C135.271 71.8311 135.12 71.9512 134.941 72.0067C134.654 72.0928 134.346 72.0696 134.076 71.9416C133.805 71.8137 133.592 71.59 133.477 71.3138L132.767 69.6087" fill="#E5E5E5"/>
<path d="M131.75 66.9214L133.982 67.7315C134.227 67.8203 134.445 67.9697 134.616 68.1658C134.787 68.3618 134.906 68.5981 134.961 68.8524L135.455 71.1342C135.493 71.3175 135.462 71.5085 135.366 71.6698C135.271 71.8311 135.12 71.9512 134.941 72.0067C134.654 72.0928 134.346 72.0696 134.076 71.9416C133.805 71.8137 133.592 71.59 133.477 71.3138L132.767 69.6087" stroke="black" stroke-width="0.5" stroke-miterlimit="10" stroke-linecap="round" stroke-linejoin="round"/>
<path d="M129.118 68.2951L131.065 68.2521C131.413 68.186 131.773 68.2544 132.073 68.4435C132.372 68.6326 132.589 68.9283 132.679 69.2709L133.182 71.2127C133.233 71.4074 133.242 71.6107 133.208 71.8091C133.175 72.0074 133.099 72.1965 132.988 72.3638L131.922 73.9592C131.77 74.1863 131.541 74.3505 131.277 74.421C131.013 74.4915 130.732 74.4634 130.488 74.3422L129.519 73.8602" fill="#E5E5E5"/>
<path d="M129.118 68.2951L131.065 68.2521C131.413 68.186 131.773 68.2544 132.073 68.4435C132.372 68.6326 132.589 68.9283 132.679 69.2709L133.182 71.2127C133.233 71.4074 133.242 71.6107 133.208 71.8091C133.175 72.0074 133.099 72.1965 132.988 72.3638L131.922 73.9592C131.77 74.1863 131.541 74.3505 131.277 74.421C131.013 74.4915 130.732 74.4634 130.488 74.3422L129.519 73.8602" stroke="black" stroke-width="0.5" stroke-miterlimit="10" stroke-linecap="round" stroke-linejoin="round"/>
<path d="M125.282 69.7872L129.674 69.9367C129.979 69.9564 130.267 70.0878 130.483 70.306C130.698 70.5242 130.825 70.814 130.841 71.1201L130.928 72.7596C130.939 72.9596 130.902 73.1593 130.821 73.3426C130.741 73.526 130.618 73.6877 130.463 73.8149L129.253 74.8122C129.191 74.8629 129.119 74.9004 129.042 74.9226C128.966 74.9447 128.885 74.9509 128.805 74.9408C128.726 74.9308 128.649 74.9046 128.581 74.864C128.512 74.8234 128.452 74.7692 128.404 74.7046C128.242 74.4858 128.153 74.2214 128.151 73.9492C128.148 73.6769 128.231 73.4108 128.389 73.1888L128.94 72.411L127.548 71.4794" fill="#E5E5E5"/>
<path d="M125.282 69.7872L129.674 69.9367C129.979 69.9564 130.267 70.0878 130.483 70.306C130.698 70.5242 130.825 70.814 130.841 71.1201L130.928 72.7596C130.939 72.9596 130.902 73.1593 130.821 73.3426C130.741 73.526 130.618 73.6877 130.463 73.8149L129.253 74.8122C129.191 74.8629 129.119 74.9004 129.042 74.9226C128.966 74.9447 128.885 74.9509 128.805 74.9408C128.726 74.9308 128.649 74.9046 128.581 74.864C128.512 74.8234 128.452 74.7692 128.404 74.7046V74.7046C128.242 74.4858 128.153 74.2214 128.151 73.9492C128.148 73.6769 128.231 73.4108 128.389 73.1888L128.94 72.411L127.548 71.4794" stroke="black" stroke-width="0.5" stroke-miterlimit="10" stroke-linecap="round" stroke-linejoin="round"/>
<path d="M151.002 78.8026C151.002 78.8026 154.383 78.6842 155.509 76.467C156.636 74.2498 159.076 72.5705 159.076 72.5705C159.076 72.5705 164.52 68.1598 164.946 60.9692C165.372 53.7786 159.743 52.1638 159.743 52.1638C159.743 52.1638 156.96 46.4008 150.351 43.2767C144.961 40.7282 138.128 41.4834 137.056 46.645C135.852 52.4543 141.725 54.8813 141.725 54.8813L151.447 57.1049C152.115 57.2576 152.746 57.5409 153.303 57.9386C153.861 58.3364 154.334 58.8406 154.696 59.4223C155.057 60.0039 155.3 60.6514 155.41 61.3274C155.52 62.0034 155.495 62.6944 155.336 63.3607L154.307 67.6875C154.307 67.6875 156.895 66.4267 157.786 68.6557C158.714 70.9805 152.222 73.9454 152.222 73.9454L151.002 78.8026Z" fill="black" stroke="black" stroke-width="0.5" stroke-miterlimit="10" stroke-linecap="round" stroke-linejoin="round"/>
<path d="M155.457 70.9782L154.125 82.9259C153.946 84.5311 153.15 86.004 151.905 87.0333C150.661 88.0627 149.065 88.5681 147.455 88.4426C146.608 88.3773 145.785 88.1396 145.034 87.7443C144.283 87.3489 143.62 86.8042 143.088 86.1436C142.555 85.483 142.163 84.7204 141.935 83.9027C141.708 83.085 141.65 82.2294 141.766 81.3886L143.608 67.9843L155.457 70.9782Z" fill="#E5E5E5" stroke="black" stroke-width="0.5" stroke-miterlimit="10" stroke-linecap="round" stroke-linejoin="round"/>
<path d="M154.982 66.8966L156.537 57.9461C156.537 57.9461 148.071 59.4737 144.479 50.5446C140.611 50.8867 139.876 55.8224 139.876 55.8224C139.876 55.8224 137.946 65.3798 137.733 68.917C137.52 72.4542 139.767 77.2006 144.877 77.2006C149.987 77.2006 152.838 75.773 155.434 73.6074C158.029 71.4418 159.091 68.2564 158.153 67.1806C156.754 65.5788 154.982 66.8966 154.982 66.8966Z" fill="#E5E5E5" stroke="black" stroke-width="0.5" stroke-miterlimit="10" stroke-linecap="round" stroke-linejoin="round"/>
<path d="M150.894 59.8686L148.07 59.4738" stroke="black" stroke-width="0.5" stroke-linecap="round" stroke-linejoin="round"/>
<path d="M143.106 58.598L140.176 58.8658" stroke="black" stroke-width="0.5" stroke-linecap="round" stroke-linejoin="round"/>
<path d="M144.575 62.7806C144.575 62.7806 143.085 65.1473 143.236 66.293C143.388 67.4388 145.076 67.2408 145.076 67.2408" stroke="black" stroke-width="0.5" stroke-linecap="round" stroke-linejoin="round"/>
<path d="M147.144 64.859C147.648 64.859 148.057 64.4501 148.057 63.9457C148.057 63.4413 147.648 63.0323 147.144 63.0323C146.639 63.0323 146.23 63.4413 146.23 63.9457C146.23 64.4501 146.639 64.859 147.144 64.859Z" fill="black"/>
<path d="M140.302 63.9887C140.806 63.9887 141.215 63.5798 141.215 63.0753C141.215 62.5709 140.806 62.162 140.302 62.162C139.798 62.162 139.389 62.5709 139.389 63.0753C139.389 63.5798 139.798 63.9887 140.302 63.9887Z" fill="black"/>
<path d="M146.826 68.889L141.991 69.5345C141.991 69.5345 142.441 71.6022 144.54 71.4537C146.639 71.3053 146.826 68.889 146.826 68.889Z" fill="white" stroke="black" stroke-width="0.5" stroke-miterlimit="10" stroke-linecap="round" stroke-linejoin="round"/>
<path d="M139.854 66.6115C141.811 66.6115 143.397 65.0255 143.397 63.0689C143.397 61.1124 141.811 59.5264 139.854 59.5264C137.898 59.5264 136.312 61.1124 136.312 63.0689C136.312 65.0255 137.898 66.6115 139.854 66.6115Z" stroke="black" stroke-width="0.5" stroke-linecap="round" stroke-linejoin="round"/>
<path d="M148.298 68.0057C150.255 68.0057 151.841 66.4197 151.841 64.4632C151.841 62.5067 150.255 60.9206 148.298 60.9206C146.342 60.9206 144.756 62.5067 144.756 64.4632C144.756 66.4197 146.342 68.0057 148.298 68.0057Z" stroke="black" stroke-width="0.5" stroke-linecap="round" stroke-linejoin="round"/>
<path d="M110.801 137.842C110.847 137.196 112.664 136.793 114.119 136.75C115.363 136.713 116.227 136.849 118.377 137.288C119.393 137.494 120.811 136.937 121.598 135.423C122.454 133.783 122.624 133.822 122.017 132.072L120.639 129.147C119.165 125.691 116.799 122.688 113.783 120.448C113.17 119.993 109.157 117.265 105.321 115.239C102.486 113.743 95.8332 109.005 98.6937 104.279C98.6937 104.279 110.399 107.38 115.655 108.704C120.161 109.839 122.615 112.469 125.53 116.85L126.042 117.647C128.839 122.007 136.506 126.367 143.019 128.143C150.381 130.15 154.578 131.241 157.925 131.988C164.787 133.522 163.282 139.278 158.5 142.151C156.564 143.312 154.789 143.457 154.789 143.457C154.789 143.457 151.639 140.101 148.584 140.265C142.625 140.588 137.134 140.827 128.903 138.895C127.504 140.325 126.783 141.127 124.438 142.9C123.081 143.927 120.75 143.237 118.789 141.897C116.91 140.614 114.621 139.628 113.079 139.349C112.311 139.212 110.737 138.716 110.801 137.842Z" fill="#999999" stroke="black" stroke-width="0.5" stroke-miterlimit="10" stroke-linecap="round" stroke-linejoin="round"/>
<path d="M113.394 112.438C114.018 112.438 114.524 111.932 114.524 111.308C114.524 110.685 114.018 110.179 113.394 110.179C112.77 110.179 112.265 110.685 112.265 111.308C112.265 111.932 112.77 112.438 113.394 112.438Z" fill="black" stroke="black" stroke-width="0.5" stroke-linecap="round" stroke-linejoin="round"/>
<path d="M134.448 132.082C137.732 133.834 139.343 131.939 143.133 133.595C144.962 134.393 147.496 141.624 155.701 140.041C158.705 139.46 166.386 140.041 162.587 138.556C164.88 138.35 165.691 135.583 165.517 134.303C164.656 128.001 160.384 128.001 153.683 128.887C148.52 129.57 142.233 128.036 139.199 126.988C133.64 125.068 131.292 130.397 134.448 132.082Z" fill="#1A1A1A" stroke="black" stroke-width="0.5" stroke-linecap="round" stroke-linejoin="round"/>
<path d="M98.6938 104.278L101.394 105C101.394 105 101.333 106.614 100.247 107.068C99.1617 107.522 98.0246 107.197 98.0246 107.197C98.0246 107.197 97.9278 106.355 98.1107 105.671C98.2438 105.184 98.4398 104.715 98.6938 104.278Z" fill="black" stroke="black" stroke-width="0.5" stroke-linecap="round" stroke-linejoin="round"/>
<path d="M128.527 121.102C128.915 120.778 128.967 120.202 128.644 119.814C128.321 119.426 127.744 119.374 127.356 119.698L118.821 126.817C118.434 127.14 118.381 127.717 118.705 128.104C119.028 128.492 119.604 128.544 119.992 128.22L128.527 121.102Z" fill="#B3B3B3" stroke="black" stroke-width="0.5" stroke-linecap="round" stroke-linejoin="round"/>
<path d="M111.644 114.183C111.644 114.183 108.603 115.151 106.896 114.735C105.189 114.319 104.562 113.767 104.562 113.767" stroke="black" stroke-width="0.5" stroke-linecap="round" stroke-linejoin="round"/>
<path d="M122.278 114.636L134.607 137.739C134.788 138.08 135.834 143.045 135.539 143.456C134.286 145.204 129.771 147.998 124.438 142.901C117.848 136.601 115.496 118.845 118.306 114.968C119.87 112.816 121.917 113.959 122.278 114.636Z" fill="#1A1A1A" stroke="black" stroke-width="0.5" stroke-linecap="round" stroke-linejoin="round"/>
<path d="M163.283 110.476L162.812 132.377L131.943 134.691L123.688 131.71L118.883 131.008C118.883 131.008 115.482 133.555 115.911 134.269C116.341 134.983 117.671 134.429 117.671 134.429C117.671 134.429 117.134 136.563 117.809 136.613C118.485 136.664 118.687 136.481 118.687 136.481C118.687 136.481 118.55 137.987 118.973 138.143C119.396 138.299 119.923 138.125 119.923 138.125C119.923 138.125 119.856 139.904 120.583 139.869C121.309 139.833 121.608 138.626 121.608 138.626L126.643 140.8L164.993 145.286C175.166 145.188 179.908 140.589 179.426 121.959L177.812 106.992L163.283 110.476Z" fill="#E5E5E5" stroke="black" stroke-width="0.5" stroke-miterlimit="10" stroke-linecap="round" stroke-linejoin="round"/>
<path d="M123.239 131.653C123.239 131.653 119.283 131.612 118.584 132.339C117.884 133.066 117.549 135.053 117.549 135.053" stroke="black" stroke-width="0.5" stroke-miterlimit="10" stroke-linecap="round" stroke-linejoin="round"/>
<path d="M122.773 133.746C122.773 133.746 119.879 133.107 119.347 133.969C118.814 134.831 118.688 136.956 118.688 136.956" stroke="black" stroke-width="0.5" stroke-miterlimit="10" stroke-linecap="round" stroke-linejoin="round"/>
<path d="M122.485 136.634C122.485 136.634 120.673 136.17 120.168 136.794C119.703 137.366 120.12 139.505 120.12 139.505" stroke="black" stroke-width="0.5" stroke-miterlimit="10" stroke-linecap="round" stroke-linejoin="round"/>
<path d="M162.454 123.867L180.578 121.959C180.578 121.959 181.726 88.4565 168.922 86.945C159.02 84.0329 162.454 123.867 162.454 123.867Z" fill="white" stroke="black" stroke-width="0.5" stroke-miterlimit="10" stroke-linecap="round" stroke-linejoin="round"/>
<path d="M67.9688 26.7699C68.1258 26.7753 68.2807 26.7817 68.4367 26.7914C68.2818 26.7817 68.1258 26.7699 67.9688 26.7699Z" fill="#CCCCCC"/>
<path d="M69.2002 26.8441C69.4111 26.8627 69.6208 26.8842 69.8295 26.9086C69.6208 26.8839 69.4111 26.8634 69.2002 26.8441Z" fill="#CCCCCC"/>
<path d="M70.0596 26.9354C70.2833 26.9634 70.506 26.9957 70.7276 27.0301C70.506 26.9957 70.2833 26.9641 70.0596 26.9354Z" fill="#CCCCCC"/>
<path d="M86.0634 36.6423C85.8891 36.5211 85.713 36.4021 85.5352 36.2852L85.7127 36.1539C85.8318 36.3153 85.9486 36.4781 86.0634 36.6423Z" fill="#CCCCCC"/>
<path d="M80.0291 30.6931C79.5586 30.3754 79.0759 30.0745 78.5811 29.7905C79.0759 30.0717 79.5586 30.3725 80.0291 30.6931Z" fill="#4C4C4C"/>
<path d="M80.866 31.2881C80.5927 31.087 80.3141 30.889 80.0322 30.6986C80.3141 30.8858 80.5927 31.0837 80.866 31.2881Z" fill="#4C4C4C"/>
<path d="M81.6735 31.9164C81.5013 31.7755 81.3249 31.6367 81.1484 31.5012C81.3249 31.6356 81.497 31.7744 81.6735 31.9164Z" fill="#4C4C4C"/>
<path d="M85.7129 36.1542C85.7042 36.1412 85.6944 36.1281 85.6846 36.1161C85.6933 36.1292 85.7042 36.1412 85.7129 36.1542Z" fill="#4C4C4C"/>
<path d="M188.067 216.29C188.067 216.29 174.375 207.734 177.696 190.178C181.017 172.622 191.579 165.944 191.579 165.944C191.579 165.944 197.286 178.602 192.769 194.155C188.252 209.708 188.067 216.29 188.067 216.29Z" fill="#333333" stroke="black" stroke-width="0.5" stroke-linecap="round" stroke-linejoin="round"/>
<path d="M207.08 219.148C207.08 219.148 203.692 223.855 202.396 229.204C201.099 234.554 200.774 237.797 200.774 237.797" stroke="black" stroke-width="0.5" stroke-linecap="round" stroke-linejoin="round"/>
<path d="M207.08 219.148C207.08 219.148 205.661 204.03 220.68 196.493C235.699 188.956 246.721 193.038 246.721 193.038C246.721 193.038 240.514 204.531 226.31 210.029C212.105 215.528 207.08 219.148 207.08 219.148Z" fill="#4C4C4C" stroke="black" stroke-width="0.5" stroke-linecap="round" stroke-linejoin="round"/>
<path d="M254.112 215.977C254.112 215.977 234.658 223.043 221.202 222.233C207.746 221.423 197.534 218.776 197.534 218.776L203.208 210.097C203.208 210.097 218.124 204.724 231.093 207.642C244.063 210.561 254.112 215.977 254.112 215.977Z" fill="#333333" stroke="black" stroke-width="0.5" stroke-linecap="round" stroke-linejoin="round"/>
<path d="M194.092 210.097C194.092 210.097 188.121 192.481 203.882 179.245C219.643 166.008 233.939 167.755 233.939 167.755C233.939 167.755 229.798 183.209 214.425 193.789C199.052 204.37 194.092 210.097 194.092 210.097Z" fill="#999999" stroke="black" stroke-width="0.5" stroke-linecap="round" stroke-linejoin="round"/>
<path d="M194.092 210.097C194.092 210.097 188.121 192.481 203.882 179.245C219.643 166.008 233.939 167.755 233.939 167.755C233.939 167.755 217.016 177.794 207.342 188.969C195.134 203.077 194.092 210.097 194.092 210.097Z" fill="#4C4C4C" stroke="black" stroke-width="0.5" stroke-linecap="round" stroke-linejoin="round"/>
<path d="M198.181 232.609C198.181 232.609 195.061 226.448 194.918 219.963C194.775 213.478 195.911 210.097 195.911 210.097L208.067 211.388L198.181 232.609Z" fill="#4C4C4C" stroke="black" stroke-width="0.5" stroke-linecap="round" stroke-linejoin="round"/>
<path d="M222.013 220.612C222.013 220.612 215.041 215.04 211.798 214.179C208.556 213.317 195.911 210.097 195.911 210.097L201.527 209.203C204.365 208.752 206.938 207.27 208.753 205.042L211.798 201.302C211.798 201.302 216.499 203.589 219.58 208.777C222.661 213.966 222.013 220.612 222.013 220.612Z" fill="#999999" stroke="black" stroke-width="0.5" stroke-linecap="round" stroke-linejoin="round"/>
<path d="M194.926 207.376C194.926 207.376 192.275 212.534 191.788 218.017C191.301 223.5 194.128 234.23 194.128 234.23" stroke="black" stroke-width="0.5" stroke-linecap="round" stroke-linejoin="round"/>
<path d="M198.181 234.23C198.181 234.23 194.452 232.609 193.641 227.097C192.831 221.585 192.83 217.545 192.83 217.545C192.83 217.545 177.241 214.318 177.254 215.357C177.267 216.396 186.337 226.286 188.854 228.394C191.372 230.503 198.181 234.23 198.181 234.23Z" fill="#333333" stroke="black" stroke-width="0.5" stroke-linecap="round" stroke-linejoin="round"/>
<path d="M192.83 217.545L185.256 214.894C182.326 213.87 179.577 212.389 177.109 210.507L172.079 206.67C172.079 206.67 165.432 213.272 164.46 223.102C163.487 232.933 164.46 235.203 164.46 235.203C164.46 235.203 175.808 225.269 180.834 223.102C185.86 220.936 192.83 217.545 192.83 217.545Z" fill="#999999" stroke="black" stroke-width="0.5" stroke-linecap="round" stroke-linejoin="round"/>
<path d="M215.218 229.863V230.261C215.218 234.917 214.295 239.526 212.504 243.824C210.713 248.122 208.089 252.022 204.783 255.301C202.506 257.56 199.437 258.841 196.23 258.872C193.022 258.903 189.929 257.68 187.609 255.465L187.513 255.374C184.064 252.08 181.319 248.121 179.443 243.736C177.567 239.352 176.6 234.632 176.601 229.863H215.218Z" fill="#E5E5E5" stroke="black" stroke-width="0.5" stroke-linecap="round" stroke-linejoin="round"/>
<path d="M96.2351 65.9699L96.2162 65.9615H96.196L30.7063 68.5555C23.5142 68.8404 17.5283 63.0629 17.5283 55.8346V37.3369C17.5281 34.0472 18.7961 30.8852 21.0665 28.5135C23.337 26.1419 26.4336 24.7449 29.7071 24.6154L107.553 21.5313C114.746 21.2463 120.731 27.0246 120.731 34.2528V52.7512C120.73 56.0405 119.462 59.2019 117.191 61.5729C114.921 63.9439 111.824 65.3405 108.551 65.47L107.2 65.5232L107.061 65.5288L107.13 65.6541L110.695 72.3663L96.2351 65.9699Z" fill="white" stroke="black" stroke-width="0.5" stroke-linecap="round" stroke-linejoin="round"/>
<path d="M38.1502 36.8044L36.4958 39.4806C36.455 39.5466 36.4752 39.6334 36.5409 39.6744L37.5101 40.2785C37.5759 40.3195 37.6623 40.2992 37.7031 40.2331L39.3575 37.5569C39.3983 37.4909 39.3781 37.4041 39.3123 37.3631L38.3432 36.759C38.2774 36.718 38.191 36.7383 38.1502 36.8044Z" fill="#4C4C4C"/>
<path d="M37.6386 36.4436L37.2628 37.0514C37.2142 37.1319 37.199 37.2284 37.2205 37.32C37.242 37.4117 37.2985 37.4912 37.3779 37.5415L39.0973 38.6134C39.1775 38.6622 39.2736 38.6775 39.3649 38.6559C39.4561 38.6343 39.5353 38.5775 39.5853 38.4978L39.9612 37.8901C39.9934 37.8385 40.0117 37.7794 40.0142 37.7186C40.0172 37.6549 40.0032 37.5915 39.9737 37.535C39.9441 37.4785 39.9001 37.4309 39.8461 37.3972L38.1267 36.3253C38.0726 36.292 38.0106 36.2738 37.9471 36.2724C37.8837 36.2711 37.821 36.2867 37.7655 36.3176C37.7131 36.3478 37.6693 36.3913 37.6386 36.4436Z" fill="#CCCCCC"/>
<path d="M27.3728 37.1876L26.4494 37.8601C26.3867 37.9057 26.3728 37.9937 26.4182 38.0566L28.2598 40.6066C28.3053 40.6695 28.3929 40.6835 28.4556 40.6379L29.379 39.9654C29.4417 39.9198 29.4556 39.8318 29.4102 39.7689L27.5686 37.2189C27.5231 37.156 27.4355 37.142 27.3728 37.1876Z" fill="#4C4C4C"/>
<path d="M28.0725 36.7895L28.4909 37.3685C28.5461 37.4454 28.5688 37.5411 28.5541 37.6347C28.5393 37.7284 28.4883 37.8124 28.4121 37.8684L26.7736 39.0586C26.697 39.1142 26.6015 39.137 26.5082 39.1221C26.4149 39.1071 26.3313 39.0556 26.2757 38.9788L25.8574 38.3998C25.8216 38.3506 25.7993 38.293 25.7925 38.2325C25.785 38.1692 25.7945 38.105 25.8198 38.0465C25.8452 37.9881 25.8856 37.9375 25.9369 37.8999L27.5747 36.7097C27.6262 36.6725 27.6868 36.6497 27.75 36.6436C27.8132 36.6376 27.8769 36.6486 27.9345 36.6754C27.9897 36.7005 28.0373 36.7399 28.0725 36.7895Z" fill="#CCCCCC"/>
<path d="M33.5645 34.5301L31.9995 34.5866C31.8671 34.5914 31.7636 34.703 31.7684 34.836L31.9279 39.2902C31.9327 39.4231 32.0439 39.527 32.1763 39.5222L33.7413 39.4657C33.8737 39.4609 33.9771 39.3493 33.9724 39.2163L33.8128 34.7621C33.8081 34.6292 33.6969 34.5253 33.5645 34.5301Z" fill="#4C4C4C"/>
<path d="M34.7564 34.6463L34.7933 35.6755C34.7979 35.8119 34.7484 35.9445 34.6557 36.0444C34.5631 36.1442 34.4348 36.2032 34.299 36.2083L31.388 36.314C31.2521 36.3183 31.12 36.2686 31.0205 36.1756C30.921 36.0827 30.8621 35.954 30.8567 35.8176L30.8197 34.7884C30.8164 34.7009 30.8356 34.6141 30.8755 34.5363C30.9173 34.4548 30.98 34.3859 31.057 34.3367C31.1341 34.2875 31.2228 34.2597 31.3141 34.2563L34.2258 34.1513C34.317 34.1481 34.4075 34.1694 34.4878 34.2131C34.5681 34.2568 34.6353 34.3213 34.6825 34.3998C34.7278 34.4742 34.7533 34.5591 34.7564 34.6463Z" fill="#CCCCCC"/>
<path d="M36.3308 37.7326C35.222 37.3443 34.0507 37.1676 32.8773 37.2117C27.6542 37.4 23.5579 41.8207 23.7434 47.0654C23.7684 47.7801 23.8737 48.4896 24.0571 49.1806C25.1727 53.3716 29.0599 56.3976 33.5564 56.2352C38.7795 56.0461 42.8758 51.6262 42.6904 46.3814C42.6196 44.4647 41.9749 42.614 40.8403 41.0711C39.7057 39.5281 38.1341 38.3646 36.3308 37.7326ZM33.5055 54.7341C31.8446 54.7926 30.2067 54.33 28.8197 53.4107C27.4326 52.4913 26.3653 51.1608 25.7661 49.6042C25.4481 48.7761 25.2697 47.9006 25.2383 47.0136C25.1646 44.8897 25.9329 42.8232 27.3747 41.2674C28.8165 39.7117 30.8139 38.7937 32.9289 38.7149C34.2038 38.667 35.4713 38.9283 36.6243 39.4766C37.9484 40.1048 39.0752 41.0863 39.8815 42.3138C40.6877 43.5414 41.1425 44.9679 41.1962 46.4374C41.2693 48.561 40.5007 50.6269 39.059 52.1823C37.6172 53.7376 35.6201 54.6553 33.5055 54.7341Z" fill="#999999"/>
<path d="M41.2618 46.4325C41.3362 48.5741 40.5616 50.6578 39.1079 52.2266C37.6542 53.7954 35.6402 54.7211 33.5077 54.8006C31.3751 54.8751 29.3001 54.0972 27.738 52.6376C26.1758 51.1779 25.254 49.1556 25.1748 47.0144C25.1004 44.8728 25.875 42.7891 27.3287 41.2203C28.7824 39.6515 30.7964 38.7258 32.9289 38.6463C35.0616 38.5716 37.1366 39.3494 38.6988 40.8091C40.261 42.2688 41.1827 44.2912 41.2618 46.4325Z" fill="white"/>
<path d="M33.6416 38.6547C33.7155 38.6589 33.7887 38.6638 33.8619 38.6694C33.7887 38.661 33.7155 38.6547 33.6416 38.6547Z" fill="#CCCCCC"/>
<path d="M33.9434 38.6735C34.0215 38.6805 34.0995 38.6889 34.1776 38.698C34.0995 38.6889 34.0215 38.6805 33.9434 38.6735Z" fill="#CCCCCC"/>
<path d="M37.4725 39.8652C37.3044 39.7601 37.1315 39.6607 36.9551 39.5669C37.1312 39.6588 37.3037 39.7583 37.4725 39.8652Z" fill="#4C4C4C"/>
<path d="M37.772 40.0626C37.6737 39.9926 37.574 39.9296 37.4736 39.8666C37.5747 39.9296 37.6737 39.9954 37.772 40.0626Z" fill="#4C4C4C"/>
<path d="M33.5716 47.5675C34.0391 47.3586 34.2496 46.8087 34.0416 46.3391C33.8336 45.8696 33.2859 45.6583 32.8183 45.8671C32.3507 46.076 32.1403 46.6259 32.3483 47.0955C32.5563 47.565 33.104 47.7763 33.5716 47.5675Z" fill="black" stroke="black" stroke-width="0.5" stroke-miterlimit="10" stroke-linecap="round" stroke-linejoin="round"/>
<path d="M39.527 41.7087C38.7471 40.718 37.7467 39.9248 36.6061 39.3928C35.4655 38.8608 34.2166 38.6049 32.9597 38.6455H32.9289C30.7963 38.7251 28.7822 39.6509 27.3285 41.2198C25.8748 42.7887 25.1003 44.8727 25.1749 47.0143C25.2541 49.1556 26.1758 51.1778 27.738 52.6375C29.3001 54.0972 31.3751 54.8751 33.5077 54.8006C35.6402 54.721 37.6542 53.7953 39.1079 52.2266C40.5616 50.6578 41.3362 48.574 41.2618 46.4325C41.2019 44.712 40.5939 43.0563 39.527 41.7087Z" fill="white" stroke="black" stroke-width="0.5" stroke-linecap="round" stroke-linejoin="round"/>
<path d="M33.162 46.1346C32.9618 46.1423 32.7729 46.2292 32.6365 46.3765C32.5 46.5237 32.4272 46.7192 32.434 46.9202C32.4413 47.1212 32.5278 47.3112 32.6745 47.4483C32.8212 47.5853 33.0161 47.6583 33.2163 47.6511C33.4162 47.6433 33.6048 47.5562 33.7409 47.4089C33.8769 47.2617 33.9493 47.0663 33.9422 46.8656C33.9347 46.6649 33.8485 46.4754 33.7023 46.3384C33.556 46.2015 33.3618 46.1282 33.162 46.1346Z" fill="#B3B3B3" stroke="black" stroke-width="0.5" stroke-miterlimit="10" stroke-linecap="round" stroke-linejoin="round"/>
<path d="M39.4219 41.7958L39.3984 41.7655L39.3441 41.6964L39.3387 41.6895L39.2717 41.6094L39.2569 41.5915L39.1953 41.5183C39.1923 41.514 39.1889 41.5101 39.1852 41.5066C39.1658 41.4831 39.145 41.4596 39.1249 41.4375L39.1014 41.4106L39.0491 41.3519C39.0417 41.3429 39.0337 41.3346 39.0256 41.3257L38.968 41.2628L38.9532 41.2463L38.8862 41.1772L38.8748 41.1648L38.8151 41.1027L38.7896 41.0778L38.7226 41.0088L38.7192 41.0053L38.6522 40.9363L38.6247 40.91C38.6015 40.887 38.578 40.864 38.5543 40.841L38.4698 40.763C38.4408 40.7367 38.4119 40.7112 38.3833 40.6863L38.3029 40.6173L38.2935 40.609L38.207 40.54C38.1775 40.5151 38.1473 40.4909 38.1172 40.4668C38.087 40.4426 38.0568 40.4191 38.0267 40.3977C37.9668 40.3517 37.9064 40.3057 37.8456 40.2597L37.8409 40.2562L37.7524 40.192L37.7477 40.1885C37.6532 40.1195 37.5573 40.0574 37.4608 39.9952C37.2985 39.8917 37.1327 39.7936 36.9633 39.7011L36.8621 39.6472H36.858L36.7581 39.5962C36.7065 39.5699 36.6542 39.5444 36.6019 39.5195L36.5496 39.4947L36.4437 39.4463L36.3907 39.4229C36.3552 39.4077 36.3197 39.3918 36.2835 39.3773L36.2298 39.3545L36.1219 39.3117L36.0676 39.2903C36.0495 39.2827 36.0314 39.2765 36.0133 39.2696L35.908 39.2309H35.9013L35.794 39.1936L35.7216 39.1695L35.6827 39.1564L35.5782 39.1239L35.5238 39.1073C35.4695 39.0908 35.4152 39.0756 35.3603 39.0604L35.3053 39.0459L35.2557 39.0321L35.084 38.99L35.0304 38.9775C34.9365 38.9561 34.8426 38.9375 34.7481 38.9195L34.6911 38.9092L34.6348 38.8995L34.5369 38.8836L34.5088 38.8788C34.4746 38.874 34.4417 38.8684 34.4069 38.8643L34.2922 38.8491C34.2171 38.8401 34.142 38.8319 34.0669 38.825L33.9892 38.818C33.9221 38.8125 33.8484 38.8077 33.7773 38.8035H33.7102L33.5943 38.7987H33.5185C33.4662 38.7987 33.4139 38.7987 33.3609 38.7987H33.2939C33.2349 38.7987 33.2543 38.7946 33.1953 38.7987L33.1954 41.0398V46.9799L39.0813 42.1121L39.3743 41.8711L39.4319 41.8235L39.4219 41.7958Z" fill="#E5E5E5"/>
<path d="M33.1668 39.7409L33.1661 39.7409C33.0668 39.7445 32.9892 39.8283 32.9928 39.928L33.0236 40.7872C33.0271 40.8869 33.1105 40.9648 33.2098 40.9612L33.2105 40.9612C33.3098 40.9576 33.3874 40.8739 33.3838 40.7742L33.353 39.9149C33.3495 39.8152 33.2661 39.7373 33.1668 39.7409Z" fill="black"/>
<path d="M28.7677 42.812L28.1401 42.2267C28.1053 42.1939 28.0848 42.1487 28.0831 42.1008C28.0814 42.0529 28.0987 42.0063 28.1311 41.9711C28.1472 41.9537 28.1665 41.9397 28.1881 41.9298C28.2096 41.9199 28.2328 41.9144 28.2564 41.9136C28.2801 41.9127 28.3036 41.9166 28.3258 41.9249C28.348 41.9332 28.3683 41.9458 28.3856 41.962L29.0131 42.5473C29.0305 42.5635 29.0445 42.5829 29.0544 42.6044C29.0643 42.626 29.0699 42.6493 29.0708 42.6731C29.0717 42.6968 29.0679 42.7205 29.0597 42.7428C29.0515 42.765 29.0389 42.7855 29.0228 42.8029C28.9901 42.8379 28.9449 42.8585 28.8971 42.8602C28.8493 42.8619 28.8028 42.8446 28.7677 42.812Z" fill="black"/>
<path d="M27.303 46.7453L26.4474 46.7762C26.3481 46.7798 26.2705 46.8635 26.274 46.9632L26.2741 46.9639C26.2776 47.0636 26.361 47.1415 26.4603 47.138L27.316 47.1071C27.4153 47.1035 27.4929 47.0197 27.4893 46.92L27.4893 46.9193C27.4857 46.8196 27.4023 46.7417 27.303 46.7453Z" fill="black"/>
<path d="M28.4855 51.8306C28.468 51.8145 28.454 51.7951 28.4441 51.7735C28.4342 51.7519 28.4287 51.7285 28.4278 51.7048C28.427 51.681 28.4309 51.6573 28.4392 51.635C28.4475 51.6128 28.4602 51.5924 28.4764 51.5751L29.0593 50.945C29.0919 50.91 29.137 50.8894 29.1847 50.8877C29.2324 50.886 29.2788 50.9033 29.3138 50.9358C29.3486 50.9686 29.3691 51.0139 29.3708 51.0617C29.3725 51.1096 29.3552 51.1562 29.3228 51.1914L28.7399 51.8215C28.7073 51.8565 28.6622 51.8771 28.6146 51.8788C28.5669 51.8805 28.5205 51.8632 28.4855 51.8306Z" fill="black"/>
<path d="M33.1668 52.465L33.1661 52.4651C33.0668 52.4687 32.9892 52.5524 32.9928 52.6521L33.0236 53.5113C33.0271 53.611 33.1105 53.6889 33.2098 53.6853L33.2105 53.6853C33.3098 53.6817 33.3874 53.598 33.3838 53.4983L33.353 52.6391C33.3495 52.5394 33.2661 52.4615 33.1668 52.465Z" fill="black"/>
<path d="M38.0499 51.4847L37.4224 50.8994C37.3875 50.8667 37.367 50.8214 37.3653 50.7735C37.3637 50.7256 37.3809 50.679 37.4133 50.6439C37.4459 50.6089 37.491 50.5883 37.5387 50.5866C37.5864 50.5849 37.6328 50.6022 37.6678 50.6348L38.2953 51.2201C38.3302 51.2528 38.3507 51.2981 38.3524 51.346C38.3541 51.3939 38.3368 51.4405 38.3044 51.4756C38.2718 51.5106 38.2267 51.5312 38.179 51.5329C38.1313 51.5346 38.0849 51.5173 38.0499 51.4847Z" fill="black"/>
<path d="M39.5889 46.746L38.7326 46.7804C38.6333 46.7844 38.556 46.8685 38.5599 46.9683L38.56 46.969C38.5639 47.0688 38.6477 47.1464 38.747 47.1424L39.6033 47.108C39.7026 47.104 39.7799 47.0199 39.776 46.9202L39.7759 46.9195C39.772 46.8197 39.6882 46.7421 39.5889 46.746Z" fill="black"/>
<path d="M37.1226 42.5102C37.0877 42.4774 37.0672 42.4322 37.0655 42.3843C37.0638 42.3364 37.0811 42.2898 37.1135 42.2546L37.6964 41.6245C37.729 41.5895 37.7741 41.569 37.8218 41.5673C37.8694 41.5655 37.9159 41.5829 37.9509 41.6154C37.9857 41.6482 38.0062 41.6934 38.0079 41.7413C38.0096 41.7892 37.9924 41.8358 37.9599 41.871L37.3771 42.5011C37.3444 42.5361 37.2994 42.5567 37.2517 42.5584C37.204 42.5601 37.1576 42.5427 37.1226 42.5102Z" fill="black"/>
<path d="M32.6345 29.7401L32.5836 29.742C32.4797 29.7457 32.3985 29.8334 32.4023 29.9377L32.4821 32.1669C32.4859 32.2712 32.5731 32.3528 32.677 32.349L32.7279 32.3472C32.8318 32.3434 32.913 32.2558 32.9093 32.1515L32.8294 29.9223C32.8257 29.8179 32.7384 29.7364 32.6345 29.7401Z" fill="#CCCCCC"/>
<path d="M30.4299 31.2205C30.4094 31.2013 30.3852 31.1863 30.3589 31.1764C30.3326 31.1665 30.3045 31.1619 30.2764 31.1628C30.2483 31.1638 30.2207 31.1703 30.1951 31.1821C30.1695 31.1938 30.1465 31.2104 30.1273 31.2311C30.0888 31.2729 30.0684 31.3284 30.0705 31.3853C30.0725 31.4422 30.097 31.496 30.1384 31.5349L31.5741 32.8764C31.5946 32.8956 31.6188 32.9107 31.6451 32.9206C31.6714 32.9305 31.6994 32.9351 31.7275 32.9341C31.7556 32.9331 31.7833 32.9266 31.8089 32.9149C31.8345 32.9032 31.8575 32.8865 31.8767 32.8659C31.9152 32.824 31.9356 32.7686 31.9335 32.7116C31.9314 32.6547 31.907 32.6009 31.8655 32.562L30.4299 31.2205Z" fill="#CCCCCC"/>
<path d="M35.1916 31.0484C35.15 31.0098 35.0949 30.9893 35.0383 30.9914C34.9817 30.9935 34.9283 31.018 34.8897 31.0596L33.5531 32.5012C33.5146 32.543 33.4941 32.5985 33.4962 32.6554C33.4983 32.7123 33.5228 32.7661 33.5642 32.805C33.6059 32.8437 33.6611 32.8642 33.7178 32.8621C33.7745 32.86 33.8281 32.8354 33.8668 32.7938L35.2028 31.3515C35.2412 31.3098 35.2616 31.2545 35.2595 31.1976C35.2574 31.1408 35.233 31.0871 35.1916 31.0484Z" fill="#CCCCCC"/>
<path d="M38.0623 40.2733C38 40.2266 37.9372 40.1799 37.874 40.1332C37.9377 40.179 38.0005 40.2257 38.0623 40.2733Z" fill="#4C4C4C"/>
<path d="M48.3936 38.581L48.411 39.0669L50.1255 39.0053L50.2852 43.4617L50.859 43.4407L50.6994 38.9843L52.4139 38.9227L52.3965 38.4361L48.3936 38.581Z" fill="black"/>
<path d="M53.6843 41.3368C53.6717 40.9989 53.7589 40.727 53.9457 40.5212C54.1326 40.3153 54.3883 40.2063 54.7127 40.1942C54.9916 40.1844 55.1971 40.2523 55.3291 40.3979C55.4611 40.5436 55.5341 40.7783 55.548 41.1023L55.6254 43.2685L56.1832 43.2482L56.1044 41.0547C56.071 40.1342 55.6373 39.6887 54.8033 39.7181C54.5271 39.723 54.2583 39.8089 54.0301 39.9653C53.8672 40.0793 53.7367 40.234 53.6515 40.414L53.5734 38.2268L53.0156 38.2471L53.199 43.3581L53.7568 43.3378L53.6843 41.3368Z" fill="black"/>
<path d="M60.0825 41.2374C60.0797 40.9223 60.0083 40.6117 59.8734 40.3272C59.7579 40.089 59.5738 39.8911 59.3448 39.7594C59.0991 39.6262 58.821 39.565 58.5423 39.583C58.2416 39.588 57.9484 39.6783 57.6965 39.8434C57.4539 40.0068 57.2619 40.2353 57.1422 40.5029C57.0095 40.8041 56.9502 41.1327 56.9693 41.4614C56.9723 41.7969 57.0565 42.1266 57.2148 42.422C57.3573 42.6805 57.5747 42.8895 57.8381 43.0213C58.1302 43.161 58.453 43.2234 58.7759 43.2027C59.0242 43.1944 59.2693 43.1432 59.5003 43.0514C59.7144 42.9729 59.9095 42.8498 60.0728 42.6902L59.8713 42.2876C59.7161 42.4261 59.5385 42.5372 59.3462 42.616C59.1613 42.6897 58.965 42.7309 58.7661 42.7378C58.3794 42.7518 58.0814 42.6468 57.8722 42.4227C57.6631 42.1987 57.5511 41.8689 57.5362 41.4334L60.0867 41.3417L60.0825 41.2374ZM57.7858 40.4049C57.9685 40.1599 58.2281 40.0313 58.5646 40.0191C58.8872 40.0075 59.1366 40.1074 59.3128 40.3188C59.4609 40.513 59.5496 40.7463 59.568 40.9902L57.546 41.0638C57.566 40.8266 57.6488 40.5992 57.7858 40.4049Z" fill="black"/>
<path d="M62.7717 42.2071C62.9078 42.4632 63.1149 42.6743 63.3679 42.8148C63.6369 42.9577 63.9398 43.0236 64.2436 43.0052C64.5479 43.0015 64.8453 42.9138 65.1033 42.7518C65.3456 42.5936 65.537 42.3681 65.6542 42.1028C65.786 41.798 65.8443 41.4662 65.8243 41.1345C65.8198 40.8032 65.7382 40.4776 65.5858 40.1837C65.4504 39.9259 65.243 39.7135 64.989 39.5724C64.7201 39.4298 64.4175 39.364 64.1139 39.382C63.8099 39.3857 63.5128 39.4731 63.2549 39.6348C63.0118 39.7938 62.8201 40.0205 62.7034 40.2873C62.5724 40.5911 62.5144 40.9216 62.534 41.2521C62.5373 41.5848 62.6187 41.912 62.7717 42.2071ZM63.3518 40.2299C63.5345 39.9909 63.7941 39.8656 64.1307 39.8539C64.4672 39.8422 64.734 39.9484 64.9311 40.1725C65.1282 40.397 65.2346 40.7237 65.2504 41.1527C65.2658 41.5924 65.1844 41.9301 65.0064 42.1658C64.8284 42.4015 64.5685 42.5256 64.2269 42.5382C63.881 42.5508 63.6108 42.4458 63.416 42.2232C63.2212 42.0005 63.1159 41.6696 63.1001 41.2304C63.0848 40.8014 63.1687 40.4679 63.3518 40.2299Z" fill="black"/>
<path d="M69.7485 40.0471C69.6195 39.792 69.4225 39.5778 69.1796 39.4282C68.934 39.2823 68.6508 39.2126 68.3659 39.228C68.0802 39.2303 67.8025 39.3231 67.5724 39.4933C67.3959 39.6298 67.2638 39.8161 67.1931 40.0282L67.1108 39.3568L66.5781 39.3764C66.6075 39.5386 66.6285 39.7021 66.6409 39.8665C66.6534 40.031 66.6632 40.1942 66.6688 40.3566L66.8124 44.3684L67.3702 44.3488L67.2935 42.2022C67.3807 42.3836 67.5154 42.5378 67.6833 42.6482C67.9245 42.8023 68.2081 42.8758 68.4935 42.8582C68.7787 42.8544 69.0568 42.7684 69.2946 42.6103C69.5255 42.4495 69.706 42.2258 69.8147 41.9655C69.9414 41.6618 69.9973 41.333 69.9779 41.0042C69.9749 40.6718 69.8965 40.3445 69.7485 40.0471ZM69.151 42.0145C68.9704 42.2533 68.7117 42.3779 68.3757 42.3905C68.0396 42.4031 67.7607 42.2953 67.5675 42.0684C67.3744 41.8416 67.2712 41.5125 67.2559 41.0826C67.2405 40.6528 67.3207 40.3181 67.4964 40.08C67.6721 39.842 67.9336 39.7167 68.2794 39.7041C68.6252 39.6915 68.8825 39.8014 69.0798 40.0331C69.2772 40.2649 69.3839 40.5932 69.3992 41.0189C69.4145 41.4446 69.3316 41.7765 69.151 42.0152V42.0145Z" fill="black"/>
<path d="M73.7501 40.7439C73.7473 40.4288 73.6759 40.1181 73.5409 39.8337C73.4249 39.5954 73.2406 39.3975 73.0117 39.2652C72.7658 39.1324 72.4878 39.0715 72.2092 39.0894C71.9088 39.0943 71.6158 39.1843 71.3641 39.3492C71.1215 39.5126 70.9294 39.7411 70.8098 40.0087C70.6769 40.3098 70.6174 40.6384 70.6362 40.9672C70.6393 41.3026 70.7235 41.6323 70.8816 41.9278C71.0248 42.1863 71.2423 42.3954 71.5057 42.5278C71.7977 42.6671 72.1201 42.7295 72.4428 42.7091C72.6912 42.7002 72.9364 42.649 73.1679 42.5579C73.3817 42.4792 73.5765 42.3561 73.7397 42.1966L73.5382 41.7941C73.3833 41.9325 73.2059 42.0433 73.0138 42.1217C72.8288 42.1961 72.6322 42.2373 72.433 42.2436C72.0463 42.2576 71.7483 42.1525 71.5391 41.9285C71.3348 41.7093 71.2233 41.3789 71.2038 40.9399L73.7536 40.8475L73.7501 40.7439ZM71.4534 39.9149C71.636 39.6698 71.8957 39.541 72.2322 39.5284C72.5544 39.5172 72.8035 39.6171 72.9797 39.8281C73.1282 40.0223 73.217 40.256 73.2349 40.5002L71.2128 40.5702C71.2335 40.3342 71.3165 40.1079 71.4534 39.9149Z" fill="black"/>
<path d="M76.4763 38.9767C76.427 38.9645 76.3769 38.9558 76.3264 38.9508C76.2698 38.9458 76.213 38.9444 76.1562 38.9466C75.8967 38.9536 75.6463 39.0444 75.4423 39.2057C75.2792 39.3352 75.1593 39.5115 75.0985 39.7112L75.019 39.0712L74.4863 39.0908C74.5157 39.253 74.5367 39.4166 74.5491 39.5809C74.5617 39.7455 74.5714 39.9079 74.577 40.071L74.6669 42.5838L75.2247 42.5635L75.155 40.5709C75.1483 40.3939 75.176 40.2172 75.2366 40.0507C75.2962 39.8848 75.4014 39.7392 75.5399 39.6306C75.7065 39.5109 75.9068 39.4477 76.1116 39.45C76.2359 39.4433 76.3603 39.4578 76.4798 39.4927L76.4763 38.9767Z" fill="black"/>
<path d="M79.4844 38.9101L79.5053 39.5081C79.4185 39.3325 79.2866 39.1834 79.1232 39.0761C78.8798 38.921 78.5937 38.8475 78.3061 38.866C78.0208 38.871 77.7434 38.9609 77.5091 39.1244C77.2778 39.2905 77.0976 39.5186 76.989 39.7825C76.865 40.0882 76.8106 40.4178 76.83 40.7473C76.8341 41.0761 76.9108 41.3999 77.0545 41.6953C77.1783 41.948 77.3735 42.1584 77.6158 42.3002C77.8655 42.4406 78.15 42.5064 78.4358 42.49C78.7237 42.4885 79.0038 42.3959 79.2362 42.2253C79.3906 42.1059 79.5109 41.9477 79.5848 41.7667L79.6071 42.3968L80.1601 42.3765L80.0353 38.8849L79.4844 38.9101ZM79.3052 41.6442C79.1295 41.885 78.8711 42.0115 78.5299 42.0237C78.1887 42.0358 77.9184 41.9296 77.719 41.7051C77.5196 41.4811 77.4122 41.156 77.3968 40.7298C77.3815 40.3037 77.4652 39.9683 77.6479 39.7237C77.8305 39.4782 78.0925 39.3494 78.4337 39.3372C78.7748 39.3251 79.0405 39.4313 79.2306 39.6558C79.4259 39.8803 79.5309 40.207 79.5458 40.636C79.5607 41.0649 79.4805 41.401 79.3052 41.6442Z" fill="black"/>
<path d="M82.7453 42.3191C82.8231 42.3044 82.8997 42.2843 82.9747 42.2589L82.958 41.78C82.8978 41.8034 82.8357 41.8219 82.7725 41.8354C82.7112 41.8474 82.6489 41.8542 82.5864 41.8557C82.4799 41.8614 82.3733 41.8452 82.2733 41.808C82.1764 41.7694 82.0964 41.6971 82.0481 41.6043C81.9837 41.4711 81.9512 41.3246 81.9533 41.1765L81.8835 39.2679L82.8792 39.2322L82.8632 38.7876L81.8675 38.824L81.8285 37.7269L81.2756 37.9482L81.3076 38.8437L80.6299 38.8682L80.6459 39.3127L81.3237 39.2882L81.3934 41.2731C81.4064 41.6437 81.5119 41.918 81.7099 42.0958C81.908 42.2736 82.1682 42.357 82.4908 42.3458C82.5762 42.3434 82.6613 42.3345 82.7453 42.3191Z" fill="black"/>
<path d="M86.4482 39.4297C86.3128 39.1721 86.1056 38.9597 85.852 38.8185C85.5829 38.6758 85.28 38.61 84.9762 38.628C84.672 38.6318 84.3746 38.7195 84.1166 38.8815C83.8736 39.0405 83.6822 39.2673 83.5657 39.534C83.4347 39.8381 83.3767 40.1688 83.3963 40.4995C83.3999 40.8318 83.4816 41.1585 83.6348 41.4531C83.7704 41.7096 83.9776 41.9207 84.2309 42.0608C84.4996 42.2037 84.8024 42.2696 85.106 42.2513C85.4103 42.2479 85.7078 42.1602 85.9657 41.9978C86.2082 41.8396 86.3998 41.6142 86.5172 41.3488C86.6488 41.0439 86.7068 40.7122 86.6866 40.3805C86.6822 40.0492 86.6005 39.7236 86.4482 39.4297ZM85.8687 41.4139C85.6902 41.6496 85.4306 41.7738 85.0899 41.7864C84.7492 41.799 84.4789 41.694 84.279 41.4713C84.0838 41.2496 83.9785 40.9187 83.9632 40.4785C83.9474 40.0486 84.031 39.7144 84.2142 39.4759C84.3969 39.2372 84.6569 39.1125 84.993 39.0999C85.3291 39.0873 85.5968 39.1945 85.7934 39.4185C85.9901 39.6426 86.0974 39.9709 86.1128 40.3987C86.1281 40.8265 86.0472 41.1787 85.8687 41.4139Z" fill="black"/>
<path d="M88.1914 39.5788C88.2507 39.4127 88.3559 39.267 88.4947 39.1587C88.661 39.0389 88.8611 38.9759 89.0657 38.9788C89.1901 38.9722 89.3148 38.9864 89.4346 39.0208L89.4297 38.5069C89.3805 38.4939 89.3304 38.4853 89.2798 38.481C89.2234 38.476 89.1668 38.4746 89.1103 38.4768C88.8508 38.4833 88.6004 38.5739 88.3964 38.7351C88.2327 38.8644 88.1127 39.0411 88.0526 39.2413L87.9724 38.6007L87.4404 38.6203C87.4693 38.7825 87.49 38.9461 87.5025 39.1104C87.5157 39.2742 87.5248 39.4374 87.5311 39.6005L87.621 42.1133L88.1788 42.093L88.1091 40.1011C88.102 39.9233 88.13 39.7458 88.1914 39.5788Z" fill="black"/>
<path d="M97.084 38.2744L96.531 38.294L95.6295 41.152L94.5265 38.3668L94.0356 38.3843L93.1215 41.2423L92.0373 38.4564L91.4502 38.4775L92.8607 41.9228L93.4004 41.9032L94.2915 39.1412L95.3841 41.8318L95.923 41.8122L97.084 38.2744Z" fill="black"/>
<path d="M98.3854 36.7441L97.7012 36.7688L97.7241 37.4076L98.4083 37.3829L98.3854 36.7441Z" fill="black"/>
<path d="M98.4532 38.3275L97.8926 38.35L98.0317 41.8437L98.5923 41.8212L98.4532 38.3275Z" fill="black"/>
<path d="M100.036 36.5632L99.4756 36.5858L99.6792 41.6982L100.24 41.6757L100.036 36.5632Z" fill="black"/>
<path d="M101.602 36.484L101.042 36.5042L101.225 41.6133L101.785 41.5931L101.602 36.484Z" fill="black"/>
<path d="M51.71 48.2543L51.7316 48.8522C51.6441 48.6769 51.5121 48.5279 51.3489 48.4202C51.1051 48.2663 50.819 48.194 50.5317 48.2137C50.2464 48.2182 49.969 48.3079 49.7347 48.4713C49.5033 48.6377 49.3231 48.866 49.2146 49.1302C49.0905 49.4358 49.0362 49.7655 49.0556 50.0949C49.0598 50.4235 49.1364 50.747 49.2801 51.0422C49.404 51.295 49.5992 51.5056 49.8414 51.6479C50.0912 51.788 50.3757 51.8535 50.6613 51.8369C50.9494 51.8356 51.2296 51.7427 51.4618 51.5715C51.6162 51.4522 51.7364 51.294 51.8104 51.113L51.8327 51.7431L52.3856 51.7228L52.2608 48.2312L51.71 48.2543ZM51.5308 50.989C51.3551 51.2294 51.0967 51.3557 50.7555 51.3678C50.4143 51.3799 50.144 51.273 49.9446 51.0471C49.7452 50.8226 49.6378 50.4973 49.6225 50.0711C49.6071 49.645 49.6908 49.3096 49.8735 49.065C50.0562 48.82 50.3181 48.6912 50.6593 48.6786C51.0005 48.666 51.2661 48.7721 51.4562 48.9971C51.6514 49.2216 51.7567 49.5484 51.7721 49.9773C51.7874 50.4063 51.707 50.7435 51.5308 50.989Z" fill="black"/>
<path d="M55.0807 48.0491C54.8044 48.0537 54.5355 48.1396 54.3075 48.2963C54.1267 48.4233 53.9861 48.5997 53.9023 48.8046L53.8256 48.178L53.293 48.1969C53.3213 48.3588 53.3422 48.5222 53.3557 48.687C53.3692 48.8517 53.3785 49.0151 53.3836 49.1771L53.4735 51.6899L54.0313 51.6703L53.9616 49.6707C53.9495 49.3332 54.0367 49.0613 54.2231 48.855C54.4095 48.6487 54.664 48.5399 54.9866 48.5287C55.2655 48.5182 55.4691 48.5868 55.6029 48.7325C55.7368 48.8781 55.8121 49.1126 55.8226 49.4368L55.9 51.6023L56.4578 51.582L56.379 49.3885C56.3478 48.4657 55.9151 48.0193 55.0807 48.0491Z" fill="black"/>
<path d="M59.0326 49.5879L58.4399 49.4633C58.2873 49.4414 58.143 49.3796 58.0216 49.2841C57.9764 49.241 57.9407 49.1889 57.9167 49.1311C57.8927 49.0734 57.8809 49.0113 57.8821 48.9487C57.8772 48.8709 57.892 48.793 57.9251 48.7225C57.9583 48.652 58.0088 48.591 58.0718 48.5454C58.2043 48.4432 58.3948 48.3877 58.6435 48.3788C58.8292 48.3714 59.0146 48.399 59.1902 48.46C59.3778 48.5278 59.553 48.6259 59.7089 48.7506L59.8811 48.334C59.7212 48.1871 59.5306 48.0777 59.3233 48.014C59.0982 47.9421 58.8622 47.9106 58.6261 47.9209C58.3841 47.9238 58.1455 47.9774 57.9254 48.0784C57.7436 48.1617 57.588 48.2935 57.4756 48.4593C57.3699 48.6202 57.3184 48.8109 57.3285 49.0033C57.3309 49.1138 57.3551 49.2226 57.3998 49.3236C57.4444 49.4246 57.5086 49.5156 57.5886 49.5914C57.7803 49.7655 58.0195 49.8779 58.2754 49.9142L58.8673 50.0318C59.0812 50.0752 59.2358 50.1357 59.331 50.2132C59.3783 50.2529 59.4163 50.3026 59.4422 50.3588C59.4681 50.4149 59.4813 50.4761 59.4809 50.538C59.4872 50.6155 59.4729 50.6933 59.4396 50.7635C59.4063 50.8337 59.3551 50.8938 59.2913 50.9378C59.1588 51.033 58.9608 51.0848 58.6979 51.0946C58.4763 51.1053 58.2544 51.0793 58.0411 51.0176C57.8323 50.9522 57.6358 50.8523 57.4596 50.7222L57.2881 51.1422C57.6395 51.4307 58.1081 51.5642 58.6937 51.5427C59.1121 51.5283 59.4407 51.426 59.6797 51.2361C59.7925 51.1514 59.8827 51.0399 59.9421 50.9116C60.0015 50.7833 60.0282 50.6422 60.0199 50.5009C60.0195 50.3893 59.9968 50.2788 59.9534 50.176C59.9099 50.0732 59.8465 49.9802 59.7668 49.9023C59.6069 49.7506 59.3622 49.6458 59.0326 49.5879Z" fill="black"/>
<path d="M64.5856 50.6151L63.4825 47.8292L62.9916 47.8467L62.0776 50.7047L60.9933 47.9189L60.4062 47.9406L61.8168 51.3852L62.3558 51.3656L63.2475 48.6036L64.3401 51.2942L64.8791 51.2746L66.04 47.7368L65.4871 47.7564L64.5856 50.6151Z" fill="black"/>
<path d="M69.6934 49.2309C69.6905 48.9158 69.6192 48.6052 69.4842 48.3207C69.3689 48.0822 69.1844 47.8843 68.955 47.7529C68.7095 47.6197 68.4316 47.5585 68.1532 47.5765C67.8526 47.5818 67.5595 47.6718 67.3074 47.8362C67.0647 47.9996 66.8727 48.2281 66.7531 48.4958C66.6205 48.797 66.561 49.1255 66.5794 49.4543C66.5824 49.7905 66.6669 50.1209 66.8256 50.417C66.9681 50.6757 67.1855 50.8849 67.4489 51.017C67.7412 51.1563 68.0639 51.2187 68.3867 51.1983C68.6354 51.1895 68.8809 51.1384 69.1126 51.0471C69.3265 50.9684 69.5216 50.8453 69.685 50.6858L69.4835 50.2832C69.3282 50.4216 69.1507 50.5327 68.9585 50.6116C68.7735 50.6854 68.5773 50.7264 68.3784 50.7327C67.9916 50.7477 67.6936 50.6426 67.4845 50.4177C67.2802 50.1985 67.1686 49.8681 67.1484 49.4291L69.699 49.3366L69.6934 49.2309ZM67.3966 48.3999C67.5793 48.1548 67.8389 48.026 68.1755 48.0134C68.4981 48.0022 68.7474 48.1021 68.9236 48.313C69.0716 48.5076 69.1603 48.7411 69.1788 48.9852L67.1568 49.0552C67.177 48.8192 67.2598 48.5929 67.3966 48.3999Z" fill="black"/>
<path d="M72.269 47.4379C72.2127 47.4329 72.1561 47.4315 72.0996 47.4337C71.84 47.4405 71.5896 47.5313 71.3856 47.6927C71.2221 47.8219 71.1022 47.9983 71.0419 48.1982L70.9617 47.5583L70.4297 47.5779C70.4585 47.7389 70.4792 47.9023 70.4918 48.068C70.505 48.2325 70.5141 48.395 70.5196 48.5581L70.6103 51.0709L71.1681 51.0506L71.0984 49.058C71.0916 48.8809 71.1193 48.7042 71.1799 48.5378C71.2398 48.3718 71.3452 48.2262 71.4839 48.1177C71.6502 47.9979 71.8503 47.9346 72.055 47.9371C72.1794 47.9304 72.3042 47.9448 72.4238 47.9798L72.419 47.4652C72.3697 47.4525 72.3196 47.4434 72.269 47.4379Z" fill="black"/>
<path d="M75.3522 47.3905L74.792 47.4108L74.9171 50.9022L75.4773 50.882L75.3522 47.3905Z" fill="black"/>
<path d="M75.3669 45.9204L74.6826 45.9451L74.7055 46.5839L75.3897 46.5592L75.3669 45.9204Z" fill="black"/>
<path d="M78.1689 47.2145C77.8926 47.2192 77.6238 47.3051 77.3956 47.4617C77.2151 47.5889 77.0746 47.7652 76.9906 47.97L76.9139 47.3399L76.3818 47.3595C76.4102 47.5205 76.4311 47.6839 76.4446 47.8496C76.4581 48.0153 76.4674 48.1786 76.4725 48.3397L76.5624 50.8525L77.1202 50.8322L77.0505 48.8326C77.0384 48.4951 77.1256 48.2232 77.312 48.0169C77.4984 47.8106 77.7529 47.7018 78.0755 47.6906C78.3544 47.6808 78.5598 47.7488 78.6918 47.8944C78.8239 48.04 78.8968 48.2748 78.9108 48.5987L78.9889 50.7643L79.5467 50.7439L79.4679 48.5504C79.4363 47.63 79.0033 47.1847 78.1689 47.2145Z" fill="black"/>
<path d="M83.1596 50.137L84.5087 48.5588C84.7502 48.2885 84.9525 47.9854 85.1098 47.6585C85.2254 47.4002 85.2805 47.1188 85.2709 46.8358C85.2685 46.5918 85.1974 46.3534 85.0659 46.1483C84.9372 45.9564 84.755 45.8069 84.5422 45.7184C84.2936 45.618 84.026 45.5743 83.7585 45.5902C83.4539 45.6027 83.1539 45.6701 82.873 45.7891C82.6049 45.896 82.3611 46.0563 82.1562 46.2603L82.3863 46.6895C82.5879 46.506 82.8156 46.3538 83.062 46.2379C83.2813 46.137 83.5181 46.0799 83.7592 46.0698C84.0493 46.0596 84.2754 46.1245 84.4376 46.2645C84.5999 46.4045 84.6856 46.6111 84.6949 46.8841C84.6997 47.1024 84.6519 47.3185 84.5555 47.5142C84.4264 47.7731 84.2655 48.0147 84.0765 48.2333L82.4296 50.207L82.4449 50.6376L85.6104 50.5234L85.5937 50.0438L83.1596 50.137Z" fill="black"/>
<path d="M92.9682 47.0241C92.766 46.8015 92.4739 46.6979 92.0918 46.7112C91.8029 46.714 91.523 46.8124 91.2955 46.9912C91.1457 47.1102 91.0276 47.2646 90.9518 47.4407C90.8923 47.2757 90.7914 47.1288 90.6589 47.0143C90.4665 46.8542 90.202 46.7802 89.8655 46.7924C89.6049 46.7956 89.3522 46.8828 89.1445 47.0409C88.984 47.1672 88.861 47.3353 88.7889 47.5268L88.7143 46.9177L88.1816 46.9366C88.211 47.0988 88.2319 47.2624 88.2444 47.4267C88.2569 47.5905 88.2667 47.7537 88.2723 47.9168L88.3622 50.4296L88.92 50.41L88.8503 48.4174C88.8377 48.0753 88.9121 47.8015 89.0734 47.5961C89.1555 47.4936 89.2597 47.4112 89.3782 47.3551C89.4967 47.2991 89.6264 47.2709 89.7574 47.2727C90.0061 47.2638 90.192 47.3324 90.3152 47.4785C90.4384 47.6246 90.506 47.8573 90.5181 48.1765L90.5962 50.3421L91.154 50.3218L91.0843 48.3299C91.0722 47.9877 91.1465 47.714 91.3074 47.5086C91.3884 47.4065 91.4916 47.3243 91.609 47.2683C91.7265 47.2122 91.8551 47.1838 91.9851 47.1852C92.2333 47.1763 92.4179 47.2449 92.5387 47.391C92.6596 47.5371 92.7258 47.7721 92.7374 48.096L92.8148 50.2623L93.3726 50.242L93.2938 48.0484C93.279 47.5877 93.1704 47.2463 92.9682 47.0241Z" fill="black"/>
<path d="M94.8883 45.2148L94.2041 45.2395L94.227 45.8783L94.9112 45.8536L94.8883 45.2148Z" fill="black"/>
<path d="M94.8727 46.685L94.3125 46.7052L94.4376 50.1966L94.9978 50.1764L94.8727 46.685Z" fill="black"/>
<path d="M97.6902 46.5088C97.414 46.5137 97.1452 46.5996 96.917 46.756C96.7367 46.8838 96.5968 47.061 96.514 47.2664L96.4373 46.6362L95.9053 46.6558C95.9336 46.8169 95.9543 46.9802 95.9673 47.1459C95.9804 47.3116 95.9896 47.475 95.9952 47.636L96.0859 50.1488L96.6436 50.1285L96.5739 48.1296C96.5614 47.7912 96.6485 47.5193 96.8354 47.314C97.0223 47.1086 97.2768 46.9996 97.5989 46.987C97.8778 46.9772 98.0832 47.0451 98.2153 47.1907C98.3473 47.3364 98.4203 47.5712 98.4342 47.8951L98.5116 50.0613L99.0694 50.041L98.9906 47.8475C98.9585 46.9256 98.5251 46.4794 97.6902 46.5088Z" fill="black"/>
<path d="M102.353 46.4262L102.423 48.3978C102.435 48.7303 102.35 49.0006 102.169 49.2057C102.076 49.3089 101.962 49.3913 101.835 49.4474C101.708 49.5035 101.571 49.5321 101.432 49.5313C101.17 49.5411 100.972 49.4741 100.837 49.3304C100.702 49.1903 100.628 48.9579 100.619 48.6435L100.541 46.4913L99.9834 46.5116L100.061 48.6778C100.077 49.1306 100.194 49.4692 100.41 49.6937C100.627 49.9183 100.943 50.0226 101.36 50.0067C101.626 50.0017 101.884 49.9174 102.102 49.7645C102.262 49.6511 102.389 49.4969 102.47 49.3178L102.491 49.9171L103.037 49.8975L102.913 46.4059L102.353 46.4262Z" fill="black"/>
<path d="M105.642 49.3493C105.58 49.3612 105.518 49.3682 105.456 49.3703C105.349 49.3758 105.243 49.3596 105.142 49.3227C105.045 49.2835 104.965 49.211 104.916 49.1182C104.852 48.9852 104.82 48.839 104.822 48.6911L104.752 46.7819L105.748 46.7461L105.732 46.3016L104.736 46.338L104.697 45.2408L104.144 45.4628L104.176 46.3583L103.499 46.3828L103.514 46.8267L104.192 46.8022L104.262 48.7878C104.275 49.1584 104.381 49.4326 104.578 49.6104C104.776 49.7883 105.036 49.8713 105.359 49.8597C105.444 49.8575 105.528 49.8488 105.611 49.8338C105.689 49.8185 105.766 49.7981 105.841 49.7728L105.824 49.294C105.765 49.3172 105.704 49.3357 105.642 49.3493Z" fill="black"/>
<path d="M109.379 47.7963C109.376 47.4812 109.305 47.1705 109.17 46.8861C109.054 46.6476 108.87 46.4496 108.641 46.3176C108.395 46.1849 108.117 46.124 107.839 46.1418C107.538 46.1463 107.245 46.2364 106.993 46.4016C106.75 46.565 106.558 46.7935 106.439 47.0611C106.306 47.3623 106.246 47.6908 106.265 48.0196C106.269 48.355 106.353 48.6845 106.51 48.9802C106.654 49.2386 106.871 49.4475 107.134 49.5795C107.426 49.719 107.749 49.7817 108.072 49.7616C108.32 49.7527 108.565 49.7013 108.797 49.6096C109.01 49.5311 109.205 49.4082 109.368 49.2491L109.168 48.8458C109.012 48.9843 108.835 49.0953 108.643 49.1741C108.458 49.2485 108.261 49.2898 108.062 49.296C107.675 49.31 107.377 49.2049 107.169 48.9809C106.964 48.7611 106.853 48.4313 106.833 47.9923L109.382 47.8999L109.379 47.7963ZM107.082 46.9652C107.265 46.7202 107.525 46.5916 107.861 46.5794C108.183 46.5673 108.433 46.6672 108.609 46.8791C108.757 47.0736 108.846 47.3071 108.864 47.5512L106.842 47.6212C106.862 47.3849 106.945 47.1584 107.082 46.9652Z" fill="black"/>
<path d="M112.546 47.998C112.386 47.844 112.141 47.7383 111.811 47.6809L111.219 47.5562C111.066 47.5337 110.922 47.472 110.8 47.377C110.755 47.3335 110.72 47.2813 110.696 47.2235C110.672 47.1657 110.66 47.1035 110.661 47.0409C110.656 46.9632 110.671 46.8856 110.704 46.8152C110.737 46.7448 110.788 46.684 110.851 46.6384C110.983 46.5361 111.174 46.4806 111.423 46.4717C111.608 46.4643 111.794 46.4919 111.969 46.5529C112.157 46.6205 112.332 46.7187 112.488 46.8435L112.661 46.4269C112.5 46.2803 112.31 46.1708 112.103 46.1062C111.878 46.0347 111.642 46.0032 111.406 46.0131C111.165 46.017 110.927 46.0706 110.708 46.1707C110.527 46.2546 110.371 46.3865 110.258 46.5522C110.152 46.7132 110.101 46.9038 110.111 47.0962C110.114 47.2067 110.138 47.3156 110.183 47.4165C110.227 47.5175 110.292 47.6085 110.372 47.6844C110.563 47.8583 110.802 47.9707 111.058 48.0071L111.65 48.1247C111.817 48.1486 111.975 48.2107 112.114 48.3061C112.161 48.3456 112.2 48.3953 112.226 48.4515C112.251 48.5077 112.265 48.569 112.264 48.6309C112.27 48.7083 112.256 48.786 112.222 48.8561C112.189 48.9261 112.138 48.9862 112.074 49.03C111.941 49.1252 111.744 49.1778 111.481 49.1876C111.259 49.1982 111.037 49.1719 110.824 49.1098C110.615 49.045 110.419 48.9453 110.243 48.8151L110.07 49.2352C110.422 49.5236 110.891 49.6574 111.476 49.6364C111.894 49.6209 112.223 49.5187 112.462 49.3297C112.575 49.2452 112.665 49.1338 112.725 49.0054C112.784 48.877 112.811 48.7358 112.802 48.5945C112.801 48.483 112.778 48.3728 112.734 48.2703C112.69 48.1679 112.626 48.0753 112.546 47.998Z" fill="black"/>
<path d="M96.1532 66.0679L30.6889 68.6679C27.2067 68.8071 23.9103 67.5536 21.3567 65.1393C18.8032 62.6786 17.4103 59.3822 17.4103 55.8536V37.375C17.4103 34.0322 18.6639 30.875 20.9853 28.4607C23.3067 26.0464 26.371 24.6536 29.7139 24.5143L107.528 21.4036C111.01 21.2643 114.307 22.5643 116.86 24.9786C119.414 27.4393 120.807 30.7357 120.807 34.2643V52.6964C120.807 56.0393 119.553 59.1964 117.232 61.6107C114.91 64.025 111.846 65.4179 108.503 65.5572L107.203 65.6036L110.732 72.2893C110.778 72.3357 110.778 72.3822 110.732 72.4286C110.705 72.4553 110.694 72.4666 110.68 72.4714C110.67 72.475 110.659 72.475 110.639 72.475H110.592L96.1532 66.0679Z" fill="url(#paint0_linear_2386_415189)" style="mix-blend-mode:overlay"/>
<path fill-rule="evenodd" clip-rule="evenodd" d="M254.126 215.881C254.14 215.888 254.147 215.892 254.15 215.893C254.196 215.893 254.242 215.939 254.289 215.846C254.289 215.893 254.242 215.939 254.196 215.939C254.185 215.942 254.115 215.966 253.991 216.009C251.988 216.697 235.831 222.254 223.46 222.254C222.717 222.254 221.975 222.254 221.232 222.207C215.475 221.836 210.321 221.139 206.282 220.489C205.214 222.3 203.403 225.55 202.567 229.079C202.55 229.147 202.533 229.209 202.516 229.27C202.487 229.373 202.457 229.472 202.428 229.589H215.242C215.289 229.589 215.335 229.636 215.335 229.682V230.1C215.335 234.789 214.407 239.386 212.596 243.704C210.785 248.021 208.185 251.921 204.842 255.218C202.521 257.539 199.457 258.793 196.207 258.839H196.067C192.864 258.839 189.8 257.632 187.478 255.404L187.385 255.311C183.903 252.014 181.21 248.068 179.307 243.657C177.45 239.2 176.475 234.557 176.475 229.729C176.475 229.682 176.521 229.636 176.567 229.636H190.45C190.317 229.541 190.186 229.448 190.058 229.357C189.559 229.003 189.101 228.678 188.732 228.382C187.617 227.407 185.11 224.854 182.742 222.254L182.74 222.254C182.091 222.533 181.442 222.811 180.839 223.089C175.871 225.225 164.589 235.068 164.496 235.161C164.469 235.187 164.458 235.199 164.444 235.204C164.434 235.207 164.423 235.207 164.403 235.207H164.357C164.31 235.207 164.264 235.207 164.264 235.161C164.217 235.068 163.289 232.746 164.264 222.996C165.239 213.246 171.878 206.561 171.925 206.514C171.971 206.468 172.017 206.468 172.064 206.514L177.078 210.368C179.539 212.225 182.278 213.711 185.203 214.732L186.271 215.104C184.971 214.036 183.16 212.271 181.442 209.811C179.678 207.257 177.867 203.636 177.217 198.993C176.382 199.271 175.5 199.411 174.617 199.411H157.903L166.4 255.496C166.446 255.775 166.4 256.007 166.353 256.239C166.307 256.471 166.167 256.704 166.028 256.889C165.889 257.075 165.703 257.261 165.471 257.354C165.239 257.493 165.007 257.539 164.775 257.539H164.728C164.357 257.539 163.985 257.4 163.66 257.168C163.335 256.889 163.15 256.564 163.057 256.146L158.135 231.354L140.075 216.868L126.285 234.929L129.21 255.589C129.257 255.868 129.21 256.1 129.164 256.332C129.117 256.564 128.978 256.796 128.839 256.982C128.7 257.168 128.514 257.354 128.282 257.446C128.05 257.586 127.817 257.632 127.585 257.632H127.539C127.167 257.632 126.796 257.493 126.471 257.261C126.146 256.982 125.96 256.657 125.867 256.239L114.632 199.596H84.6388L73.4031 256.239C73.3567 256.657 73.1245 256.982 72.7995 257.261C72.521 257.493 72.1031 257.632 71.7317 257.632H71.6852C71.4531 257.632 71.221 257.539 70.9888 257.446C70.9467 257.415 70.9022 257.383 70.8569 257.351C70.7026 257.242 70.5394 257.126 70.4317 256.982C70.2924 256.796 70.1531 256.564 70.1067 256.332C70.0602 256.1 70.0138 255.821 70.0602 255.589L72.9852 236.182L58.2674 216.914L41.5067 230.379L36.3995 256.193C36.3531 256.611 36.121 256.936 35.796 257.214C35.5174 257.446 35.0995 257.586 34.7281 257.586H34.6817C34.4495 257.586 34.2174 257.493 33.9852 257.4C33.9431 257.368 33.8986 257.337 33.8534 257.305C33.699 257.195 33.5358 257.079 33.4281 256.936C33.2888 256.75 33.1495 256.518 33.1031 256.286C33.0567 256.054 33.0102 255.775 33.0567 255.543L41.5067 199.457H25.9995C21.3102 199.457 17.4567 195.65 17.4567 190.914V190.868C17.4567 186.179 21.2638 182.325 25.9995 182.325H27.7638C28.1817 182.046 28.646 181.721 29.1102 181.396C28.5995 180.886 28.1817 180.236 27.996 179.493L27.2995 176.939C27.2763 176.893 27.2647 176.835 27.2531 176.777C27.2415 176.719 27.2299 176.661 27.2067 176.614L15.321 132.182C15.1817 131.532 15.1352 130.882 15.2745 130.279C15.4138 129.675 15.6924 129.071 16.0638 128.561C16.4352 128.05 16.946 127.632 17.5031 127.354C18.1067 127.075 18.7102 126.936 19.3602 126.936H53.9031L57.9424 111.661C59.0102 107.621 62.2602 104.789 66.4388 104.279C69.1781 103.954 71.7317 104.696 73.7745 106.275C74.7495 105.532 75.8638 104.975 77.071 104.604C83.2172 102.208 87.6479 107.335 87.9221 107.653C87.9296 107.662 87.934 107.667 87.9352 107.668L87.9817 107.714C88.6317 108.364 89.2352 109.107 89.746 109.943L98.7995 122.989L99.8674 119.043C99.8442 118.973 99.8093 118.915 99.7745 118.857C99.7397 118.799 99.7049 118.741 99.6817 118.671C98.7531 116.675 98.8924 113.704 99.9138 111.243C99.0781 110.268 98.3817 109.154 98.0567 108.039C98.0335 107.9 98.0102 107.772 97.987 107.645C97.9638 107.517 97.9406 107.389 97.9174 107.25V106.507C97.9174 106.229 97.9174 105.95 98.0103 105.671V105.625C98.1031 105.114 98.2888 104.696 98.5674 104.232C98.6138 104.186 98.6602 104.186 98.7067 104.186L99.0781 104.279C99.333 104.347 99.7185 104.446 100.207 104.571C101.054 104.789 102.211 105.086 103.535 105.439L121.178 77.9536L124.15 70.8036C124.289 70.4786 124.475 70.2464 124.707 70.0607C124.939 69.875 125.217 69.7357 125.542 69.6893L128.096 69.2714C128.142 69.0393 128.282 68.8536 128.421 68.6679C128.607 68.4821 128.839 68.3429 129.071 68.25L129.164 68.2036L129.86 67.4607C130.139 67.1357 130.51 66.95 130.928 66.8571C131.207 66.8107 131.485 66.8107 131.764 66.8571H131.857C131.95 66.8571 132.042 66.9036 132.135 66.95H132.182L133.25 67.3214L136.035 62.9571C136.082 61.5643 136.964 60.3571 138.171 59.8L138.31 59.6143C138.403 59.4286 138.542 59.3357 138.728 59.2429C138.775 59.2429 138.809 59.2312 138.844 59.2196C138.879 59.208 138.914 59.1964 138.96 59.1964C139.09 58.5317 139.208 57.9293 139.307 57.4247C139.492 56.4843 139.61 55.8838 139.61 55.8536C139.61 55.8536 139.703 55.1571 140.075 54.2286C138.403 53.0679 135.942 50.6536 136.778 46.7071C137.15 44.9429 138.217 43.55 139.889 42.7143C142.628 41.3679 146.667 41.6 150.242 43.2714C156.51 46.2428 159.389 51.6286 159.667 52.1857C160.225 52.3714 165.332 54.275 164.914 61.1C164.508 68.0807 159.385 72.4839 159.036 72.784C159.025 72.7933 159.019 72.7986 159.017 72.8C158.971 72.8 156.603 74.4714 155.489 76.6536C155.257 77.025 155.025 77.35 154.7 77.6286L154.235 81.6214L170.532 87.1929C170.903 87.2857 171.228 87.5178 171.507 87.8429C175.314 90.025 178.1 95.875 179.492 105.114C179.771 106.925 180.003 108.782 180.142 110.546H185.064C185.76 110.546 186.457 110.593 187.153 110.732C189.382 111.243 191.285 112.589 192.539 114.493C193.792 116.396 194.21 118.718 193.7 120.946L189.428 140.354C189.521 140.539 189.567 140.725 189.614 140.911C189.707 141.328 189.707 141.793 189.614 142.257L181.21 178.75C185.575 169.743 191.332 165.982 191.425 165.936H191.517C191.564 165.936 191.61 165.936 191.61 165.982C191.657 166.075 197.275 178.843 192.817 194.257C189.01 207.304 188.267 214.129 188.128 215.893L191.703 217.146C192.075 214.221 193.003 211.482 193.746 209.671C193.375 208.279 192.492 204.471 192.864 199.689C193.328 194.118 195.557 186.086 203.728 179.214C218.901 166.48 232.933 167.625 233.817 167.697C233.842 167.699 233.856 167.7 233.86 167.7C233.907 167.7 233.953 167.746 233.953 167.746V167.839C233.952 167.842 233.949 167.852 233.945 167.868C233.722 168.626 229.315 183.66 214.407 193.932C199.678 204.098 194.446 209.867 194.132 210.212C194.124 210.222 194.119 210.227 194.117 210.229C194.092 210.254 194.081 210.265 194.068 210.271C194.057 210.275 194.046 210.275 194.025 210.275H193.978C193.932 210.275 193.932 210.229 193.932 210.229C193.932 210.229 193.932 210.136 193.885 210.043C193.189 211.9 192.353 214.5 191.982 217.239L192.864 217.564L192.91 217.611C192.933 217.611 192.945 217.611 192.951 217.617C192.957 217.622 192.957 217.634 192.957 217.657C192.957 217.657 192.957 221.743 193.746 227.175C193.885 228.196 194.117 229.079 194.442 229.821H196.81C195.928 227.361 194.86 223.739 194.767 220.025C194.639 214.104 195.62 210.721 195.77 210.205C195.782 210.162 195.789 210.139 195.789 210.136V210.089H195.835L201.453 209.207C204.285 208.743 206.792 207.304 208.603 205.075L211.667 201.314C211.714 201.268 211.76 201.221 211.807 201.268C211.807 201.289 211.913 201.349 212.103 201.456C212.33 201.584 212.677 201.779 213.107 202.057C214.964 200.014 217.378 198.064 220.582 196.486C235.485 189.011 246.628 192.957 246.721 193.004C246.721 193.004 246.733 193.004 246.745 193.01C246.756 193.016 246.767 193.027 246.767 193.05V193.143C246.721 193.236 241.985 201.825 231.585 207.675C243.912 210.53 253.584 215.597 254.126 215.881ZM133.807 80.5071C133.435 80.9714 132.878 81.3429 132.321 81.5286L126.61 82.875L124.335 88.2143C128.096 84.7786 131.996 81.6214 134.55 80.6929C134.578 80.6642 134.589 80.6709 134.604 80.6803C134.614 80.6861 134.625 80.6929 134.642 80.6929C135.107 80.5536 135.617 80.4143 136.128 80.3679L141.885 79.7179L142.303 76.7928C141.375 76.4678 140.539 75.9107 139.842 75.1678C139.053 74.3321 138.45 73.3107 138.078 72.15L136.407 74.6571H136.5C136.778 74.7036 137.01 74.8429 137.196 75.0286C137.382 75.2143 137.475 75.4464 137.475 75.725C137.475 75.9571 137.428 76.2357 137.242 76.4214L133.807 80.5071ZM179.957 181.721C179.4 182.139 178.75 182.371 178.053 182.371H175.825C177.078 182.511 178.285 182.975 179.307 183.625C179.442 183.22 179.592 182.831 179.74 182.449C179.847 182.173 179.952 181.901 180.05 181.629C180.003 181.675 180.003 181.721 179.957 181.721ZM138.078 60.1714L136.5 62.5393C136.639 61.5179 137.242 60.6821 138.078 60.1714ZM47.171 202.196L41.6924 229.961L58.221 216.682L47.171 202.196ZM47.6817 199.457L47.2174 201.871L58.3602 216.496L78.4638 200.386L78.6031 199.457H47.6817ZM78.4638 200.757L58.546 216.729L73.171 235.811L78.4638 200.757ZM121.271 201.732L126.239 234.604L139.935 216.682L121.271 201.732ZM121.225 201.407L140.075 216.543L152.1 200.711L151.867 199.457H120.946L121.225 201.407ZM152.192 201.082L140.26 216.682L158.135 231.029L152.192 201.082ZM202.15 229.729L202.289 229.171C203.125 225.689 204.889 222.439 206.003 220.582C205.592 220.527 205.198 220.456 204.819 220.388C204.556 220.341 204.301 220.295 204.053 220.257L199.642 229.729H202.15Z" fill="url(#paint1_linear_2386_415189)" style="mix-blend-mode:overlay"/>
<defs>
<linearGradient id="paint0_linear_2386_415189" x1="254.289" y1="139.746" x2="15.1904" y2="139.746" gradientUnits="userSpaceOnUse">
<stop stop-color="#E60050"/>
<stop offset="1" stop-color="#5D6AE8"/>
</linearGradient>
<linearGradient id="paint1_linear_2386_415189" x1="254.289" y1="139.746" x2="15.1904" y2="139.746" gradientUnits="userSpaceOnUse">
<stop stop-color="#E60050"/>
<stop offset="1" stop-color="#5D6AE8"/>
</linearGradient>
</defs>
</svg>
