<svg width="766" height="860" viewBox="0 0 766 860" fill="none" xmlns="http://www.w3.org/2000/svg">
<path d="M0 85.3398L349.5 20.5V97L442.5 83L534.93 128V235.5L766 205.684V1520H0V85.3398Z" fill="black"/>
<path d="M69.113 165.415L110.396 134.434L0 85.3383L34.5623 59.4005L303.501 0L349.56 20.4835L202.67 130.719L237.763 146.326L200.321 174.425L165.228 158.819L123.945 189.8L69.113 165.415ZM147.838 106.334L235.844 40.2888L244.983 44.353L66.8631 84.0925L78.3839 75.4465L147.838 106.334Z" fill="#FF0090"/>
<path d="M259.922 254.479C228.972 240.715 215.224 222.489 218.676 199.8C222.586 177.06 243.209 151.68 280.545 123.661C318.094 95.4815 354.968 77.7115 391.168 70.3511C427.824 62.9389 461.627 66.1149 492.577 79.8789C523.771 93.7513 537.732 111.818 534.463 134.078C531.406 156.177 511.21 181.237 473.874 209.256C436.325 237.436 399.024 255.526 361.971 263.527C325.132 271.367 291.115 268.352 259.922 254.479ZM300.244 224.218C314.379 230.504 330.938 230.601 349.923 224.51C369.364 218.366 392.419 205.288 419.088 185.274C437.009 171.825 449.826 160.313 457.538 150.738C465.708 141.112 469.185 132.969 467.969 126.308C466.997 119.756 461.759 114.367 452.254 110.14C438.12 103.854 421.652 103.542 402.851 109.206C384.293 114.977 361.68 127.87 335.011 147.883C317.304 161.173 304.38 172.765 296.241 182.659C288.101 192.554 284.304 200.938 284.85 207.81C285.852 214.631 290.984 220.1 300.244 224.218Z" fill="#FF0090"/>
<path d="M485.553 350.615L526.836 319.634L416.44 270.538L451.002 244.6L719.941 185.2L766 205.683L619.11 315.919L654.203 331.526L616.761 359.625L581.668 344.019L540.385 375L485.553 350.615ZM564.278 291.534L652.284 225.489L661.422 229.553L483.303 269.292L494.824 260.646L564.278 291.534Z" fill="#FF0090"/>
</svg>
