<svg width="335" height="732" viewBox="0 0 335 732" fill="none" xmlns="http://www.w3.org/2000/svg">
<path d="M0 37.3223L152.849 8.96545V42.4217L193.522 36.299L233.945 55.9792V102.993L335 89.9531V732H0V37.3223Z" fill="black"/>
<path d="M30.2256 72.3421L48.2801 58.7928L0 37.3216L15.1154 25.978L132.732 0L152.876 8.95819L88.6353 57.1684L103.983 63.9937L87.6076 76.2826L72.2603 69.4573L54.2058 83.0066L30.2256 72.3421ZM64.6551 46.5039L103.143 17.6198L107.14 19.3972L29.2417 36.7767L34.2802 32.9955L64.6551 46.5039Z" fill="#FF0090"/>
<path d="M113.673 111.293C100.138 105.274 94.1252 97.3026 95.6352 87.38C97.3451 77.4349 106.364 66.3353 122.693 54.0815C139.114 41.7576 155.241 33.9861 171.072 30.7671C187.103 27.5255 201.887 28.9145 215.422 34.934C229.064 41.0009 235.17 48.9019 233.74 58.637C232.404 68.3021 223.571 79.2616 207.243 91.5155C190.821 103.839 174.508 111.751 158.303 115.25C142.192 118.679 127.315 117.36 113.673 111.293ZM131.308 98.0589C137.49 100.808 144.732 100.85 153.034 98.1864C161.537 95.4996 171.619 89.7799 183.282 81.0271C191.12 75.1452 196.725 70.1107 200.098 65.9234C203.671 61.7134 205.192 58.152 204.66 55.2392C204.235 52.3737 201.944 50.0167 197.788 48.1682C191.606 45.4191 184.404 45.2829 176.181 47.7596C168.065 50.2837 158.176 55.9221 146.513 64.6749C138.769 70.4867 133.117 75.5563 129.557 79.8836C125.997 84.211 124.337 87.8774 124.575 90.8829C125.014 93.8658 127.258 96.2578 131.308 98.0589Z" fill="#FF0090"/>
<path d="M212.35 153.337L230.405 139.788L182.124 118.316L197.24 106.973L314.857 80.9947L335 89.9529L270.76 138.163L286.107 144.988L269.732 157.277L254.385 150.452L236.33 164.001L212.35 153.337ZM246.78 127.499L285.268 98.6145L289.264 100.392L211.366 117.771L216.405 113.99L246.78 127.499Z" fill="#FF0090"/>
</svg>
