<svg width="40" height="40" viewBox="0 0 40 40" fill="none" xmlns="http://www.w3.org/2000/svg">
<circle cx="19.8637" cy="19.8637" r="19.8637" fill="white"/>
<path fill-rule="evenodd" clip-rule="evenodd" d="M16.0004 12C15.1167 12 14.4004 12.7163 14.4004 13.6V26.4C14.4004 27.2837 15.1167 28 16.0004 28H16.8004C17.684 28 18.4004 27.2837 18.4004 26.4V13.6C18.4004 12.7163 17.684 12 16.8004 12H16.0004ZM23.2004 12C22.3167 12 21.6004 12.7163 21.6004 13.6V26.4C21.6004 27.2837 22.3167 28 23.2004 28H24.0004C24.884 28 25.6004 27.2837 25.6004 26.4V13.6C25.6004 12.7163 24.884 12 24.0004 12H23.2004Z" fill="#E60082"/>
</svg>
