<svg width="232" height="161" viewBox="0 0 232 161" fill="none" xmlns="http://www.w3.org/2000/svg">
<rect x="0.782227" y="0.988281" width="230.602" height="159.036" rx="12.7229" fill="white"/>
<path d="M21.2056 23.0508C20.3892 23.0508 19.6879 22.8875 19.1015 22.5609C18.5227 22.227 18.0774 21.7594 17.7656 21.1582C17.4539 20.5497 17.2981 19.8335 17.2981 19.0097C17.2981 18.1859 17.4539 17.4734 17.7656 16.8722C18.0774 16.2711 18.5227 15.8072 19.1015 15.4807C19.6879 15.1467 20.3892 14.9797 21.2056 14.9797C21.7548 14.9797 22.2483 15.0576 22.6862 15.2135C23.1315 15.3693 23.5137 15.5994 23.8329 15.9037L23.3653 17.0392C23.0165 16.7572 22.6788 16.5568 22.3522 16.4381C22.0331 16.3119 21.6657 16.2488 21.2501 16.2488C20.456 16.2488 19.8474 16.49 19.4244 16.9724C19.0088 17.4474 18.801 18.1265 18.801 19.0097C18.801 19.596 18.8937 20.0969 19.0793 20.5126C19.2648 20.9282 19.5394 21.2436 19.9031 21.4588C20.2742 21.6741 20.7232 21.7817 21.2501 21.7817C21.6657 21.7817 22.0331 21.7223 22.3522 21.6035C22.6788 21.4774 23.0165 21.2696 23.3653 20.9801L23.8329 22.1156C23.5137 22.4125 23.1315 22.6426 22.6862 22.8059C22.2483 22.9691 21.7548 23.0508 21.2056 23.0508ZM27.039 23.0508C26.5491 23.0508 26.1187 22.9357 25.7476 22.7057C25.3765 22.4682 25.0871 22.1305 24.8792 21.6926C24.6714 21.2547 24.5675 20.7315 24.5675 20.1229C24.5675 19.5143 24.6714 18.9948 24.8792 18.5644C25.0871 18.1265 25.3765 17.7925 25.7476 17.5624C26.1187 17.3249 26.5491 17.2062 27.039 17.2062C27.5139 17.2062 27.9296 17.3249 28.2858 17.5624C28.6495 17.7925 28.8907 18.1042 29.0094 18.4976H28.887L29.0094 17.3175H30.3453C30.3231 17.5476 30.3008 17.7814 30.2785 18.0189C30.2637 18.2564 30.2563 18.4902 30.2563 18.7202V22.9395H28.8758L28.8647 21.7817H28.9983C28.8795 22.1676 28.6383 22.4756 28.2747 22.7057C27.911 22.9357 27.4991 23.0508 27.039 23.0508ZM27.4286 21.9821C27.8665 21.9821 28.219 21.8299 28.4862 21.5256C28.7534 21.2139 28.887 20.7463 28.887 20.1229C28.887 19.4995 28.7534 19.0356 28.4862 18.7314C28.219 18.4271 27.8665 18.2749 27.4286 18.2749C26.9907 18.2749 26.6382 18.4271 26.371 18.7314C26.1038 19.0356 25.9702 19.4995 25.9702 20.1229C25.9702 20.7463 26.1001 21.2139 26.3599 21.5256C26.6271 21.8299 26.9833 21.9821 27.4286 21.9821ZM31.7716 22.9395V14.7459H33.1632V22.9395H31.7716ZM34.6743 22.9395V14.7459H36.0659V22.9395H34.6743ZM39.5809 23.0508C39.0985 23.0508 38.6532 22.9951 38.245 22.8838C37.8442 22.765 37.5065 22.6018 37.2319 22.394L37.6216 21.4588C37.9036 21.6518 38.2153 21.8002 38.5567 21.9041C38.8981 22.008 39.2432 22.06 39.592 22.06C39.9631 22.06 40.2377 21.9969 40.4158 21.8707C40.6014 21.7446 40.6941 21.5739 40.6941 21.3586C40.6941 21.1879 40.6348 21.0543 40.516 20.9579C40.4047 20.854 40.2229 20.776 39.9705 20.7241L38.8573 20.5126C38.3823 20.4087 38.0186 20.2305 37.7663 19.9782C37.5214 19.7259 37.3989 19.3956 37.3989 18.9874C37.3989 18.6386 37.4917 18.3306 37.6772 18.0634C37.8702 17.7962 38.1411 17.5884 38.4899 17.44C38.8461 17.2841 39.2617 17.2062 39.7367 17.2062C40.1524 17.2062 40.542 17.2619 40.9057 17.3732C41.2767 17.4845 41.5884 17.6515 41.8408 17.8742L41.44 18.7759C41.2099 18.5903 40.9465 18.4456 40.6496 18.3417C40.3527 18.2378 40.0633 18.1859 39.7813 18.1859C39.3953 18.1859 39.1133 18.2564 38.9352 18.3974C38.7571 18.531 38.668 18.7054 38.668 18.9206C38.668 19.0839 38.72 19.2212 38.8239 19.3325C38.9352 19.4364 39.1059 19.5143 39.336 19.5663L40.4492 19.7778C40.9465 19.8743 41.3213 20.045 41.5736 20.2899C41.8334 20.5274 41.9632 20.854 41.9632 21.2696C41.9632 21.6407 41.8631 21.9598 41.6627 22.227C41.4623 22.4942 41.184 22.6982 40.8277 22.8393C40.4715 22.9803 40.0559 23.0508 39.5809 23.0508ZM48.046 24.9433C47.6971 24.3941 47.4114 23.856 47.1887 23.3291C46.9735 22.8022 46.8177 22.2678 46.7212 21.726C46.6247 21.1768 46.5765 20.6053 46.5765 20.0116C46.5765 19.4104 46.6247 18.839 46.7212 18.2972C46.8177 17.7554 46.9735 17.221 47.1887 16.6941C47.4114 16.1672 47.6971 15.6328 48.046 15.091H49.1592C48.7733 15.9445 48.4838 16.7757 48.2909 17.5847C48.1053 18.3862 48.0126 19.1952 48.0126 20.0116C48.0126 20.8206 48.1053 21.6295 48.2909 22.4385C48.4838 23.2475 48.7733 24.0824 49.1592 24.9433H48.046ZM50.1772 22.9395V14.7459H51.5688V22.9395H50.1772ZM55.6182 23.0508C55.0393 23.0508 54.5383 22.932 54.1153 22.6945C53.6922 22.457 53.362 22.1194 53.1245 21.6815C52.8944 21.2436 52.7794 20.7241 52.7794 20.1229C52.7794 19.5218 52.8944 19.006 53.1245 18.5755C53.362 18.1376 53.6922 17.7999 54.1153 17.5624C54.5383 17.3249 55.0393 17.2062 55.6182 17.2062C56.197 17.2062 56.698 17.3249 57.121 17.5624C57.5515 17.7999 57.8818 18.1376 58.1118 18.5755C58.3493 19.006 58.4681 19.5218 58.4681 20.1229C58.4681 20.7241 58.3493 21.2436 58.1118 21.6815C57.8818 22.1194 57.5515 22.457 57.121 22.6945C56.698 22.932 56.197 23.0508 55.6182 23.0508ZM55.6182 21.9821C56.056 21.9821 56.4049 21.8299 56.6646 21.5256C56.9244 21.2139 57.0543 20.7463 57.0543 20.1229C57.0543 19.4995 56.9244 19.0356 56.6646 18.7314C56.4049 18.4271 56.056 18.2749 55.6182 18.2749C55.1803 18.2749 54.8315 18.4271 54.5717 18.7314C54.3119 19.0356 54.1821 19.4995 54.1821 20.1229C54.1821 20.7463 54.3119 21.2139 54.5717 21.5256C54.8315 21.8299 55.1803 21.9821 55.6182 21.9821ZM61.672 23.0508C61.1896 23.0508 60.7443 22.9951 60.3361 22.8838C59.9353 22.765 59.5976 22.6018 59.323 22.394L59.7127 21.4588C59.9947 21.6518 60.3064 21.8002 60.6478 21.9041C60.9892 22.008 61.3343 22.06 61.6831 22.06C62.0542 22.06 62.3288 21.9969 62.5069 21.8707C62.6925 21.7446 62.7852 21.5739 62.7852 21.3586C62.7852 21.1879 62.7259 21.0543 62.6071 20.9579C62.4958 20.854 62.314 20.776 62.0616 20.7241L60.9484 20.5126C60.4734 20.4087 60.1097 20.2305 59.8574 19.9782C59.6125 19.7259 59.49 19.3956 59.49 18.9874C59.49 18.6386 59.5828 18.3306 59.7683 18.0634C59.9613 17.7962 60.2322 17.5884 60.581 17.44C60.9372 17.2841 61.3529 17.2062 61.8278 17.2062C62.2435 17.2062 62.6331 17.2619 62.9968 17.3732C63.3678 17.4845 63.6796 17.6515 63.9319 17.8742L63.5311 18.7759C63.3011 18.5903 63.0376 18.4456 62.7407 18.3417C62.4438 18.2378 62.1544 18.1859 61.8724 18.1859C61.4865 18.1859 61.2044 18.2564 61.0263 18.3974C60.8482 18.531 60.7591 18.7054 60.7591 18.9206C60.7591 19.0839 60.8111 19.2212 60.915 19.3325C61.0263 19.4364 61.197 19.5143 61.4271 19.5663L62.5403 19.7778C63.0376 19.8743 63.4124 20.045 63.6647 20.2899C63.9245 20.5274 64.0544 20.854 64.0544 21.2696C64.0544 21.6407 63.9542 21.9598 63.7538 22.227C63.5534 22.4942 63.2751 22.6982 62.9188 22.8393C62.5626 22.9803 62.147 23.0508 61.672 23.0508ZM67.5955 23.0508C66.9276 23.0508 66.4229 22.8764 66.0815 22.5275C65.7401 22.1787 65.5694 21.6555 65.5694 20.9579V18.364H64.4896V17.3175H65.5694V15.8814L66.961 15.5252V17.3175H68.4639V18.364H66.961V20.8688C66.961 21.2547 67.0352 21.5256 67.1836 21.6815C67.3321 21.8373 67.5362 21.9153 67.7959 21.9153C67.9369 21.9153 68.0557 21.9041 68.1522 21.8819C68.2561 21.8596 68.3563 21.8299 68.4527 21.7928V22.8949C68.3266 22.9469 68.1856 22.984 68.0297 23.0062C67.8813 23.0359 67.7366 23.0508 67.5955 23.0508ZM74.1116 22.9395L71.6847 17.3175H73.1654L74.9243 21.7149H74.5792L76.3827 17.3175H77.7742L75.3362 22.9395H74.1116ZM80.4146 23.0508C79.9322 23.0508 79.4869 22.9951 79.0787 22.8838C78.678 22.765 78.3403 22.6018 78.0657 22.394L78.4553 21.4588C78.7373 21.6518 79.0491 21.8002 79.3905 21.9041C79.7319 22.008 80.077 22.06 80.4258 22.06C80.7969 22.06 81.0715 21.9969 81.2496 21.8707C81.4351 21.7446 81.5279 21.5739 81.5279 21.3586C81.5279 21.1879 81.4685 21.0543 81.3498 20.9579C81.2385 20.854 81.0566 20.776 80.8043 20.7241L79.691 20.5126C79.216 20.4087 78.8524 20.2305 78.6 19.9782C78.3551 19.7259 78.2327 19.3956 78.2327 18.9874C78.2327 18.6386 78.3254 18.3306 78.511 18.0634C78.704 17.7962 78.9748 17.5884 79.3237 17.44C79.6799 17.2841 80.0955 17.2062 80.5705 17.2062C80.9861 17.2062 81.3758 17.2619 81.7394 17.3732C82.1105 17.4845 82.4222 17.6515 82.6746 17.8742L82.2738 18.7759C82.0437 18.5903 81.7802 18.4456 81.4834 18.3417C81.1865 18.2378 80.8971 18.1859 80.615 18.1859C80.2291 18.1859 79.9471 18.2564 79.769 18.3974C79.5908 18.531 79.5018 18.7054 79.5018 18.9206C79.5018 19.0839 79.5537 19.2212 79.6576 19.3325C79.769 19.4364 79.9397 19.5143 80.1697 19.5663L81.283 19.7778C81.7802 19.8743 82.155 20.045 82.4074 20.2899C82.6671 20.5274 82.797 20.854 82.797 21.2696C82.797 21.6407 82.6968 21.9598 82.4964 22.227C82.296 22.4942 82.0177 22.6982 81.6615 22.8393C81.3053 22.9803 80.8896 23.0508 80.4146 23.0508ZM87.0317 22.9395V18.7536C87.0317 18.5161 87.0243 18.2749 87.0095 18.03C87.002 17.7851 86.9835 17.5476 86.9538 17.3175H88.3008L88.4567 18.8538H88.234C88.3083 18.4827 88.4307 18.1747 88.6014 17.9298C88.7795 17.6849 88.9948 17.5031 89.2471 17.3843C89.4994 17.2656 89.774 17.2062 90.0709 17.2062C90.2045 17.2062 90.3121 17.2136 90.3937 17.2285C90.4754 17.2359 90.557 17.2544 90.6387 17.2841L90.6275 18.5087C90.4865 18.4493 90.3641 18.4122 90.2602 18.3974C90.1637 18.3825 90.0412 18.3751 89.8928 18.3751C89.5737 18.3751 89.3028 18.4419 89.0801 18.5755C88.8649 18.7091 88.7016 18.8946 88.5903 19.1321C88.4864 19.3696 88.4344 19.6405 88.4344 19.9448V22.9395H87.0317ZM94.0426 23.0508C93.4118 23.0508 92.87 22.9357 92.4173 22.7057C91.972 22.4682 91.6268 22.1305 91.3819 21.6926C91.1444 21.2547 91.0257 20.7352 91.0257 20.1341C91.0257 19.5477 91.1407 19.0356 91.3708 18.5978C91.6009 18.1599 91.92 17.8185 92.3282 17.5736C92.7438 17.3287 93.2262 17.2062 93.7754 17.2062C94.3172 17.2062 94.7699 17.3212 95.1336 17.5513C95.4973 17.7814 95.7719 18.1042 95.9574 18.5198C96.1504 18.9355 96.2469 19.4216 96.2469 19.9782V20.3456H92.1501V19.6108H95.2561L95.0668 19.7667C95.0668 19.2472 94.9555 18.8501 94.7328 18.5755C94.5176 18.3009 94.2022 18.1636 93.7866 18.1636C93.4748 18.1636 93.2114 18.2378 92.9962 18.3862C92.7883 18.5347 92.6288 18.7462 92.5175 19.0208C92.4061 19.2954 92.3505 19.6294 92.3505 20.0227V20.1675C92.3505 20.776 92.4989 21.2325 92.7958 21.5368C93.1001 21.8336 93.5268 21.9821 94.076 21.9821C94.3951 21.9821 94.692 21.9412 94.9666 21.8596C95.2486 21.7705 95.5158 21.6295 95.7682 21.4366L96.1801 22.3717C95.9129 22.5869 95.5937 22.7539 95.2227 22.8727C94.8516 22.9914 94.4582 23.0508 94.0426 23.0508ZM100.008 23.0508C99.4291 23.0508 98.9207 22.932 98.4828 22.6945C98.0524 22.457 97.7184 22.1194 97.4809 21.6815C97.2434 21.2362 97.1247 20.7092 97.1247 20.1007C97.1247 19.4921 97.2434 18.9726 97.4809 18.5421C97.7258 18.1116 98.0635 17.7814 98.494 17.5513C98.9244 17.3212 99.4291 17.2062 100.008 17.2062C100.379 17.2062 100.739 17.2656 101.088 17.3843C101.444 17.4956 101.734 17.6589 101.956 17.8742L101.533 18.8427C101.333 18.6571 101.106 18.5198 100.854 18.4308C100.609 18.3343 100.368 18.2861 100.13 18.2861C99.6332 18.2861 99.2436 18.4419 98.9615 18.7536C98.6869 19.0653 98.5496 19.5181 98.5496 20.1118C98.5496 20.7055 98.6869 21.162 98.9615 21.4811C99.2436 21.8002 99.6332 21.9598 100.13 21.9598C100.361 21.9598 100.598 21.9153 100.843 21.8262C101.095 21.7371 101.325 21.5998 101.533 21.4143L101.956 22.3717C101.726 22.5869 101.433 22.7539 101.077 22.8727C100.728 22.9914 100.372 23.0508 100.008 23.0508ZM105.643 23.0508C105.012 23.0508 104.47 22.9357 104.017 22.7057C103.572 22.4682 103.227 22.1305 102.982 21.6926C102.744 21.2547 102.626 20.7352 102.626 20.1341C102.626 19.5477 102.741 19.0356 102.971 18.5978C103.201 18.1599 103.52 17.8185 103.928 17.5736C104.344 17.3287 104.826 17.2062 105.375 17.2062C105.917 17.2062 106.37 17.3212 106.734 17.5513C107.097 17.7814 107.372 18.1042 107.557 18.5198C107.75 18.9355 107.847 19.4216 107.847 19.9782V20.3456H103.75V19.6108H106.856L106.667 19.7667C106.667 19.2472 106.555 18.8501 106.333 18.5755C106.118 18.3009 105.802 18.1636 105.387 18.1636C105.075 18.1636 104.811 18.2378 104.596 18.3862C104.388 18.5347 104.229 18.7462 104.117 19.0208C104.006 19.2954 103.95 19.6294 103.95 20.0227V20.1675C103.95 20.776 104.099 21.2325 104.396 21.5368C104.7 21.8336 105.127 21.9821 105.676 21.9821C105.995 21.9821 106.292 21.9412 106.567 21.8596C106.849 21.7705 107.116 21.6295 107.368 21.4366L107.78 22.3717C107.513 22.5869 107.194 22.7539 106.823 22.8727C106.452 22.9914 106.058 23.0508 105.643 23.0508ZM109.025 22.9395V17.3175H110.417V22.9395H109.025ZM108.947 16.2599V14.9018H110.495V16.2599H108.947ZM113.576 22.9395L111.149 17.3175H112.629L114.388 21.7149H114.043L115.847 17.3175H117.238L114.8 22.9395H113.576ZM120.591 23.0508C119.96 23.0508 119.418 22.9357 118.966 22.7057C118.52 22.4682 118.175 22.1305 117.93 21.6926C117.693 21.2547 117.574 20.7352 117.574 20.1341C117.574 19.5477 117.689 19.0356 117.919 18.5978C118.149 18.1599 118.468 17.8185 118.877 17.5736C119.292 17.3287 119.775 17.2062 120.324 17.2062C120.866 17.2062 121.318 17.3212 121.682 17.5513C122.046 17.7814 122.32 18.1042 122.506 18.5198C122.699 18.9355 122.795 19.4216 122.795 19.9782V20.3456H118.699V19.6108H121.805L121.615 19.7667C121.615 19.2472 121.504 18.8501 121.281 18.5755C121.066 18.3009 120.751 18.1636 120.335 18.1636C120.023 18.1636 119.76 18.2378 119.545 18.3862C119.337 18.5347 119.177 18.7462 119.066 19.0208C118.955 19.2954 118.899 19.6294 118.899 20.0227V20.1675C118.899 20.776 119.047 21.2325 119.344 21.5368C119.649 21.8336 120.075 21.9821 120.624 21.9821C120.944 21.9821 121.24 21.9412 121.515 21.8596C121.797 21.7705 122.064 21.6295 122.317 21.4366L122.729 22.3717C122.461 22.5869 122.142 22.7539 121.771 22.8727C121.4 22.9914 121.007 23.0508 120.591 23.0508ZM126.156 23.0508C125.666 23.0508 125.232 22.9357 124.853 22.7057C124.482 22.4682 124.193 22.1305 123.985 21.6926C123.777 21.2547 123.673 20.7315 123.673 20.1229C123.673 19.5143 123.777 18.9948 123.985 18.5644C124.193 18.1265 124.482 17.7925 124.853 17.5624C125.232 17.3249 125.666 17.2062 126.156 17.2062C126.623 17.2062 127.035 17.3212 127.391 17.5513C127.755 17.774 127.996 18.0782 128.115 18.4642H127.97V14.7459H129.362V22.9395H127.993V21.7483H128.126C128.007 22.149 127.766 22.4682 127.403 22.7057C127.046 22.9357 126.631 23.0508 126.156 23.0508ZM126.545 21.9821C126.983 21.9821 127.336 21.8299 127.603 21.5256C127.87 21.2139 128.004 20.7463 128.004 20.1229C128.004 19.4995 127.87 19.0356 127.603 18.7314C127.336 18.4271 126.983 18.2749 126.545 18.2749C126.107 18.2749 125.751 18.4271 125.477 18.7314C125.209 19.0356 125.076 19.4995 125.076 20.1229C125.076 20.7463 125.209 21.2139 125.477 21.5256C125.751 21.8299 126.107 21.9821 126.545 21.9821ZM131.489 24.9433H130.376C130.762 24.0898 131.048 23.2586 131.233 22.4496C131.426 21.6332 131.523 20.8206 131.523 20.0116C131.523 19.2026 131.426 18.3937 131.233 17.5847C131.048 16.7757 130.762 15.9445 130.376 15.091H131.489C131.846 15.6328 132.131 16.1672 132.347 16.6941C132.562 17.221 132.718 17.7591 132.814 18.3083C132.911 18.8501 132.959 19.4179 132.959 20.0116C132.959 20.6053 132.911 21.1768 132.814 21.726C132.718 22.2752 132.562 22.8133 132.347 23.3402C132.131 23.8672 131.846 24.4015 131.489 24.9433Z" fill="black"/>
<circle cx="66.7822" cy="94.023" r="40.5542" stroke="#FF0090" stroke-width="19.0843"/>
<path d="M66.7824 53.4688C50.6007 53.4688 36.6326 62.946 30.126 76.6527" stroke="#5D6AE8" stroke-width="19.0843"/>
<circle cx="140.734" cy="86.0723" r="3.18072" fill="#FF0090"/>
<path d="M155.747 104.614V99.0082H156.407V104.042H159.238V104.614H155.747ZM161.608 104.686C161.226 104.686 160.892 104.604 160.606 104.439C160.325 104.27 160.108 104.031 159.954 103.724C159.8 103.411 159.723 103.042 159.723 102.618C159.723 102.189 159.8 101.821 159.954 101.513C160.108 101.206 160.325 100.97 160.606 100.805C160.892 100.636 161.226 100.551 161.608 100.551C161.995 100.551 162.329 100.636 162.61 100.805C162.896 100.97 163.116 101.206 163.27 101.513C163.429 101.821 163.508 102.189 163.508 102.618C163.508 103.042 163.429 103.411 163.27 103.724C163.116 104.031 162.896 104.27 162.61 104.439C162.329 104.604 161.995 104.686 161.608 104.686ZM161.608 104.161C161.99 104.161 162.292 104.031 162.514 103.771C162.737 103.506 162.848 103.122 162.848 102.618C162.848 102.109 162.737 101.725 162.514 101.465C162.292 101.2 161.99 101.068 161.608 101.068C161.232 101.068 160.932 101.2 160.709 101.465C160.487 101.725 160.375 102.109 160.375 102.618C160.375 103.122 160.487 103.506 160.709 103.771C160.932 104.031 161.232 104.161 161.608 104.161ZM165.841 104.686C165.523 104.686 165.226 104.643 164.95 104.559C164.674 104.468 164.446 104.344 164.266 104.185L164.489 103.732C164.685 103.885 164.897 103.999 165.125 104.074C165.358 104.148 165.599 104.185 165.849 104.185C166.167 104.185 166.405 104.129 166.564 104.018C166.729 103.901 166.811 103.742 166.811 103.541C166.811 103.387 166.758 103.265 166.652 103.175C166.551 103.08 166.384 103.005 166.151 102.952L165.411 102.801C165.072 102.727 164.817 102.602 164.648 102.428C164.478 102.247 164.393 102.019 164.393 101.744C164.393 101.51 164.454 101.306 164.576 101.131C164.698 100.951 164.876 100.811 165.109 100.71C165.342 100.604 165.615 100.551 165.928 100.551C166.22 100.551 166.487 100.596 166.731 100.686C166.98 100.771 167.187 100.895 167.351 101.06L167.121 101.505C166.962 101.351 166.779 101.237 166.572 101.163C166.371 101.084 166.161 101.044 165.944 101.044C165.631 101.044 165.395 101.108 165.236 101.235C165.083 101.357 165.006 101.518 165.006 101.72C165.006 101.874 165.053 102.001 165.149 102.101C165.249 102.197 165.403 102.268 165.61 102.316L166.349 102.467C166.71 102.547 166.978 102.671 167.153 102.841C167.333 103.005 167.423 103.228 167.423 103.509C167.423 103.748 167.357 103.957 167.224 104.137C167.092 104.312 166.906 104.447 166.668 104.543C166.434 104.638 166.159 104.686 165.841 104.686ZM169.834 104.686C169.442 104.686 169.142 104.574 168.936 104.352C168.729 104.124 168.625 103.782 168.625 103.326V101.123H167.846V100.622H168.625V99.5331L169.269 99.3502V100.622H170.415V101.123H169.269V103.254C169.269 103.573 169.322 103.801 169.429 103.938C169.54 104.071 169.704 104.137 169.922 104.137C170.022 104.137 170.112 104.129 170.192 104.113C170.271 104.092 170.343 104.068 170.407 104.042V104.582C170.332 104.614 170.242 104.638 170.136 104.654C170.036 104.675 169.935 104.686 169.834 104.686Z" fill="black"/>
<circle cx="140.734" cy="101.977" r="3.18072" fill="#5D6AE8"/>
<path d="M155.747 88.7109V83.1049H158.037C158.626 83.1049 159.082 83.2454 159.405 83.5264C159.728 83.802 159.89 84.189 159.89 84.6873C159.89 85.016 159.816 85.297 159.667 85.5302C159.524 85.7582 159.32 85.9331 159.055 86.055C158.795 86.177 158.49 86.2379 158.141 86.2379L158.284 86.1346H158.443C158.66 86.1346 158.854 86.1876 159.023 86.2936C159.198 86.3996 159.336 86.5772 159.437 86.8264L160.232 88.7109H159.508L158.745 86.8582C158.655 86.6196 158.52 86.4659 158.339 86.397C158.159 86.3227 157.934 86.2856 157.664 86.2856H156.407V88.7109H155.747ZM156.407 85.7688H157.942C158.366 85.7688 158.687 85.6786 158.904 85.4984C159.127 85.3129 159.238 85.0478 159.238 84.7032C159.238 84.3586 159.127 84.0962 158.904 83.916C158.687 83.7358 158.366 83.6456 157.942 83.6456H156.407V85.7688ZM162.869 88.7825C162.456 88.7825 162.098 88.703 161.796 88.5439C161.493 88.3796 161.26 88.1437 161.096 87.8362C160.931 87.5235 160.849 87.1524 160.849 86.723C160.849 86.3042 160.929 85.9411 161.088 85.6336C161.247 85.3208 161.47 85.0796 161.756 84.91C162.042 84.735 162.371 84.6476 162.742 84.6476C163.108 84.6476 163.415 84.7244 163.664 84.8782C163.913 85.0319 164.104 85.2519 164.237 85.5382C164.369 85.8191 164.436 86.1531 164.436 86.5401V86.7786H161.342V86.3731H164.014L163.879 86.4765C163.879 86.0524 163.784 85.7211 163.593 85.4825C163.402 85.2439 163.118 85.1247 162.742 85.1247C162.471 85.1247 162.241 85.1883 162.05 85.3155C161.865 85.4427 161.721 85.6203 161.621 85.8483C161.525 86.0762 161.478 86.3493 161.478 86.6673V86.7389C161.478 87.2372 161.599 87.6162 161.843 87.876C162.092 88.1305 162.44 88.2577 162.885 88.2577C163.124 88.2577 163.346 88.2232 163.553 88.1543C163.765 88.0801 163.966 87.9608 164.157 87.7965L164.38 88.2497C164.205 88.4194 163.982 88.5519 163.712 88.6473C163.447 88.7374 163.166 88.7825 162.869 88.7825ZM167.099 88.7825C166.707 88.7825 166.365 88.6977 166.073 88.528C165.787 88.3584 165.564 88.1172 165.405 87.8044C165.252 87.4917 165.175 87.1206 165.175 86.6912C165.175 86.2565 165.254 85.888 165.413 85.5859C165.572 85.2784 165.795 85.0452 166.081 84.8861C166.373 84.7271 166.712 84.6476 167.099 84.6476C167.353 84.6476 167.6 84.6926 167.839 84.7827C168.082 84.8729 168.284 85.0001 168.443 85.1644L168.212 85.6256C168.053 85.4719 167.878 85.3579 167.687 85.2837C167.502 85.2095 167.319 85.1724 167.139 85.1724C166.725 85.1724 166.405 85.3023 166.177 85.562C165.949 85.8218 165.835 86.2008 165.835 86.6991C165.835 87.1921 165.949 87.5738 166.177 87.8442C166.405 88.1146 166.725 88.2497 167.139 88.2497C167.314 88.2497 167.494 88.2153 167.679 88.1464C167.87 88.0774 168.048 87.9635 168.212 87.8044L168.443 88.2577C168.279 88.4273 168.074 88.5572 167.831 88.6473C167.587 88.7374 167.343 88.7825 167.099 88.7825ZM171.054 88.7825C170.64 88.7825 170.283 88.703 169.98 88.5439C169.678 88.3796 169.445 88.1437 169.281 87.8362C169.116 87.5235 169.034 87.1524 169.034 86.723C169.034 86.3042 169.114 85.9411 169.273 85.6336C169.432 85.3208 169.654 85.0796 169.941 84.91C170.227 84.735 170.556 84.6476 170.927 84.6476C171.292 84.6476 171.6 84.7244 171.849 84.8782C172.098 85.0319 172.289 85.2519 172.422 85.5382C172.554 85.8191 172.62 86.1531 172.62 86.5401V86.7786H169.527V86.3731H172.199L172.064 86.4765C172.064 86.0524 171.968 85.7211 171.777 85.4825C171.587 85.2439 171.303 85.1247 170.927 85.1247C170.656 85.1247 170.426 85.1883 170.235 85.3155C170.049 85.4427 169.906 85.6203 169.805 85.8483C169.71 86.0762 169.662 86.3493 169.662 86.6673V86.7389C169.662 87.2372 169.784 87.6162 170.028 87.876C170.277 88.1305 170.624 88.2577 171.07 88.2577C171.308 88.2577 171.531 88.2232 171.738 88.1543C171.95 88.0801 172.151 87.9608 172.342 87.7965L172.565 88.2497C172.39 88.4194 172.167 88.5519 171.897 88.6473C171.632 88.7374 171.351 88.7825 171.054 88.7825ZM173.606 88.7109V84.7191H174.25V88.7109H173.606ZM173.526 83.8126V83.089H174.322V83.8126H173.526ZM176.678 88.7109L174.968 84.7191H175.668L177.099 88.2338H176.884L178.332 84.7191H179L177.29 88.7109H176.678ZM181.444 88.7825C181.031 88.7825 180.673 88.703 180.371 88.5439C180.068 88.3796 179.835 88.1437 179.671 87.8362C179.506 87.5235 179.424 87.1524 179.424 86.723C179.424 86.3042 179.504 85.9411 179.663 85.6336C179.822 85.3208 180.044 85.0796 180.331 84.91C180.617 84.735 180.946 84.6476 181.317 84.6476C181.683 84.6476 181.99 84.7244 182.239 84.8782C182.488 85.0319 182.679 85.2519 182.812 85.5382C182.944 85.8191 183.011 86.1531 183.011 86.5401V86.7786H179.917V86.3731H182.589L182.454 86.4765C182.454 86.0524 182.358 85.7211 182.168 85.4825C181.977 85.2439 181.693 85.1247 181.317 85.1247C181.046 85.1247 180.816 85.1883 180.625 85.3155C180.439 85.4427 180.296 85.6203 180.196 85.8483C180.1 86.0762 180.052 86.3493 180.052 86.6673V86.7389C180.052 87.2372 180.174 87.6162 180.418 87.876C180.667 88.1305 181.015 88.2577 181.46 88.2577C181.698 88.2577 181.921 88.2232 182.128 88.1543C182.34 88.0801 182.541 87.9608 182.732 87.7965L182.955 88.2497C182.78 88.4194 182.557 88.5519 182.287 88.6473C182.022 88.7374 181.741 88.7825 181.444 88.7825ZM185.507 88.7825C185.157 88.7825 184.85 88.7003 184.585 88.536C184.319 88.3664 184.113 88.1278 183.964 87.8203C183.821 87.5129 183.75 87.1444 183.75 86.715C183.75 86.2803 183.821 85.9093 183.964 85.6018C184.113 85.2943 184.319 85.0584 184.585 84.8941C184.85 84.7297 185.157 84.6476 185.507 84.6476C185.867 84.6476 186.178 84.7377 186.437 84.9179C186.702 85.0982 186.88 85.342 186.97 85.6495H186.875V82.8584H187.519V88.7109H186.883V87.7567H186.97C186.885 88.0748 186.71 88.3266 186.445 88.5121C186.18 88.6924 185.867 88.7825 185.507 88.7825ZM185.642 88.2577C186.019 88.2577 186.321 88.1278 186.549 87.868C186.777 87.603 186.891 87.2186 186.891 86.715C186.891 86.2061 186.777 85.8218 186.549 85.562C186.321 85.297 186.019 85.1644 185.642 85.1644C185.266 85.1644 184.964 85.297 184.736 85.562C184.513 85.8218 184.402 86.2061 184.402 86.715C184.402 87.2186 184.513 87.603 184.736 87.868C184.964 88.1278 185.266 88.2577 185.642 88.2577Z" fill="black"/>
</svg>
