<svg width="560" height="560" viewBox="0 0 560 560" fill="none" xmlns="http://www.w3.org/2000/svg">
<path d="M453.888 94.9268H444.892V121.339H453.888V94.9268Z" fill="#333333" stroke="black" stroke-width="0.5" stroke-miterlimit="10" stroke-linecap="round" stroke-linejoin="round"/>
<path d="M469.275 85.8583H460.278V121.339H469.275V85.8583Z" fill="#333333" stroke="black" stroke-width="0.5" stroke-miterlimit="10" stroke-linecap="round" stroke-linejoin="round"/>
<path d="M547.364 25H439.687C437.403 25 435.552 26.8514 435.552 29.1353V119.936C435.552 122.22 437.403 124.071 439.687 124.071H547.364C549.647 124.071 551.499 122.22 551.499 119.936V29.1353C551.499 26.8514 549.647 25 547.364 25Z" fill="white" stroke="black" stroke-width="0.5" stroke-linecap="round" stroke-linejoin="round"/>
<path d="M439.685 25H547.363C548.459 24.9996 549.51 25.4343 550.286 26.2086C551.062 26.9829 551.498 28.0335 551.5 29.1295V38.8194H435.544V29.1295C435.545 28.5864 435.652 28.0488 435.861 27.5474C436.069 27.046 436.375 26.5905 436.759 26.2071C437.144 25.8236 437.6 25.5197 438.102 25.3126C438.604 25.1054 439.142 24.9992 439.685 25Z" fill="#CCCCCC" stroke="black" stroke-width="0.5" stroke-miterlimit="10" stroke-linecap="round" stroke-linejoin="round"/>
<path d="M443.145 34.512C444.582 34.512 445.747 33.3469 445.747 31.9097C445.747 30.4725 444.582 29.3074 443.145 29.3074C441.708 29.3074 440.543 30.4725 440.543 31.9097C440.543 33.3469 441.708 34.512 443.145 34.512Z" fill="white" stroke="black" stroke-width="0.5" stroke-linecap="round" stroke-linejoin="round"/>
<path d="M451.96 34.512C453.398 34.512 454.563 33.3469 454.563 31.9097C454.563 30.4725 453.398 29.3074 451.96 29.3074C450.523 29.3074 449.358 30.4725 449.358 31.9097C449.358 33.3469 450.523 34.512 451.96 34.512Z" fill="white" stroke="black" stroke-width="0.5" stroke-linecap="round" stroke-linejoin="round"/>
<path d="M460.776 34.512C462.213 34.512 463.378 33.3469 463.378 31.9097C463.378 30.4725 462.213 29.3074 460.776 29.3074C459.339 29.3074 458.174 30.4725 458.174 31.9097C458.174 33.3469 459.339 34.512 460.776 34.512Z" fill="white" stroke="black" stroke-width="0.5" stroke-linecap="round" stroke-linejoin="round"/>
<path d="M476.16 87.9458H467.164V114.358H476.16V87.9458Z" fill="#B3B3B3" stroke="black" stroke-width="0.5" stroke-miterlimit="10" stroke-linecap="round" stroke-linejoin="round"/>
<path d="M491.547 51.3829H482.551V114.358H491.547V51.3829Z" fill="#B3B3B3" stroke="black" stroke-width="0.5" stroke-miterlimit="10" stroke-linecap="round" stroke-linejoin="round"/>
<path d="M506.934 63.8005H497.938V114.356H506.934V63.8005Z" fill="#B3B3B3" stroke="black" stroke-width="0.5" stroke-miterlimit="10" stroke-linecap="round" stroke-linejoin="round"/>
<path d="M522.32 78.8773H513.323V114.358H522.32V78.8773Z" fill="#B3B3B3" stroke="black" stroke-width="0.5" stroke-miterlimit="10" stroke-linecap="round" stroke-linejoin="round"/>
<path d="M537.706 52.9043H528.71V114.358H537.706V52.9043Z" fill="#B3B3B3" stroke="black" stroke-width="0.5" stroke-miterlimit="10" stroke-linecap="round" stroke-linejoin="round"/>
<path d="M427 114.358H547.005" stroke="black" stroke-width="0.5" stroke-linecap="round" stroke-linejoin="round"/>
<path d="M536.361 430.096H111.486L33.8379 376.127H458.713L536.361 430.096Z" fill="white" stroke="black" stroke-width="0.5" stroke-linecap="round" stroke-linejoin="round"/>
<path d="M536.361 430.096H111.096V487.664H536.361V430.096Z" fill="#808080" stroke="black" stroke-width="0.5" stroke-linecap="round" stroke-linejoin="round"/>
<path d="M111.095 487.666L33.8379 433.695V376.127L111.095 430.096V487.666Z" fill="#B3B3B3" stroke="black" stroke-width="0.5" stroke-linecap="round" stroke-linejoin="round"/>
<path d="M320.848 337.404H236.445V397.589H320.848V337.404Z" fill="#B3B3B3" stroke="black" stroke-width="0.5" stroke-linecap="round" stroke-linejoin="round"/>
<path d="M461.356 106.312H95.9367C91.6408 106.312 88.1582 109.795 88.1582 114.091V341.255C88.1582 345.551 91.6408 349.034 95.9367 349.034H461.356C465.652 349.034 469.135 345.551 469.135 341.255V114.091C469.135 109.795 465.652 106.312 461.356 106.312Z" fill="#E5E5E5" stroke="black" stroke-width="0.5" stroke-linecap="round" stroke-linejoin="round"/>
<path d="M461.356 58.8351H95.9367C91.6408 58.8351 88.1582 62.3179 88.1582 66.6142V293.778C88.1582 298.074 91.6408 301.557 95.9367 301.557H461.356C465.652 301.557 469.135 298.074 469.135 293.778V66.6142C469.135 62.3179 465.652 58.8351 461.356 58.8351Z" fill="#808080" stroke="black" stroke-width="0.5" stroke-linecap="round" stroke-linejoin="round"/>
<path d="M459.704 69.5081H97.5908V290.886H459.704V69.5081Z" fill="#E5E5E5" stroke="black" stroke-width="0.5" stroke-miterlimit="10" stroke-linecap="round" stroke-linejoin="round"/>
<path d="M127.03 95.2118C127.03 93.8077 125.892 92.6694 124.488 92.6694C123.084 92.6694 121.945 93.8077 121.945 95.2118V118.979C121.945 120.384 123.084 121.522 124.488 121.522C125.892 121.522 127.03 120.384 127.03 118.979V95.2118Z" fill="#808080"/>
<path d="M144.359 101.367C144.359 99.9632 143.221 98.825 141.817 98.825C140.413 98.825 139.274 99.9632 139.274 101.367V112.824C139.274 114.228 140.413 115.366 141.817 115.366C143.221 115.366 144.359 114.228 144.359 112.824V101.367Z" fill="#808080"/>
<path d="M152.632 107.096C152.632 105.691 151.494 104.553 150.09 104.553C148.686 104.553 147.548 105.691 147.548 107.096C147.548 108.5 148.686 109.638 150.09 109.638C151.494 109.638 152.632 108.5 152.632 107.096Z" fill="#808080"/>
<path d="M136.369 89.7287C136.369 87.9781 134.95 86.559 133.2 86.559C131.449 86.559 130.03 87.9781 130.03 89.7287V124.462C130.03 126.213 131.449 127.632 133.2 127.632C134.95 127.632 136.369 126.213 136.369 124.462V89.7287Z" fill="#808080"/>
<path d="M278.646 333.524C283.554 333.524 287.532 329.545 287.532 324.638C287.532 319.73 283.554 315.751 278.646 315.751C273.739 315.751 269.761 319.73 269.761 324.638C269.761 329.545 273.739 333.524 278.646 333.524Z" fill="#E5E5E5" stroke="black" stroke-width="0.5" stroke-linecap="round" stroke-linejoin="round"/>
<path d="M206.802 397.765L236.446 390.003H320.861L350.491 397.765H206.802Z" fill="#E5E5E5" stroke="black" stroke-width="0.5" stroke-linecap="round" stroke-linejoin="round"/>
<path d="M349.397 397.589H207.894C206.104 397.589 204.653 399.039 204.653 400.829C204.653 402.619 206.104 404.069 207.894 404.069H349.397C351.187 404.069 352.638 402.619 352.638 400.829C352.638 399.039 351.187 397.589 349.397 397.589Z" fill="white" stroke="black" stroke-width="0.5" stroke-linecap="round" stroke-linejoin="round"/>
<path d="M440.541 85.3667H180.442C177.649 85.3667 175.385 87.6309 175.385 90.4239V141.38C175.385 144.173 177.649 146.437 180.442 146.437H440.541C443.334 146.437 445.598 144.173 445.598 141.38V90.4239C445.598 87.6309 443.334 85.3667 440.541 85.3667Z" fill="white"/>
<path d="M440.541 203.277H180.442C177.649 203.277 175.385 205.541 175.385 208.334V279.002C175.385 281.795 177.649 284.059 180.442 284.059H440.541C443.334 284.059 445.598 281.795 445.598 279.002V208.334C445.598 205.541 443.334 203.277 440.541 203.277Z" fill="white"/>
<path d="M233.071 150.626H180.442C177.649 150.626 175.385 152.89 175.385 155.683V193.827C175.385 196.62 177.649 198.885 180.442 198.885H233.071C235.864 198.885 238.128 196.62 238.128 193.827V155.683C238.128 152.89 235.864 150.626 233.071 150.626Z" fill="white"/>
<path d="M300.147 150.626H247.518C244.725 150.626 242.461 152.89 242.461 155.683V193.827C242.461 196.62 244.725 198.885 247.518 198.885H300.147C302.94 198.885 305.204 196.62 305.204 193.827V155.683C305.204 152.89 302.94 150.626 300.147 150.626Z" fill="white"/>
<path d="M440.797 150.626H315.287C312.494 150.626 310.23 152.89 310.23 155.683V193.827C310.23 196.62 312.494 198.885 315.287 198.885H440.797C443.589 198.885 445.853 196.62 445.853 193.827V155.683C445.853 152.89 443.589 150.626 440.797 150.626Z" fill="white"/>
<path fill-rule="evenodd" clip-rule="evenodd" d="M206.755 161.337C199.346 161.337 193.339 167.344 193.339 174.754C193.339 182.164 199.346 188.171 206.755 188.171C214.164 188.171 220.171 182.164 220.171 174.754C220.171 167.344 214.164 161.337 206.755 161.337ZM185.652 174.754C185.652 163.099 195.1 153.65 206.755 153.65C218.41 153.65 227.858 163.099 227.858 174.754C227.858 186.409 218.41 195.858 206.755 195.858C195.1 195.858 185.652 186.409 185.652 174.754Z" fill="#E5E5E5"/>
<path fill-rule="evenodd" clip-rule="evenodd" d="M206.754 153.65C211.72 153.65 216.527 155.401 220.329 158.596C224.131 161.791 226.685 166.224 227.541 171.116C228.397 176.008 227.5 181.045 225.009 185.341C222.518 189.637 218.591 192.917 213.92 194.604C209.249 196.29 204.133 196.275 199.472 194.561C194.811 192.848 190.904 189.545 188.438 185.234C185.971 180.924 185.104 175.882 185.989 170.995C186.873 166.108 189.453 161.69 193.274 158.517L198.184 164.431C195.755 166.448 194.115 169.257 193.553 172.364C192.991 175.471 193.542 178.676 195.11 181.417C196.678 184.157 199.162 186.257 202.125 187.347C205.088 188.436 208.34 188.446 211.31 187.373C214.279 186.301 216.775 184.216 218.359 181.485C219.943 178.754 220.513 175.551 219.969 172.441C219.425 169.331 217.801 166.513 215.384 164.481C212.967 162.45 209.911 161.337 206.754 161.337L206.754 153.65Z" fill="#333333"/>
<path fill-rule="evenodd" clip-rule="evenodd" d="M206.759 153.654C211.516 153.656 216.133 155.264 219.861 158.219C223.589 161.174 226.209 165.301 227.297 169.932C228.384 174.563 227.876 179.426 225.853 183.731C223.831 188.037 220.413 191.533 216.155 193.652C211.896 195.771 207.046 196.39 202.392 195.407C197.738 194.424 193.553 191.897 190.515 188.236C187.477 184.576 185.765 179.997 185.656 175.241C185.547 170.485 187.048 165.832 189.915 162.037L196.049 166.67C194.226 169.083 193.272 172.042 193.341 175.065C193.41 178.089 194.499 181 196.43 183.327C198.361 185.654 201.022 187.261 203.981 187.885C206.94 188.51 210.022 188.117 212.73 186.77C215.437 185.423 217.61 183.2 218.896 180.463C220.181 177.726 220.505 174.634 219.813 171.69C219.122 168.746 217.456 166.122 215.086 164.243C212.716 162.365 209.781 161.342 206.757 161.341L206.759 153.654Z" fill="#666666"/>
<path fill-rule="evenodd" clip-rule="evenodd" d="M206.754 153.654C211.131 153.655 215.4 155.016 218.969 157.551C222.538 160.085 225.231 163.666 226.675 167.798C228.118 171.931 228.242 176.409 227.027 180.615C225.813 184.82 223.321 188.544 219.897 191.271C216.473 193.997 212.285 195.592 207.915 195.833C203.544 196.074 199.207 194.95 195.503 192.617C191.8 190.284 188.913 186.857 187.244 182.811C185.574 178.765 185.203 174.3 186.183 170.034L193.675 171.755C193.052 174.467 193.288 177.306 194.349 179.879C195.411 182.451 197.246 184.63 199.601 186.113C201.955 187.597 204.713 188.311 207.491 188.158C210.27 188.004 212.932 186.991 215.109 185.257C217.286 183.524 218.87 181.156 219.642 178.482C220.414 175.809 220.336 172.961 219.418 170.334C218.5 167.706 216.788 165.429 214.519 163.818C212.25 162.207 209.536 161.342 206.753 161.341L206.754 153.654Z" fill="#999999"/>
<path fill-rule="evenodd" clip-rule="evenodd" d="M206.753 153.654C210.485 153.654 214.15 154.643 217.375 156.521C220.6 158.399 223.27 161.098 225.111 164.344C226.953 167.59 227.901 171.267 227.859 174.998C227.816 178.73 226.786 182.384 224.871 185.587C222.956 188.791 220.227 191.429 216.96 193.234C213.693 195.038 210.007 195.944 206.276 195.86C202.545 195.775 198.903 194.702 195.722 192.751C192.541 190.799 189.934 188.039 188.167 184.752L194.938 181.113C196.061 183.203 197.719 184.958 199.741 186.198C201.764 187.439 204.079 188.121 206.451 188.174C208.823 188.228 211.166 187.653 213.243 186.505C215.32 185.358 217.055 183.681 218.273 181.644C219.49 179.607 220.145 177.284 220.172 174.911C220.199 172.539 219.596 170.201 218.425 168.138C217.254 166.074 215.557 164.358 213.507 163.164C211.457 161.97 209.127 161.341 206.754 161.341L206.753 153.654Z" fill="#CCCCCC"/>
<path fill-rule="evenodd" clip-rule="evenodd" d="M206.759 153.654C212.122 153.662 217.281 155.712 221.187 159.386C225.093 163.06 227.454 168.084 227.79 173.437C228.125 178.789 226.411 184.068 222.995 188.202C219.579 192.336 214.717 195.014 209.397 195.693L208.425 188.067C211.807 187.636 214.897 185.934 217.069 183.306C219.241 180.677 220.331 177.321 220.118 173.918C219.904 170.515 218.403 167.321 215.92 164.985C213.437 162.649 210.157 161.346 206.748 161.341L206.759 153.654Z" fill="#999999"/>
<path fill-rule="evenodd" clip-rule="evenodd" d="M273.833 161.508C266.592 161.508 260.721 167.378 260.721 174.621C260.721 181.863 266.592 187.733 273.833 187.733C281.074 187.733 286.944 181.863 286.944 174.621C286.944 167.378 281.074 161.508 273.833 161.508ZM252.266 174.621C252.266 162.709 261.921 153.052 273.833 153.052C285.744 153.052 295.4 162.709 295.4 174.621C295.4 186.532 285.744 196.189 273.833 196.189C261.921 196.189 252.266 186.532 252.266 174.621Z" fill="#CCCCCC"/>
<path fill-rule="evenodd" clip-rule="evenodd" d="M262.297 156.395C265.747 154.211 269.747 153.052 273.831 153.052L273.831 161.508C271.348 161.508 268.917 162.213 266.819 163.54C264.721 164.868 263.043 166.764 261.98 169.008L254.338 165.389C256.086 161.698 258.846 158.579 262.297 156.395Z" fill="#666666"/>
<path d="M159.515 150.576H111.645C109.282 150.576 107.367 152.492 107.367 154.855V154.856C107.367 157.219 109.282 159.134 111.645 159.134H159.515C161.878 159.134 163.793 157.219 163.793 154.856V154.855C163.793 152.492 161.878 150.576 159.515 150.576Z" fill="white"/>
<path d="M137.04 165.011H111.645C109.282 165.011 107.367 166.927 107.367 169.29V169.291C107.367 171.654 109.282 173.569 111.645 173.569H137.04C139.403 173.569 141.318 171.654 141.318 169.291V169.29C141.318 166.927 139.403 165.011 137.04 165.011Z" fill="white"/>
<path d="M150.345 180.193H111.645C109.282 180.193 107.367 182.109 107.367 184.472V184.473C107.367 186.836 109.282 188.751 111.645 188.751H150.345C152.708 188.751 154.623 186.836 154.623 184.473V184.472C154.623 182.109 152.708 180.193 150.345 180.193Z" fill="white"/>
<path d="M161.735 198.885H112.036C109.193 198.885 106.889 201.189 106.889 204.032V206.636C106.889 209.479 109.193 211.784 112.036 211.784H161.735C164.578 211.784 166.882 209.479 166.882 206.636V204.032C166.882 201.189 164.578 198.885 161.735 198.885Z" fill="#B3B3B3"/>
<path d="M194.915 225.755C194.915 224.453 195.433 223.205 196.353 222.285C197.273 221.365 198.522 220.848 199.823 220.848H224.358C225.659 220.848 226.907 221.365 227.827 222.285C228.747 223.205 229.264 224.453 229.264 225.755V274.521H194.915V225.755Z" fill="#999999"/>
<path d="M234.17 236.797C234.17 235.495 234.688 234.247 235.608 233.326C236.528 232.406 237.776 231.889 239.078 231.888H263.612C264.914 231.889 266.162 232.406 267.082 233.327C268.002 234.247 268.519 235.495 268.519 236.797V274.521H234.17V236.797Z" fill="#999999"/>
<path d="M273.426 243.543C273.426 242.242 273.943 240.993 274.864 240.073C275.784 239.153 277.032 238.636 278.334 238.636H302.868C304.17 238.636 305.418 239.153 306.338 240.073C307.258 240.994 307.775 242.242 307.775 243.543V274.521H273.426V243.543Z" fill="#999999"/>
<path d="M312.682 259.492C312.682 258.848 312.809 258.209 313.055 257.614C313.302 257.019 313.663 256.478 314.119 256.022C314.575 255.566 315.116 255.205 315.712 254.958C316.307 254.712 316.945 254.585 317.59 254.585H342.124C342.769 254.585 343.407 254.712 344.002 254.958C344.597 255.205 345.138 255.566 345.594 256.022C346.05 256.478 346.411 257.019 346.658 257.614C346.904 258.21 347.031 258.848 347.031 259.492V274.516H312.682V259.492Z" fill="#999999"/>
<path d="M351.938 269.308C351.938 268.006 352.455 266.757 353.375 265.837C354.295 264.916 355.544 264.399 356.846 264.399H381.38C382.024 264.399 382.663 264.526 383.258 264.773C383.853 265.019 384.394 265.381 384.85 265.837C385.306 266.293 385.667 266.834 385.914 267.429C386.16 268.025 386.287 268.663 386.287 269.308V274.521H351.938V269.308Z" fill="#999999"/>
<path d="M391.201 274.215C391.201 273.57 391.328 272.932 391.575 272.336C391.821 271.741 392.183 271.2 392.639 270.744C393.095 270.289 393.636 269.927 394.231 269.681C394.827 269.434 395.465 269.307 396.109 269.308H420.644C421.288 269.307 421.926 269.434 422.522 269.681C423.117 269.927 423.658 270.289 424.114 270.744C424.569 271.2 424.931 271.741 425.177 272.337C425.424 272.932 425.55 273.57 425.55 274.215V274.521H391.201V274.215Z" fill="#999999"/>
<path d="M321.773 157.34C321.773 156.969 321.921 156.613 322.183 156.351C322.445 156.089 322.801 155.941 323.172 155.941H332.974C333.345 155.941 333.7 156.089 333.963 156.351C334.225 156.613 334.372 156.969 334.372 157.34V193.394H321.773V157.34Z" fill="#B3B3B3"/>
<path d="M341.372 159.266C341.372 158.894 341.52 158.538 341.782 158.275C342.045 158.013 342.401 157.865 342.772 157.865H352.572C352.944 157.865 353.3 158.013 353.562 158.275C353.825 158.538 353.973 158.894 353.973 159.266V193.569H341.372V159.266Z" fill="#B3B3B3"/>
<path d="M360.972 166.267C360.972 165.896 361.119 165.54 361.382 165.277C361.644 165.014 362.001 164.867 362.372 164.867H372.172C372.543 164.867 372.899 165.014 373.162 165.277C373.425 165.54 373.572 165.896 373.572 166.267V193.569H360.972V166.267Z" fill="#B3B3B3"/>
<path d="M380.572 169.592C380.572 169.22 380.72 168.864 380.982 168.601C381.245 168.339 381.601 168.191 381.972 168.191H391.773C392.144 168.191 392.5 168.339 392.763 168.601C393.025 168.864 393.173 169.22 393.173 169.592V193.394H380.572V169.592Z" fill="#B3B3B3"/>
<path d="M400.172 171.692C400.172 171.321 400.319 170.965 400.582 170.702C400.845 170.439 401.201 170.292 401.572 170.292H411.372C411.744 170.292 412.1 170.439 412.362 170.702C412.625 170.965 412.772 171.321 412.772 171.692V193.394H400.172V171.692Z" fill="#B3B3B3"/>
<path d="M419.773 173.442C419.773 173.259 419.809 173.077 419.88 172.907C419.95 172.737 420.053 172.582 420.183 172.452C420.313 172.322 420.467 172.219 420.637 172.149C420.806 172.078 420.988 172.042 421.172 172.042H430.974C431.158 172.042 431.34 172.078 431.509 172.149C431.679 172.219 431.833 172.322 431.963 172.452C432.093 172.582 432.196 172.737 432.266 172.907C432.337 173.077 432.373 173.259 432.373 173.442V193.394H419.773V173.442Z" fill="#B3B3B3"/>
<path d="M181.659 131.99L199.637 131.526L217.616 131.758H235.595L253.574 131.526L271.553 131.758L290.061 130.667L308.039 131.99H343.997L361.977 131.758L379.955 131.526L397.935 130.403L415.913 130.933L433.893 132.254" stroke="#CCCCCC" stroke-width="2" stroke-linecap="round" stroke-linejoin="round"/>
<path d="M181.659 129.875L199.637 123.396L217.616 116.918L235.595 119.298L253.574 119.033L271.553 116.39L290.061 121.941L308.039 101.847L326.019 114.803L343.997 110.572L361.977 109.515L379.955 113.481L397.935 111.894L415.913 104.226L433.893 101.186" stroke="#808080" stroke-width="2" stroke-linecap="round" stroke-linejoin="round"/>
<path d="M181.659 274.878H438.75" stroke="black" stroke-width="0.5" stroke-linecap="round" stroke-linejoin="round"/>
<path d="M467.258 355.816L453.27 360.486L465.685 397.681L479.674 393.011L467.258 355.816Z" fill="#E5E5E5" stroke="black" stroke-width="0.5" stroke-linecap="round" stroke-linejoin="round"/>
<path d="M430.093 235.913L427.862 315.578C427.792 320.388 428.532 325.175 430.05 329.74L455.627 387.719L478.578 379.055L456.625 321.462L462.271 235.908" fill="#CCCCCC"/>
<path d="M430.093 235.913L427.862 315.578C427.792 320.388 428.532 325.175 430.05 329.74L455.627 387.719L478.578 379.055L456.625 321.462L462.271 235.908" stroke="black" stroke-width="0.5" stroke-miterlimit="10" stroke-linecap="round" stroke-linejoin="round"/>
<path d="M477.324 388.409C477.423 388.17 477.578 387.959 477.777 387.793C477.975 387.626 478.211 387.511 478.463 387.456C478.716 387.4 478.979 387.407 479.228 387.475C479.478 387.543 479.707 387.67 479.897 387.846C481.398 389.227 483.427 391.545 484.386 394.62C486.011 399.828 487.188 407.656 487.188 407.656L432.152 419.485L430.94 413.845C430.786 413.128 430.775 412.387 430.907 411.665C431.039 410.942 431.312 410.253 431.71 409.637C432.108 409.02 432.624 408.488 433.228 408.071C433.832 407.654 434.512 407.36 435.23 407.206L437.72 406.67C441.461 405.867 444.904 404.036 447.663 401.385L461.723 387.874L461.989 388.044C462.411 388.317 462.726 388.728 462.879 389.207C463.032 389.686 463.014 390.203 462.829 390.67C462.829 390.67 468.316 395.046 472.178 394.216C474.68 393.675 476.414 390.553 477.324 388.409Z" fill="#B3B3B3" stroke="black" stroke-width="0.5" stroke-linecap="round" stroke-linejoin="round"/>
<path d="M486.469 404.27L431.435 416.099L432.161 419.479L487.196 407.65L486.469 404.27Z" fill="black" stroke="black" stroke-width="0.5" stroke-miterlimit="10" stroke-linecap="round" stroke-linejoin="round"/>
<path d="M447.476 398.998L447.475 398.998C446.969 399.456 446.93 400.236 447.387 400.741L449.513 403.092C449.971 403.598 450.751 403.637 451.256 403.18L451.257 403.179C451.763 402.721 451.802 401.941 451.345 401.436L449.219 399.085C448.761 398.579 447.981 398.54 447.476 398.998Z" fill="white" stroke="black" stroke-width="0.5" stroke-miterlimit="10" stroke-linecap="round" stroke-linejoin="round"/>
<path d="M450.442 396.34L450.441 396.341C449.935 396.798 449.896 397.578 450.353 398.084L452.479 400.434C452.936 400.94 453.717 400.979 454.222 400.522L454.223 400.521C454.729 400.064 454.768 399.283 454.311 398.778L452.184 396.427C451.727 395.922 450.947 395.883 450.442 396.34Z" fill="white" stroke="black" stroke-width="0.5" stroke-miterlimit="10" stroke-linecap="round" stroke-linejoin="round"/>
<path d="M452.922 393.785L452.921 393.786C452.416 394.243 452.376 395.023 452.834 395.529L454.96 397.879C455.417 398.385 456.197 398.424 456.703 397.967L456.704 397.966C457.209 397.509 457.248 396.728 456.791 396.223L454.665 393.872C454.208 393.367 453.427 393.328 452.922 393.785Z" fill="white" stroke="black" stroke-width="0.5" stroke-miterlimit="10" stroke-linecap="round" stroke-linejoin="round"/>
<path d="M455.404 391.231L455.402 391.232C454.897 391.689 454.858 392.47 455.315 392.975L457.441 395.326C457.898 395.831 458.679 395.87 459.184 395.413L459.185 395.412C459.691 394.955 459.73 394.175 459.273 393.669L457.146 391.319C456.689 390.813 455.909 390.774 455.404 391.231Z" fill="white" stroke="black" stroke-width="0.5" stroke-miterlimit="10" stroke-linecap="round" stroke-linejoin="round"/>
<path d="M457.886 388.678L457.885 388.679C457.379 389.136 457.34 389.916 457.797 390.422L459.924 392.772C460.381 393.278 461.161 393.317 461.666 392.86L461.668 392.859C462.173 392.402 462.212 391.621 461.755 391.116L459.629 388.765C459.172 388.26 458.391 388.221 457.886 388.678Z" fill="white" stroke="black" stroke-width="0.5" stroke-miterlimit="10" stroke-linecap="round" stroke-linejoin="round"/>
<path d="M465.332 366.121H450.585V405.334H465.332V366.121Z" fill="#E5E5E5" stroke="black" stroke-width="0.5" stroke-linecap="round" stroke-linejoin="round"/>
<path d="M435.16 224.042L445.846 389.484L472.683 387.54L474.595 223.804L435.16 224.042Z" fill="#CCCCCC" stroke="black" stroke-width="0.5" stroke-miterlimit="10" stroke-linecap="round" stroke-linejoin="round"/>
<path d="M362.524 164.044L331.469 157.985C331.469 157.985 318.247 154.172 317.612 155.429C316.978 156.687 327.994 160.812 327.994 160.812C327.994 160.812 327.049 161.126 327.361 162.071C327.674 163.016 329.249 163.335 329.249 163.335C329.249 163.335 328.302 163.649 328.301 164.279C328.299 164.909 330.5 166.489 330.5 166.489C330.5 166.489 329.333 167.236 329.6 167.802C329.867 168.368 334.902 170.282 338.365 171.231C341.827 172.181 359.66 173.588 359.66 173.588L362.524 164.044Z" fill="#E5E5E5" stroke="black" stroke-width="0.5" stroke-linecap="round" stroke-linejoin="round"/>
<path d="M339.652 160.841C339.652 160.841 330.837 158.299 330.834 159.559C330.831 160.819 337.438 164.301 337.438 164.301C338.067 165.324 338.804 166.277 339.636 167.143C340.894 168.406 343.098 168.727 343.098 168.727" fill="#E5E5E5"/>
<path d="M339.652 160.841C339.652 160.841 330.837 158.299 330.834 159.559C330.831 160.819 337.438 164.301 337.438 164.301C338.067 165.324 338.804 166.277 339.636 167.143C340.894 168.406 343.098 168.727 343.098 168.727" stroke="black" stroke-width="0.5" stroke-linecap="round" stroke-linejoin="round"/>
<path d="M469.496 139.711L447.18 134.605L444.37 136.84C442.463 137.247 439.355 137.228 431.097 139.562C427.029 140.713 422.726 142.514 419.59 145.397L399.536 161.193L351.385 161.179L348.202 174.865C348.202 174.865 381.689 182.807 395.868 187.498C397.706 188.106 399.646 188.345 401.577 188.201C403.507 188.056 405.39 187.532 407.118 186.658L419.279 181.717L418.282 237.001C418.224 237.929 418.359 238.859 418.679 239.732C419 240.605 419.498 241.402 420.143 242.072C420.787 242.742 421.564 243.271 422.424 243.625C423.283 243.979 424.207 244.15 425.137 244.128L474.206 243.05C475.942 243.011 477.595 242.301 478.819 241.069C480.042 239.837 480.742 238.179 480.769 236.442L480.879 152.91C481.853 150.495 478.192 142.096 469.496 139.711Z" fill="#4C4C4C" stroke="black" stroke-width="0.5" stroke-linecap="round" stroke-linejoin="round"/>
<path d="M454.903 168.392L428.302 158.877C426.655 158.288 424.843 159.146 424.254 160.792L410.314 199.77C409.725 201.417 410.583 203.229 412.229 203.818L438.83 213.333C440.477 213.922 442.289 213.064 442.878 211.418L456.818 172.44C457.407 170.793 456.549 168.981 454.903 168.392Z" fill="white" stroke="black" stroke-width="0.5" stroke-linecap="round" stroke-linejoin="round"/>
<path d="M433.541 190.849C436.158 190.849 438.279 188.728 438.279 186.111C438.279 183.494 436.158 181.373 433.541 181.373C430.925 181.373 428.804 183.494 428.804 186.111C428.804 188.728 430.925 190.849 433.541 190.849Z" fill="white" stroke="black" stroke-width="0.5" stroke-linecap="round" stroke-linejoin="round"/>
<path d="M451.21 117.721L453.909 135.858C454.23 138.017 453.691 140.215 452.406 141.979C451.121 143.743 449.195 144.931 447.042 145.287C445.945 145.469 444.824 145.429 443.743 145.17C442.663 144.911 441.645 144.437 440.75 143.778C439.856 143.119 439.102 142.287 438.535 141.332C437.967 140.376 437.597 139.317 437.446 138.216L434.734 118.524L451.21 117.721Z" fill="#E5E5E5" stroke="black" stroke-width="0.5" stroke-linecap="round" stroke-linejoin="round"/>
<path d="M452.295 124.93C452.295 124.93 454.648 123.932 454.598 121.033C454.548 118.133 454.426 116.323 454.426 116.323C454.426 116.323 457.158 108.008 453.668 100.362C450.177 92.7154 443.287 93.8357 443.287 93.8357C443.287 93.8357 437.492 89.2001 427.699 94.107C417.907 99.014 414.105 101.748 415.329 106.719C417.303 114.728 427.144 113.774 427.144 113.774L444 102.954L446.834 113.894C446.834 113.894 448.813 111.179 450.953 112.995C453.18 114.892 451.036 120.192 451.036 120.192L452.295 124.93Z" fill="black" stroke="black" stroke-width="0.5" stroke-linecap="round" stroke-linejoin="round"/>
<path d="M446.84 113.89L444.447 102.894L424.342 108.237C424.342 108.237 426.588 120.102 427.996 124.261C429.403 128.419 434.196 132.816 440.056 130.428C445.917 128.04 448.528 125.072 450.491 121.384C452.454 117.697 452.19 113.537 450.612 112.742C448.256 111.548 446.84 113.89 446.84 113.89Z" fill="#E5E5E5" stroke="black" stroke-width="0.5" stroke-linecap="round" stroke-linejoin="round"/>
<path d="M439.798 112.37L436.271 112.174" stroke="black" stroke-width="0.5" stroke-linecap="round" stroke-linejoin="round"/>
<path d="M429.829 113.509L427.373 116.201" stroke="black" stroke-width="0.5" stroke-linecap="round" stroke-linejoin="round"/>
<path d="M433.311 115.529C433.311 115.529 432.707 118.938 433.416 120.185C434.125 121.432 435.969 120.413 435.969 120.413" stroke="black" stroke-width="0.5" stroke-linecap="round" stroke-linejoin="round"/>
<path d="M438.224 116.244C438.849 116.244 439.355 115.737 439.355 115.112C439.355 114.487 438.849 113.98 438.224 113.98C437.599 113.98 437.092 114.487 437.092 115.112C437.092 115.737 437.599 116.244 438.224 116.244Z" fill="black"/>
<path d="M429.97 118.438C430.595 118.438 431.102 117.931 431.102 117.306C431.102 116.681 430.595 116.174 429.97 116.174C429.345 116.174 428.838 116.681 428.838 117.306C428.838 117.931 429.345 118.438 429.97 118.438Z" fill="black"/>
<path d="M438.75 121.486L433.499 124.481C433.499 124.481 434.981 126.643 437.318 125.492C439.654 124.341 438.75 121.486 438.75 121.486Z" fill="white" stroke="black" stroke-width="0.5" stroke-miterlimit="10" stroke-linecap="round" stroke-linejoin="round"/>
<path d="M450.684 190.278L427.501 181.847C425.976 181.236 425.16 180.551 424.562 179.573C423.233 177.401 420.534 178.078 419.756 178.338C419.107 178.554 417.649 179.115 417.253 179.531L420.534 180.427L416.473 179.318C416.175 179.239 415.857 179.276 415.584 179.42C415.311 179.564 415.103 179.806 415 180.097C414.892 180.398 414.906 180.728 415.038 181.019C415.17 181.31 415.41 181.538 415.707 181.655L420.42 183.038L416.089 181.818C414.164 181.222 413.525 183.386 414.554 184.139L419.497 185.567L415.128 184.356C413.468 183.627 411.96 186.15 414.457 186.922L419.011 188.235L414.214 186.824C413.444 186.636 412.277 188.502 413.859 189.233L449.041 201.048L450.684 190.278Z" fill="#E5E5E5" stroke="black" stroke-width="0.5" stroke-linecap="round" stroke-linejoin="round"/>
<path d="M480.562 149.582L494.835 192.612C500.107 207.443 488.632 218.092 477.611 213.747L438.5 199.922L442.034 186.14L473.306 191.189L466.415 172.712" fill="#4C4C4C"/>
<path d="M480.562 149.582L494.835 192.612C500.107 207.443 488.632 218.092 477.611 213.747L438.5 199.922L442.034 186.14L473.306 191.189L466.415 172.712" stroke="black" stroke-width="0.5" stroke-linecap="round" stroke-linejoin="round"/>
<path d="M465.163 399.109C465.31 398.895 465.506 398.721 465.735 398.6C465.964 398.48 466.219 398.416 466.477 398.415C466.736 398.414 466.991 398.476 467.221 398.595C467.451 398.714 467.649 398.886 467.797 399.098C468.974 400.766 470.472 403.457 470.762 406.664C471.257 412.097 470.762 419.998 470.762 419.998H414.471V414.229C414.471 412.747 415.06 411.325 416.108 410.277C417.156 409.228 418.578 408.639 420.06 408.639H422.607C426.433 408.639 430.183 407.574 433.438 405.562L450.025 395.306L450.246 395.529C450.601 395.884 450.822 396.351 450.872 396.851C450.921 397.351 450.796 397.852 450.518 398.27C450.518 398.27 454.962 403.702 458.912 403.702C461.471 403.702 463.824 401.006 465.163 399.109Z" fill="#B3B3B3" stroke="black" stroke-width="0.5" stroke-linecap="round" stroke-linejoin="round"/>
<path d="M470.763 416.541H414.472V419.998H470.763V416.541Z" fill="black" stroke="black" stroke-width="0.5" stroke-miterlimit="10" stroke-linecap="round" stroke-linejoin="round"/>
<path d="M433.752 403.195L433.75 403.195C433.16 403.536 432.958 404.291 433.299 404.881L434.883 407.626C435.224 408.216 435.979 408.419 436.569 408.078L436.57 408.077C437.16 407.736 437.363 406.982 437.022 406.391L435.437 403.646C435.096 403.056 434.342 402.854 433.752 403.195Z" fill="white" stroke="black" stroke-width="0.5" stroke-miterlimit="10" stroke-linecap="round" stroke-linejoin="round"/>
<path d="M437.209 401.22L437.207 401.221C436.617 401.562 436.415 402.316 436.756 402.907L438.34 405.652C438.681 406.242 439.436 406.444 440.026 406.103L440.027 406.103C440.617 405.762 440.82 405.007 440.479 404.417L438.894 401.672C438.553 401.082 437.799 400.879 437.209 401.22Z" fill="white" stroke="black" stroke-width="0.5" stroke-miterlimit="10" stroke-linecap="round" stroke-linejoin="round"/>
<path d="M440.171 399.245L440.17 399.246C439.58 399.586 439.378 400.341 439.719 400.931L441.303 403.676C441.644 404.267 442.399 404.469 442.989 404.128L442.99 404.127C443.58 403.787 443.783 403.032 443.442 402.442L441.857 399.697C441.516 399.106 440.762 398.904 440.171 399.245Z" fill="white" stroke="black" stroke-width="0.5" stroke-miterlimit="10" stroke-linecap="round" stroke-linejoin="round"/>
<path d="M443.132 397.269L443.131 397.269C442.541 397.61 442.339 398.365 442.679 398.955L444.264 401.7C444.605 402.29 445.36 402.493 445.95 402.152L445.951 402.151C446.541 401.81 446.743 401.056 446.403 400.465L444.818 397.72C444.477 397.13 443.723 396.928 443.132 397.269Z" fill="white" stroke="black" stroke-width="0.5" stroke-miterlimit="10" stroke-linecap="round" stroke-linejoin="round"/>
<path d="M446.095 395.293L446.094 395.294C445.504 395.635 445.302 396.39 445.642 396.98L447.227 399.725C447.568 400.315 448.322 400.517 448.913 400.177L448.914 400.176C449.504 399.835 449.706 399.08 449.366 398.49L447.781 395.745C447.44 395.155 446.685 394.953 446.095 395.293Z" fill="white" stroke="black" stroke-width="0.5" stroke-miterlimit="10" stroke-linecap="round" stroke-linejoin="round"/>
<path d="M114.812 112H7.13502C4.85131 112 3 113.851 3 116.135V243.54C3 245.824 4.85131 247.675 7.13502 247.675H114.812C117.096 247.675 118.947 245.824 118.947 243.54V116.135C118.947 113.851 117.096 112 114.812 112Z" fill="white" stroke="black" stroke-width="0.5" stroke-linecap="round" stroke-linejoin="round"/>
<path d="M7.12919 112H114.813C115.91 112 116.962 112.436 117.737 113.211C118.513 113.987 118.948 115.039 118.948 116.135V125.818H3V116.135C3 115.04 3.43485 113.989 4.20906 113.213C4.98326 112.438 6.03352 112.002 7.12919 112Z" fill="#B3B3B3" stroke="black" stroke-width="0.5" stroke-miterlimit="10" stroke-linecap="round" stroke-linejoin="round"/>
<path d="M37.1417 195.444H30.2695C29.165 195.444 28.2695 196.34 28.2695 197.444V227.362H39.1416V197.444C39.1416 196.34 38.2462 195.444 37.1417 195.444Z" fill="#E5E5E5" stroke="black" stroke-width="0.5" stroke-miterlimit="10" stroke-linecap="round" stroke-linejoin="round"/>
<path d="M54.5596 176.505H47.6875C46.5829 176.505 45.6875 177.401 45.6875 178.505V227.362H56.5596V178.505C56.5596 177.401 55.6642 176.505 54.5596 176.505Z" fill="#E5E5E5" stroke="black" stroke-width="0.5" stroke-miterlimit="10" stroke-linecap="round" stroke-linejoin="round"/>
<path d="M73.0293 166.217H66.1572C65.0527 166.217 64.1572 167.113 64.1572 168.217V227.362H75.0293V168.217C75.0293 167.113 74.1339 166.217 73.0293 166.217Z" fill="#B3B3B3" stroke="black" stroke-width="0.5" stroke-miterlimit="10" stroke-linecap="round" stroke-linejoin="round"/>
<path d="M91.501 154.993H84.6289C83.5243 154.993 82.6289 155.888 82.6289 156.993V227.36H93.501V156.993C93.501 155.888 92.6056 154.993 91.501 154.993Z" fill="#666666" stroke="black" stroke-width="0.5" stroke-linecap="round" stroke-linejoin="round"/>
<path d="M25.1113 176.505C25.1113 176.505 43.3434 174.284 61.0007 162.124C78.6581 149.965 89.7577 133.715 89.7577 133.715L76.3141 138.626" stroke="black" stroke-width="0.5" stroke-linecap="round" stroke-linejoin="round"/>
<path d="M90.6947 147.861L89.7598 133.715" stroke="black" stroke-width="0.5" stroke-linecap="round" stroke-linejoin="round"/>
<path d="M15.9561 227.36H101.683" stroke="black" stroke-width="0.5" stroke-linecap="round" stroke-linejoin="round"/>
<path d="M10.5943 121.512C12.0313 121.512 13.1963 120.347 13.1963 118.91C13.1963 117.473 12.0313 116.307 10.5943 116.307C9.15718 116.307 7.99219 117.473 7.99219 118.91C7.99219 120.347 9.15718 121.512 10.5943 121.512Z" fill="white" stroke="black" stroke-width="0.5" stroke-linecap="round" stroke-linejoin="round"/>
<path d="M19.4107 121.512C20.8478 121.512 22.0127 120.347 22.0127 118.91C22.0127 117.473 20.8478 116.307 19.4107 116.307C17.9736 116.307 16.8086 117.473 16.8086 118.91C16.8086 120.347 17.9736 121.512 19.4107 121.512Z" fill="white" stroke="black" stroke-width="0.5" stroke-linecap="round" stroke-linejoin="round"/>
<path d="M28.2261 121.512C29.6632 121.512 30.8282 120.347 30.8282 118.91C30.8282 117.473 29.6632 116.307 28.2261 116.307C26.789 116.307 25.624 117.473 25.624 118.91C25.624 120.347 26.789 121.512 28.2261 121.512Z" fill="white" stroke="black" stroke-width="0.5" stroke-linecap="round" stroke-linejoin="round"/>
<path d="M131.966 252.587C136.16 252.587 139.561 249.186 139.561 244.992C139.561 240.797 136.16 237.396 131.966 237.396C127.771 237.396 124.371 240.797 124.371 244.992C124.371 249.186 127.771 252.587 131.966 252.587Z" fill="#333333" stroke="black" stroke-width="0.5" stroke-linecap="round" stroke-linejoin="round"/>
<path d="M171.482 302.564L195.524 317.973L213 287.558C213 287.558 211.834 282.177 213.935 275.306C216.037 268.434 217.038 267.548 217.798 267.821C218.558 268.094 218.299 276.697 218.299 276.697C218.299 276.697 221.289 273.665 222.919 271.434C224.548 269.204 229.19 262.816 230.211 263.363C231.087 263.835 229.676 266.23 227.984 269.636C226.933 271.755 225.9 273.522 225.9 273.522C225.9 273.522 233.705 265.193 234.997 264.861C236.289 264.53 236.515 266.12 236.515 266.12C236.515 266.12 238.148 266.507 237.914 268.035C237.681 269.564 230.707 278.531 230.707 278.531C230.707 278.531 238.438 272.242 239.313 273.425C240.188 274.608 222.305 291.532 222.305 291.532L203.797 333.928C203.22 335.25 202.173 336.313 200.86 336.91C199.546 337.507 198.058 337.597 196.682 337.163L160.844 325.85L171.482 302.564Z" fill="#CCCCCC" stroke="black" stroke-width="0.5" stroke-linecap="round" stroke-linejoin="round"/>
<path d="M219.361 286.947C219.361 286.947 220.742 284.431 220.258 282.425C219.774 280.42 218.174 278.41 218.174 278.41" stroke="black" stroke-width="0.5" stroke-linecap="round" stroke-linejoin="round"/>
<path d="M230.453 280.577C230.453 280.577 229.749 278.097 227.892 276.226C226.036 274.354 224.188 273.6 224.188 273.6" stroke="black" stroke-width="0.5" stroke-linecap="round" stroke-linejoin="round"/>
<path d="M236.518 266.123L227.895 276.225" stroke="black" stroke-width="0.5" stroke-linecap="round" stroke-linejoin="round"/>
<path d="M182.945 430.276L180.229 494.424L191.106 495.871L206.056 433.044L182.945 430.276Z" fill="#CCCCCC" stroke="black" stroke-width="0.5" stroke-miterlimit="10" stroke-linecap="round" stroke-linejoin="round"/>
<path d="M146.94 295.416C146.94 295.416 168.77 279.986 156.129 256.13C149.837 244.249 139.453 243.666 130.425 249.392C121.939 254.779 124.677 272.566 109.207 276.201C93.7376 279.836 67.5374 280.586 62.2954 313.524C57.0533 346.462 86.8327 362.793 102.715 361.453C118.597 360.112 142.37 300.381 142.37 300.381L146.94 295.416Z" fill="#333333" stroke="black" stroke-width="0.5" stroke-linecap="round" stroke-linejoin="round"/>
<path d="M177.581 439.696L200.098 499.822L210.677 496.914L196.481 435.105L177.581 439.696Z" fill="#CCCCCC" stroke="black" stroke-width="0.5" stroke-miterlimit="10" stroke-linecap="round" stroke-linejoin="round"/>
<path d="M119.324 360.537C119.324 360.537 109.886 374.946 105.76 389.162C102.259 401.18 114.051 416.701 126.569 416.701H160.199C160.699 416.701 161.186 416.857 161.593 417.148C162 417.438 162.305 417.849 162.467 418.322L174.407 453.514C174.482 453.734 174.601 453.937 174.756 454.111C174.911 454.285 175.099 454.426 175.309 454.526C175.519 454.626 175.747 454.684 175.98 454.695C176.212 454.706 176.445 454.67 176.663 454.59L200.976 447.622L199.809 441.137L206.164 441.834L213.394 400.216C214.634 390.491 211.23 383.879 202.478 381.836L166.065 372.842C162.32 371.432 160.625 369.668 161.068 366.52L161.911 360.54L119.324 360.537Z" fill="#1A1A1A" stroke="black" stroke-width="0.5" stroke-miterlimit="10" stroke-linecap="round" stroke-linejoin="round"/>
<path d="M136.39 369.318L180.774 377.988C183.565 378.762 186.078 380.314 188.019 382.464C189.96 384.614 191.248 387.273 191.732 390.129L200.095 442.995" stroke="black" stroke-width="0.5" stroke-linecap="round" stroke-linejoin="round"/>
<path d="M173.135 336.993L188.405 310.509C188.843 309.742 188.632 308.82 187.929 308.477L149.087 289.515C149.028 289.487 148.984 289.431 148.922 289.417C142.408 287.885 139.671 288.002 136.575 292.236C133.476 296.477 133.961 302.115 137.648 304.868C137.69 304.899 137.729 304.933 137.765 304.969L170.854 337.497C171.499 338.128 172.623 337.88 173.135 336.993Z" fill="#808080" stroke="black" stroke-width="0.5" stroke-miterlimit="10" stroke-linecap="round" stroke-linejoin="round"/>
<path d="M146.34 289.03L136.393 286.482L125.569 288.213C121.13 289.28 117.25 291.968 114.691 295.749C112.133 299.53 111.08 304.132 111.74 308.649L119.325 360.537H161.901L163.343 340.506C164.429 322.928 158.989 294.427 146.34 289.03Z" fill="#808080" stroke="black" stroke-width="0.5" stroke-miterlimit="10" stroke-linecap="round" stroke-linejoin="round"/>
<path d="M134.494 271.579L131.847 286.705C131.666 287.738 131.706 288.798 131.964 289.815C132.222 290.831 132.692 291.782 133.344 292.604C133.995 293.425 134.814 294.1 135.745 294.583C136.676 295.065 137.699 295.346 138.746 295.405C140.577 295.508 142.382 294.931 143.813 293.783C145.245 292.635 146.2 290.998 146.497 289.188L149.202 272.677L134.494 271.579Z" fill="#CCCCCC" stroke="black" stroke-width="0.5" stroke-miterlimit="10" stroke-linecap="round" stroke-linejoin="round"/>
<path d="M133.974 266.383L132.255 255.644L152.228 253.372C152.228 253.372 154.385 264.84 154.584 269.077C154.782 273.314 152.017 278.961 145.902 278.875C139.788 278.789 136.39 277.04 133.327 274.407C130.264 271.774 129.036 267.944 130.175 266.676C131.868 264.775 133.974 266.383 133.974 266.383Z" fill="#CCCCCC" stroke="black" stroke-width="0.5" stroke-miterlimit="10" stroke-linecap="round" stroke-linejoin="round"/>
<path d="M138.978 258.033L142.364 257.608" stroke="black" stroke-width="0.5" stroke-linecap="round" stroke-linejoin="round"/>
<path d="M148.319 256.638L151.821 257.007" stroke="black" stroke-width="0.5" stroke-linecap="round" stroke-linejoin="round"/>
<path d="M146.671 262C146.671 262 148.421 264.855 148.217 266.23C148.013 267.606 146 267.334 146 267.334" stroke="black" stroke-width="0.5" stroke-linecap="round" stroke-linejoin="round"/>
<path d="M143.403 264.068C144.007 264.068 144.496 263.578 144.496 262.974C144.496 262.37 144.007 261.88 143.403 261.88C142.798 261.88 142.309 262.37 142.309 262.974C142.309 263.578 142.798 264.068 143.403 264.068Z" fill="black"/>
<path d="M152.094 263.188C152.698 263.188 153.188 262.698 153.188 262.094C153.188 261.49 152.698 261 152.094 261C151.49 261 151 261.49 151 262.094C151 262.698 151.49 263.188 152.094 263.188Z" fill="black"/>
<path d="M143.701 268.901L149.477 269.745C149.477 269.745 148.905 272.213 146.397 272.002C143.888 271.79 143.701 268.901 143.701 268.901Z" fill="white" stroke="black" stroke-width="0.5" stroke-miterlimit="10" stroke-linecap="round" stroke-linejoin="round"/>
<path d="M152 266C154.209 266 156 264.209 156 262C156 259.791 154.209 258 152 258C149.791 258 148 259.791 148 262C148 264.209 149.791 266 152 266Z" stroke="black" stroke-width="0.75" stroke-linecap="round" stroke-linejoin="round"/>
<path d="M141.24 267.481C143.582 267.481 145.48 265.582 145.48 263.24C145.48 260.898 143.582 259 141.24 259C138.898 259 137 260.898 137 263.24C137 265.582 138.898 267.481 141.24 267.481Z" stroke="black" stroke-width="0.75" stroke-linecap="round" stroke-linejoin="round"/>
<path d="M197.667 515.806L197.759 495.771L204.794 495.879L206.678 492.185C206.891 491.766 207.188 491.396 207.55 491.097C207.912 490.797 208.331 490.575 208.782 490.443C209.232 490.312 209.705 490.274 210.171 490.332C210.637 490.39 211.086 490.543 211.491 490.781L214.433 494.073C214.433 494.073 224.432 497.154 236.144 501.393C244.166 504.296 248.636 506.987 248.636 506.987L251.333 508.533C251.603 508.675 251.831 508.882 251.998 509.136C252.165 509.39 252.265 509.683 252.287 509.986C252.31 510.289 252.255 510.593 252.127 510.869C252 511.145 251.805 511.385 251.559 511.564C251.402 511.676 251.226 511.761 251.04 511.814C250.019 512.129 245.603 513.418 241.689 513.483C235.941 513.583 228.416 514.521 220.448 513.793C214.811 513.278 211.624 512.456 209.742 512.196L209.541 515.198L197.667 515.806Z" fill="black" stroke="black" stroke-width="0.5" stroke-linecap="round" stroke-linejoin="round"/>
<path d="M236.784 513.837C236.784 513.837 237.175 509.783 238.637 506.919C240.098 504.054 241.437 503.45 241.437 503.45C241.437 503.45 252.642 507.641 252.319 510.16C251.953 513.027 245.107 513.183 242.281 513.417C239.456 513.65 236.784 513.837 236.784 513.837Z" fill="white" stroke="black" stroke-width="0.5" stroke-linecap="round" stroke-linejoin="round"/>
<path d="M214.99 498.374C214.99 498.374 216.084 496.477 217.429 495.364C218.774 494.251 221.135 494.161 221.135 494.161" stroke="white" stroke-width="0.5" stroke-linecap="round" stroke-linejoin="round"/>
<path d="M219.527 500.767C219.527 500.767 220.62 498.871 221.965 497.758C223.309 496.645 225.671 496.555 225.671 496.555" stroke="white" stroke-width="0.5" stroke-linecap="round" stroke-linejoin="round"/>
<path d="M224.016 503.041C224.016 503.041 225.11 501.145 226.453 500.032C227.796 498.919 230.161 498.829 230.161 498.829" stroke="white" stroke-width="0.5" stroke-linecap="round" stroke-linejoin="round"/>
<path d="M171.412 362.321L150.343 381.931C150.343 381.931 162.71 390.081 168.009 395.775C173.308 401.47 178.636 414.047 178.636 414.047L202.214 397.418C202.214 397.418 196.935 383.467 190.727 376.226C184.52 368.986 171.412 362.321 171.412 362.321Z" fill="white" stroke="black" stroke-width="0.5" stroke-miterlimit="10" stroke-linecap="round" stroke-linejoin="round"/>
<path d="M177.009 369.333L161.733 382.752" stroke="black" stroke-width="0.5" stroke-miterlimit="10" stroke-linecap="round" stroke-linejoin="round"/>
<path d="M181.843 372.672L166.753 386.717" stroke="black" stroke-width="0.5" stroke-miterlimit="10" stroke-linecap="round" stroke-linejoin="round"/>
<path d="M186.215 377.37L170.946 390.651" stroke="black" stroke-width="0.5" stroke-miterlimit="10" stroke-linecap="round" stroke-linejoin="round"/>
<path d="M189.818 382.385L174.854 394.852" stroke="black" stroke-width="0.5" stroke-miterlimit="10" stroke-linecap="round" stroke-linejoin="round"/>
<path d="M193.588 388.575L178.429 400.691" stroke="black" stroke-width="0.5" stroke-miterlimit="10" stroke-linecap="round" stroke-linejoin="round"/>
<path d="M196.933 395.026L181.591 406.516" stroke="black" stroke-width="0.5" stroke-miterlimit="10" stroke-linecap="round" stroke-linejoin="round"/>
<path d="M170.521 507.918L179.349 489.934L185.63 493.101L188.938 490.599C189.313 490.316 189.742 490.112 190.198 490.001C190.654 489.889 191.129 489.873 191.592 489.951C192.055 490.03 192.498 490.203 192.892 490.458C193.286 490.714 193.623 491.048 193.884 491.439L195.094 495.687C195.094 495.687 202.745 502.824 211.43 511.751C217.378 517.863 220.228 522.237 220.228 522.237L221.979 524.806C222.159 525.051 222.274 525.337 222.313 525.639C222.353 525.94 222.314 526.247 222.202 526.529C222.09 526.812 221.908 527.061 221.673 527.254C221.438 527.446 221.157 527.576 220.858 527.63C220.668 527.663 220.473 527.663 220.282 527.63C219.22 527.465 214.692 526.694 211.141 525.047C205.926 522.628 198.744 520.185 191.888 516.054C187.042 513.137 184.533 510.998 182.955 509.944L181.46 512.556L170.521 507.918Z" fill="black" stroke="black" stroke-width="0.5" stroke-linecap="round" stroke-linejoin="round"/>
<path d="M206.564 523.223C206.564 523.223 208.687 519.748 211.251 517.809C213.815 515.87 215.285 515.913 215.285 515.913C215.285 515.913 223.538 524.576 222.14 526.707C220.559 529.127 214.333 526.278 211.688 525.255C209.044 524.233 206.564 523.223 206.564 523.223Z" fill="white" stroke="black" stroke-width="0.5" stroke-linecap="round" stroke-linejoin="round"/>
<path d="M193.711 499.797C193.711 499.797 195.52 498.573 197.211 498.153C198.903 497.733 201.071 498.69 201.071 498.69" stroke="white" stroke-width="0.5" stroke-linecap="round" stroke-linejoin="round"/>
<path d="M196.741 503.93C196.741 503.93 198.55 502.706 200.242 502.286C201.934 501.866 204.101 502.823 204.101 502.823" stroke="white" stroke-width="0.5" stroke-linecap="round" stroke-linejoin="round"/>
<path d="M199.791 507.938C199.791 507.938 201.6 506.714 203.292 506.294C204.983 505.874 207.151 506.83 207.151 506.83" stroke="white" stroke-width="0.5" stroke-linecap="round" stroke-linejoin="round"/>
<path d="M119.657 338.568L115.97 354.446L154.985 365.313L165.769 365.098L172.698 368.249C172.698 368.249 175.021 374.489 173.848 375.067C172.676 375.644 171.395 373.779 171.395 373.779C171.395 373.779 170.292 377.046 169.353 376.541C168.414 376.037 168.309 375.621 168.309 375.621C168.309 375.621 167.213 377.719 166.522 377.57C165.831 377.421 165.285 376.74 165.285 376.74C165.285 376.74 163.863 379.142 162.937 378.479C162.011 377.815 162.645 375.973 162.645 375.973L154.165 374.566L104.752 367.318C103.123 367.079 101.563 366.494 100.179 365.603C98.7941 364.711 97.6162 363.534 96.7242 362.149C95.8321 360.765 95.2466 359.206 95.0068 357.576C94.767 355.947 94.8786 354.285 95.334 352.702L100.576 334.491L119.657 338.568Z" fill="#CCCCCC" stroke="black" stroke-width="0.5" stroke-miterlimit="10" stroke-linecap="round" stroke-linejoin="round"/>
<path d="M166.417 365.406C166.417 365.406 171.668 368.708 171.97 370.259C172.272 371.81 171.032 374.715 171.032 374.715" stroke="black" stroke-width="0.5" stroke-miterlimit="10" stroke-linecap="round" stroke-linejoin="round"/>
<path d="M165.25 368.557C165.25 368.557 169.607 370.17 169.578 371.757C169.548 373.344 167.913 376.254 167.913 376.254" stroke="black" stroke-width="0.5" stroke-miterlimit="10" stroke-linecap="round" stroke-linejoin="round"/>
<path d="M163.183 372.612C163.183 372.612 165.964 373.54 166.1 374.788C166.225 375.938 163.864 378.403 163.864 378.403" stroke="black" stroke-width="0.5" stroke-miterlimit="10" stroke-linecap="round" stroke-linejoin="round"/>
<path d="M93.1666 339.023L121.438 343.965C121.821 344.028 122.214 343.943 122.536 343.726C122.858 343.509 123.084 343.177 123.169 342.798L132.306 302.93C132.314 302.889 132.323 302.848 132.329 302.806C133.058 297.959 132.037 292.194 127.138 290.182C122.227 288.162 116.312 290.546 112.627 297.11L92.1047 336.841C91.9943 337.05 91.9348 337.282 91.9309 337.518C91.927 337.755 91.9788 337.989 92.0823 338.201C92.1857 338.414 92.3378 338.599 92.5262 338.742C92.7146 338.885 92.934 338.981 93.1666 339.023Z" fill="#808080" stroke="black" stroke-width="0.5" stroke-miterlimit="10" stroke-linecap="round" stroke-linejoin="round"/>
<circle cx="130.786" cy="270.28" r="3.07482" fill="#CCCCCC" stroke="black" stroke-width="0.5" stroke-linecap="round" stroke-linejoin="round"/>
<path d="M551.8 29.1C551.8 27.9 551.3 26.8 550.5 26C549.9 25.4 549.2 25 548.4 24.8C548.4 24.8 548.4 24.8 548.3 24.8C548 24.7 547.7 24.7 547.4 24.7H439.7C439.4 24.7 439.1 24.7 438.8 24.8H438.7C438.5 24.9 438.2 24.9 438 25C437.5 25.2 437 25.5 436.6 25.9C436.2 26.3 435.9 26.8 435.6 27.3C435.4 27.8 435.3 28.4 435.3 29V38.7V58.4H95.8996C91.4996 58.4 87.8996 62 87.8996 66.4V111.5H7.09961C6.79961 111.5 6.49961 111.5 6.19961 111.6H6.09961C5.89961 111.7 5.59961 111.7 5.39961 111.8C4.89961 112 4.39961 112.3 3.99961 112.7C3.59961 113.1 3.29961 113.5 3.09961 114C3.09961 114 3.09961 114.1 2.99961 114.1C2.89961 114.3 2.89961 114.5 2.79961 114.8C2.79961 114.9 2.79961 114.9 2.69961 115C2.59961 115.3 2.59961 115.6 2.59961 115.9V125.6V243.3C2.59961 245.7 4.59961 247.7 6.99961 247.7H87.7996V281C76.1996 285.1 65.0996 293.3 61.8996 313.5C59.1996 330.4 65.7996 341.7 71.7996 348.1C78.9996 355.9 88.1996 360 95.7996 361.3C95.9996 361.6 96.0996 361.9 96.2996 362.2C97.1996 363.6 98.3996 364.8 99.7996 365.7C101.2 366.6 102.8 367.2 104.5 367.5L113.9 368.9C112.8 371 111.6 373.3 110.4 375.8H33.7996H33.6996C33.6996 375.8 33.6996 375.8 33.5996 375.9V433.5C33.5996 433.6 33.5996 433.7 33.6996 433.7L111 487.7H111.1H180.3L180.2 489.9L179.5 489.5C179.4 489.5 179.4 489.5 179.3 489.5C179.2 489.5 179.2 489.6 179.2 489.6L170.4 507.6C170.4 507.7 170.4 507.7 170.4 507.8C170.4 507.9 170.5 507.9 170.5 507.9L181.4 512.5C181.5 512.5 181.7 512.5 181.7 512.4L183.1 510C183.5 510.3 184 510.6 184.5 511C186.1 512.2 188.4 513.9 191.8 515.9C196.6 518.8 201.5 520.8 205.9 522.7C206.1 522.8 206.2 522.8 206.4 522.9C206.4 522.9 206.4 522.9 206.4 523C206.4 523.1 206.5 523.1 206.5 523.2C206.5 523.2 208.6 524.1 211 525C211 525 211 525 211.1 525C211.9 525.4 212.7 525.7 213.6 526C215.6 526.8 218 527.7 219.9 527.7C220 527.7 220.2 527.7 220.3 527.7C220.4 527.7 220.5 527.7 220.6 527.7C220.7 527.7 220.8 527.7 220.9 527.7C221.2 527.6 221.6 527.5 221.8 527.3C222 527.2 222.1 527 222.2 526.8L222.3 526.7C222.3 526.6 222.3 526.6 222.4 526.5C222.4 526.5 222.4 526.5 222.4 526.4C222.4 526.3 222.5 526.2 222.5 526.1C222.5 525.9 222.6 525.6 222.5 525.4C222.5 525.1 222.3 524.7 222.1 524.5V524.4C220.7 521.2 216.1 516.2 215.4 515.5C214.7 514.7 213.9 513.8 213 512.8C214.8 513.1 217.2 513.5 220.4 513.8C226 514.3 231.3 514 236 513.7C236.2 513.7 236.4 513.7 236.6 513.7C236.6 513.7 236.6 513.7 236.6 513.8C236.6 513.8 236.7 513.9 236.8 513.9C236.8 513.9 238.9 513.8 241.4 513.6C241.5 513.6 241.6 513.6 241.7 513.6C242.7 513.6 243.6 513.5 244.6 513.4C246.8 513.2 249.5 512.9 251.1 511.9C251.3 511.8 251.5 511.8 251.7 511.6C252 511.4 252.2 511.1 252.3 510.8C252.4 510.6 252.4 510.4 252.5 510.2C252.5 510.1 252.5 510.1 252.6 510C252.6 509.8 252.6 509.6 252.5 509.3C252.4 509.1 252.4 508.9 252.3 508.8C252.1 508.5 251.9 508.3 251.6 508.1C249 505.8 242.5 503.3 241.6 503C241.6 503 241.6 503 241.5 503C240 502.3 238.2 501.6 236.3 500.9C234.2 500.2 232.2 499.4 230.3 498.8C230.4 498.8 230.5 498.7 230.5 498.6C230.5 498.5 230.4 498.4 230.2 498.4C230.2 498.4 229.8 498.4 229.3 498.5C227.6 497.9 225.9 497.3 224.4 496.8C225.2 496.6 225.8 496.6 225.8 496.6C225.9 496.6 226 496.5 226 496.3C226 496.2 225.9 496.1 225.7 496.1C225.6 496.1 224.6 496.2 223.5 496.5C221.6 495.9 219.8 495.3 218.5 494.8C219.7 494.2 221.2 494.1 221.2 494.1C221.3 494.1 221.4 494 221.4 493.8C221.4 493.7 221.3 493.6 221.1 493.6C221 493.6 219.1 493.7 217.7 494.5C215.9 493.9 214.8 493.6 214.5 493.5L211.6 490.3C211.6 490.3 211.6 490.3 211.5 490.3C211.1 490 210.6 489.9 210.1 489.8C209.8 489.8 209.5 489.8 209.3 489.8L208.8 487.6H536.3C536.4 487.6 536.5 487.5 536.5 487.4V429.8V429.7L484.3 393.4C483.2 390.8 481.5 388.7 480.1 387.5C479.9 387.3 479.6 387.2 479.3 387.1C479 387 478.7 387 478.4 387.1C478.3 387.1 478.2 387.2 478 387.2L475.7 380.3L478.6 379.2C478.7 379.2 478.7 379.1 478.7 379.1C478.7 379 478.7 379 478.7 378.9L473.1 364.2L474.5 243.2C476.2 243.1 477.7 242.4 478.9 241.2C480.2 239.9 480.9 238.2 480.9 236.4V214.8C481.4 214.9 482 214.9 482.5 214.9C485.9 214.9 489.2 213.6 491.7 211.2C496.3 206.8 497.5 199.8 494.9 192.5L480.6 149.5C480.4 149.1 480.3 148.6 480 148.2C479.2 146.6 476.2 141.4 469.4 139.5H469.2V124.4H547.2C549.6 124.4 551.6 122.4 551.6 120V38.8V29.1H551.8ZM162.2 360.6L163 349.3H236.2V375.9H190.8C184.6 368.8 171.7 362.2 171.6 362.1C171.5 362.1 171.4 362.1 171.3 362.1L167.6 365.6L166 364.9H165.9L161.7 365L162.2 360.6ZM321.1 349.3H438.4L443.8 361.5L444.7 375.9H321.1V349.3ZM117.4 349.4L118.2 354.9L116.2 354.4L117.4 349.4ZM197.8 495.5C197.7 495.5 197.7 495.5 197.6 495.6C197.6 495.6 197.5 495.7 197.5 495.8V497.7C196.3 496.6 195.5 495.8 195.3 495.6L194.1 491.4C194.1 491.4 194.1 491.4 194.1 491.3C193.8 490.9 193.5 490.5 193 490.2C192.9 490.1 192.8 490.1 192.7 490.1L193.2 487.9H195.3L198.2 495.5H197.8Z" fill="url(#paint0_linear_2017_89845)" style="mix-blend-mode:overlay"/>
<defs>
<linearGradient id="paint0_linear_2017_89845" x1="551.8" y1="275.416" x2="2.59961" y2="275.416" gradientUnits="userSpaceOnUse">
<stop stop-color="#E60050"/>
<stop offset="1" stop-color="#5D6AE8"/>
</linearGradient>
</defs>
</svg>
