<svg width="560" height="560" viewBox="0 0 560 560" fill="none" xmlns="http://www.w3.org/2000/svg">
<path d="M382.112 213.018C385.511 212.556 387.827 208.783 387.285 204.591C386.744 200.398 383.55 197.375 380.151 197.837C376.753 198.299 374.437 202.072 374.979 206.264C375.52 210.456 378.714 213.48 382.112 213.018Z" fill="#B3B3B3" stroke="black" stroke-width="0.5" stroke-linecap="round" stroke-linejoin="round"/>
<path d="M282.512 139.537L228.057 121.009L199.19 205.852L253.646 224.38L282.512 139.537Z" fill="white" stroke="black" stroke-width="0.5" stroke-miterlimit="10" stroke-linecap="round" stroke-linejoin="round"/>
<path d="M263.755 180.636C261.219 185.34 258.408 189.236 253.929 191.413C244.007 196.26 234.209 195.569 225.064 189.511C219.944 186.129 217.906 180.762 217.456 174.702C216.901 167.37 218.901 161.093 224.747 156.414C226.369 155.146 228.206 154.18 230.17 153.562C235.876 151.733 241.677 151.061 247.656 152.198C255.821 153.752 260.925 158.538 263.023 166.498C263.727 169.164 264.104 171.918 264.668 174.838C262.285 174.996 260.348 175.133 258.408 175.247C250.764 175.699 243.123 176.147 235.483 176.591C233.359 176.718 233.286 176.832 233.832 178.832C235.432 184.703 242.035 186.89 246.565 182.778C248.562 180.968 250.496 180.439 253.028 180.56C256.446 180.775 259.882 180.636 263.755 180.636ZM233.401 169.484C234 169.484 234.618 169.519 235.23 169.484C238.488 169.256 241.74 168.989 244.999 168.771C248.258 168.552 248.217 168.565 247.031 165.623C245.601 162.079 242.593 160.364 239.325 161.223C235.48 162.228 232.963 165.677 233.401 169.487V169.484Z" fill="#666666"/>
<path d="M527.973 305L452.998 322.558L471.504 401.582L546.479 384.024L527.973 305Z" fill="white" stroke="black" stroke-width="0.5" stroke-miterlimit="10" stroke-linecap="round" stroke-linejoin="round"/>
<path d="M497.834 369.819L527.397 365.257C528.05 368.909 528.703 372.548 529.371 376.276L482.286 385.671L471.426 327.932L519.101 318.549C519.989 323.047 520.838 327.361 521.735 331.904C519.063 332.468 516.426 333.051 513.776 333.577C507.034 334.921 500.286 336.245 493.529 337.549C492.262 337.793 491.776 338.304 492.033 339.654C492.617 342.7 493.073 345.769 493.653 349.265L521.184 344.105L523.165 355.624C520.274 356.144 517.541 356.6 514.822 357.13C509.306 358.201 503.793 359.297 498.281 360.417C496.3 360.819 496.091 361.13 496.458 363.086C496.858 365.222 497.327 367.346 497.834 369.819Z" fill="#666666"/>
<path d="M427.816 3V105.774" stroke="black" stroke-width="0.5" stroke-linecap="round" stroke-linejoin="round"/>
<path d="M433.732 91.1937H423.03L415.591 127.404C414.488 132.615 414.93 138.035 416.861 142.999C416.957 143.237 417.054 143.476 417.155 143.713L418.648 147.215H437.036L438.306 144.704C438.412 144.492 438.515 144.277 438.616 144.063C441.139 138.622 441.861 132.518 440.676 126.639L433.732 91.1937Z" fill="white" stroke="black" stroke-width="0.5" stroke-miterlimit="10" stroke-linecap="round" stroke-linejoin="round"/>
<path d="M462.932 3V146.884" stroke="black" stroke-width="0.5" stroke-linecap="round" stroke-linejoin="round"/>
<path d="M486.912 3V111.769" stroke="black" stroke-width="0.5" stroke-linecap="round" stroke-linejoin="round"/>
<path d="M423.03 91.1965L427.678 147.215L433.732 91.1965L415.021 134.078L427.678 147.215L441.155 134.078L423.03 91.1965Z" stroke="black" stroke-width="0.5" stroke-linecap="round" stroke-linejoin="round"/>
<path d="M468.764 134.974H458.062L450.623 171.184C449.516 176.396 449.953 181.817 451.88 186.784C451.975 187.023 452.076 187.262 452.176 187.498L453.667 191H472.054L473.317 188.475C473.423 188.263 473.528 188.049 473.629 187.835C476.153 182.394 476.874 176.29 475.69 170.411L468.764 134.974Z" fill="white" stroke="black" stroke-width="0.5" stroke-miterlimit="10" stroke-linecap="round" stroke-linejoin="round"/>
<path d="M492.714 69.9419H482.015L474.573 106.153C473.471 111.363 473.912 116.781 475.844 121.744C475.939 121.983 476.037 122.222 476.137 122.458L477.63 125.96H496.018L497.28 123.435C497.386 123.224 497.489 123.009 497.59 122.795C500.114 117.354 500.835 111.25 499.651 105.371L492.714 69.9419Z" fill="white" stroke="black" stroke-width="0.5" stroke-miterlimit="10" stroke-linecap="round" stroke-linejoin="round"/>
<path d="M458.062 134.974L462.707 190.995L468.764 134.974L450.053 177.855L462.707 190.995L476.186 177.855L458.062 134.974Z" stroke="black" stroke-width="0.5" stroke-linecap="round" stroke-linejoin="round"/>
<path d="M482.013 69.9419L486.661 125.963L492.715 69.9419L474.004 112.823L486.661 125.963L500.14 112.823L482.013 69.9419Z" stroke="black" stroke-width="0.5" stroke-linecap="round" stroke-linejoin="round"/>
<path d="M365.341 85H300.998V245.042H365.341V85Z" fill="#CCCCCC" stroke="black" stroke-width="0.5" stroke-miterlimit="10" stroke-linecap="round" stroke-linejoin="round"/>
<path d="M316.331 108.242H311.973C311.456 107.925 311.199 107.633 311.199 107.399C311.199 107.164 311.456 106.812 311.973 106.482H335.385C335.496 106.482 335.606 106.504 335.709 106.546C335.811 106.588 335.904 106.65 335.983 106.728C336.061 106.807 336.123 106.9 336.165 107.002C336.207 107.105 336.229 107.215 336.229 107.326C336.235 107.448 336.216 107.57 336.174 107.685C336.132 107.8 336.068 107.905 335.984 107.994C335.907 108.074 335.814 108.138 335.711 108.18C335.608 108.223 335.497 108.244 335.385 108.242H330.745V210.401H333.709C335.714 210.436 337.675 209.805 339.284 208.607C340.886 207.411 342.438 204.938 343.941 201.189C346.233 195.358 347.855 189.284 348.775 183.086C349.785 176.548 350.313 172.364 350.36 170.536C350.351 170.099 350.443 169.665 350.629 169.269L351.168 169.059L351.707 169.269C351.877 169.436 351.973 169.664 351.977 169.903L351.412 212.23H311.903C311.792 212.232 311.682 212.212 311.579 212.171C311.477 212.13 311.383 212.07 311.304 211.992C311.222 211.909 311.158 211.81 311.116 211.701C311.074 211.592 311.055 211.475 311.06 211.358C311.054 211.244 311.072 211.129 311.112 211.022C311.153 210.914 311.215 210.816 311.295 210.734C311.375 210.652 311.471 210.587 311.577 210.543C311.684 210.499 311.798 210.478 311.912 210.48H316.331V108.242Z" fill="#333333"/>
<path d="M151.128 486.325L153.23 479.712C155.262 481.823 158.844 481.659 161.351 480.14C163.858 478.622 165.551 476.089 167.136 473.629L172.842 464.887C180.928 461.598 189.367 459.258 197.992 457.913C197.757 463.722 198.03 469.541 198.807 475.303C201.39 473.123 204.622 471.86 207.999 471.708C206.383 469.524 208.668 466.576 210.938 465.083C220.397 458.864 233.073 457.878 243.378 462.547C244.783 463.181 246.292 463.942 247.8 463.6C249.404 463.238 250.457 461.764 251.5 460.49C253.853 457.655 256.808 455.379 260.149 453.825C263.491 452.272 267.136 451.481 270.82 451.51C269.771 453.225 272.887 454.233 274.893 454.103C279.724 453.786 284.419 455.504 289.066 456.851C293.713 458.198 298.779 459.194 303.312 457.507C307.845 455.821 311.325 450.499 309.398 446.058C312.003 445.554 316.761 445.072 321.443 443.981L313.756 259.573L301.036 260.032L301.416 270.493C302.939 270.728 304.32 271.522 305.289 272.721C306.258 273.919 306.746 275.436 306.656 276.975C306.566 278.513 305.906 279.963 304.805 281.041C303.704 282.119 302.24 282.748 300.7 282.805C299.159 282.861 297.653 282.341 296.476 281.347C295.298 280.352 294.534 278.955 294.332 277.427C294.13 275.899 294.505 274.35 295.383 273.084C296.262 271.818 297.581 270.924 299.083 270.579L298.703 260.118L274.507 260.996L274.887 271.457C276.41 271.691 277.791 272.486 278.76 273.684C279.729 274.883 280.217 276.4 280.127 277.938C280.038 279.477 279.378 280.927 278.276 282.005C277.175 283.083 275.711 283.712 274.171 283.768C272.63 283.825 271.125 283.305 269.947 282.31C268.77 281.316 268.005 279.918 267.803 278.39C267.601 276.862 267.976 275.314 268.854 274.048C269.733 272.781 271.052 271.888 272.554 271.542L272.174 261.082L247.968 261.976L248.346 272.436C249.866 272.673 251.243 273.468 252.209 274.666C253.174 275.864 253.659 277.379 253.567 278.915C253.475 280.451 252.814 281.898 251.713 282.973C250.612 284.048 249.15 284.673 247.612 284.728C246.074 284.782 244.571 284.261 243.397 283.267C242.223 282.272 241.461 280.876 241.261 279.35C241.062 277.824 241.438 276.279 242.316 275.016C243.195 273.753 244.513 272.862 246.013 272.519L245.635 262.058L221.44 262.936L221.82 273.397C223.344 273.631 224.726 274.426 225.695 275.625C226.665 276.824 227.153 278.342 227.063 279.881C226.974 281.421 226.313 282.872 225.211 283.95C224.109 285.029 222.645 285.658 221.104 285.715C219.563 285.771 218.056 285.251 216.878 284.256C215.7 283.261 214.935 281.862 214.733 280.334C214.531 278.805 214.906 277.256 215.785 275.989C216.664 274.722 217.984 273.828 219.487 273.482L219.107 263.022L194.911 263.9L195.291 274.36C196.814 274.595 198.195 275.389 199.164 276.588C200.133 277.786 200.621 279.303 200.531 280.842C200.442 282.38 199.782 283.83 198.68 284.909C197.579 285.987 196.115 286.615 194.575 286.672C193.034 286.728 191.529 286.209 190.351 285.214C189.174 284.22 188.409 282.822 188.207 281.294C188.005 279.766 188.38 278.218 189.258 276.951C190.137 275.685 191.456 274.792 192.958 274.446L192.578 263.985L168.382 264.863L168.762 275.324C170.286 275.559 171.667 276.353 172.636 277.552C173.604 278.75 174.092 280.267 174.002 281.805C173.913 283.344 173.253 284.794 172.151 285.872C171.05 286.95 169.586 287.579 168.046 287.635C166.506 287.692 165 287.172 163.822 286.178C162.645 285.183 161.88 283.786 161.678 282.258C161.476 280.73 161.851 279.181 162.73 277.915C163.608 276.649 164.927 275.755 166.429 275.41L166.049 264.949L141.853 265.827L142.233 276.288C143.754 276.524 145.131 277.32 146.097 278.518C147.062 279.716 147.547 281.231 147.455 282.767C147.363 284.303 146.702 285.75 145.601 286.824C144.5 287.899 143.037 288.525 141.5 288.579C139.962 288.633 138.459 288.112 137.285 287.118C136.111 286.124 135.349 284.727 135.149 283.202C134.949 281.676 135.325 280.13 136.204 278.867C137.083 277.604 138.401 276.714 139.9 276.37L139.523 265.909L125.363 266.423L134.321 485.821C139.819 484.078 145.745 484.256 151.128 486.325Z" fill="#CCCCCC" stroke="black" stroke-width="0.5" stroke-miterlimit="10" stroke-linecap="round" stroke-linejoin="round"/>
<path d="M145.582 368.468C145.582 346.951 152.613 328.948 166.675 314.459C180.736 299.971 199.058 292.727 221.64 292.727C244.438 292.727 263.01 299.971 277.355 314.459C291.699 328.948 298.872 347.093 298.872 368.896C298.872 391.123 291.575 409.463 276.98 423.916C262.386 438.368 243.833 445.595 221.32 445.595C206.978 445.595 193.787 442.168 181.747 435.315C169.708 428.461 160.671 418.909 154.635 406.659C148.6 394.408 145.582 381.678 145.582 368.468ZM169.974 368.576C169.974 384.837 174.729 398.468 184.239 409.467C193.749 420.467 206.247 425.971 221.736 425.979C237.076 425.979 249.681 420.352 259.552 409.096C269.423 397.841 274.359 384.401 274.359 368.775C274.359 353.008 269.335 339.675 259.286 328.775C249.238 317.874 236.614 312.423 221.415 312.421C206.289 312.421 193.931 317.783 184.343 328.508C174.756 339.233 169.965 352.589 169.971 368.576H169.974Z" fill="#333333"/>
<path d="M199.226 372.475C199.226 372.475 198.256 342.386 218.043 340.624C227.553 339.777 231.553 352.669 225.305 351.744C219.057 350.818 224.76 335.625 236.438 334.877C248.116 334.128 252.579 343.118 251.374 346.71" stroke="black" stroke-width="0.5" stroke-linecap="round" stroke-linejoin="round"/>
<path d="M269.872 349.23C267.749 346.18 268.205 343.705 268.883 342.256C268.921 342.179 268.932 342.092 268.914 342.008C268.897 341.924 268.851 341.848 268.786 341.793C268.72 341.738 268.638 341.707 268.552 341.704C268.466 341.701 268.382 341.727 268.313 341.777C267.35 342.492 266.457 343.296 265.644 344.177C263.425 346.561 263.32 348.472 263.492 350.45C262.03 347.975 263.415 344.5 264.078 343.121C264.102 343.078 264.11 343.028 264.102 342.979C264.094 342.93 264.07 342.885 264.034 342.852C263.997 342.818 263.95 342.798 263.901 342.794C263.852 342.79 263.802 342.803 263.761 342.83C262.266 343.678 260.993 344.866 260.042 346.298C259.092 347.73 258.491 349.365 258.29 351.072C256.92 361.501 262.785 362.401 263.263 371.042C263.307 372.002 263.182 372.962 262.896 373.879C262.476 375.247 261.769 376.509 260.821 377.58C259.873 378.651 258.706 379.507 257.399 380.089C253.132 374.966 242.957 373.305 242.957 373.305C227.155 378.887 234.715 386.473 226.657 387.909C208.57 391.136 209.879 382.571 209.879 382.571L186.834 394.86C186.834 394.86 192.099 425.513 228.645 418.213C253.224 413.303 260.268 397.485 259.361 385.563C264.598 384.498 270.082 381.953 273.531 376.37C281.852 362.908 273.344 354.216 269.872 349.23Z" fill="white" stroke="black" stroke-width="0.5" stroke-linecap="round" stroke-linejoin="round"/>
<path d="M252.635 394.921C252.635 394.921 268.446 387.697 272.244 391.174C276.041 394.651 272.184 400.944 270.342 398.081C268.5 395.219 276.682 392.109 281.142 396.569C285.602 401.029 283.56 406.05 281.68 406.836" stroke="black" stroke-width="0.5" stroke-linecap="round" stroke-linejoin="round"/>
<path d="M179.817 393.25C179.817 393.25 156.265 416.898 147.208 405.743C139.283 395.98 155.168 393.58 155.314 400.56C155.444 406.881 138.478 407.965 136.316 401.34" stroke="black" stroke-width="0.5" stroke-linecap="round" stroke-linejoin="round"/>
<path d="M189.896 397.409C189.896 397.409 187.328 384.796 176.015 390.118C164.701 395.441 167.139 422.974 167.139 422.974C167.139 422.974 199.13 419.573 199.041 408.368C198.952 397.162 189.896 397.409 189.896 397.409Z" fill="#666666" stroke="black" stroke-width="0.5" stroke-linecap="round" stroke-linejoin="round"/>
<path d="M256.602 393.507C256.602 393.507 266.571 384.099 274.654 389.177C280.601 392.914 285.841 397.815 291.008 391.691C296.175 385.566 303.136 381.265 308.03 385.3" stroke="black" stroke-width="0.5" stroke-linecap="round" stroke-linejoin="round"/>
<path d="M216.426 369.146C216.426 369.146 202.329 371.632 207.914 384.362C213.5 397.092 244.184 395.178 244.184 395.178C244.184 395.178 241.331 359.516 228.874 359.288C216.416 359.06 216.426 369.146 216.426 369.146Z" fill="black" stroke="black" stroke-width="0.5" stroke-linecap="round" stroke-linejoin="round"/>
<path d="M246.469 400.383C246.469 400.383 236.097 405.423 243.236 414.054C250.375 422.686 273.724 414.425 273.724 414.425C273.724 414.425 263.641 387.427 253.938 390.001C244.235 392.575 246.469 400.383 246.469 400.383Z" fill="black" stroke="black" stroke-width="0.5" stroke-linecap="round" stroke-linejoin="round"/>
<path d="M232.728 365.473C232.728 365.473 223.735 368.585 228.74 376.358C233.746 384.131 253.694 379.642 253.694 379.642C253.694 379.642 248.07 356.53 239.864 357.69C231.657 358.851 232.728 365.473 232.728 365.473Z" fill="#666666" stroke="black" stroke-width="0.5" stroke-linecap="round" stroke-linejoin="round"/>
<path d="M175.54 383.427C174.963 380.398 174.813 377.304 175.096 374.234C175.393 371.706 175.924 369.212 176.681 366.782C176.681 366.782 180.393 368.008 182.358 369.489C184.323 370.969 184.916 372.133 184.916 372.133L175.54 383.427Z" fill="white" stroke="black" stroke-width="0.5" stroke-linecap="round" stroke-linejoin="round"/>
<path d="M177.077 382.184C176.63 379.84 176.514 377.444 176.732 375.068C176.96 373.108 177.368 371.174 177.952 369.289C177.952 369.289 180.83 370.24 182.352 371.387C183.873 372.535 184.336 373.438 184.336 373.438L177.077 382.184Z" fill="#999999" stroke="black" stroke-width="0.5" stroke-linecap="round" stroke-linejoin="round"/>
<path d="M196.699 377.819C197.744 374.924 199.19 372.189 200.994 369.695C202.535 367.669 204.259 365.789 206.145 364.081C207.74 365.674 209.097 367.489 210.174 369.47C211.025 371.241 211.775 373.058 212.422 374.913L196.699 377.819Z" fill="white" stroke="black" stroke-width="0.5" stroke-linecap="round" stroke-linejoin="round"/>
<path d="M198.256 377.264C199.091 374.956 200.247 372.776 201.689 370.788C202.915 369.172 204.289 367.674 205.794 366.312C207.064 367.582 208.145 369.029 209.002 370.608C209.681 372.019 210.279 373.468 210.793 374.947L198.256 377.264Z" fill="#999999" stroke="black" stroke-width="0.5" stroke-linecap="round" stroke-linejoin="round"/>
<path d="M195.342 400.995C206.523 400.995 215.588 393.4 215.588 384.032C215.588 374.665 206.523 367.07 195.342 367.07C184.16 367.07 175.096 374.665 175.096 384.032C175.096 393.4 184.16 400.995 195.342 400.995Z" fill="white" stroke="black" stroke-width="0.5" stroke-linecap="round" stroke-linejoin="round"/>
<path d="M200.421 384.726C200.421 384.726 203.226 383.024 202.006 381.984C200.785 380.945 200.161 382.507 200.161 382.507C200.161 382.507 198.893 381.642 198.398 382.653C197.904 383.664 200.421 384.726 200.421 384.726Z" fill="#666666" stroke="black" stroke-width="0.5" stroke-linecap="round" stroke-linejoin="round"/>
<path d="M204.135 387.95C200.432 388.397 200.483 384.727 200.483 384.727C200.483 384.727 201.117 389.266 196.508 388.771" stroke="black" stroke-width="0.5" stroke-linecap="round" stroke-linejoin="round"/>
<path d="M189.077 385.541C191.383 385.541 193.252 383.672 193.252 381.366C193.252 379.061 191.383 377.192 189.077 377.192C186.771 377.192 184.902 379.061 184.902 381.366C184.902 383.672 186.771 385.541 189.077 385.541Z" fill="#999999" stroke="black" stroke-width="0.5" stroke-miterlimit="10" stroke-linecap="round" stroke-linejoin="round"/>
<path d="M189.08 383.899C190.478 383.899 191.612 382.765 191.612 381.366C191.612 379.968 190.478 378.834 189.08 378.834C187.681 378.834 186.547 379.968 186.547 381.366C186.547 382.765 187.681 383.899 189.08 383.899Z" fill="black" stroke="black" stroke-width="0.5" stroke-linecap="round" stroke-linejoin="round"/>
<path d="M190.049 381.179C190.481 381.179 190.832 380.829 190.832 380.396C190.832 379.964 190.481 379.614 190.049 379.614C189.616 379.614 189.266 379.964 189.266 380.396C189.266 380.829 189.616 381.179 190.049 381.179Z" fill="white" stroke="black" stroke-width="0.5" stroke-linecap="round" stroke-linejoin="round"/>
<path d="M206.893 381.63C209.199 381.63 211.068 379.76 211.068 377.455C211.068 375.149 209.199 373.28 206.893 373.28C204.588 373.28 202.719 375.149 202.719 377.455C202.719 379.76 204.588 381.63 206.893 381.63Z" fill="#999999" stroke="black" stroke-width="0.5" stroke-miterlimit="10" stroke-linecap="round" stroke-linejoin="round"/>
<path d="M206.892 379.987C208.291 379.987 209.425 378.853 209.425 377.455C209.425 376.056 208.291 374.922 206.892 374.922C205.493 374.922 204.359 376.056 204.359 377.455C204.359 378.853 205.493 379.987 206.892 379.987Z" fill="black" stroke="black" stroke-width="0.5" stroke-linecap="round" stroke-linejoin="round"/>
<path d="M207.863 377.268C208.295 377.268 208.646 376.917 208.646 376.485C208.646 376.052 208.295 375.702 207.863 375.702C207.431 375.702 207.08 376.052 207.08 376.485C207.08 376.917 207.431 377.268 207.863 377.268Z" fill="white" stroke="black" stroke-width="0.5" stroke-linecap="round" stroke-linejoin="round"/>
<path d="M209.641 418.901L189.487 433.483C189.093 433.766 188.646 433.968 188.172 434.077C187.699 434.186 187.208 434.2 186.729 434.117C185.754 433.946 184.883 433.402 184.303 432.6C183.722 431.798 183.477 430.801 183.62 429.821C183.691 429.341 183.857 428.879 184.109 428.463C184.36 428.047 184.692 427.686 185.084 427.4L193.561 419.681C198.681 415.005 202.294 408.912 203.942 402.177" fill="white"/>
<path d="M209.641 418.901L189.487 433.483C189.093 433.766 188.646 433.968 188.172 434.077C187.699 434.186 187.208 434.2 186.729 434.117C185.753 433.949 184.881 433.405 184.301 432.601V432.601C183.718 431.8 183.473 430.802 183.62 429.821C183.691 429.341 183.857 428.879 184.108 428.463C184.36 428.047 184.692 427.686 185.084 427.4L193.56 419.681C198.681 415.005 202.294 408.912 203.942 402.177" stroke="black" stroke-width="0.5" stroke-linecap="round" stroke-linejoin="round"/>
<path d="M191.227 430.05L185.838 433.955" stroke="black" stroke-width="0.5" stroke-linecap="round" stroke-linejoin="round"/>
<path d="M190.171 428.617L184.418 432.782" stroke="black" stroke-width="0.5" stroke-linecap="round" stroke-linejoin="round"/>
<path d="M189.132 427.171L183.375 431.337" stroke="black" stroke-width="0.5" stroke-linecap="round" stroke-linejoin="round"/>
<path d="M212.783 412.079C212.783 412.079 205.983 404.44 200.338 412.612C194.692 420.784 207.362 438.725 207.362 438.725C207.362 438.725 227.967 423.618 223.446 415.953C218.926 408.288 212.783 412.079 212.783 412.079Z" fill="#666666" stroke="black" stroke-width="0.5" stroke-linecap="round" stroke-linejoin="round"/>
<path d="M224.36 401.619C224.36 401.619 208.828 403.273 213.957 417.551C219.086 431.828 252.629 432.031 252.629 432.031C252.629 432.031 252.186 392.993 238.637 391.817C225.089 390.641 224.36 401.619 224.36 401.619Z" fill="#B3B3B3" stroke="black" stroke-width="0.5" stroke-linecap="round" stroke-linejoin="round"/>
<path d="M226.509 427.758C226.509 427.758 219.408 430.332 223.469 436.443C227.529 442.555 243.309 438.76 243.309 438.76C243.309 438.76 238.583 420.48 232.085 421.494C225.586 422.508 226.509 427.758 226.509 427.758Z" fill="#666666" stroke="black" stroke-width="0.5" stroke-linecap="round" stroke-linejoin="round"/>
<path d="M299.967 304.897L289.81 299.033C288.94 298.531 287.827 298.829 287.325 299.699L287.228 299.867C286.725 300.737 287.024 301.85 287.894 302.352L298.051 308.216C298.921 308.719 300.034 308.421 300.537 307.55L300.633 307.383C301.136 306.513 300.838 305.4 299.967 304.897Z" fill="#E5E5E5" stroke="black" stroke-width="0.5" stroke-linecap="round" stroke-linejoin="round"/>
<path d="M285.602 313.822L322.195 295.031L326.122 311.027L290.813 326.378L285.602 313.822Z" fill="#E5E5E5" stroke="black" stroke-width="0.5" stroke-linecap="round" stroke-linejoin="round"/>
<path d="M387.103 488.105L372.434 489.031L375.666 540.259L390.335 539.334L387.103 488.105Z" fill="#E5E5E5" stroke="black" stroke-width="0.5" stroke-miterlimit="10" stroke-linecap="round" stroke-linejoin="round"/>
<path d="M421.768 484.076L408.463 487.192L419.259 533.293L432.564 530.177L421.768 484.076Z" fill="#E5E5E5" stroke="black" stroke-width="0.5" stroke-miterlimit="10" stroke-linecap="round" stroke-linejoin="round"/>
<path d="M397.086 501.955C397.086 501.955 392.049 504.697 379.413 504.697C370.221 504.697 364.277 501.955 364.277 501.955L356.986 420.546C356.501 415.132 356.489 409.685 356.951 404.269L369.473 318.4H397.079L389.066 412.881L397.086 501.955Z" fill="white" stroke="black" stroke-width="0.5" stroke-linecap="round" stroke-linejoin="round"/>
<path d="M431.533 497.572C431.533 497.572 428.892 503.261 414.523 506.257C405.53 508.134 396.455 506.679 396.455 506.679L375.457 422.068C374.174 416.632 373.774 411.024 374.272 405.461L382.054 318.4L421.722 318.333L424.638 328.119C427.973 339.308 427.976 351.275 424.353 362.376C424.233 362.74 424.109 363.101 423.985 363.466L406.335 414.333L431.533 497.572Z" fill="white" stroke="black" stroke-width="0.5" stroke-linecap="round" stroke-linejoin="round"/>
<path d="M388.01 230.228C388.457 230.146 377.495 230.989 372.712 232.926C363.221 236.768 359.817 244.522 357.018 248.88L340.278 277.409L299.189 303.545L305.317 322.526L362.584 298.419L360.961 318.028C360.913 318.61 360.988 319.194 361.181 319.745C361.374 320.295 361.681 320.799 362.081 321.223C362.482 321.647 362.967 321.982 363.505 322.207C364.043 322.431 364.623 322.54 365.206 322.526L421.912 321.125C422.843 321.102 423.737 320.753 424.437 320.137C425.136 319.522 425.597 318.68 425.738 317.759L434.775 259.265L423.047 231.157L403.812 229.645C398.543 229.113 393.225 229.309 388.01 230.228Z" fill="#808080" stroke="black" stroke-width="0.5" stroke-miterlimit="10" stroke-linecap="round" stroke-linejoin="round"/>
<path d="M365.751 252L362.477 300.008" stroke="black" stroke-width="0.5" stroke-miterlimit="10" stroke-linecap="round" stroke-linejoin="round"/>
<path d="M418.67 326.534L434.995 282.846" stroke="black" stroke-width="0.5" stroke-linecap="round" stroke-linejoin="round"/>
<path d="M392.403 552.095L391.17 530.011L383.419 530.54L381.134 526.571C380.874 526.123 380.525 525.732 380.109 525.423C379.693 525.114 379.218 524.893 378.713 524.774C378.209 524.656 377.685 524.641 377.175 524.732C376.664 524.823 376.178 525.018 375.745 525.303L372.686 529.107C372.686 529.107 361.836 533.067 349.159 538.401C340.48 542.053 335.7 545.274 335.7 545.274L332.815 547.128C332.527 547.299 332.286 547.541 332.117 547.83C331.947 548.12 331.854 548.448 331.846 548.783C331.838 549.118 331.916 549.45 332.071 549.748C332.227 550.045 332.456 550.297 332.736 550.482C332.915 550.598 333.114 550.682 333.322 550.729C334.473 551.021 339.409 552.187 343.726 552.041C350.066 551.829 358.428 552.438 367.167 551.186C373.352 550.301 376.82 549.214 378.896 548.824L379.286 552.121L392.403 552.095Z" fill="black" stroke="black" stroke-width="0.5" stroke-miterlimit="10" stroke-linecap="round" stroke-linejoin="round"/>
<path d="M349.16 552.13C349.16 552.13 348.5 547.692 346.728 544.608C344.956 541.524 343.444 540.941 343.444 540.941C343.444 540.941 331.326 546.193 331.824 548.954C332.388 552.096 339.945 551.88 343.073 551.978C346.202 552.076 349.16 552.13 349.16 552.13Z" fill="white" stroke="black" stroke-width="0.5" stroke-miterlimit="10" stroke-linecap="round" stroke-linejoin="round"/>
<path d="M372.319 533.853C372.319 533.853 371.007 531.83 369.466 530.683C367.926 529.535 365.311 529.564 365.311 529.564" stroke="white" stroke-width="0.5" stroke-linecap="round" stroke-linejoin="round"/>
<path d="M367.472 536.747C367.472 536.747 366.16 534.725 364.619 533.577C363.079 532.43 360.467 532.458 360.467 532.458" stroke="white" stroke-width="0.5" stroke-linecap="round" stroke-linejoin="round"/>
<path d="M362.63 539.508C362.63 539.508 361.317 537.486 359.777 536.338C358.236 535.191 355.621 535.219 355.621 535.219" stroke="white" stroke-width="0.5" stroke-linecap="round" stroke-linejoin="round"/>
<path d="M439.111 543.066L432.188 522.059L424.846 524.569L421.61 521.33C421.243 520.963 420.805 520.675 420.322 520.483C419.84 520.292 419.324 520.202 418.805 520.217C418.286 520.233 417.776 520.355 417.306 520.575C416.836 520.795 416.416 521.109 416.072 521.498L414.107 525.958C414.107 525.958 404.654 532.615 393.797 541.043C386.367 546.822 382.585 551.187 382.585 551.187L380.281 553.723C380.046 553.963 379.876 554.259 379.787 554.582C379.698 554.906 379.694 555.247 379.773 555.573C379.853 555.9 380.014 556.2 380.242 556.446C380.47 556.693 380.758 556.877 381.077 556.982C381.281 557.047 381.496 557.076 381.711 557.067C382.896 557.048 387.965 556.893 392.098 555.631C398.169 553.78 406.398 552.198 414.509 548.721C420.253 546.261 423.322 544.312 425.208 543.399L426.444 546.48L439.111 543.066Z" fill="black" stroke="black" stroke-width="0.5" stroke-miterlimit="10" stroke-linecap="round" stroke-linejoin="round"/>
<path d="M397.368 554.325C397.368 554.325 395.577 550.204 393.066 547.694C390.556 545.183 388.946 545.006 388.946 545.006C388.946 545.006 378.605 553.222 379.804 555.761C381.167 558.646 388.407 556.478 391.456 555.761C394.506 555.045 397.368 554.325 397.368 554.325Z" fill="white" stroke="black" stroke-width="0.5" stroke-miterlimit="10" stroke-linecap="round" stroke-linejoin="round"/>
<path d="M414.986 530.662C414.986 530.662 413.192 529.049 411.401 528.332C409.61 527.616 407.1 528.332 407.1 528.332" stroke="white" stroke-width="0.5" stroke-linecap="round" stroke-linejoin="round"/>
<path d="M411.043 534.723C411.043 534.723 409.249 533.109 407.458 532.39C405.667 531.67 403.156 532.39 403.156 532.39" stroke="white" stroke-width="0.5" stroke-linecap="round" stroke-linejoin="round"/>
<path d="M407.097 538.641C407.097 538.641 405.303 537.027 403.512 536.311C401.721 535.594 399.207 536.311 399.207 536.311" stroke="white" stroke-width="0.5" stroke-linecap="round" stroke-linejoin="round"/>
<path d="M454.644 351.95C454.671 359.703 449.342 365.006 438.655 367.856L414.266 374.358C406.658 376.384 402.268 375.201 401.095 370.807C400.685 369.271 400.623 367.129 400.911 364.382L404.366 332.027L380.519 377.968C377.97 382.964 374.545 386.036 370.242 387.183C369.376 387.408 368.494 387.57 367.605 387.668C362.286 388.454 359.017 386.561 357.797 381.988C357.316 380.017 357.214 377.973 357.499 375.965L362.717 328.359L334.292 390.144C332.39 394.339 328.727 397.159 323.302 398.604L309.513 402.281L316.043 316.498L296.672 321.589C295.506 321.899 294.279 321.895 293.115 321.577C291.951 321.258 290.893 320.637 290.047 319.776C289.202 318.915 288.6 317.845 288.303 316.675C288.007 315.506 288.025 314.279 288.357 313.119L290.735 304.836L329.408 294.597C335.659 292.93 339.394 294.383 340.613 298.959C341.082 300.725 341.22 302.969 341.025 305.688L337.646 351.703L358.038 310.83C360.618 305.583 362.732 302.06 364.378 300.262C367.125 297.303 371.128 295.12 376.385 293.712C377.879 293.313 379.581 293.419 381.489 294.029C384.416 294.997 386.307 297.088 387.163 300.303C387.696 302.295 387.795 304.67 387.461 307.425L383.41 345.179L402.556 311.917C405.278 307.213 407.149 304.313 408.17 303.216C409.97 301.428 412.87 300.025 416.868 299.006C418.453 298.584 420.286 298.725 422.368 299.431C425.557 300.473 427.604 302.692 428.508 306.088C429.028 308.034 429.148 310.306 428.869 312.903L424.061 360.1L454.644 351.95Z" fill="black"/>
<path d="M444.5 319.477L414.247 363.057C413.94 363.499 413.471 363.8 412.942 363.896C412.413 363.992 411.868 363.874 411.426 363.567L410.608 363L409.511 364.474C409.15 364.961 408.621 365.298 408.027 365.42C407.433 365.543 406.815 365.442 406.29 365.137L403.827 363.704C403.332 363.416 402.966 362.949 402.804 362.4C402.643 361.85 402.698 361.259 402.959 360.749L401.618 360.115C401.384 360.004 401.175 359.846 401.006 359.649C400.837 359.452 400.712 359.222 400.638 358.974C400.564 358.725 400.543 358.464 400.576 358.207C400.609 357.95 400.697 357.702 400.832 357.481L407.676 346.282C407.676 346.282 400.043 346.716 399.038 344.418C398.033 342.12 404.839 342.015 408.253 339.895C411.667 337.774 415.356 333.238 415.356 333.238L430.413 311.122L444.5 319.477Z" fill="#E5E5E5" stroke="black" stroke-width="0.5" stroke-linecap="round" stroke-linejoin="round"/>
<path d="M410.028 350.441L402.842 360.968" stroke="black" stroke-width="0.5" stroke-linecap="round" stroke-linejoin="round"/>
<path d="M413.499 351.439L405.32 363.999" stroke="black" stroke-width="0.5" stroke-linecap="round" stroke-linejoin="round"/>
<path d="M417.193 353.012L410.441 363.39" stroke="black" stroke-width="0.5" stroke-linecap="round" stroke-linejoin="round"/>
<path d="M457.58 300.026L435.409 337.38L418.669 326.549L432.889 288.491L413.499 246.192C411.534 242.721 410.963 235.465 415.899 232.419L417.059 231.785C422.708 229.633 428.471 231.683 433.714 240.176L457.513 283.052C458.951 285.647 459.711 288.563 459.722 291.53C459.734 294.498 458.997 297.42 457.58 300.026Z" fill="#808080" stroke="black" stroke-width="0.5" stroke-miterlimit="10" stroke-linecap="round" stroke-linejoin="round"/>
<path d="M290.815 326.375C288.808 326.496 286.12 322.942 284.83 319.905C283.54 316.869 283.464 314.669 283.803 313.122C284.361 310.567 287.857 303.39 289.959 304.5C291.785 305.466 290.555 307.67 290.555 307.67C290.792 307.485 291.085 307.389 291.385 307.397C291.685 307.405 291.973 307.517 292.2 307.714C293.243 308.649 292.491 311.156 292.491 311.156C292.491 311.156 293.744 310.681 294.47 311.667C295.525 313.093 293.934 315.705 293.934 315.705C294.208 315.73 294.47 315.828 294.693 315.988C294.916 316.149 295.092 316.366 295.202 316.618C295.997 318.828 293.255 326.229 290.815 326.375Z" fill="#E5E5E5" stroke="black" stroke-width="0.5" stroke-linecap="round" stroke-linejoin="round"/>
<path d="M285.912 316.59C285.912 316.59 286.882 313.439 288.068 311.397C288.858 310.059 289.728 308.77 290.673 307.536" fill="#E5E5E5"/>
<path d="M285.912 316.59C285.912 316.59 286.882 313.439 288.068 311.397C288.858 310.059 289.728 308.77 290.673 307.536" stroke="black" stroke-width="0.5" stroke-linecap="round" stroke-linejoin="round"/>
<path d="M287.99 319.87C288.598 318.15 289.317 316.47 290.143 314.843C290.851 313.57 291.635 312.341 292.491 311.163" fill="#E5E5E5"/>
<path d="M287.99 319.87C288.598 318.15 289.317 316.47 290.143 314.843C290.851 313.57 291.635 312.341 292.491 311.163" stroke="black" stroke-width="0.5" stroke-linecap="round" stroke-linejoin="round"/>
<path d="M289.811 323.804C289.811 323.804 290.996 321.148 291.808 319.553C292.759 317.68 293.935 315.712 293.935 315.712" fill="#E5E5E5"/>
<path d="M289.811 323.804C289.811 323.804 290.996 321.148 291.808 319.553C292.759 317.68 293.935 315.712 293.935 315.712" stroke="black" stroke-width="0.5" stroke-linecap="round" stroke-linejoin="round"/>
<path d="M402.363 210.6C402.363 210.6 404.42 208.125 404.049 205.957C403.679 203.788 401.342 202.809 400.078 205.389C398.813 207.969 399.225 213.2 398.211 216.008C397.196 218.817 394.407 224.19 388.625 224.44C382.843 224.691 385.981 224.684 385.981 224.684L386.095 235.652C386.095 235.652 385.566 238.274 394.08 238.914C402.594 239.554 404.256 231.655 404.256 231.655L402.363 210.6Z" fill="#E5E5E5" stroke="black" stroke-width="0.5" stroke-miterlimit="10" stroke-linecap="round" stroke-linejoin="round"/>
<path d="M375.793 193.933L378.25 218.196C378.25 218.196 378.953 223.061 386.561 221.495C394.169 219.929 399.215 202.65 399.215 202.65L399.532 191.438L375.793 193.933Z" fill="#E5E5E5" stroke="black" stroke-width="0.5" stroke-miterlimit="10" stroke-linecap="round" stroke-linejoin="round"/>
<path fill-rule="evenodd" clip-rule="evenodd" d="M395.961 193.182C395.961 193.182 395.961 193.182 395.961 193.182L396.079 193.253L395.961 193.182ZM395.961 193.182C395.911 193.225 390.437 197.874 380.99 196.013C371.499 194.142 371.245 190.38 371.978 187.771C372.71 185.162 375.984 184.325 375.984 184.325C375.984 184.325 375.033 178.369 380.492 179.047C385.951 179.726 388.124 183.466 388.124 183.466C388.124 183.466 395.803 180.883 400.123 183.466C406.27 187.14 403.341 197.62 403.341 197.62L403.339 197.619L401.679 203.763C401.053 204.077 400.52 204.547 400.131 205.129C399.742 205.711 399.511 206.384 399.46 207.082C399.194 210.778 398.519 218.947 396.718 221.394C393.336 225.99 387.022 227.363 380.469 224.247C374.041 221.188 377.594 211.726 377.594 211.726C378.434 212.147 379.349 212.397 380.286 212.461C382.076 212.597 383.784 211.865 385.055 211.32C385.323 211.205 385.572 211.098 385.798 211.009C386.947 210.562 388.182 210.379 389.412 210.474L393.254 210.762C394.6 210.864 394.954 208.991 395.542 205.877C395.652 205.295 395.77 204.671 395.904 204.007C396.753 199.806 395.966 193.228 395.961 193.182Z" fill="#333333"/>
<path d="M395.961 193.182L396.09 192.968C395.997 192.912 395.879 192.922 395.797 192.993L395.961 193.182ZM395.961 193.182L395.799 192.992C395.737 193.044 395.705 193.123 395.712 193.203C395.718 193.283 395.763 193.355 395.832 193.397L395.961 193.182ZM396.079 193.253L395.95 193.467C396.069 193.538 396.222 193.5 396.293 193.381C396.364 193.263 396.326 193.11 396.208 193.038L396.079 193.253ZM395.961 193.182L396.209 193.152C396.198 193.061 396.138 192.983 396.052 192.949C395.966 192.916 395.869 192.932 395.798 192.992L395.961 193.182ZM380.99 196.013L381.038 195.767L380.99 196.013ZM371.978 187.771L372.218 187.838L371.978 187.771ZM375.984 184.325L376.046 184.568C376.172 184.536 376.252 184.413 376.231 184.286L375.984 184.325ZM380.492 179.047L380.461 179.295L380.492 179.047ZM388.124 183.466L387.908 183.592C387.968 183.695 388.091 183.741 388.204 183.703L388.124 183.466ZM400.123 183.466L399.995 183.681L399.995 183.681L400.123 183.466ZM403.341 197.62L403.212 197.834C403.279 197.874 403.36 197.881 403.433 197.852C403.505 197.823 403.56 197.762 403.581 197.687L403.341 197.62ZM403.339 197.619L403.468 197.405C403.401 197.364 403.319 197.358 403.246 197.387C403.173 197.416 403.118 197.478 403.098 197.554L403.339 197.619ZM401.679 203.763L401.791 203.987C401.855 203.955 401.902 203.897 401.921 203.828L401.679 203.763ZM400.131 205.129L400.339 205.268V205.268L400.131 205.129ZM399.46 207.082L399.211 207.064L399.211 207.064L399.46 207.082ZM396.718 221.394L396.92 221.542L396.92 221.542L396.718 221.394ZM380.469 224.247L380.362 224.473L380.362 224.473L380.469 224.247ZM377.594 211.726L377.706 211.502C377.643 211.471 377.569 211.467 377.503 211.493C377.437 211.519 377.385 211.572 377.36 211.638L377.594 211.726ZM380.286 212.461L380.305 212.212L380.303 212.212L380.286 212.461ZM385.055 211.32L385.153 211.55H385.153L385.055 211.32ZM385.798 211.009L385.707 210.777L385.707 210.777L385.798 211.009ZM389.412 210.474L389.393 210.723L389.393 210.723L389.412 210.474ZM393.254 210.762L393.272 210.513L393.272 210.513L393.254 210.762ZM395.542 205.877L395.787 205.923L395.542 205.877ZM395.904 204.007L396.149 204.057L395.904 204.007ZM395.961 193.182C395.797 192.993 395.797 192.993 395.797 192.993C395.797 192.993 395.797 192.993 395.797 192.993C395.797 192.993 395.797 192.993 395.797 192.993C395.797 192.993 395.797 192.993 395.797 192.993C395.797 192.993 395.797 192.993 395.797 192.993C395.797 192.993 395.797 192.993 395.797 192.993C395.797 192.993 395.797 192.993 395.797 192.993C395.798 192.993 395.798 192.993 395.798 192.993C395.798 192.993 395.798 192.993 395.798 192.992C395.798 192.992 395.798 192.992 395.799 192.992L396.123 193.372C396.123 193.372 396.124 193.372 396.124 193.372C396.124 193.371 396.124 193.371 396.125 193.371C396.125 193.371 396.125 193.371 396.125 193.371C396.125 193.371 396.125 193.371 396.125 193.371C396.125 193.371 396.125 193.371 396.125 193.371C396.125 193.371 396.125 193.371 396.125 193.371C396.125 193.371 396.125 193.371 396.125 193.371C396.125 193.371 396.125 193.371 396.125 193.371C396.125 193.371 396.125 193.371 396.125 193.371C396.125 193.371 396.125 193.371 395.961 193.182ZM396.208 193.038L396.09 192.968L395.832 193.396L395.95 193.467L396.208 193.038ZM396.207 193.038L396.089 192.968L395.832 193.397L395.95 193.467L396.207 193.038ZM395.798 192.992C395.777 193.01 390.379 197.608 381.038 195.767L380.941 196.258C390.495 198.14 396.044 193.44 396.123 193.372L395.798 192.992ZM381.038 195.767C376.312 194.836 373.95 193.444 372.848 192.016C371.759 190.605 371.863 189.106 372.218 187.838L371.737 187.703C371.361 189.044 371.225 190.732 372.452 192.322C373.666 193.894 376.176 195.319 380.941 196.258L381.038 195.767ZM372.218 187.838C372.56 186.623 373.498 185.806 374.382 185.285C374.822 185.027 375.24 184.846 375.549 184.731C375.703 184.673 375.829 184.632 375.916 184.605C375.959 184.592 375.993 184.582 376.015 184.576C376.026 184.573 376.034 184.571 376.04 184.569C376.042 184.569 376.044 184.568 376.045 184.568C376.046 184.568 376.046 184.568 376.046 184.567C376.046 184.567 376.047 184.567 376.047 184.567C376.047 184.567 376.046 184.567 376.046 184.567C376.046 184.567 376.046 184.568 375.984 184.325C375.923 184.083 375.922 184.083 375.922 184.083C375.922 184.083 375.922 184.083 375.922 184.083C375.922 184.083 375.922 184.083 375.921 184.083C375.921 184.084 375.92 184.084 375.919 184.084C375.917 184.085 375.914 184.085 375.91 184.086C375.903 184.088 375.893 184.091 375.88 184.095C375.854 184.102 375.816 184.113 375.769 184.127C375.674 184.157 375.538 184.201 375.374 184.263C375.045 184.386 374.599 184.578 374.129 184.854C373.193 185.405 372.128 186.31 371.737 187.703L372.218 187.838ZM375.984 184.325C376.231 184.286 376.231 184.286 376.231 184.286C376.231 184.286 376.231 184.286 376.231 184.286C376.231 184.286 376.231 184.286 376.231 184.286C376.231 184.285 376.231 184.284 376.231 184.283C376.231 184.281 376.23 184.277 376.229 184.272C376.228 184.262 376.226 184.247 376.223 184.226C376.218 184.186 376.211 184.125 376.203 184.047C376.188 183.891 376.173 183.669 376.171 183.403C376.167 182.87 376.218 182.176 376.43 181.507C376.641 180.84 377.007 180.214 377.626 179.792C378.242 179.372 379.141 179.131 380.461 179.295L380.523 178.799C379.114 178.624 378.085 178.874 377.344 179.379C376.606 179.883 376.186 180.619 375.953 181.356C375.72 182.093 375.667 182.844 375.671 183.407C375.673 183.689 375.689 183.927 375.705 184.094C375.713 184.178 375.721 184.245 375.727 184.291C375.73 184.314 375.733 184.332 375.734 184.344C375.735 184.35 375.736 184.355 375.737 184.359C375.737 184.36 375.737 184.362 375.737 184.363C375.737 184.363 375.737 184.364 375.737 184.364C375.737 184.364 375.738 184.364 375.738 184.364C375.738 184.365 375.738 184.365 375.984 184.325ZM380.461 179.295C383.136 179.628 385 180.709 386.195 181.703C386.793 182.201 387.224 182.677 387.504 183.027C387.644 183.202 387.746 183.346 387.813 183.444C387.846 183.494 387.871 183.532 387.886 183.557C387.894 183.569 387.9 183.579 387.904 183.585C387.905 183.588 387.907 183.59 387.907 183.591C387.908 183.591 387.908 183.592 387.908 183.592C387.908 183.592 387.908 183.592 387.908 183.592C387.908 183.592 387.908 183.592 387.908 183.592C387.908 183.592 387.908 183.592 388.124 183.466C388.34 183.341 388.34 183.341 388.34 183.34C388.34 183.34 388.34 183.34 388.34 183.34C388.34 183.34 388.34 183.339 388.339 183.339C388.339 183.338 388.338 183.337 388.338 183.336C388.336 183.334 388.334 183.331 388.332 183.326C388.327 183.318 388.32 183.306 388.31 183.291C388.291 183.261 388.264 183.218 388.227 183.164C388.154 183.055 388.043 182.901 387.894 182.715C387.596 182.343 387.143 181.841 386.515 181.319C385.258 180.273 383.307 179.145 380.523 178.799L380.461 179.295ZM388.124 183.466C388.204 183.703 388.204 183.703 388.204 183.703C388.204 183.703 388.204 183.703 388.204 183.703C388.204 183.703 388.204 183.703 388.205 183.703C388.205 183.703 388.207 183.702 388.208 183.702C388.212 183.701 388.217 183.699 388.224 183.696C388.238 183.692 388.259 183.685 388.287 183.676C388.343 183.658 388.427 183.632 388.534 183.6C388.75 183.535 389.063 183.445 389.453 183.345C390.234 183.145 391.319 182.905 392.536 182.745C394.986 182.424 397.912 182.435 399.995 183.681L400.251 183.252C398.014 181.914 394.94 181.925 392.471 182.25C391.229 182.413 390.124 182.657 389.329 182.861C388.932 182.963 388.612 183.054 388.39 183.121C388.28 183.154 388.194 183.181 388.135 183.2C388.106 183.209 388.084 183.216 388.068 183.221C388.061 183.224 388.055 183.226 388.051 183.227C388.049 183.228 388.047 183.228 388.046 183.229C388.046 183.229 388.045 183.229 388.045 183.229C388.045 183.229 388.045 183.229 388.045 183.229C388.044 183.229 388.044 183.229 388.124 183.466ZM399.995 183.681C402.952 185.448 403.751 188.868 403.787 191.924C403.805 193.444 403.633 194.853 403.456 195.883C403.368 196.397 403.278 196.816 403.211 197.106C403.177 197.251 403.149 197.363 403.13 197.439C403.12 197.477 403.113 197.506 403.107 197.525C403.105 197.534 403.103 197.541 403.102 197.546C403.101 197.548 403.101 197.55 403.1 197.551C403.1 197.552 403.1 197.552 403.1 197.552C403.1 197.552 403.1 197.552 403.1 197.553C403.1 197.553 403.1 197.553 403.341 197.62C403.581 197.687 403.581 197.687 403.581 197.687C403.582 197.687 403.582 197.687 403.582 197.686C403.582 197.686 403.582 197.685 403.582 197.685C403.583 197.683 403.583 197.681 403.584 197.678C403.585 197.673 403.588 197.665 403.59 197.654C403.596 197.634 403.604 197.603 403.614 197.563C403.635 197.484 403.664 197.368 403.698 197.219C403.767 196.921 403.858 196.493 403.949 195.967C404.129 194.918 404.305 193.477 404.287 191.918C404.25 188.815 403.441 185.158 400.251 183.252L399.995 183.681ZM403.47 197.406L403.468 197.405L403.21 197.833L403.212 197.834L403.47 197.406ZM401.921 203.828L403.581 197.684L403.098 197.554L401.438 203.698L401.921 203.828ZM400.339 205.268C400.704 204.722 401.204 204.281 401.791 203.987L401.567 203.54C400.903 203.872 400.336 204.372 399.923 204.99L400.339 205.268ZM399.71 207.1C399.757 206.445 399.974 205.814 400.339 205.268L399.923 204.99C399.51 205.608 399.265 206.323 399.211 207.064L399.71 207.1ZM396.92 221.542C397.398 220.892 397.788 219.886 398.11 218.711C398.434 217.531 398.697 216.154 398.912 214.744C399.341 211.923 399.576 208.949 399.71 207.1L399.211 207.064C399.078 208.911 398.843 211.869 398.418 214.669C398.205 216.069 397.945 217.424 397.628 218.579C397.309 219.74 396.939 220.673 396.517 221.246L396.92 221.542ZM380.362 224.473C386.998 227.628 393.451 226.256 396.92 221.542L396.517 221.246C393.221 225.725 387.046 227.097 380.577 224.021L380.362 224.473ZM377.594 211.726C377.36 211.638 377.36 211.638 377.36 211.638C377.36 211.638 377.36 211.639 377.36 211.639C377.36 211.639 377.36 211.64 377.359 211.64C377.359 211.642 377.358 211.644 377.357 211.646C377.355 211.651 377.353 211.658 377.349 211.668C377.343 211.687 377.333 211.714 377.32 211.75C377.295 211.822 377.259 211.928 377.216 212.062C377.13 212.331 377.015 212.718 376.897 213.192C376.662 214.138 376.414 215.434 376.371 216.832C376.285 219.618 377.014 222.879 380.362 224.473L380.577 224.021C377.497 222.556 376.787 219.557 376.871 216.847C376.913 215.496 377.152 214.236 377.382 213.313C377.497 212.851 377.609 212.475 377.692 212.215C377.734 212.084 377.768 211.983 377.792 211.915C377.804 211.881 377.813 211.855 377.819 211.838C377.823 211.83 377.825 211.823 377.826 211.819C377.827 211.817 377.828 211.816 377.828 211.815C377.828 211.814 377.828 211.814 377.828 211.814C377.828 211.814 377.828 211.814 377.828 211.814C377.828 211.814 377.828 211.814 377.594 211.726ZM380.303 212.212C379.399 212.15 378.516 211.908 377.706 211.502L377.482 211.949C378.351 212.385 379.298 212.644 380.268 212.711L380.303 212.212ZM384.956 211.09C383.677 211.639 382.024 212.343 380.305 212.212L380.267 212.711C382.127 212.852 383.891 212.091 385.153 211.55L384.956 211.09ZM385.707 210.777C385.476 210.867 385.223 210.975 384.956 211.09L385.153 211.55C385.423 211.434 385.668 211.329 385.889 211.242L385.707 210.777ZM389.431 210.225C388.164 210.127 386.891 210.316 385.707 210.777L385.889 211.242C387.003 210.809 388.2 210.631 389.393 210.723L389.431 210.225ZM393.272 210.513L389.43 210.224L389.393 210.723L393.235 211.012L393.272 210.513ZM395.296 205.831C395 207.398 394.769 208.617 394.449 209.434C394.29 209.842 394.119 210.122 393.929 210.294C393.748 210.458 393.541 210.533 393.272 210.513L393.235 211.012C393.639 211.042 393.981 210.921 394.264 210.665C394.538 210.417 394.744 210.054 394.915 209.617C395.256 208.745 395.495 207.47 395.787 205.923L395.296 205.831ZM395.659 203.958C395.524 204.623 395.406 205.249 395.296 205.831L395.787 205.923C395.897 205.342 396.015 204.718 396.149 204.057L395.659 203.958ZM395.713 193.212C395.715 193.231 395.912 194.88 396.003 197.047C396.094 199.218 396.077 201.888 395.659 203.958L396.149 204.057C396.58 201.925 396.594 199.205 396.503 197.026C396.411 194.842 396.212 193.179 396.209 193.152L395.713 193.212Z" fill="black"/>
<path d="M383.004 213.111L387.955 211.342C387.955 211.342 388.481 213.742 386.916 214.458C383.866 215.85 383.004 213.111 383.004 213.111Z" fill="white"/>
<path d="M377.492 203.674L379.904 202.02" stroke="black" stroke-width="0.5" stroke-linecap="round" stroke-linejoin="round"/>
<path d="M386.447 201.69L390.292 202.315" stroke="black" stroke-width="0.5" stroke-linecap="round" stroke-linejoin="round"/>
<path d="M383.155 202.803C383.155 202.803 382.264 207.516 382.724 208.508C383.183 209.501 385.386 208.997 385.386 208.997" fill="#E5E5E5"/>
<path d="M383.155 202.803C383.155 202.803 382.264 207.516 382.724 208.508C383.183 209.501 385.386 208.997 385.386 208.997" stroke="black" stroke-width="0.5" stroke-linecap="round" stroke-linejoin="round"/>
<path d="M379.211 206.496C379.801 206.496 380.279 206.017 380.279 205.427C380.279 204.837 379.801 204.359 379.211 204.359C378.621 204.359 378.143 204.837 378.143 205.427C378.143 206.017 378.621 206.496 379.211 206.496Z" fill="black"/>
<path d="M388.09 205.827C388.68 205.827 389.158 205.348 389.158 204.758C389.158 204.168 388.68 203.69 388.09 203.69C387.5 203.69 387.021 204.168 387.021 204.758C387.021 205.348 387.5 205.827 388.09 205.827Z" fill="black"/>
<path d="M183.36 92.9311L43.2852 95.5718L45.634 220.165L185.709 217.524L183.36 92.9311Z" fill="#B3B3B3" stroke="black" stroke-width="0.5" stroke-miterlimit="10" stroke-linecap="round" stroke-linejoin="round"/>
<path d="M114.543 154.16C111.902 160.957 109.239 167.528 106.792 174.182C103.343 183.561 100.028 192.995 96.7215 202.428C96.2429 203.785 95.5138 204.207 94.1507 204.042C87.3386 203.218 80.5202 202.409 73.7049 201.674C72.12 201.506 71.6952 200.704 71.486 199.287C68.6711 179.742 65.8288 160.194 62.959 140.644C61.8833 133.286 60.8119 125.927 59.7447 118.569C59.6274 117.764 59.5577 116.952 59.4277 115.697C63.3774 115.884 67.1337 116.014 70.8837 116.245C74.3484 116.451 77.8036 116.857 81.2715 116.959C83.1354 117.019 83.7693 117.685 83.9469 119.555C85.3353 133.185 86.8378 146.816 88.3403 160.465C88.4386 161.34 88.8253 162.18 89.0789 163.036H89.8238C90.3469 161.768 90.9175 160.535 91.3834 159.254C96.0463 146.445 100.722 133.639 105.302 120.801C105.908 119.101 106.681 118.55 108.501 118.708C115.088 119.273 121.684 119.723 128.29 120.059C130.104 120.148 130.696 120.962 131.004 122.522C133.764 136.469 136.539 150.404 139.328 164.326C139.502 165.204 139.54 166.114 139.645 167.002L141.667 167.094C144.379 157.717 147.102 148.3 149.836 138.844C151.326 133.683 152.772 128.51 154.353 123.381C154.559 122.718 155.485 121.777 156.033 121.796C163.771 122.195 171.506 122.747 179.586 123.273C178.318 127.6 177.148 131.702 175.886 135.769C168.694 158.969 161.454 182.157 154.331 205.376C153.748 207.263 152.927 207.773 151.034 207.64C143.531 207.114 136.022 206.689 128.506 206.35C126.836 206.27 126.763 205.24 126.538 204.074C123.596 188.993 120.652 173.912 117.706 158.83C116.993 155.207 116.92 155.219 114.543 154.16Z" fill="#333333"/>
<path d="M136.255 290.793L45.4082 277.686L32.0002 370.615L122.847 383.723L136.255 290.793Z" fill="white" stroke="black" stroke-width="0.5" stroke-miterlimit="10" stroke-linecap="round" stroke-linejoin="round"/>
<path d="M100.515 294.965L102.905 295.307C103.151 295.329 103.387 295.416 103.589 295.558C103.79 295.699 103.952 295.892 104.056 296.115C104.267 296.57 104.306 297.709 104.173 299.532L103.105 314.466C103.105 314.783 103.064 315.068 103.026 315.344C102.872 316.415 102.579 317.139 102.148 317.515C101.72 317.892 100.953 318 99.8527 317.832C98.5066 317.638 97.6232 317.152 97.2027 316.374C96.7822 315.596 96.518 313.854 96.4102 311.147C96.1144 304.294 94.8041 300.701 92.4795 300.369C90.548 300.095 89.2367 302.359 88.5457 307.162L81.0933 358.832C80.5988 362.261 81.3617 364.121 83.382 364.411C85.9559 364.783 87.8082 362.127 88.9388 356.445C89.2684 354.805 89.7556 353.704 90.4001 353.142C91.0446 352.579 92.2238 352.421 93.9377 352.666C95.2247 352.85 96.0858 353.217 96.5212 353.766C96.9565 354.316 97.0759 355.278 96.8794 356.654C96.2454 361.03 94.4047 364.476 91.3574 366.991C89.9317 368.21 88.2569 369.103 86.4501 369.608C84.6433 370.113 82.748 370.217 80.8968 369.914C77.2223 369.431 73.8488 367.629 71.4061 364.842C68.8702 362.008 66.9841 357.477 65.7478 351.249C64.5116 345.021 64.557 337.285 65.8841 328.039C67.1521 319.311 69.0382 312.464 71.5424 307.498C74.0466 302.532 76.8784 298.824 80.0377 296.375C83.1886 293.928 86.5867 292.963 90.2321 293.481C92.297 293.736 94.2211 294.662 95.7097 296.115C96.2612 296.633 96.6902 296.914 96.9966 296.958C97.3644 297.009 97.9476 296.641 98.7433 295.897C99.4343 295.199 100.027 294.892 100.515 294.965Z" fill="#666666"/>
<path d="M401.394 213.424C404.824 213.359 407.561 209.88 407.51 205.653C407.458 201.426 404.636 198.053 401.207 198.118C397.778 198.183 395.04 201.662 395.092 205.889C395.144 210.115 397.965 213.489 401.394 213.424Z" fill="#B3B3B3" stroke="black" stroke-width="0.5" stroke-linecap="round" stroke-linejoin="round"/>
<path d="M406.951 205.606C407.312 202.267 405.412 199.328 402.708 199.041C400.005 198.754 397.521 201.227 397.16 204.565C396.8 207.903 398.7 210.842 401.403 211.13C404.107 211.417 406.591 208.944 406.951 205.606Z" fill="#808080" stroke="black" stroke-width="0.5" stroke-linecap="round" stroke-linejoin="round"/>
<path d="M394.951 222.293C394.035 222.743 393.045 223.028 392.03 223.134L391.976 222.659C395.199 222.327 397.939 220.116 399.499 216.608C401.437 212.245 402.846 205.304 402.861 205.235L403.333 205.328C403.319 205.399 401.899 212.39 399.938 216.802C398.806 219.36 397.059 221.259 394.951 222.293Z" fill="black"/>
<path d="M390.963 221.511L388.355 221.749C387.618 221.817 387.075 222.467 387.14 223.201L387.15 223.308C387.215 224.043 387.865 224.584 388.602 224.517L391.21 224.279C391.947 224.212 392.49 223.562 392.425 222.827L392.415 222.72C392.35 221.985 391.7 221.444 390.963 221.511Z" fill="#4C4C4C" stroke="black" stroke-width="0.5" stroke-linecap="round" stroke-linejoin="round"/>
<path d="M401.641 203.088C402.29 199.56 401.92 194.045 398.623 189.5C395.325 184.955 388.309 183.438 388.309 183.438L391.372 182.688C391.372 182.688 397.654 184.228 400.81 188.75C403.965 193.272 405.976 200.608 405.171 204.504C404.983 205.408 404.075 207.655 402.574 207.138C401.072 206.621 401.453 204.109 401.641 203.088Z" fill="white" stroke="black" stroke-width="0.5" stroke-miterlimit="10" stroke-linejoin="round"/>
<path d="M416.599 143.1C415.499 140.2 414.899 137.1 414.799 134.1C414.699 131.8 414.899 129.6 415.499 127.3L422.899 91.1V91C422.899 90.9 422.999 90.9 422.999 90.9H427.799V3.00005C427.799 2.90005 427.899 2.80005 427.999 2.80005C428.099 2.80005 428.199 2.90005 428.199 3.00005V90.9H433.899C433.899 91 433.999 91 433.999 91V91.1L440.899 126.7C442.099 132.7 441.399 138.8 438.799 144.3L438.499 144.9L437.199 147.4C437.199 147.4 437.099 147.5 436.999 147.5H418.599C418.499 147.5 418.399 147.4 418.399 147.3L416.899 143.8C416.849 143.7 416.799 143.575 416.749 143.45C416.73 143.401 416.71 143.351 416.69 143.303C416.673 143.262 416.656 143.222 416.639 143.184C416.626 143.154 416.613 143.126 416.599 143.1Z" fill="url(#paint0_linear_1463_30357)" style="mix-blend-mode:overlay"/>
<path d="M199.099 206.1L253.599 224.6H253.799C253.899 224.6 253.899 224.5 253.899 224.5L282.799 139.7C282.799 139.6 282.799 139.4 282.599 139.4L228.099 120.9H227.899C227.799 120.9 227.799 121 227.799 121L198.999 205.8C198.899 205.9 198.999 206 199.099 206.1Z" fill="url(#paint1_linear_1463_30357)" style="mix-blend-mode:overlay"/>
<path d="M528.2 304.9C528.2 304.85 528.175 304.825 528.15 304.8C528.143 304.794 528.137 304.787 528.131 304.78C528.127 304.775 528.122 304.77 528.119 304.765C528.112 304.754 528.106 304.743 528.103 304.729C528.101 304.72 528.1 304.711 528.1 304.7H527.9L452.9 322.3C452.8 322.3 452.7 322.5 452.7 322.6L471.2 401.6C471.2 401.65 471.225 401.675 471.25 401.7C471.275 401.725 471.3 401.75 471.3 401.8H471.5L546.5 384.2C546.6 384.2 546.7 384 546.7 383.9L528.2 304.9Z" fill="url(#paint2_linear_1463_30357)" style="mix-blend-mode:overlay"/>
<path d="M449.799 177.9C449.899 181 450.499 184 451.599 186.9C451.699 187.1 451.799 187.3 451.899 187.6L453.399 191.1C453.399 191.2 453.499 191.3 453.599 191.3H471.999C472.099 191.3 472.199 191.2 472.199 191.2L473.499 188.7L473.799 188.1C475.299 184.9 476.099 181.5 476.399 178.1V178C476.599 175.5 476.399 173 475.899 170.5L468.999 135.1V135H463.299V3.00005C463.299 2.90005 463.199 2.80005 463.099 2.80005C462.999 2.80005 462.899 2.90005 462.899 3.00005V134.7H458.199V134.8L450.799 171C449.899 173.4 449.699 175.6 449.799 177.9Z" fill="url(#paint3_linear_1463_30357)" style="mix-blend-mode:overlay"/>
<path d="M475.599 121.9C474.499 119 473.899 115.9 473.799 112.9C473.699 110.6 473.899 108.3 474.499 106L481.899 69.8V69.7H486.899V3.00005C486.899 2.90005 486.999 2.80005 487.099 2.80005C487.199 2.80005 487.299 2.90005 487.299 3.00005V69.8H492.999V69.9L499.799 105.6C500.299 108.1 500.499 110.6 500.299 113.1C499.999 116.5 499.199 119.9 497.699 123.1L497.399 123.7L496.099 126.2C496.099 126.2 495.999 126.3 495.899 126.3H477.599C477.499 126.3 477.399 126.2 477.399 126.1L475.899 122.6C475.849 122.5 475.799 122.375 475.75 122.25C475.7 122.125 475.649 122 475.599 121.9Z" fill="url(#paint4_linear_1463_30357)" style="mix-blend-mode:overlay"/>
<path fill-rule="evenodd" clip-rule="evenodd" d="M427.4 344.6L433.2 336.2L435.3 337.6H435.5C435.55 337.6 435.575 337.575 435.6 337.55C435.625 337.525 435.65 337.5 435.7 337.5L457.9 300.1C459.3 297.5 460.1 294.5 460.1 291.5C460.1 288.5 459.3 285.5 457.9 282.9L433.9 240C430.6 234.7 427 231.7 423.1 230.9H422.9C422.3 230.8 421.7 230.7 421 230.8L404.2 229.5L402.8 213.5C405.6 212.6 407.7 209.5 407.7 205.7C407.7 203.3 406.8 201.1 405.3 199.6C405 198.1 404.6 196.5 404.1 194.9C404.2 194 404.3 193 404.3 191.9C404.3 188.8 403.5 185.1 400.3 183.2C398.1 181.9 395 181.9 392.5 182.2C391.3 182.4 390.2 182.6 389.4 182.8C389 182.9 388.7 183 388.5 183.1H388.3C388.25 183.05 388.2 182.975 388.15 182.9C388.1 182.825 388.05 182.75 388 182.7C387.7 182.3 387.2 181.8 386.6 181.3C385.3 180.3 383.4 179.1 380.6 178.8C379.2 178.6 378.2 178.9 377.4 179.4C376.7 179.9 376.2 180.6 376 181.4C375.8 182.1 375.7 182.9 375.7 183.4V184.2C375.65 184.2 375.6 184.225 375.55 184.25C375.5 184.275 375.45 184.3 375.4 184.3C375.1 184.4 374.6 184.6 374.2 184.9C373.3 185.5 372.2 186.4 371.8 187.7C371.4 189 371.3 190.7 372.5 192.3C373.1 193.1 374.2 193.9 375.7 194.6L376.3 200.1C375.1 201.7 374.6 203.9 374.9 206.3C375.2 208.4 376.1 210.3 377.5 211.6V211.8C377.5 211.85 377.475 211.9 377.45 211.95C377.434 211.982 377.418 212.014 377.408 212.045C377.403 212.064 377.4 212.082 377.4 212.1C377.3 212.4 377.2 212.8 377.1 213.2L377.08 213.29C376.88 214.185 376.6 215.446 376.6 216.8C376.5 219.6 377.2 222.8 380.6 224.4C382.4 225.3 384.2 225.8 386 226V230.1C382.4 230.4 375.8 231.5 372.8 232.7C370 233.8 367.7 235.3 365.8 237V85C365.8 84.9 365.7 84.8 365.6 84.8H301C300.9 84.8 300.8 84.9 300.8 85V245C300.8 245.1 300.9 245.2 301 245.2H358.9C358.816 245.34 358.732 245.471 358.651 245.6L358.65 245.601C358.44 245.932 358.244 246.24 358.1 246.6C357.9 246.95 357.675 247.3 357.45 247.65C357.225 248 357 248.35 356.8 248.7L340.1 277.2L315.4 292.9L314 259.5C314 259.4 313.9 259.3 313.7 259.3L301 259.8C300.9 259.8 300.9 259.8 300.8 259.9C300.8 259.9 300.7 260 300.7 260.1L301.1 270.6C301.1 270.7 301.2 270.8 301.3 270.8C302.8 271 304.1 271.8 305 272.9C305.9 274.1 306.4 275.5 306.3 277C306.2 278.5 305.6 279.9 304.5 280.9C303.4 281.9 302 282.5 300.6 282.6C299.1 282.7 297.7 282.2 296.5 281.2C295.4 280.2 294.6 278.9 294.4 277.4C294.2 275.9 294.6 274.4 295.4 273.2C296.2 272 297.5 271.1 299 270.8C299.1 270.8 299.2 270.7 299.2 270.5L298.8 260C298.8 259.9 298.7 259.8 298.5 259.8L274.3 260.7C274.257 260.7 274.233 260.7 274.211 260.708C274.182 260.718 274.157 260.743 274.1 260.8C274.1 260.8 274 260.9 274 261L274.4 271.5C274.4 271.6 274.5 271.7 274.6 271.7C276.1 271.9 277.4 272.7 278.3 273.8C279.2 275 279.7 276.4 279.6 277.9C279.5 279.4 278.9 280.8 277.8 281.8C276.7 282.8 275.3 283.4 273.9 283.5C272.4 283.6 271 283.1 269.8 282.1C268.7 281.1 267.9 279.8 267.7 278.3C267.5 276.8 267.9 275.4 268.7 274.1C269.5 272.9 270.8 272 272.3 271.7C272.4 271.7 272.5 271.6 272.5 271.4L272.1 260.9C272.1 260.858 272.1 260.833 272.092 260.811C272.086 260.795 272.076 260.78 272.057 260.759C272.043 260.744 272.024 260.725 272 260.7C271.9 260.6 271.9 260.6 271.8 260.6L247.6 261.5C247.5 261.5 247.4 261.6 247.4 261.8L247.8 272.3C247.8 272.4 247.9 272.5 248 272.5C249.5 272.7 250.8 273.5 251.7 274.6C252.6 275.8 253.1 277.2 253 278.7C252.9 280.2 252.3 281.6 251.2 282.6C250.1 283.6 248.7 284.2 247.3 284.3C245.8 284.4 244.4 283.9 243.3 282.9C242.2 281.9 241.4 280.6 241.3 279.1C241.1 277.6 241.5 276.2 242.3 274.9C243.1 273.7 244.4 272.8 245.8 272.5C245.9 272.5 246 272.4 246 272.2L245.6 261.7C245.6 261.6 245.6 261.6 245.5 261.5C245.5 261.5 245.4 261.4 245.3 261.4L221.1 262.3C221.057 262.3 221.033 262.3 221.011 262.308C220.982 262.318 220.957 262.343 220.9 262.4C220.9 262.4 220.8 262.5 220.8 262.6L221.2 273.1C221.2 273.2 221.3 273.3 221.4 273.3C222.9 273.5 224.2 274.3 225.1 275.4C226 276.6 226.5 278 226.4 279.5C226.3 281 225.7 282.4 224.6 283.4C223.5 284.4 222.1 285 220.7 285.1C219.2 285.2 217.8 284.7 216.6 283.7C215.5 282.7 214.7 281.4 214.5 279.9C214.3 278.4 214.7 276.9 215.5 275.7C216.3 274.5 217.6 273.6 219.1 273.3C219.2 273.3 219.3 273.2 219.3 273L218.9 262.5C218.9 262.4 218.8 262.3 218.6 262.3L194.4 263.2C194.3 263.2 194.3 263.2 194.2 263.3C194.2 263.3 194.1 263.4 194.1 263.5L194.5 274C194.5 274.1 194.6 274.2 194.7 274.2C196.2 274.4 197.5 275.2 198.4 276.3C199.3 277.5 199.8 278.9 199.7 280.4C199.6 281.9 199 283.3 197.9 284.3C196.8 285.3 195.4 285.9 194 286C192.5 286.1 191.1 285.6 189.9 284.6C188.8 283.6 188 282.3 187.8 280.8C187.6 279.3 188 277.9 188.8 276.6C189.6 275.4 190.9 274.5 192.4 274.2C192.5 274.2 192.6 274.1 192.6 273.9L192.2 263.4C192.2 263.3 192.1 263.2 191.9 263.2L167.7 264.1C167.6 264.1 167.6 264.1 167.5 264.2C167.5 264.2 167.4 264.3 167.4 264.4L167.8 274.9C167.8 275 167.9 275.1 168 275.1C169.5 275.3 170.8 276.1 171.7 277.2C172.6 278.4 173.1 279.8 173 281.3C172.9 282.8 172.3 284.2 171.2 285.2C170.1 286.2 168.7 286.8 167.3 286.9C165.8 287 164.4 286.5 163.2 285.5C162.1 284.5 161.3 283.2 161.1 281.7C160.9 280.2 161.3 278.8 162.1 277.5C162.9 276.3 164.2 275.4 165.6 275.1C165.7 275.1 165.8 275 165.8 274.8L165.4 264.3C165.4 264.2 165.3 264.1 165.1 264.1L140.9 265C140.873 265 140.854 265 140.838 265.002C140.828 265.003 140.819 265.005 140.811 265.008C140.782 265.018 140.757 265.043 140.7 265.1C140.7 265.1 140.6 265.2 140.6 265.3L141 275.8C141 275.9 141.1 276 141.2 276C142.7 276.2 144 277 144.9 278.1C145.8 279.3 146.3 280.7 146.2 282.2C146.1 283.7 145.5 285.1 144.4 286.1C143.3 287.1 141.9 287.7 140.5 287.8C139 287.9 137.6 287.4 136.5 286.4C135.4 285.4 134.6 284.1 134.5 282.6C134.4 281.1 134.7 279.7 135.5 278.4C136.3 277.2 137.6 276.3 139 276C139.1 276 139.2 275.9 139.2 275.7L138.8 265.2C138.8 265.1 138.8 265.1 138.7 265C138.7 265 138.6 264.9 138.5 264.9L124.3 265.4C124.2 265.4 124.2 265.4 124.1 265.5C124.1 265.5 124 265.6 124 265.7L124.9 288.3L44.2996 276.7C44.1996 276.7 43.9996 276.8 43.9996 276.9L30.5996 369.8C30.5996 369.9 30.6996 370.1 30.7996 370.1L121.6 383.2H121.7C121.8 383.2 121.8 383.1 121.8 383L127.1 346.2L132.8 485.1C132.8 485.2 132.8 485.3 132.9 485.3C132.938 485.3 132.961 485.315 132.982 485.327C133.014 485.347 133.038 485.362 133.1 485.3C138.5 483.6 144.4 483.8 149.7 485.8H149.9C150 485.8 150 485.7 150 485.7L152 479.5C154.2 481.5 157.8 481.1 160.1 479.7C162.6 478.2 164.2 475.8 166 473.1L171.7 464.4C179.6 461.2 188 458.9 196.4 457.5C196.2 463.2 196.5 469 197.2 474.6C197.2 474.7 197.3 474.8 197.4 474.8H197.7C200.2 472.7 203.4 471.4 206.7 471.3C206.8 471.3 206.9 471.2 206.9 471.2V470.9C206.5 470.3 206.3 469.6 206.5 468.9C206.8 467.2 208.5 465.5 209.8 464.6C219.2 458.4 231.8 457.5 242 462.1L242.3 462.2L242.327 462.212C243.62 462.81 245.11 463.497 246.6 463.1C248.1 462.8 249.2 461.5 250.1 460.3L250.4 459.9C252.7 457.1 255.7 454.8 259 453.3C262.2 451.8 265.7 451 269.2 451C269.034 451.414 269.142 451.69 269.241 451.943C269.262 451.996 269.282 452.048 269.3 452.1C269.9 453.1 272.1 453.7 273.7 453.6C277.409 453.329 281.037 454.367 284.583 455.382C284.956 455.489 285.328 455.595 285.7 455.7L287.8 456.3C292.3 457.6 297.5 458.7 302.2 457C304.9 456 307.2 453.8 308.3 451.2C309.1 449.2 309.2 447.3 308.5 445.5C309.094 445.368 309.733 445.279 310.473 445.177C310.852 445.124 311.259 445.068 311.7 445C311.982 444.955 312.272 444.91 312.569 444.864C312.861 444.819 313.16 444.774 313.464 444.728C315.585 444.406 317.972 444.043 320.3 443.5C320.4 443.5 320.5 443.4 320.5 443.2L318.6 398.8L322.1 397.9C327.5 396.5 331.2 393.6 333.1 389.4L361.5 327.6L356.3 375.2C356 377.2 356.1 379.3 356.6 381.2C357 382.6 357.5 383.7 358.3 384.6L355.5 403.5C355 408.9 355 414.4 355.5 419.8L364 502C364 502.1 364.1 502.2 364.1 502.2C364.1 502.2 367.5 503.8 373.1 504.5L374.5 526.4L372.5 528.9C372.385 528.938 372.137 529.036 371.769 529.18L371.764 529.182C371.171 529.415 370.268 529.77 369.1 530.2C367.5 529.3 365.4 529.3 365.3 529.3C365.2 529.3 365.1 529.4 365.1 529.6C365.1 529.7 365.2 529.8 365.3 529.8C365.3 529.8 367 529.8 368.5 530.4C367.488 530.805 366.295 531.255 364.981 531.75C364.346 531.99 363.684 532.24 363 532.5C361.8 532.2 360.6 532.2 360.5 532.2C360.4 532.2 360.3 532.3 360.3 532.5C360.3 532.6 360.4 532.7 360.5 532.7C360.6 532.7 361.3 532.7 362.1 532.9C361.418 533.181 360.72 533.461 360.007 533.748L359.999 533.752C358.935 534.18 357.835 534.622 356.7 535.1C356.1 535 355.7 535 355.6 535C355.5 535 355.4 535.1 355.4 535.3C355.4 535.4 355.5 535.5 355.6 535.5C354.317 535.989 352.998 536.552 351.664 537.121L351.658 537.123L351.656 537.124C350.808 537.486 349.954 537.851 349.1 538.2L348.466 538.471C346.616 539.263 344.937 539.981 343.5 540.7H343.4C342.4 541.1 335.2 544.3 332.6 547C332.3 547.2 332.1 547.4 332 547.7C331.9 547.9 331.8 548.1 331.8 548.3C331.7 548.6 331.7 548.8 331.7 549C331.7 549.055 331.7 549.079 331.716 549.107C331.723 549.118 331.732 549.131 331.746 549.146C331.76 549.16 331.777 549.178 331.8 549.2C331.8 549.4 331.9 549.7 332 549.9C332.2 550.2 332.4 550.5 332.8 550.7C333 550.8 333.2 550.9 333.5 551H333.6C335.3 551.8 338 552.1 340.3 552.2C341.5 552.3 342.8 552.4 344 552.3H344.8C347.3 552.4 349.4 552.4 349.4 552.4C349.5 552.4 349.5 552.4 349.6 552.3H350.2C350.667 552.3 351.14 552.301 351.619 552.302C356.462 552.31 361.848 552.319 367.4 551.5C371.8 550.9 374.7 550.2 376.9 549.6C377.183 549.529 377.441 549.471 377.684 549.416C378.125 549.317 378.512 549.229 378.9 549.1L379.3 552.1C379.3 552.2 379.4 552.3 379.5 552.3H381.1C380.95 552.499 380.801 552.723 380.652 552.947L380.65 552.95C380.5 553.175 380.35 553.4 380.2 553.6C380 553.9 379.8 554.2 379.7 554.5C379.6 554.7 379.6 554.9 379.6 555.1C379.6 555.4 379.6 555.6 379.7 555.8C379.7 555.85 379.725 555.875 379.75 555.9C379.775 555.925 379.8 555.95 379.8 556C379.9 556.2 380 556.4 380.2 556.6C380.5 556.9 380.8 557.1 381.1 557.2C381.3 557.3 381.5 557.3 381.7 557.3H381.8C382.299 557.4 382.8 557.5 383.4 557.5C385.2 557.5 387.3 557.1 389.1 556.6L389.101 556.6L389.102 556.599C390.202 556.4 391.3 556.2 392.3 555.9C392.35 555.9 392.425 555.875 392.5 555.85C392.575 555.825 392.65 555.8 392.7 555.8C395.3 555.2 397.6 554.6 397.6 554.6C397.65 554.6 397.675 554.575 397.7 554.55C397.725 554.525 397.75 554.5 397.8 554.5V554.4C397.9 554.35 398 554.325 398.1 554.3C398.162 554.284 398.225 554.269 398.288 554.247C398.325 554.234 398.362 554.219 398.4 554.2C403.4 552.9 409.1 551.4 414.8 548.9C418.9 547.2 421.6 545.7 423.5 544.6C424.195 544.202 424.792 543.904 425.192 543.704L425.197 543.701L425.2 543.7L426.3 546.5C426.3 546.6 426.5 546.7 426.6 546.6L439.3 543.2C439.317 543.2 439.331 543.197 439.343 543.192C439.367 543.183 439.383 543.167 439.4 543.15C439.425 543.125 439.45 543.1 439.5 543.1V542.9L432.6 521.9C432.6 521.8 432.5 521.8 432.5 521.8H432.3L431.1 522.2L426.5 502.4C430.8 500 431.9 497.8 431.9 497.6V497.4L406.7 414.2L421.2 372.4L438.8 367.7C449.5 364.9 454.8 359.5 454.8 351.8L425.5 359.6C426.7 354.8 427.4 349.7 427.4 344.6ZM429 298.1L431 285.1L432.6 288.5L429 298.1ZM410.9 527.9C409.1 527.5 407.1 528 407 528.1C406.9 528.1 406.8 528.3 406.8 528.4C406.8 528.5 407 528.6 407.1 528.6C407.1 528.6 408.8 528.1 410.3 528.4C409.55 528.977 408.7 529.587 407.75 530.269C407.054 530.769 406.303 531.308 405.5 531.9C404.482 531.9 403.587 532.084 403.198 532.164C403.09 532.186 403.021 532.2 403 532.2C402.9 532.2 402.8 532.4 402.8 532.5C402.8 532.6 403 532.7 403.1 532.7C403.1 532.7 403.8 532.5 404.7 532.4C403.2 533.5 401.7 534.6 400 535.9C399.4 536 399 536.1 399 536.1C398.9 536.1 398.8 536.3 398.8 536.4C398.8 536.5 399 536.6 399.1 536.6C398.323 537.204 397.528 537.808 396.722 538.42L396.72 538.422C395.659 539.228 394.579 540.048 393.5 540.9L392 542.1L391.3 530C391.3 529.961 391.3 529.937 391.294 529.916C391.292 529.91 391.289 529.904 391.286 529.897C391.273 529.873 391.248 529.848 391.2 529.8C391.2 529.8 391.172 529.773 391.132 529.747C391.095 529.723 391.047 529.7 391 529.7L389.8 529.8L388.2 504.4C391.4 504 393.7 503.4 395.1 502.9L396 506.7C396 506.8 396.1 506.9 396.2 506.9C396.212 506.9 396.277 506.908 396.39 506.922C397.162 507.019 400.198 507.4 404.3 507.4C406.8 507.4 409.7 507.2 412.6 506.8L415.9 521.1C415.8 521.2 415.7 521.3 415.6 521.3V521.4L413.7 525.8C413.7 525.952 413.066 526.392 412.017 527.12L412.007 527.127C411.676 527.356 411.305 527.614 410.9 527.9ZM337.6 351.7L340.8 307.8L362.2 298.8L361.8 303.7C360.7 305.5 359.4 307.9 357.9 310.8L337.6 351.7Z" fill="url(#paint5_linear_1463_30357)" style="mix-blend-mode:overlay"/>
<path d="M45.6996 220.4C45.5996 220.4 45.4996 220.3 45.4996 220.3C45.3996 220.3 45.3996 220.2 45.3996 220.2L43.0996 95.6C43.0996 95.4 43.1996 95.3 43.2996 95.3L183.5 92.7C183.6 92.7 183.7 92.8 183.7 92.9L186 217.5C186 217.7 185.9 217.8 185.8 217.8L45.6996 220.4Z" fill="url(#paint6_linear_1463_30357)" style="mix-blend-mode:overlay"/>
<defs>
<linearGradient id="paint0_linear_1463_30357" x1="30.5996" y1="2.80005" x2="546.7" y2="2.80004" gradientUnits="userSpaceOnUse">
<stop stop-color="#F38478"/>
<stop offset="1" stop-color="#5D6AE8"/>
</linearGradient>
<linearGradient id="paint1_linear_1463_30357" x1="30.5996" y1="2.80005" x2="546.7" y2="2.80004" gradientUnits="userSpaceOnUse">
<stop stop-color="#F38478"/>
<stop offset="1" stop-color="#5D6AE8"/>
</linearGradient>
<linearGradient id="paint2_linear_1463_30357" x1="30.5996" y1="2.80005" x2="546.7" y2="2.80004" gradientUnits="userSpaceOnUse">
<stop stop-color="#F38478"/>
<stop offset="1" stop-color="#5D6AE8"/>
</linearGradient>
<linearGradient id="paint3_linear_1463_30357" x1="30.5996" y1="2.80005" x2="546.7" y2="2.80004" gradientUnits="userSpaceOnUse">
<stop stop-color="#F38478"/>
<stop offset="1" stop-color="#5D6AE8"/>
</linearGradient>
<linearGradient id="paint4_linear_1463_30357" x1="30.5996" y1="2.80005" x2="546.7" y2="2.80004" gradientUnits="userSpaceOnUse">
<stop stop-color="#F38478"/>
<stop offset="1" stop-color="#5D6AE8"/>
</linearGradient>
<linearGradient id="paint5_linear_1463_30357" x1="30.5996" y1="2.80005" x2="546.7" y2="2.80004" gradientUnits="userSpaceOnUse">
<stop stop-color="#F38478"/>
<stop offset="1" stop-color="#5D6AE8"/>
</linearGradient>
<linearGradient id="paint6_linear_1463_30357" x1="30.5996" y1="2.80005" x2="546.7" y2="2.80004" gradientUnits="userSpaceOnUse">
<stop stop-color="#F38478"/>
<stop offset="1" stop-color="#5D6AE8"/>
</linearGradient>
</defs>
</svg>
