<svg width="560" height="560" viewBox="0 0 560 560" fill="none" xmlns="http://www.w3.org/2000/svg">
<path d="M431.183 185.062L469.928 311.139C470.208 312.056 470.264 313.027 470.091 313.97C469.918 314.914 469.522 315.802 468.936 316.56C463.909 323.121 449.012 337.313 430.954 305.947C408.602 267.128 405.358 195.746 416.641 181.235C422.893 173.17 430.055 181.362 431.183 185.062Z" fill="#4C4C4C" stroke="black" stroke-width="0.5" stroke-linecap="round" stroke-linejoin="round"/>
<path d="M403.65 264.33C398.68 268.82 394.71 274.305 392 280.43C387.49 290.65 387.66 298.43 387.66 298.43C387.66 298.43 331.86 315.02 325.66 313.95C319.46 312.88 310.36 310.8 312 321.57C313.64 332.34 345.47 328.79 345.47 328.79C345.47 328.79 362.96 324.1 378.47 321.74C393.98 319.38 408.6 316.64 419.13 307.94C434.41 295.32 437.41 290.94 437.41 290.94" fill="#666666"/>
<path d="M403.65 264.33C398.68 268.82 394.71 274.305 392 280.43C387.49 290.65 387.66 298.43 387.66 298.43C387.66 298.43 331.86 315.02 325.66 313.95C319.46 312.88 310.36 310.8 312 321.57C313.64 332.34 345.47 328.79 345.47 328.79C345.47 328.79 362.96 324.1 378.47 321.74C393.98 319.38 408.6 316.64 419.13 307.94C434.41 295.32 437.41 290.94 437.41 290.94" stroke="black" stroke-width="0.5" stroke-linecap="round" stroke-linejoin="round"/>
<path d="M72.17 295.57H301.44C302.777 295.57 304.101 295.836 305.335 296.35C306.569 296.865 307.689 297.62 308.63 298.57C309.58 299.511 310.331 300.633 310.84 301.87C311.349 303.104 311.611 304.425 311.61 305.76V461.46H62V305.74C62 303.043 63.0715 300.456 64.9787 298.549C66.886 296.642 69.4727 295.57 72.17 295.57Z" fill="#E5E5E5" stroke="black" stroke-width="0.5" stroke-linecap="round" stroke-linejoin="round"/>
<path d="M301 303.57H73C71.9391 303.57 70.9217 303.991 70.1716 304.742C69.4214 305.492 69 306.509 69 307.57V450.57C69 451.631 69.4214 452.648 70.1716 453.398C70.9217 454.149 71.9391 454.57 73 454.57H301C302.061 454.57 303.078 454.149 303.828 453.398C304.579 452.648 305 451.631 305 450.57V307.57C305 306.509 304.579 305.492 303.828 304.742C303.078 303.991 302.061 303.57 301 303.57Z" fill="#E5E5E5" stroke="black" stroke-width="0.5" stroke-linecap="round" stroke-linejoin="round"/>
<path d="M157.13 357.34H122.89C122.459 357.339 122.031 357.423 121.632 357.587C121.233 357.751 120.87 357.993 120.564 358.297C120.259 358.602 120.016 358.964 119.851 359.363C119.685 359.761 119.6 360.189 119.6 360.62V385.44C119.6 386.313 119.947 387.149 120.564 387.766C121.181 388.383 122.018 388.73 122.89 388.73H157.13C158.001 388.727 158.835 388.38 159.45 387.763C160.065 387.146 160.41 386.311 160.41 385.44V360.62C160.41 359.75 160.065 358.916 159.449 358.301C158.834 357.686 158 357.34 157.13 357.34Z" fill="white"/>
<path fill-rule="evenodd" clip-rule="evenodd" d="M140 364.3C138.273 364.3 136.586 364.812 135.15 365.771C133.714 366.731 132.595 368.094 131.935 369.689C131.274 371.284 131.101 373.04 131.438 374.733C131.775 376.427 132.606 377.982 133.827 379.203C135.048 380.424 136.603 381.255 138.297 381.592C139.99 381.929 141.746 381.756 143.341 381.096C144.936 380.435 146.299 379.316 147.259 377.88C148.218 376.445 148.73 374.757 148.73 373.03C148.73 370.715 147.81 368.494 146.173 366.857C144.536 365.22 142.315 364.3 140 364.3ZM126.27 373.03C126.27 370.315 127.075 367.66 128.584 365.402C130.093 363.144 132.237 361.384 134.746 360.345C137.255 359.306 140.015 359.034 142.679 359.564C145.342 360.094 147.788 361.401 149.709 363.321C151.629 365.242 152.936 367.688 153.466 370.351C153.996 373.015 153.724 375.775 152.685 378.284C151.646 380.793 149.886 382.937 147.628 384.446C145.37 385.955 142.716 386.76 140 386.76C136.36 386.757 132.871 385.31 130.298 382.735C127.725 380.161 126.28 376.67 126.28 373.03H126.27Z" fill="#4C4C4C"/>
<path fill-rule="evenodd" clip-rule="evenodd" d="M140 359.3C143.234 359.298 146.364 360.437 148.841 362.515C151.318 364.594 152.983 367.48 153.542 370.665C154.101 373.85 153.518 377.13 151.897 379.928C150.276 382.726 147.72 384.863 144.679 385.962C141.638 387.061 138.307 387.052 135.271 385.938C132.236 384.823 129.691 382.673 128.084 379.867C126.478 377.06 125.912 373.777 126.488 370.595C127.063 367.413 128.742 364.536 131.23 362.47L134.42 366.31C132.836 367.619 131.765 369.444 131.394 371.465C131.023 373.485 131.377 375.572 132.393 377.358C133.409 379.143 135.022 380.513 136.949 381.227C138.876 381.94 140.992 381.951 142.926 381.258C144.86 380.565 146.488 379.212 147.522 377.437C148.557 375.662 148.933 373.579 148.583 371.555C148.234 369.53 147.181 367.694 145.612 366.369C144.042 365.044 142.054 364.315 140 364.31V359.3Z" fill="#808080"/>
<path fill-rule="evenodd" clip-rule="evenodd" d="M140 359.3C143.096 359.308 146.098 360.361 148.52 362.288C150.943 364.216 152.643 366.905 153.346 369.92C154.049 372.934 153.713 376.098 152.394 378.898C151.074 381.699 148.847 383.971 146.074 385.347C143.301 386.724 140.145 387.123 137.116 386.481C134.088 385.84 131.365 384.194 129.389 381.811C127.413 379.428 126.299 376.448 126.229 373.353C126.158 370.258 127.135 367.23 129 364.76L133 367.76C132.267 368.735 131.747 369.853 131.473 371.042C131.198 372.23 131.176 373.463 131.408 374.661C131.639 375.859 132.119 376.995 132.816 377.996C133.514 378.996 134.413 379.84 135.457 380.472C136.5 381.104 137.664 381.51 138.874 381.665C140.084 381.819 141.313 381.718 142.482 381.368C143.651 381.019 144.733 380.428 145.659 379.634C146.586 378.84 147.335 377.861 147.86 376.76C148.697 374.98 148.908 372.97 148.46 371.055C148.012 369.141 146.93 367.433 145.39 366.21C143.846 364.991 141.937 364.326 139.97 364.32L140 359.3Z" fill="#808080"/>
<path fill-rule="evenodd" clip-rule="evenodd" d="M140 359.3C142.848 359.3 145.625 360.184 147.947 361.832C150.27 363.48 152.023 365.809 152.963 368.497C153.903 371.185 153.984 374.099 153.195 376.835C152.406 379.571 150.785 381.994 148.558 383.769C146.331 385.543 143.607 386.581 140.764 386.739C137.92 386.897 135.099 386.167 132.689 384.65C130.279 383.133 128.4 380.904 127.313 378.272C126.225 375.64 125.983 372.736 126.62 369.96L131.49 371.08C131.185 372.4 131.191 373.773 131.507 375.09C131.824 376.407 132.443 377.632 133.315 378.669C134.187 379.705 135.288 380.525 136.532 381.062C137.775 381.6 139.127 381.84 140.48 381.765C141.832 381.69 143.149 381.301 144.325 380.629C145.501 379.957 146.505 379.021 147.257 377.894C148.009 376.767 148.488 375.481 148.657 374.137C148.826 372.793 148.68 371.428 148.23 370.15C147.632 368.443 146.519 366.964 145.045 365.916C143.571 364.869 141.809 364.304 140 364.3V359.3Z" fill="#808080"/>
<path fill-rule="evenodd" clip-rule="evenodd" d="M140 359.3C142.429 359.298 144.814 359.941 146.914 361.161C149.014 362.382 150.753 364.137 151.953 366.249C153.154 368.36 153.773 370.752 153.748 373.18C153.724 375.609 153.055 377.988 151.812 380.074C150.569 382.16 148.794 383.88 146.67 385.057C144.546 386.235 142.147 386.828 139.719 386.777C137.291 386.726 134.92 386.032 132.847 384.766C130.774 383.5 129.074 381.707 127.92 379.57L132.32 377.21C133.235 378.913 134.689 380.265 136.455 381.053C138.221 381.84 140.199 382.019 142.077 381.561C143.956 381.104 145.629 380.035 146.835 378.524C148.041 377.012 148.711 375.143 148.74 373.21C148.753 371.667 148.359 370.148 147.597 368.807C146.835 367.465 145.732 366.348 144.4 365.57C143.068 364.791 141.553 364.38 140.01 364.38L140 359.3Z" fill="#B3B3B3"/>
<path fill-rule="evenodd" clip-rule="evenodd" d="M140 359.3C143.49 359.304 146.847 360.636 149.39 363.026C151.933 365.417 153.47 368.685 153.689 372.168C153.908 375.651 152.792 379.087 150.569 381.777C148.346 384.467 145.182 386.209 141.72 386.65L141.09 381.65C143.292 381.37 145.304 380.261 146.717 378.55C148.131 376.839 148.84 374.654 148.7 372.439C148.559 370.224 147.581 368.146 145.963 366.626C144.345 365.107 142.21 364.261 139.99 364.26L140 359.3Z" fill="#CCCCCC"/>
<path d="M200.76 357.34H166.52C165.649 357.34 164.814 357.685 164.197 358.3C163.58 358.915 163.233 359.749 163.23 360.62V385.44C163.233 386.312 163.58 387.147 164.197 387.764C164.813 388.38 165.648 388.727 166.52 388.73H200.76C201.632 388.727 202.467 388.38 203.083 387.764C203.7 387.147 204.047 386.312 204.05 385.44V360.62C204.047 359.749 203.7 358.915 203.083 358.3C202.466 357.685 201.631 357.34 200.76 357.34Z" fill="white"/>
<path fill-rule="evenodd" clip-rule="evenodd" d="M183.64 364.41C181.953 364.41 180.304 364.91 178.901 365.848C177.498 366.785 176.405 368.117 175.759 369.676C175.114 371.234 174.945 372.949 175.274 374.604C175.603 376.259 176.415 377.779 177.608 378.972C178.801 380.164 180.321 380.977 181.976 381.306C183.63 381.635 185.346 381.466 186.904 380.821C188.463 380.175 189.795 379.082 190.732 377.679C191.67 376.276 192.17 374.627 192.17 372.94C192.17 370.678 191.271 368.508 189.671 366.908C188.072 365.309 185.902 364.41 183.64 364.41ZM169.64 372.94C169.64 370.171 170.461 367.464 171.999 365.162C173.538 362.86 175.724 361.065 178.282 360.006C180.84 358.946 183.655 358.669 186.371 359.209C189.087 359.749 191.581 361.083 193.539 363.04C195.497 364.998 196.831 367.493 197.371 370.209C197.911 372.924 197.634 375.739 196.574 378.298C195.515 380.856 193.72 383.042 191.418 384.581C189.116 386.119 186.409 386.94 183.64 386.94C181.799 386.944 179.975 386.585 178.273 385.883C176.571 385.181 175.024 384.15 173.721 382.85C172.418 381.55 171.384 380.005 170.678 378.304C169.973 376.604 169.61 374.781 169.61 372.94H169.64Z" fill="#CCCCCC"/>
<path fill-rule="evenodd" clip-rule="evenodd" d="M176.14 361.09C178.382 359.666 180.984 358.91 183.64 358.91V364.41C182.024 364.41 180.442 364.868 179.077 365.732C177.712 366.596 176.621 367.83 175.93 369.29L170.93 366.94C172.074 364.534 173.882 362.504 176.14 361.09Z" fill="#808080"/>
<path d="M109.28 403.57H78.1399C77.4034 403.573 76.6978 403.866 76.177 404.387C75.6562 404.908 75.3625 405.614 75.3599 406.35C75.3599 407.088 75.6524 407.796 76.1735 408.319C76.6946 408.842 77.4016 409.137 78.1399 409.14H109.28C109.646 409.14 110.008 409.068 110.346 408.927C110.684 408.787 110.991 408.582 111.249 408.322C111.507 408.063 111.712 407.755 111.851 407.417C111.99 407.079 112.061 406.716 112.06 406.35C112.06 405.613 111.767 404.906 111.246 404.384C110.724 403.863 110.017 403.57 109.28 403.57Z" fill="white"/>
<path d="M94.6602 412.96H78.1401C77.4037 412.963 76.6981 413.256 76.1773 413.777C75.6565 414.298 75.3628 415.003 75.3602 415.74C75.3549 416.109 75.4228 416.475 75.56 416.818C75.6972 417.16 75.901 417.472 76.1595 417.735C76.4181 417.998 76.7262 418.208 77.0662 418.351C77.4062 418.494 77.7712 418.569 78.1401 418.57H94.6602C95.0261 418.57 95.3884 418.498 95.7263 418.357C96.0643 418.217 96.3712 418.011 96.6295 417.752C96.8877 417.493 97.0923 417.185 97.2314 416.847C97.3705 416.508 97.4415 416.146 97.4402 415.78C97.4455 415.412 97.3775 415.046 97.2401 414.704C97.1028 414.362 96.8989 414.051 96.6402 413.788C96.3815 413.526 96.0732 413.318 95.7333 413.175C95.3934 413.033 95.0286 412.96 94.6602 412.96Z" fill="white"/>
<path d="M103.32 422.84H78.1399C77.4026 422.84 76.6955 423.133 76.1741 423.654C75.6528 424.176 75.3599 424.883 75.3599 425.62C75.3599 426.357 75.6528 427.064 76.1741 427.586C76.6955 428.107 77.4026 428.4 78.1399 428.4H103.32C104.057 428.4 104.764 428.107 105.286 427.586C105.807 427.064 106.1 426.357 106.1 425.62C106.1 424.883 105.807 424.176 105.286 423.654C104.764 423.133 104.057 422.84 103.32 422.84Z" fill="white"/>
<path d="M110.72 434.99H78.3998C77.5113 434.99 76.6592 435.343 76.031 435.971C75.4027 436.599 75.0498 437.451 75.0498 438.34V440.03C75.0498 440.47 75.1364 440.906 75.3048 441.312C75.4732 441.718 75.7199 442.088 76.031 442.399C76.3421 442.71 76.7114 442.957 77.1178 443.125C77.5243 443.293 77.9599 443.38 78.3998 443.38H110.72C111.16 443.38 111.595 443.293 112.002 443.125C112.408 442.957 112.778 442.71 113.089 442.399C113.4 442.088 113.646 441.718 113.815 441.312C113.983 440.906 114.07 440.47 114.07 440.03V438.34C114.07 437.451 113.717 436.599 113.089 435.971C112.46 435.343 111.608 434.99 110.72 434.99Z" fill="#B3B3B3"/>
<path d="M292.25 357.34H210.6C209.73 357.34 208.896 357.686 208.281 358.301C207.666 358.916 207.32 359.75 207.32 360.62V385.44C207.32 386.311 207.666 387.146 208.28 387.763C208.895 388.38 209.729 388.727 210.6 388.73H292.25C293.122 388.727 293.957 388.38 294.574 387.764C295.19 387.147 295.538 386.312 295.54 385.44V360.62C295.538 359.749 295.19 358.915 294.573 358.3C293.956 357.685 293.121 357.34 292.25 357.34Z" fill="white"/>
<path d="M214.82 361.7C214.823 361.46 214.92 361.23 215.09 361.059C215.26 360.889 215.49 360.793 215.73 360.79H222.11C222.351 360.793 222.581 360.889 222.751 361.059C222.921 361.23 223.018 361.46 223.02 361.7V385.15H214.82V361.7Z" fill="#B3B3B3"/>
<path d="M227.57 362.95C227.573 362.71 227.67 362.48 227.84 362.309C228.01 362.139 228.24 362.043 228.48 362.04H234.86C235.101 362.043 235.331 362.139 235.501 362.309C235.671 362.48 235.768 362.71 235.77 362.95V385.27H227.57V362.95Z" fill="#B3B3B3"/>
<path d="M240.32 367.51C240.329 367.268 240.425 367.037 240.59 366.86C240.675 366.777 240.775 366.711 240.884 366.666C240.994 366.622 241.112 366.599 241.23 366.6H247.61C247.729 366.599 247.846 366.622 247.956 366.666C248.066 366.711 248.166 366.777 248.25 366.86C248.416 367.037 248.512 367.268 248.52 367.51V385.27H240.32V367.51Z" fill="#B3B3B3"/>
<path d="M253.07 369.67C253.073 369.429 253.17 369.2 253.34 369.029C253.51 368.859 253.74 368.763 253.98 368.76H260.36C260.601 368.763 260.831 368.859 261.001 369.029C261.171 369.2 261.268 369.429 261.27 369.67V385.15H253.07V369.67Z" fill="#B3B3B3"/>
<path d="M265.82 371.04C265.822 370.796 265.919 370.563 266.09 370.39C266.175 370.307 266.275 370.241 266.384 370.196C266.494 370.151 266.612 370.129 266.73 370.13H273.11C273.229 370.129 273.346 370.151 273.456 370.196C273.566 370.241 273.666 370.307 273.75 370.39C273.922 370.563 274.019 370.796 274.02 371.04V385.15H265.82V371.04Z" fill="#B3B3B3"/>
<path d="M278.57 372.18C278.572 372.06 278.596 371.942 278.64 371.83C278.688 371.719 278.756 371.617 278.84 371.53C278.922 371.447 279.021 371.382 279.13 371.34C279.241 371.292 279.36 371.268 279.48 371.27H285.86C286.098 371.278 286.325 371.37 286.5 371.53C286.582 371.62 286.649 371.721 286.7 371.83C286.744 371.942 286.768 372.06 286.77 372.18V385.18H278.57V372.18Z" fill="#B3B3B3"/>
<path d="M292.08 314.89H122.89C122.459 314.889 122.031 314.973 121.632 315.137C121.233 315.301 120.87 315.543 120.564 315.847C120.259 316.152 120.016 316.514 119.851 316.913C119.685 317.311 119.6 317.739 119.6 318.17V351.32C119.6 352.193 119.947 353.03 120.564 353.647C121.181 354.264 122.018 354.61 122.89 354.61H292.08C292.512 354.61 292.94 354.525 293.339 354.36C293.738 354.194 294.101 353.952 294.406 353.647C294.712 353.341 294.954 352.978 295.12 352.579C295.285 352.18 295.37 351.752 295.37 351.32V318.17C295.37 317.739 295.285 317.311 295.119 316.913C294.954 316.514 294.712 316.152 294.406 315.847C294.1 315.543 293.737 315.301 293.338 315.137C292.939 314.973 292.512 314.889 292.08 314.89Z" fill="white"/>
<path d="M123.68 345.21L135.38 344.91L147.07 345.06H158.77L170.46 344.91L182.16 345.06L194.16 344.35L205.85 345.21H229.24L240.94 345.06L252.63 344.91L264.32 344.18L276.02 344.52L287.72 345.38" stroke="#E5E5E5" stroke-width="0.5" stroke-linecap="round" stroke-linejoin="round"/>
<path d="M123.68 343.84L135.38 339.62L147.07 335.41L158.77 336.96L170.46 336.78L182.16 335.06L194.16 338.68L205.89 325.57L217.59 333.99L229.28 331.24L241 330.57L252.69 333.15L264.38 332.15L276.08 327.15L287.78 325.15" stroke="#CCCCCC" stroke-width="0.5" stroke-linecap="round" stroke-linejoin="round"/>
<path d="M292.08 391.57H122.89C122.018 391.57 121.181 391.917 120.564 392.534C119.947 393.151 119.6 393.988 119.6 394.86V440.86C119.6 441.733 119.947 442.569 120.564 443.186C121.181 443.803 122.018 444.15 122.89 444.15H292.08C292.512 444.15 292.94 444.065 293.339 443.9C293.738 443.734 294.101 443.492 294.406 443.186C294.712 442.881 294.954 442.518 295.12 442.119C295.285 441.72 295.37 441.292 295.37 440.86V394.86C295.37 394.428 295.285 394 295.12 393.601C294.954 393.202 294.712 392.839 294.406 392.534C294.101 392.228 293.738 391.986 293.339 391.82C292.94 391.655 292.512 391.57 292.08 391.57Z" fill="white"/>
<path d="M132.31 430.37C132.309 429.951 132.39 429.535 132.55 429.148C132.71 428.76 132.945 428.408 133.241 428.111C133.538 427.815 133.89 427.58 134.278 427.42C134.665 427.26 135.081 427.179 135.5 427.18H151.5C151.918 427.178 152.332 427.26 152.718 427.42C153.104 427.579 153.455 427.814 153.75 428.11C154.048 428.406 154.284 428.758 154.445 429.146C154.607 429.534 154.69 429.95 154.69 430.37V437.91H132.31V430.37Z" fill="#E5E5E5"/>
<path d="M157.84 425.17C157.842 424.324 158.179 423.513 158.776 422.914C159.374 422.314 160.184 421.975 161.03 421.97H177.03C177.45 421.97 177.865 422.053 178.253 422.214C178.641 422.375 178.993 422.611 179.289 422.908C179.585 423.205 179.82 423.558 179.98 423.946C180.14 424.334 180.221 424.75 180.22 425.17V437.91H157.84V425.17Z" fill="#E5E5E5"/>
<path d="M183.38 417.77C183.38 416.924 183.716 416.113 184.314 415.514C184.912 414.916 185.724 414.58 186.57 414.58H202.57C203.416 414.58 204.227 414.916 204.826 415.514C205.424 416.113 205.76 416.924 205.76 417.77V437.92H183.38V417.77Z" fill="#CCCCCC"/>
<path d="M208.91 423.87C208.91 423.448 208.991 423.031 209.15 422.64C209.316 422.264 209.554 421.924 209.85 421.64C210.133 421.344 210.473 421.109 210.85 420.95C211.237 420.788 211.651 420.703 212.07 420.7H228.07C228.917 420.709 229.727 421.046 230.33 421.64C230.624 421.925 230.858 422.264 231.02 422.64C231.179 423.031 231.261 423.448 231.26 423.87V437.87H208.91V423.87Z" fill="#CCCCCC"/>
<path d="M234.45 411.51C234.449 411.09 234.53 410.674 234.69 410.286C234.85 409.898 235.085 409.545 235.381 409.248C235.677 408.951 236.029 408.715 236.417 408.554C236.805 408.393 237.22 408.31 237.64 408.31H253.64C254.059 408.313 254.474 408.398 254.86 408.56C255.237 408.719 255.577 408.954 255.86 409.25C256.159 409.545 256.397 409.897 256.558 410.285C256.719 410.673 256.802 411.09 256.8 411.51V437.91H234.45V411.51Z" fill="#B3B3B3"/>
<path d="M260 403.7C260.003 403.281 260.088 402.867 260.25 402.48C260.413 402.105 260.647 401.765 260.94 401.48C261.228 401.19 261.567 400.956 261.94 400.79C262.327 400.63 262.741 400.548 263.16 400.55H279.16C279.578 400.55 279.993 400.631 280.38 400.79C280.755 400.953 281.094 401.188 281.38 401.48C281.673 401.768 281.91 402.107 282.08 402.48C282.239 402.867 282.321 403.282 282.32 403.7V437.91H260V403.7Z" fill="#B3B3B3"/>
<path d="M123.68 438.16H290.91" stroke="#808080" stroke-width="0.5" stroke-linecap="round" stroke-linejoin="round"/>
<path d="M13 501.63L62.3 461.46H311.92L363 501.63H13Z" fill="#B3B3B3" stroke="black" stroke-width="0.5" stroke-linecap="round" stroke-linejoin="round"/>
<path d="M13 501.63H363V506.06C363 507.582 362.395 509.042 361.319 510.119C360.242 511.195 358.782 511.8 357.26 511.8H18.74C17.2177 511.8 15.7577 511.195 14.6812 510.119C13.6047 509.042 13 507.582 13 506.06V501.63Z" fill="#808080" stroke="black" stroke-width="0.5" stroke-linecap="round" stroke-linejoin="round"/>
<path d="M240.18 481.57H132.73C132.125 481.569 131.534 481.751 131.035 482.092C130.535 482.433 130.15 482.916 129.93 483.48L125.51 494.57C125.35 494.973 125.291 495.409 125.34 495.84C125.389 496.271 125.543 496.683 125.79 497.04C126.048 497.405 126.391 497.7 126.79 497.9C127.173 498.099 127.599 498.202 128.03 498.2H245.62C246.067 498.201 246.507 498.091 246.9 497.88C247.289 497.666 247.618 497.358 247.857 496.984C248.097 496.61 248.239 496.183 248.27 495.74C248.3 495.294 248.221 494.848 248.04 494.44L242.92 483.27C242.681 482.744 242.296 482.298 241.81 481.986C241.324 481.674 240.758 481.508 240.18 481.51V481.57Z" fill="#CCCCCC" stroke="black" stroke-width="0.5" stroke-linecap="round" stroke-linejoin="round"/>
<path d="M20.25 229.57C20.25 226.454 21.4879 223.465 23.6915 221.262C25.895 219.058 28.8837 217.82 32 217.82H228C231.116 217.82 234.105 219.058 236.309 221.262C238.512 223.465 239.75 226.454 239.75 229.57V336.57C239.75 339.686 238.512 342.675 236.309 344.879C234.105 347.082 231.116 348.32 228 348.32H32C28.8837 348.32 25.895 347.082 23.6915 344.879C21.4879 342.675 20.25 339.686 20.25 336.57V229.57Z" fill="black" stroke="black" stroke-width="0.5" stroke-linecap="round" stroke-linejoin="round"/>
<path d="M15.25 224.57C15.25 221.454 16.4879 218.465 18.6915 216.262C20.895 214.058 23.8837 212.82 27 212.82H223C226.116 212.82 229.105 214.058 231.309 216.262C233.512 218.465 234.75 221.454 234.75 224.57V331.57C234.75 334.686 233.512 337.675 231.309 339.879C229.105 342.082 226.116 343.32 223 343.32H27C23.8837 343.32 20.895 342.082 18.6915 339.879C16.4879 337.675 15.25 334.686 15.25 331.57V224.57Z" fill="white" stroke="black" stroke-width="0.5" stroke-linecap="round" stroke-linejoin="round"/>
<path d="M39.9998 230.24C40.3471 230.257 40.6756 230.403 40.9214 230.648C41.1673 230.894 41.3128 231.223 41.3298 231.57H41.4898C42.1695 231.569 42.824 231.826 43.3201 232.291C43.8163 232.756 44.1165 233.392 44.1598 234.07L44.6698 239.57C45.0039 239.599 45.3151 239.752 45.5417 239.999C45.7684 240.246 45.8942 240.57 45.8942 240.905C45.8942 241.24 45.7684 241.564 45.5417 241.811C45.3151 242.058 45.0039 242.211 44.6698 242.24H35.3298C34.9957 242.211 34.6846 242.058 34.4579 241.811C34.2312 241.564 34.1055 241.24 34.1055 240.905C34.1055 240.57 34.2312 240.246 34.4579 239.999C34.6846 239.752 34.9957 239.599 35.3298 239.57L35.8398 234.07C35.8831 233.392 36.1834 232.756 36.6795 232.291C37.1756 231.826 37.8302 231.569 38.5098 231.57H38.6698C38.6799 231.22 38.8232 230.888 39.0705 230.641C39.3178 230.393 39.6503 230.25 39.9998 230.24V230.24Z" stroke="black" stroke-width="0.5" stroke-linecap="round" stroke-linejoin="round"/>
<path d="M38 242.9C38 243.43 38.2107 243.939 38.5858 244.314C38.9609 244.689 39.4696 244.9 40 244.9C40.5304 244.9 41.0391 244.689 41.4142 244.314C41.7893 243.939 42 243.43 42 242.9V242.24H38V242.9Z" stroke="black" stroke-width="0.5" stroke-linecap="round" stroke-linejoin="round"/>
<path d="M47.28 224.57H32.72C31.203 224.57 29.7481 225.173 28.6754 226.245C27.6026 227.318 27 228.773 27 230.29V244.85C27 246.367 27.6026 247.822 28.6754 248.895C29.7481 249.967 31.203 250.57 32.72 250.57H47.28C48.797 250.57 50.2519 249.967 51.3246 248.895C52.3974 247.822 53 246.367 53 244.85V230.29C53 228.773 52.3974 227.318 51.3246 226.245C50.2519 225.173 48.797 224.57 47.28 224.57V224.57Z" stroke="black" stroke-width="0.5" stroke-linecap="round" stroke-linejoin="round"/>
<path d="M65.5498 243.57V232.29H66.1298L73.9998 242.9H73.6698V232.29H74.2898V243.57H73.7298L65.8798 232.96H66.1998V243.57H65.5498Z" fill="black"/>
<path d="M80.2398 243.7C79.5784 243.715 78.9264 243.541 78.3598 243.2C77.8128 242.862 77.3806 242.367 77.1198 241.78C76.546 240.362 76.546 238.777 77.1198 237.36C77.3806 236.772 77.8128 236.278 78.3598 235.94C78.9339 235.612 79.5836 235.439 80.2448 235.439C80.906 235.439 81.5557 235.612 82.1298 235.94C82.6759 236.276 83.1054 236.771 83.3598 237.36C83.6568 238.059 83.8099 238.811 83.8099 239.57C83.8099 240.329 83.6568 241.081 83.3598 241.78C83.1054 242.368 82.6759 242.864 82.1298 243.2C81.5598 243.542 80.9044 243.716 80.2398 243.7ZM80.2398 243.07C80.6339 243.087 81.0268 243.015 81.39 242.861C81.7532 242.708 82.0776 242.475 82.3398 242.18C82.9042 241.432 83.181 240.505 83.1198 239.57C83.1844 238.64 82.907 237.719 82.3398 236.98C82.0713 236.693 81.7469 236.465 81.3865 236.308C81.0262 236.152 80.6376 236.072 80.2448 236.072C79.852 236.072 79.4634 236.152 79.103 236.308C78.7427 236.465 78.4182 236.693 78.1498 236.98C77.5903 237.723 77.3169 238.642 77.3798 239.57C77.3235 240.503 77.596 241.427 78.1498 242.18C78.4108 242.473 78.7336 242.705 79.095 242.859C79.4564 243.013 79.8473 243.085 80.2398 243.07Z" fill="black"/>
<path d="M88.3397 243.7C88.0588 243.715 87.7781 243.667 87.5172 243.562C87.2564 243.457 87.0218 243.296 86.8297 243.09C86.4532 242.535 86.2736 241.869 86.3197 241.2V236.2H84.7197V235.57H86.3197V233.28L86.9897 233.03V235.57H89.4297V236.15H86.9997V241.06C86.9623 241.59 87.0731 242.12 87.3197 242.59C87.4456 242.754 87.6103 242.883 87.7989 242.967C87.9875 243.051 88.194 243.086 88.3997 243.07C88.5914 243.072 88.7827 243.052 88.9697 243.01C89.1171 242.977 89.2611 242.93 89.3997 242.87V243.51C89.2459 243.571 89.0844 243.612 88.9197 243.63C88.7303 243.679 88.5353 243.702 88.3397 243.7Z" fill="black"/>
<path d="M91.19 243.57V235.57H91.86V243.57H91.19ZM91 233.47V232.47H92V233.47H91Z" fill="black"/>
<path d="M94.9999 243.57V236.15H93.3999V235.57H95.1599L94.9999 235.75V234.32C94.9563 233.634 95.1703 232.956 95.5999 232.42C95.8155 232.185 96.0809 232.001 96.3768 231.881C96.6726 231.762 96.9915 231.71 97.3099 231.73C97.5014 231.731 97.6923 231.751 97.8799 231.79C98.0442 231.815 98.2052 231.859 98.3599 231.92V232.57C98.2183 232.509 98.0709 232.462 97.9199 232.43C97.7304 232.381 97.5355 232.358 97.3399 232.36C97.1028 232.341 96.8647 232.38 96.6455 232.472C96.4263 232.564 96.2324 232.707 96.0799 232.89C95.7817 233.349 95.6412 233.894 95.6799 234.44V235.8L95.5499 235.58H100.3V243.58H99.6299V236.16H95.6299V243.57H94.9999ZM99.4399 233.47V232.47H100.44V233.47H99.4399Z" fill="black"/>
<path d="M106.2 243.7C105.52 243.716 104.848 243.543 104.26 243.2C103.711 242.846 103.274 242.343 103 241.75C102.697 241.043 102.55 240.279 102.57 239.51C102.55 238.75 102.7 237.994 103.01 237.3C103.284 236.722 103.727 236.241 104.28 235.92C104.865 235.589 105.528 235.423 106.2 235.44C106.697 235.437 107.188 235.543 107.64 235.75C108.088 235.925 108.489 236.202 108.81 236.56L108.47 237.07C108.16 236.743 107.785 236.485 107.37 236.31C106.993 236.154 106.589 236.072 106.18 236.07C105.777 236.049 105.374 236.118 105 236.272C104.627 236.426 104.292 236.661 104.02 236.96C103.462 237.692 103.188 238.602 103.25 239.52C103.189 240.46 103.462 241.391 104.02 242.15C104.289 242.455 104.622 242.696 104.996 242.855C105.37 243.014 105.774 243.088 106.18 243.07C106.574 243.069 106.964 242.994 107.33 242.85C107.762 242.675 108.151 242.409 108.47 242.07L108.81 242.58C108.481 242.948 108.07 243.232 107.61 243.41C107.163 243.597 106.685 243.696 106.2 243.7Z" fill="black"/>
<path d="M113.84 243.7C113.176 243.716 112.52 243.542 111.95 243.2C111.409 242.859 110.981 242.364 110.72 241.78C110.417 241.084 110.27 240.329 110.29 239.57C110.268 238.811 110.415 238.056 110.72 237.36C110.988 236.774 111.423 236.28 111.97 235.94C112.533 235.599 113.182 235.425 113.84 235.44C114.531 235.42 115.209 235.628 115.77 236.03C116.32 236.425 116.704 237.009 116.85 237.67H116.65L116.81 235.57H117.47C117.47 235.87 117.41 236.16 117.37 236.45C117.33 236.74 117.37 237.02 117.37 237.3V243.57H116.7V241.47H116.88C116.734 242.131 116.35 242.715 115.8 243.11C115.228 243.514 114.54 243.721 113.84 243.7ZM113.84 243.07C114.231 243.086 114.621 243.015 114.981 242.861C115.341 242.707 115.662 242.474 115.92 242.18C116.474 241.427 116.747 240.503 116.69 239.57C116.753 238.642 116.48 237.723 115.92 236.98C115.666 236.679 115.347 236.441 114.986 236.283C114.626 236.125 114.233 236.052 113.84 236.07C113.444 236.052 113.049 236.125 112.685 236.283C112.321 236.44 111.998 236.679 111.74 236.98C111.191 237.727 110.929 238.646 111 239.57C110.944 240.503 111.216 241.427 111.77 242.18C112.029 242.471 112.349 242.701 112.706 242.855C113.064 243.009 113.451 243.082 113.84 243.07Z" fill="black"/>
<path d="M122.49 243.7C122.21 243.716 121.931 243.669 121.671 243.564C121.412 243.458 121.179 243.296 120.99 243.09C120.613 242.535 120.434 241.869 120.48 241.2V236.2H118.88V235.57H120.48V233.28L121.15 233.03V235.57H123.58V236.15H121.15V241.06C121.112 241.59 121.223 242.12 121.47 242.59C121.593 242.754 121.756 242.884 121.943 242.968C122.13 243.052 122.335 243.087 122.54 243.07C122.735 243.073 122.93 243.052 123.12 243.01C123.267 242.975 123.411 242.929 123.55 242.87V243.51C123.395 243.569 123.234 243.609 123.07 243.63C122.88 243.678 122.685 243.702 122.49 243.7Z" fill="black"/>
<path d="M125.35 243.57V235.57H126V243.57H125.35ZM125.17 233.47V232.47H126.17V233.47H125.17Z" fill="black"/>
<path d="M131.84 243.7C131.175 243.716 130.52 243.542 129.95 243.2C129.409 242.858 128.981 242.364 128.72 241.78C128.146 240.362 128.146 238.777 128.72 237.36C128.981 236.776 129.409 236.281 129.95 235.94C130.52 235.598 131.175 235.424 131.84 235.44C132.504 235.426 133.159 235.6 133.73 235.94C134.271 236.281 134.699 236.776 134.96 237.36C135.257 238.059 135.41 238.811 135.41 239.57C135.41 240.329 135.257 241.081 134.96 241.78C134.699 242.364 134.271 242.858 133.73 243.2C133.159 243.54 132.504 243.713 131.84 243.7ZM131.84 243.07C132.232 243.085 132.623 243.013 132.985 242.859C133.346 242.705 133.669 242.473 133.93 242.18C134.502 241.435 134.783 240.507 134.72 239.57C134.786 238.639 134.505 237.716 133.93 236.98C133.661 236.693 133.337 236.465 132.977 236.308C132.616 236.152 132.228 236.072 131.835 236.072C131.442 236.072 131.054 236.152 130.693 236.308C130.333 236.465 130.008 236.693 129.74 236.98C129.191 237.727 128.928 238.646 129 239.57C128.944 240.503 129.216 241.427 129.77 242.18C130.029 242.471 130.348 242.701 130.706 242.855C131.064 243.009 131.451 243.082 131.84 243.07Z" fill="black"/>
<path d="M137.67 243.57V237.3C137.685 237.017 137.685 236.733 137.67 236.45C137.67 236.16 137.67 235.87 137.59 235.57H138.24L138.39 237.49H138.19C138.38 236.871 138.775 236.335 139.31 235.97C139.87 235.612 140.525 235.427 141.19 235.44C141.578 235.411 141.968 235.462 142.336 235.589C142.704 235.716 143.042 235.917 143.33 236.18C143.598 236.496 143.802 236.862 143.929 237.256C144.056 237.651 144.104 238.067 144.07 238.48V243.57H143.39V238.57C143.451 237.898 143.266 237.226 142.87 236.68C142.65 236.467 142.388 236.304 142.099 236.202C141.811 236.1 141.504 236.062 141.2 236.09C140.821 236.072 140.443 236.131 140.089 236.266C139.734 236.4 139.411 236.606 139.14 236.87C138.62 237.446 138.351 238.205 138.39 238.98V243.57H137.67Z" fill="black"/>
<path d="M117 273.82H31C28.9289 273.82 27.25 275.499 27.25 277.57V286.57C27.25 288.641 28.9289 290.32 31 290.32H117C119.071 290.32 120.75 288.641 120.75 286.57V277.57C120.75 275.499 119.071 273.82 117 273.82Z" fill="#B3B3B3" stroke="black" stroke-width="0.5" stroke-linecap="round" stroke-linejoin="round"/>
<path d="M160 296.82H29C28.0335 296.82 27.25 297.604 27.25 298.57V303.57C27.25 304.537 28.0335 305.32 29 305.32H160C160.966 305.32 161.75 304.537 161.75 303.57V298.57C161.75 297.604 160.966 296.82 160 296.82Z" fill="#CCCCCC" stroke="black" stroke-width="0.5" stroke-linecap="round" stroke-linejoin="round"/>
<path d="M190 309.82H29C28.0335 309.82 27.25 310.604 27.25 311.57V316.57C27.25 317.537 28.0335 318.32 29 318.32H190C190.966 318.32 191.75 317.537 191.75 316.57V311.57C191.75 310.604 190.966 309.82 190 309.82Z" fill="#CCCCCC" stroke="black" stroke-width="0.5" stroke-linecap="round" stroke-linejoin="round"/>
<path d="M127 322.82H29C28.0335 322.82 27.25 323.604 27.25 324.57V329.57C27.25 330.537 28.0335 331.32 29 331.32H127C127.966 331.32 128.75 330.537 128.75 329.57V324.57C128.75 323.604 127.966 322.82 127 322.82Z" fill="#CCCCCC" stroke="black" stroke-width="0.5" stroke-linecap="round" stroke-linejoin="round"/>
<path d="M225.06 474.72H139L137.47 478.85H226.91L225.06 474.72Z" fill="#4C4C4C"/>
<path d="M137 474.72H117.22L115.01 478.85H135.26L137 474.72Z" fill="#4C4C4C"/>
<path d="M247.83 474.72H228.22L229.89 478.85H250.14L247.83 474.72Z" fill="#4C4C4C"/>
<path d="M264.89 474.72H250.14L252.54 478.85H267.9L264.89 474.72Z" fill="#4C4C4C"/>
<path d="M284.55 476.78H269.55L270.91 478.85H286.26L284.55 476.78Z" fill="#4C4C4C"/>
<path d="M319.91 477H305L307 479.07H322.35L319.91 477Z" fill="#4C4C4C"/>
<path d="M302.62 476.78H286.99L288.66 478.85H304.38L302.62 476.78Z" fill="#4C4C4C"/>
<path d="M299.92 474.15H284.92L286.47 476.21H301.82L299.92 474.15Z" fill="#4C4C4C"/>
<path d="M114.44 474.72H99.72L96.77 478.85H112.03L114.44 474.72Z" fill="#4C4C4C"/>
<path d="M97.17 474.72H82.46L78.73 478.85H93.99L97.17 474.72Z" fill="#4C4C4C"/>
<path d="M79.5699 474.72H64.3299L59.9199 478.85H75.6299L79.5699 474.72Z" fill="#4C4C4C"/>
<path d="M105.11 470.35H69.7001L66.3301 473.43H102.44L105.11 470.35Z" fill="#4C4C4C"/>
<path d="M122.17 470.35H108.24L105.81 473.43H120.31L122.17 470.35Z" fill="#4C4C4C"/>
<path d="M139.83 470.35H125.33L123.78 473.43H138.28L139.83 470.35Z" fill="#4C4C4C"/>
<path d="M156.22 470.35H142L140.9 473.43H155.4L156.22 470.35Z" fill="#4C4C4C"/>
<path d="M173.02 470.35H158.52L158.02 473.43H172.52L173.02 470.35Z" fill="#4C4C4C"/>
<path d="M189.82 470.35H175.67L175.32 473.43H189.82V470.35Z" fill="#4C4C4C"/>
<path d="M206.56 470.35H192.33L192.63 473.43H207.13L206.56 470.35Z" fill="#4C4C4C"/>
<path d="M223.41 470.35H209.22L209.94 473.43H224.44L223.41 470.35Z" fill="#4C4C4C"/>
<path d="M240.33 470.35H226.05L227.25 473.43H241.75L240.33 470.35Z" fill="#4C4C4C"/>
<path d="M257.39 470.35H242.89L244.55 473.43H259.05L257.39 470.35Z" fill="#4C4C4C"/>
<path d="M274.03 470.35H259.53L261.86 473.43H276.36L274.03 470.35Z" fill="#4C4C4C"/>
<path d="M312.28 470.35H276.48L279.17 473.43H315.94L312.28 470.35Z" fill="#4C4C4C"/>
<path d="M99.8702 466.07H74.1502L70.9102 468.96H97.0902L99.8702 466.07Z" fill="#4C4C4C"/>
<path d="M304.45 463.07H77.6997L74.4697 465.18H307.33L304.45 463.07Z" fill="#4C4C4C"/>
<path d="M115.67 466.07H102.64L100.05 468.96H113.84L115.67 466.07Z" fill="#4C4C4C"/>
<path d="M131.8 466.07H118.21L116.43 468.96H130.22L131.8 466.07Z" fill="#4C4C4C"/>
<path d="M148.56 466.07H134.77L133.33 468.96H147.43L148.56 466.07Z" fill="#4C4C4C"/>
<path d="M164.54 466.07H151L150.01 468.96H163.8L164.54 466.07Z" fill="#4C4C4C"/>
<path d="M181.21 466.07H167.84L167.22 468.96H181.01L181.21 466.07Z" fill="#4C4C4C"/>
<path d="M197.39 466.07H183.6V468.96H197.39V466.07Z" fill="#4C4C4C"/>
<path d="M214.12 466.07H200.59L200.81 468.96H214.59L214.12 466.07Z" fill="#4C4C4C"/>
<path d="M229.79 466.07H216.47L217.28 468.96H231.06L229.79 466.07Z" fill="#4C4C4C"/>
<path d="M246.62 466.07H232.84L234.21 468.96H247.99L246.62 466.07Z" fill="#4C4C4C"/>
<path d="M262.25 466.07H249.25L250.95 468.96H264.74L262.25 466.07Z" fill="#4C4C4C"/>
<path d="M279.21 466.07H265.42L267.98 468.96H281.76L279.21 466.07Z" fill="#4C4C4C"/>
<path d="M307.33 466.07H281.76L284.63 468.96H311L307.33 466.07Z" fill="#4C4C4C"/>
<path d="M159.39 501.49C160.516 500.834 161.797 500.489 163.1 500.49H213.88C215.184 500.488 216.464 500.833 217.59 501.49C217.59 502.09 217.472 502.683 217.242 503.237C217.012 503.791 216.676 504.294 216.251 504.718C215.827 505.142 215.323 505.477 214.768 505.706C214.214 505.934 213.62 506.051 213.02 506.05H164C162.79 506.05 161.629 505.57 160.772 504.715C159.915 503.86 159.433 502.7 159.43 501.49H159.39Z" fill="#666666" stroke="black" stroke-width="0.5" stroke-linecap="round" stroke-linejoin="round"/>
<path d="M173.74 110.57C173.74 110.57 166.85 99.7099 165 93.8699C163.15 88.0299 160.82 69.4299 160.82 69.4299C160.82 69.4299 168.96 83.8399 170.82 89.9999C172.68 96.1599 173.74 110.57 173.74 110.57Z" fill="#808080" stroke="black" stroke-width="0.5" stroke-linecap="round" stroke-linejoin="round"/>
<path d="M190 113.71C190 113.71 193.76 101.4 197 96.1701C200.24 90.9401 212.83 77.0901 212.83 77.0901C212.83 77.0901 207.19 92.6501 203.74 98.0901C200.29 103.53 190 113.71 190 113.71Z" fill="#808080" stroke="black" stroke-width="0.5" stroke-linecap="round" stroke-linejoin="round"/>
<path d="M181.88 119.14C181.88 119.14 178.96 93.2399 185.64 74.8599C192.32 56.4799 208.2 35.1799 208.2 35.1799C208.2 35.1799 206.11 73.5699 201.51 87.5699C196.91 101.57 187.51 122.03 187.51 122.03L181.88 119.14Z" fill="#666666" stroke="black" stroke-width="0.5" stroke-linecap="round" stroke-linejoin="round"/>
<path d="M187.94 113.71C187.94 113.71 192.84 88.0199 199.01 79.7099C203.837 73.3821 209.31 67.5741 215.34 62.3799C215.34 62.3799 212 71.3999 208.8 77.7399C204.34 86.6699 206.8 88.3299 200.13 99.8599C196.45 106.19 187.94 113.71 187.94 113.71Z" fill="#B3B3B3" stroke="black" stroke-width="0.5" stroke-linecap="round" stroke-linejoin="round"/>
<path d="M181.67 108.69C177.946 100.27 176.015 91.1669 176 81.96C176.21 67.34 181.64 48.55 181.64 48.55C181.64 48.55 190 76.57 189.4 89.27C188.8 101.97 182.73 113.71 182.73 113.71L181.67 108.69Z" fill="#B3B3B3" stroke="black" stroke-width="0.5" stroke-linecap="round" stroke-linejoin="round"/>
<path d="M166.64 107.76V117.47C166.637 123.864 167.173 130.246 168.24 136.55L169.08 141.55C169.171 142.074 169.444 142.549 169.849 142.892C170.255 143.236 170.769 143.426 171.3 143.43H196.74C197.273 143.43 197.788 143.241 198.195 142.897C198.601 142.553 198.873 142.075 198.96 141.55L199.8 136.55C200.871 130.246 201.41 123.864 201.41 117.47V107.76C201.41 107.163 201.173 106.591 200.751 106.169C200.329 105.747 199.757 105.51 199.16 105.51H168.89C168.293 105.51 167.721 105.747 167.299 106.169C166.877 106.591 166.64 107.163 166.64 107.76Z" fill="#B3B3B3" stroke="black" stroke-width="0.5" stroke-linecap="round" stroke-linejoin="round"/>
<path d="M211.97 172.63V148.54C211.97 147.916 211.464 147.41 210.84 147.41H200.02C199.396 147.41 198.89 147.916 198.89 148.54V172.63C198.89 173.254 199.396 173.76 200.02 173.76H210.84C211.464 173.76 211.97 173.254 211.97 172.63Z" fill="#CCCCCC" stroke="black" stroke-linecap="round" stroke-linejoin="round"/>
<path d="M41.4297 172.63V148.54C41.4297 147.916 40.9238 147.41 40.2997 147.41H29.4797C28.8556 147.41 28.3497 147.916 28.3497 148.54V172.63C28.3497 173.254 28.8556 173.76 29.4797 173.76H40.2997C40.9238 173.76 41.4297 173.254 41.4297 172.63Z" fill="#CCCCCC" stroke="black" stroke-linecap="round" stroke-linejoin="round"/>
<path d="M78.9798 51.8201H55.2998C54.2174 51.8201 53.3398 52.6976 53.3398 53.7801V141.36C53.3398 142.443 54.2174 143.32 55.2998 143.32H78.9798C80.0623 143.32 80.9398 142.443 80.9398 141.36V53.7801C80.9398 52.6976 80.0623 51.8201 78.9798 51.8201Z" fill="#B3B3B3" stroke="black" stroke-width="0.5" stroke-linecap="round" stroke-linejoin="round"/>
<path d="M67.14 83.58C71.9228 83.58 75.8 79.7028 75.8 74.92C75.8 70.1372 71.9228 66.26 67.14 66.26C62.3572 66.26 58.48 70.1372 58.48 74.92C58.48 79.7028 62.3572 83.58 67.14 83.58Z" fill="white" stroke="black" stroke-width="0.5" stroke-linecap="round" stroke-linejoin="round"/>
<path d="M67.14 79.6499C69.8296 79.6499 72.01 77.4695 72.01 74.7799C72.01 72.0903 69.8296 69.9099 67.14 69.9099C64.4504 69.9099 62.27 72.0903 62.27 74.7799C62.27 77.4695 64.4504 79.6499 67.14 79.6499Z" fill="#666666" stroke="black" stroke-width="0.5" stroke-linecap="round" stroke-linejoin="round"/>
<path d="M71.2699 89.79H62.9999C62.1162 89.79 61.3999 90.5064 61.3999 91.39V133.75C61.3999 134.634 62.1162 135.35 62.9999 135.35H71.2699C72.1536 135.35 72.8699 134.634 72.8699 133.75V91.39C72.8699 90.5064 72.1536 89.79 71.2699 89.79Z" fill="white" stroke="black" stroke-width="0.5" stroke-linecap="round" stroke-linejoin="round"/>
<path d="M134.946 48.9336L111.716 53.525C110.654 53.7349 109.963 54.7659 110.173 55.8278L127.154 141.746C127.364 142.808 128.395 143.498 129.457 143.289L152.688 138.697C153.749 138.487 154.44 137.456 154.23 136.394L137.249 50.4764C137.039 49.4145 136.008 48.7238 134.946 48.9336Z" fill="#4C4C4C" stroke="black" stroke-width="0.5" stroke-linecap="round" stroke-linejoin="round"/>
<path d="M127.81 82.55C132.593 82.55 136.47 78.6728 136.47 73.89C136.47 69.1072 132.593 65.23 127.81 65.23C123.027 65.23 119.15 69.1072 119.15 73.89C119.15 78.6728 123.027 82.55 127.81 82.55Z" fill="white" stroke="black" stroke-width="0.5" stroke-linecap="round" stroke-linejoin="round"/>
<path d="M127.79 78.6199C130.48 78.6199 132.66 76.4395 132.66 73.7499C132.66 71.0603 130.48 68.8799 127.79 68.8799C125.1 68.8799 122.92 71.0603 122.92 73.7499C122.92 76.4395 125.1 78.6199 127.79 78.6199Z" fill="#4C4C4C" stroke="black" stroke-width="0.5" stroke-linecap="round" stroke-linejoin="round"/>
<path d="M134.753 87.6673L126.64 89.2708C125.773 89.4422 125.209 90.2838 125.381 91.1507L133.594 132.707C133.765 133.574 134.607 134.138 135.474 133.966L143.587 132.363C144.454 132.191 145.017 131.35 144.846 130.483L136.633 88.9267C136.462 88.0599 135.62 87.496 134.753 87.6673Z" fill="white" stroke="black" stroke-width="0.5" stroke-linecap="round" stroke-linejoin="round"/>
<path d="M109.25 51.8201H85.5699C84.4874 51.8201 83.6099 52.6976 83.6099 53.7801V141.36C83.6099 142.443 84.4874 143.32 85.5699 143.32H109.25C110.332 143.32 111.21 142.443 111.21 141.36V53.7801C111.21 52.6976 110.332 51.8201 109.25 51.8201Z" fill="#808080" stroke="black" stroke-width="0.5" stroke-linecap="round" stroke-linejoin="round"/>
<path d="M97.41 83.58C102.193 83.58 106.07 79.7028 106.07 74.92C106.07 70.1372 102.193 66.26 97.41 66.26C92.6272 66.26 88.75 70.1372 88.75 74.92C88.75 79.7028 92.6272 83.58 97.41 83.58Z" fill="white" stroke="black" stroke-width="0.5" stroke-linecap="round" stroke-linejoin="round"/>
<path d="M97.41 79.6499C100.1 79.6499 102.28 77.4695 102.28 74.7799C102.28 72.0903 100.1 69.9099 97.41 69.9099C94.7204 69.9099 92.54 72.0903 92.54 74.7799C92.54 77.4695 94.7204 79.6499 97.41 79.6499Z" fill="#808080" stroke="black" stroke-width="0.5" stroke-linecap="round" stroke-linejoin="round"/>
<path d="M101.54 89.79H93.2699C92.3863 89.79 91.6699 90.5064 91.6699 91.39V133.75C91.6699 134.634 92.3863 135.35 93.2699 135.35H101.54C102.424 135.35 103.14 134.634 103.14 133.75V91.39C103.14 90.5064 102.424 89.79 101.54 89.79Z" fill="white" stroke="black" stroke-width="0.5" stroke-linecap="round" stroke-linejoin="round"/>
<path d="M218.64 143.32H22.8701C21.2133 143.32 19.8701 144.663 19.8701 146.32V152.26C19.8701 153.917 21.2133 155.26 22.8701 155.26H218.64C220.297 155.26 221.64 153.917 221.64 152.26V146.32C221.64 144.663 220.297 143.32 218.64 143.32Z" fill="#CCCCCC" stroke="black" stroke-width="0.5" stroke-linecap="round" stroke-linejoin="round"/>
<path d="M358.42 139C369.298 139 379.932 135.774 388.977 129.731C398.021 123.687 405.071 115.098 409.234 105.048C413.397 94.9977 414.486 83.939 412.364 73.2701C410.241 62.6011 405.003 52.801 397.311 45.1092C389.619 37.4173 379.819 32.179 369.15 30.0568C358.481 27.9346 347.423 29.0238 337.373 33.1867C327.323 37.3495 318.733 44.399 312.69 53.4437C306.646 62.4884 303.42 73.1221 303.42 84C303.42 98.5869 309.215 112.576 319.53 122.891C329.844 133.205 343.834 139 358.42 139Z" fill="#CCCCCC"/>
<path d="M358.42 132.48C368.009 132.482 377.383 129.64 385.357 124.315C393.331 118.989 399.546 111.418 403.217 102.559C406.888 93.7011 407.849 83.953 405.98 74.5482C404.11 65.1433 399.494 56.5041 392.714 49.723C385.935 42.942 377.296 38.3237 367.892 36.4523C358.487 34.5809 348.739 35.5404 339.88 39.2094C331.021 42.8784 323.449 49.0922 318.121 57.065C312.794 65.0377 309.95 74.4112 309.95 84C309.953 96.8552 315.06 109.183 324.149 118.274C333.238 127.365 345.565 132.475 358.42 132.48Z" fill="white"/>
<path fill-rule="evenodd" clip-rule="evenodd" d="M331.766 59.4074C331.955 59.2063 332.272 59.1966 332.473 59.3858L358.411 83.7862L398.193 71.4724C398.456 71.3907 398.736 71.5384 398.818 71.8022C398.9 72.0659 398.752 72.346 398.488 72.4276L358.428 84.8276C358.256 84.8809 358.069 84.8375 357.938 84.7142L331.788 60.1142C331.587 59.925 331.577 59.6085 331.766 59.4074Z" fill="#808080"/>
<path d="M385.18 186.85C385.18 186.85 366.5 150.13 379.31 132.16C384.11 125.44 416.31 169.3 416.31 169.3L385.18 186.85Z" fill="white" stroke="black" stroke-width="0.5" stroke-linecap="round" stroke-linejoin="round"/>
<path d="M393.34 185.79C393.34 185.79 391.41 182.95 388.97 178.4C387.55 175.75 388.89 172.16 387.41 168.57C386.06 165.32 381.87 162.14 380.91 158.47C380.2 155.73 382.29 152.28 380.96 149.79C377.52 143.35 379.26 138.19 381.75 132.87C383.6 128.87 414.85 171.87 414.85 171.87L393.34 185.79Z" fill="#CCCCCC" stroke="black" stroke-width="0.5" stroke-linecap="round" stroke-linejoin="round"/>
<path d="M422.24 160.73L422.69 160.39C426.064 157.711 428.235 153.802 428.726 149.523C429.218 145.243 427.989 140.944 425.31 137.57C422.631 134.196 418.722 132.025 414.443 131.534C410.163 131.042 405.864 132.271 402.49 134.95L402.05 135.32L401.89 135.43C401.634 135.632 401.393 135.852 401.17 136.09L401.09 136.21C400.781 136.547 400.503 136.912 400.26 137.3C400.129 137.493 400.009 137.694 399.9 137.9L382.06 163.17L390.52 173.82L419.19 162.29L419.91 162.05C420.347 161.905 420.769 161.717 421.17 161.49H421.3C421.582 161.322 421.853 161.135 422.11 160.93L422.24 160.73Z" fill="#666666" stroke="black" stroke-width="0.5" stroke-linecap="round" stroke-linejoin="round"/>
<path d="M450.41 129.68C457.065 129.68 462.46 124.285 462.46 117.63C462.46 110.975 457.065 105.58 450.41 105.58C443.755 105.58 438.36 110.975 438.36 117.63C438.36 124.285 443.755 129.68 450.41 129.68Z" fill="#666666" stroke="black" stroke-width="0.5" stroke-linecap="round" stroke-linejoin="round"/>
<path d="M445.376 127.257L439.909 120.374C439.081 119.331 437.565 119.158 436.523 119.986C435.481 120.813 435.307 122.329 436.135 123.372L441.602 130.255C442.43 131.297 443.946 131.471 444.988 130.643C446.03 129.815 446.204 128.299 445.376 127.257Z" fill="#808080" stroke="black" stroke-width="0.5" stroke-linecap="round" stroke-linejoin="round"/>
<path d="M439.322 135.14L430.857 124.482L421.46 131.946L429.925 142.603L439.322 135.14Z" fill="#666666" stroke="black" stroke-width="0.5" stroke-linecap="round" stroke-linejoin="round"/>
<path d="M372.32 191.98L360.31 176.86L382.41 163.97L389.88 173.37L372.32 191.98Z" fill="#666666" stroke="black" stroke-width="0.5" stroke-linecap="round" stroke-linejoin="round"/>
<path d="M443.369 132.484L434.356 121.138C433.529 120.096 432.013 119.922 430.97 120.75C429.928 121.578 429.754 123.094 430.582 124.136L439.594 135.482C440.422 136.525 441.938 136.698 442.98 135.87C444.023 135.043 444.197 133.527 443.369 132.484Z" fill="#808080" stroke="black" stroke-width="0.5" stroke-linecap="round" stroke-linejoin="round"/>
<path d="M432.081 141.447L423.068 130.1C422.24 129.058 420.724 128.884 419.682 129.712C418.64 130.54 418.466 132.056 419.294 133.098L428.306 144.444C429.134 145.487 430.65 145.66 431.692 144.833C432.735 144.005 432.908 142.489 432.081 141.447Z" fill="#808080" stroke="black" stroke-width="0.5" stroke-linecap="round" stroke-linejoin="round"/>
<path d="M358.49 195.57L353.71 189.57C352.113 187.556 351.379 184.991 351.672 182.437C351.964 179.884 353.259 177.55 355.27 175.95L357.27 174.34C361.46 171.01 366.75 172.24 370.89 175.9C372.746 177.679 374.356 179.697 375.68 181.9C378.3 186.9 378.31 192.19 374.11 195.52L372.11 197.13C370.096 198.725 367.531 199.457 364.978 199.164C362.425 198.872 360.092 197.579 358.49 195.57Z" fill="#B3B3B3" stroke="black" stroke-width="0.5" stroke-linecap="round" stroke-linejoin="round"/>
<path d="M391.678 171.722L384.438 162.608C383.61 161.566 382.094 161.392 381.052 162.22C380.01 163.047 379.836 164.563 380.664 165.606L387.903 174.72C388.731 175.763 390.247 175.936 391.289 175.109C392.332 174.281 392.505 172.765 391.678 171.722Z" fill="#808080" stroke="black" stroke-width="0.5" stroke-linecap="round" stroke-linejoin="round"/>
<path d="M350.06 251.81C351.37 238.81 356.57 227.81 365.06 220.24C372.27 213.79 375.42 203.44 373.86 191.47C372.78 183.29 365.44 175.07 357.42 173.12C345.69 170.26 335.06 172.27 327.87 178.71C319.37 186.32 307.92 190.29 294.87 190.17C291.478 190.03 288.159 191.181 285.58 193.39L281.01 197.57L306.28 226.19L310.81 231.25L341.55 264.61L345.84 260.68C348.316 258.362 349.824 255.193 350.06 251.81Z" fill="#808080" stroke="black" stroke-width="0.5" stroke-linecap="round" stroke-linejoin="round"/>
<path d="M287.97 191.7C293.86 188.35 309.87 199.09 326.33 217.45C342.79 235.81 351.64 252.81 347.83 258.37" stroke="black" stroke-width="0.5" stroke-linecap="round" stroke-linejoin="round"/>
<path d="M319.85 223.39C303.19 204.81 285.85 193.14 281.22 197.33C276.59 201.52 286.22 219.98 302.92 238.57C319.62 257.16 336.87 268.81 341.55 264.62C346.23 260.43 336.51 241.97 319.85 223.39Z" fill="#333333" stroke="black" stroke-width="0.5" stroke-linecap="round" stroke-linejoin="round"/>
<path d="M485.13 366.88C502.19 392.78 498.99 421.56 474.13 436.44C445.59 453.56 450.81 471.68 450.81 471.68C455.51 477.92 416.33 496.33 416.33 496.33C408.45 501.02 393.12 494.49 395.22 488.45C396.89 483.66 411.87 483.97 413.88 485.14L429.54 469.31C429.54 469.31 423.59 447.12 436.07 412.44C441 398.74 452.15 379.44 452.15 379.44C452.15 379.44 476.82 354.25 485.13 366.88Z" fill="#666666" stroke="black" stroke-width="0.5" stroke-linecap="round" stroke-linejoin="round"/>
<path d="M501.39 403.67C501.39 403.67 503.08 412.54 519.85 433.67C536.16 454.19 546.78 445.67 544.47 430.01C556.59 450.17 534.2 464.84 513.06 443.39C488.15 418.11 491.52 411.71 491.52 411.71L501.39 403.67Z" fill="#4C4C4C" stroke="black" stroke-width="0.5" stroke-linecap="round" stroke-linejoin="round"/>
<path d="M499.08 376.32C490.77 363.69 480.8 347.37 463.62 318.45C448.41 292.86 437.48 255.54 441.97 233.14L442.79 229.05C446.97 206.23 447.26 190.36 436.45 172.96C423.85 152.65 396.25 106.96 396.25 106.96C381.34 110.88 376.86 121.79 380.34 139.71C381 143.11 383.53 145.45 384.74 149.35C385.69 152.4 384.74 155.14 385.97 158.5C387.06 161.39 392.03 165.01 393.34 168.13C394.53 170.94 392.55 175.03 393.91 178.03C395.57 183.09 389.04 181.68 388.11 175.26L382.49 181.26C384.93 186.16 390.08 196.35 394.54 204.49C397.04 219.64 396.89 231.58 391.97 246.09C391.97 246.09 355.55 289.31 385.8 334.44C398.8 353.82 447.85 404.18 447.85 404.18C444.408 410.152 441.737 416.536 439.9 423.18C429.84 459.1 440.78 488.3 440.78 488.3L420.18 506.3C418.18 505.12 403.18 504.82 401.53 509.61C399.42 515.61 414.75 522.18 422.63 517.49C422.63 517.49 461.82 499.08 457.11 492.84C457.11 492.84 451.89 474.72 480.44 457.6C505.22 442.7 516.13 402.22 499.08 376.32Z" fill="white" stroke="black" stroke-width="0.5" stroke-linecap="round" stroke-linejoin="round"/>
<path d="M419.96 179.08C420.913 179.351 421.925 179.334 422.867 179.029C423.81 178.724 424.641 178.147 425.254 177.369C425.868 176.591 426.237 175.649 426.314 174.661C426.392 173.674 426.174 172.686 425.689 171.822C425.203 170.958 424.472 170.258 423.589 169.811C422.705 169.363 421.708 169.188 420.725 169.308C419.742 169.428 418.816 169.837 418.066 170.484C417.315 171.13 416.774 171.985 416.51 172.94C416.159 174.212 416.324 175.57 416.971 176.721C417.617 177.871 418.691 178.719 419.96 179.08Z" fill="black" stroke="black" stroke-width="0.5" stroke-linecap="round" stroke-linejoin="round"/>
<path d="M424.34 304.66C429.34 320.28 440.34 319.22 447.23 336.08C450.57 344.2 436.46 374.91 467.33 395.08C478.62 402.44 495.89 390.91 488.4 374.55C496.3 380.93 499.06 376.37 499.06 376.37C499.06 376.37 498.58 373.5 488.77 358.6C476.12 339.41 461.42 315.73 455.01 303.11C443.34 279.95 419.53 289.65 424.34 304.66Z" fill="#999999" stroke="black" stroke-width="0.5" stroke-linecap="round" stroke-linejoin="round"/>
<path d="M396.25 106.94L402.6 117.51C402.6 117.51 397.45 122.44 392.6 120.51C387.75 118.58 384.03 113.92 384.03 113.92C385.349 112.416 386.882 111.116 388.58 110.06C391.023 108.759 393.593 107.714 396.25 106.94Z" fill="black" stroke="black" stroke-width="0.5" stroke-linecap="round" stroke-linejoin="round"/>
<path d="M444.9 251.91L445.61 247.65C445.653 247.407 445.648 247.159 445.594 246.919C445.54 246.678 445.439 246.451 445.297 246.25C445.154 246.049 444.974 245.879 444.765 245.748C444.556 245.618 444.323 245.53 444.08 245.49L391.5 236.62C391.01 236.539 390.507 236.655 390.102 236.944C389.698 237.233 389.424 237.67 389.34 238.16L388.62 242.41C388.539 242.9 388.656 243.403 388.944 243.808C389.233 244.213 389.67 244.487 390.16 244.57L442.74 253.44C443.229 253.521 443.731 253.406 444.135 253.119C444.54 252.833 444.815 252.398 444.9 251.91Z" fill="#808080" stroke="black" stroke-width="0.5" stroke-linecap="round" stroke-linejoin="round"/>
<path d="M442.9 186.21L547.78 266.21C548.543 266.795 549.156 267.553 549.57 268.42C549.973 269.29 550.168 270.242 550.14 271.2C549.87 279.46 518.44 298.5 485.5 283.5C444.78 264.96 428.07 209.96 428.84 191.59C429.24 181.36 439.82 183.86 442.9 186.21Z" fill="#4C4C4C" stroke="black" stroke-width="0.5" stroke-linecap="round" stroke-linejoin="round"/>
<path d="M373.82 284.92C373.82 284.92 380.15 285.27 384.14 283.55" stroke="black" stroke-width="0.5" stroke-linecap="round" stroke-linejoin="round"/>
<path d="M293.08 218.5C293.907 219.686 294.959 220.697 296.176 221.476C297.393 222.254 298.752 222.786 300.175 223.039C301.598 223.293 303.056 223.264 304.468 222.953C305.879 222.643 307.215 222.057 308.4 221.23C310.247 219.881 311.982 218.386 313.59 216.76C308.484 211.525 302.93 206.747 296.99 202.48C296.584 202.691 296.19 202.925 295.81 203.18C294.625 204.006 293.614 205.058 292.835 206.275C292.056 207.493 291.525 208.852 291.271 210.274C291.018 211.697 291.047 213.156 291.357 214.567C291.668 215.979 292.253 217.315 293.08 218.5Z" fill="white" stroke="black" stroke-width="0.5" stroke-linecap="round" stroke-linejoin="round"/>
<path d="M297.34 183.41C297.34 183.41 287.754 180.238 280.498 183.41C273.242 186.582 272.34 194 272.34 194" stroke="black" stroke-width="0.5" stroke-linecap="round" stroke-linejoin="round"/>
<path d="M372.34 220C372.34 220 377.331 215.803 378.124 209.555C378.621 205.977 378.258 202.276 377.088 199" stroke="black" stroke-width="0.5" stroke-linecap="round" stroke-linejoin="round"/>
<path d="M299.634 178.22C299.634 178.22 282.76 171.325 268.999 183.007C260.4 190.307 260.064 202.745 260.064 202.745" stroke="#666666" stroke-width="0.5" stroke-linecap="round" stroke-linejoin="round"/>
<path d="M403.95 251.57C403.95 251.57 394.8 254.67 384.77 263.51C376.39 270.9 373.82 284.89 373.82 284.89C373.82 284.89 315.62 283.68 310.01 280.76C304.4 277.84 296.37 273.13 294.66 283.86C292.95 294.59 324.34 300.96 324.34 300.96C324.34 300.96 342.43 301.83 357.9 304.29C373.37 306.75 387.41 309.16 400.83 303.54L415.72 297.3" fill="white"/>
<path d="M403.95 251.57C403.95 251.57 394.8 254.67 384.77 263.51C376.39 270.9 373.82 284.89 373.82 284.89C373.82 284.89 315.62 283.68 310.01 280.76C304.4 277.84 296.37 273.13 294.66 283.86C292.95 294.59 324.34 300.96 324.34 300.96C324.34 300.96 342.43 301.83 357.9 304.29C373.37 306.75 387.41 309.16 400.83 303.54L415.72 297.3" stroke="black" stroke-width="0.5" stroke-linecap="round" stroke-linejoin="round"/>
<path d="M544.4 429.8C544.3 429.8 544.2 430 544.2 430.1C545.3 437.5 543.4 443.3 539.5 445.1C534.6 447.2 527.5 443 520 433.6C513.8 425.7 509.6 419.6 506.9 414.9C508.9 400.7 506.3 386.9 499.3 376.3V376.2C499 375.3 497.5 371.4 489 358.5C482.6 348.8 475.4 337.5 469.1 327.1C468.402 325.936 467.704 324.739 466.986 323.508L466.984 323.505L466.981 323.499C466.466 322.617 465.942 321.717 465.4 320.8C467 319.4 468.3 317.9 469.2 316.7C469.8 315.9 470.2 315 470.4 314C470.6 313 470.5 312 470.2 311.1L453.7 257.6C462 268.4 472.5 277.9 485.4 283.8C494.2 287.8 502.9 289.4 511 289.4C523.3 289.4 534.2 285.7 541.5 281.2C546.9 277.9 550.3 274.1 550.3 271.3C550.3 270.3 550.1 269.3 549.7 268.4C549.3 267.5 548.6 266.7 547.8 266.1L442.9 186.1C442.869 186.1 442.848 186.091 442.831 186.078C442.819 186.069 442.81 186.06 442.8 186.05C442.775 186.025 442.75 186 442.7 186C441.3 181.7 439.2 177.4 436.5 172.9C433.7 168.4 430.2 162.7 426.4 156.5C427.7 154.4 428.5 152.1 428.8 149.6C429 148.1 428.9 146.7 428.7 145.3C429.1 145.5 429.5 145.7 430 145.7C430.6 145.7 431.2 145.5 431.7 145.1C432.3 144.7 432.6 144 432.7 143.3C432.8 142.6 432.6 141.9 432.1 141.3L432 141.2L439.1 135.5L439.2 135.6C439.6 136.2 440.3 136.5 441 136.6H441.3C441.9 136.6 442.5 136.4 442.9 136C444 135.1 444.2 133.4 443.3 132.3L442.5 131.3C442.525 131.3 442.556 131.306 442.59 131.316C442.61 131.321 442.631 131.327 442.652 131.334C442.668 131.339 442.684 131.345 442.7 131.35C442.775 131.375 442.85 131.4 442.9 131.4H443.2C443.8 131.4 444.4 131.2 444.8 130.8C445.3 130.4 445.7 129.8 445.8 129.1C447.1 129.6 448.6 129.9 450.1 129.9C456.9 129.9 462.4 124.4 462.4 117.6C462.4 110.8 456.9 105.3 450.1 105.3C443.3 105.3 437.8 110.8 437.8 117.6C437.8 118.1 437.8 118.7 437.9 119.2C437.2 119.1 436.6 119.3 436 119.8C435.4 120.2 435.1 120.9 435 121.6V122L434.2 121C433.3 119.9 431.6 119.7 430.5 120.6C429.4 121.5 429.2 123.2 430.1 124.3L430.2 124.5L423.1 130.2L423 130C422.1 128.9 420.4 128.7 419.3 129.6C418.4 130.3 418.1 131.4 418.4 132.4C417.1 131.9 415.7 131.5 414.2 131.4C413.1 131.3 412 131.3 411 131.3C407.7 125.9 404.7 120.9 402.3 116.9C405 113.3 407.3 109.3 409 105.1C413.2 95 414.3 84 412.1 73.3C410 62.6 404.7 52.8 397 45.1C389.3 37.4 379.5 32.2 368.8 30C358.1 27.9 347.1 29 337 33.1C327 37.3 318.4 44.3 312.3 53.4C306.3 62.4 303 73.1 303 84C303 98.6 308.8 112.6 319.1 122.9C329.4 133.2 343.4 139 358 139C364.4 139 370.6 137.9 376.6 135.8C372.7 144.7 374.2 156.6 376.9 166.7L366.1 173C363.3 171.9 360.5 172 358.1 173.3C357.9 173.25 357.725 173.2 357.55 173.15C357.375 173.1 357.2 173.05 357 173C345.1 170.1 334.5 172.1 327.2 178.6C318.9 186.1 307.7 190 295 190H294.4C292.2 189.9 290.1 190.3 288.2 191.2C288.141 191.22 288.086 191.239 288.033 191.259C287.952 191.289 287.876 191.32 287.8 191.35C287.675 191.4 287.55 191.45 287.4 191.5L287.3 191.6C286.5 192.1 285.7 192.6 284.9 193.2L280.8 197C280.762 197.038 280.724 197.062 280.691 197.082C280.638 197.115 280.6 197.138 280.6 197.2C275.8 201.5 285.6 220.2 302.3 238.8C316.9 255 331.6 265.8 338.5 265.8C339.7 265.8 340.6 265.5 341.3 264.9L341.4 264.8L345.6 260.9C346.3 260.2 347 259.4 347.5 258.6C347.5 258.6 347.6 258.6 347.6 258.5C347.7 258.4 347.8 258.2 347.9 258C349 256.1 349.7 254 349.9 251.8C351.2 238.8 356.4 227.9 364.8 220.4C371.3 214.6 374.5 205.9 374 195.5C376.6 193.3 377.7 190.2 377.1 186.7L381.9 181.6C381.993 181.787 382.087 181.984 382.186 182.193C382.406 182.656 382.656 183.18 383 183.8C383.306 184.445 383.565 185.01 383.779 185.474L383.78 185.477C384.194 186.378 384.434 186.9 384.5 186.9C384.5 187 384.6 187 384.7 187L385.122 187.828C387.575 192.638 390.782 198.926 393.9 204.5C396 217.1 396 226.8 393.9 236.8L391.2 236.3C390.6 236.2 390.1 236.3 389.6 236.7C389.1 237 388.8 237.5 388.7 238.1L388 242.4C387.9 243 388 243.5 388.4 244C388.7 244.5 389.2 244.8 389.8 244.9L391.7 245.2C391.6 245.5 391.5 245.8 391.4 246C390.8 246.7 382.1 257.5 377 273.3C376.957 273.47 376.897 273.64 376.834 273.817C376.748 274.057 376.657 274.312 376.6 274.6C374.5 279.4 373.5 283.7 373.3 284.7L372.414 284.678H372.413L372.41 284.678C364.376 284.481 314.845 283.265 309.8 280.6L309.1 280.2L308.973 280.135C305.295 278.246 300.763 275.918 297.6 277.5C295.8 278.4 294.6 280.5 294.1 283.9C292.456 294.341 320.721 300.576 323.776 301.25L323.935 301.285L324 301.3C324.2 301.3 342.3 302.2 357.5 304.6L358.5 304.8L358.508 304.801L358.509 304.801C359.806 305.001 361.103 305.2 362.3 305.4C346.6 309.7 328.6 314.4 325.3 313.8L324.5 313.7L324.312 313.668C320.248 312.973 315.36 312.138 312.8 314.6C312.2 315.2 311.7 316 311.5 316.9V305.9C311.5 304.5 311.2 303.2 310.7 301.9C310.2 300.6 309.4 299.5 308.4 298.5C307.4 297.5 306.3 296.8 305 296.2C303.7 295.7 302.4 295.4 301 295.4H240V229.7C240 226.5 238.8 223.5 236.5 221.2C235.6 220.3 234.7 219.6 233.6 219.1C233 218.1 232.3 217.1 231.5 216.2C229.2 213.9 226.2 212.7 223 212.7H26.9999C23.7999 212.7 20.7999 213.9 18.4999 216.2C16.1999 218.5 14.9999 221.5 14.9999 224.7V331.7C14.9999 334.9 16.1999 337.9 18.4999 340.2C19.3999 341.1 20.2999 341.8 21.3999 342.3C21.9999 343.3 22.6999 344.3 23.4999 345.2C25.7999 347.5 28.7999 348.7 31.9999 348.7H61.7999V461.7L12.8999 501.6V506.1C12.8999 507.7 13.4999 509.2 14.6999 510.3C15.7999 511.4 17.2999 512.1 18.8999 512.1H357.4C359 512.1 360.5 511.5 361.6 510.3C362.7 509.2 363.4 507.7 363.4 506.1V501.6L312.3 461.4C312.3 461.4 312.2 461.3 312.1 461.3H312V322.1C313.5 328.3 325.1 329.6 334.3 329.6C340.2 329.6 345.1 329.1 345.7 329C345.73 329 346.162 328.891 346.927 328.698C351.181 327.624 365.731 323.95 378.7 322H379C380.7 326.2 383 330.4 385.8 334.6C396 349.8 428.7 384.4 442.1 398.4C439.8 403.1 437.6 408 436 412.4C424.352 444.602 428.8 466.361 429.369 469.146C429.381 469.206 429.391 469.258 429.4 469.3L414 484.9C412 484 403.5 483.8 398.7 485.6C396.8 486.3 395.6 487.3 395.2 488.5C394.6 490.4 395.4 492.4 397.7 494.2C400.7 496.6 405.5 498.3 410 498.3C412.5 498.3 414.8 497.8 416.7 496.7C416.772 496.664 416.935 496.585 417.181 496.466C419.682 495.259 430.669 489.954 439.5 484.4C439.805 485.467 440.084 486.352 440.297 487.032C440.505 487.69 440.651 488.154 440.7 488.4L420.1 506C418.1 505.1 409.6 504.9 404.8 506.6C402.9 507.3 401.7 508.3 401.2 509.5C400.5 511.4 401.4 513.4 403.6 515.2C406.6 517.6 411.4 519.3 415.9 519.3C418.3 519.3 420.7 518.8 422.6 517.7C424 517.1 455.7 502.1 457.5 494.7C457.7 494 457.6 493.3 457.2 492.7L457.19 492.653C456.901 491.244 453.357 473.986 480.4 457.8C489.5 452.3 497.2 443 502 431.8C504.8 435.2 508.3 439.1 512.8 443.5C520.3 451.1 527.9 454.1 534 454.1C537.7 454.1 540.9 453 543.2 451.2C549.1 446.6 549.6 438.2 544.6 429.8C544.6 429.8 544.5 429.7 544.4 429.8Z" fill="url(#paint0_linear_1463_34930)" style="mix-blend-mode:overlay"/>
<path fill-rule="evenodd" clip-rule="evenodd" d="M22.9 155.5H27.9V172.6C27.9 173.5 28.6 174.2 29.5 174.2H40.3C41.2 174.2 41.9 173.5 41.9 172.6V155.5H198.4V172.6C198.4 173.5 199.1 174.2 200 174.2H210.8C211.7 174.2 212.4 173.5 212.4 172.6V155.5H218.6C220.4 155.5 221.8 154 221.8 152.3V146.4C221.8 144.6 220.3 143.2 218.6 143.2H198.3C198.7 142.8 199 142.3 199.1 141.7L199.9 136.7C201 130.4 201.5 124 201.5 117.6V107.9C201.5 107.2 201.2 106.6 200.8 106.1C200.3 105.6 199.7 105.4 199 105.4H198.2C200.4 102.9 202.6 100.3 203.8 98.3999C207.2 93 212.9 77.5 212.9 77.3999C212.9 77.2999 212.9 77.2 212.8 77.0999C212.733 77.0333 212.667 77.0555 212.6 77.0777C212.567 77.0888 212.533 77.0999 212.5 77.0999C212.4 77.2 209.7 80.2 206.5 83.8999C207 82.2 207.7 80.3999 208.9 78.0999C211.387 73.2046 213.933 66.679 214.993 63.9656C215.296 63.1874 215.478 62.7222 215.5 62.7C215.5 62.6 215.5 62.5 215.4 62.4C215.3 62.3 215.2 62.3 215.1 62.4C211.5 65.5 208.1 68.8999 204.8 72.3999C207.2 56 208.3 35.7 208.3 35.4C208.3 35.3 208.2 35.2 208.1 35.2C208 35.2 207.9 35.2 207.8 35.2999C207.791 35.3172 207.685 35.4654 207.492 35.7329C205.45 38.5653 193.77 54.7666 187.1 70.3C185.29 61.6415 182.984 53.3548 182.084 50.1217L182.083 50.1193C181.84 49.2464 181.7 48.7425 181.7 48.7C181.7 48.6 181.6 48.5 181.5 48.5C181.4 48.5 181.3 48.6 181.3 48.7C181.2 48.9 175.9 67.7 175.7 82.2C175.7 90.2 177.1 98 180 105.5H173.5C173 100.7 172.2 93.8999 171 90.2C169.2 84.0999 161.1 69.7 161 69.5999C160.9 69.4999 160.8 69.3999 160.7 69.5C160.6 69.5 160.5 69.6 160.5 69.8C160.5 70 162.9 88.5 164.7 94.3C165.7 97.4 168.1 102 170.2 105.6H168.8C168.1 105.6 167.5 105.9 167 106.3C166.5 106.8 166.3 107.4 166.3 108.1V117.8C166.3 124.2 166.8 130.6 167.9 136.9L168.7 141.9C168.8 142.5 169.1 143 169.5 143.4H131.7L152.6 139.3C153.8 139.1 154.6 137.9 154.3 136.7L137.3 50.7999C137.1 49.5999 135.9 48.7999 134.7 49.0999L111.5 53.7C111.4 53.7 111.3 53.7 111.2 53.7999C111 52.7999 110.1 52 109 52H85.6C84.4 52 83.4 53 83.4 54.2V141.8C83.4 142.5 83.7 143.1 84.2 143.5H80.4C80.9 143.1 81.2 142.5 81.2 141.8V53.7999C81.2 52.5999 80.2 51.5999 79 51.5999H55.3C54.1 51.5999 53.1 52.5999 53.1 53.7999V141.4C53.1 142.1 53.4 142.7 53.9 143.1H22.9C21.1 143.1 19.7 144.6 19.7 146.3V152.2C19.6 154.1 21.1 155.5 22.9 155.5ZM111.5 141.4V63.5999L126.9 141.8C127 142.3 127.3 142.8 127.7 143.1H110.7C111.1 142.7 111.5 142.1 111.5 141.4Z" fill="url(#paint1_linear_1463_34930)" style="mix-blend-mode:overlay"/>
<path d="M272.1 194C272.1 193.9 273.1 186.4 280.4 183.2C287.7 180 297.3 183.1 297.3 183.2C297.5 183.2 297.5 183.4 297.5 183.5C297.5 183.7 297.3 183.7 297.2 183.7C297.193 183.7 297.141 183.685 297.049 183.659L297.047 183.658C295.792 183.299 287.107 180.815 280.5 183.7C273.5 186.8 272.5 194 272.5 194.1C272.5 194.2 272.4 194.3 272.3 194.3C272.2 194.3 272.1 194.1 272.1 194Z" fill="url(#paint2_linear_1463_34930)" style="mix-blend-mode:overlay"/>
<path d="M372.2 219.8C372.1 219.9 372.1 220 372.2 220.2C372.2 220.3 372.3 220.3 372.4 220.3C372.5 220.3 372.5 220.3 372.6 220.2C372.7 220.2 377.7 215.9 378.5 209.6C379 206 378.6 202.2 377.5 198.9C377.5 198.8 377.3 198.7 377.2 198.7C377.1 198.7 377 198.9 377 199C378.1 202.2 378.5 205.9 378 209.4C377.1 215.6 372.2 219.8 372.2 219.8Z" fill="url(#paint3_linear_1463_34930)" style="mix-blend-mode:overlay"/>
<path d="M260.4 202.8C260.4 202.9 260.2 203 260.1 203C259.9 203 259.8 202.9 259.9 202.8C259.9 202.7 260.3 190.2 268.9 182.9C282.6 171.3 299.6 178 299.8 178.1C299.9 178.1 300 178.3 299.9 178.4C299.9 178.5 299.7 178.6 299.6 178.5C299.4 178.4 282.7 171.8 269.2 183.2C260.8 190.4 260.4 202.7 260.4 202.8Z" fill="url(#paint4_linear_1463_34930)" style="mix-blend-mode:overlay"/>
<defs>
<linearGradient id="paint0_linear_1463_34930" x1="12.8999" y1="28.9592" x2="550.3" y2="28.9592" gradientUnits="userSpaceOnUse">
<stop stop-color="#F38478"/>
<stop offset="1" stop-color="#5D6AE8"/>
</linearGradient>
<linearGradient id="paint1_linear_1463_34930" x1="12.8999" y1="28.9592" x2="550.3" y2="28.9592" gradientUnits="userSpaceOnUse">
<stop stop-color="#F38478"/>
<stop offset="1" stop-color="#5D6AE8"/>
</linearGradient>
<linearGradient id="paint2_linear_1463_34930" x1="12.8999" y1="28.9592" x2="550.3" y2="28.9592" gradientUnits="userSpaceOnUse">
<stop stop-color="#F38478"/>
<stop offset="1" stop-color="#5D6AE8"/>
</linearGradient>
<linearGradient id="paint3_linear_1463_34930" x1="12.8999" y1="28.9592" x2="550.3" y2="28.9592" gradientUnits="userSpaceOnUse">
<stop stop-color="#F38478"/>
<stop offset="1" stop-color="#5D6AE8"/>
</linearGradient>
<linearGradient id="paint4_linear_1463_34930" x1="12.8999" y1="28.9592" x2="550.3" y2="28.9592" gradientUnits="userSpaceOnUse">
<stop stop-color="#F38478"/>
<stop offset="1" stop-color="#5D6AE8"/>
</linearGradient>
</defs>
</svg>
