<svg width="560" height="560" viewBox="0 0 560 560" fill="none" xmlns="http://www.w3.org/2000/svg">
<path d="M305.931 213.103H302.075C301.366 213.103 300.79 213.679 300.79 214.389V271.06C300.79 271.77 301.366 272.346 302.075 272.346H305.931C306.641 272.346 307.217 271.77 307.217 271.06V214.389C307.217 213.679 306.641 213.103 305.931 213.103Z" fill="black"/>
<path d="M92.408 200.314H88.0187C87.4561 200.314 87 200.77 87 201.333V236.477C87 237.04 87.4561 237.496 88.0187 237.496H92.408C92.9705 237.496 93.4266 237.04 93.4266 236.477V201.333C93.4266 200.77 92.9705 200.314 92.408 200.314Z" fill="black"/>
<path d="M92.408 247.441H88.0187C87.4561 247.441 87 247.898 87 248.46V283.605C87 284.167 87.4561 284.623 88.0187 284.623H92.408C92.9705 284.623 93.4266 284.167 93.4266 283.605V248.46C93.4266 247.898 92.9705 247.441 92.408 247.441Z" fill="black"/>
<path d="M271.036 94.9999H123.181C104.358 94.9999 89.0996 110.259 89.0996 129.081V504.71C89.0996 523.533 104.358 538.791 123.181 538.791H271.036C289.858 538.791 305.117 523.533 305.117 504.71V129.081C305.117 110.259 289.858 94.9999 271.036 94.9999Z" fill="#808080" stroke="black" stroke-width="0.5" stroke-miterlimit="10" stroke-linecap="round" stroke-linejoin="round"/>
<path d="M270.17 98.0503H124.045C105.998 98.0503 91.3682 112.68 91.3682 130.727V502.806C91.3682 520.853 105.998 535.483 124.045 535.483H270.17C288.217 535.483 302.847 520.853 302.847 502.806V130.727C302.847 112.68 288.217 98.0503 270.17 98.0503Z" fill="black"/>
<path d="M271.165 106.055H123.15C110.088 106.055 99.499 116.644 99.499 129.707V504.324C99.499 517.386 110.088 527.975 123.15 527.975H271.165C284.227 527.975 294.816 517.386 294.816 504.324V129.707C294.816 116.644 284.227 106.055 271.165 106.055Z" fill="#999999" stroke="black" stroke-width="0.5" stroke-miterlimit="10" stroke-linecap="round" stroke-linejoin="round"/>
<path d="M230.319 125.538H163.257C160.253 125.538 157.371 124.345 155.247 122.22C153.123 120.096 151.929 117.215 151.929 114.21V109.766C151.929 108.856 151.567 107.984 150.923 107.341C150.28 106.698 149.408 106.337 148.498 106.337H138.964V100.196H255.249V106.337H245.077C244.167 106.337 243.295 106.698 242.651 107.341C242.008 107.984 241.646 108.856 241.646 109.766V114.21C241.646 117.214 240.452 120.095 238.328 122.22C236.204 124.344 233.323 125.538 230.319 125.538Z" fill="black"/>
<path d="M164.076 116.68C165.672 116.68 166.965 115.386 166.965 113.791C166.965 112.196 165.672 110.902 164.076 110.902C162.481 110.902 161.188 112.196 161.188 113.791C161.188 115.386 162.481 116.68 164.076 116.68Z" fill="#808080"/>
<path d="M135.546 272.124C148.805 272.124 159.554 261.375 159.554 248.115C159.554 234.856 148.805 224.107 135.546 224.107C122.286 224.107 111.537 234.856 111.537 248.115C111.537 261.375 122.286 272.124 135.546 272.124Z" fill="white" stroke="#808080" stroke-width="0.5" stroke-miterlimit="10" stroke-linecap="round" stroke-linejoin="round"/>
<path d="M198.36 272.124C211.62 272.124 222.369 261.375 222.369 248.115C222.369 234.856 211.62 224.107 198.36 224.107C185.101 224.107 174.352 234.856 174.352 248.115C174.352 261.375 185.101 272.124 198.36 272.124Z" fill="white" stroke="#808080" stroke-width="0.5" stroke-miterlimit="10" stroke-linecap="round" stroke-linejoin="round"/>
<path d="M260.682 272.124C273.942 272.124 284.691 261.375 284.691 248.115C284.691 234.856 273.942 224.107 260.682 224.107C247.423 224.107 236.674 234.856 236.674 248.115C236.674 261.375 247.423 272.124 260.682 272.124Z" fill="white" stroke="#808080" stroke-width="0.5" stroke-miterlimit="10" stroke-linecap="round" stroke-linejoin="round"/>
<path d="M135.546 328.465C148.805 328.465 159.554 317.716 159.554 304.456C159.554 291.197 148.805 280.448 135.546 280.448C122.286 280.448 111.537 291.197 111.537 304.456C111.537 317.716 122.286 328.465 135.546 328.465Z" fill="#CCCCCC" stroke="#808080" stroke-width="0.5" stroke-miterlimit="10" stroke-linecap="round" stroke-linejoin="round"/>
<path d="M198.36 328.465C211.62 328.465 222.369 317.716 222.369 304.456C222.369 291.197 211.62 280.448 198.36 280.448C185.101 280.448 174.352 291.197 174.352 304.456C174.352 317.716 185.101 328.465 198.36 328.465Z" fill="#CCCCCC" stroke="#808080" stroke-width="0.5" stroke-miterlimit="10" stroke-linecap="round" stroke-linejoin="round"/>
<path d="M260.682 328.465C273.942 328.465 284.691 317.716 284.691 304.456C284.691 291.197 273.942 280.448 260.682 280.448C247.423 280.448 236.674 291.197 236.674 304.456C236.674 317.716 247.423 328.465 260.682 328.465Z" fill="#CCCCCC" stroke="#808080" stroke-width="0.5" stroke-miterlimit="10" stroke-linecap="round" stroke-linejoin="round"/>
<path d="M135.546 385.749C148.805 385.749 159.554 374.999 159.554 361.74C159.554 348.48 148.805 337.731 135.546 337.731C122.286 337.731 111.537 348.48 111.537 361.74C111.537 374.999 122.286 385.749 135.546 385.749Z" fill="#CCCCCC" stroke="#808080" stroke-width="0.5" stroke-miterlimit="10" stroke-linecap="round" stroke-linejoin="round"/>
<path d="M198.36 385.749C211.62 385.749 222.369 374.999 222.369 361.74C222.369 348.48 211.62 337.731 198.36 337.731C185.101 337.731 174.352 348.48 174.352 361.74C174.352 374.999 185.101 385.749 198.36 385.749Z" fill="#CCCCCC" stroke="#808080" stroke-width="0.5" stroke-miterlimit="10" stroke-linecap="round" stroke-linejoin="round"/>
<path d="M260.682 385.749C273.942 385.749 284.691 374.999 284.691 361.74C284.691 348.48 273.942 337.731 260.682 337.731C247.423 337.731 236.674 348.48 236.674 361.74C236.674 374.999 247.423 385.749 260.682 385.749Z" fill="#CCCCCC" stroke="#808080" stroke-width="0.5" stroke-miterlimit="10" stroke-linecap="round" stroke-linejoin="round"/>
<path d="M135.546 443.03C148.805 443.03 159.554 432.28 159.554 419.021C159.554 405.761 148.805 395.012 135.546 395.012C122.286 395.012 111.537 405.761 111.537 419.021C111.537 432.28 122.286 443.03 135.546 443.03Z" fill="#CCCCCC" stroke="#808080" stroke-width="0.5" stroke-miterlimit="10" stroke-linecap="round" stroke-linejoin="round"/>
<path d="M198.36 443.03C211.62 443.03 222.369 432.28 222.369 419.021C222.369 405.761 211.62 395.012 198.36 395.012C185.101 395.012 174.352 405.761 174.352 419.021C174.352 432.28 185.101 443.03 198.36 443.03Z" fill="#CCCCCC" stroke="#808080" stroke-width="0.5" stroke-miterlimit="10" stroke-linecap="round" stroke-linejoin="round"/>
<path d="M260.682 443.03C273.942 443.03 284.691 432.28 284.691 419.021C284.691 405.761 273.942 395.012 260.682 395.012C247.423 395.012 236.674 405.761 236.674 419.021C236.674 432.28 247.423 443.03 260.682 443.03Z" fill="#CCCCCC" stroke="#808080" stroke-width="0.5" stroke-miterlimit="10" stroke-linecap="round" stroke-linejoin="round"/>
<path d="M135.196 254.38V238.951H135.042C134.883 239.047 134.133 239.563 132.793 240.498C131.452 241.433 130.706 241.952 130.555 242.055V240.323C130.602 240.293 130.984 240.027 131.701 239.525C132.418 239.024 133.129 238.533 133.835 238.051C134.539 237.569 134.994 237.265 135.2 237.138H136.823V254.382L135.196 254.38Z" fill="black"/>
<path d="M192.885 240.503C192.879 239.576 193.124 238.664 193.596 237.865C194.056 237.091 194.724 236.461 195.523 236.046C196.378 235.604 197.329 235.381 198.291 235.396C199.802 235.396 201.071 235.855 202.097 236.774C202.589 237.193 202.982 237.716 203.248 238.305C203.514 238.893 203.647 239.534 203.637 240.18C203.626 241.112 203.362 242.024 202.874 242.818C202.363 243.685 201.4 244.875 199.985 246.386L195.333 251.349V251.492H204.067V252.972H192.983V251.826L198.995 245.323C200.197 244.034 200.999 243.05 201.4 242.37C201.792 241.727 202 240.989 202.003 240.237C202.01 239.778 201.917 239.322 201.731 238.903C201.544 238.484 201.268 238.11 200.922 237.808C200.193 237.148 199.238 236.796 198.256 236.823C197.15 236.823 196.247 237.163 195.548 237.844C194.849 238.524 194.493 239.409 194.481 240.5V240.51H192.894L192.885 240.503Z" fill="black"/>
<path d="M257.895 244.786V243.378H259.911C261.026 243.378 261.931 243.07 262.625 242.453C262.967 242.155 263.238 241.785 263.418 241.369C263.599 240.954 263.685 240.503 263.671 240.05C263.681 239.612 263.593 239.177 263.413 238.777C263.234 238.377 262.967 238.022 262.632 237.739C261.939 237.134 261.06 236.831 259.994 236.83C258.929 236.829 258.048 237.122 257.352 237.709C257.007 237.998 256.726 238.356 256.525 238.759C256.325 239.163 256.21 239.603 256.188 240.053H254.602C254.696 238.645 255.239 237.519 256.231 236.676C257.223 235.832 258.497 235.408 260.055 235.405C261.518 235.405 262.763 235.838 263.788 236.706C264.813 237.573 265.326 238.627 265.327 239.867C265.359 240.816 265.059 241.746 264.479 242.498C263.886 243.228 263.054 243.725 262.129 243.9V244.055C263.361 244.19 264.333 244.642 265.047 245.41C265.76 246.178 266.116 247.15 266.113 248.327C266.113 249.742 265.536 250.932 264.382 251.895C263.227 252.859 261.805 253.34 260.115 253.339C258.456 253.339 257.074 252.893 255.969 252.002C255.443 251.597 255.014 251.079 254.713 250.486C254.413 249.894 254.248 249.242 254.232 248.578H255.808C255.839 249.049 255.973 249.507 256.201 249.921C256.429 250.334 256.745 250.693 257.127 250.971C257.934 251.595 258.926 251.908 260.104 251.908C261.352 251.908 262.384 251.565 263.199 250.88C263.588 250.571 263.901 250.177 264.113 249.728C264.325 249.28 264.431 248.788 264.423 248.292C264.423 247.208 264.025 246.355 263.23 245.732C262.434 245.108 261.349 244.796 259.973 244.795L257.895 244.786Z" fill="black"/>
<path d="M194.102 260.695L193.59 259.281H191.652L191.142 260.695H190.678L192.404 256.081H192.839L194.562 260.695H194.102ZM192.6 256.654L191.783 258.904H193.458L192.64 256.654H192.6Z" fill="black"/>
<path d="M198.392 260.695H196.698V256.082H198.357C198.717 256.062 199.072 256.17 199.36 256.387C199.481 256.488 199.577 256.616 199.641 256.76C199.705 256.905 199.734 257.062 199.728 257.219C199.733 257.464 199.649 257.702 199.491 257.89C199.338 258.076 199.123 258.199 198.885 258.236V258.277C199.18 258.299 199.458 258.425 199.669 258.633C199.768 258.736 199.845 258.858 199.896 258.992C199.946 259.126 199.97 259.268 199.964 259.411C199.973 259.589 199.941 259.767 199.869 259.931C199.798 260.094 199.689 260.238 199.552 260.352C199.217 260.598 198.807 260.719 198.392 260.695ZM197.136 256.469V258.115H198.168C198.46 258.133 198.749 258.059 198.995 257.902C199.091 257.832 199.167 257.74 199.218 257.633C199.269 257.526 199.293 257.409 199.287 257.291C199.292 257.176 199.27 257.061 199.223 256.956C199.176 256.851 199.106 256.759 199.016 256.686C198.802 256.534 198.541 256.459 198.279 256.475L197.136 256.469ZM197.136 260.307H198.33C198.644 260.329 198.956 260.247 199.219 260.074C199.321 259.994 199.401 259.891 199.454 259.773C199.507 259.655 199.531 259.526 199.523 259.397C199.53 259.268 199.504 259.138 199.448 259.021C199.392 258.904 199.308 258.803 199.203 258.727C198.928 258.556 198.606 258.475 198.282 258.496H197.141L197.136 260.307Z" fill="black"/>
<path d="M204.071 260.791C203.79 260.804 203.511 260.752 203.253 260.64C202.996 260.529 202.767 260.359 202.585 260.146C202.221 259.713 202.038 259.128 202.037 258.39C202.036 257.651 202.218 257.066 202.585 256.633C202.766 256.42 202.994 256.25 203.251 256.138C203.508 256.026 203.787 255.974 204.067 255.986C204.368 255.984 204.664 256.05 204.935 256.18C205.193 256.303 205.418 256.486 205.591 256.713C205.761 256.94 205.871 257.207 205.909 257.488H205.465C205.404 257.173 205.231 256.89 204.978 256.694C204.718 256.491 204.397 256.383 204.067 256.39C203.847 256.381 203.627 256.425 203.426 256.517C203.226 256.61 203.05 256.749 202.914 256.923C202.609 257.345 202.458 257.859 202.485 258.379C202.485 258.99 202.628 259.476 202.914 259.835C203.051 260.009 203.227 260.148 203.428 260.241C203.629 260.333 203.85 260.377 204.071 260.368C204.398 260.377 204.718 260.281 204.986 260.094C205.234 259.922 205.405 259.661 205.465 259.366H205.909C205.881 259.567 205.814 259.762 205.71 259.937C205.607 260.112 205.469 260.266 205.306 260.388C204.952 260.658 204.517 260.8 204.071 260.791Z" fill="black"/>
<path d="M137.172 309.519V305.63H128.521V304.138C130.299 301.138 132.932 297.185 136.42 292.277H138.76V304.161H141.336V305.63H138.76V309.519H137.172ZM130.226 304.067V304.174H137.172V293.84H137.064C135.537 295.924 134.273 297.722 133.27 299.233C132.267 300.744 131.253 302.356 130.226 304.067Z" fill="black"/>
<path d="M132.42 315.455C132.432 315.707 132.391 315.959 132.301 316.195C132.21 316.43 132.073 316.645 131.896 316.824C131.708 316.999 131.488 317.135 131.247 317.223C131.007 317.312 130.751 317.351 130.495 317.338C130.211 317.349 129.929 317.296 129.669 317.182C129.409 317.068 129.179 316.898 128.994 316.682C128.617 316.242 128.429 315.66 128.431 314.935C128.432 314.209 128.619 313.628 128.992 313.192C129.175 312.977 129.405 312.805 129.663 312.691C129.922 312.577 130.203 312.524 130.486 312.535C130.933 312.522 131.371 312.661 131.73 312.927C132.069 313.183 132.297 313.559 132.367 313.978H131.922C131.842 313.67 131.658 313.4 131.401 313.212C131.131 313.024 130.807 312.929 130.479 312.94C130.255 312.932 130.032 312.977 129.829 313.072C129.625 313.166 129.447 313.307 129.309 313.484C128.998 313.901 128.842 314.415 128.87 314.935C128.843 315.456 128.999 315.97 129.311 316.389C129.45 316.566 129.63 316.707 129.834 316.801C130.039 316.896 130.262 316.941 130.488 316.933C130.685 316.942 130.883 316.912 131.069 316.844C131.256 316.777 131.426 316.672 131.572 316.538C131.708 316.401 131.815 316.237 131.884 316.057C131.954 315.877 131.986 315.684 131.977 315.491V315.331H130.571V314.943H132.413L132.42 315.455Z" fill="black"/>
<path d="M138.311 317.242H137.874V315.078H135.168V317.242H134.73V312.63H135.168V314.682H137.866V312.63H138.304L138.311 317.242Z" fill="black"/>
<path d="M141.242 317.242H140.805V312.63H141.242V317.242Z" fill="black"/>
<path d="M130.818 367.005L138.8 351.398V351.256H129.469V349.787H140.446V351.314L132.56 367.005H130.818Z" fill="black"/>
<path d="M124.884 370.116H126.523C126.718 370.108 126.914 370.14 127.097 370.208C127.28 370.277 127.448 370.382 127.59 370.516C127.726 370.653 127.833 370.817 127.903 370.997C127.973 371.176 128.005 371.369 127.997 371.562C128.004 371.753 127.971 371.944 127.9 372.122C127.829 372.3 127.721 372.461 127.584 372.595C127.441 372.728 127.273 372.831 127.09 372.899C126.907 372.966 126.713 372.997 126.518 372.989H125.321V374.73H124.884V370.116ZM125.321 370.506V372.6H126.418C126.721 372.618 127.02 372.519 127.254 372.324C127.356 372.227 127.436 372.108 127.488 371.976C127.541 371.845 127.564 371.703 127.556 371.562C127.564 371.419 127.542 371.275 127.49 371.141C127.439 371.007 127.359 370.886 127.257 370.785C127.024 370.587 126.723 370.487 126.418 370.506H125.321Z" fill="black"/>
<path d="M133.97 375.268H133.478L133.03 374.658C132.755 374.771 132.461 374.828 132.164 374.824C131.877 374.838 131.591 374.787 131.326 374.676C131.061 374.565 130.824 374.396 130.633 374.182C130.26 373.753 130.073 373.167 130.073 372.424C130.073 371.681 130.261 371.094 130.637 370.665C130.827 370.451 131.063 370.281 131.327 370.17C131.591 370.058 131.877 370.007 132.164 370.02C132.45 370.007 132.735 370.059 132.999 370.171C133.263 370.283 133.498 370.452 133.687 370.667C134.061 371.099 134.247 371.684 134.247 372.424C134.257 372.844 134.181 373.262 134.025 373.652C133.895 373.978 133.673 374.259 133.385 374.461L133.97 375.268ZM132.167 374.418C132.377 374.421 132.585 374.383 132.781 374.306L132.16 373.465H132.656L133.129 374.098C133.356 373.928 133.528 373.697 133.627 373.432C133.75 373.11 133.81 372.768 133.805 372.424C133.833 371.901 133.676 371.385 133.362 370.966C133.218 370.79 133.035 370.651 132.828 370.558C132.62 370.466 132.394 370.423 132.167 370.433C131.94 370.423 131.714 370.466 131.506 370.558C131.298 370.651 131.114 370.79 130.969 370.966C130.654 371.384 130.497 371.901 130.525 372.424C130.525 373.037 130.672 373.524 130.969 373.881C131.114 374.057 131.297 374.197 131.505 374.29C131.713 374.384 131.94 374.427 132.167 374.418Z" fill="black"/>
<path d="M136.996 372.84V374.729H136.559V370.107H138.21C138.599 370.089 138.981 370.22 139.277 370.473C139.411 370.599 139.516 370.751 139.585 370.921C139.654 371.091 139.685 371.273 139.677 371.456C139.685 371.756 139.593 372.05 139.415 372.292C139.234 372.527 138.977 372.692 138.688 372.76L139.808 374.715H139.296L138.23 372.825H136.985L136.996 372.84ZM136.996 370.505V372.45H138.175C138.458 372.468 138.738 372.376 138.957 372.194C139.051 372.103 139.125 371.992 139.174 371.869C139.222 371.746 139.243 371.615 139.236 371.483C139.242 371.351 139.22 371.219 139.171 371.096C139.121 370.973 139.046 370.863 138.95 370.772C138.727 370.589 138.444 370.496 138.157 370.512L136.996 370.505Z" fill="black"/>
<path d="M141.828 373.529H142.269C142.284 373.66 142.328 373.786 142.398 373.898C142.468 374.01 142.561 374.105 142.673 374.176C142.936 374.349 143.247 374.436 143.561 374.425C143.867 374.436 144.167 374.343 144.413 374.162C144.517 374.09 144.602 373.994 144.661 373.882C144.719 373.77 144.75 373.645 144.749 373.518C144.751 373.415 144.73 373.313 144.687 373.219C144.644 373.125 144.581 373.042 144.502 372.976C144.272 372.798 144.005 372.677 143.72 372.621L143.186 372.486C142.84 372.422 142.515 372.269 142.246 372.041C142.148 371.942 142.071 371.823 142.021 371.693C141.971 371.563 141.948 371.423 141.954 371.284C141.951 371.107 141.989 370.931 142.065 370.772C142.142 370.612 142.255 370.473 142.395 370.365C142.721 370.115 143.125 369.989 143.535 370.009C143.932 369.998 144.321 370.124 144.637 370.365C144.776 370.467 144.891 370.599 144.974 370.751C145.057 370.902 145.106 371.07 145.117 371.243H144.676C144.659 371.124 144.617 371.009 144.554 370.907C144.491 370.804 144.408 370.715 144.31 370.646C144.078 370.491 143.803 370.415 143.524 370.429C143.235 370.416 142.951 370.502 142.719 370.674C142.621 370.745 142.541 370.838 142.487 370.946C142.432 371.054 142.405 371.174 142.406 371.295C142.403 371.389 142.423 371.482 142.463 371.567C142.503 371.652 142.563 371.727 142.637 371.785C142.864 371.945 143.122 372.055 143.394 372.107L143.851 372.222C144.228 372.291 144.582 372.454 144.879 372.697C144.984 372.799 145.067 372.923 145.121 373.059C145.175 373.195 145.2 373.342 145.193 373.488C145.199 373.675 145.16 373.861 145.08 374.03C145.001 374.199 144.882 374.347 144.735 374.462C144.386 374.723 143.957 374.854 143.522 374.832C143.098 374.849 142.681 374.724 142.337 374.477C142.186 374.367 142.063 374.225 141.975 374.061C141.887 373.897 141.837 373.715 141.828 373.529Z" fill="black"/>
<path d="M198.363 367.364C196.564 367.364 195.098 366.898 193.965 365.967C193.42 365.54 192.983 364.992 192.688 364.366C192.393 363.741 192.248 363.055 192.265 362.363C192.244 361.307 192.611 360.28 193.296 359.476C193.994 358.66 194.962 358.123 196.023 357.962V357.818C195.138 357.629 194.344 357.143 193.774 356.44C193.215 355.747 192.917 354.879 192.933 353.988C192.92 353.362 193.05 352.74 193.315 352.172C193.58 351.604 193.972 351.105 194.461 350.712C195.479 349.856 196.779 349.429 198.363 349.43C199.946 349.431 201.25 349.857 202.274 350.707C202.762 351.1 203.153 351.601 203.416 352.17C203.68 352.739 203.809 353.361 203.794 353.988C203.811 354.878 203.516 355.745 202.96 356.44C202.392 357.143 201.6 357.629 200.716 357.818V357.962C201.774 358.133 202.737 358.671 203.436 359.483C204.126 360.283 204.495 361.308 204.475 362.363C204.492 363.056 204.348 363.743 204.053 364.37C203.758 364.997 203.32 365.546 202.775 365.974C201.639 366.901 200.168 367.364 198.363 367.364ZM195.147 364.923C195.97 365.611 197.042 365.955 198.363 365.956C199.683 365.957 200.757 365.613 201.584 364.923C201.983 364.605 202.303 364.199 202.519 363.736C202.735 363.273 202.841 362.767 202.828 362.257C202.84 361.757 202.733 361.261 202.517 360.81C202.301 360.359 201.981 359.965 201.584 359.661C200.76 358.999 199.685 358.667 198.357 358.666C197.03 358.664 195.958 358.996 195.141 359.661C194.744 359.965 194.425 360.359 194.209 360.81C193.992 361.261 193.886 361.757 193.897 362.257C193.887 362.767 193.994 363.272 194.211 363.734C194.427 364.195 194.748 364.6 195.147 364.918V364.923ZM198.363 357.258C199.499 357.258 200.42 356.969 201.124 356.392C201.464 356.122 201.737 355.775 201.921 355.381C202.104 354.987 202.193 354.555 202.18 354.12C202.192 353.67 202.103 353.223 201.918 352.813C201.733 352.402 201.458 352.039 201.113 351.75C200.402 351.142 199.483 350.838 198.357 350.838C197.231 350.838 196.312 351.142 195.6 351.75C195.255 352.039 194.98 352.402 194.795 352.813C194.61 353.223 194.521 353.67 194.533 354.12C194.523 354.555 194.614 354.986 194.799 355.379C194.984 355.773 195.258 356.118 195.6 356.387C196.311 356.969 197.232 357.259 198.363 357.258Z" fill="black"/>
<path d="M192.704 374.729H192.27V370.512H190.722V370.116H194.251V370.512H192.704V374.729Z" fill="black"/>
<path d="M196.88 370.116V373.096C196.871 373.27 196.899 373.443 196.96 373.606C197.021 373.769 197.115 373.918 197.235 374.044C197.367 374.166 197.523 374.26 197.692 374.321C197.861 374.382 198.041 374.409 198.22 374.399C198.4 374.409 198.58 374.383 198.749 374.321C198.918 374.26 199.073 374.166 199.205 374.044C199.326 373.918 199.42 373.77 199.481 373.607C199.542 373.444 199.569 373.27 199.561 373.096V370.111H199.998V373.133C200.008 373.359 199.97 373.584 199.887 373.794C199.804 374.004 199.677 374.195 199.516 374.353C199.159 374.673 198.69 374.839 198.211 374.813C197.734 374.838 197.266 374.673 196.91 374.353C196.749 374.195 196.622 374.004 196.539 373.794C196.457 373.584 196.419 373.359 196.428 373.133V370.111L196.88 370.116Z" fill="black"/>
<path d="M204.323 374.729H203.889L202.163 370.107H202.623L204.083 374.148H204.126L205.585 370.107H206.046L204.323 374.729Z" fill="black"/>
<path d="M198.373 423.86C196.456 423.86 194.963 423.07 193.893 421.49C192.823 419.91 192.289 417.709 192.293 414.886C192.293 412.087 192.832 409.895 193.911 408.308C194.989 406.721 196.478 405.927 198.378 405.927C200.275 405.927 201.756 406.723 202.823 408.313C203.889 409.904 204.423 412.103 204.423 414.912C204.423 417.728 203.889 419.924 202.823 421.499C201.756 423.074 200.273 423.861 198.373 423.86ZM195.104 420.446C195.885 421.768 196.974 422.428 198.373 422.427C199.771 422.426 200.858 421.766 201.632 420.446C202.403 419.126 202.789 417.273 202.789 414.886C202.789 412.499 202.401 410.653 201.624 409.35C200.849 408.029 199.766 407.369 198.373 407.369C196.98 407.369 195.893 408.032 195.111 409.357C194.327 410.682 193.935 412.525 193.934 414.886C193.934 417.274 194.324 419.127 195.104 420.446Z" fill="black"/>
<path d="M198.546 429.552V431.01H198.178V429.552H196.756V429.187H198.178V427.756H198.546V429.187H199.968V429.552H198.546Z" fill="black"/>
<path d="M259.755 367.352C258.315 367.352 257.101 366.954 256.111 366.159C255.118 365.359 254.457 364.218 254.255 362.959H255.926C256.113 363.807 256.592 364.562 257.279 365.092C257.997 365.636 258.88 365.918 259.78 365.892C261.291 365.892 262.468 365.23 263.311 363.906C264.154 362.583 264.607 360.711 264.671 358.292C264.676 358.219 264.667 358.146 264.642 358.077C264.622 358.019 264.608 357.96 264.6 357.899H264.529C264.16 358.848 263.497 359.652 262.637 360.196C261.74 360.777 260.692 361.078 259.624 361.062C257.978 361.062 256.619 360.523 255.549 359.444C254.479 358.366 253.946 357.003 253.949 355.355C253.949 353.637 254.508 352.219 255.626 351.101C256.743 349.984 258.161 349.425 259.878 349.425C260.967 349.404 262.039 349.701 262.963 350.278C263.89 350.884 264.635 351.732 265.117 352.73C265.879 354.067 266.261 355.832 266.262 358.027C266.262 360.955 265.691 363.24 264.55 364.882C263.409 366.525 261.811 367.348 259.755 367.352ZM259.887 359.643C260.46 359.658 261.03 359.558 261.562 359.347C262.095 359.137 262.581 358.822 262.989 358.42C263.396 358.033 263.718 357.565 263.934 357.046C264.149 356.527 264.255 355.969 264.242 355.407C264.259 354.814 264.157 354.223 263.943 353.669C263.73 353.115 263.408 352.609 262.998 352.18C262.604 351.756 262.124 351.421 261.59 351.196C261.057 350.971 260.482 350.861 259.903 350.874C259.33 350.86 258.76 350.966 258.231 351.186C257.701 351.406 257.224 351.734 256.829 352.15C256.423 352.568 256.105 353.064 255.893 353.607C255.681 354.15 255.58 354.73 255.595 355.313C255.595 356.57 255.997 357.606 256.801 358.42C257.604 359.234 258.633 359.642 259.887 359.643Z" fill="black"/>
<path d="M251.729 370.877L250.598 374.729H250.189L248.922 370.107H249.375L250.389 374.039H250.417L251.526 370.107H251.96L253.069 374.039H253.1L254.113 370.107H254.566L253.297 374.729H252.892L251.759 370.877H251.729Z" fill="black"/>
<path d="M256.484 374.73L258.095 372.419L256.495 370.12H257.028L258.363 372.075H258.399L259.748 370.12H260.246L258.623 372.431L260.223 374.73H259.699L258.369 372.792H258.333L256.987 374.73H256.484Z" fill="black"/>
<path d="M264.185 374.729H263.752V372.74L262.095 370.121H262.598L263.949 372.296H263.988L265.339 370.121H265.839L264.185 372.74V374.729Z" fill="black"/>
<path d="M267.829 374.729V374.413L270.588 370.551V370.512H267.922V370.116H271.154V370.436L268.405 374.293V374.333H271.193V374.729H267.829Z" fill="black"/>
<path d="M198.8 309.877C197.232 309.877 195.913 309.425 194.844 308.522C194.328 308.101 193.906 307.576 193.606 306.981C193.307 306.385 193.137 305.734 193.107 305.068H194.707C194.746 305.537 194.881 305.993 195.105 306.407C195.329 306.821 195.636 307.184 196.007 307.473C196.797 308.117 197.791 308.457 198.81 308.433C200.068 308.433 201.102 308.027 201.913 307.215C202.723 306.404 203.129 305.366 203.13 304.103C203.13 302.837 202.727 301.799 201.92 300.988C201.113 300.177 200.088 299.771 198.846 299.77C198.036 299.762 197.237 299.962 196.526 300.35C195.853 300.708 195.298 301.252 194.926 301.918H193.376L194.306 292.302H203.696V293.768H195.595L195.022 300.046H195.177C195.608 299.492 196.176 299.06 196.825 298.792C197.55 298.49 198.329 298.34 199.114 298.351C200.774 298.351 202.13 298.885 203.184 299.951C204.237 301.018 204.767 302.385 204.771 304.051C204.771 305.753 204.214 307.149 203.1 308.239C201.986 309.33 200.553 309.875 198.8 309.877Z" fill="black"/>
<path d="M192.119 316.188H192.553C192.556 316.289 192.58 316.388 192.622 316.48C192.665 316.572 192.726 316.654 192.802 316.721C192.967 316.863 193.18 316.937 193.398 316.929C193.517 316.936 193.637 316.918 193.748 316.874C193.86 316.831 193.961 316.764 194.045 316.678C194.207 316.478 194.288 316.224 194.272 315.967V312.627H194.711V315.981C194.721 316.162 194.694 316.343 194.633 316.513C194.572 316.683 194.478 316.84 194.356 316.973C194.229 317.095 194.078 317.19 193.913 317.251C193.748 317.312 193.572 317.339 193.396 317.329C193.06 317.342 192.732 317.227 192.478 317.007C192.363 316.905 192.271 316.778 192.209 316.637C192.147 316.495 192.116 316.342 192.119 316.188Z" fill="black"/>
<path d="M197.64 317.242H197.201V312.63H197.64V315.014H197.678L199.861 312.63H200.408L198.559 314.621L200.597 317.242H200.031L198.254 314.931L197.637 315.603L197.64 317.242Z" fill="black"/>
<path d="M205.447 316.845V317.242H202.702V312.63H203.14V316.845H205.447Z" fill="black"/>
<path d="M260.385 309.864C259.297 309.885 258.227 309.593 257.301 309.023C256.371 308.424 255.625 307.58 255.146 306.584C254.384 305.24 254.002 303.47 254.001 301.274C254.001 298.346 254.573 296.06 255.718 294.413C256.863 292.767 258.458 291.944 260.504 291.942C261.926 291.942 263.137 292.34 264.138 293.135C265.137 293.936 265.803 295.081 266.004 296.346H264.333C264.148 295.492 263.664 294.732 262.968 294.204C262.25 293.668 261.374 293.389 260.479 293.411C258.938 293.411 257.741 294.105 256.886 295.493C256.032 296.88 255.599 298.851 255.587 301.405H255.729C256.092 300.45 256.756 299.639 257.621 299.094C258.521 298.516 259.573 298.217 260.643 298.234C262.272 298.234 263.626 298.777 264.705 299.864C265.783 300.951 266.323 302.314 266.323 303.953C266.323 305.663 265.764 307.075 264.646 308.189C263.529 309.303 262.108 309.862 260.385 309.864ZM260.36 308.42C260.932 308.434 261.501 308.329 262.03 308.112C262.559 307.894 263.037 307.569 263.434 307.156C263.84 306.743 264.158 306.252 264.37 305.713C264.582 305.174 264.683 304.598 264.668 304.019C264.668 302.746 264.264 301.699 263.457 300.879C262.65 300.059 261.622 299.65 260.372 299.651C259.8 299.636 259.23 299.737 258.697 299.947C258.164 300.157 257.679 300.472 257.27 300.874C256.865 301.264 256.545 301.734 256.331 302.254C256.116 302.774 256.013 303.334 256.026 303.896C256.009 304.489 256.111 305.079 256.325 305.632C256.538 306.185 256.86 306.69 257.27 307.117C257.665 307.54 258.144 307.874 258.676 308.098C259.209 308.323 259.782 308.433 260.36 308.42Z" fill="black"/>
<path d="M252.133 317.242H251.721V312.63H252.222L253.925 316.644H253.964L255.66 312.63H256.167V317.242H255.756V313.48H255.724L254.124 317.213H253.746L252.154 313.48H252.126L252.133 317.242Z" fill="black"/>
<path d="M259.089 317.242H258.657V312.63H259.089L261.777 316.459H261.818V312.63H262.25V317.242H261.829L259.13 313.409H259.089V317.242Z" fill="black"/>
<path d="M266.646 312.535C266.933 312.521 267.219 312.571 267.484 312.683C267.748 312.795 267.984 312.965 268.174 313.18C268.546 313.61 268.732 314.195 268.732 314.935C268.732 315.674 268.546 316.26 268.174 316.691C267.984 316.907 267.748 317.077 267.484 317.189C267.22 317.301 266.933 317.352 266.646 317.338C266.359 317.352 266.072 317.301 265.807 317.189C265.542 317.077 265.306 316.907 265.116 316.691C264.742 316.26 264.556 315.674 264.558 314.935C264.559 314.195 264.746 313.611 265.119 313.182C265.309 312.966 265.545 312.797 265.809 312.685C266.074 312.573 266.36 312.521 266.646 312.535ZM266.646 312.94C266.419 312.931 266.193 312.974 265.985 313.066C265.777 313.159 265.593 313.298 265.448 313.473C265.134 313.891 264.976 314.407 265.004 314.929C264.976 315.451 265.132 315.966 265.445 316.385C265.59 316.561 265.774 316.701 265.983 316.794C266.191 316.886 266.419 316.929 266.646 316.919C266.874 316.929 267.101 316.886 267.309 316.794C267.517 316.701 267.7 316.561 267.845 316.385C268.156 315.966 268.311 315.451 268.284 314.929C268.311 314.408 268.156 313.893 267.845 313.473C267.7 313.298 267.517 313.158 267.309 313.065C267.101 312.973 266.874 312.93 266.646 312.94Z" fill="black"/>
<path d="M253.115 256.081H254.633C255.33 256.081 255.87 256.285 256.251 256.693C256.633 257.101 256.824 257.665 256.824 258.387C256.824 259.11 256.633 259.675 256.253 260.083C255.873 260.491 255.333 260.695 254.633 260.695H253.115V256.081ZM253.553 256.478V260.298H254.609C254.849 260.312 255.09 260.275 255.315 260.187C255.54 260.1 255.743 259.966 255.912 259.793C256.221 259.455 256.376 258.987 256.376 258.389C256.376 257.792 256.221 257.322 255.912 256.984C255.744 256.811 255.54 256.676 255.315 256.589C255.091 256.501 254.849 256.463 254.609 256.478H253.553Z" fill="black"/>
<path d="M261.922 260.298V260.695H259.135V256.081H261.922V256.474H259.574V258.133H261.805V258.524H259.574V260.302L261.922 260.298Z" fill="black"/>
<path d="M264.699 260.695H264.262V256.081H266.998V256.474H264.699V258.207H266.813V258.607H264.699V260.695Z" fill="black"/>
<path d="M140.447 418.132H130.264V419.02H140.447V418.132Z" fill="black"/>
<path d="M138.285 422.764L133.193 413.945L132.424 414.39L137.515 423.208L138.285 422.764Z" fill="black"/>
<path d="M133.256 423.319L138.348 414.5L137.578 414.055L132.486 422.874L133.256 423.319Z" fill="black"/>
<path d="M264.308 415.986H254.125V416.874H264.308V415.986Z" fill="black"/>
<path d="M264.308 420.642H254.125V421.531H264.308V420.642Z" fill="black"/>
<path d="M261.988 423.694V413.511H261.099V423.694H261.988Z" fill="black"/>
<path d="M257.334 423.694V413.511H256.445V423.694H257.334Z" fill="black"/>
<path d="M211.854 235.493C215.58 235.493 218.601 232.473 218.601 228.747C218.601 225.021 215.58 222 211.854 222C208.128 222 205.107 225.021 205.107 228.747C205.107 232.473 208.128 235.493 211.854 235.493Z" fill="#4C4C4C" stroke="black" stroke-width="0.5" stroke-linecap="round" stroke-linejoin="round"/>
<path d="M152.075 235.493C155.801 235.493 158.821 232.473 158.821 228.747C158.821 225.021 155.801 222 152.075 222C148.349 222 145.328 225.021 145.328 228.747C145.328 232.473 148.349 235.493 152.075 235.493Z" fill="#4C4C4C" stroke="black" stroke-width="0.5" stroke-linecap="round" stroke-linejoin="round"/>
<path d="M273.827 235.493C277.553 235.493 280.573 232.473 280.573 228.747C280.573 225.021 277.553 222 273.827 222C270.101 222 267.08 225.021 267.08 228.747C267.08 232.473 270.101 235.493 273.827 235.493Z" fill="#4C4C4C" stroke="black" stroke-width="0.5" stroke-linecap="round" stroke-linejoin="round"/>
<path d="M199.038 510.376C212.673 510.376 223.726 499.322 223.726 485.688C223.726 472.053 212.673 461 199.038 461C185.404 461 174.351 472.053 174.351 485.688C174.351 499.322 185.404 510.376 199.038 510.376Z" fill="white"/>
<path d="M212.292 485.419C211.367 483.737 208.173 482.308 204.557 481.803C200.941 481.298 199.046 481.383 199.046 481.383C199.046 481.383 197.142 481.3 193.526 481.803C189.91 482.306 186.717 483.737 185.793 485.419C185.209 486.477 185.627 488.1 186.017 489.152C186.122 489.445 186.334 489.688 186.61 489.833C186.887 489.977 187.207 490.013 187.508 489.933L192.308 488.688C192.559 488.624 192.784 488.484 192.951 488.286C193.118 488.089 193.22 487.844 193.241 487.586C193.28 486.954 193.462 486.338 193.775 485.787C194.532 484.482 199.042 484.74 199.042 484.74C199.042 484.74 203.552 484.482 204.31 485.787C204.622 486.338 204.805 486.954 204.843 487.586C204.863 487.844 204.964 488.09 205.131 488.288C205.298 488.485 205.523 488.626 205.775 488.688L210.575 489.933C210.876 490.013 211.196 489.977 211.472 489.833C211.749 489.688 211.96 489.445 212.066 489.152C212.457 488.107 212.873 486.486 212.292 485.419Z" fill="#333333"/>
<path d="M429.51 546.032C428.88 546.05 428.263 545.844 427.77 545.451C427.277 545.058 426.939 544.503 426.817 543.884L398.764 402.301L410.438 400.257L432.074 542.958C432.132 543.332 432.109 543.714 432.008 544.079C431.907 544.444 431.729 544.783 431.486 545.074C431.244 545.365 430.942 545.601 430.601 545.766C430.261 545.931 429.889 546.022 429.51 546.032Z" fill="#CCCCCC" stroke="black" stroke-width="0.5" stroke-linecap="round" stroke-linejoin="round"/>
<path d="M490.78 546.032C490.149 546.05 489.533 545.844 489.04 545.451C488.547 545.058 488.209 544.503 488.086 543.884L460.033 402.301L471.708 400.257L493.343 542.958C493.401 543.332 493.379 543.714 493.277 544.079C493.176 544.444 492.998 544.783 492.756 545.074C492.513 545.365 492.212 545.601 491.871 545.766C491.53 545.931 491.158 546.022 490.78 546.032Z" fill="#CCCCCC" stroke="black" stroke-width="0.5" stroke-linecap="round" stroke-linejoin="round"/>
<path d="M367.065 546.032C367.695 546.05 368.311 545.845 368.805 545.452C369.298 545.058 369.635 544.503 369.758 543.885L397.811 402.309L386.136 400.265L364.501 542.966C364.444 543.339 364.467 543.721 364.569 544.085C364.671 544.449 364.849 544.787 365.091 545.077C365.334 545.367 365.635 545.602 365.975 545.767C366.315 545.931 366.687 546.022 367.065 546.032Z" fill="#CCCCCC" stroke="black" stroke-width="0.5" stroke-linecap="round" stroke-linejoin="round"/>
<path d="M295.797 546.032C296.427 546.05 297.044 545.845 297.537 545.452C298.03 545.058 298.368 544.503 298.49 543.885L326.543 402.309L314.869 400.265L293.233 542.966C293.177 543.339 293.2 543.721 293.302 544.085C293.403 544.449 293.581 544.787 293.824 545.077C294.066 545.367 294.368 545.602 294.708 545.767C295.048 545.931 295.419 546.022 295.797 546.032Z" fill="#CCCCCC" stroke="black" stroke-width="0.5" stroke-linecap="round" stroke-linejoin="round"/>
<path d="M362.322 302H276.845C275.82 302.001 274.809 302.237 273.889 302.69C272.97 303.144 272.167 303.803 271.543 304.616C270.919 305.429 270.49 306.375 270.29 307.381C270.09 308.386 270.123 309.424 270.388 310.414L290.034 383.799C290.415 385.22 291.253 386.477 292.421 387.373C293.589 388.27 295.019 388.755 296.491 388.755H381.968C382.993 388.755 384.005 388.519 384.924 388.066C385.844 387.612 386.647 386.953 387.271 386.14C387.895 385.327 388.324 384.381 388.525 383.375C388.725 382.369 388.691 381.331 388.426 380.341L368.789 306.957C368.408 305.533 367.568 304.275 366.398 303.379C365.228 302.483 363.795 301.998 362.322 302Z" fill="#666666" stroke="black" stroke-width="0.5" stroke-miterlimit="10" stroke-linecap="round" stroke-linejoin="round"/>
<path d="M367.467 302.274H281.99C280.965 302.274 279.954 302.51 279.034 302.964C278.114 303.417 277.311 304.076 276.687 304.889C276.063 305.703 275.634 306.649 275.434 307.654C275.233 308.66 275.267 309.698 275.532 310.688L295.19 384.073C295.571 385.495 296.41 386.751 297.578 387.647C298.746 388.544 300.177 389.029 301.649 389.029H387.125C388.151 389.029 389.162 388.793 390.081 388.339C391.001 387.885 391.804 387.226 392.428 386.413C393.052 385.6 393.48 384.654 393.681 383.649C393.881 382.643 393.847 381.605 393.582 380.615L373.933 307.231C373.552 305.807 372.711 304.55 371.542 303.654C370.373 302.757 368.94 302.272 367.467 302.274Z" fill="#4C4C4C" stroke="black" stroke-width="0.5" stroke-miterlimit="10" stroke-linecap="round" stroke-linejoin="round"/>
<path d="M424.889 227.456C424.889 227.456 397.059 203.21 417.757 172.21C428.068 156.77 447.801 161.616 457.09 170.331C473.405 185.644 465.947 200.208 485.902 205.383C507.141 210.894 536.035 218.183 538.627 264.163C541.219 310.143 498.034 328.407 476.405 324.344C454.777 320.28 430.482 234.922 430.482 234.922L424.889 227.456Z" fill="#1A1A1A" stroke="black" stroke-width="0.5" stroke-linecap="round" stroke-linejoin="round"/>
<path d="M386.221 270.275H503.761C505.172 270.274 506.564 270.597 507.829 271.22C509.095 271.843 510.2 272.748 511.06 273.867C511.919 274.986 512.509 276.287 512.785 277.67C513.061 279.054 513.015 280.482 512.65 281.844L485.628 382.757C485.104 384.714 483.949 386.442 482.341 387.674C480.734 388.907 478.765 389.573 476.739 389.571H359.201C357.791 389.572 356.4 389.248 355.135 388.624C353.871 388.001 352.766 387.095 351.908 385.976C351.049 384.858 350.46 383.557 350.185 382.174C349.909 380.791 349.956 379.364 350.321 378.002L377.343 277.091C377.866 275.136 379.019 273.408 380.625 272.175C382.23 270.943 384.197 270.275 386.221 270.275Z" fill="#4C4C4C" stroke="black" stroke-width="0.5" stroke-miterlimit="10" stroke-linecap="round" stroke-linejoin="round"/>
<path d="M413.31 267.473C412.599 267.473 386.761 287.665 386.761 287.665L373.311 274.481L393.31 248.526L413.31 267.473Z" fill="#E5E5E5" stroke="black" stroke-width="0.5" stroke-miterlimit="10" stroke-linecap="round" stroke-linejoin="round"/>
<path d="M498.154 378.307L518.226 287.318C519.889 279.776 515.124 272.312 507.582 270.649C500.04 268.985 492.577 273.751 490.913 281.293L470.841 372.282C469.177 379.824 473.942 387.288 481.485 388.952C489.027 390.615 496.49 385.85 498.154 378.307Z" fill="#666666" stroke="black" stroke-width="0.5" stroke-miterlimit="10" stroke-linecap="round" stroke-linejoin="round"/>
<path d="M385.561 417H486.774C494.498 417 500.76 410.739 500.76 403.016C500.76 395.292 494.498 389.031 486.774 389.031H385.561C377.837 389.031 371.575 395.292 371.575 403.016C371.575 410.739 377.837 417 385.561 417Z" fill="#666666" stroke="black" stroke-width="0.5" stroke-miterlimit="10" stroke-linecap="round" stroke-linejoin="round"/>
<path d="M301.929 417H423.483C431.207 417 437.469 410.739 437.469 403.016C437.469 395.292 431.207 389.031 423.483 389.031H301.929C294.205 389.031 287.943 395.292 287.943 403.016C287.943 410.739 294.205 417 301.929 417Z" fill="#808080" stroke="black" stroke-width="0.5" stroke-miterlimit="10" stroke-linecap="round" stroke-linejoin="round"/>
<path d="M471.947 228.579L441.713 217.295L416.611 221.859C416.581 221.949 416.549 222.037 416.518 222.133C403.848 226.2 383.194 254.785 383.194 254.785L401.431 269.151C398.408 284.937 394.928 310.368 394.928 310.368C394.465 314.075 394.977 316.738 396.933 317.029L444.344 326.336L463.089 329.92L476.548 252.365C479.832 240.684 476.431 230.106 471.947 228.579Z" fill="white" stroke="black" stroke-width="0.5" stroke-miterlimit="10" stroke-linecap="round" stroke-linejoin="round"/>
<path d="M401.5 269L405.5 248.5" stroke="black" stroke-width="0.5" stroke-linecap="round" stroke-linejoin="round"/>
<path d="M447.637 202.511L450.488 222.004C450.683 223.335 450.594 224.693 450.227 225.987C449.859 227.282 449.222 228.484 448.357 229.514C447.491 230.545 446.417 231.38 445.206 231.966C443.994 232.551 442.672 232.874 441.327 232.912C438.975 232.979 436.681 232.173 434.887 230.65C433.093 229.126 431.926 226.993 431.611 224.661L428.736 203.389L447.637 202.511Z" fill="#E5E5E5" stroke="black" stroke-width="0.5" stroke-miterlimit="10" stroke-linecap="round" stroke-linejoin="round"/>
<path d="M297.115 483.247L308.477 437.285L329.408 445.356L314.953 485.206L297.115 483.247Z" fill="#E5E5E5" stroke="black" stroke-width="0.5" stroke-miterlimit="10" stroke-linecap="round" stroke-linejoin="round"/>
<path d="M316.384 506.75L318.755 476.399L308.089 475.679L305.698 469.848C305.427 469.188 305.024 468.59 304.514 468.092C304.004 467.593 303.397 467.204 302.731 466.949C302.065 466.693 301.354 466.576 300.641 466.606C299.929 466.635 299.229 466.81 298.587 467.119L293.717 471.741C293.717 471.741 278.189 475.153 259.918 480.097C247.408 483.485 240.296 487.001 240.296 487.001L236.018 489.003C234.984 489.488 234.276 490.544 234.365 491.684C234.419 492.408 234.753 493.083 235.296 493.565C235.521 493.756 235.776 493.906 236.052 494.009C237.567 494.615 244.088 497.112 250.004 497.707C258.697 498.582 269.984 500.946 282.135 500.843C290.736 500.77 295.666 499.924 298.549 499.767L298.476 504.338L316.384 506.75Z" fill="black" stroke="black" stroke-width="0.5" stroke-linecap="round" stroke-linejoin="round"/>
<path d="M257.39 498.863C257.39 498.863 257.304 492.674 255.452 488.154C253.6 483.633 251.646 482.548 251.646 482.548C251.646 482.548 234.149 487.489 234.322 491.348C234.517 495.738 244.865 496.831 249.116 497.54C253.367 498.25 257.39 498.863 257.39 498.863Z" fill="white" stroke="black" stroke-width="0.5" stroke-linecap="round" stroke-linejoin="round"/>
<path d="M292.333 478.178C292.333 478.178 290.911 475.178 289.02 473.314C287.128 471.451 283.557 471.028 283.557 471.028" stroke="white" stroke-width="0.5" stroke-linecap="round" stroke-linejoin="round"/>
<path d="M285.168 481.235C285.168 481.235 283.746 478.232 281.855 476.371C279.963 474.509 276.392 474.083 276.392 474.083" stroke="white" stroke-width="0.5" stroke-linecap="round" stroke-linejoin="round"/>
<path d="M278.079 484.116C278.079 484.116 276.656 481.115 274.765 479.252C272.873 477.389 269.302 476.966 269.302 476.966" stroke="white" stroke-width="0.5" stroke-linecap="round" stroke-linejoin="round"/>
<path d="M356.944 378.608L420.378 373.575C430.762 373.575 444.344 376.225 444.344 365.841L443.532 326.094L396.933 317.028L385.045 340.11L356.944 378.608Z" fill="#B3B3B3" stroke="black" stroke-width="0.5" stroke-linecap="round" stroke-linejoin="round"/>
<path d="M381.79 515.186L381.586 481.194L363.053 481.409L364.583 519.702L381.79 515.186Z" fill="#E5E5E5" stroke="black" stroke-width="0.5" stroke-miterlimit="10" stroke-linecap="round" stroke-linejoin="round"/>
<path d="M363.911 545.486L379.036 545.945C380.46 545.988 381.844 545.463 382.881 544.487C383.919 543.511 384.527 542.162 384.57 540.738L385.493 510.302L359.063 509.501L358.707 540.051C358.69 541.458 359.226 542.816 360.199 543.832C361.172 544.848 362.505 545.442 363.911 545.486Z" fill="black" stroke="black" stroke-width="0.5" stroke-linecap="round" stroke-linejoin="round"/>
<path d="M383.873 541.83C383.873 541.83 379.388 534.185 371.503 533.943C363.619 533.702 358.748 541.725 358.748 541.725V541.797C358.796 544.03 361.189 545.869 364.168 545.957L378.14 546.382C381.1 546.471 383.59 544.805 383.798 542.596L383.873 541.83Z" fill="white" stroke="black" stroke-width="0.5" stroke-linecap="round" stroke-linejoin="round"/>
<path d="M382.73 513.325C382.73 513.325 379.103 502.872 372.38 502.669C365.656 502.467 361.4 512.678 361.4 512.678L382.73 513.325Z" fill="black" stroke="black" stroke-width="0.5" stroke-linecap="round" stroke-linejoin="round"/>
<path d="M366.264 517.615C366.264 517.615 369.318 516.313 371.972 516.178C374.626 516.043 377.576 518.097 377.576 518.097" stroke="white" stroke-width="0.5" stroke-linecap="round" stroke-linejoin="round"/>
<path d="M366.122 522.027C366.122 522.027 369.176 520.726 371.83 520.591C374.485 520.456 377.432 522.509 377.432 522.509" stroke="white" stroke-width="0.5" stroke-linecap="round" stroke-linejoin="round"/>
<path d="M365.996 526.44C365.996 526.44 369.049 525.138 371.703 525.003C374.357 524.868 377.306 526.921 377.306 526.921" stroke="white" stroke-width="0.5" stroke-linecap="round" stroke-linejoin="round"/>
<path d="M379.87 546.215C379.87 546.215 376.058 542.607 371.381 542.464C366.703 542.322 362.984 545.81 362.984 545.81L379.87 546.215Z" fill="black" stroke="black" stroke-width="0.5" stroke-linecap="round" stroke-linejoin="round"/>
<path d="M388.627 357.154L391.484 395.26L351.667 395.123L343.146 368.286" fill="#333333"/>
<path d="M388.627 357.154L391.484 395.26L351.667 395.123L343.146 368.286" stroke="black" stroke-width="0.5" stroke-linecap="round" stroke-linejoin="round"/>
<path d="M358.334 335.533C345.568 332.032 337.968 340.702 333.979 353.326L375.4 388.86L408.822 388.709C421.149 388.654 433.247 376.206 428.662 348.11" fill="#B3B3B3"/>
<path d="M358.334 335.533C345.568 332.032 337.968 340.702 333.979 353.326L375.4 388.86L408.822 388.709C421.149 388.654 433.247 376.206 428.662 348.11" stroke="black" stroke-width="0.5" stroke-linecap="round" stroke-linejoin="round"/>
<path d="M355.399 492.772H387.084L391.486 395.26C391.607 392.57 391.182 389.884 390.236 387.362C389.29 384.841 387.843 382.538 385.982 380.592C384.121 378.645 381.885 377.096 379.409 376.038C376.933 374.98 374.268 374.435 371.575 374.436C368.894 374.436 366.241 374.976 363.774 376.026C361.307 377.076 359.077 378.612 357.218 380.544C355.359 382.475 353.909 384.762 352.955 387.267C352 389.772 351.561 392.445 351.664 395.123L355.399 492.772Z" fill="#B3B3B3" stroke="black" stroke-width="0.5" stroke-linecap="round" stroke-linejoin="round"/>
<path d="M364.789 371.001L330.522 468.52L295.179 456.879L328.332 351.879C328.332 351.879 334.3 334.77 351.653 334.658C369.006 334.546 411.219 347.071 411.219 347.071" fill="#B3B3B3"/>
<path d="M364.789 371.001L330.522 468.52L295.179 456.879L328.332 351.879C328.332 351.879 334.3 334.77 351.653 334.658C369.006 334.546 411.219 347.071 411.219 347.071" stroke="black" stroke-width="0.5" stroke-linecap="round" stroke-linejoin="round"/>
<path d="M429.387 316.527H502.151C502.88 316.527 503.599 316.691 504.255 317.008C504.912 317.324 505.488 317.785 505.942 318.355C506.396 318.926 506.715 319.591 506.876 320.302C507.036 321.013 507.035 321.751 506.871 322.461L492.43 385.017C492.184 386.084 491.583 387.036 490.726 387.718C489.868 388.4 488.805 388.771 487.71 388.771H414.946C414.218 388.771 413.498 388.607 412.842 388.29C412.186 387.974 411.609 387.513 411.156 386.943C410.702 386.372 410.383 385.707 410.223 384.996C410.062 384.285 410.064 383.547 410.228 382.837L424.669 320.281C424.915 319.214 425.515 318.262 426.372 317.58C427.229 316.898 428.292 316.527 429.387 316.527Z" fill="#808080" stroke="black" stroke-width="0.5" stroke-miterlimit="10" stroke-linecap="round" stroke-linejoin="round"/>
<path d="M433.928 316.527H506.692C507.421 316.527 508.14 316.691 508.796 317.008C509.453 317.324 510.029 317.785 510.483 318.356C510.936 318.926 511.255 319.591 511.416 320.302C511.576 321.013 511.574 321.751 511.41 322.461L496.966 385.017C496.72 386.084 496.119 387.036 495.262 387.718C494.405 388.4 493.343 388.771 492.248 388.771H419.484C418.755 388.771 418.036 388.607 417.379 388.29C416.723 387.974 416.146 387.513 415.693 386.943C415.239 386.372 414.92 385.707 414.759 384.996C414.598 384.285 414.6 383.547 414.764 382.837L429.205 320.281C429.451 319.213 430.052 318.261 430.91 317.579C431.768 316.897 432.832 316.526 433.928 316.527Z" fill="#666666" stroke="black" stroke-width="0.5" stroke-miterlimit="10" stroke-linecap="round" stroke-linejoin="round"/>
<path d="M460.655 279.49L462.254 305.225L419.7 312.347L409.012 310.102L401.071 311.268C401.071 311.268 396.893 316.909 397.912 317.846C398.931 318.782 400.774 317.266 400.774 317.266C400.774 317.266 400.936 320.896 402.019 320.658C403.101 320.42 403.345 320.032 403.345 320.032C403.345 320.032 403.843 322.477 404.589 322.521C405.336 322.566 406.084 322.041 406.084 322.041C406.084 322.041 406.822 324.886 407.955 324.491C409.087 324.096 408.989 322.038 408.989 322.038L417.99 323.094L473.99 324.896C482.939 323.744 487.721 317.879 487.09 306.239L486.066 277.741L460.655 279.49Z" fill="#E5E5E5" stroke="black" stroke-width="0.5" stroke-miterlimit="10" stroke-linecap="round" stroke-linejoin="round"/>
<path d="M408.267 310.224C408.267 310.224 401.987 312.034 401.224 313.517C400.461 314.999 400.868 318.304 400.868 318.304" stroke="black" stroke-width="0.5" stroke-miterlimit="10" stroke-linecap="round" stroke-linejoin="round"/>
<path d="M408.529 313.757C408.529 313.757 403.646 314.113 403.21 315.734C402.774 317.355 403.582 320.776 403.582 320.776" stroke="black" stroke-width="0.5" stroke-miterlimit="10" stroke-linecap="round" stroke-linejoin="round"/>
<path d="M409.441 318.466C409.441 318.466 406.351 318.592 405.846 319.817C405.384 320.944 407.055 324.132 407.055 324.132" stroke="black" stroke-width="0.5" stroke-miterlimit="10" stroke-linecap="round" stroke-linejoin="round"/>
<path d="M456.046 285.601L489.214 282.392C489.214 282.392 487.029 232.814 470.666 228.002C454.304 223.189 456.046 285.601 456.046 285.601Z" fill="white" stroke="black" stroke-width="0.5" stroke-miterlimit="10" stroke-linecap="round" stroke-linejoin="round"/>
<path d="M369.703 275.817L396.709 220.236L400.064 208.415C400.188 207.977 400.422 207.578 400.744 207.256C401.066 206.934 401.465 206.699 401.904 206.575L405.929 205.431C405.971 205.06 406.107 204.706 406.325 204.403C406.543 204.101 406.835 203.859 407.173 203.701L407.365 203.61L408.361 202.25C408.722 201.758 409.228 201.39 409.809 201.199C410.389 201.008 411.014 201.002 411.598 201.183L414.428 202.055L411.481 212.287L414.462 217.621L418.906 212.968C419.176 212.686 419.545 212.52 419.935 212.505C420.325 212.49 420.706 212.627 420.997 212.887C421.268 213.127 421.443 213.457 421.49 213.817C421.537 214.176 421.452 214.54 421.251 214.842L416.611 221.859C416.095 222.64 415.377 223.267 414.535 223.676L405.763 226.925L389.527 282.607C388.069 288.765 381.527 292.438 375.23 291.426C369.166 290.457 367.629 281.947 369.703 275.817Z" fill="#E5E5E5" stroke="black" stroke-width="0.5" stroke-miterlimit="10" stroke-linecap="round" stroke-linejoin="round"/>
<path d="M426.494 198.866L415.988 219.298C415.865 219.535 415.677 219.732 415.445 219.866C415.213 219.999 414.948 220.063 414.681 220.049C414.414 220.036 414.157 219.946 413.94 219.79C413.723 219.634 413.556 219.418 413.458 219.17L409.831 209.904C409.759 209.72 409.727 209.523 409.737 209.326C409.747 209.129 409.799 208.936 409.89 208.761L420.395 188.329C420.517 188.091 420.705 187.893 420.937 187.76C421.169 187.626 421.435 187.562 421.702 187.576C421.97 187.59 422.227 187.68 422.444 187.837C422.661 187.993 422.829 188.209 422.926 188.459L426.551 197.724C426.623 197.908 426.655 198.104 426.645 198.301C426.635 198.498 426.584 198.69 426.494 198.866Z" fill="#666666" stroke="black" stroke-width="0.5" stroke-miterlimit="10" stroke-linecap="round" stroke-linejoin="round"/>
<path d="M411.045 201.059L414.698 201.916C415.099 202.01 415.469 202.204 415.774 202.481C416.079 202.757 416.309 203.106 416.442 203.495L417.64 206.984C417.737 207.265 417.724 207.572 417.604 207.843C417.484 208.114 417.267 208.331 416.995 208.449C416.561 208.638 416.073 208.659 415.625 208.508C415.176 208.358 414.8 208.046 414.568 207.633L413.146 205.088" fill="#E5E5E5"/>
<path d="M411.045 201.059L414.698 201.916C415.099 202.01 415.469 202.204 415.774 202.481C416.079 202.757 416.309 203.106 416.442 203.495L417.64 206.984C417.737 207.265 417.724 207.572 417.604 207.843C417.484 208.114 417.267 208.331 416.995 208.449V208.449C416.561 208.638 416.073 208.659 415.625 208.508C415.176 208.358 414.8 208.046 414.568 207.633L413.146 205.088" stroke="black" stroke-width="0.5" stroke-miterlimit="10" stroke-linecap="round" stroke-linejoin="round"/>
<path d="M407.168 203.701L410.217 203.271C410.751 203.102 411.329 203.142 411.834 203.384C412.339 203.626 412.733 204.05 412.937 204.572L414.085 207.525C414.201 207.821 414.253 208.139 414.237 208.457C414.222 208.775 414.139 209.086 413.995 209.37L412.617 212.071C412.42 212.455 412.091 212.754 411.69 212.914C411.289 213.073 410.844 213.081 410.437 212.936L408.825 212.36" fill="#E5E5E5"/>
<path d="M407.168 203.701L410.217 203.271C410.751 203.102 411.329 203.142 411.834 203.384C412.339 203.626 412.733 204.05 412.937 204.572L414.085 207.525C414.201 207.821 414.253 208.139 414.237 208.457C414.222 208.775 414.139 209.086 413.995 209.37L412.617 212.071C412.42 212.455 412.091 212.754 411.69 212.914C411.289 213.073 410.844 213.081 410.437 212.936L408.825 212.36" stroke="black" stroke-width="0.5" stroke-miterlimit="10" stroke-linecap="round" stroke-linejoin="round"/>
<path d="M401.428 206.763L408.347 206.183C408.828 206.159 409.301 206.312 409.677 206.612C410.053 206.913 410.307 207.341 410.389 207.815L410.83 210.373C410.884 210.685 410.863 211.005 410.77 211.307C410.678 211.609 410.516 211.885 410.297 212.114L408.58 213.904C408.493 213.995 408.388 214.068 408.272 214.118C408.156 214.168 408.031 214.194 407.904 214.194C407.778 214.194 407.653 214.168 407.537 214.118C407.42 214.068 407.316 213.995 407.229 213.904C406.934 213.59 406.746 213.191 406.692 212.765C406.637 212.338 406.719 211.905 406.925 211.527L407.636 210.204L405.278 208.999" fill="#E5E5E5"/>
<path d="M401.428 206.763L408.347 206.183C408.828 206.159 409.301 206.312 409.677 206.612C410.053 206.913 410.307 207.341 410.389 207.815L410.83 210.373C410.884 210.685 410.863 211.005 410.77 211.307C410.678 211.609 410.516 211.885 410.297 212.114L408.58 213.904C408.493 213.995 408.388 214.068 408.272 214.118C408.156 214.168 408.031 214.194 407.904 214.194C407.778 214.194 407.653 214.168 407.537 214.118C407.42 214.068 407.316 213.995 407.229 213.904V213.904C406.934 213.59 406.746 213.191 406.692 212.765C406.637 212.338 406.719 211.905 406.925 211.527L407.636 210.204L405.278 208.999" stroke="black" stroke-width="0.5" stroke-miterlimit="10" stroke-linecap="round" stroke-linejoin="round"/>
<path d="M447.108 192.452L444.87 177.606C444.87 177.606 432.393 184.423 422.098 172.304C416.216 174.863 417.64 182.985 417.64 182.985C417.64 182.985 419.608 198.985 421.122 204.635C422.637 210.284 428.641 216.56 436.651 213.879C444.662 211.198 448.384 207.479 451.325 202.731C454.265 197.982 454.262 192.42 452.23 191.234C449.197 189.458 447.108 192.452 447.108 192.452Z" fill="#E5E5E5" stroke="black" stroke-width="0.5" stroke-miterlimit="10" stroke-linecap="round" stroke-linejoin="round"/>
<path d="M437.027 183.566L432.395 184.425" stroke="black" stroke-width="0.5" stroke-linecap="round" stroke-linejoin="round"/>
<path d="M424.154 185.644L419.699 187.596" stroke="black" stroke-width="0.5" stroke-linecap="round" stroke-linejoin="round"/>
<path d="M428.641 191.435C428.641 191.435 427.542 195.92 428.378 197.641C429.214 199.362 431.756 198.165 431.756 198.165" stroke="black" stroke-width="0.5" stroke-linecap="round" stroke-linejoin="round"/>
<path d="M433.277 193.429C434.11 193.429 434.786 192.753 434.786 191.92C434.786 191.086 434.11 190.41 433.277 190.41C432.443 190.41 431.768 191.086 431.768 191.92C431.768 192.753 432.443 193.429 433.277 193.429Z" fill="black"/>
<path d="M422.097 195.637C422.931 195.637 423.607 194.961 423.607 194.128C423.607 193.294 422.931 192.618 422.097 192.618C421.264 192.618 420.588 193.294 420.588 194.128C420.588 194.961 421.264 195.637 422.097 195.637Z" fill="black"/>
<path d="M435.364 199.835L428.12 203.367C428.12 203.367 429.898 206.373 433.117 205.044C436.337 203.714 435.364 199.835 435.364 199.835Z" fill="white" stroke="black" stroke-width="0.5" stroke-miterlimit="10" stroke-linecap="round" stroke-linejoin="round"/>
<path d="M421.391 200.207C424.624 200.207 427.245 197.586 427.245 194.353C427.245 191.12 424.624 188.499 421.391 188.499C418.158 188.499 415.537 191.12 415.537 194.353C415.537 197.586 418.158 200.207 421.391 200.207Z" stroke="black" stroke-width="0.5" stroke-linecap="round" stroke-linejoin="round"/>
<path d="M435.359 197.98C438.592 197.98 441.213 195.359 441.213 192.126C441.213 188.893 438.592 186.272 435.359 186.272C432.126 186.272 429.505 188.893 429.505 192.126C429.505 195.359 432.126 197.98 435.359 197.98Z" stroke="black" stroke-width="0.5" stroke-linecap="round" stroke-linejoin="round"/>
<path d="M462.262 305.226L472.601 304.161" stroke="black" stroke-width="0.5" stroke-miterlimit="10" stroke-linecap="round" stroke-linejoin="round"/>
<circle cx="451.5" cy="201.5" r="3.25" fill="#B3B3B3" stroke="black" stroke-width="0.5"/>
<path d="M17.5 21C52.5 42.5 129.221 67.4091 226 62.5C295 59 405 37.5 467.5 2" stroke="black" stroke-width="0.5" stroke-linecap="round" stroke-linejoin="round"/>
<path d="M75.8258 170.605C106.645 170.605 131.628 145.621 131.628 114.802C131.628 83.9835 106.645 58.9999 75.8258 58.9999C45.007 58.9999 20.0234 83.9835 20.0234 114.802C20.0234 145.621 45.007 170.605 75.8258 170.605Z" fill="white" stroke="black" stroke-width="0.5" stroke-miterlimit="10" stroke-linecap="round" stroke-linejoin="round"/>
<path d="M69.7502 103.072L59.0337 125.344C57.6866 129.311 62.6053 133.779 67.2654 134.631L67.7034 132.521C71.6844 133.247 75.5464 131.22 76.6555 127.819L81.5378 112.844L69.7502 103.072Z" fill="#E5E5E5" stroke="black" stroke-width="0.5" stroke-miterlimit="10" stroke-linecap="round" stroke-linejoin="round"/>
<path d="M76.0923 129.168C76.0923 129.168 74.0915 130.961 68.189 128.692C64.1001 127.123 60.6046 125.168 60.0302 121.822C59.8938 121.028 54.3927 125.615 53.355 127.072C49.6421 131.075 41.2961 144.315 37.834 155.92C48.9123 166.317 62.9926 170.849 75.8718 170.849C79.2276 170.85 82.5767 170.55 85.879 169.954C88.6589 154.898 89.035 139.98 89.035 139.98L76.0923 129.168Z" fill="#CCCCCC" stroke="black" stroke-width="0.5" stroke-miterlimit="10" stroke-linecap="round" stroke-linejoin="round"/>
<path d="M63.9657 86.0717C69.3304 86.0717 73.6794 81.7227 73.6794 76.358C73.6794 70.9932 69.3304 66.6442 63.9657 66.6442C58.6009 66.6442 54.252 70.9932 54.252 76.358C54.252 81.7227 58.6009 86.0717 63.9657 86.0717Z" fill="#808080" stroke="black" stroke-width="0.5" stroke-linecap="round" stroke-linejoin="round"/>
<path d="M96.7976 87.7094C95.0666 87.7728 94.1526 86.9969 93.1482 85.3959C86.6983 75.138 61.9983 74.343 55.1597 93.2041C51.0216 104.619 54.7201 109.564 39.5085 118.221C28.765 124.335 57.9808 137.398 64.5417 120.735C72.3832 100.817 95.3077 116.152 102.611 103.94C109.988 91.6063 101.38 87.5412 96.7976 87.7094Z" fill="#808080" stroke="black" stroke-width="0.5" stroke-linecap="round" stroke-linejoin="round"/>
<path d="M76.5858 101.449C76.5858 101.449 83.3911 104.693 88.294 96.6488C92.4797 89.7816 96.4813 93.0581 96.4813 93.0581C96.4813 93.0581 95.5071 101.858 95.1184 107.089C94.7233 112.408 94.6328 116.324 93.5697 118.796C91.4579 123.699 88.8478 128.197 81.925 124.825C75.5005 121.703 73.1093 115.343 73.387 109.955C68.8443 108.033 70.1359 100.485 72.1256 99.6746C75.0959 98.4735 76.5858 101.449 76.5858 101.449Z" fill="#E5E5E5" stroke="black" stroke-width="0.5" stroke-miterlimit="10" stroke-linecap="round" stroke-linejoin="round"/>
<path d="M94.4169 106.643C94.4169 106.643 97.1444 112.609 96.6192 114.516C96.094 116.424 93.2871 115.687 93.2871 115.687" fill="#E5E5E5"/>
<path d="M94.4169 106.643C94.4169 106.643 97.1444 112.609 96.6192 114.516C96.094 116.424 93.2871 115.687 93.2871 115.687" stroke="black" stroke-width="0.5" stroke-linecap="round" stroke-linejoin="round"/>
<path d="M90.3698 108.897C91.1296 108.897 91.7455 108.281 91.7455 107.521C91.7455 106.761 91.1296 106.145 90.3698 106.145C89.61 106.145 88.9941 106.761 88.9941 107.521C88.9941 108.281 89.61 108.897 90.3698 108.897Z" fill="black"/>
<path d="M85.1798 113.392L90.4683 118.49C90.4683 118.49 88.0755 120.595 85.6637 118.539C83.252 116.483 85.1798 113.392 85.1798 113.392Z" fill="white" stroke="black" stroke-width="0.5" stroke-linecap="round" stroke-linejoin="round"/>
<path d="M91.9386 102.283L87.499 104.046" stroke="black" stroke-width="0.5" stroke-linecap="round" stroke-linejoin="round"/>
<path d="M72.3111 102.556C72.3111 102.556 73.0553 121.615 66.7577 126.299C52.4108 136.962 39.4951 125.079 39.4951 125.079" fill="#808080"/>
<path d="M72.3111 102.556C72.3111 102.556 73.0553 121.615 66.7577 126.299C52.4108 136.962 39.4951 125.079 39.4951 125.079" stroke="black" stroke-width="0.5" stroke-linecap="round" stroke-linejoin="round"/>
<path d="M78.7435 106.724C79.3709 101.972 76.7672 97.7088 72.9281 97.202C69.089 96.6952 65.4683 100.137 64.8409 104.889C64.2136 109.641 66.8173 113.904 70.6564 114.411C74.4955 114.918 78.1162 111.476 78.7435 106.724Z" fill="#333333" stroke="black" stroke-width="0.5" stroke-linecap="round" stroke-linejoin="round"/>
<path d="M75.4157 106.396C75.868 102.969 73.9908 99.8953 71.2229 99.5299C68.455 99.1645 65.8445 101.646 65.3922 105.072C64.9399 108.499 66.8171 111.573 69.585 111.938C72.3529 112.304 74.9634 109.822 75.4157 106.396Z" fill="#4C4C4C" stroke="black" stroke-width="0.5" stroke-linecap="round" stroke-linejoin="round"/>
<path d="M73.173 124.6C73.9672 125.283 74.8761 125.82 75.8577 126.187L76.0307 125.722C72.916 124.557 70.7644 121.655 70.1281 117.76C69.3348 112.917 69.7458 105.644 69.7489 105.571L69.2555 105.542C69.2555 105.617 68.8398 112.942 69.6395 117.841C70.1044 120.687 71.3467 123.027 73.173 124.6Z" fill="black"/>
<path d="M76.371 127.509L78.9006 128.418C79.6156 128.675 80.4035 128.303 80.6604 127.588L80.6974 127.485C80.9543 126.77 80.5828 125.982 79.8678 125.725L77.3382 124.817C76.6232 124.56 75.8354 124.931 75.5785 125.646L75.5415 125.749C75.2846 126.464 75.656 127.252 76.371 127.509Z" fill="#333333" stroke="black" stroke-width="0.5" stroke-linecap="round" stroke-linejoin="round"/>
<path d="M71.3054 103.808C71.5164 100.124 71.637 96.1917 75.5402 89.6641C80.5669 81.2546 89.1747 81.6592 89.1747 81.6592L87.3563 80.8659C87.3563 80.8659 78.409 80.0598 72.6858 88.8628C69.3696 93.9624 67.583 100.287 67.4386 104.381C67.4053 105.333 67.7654 107.797 69.3886 107.641C71.0118 107.486 71.2514 104.876 71.3054 103.808Z" fill="#999999" stroke="black" stroke-width="0.5" stroke-linecap="round" stroke-linejoin="round"/>
<path d="M94.84 167.55L95.3572 159.775C95.3572 159.775 96.1966 146.02 89.0359 139.992C86.0862 137.509 82.7986 137.32 79.8521 138.011C72.9976 139.616 69.3307 145.666 69.445 153.243L69.5893 170.511C71.6757 170.744 73.7734 170.86 75.8727 170.86C82.3393 170.866 88.7576 169.746 94.84 167.55Z" fill="#CCCCCC" stroke="black" stroke-width="0.5" stroke-miterlimit="10" stroke-linecap="round" stroke-linejoin="round"/>
<path d="M21.5598 131.538C30.7055 131.538 38.1196 124.123 38.1196 114.978C38.1196 105.832 30.7055 98.4179 21.5598 98.4179C12.4141 98.4179 5 105.832 5 114.978C5 124.123 12.4141 131.538 21.5598 131.538Z" fill="white" stroke="#808080" stroke-width="0.5" stroke-miterlimit="10" stroke-linecap="round" stroke-linejoin="round"/>
<path d="M21.321 119.3V108.662H21.2136C21.1026 108.729 20.5852 109.085 19.6613 109.73L18.1182 110.803V109.61L18.9082 109.055C19.4016 108.709 19.8914 108.371 20.3774 108.039C20.864 107.706 21.1766 107.497 21.321 107.408H22.4311V119.301L21.321 119.3Z" fill="black"/>
<path d="M225.978 193.605C256.797 193.605 281.781 168.621 281.781 137.803C281.781 106.984 256.797 82.0001 225.978 82.0001C195.159 82.0001 170.176 106.984 170.176 137.803C170.176 168.621 195.159 193.605 225.978 193.605Z" fill="white" stroke="black" stroke-width="0.5" stroke-miterlimit="10" stroke-linecap="round" stroke-linejoin="round"/>
<path d="M225.88 193.458C247.944 194.008 267.029 180.643 276.081 162.041C274.452 160.772 269.48 156.964 265.566 154.85C250.202 146.545 238.734 147.858 233.947 147.964C231.549 148.016 228.055 148.489 228.055 148.489C228.504 147.854 216.012 147.658 205.378 153.157C196.589 157.703 187.395 167.226 182.887 173.222C190.939 182.89 205.061 192.943 225.88 193.458Z" fill="#333333" stroke="black" stroke-width="0.5" stroke-linecap="round" stroke-linejoin="round"/>
<path d="M212.479 133.219C216.957 133.219 220.587 129.589 220.587 125.111C220.587 120.633 216.957 117.003 212.479 117.003C208.001 117.003 204.371 120.633 204.371 125.111C204.371 129.589 208.001 133.219 212.479 133.219Z" fill="#4C4C4C" stroke="black" stroke-width="0.5" stroke-linecap="round" stroke-linejoin="round"/>
<path d="M239.481 128.67C239.481 128.67 242.217 125.796 241.938 123.099C241.658 120.401 238.867 119.008 237.101 122.077C235.155 125.484 233.381 128.987 231.786 132.571C230.307 135.942 226.096 139.312 219.843 138.983C219.086 138.944 218.18 144.646 218.18 144.646L217.612 154.723C217.612 154.723 216.555 161.324 226.974 162.815C230.878 163.372 233.7 162.373 235.7 160.911C238.536 158.833 240.102 155.437 240.021 151.923L239.481 128.67Z" fill="#E5E5E5" stroke="black" stroke-width="0.5" stroke-miterlimit="10" stroke-linecap="round" stroke-linejoin="round"/>
<path d="M206.85 109.27L210.975 139.039C210.975 139.039 212.062 145.003 221.361 142.73C230.661 140.456 236.097 118.95 236.097 118.95L235.97 105.125L206.85 109.27Z" fill="#E5E5E5" stroke="black" stroke-width="0.5" stroke-miterlimit="10" stroke-linecap="round" stroke-linejoin="round"/>
<path d="M231.652 107.433C231.652 107.433 232.922 115.537 232.07 120.762C231.218 125.987 231.084 129.279 229.112 129.203L224.365 129.02C222.847 128.959 221.335 129.24 219.941 129.844C218.366 130.528 215.895 131.984 213.217 131.881C212.059 131.843 210.921 131.573 209.869 131.088C209.869 131.088 205.509 144.081 213.974 146.38C222.439 148.68 230.175 145.152 233.282 140.545C235.376 137.438 236.427 128.962 236.589 124.392C236.619 123.53 236.874 122.691 237.326 121.957C237.779 121.222 238.414 120.618 239.17 120.203L240.941 112.543L231.652 107.433Z" fill="#1A1A1A" stroke="black" stroke-width="0.5" stroke-miterlimit="10" stroke-linecap="round" stroke-linejoin="round"/>
<path d="M216.593 132.564L222.608 130.163C222.608 130.163 223.363 133.095 221.47 134.046C217.78 135.899 216.593 132.564 216.593 132.564Z" fill="white"/>
<path d="M209.382 121.19L212.276 119.042" stroke="black" stroke-width="0.5" stroke-linecap="round" stroke-linejoin="round"/>
<path d="M220.318 118.342L225.082 118.937" stroke="black" stroke-width="0.5" stroke-linecap="round" stroke-linejoin="round"/>
<path d="M216.313 119.861C216.313 119.861 215.429 125.708 216.041 126.89C216.654 128.072 219.34 127.366 219.34 127.366" fill="#E5E5E5"/>
<path d="M216.313 119.861C216.313 119.861 215.429 125.708 216.041 126.89C216.654 128.072 219.34 127.366 219.34 127.366" stroke="black" stroke-width="0.5" stroke-linecap="round" stroke-linejoin="round"/>
<path d="M211.574 124.584C212.301 124.584 212.89 123.995 212.89 123.269C212.89 122.542 212.301 121.953 211.574 121.953C210.848 121.953 210.259 122.542 210.259 123.269C210.259 123.995 210.848 124.584 211.574 124.584Z" fill="black"/>
<path d="M222.48 123.359C223.207 123.359 223.796 122.77 223.796 122.044C223.796 121.317 223.207 120.728 222.48 120.728C221.754 120.728 221.165 121.317 221.165 122.044C221.165 122.77 221.754 123.359 222.48 123.359Z" fill="black"/>
<path d="M231.652 107.433C231.652 107.433 225.112 113.472 213.339 111.597C201.565 109.721 201.086 105.092 201.87 101.839C202.654 98.5861 206.646 97.4151 206.646 97.4151C206.646 97.4151 205.178 91.0874 211.96 90.7113C218.832 90.3289 221.163 94.1655 221.163 94.1655C221.163 94.1655 229.767 90.9271 236.339 95.2762C243.7 100.139 240.941 112.563 240.941 112.563L231.652 107.433Z" fill="#1A1A1A" stroke="black" stroke-width="0.5" stroke-miterlimit="10" stroke-linecap="round" stroke-linejoin="round"/>
<path d="M243.995 123.542C244.084 118.237 240.682 113.878 236.397 113.806C232.111 113.735 228.565 117.977 228.476 123.282C228.387 128.588 231.789 132.947 236.075 133.019C240.36 133.09 243.906 128.848 243.995 123.542Z" fill="#4C4C4C" stroke="black" stroke-width="0.5" stroke-linecap="round" stroke-linejoin="round"/>
<path d="M243.362 123.652C243.427 119.827 240.974 116.685 237.885 116.633C234.795 116.581 232.239 119.64 232.175 123.464C232.111 127.289 234.563 130.431 237.652 130.483C240.742 130.535 243.298 127.476 243.362 123.652Z" fill="#333333" stroke="black" stroke-width="0.5" stroke-linecap="round" stroke-linejoin="round"/>
<path d="M226.205 141.135C225.089 141.451 223.925 141.566 222.769 141.474L222.811 140.927C226.481 141.216 229.998 139.312 232.458 135.704C235.518 131.215 238.513 123.73 238.542 123.656L239.051 123.857C239.021 123.934 236.005 131.474 232.911 136.013C231.115 138.647 228.776 140.413 226.205 141.135Z" fill="black"/>
<path d="M221.905 139.43L218.941 139.158C218.104 139.081 217.363 139.697 217.287 140.534L217.275 140.655C217.198 141.492 217.815 142.233 218.651 142.31L221.616 142.582C222.452 142.659 223.193 142.043 223.27 141.206L223.281 141.084C223.358 140.248 222.742 139.507 221.905 139.43Z" fill="#333333" stroke="black" stroke-width="0.5" stroke-linecap="round" stroke-linejoin="round"/>
<path d="M237.113 121.33C237.483 117.261 237.992 112.938 234.785 105.155C230.66 95.1319 221.165 94.1656 221.165 94.1656L223.286 93.588C223.286 93.588 233.211 94.1656 238.043 104.736C240.84 110.862 241.765 118.077 241.256 122.582C241.137 123.626 240.34 126.268 238.587 125.833C236.834 125.398 237.005 122.51 237.113 121.33Z" fill="#999999" stroke="black" stroke-width="0.5" stroke-linecap="round" stroke-linejoin="round"/>
<path d="M255.044 180.245V185.239" stroke="black" stroke-width="0.5" stroke-linecap="round" stroke-linejoin="round"/>
<path d="M205.907 180.245V189.788" stroke="black" stroke-width="0.5" stroke-linecap="round" stroke-linejoin="round"/>
<path d="M172.56 154.538C181.706 154.538 189.12 147.124 189.12 137.978C189.12 128.832 181.706 121.418 172.56 121.418C163.414 121.418 156 128.832 156 137.978C156 147.124 163.414 154.538 172.56 154.538Z" fill="white" stroke="#808080" stroke-width="0.5" stroke-miterlimit="10" stroke-linecap="round" stroke-linejoin="round"/>
<path d="M168.781 132.727C168.778 132.088 168.947 131.46 169.272 130.909C169.59 130.375 170.05 129.941 170.6 129.654C171.19 129.349 171.847 129.195 172.511 129.206C173.475 129.178 174.413 129.517 175.135 130.155C175.474 130.445 175.745 130.806 175.929 131.212C176.112 131.618 176.204 132.06 176.197 132.505C176.189 133.148 176.008 133.776 175.672 134.324C175.32 134.924 174.656 135.744 173.679 136.785L170.469 140.21V140.308H176.493V141.329H168.848V140.539L172.996 136.052C173.825 135.164 174.38 134.486 174.661 134.017C174.931 133.574 175.075 133.066 175.078 132.548C175.084 132.231 175.02 131.918 174.893 131.628C174.765 131.339 174.575 131.08 174.338 130.871C173.835 130.417 173.176 130.174 172.498 130.192C172.156 130.179 171.814 130.235 171.493 130.356C171.172 130.477 170.878 130.661 170.63 130.897C170.388 131.136 170.198 131.421 170.07 131.736C169.943 132.051 169.882 132.388 169.89 132.727H168.794H168.781Z" fill="black"/>
<path d="M169.621 146.656L169.267 145.681H167.931L167.578 146.656H167.26L168.45 143.473H168.749L169.937 146.656H169.621ZM168.585 143.869L168.03 145.42H169.184L168.62 143.869H168.585Z" fill="black"/>
<path d="M172.58 146.656H171.412V143.474H172.556C172.804 143.46 173.05 143.535 173.249 143.685C173.333 143.755 173.399 143.843 173.443 143.943C173.487 144.042 173.508 144.151 173.503 144.26C173.506 144.429 173.447 144.592 173.338 144.721C173.233 144.85 173.084 144.935 172.92 144.959V144.989C173.125 145.003 173.317 145.092 173.46 145.239C173.529 145.31 173.582 145.394 173.617 145.486C173.652 145.578 173.669 145.677 173.666 145.775C173.672 145.898 173.65 146.021 173.6 146.134C173.551 146.247 173.476 146.346 173.381 146.425C173.148 146.592 172.865 146.673 172.58 146.656ZM171.714 143.74V144.876H172.426C172.627 144.889 172.827 144.838 172.998 144.73C173.063 144.682 173.116 144.618 173.151 144.544C173.186 144.471 173.202 144.389 173.198 144.308C173.202 144.229 173.187 144.15 173.155 144.078C173.123 144.006 173.074 143.942 173.013 143.892C172.864 143.784 172.683 143.73 172.5 143.74H171.714ZM171.714 146.39H172.539C172.754 146.404 172.968 146.347 173.148 146.229C173.218 146.173 173.273 146.102 173.309 146.02C173.346 145.939 173.362 145.85 173.357 145.761C173.361 145.671 173.344 145.582 173.305 145.501C173.267 145.421 173.209 145.351 173.137 145.298C172.946 145.181 172.725 145.125 172.502 145.139H171.719L171.714 146.39Z" fill="black"/>
<path d="M176.496 146.721C176.302 146.729 176.11 146.694 175.932 146.617C175.755 146.54 175.597 146.424 175.471 146.277C175.207 145.93 175.076 145.501 175.101 145.067C175.075 144.631 175.207 144.202 175.471 143.855C175.596 143.707 175.753 143.59 175.931 143.513C176.108 143.436 176.301 143.4 176.494 143.409C176.701 143.407 176.906 143.452 177.093 143.542C177.272 143.627 177.427 143.754 177.545 143.912C177.662 144.069 177.738 144.253 177.765 144.447H177.454C177.415 144.226 177.295 144.028 177.117 143.892C176.939 143.751 176.717 143.676 176.49 143.681C176.338 143.675 176.186 143.705 176.048 143.77C175.909 143.834 175.788 143.93 175.695 144.051C175.485 144.342 175.38 144.697 175.399 145.056C175.38 145.414 175.484 145.768 175.695 146.058C175.789 146.179 175.91 146.275 176.049 146.339C176.187 146.404 176.339 146.434 176.492 146.428C176.717 146.436 176.939 146.371 177.125 146.243C177.295 146.124 177.413 145.944 177.454 145.74H177.761C177.742 145.879 177.695 146.013 177.624 146.134C177.552 146.255 177.457 146.361 177.345 146.445C177.101 146.63 176.802 146.727 176.496 146.721Z" fill="black"/>
<path d="M368.068 160.605C398.887 160.605 423.87 135.621 423.87 104.802C423.87 73.9837 398.887 49.0001 368.068 49.0001C337.249 49.0001 312.266 73.9837 312.266 104.802C312.266 135.621 337.249 160.605 368.068 160.605Z" fill="white" stroke="black" stroke-width="0.5" stroke-miterlimit="10" stroke-linecap="round" stroke-linejoin="round"/>
<path d="M367.945 160.299C387.72 160.299 405.092 150.013 415.004 134.498C414.334 133.351 413.592 132.247 412.783 131.193C406.961 124.026 400.427 120.916 391.648 118.51C378.85 115.004 365.419 113.292 352.586 117.266C344.915 119.646 338.402 121.116 332.593 127.117C329.062 130.754 326.423 135.16 324.882 139.989C335.118 152.393 350.607 160.299 367.945 160.299Z" fill="#4C4C4C" stroke="black" stroke-width="0.5" stroke-linecap="round" stroke-linejoin="round"/>
<path d="M362.56 86.6022C363.261 81.31 360.261 76.5468 355.858 75.9633C351.456 75.3798 347.318 79.1969 346.617 84.4891C345.915 89.7813 348.916 94.5445 353.318 95.128C357.721 95.7115 361.859 91.8944 362.56 86.6022Z" fill="#333333" stroke="black" stroke-width="0.5" stroke-linecap="round" stroke-linejoin="round"/>
<path d="M396.599 126.03C402.311 123.67 407.329 125.758 407.329 125.758L387.495 110.453C387.495 110.453 392.165 84.2188 389.938 73.6308C387.712 63.0428 378.381 56.3359 368.06 56.3549C361.771 56.3724 356.382 60.1296 352.183 67.1016C346.471 76.5884 348.716 91.086 349.99 99.3114C351.312 107.829 355.019 113.209 355.019 113.209C355.019 113.209 348.8 115.177 342.181 118.014C338.128 119.75 338.633 123.662 339.102 126.953C339.664 130.885 345.517 146.801 352.797 158.224C357.727 159.608 362.824 160.308 367.945 160.304C371.316 160.305 374.68 160.002 377.997 159.4C385.513 146.857 392.325 127.793 396.599 126.03Z" fill="#B3B3B3" stroke="black" stroke-width="0.5" stroke-linecap="round" stroke-linejoin="round"/>
<path d="M367.829 104.9C371.897 103.719 375.062 100.616 377.636 97.3281C379.54 94.8988 381.32 92.3522 382.745 89.6104C383.505 88.149 384.376 86.7321 384.932 85.1677C385.646 83.17 385.973 81.0994 383.761 79.8919C383.191 79.5897 382.553 79.4415 381.908 79.4621C381.264 79.4827 380.636 79.6713 380.087 80.0093C380.508 77.7673 379.937 75.3793 378.65 73.5039C377.363 71.6284 369.244 68.7057 366.466 68.198C363.889 67.722 355.359 70.3971 354.34 71.9108C352.222 75.0731 351.525 78.9431 351.613 82.3529C351.771 88.2665 352.782 94.2277 355.343 99.6002C357.885 104.93 362.169 106.544 367.829 104.9Z" fill="#E5E5E5" stroke="black" stroke-width="0.5" stroke-linecap="round" stroke-linejoin="round"/>
<path d="M352.43 75.2968C352.43 75.2968 357.64 72.2202 365.487 73.1659C373.333 74.1115 381.117 84.5742 381.117 84.5742C381.117 84.5742 382.193 67.6537 368.723 65.0579C356.774 62.7413 352.43 75.2968 352.43 75.2968Z" fill="black" stroke="black" stroke-width="0.5" stroke-linecap="round" stroke-linejoin="round"/>
<path d="M360.31 108.876C360.31 108.876 367.827 110.84 375.348 107.194C385.692 102.178 385.097 82.3099 385.097 82.3099" stroke="black" stroke-width="0.5" stroke-linecap="round" stroke-linejoin="round"/>
<path d="M353.161 109.909C353.161 109.909 355.167 115.174 360.309 118.012C369.141 122.888 378.385 116.346 378.385 116.346" stroke="black" stroke-width="0.5" stroke-linecap="round" stroke-linejoin="round"/>
<path d="M363.942 98.3689C364.668 98.3442 365.374 98.125 365.987 97.7342C367.24 96.9409 367.732 95.4589 368.134 94.1356C365.576 94.9449 362.971 95.5998 360.335 96.0968C361.122 97.4724 362.241 98.4054 363.942 98.3689Z" fill="white" stroke="black" stroke-width="0.5" stroke-miterlimit="10" stroke-linecap="round" stroke-linejoin="round"/>
<path d="M362.237 84.2996C361.706 85.5277 361.342 86.77 360.895 88.0219C360.721 88.4506 360.611 88.9023 360.568 89.3627C360.547 89.5933 360.571 89.8258 360.64 90.0469C360.709 90.268 360.821 90.4733 360.969 90.6511C361.51 91.2413 362.428 91.2239 363.226 91.162C363.362 91.1685 363.495 91.1231 363.599 91.0351" stroke="black" stroke-width="0.5" stroke-linecap="round" stroke-linejoin="round"/>
<path d="M372.153 82.6114C370.817 82.0801 369.454 81.6224 368.068 81.2405" stroke="black" stroke-width="0.5" stroke-linecap="round" stroke-linejoin="round"/>
<path d="M359.031 80.0568L355.042 81.9402" stroke="black" stroke-width="0.5" stroke-linecap="round" stroke-linejoin="round"/>
<path d="M347.873 85.7258C345.176 88.0329 342.878 92.2456 345.095 95.5459C347.132 98.578 351.567 99.8871 355.023 99.0683" stroke="black" stroke-width="0.5" stroke-linecap="round" stroke-linejoin="round"/>
<path d="M357.293 100.25C358.743 99.9753 359.77 98.9704 359.587 98.0052C359.405 97.04 358.081 96.4801 356.631 96.7546C355.181 97.0291 354.154 98.034 354.337 98.9992C354.519 99.9644 355.843 100.524 357.293 100.25Z" fill="#333333" stroke="black" stroke-width="0.5" stroke-linecap="round" stroke-linejoin="round"/>
<path d="M389.079 87.3381C389.78 82.0459 386.78 77.2827 382.377 76.6992C377.974 76.1156 373.837 79.9328 373.135 85.2249C372.434 90.5171 375.434 95.2803 379.837 95.8638C384.24 96.4473 388.377 92.6302 389.079 87.3381Z" fill="#333333" stroke="black" stroke-width="0.5" stroke-linecap="round" stroke-linejoin="round"/>
<path d="M368.536 87.1364C369.312 87.1364 369.941 86.507 369.941 85.7306C369.941 84.9542 369.312 84.3248 368.536 84.3248C367.759 84.3248 367.13 84.9542 367.13 85.7306C367.13 86.507 367.759 87.1364 368.536 87.1364Z" fill="black"/>
<path d="M357.737 86.6653C358.513 86.6653 359.143 86.0359 359.143 85.2595C359.143 84.483 358.513 83.8536 357.737 83.8536C356.96 83.8536 356.331 84.483 356.331 85.2595C356.331 86.0359 356.96 86.6653 357.737 86.6653Z" fill="black"/>
<path d="M385.097 82.3528C385.097 82.3528 386.576 69.0103 380.813 62.8746C375.05 56.7388 368.067 56.3549 368.067 56.3549L365.777 56.6992C365.777 56.6992 373.736 57.0165 378.768 63.468C385.941 72.6708 379.869 83.0637 379.869 83.0637L385.097 82.3528Z" fill="#4C4C4C" stroke="black" stroke-width="0.5" stroke-linecap="round" stroke-linejoin="round"/>
<path d="M387.676 86.3822C388.098 83.1662 386.272 80.2743 383.596 79.923C380.921 79.5717 378.41 81.8939 377.987 85.1099C377.565 88.3259 379.392 91.2178 382.067 91.5691C384.743 91.9204 387.254 89.5982 387.676 86.3822Z" fill="#4C4C4C" stroke="black" stroke-width="0.5" stroke-linecap="round" stroke-linejoin="round"/>
<path d="M316.56 120.716C325.706 120.716 333.12 113.302 333.12 104.157C333.12 95.0109 325.706 87.5968 316.56 87.5968C307.414 87.5968 300 95.0109 300 104.157C300 113.302 307.414 120.716 316.56 120.716Z" fill="white" stroke="#808080" stroke-width="0.5" stroke-miterlimit="10" stroke-linecap="round" stroke-linejoin="round"/>
<path d="M314.637 101.862V100.891H316.026C316.708 100.921 317.377 100.693 317.899 100.254C318.135 100.048 318.323 99.791 318.448 99.5029C318.573 99.2149 318.632 98.9026 318.62 98.5888C318.627 98.2862 318.567 97.9858 318.443 97.7095C318.319 97.4333 318.135 97.1882 317.904 96.9921C317.397 96.5647 316.749 96.3418 316.086 96.3667C315.424 96.3415 314.776 96.5563 314.261 96.9717C314.024 97.1716 313.83 97.4184 313.692 97.6966C313.554 97.9749 313.475 98.2786 313.46 98.5888H312.37C312.386 98.1434 312.494 97.7061 312.687 97.3046C312.881 96.903 313.155 96.5458 313.493 96.2556C314.176 95.6709 315.055 95.3786 316.132 95.3786C317.071 95.3543 317.987 95.6734 318.707 96.276C319.039 96.5345 319.307 96.8655 319.491 97.2436C319.675 97.6217 319.771 98.0369 319.77 98.4574C319.791 99.112 319.584 99.7537 319.185 100.273C318.775 100.775 318.201 101.118 317.564 101.24V101.346C318.327 101.399 319.043 101.731 319.575 102.28C320.076 102.829 320.341 103.551 320.315 104.293C320.319 104.767 320.213 105.236 320.006 105.663C319.799 106.09 319.497 106.463 319.122 106.754C318.295 107.429 317.251 107.783 316.184 107.749C315.038 107.749 314.085 107.441 313.325 106.824C312.962 106.545 312.666 106.188 312.458 105.779C312.251 105.37 312.138 104.92 312.128 104.462H313.214C313.235 104.786 313.328 105.103 313.485 105.388C313.642 105.673 313.859 105.92 314.123 106.112C314.714 106.554 315.438 106.782 316.176 106.758C316.95 106.788 317.708 106.537 318.312 106.051C318.58 105.838 318.795 105.565 318.942 105.256C319.088 104.946 319.161 104.606 319.155 104.264C319.169 103.925 319.101 103.588 318.958 103.281C318.815 102.974 318.6 102.706 318.332 102.498C317.784 102.068 317.035 101.853 316.086 101.853L314.637 101.862Z" fill="black"/>
<path d="M311.34 109.653H312.387C312.591 109.641 312.796 109.673 312.987 109.746C313.179 109.818 313.352 109.931 313.497 110.075C313.775 110.398 313.917 110.817 313.891 111.243C313.916 111.669 313.775 112.088 313.499 112.414C313.354 112.558 313.18 112.671 312.989 112.743C312.798 112.816 312.593 112.847 312.389 112.836H311.342L311.34 109.653ZM311.641 109.927V112.562H312.37C312.536 112.571 312.703 112.545 312.858 112.485C313.013 112.425 313.153 112.333 313.27 112.214C313.496 111.943 313.611 111.597 313.59 111.244C313.61 110.893 313.496 110.547 313.27 110.277C313.154 110.157 313.013 110.064 312.858 110.004C312.703 109.944 312.537 109.917 312.37 109.927H311.641Z" fill="black"/>
<path d="M317.409 112.562V112.836H315.486V109.654H317.409V109.927H315.788V111.071H317.327V111.341H315.788V112.562H317.409Z" fill="black"/>
<path d="M319.331 112.836H319.031V109.654H320.919V109.927H319.335V111.123H320.791V111.391H319.335L319.331 112.836Z" fill="black"/>
<path d="M402.794 86.6216L417.338 72.3847L437.238 76.6175C437.324 76.6358 437.413 76.6316 437.496 76.6052C437.58 76.5789 437.655 76.5314 437.714 76.4673C437.774 76.4032 437.816 76.3247 437.836 76.2395C437.857 76.1544 437.854 76.0654 437.83 75.9813L421.853 20.9749C421.7 20.4454 421.342 19.9986 420.859 19.7327C420.376 19.4669 419.807 19.4037 419.277 19.5571L387.389 28.819C387.126 28.8952 386.882 29.0223 386.669 29.1931C386.456 29.3639 386.278 29.575 386.147 29.8143C386.015 30.0537 385.932 30.3166 385.902 30.5881C385.872 30.8595 385.896 31.1342 385.973 31.3964L401.949 86.4028C401.973 86.4877 402.019 86.5647 402.083 86.6263C402.146 86.688 402.224 86.732 402.309 86.7541C402.395 86.7762 402.484 86.7756 402.569 86.7524C402.655 86.7292 402.732 86.6841 402.794 86.6216Z" fill="#4C4C4C"/>
<path d="M418.207 46.0164C418.813 48.1021 418.565 50.3429 417.519 52.2461C416.472 54.1492 414.713 55.5587 412.627 56.1644C410.541 56.7702 408.3 56.5228 406.397 55.4765C404.493 54.4302 403.084 52.6707 402.477 50.585C402.037 49.0703 402.047 47.4603 402.504 45.9508C401.791 47.1389 401.33 48.4618 401.151 49.8363C400.973 51.2108 401.08 52.6074 401.467 53.9385C402.214 56.5098 403.952 58.6792 406.298 59.9694C408.644 61.2595 411.407 61.5647 413.978 60.8179C415.252 60.4481 416.44 59.8311 417.474 59.0022C418.509 58.1733 419.371 57.1487 420.009 55.9869C420.648 54.8251 421.052 53.5489 421.198 52.231C421.343 50.9132 421.228 49.5796 420.858 48.3064C420.471 46.9753 419.814 45.7385 418.927 44.6735C418.04 43.6085 416.942 42.7382 415.703 42.1173C416.897 43.1474 417.767 44.5019 418.207 46.0164Z" fill="white"/>
<path d="M405.975 44.3715L407.206 41.4811L404.838 39.4177L407.966 39.6956L409.197 36.8068L409.899 39.8676L413.027 40.1471L410.334 41.7606L411.036 44.8215L408.669 42.758L405.975 44.3715Z" fill="white"/>
<path d="M284.605 112.799L265.771 105.084L248.929 116.497C248.856 116.546 248.772 116.576 248.685 116.583C248.598 116.59 248.51 116.574 248.431 116.537C248.351 116.5 248.283 116.443 248.232 116.372C248.181 116.301 248.15 116.217 248.141 116.13L245.338 89.092L282.497 85.2398L285.3 112.278C285.309 112.365 285.296 112.453 285.261 112.533C285.226 112.614 285.17 112.683 285.1 112.736C285.03 112.788 284.948 112.821 284.861 112.832C284.774 112.843 284.686 112.832 284.605 112.799Z" fill="#4C4C4C"/>
<path d="M244.081 56.8716L277.11 53.4475C277.659 53.3907 278.207 53.554 278.635 53.9015C279.063 54.2491 279.335 54.7524 279.392 55.3007L281.103 71.8059L243.939 75.6586L242.228 59.1534C242.171 58.6051 242.334 58.0566 242.682 57.6287C243.03 57.2008 243.533 56.9285 244.081 56.8716Z" fill="#4C4C4C"/>
<path d="M280.554 66.5L243.39 70.3527L245.905 94.6118L283.069 90.759L280.554 66.5Z" fill="white"/>
<path d="M261.856 71.5697L258.379 70.9475L259.894 75.0209L257.767 75.0499L260.642 77.7541L254.5 77.4895L256.005 79.3801L252.666 81.6516L256.4 83.1883L255.314 85.3475L261.271 83.8287L259.013 87.0666L261.1 86.6588L260.453 90.9563L263.728 89.6342L264.272 90.3962L268.41 84.5084L270.448 85.4712L268.985 80.4719L273.888 80.3801L273.697 78.543L268.88 79.4571L269.286 74.2657L267.489 75.6245L262.231 70.7109L261.856 71.5697Z" fill="#333333"/>
<path d="M108.374 110.217L127.474 103.844L143.696 116.491C143.765 116.545 143.847 116.579 143.933 116.592C144.019 116.605 144.107 116.595 144.189 116.564C144.27 116.533 144.342 116.481 144.398 116.414C144.453 116.346 144.49 116.266 144.506 116.18L154.503 59.7797C154.552 59.5104 154.547 59.2341 154.489 58.9667C154.43 58.6992 154.32 58.446 154.163 58.2214C154.007 57.9968 153.808 57.8053 153.577 57.6579C153.346 57.5104 153.089 57.4099 152.819 57.3622L120.124 51.5664C119.581 51.4702 119.022 51.5936 118.57 51.9096C118.118 52.2257 117.809 52.7084 117.713 53.2516L107.715 109.652C107.701 109.738 107.709 109.827 107.738 109.909C107.768 109.991 107.819 110.064 107.885 110.121C107.951 110.178 108.031 110.216 108.117 110.233C108.203 110.25 108.291 110.244 108.374 110.217Z" fill="#4C4C4C"/>
<path d="M117.727 77.4967L119.114 77.3025L119.358 75.9261L119.97 77.1835L121.354 76.9891L120.347 77.9611L120.959 79.2185L119.726 78.5599L118.719 79.5304L118.963 78.154L117.727 77.4967Z" fill="white"/>
<path d="M118.281 83.9179L119.667 83.7253L119.911 82.3473L120.523 83.6063L121.908 83.4118L120.901 84.3823L121.513 85.6397L120.279 84.9827L119.272 85.9532L119.516 84.5767L118.281 83.9179Z" fill="white"/>
<path d="M120.455 71.657L121.841 71.4628L122.085 70.0864L122.697 71.3438L124.082 71.151L123.075 72.1214L123.687 73.3789L122.453 72.7218L121.446 73.6923L121.69 72.3143L120.455 71.657Z" fill="white"/>
<path d="M121.995 89.193L123.38 89.0002L123.624 87.6237L124.236 88.8811L125.622 88.687L124.614 89.6572L125.227 90.9149L123.992 90.2576L122.985 91.2281L123.229 89.8516L121.995 89.193Z" fill="white"/>
<path d="M125.754 67.9937L127.138 67.7992L127.382 66.4228L127.994 67.6802L129.381 67.4861L128.372 68.4578L128.986 69.7155L127.75 69.0566L126.744 70.0271L126.988 68.6507L125.754 67.9937Z" fill="white"/>
<path d="M127.824 91.9024L129.209 91.7095L129.453 90.3331L130.065 91.5905L131.451 91.3963L130.443 92.3666L131.056 93.6242L129.821 92.9669L128.814 93.9374L129.058 92.561L127.824 91.9024Z" fill="white"/>
<path d="M132.166 67.4063L133.55 67.2134L133.795 65.8354L134.406 67.0928L135.793 66.9002L134.784 67.8704L135.398 69.1281L134.162 68.4708L133.155 69.4413L133.399 68.0649L132.166 67.4063Z" fill="white"/>
<path d="M134.221 91.3797L135.607 91.1871L135.851 89.8107L136.463 91.0681L137.848 90.8736L136.841 91.8441L137.453 93.1015L136.219 92.4445L135.212 93.415L135.456 92.0386L134.221 91.3797Z" fill="white"/>
<path d="M137.986 70.1381L139.372 69.9455L139.616 68.5675L140.228 69.8249L141.613 69.632L140.606 70.6025L141.218 71.8599L139.984 71.2029L138.977 72.1734L139.222 70.7954L137.986 70.1381Z" fill="white"/>
<path d="M139.506 87.6997L140.892 87.5072L141.136 86.1307L141.748 87.3881L143.133 87.1937L142.126 88.1642L142.738 89.4216L141.504 88.7646L140.497 89.735L140.741 88.3586L139.506 87.6997Z" fill="white"/>
<path d="M141.681 75.4242L143.068 75.2316L143.312 73.8536L143.924 75.111L145.308 74.9182L144.301 75.8887L144.913 77.1461L143.679 76.489L142.673 77.4595L142.917 76.0815L141.681 75.4242Z" fill="white"/>
<path d="M142.311 81.8545L143.696 81.66L143.94 80.2836L144.552 81.541L145.937 81.3466L144.93 82.3186L145.542 83.576L144.308 82.9174L143.301 83.8879L143.545 82.5115L142.311 81.8545Z" fill="white"/>
<path d="M538.9 264.1C536.3 218.1 507.4 210.6 486.3 205.2L486 205.1C474.7 202.2 472.3 196.3 469.3 188.8C467 183.1 464.4 176.7 457.3 170.1C452.2 165.3 442.9 161 433.6 162C427 162.8 421.4 166.2 417.5 172C410.3 182.7 409.1 192.6 410.2 200.8C410 200.8 409.8 200.9 409.7 200.9C409.1 201.1 408.5 201.5 408.1 202L407.1 203.3L407 203.4C406.6 203.6 406.3 203.8 406.1 204.2C405.9 204.5 405.7 204.8 405.7 205.2L401.8 206.3C401.7 206.3 401.5 206.4 401.4 206.5C401.1 206.6 400.8 206.8 400.6 207C400.2 207.3 400 207.8 399.9 208.3L396.6 220.1L369.6 275.7C368.2 280 368.5 285 370.4 288.2C371.2 289.5 372.2 290.5 373.4 291.1L370.3 302.6C369.4 302.2 368.5 302 367.5 302H364.2C363.6 301.8 363 301.7 362.4 301.7H305.4V272.3H306C306.7 272.3 307.3 271.7 307.3 271V214.3C307.3 213.6 306.7 213 306 213H305.4V129C305.4 114.6 296.4 102.2 283.8 97.1L282.6 85.1L280.7 66.4L279.8 57.4C314.5 52.5 352.3 44.7 387.1 34.5L392.9 54.4C385.5 50.8 377.1 48.7 368.3 48.7C343.5 48.7 322.3 65 315 87.4C306.6 88.3 300 95.4 300 104.1C300 112.6 306.4 119.7 314.6 120.7C321.5 143.8 343 160.7 368.3 160.7C399.2 160.7 424.4 135.6 424.4 104.6C424.4 93.4 421.1 83 415.5 74.3L417.7 72.2L437.6 76.4C437.7 76.4 437.8 76.4 437.9 76.4C438 76.4 438.1 76.3 438.1 76.3C438.2 76.2 438.2 76.2 438.2 76.1C438.2 76 438.2 75.9 438.2 75.8L422.8 22.6C439.6 16.3 454.9 9.50002 468 2.00002C468.1 1.90002 468.2 1.80002 468.1 1.70002C468 1.60002 467.9 1.50002 467.8 1.60002C454.7 9.00002 439.4 15.9 422.7 22.1L422.3 20.8C422.1 20.3 421.8 19.8 421.3 19.6C420.8 19.3 420.2 19.3 419.7 19.4L387.8 28.7C387.5 28.8 387.3 28.9 387.1 29.1C386.9 29.3 386.7 29.5 386.6 29.7C386.5 29.9 386.4 30.2 386.4 30.5C386.4 30.8 386.4 31 386.5 31.3L387.3 34C352 44.3 314.3 52.1 279.6 57L279.4 55.3C279.3 54.8 279.1 54.2 278.6 53.9C278.2 53.6 277.6 53.4 277.1 53.4L244.1 56.8C243.6 56.9 243 57.1 242.7 57.6C242.4 58 242.2 58.6 242.2 59.1L242.4 61.1C236.7 61.6 231.2 61.9 226 62.2C200.6 63.5 176.6 62.7 154.4 60.5L154.5 59.7C154.5 59.4 154.5 59.2 154.5 58.9C154.4 58.6 154.3 58.4 154.2 58.2C154 58 153.8 57.8 153.6 57.6C153.4 57.5 153.1 57.4 152.8 57.3L120.1 51.5C119.6 51.4 119 51.5 118.5 51.8C118 52.1 117.7 52.6 117.6 53.1L117.2 55.2C73.0998 47.1 38.4998 33.5 17.4998 20.6C17.3998 20.5 17.1998 20.6 17.1998 20.7C17.0998 20.8 17.1998 21 17.2998 21C28.7998 28.1 54.6998 41.5 98.4998 51.7C104.7 53.1 110.9 54.4 117.2 55.6L114 73.7C104 64.3 90.4998 58.6 75.7998 58.6C50.6998 58.6 29.2998 75.2 22.2998 98.1C22.0998 98.1 21.7998 98.1 21.5998 98.1C12.2998 98.1 4.7998 105.6 4.7998 114.9C4.7998 124.2 12.2998 131.7 21.5998 131.7C21.8998 131.7 22.1998 131.7 22.3998 131.7C25.3998 141 30.6998 149.2 37.5998 155.7V155.8C37.5998 155.9 37.5998 156 37.6998 156.1C46.4998 164.3 57.5998 169.4 69.4998 170.7C69.4998 170.7 69.4998 170.7 69.5998 170.7C69.7998 170.7 69.9998 170.7 70.2998 170.8C70.6998 170.8 70.9998 170.9 71.3998 170.9C71.9998 171 72.5998 171 73.2998 171C73.3998 171 73.4998 171 73.5998 171C74.3998 171 75.1998 171.1 75.9998 171.1C75.9998 171.1 75.9998 171.1 76.0998 171.1C80.4998 171.1 84.7998 170.6 88.9998 169.6V200.3H87.9998C87.3998 200.3 86.9998 200.8 86.9998 201.3V236.4C86.9998 237 87.4998 237.4 87.9998 237.4H88.7998V247.3H87.9998C87.3998 247.3 86.9998 247.8 86.9998 248.3V283.4C86.9998 284 87.4998 284.4 87.9998 284.4H88.7998V504.5C88.7998 523.4 104.2 538.8 123.1 538.8H271C280.3 538.8 288.8 535 295 529L292.9 542.7C292.8 543.1 292.9 543.5 293 543.9C293.1 544.3 293.3 544.7 293.6 545C293.9 545.3 294.2 545.6 294.6 545.8C295 546 295.4 546.1 295.8 546.1H295.9C296.6 546.1 297.2 545.9 297.7 545.5C298.2 545.1 298.6 544.5 298.7 543.8L306.3 505.5L316.3 506.9C316.4 506.9 316.4 506.9 316.5 506.8C316.6 506.8 316.6 506.7 316.6 506.6L319 476.2C319 476.1 319 476.1 318.9 476C318.9 475.9 318.8 475.9 318.7 475.9H318.4L322.1 465.8L330.4 468.5H330.5C330.6 468.5 330.7 468.4 330.7 468.3L348.7 416.9H352.2L355.1 492.4C355.1 492.5 355.2 492.6 355.3 492.6H363.2L363.8 507.4C363.4 507.9 363.1 508.4 362.8 508.9L359 508.8C358.9 508.8 358.9 508.8 358.8 508.9C358.7 509 358.7 509 358.7 509.1L358.3 539.7C358.3 540.2 358.4 540.6 358.5 541.1C358.4 541.2 358.4 541.2 358.4 541.3V541.4V541.5C358.5 543.9 360.9 545.8 364.1 545.9L378.1 546.3C378.2 546.3 378.3 546.3 378.3 546.3C378.8 546.3 379.3 546.2 379.8 546.1C381.4 545.8 382.8 544.9 383.5 543.7C384.3 542.7 384.7 541.6 384.8 540.3L385.7 509.9C385.7 509.8 385.7 509.8 385.6 509.7C385.6 509.7 385.5 509.6 385.4 509.6L381.9 509.5L381.8 492.6H387C387.1 492.6 387.2 492.5 387.2 492.4L389.3 445.4L394.9 416.9H401.3L426.4 543.6C426.5 544.3 426.9 544.9 427.4 545.3C427.9 545.7 428.6 545.9 429.2 545.9H429.3C429.7 545.9 430.1 545.8 430.5 545.6C430.9 545.4 431.2 545.2 431.5 544.8C431.8 544.5 432 544.1 432.1 543.7C432.2 543.3 432.2 542.9 432.2 542.5L413.1 416.8H423.3H462.6L487.7 543.5C487.8 544.2 488.2 544.8 488.7 545.2C489.2 545.6 489.9 545.8 490.5 545.8H490.6C491 545.8 491.4 545.7 491.8 545.5C492.2 545.3 492.5 545.1 492.8 544.7C493.1 544.4 493.3 544 493.4 543.6C493.5 543.2 493.5 542.8 493.5 542.4L474.4 416.7H486.6C494.4 416.7 500.8 410.3 500.8 402.5C500.8 395.5 495.7 389.7 489.1 388.5H492C493.1 388.5 494.3 388.1 495.2 387.4C496.1 386.7 496.7 385.7 497 384.6L511.4 322C511.6 321.3 511.6 320.5 511.4 319.7C511.3 319.4 511.2 319.2 511.1 318.9L511.8 315.8C514.7 314 517.5 312 520.2 309.7C529.6 302.2 540.2 287.7 538.9 264.1ZM418.1 220C418.4 220.4 418.7 220.8 418.9 221.2L417.1 221.5L418.1 220ZM305.4 423.8V417.3H307.5L305.4 423.8ZM409.4 225.9C408.1 226.9 406.8 228 405.4 229.2L406 227.2L409.4 225.9ZM201.7 63.4C209.8 63.4 217.9 63.2 226 62.8C231.3 62.5 236.8 62.2 242.5 61.7L244 75.7L245 85.1C239.1 83 232.7 81.8 226.1 81.8C212.5 81.8 200 86.7 190.3 94.8H148.5L154.5 61.1C169.9 62.6 185.8 63.4 201.7 63.4Z" fill="url(#paint0_linear_2402_530850)" style="mix-blend-mode:overlay"/>
<defs>
<linearGradient id="paint0_linear_2402_530850" x1="4.7998" y1="1.55859" x2="539.009" y2="1.55858" gradientUnits="userSpaceOnUse">
<stop stop-color="#F38478"/>
<stop offset="1" stop-color="#5D6AE8"/>
</linearGradient>
</defs>
</svg>
