<svg width="231" height="161" viewBox="0 0 231 161" fill="none" xmlns="http://www.w3.org/2000/svg">
<rect x="0.22876" y="0.988281" width="230.602" height="159.036" rx="12.7229" fill="white"/>
<path d="M20.6519 23.0508C19.8355 23.0508 19.1342 22.8875 18.5478 22.5609C17.9689 22.227 17.5236 21.7594 17.2119 21.1582C16.9002 20.5497 16.7444 19.8335 16.7444 19.0097C16.7444 18.1859 16.9002 17.4734 17.2119 16.8722C17.5236 16.2711 17.9689 15.8072 18.5478 15.4807C19.1342 15.1467 19.8355 14.9797 20.6519 14.9797C21.2011 14.9797 21.6946 15.0576 22.1325 15.2135C22.5778 15.3693 22.96 15.5994 23.2792 15.9037L22.8116 17.0392C22.4628 16.7572 22.1251 16.5568 21.7985 16.4381C21.4794 16.3119 21.112 16.2488 20.6964 16.2488C19.9023 16.2488 19.2937 16.49 18.8707 16.9724C18.4551 17.4474 18.2473 18.1265 18.2473 19.0097C18.2473 19.596 18.34 20.0969 18.5256 20.5126C18.7111 20.9282 18.9857 21.2436 19.3494 21.4588C19.7205 21.6741 20.1695 21.7817 20.6964 21.7817C21.112 21.7817 21.4794 21.7223 21.7985 21.6035C22.1251 21.4774 22.4628 21.2696 22.8116 20.9801L23.2792 22.1156C22.96 22.4125 22.5778 22.6426 22.1325 22.8059C21.6946 22.9691 21.2011 23.0508 20.6519 23.0508ZM24.5101 22.9395V14.7459H25.9017V18.4419H25.7458C25.9165 18.0411 26.18 17.7369 26.5362 17.529C26.8925 17.3138 27.3006 17.2062 27.7608 17.2062C28.4287 17.2062 28.926 17.3955 29.2525 17.774C29.5791 18.145 29.7424 18.7128 29.7424 19.4772V22.9395H28.3508V19.544C28.3508 19.1062 28.2655 18.7907 28.0948 18.5978C27.9315 18.3974 27.668 18.2972 27.3044 18.2972C26.8813 18.2972 26.5399 18.4308 26.2802 18.698C26.0278 18.9577 25.9017 19.3065 25.9017 19.7444V22.9395H24.5101ZM33.3887 23.0508C32.8989 23.0508 32.4684 22.9357 32.0973 22.7057C31.7263 22.4682 31.4368 22.1305 31.229 21.6926C31.0212 21.2547 30.9173 20.7315 30.9173 20.1229C30.9173 19.5143 31.0212 18.9948 31.229 18.5644C31.4368 18.1265 31.7263 17.7925 32.0973 17.5624C32.4684 17.3249 32.8989 17.2062 33.3887 17.2062C33.8637 17.2062 34.2793 17.3249 34.6356 17.5624C34.9992 17.7925 35.2404 18.1042 35.3592 18.4976H35.2367L35.3592 17.3175H36.6951C36.6728 17.5476 36.6505 17.7814 36.6283 18.0189C36.6134 18.2564 36.606 18.4902 36.606 18.7202V22.9395H35.2256L35.2145 21.7817H35.348C35.2293 22.1676 34.9881 22.4756 34.6244 22.7057C34.2608 22.9357 33.8489 23.0508 33.3887 23.0508ZM33.7784 21.9821C34.2162 21.9821 34.5688 21.8299 34.8359 21.5256C35.1031 21.2139 35.2367 20.7463 35.2367 20.1229C35.2367 19.4995 35.1031 19.0356 34.8359 18.7314C34.5688 18.4271 34.2162 18.2749 33.7784 18.2749C33.3405 18.2749 32.9879 18.4271 32.7208 18.7314C32.4536 19.0356 32.32 19.4995 32.32 20.1229C32.32 20.7463 32.4499 21.2139 32.7096 21.5256C32.9768 21.8299 33.3331 21.9821 33.7784 21.9821ZM38.1213 22.9395V18.7202C38.1213 18.4902 38.1139 18.2564 38.0991 18.0189C38.0842 17.7814 38.062 17.5476 38.0323 17.3175H39.3793L39.4906 18.4308H39.3571C39.5352 18.0374 39.7986 17.7369 40.1475 17.529C40.4963 17.3138 40.9008 17.2062 41.3609 17.2062C42.0214 17.2062 42.5187 17.3917 42.8527 17.7628C43.1866 18.1339 43.3536 18.7128 43.3536 19.4995V22.9395H41.9621V19.5663C41.9621 19.1136 41.873 18.7907 41.6949 18.5978C41.5242 18.3974 41.2644 18.2972 40.9156 18.2972C40.4852 18.2972 40.1438 18.4308 39.8914 18.698C39.6391 18.9651 39.5129 19.3214 39.5129 19.7667V22.9395H38.1213ZM44.8291 22.9395V18.7202C44.8291 18.4902 44.8217 18.2564 44.8069 18.0189C44.792 17.7814 44.7698 17.5476 44.7401 17.3175H46.0871L46.1984 18.4308H46.0648C46.243 18.0374 46.5064 17.7369 46.8553 17.529C47.2041 17.3138 47.6086 17.2062 48.0687 17.2062C48.7292 17.2062 49.2265 17.3917 49.5605 17.7628C49.8944 18.1339 50.0614 18.7128 50.0614 19.4995V22.9395H48.6699V19.5663C48.6699 19.1136 48.5808 18.7907 48.4027 18.5978C48.232 18.3974 47.9722 18.2972 47.6234 18.2972C47.1929 18.2972 46.8515 18.4308 46.5992 18.698C46.3469 18.9651 46.2207 19.3214 46.2207 19.7667V22.9395H44.8291ZM54.2533 23.0508C53.6224 23.0508 53.0806 22.9357 52.6279 22.7057C52.1826 22.4682 51.8375 22.1305 51.5926 21.6926C51.3551 21.2547 51.2363 20.7352 51.2363 20.1341C51.2363 19.5477 51.3514 19.0356 51.5814 18.5978C51.8115 18.1599 52.1307 17.8185 52.5388 17.5736C52.9545 17.3287 53.4369 17.2062 53.9861 17.2062C54.5279 17.2062 54.9806 17.3212 55.3442 17.5513C55.7079 17.7814 55.9825 18.1042 56.168 18.5198C56.361 18.9355 56.4575 19.4216 56.4575 19.9782V20.3456H52.3607V19.6108H55.4667L55.2774 19.7667C55.2774 19.2472 55.1661 18.8501 54.9435 18.5755C54.7282 18.3009 54.4128 18.1636 53.9972 18.1636C53.6855 18.1636 53.422 18.2378 53.2068 18.3862C52.999 18.5347 52.8394 18.7462 52.7281 19.0208C52.6168 19.2954 52.5611 19.6294 52.5611 20.0227V20.1675C52.5611 20.776 52.7095 21.2325 53.0064 21.5368C53.3107 21.8336 53.7374 21.9821 54.2867 21.9821C54.6058 21.9821 54.9027 21.9412 55.1773 21.8596C55.4593 21.7705 55.7265 21.6295 55.9788 21.4366L56.3907 22.3717C56.1235 22.5869 55.8044 22.7539 55.4333 22.8727C55.0622 22.9914 54.6689 23.0508 54.2533 23.0508ZM57.6359 22.9395V14.7459H59.0275V22.9395H57.6359ZM62.5425 23.0508C62.0601 23.0508 61.6148 22.9951 61.2066 22.8838C60.8058 22.765 60.4681 22.6018 60.1935 22.394L60.5831 21.4588C60.8652 21.6518 61.1769 21.8002 61.5183 21.9041C61.8597 22.008 62.2048 22.06 62.5536 22.06C62.9247 22.06 63.1993 21.9969 63.3774 21.8707C63.5629 21.7446 63.6557 21.5739 63.6557 21.3586C63.6557 21.1879 63.5963 21.0543 63.4776 20.9579C63.3663 20.854 63.1844 20.776 62.9321 20.7241L61.8189 20.5126C61.3439 20.4087 60.9802 20.2305 60.7279 19.9782C60.4829 19.7259 60.3605 19.3956 60.3605 18.9874C60.3605 18.6386 60.4533 18.3306 60.6388 18.0634C60.8318 17.7962 61.1027 17.5884 61.4515 17.44C61.8077 17.2841 62.2233 17.2062 62.6983 17.2062C63.1139 17.2062 63.5036 17.2619 63.8672 17.3732C64.2383 17.4845 64.55 17.6515 64.8024 17.8742L64.4016 18.7759C64.1715 18.5903 63.9081 18.4456 63.6112 18.3417C63.3143 18.2378 63.0249 18.1859 62.7428 18.1859C62.3569 18.1859 62.0749 18.2564 61.8968 18.3974C61.7187 18.531 61.6296 18.7054 61.6296 18.9206C61.6296 19.0839 61.6815 19.2212 61.7855 19.3325C61.8968 19.4364 62.0675 19.5143 62.2975 19.5663L63.4108 19.7778C63.9081 19.8743 64.2828 20.045 64.5352 20.2899C64.7949 20.5274 64.9248 20.854 64.9248 21.2696C64.9248 21.6407 64.8246 21.9598 64.6242 22.227C64.4239 22.4942 64.1455 22.6982 63.7893 22.8393C63.4331 22.9803 63.0175 23.0508 62.5425 23.0508Z" fill="black"/>
<circle cx="144.951" cy="54.2647" r="3.18072" fill="#FF0090"/>
<circle cx="144.951" cy="70.168" r="3.18072" fill="#5D6AE8"/>
<circle cx="144.951" cy="86.0723" r="3.18072" fill="#F38478"/>
<circle cx="144.951" cy="101.977" r="3.18072" fill="#2100FF"/>
<circle cx="144.951" cy="117.88" r="3.18072" fill="#00D2FE"/>
<circle cx="144.951" cy="133.784" r="3.18072" fill="#00AAB9"/>
<circle cx="66.2282" cy="94.0241" r="50.0964" fill="#FF0090"/>
<path fill-rule="evenodd" clip-rule="evenodd" d="M66.2282 43.9277C38.5608 43.9277 16.1318 66.3567 16.1318 94.0241C16.1318 121.692 38.5608 144.121 66.2282 144.121V43.9277Z" fill="#5D6AE8"/>
<path fill-rule="evenodd" clip-rule="evenodd" d="M66.2282 43.9277C38.5608 43.9277 16.1318 66.3566 16.1318 94.0241C16.1318 106.997 21.0628 118.818 29.1526 127.715C66.2282 94.0241 66.2282 94.0241 66.2282 94.0241V43.9277Z" fill="#F38478"/>
<path fill-rule="evenodd" clip-rule="evenodd" d="M66.2282 43.9277C38.5608 43.9277 16.1318 66.3567 16.1318 94.0241C66.2282 94.0241 66.2282 94.0241 66.2282 94.0241V43.9277Z" fill="#2100FF"/>
<path fill-rule="evenodd" clip-rule="evenodd" d="M66.228 43.9277C51.2216 43.9277 37.7563 50.5259 28.575 60.9793C66.228 94.0241 66.228 94.0241 66.228 94.0241V43.9277Z" fill="#00D2FE"/>
<path fill-rule="evenodd" clip-rule="evenodd" d="M66.2277 43.9277C60.2585 43.9277 54.5331 44.9718 49.2241 46.8872C66.2277 94.0241 66.2277 94.0241 66.2277 94.0241V43.9277Z" fill="#00AAB9"/>
<circle cx="66.228" cy="94.0246" r="30.0578" fill="white"/>
<path d="M155.193 56.9043V51.2983H157.054C157.674 51.2983 158.199 51.4069 158.628 51.6243C159.058 51.8363 159.384 52.1518 159.606 52.5706C159.829 52.9841 159.94 53.493 159.94 54.0973C159.94 54.6963 159.829 55.2053 159.606 55.6241C159.384 56.0429 159.058 56.3609 158.628 56.5783C158.199 56.7956 157.674 56.9043 157.054 56.9043H155.193ZM155.853 56.3397H157.006C157.769 56.3397 158.337 56.1542 158.708 55.7831C159.079 55.4067 159.264 54.8448 159.264 54.0973C159.264 53.3445 159.079 52.7826 158.708 52.4115C158.337 52.0404 157.769 51.8549 157.006 51.8549H155.853V56.3397ZM161.062 56.9043V52.9125H161.706V56.9043H161.062ZM160.982 52.006V51.2824H161.778V52.006H160.982ZM162.941 56.9043V53.8747C162.941 53.7156 162.935 53.5539 162.925 53.3896C162.92 53.2253 162.909 53.0662 162.893 52.9125H163.513L163.593 53.8826L163.482 53.8906C163.535 53.652 163.627 53.4559 163.76 53.3021C163.892 53.1484 164.049 53.0344 164.229 52.9602C164.409 52.8807 164.597 52.8409 164.794 52.8409C164.873 52.8409 164.942 52.8436 165 52.8489C165.064 52.8542 165.122 52.8674 165.175 52.8886L165.167 53.4612C165.088 53.4347 165.014 53.4188 164.945 53.4135C164.881 53.4029 164.807 53.3976 164.722 53.3976C164.489 53.3976 164.285 53.4532 164.11 53.5645C163.94 53.6759 163.81 53.819 163.72 53.9939C163.635 54.1689 163.593 54.3544 163.593 54.5506V56.9043H162.941ZM167.572 56.9759C167.159 56.9759 166.801 56.8963 166.499 56.7373C166.196 56.573 165.963 56.3371 165.799 56.0296C165.634 55.7168 165.552 55.3457 165.552 54.9163C165.552 54.4975 165.632 54.1344 165.791 53.8269C165.95 53.5142 166.173 53.273 166.459 53.1033C166.745 52.9284 167.074 52.8409 167.445 52.8409C167.811 52.8409 168.118 52.9178 168.367 53.0715C168.616 53.2253 168.807 53.4453 168.94 53.7315C169.072 54.0125 169.139 54.3465 169.139 54.7335V54.972H166.045V54.5665H168.717L168.582 54.6698C168.582 54.2457 168.487 53.9144 168.296 53.6759C168.105 53.4373 167.821 53.318 167.445 53.318C167.174 53.318 166.944 53.3816 166.753 53.5089C166.568 53.6361 166.424 53.8137 166.324 54.0416C166.228 54.2696 166.181 54.5426 166.181 54.8607V54.9322C166.181 55.4306 166.302 55.8096 166.546 56.0694C166.795 56.3238 167.143 56.451 167.588 56.451C167.827 56.451 168.049 56.4166 168.256 56.3477C168.468 56.2735 168.669 56.1542 168.86 55.9898L169.083 56.4431C168.908 56.6127 168.685 56.7453 168.415 56.8407C168.15 56.9308 167.869 56.9759 167.572 56.9759ZM171.802 56.9759C171.41 56.9759 171.068 56.891 170.776 56.7214C170.49 56.5518 170.267 56.3106 170.108 55.9978C169.955 55.685 169.878 55.3139 169.878 54.8845C169.878 54.4498 169.957 54.0814 170.116 53.7792C170.275 53.4718 170.498 53.2385 170.784 53.0795C171.076 52.9204 171.415 52.8409 171.802 52.8409C172.056 52.8409 172.303 52.886 172.542 52.9761C172.785 53.0662 172.987 53.1935 173.146 53.3578L172.915 53.819C172.756 53.6653 172.581 53.5513 172.39 53.4771C172.205 53.4029 172.022 53.3657 171.842 53.3657C171.428 53.3657 171.108 53.4956 170.88 53.7554C170.652 54.0151 170.538 54.3942 170.538 54.8925C170.538 55.3855 170.652 55.7672 170.88 56.0375C171.108 56.3079 171.428 56.4431 171.842 56.4431C172.017 56.4431 172.197 56.4086 172.382 56.3397C172.573 56.2708 172.751 56.1568 172.915 55.9978L173.146 56.451C172.982 56.6207 172.777 56.7506 172.534 56.8407C172.29 56.9308 172.046 56.9759 171.802 56.9759ZM175.477 56.9759C175.084 56.9759 174.785 56.8645 174.578 56.6419C174.371 56.4139 174.268 56.072 174.268 55.6161V53.4135H173.489V52.9125H174.268V51.8231L174.912 51.6402V52.9125H176.057V53.4135H174.912V55.5445C174.912 55.8626 174.965 56.0906 175.071 56.2284C175.182 56.3609 175.347 56.4272 175.564 56.4272C175.665 56.4272 175.755 56.4192 175.835 56.4033C175.914 56.3821 175.986 56.3583 176.049 56.3318V56.8725C175.975 56.9043 175.885 56.9282 175.779 56.9441C175.678 56.9653 175.577 56.9759 175.477 56.9759Z" fill="black"/>
<path d="M155.193 72.8066V67.2006H157.483C158.071 67.2006 158.527 67.3411 158.851 67.6221C159.174 67.8977 159.336 68.2847 159.336 68.783C159.336 69.1117 159.262 69.3927 159.113 69.6259C158.97 69.8539 158.766 70.0288 158.501 70.1507C158.241 70.2727 157.936 70.3336 157.586 70.3336L157.73 70.2303H157.889C158.106 70.2303 158.299 70.2833 158.469 70.3893C158.644 70.4953 158.782 70.6729 158.883 70.9221L159.678 72.8066H158.954L158.191 70.9539C158.101 70.7153 157.965 70.5616 157.785 70.4927C157.605 70.4184 157.38 70.3813 157.109 70.3813H155.853V72.8066H155.193ZM155.853 69.8645H157.388C157.812 69.8645 158.132 69.7744 158.35 69.5941C158.572 69.4086 158.684 69.1435 158.684 68.7989C158.684 68.4544 158.572 68.1919 158.35 68.0117C158.132 67.8315 157.812 67.7413 157.388 67.7413H155.853V69.8645ZM162.315 72.8782C161.901 72.8782 161.544 72.7987 161.241 72.6397C160.939 72.4753 160.706 72.2394 160.542 71.9319C160.377 71.6192 160.295 71.2481 160.295 70.8187C160.295 70.3999 160.375 70.0368 160.534 69.7293C160.693 69.4165 160.915 69.1753 161.202 69.0057C161.488 68.8307 161.817 68.7433 162.188 68.7433C162.553 68.7433 162.861 68.8201 163.11 68.9739C163.359 69.1276 163.55 69.3476 163.683 69.6339C163.815 69.9148 163.881 70.2488 163.881 70.6358V70.8744H160.788V70.4688H163.46L163.325 70.5722C163.325 70.1481 163.229 69.8168 163.038 69.5782C162.848 69.3397 162.564 69.2204 162.188 69.2204C161.917 69.2204 161.687 69.284 161.496 69.4112C161.31 69.5384 161.167 69.716 161.066 69.944C160.971 70.1719 160.923 70.445 160.923 70.763V70.8346C160.923 71.3329 161.045 71.7119 161.289 71.9717C161.538 72.2262 161.885 72.3534 162.331 72.3534C162.569 72.3534 162.792 72.3189 162.999 72.25C163.211 72.1758 163.412 72.0565 163.603 71.8922L163.826 72.3454C163.651 72.5151 163.428 72.6476 163.158 72.743C162.893 72.8331 162.612 72.8782 162.315 72.8782ZM165.074 72.8066V69.3158H164.294V68.8148H165.249L165.074 68.9818V68.3139C165.074 67.8633 165.188 67.5187 165.416 67.2801C165.644 67.0416 165.97 66.9223 166.394 66.9223C166.5 66.9223 166.608 66.9329 166.72 66.9541C166.836 66.97 166.932 66.9939 167.006 67.0257V67.5584C166.942 67.5319 166.863 67.5107 166.767 67.4948C166.677 67.4736 166.585 67.463 166.489 67.463C166.325 67.463 166.184 67.4975 166.068 67.5664C165.951 67.63 165.864 67.7281 165.805 67.8606C165.747 67.9931 165.718 68.1628 165.718 68.3695V68.95L165.614 68.8148H166.831V69.3158H165.718V72.8066H165.074ZM169.218 72.8782C168.805 72.8782 168.447 72.7987 168.145 72.6397C167.843 72.4753 167.609 72.2394 167.445 71.9319C167.281 71.6192 167.199 71.2481 167.199 70.8187C167.199 70.3999 167.278 70.0368 167.437 69.7293C167.596 69.4165 167.819 69.1753 168.105 69.0057C168.391 68.8307 168.72 68.7433 169.091 68.7433C169.457 68.7433 169.764 68.8201 170.014 68.9739C170.263 69.1276 170.454 69.3476 170.586 69.6339C170.719 69.9148 170.785 70.2488 170.785 70.6358V70.8744H167.692V70.4688H170.363L170.228 70.5722C170.228 70.1481 170.133 69.8168 169.942 69.5782C169.751 69.3397 169.468 69.2204 169.091 69.2204C168.821 69.2204 168.59 69.284 168.399 69.4112C168.214 69.5384 168.071 69.716 167.97 69.944C167.875 70.1719 167.827 70.445 167.827 70.763V70.8346C167.827 71.3329 167.949 71.7119 168.193 71.9717C168.442 72.2262 168.789 72.3534 169.234 72.3534C169.473 72.3534 169.695 72.3189 169.902 72.25C170.114 72.1758 170.316 72.0565 170.507 71.8922L170.729 72.3454C170.554 72.5151 170.332 72.6476 170.061 72.743C169.796 72.8331 169.515 72.8782 169.218 72.8782ZM171.755 72.8066V69.777C171.755 69.618 171.749 69.4563 171.739 69.2919C171.733 69.1276 171.723 68.9686 171.707 68.8148H172.327L172.407 69.785L172.295 69.7929C172.348 69.5544 172.441 69.3582 172.574 69.2045C172.706 69.0507 172.863 68.9368 173.043 68.8625C173.223 68.783 173.411 68.7433 173.607 68.7433C173.687 68.7433 173.756 68.7459 173.814 68.7512C173.878 68.7565 173.936 68.7698 173.989 68.791L173.981 69.3635C173.902 69.337 173.827 69.3211 173.758 69.3158C173.695 69.3052 173.621 69.2999 173.536 69.2999C173.303 69.2999 173.098 69.3556 172.923 69.4669C172.754 69.5782 172.624 69.7213 172.534 69.8963C172.449 70.0712 172.407 70.2568 172.407 70.4529V72.8066H171.755ZM174.643 72.8066V69.777C174.643 69.618 174.638 69.4563 174.627 69.2919C174.622 69.1276 174.611 68.9686 174.596 68.8148H175.216L175.295 69.785L175.184 69.7929C175.237 69.5544 175.33 69.3582 175.462 69.2045C175.595 69.0507 175.751 68.9368 175.931 68.8625C176.112 68.783 176.3 68.7433 176.496 68.7433C176.576 68.7433 176.644 68.7459 176.703 68.7512C176.766 68.7565 176.825 68.7698 176.878 68.791L176.87 69.3635C176.79 69.337 176.716 69.3211 176.647 69.3158C176.584 69.3052 176.509 69.2999 176.424 69.2999C176.191 69.2999 175.987 69.3556 175.812 69.4669C175.643 69.5782 175.513 69.7213 175.423 69.8963C175.338 70.0712 175.295 70.2568 175.295 70.4529V72.8066H174.643ZM179.028 72.8782C178.673 72.8782 178.363 72.796 178.098 72.6317C177.832 72.4621 177.626 72.2235 177.477 71.916C177.334 71.6086 177.263 71.2401 177.263 70.8107C177.263 70.376 177.334 70.005 177.477 69.6975C177.626 69.39 177.832 69.1541 178.098 68.9898C178.363 68.8254 178.673 68.7433 179.028 68.7433C179.388 68.7433 179.699 68.836 179.958 69.0216C180.223 69.2018 180.398 69.4483 180.483 69.7611H180.388L180.475 68.8148H181.095C181.079 68.9686 181.064 69.125 181.048 69.284C181.037 69.4377 181.032 69.5888 181.032 69.7372V72.8066H180.388V71.8683H180.475C180.39 72.1811 180.215 72.4276 179.95 72.6078C179.685 72.7881 179.378 72.8782 179.028 72.8782ZM179.155 72.3534C179.537 72.3534 179.839 72.2235 180.062 71.9637C180.284 71.6987 180.396 71.3144 180.396 70.8107C180.396 70.3018 180.284 69.9175 180.062 69.6577C179.839 69.3927 179.537 69.2601 179.155 69.2601C178.779 69.2601 178.477 69.3927 178.249 69.6577C178.026 69.9175 177.915 70.3018 177.915 70.8107C177.915 71.3144 178.026 71.6987 178.249 71.9637C178.477 72.2235 178.779 72.3534 179.155 72.3534ZM182.277 72.8066V66.9541H182.921V72.8066H182.277Z" fill="black"/>
<path d="M154.986 85.9039C154.986 85.3102 155.087 84.8013 155.288 84.3772C155.495 83.9478 155.789 83.6165 156.171 83.3832C156.558 83.15 157.022 83.0333 157.563 83.0333C158.087 83.0333 158.543 83.15 158.93 83.3832C159.317 83.6165 159.614 83.9478 159.821 84.3772C160.033 84.8013 160.139 85.3076 160.139 85.896C160.139 86.4897 160.033 87.0013 159.821 87.4307C159.609 87.8601 159.309 88.1941 158.922 88.4326C158.541 88.6659 158.087 88.7825 157.563 88.7825C157.022 88.7825 156.561 88.6659 156.179 88.4326C155.797 88.1941 155.503 87.8601 155.296 87.4307C155.09 87.0013 154.986 86.4924 154.986 85.9039ZM155.678 85.9039C155.678 86.3864 155.75 86.7999 155.893 87.1444C156.036 87.4837 156.248 87.7461 156.529 87.9317C156.81 88.1119 157.154 88.202 157.563 88.202C158.156 88.202 158.618 88.0006 158.946 87.5977C159.28 87.1895 159.447 86.6249 159.447 85.9039C159.447 85.4162 159.373 85.0027 159.224 84.6635C159.076 84.3242 158.861 84.0644 158.58 83.8842C158.299 83.7039 157.96 83.6138 157.563 83.6138C156.942 83.6138 156.473 83.8153 156.155 84.2182C155.837 84.6158 155.678 85.1777 155.678 85.9039ZM161.248 88.7109V85.6813C161.248 85.5223 161.243 85.3606 161.232 85.1962C161.227 85.0319 161.216 84.8729 161.2 84.7191H161.82L161.9 85.6893L161.789 85.6972C161.842 85.4586 161.934 85.2625 162.067 85.1088C162.199 84.955 162.356 84.8411 162.536 84.7668C162.716 84.6873 162.905 84.6476 163.101 84.6476C163.18 84.6476 163.249 84.6502 163.307 84.6555C163.371 84.6608 163.429 84.6741 163.482 84.6953L163.474 85.2678C163.395 85.2413 163.321 85.2254 163.252 85.2201C163.188 85.2095 163.114 85.2042 163.029 85.2042C162.796 85.2042 162.592 85.2599 162.417 85.3712C162.247 85.4825 162.117 85.6256 162.027 85.8006C161.942 85.9755 161.9 86.1611 161.9 86.3572V88.7109H161.248ZM165.863 90.4842C165.519 90.4842 165.201 90.4418 164.909 90.357C164.618 90.2721 164.355 90.1423 164.122 89.9673L164.313 89.4823C164.477 89.5989 164.639 89.6917 164.798 89.7606C164.957 89.8295 165.121 89.8799 165.291 89.9117C165.46 89.9488 165.641 89.9673 165.832 89.9673C166.224 89.9673 166.521 89.8639 166.722 89.6572C166.924 89.4505 167.024 89.1562 167.024 88.7746V87.6056H167.104C167.019 87.9184 166.844 88.1676 166.579 88.3531C166.314 88.5333 166.004 88.6235 165.649 88.6235C165.283 88.6235 164.965 88.5439 164.694 88.3849C164.429 88.2206 164.223 87.99 164.074 87.6931C163.931 87.3909 163.859 87.0358 163.859 86.6276C163.859 86.2247 163.931 85.8748 164.074 85.5779C164.223 85.2811 164.429 85.0531 164.694 84.8941C164.965 84.7297 165.283 84.6476 165.649 84.6476C166.009 84.6476 166.319 84.7377 166.579 84.9179C166.844 85.0982 167.019 85.3473 167.104 85.6654L167.024 85.5859L167.096 84.7191H167.724C167.703 84.8729 167.687 85.0293 167.676 85.1883C167.666 85.342 167.66 85.4931 167.66 85.6415V88.6871C167.66 89.2808 167.507 89.7288 167.199 90.0309C166.897 90.3331 166.452 90.4842 165.863 90.4842ZM165.768 88.0986C166.155 88.0986 166.46 87.9714 166.682 87.717C166.905 87.4572 167.016 87.0941 167.016 86.6276C167.016 86.1611 166.905 85.8006 166.682 85.5461C166.46 85.2917 166.155 85.1644 165.768 85.1644C165.386 85.1644 165.081 85.2917 164.853 85.5461C164.625 85.8006 164.512 86.1611 164.512 86.6276C164.512 87.0941 164.625 87.4572 164.853 87.717C165.081 87.9714 165.386 88.0986 165.768 88.0986ZM170.416 88.7825C170.061 88.7825 169.751 88.7003 169.486 88.536C169.221 88.3664 169.014 88.1278 168.865 87.8203C168.722 87.5129 168.651 87.1444 168.651 86.715C168.651 86.2803 168.722 85.9093 168.865 85.6018C169.014 85.2943 169.221 85.0584 169.486 84.8941C169.751 84.7297 170.061 84.6476 170.416 84.6476C170.777 84.6476 171.087 84.7403 171.346 84.9259C171.611 85.1061 171.786 85.3526 171.871 85.6654H171.776L171.863 84.7191H172.484C172.468 84.8729 172.452 85.0293 172.436 85.1883C172.425 85.342 172.42 85.4931 172.42 85.6415V88.7109H171.776V87.7726H171.863C171.778 88.0854 171.604 88.3319 171.338 88.5121C171.073 88.6924 170.766 88.7825 170.416 88.7825ZM170.543 88.2577C170.925 88.2577 171.227 88.1278 171.45 87.868C171.672 87.603 171.784 87.2186 171.784 86.715C171.784 86.2061 171.672 85.8218 171.45 85.562C171.227 85.297 170.925 85.1644 170.543 85.1644C170.167 85.1644 169.865 85.297 169.637 85.562C169.414 85.8218 169.303 86.2061 169.303 86.715C169.303 87.2186 169.414 87.603 169.637 87.868C169.865 88.1278 170.167 88.2577 170.543 88.2577ZM173.665 88.7109V85.6415C173.665 85.4931 173.657 85.342 173.641 85.1883C173.631 85.0293 173.618 84.8729 173.602 84.7191H174.222L174.301 85.5938H174.206C174.323 85.2864 174.508 85.0531 174.763 84.8941C175.022 84.7297 175.322 84.6476 175.661 84.6476C176.133 84.6476 176.488 84.7748 176.727 85.0293C176.971 85.2784 177.092 85.6733 177.092 86.2141V88.7109H176.448V86.2538C176.448 85.8774 176.371 85.6044 176.218 85.4348C176.069 85.2599 175.836 85.1724 175.518 85.1724C175.147 85.1724 174.853 85.2864 174.635 85.5143C174.418 85.7423 174.309 86.0471 174.309 86.4288V88.7109H173.665ZM178.324 88.7109V84.7191H178.969V88.7109H178.324ZM178.245 83.8126V83.089H179.04V83.8126H178.245ZM181.897 88.7825C181.505 88.7825 181.163 88.6977 180.871 88.528C180.585 88.3584 180.362 88.1172 180.203 87.8044C180.05 87.4917 179.973 87.1206 179.973 86.6912C179.973 86.2565 180.052 85.888 180.211 85.5859C180.37 85.2784 180.593 85.0452 180.879 84.8861C181.171 84.7271 181.51 84.6476 181.897 84.6476C182.152 84.6476 182.398 84.6926 182.637 84.7827C182.88 84.8729 183.082 85.0001 183.241 85.1644L183.01 85.6256C182.851 85.4719 182.676 85.3579 182.486 85.2837C182.3 85.2095 182.117 85.1724 181.937 85.1724C181.523 85.1724 181.203 85.3023 180.975 85.562C180.747 85.8218 180.633 86.2008 180.633 86.6991C180.633 87.1921 180.747 87.5738 180.975 87.8442C181.203 88.1146 181.523 88.2497 181.937 88.2497C182.112 88.2497 182.292 88.2153 182.478 88.1464C182.668 88.0774 182.846 87.9635 183.01 87.8044L183.241 88.2577C183.077 88.4273 182.872 88.5572 182.629 88.6473C182.385 88.7374 182.141 88.7825 181.897 88.7825Z" fill="black"/>
<path d="M155.193 104.614V99.0082H155.853V104.614H155.193ZM157.179 104.614V101.545C157.179 101.396 157.171 101.245 157.155 101.092C157.145 100.933 157.131 100.776 157.116 100.622H157.736L157.815 101.497H157.72C157.837 101.19 158.022 100.956 158.277 100.797C158.536 100.633 158.836 100.551 159.175 100.551C159.647 100.551 160.002 100.678 160.241 100.933C160.484 101.182 160.606 101.577 160.606 102.117V104.614H159.962V102.157C159.962 101.781 159.885 101.508 159.732 101.338C159.583 101.163 159.35 101.076 159.032 101.076C158.661 101.076 158.367 101.19 158.149 101.418C157.932 101.646 157.823 101.95 157.823 102.332V104.614H157.179ZM163.254 104.686C162.862 104.686 162.562 104.574 162.355 104.352C162.149 104.124 162.045 103.782 162.045 103.326V101.123H161.266V100.622H162.045V99.5331L162.689 99.3502V100.622H163.834V101.123H162.689V103.254C162.689 103.573 162.742 103.801 162.848 103.938C162.96 104.071 163.124 104.137 163.341 104.137C163.442 104.137 163.532 104.129 163.612 104.113C163.691 104.092 163.763 104.068 163.826 104.042V104.582C163.752 104.614 163.662 104.638 163.556 104.654C163.455 104.675 163.355 104.686 163.254 104.686ZM166.353 104.686C165.939 104.686 165.582 104.606 165.279 104.447C164.977 104.283 164.744 104.047 164.58 103.74C164.415 103.427 164.333 103.056 164.333 102.626C164.333 102.208 164.413 101.844 164.572 101.537C164.731 101.224 164.953 100.983 165.24 100.813C165.526 100.638 165.855 100.551 166.226 100.551C166.591 100.551 166.899 100.628 167.148 100.781C167.397 100.935 167.588 101.155 167.721 101.441C167.853 101.722 167.919 102.056 167.919 102.443V102.682H164.826V102.276H167.498L167.363 102.38C167.363 101.956 167.267 101.624 167.077 101.386C166.886 101.147 166.602 101.028 166.226 101.028C165.955 101.028 165.725 101.092 165.534 101.219C165.348 101.346 165.205 101.524 165.104 101.752C165.009 101.98 164.961 102.253 164.961 102.571V102.642C164.961 103.141 165.083 103.52 165.327 103.779C165.576 104.034 165.924 104.161 166.369 104.161C166.607 104.161 166.83 104.127 167.037 104.058C167.249 103.983 167.45 103.864 167.641 103.7L167.864 104.153C167.689 104.323 167.466 104.455 167.196 104.551C166.931 104.641 166.65 104.686 166.353 104.686ZM168.889 104.614V101.585C168.889 101.426 168.884 101.264 168.873 101.1C168.868 100.935 168.857 100.776 168.841 100.622H169.462L169.541 101.593L169.43 101.601C169.483 101.362 169.576 101.166 169.708 101.012C169.841 100.858 169.997 100.744 170.177 100.67C170.358 100.591 170.546 100.551 170.742 100.551C170.821 100.551 170.89 100.554 170.949 100.559C171.012 100.564 171.071 100.577 171.124 100.599L171.116 101.171C171.036 101.145 170.962 101.129 170.893 101.123C170.829 101.113 170.755 101.108 170.67 101.108C170.437 101.108 170.233 101.163 170.058 101.274C169.888 101.386 169.759 101.529 169.668 101.704C169.584 101.879 169.541 102.064 169.541 102.261V104.614H168.889ZM171.794 104.614V101.545C171.794 101.396 171.786 101.245 171.77 101.092C171.759 100.933 171.746 100.776 171.73 100.622H172.35L172.43 101.497H172.334C172.451 101.19 172.637 100.956 172.891 100.797C173.151 100.633 173.45 100.551 173.79 100.551C174.261 100.551 174.617 100.678 174.855 100.933C175.099 101.182 175.221 101.577 175.221 102.117V104.614H174.577V102.157C174.577 101.781 174.5 101.508 174.346 101.338C174.198 101.163 173.965 101.076 173.647 101.076C173.275 101.076 172.981 101.19 172.764 101.418C172.547 101.646 172.438 101.95 172.438 102.332V104.614H171.794ZM177.972 104.686C177.617 104.686 177.307 104.604 177.041 104.439C176.776 104.27 176.57 104.031 176.421 103.724C176.278 103.416 176.207 103.048 176.207 102.618C176.207 102.184 176.278 101.813 176.421 101.505C176.57 101.198 176.776 100.962 177.041 100.797C177.307 100.633 177.617 100.551 177.972 100.551C178.332 100.551 178.642 100.644 178.902 100.829C179.167 101.009 179.342 101.256 179.427 101.569H179.332L179.419 100.622H180.039C180.023 100.776 180.007 100.933 179.992 101.092C179.981 101.245 179.976 101.396 179.976 101.545V104.614H179.332V103.676H179.419C179.334 103.989 179.159 104.235 178.894 104.415C178.629 104.596 178.322 104.686 177.972 104.686ZM178.099 104.161C178.481 104.161 178.783 104.031 179.006 103.771C179.228 103.506 179.34 103.122 179.34 102.618C179.34 102.109 179.228 101.725 179.006 101.465C178.783 101.2 178.481 101.068 178.099 101.068C177.723 101.068 177.42 101.2 177.193 101.465C176.97 101.725 176.859 102.109 176.859 102.618C176.859 103.122 176.97 103.506 177.193 103.771C177.42 104.031 177.723 104.161 178.099 104.161ZM181.221 104.614V98.7617H181.865V104.614H181.221Z" fill="black"/>
<path d="M155.193 120.519V114.913H157.475C158.064 114.913 158.517 115.056 158.835 115.342C159.153 115.623 159.312 116.015 159.312 116.519C159.312 116.847 159.24 117.134 159.097 117.378C158.954 117.616 158.745 117.802 158.469 117.934C158.193 118.061 157.862 118.125 157.475 118.125H155.853V120.519H155.193ZM155.853 117.576H157.411C157.82 117.576 158.127 117.484 158.334 117.298C158.546 117.113 158.652 116.853 158.652 116.519C158.652 116.18 158.546 115.917 158.334 115.732C158.127 115.546 157.82 115.453 157.411 115.453H155.853V117.576ZM161.626 120.59C161.27 120.59 160.96 120.508 160.695 120.344C160.43 120.174 160.223 119.935 160.075 119.628C159.932 119.32 159.86 118.952 159.86 118.523C159.86 118.088 159.932 117.717 160.075 117.409C160.223 117.102 160.43 116.866 160.695 116.702C160.96 116.537 161.27 116.455 161.626 116.455C161.986 116.455 162.296 116.548 162.556 116.733C162.821 116.914 162.996 117.16 163.081 117.473H162.985L163.073 116.527H163.693C163.677 116.68 163.661 116.837 163.645 116.996C163.635 117.15 163.629 117.301 163.629 117.449V120.519H162.985V119.58H163.073C162.988 119.893 162.813 120.14 162.548 120.32C162.283 120.5 161.975 120.59 161.626 120.59ZM161.753 120.065C162.134 120.065 162.437 119.935 162.659 119.676C162.882 119.411 162.993 119.026 162.993 118.523C162.993 118.014 162.882 117.629 162.659 117.37C162.437 117.105 162.134 116.972 161.753 116.972C161.376 116.972 161.074 117.105 160.846 117.37C160.624 117.629 160.512 118.014 160.512 118.523C160.512 119.026 160.624 119.411 160.846 119.676C161.074 119.935 161.376 120.065 161.753 120.065ZM164.875 120.519V116.527H165.519V120.519H164.875ZM164.795 115.62V114.897H165.59V115.62H164.795ZM168.28 120.59C167.93 120.59 167.623 120.508 167.358 120.344C167.093 120.174 166.886 119.935 166.738 119.628C166.595 119.32 166.523 118.952 166.523 118.523C166.523 118.088 166.595 117.717 166.738 117.409C166.886 117.102 167.093 116.866 167.358 116.702C167.623 116.537 167.93 116.455 168.28 116.455C168.641 116.455 168.951 116.545 169.211 116.726C169.476 116.906 169.653 117.15 169.743 117.457H169.648V114.666H170.292V120.519H169.656V119.564H169.743C169.659 119.882 169.484 120.134 169.219 120.32C168.954 120.5 168.641 120.59 168.28 120.59ZM168.416 120.065C168.792 120.065 169.094 119.935 169.322 119.676C169.55 119.411 169.664 119.026 169.664 118.523C169.664 118.014 169.55 117.629 169.322 117.37C169.094 117.105 168.792 116.972 168.416 116.972C168.039 116.972 167.737 117.105 167.509 117.37C167.286 117.629 167.175 118.014 167.175 118.523C167.175 119.026 167.286 119.411 167.509 119.676C167.737 119.935 168.039 120.065 168.416 120.065Z" fill="black"/>
<path d="M157.022 136.493C156.571 136.493 156.168 136.435 155.813 136.319C155.458 136.202 155.148 136.035 154.883 135.818L155.121 135.293C155.307 135.431 155.492 135.547 155.678 135.643C155.869 135.733 156.073 135.802 156.29 135.849C156.508 135.892 156.751 135.913 157.022 135.913C157.494 135.913 157.844 135.825 158.071 135.651C158.299 135.476 158.413 135.242 158.413 134.951C158.413 134.702 158.334 134.511 158.175 134.378C158.016 134.246 157.738 134.14 157.34 134.06L156.505 133.893C155.991 133.787 155.606 133.615 155.352 133.376C155.103 133.138 154.978 132.814 154.978 132.406C154.978 132.072 155.063 131.781 155.233 131.532C155.408 131.282 155.651 131.089 155.964 130.951C156.277 130.813 156.64 130.744 157.054 130.744C157.451 130.744 157.814 130.805 158.143 130.927C158.472 131.044 158.753 131.216 158.986 131.444L158.755 131.953C158.506 131.73 158.244 131.571 157.968 131.476C157.698 131.375 157.39 131.325 157.046 131.325C156.611 131.325 156.266 131.42 156.012 131.611C155.763 131.797 155.638 132.051 155.638 132.374C155.638 132.634 155.718 132.838 155.877 132.987C156.036 133.13 156.298 133.239 156.664 133.313L157.507 133.48C158.048 133.591 158.445 133.758 158.7 133.981C158.954 134.203 159.081 134.516 159.081 134.919C159.081 135.226 158.997 135.499 158.827 135.738C158.663 135.977 158.427 136.162 158.119 136.295C157.812 136.427 157.446 136.493 157.022 136.493ZM161.714 136.493C161.332 136.493 160.998 136.411 160.712 136.247C160.431 136.077 160.214 135.839 160.06 135.531C159.906 135.219 159.829 134.85 159.829 134.426C159.829 133.997 159.906 133.628 160.06 133.321C160.214 133.013 160.431 132.777 160.712 132.613C160.998 132.443 161.332 132.359 161.714 132.359C162.101 132.359 162.435 132.443 162.716 132.613C163.002 132.777 163.222 133.013 163.376 133.321C163.535 133.628 163.614 133.997 163.614 134.426C163.614 134.85 163.535 135.219 163.376 135.531C163.222 135.839 163.002 136.077 162.716 136.247C162.435 136.411 162.101 136.493 161.714 136.493ZM161.714 135.969C162.095 135.969 162.398 135.839 162.62 135.579C162.843 135.314 162.954 134.93 162.954 134.426C162.954 133.917 162.843 133.533 162.62 133.273C162.398 133.008 162.095 132.875 161.714 132.875C161.337 132.875 161.038 133.008 160.815 133.273C160.593 133.533 160.481 133.917 160.481 134.426C160.481 134.93 160.593 135.314 160.815 135.579C161.038 135.839 161.337 135.969 161.714 135.969ZM166.296 136.493C165.904 136.493 165.562 136.409 165.271 136.239C164.984 136.069 164.762 135.828 164.603 135.515C164.449 135.203 164.372 134.832 164.372 134.402C164.372 133.967 164.451 133.599 164.611 133.297C164.77 132.989 164.992 132.756 165.278 132.597C165.57 132.438 165.909 132.359 166.296 132.359C166.551 132.359 166.797 132.404 167.036 132.494C167.28 132.584 167.481 132.711 167.64 132.875L167.41 133.337C167.251 133.183 167.076 133.069 166.885 132.995C166.699 132.92 166.516 132.883 166.336 132.883C165.923 132.883 165.602 133.013 165.374 133.273C165.146 133.533 165.032 133.912 165.032 134.41C165.032 134.903 165.146 135.285 165.374 135.555C165.602 135.825 165.923 135.961 166.336 135.961C166.511 135.961 166.691 135.926 166.877 135.857C167.068 135.788 167.245 135.674 167.41 135.515L167.64 135.969C167.476 136.138 167.272 136.268 167.028 136.358C166.784 136.448 166.54 136.493 166.296 136.493ZM168.556 136.422V132.43H169.2V136.422H168.556ZM168.476 131.524V130.8H169.271V131.524H168.476ZM171.969 136.493C171.614 136.493 171.304 136.411 171.039 136.247C170.774 136.077 170.567 135.839 170.419 135.531C170.275 135.224 170.204 134.855 170.204 134.426C170.204 133.991 170.275 133.62 170.419 133.313C170.567 133.005 170.774 132.769 171.039 132.605C171.304 132.441 171.614 132.359 171.969 132.359C172.33 132.359 172.64 132.451 172.899 132.637C173.165 132.817 173.339 133.064 173.424 133.376H173.329L173.416 132.43H174.037C174.021 132.584 174.005 132.74 173.989 132.899C173.978 133.053 173.973 133.204 173.973 133.352V136.422H173.329V135.484H173.416C173.332 135.796 173.157 136.043 172.892 136.223C172.626 136.403 172.319 136.493 171.969 136.493ZM172.096 135.969C172.478 135.969 172.78 135.839 173.003 135.579C173.226 135.314 173.337 134.93 173.337 134.426C173.337 133.917 173.226 133.533 173.003 133.273C172.78 133.008 172.478 132.875 172.096 132.875C171.72 132.875 171.418 133.008 171.19 133.273C170.967 133.533 170.856 133.917 170.856 134.426C170.856 134.93 170.967 135.314 171.19 135.579C171.418 135.839 171.72 135.969 172.096 135.969ZM175.218 136.422V130.569H175.862V136.422H175.218Z" fill="black"/>
</svg>
