<svg width="478" height="160" viewBox="0 0 478 160" fill="none" xmlns="http://www.w3.org/2000/svg">
<rect x="0.842529" y="-0.000976562" width="477.108" height="159.036" rx="12.7229" fill="white"/>
<path d="M392.071 79.5177H398.433" stroke="#5D6AE8" stroke-width="1.59036" stroke-linecap="round" stroke-linejoin="round"/>
<path d="M407.752 85.3857L413.192 75.1756V75.8913H407.244V74.1737H415.084V75.7004L409.995 85.3857H407.752ZM420.517 85.5448C419.743 85.5448 419.001 85.4335 418.29 85.2108C417.58 84.9775 416.997 84.6595 416.541 84.2566L417.209 82.7139C417.707 83.0956 418.221 83.3766 418.752 83.5568C419.292 83.7371 419.86 83.8272 420.453 83.8272C421.174 83.8272 421.72 83.6841 422.091 83.3978C422.462 83.1115 422.648 82.6927 422.648 82.1414C422.648 81.6113 422.462 81.2137 422.091 80.9486C421.731 80.673 421.201 80.5351 420.501 80.5351H418.688V78.8971H420.326C420.93 78.8971 421.413 78.7486 421.773 78.4518C422.134 78.1549 422.314 77.7467 422.314 77.2272C422.314 76.7395 422.144 76.3684 421.805 76.1139C421.476 75.8595 420.999 75.7322 420.374 75.7322C419.801 75.7322 419.271 75.8277 418.783 76.0185C418.296 76.1988 417.834 76.485 417.4 76.8773L416.732 75.3506C417.188 74.9265 417.75 74.5978 418.418 74.3645C419.096 74.1313 419.807 74.0147 420.549 74.0147C421.715 74.0147 422.627 74.2797 423.284 74.8098C423.952 75.3294 424.286 76.0556 424.286 76.9886C424.286 77.6566 424.095 78.2344 423.713 78.7221C423.342 79.1992 422.828 79.5173 422.171 79.6763V79.4855C422.945 79.6127 423.544 79.9308 423.968 80.4397C424.403 80.938 424.62 81.5636 424.62 82.3163C424.62 83.313 424.254 84.1029 423.523 84.686C422.791 85.2585 421.789 85.5448 420.517 85.5448ZM426.697 85.3857V83.8749L430.419 79.9944C430.885 79.5067 431.23 79.0561 431.452 78.6426C431.675 78.2291 431.786 77.805 431.786 77.3703C431.786 76.8296 431.617 76.4214 431.277 76.1457C430.938 75.8701 430.445 75.7322 429.798 75.7322C429.279 75.7322 428.781 75.8277 428.303 76.0185C427.826 76.1988 427.36 76.485 426.904 76.8773L426.236 75.3506C426.692 74.9477 427.254 74.6243 427.922 74.3804C428.6 74.1366 429.311 74.0147 430.053 74.0147C430.859 74.0147 431.537 74.1366 432.088 74.3804C432.65 74.6243 433.075 74.9795 433.361 75.446C433.658 75.9125 433.806 76.4797 433.806 77.1477C433.806 77.8474 433.642 78.5154 433.313 79.1515C432.984 79.7771 432.475 80.4344 431.786 81.1236L428.685 84.2248V83.6841H434.251V85.3857H426.697Z" fill="black"/>
<g opacity="0.2">
<path d="M46.9634 57.2531H352.313" stroke="black" stroke-width="0.795181" stroke-linecap="round" stroke-linejoin="round"/>
<path d="M46.9631 89.0607H352.313" stroke="black" stroke-width="0.795181" stroke-linecap="round" stroke-linejoin="round"/>
<path d="M46.9631 120.867H352.313" stroke="black" stroke-width="0.795181" stroke-linecap="round" stroke-linejoin="round"/>
</g>
<path d="M17.7655 59.8906V59.326H19.0855V54.8492H19.4354L17.8928 55.8113V55.1513L19.2684 54.2846H19.7455V59.326H20.986V59.8906H17.7655ZM23.9092 59.9622C23.273 59.9622 22.7853 59.7157 22.446 59.2227C22.1068 58.7297 21.9371 58.0166 21.9371 57.0836C21.9371 56.1453 22.1068 55.4323 22.446 54.9446C22.7853 54.4569 23.273 54.213 23.9092 54.213C24.5506 54.213 25.0383 54.4569 25.3723 54.9446C25.7116 55.4323 25.8812 56.1427 25.8812 57.0757C25.8812 58.014 25.7116 58.7297 25.3723 59.2227C25.033 59.7157 24.5453 59.9622 23.9092 59.9622ZM23.9092 59.3897C24.3545 59.3897 24.6858 59.2015 24.9032 58.8251C25.1205 58.4487 25.2292 57.8656 25.2292 57.0757C25.2292 56.5456 25.1815 56.1135 25.086 55.7795C24.9906 55.4403 24.8448 55.1885 24.6487 55.0241C24.4526 54.8598 24.206 54.7776 23.9092 54.7776C23.4692 54.7776 23.1379 54.9632 22.9152 55.3342C22.6979 55.7053 22.5892 56.2858 22.5892 57.0757C22.5892 57.6005 22.6369 58.0352 22.7323 58.3798C22.833 58.7191 22.9788 58.9735 23.1697 59.1432C23.3658 59.3075 23.6123 59.3897 23.9092 59.3897ZM28.6772 59.9622C28.041 59.9622 27.5533 59.7157 27.214 59.2227C26.8747 58.7297 26.7051 58.0166 26.7051 57.0836C26.7051 56.1453 26.8747 55.4323 27.214 54.9446C27.5533 54.4569 28.041 54.213 28.6772 54.213C29.3186 54.213 29.8063 54.4569 30.1403 54.9446C30.4796 55.4323 30.6492 56.1427 30.6492 57.0757C30.6492 58.014 30.4796 58.7297 30.1403 59.2227C29.801 59.7157 29.3133 59.9622 28.6772 59.9622ZM28.6772 59.3897C29.1225 59.3897 29.4538 59.2015 29.6711 58.8251C29.8885 58.4487 29.9972 57.8656 29.9972 57.0757C29.9972 56.5456 29.9494 56.1135 29.854 55.7795C29.7586 55.4403 29.6128 55.1885 29.4167 55.0241C29.2205 54.8598 28.974 54.7776 28.6772 54.7776C28.2372 54.7776 27.9058 54.9632 27.6832 55.3342C27.4658 55.7053 27.3572 56.2858 27.3572 57.0757C27.3572 57.6005 27.4049 58.0352 27.5003 58.3798C27.601 58.7191 27.7468 58.9735 27.9376 59.1432C28.1338 59.3075 28.3803 59.3897 28.6772 59.3897Z" fill="black"/>
<path d="M28.6776 123.576C28.0415 123.576 27.5538 123.33 27.2145 122.837C26.8752 122.344 26.7056 121.631 26.7056 120.698C26.7056 119.76 26.8752 119.047 27.2145 118.559C27.5538 118.071 28.0415 117.827 28.6776 117.827C29.3191 117.827 29.8068 118.071 30.1408 118.559C30.4801 119.047 30.6497 119.757 30.6497 120.69C30.6497 121.628 30.4801 122.344 30.1408 122.837C29.8015 123.33 29.3138 123.576 28.6776 123.576ZM28.6776 123.004C29.1229 123.004 29.4543 122.816 29.6716 122.439C29.889 122.063 29.9976 121.48 29.9976 120.69C29.9976 120.16 29.9499 119.728 29.8545 119.394C29.7591 119.055 29.6133 118.803 29.4172 118.638C29.221 118.474 28.9745 118.392 28.6776 118.392C28.2376 118.392 27.9063 118.577 27.6837 118.948C27.4663 119.32 27.3576 119.9 27.3576 120.69C27.3576 121.215 27.4054 121.649 27.5008 121.994C27.6015 122.333 27.7473 122.588 27.9381 122.757C28.1343 122.922 28.3808 123.004 28.6776 123.004Z" fill="black"/>
<path d="M24.0126 91.7698C23.7687 91.7698 23.5301 91.7433 23.2969 91.6903C23.0636 91.6373 22.8436 91.5604 22.6369 91.4597C22.4354 91.359 22.2579 91.237 22.1041 91.0939L22.3506 90.585C22.6104 90.7917 22.8754 90.9455 23.1458 91.0462C23.4162 91.1416 23.7051 91.1893 24.0126 91.1893C24.4154 91.1893 24.7309 91.0807 24.9588 90.8633C25.1868 90.646 25.3007 90.3597 25.3007 90.0045C25.3007 89.6387 25.1921 89.3392 24.9747 89.106C24.7574 88.8727 24.4552 88.7561 24.0682 88.7561C23.7926 88.7561 23.546 88.8117 23.3287 88.9231C23.1113 89.0291 22.9232 89.1961 22.7641 89.424H22.287V86.0922H25.6109V86.6488H22.9232V88.8833H22.7482C22.8913 88.6607 23.0875 88.491 23.3366 88.3744C23.5911 88.2525 23.8774 88.1915 24.1954 88.1915C24.5559 88.1915 24.866 88.2657 25.1258 88.4141C25.3909 88.5626 25.595 88.7693 25.7381 89.0344C25.8812 89.2994 25.9528 89.6096 25.9528 89.9647C25.9528 90.3199 25.8733 90.6354 25.7142 90.911C25.5605 91.1814 25.3379 91.3934 25.0463 91.5472C24.76 91.6956 24.4154 91.7698 24.0126 91.7698ZM28.6772 91.7698C28.041 91.7698 27.5533 91.5233 27.214 91.0303C26.8747 90.5373 26.7051 89.8243 26.7051 88.8913C26.7051 87.9529 26.8747 87.2399 27.214 86.7522C27.5533 86.2645 28.041 86.0207 28.6772 86.0207C29.3186 86.0207 29.8063 86.2645 30.1403 86.7522C30.4796 87.2399 30.6492 87.9503 30.6492 88.8833C30.6492 89.8216 30.4796 90.5373 30.1403 91.0303C29.801 91.5233 29.3133 91.7698 28.6772 91.7698ZM28.6772 91.1973C29.1225 91.1973 29.4538 91.0091 29.6711 90.6327C29.8885 90.2563 29.9972 89.6732 29.9972 88.8833C29.9972 88.3532 29.9494 87.9211 29.854 87.5872C29.7586 87.2479 29.6128 86.9961 29.4167 86.8317C29.2205 86.6674 28.974 86.5852 28.6772 86.5852C28.2372 86.5852 27.9058 86.7708 27.6832 87.1419C27.4658 87.5129 27.3572 88.0934 27.3572 88.8833C27.3572 89.4081 27.4049 89.8428 27.5003 90.1874C27.601 90.5267 27.7468 90.7811 27.9376 90.9508C28.1338 91.1151 28.3803 91.1973 28.6772 91.1973Z" fill="black"/>
<path d="M70.8129 136.819L73.2859 131.213H73.8584L76.3712 136.819H75.6873L74.9876 135.221L75.2818 135.388H71.8546L72.1726 135.221L71.4888 136.819H70.8129ZM73.5642 131.969L72.276 134.99L72.0852 134.847H75.0432L74.9001 134.99L73.5801 131.969H73.5642ZM77.1453 136.819V133.75C77.1453 133.602 77.1374 133.45 77.1215 133.297C77.1109 133.138 77.0976 132.981 77.0817 132.828H77.7019L77.7815 133.702H77.686C77.7921 133.4 77.959 133.167 78.187 133.002C78.4203 132.838 78.7012 132.756 79.0299 132.756C79.3639 132.756 79.6342 132.835 79.841 132.995C80.053 133.154 80.1962 133.4 80.2704 133.734H80.1511C80.2518 133.432 80.4294 133.193 80.6839 133.018C80.9383 132.843 81.2352 132.756 81.5745 132.756C82.0145 132.756 82.3458 132.883 82.5684 133.138C82.7911 133.387 82.9024 133.782 82.9024 134.322V136.819H82.2583V134.362C82.2583 133.986 82.1921 133.713 82.0595 133.543C81.927 133.368 81.7149 133.281 81.4234 133.281C81.0894 133.281 80.8243 133.397 80.6282 133.631C80.4374 133.859 80.3419 134.166 80.3419 134.553V136.819H79.6978V134.362C79.6978 133.986 79.6316 133.713 79.499 133.543C79.3665 133.368 79.1545 133.281 78.8629 133.281C78.5289 133.281 78.2665 133.397 78.0757 133.631C77.8848 133.859 77.7894 134.166 77.7894 134.553V136.819H77.1453ZM84.1264 136.819V132.828H84.7705V136.819H84.1264ZM84.0469 131.921V131.197H84.8421V131.921H84.0469ZM86.0212 136.819V133.75C86.0212 133.602 86.0133 133.45 85.9974 133.297C85.9867 133.138 85.9735 132.981 85.9576 132.828H86.5778L86.6574 133.702H86.5619C86.6786 133.395 86.8641 133.162 87.1186 133.002C87.3783 132.838 87.6778 132.756 88.0171 132.756C88.4889 132.756 88.8441 132.883 89.0827 133.138C89.3265 133.387 89.4484 133.782 89.4484 134.322V136.819H88.8043V134.362C88.8043 133.986 88.7275 133.713 88.5737 133.543C88.4253 133.368 88.192 133.281 87.874 133.281C87.5029 133.281 87.2087 133.395 86.9913 133.623C86.774 133.851 86.6653 134.155 86.6653 134.537V136.819H86.0212ZM64.9009 145.819V140.213H65.5609V142.694H68.9404V140.213H69.5925V145.819H68.9404V143.259H65.5609V145.819H64.9009ZM72.4362 145.891C72.081 145.891 71.7709 145.809 71.5059 145.644C71.2408 145.475 71.0341 145.236 70.8856 144.929C70.7425 144.621 70.6709 144.253 70.6709 143.823C70.6709 143.389 70.7425 143.018 70.8856 142.71C71.0341 142.403 71.2408 142.167 71.5059 142.002C71.7709 141.838 72.081 141.756 72.4362 141.756C72.7967 141.756 73.1068 141.849 73.3666 142.034C73.6316 142.215 73.8066 142.461 73.8914 142.774H73.796L73.8835 141.828H74.5037C74.4878 141.981 74.4719 142.138 74.456 142.297C74.4454 142.45 74.4401 142.602 74.4401 142.75V145.819H73.796V144.881H73.8835C73.7986 145.194 73.6237 145.44 73.3586 145.621C73.0936 145.801 72.7861 145.891 72.4362 145.891ZM72.5635 145.366C72.9451 145.366 73.2473 145.236 73.47 144.976C73.6926 144.711 73.8039 144.327 73.8039 143.823C73.8039 143.315 73.6926 142.93 73.47 142.67C73.2473 142.405 72.9451 142.273 72.5635 142.273C72.1871 142.273 71.8849 142.405 71.657 142.67C71.4343 142.93 71.323 143.315 71.323 143.823C71.323 144.327 71.4343 144.711 71.657 144.976C71.8849 145.236 72.1871 145.366 72.5635 145.366ZM76.7121 145.819L75.2331 141.828H75.9169L77.1495 145.342H76.9427L78.215 141.828H78.7716L80.0201 145.342H79.8213L81.0618 141.828H81.7138L80.2268 145.819H79.6066L78.3184 142.249H78.6365L77.3403 145.819H76.7121ZM82.5578 145.819V139.967H83.2019V143.601H83.2178L85.0706 141.828H85.8817L83.6949 143.911L83.7108 143.585L86.0884 145.819H85.2535L83.2178 143.943H83.2019V145.819H82.5578ZM86.6502 145.819V141.828H87.2943V145.819H86.6502ZM86.5707 140.921V140.197H87.3659V140.921H86.5707ZM88.545 145.819V142.75C88.545 142.602 88.537 142.45 88.5211 142.297C88.5105 142.138 88.4973 141.981 88.4814 141.828H89.1016L89.1811 142.702H89.0857C89.2023 142.395 89.3879 142.162 89.6423 142.002C89.9021 141.838 90.2016 141.756 90.5409 141.756C91.0127 141.756 91.3679 141.883 91.6064 142.138C91.8503 142.387 91.9722 142.782 91.9722 143.322V145.819H91.3281V143.362C91.3281 142.986 91.2512 142.713 91.0975 142.543C90.9491 142.368 90.7158 142.281 90.3977 142.281C90.0267 142.281 89.7324 142.395 89.5151 142.623C89.2977 142.851 89.1891 143.155 89.1891 143.537V145.819H88.545ZM94.5322 145.891C94.2141 145.891 93.9172 145.848 93.6416 145.764C93.3659 145.674 93.138 145.549 92.9577 145.39L93.1804 144.937C93.3765 145.09 93.5886 145.204 93.8165 145.279C94.0498 145.353 94.291 145.39 94.5401 145.39C94.8582 145.39 95.0968 145.334 95.2558 145.223C95.4201 145.106 95.5023 144.947 95.5023 144.746C95.5023 144.592 95.4493 144.47 95.3433 144.38C95.2425 144.285 95.0756 144.21 94.8423 144.157L94.1028 144.006C93.7635 143.932 93.5091 143.808 93.3394 143.633C93.1698 143.452 93.085 143.224 93.085 142.949C93.085 142.715 93.1459 142.511 93.2678 142.336C93.3898 142.156 93.5674 142.016 93.8006 141.915C94.0339 141.809 94.3069 141.756 94.6197 141.756C94.9112 141.756 95.1789 141.801 95.4228 141.891C95.6719 141.976 95.8787 142.101 96.043 142.265L95.8124 142.71C95.6534 142.556 95.4705 142.442 95.2638 142.368C95.0623 142.289 94.8529 142.249 94.6356 142.249C94.3228 142.249 94.0869 142.313 93.9278 142.44C93.7741 142.562 93.6972 142.723 93.6972 142.925C93.6972 143.079 93.745 143.206 93.8404 143.307C93.9411 143.402 94.0948 143.474 94.3016 143.521L95.0411 143.672C95.4016 143.752 95.6693 143.876 95.8442 144.046C96.0245 144.21 96.1146 144.433 96.1146 144.714C96.1146 144.953 96.0483 145.162 95.9158 145.342C95.7833 145.517 95.5977 145.652 95.3592 145.748C95.1259 145.843 94.8503 145.891 94.5322 145.891Z" fill="black"/>
<path d="M118.633 136.819V131.213H119.15L122.745 135.984H122.562V131.213H123.174V136.819H122.665L119.071 132.048H119.246V136.819H118.633ZM126.276 136.891C125.862 136.891 125.504 136.811 125.202 136.652C124.9 136.488 124.667 136.252 124.502 135.945C124.338 135.632 124.256 135.261 124.256 134.831C124.256 134.413 124.335 134.049 124.494 133.742C124.654 133.429 124.876 133.188 125.162 133.018C125.449 132.843 125.777 132.756 126.148 132.756C126.514 132.756 126.822 132.833 127.071 132.987C127.32 133.14 127.511 133.36 127.643 133.647C127.776 133.928 127.842 134.262 127.842 134.648V134.887H124.749V134.482H127.421L127.286 134.585C127.286 134.161 127.19 133.829 126.999 133.591C126.808 133.352 126.525 133.233 126.148 133.233C125.878 133.233 125.647 133.297 125.457 133.424C125.271 133.551 125.128 133.729 125.027 133.957C124.932 134.185 124.884 134.458 124.884 134.776V134.847C124.884 135.346 125.006 135.725 125.25 135.984C125.499 136.239 125.846 136.366 126.292 136.366C126.53 136.366 126.753 136.332 126.96 136.263C127.172 136.188 127.373 136.069 127.564 135.905L127.787 136.358C127.612 136.528 127.389 136.66 127.119 136.756C126.854 136.846 126.573 136.891 126.276 136.891ZM128.828 136.819V130.967H129.472V136.819H128.828ZM130.723 136.819V130.967H131.367V136.819H130.723ZM132.617 136.819V132.828H133.261V136.819H132.617ZM132.538 131.921V131.197H133.333V131.921H132.538ZM136.285 136.891C135.872 136.891 135.514 136.811 135.212 136.652C134.91 136.488 134.676 136.252 134.512 135.945C134.348 135.632 134.266 135.261 134.266 134.831C134.266 134.413 134.345 134.049 134.504 133.742C134.663 133.429 134.886 133.188 135.172 133.018C135.458 132.843 135.787 132.756 136.158 132.756C136.524 132.756 136.831 132.833 137.081 132.987C137.33 133.14 137.521 133.36 137.653 133.647C137.786 133.928 137.852 134.262 137.852 134.648V134.887H134.759V134.482H137.43L137.295 134.585C137.295 134.161 137.2 133.829 137.009 133.591C136.818 133.352 136.534 133.233 136.158 133.233C135.888 133.233 135.657 133.297 135.466 133.424C135.281 133.551 135.138 133.729 135.037 133.957C134.941 134.185 134.894 134.458 134.894 134.776V134.847C134.894 135.346 135.016 135.725 135.26 135.984C135.509 136.239 135.856 136.366 136.301 136.366C136.54 136.366 136.762 136.332 136.969 136.263C137.181 136.188 137.383 136.069 137.574 135.905L137.796 136.358C137.621 136.528 137.399 136.66 137.128 136.756C136.863 136.846 136.582 136.891 136.285 136.891ZM116.347 145.819V140.213H117.007V142.694H120.386V140.213H121.038V145.819H120.386V143.259H117.007V145.819H116.347ZM124.001 145.891C123.619 145.891 123.285 145.809 122.999 145.644C122.718 145.475 122.501 145.236 122.347 144.929C122.193 144.616 122.117 144.248 122.117 143.823C122.117 143.394 122.193 143.026 122.347 142.718C122.501 142.411 122.718 142.175 122.999 142.01C123.285 141.841 123.619 141.756 124.001 141.756C124.388 141.756 124.722 141.841 125.003 142.01C125.289 142.175 125.509 142.411 125.663 142.718C125.822 143.026 125.902 143.394 125.902 143.823C125.902 144.248 125.822 144.616 125.663 144.929C125.509 145.236 125.289 145.475 125.003 145.644C124.722 145.809 124.388 145.891 124.001 145.891ZM124.001 145.366C124.383 145.366 124.685 145.236 124.908 144.976C125.13 144.711 125.242 144.327 125.242 143.823C125.242 143.315 125.13 142.93 124.908 142.67C124.685 142.405 124.383 142.273 124.001 142.273C123.625 142.273 123.325 142.405 123.103 142.67C122.88 142.93 122.769 143.315 122.769 143.823C122.769 144.327 122.88 144.711 123.103 144.976C123.325 145.236 123.625 145.366 124.001 145.366ZM128.663 147.593C128.319 147.593 128.001 147.55 127.709 147.465C127.417 147.381 127.155 147.251 126.922 147.076L127.113 146.591C127.277 146.707 127.439 146.8 127.598 146.869C127.757 146.938 127.921 146.988 128.091 147.02C128.26 147.057 128.441 147.076 128.631 147.076C129.024 147.076 129.321 146.972 129.522 146.766C129.723 146.559 129.824 146.265 129.824 145.883V144.714H129.904C129.819 145.027 129.644 145.276 129.379 145.462C129.114 145.642 128.804 145.732 128.448 145.732C128.083 145.732 127.765 145.652 127.494 145.493C127.229 145.329 127.022 145.098 126.874 144.802C126.731 144.499 126.659 144.144 126.659 143.736C126.659 143.333 126.731 142.983 126.874 142.686C127.022 142.389 127.229 142.162 127.494 142.002C127.765 141.838 128.083 141.756 128.448 141.756C128.809 141.756 129.119 141.846 129.379 142.026C129.644 142.207 129.819 142.456 129.904 142.774L129.824 142.694L129.896 141.828H130.524C130.503 141.981 130.487 142.138 130.476 142.297C130.466 142.45 130.46 142.602 130.46 142.75V145.795C130.46 146.389 130.307 146.837 129.999 147.139C129.697 147.442 129.252 147.593 128.663 147.593ZM128.568 145.207C128.955 145.207 129.26 145.08 129.482 144.825C129.705 144.566 129.816 144.202 129.816 143.736C129.816 143.269 129.705 142.909 129.482 142.655C129.26 142.4 128.955 142.273 128.568 142.273C128.186 142.273 127.881 142.4 127.653 142.655C127.425 142.909 127.311 143.269 127.311 143.736C127.311 144.202 127.425 144.566 127.653 144.825C127.881 145.08 128.186 145.207 128.568 145.207ZM133.216 145.891C132.861 145.891 132.551 145.809 132.286 145.644C132.02 145.475 131.814 145.236 131.665 144.929C131.522 144.621 131.451 144.253 131.451 143.823C131.451 143.389 131.522 143.018 131.665 142.71C131.814 142.403 132.02 142.167 132.286 142.002C132.551 141.838 132.861 141.756 133.216 141.756C133.576 141.756 133.887 141.849 134.146 142.034C134.411 142.215 134.586 142.461 134.671 142.774H134.576L134.663 141.828H135.283C135.267 141.981 135.252 142.138 135.236 142.297C135.225 142.45 135.22 142.602 135.22 142.75V145.819H134.576V144.881H134.663C134.578 145.194 134.403 145.44 134.138 145.621C133.873 145.801 133.566 145.891 133.216 145.891ZM133.343 145.366C133.725 145.366 134.027 145.236 134.25 144.976C134.472 144.711 134.584 144.327 134.584 143.823C134.584 143.315 134.472 142.93 134.25 142.67C134.027 142.405 133.725 142.273 133.343 142.273C132.967 142.273 132.665 142.405 132.437 142.67C132.214 142.93 132.103 143.315 132.103 143.823C132.103 144.327 132.214 144.711 132.437 144.976C132.665 145.236 132.967 145.366 133.343 145.366ZM136.465 145.819V142.75C136.465 142.602 136.457 142.45 136.441 142.297C136.431 142.138 136.417 141.981 136.401 141.828H137.022L137.101 142.702H137.006C137.122 142.395 137.308 142.162 137.562 142.002C137.822 141.838 138.122 141.756 138.461 141.756C138.933 141.756 139.288 141.883 139.527 142.138C139.77 142.387 139.892 142.782 139.892 143.322V145.819H139.248V143.362C139.248 142.986 139.171 142.713 139.018 142.543C138.869 142.368 138.636 142.281 138.318 142.281C137.947 142.281 137.653 142.395 137.435 142.623C137.218 142.851 137.109 143.155 137.109 143.537V145.819H136.465Z" fill="black"/>
<path d="M166.083 136.819L168.556 131.213H169.128L171.641 136.819H170.957L170.258 135.221L170.552 135.388H167.125L167.443 135.221L166.759 136.819H166.083ZM168.834 131.969L167.546 134.99L167.355 134.847H170.313L170.17 134.99L168.85 131.969H168.834ZM172.415 136.819V130.967H173.059V136.819H172.415ZM175.725 136.891C175.333 136.891 175.034 136.78 174.827 136.557C174.62 136.329 174.517 135.987 174.517 135.531V133.328H173.738V132.828H174.517V131.738L175.161 131.555V132.828H176.306V133.328H175.161V135.46C175.161 135.778 175.214 136.006 175.32 136.143C175.431 136.276 175.596 136.342 175.813 136.342C175.914 136.342 176.004 136.334 176.083 136.318C176.163 136.297 176.234 136.273 176.298 136.247V136.788C176.224 136.819 176.134 136.843 176.028 136.859C175.927 136.88 175.826 136.891 175.725 136.891ZM178.689 136.891C178.308 136.891 177.974 136.809 177.687 136.644C177.406 136.475 177.189 136.236 177.035 135.929C176.882 135.616 176.805 135.248 176.805 134.823C176.805 134.394 176.882 134.026 177.035 133.718C177.189 133.411 177.406 133.175 177.687 133.01C177.974 132.841 178.308 132.756 178.689 132.756C179.076 132.756 179.41 132.841 179.691 133.01C179.978 133.175 180.198 133.411 180.351 133.718C180.51 134.026 180.59 134.394 180.59 134.823C180.59 135.248 180.51 135.616 180.351 135.929C180.198 136.236 179.978 136.475 179.691 136.644C179.41 136.809 179.076 136.891 178.689 136.891ZM178.689 136.366C179.071 136.366 179.373 136.236 179.596 135.976C179.818 135.711 179.93 135.327 179.93 134.823C179.93 134.315 179.818 133.93 179.596 133.67C179.373 133.405 179.071 133.273 178.689 133.273C178.313 133.273 178.013 133.405 177.791 133.67C177.568 133.93 177.457 134.315 177.457 134.823C177.457 135.327 177.568 135.711 177.791 135.976C178.013 136.236 178.313 136.366 178.689 136.366ZM181.594 136.819V133.75C181.594 133.602 181.586 133.45 181.57 133.297C181.56 133.138 181.546 132.981 181.53 132.828H182.151L182.23 133.702H182.135C182.251 133.395 182.437 133.162 182.691 133.002C182.951 132.838 183.251 132.756 183.59 132.756C184.062 132.756 184.417 132.883 184.655 133.138C184.899 133.387 185.021 133.782 185.021 134.322V136.819H184.377V134.362C184.377 133.986 184.3 133.713 184.147 133.543C183.998 133.368 183.765 133.281 183.447 133.281C183.076 133.281 182.781 133.395 182.564 133.623C182.347 133.851 182.238 134.155 182.238 134.537V136.819H181.594ZM162.873 145.819V140.213H165.163C165.752 140.213 166.208 140.354 166.531 140.635C166.854 140.91 167.016 141.297 167.016 141.796C167.016 142.124 166.942 142.405 166.793 142.639C166.65 142.867 166.446 143.042 166.181 143.163C165.921 143.285 165.617 143.346 165.267 143.346L165.41 143.243H165.569C165.786 143.243 165.98 143.296 166.149 143.402C166.324 143.508 166.462 143.686 166.563 143.935L167.358 145.819H166.634L165.871 143.967C165.781 143.728 165.646 143.574 165.466 143.505C165.285 143.431 165.06 143.394 164.79 143.394H163.533V145.819H162.873ZM163.533 142.877H165.068C165.492 142.877 165.813 142.787 166.03 142.607C166.253 142.421 166.364 142.156 166.364 141.812C166.364 141.467 166.253 141.205 166.03 141.024C165.813 140.844 165.492 140.754 165.068 140.754H163.533V142.877ZM169.86 145.891C169.478 145.891 169.144 145.809 168.858 145.644C168.577 145.475 168.36 145.236 168.206 144.929C168.052 144.616 167.975 144.248 167.975 143.823C167.975 143.394 168.052 143.026 168.206 142.718C168.36 142.411 168.577 142.175 168.858 142.01C169.144 141.841 169.478 141.756 169.86 141.756C170.247 141.756 170.581 141.841 170.862 142.01C171.148 142.175 171.368 142.411 171.522 142.718C171.681 143.026 171.76 143.394 171.76 143.823C171.76 144.248 171.681 144.616 171.522 144.929C171.368 145.236 171.148 145.475 170.862 145.644C170.581 145.809 170.247 145.891 169.86 145.891ZM169.86 145.366C170.242 145.366 170.544 145.236 170.767 144.976C170.989 144.711 171.1 144.327 171.1 143.823C171.1 143.315 170.989 142.93 170.767 142.67C170.544 142.405 170.242 142.273 169.86 142.273C169.484 142.273 169.184 142.405 168.961 142.67C168.739 142.93 168.627 143.315 168.627 143.823C168.627 144.327 168.739 144.711 168.961 144.976C169.184 145.236 169.484 145.366 169.86 145.366ZM173.776 145.819L172.297 141.828H172.981L174.213 145.342H174.007L175.279 141.828H175.835L177.084 145.342H176.885L178.126 141.828H178.778L177.291 145.819H176.67L175.382 142.249H175.7L174.404 145.819H173.776ZM179.622 145.819V139.967H180.266V145.819H179.622ZM183.29 145.891C182.876 145.891 182.518 145.811 182.216 145.652C181.914 145.488 181.681 145.252 181.516 144.945C181.352 144.632 181.27 144.261 181.27 143.831C181.27 143.413 181.349 143.049 181.508 142.742C181.667 142.429 181.89 142.188 182.176 142.018C182.463 141.843 182.791 141.756 183.162 141.756C183.528 141.756 183.836 141.833 184.085 141.987C184.334 142.14 184.525 142.36 184.657 142.647C184.79 142.928 184.856 143.262 184.856 143.648V143.887H181.763V143.482H184.435L184.299 143.585C184.299 143.161 184.204 142.829 184.013 142.591C183.822 142.352 183.539 142.233 183.162 142.233C182.892 142.233 182.661 142.297 182.471 142.424C182.285 142.551 182.142 142.729 182.041 142.957C181.946 143.185 181.898 143.458 181.898 143.776V143.847C181.898 144.346 182.02 144.725 182.264 144.984C182.513 145.239 182.86 145.366 183.306 145.366C183.544 145.366 183.767 145.332 183.973 145.263C184.186 145.188 184.387 145.069 184.578 144.905L184.8 145.358C184.626 145.528 184.403 145.66 184.133 145.756C183.867 145.846 183.586 145.891 183.29 145.891ZM185.636 147.624L185.485 147.092C185.734 147.033 185.941 146.964 186.105 146.885C186.275 146.811 186.415 146.71 186.527 146.583C186.638 146.455 186.733 146.296 186.813 146.106L187.02 145.636L187.004 145.907L185.262 141.828H185.962L187.401 145.334H187.195L188.618 141.828H189.294L187.449 146.153C187.343 146.408 187.226 146.62 187.099 146.789C186.972 146.964 186.834 147.105 186.686 147.211C186.543 147.322 186.384 147.41 186.209 147.473C186.034 147.537 185.843 147.587 185.636 147.624Z" fill="black"/>
<path d="M208.693 136.819V131.213H210.983C211.572 131.213 212.027 131.354 212.351 131.635C212.674 131.91 212.836 132.297 212.836 132.796C212.836 133.124 212.762 133.405 212.613 133.639C212.47 133.867 212.266 134.042 212.001 134.163C211.741 134.285 211.436 134.346 211.087 134.346L211.23 134.243H211.389C211.606 134.243 211.8 134.296 211.969 134.402C212.144 134.508 212.282 134.686 212.383 134.935L213.178 136.819H212.454L211.691 134.967C211.601 134.728 211.466 134.574 211.285 134.505C211.105 134.431 210.88 134.394 210.609 134.394H209.353V136.819H208.693ZM209.353 133.877H210.888C211.312 133.877 211.633 133.787 211.85 133.607C212.073 133.421 212.184 133.156 212.184 132.812C212.184 132.467 212.073 132.205 211.85 132.024C211.633 131.844 211.312 131.754 210.888 131.754H209.353V133.877ZM215.68 136.891C215.298 136.891 214.964 136.809 214.678 136.644C214.397 136.475 214.18 136.236 214.026 135.929C213.872 135.616 213.795 135.248 213.795 134.823C213.795 134.394 213.872 134.026 214.026 133.718C214.18 133.411 214.397 133.175 214.678 133.01C214.964 132.841 215.298 132.756 215.68 132.756C216.067 132.756 216.401 132.841 216.682 133.01C216.968 133.175 217.188 133.411 217.342 133.718C217.501 134.026 217.58 134.394 217.58 134.823C217.58 135.248 217.501 135.616 217.342 135.929C217.188 136.236 216.968 136.475 216.682 136.644C216.401 136.809 216.067 136.891 215.68 136.891ZM215.68 136.366C216.062 136.366 216.364 136.236 216.586 135.976C216.809 135.711 216.92 135.327 216.92 134.823C216.92 134.315 216.809 133.93 216.586 133.67C216.364 133.405 216.062 133.273 215.68 133.273C215.303 133.273 215.004 133.405 214.781 133.67C214.559 133.93 214.447 134.315 214.447 134.823C214.447 135.327 214.559 135.711 214.781 135.976C215.004 136.236 215.303 136.366 215.68 136.366ZM220.262 136.891C219.87 136.891 219.528 136.806 219.237 136.636C218.95 136.467 218.728 136.226 218.569 135.913C218.415 135.6 218.338 135.229 218.338 134.8C218.338 134.365 218.418 133.996 218.577 133.694C218.736 133.387 218.958 133.154 219.245 132.995C219.536 132.835 219.875 132.756 220.262 132.756C220.517 132.756 220.763 132.801 221.002 132.891C221.246 132.981 221.447 133.108 221.606 133.273L221.376 133.734C221.217 133.58 221.042 133.466 220.851 133.392C220.665 133.318 220.482 133.281 220.302 133.281C219.889 133.281 219.568 133.411 219.34 133.67C219.112 133.93 218.998 134.309 218.998 134.808C218.998 135.301 219.112 135.682 219.34 135.953C219.568 136.223 219.889 136.358 220.302 136.358C220.477 136.358 220.657 136.324 220.843 136.255C221.034 136.186 221.211 136.072 221.376 135.913L221.606 136.366C221.442 136.536 221.238 136.666 220.994 136.756C220.75 136.846 220.506 136.891 220.262 136.891ZM222.522 136.819V130.967H223.166V133.71H223.062C223.174 133.397 223.359 133.162 223.619 133.002C223.884 132.838 224.189 132.756 224.533 132.756C225.011 132.756 225.366 132.886 225.599 133.146C225.832 133.4 225.949 133.787 225.949 134.307V136.819H225.305V134.346C225.305 133.975 225.231 133.705 225.082 133.535C224.939 133.366 224.706 133.281 224.382 133.281C224.011 133.281 223.714 133.395 223.492 133.623C223.274 133.851 223.166 134.15 223.166 134.521V136.819H222.522ZM228.954 136.891C228.541 136.891 228.183 136.811 227.881 136.652C227.578 136.488 227.345 136.252 227.181 135.945C227.017 135.632 226.934 135.261 226.934 134.831C226.934 134.413 227.014 134.049 227.173 133.742C227.332 133.429 227.555 133.188 227.841 133.018C228.127 132.843 228.456 132.756 228.827 132.756C229.193 132.756 229.5 132.833 229.749 132.987C229.998 133.14 230.189 133.36 230.322 133.647C230.454 133.928 230.521 134.262 230.521 134.648V134.887H227.427V134.482H230.099L229.964 134.585C229.964 134.161 229.869 133.829 229.678 133.591C229.487 133.352 229.203 133.233 228.827 133.233C228.557 133.233 228.326 133.297 228.135 133.424C227.95 133.551 227.806 133.729 227.706 133.957C227.61 134.185 227.563 134.458 227.563 134.776V134.847C227.563 135.346 227.684 135.725 227.928 135.984C228.177 136.239 228.525 136.366 228.97 136.366C229.209 136.366 229.431 136.332 229.638 136.263C229.85 136.188 230.051 136.069 230.242 135.905L230.465 136.358C230.29 136.528 230.067 136.66 229.797 136.756C229.532 136.846 229.251 136.891 228.954 136.891ZM231.506 136.819V130.967H232.15V136.819H231.506ZM233.401 136.819V130.967H234.045V136.819H233.401ZM237.069 136.891C236.656 136.891 236.298 136.811 235.996 136.652C235.693 136.488 235.46 136.252 235.296 135.945C235.131 135.632 235.049 135.261 235.049 134.831C235.049 134.413 235.129 134.049 235.288 133.742C235.447 133.429 235.669 133.188 235.956 133.018C236.242 132.843 236.571 132.756 236.942 132.756C237.308 132.756 237.615 132.833 237.864 132.987C238.113 133.14 238.304 133.36 238.437 133.647C238.569 133.928 238.636 134.262 238.636 134.648V134.887H235.542V134.482H238.214L238.079 134.585C238.079 134.161 237.983 133.829 237.793 133.591C237.602 133.352 237.318 133.233 236.942 133.233C236.671 133.233 236.441 133.297 236.25 133.424C236.064 133.551 235.921 133.729 235.821 133.957C235.725 134.185 235.677 134.458 235.677 134.776V134.847C235.677 135.346 235.799 135.725 236.043 135.984C236.292 136.239 236.64 136.366 237.085 136.366C237.323 136.366 237.546 136.332 237.753 136.263C237.965 136.188 238.166 136.069 238.357 135.905L238.58 136.358C238.405 136.528 238.182 136.66 237.912 136.756C237.647 136.846 237.366 136.891 237.069 136.891ZM211.741 145.819V140.213H214.023C214.612 140.213 215.065 140.356 215.383 140.643C215.701 140.924 215.86 141.316 215.86 141.82C215.86 142.148 215.788 142.435 215.645 142.678C215.502 142.917 215.293 143.102 215.017 143.235C214.741 143.362 214.41 143.426 214.023 143.426H212.401V145.819H211.741ZM212.401 142.877H213.96C214.368 142.877 214.675 142.784 214.882 142.599C215.094 142.413 215.2 142.154 215.2 141.82C215.2 141.48 215.094 141.218 214.882 141.032C214.675 140.847 214.368 140.754 213.96 140.754H212.401V142.877ZM218.174 145.891C217.818 145.891 217.508 145.809 217.243 145.644C216.978 145.475 216.771 145.236 216.623 144.929C216.48 144.621 216.408 144.253 216.408 143.823C216.408 143.389 216.48 143.018 216.623 142.71C216.771 142.403 216.978 142.167 217.243 142.002C217.508 141.838 217.818 141.756 218.174 141.756C218.534 141.756 218.844 141.849 219.104 142.034C219.369 142.215 219.544 142.461 219.629 142.774H219.533L219.621 141.828H220.241C220.225 141.981 220.209 142.138 220.193 142.297C220.183 142.45 220.177 142.602 220.177 142.75V145.819H219.533V144.881H219.621C219.536 145.194 219.361 145.44 219.096 145.621C218.831 145.801 218.523 145.891 218.174 145.891ZM218.301 145.366C218.683 145.366 218.985 145.236 219.207 144.976C219.43 144.711 219.541 144.327 219.541 143.823C219.541 143.315 219.43 142.93 219.207 142.67C218.985 142.405 218.683 142.273 218.301 142.273C217.924 142.273 217.622 142.405 217.394 142.67C217.172 142.93 217.06 143.315 217.06 143.823C217.06 144.327 217.172 144.711 217.394 144.976C217.622 145.236 217.924 145.366 218.301 145.366ZM221.407 145.819V142.79C221.407 142.631 221.402 142.469 221.391 142.305C221.386 142.14 221.375 141.981 221.359 141.828H221.979L222.059 142.798L221.948 142.806C222.001 142.567 222.093 142.371 222.226 142.217C222.358 142.063 222.515 141.949 222.695 141.875C222.875 141.796 223.064 141.756 223.26 141.756C223.339 141.756 223.408 141.759 223.466 141.764C223.53 141.769 223.588 141.782 223.641 141.804L223.633 142.376C223.554 142.35 223.48 142.334 223.411 142.328C223.347 142.318 223.273 142.313 223.188 142.313C222.955 142.313 222.751 142.368 222.576 142.48C222.406 142.591 222.276 142.734 222.186 142.909C222.101 143.084 222.059 143.269 222.059 143.466V145.819H221.407ZM224.312 145.819V139.967H224.956V143.601H224.972L226.824 141.828H227.635L225.449 143.911L225.465 143.585L227.842 145.819H227.007L224.972 143.943H224.956V145.819H224.312ZM230.076 145.891C229.663 145.891 229.305 145.811 229.003 145.652C228.701 145.488 228.467 145.252 228.303 144.945C228.139 144.632 228.056 144.261 228.056 143.831C228.056 143.413 228.136 143.049 228.295 142.742C228.454 142.429 228.677 142.188 228.963 142.018C229.249 141.843 229.578 141.756 229.949 141.756C230.315 141.756 230.622 141.833 230.871 141.987C231.121 142.14 231.311 142.36 231.444 142.647C231.576 142.928 231.643 143.262 231.643 143.648V143.887H228.549V143.482H231.221L231.086 143.585C231.086 143.161 230.991 142.829 230.8 142.591C230.609 142.352 230.325 142.233 229.949 142.233C229.679 142.233 229.448 142.297 229.257 142.424C229.072 142.551 228.929 142.729 228.828 142.957C228.732 143.185 228.685 143.458 228.685 143.776V143.847C228.685 144.346 228.807 144.725 229.05 144.984C229.3 145.239 229.647 145.366 230.092 145.366C230.331 145.366 230.553 145.332 230.76 145.263C230.972 145.188 231.174 145.069 231.364 144.905L231.587 145.358C231.412 145.528 231.189 145.66 230.919 145.756C230.654 145.846 230.373 145.891 230.076 145.891ZM233.956 145.891C233.638 145.891 233.341 145.848 233.066 145.764C232.79 145.674 232.562 145.549 232.382 145.39L232.604 144.937C232.801 145.09 233.013 145.204 233.241 145.279C233.474 145.353 233.715 145.39 233.964 145.39C234.282 145.39 234.521 145.334 234.68 145.223C234.844 145.106 234.926 144.947 234.926 144.746C234.926 144.592 234.873 144.47 234.767 144.38C234.667 144.285 234.5 144.21 234.266 144.157L233.527 144.006C233.188 143.932 232.933 143.808 232.763 143.633C232.594 143.452 232.509 143.224 232.509 142.949C232.509 142.715 232.57 142.511 232.692 142.336C232.814 142.156 232.991 142.016 233.225 141.915C233.458 141.809 233.731 141.756 234.044 141.756C234.335 141.756 234.603 141.801 234.847 141.891C235.096 141.976 235.303 142.101 235.467 142.265L235.237 142.71C235.077 142.556 234.895 142.442 234.688 142.368C234.486 142.289 234.277 142.249 234.06 142.249C233.747 142.249 233.511 142.313 233.352 142.44C233.198 142.562 233.121 142.723 233.121 142.925C233.121 143.079 233.169 143.206 233.264 143.307C233.365 143.402 233.519 143.474 233.726 143.521L234.465 143.672C234.826 143.752 235.093 143.876 235.268 144.046C235.449 144.21 235.539 144.433 235.539 144.714C235.539 144.953 235.472 145.162 235.34 145.342C235.207 145.517 235.022 145.652 234.783 145.748C234.55 145.843 234.274 145.891 233.956 145.891Z" fill="black"/>
<path d="M263.015 136.891C262.4 136.891 261.885 136.777 261.472 136.549C261.058 136.321 260.748 135.992 260.541 135.563C260.335 135.134 260.231 134.619 260.231 134.02C260.231 133.427 260.34 132.915 260.557 132.486C260.775 132.056 261.088 131.725 261.496 131.492C261.904 131.258 262.397 131.142 262.975 131.142C263.383 131.142 263.735 131.203 264.032 131.325C264.335 131.441 264.605 131.616 264.843 131.849L264.597 132.366C264.422 132.213 264.252 132.091 264.088 132.001C263.929 131.91 263.762 131.844 263.587 131.802C263.412 131.754 263.208 131.73 262.975 131.73C262.312 131.73 261.803 131.932 261.448 132.335C261.098 132.732 260.923 133.297 260.923 134.028C260.923 134.765 261.093 135.33 261.432 135.722C261.777 136.114 262.309 136.31 263.03 136.31C263.295 136.31 263.547 136.287 263.786 136.239C264.03 136.186 264.266 136.112 264.494 136.016L264.35 136.374V134.402H262.919V133.885H264.915V136.485C264.767 136.565 264.586 136.636 264.374 136.7C264.168 136.758 263.948 136.803 263.714 136.835C263.481 136.872 263.248 136.891 263.015 136.891ZM266.183 136.819V132.828H266.827V136.819H266.183ZM266.103 131.921V131.197H266.899V131.921H266.103ZM269.485 136.891C269.013 136.891 268.655 136.761 268.412 136.501C268.173 136.242 268.054 135.844 268.054 135.308V132.828H268.698V135.293C268.698 135.658 268.772 135.929 268.921 136.104C269.069 136.273 269.3 136.358 269.612 136.358C269.962 136.358 270.243 136.244 270.455 136.016C270.667 135.783 270.773 135.478 270.773 135.102V132.828H271.417V136.819H270.789V135.921H270.893C270.781 136.228 270.601 136.467 270.352 136.636C270.108 136.806 269.819 136.891 269.485 136.891ZM272.667 136.819V130.967H273.311V136.819H272.667ZM274.562 136.819V132.828H275.206V136.819H274.562ZM274.482 131.921V131.197H275.277V131.921H274.482ZM277.975 136.891C277.62 136.891 277.31 136.809 277.045 136.644C276.78 136.475 276.573 136.236 276.425 135.929C276.282 135.621 276.21 135.253 276.21 134.823C276.21 134.389 276.282 134.018 276.425 133.71C276.573 133.403 276.78 133.167 277.045 133.002C277.31 132.838 277.62 132.756 277.975 132.756C278.336 132.756 278.646 132.849 278.906 133.034C279.171 133.215 279.346 133.461 279.431 133.774H279.335L279.423 132.828H280.043C280.027 132.981 280.011 133.138 279.995 133.297C279.984 133.45 279.979 133.602 279.979 133.75V136.819H279.335V135.881H279.423C279.338 136.194 279.163 136.44 278.898 136.621C278.633 136.801 278.325 136.891 277.975 136.891ZM278.103 136.366C278.484 136.366 278.786 136.236 279.009 135.976C279.232 135.711 279.343 135.327 279.343 134.823C279.343 134.315 279.232 133.93 279.009 133.67C278.786 133.405 278.484 133.273 278.103 133.273C277.726 133.273 277.424 133.405 277.196 133.67C276.973 133.93 276.862 134.315 276.862 134.823C276.862 135.327 276.973 135.711 277.196 135.976C277.424 136.236 277.726 136.366 278.103 136.366ZM262.325 145.819V140.213H264.568C265.161 140.213 265.62 140.341 265.943 140.595C266.267 140.849 266.428 141.21 266.428 141.676C266.428 142.026 266.322 142.318 266.11 142.551C265.903 142.784 265.615 142.938 265.243 143.012V142.901C265.657 142.949 265.98 143.092 266.214 143.33C266.452 143.564 266.571 143.879 266.571 144.277C266.571 144.775 266.404 145.157 266.07 145.422C265.742 145.687 265.275 145.819 264.671 145.819H262.325ZM262.969 145.287H264.607C265.01 145.287 265.328 145.21 265.562 145.056C265.8 144.897 265.919 144.635 265.919 144.269C265.919 144.02 265.866 143.821 265.76 143.672C265.654 143.519 265.503 143.41 265.307 143.346C265.111 143.277 264.878 143.243 264.607 143.243H262.969V145.287ZM262.969 142.718H264.472C264.907 142.718 265.233 142.633 265.45 142.464C265.668 142.294 265.776 142.05 265.776 141.732C265.776 141.403 265.668 141.157 265.45 140.993C265.233 140.823 264.907 140.738 264.472 140.738H262.969V142.718ZM269.432 145.891C269.018 145.891 268.66 145.811 268.358 145.652C268.056 145.488 267.823 145.252 267.658 144.945C267.494 144.632 267.412 144.261 267.412 143.831C267.412 143.413 267.491 143.049 267.65 142.742C267.809 142.429 268.032 142.188 268.318 142.018C268.605 141.843 268.933 141.756 269.304 141.756C269.67 141.756 269.978 141.833 270.227 141.987C270.476 142.14 270.667 142.36 270.799 142.647C270.932 142.928 270.998 143.262 270.998 143.648V143.887H267.905V143.482H270.577L270.441 143.585C270.441 143.161 270.346 142.829 270.155 142.591C269.964 142.352 269.681 142.233 269.304 142.233C269.034 142.233 268.803 142.297 268.613 142.424C268.427 142.551 268.284 142.729 268.183 142.957C268.088 143.185 268.04 143.458 268.04 143.776V143.847C268.04 144.346 268.162 144.725 268.406 144.984C268.655 145.239 269.002 145.366 269.447 145.366C269.686 145.366 269.909 145.332 270.115 145.263C270.327 145.188 270.529 145.069 270.72 144.905L270.942 145.358C270.767 145.528 270.545 145.66 270.274 145.756C270.009 145.846 269.728 145.891 269.432 145.891ZM273.502 145.891C273.147 145.891 272.837 145.809 272.572 145.644C272.307 145.475 272.1 145.236 271.952 144.929C271.809 144.621 271.737 144.253 271.737 143.823C271.737 143.389 271.809 143.018 271.952 142.71C272.1 142.403 272.307 142.167 272.572 142.002C272.837 141.838 273.147 141.756 273.502 141.756C273.863 141.756 274.173 141.849 274.433 142.034C274.698 142.215 274.873 142.461 274.958 142.774H274.862L274.95 141.828H275.57C275.554 141.981 275.538 142.138 275.522 142.297C275.512 142.45 275.506 142.602 275.506 142.75V145.819H274.862V144.881H274.95C274.865 145.194 274.69 145.44 274.425 145.621C274.16 145.801 273.852 145.891 273.502 145.891ZM273.63 145.366C274.011 145.366 274.314 145.236 274.536 144.976C274.759 144.711 274.87 144.327 274.87 143.823C274.87 143.315 274.759 142.93 274.536 142.67C274.314 142.405 274.011 142.273 273.63 142.273C273.253 142.273 272.951 142.405 272.723 142.67C272.501 142.93 272.389 143.315 272.389 143.823C272.389 144.327 272.501 144.711 272.723 144.976C272.951 145.236 273.253 145.366 273.63 145.366ZM276.752 145.819V142.75C276.752 142.602 276.744 142.45 276.728 142.297C276.717 142.138 276.704 141.981 276.688 141.828H277.308L277.388 142.702H277.292C277.409 142.395 277.595 142.162 277.849 142.002C278.109 141.838 278.408 141.756 278.748 141.756C279.219 141.756 279.575 141.883 279.813 142.138C280.057 142.387 280.179 142.782 280.179 143.322V145.819H279.535V143.362C279.535 142.986 279.458 142.713 279.304 142.543C279.156 142.368 278.922 142.281 278.604 142.281C278.233 142.281 277.939 142.395 277.722 142.623C277.504 142.851 277.396 143.155 277.396 143.537V145.819H276.752Z" fill="black"/>
<path d="M306.662 136.819V131.213H308.952C309.541 131.213 309.996 131.354 310.32 131.635C310.643 131.91 310.805 132.297 310.805 132.796C310.805 133.124 310.731 133.405 310.582 133.639C310.439 133.867 310.235 134.042 309.97 134.163C309.71 134.285 309.405 134.346 309.055 134.346L309.199 134.243H309.358C309.575 134.243 309.768 134.296 309.938 134.402C310.113 134.508 310.251 134.686 310.352 134.935L311.147 136.819H310.423L309.66 134.967C309.57 134.728 309.435 134.574 309.254 134.505C309.074 134.431 308.849 134.394 308.578 134.394H307.322V136.819H306.662ZM307.322 133.877H308.857C309.281 133.877 309.601 133.787 309.819 133.607C310.041 133.421 310.153 133.156 310.153 132.812C310.153 132.467 310.041 132.205 309.819 132.024C309.601 131.844 309.281 131.754 308.857 131.754H307.322V133.877ZM313.599 136.891C313.244 136.891 312.934 136.809 312.669 136.644C312.404 136.475 312.197 136.236 312.049 135.929C311.906 135.621 311.834 135.253 311.834 134.823C311.834 134.389 311.906 134.018 312.049 133.71C312.197 133.403 312.404 133.167 312.669 133.002C312.934 132.838 313.244 132.756 313.599 132.756C313.96 132.756 314.27 132.849 314.53 133.034C314.795 133.215 314.97 133.461 315.055 133.774H314.959L315.047 132.828H315.667C315.651 132.981 315.635 133.138 315.619 133.297C315.609 133.45 315.603 133.602 315.603 133.75V136.819H314.959V135.881H315.047C314.962 136.194 314.787 136.44 314.522 136.621C314.257 136.801 313.949 136.891 313.599 136.891ZM313.727 136.366C314.108 136.366 314.41 136.236 314.633 135.976C314.856 135.711 314.967 135.327 314.967 134.823C314.967 134.315 314.856 133.93 314.633 133.67C314.41 133.405 314.108 133.273 313.727 133.273C313.35 133.273 313.048 133.405 312.82 133.67C312.597 133.93 312.486 134.315 312.486 134.823C312.486 135.327 312.597 135.711 312.82 135.976C313.048 136.236 313.35 136.366 313.727 136.366ZM316.849 136.819V132.828H317.493V136.819H316.849ZM316.769 131.921V131.197H317.564V131.921H316.769ZM320.254 136.891C319.904 136.891 319.597 136.809 319.332 136.644C319.067 136.475 318.86 136.236 318.712 135.929C318.568 135.621 318.497 135.253 318.497 134.823C318.497 134.389 318.568 134.018 318.712 133.71C318.86 133.403 319.067 133.167 319.332 133.002C319.597 132.838 319.904 132.756 320.254 132.756C320.615 132.756 320.925 132.846 321.185 133.026C321.45 133.207 321.627 133.45 321.717 133.758H321.622V130.967H322.266V136.819H321.63V135.865H321.717C321.632 136.183 321.458 136.435 321.192 136.621C320.927 136.801 320.615 136.891 320.254 136.891ZM320.389 136.366C320.766 136.366 321.068 136.236 321.296 135.976C321.524 135.711 321.638 135.327 321.638 134.823C321.638 134.315 321.524 133.93 321.296 133.67C321.068 133.405 320.766 133.273 320.389 133.273C320.013 133.273 319.711 133.405 319.483 133.67C319.26 133.93 319.149 134.315 319.149 134.823C319.149 135.327 319.26 135.711 319.483 135.976C319.711 136.236 320.013 136.366 320.389 136.366ZM325.285 136.891C324.871 136.891 324.513 136.811 324.211 136.652C323.909 136.488 323.676 136.252 323.511 135.945C323.347 135.632 323.265 135.261 323.265 134.831C323.265 134.413 323.344 134.049 323.503 133.742C323.662 133.429 323.885 133.188 324.171 133.018C324.458 132.843 324.786 132.756 325.157 132.756C325.523 132.756 325.831 132.833 326.08 132.987C326.329 133.14 326.52 133.36 326.652 133.647C326.785 133.928 326.851 134.262 326.851 134.648V134.887H323.758V134.482H326.43L326.294 134.585C326.294 134.161 326.199 133.829 326.008 133.591C325.817 133.352 325.534 133.233 325.157 133.233C324.887 133.233 324.656 133.297 324.466 133.424C324.28 133.551 324.137 133.729 324.036 133.957C323.941 134.185 323.893 134.458 323.893 134.776V134.847C323.893 135.346 324.015 135.725 324.259 135.984C324.508 136.239 324.855 136.366 325.3 136.366C325.539 136.366 325.762 136.332 325.968 136.263C326.18 136.188 326.382 136.069 326.573 135.905L326.795 136.358C326.62 136.528 326.398 136.66 326.127 136.756C325.862 136.846 325.581 136.891 325.285 136.891ZM327.837 136.819V133.75C327.837 133.602 327.829 133.45 327.813 133.297C327.802 133.138 327.789 132.981 327.773 132.828H328.393L328.473 133.702H328.377C328.494 133.395 328.68 133.162 328.934 133.002C329.194 132.838 329.493 132.756 329.833 132.756C330.304 132.756 330.66 132.883 330.898 133.138C331.142 133.387 331.264 133.782 331.264 134.322V136.819H330.62V134.362C330.62 133.986 330.543 133.713 330.389 133.543C330.241 133.368 330.007 133.281 329.689 133.281C329.318 133.281 329.024 133.395 328.807 133.623C328.589 133.851 328.481 134.155 328.481 134.537V136.819H327.837ZM311.037 145.891C310.475 145.891 309.998 145.774 309.605 145.541C309.213 145.308 308.911 144.976 308.699 144.547C308.492 144.118 308.389 143.606 308.389 143.012C308.389 142.419 308.492 141.91 308.699 141.486C308.911 141.056 309.213 140.725 309.605 140.492C309.998 140.258 310.475 140.142 311.037 140.142C311.434 140.142 311.79 140.203 312.102 140.325C312.415 140.447 312.688 140.624 312.921 140.857L312.675 141.382C312.42 141.16 312.169 140.998 311.919 140.897C311.67 140.791 311.379 140.738 311.045 140.738C310.403 140.738 309.916 140.937 309.582 141.335C309.248 141.732 309.081 142.291 309.081 143.012C309.081 143.495 309.155 143.908 309.303 144.253C309.452 144.592 309.672 144.852 309.963 145.032C310.26 145.207 310.621 145.295 311.045 145.295C311.379 145.295 311.67 145.244 311.919 145.143C312.169 145.037 312.42 144.87 312.675 144.642L312.921 145.175C312.688 145.403 312.415 145.581 312.102 145.708C311.79 145.83 311.434 145.891 311.037 145.891ZM313.944 145.819V142.79C313.944 142.631 313.939 142.469 313.928 142.305C313.923 142.14 313.912 141.981 313.896 141.828H314.516L314.596 142.798L314.485 142.806C314.538 142.567 314.63 142.371 314.763 142.217C314.895 142.063 315.052 141.949 315.232 141.875C315.412 141.796 315.601 141.756 315.797 141.756C315.876 141.756 315.945 141.759 316.003 141.764C316.067 141.769 316.125 141.782 316.178 141.804L316.17 142.376C316.091 142.35 316.017 142.334 315.948 142.328C315.884 142.318 315.81 142.313 315.725 142.313C315.492 142.313 315.288 142.368 315.113 142.48C314.943 142.591 314.813 142.734 314.723 142.909C314.638 143.084 314.596 143.269 314.596 143.466V145.819H313.944ZM318.329 145.891C317.973 145.891 317.663 145.809 317.398 145.644C317.133 145.475 316.926 145.236 316.778 144.929C316.635 144.621 316.563 144.253 316.563 143.823C316.563 143.389 316.635 143.018 316.778 142.71C316.926 142.403 317.133 142.167 317.398 142.002C317.663 141.838 317.973 141.756 318.329 141.756C318.689 141.756 318.999 141.849 319.259 142.034C319.524 142.215 319.699 142.461 319.784 142.774H319.688L319.776 141.828H320.396C320.38 141.981 320.364 142.138 320.348 142.297C320.338 142.45 320.332 142.602 320.332 142.75V145.819H319.688V144.881H319.776C319.691 145.194 319.516 145.44 319.251 145.621C318.986 145.801 318.678 145.891 318.329 145.891ZM318.456 145.366C318.837 145.366 319.14 145.236 319.362 144.976C319.585 144.711 319.696 144.327 319.696 143.823C319.696 143.315 319.585 142.93 319.362 142.67C319.14 142.405 318.837 142.273 318.456 142.273C318.079 142.273 317.777 142.405 317.549 142.67C317.327 142.93 317.215 143.315 317.215 143.823C317.215 144.327 317.327 144.711 317.549 144.976C317.777 145.236 318.079 145.366 318.456 145.366ZM321.578 145.819V142.75C321.578 142.602 321.57 142.45 321.554 142.297C321.543 142.138 321.53 141.981 321.514 141.828H322.134L322.214 142.702H322.118C322.235 142.395 322.421 142.162 322.675 142.002C322.935 141.838 323.234 141.756 323.574 141.756C324.045 141.756 324.401 141.883 324.639 142.138C324.883 142.387 325.005 142.782 325.005 143.322V145.819H324.361V143.362C324.361 142.986 324.284 142.713 324.13 142.543C323.982 142.368 323.749 142.281 323.43 142.281C323.059 142.281 322.765 142.395 322.548 142.623C322.33 142.851 322.222 143.155 322.222 143.537V145.819H321.578ZM328.01 145.891C327.597 145.891 327.239 145.811 326.937 145.652C326.635 145.488 326.401 145.252 326.237 144.945C326.073 144.632 325.99 144.261 325.99 143.831C325.99 143.413 326.07 143.049 326.229 142.742C326.388 142.429 326.611 142.188 326.897 142.018C327.183 141.843 327.512 141.756 327.883 141.756C328.249 141.756 328.556 141.833 328.805 141.987C329.055 142.14 329.245 142.36 329.378 142.647C329.51 142.928 329.577 143.262 329.577 143.648V143.887H326.483V143.482H329.155L329.02 143.585C329.02 143.161 328.925 142.829 328.734 142.591C328.543 142.352 328.259 142.233 327.883 142.233C327.613 142.233 327.382 142.297 327.191 142.424C327.006 142.551 326.863 142.729 326.762 142.957C326.666 143.185 326.619 143.458 326.619 143.776V143.847C326.619 144.346 326.741 144.725 326.984 144.984C327.234 145.239 327.581 145.366 328.026 145.366C328.265 145.366 328.487 145.332 328.694 145.263C328.906 145.188 329.108 145.069 329.298 144.905L329.521 145.358C329.346 145.528 329.123 145.66 328.853 145.756C328.588 145.846 328.307 145.891 328.01 145.891Z" fill="black"/>
<path d="M17.6253 21.9512V14.1027H18.8833L21.7666 20.593H21.4215L24.3048 14.1027H25.5517V21.9512H24.2492V16.1289H24.6499L22.0115 21.9512H21.1543L18.5159 16.1289H18.9278V21.9512H17.6253ZM27.1895 21.9512V16.3292H28.581V21.9512H27.1895ZM27.1115 15.2717V13.9135H28.659V15.2717H27.1115ZM32.096 22.0625C31.6136 22.0625 31.1683 22.0068 30.7601 21.8955C30.3594 21.7768 30.0217 21.6135 29.7471 21.4057L30.1367 20.4705C30.4187 20.6635 30.7305 20.8119 31.0718 20.9158C31.4132 21.0198 31.7584 21.0717 32.1072 21.0717C32.4783 21.0717 32.7529 21.0086 32.931 20.8824C33.1165 20.7563 33.2093 20.5856 33.2093 20.3704C33.2093 20.1997 33.1499 20.0661 33.0312 19.9696C32.9198 19.8657 32.738 19.7878 32.4857 19.7358L31.3724 19.5243C30.8974 19.4204 30.5338 19.2423 30.2814 18.9899C30.0365 18.7376 29.9141 18.4073 29.9141 17.9991C29.9141 17.6503 30.0068 17.3423 30.1924 17.0751C30.3853 16.8079 30.6562 16.6001 31.0051 16.4517C31.3613 16.2958 31.7769 16.2179 32.2519 16.2179C32.6675 16.2179 33.0572 16.2736 33.4208 16.3849C33.7919 16.4962 34.1036 16.6632 34.3559 16.8859L33.9552 17.7876C33.7251 17.6021 33.4616 17.4573 33.1648 17.3534C32.8679 17.2495 32.5785 17.1976 32.2964 17.1976C31.9105 17.1976 31.6285 17.2681 31.4504 17.4091C31.2722 17.5427 31.1832 17.7171 31.1832 17.9323C31.1832 18.0956 31.2351 18.2329 31.339 18.3442C31.4504 18.4481 31.6211 18.5261 31.8511 18.578L32.9644 18.7895C33.4616 18.886 33.8364 19.0567 34.0888 19.3016C34.3485 19.5391 34.4784 19.8657 34.4784 20.2813C34.4784 20.6524 34.3782 20.9715 34.1778 21.2387C33.9774 21.5059 33.6991 21.71 33.3429 21.851C32.9866 21.992 32.571 22.0625 32.096 22.0625ZM37.6732 22.0625C37.1908 22.0625 36.7455 22.0068 36.3373 21.8955C35.9365 21.7768 35.5988 21.6135 35.3242 21.4057L35.7139 20.4705C35.9959 20.6635 36.3076 20.8119 36.649 20.9158C36.9904 21.0198 37.3355 21.0717 37.6843 21.0717C38.0554 21.0717 38.33 21.0086 38.5081 20.8824C38.6937 20.7563 38.7864 20.5856 38.7864 20.3704C38.7864 20.1997 38.7271 20.0661 38.6083 19.9696C38.497 19.8657 38.3152 19.7878 38.0628 19.7358L36.9496 19.5243C36.4746 19.4204 36.1109 19.2423 35.8586 18.9899C35.6137 18.7376 35.4912 18.4073 35.4912 17.9991C35.4912 17.6503 35.584 17.3423 35.7695 17.0751C35.9625 16.8079 36.2334 16.6001 36.5822 16.4517C36.9384 16.2958 37.354 16.2179 37.829 16.2179C38.2446 16.2179 38.6343 16.2736 38.9979 16.3849C39.369 16.4962 39.6807 16.6632 39.9331 16.8859L39.5323 17.7876C39.3022 17.6021 39.0388 17.4573 38.7419 17.3534C38.445 17.2495 38.1556 17.1976 37.8736 17.1976C37.4876 17.1976 37.2056 17.2681 37.0275 17.4091C36.8494 17.5427 36.7603 17.7171 36.7603 17.9323C36.7603 18.0956 36.8123 18.2329 36.9162 18.3442C37.0275 18.4481 37.1982 18.5261 37.4283 18.578L38.5415 18.7895C39.0388 18.886 39.4136 19.0567 39.6659 19.3016C39.9257 19.5391 40.0555 19.8657 40.0555 20.2813C40.0555 20.6524 39.9553 20.9715 39.755 21.2387C39.5546 21.5059 39.2763 21.71 38.92 21.851C38.5638 21.992 38.1482 22.0625 37.6732 22.0625ZM43.9628 22.0625C43.332 22.0625 42.7902 21.9475 42.3374 21.7174C41.8921 21.4799 41.547 21.1422 41.3021 20.7043C41.0646 20.2664 40.9459 19.7469 40.9459 19.1458C40.9459 18.5595 41.0609 18.0474 41.291 17.6095C41.5211 17.1716 41.8402 16.8302 42.2484 16.5853C42.664 16.3404 43.1464 16.2179 43.6956 16.2179C44.2374 16.2179 44.6901 16.333 45.0538 16.563C45.4174 16.7931 45.692 17.1159 45.8776 17.5316C46.0706 17.9472 46.167 18.4333 46.167 18.9899V19.3573H42.0703V18.6225H45.1762L44.987 18.7784C44.987 18.2589 44.8757 17.8618 44.653 17.5872C44.4378 17.3126 44.1224 17.1753 43.7067 17.1753C43.395 17.1753 43.1316 17.2495 42.9163 17.398C42.7085 17.5464 42.549 17.7579 42.4376 18.0325C42.3263 18.3071 42.2707 18.6411 42.2707 19.0344V19.1792C42.2707 19.7878 42.4191 20.2442 42.716 20.5485C43.0202 20.8453 43.447 20.9938 43.9962 20.9938C44.3153 20.9938 44.6122 20.953 44.8868 20.8713C45.1688 20.7823 45.436 20.6412 45.6883 20.4483L46.1002 21.3834C45.8331 21.5986 45.5139 21.7656 45.1428 21.8844C44.7718 22.0031 44.3784 22.0625 43.9628 22.0625ZM49.5274 22.0625C49.0376 22.0625 48.6034 21.9475 48.2249 21.7174C47.8538 21.4799 47.5644 21.1422 47.3566 20.7043C47.1488 20.2664 47.0449 19.7432 47.0449 19.1346C47.0449 18.5261 47.1488 18.0065 47.3566 17.5761C47.5644 17.1382 47.8538 16.8042 48.2249 16.5742C48.6034 16.3367 49.0376 16.2179 49.5274 16.2179C49.995 16.2179 50.4069 16.333 50.7631 16.563C51.1268 16.7857 51.368 17.09 51.4867 17.4759H51.342V13.7576H52.7336V21.9512H51.3643V20.76H51.4979C51.3791 21.1608 51.1379 21.4799 50.7743 21.7174C50.418 21.9475 50.0024 22.0625 49.5274 22.0625ZM49.917 20.9938C50.3549 20.9938 50.7075 20.8416 50.9746 20.5373C51.2418 20.2256 51.3754 19.7581 51.3754 19.1346C51.3754 18.5112 51.2418 18.0474 50.9746 17.7431C50.7075 17.4388 50.3549 17.2866 49.917 17.2866C49.4792 17.2866 49.1229 17.4388 48.8483 17.7431C48.5811 18.0474 48.4476 18.5112 48.4476 19.1346C48.4476 19.7581 48.5811 20.2256 48.8483 20.5373C49.1229 20.8416 49.4792 20.9938 49.917 20.9938ZM59.8866 22.0625C59.3077 22.0625 58.7993 21.9438 58.3614 21.7063C57.931 21.4688 57.597 21.1311 57.3595 20.6932C57.122 20.2479 57.0033 19.721 57.0033 19.1124C57.0033 18.5038 57.122 17.9843 57.3595 17.5538C57.6044 17.1234 57.9421 16.7931 58.3726 16.563C58.803 16.333 59.3077 16.2179 59.8866 16.2179C60.2577 16.2179 60.6176 16.2773 60.9664 16.396C61.3227 16.5074 61.6121 16.6706 61.8348 16.8859L61.4117 17.8544C61.2113 17.6689 60.985 17.5316 60.7326 17.4425C60.4877 17.346 60.2465 17.2978 60.009 17.2978C59.5118 17.2978 59.1221 17.4536 58.8401 17.7653C58.5655 18.0771 58.4282 18.5298 58.4282 19.1235C58.4282 19.7172 58.5655 20.1737 58.8401 20.4928C59.1221 20.8119 59.5118 20.9715 60.009 20.9715C60.2391 20.9715 60.4766 20.927 60.7215 20.8379C60.9739 20.7489 61.2039 20.6116 61.4117 20.426L61.8348 21.3834C61.6047 21.5986 61.3115 21.7656 60.9553 21.8844C60.6065 22.0031 60.2502 22.0625 59.8866 22.0625ZM65.0518 22.0625C64.562 22.0625 64.1315 21.9475 63.7604 21.7174C63.3893 21.4799 63.0999 21.1422 62.8921 20.7043C62.6843 20.2664 62.5804 19.7432 62.5804 19.1346C62.5804 18.5261 62.6843 18.0065 62.8921 17.5761C63.0999 17.1382 63.3893 16.8042 63.7604 16.5742C64.1315 16.3367 64.562 16.2179 65.0518 16.2179C65.5268 16.2179 65.9424 16.3367 66.2986 16.5742C66.6623 16.8042 66.9035 17.1159 67.0223 17.5093H66.8998L67.0223 16.3292H68.3582C68.3359 16.5593 68.3136 16.7931 68.2914 17.0306C68.2765 17.2681 68.2691 17.5019 68.2691 17.7319V21.9512H66.8887L66.8775 20.7934H67.0111C66.8924 21.1793 66.6512 21.4873 66.2875 21.7174C65.9239 21.9475 65.512 22.0625 65.0518 22.0625ZM65.4414 20.9938C65.8793 20.9938 66.2319 20.8416 66.499 20.5373C66.7662 20.2256 66.8998 19.7581 66.8998 19.1346C66.8998 18.5112 66.7662 18.0474 66.499 17.7431C66.2319 17.4388 65.8793 17.2866 65.4414 17.2866C65.0036 17.2866 64.651 17.4388 64.3839 17.7431C64.1167 18.0474 63.9831 18.5112 63.9831 19.1346C63.9831 19.7581 64.113 20.2256 64.3727 20.5373C64.6399 20.8416 64.9961 20.9938 65.4414 20.9938ZM69.7844 21.9512V13.7576H71.176V21.9512H69.7844ZM72.6872 21.9512V13.7576H74.0787V21.9512H72.6872ZM77.5937 22.0625C77.1113 22.0625 76.666 22.0068 76.2578 21.8955C75.8571 21.7768 75.5194 21.6135 75.2448 21.4057L75.6344 20.4705C75.9164 20.6635 76.2281 20.8119 76.5695 20.9158C76.9109 21.0198 77.256 21.0717 77.6049 21.0717C77.976 21.0717 78.2506 21.0086 78.4287 20.8824C78.6142 20.7563 78.707 20.5856 78.707 20.3704C78.707 20.1997 78.6476 20.0661 78.5289 19.9696C78.4175 19.8657 78.2357 19.7878 77.9834 19.7358L76.8701 19.5243C76.3951 19.4204 76.0315 19.2423 75.7791 18.9899C75.5342 18.7376 75.4118 18.4073 75.4118 17.9991C75.4118 17.6503 75.5045 17.3423 75.6901 17.0751C75.883 16.8079 76.1539 16.6001 76.5027 16.4517C76.859 16.2958 77.2746 16.2179 77.7496 16.2179C78.1652 16.2179 78.5548 16.2736 78.9185 16.3849C79.2896 16.4962 79.6013 16.6632 79.8536 16.8859L79.4529 17.7876C79.2228 17.6021 78.9593 17.4573 78.6625 17.3534C78.3656 17.2495 78.0761 17.1976 77.7941 17.1976C77.4082 17.1976 77.1262 17.2681 76.948 17.4091C76.7699 17.5427 76.6809 17.7171 76.6809 17.9323C76.6809 18.0956 76.7328 18.2329 76.8367 18.3442C76.948 18.4481 77.1187 18.5261 77.3488 18.578L78.4621 18.7895C78.9593 18.886 79.3341 19.0567 79.5865 19.3016C79.8462 19.5391 79.9761 19.8657 79.9761 20.2813C79.9761 20.6524 79.8759 20.9715 79.6755 21.2387C79.4751 21.5059 79.1968 21.71 78.8406 21.851C78.4843 21.992 78.0687 22.0625 77.5937 22.0625ZM87.4392 22.0625C86.9642 22.0625 86.5486 21.9475 86.1924 21.7174C85.8361 21.4799 85.5987 21.1608 85.4799 20.76H85.6024V21.9512H84.2219V13.7576H85.6135V17.4759H85.4799C85.6061 17.09 85.8473 16.7857 86.2035 16.563C86.5598 16.333 86.9717 16.2179 87.4392 16.2179C87.9365 16.2179 88.3707 16.3367 88.7417 16.5742C89.1128 16.8117 89.4023 17.1493 89.6101 17.5872C89.8179 18.0177 89.9218 18.5372 89.9218 19.1458C89.9218 19.7544 89.8179 20.2776 89.6101 20.7155C89.4023 21.1459 89.1091 21.4799 88.7306 21.7174C88.3595 21.9475 87.9291 22.0625 87.4392 22.0625ZM87.0496 20.9938C87.4875 20.9938 87.84 20.8416 88.1072 20.5373C88.3818 20.2331 88.5191 19.7692 88.5191 19.1458C88.5191 18.5224 88.3818 18.0585 88.1072 17.7542C87.84 17.4425 87.4875 17.2866 87.0496 17.2866C86.6117 17.2866 86.2592 17.4388 85.992 17.7431C85.7248 18.0474 85.5912 18.5112 85.5912 19.1346C85.5912 19.7581 85.7248 20.2256 85.992 20.5373C86.2592 20.8416 86.6117 20.9938 87.0496 20.9938ZM90.9054 24.4783L90.5825 23.3761C90.9313 23.3019 91.2245 23.2166 91.462 23.1201C91.6995 23.0236 91.8962 22.8974 92.052 22.7416C92.2079 22.5857 92.3378 22.3853 92.4417 22.1404L92.72 21.4836L92.6866 22.0291L90.2374 16.3292H91.718L93.477 20.7155H93.1541L94.9242 16.3292H96.3269L93.7664 22.2629C93.5957 22.6637 93.4102 22.9939 93.2098 23.2537C93.0094 23.5209 92.7942 23.7324 92.5641 23.8882C92.334 24.0515 92.0817 24.1777 91.8071 24.2667C91.5325 24.3558 91.2319 24.4263 90.9054 24.4783ZM102.833 22.0625C102.202 22.0625 101.66 21.9475 101.207 21.7174C100.762 21.4799 100.417 21.1422 100.172 20.7043C99.9344 20.2664 99.8156 19.7469 99.8156 19.1458C99.8156 18.5595 99.9307 18.0474 100.161 17.6095C100.391 17.1716 100.71 16.8302 101.118 16.5853C101.534 16.3404 102.016 16.2179 102.565 16.2179C103.107 16.2179 103.56 16.333 103.924 16.563C104.287 16.7931 104.562 17.1159 104.747 17.5316C104.94 17.9472 105.037 18.4333 105.037 18.9899V19.3573H100.94V18.6225H104.046L103.857 18.7784C103.857 18.2589 103.745 17.8618 103.523 17.5872C103.308 17.3126 102.992 17.1753 102.577 17.1753C102.265 17.1753 102.001 17.2495 101.786 17.398C101.578 17.5464 101.419 17.7579 101.307 18.0325C101.196 18.3071 101.14 18.6411 101.14 19.0344V19.1792C101.14 19.7878 101.289 20.2442 101.586 20.5485C101.89 20.8453 102.317 20.9938 102.866 20.9938C103.185 20.9938 103.482 20.953 103.757 20.8713C104.039 20.7823 104.306 20.6412 104.558 20.4483L104.97 21.3834C104.703 21.5986 104.384 21.7656 104.013 21.8844C103.642 22.0031 103.248 22.0625 102.833 22.0625ZM106.215 21.9512V17.7319C106.215 17.5019 106.208 17.2681 106.193 17.0306C106.178 16.7931 106.156 16.5593 106.126 16.3292H107.473L107.585 17.4425H107.451C107.607 17.0566 107.844 16.756 108.163 16.5408C108.49 16.3255 108.876 16.2179 109.321 16.2179C109.766 16.2179 110.134 16.3255 110.423 16.5408C110.72 16.7486 110.928 17.0751 111.047 17.5204H110.869C111.024 17.1197 111.281 16.8042 111.637 16.5742C111.993 16.3367 112.401 16.2179 112.861 16.2179C113.492 16.2179 113.963 16.4035 114.275 16.7745C114.587 17.1456 114.743 17.7245 114.743 18.5112V21.9512H113.351V18.5669C113.351 18.1216 113.277 17.8024 113.129 17.6095C112.98 17.4091 112.743 17.3089 112.416 17.3089C112.03 17.3089 111.726 17.4462 111.503 17.7208C111.281 17.988 111.169 18.3517 111.169 18.8118V21.9512H109.778V18.5669C109.778 18.1216 109.703 17.8024 109.555 17.6095C109.407 17.4091 109.169 17.3089 108.842 17.3089C108.457 17.3089 108.152 17.4462 107.93 17.7208C107.714 17.988 107.607 18.3517 107.607 18.8118V21.9512H106.215ZM116.228 21.9512V13.7576H117.62V21.9512H116.228ZM121.669 22.0625C121.09 22.0625 120.589 21.9438 120.166 21.7063C119.743 21.4688 119.413 21.1311 119.175 20.6932C118.945 20.2553 118.83 19.7358 118.83 19.1346C118.83 18.5335 118.945 18.0177 119.175 17.5872C119.413 17.1493 119.743 16.8117 120.166 16.5742C120.589 16.3367 121.09 16.2179 121.669 16.2179C122.248 16.2179 122.749 16.3367 123.172 16.5742C123.602 16.8117 123.933 17.1493 124.163 17.5872C124.4 18.0177 124.519 18.5335 124.519 19.1346C124.519 19.7358 124.4 20.2553 124.163 20.6932C123.933 21.1311 123.602 21.4688 123.172 21.7063C122.749 21.9438 122.248 22.0625 121.669 22.0625ZM121.669 20.9938C122.107 20.9938 122.456 20.8416 122.715 20.5373C122.975 20.2256 123.105 19.7581 123.105 19.1346C123.105 18.5112 122.975 18.0474 122.715 17.7431C122.456 17.4388 122.107 17.2866 121.669 17.2866C121.231 17.2866 120.882 17.4388 120.622 17.7431C120.363 18.0474 120.233 18.5112 120.233 19.1346C120.233 19.7581 120.363 20.2256 120.622 20.5373C120.882 20.8416 121.231 20.9938 121.669 20.9938ZM125.499 24.4783L125.176 23.3761C125.525 23.3019 125.818 23.2166 126.055 23.1201C126.293 23.0236 126.49 22.8974 126.645 22.7416C126.801 22.5857 126.931 22.3853 127.035 22.1404L127.313 21.4836L127.28 22.0291L124.831 16.3292H126.312L128.07 20.7155H127.748L129.518 16.3292H130.92L128.36 22.2629C128.189 22.6637 128.004 22.9939 127.803 23.2537C127.603 23.5209 127.388 23.7324 127.158 23.8882C126.928 24.0515 126.675 24.1777 126.401 24.2667C126.126 24.3558 125.825 24.4263 125.499 24.4783ZM134.262 22.0625C133.632 22.0625 133.09 21.9475 132.637 21.7174C132.192 21.4799 131.847 21.1422 131.602 20.7043C131.364 20.2664 131.245 19.7469 131.245 19.1458C131.245 18.5595 131.361 18.0474 131.591 17.6095C131.821 17.1716 132.14 16.8302 132.548 16.5853C132.964 16.3404 133.446 16.2179 133.995 16.2179C134.537 16.2179 134.99 16.333 135.353 16.563C135.717 16.7931 135.992 17.1159 136.177 17.5316C136.37 17.9472 136.467 18.4333 136.467 18.9899V19.3573H132.37V18.6225H135.476L135.287 18.7784C135.287 18.2589 135.175 17.8618 134.953 17.5872C134.737 17.3126 134.422 17.1753 134.006 17.1753C133.695 17.1753 133.431 17.2495 133.216 17.398C133.008 17.5464 132.849 17.7579 132.737 18.0325C132.626 18.3071 132.57 18.6411 132.57 19.0344V19.1792C132.57 19.7878 132.719 20.2442 133.016 20.5485C133.32 20.8453 133.747 20.9938 134.296 20.9938C134.615 20.9938 134.912 20.953 135.186 20.8713C135.468 20.7823 135.736 20.6412 135.988 20.4483L136.4 21.3834C136.133 21.5986 135.814 21.7656 135.442 21.8844C135.071 22.0031 134.678 22.0625 134.262 22.0625ZM140.361 22.0625C139.731 22.0625 139.189 21.9475 138.736 21.7174C138.291 21.4799 137.946 21.1422 137.701 20.7043C137.463 20.2664 137.344 19.7469 137.344 19.1458C137.344 18.5595 137.459 18.0474 137.69 17.6095C137.92 17.1716 138.239 16.8302 138.647 16.5853C139.063 16.3404 139.545 16.2179 140.094 16.2179C140.636 16.2179 141.089 16.333 141.452 16.563C141.816 16.7931 142.091 17.1159 142.276 17.5316C142.469 17.9472 142.566 18.4333 142.566 18.9899V19.3573H138.469V18.6225H141.575L141.386 18.7784C141.386 18.2589 141.274 17.8618 141.052 17.5872C140.836 17.3126 140.521 17.1753 140.105 17.1753C139.794 17.1753 139.53 17.2495 139.315 17.398C139.107 17.5464 138.948 17.7579 138.836 18.0325C138.725 18.3071 138.669 18.6411 138.669 19.0344V19.1792C138.669 19.7878 138.818 20.2442 139.115 20.5485C139.419 20.8453 139.846 20.9938 140.395 20.9938C140.714 20.9938 141.011 20.953 141.285 20.8713C141.567 20.7823 141.835 20.6412 142.087 20.4483L142.499 21.3834C142.232 21.5986 141.912 21.7656 141.541 21.8844C141.17 22.0031 140.777 22.0625 140.361 22.0625ZM145.748 22.0625C145.265 22.0625 144.82 22.0068 144.412 21.8955C144.011 21.7768 143.673 21.6135 143.399 21.4057L143.789 20.4705C144.071 20.6635 144.382 20.8119 144.724 20.9158C145.065 21.0198 145.41 21.0717 145.759 21.0717C146.13 21.0717 146.405 21.0086 146.583 20.8824C146.768 20.7563 146.861 20.5856 146.861 20.3704C146.861 20.1997 146.802 20.0661 146.683 19.9696C146.572 19.8657 146.39 19.7878 146.137 19.7358L145.024 19.5243C144.549 19.4204 144.186 19.2423 143.933 18.9899C143.688 18.7376 143.566 18.4073 143.566 17.9991C143.566 17.6503 143.659 17.3423 143.844 17.0751C144.037 16.8079 144.308 16.6001 144.657 16.4517C145.013 16.2958 145.429 16.2179 145.904 16.2179C146.319 16.2179 146.709 16.2736 147.073 16.3849C147.444 16.4962 147.755 16.6632 148.008 16.8859L147.607 17.7876C147.377 17.6021 147.113 17.4573 146.817 17.3534C146.52 17.2495 146.23 17.1976 145.948 17.1976C145.562 17.1976 145.28 17.2681 145.102 17.4091C144.924 17.5427 144.835 17.7171 144.835 17.9323C144.835 18.0956 144.887 18.2329 144.991 18.3442C145.102 18.4481 145.273 18.5261 145.503 18.578L146.616 18.7895C147.113 18.886 147.488 19.0567 147.741 19.3016C148 19.5391 148.13 19.8657 148.13 20.2813C148.13 20.6524 148.03 20.9715 147.83 21.2387C147.629 21.5059 147.351 21.71 146.995 21.851C146.638 21.992 146.223 22.0625 145.748 22.0625Z" fill="black"/>
<path d="M58.0959 41.7472C58.0959 38.2339 60.9441 35.3857 64.4574 35.3857H96.2646C99.778 35.3857 102.626 38.2339 102.626 41.7472V120.47H58.0959V41.7472Z" fill="#5D6AE8"/>
<path d="M105.806 46.1202C105.806 42.6069 108.655 39.7588 112.168 39.7588H143.975C147.488 39.7588 150.337 42.6069 150.337 46.1202V120.867H105.806V46.1202Z" fill="#5D6AE8"/>
<path d="M153.517 62.0236C153.517 58.5102 156.365 55.6621 159.879 55.6621H191.686C195.199 55.6621 198.047 58.5102 198.047 62.0236V120.867H153.517V62.0236Z" fill="#5D6AE8"/>
<path d="M201.228 69.5792C201.228 66.0659 204.076 63.2178 207.589 63.2178H239.397C242.91 63.2178 245.758 66.0659 245.758 69.5792V120.471H201.228V69.5792Z" fill="#5D6AE8"/>
<path d="M248.939 74.3488C248.939 70.8354 251.787 67.9873 255.3 67.9873H287.108C290.621 67.9873 293.469 70.8354 293.469 74.3487V120.469H248.939V74.3488Z" fill="#5D6AE8"/>
<path d="M296.65 78.3243C296.65 74.811 299.498 71.9629 303.011 71.9629H334.819C338.332 71.9629 341.18 74.811 341.18 78.3243V120.469H296.65V78.3243Z" fill="#5D6AE8"/>
</svg>
