<svg width="478" height="160" viewBox="0 0 478 160" fill="none" xmlns="http://www.w3.org/2000/svg">
<rect x="0.553711" y="0.963867" width="477.108" height="159.036" rx="12.7229" fill="white"/>
<path d="M391.783 65.3742H398.145" stroke="#5D6AE8" stroke-width="1.59036" stroke-linecap="round" stroke-linejoin="round"/>
<path d="M391.783 95.5909H398.145" stroke="#FF0090" stroke-width="1.59036" stroke-linecap="round" stroke-linejoin="round"/>
<path d="M407.464 71.2402L412.903 61.0301V61.7458H406.955V60.0282H414.795V61.5549L409.706 71.2402H407.464ZM423.924 71.3993C423.32 71.3993 422.721 71.2879 422.127 71.0653C421.533 70.832 421.025 70.5193 420.6 70.127L421.284 68.6002C421.677 68.9607 422.101 69.2311 422.557 69.4113C423.012 69.5916 423.474 69.6817 423.94 69.6817C424.884 69.6817 425.605 69.3583 426.103 68.7116C426.612 68.0648 426.866 67.1 426.866 65.8171V64.6243H427.057C426.983 65.1545 426.803 65.6157 426.517 66.0079C426.23 66.4002 425.87 66.7024 425.435 66.9145C425.011 67.1159 424.534 67.2166 424.004 67.2166C423.357 67.2166 422.774 67.0629 422.254 66.7554C421.745 66.4479 421.343 66.0238 421.046 65.4831C420.759 64.9318 420.616 64.3116 420.616 63.6224C420.616 62.8908 420.775 62.2441 421.093 61.6822C421.422 61.1202 421.867 60.6802 422.429 60.3622C422.991 60.0335 423.638 59.8692 424.37 59.8692C425.324 59.8692 426.13 60.0865 426.787 60.5212C427.444 60.9559 427.943 61.592 428.282 62.4296C428.632 63.2566 428.807 64.2585 428.807 65.4354C428.807 66.6971 428.611 67.7732 428.218 68.6638C427.837 69.5545 427.28 70.233 426.548 70.6995C425.817 71.166 424.942 71.3993 423.924 71.3993ZM424.497 65.5945C424.889 65.5945 425.234 65.5096 425.531 65.34C425.827 65.1704 426.061 64.9318 426.23 64.6243C426.4 64.3063 426.485 63.9458 426.485 63.5429C426.485 63.1294 426.4 62.7689 426.23 62.4614C426.061 62.154 425.827 61.9154 425.531 61.7458C425.234 61.5655 424.889 61.4754 424.497 61.4754C424.105 61.4754 423.76 61.5655 423.463 61.7458C423.166 61.9154 422.933 62.154 422.763 62.4614C422.604 62.7689 422.525 63.1294 422.525 63.5429C422.525 63.9458 422.604 64.3063 422.763 64.6243C422.933 64.9318 423.166 65.1704 423.463 65.34C423.76 65.5096 424.105 65.5945 424.497 65.5945ZM434.303 71.3993C432.988 71.3993 431.976 70.901 431.266 69.9043C430.555 68.8971 430.2 67.4658 430.2 65.6104C430.2 63.7337 430.555 62.3077 431.266 61.3323C431.976 60.3569 432.988 59.8692 434.303 59.8692C435.628 59.8692 436.641 60.3569 437.341 61.3323C438.051 62.3077 438.406 63.7284 438.406 65.5945C438.406 67.4605 438.051 68.8971 437.341 69.9043C436.641 70.901 435.628 71.3993 434.303 71.3993ZM434.303 69.7135C435.024 69.7135 435.56 69.3848 435.909 68.7275C436.259 68.0595 436.434 67.0152 436.434 65.5945C436.434 64.6402 436.355 63.8663 436.196 63.2725C436.047 62.6788 435.814 62.2441 435.496 61.9684C435.178 61.6822 434.78 61.539 434.303 61.539C433.593 61.539 433.057 61.8624 432.697 62.5092C432.347 63.1453 432.172 64.1737 432.172 65.5945C432.172 66.5381 432.252 67.3173 432.411 67.9323C432.57 68.5366 432.803 68.9872 433.11 69.2841C433.428 69.5704 433.826 69.7135 434.303 69.7135ZM440.833 71.2402V69.5385H443.41V61.7458H444.396L441.088 63.7178V61.7776L443.998 60.0282H445.461V69.5385H447.879V71.2402H440.833Z" fill="black"/>
<path d="M407.861 101.458V99.7563H410.438V91.9636H411.424L408.116 93.9356V91.9954L411.026 90.246H412.489V99.7563H414.907V101.458H407.861ZM416.872 101.458V99.9472L420.594 96.0667C421.06 95.579 421.405 95.1284 421.628 94.7149C421.85 94.3014 421.962 93.8773 421.962 93.4426C421.962 92.9019 421.792 92.4937 421.453 92.218C421.113 91.9423 420.62 91.8045 419.974 91.8045C419.454 91.8045 418.956 91.8999 418.479 92.0908C418.002 92.271 417.535 92.5573 417.079 92.9496L416.411 91.4228C416.867 91.0199 417.429 90.6966 418.097 90.4527C418.776 90.2089 419.486 90.0869 420.228 90.0869C421.034 90.0869 421.712 90.2089 422.264 90.4527C422.826 90.6966 423.25 91.0517 423.536 91.5182C423.833 91.9848 423.981 92.552 423.981 93.2199C423.981 93.9197 423.817 94.5876 423.488 95.2238C423.16 95.8493 422.651 96.5067 421.962 97.1958L418.86 100.297V99.7563H424.427V101.458H416.872ZM434.303 101.617C432.988 101.617 431.976 101.119 431.266 100.122C430.555 99.1149 430.2 97.6836 430.2 95.8281C430.2 93.9515 430.555 92.5255 431.266 91.5501C431.976 90.5746 432.988 90.0869 434.303 90.0869C435.628 90.0869 436.641 90.5746 437.341 91.5501C438.051 92.5255 438.406 93.9462 438.406 95.8122C438.406 97.6782 438.051 99.1149 437.341 100.122C436.641 101.119 435.628 101.617 434.303 101.617ZM434.303 99.9313C435.024 99.9313 435.56 99.6026 435.909 98.9452C436.259 98.2773 436.434 97.2329 436.434 95.8122C436.434 94.858 436.355 94.084 436.196 93.4903C436.047 92.8966 435.814 92.4619 435.496 92.1862C435.178 91.8999 434.78 91.7568 434.303 91.7568C433.593 91.7568 433.057 92.0802 432.697 92.7269C432.347 93.3631 432.172 94.3915 432.172 95.8122C432.172 96.7558 432.252 97.5351 432.411 98.1501C432.57 98.7544 432.803 99.205 433.11 99.5019C433.428 99.7881 433.826 99.9313 434.303 99.9313ZM444.73 101.458V99.2633H439.72V97.832L445.048 90.246H446.702V97.7048H448.308V99.2633H446.702V101.458H444.73ZM444.73 97.7048V92.6633H445.111L441.247 98.1819V97.7048H444.73ZM449.972 101.458L455.411 91.2479V91.9636H449.463V90.246H457.303V91.7727L452.214 101.458H449.972Z" fill="black"/>
<g opacity="0.2">
<path d="M46.6748 58.2169H352.024" stroke="black" stroke-width="0.795181" stroke-linecap="round" stroke-linejoin="round"/>
<path d="M46.6746 90.0236H352.024" stroke="black" stroke-width="0.795181" stroke-linecap="round" stroke-linejoin="round"/>
<path d="M46.6746 121.831H352.024" stroke="black" stroke-width="0.795181" stroke-linecap="round" stroke-linejoin="round"/>
</g>
<path d="M22.9205 60.8555V60.2909H24.2405V55.814H24.5904L23.0478 56.7762V56.1162L24.4234 55.2494H24.9005V60.2909H26.141V60.8555H22.9205ZM27.3068 60.8555V55.0029H27.9509V58.6369H27.9668L29.8196 56.8637H30.6307L28.4439 58.947L28.4598 58.621L30.8374 60.8555H30.0025L27.9668 58.9788H27.9509V60.8555H27.3068Z" fill="black"/>
<g clip-path="url(#clip0_4039_102287)">
<path d="M28.3881 124.542C27.7519 124.542 27.2642 124.296 26.925 123.803C26.5857 123.31 26.416 122.597 26.416 121.664C26.416 120.725 26.5857 120.012 26.925 119.525C27.2642 119.037 27.7519 118.793 28.3881 118.793C29.0295 118.793 29.5172 119.037 29.8512 119.525C30.1905 120.012 30.3601 120.723 30.3601 121.656C30.3601 122.594 30.1905 123.31 29.8512 123.803C29.5119 124.296 29.0242 124.542 28.3881 124.542ZM28.3881 123.97C28.8334 123.97 29.1647 123.782 29.3821 123.405C29.5994 123.029 29.7081 122.446 29.7081 121.656C29.7081 121.126 29.6604 120.694 29.565 120.36C29.4695 120.02 29.3238 119.769 29.1276 119.604C28.9315 119.44 28.685 119.358 28.3881 119.358C27.9481 119.358 27.6168 119.543 27.3941 119.914C27.1768 120.285 27.0681 120.866 27.0681 121.656C27.0681 122.181 27.1158 122.615 27.2112 122.96C27.3119 123.299 27.4577 123.554 27.6486 123.723C27.8447 123.888 28.0912 123.97 28.3881 123.97Z" fill="black"/>
<path d="M18.9555 92.7347C18.7117 92.7347 18.4731 92.7081 18.2398 92.6551C18.0066 92.6021 17.7866 92.5253 17.5798 92.4245C17.3784 92.3238 17.2008 92.2019 17.0471 92.0587L17.2936 91.5498C17.5533 91.7566 17.8184 91.9103 18.0888 92.011C18.3591 92.1065 18.648 92.1542 18.9555 92.1542C19.3584 92.1542 19.6738 92.0455 19.9018 91.8281C20.1297 91.6108 20.2437 91.3245 20.2437 90.9694C20.2437 90.6036 20.135 90.304 19.9177 90.0708C19.7003 89.8375 19.3982 89.7209 19.0112 89.7209C18.7355 89.7209 18.489 89.7766 18.2717 89.8879C18.0543 89.9939 17.8661 90.1609 17.7071 90.3889H17.23V87.0571H20.5538V87.6137H17.8661V89.8481H17.6912C17.8343 89.6255 18.0305 89.4559 18.2796 89.3392C18.5341 89.2173 18.8203 89.1563 19.1384 89.1563C19.4989 89.1563 19.809 89.2306 20.0688 89.379C20.3338 89.5274 20.5379 89.7342 20.6811 89.9992C20.8242 90.2643 20.8958 90.5744 20.8958 90.9296C20.8958 91.2848 20.8162 91.6002 20.6572 91.8759C20.5035 92.1462 20.2808 92.3583 19.9892 92.512C19.703 92.6604 19.3584 92.7347 18.9555 92.7347ZM23.6201 92.7347C22.984 92.7347 22.4963 92.4881 22.157 91.9951C21.8177 91.5021 21.6481 90.7891 21.6481 89.8561C21.6481 88.9178 21.8177 88.2048 22.157 87.7171C22.4963 87.2294 22.984 86.9855 23.6201 86.9855C24.2616 86.9855 24.7493 87.2294 25.0832 87.7171C25.4225 88.2048 25.5922 88.9151 25.5922 89.8481C25.5922 90.7865 25.4225 91.5021 25.0832 91.9951C24.744 92.4881 24.2563 92.7347 23.6201 92.7347ZM23.6201 92.1621C24.0654 92.1621 24.3967 91.9739 24.6141 91.5975C24.8314 91.2212 24.9401 90.638 24.9401 89.8481C24.9401 89.318 24.8924 88.886 24.797 88.552C24.7016 88.2127 24.5558 87.9609 24.3596 87.7966C24.1635 87.6322 23.917 87.5501 23.6201 87.5501C23.1801 87.5501 22.8488 87.7356 22.6261 88.1067C22.4088 88.4778 22.3001 89.0583 22.3001 89.8481C22.3001 90.373 22.3478 90.8077 22.4432 91.1522C22.544 91.4915 22.6898 91.746 22.8806 91.9156C23.0767 92.08 23.3232 92.1621 23.6201 92.1621ZM28.3881 92.7347C27.7519 92.7347 27.2642 92.4881 26.925 91.9951C26.5857 91.5021 26.416 90.7891 26.416 89.8561C26.416 88.9178 26.5857 88.2048 26.925 87.7171C27.2642 87.2294 27.7519 86.9855 28.3881 86.9855C29.0295 86.9855 29.5172 87.2294 29.8512 87.7171C30.1905 88.2048 30.3601 88.9151 30.3601 89.8481C30.3601 90.7865 30.1905 91.5021 29.8512 91.9951C29.5119 92.4881 29.0242 92.7347 28.3881 92.7347ZM28.3881 92.1621C28.8334 92.1621 29.1647 91.9739 29.3821 91.5975C29.5994 91.2212 29.7081 90.638 29.7081 89.8481C29.7081 89.318 29.6604 88.886 29.565 88.552C29.4695 88.2127 29.3238 87.9609 29.1276 87.7966C28.9315 87.6322 28.685 87.5501 28.3881 87.5501C27.9481 87.5501 27.6168 87.7356 27.3941 88.1067C27.1768 88.4778 27.0681 89.0583 27.0681 89.8481C27.0681 90.373 27.1158 90.8077 27.2112 91.1522C27.3119 91.4915 27.4577 91.746 27.6486 91.9156C27.8447 92.08 28.0912 92.1621 28.3881 92.1621Z" fill="black"/>
</g>
<path d="M68.3662 137.783V132.177H69.0262V134.722H69.0421L71.7299 132.177H72.5727L69.4795 135.072L69.4874 134.738L72.7954 137.783H71.9286L69.0421 135.143H69.0262V137.783H68.3662ZM74.8532 137.855C74.4981 137.855 74.1879 137.773 73.9229 137.608C73.6578 137.439 73.4511 137.2 73.3026 136.893C73.1595 136.585 73.0879 136.217 73.0879 135.787C73.0879 135.353 73.1595 134.982 73.3026 134.674C73.4511 134.367 73.6578 134.131 73.9229 133.966C74.1879 133.802 74.4981 133.72 74.8532 133.72C75.2137 133.72 75.5238 133.813 75.7836 133.998C76.0487 134.178 76.2236 134.425 76.3084 134.738H76.213L76.3005 133.791H76.9207C76.9048 133.945 76.8889 134.102 76.873 134.261C76.8624 134.414 76.8571 134.565 76.8571 134.714V137.783H76.213V136.845H76.3005C76.2156 137.158 76.0407 137.404 75.7756 137.584C75.5106 137.765 75.2031 137.855 74.8532 137.855ZM74.9805 137.33C75.3621 137.33 75.6643 137.2 75.887 136.94C76.1096 136.675 76.2209 136.291 76.2209 135.787C76.2209 135.278 76.1096 134.894 75.887 134.634C75.6643 134.369 75.3621 134.237 74.9805 134.237C74.6041 134.237 74.3019 134.369 74.074 134.634C73.8513 134.894 73.74 135.278 73.74 135.787C73.74 136.291 73.8513 136.675 74.074 136.94C74.3019 137.2 74.6041 137.33 74.9805 137.33ZM79.5178 137.855C79.1255 137.855 78.826 137.743 78.6193 137.521C78.4125 137.293 78.3092 136.951 78.3092 136.495V134.292H77.5299V133.791H78.3092V132.702L78.9533 132.519V133.791H80.0983V134.292H78.9533V136.423C78.9533 136.742 79.0063 136.969 79.1123 137.107C79.2236 137.24 79.388 137.306 79.6053 137.306C79.706 137.306 79.7962 137.298 79.8757 137.282C79.9552 137.261 80.0268 137.237 80.0904 137.211V137.751C80.0162 137.783 79.926 137.807 79.82 137.823C79.7193 137.844 79.6186 137.855 79.5178 137.855ZM80.77 139.588L80.6189 139.055C80.8681 138.997 81.0748 138.928 81.2392 138.849C81.4088 138.775 81.5493 138.674 81.6606 138.547C81.7719 138.419 81.8673 138.26 81.9469 138.069L82.1536 137.6L82.1377 137.871L80.3963 133.791H81.096L82.5353 137.298H82.3286L83.7519 133.791H84.4278L82.583 138.117C82.477 138.372 82.3604 138.584 82.2331 138.753C82.1059 138.928 81.9681 139.069 81.8196 139.175C81.6765 139.286 81.5175 139.374 81.3425 139.437C81.1676 139.501 80.9767 139.551 80.77 139.588ZM61.257 146.783V141.177H63.5391C64.1276 141.177 64.5808 141.32 64.8989 141.607C65.217 141.888 65.376 142.28 65.376 142.783C65.376 143.112 65.3044 143.398 65.1613 143.642C65.0182 143.881 64.8088 144.066 64.5331 144.199C64.2575 144.326 63.9261 144.39 63.5391 144.39H61.917V146.783H61.257ZM61.917 143.841H63.4755C63.8837 143.841 64.1912 143.748 64.3979 143.563C64.61 143.377 64.716 143.117 64.716 142.783C64.716 142.444 64.61 142.182 64.3979 141.996C64.1912 141.811 63.8837 141.718 63.4755 141.718H61.917V143.841ZM67.6896 146.855C67.3344 146.855 67.0243 146.773 66.7593 146.608C66.4942 146.439 66.2874 146.2 66.139 145.893C65.9959 145.585 65.9243 145.217 65.9243 144.787C65.9243 144.353 65.9959 143.982 66.139 143.674C66.2874 143.367 66.4942 143.131 66.7593 142.966C67.0243 142.802 67.3344 142.72 67.6896 142.72C68.0501 142.72 68.3602 142.813 68.62 142.998C68.885 143.178 69.06 143.425 69.1448 143.738H69.0494L69.1368 142.791H69.7571C69.7412 142.945 69.7253 143.102 69.7094 143.261C69.6988 143.414 69.6935 143.565 69.6935 143.714V146.783H69.0494V145.845H69.1368C69.052 146.158 68.8771 146.404 68.612 146.584C68.347 146.765 68.0395 146.855 67.6896 146.855ZM67.8168 146.33C68.1985 146.33 68.5007 146.2 68.7234 145.94C68.946 145.675 69.0573 145.291 69.0573 144.787C69.0573 144.278 68.946 143.894 68.7234 143.634C68.5007 143.369 68.1985 143.237 67.8168 143.237C67.4405 143.237 67.1383 143.369 66.9103 143.634C66.6877 143.894 66.5764 144.278 66.5764 144.787C66.5764 145.291 66.6877 145.675 66.9103 145.94C67.1383 146.2 67.4405 146.33 67.8168 146.33ZM72.6166 146.855C72.2243 146.855 71.8824 146.77 71.5908 146.6C71.3046 146.431 71.0819 146.189 70.9229 145.877C70.7692 145.564 70.6923 145.193 70.6923 144.763C70.6923 144.329 70.7718 143.96 70.9308 143.658C71.0899 143.351 71.3125 143.117 71.5988 142.958C71.8904 142.799 72.2296 142.72 72.6166 142.72C72.8711 142.72 73.1176 142.765 73.3561 142.855C73.6 142.945 73.8015 143.072 73.9605 143.237L73.7299 143.698C73.5708 143.544 73.3959 143.43 73.2051 143.356C73.0195 143.282 72.8366 143.245 72.6564 143.245C72.2429 143.245 71.9222 143.375 71.6942 143.634C71.4663 143.894 71.3523 144.273 71.3523 144.771C71.3523 145.264 71.4663 145.646 71.6942 145.916C71.9222 146.187 72.2429 146.322 72.6564 146.322C72.8313 146.322 73.0116 146.288 73.1971 146.219C73.388 146.15 73.5655 146.036 73.7299 145.877L73.9605 146.33C73.7962 146.5 73.5921 146.629 73.3482 146.72C73.1043 146.81 72.8605 146.855 72.6166 146.855ZM74.8759 146.783V140.931H75.52V143.674H75.4166C75.5279 143.361 75.7135 143.125 75.9732 142.966C76.2383 142.802 76.5431 142.72 76.8877 142.72C77.3648 142.72 77.72 142.85 77.9532 143.109C78.1865 143.364 78.3031 143.751 78.3031 144.27V146.783H77.659V144.31C77.659 143.939 77.5848 143.669 77.4364 143.499C77.2932 143.329 77.06 143.245 76.7366 143.245C76.3655 143.245 76.0686 143.359 75.846 143.587C75.6286 143.815 75.52 144.114 75.52 144.485V146.783H74.8759ZM81.3084 146.855C80.8949 146.855 80.5371 146.775 80.2349 146.616C79.9327 146.452 79.6995 146.216 79.5351 145.909C79.3708 145.596 79.2886 145.225 79.2886 144.795C79.2886 144.376 79.3682 144.013 79.5272 143.706C79.6862 143.393 79.9089 143.152 80.1951 142.982C80.4814 142.807 80.8101 142.72 81.1812 142.72C81.5469 142.72 81.8544 142.797 82.1036 142.95C82.3527 143.104 82.5436 143.324 82.6761 143.61C82.8086 143.891 82.8749 144.225 82.8749 144.612V144.851H79.7816V144.445H82.4535L82.3183 144.549C82.3183 144.125 82.2228 143.793 82.032 143.555C81.8412 143.316 81.5575 143.197 81.1812 143.197C80.9108 143.197 80.6802 143.261 80.4894 143.388C80.3038 143.515 80.1607 143.693 80.06 143.921C79.9645 144.149 79.9168 144.422 79.9168 144.74V144.811C79.9168 145.309 80.0388 145.689 80.2826 145.948C80.5318 146.203 80.879 146.33 81.3243 146.33C81.5628 146.33 81.7855 146.295 81.9922 146.227C82.2043 146.152 82.4057 146.033 82.5966 145.869L82.8192 146.322C82.6443 146.492 82.4216 146.624 82.1513 146.72C81.8862 146.81 81.6053 146.855 81.3084 146.855ZM85.5383 146.855C85.146 146.855 84.8041 146.77 84.5125 146.6C84.2263 146.431 84.0036 146.189 83.8446 145.877C83.6908 145.564 83.614 145.193 83.614 144.763C83.614 144.329 83.6935 143.96 83.8525 143.658C84.0116 143.351 84.2342 143.117 84.5205 142.958C84.8121 142.799 85.1513 142.72 85.5383 142.72C85.7928 142.72 86.0393 142.765 86.2778 142.855C86.5217 142.945 86.7231 143.072 86.8822 143.237L86.6516 143.698C86.4925 143.544 86.3176 143.43 86.1268 143.356C85.9412 143.282 85.7583 143.245 85.5781 143.245C85.1646 143.245 84.8439 143.375 84.6159 143.634C84.388 143.894 84.274 144.273 84.274 144.771C84.274 145.264 84.388 145.646 84.6159 145.916C84.8439 146.187 85.1646 146.322 85.5781 146.322C85.753 146.322 85.9333 146.288 86.1188 146.219C86.3096 146.15 86.4872 146.036 86.6516 145.877L86.8822 146.33C86.7178 146.5 86.5137 146.629 86.2699 146.72C86.026 146.81 85.7822 146.855 85.5383 146.855ZM89.358 146.855C88.9763 146.855 88.6423 146.773 88.3561 146.608C88.0751 146.439 87.8577 146.2 87.704 145.893C87.5503 145.58 87.4734 145.211 87.4734 144.787C87.4734 144.358 87.5503 143.989 87.704 143.682C87.8577 143.375 88.0751 143.139 88.3561 142.974C88.6423 142.805 88.9763 142.72 89.358 142.72C89.745 142.72 90.0789 142.805 90.3599 142.974C90.6462 143.139 90.8662 143.375 91.0199 143.682C91.1789 143.989 91.2585 144.358 91.2585 144.787C91.2585 145.211 91.1789 145.58 91.0199 145.893C90.8662 146.2 90.6462 146.439 90.3599 146.608C90.0789 146.773 89.745 146.855 89.358 146.855ZM89.358 146.33C89.7397 146.33 90.0418 146.2 90.2645 145.94C90.4871 145.675 90.5985 145.291 90.5985 144.787C90.5985 144.278 90.4871 143.894 90.2645 143.634C90.0418 143.369 89.7397 143.237 89.358 143.237C88.9816 143.237 88.6821 143.369 88.4594 143.634C88.2368 143.894 88.1254 144.278 88.1254 144.787C88.1254 145.291 88.2368 145.675 88.4594 145.94C88.6821 146.2 88.9816 146.33 89.358 146.33Z" fill="black"/>
<path d="M115.252 137.783V132.177H115.912V137.211H118.743V137.783H115.252ZM120.843 137.855C120.371 137.855 120.013 137.725 119.77 137.465C119.531 137.205 119.412 136.808 119.412 136.272V133.791H120.056V136.256C120.056 136.622 120.13 136.893 120.279 137.068C120.427 137.237 120.658 137.322 120.97 137.322C121.32 137.322 121.601 137.208 121.813 136.98C122.025 136.747 122.131 136.442 122.131 136.066V133.791H122.775V137.783H122.147V136.885H122.251C122.139 137.192 121.959 137.431 121.71 137.6C121.466 137.77 121.177 137.855 120.843 137.855ZM124.025 137.783V131.931H124.669V137.783H124.025ZM127.327 137.855C126.855 137.855 126.498 137.725 126.254 137.465C126.015 137.205 125.896 136.808 125.896 136.272V133.791H126.54V136.256C126.54 136.622 126.614 136.893 126.763 137.068C126.911 137.237 127.142 137.322 127.454 137.322C127.804 137.322 128.085 137.208 128.297 136.98C128.509 136.747 128.615 136.442 128.615 136.066V133.791H129.26V137.783H128.631V136.885H128.735C128.623 137.192 128.443 137.431 128.194 137.6C127.95 137.77 127.661 137.855 127.327 137.855ZM108.184 146.855C107.622 146.855 107.145 146.738 106.753 146.505C106.361 146.272 106.058 145.94 105.846 145.511C105.64 145.082 105.536 144.57 105.536 143.976C105.536 143.382 105.64 142.874 105.846 142.449C106.058 142.02 106.361 141.689 106.753 141.455C107.145 141.222 107.622 141.106 108.184 141.106C108.582 141.106 108.937 141.167 109.25 141.289C109.562 141.41 109.835 141.588 110.069 141.821L109.822 142.346C109.568 142.123 109.316 141.962 109.067 141.861C108.818 141.755 108.526 141.702 108.192 141.702C107.551 141.702 107.063 141.901 106.729 142.298C106.395 142.696 106.228 143.255 106.228 143.976C106.228 144.459 106.302 144.872 106.451 145.217C106.599 145.556 106.819 145.816 107.111 145.996C107.408 146.171 107.768 146.258 108.192 146.258C108.526 146.258 108.818 146.208 109.067 146.107C109.316 146.001 109.568 145.834 109.822 145.606L110.069 146.139C109.835 146.367 109.562 146.545 109.25 146.672C108.937 146.794 108.582 146.855 108.184 146.855ZM111.107 146.783V140.931H111.751V146.783H111.107ZM114.775 146.855C114.362 146.855 114.004 146.775 113.702 146.616C113.4 146.452 113.166 146.216 113.002 145.909C112.838 145.596 112.755 145.225 112.755 144.795C112.755 144.376 112.835 144.013 112.994 143.706C113.153 143.393 113.376 143.152 113.662 142.982C113.948 142.807 114.277 142.72 114.648 142.72C115.014 142.72 115.321 142.797 115.57 142.95C115.82 143.104 116.01 143.324 116.143 143.61C116.275 143.891 116.342 144.225 116.342 144.612V144.851H113.248V144.445H115.92L115.785 144.549C115.785 144.125 115.69 143.793 115.499 143.555C115.308 143.316 115.024 143.197 114.648 143.197C114.378 143.197 114.147 143.261 113.956 143.388C113.771 143.515 113.628 143.693 113.527 143.921C113.431 144.149 113.384 144.422 113.384 144.74V144.811C113.384 145.309 113.506 145.689 113.749 145.948C113.999 146.203 114.346 146.33 114.791 146.33C115.03 146.33 115.252 146.295 115.459 146.227C115.671 146.152 115.873 146.033 116.063 145.869L116.286 146.322C116.111 146.492 115.888 146.624 115.618 146.72C115.353 146.81 115.072 146.855 114.775 146.855ZM117.327 146.783V143.714C117.327 143.565 117.319 143.414 117.303 143.261C117.293 143.102 117.28 142.945 117.264 142.791H117.884L117.963 143.666H117.868C117.974 143.364 118.141 143.131 118.369 142.966C118.602 142.802 118.883 142.72 119.212 142.72C119.546 142.72 119.816 142.799 120.023 142.958C120.235 143.117 120.378 143.364 120.452 143.698H120.333C120.434 143.396 120.611 143.157 120.866 142.982C121.12 142.807 121.417 142.72 121.756 142.72C122.196 142.72 122.528 142.847 122.75 143.102C122.973 143.351 123.084 143.746 123.084 144.286V146.783H122.44V144.326C122.44 143.95 122.374 143.677 122.242 143.507C122.109 143.332 121.897 143.245 121.605 143.245C121.271 143.245 121.006 143.361 120.81 143.595C120.619 143.822 120.524 144.13 120.524 144.517V146.783H119.88V144.326C119.88 143.95 119.814 143.677 119.681 143.507C119.549 143.332 119.336 143.245 119.045 143.245C118.711 143.245 118.449 143.361 118.258 143.595C118.067 143.822 117.971 144.13 117.971 144.517V146.783H117.327ZM126.082 146.855C125.668 146.855 125.31 146.775 125.008 146.616C124.706 146.452 124.473 146.216 124.308 145.909C124.144 145.596 124.062 145.225 124.062 144.795C124.062 144.376 124.141 144.013 124.3 143.706C124.46 143.393 124.682 143.152 124.968 142.982C125.255 142.807 125.583 142.72 125.954 142.72C126.32 142.72 126.628 142.797 126.877 142.95C127.126 143.104 127.317 143.324 127.449 143.61C127.582 143.891 127.648 144.225 127.648 144.612V144.851H124.555V144.445H127.227L127.092 144.549C127.092 144.125 126.996 143.793 126.805 143.555C126.614 143.316 126.331 143.197 125.954 143.197C125.684 143.197 125.454 143.261 125.263 143.388C125.077 143.515 124.934 143.693 124.833 143.921C124.738 144.149 124.69 144.422 124.69 144.74V144.811C124.69 145.309 124.812 145.689 125.056 145.948C125.305 146.203 125.652 146.33 126.098 146.33C126.336 146.33 126.559 146.295 126.766 146.227C126.978 146.152 127.179 146.033 127.37 145.869L127.593 146.322C127.418 146.492 127.195 146.624 126.925 146.72C126.66 146.81 126.379 146.855 126.082 146.855ZM128.634 146.783V143.714C128.634 143.565 128.626 143.414 128.61 143.261C128.599 143.102 128.586 142.945 128.57 142.791H129.19L129.27 143.666H129.175C129.291 143.359 129.477 143.125 129.731 142.966C129.991 142.802 130.29 142.72 130.63 142.72C131.101 142.72 131.457 142.847 131.695 143.102C131.939 143.351 132.061 143.746 132.061 144.286V146.783H131.417V144.326C131.417 143.95 131.34 143.677 131.186 143.507C131.038 143.332 130.805 143.245 130.487 143.245C130.115 143.245 129.821 143.359 129.604 143.587C129.387 143.815 129.278 144.119 129.278 144.501V146.783H128.634ZM134.708 146.855C134.316 146.855 134.017 146.743 133.81 146.521C133.603 146.293 133.5 145.951 133.5 145.495V143.292H132.721V142.791H133.5V141.702L134.144 141.519V142.791H135.289V143.292H134.144V145.423C134.144 145.742 134.197 145.969 134.303 146.107C134.414 146.24 134.579 146.306 134.796 146.306C134.897 146.306 134.987 146.298 135.066 146.282C135.146 146.261 135.217 146.237 135.281 146.211V146.751C135.207 146.783 135.117 146.807 135.011 146.823C134.91 146.844 134.809 146.855 134.708 146.855ZM137.401 146.855C137.083 146.855 136.786 146.812 136.51 146.728C136.235 146.637 136.007 146.513 135.827 146.354L136.049 145.901C136.245 146.054 136.457 146.168 136.685 146.242C136.919 146.317 137.16 146.354 137.409 146.354C137.727 146.354 137.966 146.298 138.125 146.187C138.289 146.07 138.371 145.911 138.371 145.71C138.371 145.556 138.318 145.434 138.212 145.344C138.111 145.249 137.944 145.174 137.711 145.121L136.972 144.97C136.632 144.896 136.378 144.771 136.208 144.596C136.039 144.416 135.954 144.188 135.954 143.913C135.954 143.679 136.015 143.475 136.137 143.3C136.259 143.12 136.436 142.98 136.669 142.879C136.903 142.773 137.176 142.72 137.488 142.72C137.78 142.72 138.048 142.765 138.292 142.855C138.541 142.94 138.748 143.064 138.912 143.229L138.681 143.674C138.522 143.52 138.339 143.406 138.133 143.332C137.931 143.253 137.722 143.213 137.504 143.213C137.192 143.213 136.956 143.276 136.797 143.404C136.643 143.526 136.566 143.687 136.566 143.889C136.566 144.042 136.614 144.17 136.709 144.27C136.81 144.366 136.964 144.437 137.17 144.485L137.91 144.636C138.27 144.716 138.538 144.84 138.713 145.01C138.893 145.174 138.983 145.397 138.983 145.678C138.983 145.916 138.917 146.126 138.785 146.306C138.652 146.481 138.467 146.616 138.228 146.712C137.995 146.807 137.719 146.855 137.401 146.855Z" fill="black"/>
<path d="M157.796 137.783V132.177H158.456V134.722H158.472L161.16 132.177H162.003L158.91 135.072L158.918 134.738L162.226 137.783H161.359L158.472 135.143H158.456V137.783H157.796ZM164.283 137.855C163.928 137.855 163.618 137.773 163.353 137.608C163.088 137.439 162.881 137.2 162.733 136.893C162.59 136.585 162.518 136.217 162.518 135.787C162.518 135.353 162.59 134.982 162.733 134.674C162.881 134.367 163.088 134.131 163.353 133.966C163.618 133.802 163.928 133.72 164.283 133.72C164.644 133.72 164.954 133.813 165.214 133.998C165.479 134.178 165.654 134.425 165.739 134.738H165.643L165.731 133.791H166.351C166.335 133.945 166.319 134.102 166.303 134.261C166.293 134.414 166.287 134.565 166.287 134.714V137.783H165.643V136.845H165.731C165.646 137.158 165.471 137.404 165.206 137.584C164.941 137.765 164.633 137.855 164.283 137.855ZM164.411 137.33C164.792 137.33 165.094 137.2 165.317 136.94C165.54 136.675 165.651 136.291 165.651 135.787C165.651 135.278 165.54 134.894 165.317 134.634C165.094 134.369 164.792 134.237 164.411 134.237C164.034 134.237 163.732 134.369 163.504 134.634C163.281 134.894 163.17 135.278 163.17 135.787C163.17 136.291 163.281 136.675 163.504 136.94C163.732 137.2 164.034 137.33 164.411 137.33ZM167.533 137.783V131.931H168.177V137.783H167.533ZM170.604 137.783L168.895 133.791H169.594L171.026 137.306H170.811L172.258 133.791H172.926L171.216 137.783H170.604ZM173.652 137.783V133.791H174.296V137.783H173.652ZM173.572 132.885V132.161H174.367V132.885H173.572ZM175.546 137.783V134.714C175.546 134.565 175.539 134.414 175.523 134.261C175.512 134.102 175.499 133.945 175.483 133.791H176.103L176.183 134.666H176.087C176.204 134.359 176.389 134.125 176.644 133.966C176.904 133.802 177.203 133.72 177.542 133.72C178.014 133.72 178.369 133.847 178.608 134.102C178.852 134.351 178.974 134.746 178.974 135.286V137.783H178.33V135.326C178.33 134.95 178.253 134.677 178.099 134.507C177.951 134.332 177.717 134.245 177.399 134.245C177.028 134.245 176.734 134.359 176.517 134.587C176.299 134.815 176.191 135.119 176.191 135.501V137.783H175.546ZM149.845 146.783V141.177H150.417L152.668 146.258H152.437L154.687 141.177H155.26V146.783H154.656V142.028H154.894L152.771 146.783H152.334L150.203 142.028H150.441V146.783H149.845ZM158.269 146.855C157.877 146.855 157.535 146.77 157.243 146.6C156.957 146.431 156.734 146.189 156.575 145.877C156.421 145.564 156.345 145.193 156.345 144.763C156.345 144.329 156.424 143.96 156.583 143.658C156.742 143.351 156.965 143.117 157.251 142.958C157.543 142.799 157.882 142.72 158.269 142.72C158.523 142.72 158.77 142.765 159.008 142.855C159.252 142.945 159.454 143.072 159.613 143.237L159.382 143.698C159.223 143.544 159.048 143.43 158.857 143.356C158.672 143.282 158.489 143.245 158.309 143.245C157.895 143.245 157.574 143.375 157.346 143.634C157.119 143.894 157.005 144.273 157.005 144.771C157.005 145.264 157.119 145.646 157.346 145.916C157.574 146.187 157.895 146.322 158.309 146.322C158.484 146.322 158.664 146.288 158.849 146.219C159.04 146.15 159.218 146.036 159.382 145.877L159.613 146.33C159.448 146.5 159.244 146.629 159 146.72C158.757 146.81 158.513 146.855 158.269 146.855ZM162.128 146.855C161.736 146.855 161.394 146.77 161.103 146.6C160.816 146.431 160.594 146.189 160.435 145.877C160.281 145.564 160.204 145.193 160.204 144.763C160.204 144.329 160.283 143.96 160.443 143.658C160.602 143.351 160.824 143.117 161.11 142.958C161.402 142.799 161.741 142.72 162.128 142.72C162.383 142.72 162.629 142.765 162.868 142.855C163.112 142.945 163.313 143.072 163.472 143.237L163.242 143.698C163.083 143.544 162.908 143.43 162.717 143.356C162.531 143.282 162.348 143.245 162.168 143.245C161.755 143.245 161.434 143.375 161.206 143.634C160.978 143.894 160.864 144.273 160.864 144.771C160.864 145.264 160.978 145.646 161.206 145.916C161.434 146.187 161.755 146.322 162.168 146.322C162.343 146.322 162.523 146.288 162.709 146.219C162.9 146.15 163.077 146.036 163.242 145.877L163.472 146.33C163.308 146.5 163.104 146.629 162.86 146.72C162.616 146.81 162.372 146.855 162.128 146.855ZM165.875 146.855C165.52 146.855 165.21 146.773 164.945 146.608C164.68 146.439 164.473 146.2 164.325 145.893C164.182 145.585 164.11 145.217 164.11 144.787C164.11 144.353 164.182 143.982 164.325 143.674C164.473 143.367 164.68 143.131 164.945 142.966C165.21 142.802 165.52 142.72 165.875 142.72C166.236 142.72 166.546 142.813 166.806 142.998C167.071 143.178 167.246 143.425 167.33 143.738H167.235L167.322 142.791H167.943C167.927 142.945 167.911 143.102 167.895 143.261C167.884 143.414 167.879 143.565 167.879 143.714V146.783H167.235V145.845H167.322C167.238 146.158 167.063 146.404 166.798 146.584C166.533 146.765 166.225 146.855 165.875 146.855ZM166.002 146.33C166.384 146.33 166.686 146.2 166.909 145.94C167.132 145.675 167.243 145.291 167.243 144.787C167.243 144.278 167.132 143.894 166.909 143.634C166.686 143.369 166.384 143.237 166.002 143.237C165.626 143.237 165.324 143.369 165.096 143.634C164.873 143.894 164.762 144.278 164.762 144.787C164.762 145.291 164.873 145.675 165.096 145.94C165.324 146.2 165.626 146.33 166.002 146.33ZM169.109 146.783V143.754C169.109 143.595 169.103 143.433 169.093 143.269C169.087 143.104 169.077 142.945 169.061 142.791H169.681L169.761 143.762L169.649 143.769C169.702 143.531 169.795 143.335 169.928 143.181C170.06 143.027 170.217 142.913 170.397 142.839C170.577 142.76 170.765 142.72 170.961 142.72C171.041 142.72 171.11 142.722 171.168 142.728C171.232 142.733 171.29 142.746 171.343 142.768L171.335 143.34C171.256 143.314 171.181 143.298 171.112 143.292C171.049 143.282 170.975 143.276 170.89 143.276C170.657 143.276 170.452 143.332 170.277 143.443C170.108 143.555 169.978 143.698 169.888 143.873C169.803 144.048 169.761 144.233 169.761 144.429V146.783H169.109ZM173.638 146.855C173.246 146.855 172.946 146.743 172.74 146.521C172.533 146.293 172.43 145.951 172.43 145.495V143.292H171.65V142.791H172.43V141.702L173.074 141.519V142.791H174.219V143.292H173.074V145.423C173.074 145.742 173.127 145.969 173.233 146.107C173.344 146.24 173.508 146.306 173.726 146.306C173.826 146.306 173.917 146.298 173.996 146.282C174.076 146.261 174.147 146.237 174.211 146.211V146.751C174.137 146.783 174.046 146.807 173.94 146.823C173.84 146.844 173.739 146.855 173.638 146.855ZM175.003 146.783V143.714C175.003 143.565 174.995 143.414 174.979 143.261C174.968 143.102 174.955 142.945 174.939 142.791H175.56L175.639 143.666H175.544C175.66 143.359 175.846 143.125 176.1 142.966C176.36 142.802 176.66 142.72 176.999 142.72C177.471 142.72 177.826 142.847 178.064 143.102C178.308 143.351 178.43 143.746 178.43 144.286V146.783H177.786V144.326C177.786 143.95 177.709 143.677 177.555 143.507C177.407 143.332 177.174 143.245 176.856 143.245C176.485 143.245 176.19 143.359 175.973 143.587C175.756 143.815 175.647 144.119 175.647 144.501V146.783H175.003ZM181.435 146.855C181.022 146.855 180.664 146.775 180.362 146.616C180.06 146.452 179.826 146.216 179.662 145.909C179.498 145.596 179.416 145.225 179.416 144.795C179.416 144.376 179.495 144.013 179.654 143.706C179.813 143.393 180.036 143.152 180.322 142.982C180.608 142.807 180.937 142.72 181.308 142.72C181.674 142.72 181.981 142.797 182.231 142.95C182.48 143.104 182.671 143.324 182.803 143.61C182.936 143.891 183.002 144.225 183.002 144.612V144.851H179.909V144.445H182.58L182.445 144.549C182.445 144.125 182.35 143.793 182.159 143.555C181.968 143.316 181.685 143.197 181.308 143.197C181.038 143.197 180.807 143.261 180.616 143.388C180.431 143.515 180.288 143.693 180.187 143.921C180.092 144.149 180.044 144.422 180.044 144.74V144.811C180.044 145.309 180.166 145.689 180.41 145.948C180.659 146.203 181.006 146.33 181.451 146.33C181.69 146.33 181.913 146.295 182.119 146.227C182.331 146.152 182.533 146.033 182.724 145.869L182.946 146.322C182.771 146.492 182.549 146.624 182.278 146.72C182.013 146.81 181.732 146.855 181.435 146.855ZM183.782 148.588L183.631 148.055C183.88 147.997 184.087 147.928 184.251 147.849C184.421 147.775 184.561 147.674 184.672 147.547C184.784 147.419 184.879 147.26 184.959 147.069L185.165 146.6L185.15 146.871L183.408 142.791H184.108L185.547 146.298H185.34L186.764 142.791H187.44L185.595 147.117C185.489 147.372 185.372 147.584 185.245 147.753C185.118 147.928 184.98 148.069 184.832 148.175C184.688 148.286 184.529 148.374 184.354 148.437C184.179 148.501 183.989 148.551 183.782 148.588Z" fill="black"/>
<path d="M208.398 137.783V132.177H211.976V132.718H209.042V134.666H211.801V135.215H209.042V137.235H211.976V137.783H208.398ZM214.108 137.783L212.398 133.791H213.098L214.53 137.306H214.315L215.762 133.791H216.43L214.72 137.783H214.108ZM218.597 137.855C218.242 137.855 217.931 137.773 217.666 137.608C217.401 137.439 217.195 137.2 217.046 136.893C216.903 136.585 216.831 136.217 216.831 135.787C216.831 135.353 216.903 134.982 217.046 134.674C217.195 134.367 217.401 134.131 217.666 133.966C217.931 133.802 218.242 133.72 218.597 133.72C218.957 133.72 219.267 133.813 219.527 133.998C219.792 134.178 219.967 134.425 220.052 134.738H219.956L220.044 133.791H220.664C220.648 133.945 220.632 134.102 220.616 134.261C220.606 134.414 220.601 134.565 220.601 134.714V137.783H219.956V136.845H220.044C219.959 137.158 219.784 137.404 219.519 137.584C219.254 137.765 218.947 137.855 218.597 137.855ZM218.724 137.33C219.106 137.33 219.408 137.2 219.63 136.94C219.853 136.675 219.964 136.291 219.964 135.787C219.964 135.278 219.853 134.894 219.63 134.634C219.408 134.369 219.106 134.237 218.724 134.237C218.348 134.237 218.045 134.369 217.817 134.634C217.595 134.894 217.483 135.278 217.483 135.787C217.483 136.291 217.595 136.675 217.817 136.94C218.045 137.2 218.348 137.33 218.724 137.33ZM200.229 146.783V141.177H200.745L204.34 145.948H204.157V141.177H204.769V146.783H204.26L200.666 142.012H200.841V146.783H200.229ZM207.616 146.855C207.261 146.855 206.951 146.773 206.686 146.608C206.421 146.439 206.214 146.2 206.066 145.893C205.923 145.585 205.851 145.217 205.851 144.787C205.851 144.353 205.923 143.982 206.066 143.674C206.214 143.367 206.421 143.131 206.686 142.966C206.951 142.802 207.261 142.72 207.616 142.72C207.977 142.72 208.287 142.813 208.547 142.998C208.812 143.178 208.987 143.425 209.072 143.738H208.976L209.064 142.791H209.684C209.668 142.945 209.652 143.102 209.636 143.261C209.626 143.414 209.62 143.565 209.62 143.714V146.783H208.976V145.845H209.064C208.979 146.158 208.804 146.404 208.539 146.584C208.274 146.765 207.966 146.855 207.616 146.855ZM207.744 146.33C208.125 146.33 208.427 146.2 208.65 145.94C208.873 145.675 208.984 145.291 208.984 144.787C208.984 144.278 208.873 143.894 208.65 143.634C208.427 143.369 208.125 143.237 207.744 143.237C207.367 143.237 207.065 143.369 206.837 143.634C206.614 143.894 206.503 144.278 206.503 144.787C206.503 145.291 206.614 145.675 206.837 145.94C207.065 146.2 207.367 146.33 207.744 146.33ZM212.004 146.783L210.294 142.791H210.994L212.425 146.306H212.21L213.658 142.791H214.326L212.616 146.783H212.004ZM216.492 146.855C216.137 146.855 215.827 146.773 215.562 146.608C215.297 146.439 215.09 146.2 214.942 145.893C214.799 145.585 214.727 145.217 214.727 144.787C214.727 144.353 214.799 143.982 214.942 143.674C215.09 143.367 215.297 143.131 215.562 142.966C215.827 142.802 216.137 142.72 216.492 142.72C216.853 142.72 217.163 142.813 217.423 142.998C217.688 143.178 217.863 143.425 217.947 143.738H217.852L217.94 142.791H218.56C218.544 142.945 218.528 143.102 218.512 143.261C218.501 143.414 218.496 143.565 218.496 143.714V146.783H217.852V145.845H217.94C217.855 146.158 217.68 146.404 217.415 146.584C217.15 146.765 216.842 146.855 216.492 146.855ZM216.62 146.33C217.001 146.33 217.303 146.2 217.526 145.94C217.749 145.675 217.86 145.291 217.86 144.787C217.86 144.278 217.749 143.894 217.526 143.634C217.303 143.369 217.001 143.237 216.62 143.237C216.243 143.237 215.941 143.369 215.713 143.634C215.49 143.894 215.379 144.278 215.379 144.787C215.379 145.291 215.49 145.675 215.713 145.94C215.941 146.2 216.243 146.33 216.62 146.33ZM219.726 146.783V143.754C219.726 143.595 219.72 143.433 219.71 143.269C219.704 143.104 219.694 142.945 219.678 142.791H220.298L220.378 143.762L220.266 143.769C220.319 143.531 220.412 143.335 220.545 143.181C220.677 143.027 220.834 142.913 221.014 142.839C221.194 142.76 221.382 142.72 221.578 142.72C221.658 142.72 221.727 142.722 221.785 142.728C221.849 142.733 221.907 142.746 221.96 142.768L221.952 143.34C221.873 143.314 221.798 143.298 221.729 143.292C221.666 143.282 221.592 143.276 221.507 143.276C221.274 143.276 221.069 143.332 220.895 143.443C220.725 143.555 220.595 143.698 220.505 143.873C220.42 144.048 220.378 144.233 220.378 144.429V146.783H219.726ZM222.614 146.783V143.754C222.614 143.595 222.609 143.433 222.598 143.269C222.593 143.104 222.583 142.945 222.567 142.791H223.187L223.266 143.762L223.155 143.769C223.208 143.531 223.301 143.335 223.433 143.181C223.566 143.027 223.722 142.913 223.903 142.839C224.083 142.76 224.271 142.72 224.467 142.72C224.547 142.72 224.616 142.722 224.674 142.728C224.737 142.733 224.796 142.746 224.849 142.768L224.841 143.34C224.761 143.314 224.687 143.298 224.618 143.292C224.555 143.282 224.48 143.276 224.396 143.276C224.162 143.276 223.958 143.332 223.783 143.443C223.614 143.555 223.484 143.698 223.394 143.873C223.309 144.048 223.266 144.233 223.266 144.429V146.783H222.614ZM227.11 146.855C226.729 146.855 226.395 146.773 226.109 146.608C225.828 146.439 225.61 146.2 225.456 145.893C225.303 145.58 225.226 145.211 225.226 144.787C225.226 144.358 225.303 143.989 225.456 143.682C225.61 143.375 225.828 143.139 226.109 142.974C226.395 142.805 226.729 142.72 227.11 142.72C227.497 142.72 227.831 142.805 228.112 142.974C228.399 143.139 228.619 143.375 228.772 143.682C228.931 143.989 229.011 144.358 229.011 144.787C229.011 145.211 228.931 145.58 228.772 145.893C228.619 146.2 228.399 146.439 228.112 146.608C227.831 146.773 227.497 146.855 227.11 146.855ZM227.11 146.33C227.492 146.33 227.794 146.2 228.017 145.94C228.24 145.675 228.351 145.291 228.351 144.787C228.351 144.278 228.24 143.894 228.017 143.634C227.794 143.369 227.492 143.237 227.11 143.237C226.734 143.237 226.435 143.369 226.212 143.634C225.989 143.894 225.878 144.278 225.878 144.787C225.878 145.291 225.989 145.675 226.212 145.94C226.435 146.2 226.734 146.33 227.11 146.33Z" fill="black"/>
<path d="M249.787 137.783L252.26 132.177H252.833L255.346 137.783H254.662L253.962 136.185L254.256 136.352H250.829L251.147 136.185L250.463 137.783H249.787ZM252.539 132.933L251.251 135.954L251.06 135.811H254.018L253.875 135.954L252.555 132.933H252.539ZM258.124 137.855C257.763 137.855 257.453 137.765 257.193 137.584C256.934 137.399 256.759 137.147 256.669 136.829H256.756V137.783H256.12V131.931H256.764V134.722H256.669C256.759 134.414 256.934 134.17 257.193 133.99C257.453 133.81 257.763 133.72 258.124 133.72C258.484 133.72 258.794 133.805 259.054 133.974C259.319 134.139 259.523 134.375 259.666 134.682C259.815 134.989 259.889 135.358 259.889 135.787C259.889 136.217 259.815 136.585 259.666 136.893C259.518 137.2 259.311 137.439 259.046 137.608C258.786 137.773 258.479 137.855 258.124 137.855ZM257.989 137.33C258.365 137.33 258.667 137.2 258.895 136.94C259.123 136.681 259.237 136.296 259.237 135.787C259.237 135.278 259.123 134.894 258.895 134.634C258.667 134.369 258.365 134.237 257.989 134.237C257.612 134.237 257.31 134.369 257.082 134.634C256.859 134.894 256.748 135.278 256.748 135.787C256.748 136.291 256.859 136.675 257.082 136.94C257.31 137.2 257.612 137.33 257.989 137.33ZM262.399 137.855C262.049 137.855 261.741 137.773 261.476 137.608C261.211 137.439 261.004 137.2 260.856 136.893C260.713 136.585 260.641 136.217 260.641 135.787C260.641 135.353 260.713 134.982 260.856 134.674C261.004 134.367 261.211 134.131 261.476 133.966C261.741 133.802 262.049 133.72 262.399 133.72C262.759 133.72 263.069 133.81 263.329 133.99C263.594 134.17 263.772 134.414 263.862 134.722H263.766V131.931H264.41V137.783H263.774V136.829H263.862C263.777 137.147 263.602 137.399 263.337 137.584C263.072 137.765 262.759 137.855 262.399 137.855ZM262.534 137.33C262.91 137.33 263.212 137.2 263.44 136.94C263.668 136.675 263.782 136.291 263.782 135.787C263.782 135.278 263.668 134.894 263.44 134.634C263.212 134.369 262.91 134.237 262.534 134.237C262.157 134.237 261.855 134.369 261.627 134.634C261.405 134.894 261.293 135.278 261.293 135.787C261.293 136.291 261.405 136.675 261.627 136.94C261.855 137.2 262.157 137.33 262.534 137.33ZM267.063 137.855C266.591 137.855 266.234 137.725 265.99 137.465C265.751 137.205 265.632 136.808 265.632 136.272V133.791H266.276V136.256C266.276 136.622 266.35 136.893 266.499 137.068C266.647 137.237 266.878 137.322 267.191 137.322C267.54 137.322 267.821 137.208 268.033 136.98C268.245 136.747 268.351 136.442 268.351 136.066V133.791H268.996V137.783H268.367V136.885H268.471C268.359 137.192 268.179 137.431 267.93 137.6C267.686 137.77 267.397 137.855 267.063 137.855ZM270.245 137.783V131.931H270.889V137.783H270.245ZM248.778 146.855C248.163 146.855 247.648 146.741 247.235 146.513C246.821 146.285 246.511 145.956 246.305 145.527C246.098 145.097 245.994 144.583 245.994 143.984C245.994 143.39 246.103 142.879 246.32 142.449C246.538 142.02 246.851 141.689 247.259 141.455C247.667 141.222 248.16 141.106 248.738 141.106C249.146 141.106 249.499 141.167 249.795 141.289C250.098 141.405 250.368 141.58 250.607 141.813L250.36 142.33C250.185 142.176 250.015 142.055 249.851 141.964C249.692 141.874 249.525 141.808 249.35 141.766C249.175 141.718 248.971 141.694 248.738 141.694C248.075 141.694 247.566 141.895 247.211 142.298C246.861 142.696 246.686 143.261 246.686 143.992C246.686 144.729 246.856 145.294 247.195 145.686C247.54 146.078 248.073 146.274 248.793 146.274C249.059 146.274 249.31 146.25 249.549 146.203C249.793 146.15 250.029 146.075 250.257 145.98L250.113 146.338V144.366H248.682V143.849H250.678V146.449C250.53 146.529 250.349 146.6 250.137 146.664C249.931 146.722 249.711 146.767 249.477 146.799C249.244 146.836 249.011 146.855 248.778 146.855ZM251.93 146.783V143.754C251.93 143.595 251.925 143.433 251.914 143.269C251.909 143.104 251.898 142.945 251.882 142.791H252.503L252.582 143.762L252.471 143.769C252.524 143.531 252.617 143.335 252.749 143.181C252.882 143.027 253.038 142.913 253.218 142.839C253.398 142.76 253.587 142.72 253.783 142.72C253.862 142.72 253.931 142.722 253.99 142.728C254.053 142.733 254.111 142.746 254.164 142.768L254.157 143.34C254.077 143.314 254.003 143.298 253.934 143.292C253.87 143.282 253.796 143.276 253.711 143.276C253.478 143.276 253.274 143.332 253.099 143.443C252.929 143.555 252.799 143.698 252.709 143.873C252.624 144.048 252.582 144.233 252.582 144.429V146.783H251.93ZM256.561 146.855C256.148 146.855 255.79 146.775 255.488 146.616C255.186 146.452 254.952 146.216 254.788 145.909C254.624 145.596 254.542 145.225 254.542 144.795C254.542 144.376 254.621 144.013 254.78 143.706C254.939 143.393 255.162 143.152 255.448 142.982C255.734 142.807 256.063 142.72 256.434 142.72C256.8 142.72 257.107 142.797 257.357 142.95C257.606 143.104 257.797 143.324 257.929 143.61C258.062 143.891 258.128 144.225 258.128 144.612V144.851H255.035V144.445H257.706L257.571 144.549C257.571 144.125 257.476 143.793 257.285 143.555C257.094 143.316 256.811 143.197 256.434 143.197C256.164 143.197 255.933 143.261 255.742 143.388C255.557 143.515 255.414 143.693 255.313 143.921C255.217 144.149 255.17 144.422 255.17 144.74V144.811C255.17 145.309 255.292 145.689 255.536 145.948C255.785 146.203 256.132 146.33 256.577 146.33C256.816 146.33 257.038 146.295 257.245 146.227C257.457 146.152 257.659 146.033 257.85 145.869L258.072 146.322C257.897 146.492 257.675 146.624 257.404 146.72C257.139 146.81 256.858 146.855 256.561 146.855ZM260.632 146.855C260.277 146.855 259.967 146.773 259.702 146.608C259.437 146.439 259.23 146.2 259.082 145.893C258.939 145.585 258.867 145.217 258.867 144.787C258.867 144.353 258.939 143.982 259.082 143.674C259.23 143.367 259.437 143.131 259.702 142.966C259.967 142.802 260.277 142.72 260.632 142.72C260.993 142.72 261.303 142.813 261.563 142.998C261.828 143.178 262.003 143.425 262.087 143.738H261.992L262.079 142.791H262.7C262.684 142.945 262.668 143.102 262.652 143.261C262.641 143.414 262.636 143.565 262.636 143.714V146.783H261.992V145.845H262.079C261.995 146.158 261.82 146.404 261.555 146.584C261.29 146.765 260.982 146.855 260.632 146.855ZM260.759 146.33C261.141 146.33 261.443 146.2 261.666 145.94C261.889 145.675 262 145.291 262 144.787C262 144.278 261.889 143.894 261.666 143.634C261.443 143.369 261.141 143.237 260.759 143.237C260.383 143.237 260.081 143.369 259.853 143.634C259.63 143.894 259.519 144.278 259.519 144.787C259.519 145.291 259.63 145.675 259.853 145.94C260.081 146.2 260.383 146.33 260.759 146.33ZM265.019 146.783L263.31 142.791H264.01L265.441 146.306H265.226L266.673 142.791H267.341L265.632 146.783H265.019ZM269.786 146.855C269.372 146.855 269.015 146.775 268.712 146.616C268.41 146.452 268.177 146.216 268.013 145.909C267.848 145.596 267.766 145.225 267.766 144.795C267.766 144.376 267.846 144.013 268.005 143.706C268.164 143.393 268.386 143.152 268.673 142.982C268.959 142.807 269.288 142.72 269.659 142.72C270.024 142.72 270.332 142.797 270.581 142.95C270.83 143.104 271.021 143.324 271.154 143.61C271.286 143.891 271.352 144.225 271.352 144.612V144.851H268.259V144.445H270.931L270.796 144.549C270.796 144.125 270.7 143.793 270.51 143.555C270.319 143.316 270.035 143.197 269.659 143.197C269.388 143.197 269.158 143.261 268.967 143.388C268.781 143.515 268.638 143.693 268.537 143.921C268.442 144.149 268.394 144.422 268.394 144.74V144.811C268.394 145.309 268.516 145.689 268.76 145.948C269.009 146.203 269.356 146.33 269.802 146.33C270.04 146.33 270.263 146.295 270.47 146.227C270.682 146.152 270.883 146.033 271.074 145.869L271.297 146.322C271.122 146.492 270.899 146.624 270.629 146.72C270.364 146.81 270.083 146.855 269.786 146.855ZM273.666 146.855C273.348 146.855 273.051 146.812 272.775 146.728C272.5 146.637 272.272 146.513 272.091 146.354L272.314 145.901C272.51 146.054 272.722 146.168 272.95 146.242C273.184 146.317 273.425 146.354 273.674 146.354C273.992 146.354 274.231 146.298 274.39 146.187C274.554 146.07 274.636 145.911 274.636 145.71C274.636 145.556 274.583 145.434 274.477 145.344C274.376 145.249 274.209 145.174 273.976 145.121L273.237 144.97C272.897 144.896 272.643 144.771 272.473 144.596C272.304 144.416 272.219 144.188 272.219 143.913C272.219 143.679 272.28 143.475 272.402 143.3C272.524 143.12 272.701 142.98 272.934 142.879C273.168 142.773 273.441 142.72 273.753 142.72C274.045 142.72 274.313 142.765 274.557 142.855C274.806 142.94 275.012 143.064 275.177 143.229L274.946 143.674C274.787 143.52 274.604 143.406 274.398 143.332C274.196 143.253 273.987 143.213 273.769 143.213C273.457 143.213 273.221 143.276 273.062 143.404C272.908 143.526 272.831 143.687 272.831 143.889C272.831 144.042 272.879 144.17 272.974 144.27C273.075 144.366 273.229 144.437 273.435 144.485L274.175 144.636C274.535 144.716 274.803 144.84 274.978 145.01C275.158 145.174 275.248 145.397 275.248 145.678C275.248 145.916 275.182 146.126 275.05 146.306C274.917 146.481 274.731 146.616 274.493 146.712C274.26 146.807 273.984 146.855 273.666 146.855Z" fill="black"/>
<path d="M296.201 137.783V132.177H299.699V132.718H296.861V134.682H299.524V135.223H296.861V137.783H296.201ZM300.501 137.783V134.754C300.501 134.595 300.495 134.433 300.485 134.269C300.479 134.104 300.469 133.945 300.453 133.791H301.073L301.153 134.762L301.041 134.769C301.094 134.531 301.187 134.335 301.32 134.181C301.452 134.027 301.609 133.913 301.789 133.839C301.969 133.76 302.157 133.72 302.353 133.72C302.433 133.72 302.502 133.722 302.56 133.728C302.624 133.733 302.682 133.746 302.735 133.768L302.727 134.34C302.648 134.314 302.573 134.298 302.504 134.292C302.441 134.282 302.367 134.276 302.282 134.276C302.049 134.276 301.844 134.332 301.67 134.443C301.5 134.555 301.37 134.698 301.28 134.873C301.195 135.048 301.153 135.233 301.153 135.429V137.783H300.501ZM305.132 137.855C304.718 137.855 304.361 137.775 304.058 137.616C303.756 137.452 303.523 137.216 303.359 136.909C303.194 136.596 303.112 136.225 303.112 135.795C303.112 135.376 303.192 135.013 303.351 134.706C303.51 134.393 303.732 134.152 304.019 133.982C304.305 133.807 304.634 133.72 305.005 133.72C305.371 133.72 305.678 133.797 305.927 133.95C306.176 134.104 306.367 134.324 306.5 134.61C306.632 134.891 306.698 135.225 306.698 135.612V135.851H303.605V135.445H306.277L306.142 135.549C306.142 135.125 306.046 134.793 305.856 134.555C305.665 134.316 305.381 134.197 305.005 134.197C304.734 134.197 304.504 134.261 304.313 134.388C304.127 134.515 303.984 134.693 303.884 134.921C303.788 135.149 303.74 135.422 303.74 135.74V135.811C303.74 136.309 303.862 136.689 304.106 136.948C304.355 137.203 304.703 137.33 305.148 137.33C305.386 137.33 305.609 137.295 305.816 137.227C306.028 137.152 306.229 137.033 306.42 136.869L306.643 137.322C306.468 137.492 306.245 137.624 305.975 137.72C305.71 137.81 305.429 137.855 305.132 137.855ZM307.478 139.588L307.327 139.055C307.576 138.997 307.783 138.928 307.948 138.849C308.117 138.775 308.258 138.674 308.369 138.547C308.48 138.419 308.576 138.26 308.655 138.069L308.862 137.6L308.846 137.871L307.105 133.791H307.804L309.244 137.298H309.037L310.46 133.791H311.136L309.291 138.117C309.185 138.372 309.069 138.584 308.942 138.753C308.814 138.928 308.676 139.069 308.528 139.175C308.385 139.286 308.226 139.374 308.051 139.437C307.876 139.501 307.685 139.551 307.478 139.588ZM311.337 139.533C311.263 139.533 311.17 139.522 311.059 139.501C310.947 139.485 310.855 139.464 310.78 139.437V138.896C310.844 138.918 310.918 138.936 311.003 138.952C311.088 138.973 311.167 138.984 311.242 138.984C311.464 138.984 311.629 138.912 311.735 138.769C311.846 138.631 311.902 138.403 311.902 138.085V133.791H312.546V138.149C312.546 138.605 312.445 138.949 312.244 139.183C312.047 139.416 311.745 139.533 311.337 139.533ZM311.83 132.885V132.161H312.617V132.885H311.83ZM315.275 137.855C314.92 137.855 314.61 137.773 314.345 137.608C314.08 137.439 313.873 137.2 313.725 136.893C313.582 136.585 313.51 136.217 313.51 135.787C313.51 135.353 313.582 134.982 313.725 134.674C313.873 134.367 314.08 134.131 314.345 133.966C314.61 133.802 314.92 133.72 315.275 133.72C315.636 133.72 315.946 133.813 316.206 133.998C316.471 134.178 316.646 134.425 316.731 134.738H316.635L316.723 133.791H317.343C317.327 133.945 317.311 134.102 317.295 134.261C317.285 134.414 317.279 134.565 317.279 134.714V137.783H316.635V136.845H316.723C316.638 137.158 316.463 137.404 316.198 137.584C315.933 137.765 315.625 137.855 315.275 137.855ZM315.403 137.33C315.784 137.33 316.086 137.2 316.309 136.94C316.532 136.675 316.643 136.291 316.643 135.787C316.643 135.278 316.532 134.894 316.309 134.634C316.086 134.369 315.784 134.237 315.403 134.237C315.026 134.237 314.724 134.369 314.496 134.634C314.273 134.894 314.162 135.278 314.162 135.787C314.162 136.291 314.273 136.675 314.496 136.94C314.724 137.2 315.026 137.33 315.403 137.33ZM294.628 146.783V141.177H295.288V143.722H295.304L297.992 141.177H298.835L295.741 144.072L295.749 143.738L299.057 146.783H298.191L295.304 144.143H295.288V146.783H294.628ZM301.284 146.855C300.871 146.855 300.513 146.775 300.211 146.616C299.909 146.452 299.675 146.216 299.511 145.909C299.347 145.596 299.264 145.225 299.264 144.795C299.264 144.376 299.344 144.013 299.503 143.706C299.662 143.393 299.885 143.152 300.171 142.982C300.457 142.807 300.786 142.72 301.157 142.72C301.523 142.72 301.83 142.797 302.079 142.95C302.329 143.104 302.519 143.324 302.652 143.61C302.784 143.891 302.851 144.225 302.851 144.612V144.851H299.757V144.445H302.429L302.294 144.549C302.294 144.125 302.199 143.793 302.008 143.555C301.817 143.316 301.533 143.197 301.157 143.197C300.887 143.197 300.656 143.261 300.465 143.388C300.28 143.515 300.136 143.693 300.036 143.921C299.94 144.149 299.893 144.422 299.893 144.74V144.811C299.893 145.309 300.015 145.689 300.258 145.948C300.508 146.203 300.855 146.33 301.3 146.33C301.539 146.33 301.761 146.295 301.968 146.227C302.18 146.152 302.382 146.033 302.572 145.869L302.795 146.322C302.62 146.492 302.397 146.624 302.127 146.72C301.862 146.81 301.581 146.855 301.284 146.855ZM305.355 146.855C305 146.855 304.69 146.773 304.425 146.608C304.16 146.439 303.953 146.2 303.804 145.893C303.661 145.585 303.59 145.217 303.59 144.787C303.59 144.353 303.661 143.982 303.804 143.674C303.953 143.367 304.16 143.131 304.425 142.966C304.69 142.802 305 142.72 305.355 142.72C305.716 142.72 306.026 142.813 306.285 142.998C306.55 143.178 306.725 143.425 306.81 143.738H306.715L306.802 142.791H307.423C307.407 142.945 307.391 143.102 307.375 143.261C307.364 143.414 307.359 143.565 307.359 143.714V146.783H306.715V145.845H306.802C306.717 146.158 306.543 146.404 306.277 146.584C306.012 146.765 305.705 146.855 305.355 146.855ZM305.482 146.33C305.864 146.33 306.166 146.2 306.389 145.94C306.611 145.675 306.723 145.291 306.723 144.787C306.723 144.278 306.611 143.894 306.389 143.634C306.166 143.369 305.864 143.237 305.482 143.237C305.106 143.237 304.804 143.369 304.576 143.634C304.353 143.894 304.242 144.278 304.242 144.787C304.242 145.291 304.353 145.675 304.576 145.94C304.804 146.2 305.106 146.33 305.482 146.33ZM308.588 146.783V143.754C308.588 143.595 308.583 143.433 308.572 143.269C308.567 143.104 308.557 142.945 308.541 142.791H309.161L309.24 143.762L309.129 143.769C309.182 143.531 309.275 143.335 309.407 143.181C309.54 143.027 309.696 142.913 309.877 142.839C310.057 142.76 310.245 142.72 310.441 142.72C310.521 142.72 310.59 142.722 310.648 142.728C310.711 142.733 310.77 142.746 310.823 142.768L310.815 143.34C310.735 143.314 310.661 143.298 310.592 143.292C310.529 143.282 310.454 143.276 310.37 143.276C310.136 143.276 309.932 143.332 309.757 143.443C309.588 143.555 309.458 143.698 309.368 143.873C309.283 144.048 309.24 144.233 309.24 144.429V146.783H308.588ZM311.493 146.783V143.714C311.493 143.565 311.485 143.414 311.469 143.261C311.459 143.102 311.445 142.945 311.429 142.791H312.05L312.129 143.666H312.034C312.15 143.359 312.336 143.125 312.59 142.966C312.85 142.802 313.15 142.72 313.489 142.72C313.961 142.72 314.316 142.847 314.554 143.102C314.798 143.351 314.92 143.746 314.92 144.286V146.783H314.276V144.326C314.276 143.95 314.199 143.677 314.046 143.507C313.897 143.332 313.664 143.245 313.346 143.245C312.975 143.245 312.68 143.359 312.463 143.587C312.246 143.815 312.137 144.119 312.137 144.501V146.783H311.493ZM317.48 146.855C317.162 146.855 316.865 146.812 316.59 146.728C316.314 146.637 316.086 146.513 315.906 146.354L316.128 145.901C316.325 146.054 316.537 146.168 316.765 146.242C316.998 146.317 317.239 146.354 317.488 146.354C317.806 146.354 318.045 146.298 318.204 146.187C318.368 146.07 318.45 145.911 318.45 145.71C318.45 145.556 318.397 145.434 318.291 145.344C318.191 145.249 318.024 145.174 317.79 145.121L317.051 144.97C316.712 144.896 316.457 144.771 316.287 144.596C316.118 144.416 316.033 144.188 316.033 143.913C316.033 143.679 316.094 143.475 316.216 143.3C316.338 143.12 316.515 142.98 316.749 142.879C316.982 142.773 317.255 142.72 317.568 142.72C317.859 142.72 318.127 142.765 318.371 142.855C318.62 142.94 318.827 143.064 318.991 143.229L318.76 143.674C318.601 143.52 318.419 143.406 318.212 143.332C318.01 143.253 317.801 143.213 317.584 143.213C317.271 143.213 317.035 143.276 316.876 143.404C316.722 143.526 316.645 143.687 316.645 143.889C316.645 144.042 316.693 144.17 316.788 144.27C316.889 144.366 317.043 144.437 317.25 144.485L317.989 144.636C318.35 144.716 318.617 144.84 318.792 145.01C318.972 145.174 319.063 145.397 319.063 145.678C319.063 145.916 318.996 146.126 318.864 146.306C318.731 146.481 318.546 146.616 318.307 146.712C318.074 146.807 317.798 146.855 317.48 146.855Z" fill="black"/>
<path d="M17.0701 18.9853C17.0701 18.1614 17.2185 17.449 17.5154 16.8478C17.8196 16.2467 18.2538 15.7828 18.8179 15.4562C19.3819 15.1223 20.0536 14.9553 20.8328 14.9553C21.6047 14.9553 22.2727 15.1223 22.8367 15.4562C23.4008 15.7828 23.8349 16.2467 24.1392 16.8478C24.4509 17.449 24.6068 18.1577 24.6068 18.9741C24.6068 19.7979 24.4509 20.5141 24.1392 21.1227C23.8349 21.7239 23.4008 22.1914 22.8367 22.5254C22.2727 22.8594 21.6047 23.0264 20.8328 23.0264C20.0536 23.0264 19.3819 22.8594 18.8179 22.5254C18.2612 22.1914 17.8308 21.7239 17.5265 21.1227C17.2222 20.5141 17.0701 19.8016 17.0701 18.9853ZM18.5729 18.9853C18.5729 19.5716 18.6546 20.0762 18.8179 20.4993C18.9886 20.9223 19.2409 21.2452 19.5749 21.4678C19.9163 21.6905 20.3356 21.8018 20.8328 21.8018C21.5602 21.8018 22.1205 21.5532 22.5139 21.0559C22.9072 20.5587 23.1039 19.8684 23.1039 18.9853C23.1039 18.3915 23.0148 17.8868 22.8367 17.4712C22.666 17.0482 22.41 16.7291 22.0686 16.5138C21.7346 16.2912 21.3227 16.1799 20.8328 16.1799C20.0833 16.1799 19.5192 16.4248 19.1407 16.9146C18.7622 17.4044 18.5729 18.0947 18.5729 18.9853ZM28.0034 23.0264C27.3132 23.0264 26.7974 22.8371 26.456 22.4586C26.1146 22.0801 25.9439 21.5012 25.9439 20.7219V17.2931H27.3355V20.7108C27.3355 21.1264 27.4208 21.4344 27.5915 21.6348C27.7622 21.8278 28.022 21.9242 28.3708 21.9242C28.7641 21.9242 29.0833 21.7907 29.3282 21.5235C29.5805 21.2563 29.7067 20.9038 29.7067 20.4659V17.2931H31.0983V22.915H29.7401V21.7684H29.8959C29.7327 22.1692 29.484 22.4809 29.1501 22.7035C28.8235 22.9187 28.4413 23.0264 28.0034 23.0264ZM35.0136 23.0264C34.3457 23.0264 33.841 22.852 33.4996 22.5031C33.1582 22.1543 32.9875 21.6311 32.9875 20.9334V18.3396H31.9076V17.2931H32.9875V15.857L34.379 15.5008V17.2931H35.8819V18.3396H34.379V20.8444C34.379 21.2303 34.4533 21.5012 34.6017 21.6571C34.7501 21.8129 34.9542 21.8908 35.214 21.8908C35.355 21.8908 35.4737 21.8797 35.5702 21.8574C35.6741 21.8352 35.7743 21.8055 35.8708 21.7684V22.8705C35.7446 22.9225 35.6036 22.9596 35.4478 22.9818C35.2993 23.0115 35.1546 23.0264 35.0136 23.0264ZM40.0445 23.0264C39.5695 23.0264 39.1539 22.9113 38.7976 22.6813C38.4414 22.4438 38.2039 22.1246 38.0851 21.7239H38.2076V22.915H36.8272V14.7215H38.2187V18.4398H38.0851C38.2113 18.0538 38.4525 17.7495 38.8088 17.5269C39.165 17.2968 39.5769 17.1818 40.0445 17.1818C40.5417 17.1818 40.9759 17.3005 41.347 17.538C41.7181 17.7755 42.0075 18.1132 42.2153 18.5511C42.4231 18.9815 42.527 19.5011 42.527 20.1096C42.527 20.7182 42.4231 21.2414 42.2153 21.6793C42.0075 22.1098 41.7143 22.4438 41.3358 22.6813C40.9648 22.9113 40.5343 23.0264 40.0445 23.0264ZM39.6548 21.9576C40.0927 21.9576 40.4452 21.8055 40.7124 21.5012C40.987 21.1969 41.1243 20.7331 41.1243 20.1096C41.1243 19.4862 40.987 19.0224 40.7124 18.7181C40.4452 18.4064 40.0927 18.2505 39.6548 18.2505C39.2169 18.2505 38.8644 18.4027 38.5972 18.7069C38.3301 19.0112 38.1965 19.4751 38.1965 20.0985C38.1965 20.7219 38.3301 21.1895 38.5972 21.5012C38.8644 21.8055 39.2169 21.9576 39.6548 21.9576ZM46.2689 23.0264C45.69 23.0264 45.189 22.9076 44.766 22.6701C44.3429 22.4326 44.0127 22.0949 43.7752 21.6571C43.5451 21.2192 43.4301 20.6997 43.4301 20.0985C43.4301 19.4974 43.5451 18.9815 43.7752 18.5511C44.0127 18.1132 44.3429 17.7755 44.766 17.538C45.189 17.3005 45.69 17.1818 46.2689 17.1818C46.8477 17.1818 47.3487 17.3005 47.7717 17.538C48.2022 17.7755 48.5325 18.1132 48.7625 18.5511C49 18.9815 49.1188 19.4974 49.1188 20.0985C49.1188 20.6997 49 21.2192 48.7625 21.6571C48.5325 22.0949 48.2022 22.4326 47.7717 22.6701C47.3487 22.9076 46.8477 23.0264 46.2689 23.0264ZM46.2689 21.9576C46.7067 21.9576 47.0555 21.8055 47.3153 21.5012C47.5751 21.1895 47.7049 20.7219 47.7049 20.0985C47.7049 19.4751 47.5751 19.0112 47.3153 18.7069C47.0555 18.4027 46.7067 18.2505 46.2689 18.2505C45.831 18.2505 45.4822 18.4027 45.2224 18.7069C44.9626 19.0112 44.8328 19.4751 44.8328 20.0985C44.8328 20.7219 44.9626 21.1895 45.2224 21.5012C45.4822 21.8055 45.831 21.9576 46.2689 21.9576ZM52.3449 23.0264C51.6547 23.0264 51.1389 22.8371 50.7975 22.4586C50.4561 22.0801 50.2854 21.5012 50.2854 20.7219V17.2931H51.677V20.7108C51.677 21.1264 51.7623 21.4344 51.933 21.6348C52.1037 21.8278 52.3635 21.9242 52.7123 21.9242C53.1057 21.9242 53.4248 21.7907 53.6697 21.5235C53.9221 21.2563 54.0482 20.9038 54.0482 20.4659V17.2931H55.4398V22.915H54.0816V21.7684H54.2375C54.0742 22.1692 53.8256 22.4809 53.4916 22.7035C53.165 22.9187 52.7828 23.0264 52.3449 23.0264ZM56.9505 22.915V18.6958C56.9505 18.4657 56.9431 18.232 56.9282 17.9945C56.9134 17.757 56.8911 17.5232 56.8615 17.2931H58.2085L58.3198 18.4064H58.1862C58.3643 18.013 58.6278 17.7124 58.9766 17.5046C59.3255 17.2894 59.7299 17.1818 60.1901 17.1818C60.8506 17.1818 61.3479 17.3673 61.6818 17.7384C62.0158 18.1095 62.1828 18.6884 62.1828 19.4751V22.915H60.7912V19.5419C60.7912 19.0892 60.7022 18.7663 60.5241 18.5734C60.3534 18.373 60.0936 18.2728 59.7448 18.2728C59.3143 18.2728 58.9729 18.4064 58.7206 18.6735C58.4682 18.9407 58.3421 19.297 58.3421 19.7423V22.915H56.9505ZM65.8403 23.0264C65.3504 23.0264 64.9163 22.9113 64.5378 22.6813C64.1667 22.4438 63.8772 22.1061 63.6694 21.6682C63.4616 21.2303 63.3577 20.7071 63.3577 20.0985C63.3577 19.4899 63.4616 18.9704 63.6694 18.54C63.8772 18.1021 64.1667 17.7681 64.5378 17.538C64.9163 17.3005 65.3504 17.1818 65.8403 17.1818C66.3078 17.1818 66.7197 17.2968 67.076 17.5269C67.4396 17.7495 67.6808 18.0538 67.7996 18.4398H67.6549V14.7215H69.0464V22.915H67.6771V21.7239H67.8107C67.692 22.1246 67.4508 22.4438 67.0871 22.6813C66.7309 22.9113 66.3153 23.0264 65.8403 23.0264ZM66.2299 21.9576C66.6678 21.9576 67.0203 21.8055 67.2875 21.5012C67.5547 21.1895 67.6883 20.7219 67.6883 20.0985C67.6883 19.4751 67.5547 19.0112 67.2875 18.7069C67.0203 18.4027 66.6678 18.2505 66.2299 18.2505C65.792 18.2505 65.4358 18.4027 65.1612 18.7069C64.894 19.0112 64.7604 19.4751 64.7604 20.0985C64.7604 20.7219 64.894 21.1895 65.1612 21.5012C65.4358 21.8055 65.792 21.9576 66.2299 21.9576ZM76.1994 23.0264C75.6205 23.0264 75.1122 22.9076 74.6743 22.6701C74.2438 22.4326 73.9098 22.0949 73.6724 21.6571C73.4349 21.2118 73.3161 20.6848 73.3161 20.0762C73.3161 19.4677 73.4349 18.9481 73.6724 18.5177C73.9173 18.0872 74.255 17.757 74.6854 17.5269C75.1159 17.2968 75.6205 17.1818 76.1994 17.1818C76.5705 17.1818 76.9305 17.2412 77.2793 17.3599C77.6355 17.4712 77.925 17.6345 78.1476 17.8497L77.7246 18.8183C77.5242 18.6327 77.2978 18.4954 77.0455 18.4064C76.8006 18.3099 76.5594 18.2616 76.3219 18.2616C75.8246 18.2616 75.435 18.4175 75.153 18.7292C74.8784 19.0409 74.7411 19.4936 74.7411 20.0874C74.7411 20.6811 74.8784 21.1375 75.153 21.4567C75.435 21.7758 75.8246 21.9354 76.3219 21.9354C76.552 21.9354 76.7895 21.8908 77.0344 21.8018C77.2867 21.7127 77.5168 21.5754 77.7246 21.3899L78.1476 22.3473C77.9176 22.5625 77.6244 22.7295 77.2682 22.8482C76.9193 22.967 76.5631 23.0264 76.1994 23.0264ZM81.3647 23.0264C80.8748 23.0264 80.4444 22.9113 80.0733 22.6813C79.7022 22.4438 79.4128 22.1061 79.205 21.6682C78.9972 21.2303 78.8932 20.7071 78.8932 20.0985C78.8932 19.4899 78.9972 18.9704 79.205 18.54C79.4128 18.1021 79.7022 17.7681 80.0733 17.538C80.4444 17.3005 80.8748 17.1818 81.3647 17.1818C81.8397 17.1818 82.2553 17.3005 82.6115 17.538C82.9752 17.7681 83.2164 18.0798 83.3351 18.4732H83.2127L83.3351 17.2931H84.671C84.6488 17.5232 84.6265 17.757 84.6042 17.9945C84.5894 18.232 84.582 18.4657 84.582 18.6958V22.915H83.2015L83.1904 21.7573H83.324C83.2052 22.1432 82.964 22.4512 82.6004 22.6813C82.2367 22.9113 81.8248 23.0264 81.3647 23.0264ZM81.7543 21.9576C82.1922 21.9576 82.5447 21.8055 82.8119 21.5012C83.0791 21.1895 83.2127 20.7219 83.2127 20.0985C83.2127 19.4751 83.0791 19.0112 82.8119 18.7069C82.5447 18.4027 82.1922 18.2505 81.7543 18.2505C81.3164 18.2505 80.9639 18.4027 80.6967 18.7069C80.4295 19.0112 80.2959 19.4751 80.2959 20.0985C80.2959 20.7219 80.4258 21.1895 80.6856 21.5012C80.9528 21.8055 81.309 21.9576 81.7543 21.9576ZM86.0973 22.915V14.7215H87.4889V22.915H86.0973ZM89 22.915V14.7215H90.3916V22.915H89ZM93.9066 23.0264C93.4242 23.0264 92.9789 22.9707 92.5707 22.8594C92.1699 22.7406 91.8322 22.5774 91.5576 22.3695L91.9473 21.4344C92.2293 21.6274 92.541 21.7758 92.8824 21.8797C93.2238 21.9836 93.5689 22.0356 93.9177 22.0356C94.2888 22.0356 94.5634 21.9725 94.7415 21.8463C94.9271 21.7201 95.0198 21.5494 95.0198 21.3342C95.0198 21.1635 94.9605 21.0299 94.8417 20.9334C94.7304 20.8295 94.5486 20.7516 94.2962 20.6997L93.183 20.4881C92.708 20.3842 92.3443 20.2061 92.092 19.9538C91.8471 19.7014 91.7246 19.3712 91.7246 18.963C91.7246 18.6142 91.8174 18.3062 92.0029 18.039C92.1959 17.7718 92.4668 17.564 92.8156 17.4156C93.1718 17.2597 93.5875 17.1818 94.0625 17.1818C94.4781 17.1818 94.8677 17.2374 95.2314 17.3488C95.6025 17.4601 95.9142 17.6271 96.1665 17.8497L95.7657 18.7515C95.5357 18.5659 95.2722 18.4212 94.9753 18.3173C94.6785 18.2134 94.389 18.1614 94.107 18.1614C93.7211 18.1614 93.439 18.232 93.2609 18.373C93.0828 18.5066 92.9937 18.681 92.9937 18.8962C92.9937 19.0595 93.0457 19.1968 93.1496 19.3081C93.2609 19.412 93.4316 19.4899 93.6617 19.5419L94.7749 19.7534C95.2722 19.8499 95.647 20.0206 95.8993 20.2655C96.1591 20.503 96.289 20.8295 96.289 21.2452C96.289 21.6162 96.1888 21.9354 95.9884 22.2026C95.788 22.4697 95.5097 22.6738 95.1534 22.8148C94.7972 22.9559 94.3816 23.0264 93.9066 23.0264ZM103.752 23.0264C103.277 23.0264 102.861 22.9113 102.505 22.6813C102.149 22.4438 101.912 22.1246 101.793 21.7239H101.915V22.915H100.535V14.7215H101.926V18.4398H101.793C101.919 18.0538 102.16 17.7495 102.516 17.5269C102.873 17.2968 103.285 17.1818 103.752 17.1818C104.249 17.1818 104.684 17.3005 105.055 17.538C105.426 17.7755 105.715 18.1132 105.923 18.5511C106.131 18.9815 106.235 19.5011 106.235 20.1096C106.235 20.7182 106.131 21.2414 105.923 21.6793C105.715 22.1098 105.422 22.4438 105.043 22.6813C104.672 22.9113 104.242 23.0264 103.752 23.0264ZM103.362 21.9576C103.8 21.9576 104.153 21.8055 104.42 21.5012C104.695 21.1969 104.832 20.7331 104.832 20.1096C104.832 19.4862 104.695 19.0224 104.42 18.7181C104.153 18.4064 103.8 18.2505 103.362 18.2505C102.925 18.2505 102.572 18.4027 102.305 18.7069C102.038 19.0112 101.904 19.4751 101.904 20.0985C101.904 20.7219 102.038 21.1895 102.305 21.5012C102.572 21.8055 102.925 21.9576 103.362 21.9576ZM107.218 25.4421L106.895 24.34C107.244 24.2658 107.537 24.1804 107.775 24.084C108.012 23.9875 108.209 23.8613 108.365 23.7054C108.521 23.5496 108.651 23.3492 108.755 23.1043L109.033 22.4475L108.999 22.993L106.55 17.2931H108.031L109.79 21.6793H109.467L111.237 17.2931H112.64L110.079 23.2267C109.909 23.6275 109.723 23.9578 109.523 24.2175C109.322 24.4847 109.107 24.6962 108.877 24.8521C108.647 25.0154 108.395 25.1415 108.12 25.2306C107.845 25.3197 107.545 25.3902 107.218 25.4421ZM119.145 23.0264C118.515 23.0264 117.973 22.9113 117.52 22.6813C117.075 22.4438 116.73 22.1061 116.485 21.6682C116.247 21.2303 116.129 20.7108 116.129 20.1096C116.129 19.5233 116.244 19.0112 116.474 18.5734C116.704 18.1355 117.023 17.7941 117.431 17.5492C117.847 17.3042 118.329 17.1818 118.878 17.1818C119.42 17.1818 119.873 17.2968 120.236 17.5269C120.6 17.757 120.875 18.0798 121.06 18.4954C121.253 18.911 121.35 19.3972 121.35 19.9538V20.3212H117.253V19.5864H120.359L120.17 19.7423C120.17 19.2227 120.058 18.8257 119.836 18.5511C119.62 18.2765 119.305 18.1392 118.889 18.1392C118.578 18.1392 118.314 18.2134 118.099 18.3618C117.891 18.5103 117.732 18.7218 117.62 18.9964C117.509 19.271 117.453 19.605 117.453 19.9983V20.143C117.453 20.7516 117.602 21.2081 117.899 21.5123C118.203 21.8092 118.63 21.9576 119.179 21.9576C119.498 21.9576 119.795 21.9168 120.069 21.8352C120.351 21.7461 120.619 21.6051 120.871 21.4121L121.283 22.3473C121.016 22.5625 120.697 22.7295 120.325 22.8482C119.954 22.967 119.561 23.0264 119.145 23.0264ZM122.528 22.915V18.6958C122.528 18.4657 122.521 18.232 122.506 17.9945C122.491 17.757 122.469 17.5232 122.439 17.2931H123.786L123.897 18.4064H123.764C123.92 18.0204 124.157 17.7199 124.476 17.5046C124.803 17.2894 125.189 17.1818 125.634 17.1818C126.079 17.1818 126.447 17.2894 126.736 17.5046C127.033 17.7124 127.241 18.039 127.36 18.4843H127.181C127.337 18.0835 127.593 17.7681 127.95 17.538C128.306 17.3005 128.714 17.1818 129.174 17.1818C129.805 17.1818 130.276 17.3673 130.588 17.7384C130.9 18.1095 131.056 18.6884 131.056 19.4751V22.915H129.664V19.5307C129.664 19.0854 129.59 18.7663 129.441 18.5734C129.293 18.373 129.055 18.2728 128.729 18.2728C128.343 18.2728 128.039 18.4101 127.816 18.6847C127.593 18.9519 127.482 19.3155 127.482 19.7757V22.915H126.09V19.5307C126.09 19.0854 126.016 18.7663 125.868 18.5734C125.719 18.373 125.482 18.2728 125.155 18.2728C124.769 18.2728 124.465 18.4101 124.242 18.6847C124.027 18.9519 123.92 19.3155 123.92 19.7757V22.915H122.528ZM132.541 25.3197V18.6958C132.541 18.4657 132.533 18.232 132.519 17.9945C132.504 17.757 132.481 17.5232 132.452 17.2931H133.799L133.921 18.4732H133.799C133.91 18.0798 134.144 17.7681 134.5 17.538C134.864 17.3005 135.283 17.1818 135.758 17.1818C136.255 17.1818 136.69 17.3005 137.061 17.538C137.432 17.7681 137.721 18.1021 137.929 18.54C138.137 18.9704 138.241 19.4899 138.241 20.0985C138.241 20.7071 138.137 21.2303 137.929 21.6682C137.721 22.1061 137.432 22.4438 137.061 22.6813C136.69 22.9113 136.255 23.0264 135.758 23.0264C135.291 23.0264 134.879 22.9113 134.522 22.6813C134.166 22.4512 133.929 22.1432 133.81 21.7573H133.932V25.3197H132.541ZM135.368 21.9576C135.814 21.9576 136.17 21.8055 136.437 21.5012C136.704 21.1895 136.838 20.7219 136.838 20.0985C136.838 19.4751 136.704 19.0112 136.437 18.7069C136.17 18.4027 135.814 18.2505 135.368 18.2505C134.931 18.2505 134.578 18.4027 134.311 18.7069C134.044 19.0112 133.91 19.4751 133.91 20.0985C133.91 20.7219 134.044 21.1895 134.311 21.5012C134.578 21.8055 134.931 21.9576 135.368 21.9576ZM139.444 22.915V14.7215H140.836V22.915H139.444ZM144.885 23.0264C144.306 23.0264 143.805 22.9076 143.382 22.6701C142.959 22.4326 142.629 22.0949 142.392 21.6571C142.161 21.2192 142.046 20.6997 142.046 20.0985C142.046 19.4974 142.161 18.9815 142.392 18.5511C142.629 18.1132 142.959 17.7755 143.382 17.538C143.805 17.3005 144.306 17.1818 144.885 17.1818C145.464 17.1818 145.965 17.3005 146.388 17.538C146.819 17.7755 147.149 18.1132 147.379 18.5511C147.616 18.9815 147.735 19.4974 147.735 20.0985C147.735 20.6997 147.616 21.2192 147.379 21.6571C147.149 22.0949 146.819 22.4326 146.388 22.6701C145.965 22.9076 145.464 23.0264 144.885 23.0264ZM144.885 21.9576C145.323 21.9576 145.672 21.8055 145.932 21.5012C146.191 21.1895 146.321 20.7219 146.321 20.0985C146.321 19.4751 146.191 19.0112 145.932 18.7069C145.672 18.4027 145.323 18.2505 144.885 18.2505C144.447 18.2505 144.099 18.4027 143.839 18.7069C143.579 19.0112 143.449 19.4751 143.449 20.0985C143.449 20.7219 143.579 21.1895 143.839 21.5012C144.099 21.8055 144.447 21.9576 144.885 21.9576ZM148.715 25.4421L148.392 24.34C148.741 24.2658 149.034 24.1804 149.272 24.084C149.509 23.9875 149.706 23.8613 149.862 23.7054C150.018 23.5496 150.148 23.3492 150.251 23.1043L150.53 22.4475L150.496 22.993L148.047 17.2931H149.528L151.287 21.6793H150.964L152.734 17.2931H154.137L151.576 23.2267C151.406 23.6275 151.22 23.9578 151.02 24.2175C150.819 24.4847 150.604 24.6962 150.374 24.8521C150.144 25.0154 149.892 25.1415 149.617 25.2306C149.342 25.3197 149.042 25.3902 148.715 25.4421ZM157.479 23.0264C156.848 23.0264 156.306 22.9113 155.853 22.6813C155.408 22.4438 155.063 22.1061 154.818 21.6682C154.581 21.2303 154.462 20.7108 154.462 20.1096C154.462 19.5233 154.577 19.0112 154.807 18.5734C155.037 18.1355 155.356 17.7941 155.764 17.5492C156.18 17.3042 156.662 17.1818 157.212 17.1818C157.753 17.1818 158.206 17.2968 158.57 17.5269C158.933 17.757 159.208 18.0798 159.394 18.4954C159.586 18.911 159.683 19.3972 159.683 19.9538V20.3212H155.586V19.5864H158.692L158.503 19.7423C158.503 19.2227 158.392 18.8257 158.169 18.5511C157.954 18.2765 157.638 18.1392 157.223 18.1392C156.911 18.1392 156.648 18.2134 156.432 18.3618C156.224 18.5103 156.065 18.7218 155.954 18.9964C155.842 19.271 155.787 19.605 155.787 19.9983V20.143C155.787 20.7516 155.935 21.2081 156.232 21.5123C156.536 21.8092 156.963 21.9576 157.512 21.9576C157.831 21.9576 158.128 21.9168 158.403 21.8352C158.685 21.7461 158.952 21.6051 159.204 21.4121L159.616 22.3473C159.349 22.5625 159.03 22.7295 158.659 22.8482C158.288 22.967 157.894 23.0264 157.479 23.0264ZM163.578 23.0264C162.947 23.0264 162.405 22.9113 161.952 22.6813C161.507 22.4438 161.162 22.1061 160.917 21.6682C160.68 21.2303 160.561 20.7108 160.561 20.1096C160.561 19.5233 160.676 19.0112 160.906 18.5734C161.136 18.1355 161.455 17.7941 161.863 17.5492C162.279 17.3042 162.761 17.1818 163.311 17.1818C163.852 17.1818 164.305 17.2968 164.669 17.5269C165.032 17.757 165.307 18.0798 165.492 18.4954C165.685 18.911 165.782 19.3972 165.782 19.9538V20.3212H161.685V19.5864H164.791L164.602 19.7423C164.602 19.2227 164.491 18.8257 164.268 18.5511C164.053 18.2765 163.737 18.1392 163.322 18.1392C163.01 18.1392 162.746 18.2134 162.531 18.3618C162.323 18.5103 162.164 18.7218 162.053 18.9964C161.941 19.271 161.886 19.605 161.886 19.9983V20.143C161.886 20.7516 162.034 21.2081 162.331 21.5123C162.635 21.8092 163.062 21.9576 163.611 21.9576C163.93 21.9576 164.227 21.9168 164.502 21.8352C164.784 21.7461 165.051 21.6051 165.303 21.4121L165.715 22.3473C165.448 22.5625 165.129 22.7295 164.758 22.8482C164.387 22.967 163.993 23.0264 163.578 23.0264ZM168.964 23.0264C168.482 23.0264 168.036 22.9707 167.628 22.8594C167.228 22.7406 166.89 22.5774 166.615 22.3695L167.005 21.4344C167.287 21.6274 167.599 21.7758 167.94 21.8797C168.281 21.9836 168.627 22.0356 168.975 22.0356C169.346 22.0356 169.621 21.9725 169.799 21.8463C169.985 21.7201 170.077 21.5494 170.077 21.3342C170.077 21.1635 170.018 21.0299 169.899 20.9334C169.788 20.8295 169.606 20.7516 169.354 20.6997L168.241 20.4881C167.766 20.3842 167.402 20.2061 167.15 19.9538C166.905 19.7014 166.782 19.3712 166.782 18.963C166.782 18.6142 166.875 18.3062 167.061 18.039C167.253 17.7718 167.524 17.564 167.873 17.4156C168.229 17.2597 168.645 17.1818 169.12 17.1818C169.536 17.1818 169.925 17.2374 170.289 17.3488C170.66 17.4601 170.972 17.6271 171.224 17.8497L170.823 18.7515C170.593 18.5659 170.33 18.4212 170.033 18.3173C169.736 18.2134 169.447 18.1614 169.165 18.1614C168.779 18.1614 168.497 18.232 168.319 18.373C168.14 18.5066 168.051 18.681 168.051 18.8962C168.051 19.0595 168.103 19.1968 168.207 19.3081C168.319 19.412 168.489 19.4899 168.719 19.5419L169.833 19.7534C170.33 19.8499 170.705 20.0206 170.957 20.2655C171.217 20.503 171.347 20.8295 171.347 21.2452C171.347 21.6162 171.246 21.9354 171.046 22.2026C170.846 22.4697 170.567 22.6738 170.211 22.8148C169.855 22.9559 169.439 23.0264 168.964 23.0264Z" fill="black"/>
<path d="M59.397 68.1573C59.397 66.4006 60.821 64.9766 62.5777 64.9766H75.3006V121.434H59.397V68.1573Z" fill="#5D6AE8"/>
<path d="M76.8914 76.1084H89.6143C91.3709 76.1084 92.795 77.5325 92.795 79.2891V121.434H76.8914V76.1084Z" fill="#FF0090"/>
<path d="M105.518 79.2891C105.518 77.5325 106.942 76.1084 108.699 76.1084H121.421V121.434H105.518V79.2891Z" fill="#5D6AE8"/>
<path d="M123.011 95.1934H135.734C137.491 95.1934 138.915 96.6174 138.915 98.3741V121.434H123.011V95.1934Z" fill="#FF0090"/>
<path d="M151.638 79.2891C151.638 77.5325 153.062 76.1084 154.819 76.1084H167.542V121.434H151.638V79.2891Z" fill="#5D6AE8"/>
<path d="M169.132 73.7227H181.855C183.612 73.7227 185.036 75.1467 185.036 76.9034V121.433H169.132V73.7227Z" fill="#FF0090"/>
<path d="M197.759 65.7706C197.759 64.0139 199.183 62.5898 200.94 62.5898H213.663V121.433H197.759V65.7706Z" fill="#5D6AE8"/>
<path d="M215.252 51.457H227.975C229.732 51.457 231.156 52.8811 231.156 54.6378V121.433H215.252V51.457Z" fill="#FF0090"/>
<path d="M243.879 83.2647C243.879 81.508 245.303 80.084 247.06 80.084H259.783V121.433H243.879V83.2647Z" fill="#5D6AE8"/>
<path d="M261.373 84.0605H274.096C275.853 84.0605 277.277 85.4846 277.277 87.2413V121.434H261.373V84.0605Z" fill="#FF0090"/>
<path d="M290 79.2891C290 77.5325 291.424 76.1084 293.181 76.1084H305.904V121.434H290V79.2891Z" fill="#5D6AE8"/>
<path d="M307.493 62.5898H320.216C321.973 62.5898 323.397 64.0139 323.397 65.7706V121.433H307.493V62.5898Z" fill="#FF0090"/>
<defs>
<clipPath id="clip0_4039_102287">
<rect width="14.3133" height="44.5301" fill="white" transform="translate(16.4573 83.6631)"/>
</clipPath>
</defs>
</svg>
