<svg width="560" height="560" viewBox="0 0 560 560" fill="none" xmlns="http://www.w3.org/2000/svg">
<path d="M420.11 29.95H431.51" stroke="black" stroke-width="0.5" stroke-linecap="round" stroke-linejoin="round"/>
<path d="M451.09 111.06C451.09 111.06 422.49 117.61 422.74 104.16C422.95 90.96 451.09 111.06 451.09 111.06Z" fill="#999999" stroke="black" stroke-width="0.5" stroke-linecap="round" stroke-linejoin="round"/>
<path d="M448.22 55.57C448.22 55.57 413.07 33.22 426.89 20.06C440.46 7.08997 448.22 55.57 448.22 55.57Z" fill="#333333" stroke="black" stroke-width="0.5" stroke-linecap="round" stroke-linejoin="round"/>
<path d="M485.97 9.12001C479.21 3.31001 472.97 11.47 468.38 21.66C465.85 20 462.55 19.55 458.38 20.66C418.87 30.9 457.1 134.43 457.28 135.71C457.28 135.71 478.92 68.92 475.23 36.86C485.57 28.88 495.75 17.55 485.97 9.12001Z" fill="#666666" stroke="black" stroke-width="0.5" stroke-linecap="round" stroke-linejoin="round"/>
<path d="M443.17 102.43C443.17 102.43 403.47 79.71 411.24 72.12C419.01 64.53 448.74 97.5501 448.6 101.64C448.46 105.73 443.17 102.43 443.17 102.43Z" fill="#666666" stroke="black" stroke-width="0.5" stroke-linecap="round" stroke-linejoin="round"/>
<path d="M452.88 126.98C452.88 126.98 410.82 73.4 428.1 56.48C445.38 39.56 461.82 105.88 459.53 122.59C457.24 139.3 452.88 126.98 452.88 126.98Z" fill="#808080" stroke="black" stroke-width="0.5" stroke-linecap="round" stroke-linejoin="round"/>
<path d="M468.65 109.97C468.65 109.97 493.89 59.7799 503.83 68.6999C513.77 77.6199 475.08 116.42 470.01 116.55C464.94 116.68 468.65 109.97 468.65 109.97Z" fill="#333333" stroke="black" stroke-width="0.5" stroke-linecap="round" stroke-linejoin="round"/>
<path d="M456.88 133.31C456.88 133.31 474.44 27.59 491.64 35.64C508.84 43.69 471.75 130.38 466.94 133.31C462.13 136.24 456.88 133.31 456.88 133.31Z" fill="#808080" stroke="black" stroke-width="0.5" stroke-linecap="round" stroke-linejoin="round"/>
<path d="M429 12.58L431.38 25.38" stroke="black" stroke-width="0.5" stroke-linecap="round" stroke-linejoin="round"/>
<path d="M424.75 41.1099L431.34 38.1899" stroke="black" stroke-width="0.5" stroke-linecap="round" stroke-linejoin="round"/>
<path d="M448.97 40.75L456.47 50.24" stroke="black" stroke-width="0.5" stroke-linecap="round" stroke-linejoin="round"/>
<path d="M455.99 83.2L463.49 92.6899" stroke="black" stroke-width="0.5" stroke-linecap="round" stroke-linejoin="round"/>
<path d="M463.96 58.6799L459.58 67.2599" stroke="black" stroke-width="0.5" stroke-linecap="round" stroke-linejoin="round"/>
<path d="M468.75 35.45L462.75 47.52" stroke="black" stroke-width="0.5" stroke-linecap="round" stroke-linejoin="round"/>
<path d="M451.89 20.71L454.82 29.41" stroke="black" stroke-width="0.5" stroke-linecap="round" stroke-linejoin="round"/>
<path d="M465.75 12.04L461.75 22.28" stroke="black" stroke-width="0.5" stroke-linecap="round" stroke-linejoin="round"/>
<path d="M492.59 7L483.99 13.4" stroke="black" stroke-width="0.5" stroke-linecap="round" stroke-linejoin="round"/>
<path d="M491.68 24.38H480.88" stroke="black" stroke-width="0.5" stroke-linecap="round" stroke-linejoin="round"/>
<path d="M482.26 36.71L484.08 48.77" stroke="black" stroke-width="0.5" stroke-linecap="round" stroke-linejoin="round"/>
<path d="M500.18 33.98L491.75 42.57" stroke="black" stroke-width="0.5" stroke-linecap="round" stroke-linejoin="round"/>
<path d="M500.39 57.88L499.9 69.54" stroke="black" stroke-width="0.5" stroke-linecap="round" stroke-linejoin="round"/>
<path d="M511.66 76.25L503.66 76.44" stroke="black" stroke-width="0.5" stroke-linecap="round" stroke-linejoin="round"/>
<path d="M508.03 94.8799L494.93 93.3199" stroke="black" stroke-width="0.5" stroke-linecap="round" stroke-linejoin="round"/>
<path d="M484.04 75.03L480.47 80.71" stroke="black" stroke-width="0.5" stroke-linecap="round" stroke-linejoin="round"/>
<path d="M429.96 110.08L423.47 111.8" stroke="black" stroke-width="0.5" stroke-linecap="round" stroke-linejoin="round"/>
<path d="M486.28 63.4299L480.06 69.6499" stroke="black" stroke-width="0.5" stroke-linecap="round" stroke-linejoin="round"/>
<path d="M442.08 94.05L433.75 91.33" stroke="black" stroke-width="0.5" stroke-linecap="round" stroke-linejoin="round"/>
<path d="M427.65 103.75L419.29 101.02" stroke="black" stroke-width="0.5" stroke-linecap="round" stroke-linejoin="round"/>
<path d="M477.38 108.08L465.68 116.08" stroke="black" stroke-width="0.5" stroke-linecap="round" stroke-linejoin="round"/>
<path d="M475.31 92.6899L472.2 102.38" stroke="black" stroke-width="0.5" stroke-linecap="round" stroke-linejoin="round"/>
<path d="M451.16 90.8199L452.62 101.7" stroke="black" stroke-width="0.5" stroke-linecap="round" stroke-linejoin="round"/>
<path d="M419.26 61.96L428.59 65.53" stroke="black" stroke-width="0.5" stroke-linecap="round" stroke-linejoin="round"/>
<path d="M428.66 73.39L437.9 77.78" stroke="black" stroke-width="0.5" stroke-linecap="round" stroke-linejoin="round"/>
<path d="M403.06 69.8199L412.29 74.2099" stroke="black" stroke-width="0.5" stroke-linecap="round" stroke-linejoin="round"/>
<path d="M411.13 89.05L420.78 85.65" stroke="black" stroke-width="0.5" stroke-linecap="round" stroke-linejoin="round"/>
<path d="M438.91 59.95L436.91 72.21" stroke="black" stroke-width="0.5" stroke-linecap="round" stroke-linejoin="round"/>
<path d="M425.75 47.88L430.37 56.49" stroke="black" stroke-width="0.5" stroke-linecap="round" stroke-linejoin="round"/>
<path d="M476.19 170.32H447C446.501 170.317 446.017 170.152 445.62 169.85C445.228 169.544 444.944 169.12 444.81 168.64L434.39 130.15C434.315 129.821 434.315 129.479 434.39 129.15C434.444 128.787 434.589 128.443 434.81 128.15C435.023 127.876 435.292 127.651 435.6 127.49C435.913 127.343 436.254 127.261 436.6 127.25H486.6C486.946 127.26 487.287 127.342 487.6 127.49C487.915 127.645 488.189 127.871 488.401 128.15C488.613 128.43 488.756 128.755 488.82 129.1C488.895 129.429 488.895 129.771 488.82 130.1L478.4 168.59C478.271 169.07 477.987 169.495 477.594 169.798C477.2 170.102 476.717 170.267 476.22 170.27L476.19 170.32Z" fill="#CCCCCC" stroke="black" stroke-width="0.5" stroke-linecap="round" stroke-linejoin="round"/>
<path d="M521 169.88H328.89V181.88H357.53V193.52C357.53 195.867 359.433 197.77 361.78 197.77C364.127 197.77 366.03 195.867 366.03 193.52V181.88H483.37V193.525C483.37 195.869 485.271 197.77 487.615 197.77C489.96 197.77 491.86 195.869 491.86 193.525V181.88H521V169.88Z" fill="#333333" stroke="black" stroke-width="0.5" stroke-linecap="round" stroke-linejoin="round"/>
<path d="M412.53 128.13H321.8C321.591 128.127 321.384 128.166 321.19 128.243C320.996 128.321 320.819 128.436 320.67 128.582C320.52 128.727 320.401 128.901 320.319 129.093C320.236 129.285 320.193 129.491 320.19 129.7V143.09C320.193 143.299 320.236 143.505 320.319 143.697C320.401 143.889 320.52 144.063 320.67 144.208C320.819 144.354 320.996 144.469 321.19 144.547C321.384 144.624 321.591 144.663 321.8 144.66H412.53C412.739 144.663 412.946 144.624 413.14 144.547C413.334 144.469 413.511 144.354 413.66 144.208C413.81 144.063 413.929 143.889 414.011 143.697C414.094 143.505 414.137 143.299 414.14 143.09V129.7C414.137 129.491 414.094 129.285 414.011 129.093C413.929 128.901 413.81 128.727 413.66 128.582C413.511 128.436 413.334 128.321 413.14 128.243C412.946 128.166 412.739 128.127 412.53 128.13Z" fill="#E5E5E5" stroke="black" stroke-width="0.5" stroke-linecap="round" stroke-linejoin="round"/>
<path d="M409.75 128.13V144.66" stroke="black" stroke-width="0.5" stroke-linecap="round" stroke-linejoin="round"/>
<path d="M401.09 128.13V144.66" stroke="black" stroke-width="0.5" stroke-linecap="round" stroke-linejoin="round"/>
<path d="M405.44 128.13V144.66" stroke="black" stroke-width="0.5" stroke-linecap="round" stroke-linejoin="round"/>
<path d="M316.43 144.66H409.75V152.49H316.43C316.005 152.489 315.584 152.4 315.195 152.227C314.806 152.055 314.457 151.804 314.17 151.49C313.562 150.832 313.226 149.967 313.23 149.07V148.07C313.226 147.173 313.562 146.309 314.17 145.65C314.459 145.339 314.808 145.09 315.197 144.92C315.586 144.749 316.006 144.661 316.43 144.66Z" fill="#999999" stroke="black" stroke-width="0.5" stroke-linecap="round" stroke-linejoin="round"/>
<path d="M405.55 147.27H330.55C330.348 147.27 330.155 147.35 330.013 147.493C329.87 147.635 329.79 147.828 329.79 148.03V148.25C329.79 148.452 329.87 148.645 330.013 148.787C330.155 148.93 330.348 149.01 330.55 149.01H405.55C405.752 149.01 405.945 148.93 406.087 148.787C406.23 148.645 406.31 148.452 406.31 148.25V148.03C406.31 147.828 406.23 147.635 406.087 147.493C405.945 147.35 405.752 147.27 405.55 147.27Z" fill="#666666" stroke="black" stroke-width="0.5" stroke-linecap="round" stroke-linejoin="round"/>
<path d="M406.94 169.88H318.65C317.481 169.88 316.322 169.653 315.24 169.21C313.078 168.342 311.348 166.652 310.43 164.51C309.982 163.457 309.75 162.324 309.75 161.18C309.753 160.031 309.986 158.895 310.434 157.837C310.882 156.779 311.537 155.821 312.36 155.02C314.045 153.385 316.302 152.474 318.65 152.48H406.99C407.204 152.476 407.415 152.531 407.6 152.64C407.786 152.741 407.939 152.894 408.04 153.08C409.276 155.595 409.864 158.38 409.75 161.18C409.753 163.944 409.149 166.675 407.98 169.18C407.884 169.385 407.731 169.559 407.54 169.68C407.36 169.795 407.154 169.864 406.94 169.88Z" fill="#E5E5E5" stroke="black" stroke-width="0.5" stroke-linecap="round" stroke-linejoin="round"/>
<path d="M389.48 156.88H335.28C334.63 156.88 334.11 157.22 334.11 157.64V157.86C334.11 158.28 334.63 158.62 335.28 158.62H389.48C390.13 158.62 390.65 158.28 390.65 157.86V157.64C390.65 157.18 390.13 156.88 389.48 156.88Z" fill="#999999" stroke="black" stroke-width="0.5" stroke-linecap="round" stroke-linejoin="round"/>
<path d="M389.48 162.06H335.28C335.128 162.057 334.977 162.085 334.836 162.141C334.695 162.197 334.566 162.28 334.457 162.386C334.349 162.492 334.262 162.619 334.202 162.758C334.143 162.898 334.111 163.048 334.11 163.2V163.53C334.111 163.682 334.143 163.832 334.202 163.972C334.262 164.111 334.349 164.238 334.457 164.344C334.566 164.45 334.695 164.533 334.836 164.589C334.977 164.645 335.128 164.673 335.28 164.67H389.48C389.632 164.673 389.783 164.645 389.924 164.589C390.065 164.533 390.194 164.45 390.302 164.344C390.411 164.238 390.498 164.111 390.558 163.972C390.617 163.832 390.649 163.682 390.65 163.53V163.2C390.649 163.048 390.617 162.898 390.558 162.758C390.498 162.619 390.411 162.492 390.302 162.386C390.194 162.28 390.065 162.197 389.924 162.141C389.783 162.085 389.632 162.057 389.48 162.06Z" fill="#999999" stroke="black" stroke-width="0.5" stroke-linecap="round" stroke-linejoin="round"/>
<path d="M90.8601 430.02C85.9724 429.844 81.1389 431.093 76.9487 433.615C72.7584 436.138 69.3925 439.825 67.2609 444.227C65.1294 448.629 64.3243 453.556 64.9438 458.407C65.5633 463.258 67.5807 467.825 70.7501 471.55C70.8213 471.621 70.9021 471.682 70.9901 471.73C71.078 471.77 71.1735 471.79 71.2701 471.79H108.67C108.767 471.79 108.862 471.77 108.95 471.73C109.037 471.684 109.114 471.623 109.18 471.55C112.254 467.942 114.249 463.54 114.935 458.85C115.62 454.16 114.969 449.371 113.056 445.035C111.143 440.698 108.045 436.988 104.119 434.332C100.193 431.677 95.5974 430.182 90.8601 430.02Z" fill="#CCCCCC" stroke="black" stroke-width="0.5" stroke-linecap="round" stroke-linejoin="round"/>
<path d="M156.75 187V361.5L314.75 355.5L414.25 335.5L255.25 148L156.75 187Z" fill="white" stroke="black" stroke-width="0.5" stroke-linecap="round" stroke-linejoin="round"/>
<path d="M199.67 185.46C204.316 186.329 209.116 185.8 213.462 183.941C217.808 182.082 221.505 178.976 224.085 175.016C226.666 171.056 228.015 166.42 227.961 161.693C227.906 156.967 226.452 152.363 223.781 148.463C221.11 144.563 217.343 141.542 212.956 139.783C208.569 138.025 203.758 137.606 199.133 138.581C194.508 139.556 190.276 141.88 186.972 145.26C183.667 148.64 181.44 152.924 180.57 157.57C179.993 160.655 180.029 163.824 180.676 166.896C181.323 169.968 182.569 172.881 184.343 175.471C186.117 178.061 188.383 180.276 191.013 181.99C193.643 183.704 196.585 184.883 199.67 185.46Z" fill="#CCCCCC" stroke="black" stroke-width="0.5" stroke-linecap="round" stroke-linejoin="round"/>
<path d="M80.24 424.5L90.59 423.5L39.09 221.5L28.74 222.5L80.24 424.5Z" fill="#808080" stroke="black" stroke-width="0.5" stroke-linecap="round" stroke-linejoin="round"/>
<path d="M164.09 115.1L160.24 109.5L31.75 219L35.6 224.6L164.09 115.1Z" stroke="black" stroke-width="0.5" stroke-linecap="round" stroke-linejoin="round"/>
<path d="M34.28 232.06C36.3626 232.06 38.3985 231.442 40.1302 230.285C41.8618 229.128 43.2115 227.484 44.0085 225.56C44.8054 223.636 45.014 221.518 44.6077 219.476C44.2014 217.433 43.1985 215.557 41.7258 214.084C40.2532 212.612 38.3769 211.609 36.3343 211.202C34.2917 210.796 32.1744 211.005 30.2503 211.802C28.3262 212.599 26.6817 213.948 25.5246 215.68C24.3676 217.412 23.75 219.447 23.75 221.53C23.75 224.323 24.8594 227.001 26.8342 228.976C28.8089 230.951 31.4873 232.06 34.28 232.06Z" fill="#808080" stroke="black" stroke-width="0.5" stroke-linecap="round" stroke-linejoin="round"/>
<path d="M34.28 228.55C35.6645 228.55 37.0179 228.139 38.169 227.37C39.3202 226.601 40.2174 225.508 40.7472 224.229C41.277 222.95 41.4156 221.542 41.1455 220.184C40.8754 218.827 40.2087 217.579 39.2298 216.6C38.2508 215.621 37.0035 214.955 35.6457 214.685C34.2878 214.414 32.8803 214.553 31.6012 215.083C30.3222 215.613 29.2289 216.51 28.4597 217.661C27.6906 218.812 27.28 220.166 27.28 221.55C27.28 223.407 28.0175 225.187 29.3303 226.5C30.643 227.813 32.4235 228.55 34.28 228.55Z" fill="#CCCCCC" stroke="black" stroke-width="0.5" stroke-linecap="round" stroke-linejoin="round"/>
<path d="M179.6 77.0399L156.25 86.2699C154.884 86.8114 153.789 87.8723 153.204 89.2201C152.619 90.5679 152.592 92.0926 153.13 93.4599L168.83 133.16C169.097 133.837 169.495 134.455 170.001 134.978C170.507 135.502 171.111 135.92 171.778 136.21C172.446 136.5 173.164 136.655 173.892 136.667C174.62 136.679 175.343 136.547 176.02 136.28L199.37 127.04C200.048 126.774 200.667 126.377 201.191 125.871C201.715 125.365 202.134 124.761 202.424 124.093C202.714 123.425 202.869 122.706 202.88 121.978C202.891 121.25 202.759 120.527 202.49 119.85L186.8 80.1599C186.259 78.7917 185.196 77.6944 183.846 77.1093C182.496 76.5242 180.968 76.4993 179.6 77.0399Z" fill="#333333" stroke="black" stroke-width="0.5" stroke-linecap="round" stroke-linejoin="round"/>
<path d="M186.2 118.33C172.898 123.594 162.232 133.925 156.548 147.053C150.864 160.18 150.627 175.028 155.89 188.33L256.19 148.67C250.919 135.376 240.59 124.715 227.469 119.027C214.347 113.339 199.506 113.089 186.2 118.33Z" fill="#4C4C4C" stroke="black" stroke-width="0.5" stroke-linecap="round" stroke-linejoin="round"/>
<path d="M79.5401 421.81L90.8201 419.97C92.2482 419.736 93.7108 420.079 94.8864 420.922C96.0621 421.766 96.8547 423.042 97.0901 424.47C97.3211 425.899 96.9762 427.362 96.1308 428.537C95.2854 429.712 94.0086 430.505 92.5801 430.74L81.3001 432.58C80.5936 432.696 79.8712 432.671 79.1741 432.508C78.4771 432.344 77.8191 432.045 77.2378 431.627C76.6564 431.209 76.1631 430.681 75.7861 430.072C75.409 429.464 75.1555 428.787 75.0401 428.08C74.9229 427.373 74.9464 426.649 75.1093 425.951C75.2721 425.253 75.5711 424.594 75.9891 424.011C76.4071 423.429 76.936 422.935 77.5453 422.557C78.1546 422.179 78.8325 421.925 79.5401 421.81Z" fill="#CCCCCC" stroke="black" stroke-width="0.5" stroke-linecap="round" stroke-linejoin="round"/>
<path d="M300.99 424.27H251.11L248.75 454.09C248.749 454.721 248.871 455.346 249.11 455.93C249.6 457.1 250.53 458.03 251.7 458.52C252.28 458.762 252.902 458.888 253.53 458.89H328.53C329.052 458.877 329.548 458.661 329.912 458.287C330.276 457.913 330.48 457.412 330.48 456.89C330.484 456.632 330.436 456.375 330.338 456.136C330.24 455.897 330.095 455.681 329.91 455.5C329.541 455.139 329.046 454.935 328.53 454.93H304.53C303.735 454.932 302.947 454.779 302.21 454.48C301.462 454.182 300.782 453.736 300.21 453.17C299.651 452.609 299.208 451.943 298.908 451.21C298.608 450.477 298.455 449.692 298.46 448.9L300.99 424.27Z" fill="#808080" stroke="black" stroke-width="0.5" stroke-linecap="round" stroke-linejoin="round"/>
<path d="M131 226C131 219.373 136.373 214 143 214H407C413.627 214 419 219.373 419 226V394H131V226Z" fill="#333333" stroke="black" stroke-width="0.5" stroke-linecap="round" stroke-linejoin="round"/>
<rect x="139" y="222" width="272" height="164" rx="8" fill="#E5E5E5"/>
<path d="M290.46 240H157.54C156.336 240 155.181 240.362 154.33 241.006C153.478 241.651 153 242.525 153 243.436V367.564C153 368.475 153.478 369.349 154.33 369.994C155.181 370.638 156.336 371 157.54 371H290.46C291.664 371 292.819 370.638 293.67 369.994C294.522 369.349 295 368.475 295 367.564V243.436C295 242.525 294.522 241.651 293.67 241.006C292.819 240.362 291.664 240 290.46 240Z" fill="#1A1A1A" stroke="black" stroke-width="0.5" stroke-linecap="round" stroke-linejoin="round"/>
<path d="M398.546 240H311.454C310.803 240 310.179 240.362 309.719 241.006C309.259 241.65 309 242.524 309 243.435V304.565C309 305.476 309.259 306.35 309.719 306.994C310.179 307.638 310.803 308 311.454 308H398.546C399.197 308 399.821 307.638 400.281 306.994C400.741 306.35 401 305.476 401 304.565V243.435C401 242.524 400.741 241.65 400.281 241.006C399.821 240.362 399.197 240 398.546 240Z" fill="#1A1A1A" stroke="black" stroke-width="0.5" stroke-linecap="round" stroke-linejoin="round"/>
<path d="M394.553 236H307.454C306.804 236 306.179 236.362 305.719 237.006C305.259 237.65 305 238.524 305 239.435V300.565C305 301.476 305.259 302.35 305.719 302.994C306.179 303.638 306.804 304 307.454 304H394.553C395.202 303.997 395.825 303.634 396.284 302.99C396.742 302.347 397 301.474 397 300.565V239.435C397 238.526 396.742 237.653 396.284 237.01C395.825 236.366 395.202 236.003 394.553 236Z" fill="#808080" stroke="black" stroke-width="0.5" stroke-linecap="round" stroke-linejoin="round"/>
<path d="M358.75 288C358.75 292.28 355.28 295.75 351 295.75C346.72 295.75 343.25 292.28 343.25 288C343.25 283.72 346.72 280.25 351 280.25C355.28 280.25 358.75 283.72 358.75 288Z" fill="#808080" stroke="white" stroke-width="0.5"/>
<path fill-rule="evenodd" clip-rule="evenodd" d="M349 285.883C349 285.494 349.424 285.254 349.757 285.454L353.285 287.571C353.609 287.765 353.609 288.235 353.285 288.429L349.757 290.546C349.424 290.746 349 290.506 349 290.117V285.883Z" stroke="white" stroke-width="0.5" stroke-linejoin="round"/>
<path d="M311.4 291.072C310.76 291.072 310.269 290.824 309.928 290.328C309.587 289.832 309.416 289.115 309.416 288.176C309.416 287.232 309.587 286.515 309.928 286.024C310.269 285.533 310.76 285.288 311.4 285.288C312.045 285.288 312.536 285.533 312.872 286.024C313.213 286.515 313.384 287.229 313.384 288.168C313.384 289.112 313.213 289.832 312.872 290.328C312.531 290.824 312.04 291.072 311.4 291.072ZM311.4 290.496C311.848 290.496 312.181 290.307 312.4 289.928C312.619 289.549 312.728 288.963 312.728 288.168C312.728 287.635 312.68 287.2 312.584 286.864C312.488 286.523 312.341 286.269 312.144 286.104C311.947 285.939 311.699 285.856 311.4 285.856C310.957 285.856 310.624 286.043 310.4 286.416C310.181 286.789 310.072 287.373 310.072 288.168C310.072 288.696 310.12 289.133 310.216 289.48C310.317 289.821 310.464 290.077 310.656 290.248C310.853 290.413 311.101 290.496 311.4 290.496ZM316.197 291.072C315.557 291.072 315.066 290.824 314.725 290.328C314.384 289.832 314.213 289.115 314.213 288.176C314.213 287.232 314.384 286.515 314.725 286.024C315.066 285.533 315.557 285.288 316.197 285.288C316.842 285.288 317.333 285.533 317.669 286.024C318.01 286.515 318.181 287.229 318.181 288.168C318.181 289.112 318.01 289.832 317.669 290.328C317.328 290.824 316.837 291.072 316.197 291.072ZM316.197 290.496C316.645 290.496 316.978 290.307 317.197 289.928C317.416 289.549 317.525 288.963 317.525 288.168C317.525 287.635 317.477 287.2 317.381 286.864C317.285 286.523 317.138 286.269 316.941 286.104C316.744 285.939 316.496 285.856 316.197 285.856C315.754 285.856 315.421 286.043 315.197 286.416C314.978 286.789 314.869 287.373 314.869 288.168C314.869 288.696 314.917 289.133 315.013 289.48C315.114 289.821 315.261 290.077 315.453 290.248C315.65 290.413 315.898 290.496 316.197 290.496ZM319.098 287.8V286.984H319.914V287.8H319.098ZM319.098 291V290.184H319.914V291H319.098ZM322.782 291.072C322.403 291.072 322.041 291.013 321.694 290.896C321.347 290.779 321.057 290.611 320.822 290.392L321.07 289.88C321.331 290.093 321.601 290.248 321.878 290.344C322.155 290.44 322.454 290.488 322.774 290.488C323.195 290.488 323.515 290.4 323.734 290.224C323.953 290.043 324.062 289.779 324.062 289.432C324.062 289.101 323.95 288.851 323.726 288.68C323.502 288.504 323.174 288.416 322.742 288.416H321.894V287.864H322.686C323.059 287.864 323.355 287.768 323.574 287.576C323.793 287.384 323.902 287.123 323.902 286.792C323.902 286.493 323.801 286.267 323.598 286.112C323.401 285.952 323.115 285.872 322.742 285.872C322.433 285.872 322.147 285.925 321.886 286.032C321.63 286.133 321.39 286.296 321.166 286.52L320.918 286C321.137 285.776 321.411 285.603 321.742 285.48C322.073 285.352 322.419 285.288 322.782 285.288C323.337 285.288 323.771 285.416 324.086 285.672C324.401 285.928 324.558 286.283 324.558 286.736C324.558 287.083 324.459 287.381 324.262 287.632C324.065 287.877 323.798 288.045 323.462 288.136V288.048C323.862 288.112 324.171 288.272 324.39 288.528C324.609 288.779 324.718 289.096 324.718 289.48C324.718 289.971 324.545 290.36 324.198 290.648C323.857 290.931 323.385 291.072 322.782 291.072ZM328.299 291V289.776H325.611V289.296L328.403 285.36H328.947V289.24H329.811V289.776H328.947V291H328.299ZM328.299 289.24V286.144H328.475L326.155 289.408V289.24H328.299Z" fill="white"/>
<rect x="309.25" y="267.25" width="83.5" height="5.5" rx="2.75" fill="#999999" stroke="black" stroke-width="0.5"/>
<rect x="309.25" y="267.25" width="24.5" height="5.5" rx="2.75" fill="white" stroke="black" stroke-width="0.5"/>
<path d="M372.4 291.072C371.76 291.072 371.269 290.824 370.928 290.328C370.587 289.832 370.416 289.115 370.416 288.176C370.416 287.232 370.587 286.515 370.928 286.024C371.269 285.533 371.76 285.288 372.4 285.288C373.045 285.288 373.536 285.533 373.872 286.024C374.213 286.515 374.384 287.229 374.384 288.168C374.384 289.112 374.213 289.832 373.872 290.328C373.531 290.824 373.04 291.072 372.4 291.072ZM372.4 290.496C372.848 290.496 373.181 290.307 373.4 289.928C373.619 289.549 373.728 288.963 373.728 288.168C373.728 287.635 373.68 287.2 373.584 286.864C373.488 286.523 373.341 286.269 373.144 286.104C372.947 285.939 372.699 285.856 372.4 285.856C371.957 285.856 371.624 286.043 371.4 286.416C371.181 286.789 371.072 287.373 371.072 288.168C371.072 288.696 371.12 289.133 371.216 289.48C371.317 289.821 371.464 290.077 371.656 290.248C371.853 290.413 372.101 290.496 372.4 290.496ZM377.885 291V289.776H375.197V289.296L377.989 285.36H378.533V289.24H379.397V289.776H378.533V291H377.885ZM377.885 289.24V286.144H378.061L375.741 289.408V289.24H377.885ZM380.098 287.8V286.984H380.914V287.8H380.098ZM380.098 291V290.184H380.914V291H380.098ZM383.918 291.072C383.673 291.072 383.433 291.045 383.198 290.992C382.963 290.939 382.742 290.861 382.534 290.76C382.331 290.659 382.153 290.536 381.998 290.392L382.246 289.88C382.507 290.088 382.774 290.243 383.046 290.344C383.318 290.44 383.609 290.488 383.918 290.488C384.323 290.488 384.641 290.379 384.87 290.16C385.099 289.941 385.214 289.653 385.214 289.296C385.214 288.928 385.105 288.627 384.886 288.392C384.667 288.157 384.363 288.04 383.974 288.04C383.697 288.04 383.449 288.096 383.23 288.208C383.011 288.315 382.822 288.483 382.662 288.712H382.182V285.36H385.526V285.92H382.822V288.168H382.646C382.79 287.944 382.987 287.773 383.238 287.656C383.494 287.533 383.782 287.472 384.102 287.472C384.465 287.472 384.777 287.547 385.038 287.696C385.305 287.845 385.51 288.053 385.654 288.32C385.798 288.587 385.87 288.899 385.87 289.256C385.87 289.613 385.79 289.931 385.63 290.208C385.475 290.48 385.251 290.693 384.958 290.848C384.67 290.997 384.323 291.072 383.918 291.072ZM388.795 291.072C388.342 291.072 387.955 290.965 387.635 290.752C387.315 290.533 387.072 290.219 386.907 289.808C386.742 289.397 386.659 288.901 386.659 288.32C386.659 287.669 386.752 287.12 386.939 286.672C387.126 286.219 387.392 285.875 387.739 285.64C388.086 285.405 388.504 285.288 388.995 285.288C389.288 285.288 389.584 285.349 389.883 285.472C390.182 285.589 390.427 285.755 390.619 285.968L390.379 286.48C390.176 286.272 389.955 286.12 389.715 286.024C389.475 285.923 389.232 285.872 388.987 285.872C388.443 285.872 388.024 286.067 387.731 286.456C387.443 286.84 387.299 287.419 387.299 288.192V288.936H387.227C387.264 288.632 387.355 288.371 387.499 288.152C387.648 287.928 387.843 287.757 388.083 287.64C388.323 287.523 388.59 287.464 388.883 287.464C389.224 287.464 389.526 287.539 389.787 287.688C390.048 287.837 390.254 288.048 390.403 288.32C390.552 288.587 390.627 288.893 390.627 289.24C390.627 289.592 390.55 289.907 390.395 290.184C390.24 290.461 390.024 290.68 389.747 290.84C389.47 290.995 389.152 291.072 388.795 291.072ZM388.747 290.512C388.992 290.512 389.208 290.461 389.395 290.36C389.587 290.253 389.734 290.107 389.835 289.92C389.942 289.728 389.995 289.509 389.995 289.264C389.995 289.019 389.942 288.803 389.835 288.616C389.734 288.429 389.587 288.283 389.395 288.176C389.208 288.069 388.992 288.016 388.747 288.016C388.502 288.016 388.286 288.069 388.099 288.176C387.912 288.283 387.766 288.429 387.659 288.616C387.558 288.803 387.507 289.019 387.507 289.264C387.507 289.509 387.558 289.728 387.659 289.92C387.766 290.107 387.912 290.253 388.099 290.36C388.286 290.461 388.502 290.512 388.747 290.512Z" fill="white"/>
<path d="M310.93 244.09C311.383 244.092 311.827 243.959 312.205 243.709C312.583 243.459 312.878 243.102 313.053 242.683C313.228 242.265 313.274 241.804 313.187 241.359C313.1 240.915 312.883 240.506 312.563 240.184C312.243 239.863 311.835 239.644 311.39 239.555C310.946 239.466 310.485 239.51 310.066 239.683C309.647 239.856 309.289 240.15 309.037 240.527C308.784 240.904 308.65 241.347 308.65 241.8C308.65 242.406 308.89 242.987 309.317 243.416C309.744 243.845 310.324 244.087 310.93 244.09Z" fill="white" stroke="black" stroke-width="0.5" stroke-linecap="round" stroke-linejoin="round"/>
<path d="M318.56 244.09C319.013 244.09 319.456 243.956 319.832 243.704C320.209 243.452 320.502 243.095 320.676 242.676C320.849 242.258 320.894 241.797 320.806 241.353C320.718 240.909 320.5 240.501 320.179 240.181C319.859 239.86 319.451 239.642 319.007 239.554C318.563 239.466 318.102 239.511 317.684 239.684C317.265 239.858 316.908 240.151 316.656 240.528C316.404 240.904 316.27 241.347 316.27 241.8C316.27 242.407 316.511 242.99 316.941 243.419C317.37 243.849 317.953 244.09 318.56 244.09Z" fill="#E5E5E5" stroke="black" stroke-width="0.5" stroke-linecap="round" stroke-linejoin="round"/>
<path d="M326.18 244.09C326.633 244.092 327.077 243.959 327.455 243.709C327.833 243.459 328.128 243.102 328.303 242.683C328.478 242.265 328.524 241.804 328.437 241.359C328.35 240.915 328.133 240.506 327.813 240.184C327.493 239.863 327.085 239.644 326.64 239.555C326.196 239.466 325.735 239.51 325.316 239.683C324.897 239.856 324.539 240.15 324.287 240.527C324.034 240.904 323.9 241.347 323.9 241.8C323.903 242.405 324.143 242.984 324.57 243.413C324.997 243.841 325.575 244.085 326.18 244.09Z" fill="#CCCCCC" stroke="black" stroke-width="0.5" stroke-linecap="round" stroke-linejoin="round"/>
<path d="M286.463 236H153.537C152.334 236 151.18 236.362 150.329 237.006C149.478 237.651 149 238.525 149 239.436V363.564C149 364.475 149.478 365.349 150.329 365.994C151.18 366.638 152.334 367 153.537 367H286.463C287.666 367 288.82 366.638 289.671 365.994C290.522 365.349 291 364.475 291 363.564V239.436C291 238.525 290.522 237.651 289.671 237.006C288.82 236.362 287.666 236 286.463 236Z" fill="white" stroke="black" stroke-width="0.5" stroke-linecap="round" stroke-linejoin="round"/>
<rect x="153" y="298" width="134" height="20" rx="4" fill="#808080"/>
<path d="M154.79 244.42C155.243 244.422 155.687 244.289 156.065 244.039C156.443 243.788 156.738 243.432 156.913 243.013C157.088 242.595 157.134 242.134 157.047 241.689C156.96 241.244 156.743 240.836 156.423 240.514C156.103 240.193 155.695 239.974 155.25 239.885C154.806 239.796 154.345 239.84 153.926 240.013C153.507 240.186 153.149 240.48 152.897 240.857C152.645 241.233 152.51 241.677 152.51 242.13C152.51 242.736 152.75 243.317 153.177 243.746C153.604 244.175 154.184 244.417 154.79 244.42Z" fill="white" stroke="black" stroke-width="0.5" stroke-linecap="round" stroke-linejoin="round"/>
<path d="M162.41 244.42C162.863 244.422 163.307 244.289 163.685 244.039C164.063 243.788 164.358 243.432 164.533 243.013C164.708 242.595 164.755 242.134 164.667 241.689C164.58 241.244 164.363 240.836 164.043 240.514C163.723 240.193 163.315 239.974 162.871 239.885C162.426 239.796 161.965 239.84 161.546 240.013C161.127 240.186 160.769 240.48 160.517 240.857C160.265 241.233 160.13 241.677 160.13 242.13C160.13 242.736 160.37 243.317 160.797 243.746C161.225 244.175 161.805 244.417 162.41 244.42Z" fill="#E5E5E5" stroke="black" stroke-width="0.5" stroke-linecap="round" stroke-linejoin="round"/>
<path d="M170.04 244.42C170.493 244.422 170.937 244.289 171.315 244.039C171.693 243.788 171.988 243.432 172.163 243.013C172.338 242.595 172.384 242.134 172.297 241.689C172.21 241.244 171.993 240.836 171.673 240.514C171.353 240.193 170.945 239.974 170.5 239.885C170.056 239.796 169.595 239.84 169.176 240.013C168.757 240.186 168.399 240.48 168.147 240.857C167.895 241.233 167.76 241.677 167.76 242.13C167.76 242.736 168 243.317 168.427 243.746C168.854 244.175 169.434 244.417 170.04 244.42Z" fill="#CCCCCC" stroke="black" stroke-width="0.5" stroke-linecap="round" stroke-linejoin="round"/>
<path d="M131 394H419V413C419 419.627 413.627 425 407 425H143C136.373 425 131 419.627 131 413V394Z" fill="#B3B3B3" stroke="black" stroke-width="0.5" stroke-linecap="round" stroke-linejoin="round"/>
<path fill-rule="evenodd" clip-rule="evenodd" d="M157.842 265.525C157.78 265.118 158.059 264.738 158.465 264.675C158.516 264.668 158.567 264.665 158.618 264.668L159.715 264.725C160.03 264.742 160.301 264.956 160.39 265.259L160.676 266.23C160.81 266.686 160.641 267.178 160.253 267.454L159.978 267.651C160.242 268.09 160.593 268.529 161.032 268.968L161.178 269.111C161.52 269.437 161.861 269.711 162.203 269.931L162.349 270.022L162.546 269.747C162.808 269.38 163.263 269.208 163.698 269.305L163.77 269.324L164.741 269.61C165.025 269.693 165.231 269.936 165.269 270.227L165.275 270.285L165.332 271.382C165.335 271.433 165.332 271.484 165.325 271.535C165.262 271.941 164.882 272.22 164.475 272.158C162.68 271.882 161.22 271.209 160.097 270.138L159.978 270.022C158.84 268.884 158.128 267.385 157.842 265.525Z" stroke="black" stroke-width="0.5" stroke-linejoin="round"/>
<path d="M163.667 263.833H166.167M166.167 263.833V266.333M166.167 263.833L162.833 267.167" stroke="black" stroke-width="0.5" stroke-linecap="round" stroke-linejoin="round"/>
<rect x="260.75" y="263.417" width="2.5" height="5.83333" rx="1.25" stroke="black" stroke-width="0.5"/>
<path d="M263.667 272.583H260.333" stroke="black" stroke-width="0.5" stroke-linecap="round" stroke-linejoin="round"/>
<path d="M264.917 267.167V268C264.917 269.611 263.611 270.917 262 270.917C260.389 270.917 259.083 269.611 259.083 268V267.167" stroke="black" stroke-width="0.5" stroke-linecap="round" stroke-linejoin="round"/>
<path d="M262 270.917V272.583" stroke="black" stroke-width="0.5" stroke-linecap="round" stroke-linejoin="round"/>
<path d="M272.25 269.788C271.731 269.201 271.417 268.429 271.417 267.583C271.417 265.742 272.909 264.25 274.75 264.25C276.326 264.25 277.646 265.343 277.994 266.812C278.155 266.772 278.325 266.75 278.5 266.75C279.651 266.75 280.583 267.683 280.583 268.833C280.583 269.515 280.256 270.119 279.751 270.5" stroke="black" stroke-width="0.5" stroke-linecap="round" stroke-linejoin="round"/>
<path d="M276 271.75V268" stroke="black" stroke-width="0.5" stroke-linecap="round" stroke-linejoin="round"/>
<path d="M277.667 269.667L276 268L274.333 269.667" stroke="black" stroke-width="0.5" stroke-linecap="round" stroke-linejoin="round"/>
<path d="M175.632 272.488C175.547 272.488 175.448 272.483 175.336 272.472C175.229 272.467 175.12 272.451 175.008 272.424V271.872C175.109 271.893 175.203 271.909 175.288 271.92C175.379 271.936 175.459 271.944 175.528 271.944C175.773 271.944 175.957 271.867 176.08 271.712C176.203 271.563 176.264 271.323 176.264 270.992V265.36H176.928V271C176.928 271.32 176.88 271.592 176.784 271.816C176.693 272.04 176.552 272.208 176.36 272.32C176.173 272.432 175.931 272.488 175.632 272.488ZM179.793 271.072C179.435 271.072 179.123 270.989 178.857 270.824C178.59 270.653 178.382 270.413 178.233 270.104C178.089 269.795 178.017 269.424 178.017 268.992C178.017 268.555 178.089 268.181 178.233 267.872C178.382 267.563 178.59 267.325 178.857 267.16C179.123 266.995 179.435 266.912 179.793 266.912C180.155 266.912 180.467 267.005 180.729 267.192C180.995 267.373 181.171 267.621 181.257 267.936H181.161L181.249 266.984H181.873C181.857 267.139 181.841 267.296 181.825 267.456C181.814 267.611 181.809 267.763 181.809 267.912V271H181.161V270.056H181.249C181.163 270.371 180.987 270.619 180.721 270.8C180.454 270.981 180.145 271.072 179.793 271.072ZM179.921 270.544C180.305 270.544 180.609 270.413 180.833 270.152C181.057 269.885 181.169 269.499 181.169 268.992C181.169 268.48 181.057 268.093 180.833 267.832C180.609 267.565 180.305 267.432 179.921 267.432C179.542 267.432 179.238 267.565 179.009 267.832C178.785 268.093 178.673 268.48 178.673 268.992C178.673 269.499 178.785 269.885 179.009 270.152C179.238 270.413 179.542 270.544 179.921 270.544ZM184.75 271.072C184.355 271.072 184.011 270.987 183.718 270.816C183.43 270.645 183.206 270.403 183.046 270.088C182.891 269.773 182.814 269.4 182.814 268.968C182.814 268.531 182.894 268.16 183.054 267.856C183.214 267.547 183.438 267.312 183.726 267.152C184.019 266.992 184.36 266.912 184.75 266.912C185.006 266.912 185.254 266.957 185.494 267.048C185.739 267.139 185.942 267.267 186.102 267.432L185.87 267.896C185.71 267.741 185.534 267.627 185.342 267.552C185.155 267.477 184.971 267.44 184.79 267.44C184.374 267.44 184.051 267.571 183.822 267.832C183.592 268.093 183.478 268.475 183.478 268.976C183.478 269.472 183.592 269.856 183.822 270.128C184.051 270.4 184.374 270.536 184.79 270.536C184.966 270.536 185.147 270.501 185.334 270.432C185.526 270.363 185.704 270.248 185.87 270.088L186.102 270.544C185.936 270.715 185.731 270.845 185.486 270.936C185.24 271.027 184.995 271.072 184.75 271.072ZM187.023 271V265.112H187.671V268.768H187.687L189.551 266.984H190.367L188.167 269.08L188.183 268.752L190.575 271H189.735L187.687 269.112H187.671V271H187.023Z" fill="black"/>
<path d="M215.4 271.072C214.76 271.072 214.269 270.824 213.928 270.328C213.587 269.832 213.416 269.115 213.416 268.176C213.416 267.232 213.587 266.515 213.928 266.024C214.269 265.533 214.76 265.288 215.4 265.288C216.045 265.288 216.536 265.533 216.872 266.024C217.213 266.515 217.384 267.229 217.384 268.168C217.384 269.112 217.213 269.832 216.872 270.328C216.531 270.824 216.04 271.072 215.4 271.072ZM215.4 270.496C215.848 270.496 216.181 270.307 216.4 269.928C216.619 269.549 216.728 268.963 216.728 268.168C216.728 267.635 216.68 267.2 216.584 266.864C216.488 266.523 216.341 266.269 216.144 266.104C215.947 265.939 215.699 265.856 215.4 265.856C214.957 265.856 214.624 266.043 214.4 266.416C214.181 266.789 214.072 267.373 214.072 268.168C214.072 268.696 214.12 269.133 214.216 269.48C214.317 269.821 214.464 270.077 214.656 270.248C214.853 270.413 215.101 270.496 215.4 270.496ZM220.197 271.072C219.557 271.072 219.066 270.824 218.725 270.328C218.384 269.832 218.213 269.115 218.213 268.176C218.213 267.232 218.384 266.515 218.725 266.024C219.066 265.533 219.557 265.288 220.197 265.288C220.842 265.288 221.333 265.533 221.669 266.024C222.01 266.515 222.181 267.229 222.181 268.168C222.181 269.112 222.01 269.832 221.669 270.328C221.328 270.824 220.837 271.072 220.197 271.072ZM220.197 270.496C220.645 270.496 220.978 270.307 221.197 269.928C221.416 269.549 221.525 268.963 221.525 268.168C221.525 267.635 221.477 267.2 221.381 266.864C221.285 266.523 221.138 266.269 220.941 266.104C220.744 265.939 220.496 265.856 220.197 265.856C219.754 265.856 219.421 266.043 219.197 266.416C218.978 266.789 218.869 267.373 218.869 268.168C218.869 268.696 218.917 269.133 219.013 269.48C219.114 269.821 219.261 270.077 219.453 270.248C219.65 270.413 219.898 270.496 220.197 270.496ZM223.098 267.8V266.984H223.914V267.8H223.098ZM223.098 271V270.184H223.914V271H223.098ZM226.814 271.072C226.174 271.072 225.683 270.824 225.342 270.328C225.001 269.832 224.83 269.115 224.83 268.176C224.83 267.232 225.001 266.515 225.342 266.024C225.683 265.533 226.174 265.288 226.814 265.288C227.459 265.288 227.95 265.533 228.286 266.024C228.627 266.515 228.798 267.229 228.798 268.168C228.798 269.112 228.627 269.832 228.286 270.328C227.945 270.824 227.454 271.072 226.814 271.072ZM226.814 270.496C227.262 270.496 227.595 270.307 227.814 269.928C228.033 269.549 228.142 268.963 228.142 268.168C228.142 267.635 228.094 267.2 227.998 266.864C227.902 266.523 227.755 266.269 227.558 266.104C227.361 265.939 227.113 265.856 226.814 265.856C226.371 265.856 226.038 266.043 225.814 266.416C225.595 266.789 225.486 267.373 225.486 268.168C225.486 268.696 225.534 269.133 225.63 269.48C225.731 269.821 225.878 270.077 226.07 270.248C226.267 270.413 226.515 270.496 226.814 270.496ZM231.611 271.072C230.971 271.072 230.48 270.824 230.139 270.328C229.798 269.832 229.627 269.115 229.627 268.176C229.627 267.232 229.798 266.515 230.139 266.024C230.48 265.533 230.971 265.288 231.611 265.288C232.256 265.288 232.747 265.533 233.083 266.024C233.424 266.515 233.595 267.229 233.595 268.168C233.595 269.112 233.424 269.832 233.083 270.328C232.742 270.824 232.251 271.072 231.611 271.072ZM231.611 270.496C232.059 270.496 232.392 270.307 232.611 269.928C232.83 269.549 232.939 268.963 232.939 268.168C232.939 267.635 232.891 267.2 232.795 266.864C232.699 266.523 232.552 266.269 232.355 266.104C232.158 265.939 231.91 265.856 231.611 265.856C231.168 265.856 230.835 266.043 230.611 266.416C230.392 266.789 230.283 267.373 230.283 268.168C230.283 268.696 230.331 269.133 230.427 269.48C230.528 269.821 230.675 270.077 230.867 270.248C231.064 270.413 231.312 270.496 231.611 270.496ZM234.512 267.8V266.984H235.328V267.8H234.512ZM234.512 271V270.184H235.328V271H234.512ZM236.516 271V270.504L238.516 268.416C238.777 268.144 238.972 267.885 239.1 267.64C239.233 267.389 239.3 267.131 239.3 266.864C239.3 266.539 239.199 266.293 238.996 266.128C238.793 265.957 238.5 265.872 238.116 265.872C237.817 265.872 237.54 265.925 237.284 266.032C237.033 266.133 236.791 266.296 236.556 266.52L236.316 266C236.529 265.787 236.801 265.616 237.132 265.488C237.463 265.355 237.812 265.288 238.18 265.288C238.564 265.288 238.887 265.347 239.148 265.464C239.415 265.581 239.617 265.755 239.756 265.984C239.895 266.208 239.964 266.483 239.964 266.808C239.964 267.165 239.876 267.507 239.7 267.832C239.529 268.152 239.279 268.483 238.948 268.824L237.18 270.616V270.432H240.204V271H236.516ZM241.529 271L244.305 265.64V265.928H241.153V265.36H244.905V265.856L242.257 271H241.529Z" fill="black"/>
<path fill-rule="evenodd" clip-rule="evenodd" d="M158.259 285.108C158.196 284.702 158.475 284.321 158.882 284.259C158.932 284.251 158.983 284.248 159.034 284.251L160.131 284.309C160.447 284.325 160.718 284.539 160.807 284.843L161.092 285.813C161.227 286.27 161.057 286.761 160.67 287.038L160.395 287.234C160.658 287.673 161.009 288.112 161.449 288.551L161.595 288.695C161.936 289.021 162.278 289.294 162.619 289.514L162.766 289.605L162.962 289.33C163.224 288.963 163.679 288.792 164.115 288.889L164.187 288.908L165.157 289.193C165.442 289.277 165.648 289.52 165.686 289.81L165.691 289.869L165.749 290.966C165.752 291.017 165.749 291.068 165.741 291.118C165.679 291.525 165.298 291.804 164.892 291.741C163.096 291.465 161.637 290.792 160.514 289.721L160.395 289.605C159.257 288.467 158.545 286.968 158.259 285.108Z" stroke="black" stroke-width="0.5" stroke-linejoin="round"/>
<rect x="260.75" y="283.417" width="2.5" height="5.83333" rx="1.25" stroke="black" stroke-width="0.5"/>
<path d="M263.667 292.583H260.333" stroke="black" stroke-width="0.5" stroke-linecap="round" stroke-linejoin="round"/>
<path d="M264.917 287.167V288C264.917 289.611 263.611 290.917 262 290.917C260.389 290.917 259.083 289.611 259.083 288V287.167" stroke="black" stroke-width="0.5" stroke-linecap="round" stroke-linejoin="round"/>
<path d="M262 290.917V292.583" stroke="black" stroke-width="0.5" stroke-linecap="round" stroke-linejoin="round"/>
<path d="M272.25 289.788C271.731 289.201 271.417 288.429 271.417 287.583C271.417 285.742 272.909 284.25 274.75 284.25C276.326 284.25 277.646 285.343 277.994 286.812C278.155 286.772 278.325 286.75 278.5 286.75C279.651 286.75 280.583 287.683 280.583 288.833C280.583 289.515 280.256 290.119 279.751 290.5" stroke="black" stroke-width="0.5" stroke-linecap="round" stroke-linejoin="round"/>
<path d="M276 291.75V288" stroke="black" stroke-width="0.5" stroke-linecap="round" stroke-linejoin="round"/>
<path d="M277.667 289.667L276 288L274.333 289.667" stroke="black" stroke-width="0.5" stroke-linecap="round" stroke-linejoin="round"/>
<path d="M175.632 292.488C175.547 292.488 175.448 292.483 175.336 292.472C175.229 292.467 175.12 292.451 175.008 292.424V291.872C175.109 291.893 175.203 291.909 175.288 291.92C175.379 291.936 175.459 291.944 175.528 291.944C175.773 291.944 175.957 291.867 176.08 291.712C176.203 291.563 176.264 291.323 176.264 290.992V285.36H176.928V291C176.928 291.32 176.88 291.592 176.784 291.816C176.693 292.04 176.552 292.208 176.36 292.32C176.173 292.432 175.931 292.488 175.632 292.488ZM179.913 291.072C179.529 291.072 179.193 290.989 178.905 290.824C178.622 290.653 178.403 290.413 178.249 290.104C178.094 289.789 178.017 289.419 178.017 288.992C178.017 288.56 178.094 288.189 178.249 287.88C178.403 287.571 178.622 287.333 178.905 287.168C179.193 286.997 179.529 286.912 179.913 286.912C180.302 286.912 180.638 286.997 180.921 287.168C181.209 287.333 181.43 287.571 181.585 287.88C181.745 288.189 181.825 288.56 181.825 288.992C181.825 289.419 181.745 289.789 181.585 290.104C181.43 290.413 181.209 290.653 180.921 290.824C180.638 290.989 180.302 291.072 179.913 291.072ZM179.913 290.544C180.297 290.544 180.601 290.413 180.825 290.152C181.049 289.885 181.161 289.499 181.161 288.992C181.161 288.48 181.049 288.093 180.825 287.832C180.601 287.565 180.297 287.432 179.913 287.432C179.534 287.432 179.233 287.565 179.009 287.832C178.785 288.093 178.673 288.48 178.673 288.992C178.673 289.499 178.785 289.885 179.009 290.152C179.233 290.413 179.534 290.544 179.913 290.544ZM182.835 291V285.112H183.483V287.872H183.379C183.491 287.557 183.678 287.32 183.939 287.16C184.206 286.995 184.512 286.912 184.859 286.912C185.339 286.912 185.696 287.043 185.931 287.304C186.166 287.56 186.283 287.949 186.283 288.472V291H185.635V288.512C185.635 288.139 185.56 287.867 185.411 287.696C185.267 287.525 185.032 287.44 184.707 287.44C184.334 287.44 184.035 287.555 183.811 287.784C183.592 288.013 183.483 288.315 183.483 288.688V291H182.835ZM187.523 291V287.912C187.523 287.763 187.515 287.611 187.499 287.456C187.488 287.296 187.475 287.139 187.459 286.984H188.083L188.163 287.864H188.067C188.184 287.555 188.371 287.32 188.627 287.16C188.888 286.995 189.189 286.912 189.531 286.912C190.005 286.912 190.363 287.04 190.603 287.296C190.848 287.547 190.971 287.944 190.971 288.488V291H190.323V288.528C190.323 288.149 190.245 287.875 190.091 287.704C189.941 287.528 189.707 287.44 189.387 287.44C189.013 287.44 188.717 287.555 188.499 287.784C188.28 288.013 188.171 288.32 188.171 288.704V291H187.523Z" fill="black"/>
<path d="M215.4 291.072C214.76 291.072 214.269 290.824 213.928 290.328C213.587 289.832 213.416 289.115 213.416 288.176C213.416 287.232 213.587 286.515 213.928 286.024C214.269 285.533 214.76 285.288 215.4 285.288C216.045 285.288 216.536 285.533 216.872 286.024C217.213 286.515 217.384 287.229 217.384 288.168C217.384 289.112 217.213 289.832 216.872 290.328C216.531 290.824 216.04 291.072 215.4 291.072ZM215.4 290.496C215.848 290.496 216.181 290.307 216.4 289.928C216.619 289.549 216.728 288.963 216.728 288.168C216.728 287.635 216.68 287.2 216.584 286.864C216.488 286.523 216.341 286.269 216.144 286.104C215.947 285.939 215.699 285.856 215.4 285.856C214.957 285.856 214.624 286.043 214.4 286.416C214.181 286.789 214.072 287.373 214.072 288.168C214.072 288.696 214.12 289.133 214.216 289.48C214.317 289.821 214.464 290.077 214.656 290.248C214.853 290.413 215.101 290.496 215.4 290.496ZM218.813 291V290.432H220.141V285.928H220.493L218.941 286.896V286.232L220.325 285.36H220.805V290.432H222.053V291H218.813ZM223.098 287.8V286.984H223.914V287.8H223.098ZM223.098 291V290.184H223.914V291H223.098ZM225.102 291V290.504L227.102 288.416C227.363 288.144 227.558 287.885 227.686 287.64C227.819 287.389 227.886 287.131 227.886 286.864C227.886 286.539 227.785 286.293 227.582 286.128C227.379 285.957 227.086 285.872 226.702 285.872C226.403 285.872 226.126 285.925 225.87 286.032C225.619 286.133 225.377 286.296 225.142 286.52L224.902 286C225.115 285.787 225.387 285.616 225.718 285.488C226.049 285.355 226.398 285.288 226.766 285.288C227.15 285.288 227.473 285.347 227.734 285.464C228.001 285.581 228.203 285.755 228.342 285.984C228.481 286.208 228.55 286.483 228.55 286.808C228.55 287.165 228.462 287.507 228.286 287.832C228.115 288.152 227.865 288.483 227.534 288.824L225.766 290.616V290.432H228.79V291H225.102ZM231.715 291.072C231.47 291.072 231.23 291.045 230.995 290.992C230.76 290.939 230.539 290.861 230.331 290.76C230.128 290.659 229.95 290.536 229.795 290.392L230.043 289.88C230.304 290.088 230.571 290.243 230.843 290.344C231.115 290.44 231.406 290.488 231.715 290.488C232.12 290.488 232.438 290.379 232.667 290.16C232.896 289.941 233.011 289.653 233.011 289.296C233.011 288.928 232.902 288.627 232.683 288.392C232.464 288.157 232.16 288.04 231.771 288.04C231.494 288.04 231.246 288.096 231.027 288.208C230.808 288.315 230.619 288.483 230.459 288.712H229.979V285.36H233.323V285.92H230.619V288.168H230.443C230.587 287.944 230.784 287.773 231.035 287.656C231.291 287.533 231.579 287.472 231.899 287.472C232.262 287.472 232.574 287.547 232.835 287.696C233.102 287.845 233.307 288.053 233.451 288.32C233.595 288.587 233.667 288.899 233.667 289.256C233.667 289.613 233.587 289.931 233.427 290.208C233.272 290.48 233.048 290.693 232.755 290.848C232.467 290.997 232.12 291.072 231.715 291.072ZM234.512 287.8V286.984H235.328V287.8H234.512ZM234.512 291V290.184H235.328V291H234.512ZM238.228 291.072C237.588 291.072 237.097 290.824 236.756 290.328C236.415 289.832 236.244 289.115 236.244 288.176C236.244 287.232 236.415 286.515 236.756 286.024C237.097 285.533 237.588 285.288 238.228 285.288C238.873 285.288 239.364 285.533 239.7 286.024C240.041 286.515 240.212 287.229 240.212 288.168C240.212 289.112 240.041 289.832 239.7 290.328C239.359 290.824 238.868 291.072 238.228 291.072ZM238.228 290.496C238.676 290.496 239.009 290.307 239.228 289.928C239.447 289.549 239.556 288.963 239.556 288.168C239.556 287.635 239.508 287.2 239.412 286.864C239.316 286.523 239.169 286.269 238.972 286.104C238.775 285.939 238.527 285.856 238.228 285.856C237.785 285.856 237.452 286.043 237.228 286.416C237.009 286.789 236.9 287.373 236.9 288.168C236.9 288.696 236.948 289.133 237.044 289.48C237.145 289.821 237.292 290.077 237.484 290.248C237.681 290.413 237.929 290.496 238.228 290.496ZM241.313 291V290.504L243.313 288.416C243.574 288.144 243.769 287.885 243.897 287.64C244.03 287.389 244.097 287.131 244.097 286.864C244.097 286.539 243.996 286.293 243.793 286.128C243.59 285.957 243.297 285.872 242.913 285.872C242.614 285.872 242.337 285.925 242.081 286.032C241.83 286.133 241.588 286.296 241.353 286.52L241.113 286C241.326 285.787 241.598 285.616 241.929 285.488C242.26 285.355 242.609 285.288 242.977 285.288C243.361 285.288 243.684 285.347 243.945 285.464C244.212 285.581 244.414 285.755 244.553 285.984C244.692 286.208 244.761 286.483 244.761 286.808C244.761 287.165 244.673 287.507 244.497 287.832C244.326 288.152 244.076 288.483 243.745 288.824L241.977 290.616V290.432H245.001V291H241.313Z" fill="black"/>
<path fill-rule="evenodd" clip-rule="evenodd" d="M158.259 305.108C158.196 304.702 158.475 304.321 158.882 304.259C158.932 304.251 158.983 304.248 159.034 304.251L160.131 304.309C160.447 304.325 160.718 304.539 160.807 304.843L161.092 305.813C161.227 306.27 161.057 306.761 160.67 307.038L160.395 307.234C160.658 307.673 161.009 308.112 161.449 308.551L161.595 308.695C161.936 309.021 162.278 309.294 162.619 309.514L162.766 309.605L162.962 309.33C163.224 308.963 163.679 308.792 164.115 308.889L164.187 308.908L165.157 309.193C165.442 309.277 165.648 309.52 165.686 309.81L165.691 309.869L165.749 310.966C165.752 311.017 165.749 311.068 165.741 311.118C165.679 311.525 165.298 311.804 164.892 311.741C163.096 311.465 161.637 310.792 160.514 309.721L160.395 309.605C159.257 308.467 158.545 306.968 158.259 305.108Z" stroke="white" stroke-width="0.5" stroke-linejoin="round"/>
<rect x="260.75" y="303.417" width="2.5" height="5.83333" rx="1.25" stroke="white" stroke-width="0.5"/>
<path d="M263.667 312.583H260.333" stroke="white" stroke-width="0.5" stroke-linecap="round" stroke-linejoin="round"/>
<path d="M264.917 307.167V308C264.917 309.611 263.611 310.917 262 310.917C260.389 310.917 259.083 309.611 259.083 308V307.167" stroke="white" stroke-width="0.5" stroke-linecap="round" stroke-linejoin="round"/>
<path d="M262 310.917V312.583" stroke="white" stroke-width="0.5" stroke-linecap="round" stroke-linejoin="round"/>
<path d="M272.25 309.788C271.731 309.201 271.417 308.429 271.417 307.583C271.417 305.742 272.909 304.25 274.75 304.25C276.326 304.25 277.646 305.343 277.994 306.812C278.155 306.772 278.325 306.75 278.5 306.75C279.651 306.75 280.583 307.683 280.583 308.833C280.583 309.515 280.256 310.119 279.751 310.5" stroke="white" stroke-width="0.5" stroke-linecap="round" stroke-linejoin="round"/>
<path d="M276 311.75V308" stroke="white" stroke-width="0.5" stroke-linecap="round" stroke-linejoin="round"/>
<path d="M277.667 309.667L276 308L274.333 309.667" stroke="white" stroke-width="0.5" stroke-linecap="round" stroke-linejoin="round"/>
<path d="M175.632 312.488C175.547 312.488 175.448 312.483 175.336 312.472C175.229 312.467 175.12 312.451 175.008 312.424V311.872C175.109 311.893 175.203 311.909 175.288 311.92C175.379 311.936 175.459 311.944 175.528 311.944C175.773 311.944 175.957 311.867 176.08 311.712C176.203 311.563 176.264 311.323 176.264 310.992V305.36H176.928V311C176.928 311.32 176.88 311.592 176.784 311.816C176.693 312.04 176.552 312.208 176.36 312.32C176.173 312.432 175.931 312.488 175.632 312.488ZM180.049 311.072C179.633 311.072 179.273 310.992 178.969 310.832C178.665 310.667 178.43 310.429 178.265 310.12C178.099 309.805 178.017 309.432 178.017 309C178.017 308.579 178.097 308.213 178.257 307.904C178.417 307.589 178.641 307.347 178.929 307.176C179.217 307 179.547 306.912 179.921 306.912C180.289 306.912 180.598 306.989 180.849 307.144C181.099 307.299 181.291 307.52 181.425 307.808C181.558 308.091 181.625 308.427 181.625 308.816V309.056H178.513V308.648H181.201L181.065 308.752C181.065 308.325 180.969 307.992 180.777 307.752C180.585 307.512 180.299 307.392 179.921 307.392C179.649 307.392 179.417 307.456 179.225 307.584C179.038 307.712 178.894 307.891 178.793 308.12C178.697 308.349 178.649 308.624 178.649 308.944V309.016C178.649 309.517 178.771 309.899 179.017 310.16C179.267 310.416 179.617 310.544 180.065 310.544C180.305 310.544 180.529 310.509 180.737 310.44C180.95 310.365 181.153 310.245 181.345 310.08L181.569 310.536C181.393 310.707 181.169 310.84 180.897 310.936C180.63 311.027 180.347 311.072 180.049 311.072ZM182.6 311V307.952C182.6 307.792 182.595 307.629 182.584 307.464C182.579 307.299 182.568 307.139 182.552 306.984H183.176L183.256 307.96L183.144 307.968C183.198 307.728 183.291 307.531 183.424 307.376C183.558 307.221 183.715 307.107 183.896 307.032C184.078 306.952 184.267 306.912 184.464 306.912C184.544 306.912 184.614 306.915 184.672 306.92C184.736 306.925 184.795 306.939 184.848 306.96L184.84 307.536C184.76 307.509 184.686 307.493 184.616 307.488C184.552 307.477 184.478 307.472 184.392 307.472C184.158 307.472 183.952 307.528 183.776 307.64C183.606 307.752 183.475 307.896 183.384 308.072C183.299 308.248 183.256 308.435 183.256 308.632V311H182.6ZM187.26 311.072C186.844 311.072 186.484 310.992 186.18 310.832C185.876 310.667 185.641 310.429 185.476 310.12C185.31 309.805 185.228 309.432 185.228 309C185.228 308.579 185.308 308.213 185.468 307.904C185.628 307.589 185.852 307.347 186.14 307.176C186.428 307 186.758 306.912 187.132 306.912C187.5 306.912 187.809 306.989 188.06 307.144C188.31 307.299 188.502 307.52 188.636 307.808C188.769 308.091 188.836 308.427 188.836 308.816V309.056H185.724V308.648H188.412L188.276 308.752C188.276 308.325 188.18 307.992 187.988 307.752C187.796 307.512 187.51 307.392 187.132 307.392C186.86 307.392 186.628 307.456 186.436 307.584C186.249 307.712 186.105 307.891 186.004 308.12C185.908 308.349 185.86 308.624 185.86 308.944V309.016C185.86 309.517 185.982 309.899 186.228 310.16C186.478 310.416 186.828 310.544 187.276 310.544C187.516 310.544 187.74 310.509 187.948 310.44C188.161 310.365 188.364 310.245 188.556 310.08L188.78 310.536C188.604 310.707 188.38 310.84 188.108 310.936C187.841 311.027 187.558 311.072 187.26 311.072ZM189.827 311V307.912C189.827 307.763 189.819 307.611 189.803 307.456C189.793 307.296 189.779 307.139 189.763 306.984H190.387L190.467 307.864H190.371C190.478 307.56 190.646 307.325 190.875 307.16C191.11 306.995 191.393 306.912 191.723 306.912C192.059 306.912 192.331 306.992 192.539 307.152C192.753 307.312 192.897 307.56 192.971 307.896H192.851C192.953 307.592 193.131 307.352 193.387 307.176C193.643 307 193.942 306.912 194.283 306.912C194.726 306.912 195.059 307.04 195.283 307.296C195.507 307.547 195.619 307.944 195.619 308.488V311H194.971V308.528C194.971 308.149 194.905 307.875 194.771 307.704C194.638 307.528 194.425 307.44 194.131 307.44C193.795 307.44 193.529 307.557 193.331 307.792C193.139 308.021 193.043 308.331 193.043 308.72V311H192.395V308.528C192.395 308.149 192.329 307.875 192.195 307.704C192.062 307.528 191.849 307.44 191.555 307.44C191.219 307.44 190.955 307.557 190.763 307.792C190.571 308.021 190.475 308.331 190.475 308.72V311H189.827ZM196.652 312.816L196.5 312.28C196.75 312.221 196.958 312.152 197.124 312.072C197.294 311.997 197.436 311.896 197.548 311.768C197.66 311.64 197.756 311.48 197.836 311.288L198.044 310.816L198.028 311.088L196.276 306.984H196.98L198.428 310.512H198.22L199.652 306.984H200.332L198.476 311.336C198.369 311.592 198.252 311.805 198.124 311.976C197.996 312.152 197.857 312.293 197.708 312.4C197.564 312.512 197.404 312.6 197.228 312.664C197.052 312.728 196.86 312.779 196.652 312.816Z" fill="white"/>
<path d="M215.4 311.072C214.76 311.072 214.269 310.824 213.928 310.328C213.587 309.832 213.416 309.115 213.416 308.176C213.416 307.232 213.587 306.515 213.928 306.024C214.269 305.533 214.76 305.288 215.4 305.288C216.045 305.288 216.536 305.533 216.872 306.024C217.213 306.515 217.384 307.229 217.384 308.168C217.384 309.112 217.213 309.832 216.872 310.328C216.531 310.824 216.04 311.072 215.4 311.072ZM215.4 310.496C215.848 310.496 216.181 310.307 216.4 309.928C216.619 309.549 216.728 308.963 216.728 308.168C216.728 307.635 216.68 307.2 216.584 306.864C216.488 306.523 216.341 306.269 216.144 306.104C215.947 305.939 215.699 305.856 215.4 305.856C214.957 305.856 214.624 306.043 214.4 306.416C214.181 306.789 214.072 307.373 214.072 308.168C214.072 308.696 214.12 309.133 214.216 309.48C214.317 309.821 214.464 310.077 214.656 310.248C214.853 310.413 215.101 310.496 215.4 310.496ZM220.197 311.072C219.557 311.072 219.066 310.824 218.725 310.328C218.384 309.832 218.213 309.115 218.213 308.176C218.213 307.232 218.384 306.515 218.725 306.024C219.066 305.533 219.557 305.288 220.197 305.288C220.842 305.288 221.333 305.533 221.669 306.024C222.01 306.515 222.181 307.229 222.181 308.168C222.181 309.112 222.01 309.832 221.669 310.328C221.328 310.824 220.837 311.072 220.197 311.072ZM220.197 310.496C220.645 310.496 220.978 310.307 221.197 309.928C221.416 309.549 221.525 308.963 221.525 308.168C221.525 307.635 221.477 307.2 221.381 306.864C221.285 306.523 221.138 306.269 220.941 306.104C220.744 305.939 220.496 305.856 220.197 305.856C219.754 305.856 219.421 306.043 219.197 306.416C218.978 306.789 218.869 307.373 218.869 308.168C218.869 308.696 218.917 309.133 219.013 309.48C219.114 309.821 219.261 310.077 219.453 310.248C219.65 310.413 219.898 310.496 220.197 310.496ZM223.098 307.8V306.984H223.914V307.8H223.098ZM223.098 311V310.184H223.914V311H223.098ZM226.814 311.072C226.174 311.072 225.683 310.824 225.342 310.328C225.001 309.832 224.83 309.115 224.83 308.176C224.83 307.232 225.001 306.515 225.342 306.024C225.683 305.533 226.174 305.288 226.814 305.288C227.459 305.288 227.95 305.533 228.286 306.024C228.627 306.515 228.798 307.229 228.798 308.168C228.798 309.112 228.627 309.832 228.286 310.328C227.945 310.824 227.454 311.072 226.814 311.072ZM226.814 310.496C227.262 310.496 227.595 310.307 227.814 309.928C228.033 309.549 228.142 308.963 228.142 308.168C228.142 307.635 228.094 307.2 227.998 306.864C227.902 306.523 227.755 306.269 227.558 306.104C227.361 305.939 227.113 305.856 226.814 305.856C226.371 305.856 226.038 306.043 225.814 306.416C225.595 306.789 225.486 307.373 225.486 308.168C225.486 308.696 225.534 309.133 225.63 309.48C225.731 309.821 225.878 310.077 226.07 310.248C226.267 310.413 226.515 310.496 226.814 310.496ZM232.299 311V309.776H229.611V309.296L232.403 305.36H232.947V309.24H233.811V309.776H232.947V311H232.299ZM232.299 309.24V306.144H232.475L230.155 309.408V309.24H232.299ZM234.512 307.8V306.984H235.328V307.8H234.512ZM234.512 311V310.184H235.328V311H234.512ZM238.332 311.072C238.087 311.072 237.847 311.045 237.612 310.992C237.377 310.939 237.156 310.861 236.948 310.76C236.745 310.659 236.567 310.536 236.412 310.392L236.66 309.88C236.921 310.088 237.188 310.243 237.46 310.344C237.732 310.44 238.023 310.488 238.332 310.488C238.737 310.488 239.055 310.379 239.284 310.16C239.513 309.941 239.628 309.653 239.628 309.296C239.628 308.928 239.519 308.627 239.3 308.392C239.081 308.157 238.777 308.04 238.388 308.04C238.111 308.04 237.863 308.096 237.644 308.208C237.425 308.315 237.236 308.483 237.076 308.712H236.596V305.36H239.94V305.92H237.236V308.168H237.06C237.204 307.944 237.401 307.773 237.652 307.656C237.908 307.533 238.196 307.472 238.516 307.472C238.879 307.472 239.191 307.547 239.452 307.696C239.719 307.845 239.924 308.053 240.068 308.32C240.212 308.587 240.284 308.899 240.284 309.256C240.284 309.613 240.204 309.931 240.044 310.208C239.889 310.48 239.665 310.693 239.372 310.848C239.084 310.997 238.737 311.072 238.332 311.072ZM243.209 311.072C242.756 311.072 242.369 310.965 242.049 310.752C241.729 310.533 241.486 310.219 241.321 309.808C241.156 309.397 241.073 308.901 241.073 308.32C241.073 307.669 241.166 307.12 241.353 306.672C241.54 306.219 241.806 305.875 242.153 305.64C242.5 305.405 242.918 305.288 243.409 305.288C243.702 305.288 243.998 305.349 244.297 305.472C244.596 305.589 244.841 305.755 245.033 305.968L244.793 306.48C244.59 306.272 244.369 306.12 244.129 306.024C243.889 305.923 243.646 305.872 243.401 305.872C242.857 305.872 242.438 306.067 242.145 306.456C241.857 306.84 241.713 307.419 241.713 308.192V308.936H241.641C241.678 308.632 241.769 308.371 241.913 308.152C242.062 307.928 242.257 307.757 242.497 307.64C242.737 307.523 243.004 307.464 243.297 307.464C243.638 307.464 243.94 307.539 244.201 307.688C244.462 307.837 244.668 308.048 244.817 308.32C244.966 308.587 245.041 308.893 245.041 309.24C245.041 309.592 244.964 309.907 244.809 310.184C244.654 310.461 244.438 310.68 244.161 310.84C243.884 310.995 243.566 311.072 243.209 311.072ZM243.161 310.512C243.406 310.512 243.622 310.461 243.809 310.36C244.001 310.253 244.148 310.107 244.249 309.92C244.356 309.728 244.409 309.509 244.409 309.264C244.409 309.019 244.356 308.803 244.249 308.616C244.148 308.429 244.001 308.283 243.809 308.176C243.622 308.069 243.406 308.016 243.161 308.016C242.916 308.016 242.7 308.069 242.513 308.176C242.326 308.283 242.18 308.429 242.073 308.616C241.972 308.803 241.921 309.019 241.921 309.264C241.921 309.509 241.972 309.728 242.073 309.92C242.18 310.107 242.326 310.253 242.513 310.36C242.7 310.461 242.916 310.512 243.161 310.512Z" fill="white"/>
<path fill-rule="evenodd" clip-rule="evenodd" d="M157.842 325.525C157.78 325.118 158.059 324.738 158.465 324.675C158.516 324.668 158.567 324.665 158.618 324.668L159.715 324.725C160.03 324.742 160.301 324.956 160.39 325.259L160.676 326.23C160.81 326.686 160.641 327.178 160.253 327.454L159.978 327.651C160.242 328.09 160.593 328.529 161.032 328.968L161.178 329.111C161.52 329.437 161.861 329.711 162.203 329.931L162.349 330.022L162.546 329.747C162.808 329.38 163.263 329.208 163.698 329.305L163.77 329.324L164.741 329.61C165.025 329.693 165.231 329.936 165.269 330.227L165.275 330.285L165.332 331.382C165.335 331.433 165.332 331.484 165.325 331.535C165.262 331.941 164.882 332.22 164.475 332.158C162.68 331.882 161.22 331.209 160.097 330.138L159.978 330.022C158.84 328.884 158.128 327.385 157.842 325.525Z" stroke="black" stroke-width="0.5" stroke-linejoin="round"/>
<path d="M163.667 323.833H166.167M166.167 323.833V326.333M166.167 323.833L162.833 327.167" stroke="black" stroke-width="0.5" stroke-linecap="round" stroke-linejoin="round"/>
<rect x="260.75" y="323.417" width="2.5" height="5.83333" rx="1.25" stroke="black" stroke-width="0.5"/>
<path d="M263.667 332.583H260.333" stroke="black" stroke-width="0.5" stroke-linecap="round" stroke-linejoin="round"/>
<path d="M264.917 327.167V328C264.917 329.611 263.611 330.917 262 330.917C260.389 330.917 259.083 329.611 259.083 328V327.167" stroke="black" stroke-width="0.5" stroke-linecap="round" stroke-linejoin="round"/>
<path d="M262 330.917V332.583" stroke="black" stroke-width="0.5" stroke-linecap="round" stroke-linejoin="round"/>
<path d="M272.25 329.788C271.731 329.201 271.417 328.429 271.417 327.583C271.417 325.742 272.909 324.25 274.75 324.25C276.326 324.25 277.646 325.343 277.994 326.812C278.155 326.772 278.325 326.75 278.5 326.75C279.651 326.75 280.583 327.683 280.583 328.833C280.583 329.515 280.256 330.119 279.751 330.5" stroke="black" stroke-width="0.5" stroke-linecap="round" stroke-linejoin="round"/>
<path d="M276 331.75V328" stroke="black" stroke-width="0.5" stroke-linecap="round" stroke-linejoin="round"/>
<path d="M277.667 329.667L276 328L274.333 329.667" stroke="black" stroke-width="0.5" stroke-linecap="round" stroke-linejoin="round"/>
<path d="M175.632 332.488C175.547 332.488 175.448 332.483 175.336 332.472C175.229 332.467 175.12 332.451 175.008 332.424V331.872C175.109 331.893 175.203 331.909 175.288 331.92C175.379 331.936 175.459 331.944 175.528 331.944C175.773 331.944 175.957 331.867 176.08 331.712C176.203 331.563 176.264 331.323 176.264 330.992V325.36H176.928V331C176.928 331.32 176.88 331.592 176.784 331.816C176.693 332.04 176.552 332.208 176.36 332.32C176.173 332.432 175.931 332.488 175.632 332.488ZM180.049 331.072C179.633 331.072 179.273 330.992 178.969 330.832C178.665 330.667 178.43 330.429 178.265 330.12C178.099 329.805 178.017 329.432 178.017 329C178.017 328.579 178.097 328.213 178.257 327.904C178.417 327.589 178.641 327.347 178.929 327.176C179.217 327 179.547 326.912 179.921 326.912C180.289 326.912 180.598 326.989 180.849 327.144C181.099 327.299 181.291 327.52 181.425 327.808C181.558 328.091 181.625 328.427 181.625 328.816V329.056H178.513V328.648H181.201L181.065 328.752C181.065 328.325 180.969 327.992 180.777 327.752C180.585 327.512 180.299 327.392 179.921 327.392C179.649 327.392 179.417 327.456 179.225 327.584C179.038 327.712 178.894 327.891 178.793 328.12C178.697 328.349 178.649 328.624 178.649 328.944V329.016C178.649 329.517 178.771 329.899 179.017 330.16C179.267 330.416 179.617 330.544 180.065 330.544C180.305 330.544 180.529 330.509 180.737 330.44C180.95 330.365 181.153 330.245 181.345 330.08L181.569 330.536C181.393 330.707 181.169 330.84 180.897 330.936C180.63 331.027 180.347 331.072 180.049 331.072ZM182.6 331V327.952C182.6 327.792 182.595 327.629 182.584 327.464C182.579 327.299 182.568 327.139 182.552 326.984H183.176L183.256 327.96L183.144 327.968C183.198 327.728 183.291 327.531 183.424 327.376C183.558 327.221 183.715 327.107 183.896 327.032C184.078 326.952 184.267 326.912 184.464 326.912C184.544 326.912 184.614 326.915 184.672 326.92C184.736 326.925 184.795 326.939 184.848 326.96L184.84 327.536C184.76 327.509 184.686 327.493 184.616 327.488C184.552 327.477 184.478 327.472 184.392 327.472C184.158 327.472 183.952 327.528 183.776 327.64C183.606 327.752 183.475 327.896 183.384 328.072C183.299 328.248 183.256 328.435 183.256 328.632V331H182.6ZM185.507 331V327.952C185.507 327.792 185.501 327.629 185.491 327.464C185.485 327.299 185.475 327.139 185.459 326.984H186.083L186.163 327.96L186.051 327.968C186.104 327.728 186.197 327.531 186.331 327.376C186.464 327.221 186.621 327.107 186.803 327.032C186.984 326.952 187.173 326.912 187.371 326.912C187.451 326.912 187.52 326.915 187.579 326.92C187.643 326.925 187.701 326.939 187.755 326.96L187.747 327.536C187.667 327.509 187.592 327.493 187.523 327.488C187.459 327.477 187.384 327.472 187.299 327.472C187.064 327.472 186.859 327.528 186.683 327.64C186.512 327.752 186.381 327.896 186.291 328.072C186.205 328.248 186.163 328.435 186.163 328.632V331H185.507ZM188.511 332.816L188.359 332.28C188.61 332.221 188.818 332.152 188.983 332.072C189.154 331.997 189.295 331.896 189.407 331.768C189.519 331.64 189.615 331.48 189.695 331.288L189.903 330.816L189.887 331.088L188.135 326.984H188.839L190.287 330.512H190.079L191.511 326.984H192.191L190.335 331.336C190.228 331.592 190.111 331.805 189.983 331.976C189.855 332.152 189.716 332.293 189.567 332.4C189.423 332.512 189.263 332.6 189.087 332.664C188.911 332.728 188.719 332.779 188.511 332.816Z" fill="black"/>
<path d="M215.4 331.072C214.76 331.072 214.269 330.824 213.928 330.328C213.587 329.832 213.416 329.115 213.416 328.176C213.416 327.232 213.587 326.515 213.928 326.024C214.269 325.533 214.76 325.288 215.4 325.288C216.045 325.288 216.536 325.533 216.872 326.024C217.213 326.515 217.384 327.229 217.384 328.168C217.384 329.112 217.213 329.832 216.872 330.328C216.531 330.824 216.04 331.072 215.4 331.072ZM215.4 330.496C215.848 330.496 216.181 330.307 216.4 329.928C216.619 329.549 216.728 328.963 216.728 328.168C216.728 327.635 216.68 327.2 216.584 326.864C216.488 326.523 216.341 326.269 216.144 326.104C215.947 325.939 215.699 325.856 215.4 325.856C214.957 325.856 214.624 326.043 214.4 326.416C214.181 326.789 214.072 327.373 214.072 328.168C214.072 328.696 214.12 329.133 214.216 329.48C214.317 329.821 214.464 330.077 214.656 330.248C214.853 330.413 215.101 330.496 215.4 330.496ZM220.197 331.072C219.557 331.072 219.066 330.824 218.725 330.328C218.384 329.832 218.213 329.115 218.213 328.176C218.213 327.232 218.384 326.515 218.725 326.024C219.066 325.533 219.557 325.288 220.197 325.288C220.842 325.288 221.333 325.533 221.669 326.024C222.01 326.515 222.181 327.229 222.181 328.168C222.181 329.112 222.01 329.832 221.669 330.328C221.328 330.824 220.837 331.072 220.197 331.072ZM220.197 330.496C220.645 330.496 220.978 330.307 221.197 329.928C221.416 329.549 221.525 328.963 221.525 328.168C221.525 327.635 221.477 327.2 221.381 326.864C221.285 326.523 221.138 326.269 220.941 326.104C220.744 325.939 220.496 325.856 220.197 325.856C219.754 325.856 219.421 326.043 219.197 326.416C218.978 326.789 218.869 327.373 218.869 328.168C218.869 328.696 218.917 329.133 219.013 329.48C219.114 329.821 219.261 330.077 219.453 330.248C219.65 330.413 219.898 330.496 220.197 330.496ZM223.098 327.8V326.984H223.914V327.8H223.098ZM223.098 331V330.184H223.914V331H223.098ZM225.102 331V330.504L227.102 328.416C227.363 328.144 227.558 327.885 227.686 327.64C227.819 327.389 227.886 327.131 227.886 326.864C227.886 326.539 227.785 326.293 227.582 326.128C227.379 325.957 227.086 325.872 226.702 325.872C226.403 325.872 226.126 325.925 225.87 326.032C225.619 326.133 225.377 326.296 225.142 326.52L224.902 326C225.115 325.787 225.387 325.616 225.718 325.488C226.049 325.355 226.398 325.288 226.766 325.288C227.15 325.288 227.473 325.347 227.734 325.464C228.001 325.581 228.203 325.755 228.342 325.984C228.481 326.208 228.55 326.483 228.55 326.808C228.55 327.165 228.462 327.507 228.286 327.832C228.115 328.152 227.865 328.483 227.534 328.824L225.766 330.616V330.432H228.79V331H225.102ZM231.715 331.072C231.47 331.072 231.23 331.045 230.995 330.992C230.76 330.939 230.539 330.861 230.331 330.76C230.128 330.659 229.95 330.536 229.795 330.392L230.043 329.88C230.304 330.088 230.571 330.243 230.843 330.344C231.115 330.44 231.406 330.488 231.715 330.488C232.12 330.488 232.438 330.379 232.667 330.16C232.896 329.941 233.011 329.653 233.011 329.296C233.011 328.928 232.902 328.627 232.683 328.392C232.464 328.157 232.16 328.04 231.771 328.04C231.494 328.04 231.246 328.096 231.027 328.208C230.808 328.315 230.619 328.483 230.459 328.712H229.979V325.36H233.323V325.92H230.619V328.168H230.443C230.587 327.944 230.784 327.773 231.035 327.656C231.291 327.533 231.579 327.472 231.899 327.472C232.262 327.472 232.574 327.547 232.835 327.696C233.102 327.845 233.307 328.053 233.451 328.32C233.595 328.587 233.667 328.899 233.667 329.256C233.667 329.613 233.587 329.931 233.427 330.208C233.272 330.48 233.048 330.693 232.755 330.848C232.467 330.997 232.12 331.072 231.715 331.072ZM234.512 327.8V326.984H235.328V327.8H234.512ZM234.512 331V330.184H235.328V331H234.512ZM238.228 331.072C237.588 331.072 237.097 330.824 236.756 330.328C236.415 329.832 236.244 329.115 236.244 328.176C236.244 327.232 236.415 326.515 236.756 326.024C237.097 325.533 237.588 325.288 238.228 325.288C238.873 325.288 239.364 325.533 239.7 326.024C240.041 326.515 240.212 327.229 240.212 328.168C240.212 329.112 240.041 329.832 239.7 330.328C239.359 330.824 238.868 331.072 238.228 331.072ZM238.228 330.496C238.676 330.496 239.009 330.307 239.228 329.928C239.447 329.549 239.556 328.963 239.556 328.168C239.556 327.635 239.508 327.2 239.412 326.864C239.316 326.523 239.169 326.269 238.972 326.104C238.775 325.939 238.527 325.856 238.228 325.856C237.785 325.856 237.452 326.043 237.228 326.416C237.009 326.789 236.9 327.373 236.9 328.168C236.9 328.696 236.948 329.133 237.044 329.48C237.145 329.821 237.292 330.077 237.484 330.248C237.681 330.413 237.929 330.496 238.228 330.496ZM241.641 331V330.432H242.969V325.928H243.321L241.769 326.896V326.232L243.153 325.36H243.633V330.432H244.881V331H241.641Z" fill="black"/>
<path fill-rule="evenodd" clip-rule="evenodd" d="M157.842 345.525C157.78 345.118 158.059 344.738 158.465 344.675C158.516 344.668 158.567 344.665 158.618 344.668L159.715 344.725C160.03 344.742 160.301 344.956 160.39 345.259L160.676 346.23C160.81 346.686 160.641 347.178 160.253 347.454L159.978 347.651C160.242 348.09 160.593 348.529 161.032 348.968L161.178 349.111C161.52 349.437 161.861 349.711 162.203 349.931L162.349 350.022L162.546 349.747C162.808 349.38 163.263 349.208 163.698 349.305L163.77 349.324L164.741 349.61C165.025 349.693 165.231 349.936 165.269 350.227L165.275 350.285L165.332 351.382C165.335 351.433 165.332 351.484 165.325 351.535C165.262 351.941 164.882 352.22 164.475 352.158C162.68 351.882 161.22 351.209 160.097 350.138L159.978 350.022C158.84 348.884 158.128 347.385 157.842 345.525Z" stroke="black" stroke-width="0.5" stroke-linejoin="round"/>
<path d="M163.667 343.833H166.167M166.167 343.833V346.333M166.167 343.833L162.833 347.167" stroke="black" stroke-width="0.5" stroke-linecap="round" stroke-linejoin="round"/>
<rect x="260.75" y="343.417" width="2.5" height="5.83333" rx="1.25" stroke="black" stroke-width="0.5"/>
<path d="M263.667 352.583H260.333" stroke="black" stroke-width="0.5" stroke-linecap="round" stroke-linejoin="round"/>
<path d="M264.917 347.167V348C264.917 349.611 263.611 350.917 262 350.917C260.389 350.917 259.083 349.611 259.083 348V347.167" stroke="black" stroke-width="0.5" stroke-linecap="round" stroke-linejoin="round"/>
<path d="M262 350.917V352.583" stroke="black" stroke-width="0.5" stroke-linecap="round" stroke-linejoin="round"/>
<path d="M272.25 349.788C271.731 349.201 271.417 348.429 271.417 347.583C271.417 345.742 272.909 344.25 274.75 344.25C276.326 344.25 277.646 345.343 277.994 346.812C278.155 346.772 278.325 346.75 278.5 346.75C279.651 346.75 280.583 347.683 280.583 348.833C280.583 349.515 280.256 350.119 279.751 350.5" stroke="black" stroke-width="0.5" stroke-linecap="round" stroke-linejoin="round"/>
<path d="M276 351.75V348" stroke="black" stroke-width="0.5" stroke-linecap="round" stroke-linejoin="round"/>
<path d="M277.667 349.667L276 348L274.333 349.667" stroke="black" stroke-width="0.5" stroke-linecap="round" stroke-linejoin="round"/>
<path d="M175.632 352.488C175.547 352.488 175.448 352.483 175.336 352.472C175.229 352.467 175.12 352.451 175.008 352.424V351.872C175.109 351.893 175.203 351.909 175.288 351.92C175.379 351.936 175.459 351.944 175.528 351.944C175.773 351.944 175.957 351.867 176.08 351.712C176.203 351.563 176.264 351.323 176.264 350.992V345.36H176.928V351C176.928 351.32 176.88 351.592 176.784 351.816C176.693 352.04 176.552 352.208 176.36 352.32C176.173 352.432 175.931 352.488 175.632 352.488ZM179.681 351.072C179.206 351.072 178.846 350.941 178.601 350.68C178.361 350.419 178.241 350.019 178.241 349.48V346.984H178.889V349.464C178.889 349.832 178.963 350.104 179.113 350.28C179.262 350.451 179.494 350.536 179.809 350.536C180.161 350.536 180.443 350.421 180.657 350.192C180.87 349.957 180.977 349.651 180.977 349.272V346.984H181.625V351H180.993V350.096H181.097C180.985 350.405 180.803 350.645 180.553 350.816C180.307 350.987 180.017 351.072 179.681 351.072ZM184.402 351.072C184.05 351.072 183.741 350.989 183.474 350.824C183.207 350.653 182.999 350.413 182.85 350.104C182.706 349.795 182.634 349.424 182.634 348.992C182.634 348.555 182.706 348.181 182.85 347.872C182.999 347.563 183.207 347.325 183.474 347.16C183.741 346.995 184.05 346.912 184.402 346.912C184.765 346.912 185.077 347.003 185.338 347.184C185.605 347.365 185.783 347.611 185.874 347.92H185.778V345.112H186.426V351H185.786V350.04H185.874C185.789 350.36 185.613 350.613 185.346 350.8C185.079 350.981 184.765 351.072 184.402 351.072ZM184.538 350.544C184.917 350.544 185.221 350.413 185.45 350.152C185.679 349.885 185.794 349.499 185.794 348.992C185.794 348.48 185.679 348.093 185.45 347.832C185.221 347.565 184.917 347.432 184.538 347.432C184.159 347.432 183.855 347.565 183.626 347.832C183.402 348.093 183.29 348.48 183.29 348.992C183.29 349.499 183.402 349.885 183.626 350.152C183.855 350.413 184.159 350.544 184.538 350.544ZM187.519 352.816L187.367 352.28C187.618 352.221 187.826 352.152 187.991 352.072C188.162 351.997 188.303 351.896 188.415 351.768C188.527 351.64 188.623 351.48 188.703 351.288L188.911 350.816L188.895 351.088L187.143 346.984H187.847L189.295 350.512H189.087L190.519 346.984H191.199L189.343 351.336C189.236 351.592 189.119 351.805 188.991 351.976C188.863 352.152 188.724 352.293 188.575 352.4C188.431 352.512 188.271 352.6 188.095 352.664C187.919 352.728 187.727 352.779 187.519 352.816Z" fill="black"/>
<path d="M215.4 351.072C214.76 351.072 214.269 350.824 213.928 350.328C213.587 349.832 213.416 349.115 213.416 348.176C213.416 347.232 213.587 346.515 213.928 346.024C214.269 345.533 214.76 345.288 215.4 345.288C216.045 345.288 216.536 345.533 216.872 346.024C217.213 346.515 217.384 347.229 217.384 348.168C217.384 349.112 217.213 349.832 216.872 350.328C216.531 350.824 216.04 351.072 215.4 351.072ZM215.4 350.496C215.848 350.496 216.181 350.307 216.4 349.928C216.619 349.549 216.728 348.963 216.728 348.168C216.728 347.635 216.68 347.2 216.584 346.864C216.488 346.523 216.341 346.269 216.144 346.104C215.947 345.939 215.699 345.856 215.4 345.856C214.957 345.856 214.624 346.043 214.4 346.416C214.181 346.789 214.072 347.373 214.072 348.168C214.072 348.696 214.12 349.133 214.216 349.48C214.317 349.821 214.464 350.077 214.656 350.248C214.853 350.413 215.101 350.496 215.4 350.496ZM220.197 351.072C219.557 351.072 219.066 350.824 218.725 350.328C218.384 349.832 218.213 349.115 218.213 348.176C218.213 347.232 218.384 346.515 218.725 346.024C219.066 345.533 219.557 345.288 220.197 345.288C220.842 345.288 221.333 345.533 221.669 346.024C222.01 346.515 222.181 347.229 222.181 348.168C222.181 349.112 222.01 349.832 221.669 350.328C221.328 350.824 220.837 351.072 220.197 351.072ZM220.197 350.496C220.645 350.496 220.978 350.307 221.197 349.928C221.416 349.549 221.525 348.963 221.525 348.168C221.525 347.635 221.477 347.2 221.381 346.864C221.285 346.523 221.138 346.269 220.941 346.104C220.744 345.939 220.496 345.856 220.197 345.856C219.754 345.856 219.421 346.043 219.197 346.416C218.978 346.789 218.869 347.373 218.869 348.168C218.869 348.696 218.917 349.133 219.013 349.48C219.114 349.821 219.261 350.077 219.453 350.248C219.65 350.413 219.898 350.496 220.197 350.496ZM223.098 347.8V346.984H223.914V347.8H223.098ZM223.098 351V350.184H223.914V351H223.098ZM227.502 351V349.776H224.814V349.296L227.606 345.36H228.15V349.24H229.014V349.776H228.15V351H227.502ZM227.502 349.24V346.144H227.678L225.358 349.408V349.24H227.502ZM231.611 351.072C230.966 351.072 230.467 350.936 230.115 350.664C229.763 350.387 229.587 350 229.587 349.504C229.587 349.115 229.707 348.792 229.947 348.536C230.187 348.275 230.504 348.117 230.899 348.064V348.184C230.542 348.109 230.256 347.947 230.043 347.696C229.83 347.44 229.723 347.139 229.723 346.792C229.723 346.317 229.891 345.949 230.227 345.688C230.563 345.421 231.024 345.288 231.611 345.288C232.006 345.288 232.344 345.349 232.627 345.472C232.91 345.589 233.126 345.76 233.275 345.984C233.43 346.203 233.507 346.472 233.507 346.792C233.507 347.139 233.406 347.44 233.203 347.696C233.006 347.952 232.728 348.112 232.371 348.176V348.064C232.632 348.096 232.856 348.179 233.043 348.312C233.235 348.44 233.382 348.605 233.483 348.808C233.59 349.011 233.643 349.243 233.643 349.504C233.643 350 233.467 350.387 233.115 350.664C232.763 350.936 232.262 351.072 231.611 351.072ZM231.611 350.528C232.08 350.528 232.43 350.44 232.659 350.264C232.894 350.088 233.011 349.821 233.011 349.464C233.011 349.112 232.894 348.851 232.659 348.68C232.43 348.504 232.08 348.416 231.611 348.416C231.142 348.416 230.79 348.504 230.555 348.68C230.326 348.851 230.211 349.112 230.211 349.464C230.211 349.821 230.328 350.088 230.563 350.264C230.798 350.44 231.147 350.528 231.611 350.528ZM231.611 347.872C232.016 347.872 232.326 347.781 232.539 347.6C232.758 347.419 232.867 347.168 232.867 346.848C232.867 346.528 232.758 346.28 232.539 346.104C232.326 345.923 232.016 345.832 231.611 345.832C231.206 345.832 230.894 345.923 230.675 346.104C230.462 346.28 230.355 346.528 230.355 346.848C230.355 347.168 230.462 347.419 230.675 347.6C230.894 347.781 231.206 347.872 231.611 347.872ZM234.512 347.8V346.984H235.328V347.8H234.512ZM234.512 351V350.184H235.328V351H234.512ZM236.516 351V350.504L238.516 348.416C238.777 348.144 238.972 347.885 239.1 347.64C239.233 347.389 239.3 347.131 239.3 346.864C239.3 346.539 239.199 346.293 238.996 346.128C238.793 345.957 238.5 345.872 238.116 345.872C237.817 345.872 237.54 345.925 237.284 346.032C237.033 346.133 236.791 346.296 236.556 346.52L236.316 346C236.529 345.787 236.801 345.616 237.132 345.488C237.463 345.355 237.812 345.288 238.18 345.288C238.564 345.288 238.887 345.347 239.148 345.464C239.415 345.581 239.617 345.755 239.756 345.984C239.895 346.208 239.964 346.483 239.964 346.808C239.964 347.165 239.876 347.507 239.7 347.832C239.529 348.152 239.279 348.483 238.948 348.824L237.18 350.616V350.432H240.204V351H236.516ZM242.649 351.072C242.356 351.072 242.06 351.011 241.761 350.888C241.462 350.76 241.214 350.595 241.017 350.392L241.265 349.872C241.468 350.08 241.689 350.235 241.929 350.336C242.169 350.437 242.412 350.488 242.657 350.488C243.196 350.488 243.609 350.296 243.897 349.912C244.19 349.523 244.337 348.941 244.337 348.168V347.424H244.417C244.385 347.723 244.292 347.984 244.137 348.208C243.988 348.432 243.793 348.603 243.553 348.72C243.318 348.837 243.054 348.896 242.761 348.896C242.42 348.896 242.116 348.821 241.849 348.672C241.588 348.523 241.382 348.312 241.233 348.04C241.084 347.768 241.009 347.461 241.009 347.12C241.009 346.763 241.086 346.448 241.241 346.176C241.401 345.899 241.617 345.683 241.889 345.528C242.166 345.368 242.484 345.288 242.841 345.288C243.3 345.288 243.689 345.397 244.009 345.616C244.329 345.829 244.572 346.141 244.737 346.552C244.902 346.963 244.985 347.459 244.985 348.04C244.985 348.685 244.892 349.235 244.705 349.688C244.518 350.141 244.252 350.485 243.905 350.72C243.558 350.955 243.14 351.072 242.649 351.072ZM242.897 348.344C243.142 348.344 243.358 348.291 243.545 348.184C243.732 348.077 243.876 347.931 243.977 347.744C244.084 347.557 244.137 347.341 244.137 347.096C244.137 346.845 244.084 346.627 243.977 346.44C243.876 346.253 243.732 346.107 243.545 346C243.358 345.893 243.142 345.84 242.897 345.84C242.652 345.84 242.433 345.893 242.241 346C242.054 346.107 241.908 346.253 241.801 346.44C241.7 346.627 241.649 346.845 241.649 347.096C241.649 347.341 241.7 347.557 241.801 347.744C241.908 347.931 242.054 348.077 242.241 348.184C242.433 348.291 242.652 348.344 242.897 348.344Z" fill="black"/>
<path fill-rule="evenodd" clip-rule="evenodd" d="M186.916 300.825L186.749 301.579L186.747 301.582L186.916 300.825ZM190.433 303.189L189.667 303.292H189.665L190.433 303.189ZM184.243 302.903L184.872 303.361C184.757 303.519 184.585 303.628 184.392 303.665C184.2 303.702 184 303.664 183.834 303.56L184.243 302.903Z" fill="#666666"/>
<path fill-rule="evenodd" clip-rule="evenodd" d="M186.916 326.393L186.749 327.147L186.747 327.15L186.916 326.393ZM190.433 328.757L189.667 328.86H189.665L190.433 328.757ZM184.243 328.471L184.872 328.928C184.757 329.087 184.585 329.196 184.392 329.233C184.2 329.27 184 329.232 183.834 329.127L184.243 328.471Z" fill="#666666"/>
<path d="M526.5 459H13V474H526.5V459Z" fill="#333333" stroke="black" stroke-width="0.5" stroke-linecap="round" stroke-linejoin="round"/>
<path d="M544.75 480.3C539.07 463.24 524.37 454.54 511.3 450.11V441.88C511.292 435.112 509.819 428.425 506.983 422.28C504.147 416.135 500.014 410.676 494.868 406.279C489.722 401.882 483.686 398.651 477.174 396.808C470.661 394.964 463.827 394.552 457.14 395.6L368.33 409.36L351.33 459.03H497.16C509.23 459.03 519.58 468.25 520.32 480.3C520.475 482.442 520.255 484.594 519.67 486.66C514.19 505.21 500.97 504.15 498.59 527.55C498.154 531.365 498.621 535.229 499.953 538.83C501.286 542.431 503.446 545.668 506.26 548.28C506.338 548.348 506.436 548.391 506.54 548.401C506.643 548.411 506.747 548.389 506.837 548.337C506.928 548.285 507 548.207 507.043 548.112C507.087 548.018 507.1 547.912 507.08 547.81C506.34 544.46 505.08 536.19 509.57 531.56C508.18 535.78 507.44 539.99 511.02 546.32C512.34 548.653 513.873 550.859 515.6 552.91C515.725 553.055 515.895 553.154 516.083 553.191C516.271 553.229 516.466 553.202 516.637 553.116C516.809 553.03 516.946 552.889 517.028 552.716C517.11 552.543 517.132 552.347 517.09 552.16C516.37 548.63 516.64 543.01 522.83 537.46C532.95 528.37 555.93 513.82 544.75 480.3Z" fill="white" stroke="black" stroke-width="0.5" stroke-linecap="round" stroke-linejoin="round"/>
<path d="M355.2 383.47L354.39 383.2C354.199 380.118 353.751 377.057 353.05 374.05C349.25 357.91 345.91 354.05 344.53 353.13C344.367 353.026 344.172 352.984 343.98 353.01C343.787 353.03 343.608 353.123 343.48 353.27C339.64 357.465 336.123 361.944 332.96 366.67C329.41 372.1 324.51 383.06 322.16 388.47C314.424 393.931 308.609 401.692 305.54 410.65C304.404 413.889 303.626 417.242 303.22 420.65C299.91 424.65 295.58 429.78 292.6 432.79C288.05 437.38 280.75 449.47 278.49 453.29C278.399 453.447 278.338 453.62 278.31 453.8C278.275 453.978 278.275 454.162 278.31 454.34C278.359 454.516 278.444 454.679 278.56 454.82C278.67 454.962 278.81 455.078 278.97 455.16C284.498 458.084 290.729 459.42 296.97 459.02C302.744 458.47 308.356 456.798 313.49 454.1C317.29 458.202 322.024 461.328 327.29 463.21C347.01 470.21 369.24 458.06 376.95 436.04C384.66 414.02 374.91 390.49 355.2 383.47Z" fill="white" stroke="black" stroke-width="0.5" stroke-linecap="round" stroke-linejoin="round"/>
<path d="M456.06 422.51C456.06 422.51 443.23 427.24 439.83 439.25C438.092 445.77 437.724 452.58 438.75 459.25" stroke="black" stroke-width="0.5" stroke-linecap="round" stroke-linejoin="round"/>
<path d="M278.3 454.88C284.045 454.829 289.734 453.752 295.1 451.7C299.225 450.295 303.222 448.542 307.05 446.46C307.253 446.343 307.492 446.307 307.72 446.36C307.945 446.42 308.138 446.563 308.26 446.76C309.336 449.374 310.855 451.783 312.75 453.88L313.1 454.23C307.474 457.388 301.16 459.122 294.71 459.28C288.935 459.386 283.247 457.861 278.3 454.88Z" fill="#1A1A1A" stroke="black" stroke-width="0.5" stroke-linecap="round" stroke-linejoin="round"/>
<path d="M342.6 383.39C342.52 383.401 342.439 383.396 342.361 383.373C342.284 383.351 342.212 383.312 342.15 383.26C342.084 383.21 342.029 383.147 341.987 383.074C341.946 383.002 341.92 382.923 341.91 382.84C341.56 380.47 340.4 371.84 341.07 365.92C341.637 361.473 342.815 357.125 344.57 353C344.57 353 348.36 353.85 352.86 372.09C353.911 375.911 354.551 379.833 354.77 383.79C352.423 383.129 349.987 382.836 347.55 382.92C346.22 383 343.75 383.27 342.6 383.39Z" fill="#1A1A1A" stroke="black" stroke-width="0.5" stroke-linecap="round" stroke-linejoin="round"/>
<path d="M345.44 414.57C345.44 414.57 343.72 410.57 346.08 407.94C346.81 407.168 347.698 406.563 348.684 406.166C349.669 405.769 350.729 405.59 351.79 405.64" stroke="black" stroke-width="0.5" stroke-linecap="round" stroke-linejoin="round"/>
<path d="M323.53 446.35C323.53 446.35 320.85 442.35 322.58 439.84C324.31 437.33 328.95 437.41 328.95 437.41" stroke="black" stroke-width="0.5" stroke-linecap="round" stroke-linejoin="round"/>
<path d="M344.53 429.29C344.53 429.29 346.02 422.1 342.44 422.53C338.86 422.96 340.44 426.35 340.44 426.35C340.44 426.35 337.1 427.1 338 429.45C338.9 431.8 344.53 429.29 344.53 429.29Z" fill="#4C4C4C" stroke="black" stroke-width="0.5" stroke-linecap="round" stroke-linejoin="round"/>
<path d="M356.75 416.72C356.75 416.72 359.75 426.47 355.66 429.41C351.57 432.35 344.66 429.16 344.66 429.16C344.66 429.16 350.6 436.57 346.98 441.68C343.36 446.79 338.89 445.32 338.89 445.32" stroke="black" stroke-width="0.5" stroke-linecap="round" stroke-linejoin="round"/>
<path d="M320.75 418.16C320.457 418.691 320.067 419.163 319.6 419.55C319.143 419.929 318.612 420.208 318.04 420.37C317.478 420.53 316.889 420.57 316.31 420.49C315.725 420.405 315.163 420.201 314.66 419.89L305.09 414.03L305.64 411.91C305.85 411.11 306.1 410.32 306.38 409.54L307.09 407.62L320.09 415.62C320.295 415.742 320.472 415.905 320.61 416.1C320.757 416.297 320.862 416.521 320.92 416.76C320.982 416.998 320.998 417.246 320.97 417.49C320.937 417.725 320.863 417.951 320.75 418.16Z" fill="#CCCCCC" stroke="black" stroke-width="0.5" stroke-linecap="round" stroke-linejoin="round"/>
<path d="M326.75 409.81L324.96 412.81C324.853 412.985 324.714 413.138 324.55 413.26C324.381 413.381 324.191 413.469 323.99 413.52C323.786 413.565 323.574 413.565 323.37 413.52C323.162 413.498 322.962 413.433 322.78 413.33L308.08 405.18L309.61 402.63C309.77 402.36 309.94 402.1 310.12 401.84L311.66 399.63L326.17 407.7C326.346 407.796 326.501 407.926 326.626 408.083C326.751 408.239 326.843 408.42 326.897 408.613C326.951 408.806 326.966 409.007 326.941 409.206C326.915 409.405 326.851 409.597 326.75 409.77V409.81Z" fill="#CCCCCC" stroke="black" stroke-width="0.5" stroke-linecap="round" stroke-linejoin="round"/>
<path d="M329.47 402.7L328.65 404C328.458 404.301 328.157 404.516 327.81 404.6C327.456 404.684 327.083 404.638 326.76 404.47L313.06 397.18L315.06 395.06C315.29 394.83 315.52 394.6 315.76 394.38L317.62 392.72L328.17 398.34C328.551 398.55 328.89 398.828 329.17 399.16C329.444 399.487 329.645 399.869 329.76 400.28C329.88 400.682 329.91 401.105 329.85 401.52C329.807 401.935 329.678 402.337 329.47 402.7Z" fill="#CCCCCC" stroke="black" stroke-width="0.5" stroke-linecap="round" stroke-linejoin="round"/>
<path d="M373.63 450.99V506.62C373.634 507.706 373.853 508.781 374.276 509.782C374.698 510.782 375.315 511.689 376.09 512.45C377.676 514.001 379.806 514.869 382.025 514.869C384.243 514.869 386.374 514.001 387.96 512.45C388.737 511.691 389.355 510.784 389.777 509.783C390.2 508.782 390.418 507.707 390.42 506.62L393.28 481.15C395.037 465.748 401.334 451.215 411.37 439.4" fill="#999999"/>
<path d="M373.63 450.99V506.62C373.634 507.706 373.853 508.781 374.276 509.782C374.698 510.782 375.315 511.689 376.09 512.45C377.676 514.001 379.806 514.869 382.025 514.869C384.243 514.869 386.374 514.001 387.96 512.45C388.737 511.691 389.355 510.784 389.777 509.783C390.2 508.782 390.418 507.707 390.42 506.62L393.28 481.15C395.037 465.748 401.334 451.215 411.37 439.4" stroke="black" stroke-width="0.5" stroke-linecap="round" stroke-linejoin="round"/>
<path d="M373.63 450.99V506.62C373.634 507.706 373.853 508.781 374.276 509.782C374.698 510.782 375.315 511.689 376.09 512.45C377.674 514.002 379.803 514.871 382.02 514.87C384.241 514.873 386.374 514.004 387.96 512.45C388.737 511.691 389.355 510.784 389.777 509.783C390.2 508.782 390.418 507.707 390.42 506.62L393.28 481.15C395.037 465.748 401.334 451.215 411.37 439.4" fill="white"/>
<path d="M373.63 450.99V506.62C373.634 507.706 373.853 508.781 374.276 509.782C374.698 510.782 375.315 511.689 376.09 512.45C377.674 514.002 379.803 514.871 382.02 514.87V514.87C384.241 514.873 386.374 514.004 387.96 512.45C388.737 511.691 389.355 510.784 389.777 509.783C390.2 508.782 390.418 507.707 390.42 506.62L393.28 481.15C395.037 465.748 401.334 451.215 411.37 439.4" stroke="black" stroke-width="0.5" stroke-linecap="round" stroke-linejoin="round"/>
<path d="M377.61 498.98V513.88" stroke="black" stroke-width="0.5" stroke-linecap="round" stroke-linejoin="round"/>
<path d="M381.58 498.98V514.88" stroke="black" stroke-width="0.5" stroke-linecap="round" stroke-linejoin="round"/>
<path d="M385.55 498.98V514.88" stroke="black" stroke-width="0.5" stroke-linecap="round" stroke-linejoin="round"/>
<path d="M318.65 169.697C317.481 169.697 316.322 169.47 315.24 169.027C313.079 168.156 311.351 166.467 310.43 164.327C309.981 163.274 309.75 162.142 309.75 160.997C309.751 159.848 309.983 158.711 310.431 157.653C310.88 156.595 311.535 155.637 312.36 154.837C313.992 153.258 316.16 152.355 318.43 152.307H316.43C316.006 152.307 315.587 152.218 315.2 152.047C314.823 151.866 314.483 151.615 314.2 151.307C313.592 150.648 313.257 149.784 313.26 148.887V147.887C313.257 146.991 313.592 146.126 314.2 145.467C314.481 145.159 314.821 144.911 315.2 144.737C315.588 144.567 316.007 144.479 316.43 144.477H321.733C321.547 144.473 321.363 144.436 321.189 144.367C320.995 144.29 320.819 144.174 320.67 144.027C320.369 143.732 320.196 143.329 320.19 142.907V129.517C320.196 129.095 320.369 128.693 320.67 128.397C320.819 128.25 320.995 128.135 321.189 128.057C321.383 127.98 321.591 127.943 321.8 127.947H412.53C412.739 127.943 412.947 127.98 413.141 128.057C413.335 128.135 413.511 128.25 413.66 128.397C413.961 128.693 414.134 129.095 414.14 129.517V142.897C414.134 143.319 413.961 143.722 413.66 144.017C413.511 144.164 413.335 144.28 413.141 144.357C412.947 144.434 412.739 144.472 412.53 144.467H409.75V152.297H407.07C407.256 152.305 407.437 152.357 407.6 152.447C407.79 152.543 407.944 152.697 408.04 152.887C409.277 155.402 409.865 158.187 409.75 160.987C409.751 163.751 409.147 166.482 407.98 168.987C407.884 169.192 407.731 169.366 407.54 169.487C407.358 169.598 407.152 169.666 406.94 169.687H445.62C445.228 169.381 444.944 168.957 444.81 168.477L434.39 129.987C434.32 129.657 434.32 129.317 434.39 128.987C434.443 128.624 434.588 128.28 434.81 127.987C435.023 127.713 435.292 127.488 435.6 127.327C435.913 127.177 436.253 127.096 436.6 127.087H452.98L452.88 126.817C452.88 126.817 448.17 120.817 442.57 112.167C434.16 112.957 422.59 112.537 422.75 103.957C422.85 97.5372 429.56 98.9972 436.43 102.187C435.26 100.157 434.1 98.0672 433 95.9372C421.82 88.6572 406.1 76.9372 411.25 71.9372C413.97 69.3272 419.2 71.5272 424.97 75.6972C423.11 67.7872 423.55 60.7672 428.11 56.2971C432.39 52.1072 436.61 53.0172 440.51 57.0172C440.48 54.5972 440.53 52.2372 440.68 49.9472C431.22 42.4872 417.34 28.9872 426.9 19.8772C434.2 12.8972 439.82 23.7171 443.46 35.2071C446.14 27.7971 450.84 22.4772 458.39 20.4772C462.56 19.3672 465.86 19.8172 468.39 21.4772C472.98 11.2872 479.22 3.12715 485.98 8.93715C495.76 17.3672 485.58 28.6772 475.24 36.6772C475.863 43.504 475.783 50.3768 475 57.1871C480.14 42.7271 485.91 32.8171 491.64 35.4171C498.73 38.7371 496.59 55.3972 491.31 74.0572C496.15 68.6572 500.73 65.6972 503.83 68.4772C511.4 75.2872 490.92 99.2572 478.4 110.477C475.58 117.227 472.9 123.067 470.8 127.067H486.6C486.947 127.076 487.287 127.157 487.6 127.307C487.917 127.458 488.191 127.685 488.4 127.967C488.612 128.247 488.756 128.572 488.82 128.917C488.9 129.246 488.9 129.589 488.82 129.917L478.4 168.407C478.27 168.888 477.985 169.313 477.59 169.617L477.47 169.697H521V181.697H491.86V193.337C491.888 193.912 491.799 194.486 491.598 195.026C491.397 195.565 491.089 196.058 490.692 196.475C490.295 196.891 489.818 197.223 489.289 197.45C488.76 197.676 488.19 197.793 487.615 197.793C487.04 197.793 486.47 197.676 485.941 197.45C485.412 197.223 484.935 196.891 484.538 196.475C484.141 196.058 483.833 195.565 483.632 195.026C483.431 194.486 483.342 193.912 483.37 193.337V181.697H366.03V193.337C366.03 194.464 365.582 195.545 364.785 196.342C363.988 197.139 362.907 197.587 361.78 197.587C360.653 197.587 359.572 197.139 358.775 196.342C357.978 195.545 357.53 194.464 357.53 193.337V181.697H328.89V169.697H318.65Z" fill="url(#paint0_linear_2546_240879)" style="mix-blend-mode:overlay"/>
<path fill-rule="evenodd" clip-rule="evenodd" d="M511.3 449.927C524.37 454.357 539.07 463.057 544.75 480.117C554.836 510.357 537.162 525.158 526.087 534.431C524.886 535.438 523.762 536.379 522.76 537.267C516.57 542.817 516.3 548.437 517.02 551.967C517.06 552.156 517.039 552.352 516.96 552.527C516.876 552.699 516.74 552.839 516.57 552.927C516.402 553.002 516.216 553.022 516.036 552.984C515.856 552.947 515.693 552.853 515.57 552.717C513.843 550.667 512.31 548.461 510.99 546.127C507.41 539.797 508.15 535.587 509.54 531.367C505.05 535.997 506.31 544.267 507.05 547.617C507.084 547.714 507.084 547.82 507.05 547.917C507.009 548.013 506.939 548.093 506.85 548.147C506.758 548.197 506.654 548.218 506.55 548.207C506.493 548.202 506.439 548.187 506.388 548.163C506.345 548.144 506.306 548.118 506.27 548.087C503.454 545.476 501.292 542.239 499.96 538.638C498.627 535.037 498.162 531.172 498.6 527.357C499.943 514.155 504.736 508.739 509.643 503.194C513.433 498.911 517.292 494.551 519.68 486.467C520.265 484.401 520.485 482.249 520.33 480.107C520.195 477.954 519.747 475.832 519 473.807H394.45C393.95 476.167 393.55 478.547 393.28 480.957L390.42 506.427C390.419 507.514 390.201 508.589 389.779 509.591C389.356 510.592 388.738 511.499 387.96 512.257C386.374 513.808 384.243 514.676 382.025 514.676C379.807 514.676 377.676 513.808 376.09 512.257C375.317 511.495 374.702 510.588 374.28 509.587C373.851 508.589 373.63 507.514 373.63 506.427V473.807H13V458.807H65.06C65.0489 458.733 65.0324 458.661 65.016 458.589C64.9879 458.466 64.96 458.343 64.96 458.217C64.3422 453.365 65.1474 448.438 67.2778 444.035C69.4082 439.633 72.7719 435.944 76.96 433.417C77.65 433.007 78.37 432.637 79.1 432.287C77.7249 431.951 76.5386 431.085 75.8 429.877C75.4214 429.269 75.1665 428.592 75.0498 427.885C74.9331 427.178 74.957 426.455 75.12 425.757C75.2801 425.058 75.5793 424.398 76 423.817C76.4185 423.247 76.9451 422.764 77.55 422.397C78.158 422.012 78.8388 421.757 79.55 421.647L31.05 231.377C29.4583 230.875 28.0109 229.997 26.83 228.817C25.2281 227.22 24.1829 225.149 23.8487 222.911C23.5146 220.674 23.9093 218.388 24.9746 216.392C26.0399 214.396 27.7191 212.796 29.764 211.828C31.809 210.86 34.1111 210.576 36.33 211.017C37.4416 211.243 38.5089 211.648 39.49 212.217L159.67 109.817L153.13 93.2372C152.862 92.5603 152.731 91.8372 152.743 91.1095C152.755 90.3817 152.91 89.6634 153.2 88.9957C153.49 88.3279 153.908 87.7239 154.432 87.2179C154.955 86.712 155.573 86.3142 156.25 86.0472L179.6 76.8172C180.28 76.5506 181.006 76.4208 181.737 76.4354C182.467 76.45 183.187 76.6087 183.856 76.9022C184.525 77.1958 185.129 77.6186 185.635 78.1462C186.14 78.6739 186.536 79.2961 186.8 79.9772L200.52 114.687C212.215 113.486 223.982 116.138 234.031 122.239C244.08 128.341 251.861 137.557 256.19 148.487L255.91 148.597L311.22 213.817H407C410.183 213.817 413.235 215.081 415.485 217.332C417.736 219.582 419 222.635 419 225.817V401.327L457.14 395.417C463.827 394.371 470.66 394.784 477.172 396.629C483.684 398.473 489.719 401.704 494.864 406.1C500.01 410.497 504.143 415.955 506.98 422.099C509.817 428.244 511.29 434.929 511.3 441.697V449.927ZM105.356 435.028C108.704 437.594 111.354 440.96 113.06 444.817C114.97 449.167 115.611 453.968 114.91 458.667C114.915 458.717 114.915 458.767 114.91 458.817H290.05L289.35 458.707H253.53C252.26 458.702 251.045 458.194 250.149 457.294C249.253 456.395 248.75 455.177 248.75 453.907L251.05 424.817H143C139.817 424.817 136.765 423.553 134.515 421.302C132.264 419.052 131 416 131 412.817V225.807C131 222.625 132.264 219.572 134.515 217.322C136.765 215.071 139.817 213.807 143 213.807H156.75V187.807L155.89 188.147C152.025 178.397 151.091 167.731 153.203 157.457C155.316 147.184 160.382 137.751 167.78 130.317L162.29 116.447L43.97 217.317C44.2485 217.961 44.4628 218.631 44.61 219.317C44.9742 221.143 44.8437 223.033 44.2318 224.791C43.6199 226.549 42.549 228.112 41.13 229.317L89.74 419.997L90.82 419.817C92.1147 419.625 93.4355 419.906 94.5399 420.608C95.6444 421.311 96.4584 422.388 96.8328 423.642C97.2071 424.897 97.1167 426.244 96.578 427.437C96.0393 428.63 95.0885 429.589 93.9 430.137C98.0685 430.781 102.008 432.463 105.356 435.028Z" fill="url(#paint1_linear_2546_240879)" style="mix-blend-mode:overlay"/>
<defs>
<linearGradient id="paint0_linear_2546_240879" x1="13" y1="7" x2="547.75" y2="6.99999" gradientUnits="userSpaceOnUse">
<stop stop-color="#F38478"/>
<stop offset="1" stop-color="#5D6AE8"/>
</linearGradient>
<linearGradient id="paint1_linear_2546_240879" x1="13" y1="7" x2="547.75" y2="6.99999" gradientUnits="userSpaceOnUse">
<stop stop-color="#F38478"/>
<stop offset="1" stop-color="#5D6AE8"/>
</linearGradient>
</defs>
</svg>
