<svg width="560" height="560" viewBox="0 0 560 560" fill="none" xmlns="http://www.w3.org/2000/svg">
<path d="M361.262 23.4928H213.877C195.113 23.4928 179.902 38.7039 179.902 57.4678V431.906C179.902 450.67 195.113 465.881 213.877 465.881H361.262C380.026 465.881 395.237 450.67 395.237 431.906V57.4678C395.237 38.7039 380.026 23.4928 361.262 23.4928Z" fill="#9C9B9B" stroke="#1E1E1C" stroke-width="0.52982" stroke-miterlimit="10"/>
<path d="M360.402 26.5339H214.737C196.748 26.5339 182.164 41.1174 182.164 59.1071V430.01C182.164 448 196.748 462.583 214.737 462.583H360.402C378.392 462.583 392.976 448 392.976 430.01V59.1071C392.976 41.1174 378.392 26.5339 360.402 26.5339Z" fill="#1E1E1C"/>
<path d="M361.391 34.5144H213.844C200.823 34.5144 190.268 45.0697 190.268 58.0902V431.526C190.268 444.546 200.823 455.101 213.844 455.101H361.391C374.411 455.101 384.966 444.546 384.966 431.526V58.0902C384.966 45.0697 374.411 34.5144 361.391 34.5144Z" fill="white" stroke="#1E1E1C" stroke-width="0.522693" stroke-miterlimit="10"/>
<path d="M214.593 34.5144H360.813C367.195 34.5157 373.315 37.0517 377.827 41.5646C382.339 46.0776 384.874 52.198 384.874 58.5797V100.633H190.527V58.5797C190.527 52.1972 193.063 46.0761 197.576 41.563C202.089 37.0498 208.21 34.5144 214.593 34.5144Z" fill="#9A9999"/>
<path d="M320.673 53.6973H253.825C250.83 53.6973 247.958 52.5076 245.84 50.3898C243.722 48.272 242.533 45.3997 242.533 42.4048V37.9666C242.532 37.0597 242.171 36.1901 241.53 35.549C240.888 34.9079 240.018 34.5477 239.111 34.5477H229.608V28.4275H345.527V34.5477H335.387C334.48 34.5477 333.61 34.9079 332.968 35.549C332.327 36.1901 331.966 37.0597 331.965 37.9666V42.4048C331.965 45.3997 330.776 48.272 328.658 50.3898C326.54 52.5076 323.668 53.6973 320.673 53.6973Z" fill="#1E1E1C"/>
<path d="M254.64 44.8662C256.231 44.8662 257.52 43.577 257.52 41.9866C257.52 40.3963 256.231 39.1071 254.64 39.1071C253.05 39.1071 251.761 40.3963 251.761 41.9866C251.761 43.577 253.05 44.8662 254.64 44.8662Z" fill="#777779"/>
<path d="M317.808 39.9457H267.396C266.269 39.9457 265.355 40.8589 265.355 41.9854C265.355 43.1119 266.269 44.0251 267.396 44.0251H317.808C318.935 44.0251 319.849 43.1119 319.849 41.9854C319.849 40.8589 318.935 39.9457 317.808 39.9457Z" fill="#777779"/>
<path d="M403.08 176.763L398.842 243.435L384.95 296.108L376.606 317.702C376.606 317.702 367.435 338.156 369.319 339.465C371.203 340.775 380.372 323.949 380.372 323.949C380.372 323.949 380.659 325.545 382.258 325.258C383.857 324.97 384.729 322.504 384.729 322.504C384.729 322.504 385.016 324.101 386.031 324.248C387.045 324.395 390.101 321.204 390.101 321.204C390.101 321.204 391.037 323.255 392.018 322.958C392.999 322.661 398.894 303.183 401.222 297.816C401.771 296.55 422.726 249.85 422.726 249.85L428.935 176.763H403.08Z" fill="#F08178" stroke="#1E1E1C" stroke-width="0.201949" stroke-linecap="round" stroke-linejoin="round"/>
<path d="M396.05 141.222H392.203C391.496 141.222 390.923 141.796 390.923 142.503V198.997C390.923 199.704 391.496 200.277 392.203 200.277H396.05C396.757 200.277 397.331 199.704 397.331 198.997V142.503C397.331 141.796 396.757 141.222 396.05 141.222Z" fill="#1E1E1C"/>
<path d="M183.202 128.473H178.824C178.263 128.473 177.809 128.927 177.809 129.488V164.525C177.809 165.085 178.263 165.539 178.824 165.539H183.202C183.763 165.539 184.217 165.085 184.217 164.525V129.488C184.217 128.927 183.763 128.473 183.202 128.473Z" fill="#1E1E1C"/>
<path d="M183.202 175.451H178.824C178.263 175.451 177.809 175.906 177.809 176.466V211.503C177.809 212.063 178.263 212.518 178.824 212.518H183.202C183.763 212.518 184.217 212.063 184.217 211.503V176.466C184.217 175.906 183.763 175.451 183.202 175.451Z" fill="#1E1E1C"/>
<path d="M416.048 107.618C416.234 108.972 416.369 110.331 416.451 111.695C416.898 119.298 415.917 127.817 420.795 133.674C424.708 138.373 431.248 139.804 437.338 140.452C441.534 140.899 445.841 141.103 449.916 140.006C453.99 138.908 455.884 136.397 459.032 133.971C461.698 131.916 464.606 130.742 466.872 128.067C471.505 122.602 472.489 114.629 470.391 107.784C469.063 103.453 466.616 99.5493 463.589 96.2041C460.6 92.9016 457.352 91.4072 456.364 86.8312C455.506 82.854 456.01 78.6915 455.287 74.6881C453.28 63.5667 441.058 55.8356 430.134 58.746C428.519 59.1948 427.015 59.9766 425.72 61.0411C424.278 62.1649 423.196 62.1126 421.424 62.6805C414.831 64.7879 409.5 70.6824 408.335 77.5416C407.285 83.7188 409.262 87.8006 411.747 93.0774C413.902 97.6808 415.352 102.583 416.048 107.618Z" fill="#BBADD5" stroke="#1E1E1C" stroke-width="0.178191" stroke-linecap="round" stroke-linejoin="round"/>
<path d="M440.857 196.038L400.061 180.472L408.877 151.895C410.811 145.625 415.703 137.796 420.111 132.938C427.671 124.601 433.415 124.814 440.857 126.549C440.857 126.549 446.915 142.721 444.435 152.382L440.857 196.038Z" fill="#5353A0" stroke="#1E1E1C" stroke-width="0.237588" stroke-linecap="round" stroke-linejoin="round"/>
<path d="M500.878 487.392L486.402 490.543L424.363 384.277C417.316 366.22 434.85 327.921 435.183 319.722L448.459 287.519L493.382 310.653L458.714 375.678L500.878 487.392Z" fill="#F08378" stroke="#1E1E1C" stroke-width="0.684252" stroke-linecap="round" stroke-linejoin="round"/>
<path d="M511.099 502.484L498.429 476.349L489.301 480.896L484.521 477.245C483.979 476.831 483.358 476.532 482.697 476.367C482.036 476.202 481.347 476.174 480.675 476.285C480.002 476.397 479.36 476.645 478.786 477.014C478.213 477.383 477.722 477.866 477.343 478.433L475.559 484.581C475.559 484.581 464.414 494.871 451.752 507.751C443.083 516.568 438.923 522.89 438.923 522.89L436.364 526.601C436.051 527.036 435.877 527.556 435.865 528.092C435.852 528.628 436.001 529.155 436.293 529.604C436.683 530.173 437.28 530.567 437.956 530.704C438.232 530.753 438.515 530.753 438.792 530.704C440.332 530.467 446.903 529.388 452.064 527.029C459.643 523.56 470.078 520.07 480.035 514.13C487.084 509.927 490.726 506.855 493.033 505.339L495.172 509.141L511.099 502.484Z" fill="#030304" stroke="#030304" stroke-width="0.805422" stroke-linecap="round" stroke-linejoin="round"/>
<path d="M458.713 524.411C458.713 524.411 455.663 519.355 451.959 516.525C448.255 513.695 446.124 513.743 446.124 513.743C446.124 513.743 434.095 526.242 436.095 529.336C438.371 532.857 447.421 528.77 451.263 527.307C455.104 525.843 458.713 524.411 458.713 524.411Z" fill="white" stroke="#1E1F1D" stroke-width="0.805422" stroke-linecap="round" stroke-linejoin="round"/>
<path d="M477.526 490.543C477.526 490.543 474.913 488.754 472.453 488.134C469.994 487.513 466.854 488.882 466.854 488.882" stroke="white" stroke-width="0.805422" stroke-linecap="round" stroke-linejoin="round"/>
<path d="M473.1 496.511C473.1 496.511 470.486 494.722 468.027 494.102C465.568 493.482 462.427 494.85 462.427 494.85" stroke="white" stroke-width="0.805422" stroke-linecap="round" stroke-linejoin="round"/>
<path d="M468.654 502.298C468.654 502.298 466.041 500.512 463.579 499.889C461.118 499.267 457.979 500.638 457.979 500.638" stroke="white" stroke-width="0.805422" stroke-linecap="round" stroke-linejoin="round"/>
<path d="M472.213 515.819L453.097 517.701L437.625 398.532V287.519L491.449 290.47L466.856 397.106L472.213 515.819Z" fill="#F08378" stroke="#1E1E1C" stroke-width="0.684252" stroke-linecap="round" stroke-linejoin="round"/>
<path d="M474.97 533.054L473.38 504.049L463.202 504.717L460.204 499.504C459.864 498.913 459.408 498.398 458.862 497.99C458.316 497.582 457.693 497.29 457.03 497.133C456.367 496.975 455.679 496.955 455.008 497.074C454.337 497.192 453.697 497.447 453.128 497.822L449.106 502.811C449.106 502.811 434.851 507.998 418.198 514.988C406.794 519.773 400.514 523.997 400.514 523.997L396.713 526.43C396.256 526.71 395.894 527.122 395.675 527.612C395.456 528.102 395.391 528.646 395.487 529.174C395.629 529.853 396.03 530.45 396.606 530.837C396.843 530.988 397.103 531.097 397.376 531.16C398.885 531.543 405.366 533.08 411.037 532.895C419.369 532.624 430.341 533.434 441.819 531.802C449.945 530.647 454.501 529.224 457.205 528.713L457.716 533.044L474.97 533.054Z" fill="#030304" stroke="#030304" stroke-width="0.805422" stroke-linecap="round" stroke-linejoin="round"/>
<path d="M418.181 533.045C418.181 533.045 417.319 527.205 414.995 523.163C412.672 519.122 410.688 518.343 410.688 518.343C410.688 518.343 394.769 525.233 395.416 528.853C396.155 532.98 406.081 532.707 410.189 532.84C414.297 532.973 418.181 533.045 418.181 533.045Z" fill="white" stroke="#1E1F1D" stroke-width="0.805422" stroke-linecap="round" stroke-linejoin="round"/>
<path d="M448.616 509.072C448.616 509.072 446.893 506.413 444.867 504.89C442.84 503.367 439.402 503.417 439.402 503.417" stroke="white" stroke-width="0.805422" stroke-linecap="round" stroke-linejoin="round"/>
<path d="M442.225 512.866C442.225 512.866 440.505 510.207 438.478 508.684C436.452 507.161 433.014 507.214 433.014 507.214" stroke="white" stroke-width="0.805422" stroke-linecap="round" stroke-linejoin="round"/>
<path d="M435.884 516.487C435.884 516.487 434.164 513.829 432.137 512.306C430.111 510.783 426.673 510.833 426.673 510.833" stroke="white" stroke-width="0.805422" stroke-linecap="round" stroke-linejoin="round"/>
<path d="M495.414 158.49V391.212L408.547 390.261L416.183 163.185C416.183 149.02 420.184 133.398 422.987 130.203C427.699 124.836 438.319 120.424 445.299 118.58C449.688 117.421 473.888 122.225 488.778 129.473C500.764 135.306 496.604 149.414 495.414 158.49Z" fill="#5353A0" stroke="#1E1E1C" stroke-width="0.237588" stroke-linecap="round" stroke-linejoin="round"/>
<path d="M417.946 221.403L400.861 223.758C400.265 223.84 399.659 223.726 399.133 223.434C398.608 223.141 398.191 222.687 397.946 222.137L381.564 185.413C381.389 185.02 381.307 184.591 381.326 184.161C381.345 183.73 381.464 183.31 381.673 182.933C381.883 182.557 382.177 182.234 382.532 181.991C382.888 181.747 383.295 181.59 383.722 181.531L401.327 179.105C402.116 178.996 402.919 179.146 403.616 179.531C404.312 179.917 404.866 180.517 405.192 181.244L420.807 216.245C421.041 216.767 421.151 217.337 421.127 217.909C421.103 218.481 420.946 219.04 420.668 219.54C420.39 220.041 420 220.47 419.527 220.794C419.055 221.117 418.513 221.326 417.946 221.403Z" fill="#FFEE95" stroke="#010101" stroke-width="0.698508" stroke-miterlimit="10"/>
<path d="M482.004 211.075L420.398 210.875C420.398 210.875 420.571 208.975 420.669 207.053C420.795 204.634 419.243 202.301 418.16 200.764C417.21 199.402 415.014 196.962 412.933 196.829L411.564 196.741L414.874 203.745L410.07 205.133C409.357 205.338 408.608 205.39 407.873 205.284C407.138 205.179 406.434 204.918 405.808 204.52L394.976 197.63C394.5 197.327 393.925 197.222 393.373 197.337C392.821 197.452 392.336 197.778 392.021 198.245C391.714 198.697 391.591 199.248 391.674 199.788C391.757 200.327 392.042 200.815 392.47 201.153L404.655 210.804L399.084 210.602L388.48 206.589C387.999 206.407 387.467 206.413 386.99 206.605C386.513 206.798 386.125 207.163 385.905 207.628C385.693 208.072 385.649 208.578 385.78 209.052C385.911 209.526 386.208 209.937 386.618 210.21L391.935 212.84L392.778 215.036C393.65 217.768 395.658 218.26 395.658 218.26C395.945 219.709 396.392 220.745 399.787 221.451L411.764 223.826C411.764 223.826 468.654 237.084 483.905 238.692C501.518 240.536 509.638 232.622 511.306 220.379C513.734 202.56 499.826 150.514 499.826 150.514L470.603 154.688L482.004 211.075Z" fill="#F08178" stroke="#1E1E1C" stroke-width="0.201949" stroke-linecap="round" stroke-linejoin="round"/>
<path d="M406.11 216.651L399.146 215.905C398.399 215.826 397.671 215.618 396.996 215.29L391.581 212.66" stroke="#1E1E1C" stroke-width="0.237588" stroke-linecap="round" stroke-linejoin="round"/>
<path d="M406.625 220.379L395.67 218.26" stroke="#1E1E1C" stroke-width="0.237588" stroke-linecap="round" stroke-linejoin="round"/>
<path d="M405.82 204.52L412.37 207.93" stroke="#1E1E1C" stroke-width="0.237588" stroke-linecap="round" stroke-linejoin="round"/>
<path d="M428.405 105.152L432.363 125.04C432.675 126.608 433.305 128.096 434.216 129.41C435.127 130.724 436.299 131.837 437.658 132.679C439.017 133.521 440.535 134.074 442.118 134.305C443.7 134.535 445.313 134.438 446.856 134.018C448.357 133.612 449.761 132.909 450.986 131.952C452.211 130.995 453.233 129.802 453.99 128.444C454.747 127.086 455.226 125.59 455.396 124.045C455.567 122.499 455.427 120.935 454.984 119.445L448.041 96.0757L428.405 105.152Z" fill="#F08178" stroke="#1E1E1C" stroke-width="0.178191" stroke-linecap="round" stroke-linejoin="round"/>
<path d="M424.04 110.863C428.405 108.827 429.961 102.922 427.513 97.6745C425.066 92.4264 419.543 89.8223 415.178 91.8581C410.812 93.8938 409.257 99.7984 411.704 105.046C414.151 110.294 419.674 112.899 424.04 110.863Z" fill="#8E181D" stroke="#1E1E1C" stroke-width="0.178191" stroke-linecap="round" stroke-linejoin="round"/>
<path d="M413.32 98.9241C415.547 105.101 418.704 111.041 423.285 115.807C427.827 120.54 432.902 120.747 438.303 117.031C442.18 114.365 445.993 109.323 447.569 104.956C449.025 100.898 449.992 97.2088 450.263 92.8965C450.398 90.7321 450.058 88.677 449.707 86.5339C449.334 84.2436 447.754 78.083 446.689 78.6152C435.285 84.3173 419.604 76.2013 418.621 74.8636C415.361 79.0998 412.565 84.0915 411.56 89.423C410.949 92.6091 412.263 95.9852 413.32 98.9241Z" fill="#F08178" stroke="#1E1E1C" stroke-width="0.178191" stroke-linecap="round" stroke-linejoin="round"/>
<path d="M430.079 109.849C430.867 109.77 431.619 109.483 432.258 109.017C433.565 108.067 434.002 106.423 434.342 104.957C431.618 106.012 428.833 106.903 426.002 107.625C426.953 109.069 428.233 110.005 430.079 109.849Z" fill="white"/>
<path d="M424.48 93.878C424.352 95.3297 424.401 96.729 424.368 98.1855C424.336 98.6876 424.377 99.1918 424.489 99.6823C424.606 100.176 424.914 100.603 425.345 100.87C426.105 101.295 427.051 100.965 427.854 100.633C427.996 100.592 428.117 100.5 428.193 100.374" stroke="#1E1E1C" stroke-width="0.178191" stroke-linecap="round" stroke-linejoin="round"/>
<path d="M434.147 88.7367C432.585 88.6444 431.019 88.6388 429.457 88.72" stroke="#1E1E1C" stroke-width="0.178191" stroke-linecap="round" stroke-linejoin="round"/>
<path d="M420.091 91.1193L415.848 93.3645" stroke="#1E1E1C" stroke-width="0.178191" stroke-linecap="round" stroke-linejoin="round"/>
<path d="M416.197 69.4756C416.554 71.4167 417.316 72.8351 418.611 74.8641" stroke="#1E1E1C" stroke-width="0.178191" stroke-linecap="round" stroke-linejoin="round"/>
<path d="M434.326 75.919C431.776 76.2688 429.18 75.9959 426.759 75.1237C424.338 74.2515 422.165 72.806 420.424 70.9106" stroke="#1E1E1C" stroke-width="0.178191" stroke-linecap="round" stroke-linejoin="round"/>
<path d="M430.949 94.5694C431.873 94.5694 432.622 93.8206 432.622 92.8968C432.622 91.973 431.873 91.2242 430.949 91.2242C430.025 91.2242 429.276 91.973 429.276 92.8968C429.276 93.8206 430.025 94.5694 430.949 94.5694Z" fill="#1E1F1D"/>
<path d="M418.991 98.6178C419.915 98.6178 420.664 97.869 420.664 96.9452C420.664 96.0214 419.915 95.2726 418.991 95.2726C418.068 95.2726 417.319 96.0214 417.319 96.9452C417.319 97.869 418.068 98.6178 418.991 98.6178Z" fill="#1E1F1D"/>
<path d="M472.05 193.178L513 192.068C513 192.068 505.635 157.302 500.866 143.102C497.616 133.444 489.256 126.582 479.334 128.894C477.028 129.431 474.853 130.424 472.936 131.814C471.019 133.204 469.399 134.963 468.171 136.987C466.944 139.011 466.133 141.261 465.786 143.603C465.439 145.945 465.564 148.333 466.153 150.626L472.05 193.178Z" fill="#5353A0" stroke="#1E1E1C" stroke-width="0.237588" stroke-linecap="round" stroke-linejoin="round"/>
<path d="M451.693 106.548C457.451 105.2 460.765 98.3274 459.096 91.1984C457.427 84.0694 451.405 79.3833 445.647 80.7318C439.889 82.0802 436.575 88.9525 438.244 96.0815C439.913 103.21 445.935 107.897 451.693 106.548Z" fill="#8E181D" stroke="#1E1E1C" stroke-width="0.178191" stroke-linecap="round" stroke-linejoin="round"/>
<path d="M452.949 102.624C457.1 101.652 459.489 96.6973 458.286 91.5575C457.082 86.4177 452.741 83.0391 448.591 84.0112C444.44 84.9832 442.05 89.9378 443.254 95.0776C444.458 100.217 448.798 103.596 452.949 102.624Z" fill="#BC3C46" stroke="#1E1E1C" stroke-width="0.178191" stroke-linecap="round" stroke-linejoin="round"/>
<path d="M445.407 119.716C444.161 120.721 442.747 121.497 441.23 122.006L440.992 121.293C445.806 119.671 449.239 115.354 450.405 109.438C451.857 102.084 451.593 90.9628 451.593 90.8512L452.351 90.8322C452.351 90.9438 452.608 102.148 451.14 109.585C450.291 113.892 448.274 117.402 445.407 119.716Z" fill="#1E1E1C"/>
<path d="M439.031 119.86L435.121 121.12C434.017 121.476 433.41 122.659 433.766 123.763L433.817 123.924C434.173 125.028 435.357 125.635 436.461 125.279L440.371 124.019C441.475 123.663 442.081 122.48 441.725 121.376L441.674 121.215C441.318 120.111 440.135 119.505 439.031 119.86Z" fill="#BCADD5" stroke="#1E1E1C" stroke-width="0.251843" stroke-linecap="round" stroke-linejoin="round"/>
<path d="M449.172 90.4923C448.296 84.9233 447.607 78.9004 440.605 69.6345C432.218 58.5344 420.101 63.1674 420.101 63.1674L427.386 59.9077C427.386 59.9077 436.217 57.9452 444.82 67.9857C450.869 75.0397 454.299 84.5812 455.133 90.7798C455.328 92.2196 455.152 96.021 452.66 96.0329C450.168 96.0448 449.41 92.1056 449.172 90.4923Z" fill="#C5452B" stroke="#1E1E1C" stroke-width="0.251843" stroke-miterlimit="10"/>
<path fill-rule="evenodd" clip-rule="evenodd" d="M202.794 71.9391C204.274 71.9371 205.694 72.5224 206.743 73.5666L205.345 74.966C205.01 74.6318 204.612 74.367 204.174 74.1869C203.736 74.0067 203.267 73.9146 202.794 73.9158C201.833 73.9158 200.911 74.2976 200.232 74.977C199.552 75.6565 199.171 76.5781 199.171 77.539C199.171 78.5 199.552 79.4215 200.232 80.101C200.911 80.7805 201.833 81.1622 202.794 81.1622C203.749 81.1637 204.666 80.788 205.345 80.1169L206.743 81.5139C205.694 82.558 204.274 83.1434 202.794 83.1413C201.308 83.1407 199.884 82.5502 198.834 81.4996C197.784 80.4491 197.194 79.0244 197.194 77.539C197.194 76.0538 197.784 74.6295 198.834 73.5793C199.884 72.5291 201.309 71.9391 202.794 71.9391Z" fill="white"/>
<path fill-rule="evenodd" clip-rule="evenodd" d="M213.338 71.9391C214.805 71.9363 216.215 72.5094 217.265 73.5353C218.314 74.5611 218.919 75.9578 218.95 77.425V82.8016H216.973V81.8014C215.961 82.662 214.676 83.1338 213.347 83.1318C211.862 83.1312 210.437 82.5408 209.387 81.4903C208.336 80.4398 207.746 79.0152 207.745 77.5295C207.749 76.0476 208.339 74.6275 209.388 73.5798C210.436 72.5322 211.856 71.9422 213.338 71.9391ZM213.338 73.9158C212.862 73.9155 212.391 74.009 211.951 74.191C211.511 74.373 211.112 74.6398 210.775 74.9763C210.439 75.3129 210.172 75.7124 209.99 76.1521C209.808 76.5919 209.714 77.0631 209.715 77.539C209.715 78.5 210.096 79.4215 210.776 80.101C211.455 80.7805 212.377 81.1622 213.338 81.1622C214.299 81.1622 215.221 80.7806 215.901 80.1012C216.581 79.4218 216.963 78.5002 216.963 77.539C216.963 77.063 216.87 76.5917 216.687 76.1519C216.505 75.7122 216.238 75.3127 215.901 74.9762C215.565 74.6397 215.165 74.3729 214.725 74.1909C214.285 74.009 213.814 73.9155 213.338 73.9158Z" fill="white"/>
<path d="M224.212 69.6324C224.212 69.4592 224.178 69.2878 224.112 69.1278C224.046 68.9678 223.949 68.8224 223.826 68.7C223.704 68.5775 223.558 68.4804 223.398 68.4142C223.238 68.3479 223.067 68.3138 222.894 68.3138C222.545 68.3144 222.21 68.4536 221.963 68.7008C221.716 68.9481 221.578 69.2831 221.578 69.6324V85.4486C221.578 85.7979 221.716 86.1329 221.963 86.3802C222.21 86.6274 222.545 86.7666 222.894 86.7672C223.067 86.7672 223.238 86.7331 223.398 86.6668C223.558 86.6006 223.704 86.5034 223.826 86.381C223.949 86.2586 224.046 86.1132 224.112 85.9532C224.178 85.7932 224.212 85.6218 224.212 85.4486V69.6324Z" fill="white"/>
<path d="M233.442 73.5859C233.442 73.2364 233.303 72.9013 233.056 72.6542C232.808 72.407 232.473 72.2679 232.124 72.2673C231.775 72.2679 231.44 72.4071 231.193 72.6543C230.946 72.9015 230.808 73.2366 230.808 73.5859V81.4928C230.807 81.6658 230.841 81.8373 230.907 81.9972C230.973 82.1572 231.07 82.3026 231.192 82.4251C231.315 82.5475 231.46 82.6447 231.62 82.711C231.779 82.7773 231.951 82.8114 232.124 82.8114C232.474 82.8114 232.809 82.6725 233.056 82.4252C233.304 82.1779 233.442 81.8425 233.442 81.4928V73.5859Z" fill="white"/>
<path d="M238.049 77.5389C238.049 77.1896 237.911 76.8545 237.664 76.6073C237.417 76.3601 237.082 76.2209 236.733 76.2203C236.56 76.2203 236.389 76.2544 236.229 76.3206C236.069 76.3869 235.923 76.484 235.801 76.6065C235.678 76.7289 235.581 76.8743 235.515 77.0343C235.449 77.1943 235.415 77.3657 235.415 77.5389C235.415 77.7121 235.449 77.8835 235.515 78.0435C235.581 78.2035 235.678 78.3488 235.801 78.4713C235.923 78.5937 236.069 78.6909 236.229 78.7571C236.389 78.8234 236.56 78.8575 236.733 78.8575C237.082 78.8569 237.417 78.7177 237.664 78.4704C237.911 78.2232 238.049 77.8882 238.049 77.5389Z" fill="white"/>
<path d="M228.824 65.6788C228.824 65.5052 228.79 65.3333 228.724 65.1729C228.658 65.0125 228.56 64.8667 228.438 64.744C228.315 64.6213 228.169 64.524 228.009 64.4577C227.848 64.3914 227.676 64.3575 227.503 64.3578C227.153 64.3584 226.818 64.4975 226.571 64.7447C226.324 64.9918 226.185 65.3269 226.184 65.6764V89.3995C226.183 89.5736 226.216 89.7462 226.282 89.9074C226.347 90.0686 226.444 90.2153 226.567 90.3389C226.689 90.4626 226.835 90.5608 226.996 90.6279C227.156 90.695 227.329 90.7297 227.503 90.73C227.852 90.7294 228.187 90.5902 228.434 90.343C228.68 90.0957 228.819 89.7607 228.819 89.4114L228.824 65.6788Z" fill="white"/>
<path fill-rule="evenodd" clip-rule="evenodd" d="M249.254 82.8111V81.8109C248.243 82.671 246.958 83.1427 245.631 83.1413C244.145 83.1413 242.719 82.5512 241.668 81.5006C240.617 80.45 240.027 79.0251 240.026 77.539C240.026 76.8033 240.171 76.0749 240.453 75.3953C240.735 74.7157 241.148 74.0983 241.668 73.5783C242.189 73.0583 242.807 72.6459 243.487 72.3646C244.166 72.0834 244.895 71.9388 245.631 71.9391C246.958 71.9378 248.243 72.4095 249.254 73.2696V72.267H251.231V82.8111C251.231 84.2786 250.655 85.6876 249.628 86.7352C248.6 87.7828 247.202 88.3854 245.735 88.4134H245.602C244.126 88.4091 242.711 87.8185 241.67 86.7717L243.065 85.3747C243.401 85.7117 243.802 85.979 244.242 86.1613C244.682 86.3435 245.154 86.4371 245.631 86.4367C246.575 86.4358 247.482 86.0664 248.159 85.4071C248.836 84.7478 249.228 83.8505 249.254 82.9061V82.8111ZM245.631 73.9158C245.154 73.9146 244.682 74.0073 244.241 74.1888C243.8 74.3703 243.399 74.637 243.062 74.9735C242.724 75.3101 242.456 75.7099 242.273 76.1501C242.09 76.5903 241.996 77.0623 241.995 77.539C241.996 78.0151 242.09 78.4865 242.272 78.9263C242.455 79.3661 242.722 79.7656 243.059 80.102C243.396 80.4385 243.796 80.7053 244.236 80.8872C244.676 81.0691 245.147 81.1625 245.623 81.1622C246.584 81.1622 247.506 80.7805 248.185 80.101C248.865 79.4215 249.247 78.5 249.247 77.539C249.247 76.5793 248.866 75.6588 248.188 74.9795C247.51 74.3003 246.59 73.9177 245.631 73.9158Z" fill="white"/>
<path fill-rule="evenodd" clip-rule="evenodd" d="M258.152 71.9391C259.617 71.9394 261.024 72.514 262.07 73.5396C263.117 74.5652 263.719 75.9601 263.749 77.425V78.5179H254.659C254.873 79.2793 255.33 79.9498 255.961 80.4272C256.591 80.9046 257.361 81.1627 258.152 81.1622C258.628 81.1633 259.099 81.0702 259.539 80.8884C259.979 80.7065 260.379 80.4395 260.715 80.1026L262.115 81.4996C261.595 82.0208 260.977 82.4341 260.297 82.7159C259.617 82.9976 258.888 83.1422 258.152 83.1413C256.666 83.1407 255.242 82.5502 254.192 81.4996C253.142 80.4491 252.552 79.0244 252.552 77.539C252.552 76.0538 253.142 74.6295 254.192 73.5793C255.242 72.5291 256.667 71.9391 258.152 71.9391ZM258.152 73.9158C257.363 73.9158 256.596 74.173 255.966 74.6485C255.337 75.124 254.88 75.7918 254.664 76.5507H261.639C261.424 75.7916 260.967 75.1236 260.338 74.648C259.708 74.1725 258.941 73.9154 258.152 73.9158Z" fill="white"/>
<path fill-rule="evenodd" clip-rule="evenodd" d="M270.67 71.9391C272.136 71.9388 273.544 72.513 274.591 73.5386C275.638 74.5642 276.242 75.9594 276.272 77.425V82.8016H274.308V81.8013C273.296 82.662 272.01 83.1337 270.682 83.1318C269.196 83.1318 267.771 82.5416 266.72 81.491C265.67 80.4403 265.08 79.0153 265.08 77.5295C265.083 76.0478 265.673 74.6277 266.72 73.58C267.768 72.5322 269.188 71.9422 270.67 71.9391ZM270.67 73.9158C270.194 73.9155 269.723 74.009 269.283 74.1909C268.843 74.3729 268.443 74.6397 268.107 74.9762C267.77 75.3127 267.503 75.7122 267.32 76.1519C267.138 76.5917 267.044 77.063 267.044 77.539C267.045 78.5002 267.427 79.4218 268.107 80.1012C268.787 80.7806 269.709 81.1622 270.67 81.1622C271.147 81.1638 271.619 81.0713 272.061 80.8899C272.502 80.7085 272.903 80.4419 273.241 80.1054C273.578 79.7688 273.847 79.3689 274.03 78.9285C274.213 78.4881 274.307 78.0159 274.308 77.539C274.307 77.0621 274.213 76.5899 274.03 76.1496C273.847 75.7092 273.578 75.3093 273.241 74.9727C272.903 74.6361 272.502 74.3695 272.061 74.1882C271.619 74.0068 271.147 73.9143 270.67 73.9158Z" fill="white"/>
<path fill-rule="evenodd" clip-rule="evenodd" d="M283.521 71.9391V73.9158C282.56 73.9158 281.639 74.2975 280.959 74.977C280.28 75.6565 279.898 76.5781 279.898 77.539V82.8111H277.921V72.267H279.898V73.2696C280.872 72.4411 282.101 71.9715 283.379 71.9391H283.521Z" fill="white"/>
<path d="M338.775 70.4044H319.668C316.109 70.4044 313.225 73.2892 313.225 76.8478C313.225 80.4064 316.109 83.2912 319.668 83.2912H338.775C342.333 83.2912 345.218 80.4064 345.218 76.8478C345.218 73.2892 342.333 70.4044 338.775 70.4044Z" fill="white"/>
<path d="M374.237 70.4044H355.13C351.572 70.4044 348.687 73.2892 348.687 76.8478C348.687 80.4064 351.572 83.2912 355.13 83.2912H374.237C377.796 83.2912 380.681 80.4064 380.681 76.8478C380.681 73.2892 377.796 70.4044 374.237 70.4044Z" fill="white"/>
<path d="M355.988 163.522C366.917 163.522 375.777 154.663 375.777 143.734C375.777 132.805 366.917 123.945 355.988 123.945C345.059 123.945 336.199 132.805 336.199 143.734C336.199 154.663 345.059 163.522 355.988 163.522Z" fill="#E8A3AB" stroke="#1E1E1C" stroke-width="0.156808" stroke-linecap="round" stroke-linejoin="round"/>
<path d="M354.206 162.543C354.206 162.543 347.43 161.391 345.351 160.405C344.639 160.065 342.726 158.452 342.726 158.452C343.382 156.33 345.038 153.679 346.527 152.037C349.089 149.214 351.042 149.286 353.553 149.873C353.553 149.873 355.606 155.349 354.765 158.621L354.206 162.543Z" fill="#5353A0" stroke="#1E1E1C" stroke-width="0.0807798" stroke-linecap="round" stroke-linejoin="round"/>
<path d="M349.582 141.692C349.518 142.151 349.437 142.607 349.345 143.056C348.791 145.577 347.682 148.262 348.739 150.618C349.582 152.519 351.59 153.579 353.507 154.351C354.833 154.881 356.218 155.344 357.646 155.361C359.074 155.377 359.924 154.736 361.172 154.232C362.231 153.809 363.286 153.693 364.272 153.03C366.285 151.678 367.34 149.167 367.285 146.743C367.227 145.21 366.833 143.708 366.133 142.343C365.463 140.994 364.541 140.205 364.641 138.625C364.726 137.249 365.275 135.94 365.406 134.569C365.776 130.768 362.505 127.116 358.677 127.059C358.109 127.058 357.547 127.174 357.026 127.401C356.453 127.639 356.104 127.518 355.474 127.542C354.296 127.589 353.152 127.951 352.162 128.591C351.172 129.231 350.371 130.125 349.844 131.179C348.934 133.094 349.202 134.61 349.525 136.558C349.802 138.257 349.821 139.988 349.582 141.692Z" fill="#BBADD5" stroke="#1E1E1C" stroke-width="0.0593969" stroke-linecap="round" stroke-linejoin="round"/>
<path d="M366.91 160.229C368.366 159.089 372.004 152.548 369.782 150.863C364.741 148.409 356.546 146.782 355.052 147.176C352.676 147.801 349.091 149.293 347.496 151.11C346.672 152.061 345.541 156.164 345.258 160.376C348.452 162.442 352.175 163.537 355.978 163.532C358.274 163.534 360.552 163.136 362.712 162.356C362.712 162.356 365.579 161.27 366.91 160.229Z" fill="#5353A0" stroke="#1E1E1C" stroke-width="0.0807798" stroke-linecap="round" stroke-linejoin="round"/>
<path d="M369.782 150.863C371.538 151.719 372.27 153.097 372.503 154.636C372.697 154.34 372.884 154.037 373.063 153.726C372.321 152.432 371.165 151.424 369.782 150.863Z" fill="#5353A0" stroke="#1E1E1C" stroke-width="0.0807798" stroke-linecap="round" stroke-linejoin="round"/>
<path d="M373.063 153.726C372.37 152.489 371.538 151.719 369.782 150.863C368.76 150.478 367.644 150.409 366.582 150.666C363.294 151.434 363.054 153.897 363.579 157.483L364.109 161.783C367.442 160.205 370.483 157.989 373.063 153.726Z" fill="#5353A0" stroke="#1E1E1C" stroke-width="0.0807798" stroke-linecap="round" stroke-linejoin="round"/>
<path d="M353.835 142.025L353.296 148.87C353.253 149.409 353.322 149.952 353.498 150.464C353.674 150.975 353.953 151.446 354.318 151.845C354.683 152.244 355.127 152.564 355.621 152.785C356.115 153.005 356.649 153.122 357.19 153.128C357.717 153.133 358.239 153.034 358.726 152.835C359.214 152.635 359.656 152.341 360.028 151.968C360.4 151.595 360.693 151.152 360.891 150.664C361.088 150.176 361.186 149.653 361.179 149.127L361.067 140.873L353.835 142.025Z" fill="#F08178" stroke="#1E1E1C" stroke-width="0.0593969" stroke-linecap="round" stroke-linejoin="round"/>
<path d="M351.891 143.497C353.501 143.235 354.551 141.454 354.236 139.519C353.921 137.584 352.361 136.228 350.751 136.49C349.141 136.751 348.092 138.532 348.406 140.467C348.721 142.402 350.281 143.758 351.891 143.497Z" fill="#8E181D" stroke="#1E1E1C" stroke-width="0.0593969" stroke-linecap="round" stroke-linejoin="round"/>
<path d="M349.492 138.609C349.649 140.828 350.134 143.051 351.186 145.023C352.239 146.995 353.866 147.518 355.969 146.803C357.608 146.184 359.039 145.113 360.096 143.714C360.935 142.591 361.604 141.35 362.082 140.032C362.297 139.342 362.433 138.629 362.486 137.908C362.576 137.126 362.628 134.971 362.232 135.057C357.993 135.867 353.626 131.78 353.429 131.255C351.977 132.336 350.606 133.707 349.789 135.351C349.3 136.332 349.419 137.554 349.492 138.609Z" fill="#F08178" stroke="#1E1E1C" stroke-width="0.0593969" stroke-linecap="round" stroke-linejoin="round"/>
<path d="M353.949 143.712C354.213 143.759 354.485 143.734 354.736 143.641C355.249 143.453 355.544 142.957 355.788 142.51C354.804 142.603 353.814 142.637 352.826 142.612C353.001 143.168 353.334 143.591 353.949 143.712Z" fill="white"/>
<path d="M353.593 137.988C353.417 138.452 353.303 138.915 353.161 139.383C353.104 139.544 353.07 139.712 353.061 139.882C353.057 139.968 353.069 140.055 353.099 140.137C353.128 140.218 353.173 140.293 353.232 140.357C353.441 140.566 353.778 140.545 354.071 140.507C354.121 140.508 354.169 140.489 354.206 140.454" stroke="#1E1E1C" stroke-width="0.0593969" stroke-linecap="round" stroke-linejoin="round"/>
<path d="M357.226 137.202C356.726 137.029 356.217 136.884 355.701 136.768" stroke="#1E1E1C" stroke-width="0.0593969" stroke-linecap="round" stroke-linejoin="round"/>
<path d="M352.417 136.687L350.828 137.029" stroke="#1E1E1C" stroke-width="0.0593969" stroke-linecap="round" stroke-linejoin="round"/>
<path d="M353.139 129.274C353.078 129.939 353.194 130.473 353.429 131.253" stroke="#1E1E1C" stroke-width="0.0593969" stroke-linecap="round" stroke-linejoin="round"/>
<path d="M358.454 133.042C357.589 132.923 356.766 132.596 356.055 132.089C355.345 131.582 354.768 130.911 354.375 130.131" stroke="#1E1E1C" stroke-width="0.0593969" stroke-linecap="round" stroke-linejoin="round"/>
<path d="M355.793 138.83C356.105 138.83 356.358 138.577 356.358 138.264C356.358 137.952 356.105 137.699 355.793 137.699C355.481 137.699 355.228 137.952 355.228 138.264C355.228 138.577 355.481 138.83 355.793 138.83Z" fill="#1E1F1D"/>
<path d="M351.523 139.051C351.836 139.051 352.089 138.797 352.089 138.485C352.089 138.173 351.836 137.92 351.523 137.92C351.211 137.92 350.958 138.173 350.958 138.485C350.958 138.797 351.211 139.051 351.523 139.051Z" fill="#1E1F1D"/>
<path d="M365.078 140.285C365.19 137.808 363.66 135.728 361.659 135.637C359.659 135.547 357.947 137.481 357.835 139.957C357.723 142.433 359.253 144.514 361.254 144.604C363.254 144.695 364.966 142.761 365.078 140.285Z" fill="#8E181D" stroke="#1E1E1C" stroke-width="0.0593969" stroke-linecap="round" stroke-linejoin="round"/>
<path d="M364.781 140.327C364.862 138.541 363.759 137.041 362.317 136.976C360.875 136.911 359.641 138.305 359.56 140.091C359.479 141.876 360.582 143.376 362.024 143.441C363.466 143.507 364.701 142.112 364.781 140.327Z" fill="#BC3C46" stroke="#1E1E1C" stroke-width="0.0593969" stroke-linecap="round" stroke-linejoin="round"/>
<path d="M358.036 148.333C357.538 148.547 357.007 148.672 356.465 148.701L356.451 148.445C358.169 148.359 359.685 147.257 360.609 145.446C361.759 143.185 362.7 139.535 362.709 139.507L362.947 139.571C362.947 139.607 361.996 143.282 360.828 145.57C360.162 146.886 359.183 147.844 358.036 148.333Z" fill="#1E1E1C"/>
<path d="M355.946 147.786L354.555 147.837C354.163 147.851 353.857 148.181 353.871 148.573L353.873 148.632C353.888 149.024 354.217 149.33 354.609 149.316L356.001 149.265C356.393 149.251 356.699 148.921 356.685 148.529L356.682 148.47C356.668 148.078 356.339 147.771 355.946 147.786Z" fill="#BCADD5" stroke="#1E1E1C" stroke-width="0.0855315" stroke-linecap="round" stroke-linejoin="round"/>
<path d="M361.949 139.155C362.175 137.255 362.505 135.235 361.075 131.572C359.364 127.181 354.988 127.578 354.988 127.578L357.661 127.186C357.661 127.186 360.721 127.357 362.602 131.417C363.761 134.048 364.201 136.938 363.878 139.795C363.809 140.27 363.403 141.505 362.588 141.279C361.773 141.054 361.883 139.707 361.949 139.155Z" fill="#C5452B" stroke="#1E1E1C" stroke-width="0.0855315" stroke-miterlimit="10"/>
<path d="M314.244 123.945H210.876C203.003 123.945 196.621 130.327 196.621 138.2V171.909C196.621 179.782 203.003 186.164 210.876 186.164H314.244C322.117 186.164 328.499 179.782 328.499 171.909V138.2C328.499 130.327 322.117 123.945 314.244 123.945Z" fill="#BC3C46" stroke="#1E1E1C" stroke-width="0.118794" stroke-linecap="round" stroke-linejoin="round"/>
<path d="M269.128 134.467H208.914C207.616 134.467 206.564 135.519 206.564 136.817V144.458C206.564 145.756 207.616 146.808 208.914 146.808H269.128C270.426 146.808 271.478 145.756 271.478 144.458V136.817C271.478 135.519 270.426 134.467 269.128 134.467Z" fill="white" stroke="#1E1E1C" stroke-width="0.166311" stroke-linecap="round" stroke-linejoin="round"/>
<path d="M307.496 134.467H279.739C278.441 134.467 277.389 135.519 277.389 136.817V144.458C277.389 145.756 278.441 146.808 279.739 146.808H307.496C308.794 146.808 309.846 145.756 309.846 144.458V136.817C309.846 135.519 308.794 134.467 307.496 134.467Z" fill="white" stroke="#1E1E1C" stroke-width="0.118794" stroke-linecap="round" stroke-linejoin="round"/>
<path d="M293.122 159.272H209.258C207.77 159.272 206.564 160.478 206.564 161.966V161.968C206.564 163.456 207.77 164.662 209.258 164.662H293.122C294.61 164.662 295.816 163.456 295.816 161.968V161.966C295.816 160.478 294.61 159.272 293.122 159.272Z" fill="#8F303D" stroke="#1E1E1C" stroke-width="0.178191" stroke-linecap="round" stroke-linejoin="round"/>
<path d="M316.168 159.272H302.348C300.86 159.272 299.653 160.478 299.653 161.966V161.968C299.653 163.456 300.86 164.662 302.348 164.662H316.168C317.656 164.662 318.862 163.456 318.862 161.968V161.966C318.862 160.478 317.656 159.272 316.168 159.272Z" fill="#8F303D" stroke="#1E1E1C" stroke-width="0.178191" stroke-linecap="round" stroke-linejoin="round"/>
<path d="M245.288 169.509H209.258C207.77 169.509 206.564 170.716 206.564 172.204V172.206C206.564 173.694 207.77 174.9 209.258 174.9H245.288C246.776 174.9 247.983 173.694 247.983 172.206V172.204C247.983 170.716 246.776 169.509 245.288 169.509Z" fill="#8F303D" stroke="#1E1E1C" stroke-width="0.178191" stroke-linecap="round" stroke-linejoin="round"/>
<path d="M361.792 217.165H257.897C250.17 217.165 243.906 223.429 243.906 231.156V302.837C243.906 310.564 250.17 316.828 257.897 316.828H361.792C369.519 316.828 375.784 310.564 375.784 302.837V231.156C375.784 223.429 369.519 217.165 361.792 217.165Z" fill="#E8E8E8" stroke="#1E1E1C" stroke-width="0.152056" stroke-linecap="round" stroke-linejoin="round"/>
<path d="M262.318 253.789L258.443 265.524H253.462L266.139 228.22H271.951L284.681 265.529H279.534L275.545 253.795L262.318 253.789ZM274.551 250.025L270.898 239.286C270.068 236.85 269.515 234.637 268.961 232.478H268.85C268.297 234.691 267.688 236.961 266.969 239.23L263.311 250.025H274.551Z" fill="#9A9999"/>
<path d="M366.753 228.216H299.348V252.87H366.753V228.216Z" fill="#BFBEBE"/>
<path d="M366.753 257.422H299.348V266.901H366.753V257.422Z" fill="#9A9999"/>
<path d="M339.946 277.319H256.082C254.594 277.319 253.388 278.526 253.388 280.014V280.016C253.388 281.504 254.594 282.71 256.082 282.71H339.946C341.434 282.71 342.64 281.504 342.64 280.016V280.014C342.64 278.526 341.434 277.319 339.946 277.319Z" fill="#BFBEBE" stroke="#1E1E1C" stroke-width="0.178191" stroke-linecap="round" stroke-linejoin="round"/>
<path d="M364.593 298.194H256.291C254.803 298.194 253.597 299.4 253.597 300.888V300.891C253.597 302.379 254.803 303.585 256.291 303.585H364.593C366.081 303.585 367.287 302.379 367.287 300.891V300.888C367.287 299.4 366.081 298.194 364.593 298.194Z" fill="#BFBEBE" stroke="#1E1E1C" stroke-width="0.178191" stroke-linecap="round" stroke-linejoin="round"/>
<path d="M292.112 287.557H256.082C254.594 287.557 253.388 288.764 253.388 290.252V290.254C253.388 291.742 254.594 292.948 256.082 292.948H292.112C293.6 292.948 294.806 291.742 294.806 290.254V290.252C294.806 288.764 293.6 287.557 292.112 287.557Z" fill="#BFBEBE" stroke="#1E1E1C" stroke-width="0.178191" stroke-linecap="round" stroke-linejoin="round"/>
<path d="M338.988 287.557H302.958C301.47 287.557 300.264 288.764 300.264 290.252V290.254C300.264 291.742 301.47 292.948 302.958 292.948H338.988C340.476 292.948 341.682 291.742 341.682 290.254V290.252C341.682 288.764 340.476 287.557 338.988 287.557Z" fill="#BFBEBE" stroke="#1E1E1C" stroke-width="0.178191" stroke-linecap="round" stroke-linejoin="round"/>
<path d="M216.963 256.963C227.892 256.963 236.752 248.103 236.752 237.174C236.752 226.245 227.892 217.386 216.963 217.386C206.035 217.386 197.175 226.245 197.175 237.174C197.175 248.103 206.035 256.963 216.963 256.963Z" fill="#BC3C46" stroke="#1E1E1C" stroke-width="0.156808" stroke-linecap="round" stroke-linejoin="round"/>
<path d="M230.149 251.788C229.664 252.233 229.157 252.652 228.629 253.045C229.2 252.71 229.713 252.286 230.149 251.788Z" fill="#1E1E1C"/>
<path d="M227.234 227.611C226.386 224.572 224.673 223.893 223.625 223.777C222.927 222.622 221.012 220.773 216.346 222.781C215.757 223.035 215.236 223.278 214.78 223.506C214.717 222.528 214.284 221.61 213.569 220.94C212.854 220.269 211.911 219.895 210.931 219.894C209.907 219.894 208.925 220.301 208.201 221.025C207.477 221.749 207.07 222.731 207.07 223.755C207.071 224.583 207.338 225.39 207.832 226.055C208.325 226.72 209.02 227.209 209.812 227.45C209.696 227.504 209.575 227.559 209.43 227.614C206.909 228.581 202.152 229.277 199.42 236.057C197.104 241.805 200.47 242.947 199.249 246.302C200.92 249.516 203.442 252.21 206.539 254.09C209.635 255.97 213.189 256.963 216.811 256.963C219.631 256.966 222.419 256.365 224.987 255.2C224.676 254.397 224.355 253.537 224.037 252.655C225.545 253.582 227.125 253.924 228.598 253.062L228.624 253.045C229.152 252.652 229.66 252.233 230.145 251.788C235.194 246.019 228.408 231.809 227.234 227.611Z" fill="#1E1E1C"/>
<path d="M216.949 256.963C219.884 256.965 222.782 256.314 225.433 255.056C228.084 253.798 230.422 251.965 232.276 249.69L229.584 244.701L218.071 242.919L214.428 243.318L206.871 244.421L206.856 244.297L204.564 244.758L203.594 244.898V244.95L200.834 245.506L200.235 247.79C202.021 250.604 204.491 252.921 207.413 254.525C210.335 256.128 213.616 256.967 216.949 256.963Z" fill="#54529F" stroke="#1E1E1C" stroke-width="0.0974109" stroke-miterlimit="10"/>
<path d="M230.841 244.924L225.376 243.896L224.809 255.345C226.611 254.568 228.288 253.527 229.784 252.256L230.841 244.924Z" fill="#88CFE6" stroke="#1E1E1C" stroke-width="0.0974109" stroke-miterlimit="10"/>
<path d="M200.712 245.371L201.188 249.118C203.803 252.575 207.481 255.079 211.656 256.245L210.943 243.575L200.712 245.371Z" fill="#88CFE6" stroke="#1E1E1C" stroke-width="0.0974109" stroke-miterlimit="10"/>
<path d="M214.887 233.188L212.934 243.112C212.834 243.683 212.856 244.269 212.998 244.832C213.141 245.394 213.401 245.92 213.761 246.374C214.122 246.829 214.575 247.202 215.09 247.469C215.605 247.735 216.17 247.89 216.75 247.923C217.763 247.98 218.761 247.661 219.553 247.026C220.345 246.391 220.874 245.486 221.038 244.485L222.535 235.352L214.887 233.188Z" fill="#F08378" stroke="#1E1E1C" stroke-width="0.102163" stroke-miterlimit="10"/>
<path d="M215.148 233.428L215.177 224.951L221.962 225.331C222.911 225.384 223.803 225.798 224.457 226.487C225.111 227.176 225.478 228.089 225.481 229.039C225.481 231.776 225.467 235.312 225.312 236.566C225.046 238.721 223.174 241.225 220.061 240.985C217.498 240.788 214.913 238.797 214.533 236.331C212.587 237.141 212.193 233.905 213.205 233.242C213.499 233.042 213.855 232.95 214.21 232.984C214.565 233.018 214.897 233.175 215.148 233.428Z" fill="#F08378" stroke="#1E1E1C" stroke-width="0.102163" stroke-miterlimit="10"/>
<path d="M217.762 231.294C218.648 229.757 220.069 230.508 220.069 230.508" stroke="#1E1E1C" stroke-width="0.211453" stroke-linecap="round" stroke-linejoin="round"/>
<path d="M222.772 230.432C223.566 229.458 224.616 230.301 224.616 230.301" stroke="#1E1E1C" stroke-width="0.211453" stroke-linecap="round" stroke-linejoin="round"/>
<path d="M221.58 232.111C221.58 232.111 222.53 233.537 222.457 234.249C222.383 234.962 221.345 234.858 221.345 234.858" stroke="#1E1E1C" stroke-width="0.211453" stroke-linecap="round" stroke-linejoin="round"/>
<path d="M219.444 232.955C219.754 232.955 220.005 232.703 220.005 232.394C220.005 232.084 219.754 231.833 219.444 231.833C219.134 231.833 218.883 232.084 218.883 232.394C218.883 232.703 219.134 232.955 219.444 232.955Z" fill="#1E1E1C"/>
<path d="M223.502 232.615C223.812 232.615 224.063 232.364 224.063 232.054C224.063 231.745 223.812 231.494 223.502 231.494C223.192 231.494 222.941 231.745 222.941 232.054C222.941 232.364 223.192 232.615 223.502 232.615Z" fill="#1E1E1C"/>
<path d="M214.139 236.604C214.851 236.604 215.429 236.026 215.429 235.314C215.429 234.601 214.851 234.024 214.139 234.024C213.426 234.024 212.849 234.601 212.849 235.314C212.849 236.026 213.426 236.604 214.139 236.604Z" fill="#C3472C" stroke="#1E1E1C" stroke-width="0.102163" stroke-miterlimit="10"/>
<path d="M223.918 224.898C223.918 224.898 220.076 230.507 213.635 231.429C210.071 231.938 208.883 228.759 208.883 228.759C208.883 228.759 212.354 223.729 213.607 223.491C214.859 223.254 223.918 224.898 223.918 224.898Z" fill="#1E1E1C"/>
<path d="M221.729 236.552L218.641 236.271C218.641 236.271 218.738 237.714 220.088 237.906C221.273 238.075 221.729 236.552 221.729 236.552Z" fill="white" stroke="#1E1E1C" stroke-width="0.102163" stroke-linecap="round" stroke-linejoin="round"/>
<path d="M408.999 303.637L214.324 340.703C206.59 342.175 201.514 349.639 202.987 357.373L209.291 390.487C210.764 398.221 218.227 403.297 225.961 401.824L420.636 364.758C428.37 363.286 433.446 355.822 431.973 348.088L425.669 314.974C424.196 307.24 416.733 302.164 408.999 303.637Z" fill="#8A1720" stroke="#1E1E1C" stroke-width="0.118794" stroke-linecap="round" stroke-linejoin="round"/>
<path d="M275.087 339.846L215.936 351.109C214.661 351.351 213.824 352.582 214.067 353.856L215.496 361.362C215.739 362.637 216.969 363.474 218.244 363.231L277.395 351.969C278.67 351.726 279.507 350.496 279.264 349.221L277.835 341.715C277.592 340.44 276.362 339.604 275.087 339.846Z" fill="white" stroke="#1E1E1C" stroke-width="0.166311" stroke-linecap="round" stroke-linejoin="round"/>
<path d="M312.778 332.67L285.511 337.862C284.236 338.105 283.399 339.335 283.642 340.61L285.071 348.116C285.314 349.39 286.544 350.227 287.819 349.984L315.087 344.793C316.361 344.55 317.198 343.32 316.955 342.045L315.526 334.539C315.283 333.264 314.053 332.427 312.778 332.67Z" fill="white" stroke="#1E1E1C" stroke-width="0.118794" stroke-linecap="round" stroke-linejoin="round"/>
<path d="M391.056 317.766L322.699 330.781C320.862 331.131 319.57 332.448 319.813 333.722L321.242 341.228C321.484 342.503 323.17 343.253 325.007 342.903L393.365 329.888C395.202 329.538 396.494 328.221 396.251 326.947L394.822 319.441C394.579 318.166 392.893 317.416 391.056 317.766Z" fill="white" stroke="#1E1E1C" stroke-width="0.118794" stroke-linecap="round" stroke-linejoin="round"/>
<path d="M303.297 359.724L220.914 375.41C219.452 375.688 218.493 377.099 218.771 378.561L218.771 378.563C219.05 380.025 220.46 380.984 221.922 380.706L304.306 365.02C305.768 364.742 306.727 363.331 306.449 361.869L306.448 361.867C306.17 360.405 304.759 359.446 303.297 359.724Z" fill="#BC3C46" stroke="#1E1E1C" stroke-width="0.178191" stroke-linecap="round" stroke-linejoin="round"/>
<path d="M374.54 356.581L292.156 372.266C290.695 372.545 289.735 373.955 290.014 375.417L290.014 375.419C290.292 376.881 291.703 377.84 293.165 377.562L375.548 361.876C377.01 361.598 377.97 360.187 377.691 358.726L377.691 358.723C377.412 357.262 376.002 356.302 374.54 356.581Z" fill="#BC3C46" stroke="#1E1E1C" stroke-width="0.178191" stroke-linecap="round" stroke-linejoin="round"/>
<path d="M325.935 355.412L312.359 357.997C310.897 358.276 309.938 359.686 310.216 361.148L310.216 361.15C310.495 362.612 311.905 363.571 313.367 363.293L326.943 360.708C328.405 360.43 329.365 359.019 329.086 357.558L329.086 357.555C328.808 356.093 327.397 355.134 325.935 355.412Z" fill="#BC3C46" stroke="#1E1E1C" stroke-width="0.178191" stroke-linecap="round" stroke-linejoin="round"/>
<path d="M281.979 374.202L268.403 376.787C266.941 377.066 265.981 378.476 266.26 379.938L266.26 379.94C266.539 381.402 267.949 382.361 269.411 382.083L282.987 379.498C284.449 379.22 285.409 377.809 285.13 376.347L285.13 376.345C284.851 374.883 283.441 373.924 281.979 374.202Z" fill="#BC3C46" stroke="#1E1E1C" stroke-width="0.178191" stroke-linecap="round" stroke-linejoin="round"/>
<path d="M258.222 378.728L222.827 385.467C221.366 385.745 220.406 387.156 220.685 388.618L220.685 388.62C220.963 390.082 222.374 391.041 223.836 390.763L259.23 384.024C260.692 383.746 261.651 382.335 261.373 380.873L261.372 380.871C261.094 379.409 259.683 378.45 258.222 378.728Z" fill="#BC3C46" stroke="#1E1E1C" stroke-width="0.178191" stroke-linecap="round" stroke-linejoin="round"/>
<path d="M415.574 338.346L335.052 353.677C333.591 353.955 332.631 355.366 332.91 356.827L332.91 356.83C333.188 358.291 334.599 359.251 336.061 358.972L416.582 343.641C418.044 343.363 419.003 341.952 418.725 340.491L418.724 340.488C418.446 339.027 417.035 338.067 415.574 338.346Z" fill="#BC3C46" stroke="#1E1E1C" stroke-width="0.178191" stroke-linecap="round" stroke-linejoin="round"/>
<path d="M383.085 305.155C383.085 305.155 376.969 318.79 379.001 319.085C381.032 319.379 388.16 309.517 388.16 309.517C389.952 308.736 391.656 307.765 393.242 306.621C395.568 304.882 396.589 301.394 396.589 301.394" fill="#F08178"/>
<path d="M383.085 305.155C383.085 305.155 376.969 318.79 379.001 319.085C381.032 319.379 388.16 309.517 388.16 309.517C389.952 308.736 391.656 307.765 393.242 306.621C395.568 304.882 396.589 301.394 396.589 301.394" stroke="#1E1E1C" stroke-width="0.201949" stroke-linecap="round" stroke-linejoin="round"/>
<path d="M170.223 61.9199C170.223 61.9199 179.712 59.7245 183.468 73.1601C187.225 86.5957 210.461 134.783 187.507 148.238C172.421 157.088 153.342 122.968 153.342 122.968L170.223 61.9199Z" fill="#1E1E1C"/>
<path d="M173.865 64.1202C173.865 64.1202 170.251 50.7749 151.346 58.9146C132.781 66.9095 138.369 70.3189 130.933 73.1699C123.496 76.021 109.465 78.0975 101.403 98.0857C92.8216 119.362 110.669 119.202 94.9884 137.525C79.3076 155.848 71.2296 166.302 85.0097 184.359C98.7898 202.415 184.431 172.004 184.431 172.004C184.431 172.004 164.452 131.833 167.008 108.948C169.565 86.0638 173.865 64.1202 173.865 64.1202Z" fill="#1E1E1C"/>
<path d="M157.538 488.53H175.338L184.433 374.156V300.463L145.136 303.314L157.334 377.803L157.538 488.53Z" fill="#F08378" stroke="#1E1E1C" stroke-width="0.658118" stroke-linecap="round" stroke-linejoin="round"/>
<path d="M64.3823 479.131L81.2392 484.85L126.597 379.461L146.055 321.34L102.75 309.332L99.7639 374.21L64.3823 479.131Z" fill="#F08378" stroke="#1E1E1C" stroke-width="0.658118" stroke-linecap="round" stroke-linejoin="round"/>
<path d="M130.936 230.978H176.823L199.686 355.555L148.9 357.168L130.936 230.978Z" fill="#54529F" stroke="#1E1E1C" stroke-width="0.285105" stroke-miterlimit="10"/>
<path d="M195.108 512.403L208.351 518.597C209.717 519.233 210.551 522.18 210.451 523.681L207.904 527.644L191.088 526.637L155.64 511.533L148.381 504.643C148.381 502.731 148.847 500.848 149.74 499.157L156.034 487.23L156.445 470.347H176.486L176.174 487.836L195.108 512.403Z" fill="#020304" stroke="#1D1D1B" stroke-width="0.76028" stroke-miterlimit="10"/>
<path d="M210.461 524.161L209.413 534.225C209.413 534.225 205.184 536.038 195.115 536.038C185.046 536.038 181.62 534.627 181.62 534.627V525.696L167.925 519.043V534.182C167.925 534.182 158.258 534.182 153.432 533.377C148.607 532.572 148.386 529.554 148.386 529.554L147.885 507.1C147.885 505.199 148.011 502.857 148.904 501.16C148.906 501.17 180.622 524.624 210.461 524.161Z" fill="white" stroke="#1D1D1B" stroke-width="0.76028" stroke-miterlimit="10"/>
<path d="M97.6686 502.426L108.313 512.45C109.408 513.484 109.279 516.542 108.716 517.939L105.055 520.906L89.3981 514.688L60.4528 489.267L55.7153 480.45C56.3136 478.635 57.3452 476.993 58.7208 475.667L68.431 466.306L74.0999 450.388L93.1354 456.655L87.3715 473.168L97.6686 502.426Z" fill="#020304" stroke="#1D1D1B" stroke-width="0.76028" stroke-miterlimit="10"/>
<path d="M108.574 518.388L104.433 527.618C104.433 527.618 99.8471 528.017 90.2842 524.867C80.7213 521.716 77.9083 519.307 77.9083 519.307L80.6999 510.825L69.7709 500.229L65.0357 514.61C65.0357 514.61 55.853 511.585 51.5146 509.309C47.1763 507.033 47.9294 504.099 47.9294 504.099L54.475 482.612C55.0713 480.796 55.9219 478.623 57.2999 477.297C57.2999 477.306 80.0869 509.502 108.574 518.388Z" fill="white" stroke="#1D1D1B" stroke-width="0.76028" stroke-miterlimit="10"/>
<path d="M133.796 227.131L163.145 230.907L141.432 357.579L77.6255 351.958L118.619 227.131H133.796Z" fill="#54529F" stroke="#1E1E1C" stroke-width="0.285105" stroke-miterlimit="10"/>
<path d="M197.527 130.355L231.956 197.592C231.956 214.998 215.139 214.953 207.722 206.231L183.488 174.993L197.527 130.355Z" fill="#54529F" stroke="#1E1E1C" stroke-width="0.285105" stroke-miterlimit="10"/>
<path d="M109.683 130.355L88.8895 209.524L87.2264 216.435C83.4511 231.247 96.8819 235.126 105.67 234.357L123.965 191.648L123.701 174.981L109.683 130.355Z" fill="#54529F" stroke="#1E1E1C" stroke-width="0.285105" stroke-miterlimit="10"/>
<path d="M191.812 127.561L160.52 122.719L149.776 123.9L117.811 128.561L130.935 230.978H183.29L191.812 127.561Z" fill="#54529F" stroke="#1E1E1C" stroke-width="0.285105" stroke-miterlimit="10"/>
<path d="M182.041 125.639L198.194 128.67L183.29 230.978L192.476 260.715L183.896 269.524L176.823 230.978L182.041 125.639Z" fill="#88CFE6" stroke="#1E1E1C" stroke-width="0.285105" stroke-miterlimit="10"/>
<path d="M139.498 124.66L109.305 129.977L119.18 208.022L106.077 251.698L127.346 273.537L144.506 214.29L139.498 124.66Z" fill="#88CFE6" stroke="#1E1E1C" stroke-width="0.285105" stroke-miterlimit="10"/>
<path d="M151.083 94.0278L145.317 123.308C145.02 124.994 145.084 126.725 145.505 128.385C145.925 130.044 146.693 131.596 147.757 132.938C148.821 134.279 150.157 135.38 151.678 136.168C153.198 136.955 154.869 137.411 156.578 137.506C159.568 137.678 162.515 136.736 164.851 134.862C167.188 132.989 168.747 130.317 169.23 127.361L173.644 100.414L151.083 94.0278Z" fill="#F08378" stroke="#1E1E1C" stroke-width="0.301736" stroke-miterlimit="10"/>
<path d="M151.817 221.679C151.817 221.679 134.445 217.504 127.747 215.758C120.945 213.988 113.399 211.957 104.492 210.18C94.808 208.236 89.8282 213.245 88.3528 219.049C85.3687 230.793 98.569 233.482 98.569 233.482C104.271 235.518 144.39 234.319 147.626 234.223L152.969 234.064C156.013 233.976 158.963 232.994 161.454 231.242C166.305 227.825 174.616 222.099 181.09 218.355C185.633 215.727 187.814 214.651 189.762 213.482C191.485 212.444 194.162 210.919 193.609 209.802C193.005 208.583 190.976 209.132 190.976 209.132C190.427 208.132 188.75 207.554 187.527 208.153L184.737 209.524C184.336 209.097 183.799 208.824 183.219 208.751C182.638 208.678 182.05 208.81 181.556 209.125L173.24 214.259L159.382 213.715L151.817 221.679Z" fill="#F08178" stroke="#1E1E1C" stroke-width="0.285105" stroke-linecap="round" stroke-linejoin="round"/>
<path d="M163.749 221.116C163.749 221.116 170.964 219.305 177.053 218.45C181.187 217.868 185.676 218.048 188.12 218.224C188.356 218.241 188.593 218.209 188.816 218.131C189.039 218.052 189.244 217.928 189.417 217.767C189.59 217.606 189.729 217.411 189.823 217.194C189.918 216.977 189.966 216.743 189.966 216.506C189.966 216.06 189.793 215.631 189.482 215.31C189.172 214.988 188.75 214.8 188.303 214.784L165.469 213.988" fill="#F08178"/>
<path d="M163.749 221.116C163.749 221.116 170.964 219.305 177.053 218.45C181.187 217.868 185.676 218.048 188.12 218.224C188.356 218.241 188.593 218.209 188.816 218.131C189.039 218.052 189.244 217.928 189.417 217.767C189.59 217.606 189.729 217.411 189.823 217.194C189.918 216.977 189.966 216.743 189.966 216.506V216.506C189.966 216.06 189.793 215.631 189.482 215.31C189.172 214.988 188.75 214.8 188.303 214.784L165.469 213.988" stroke="#1E1E1C" stroke-width="0.285105" stroke-linecap="round" stroke-linejoin="round"/>
<path d="M158.365 218.386L168.952 211.909C170.173 211.161 170.741 209.369 169.731 208.345C169.403 208.014 168.979 207.793 168.519 207.714C168.059 207.635 167.586 207.701 167.165 207.903C167.165 207.903 160.933 210.876 158.952 211.942C157.048 213.022 155.32 214.384 153.825 215.981C152.594 217.407 151.765 219.258 151.831 222.912" fill="#F08178"/>
<path d="M158.365 218.386L168.952 211.909C170.173 211.161 170.741 209.369 169.731 208.345C169.403 208.014 168.979 207.793 168.519 207.714C168.059 207.635 167.586 207.701 167.165 207.903C167.165 207.903 160.933 210.876 158.952 211.942C157.048 213.022 155.32 214.384 153.825 215.981C152.594 217.407 151.765 219.258 151.831 222.912" stroke="#1E1E1C" stroke-width="0.285105" stroke-linecap="round" stroke-linejoin="round"/>
<path d="M184.732 209.524L176.695 214.38" stroke="#1E1E1C" stroke-width="0.285105" stroke-linecap="round" stroke-linejoin="round"/>
<path d="M190.979 209.132L180.817 214.522" stroke="#1E1E1C" stroke-width="0.285105" stroke-linecap="round" stroke-linejoin="round"/>
<path d="M135.369 73.1791C141.661 73.1791 146.761 68.0786 146.761 61.7868C146.761 55.495 141.661 50.3945 135.369 50.3945C129.077 50.3945 123.977 55.495 123.977 61.7868C123.977 68.0786 129.077 73.1791 135.369 73.1791Z" fill="#1E1E1C"/>
<path d="M231.518 193.159L206.999 123.797L204.623 109.366C204.534 108.832 204.31 108.329 203.973 107.904C203.635 107.48 203.195 107.149 202.694 106.943L198.085 105.042C198.085 104.599 197.971 104.162 197.755 103.775C197.539 103.388 197.227 103.063 196.849 102.83L196.633 102.697L195.638 100.956C195.277 100.324 194.728 99.8207 194.067 99.5158C193.407 99.2109 192.668 99.1195 191.953 99.2545L188.489 99.9078L190.608 112.407L186.367 118.321L181.725 112.222C181.443 111.852 181.029 111.606 180.57 111.536C180.11 111.466 179.642 111.577 179.263 111.847C178.912 112.095 178.662 112.462 178.559 112.88C178.456 113.298 178.507 113.739 178.702 114.123L183.252 123.051C183.752 124.047 184.511 124.889 185.45 125.489L195.393 130.507L207.156 198.542C208.059 206.024 215.303 211.241 222.889 210.897C230.197 210.548 233.153 200.681 231.518 193.159Z" fill="#F08378" stroke="#1E1F1D" stroke-width="0.308864" stroke-miterlimit="10"/>
<path d="M174.623 94.5314L184.321 120.105C184.437 120.4 184.635 120.656 184.891 120.843C185.147 121.029 185.451 121.138 185.767 121.158C186.084 121.177 186.399 121.106 186.676 120.952C186.953 120.799 187.18 120.569 187.332 120.291L192.86 109.813C192.969 109.605 193.033 109.377 193.047 109.142C193.062 108.908 193.026 108.674 192.943 108.454L183.245 82.8896C183.129 82.5946 182.932 82.3389 182.676 82.1524C182.419 81.9659 182.115 81.8565 181.799 81.8371C181.483 81.8176 181.167 81.8889 180.89 82.0425C180.613 82.1961 180.386 82.4257 180.235 82.7043L174.706 93.1819C174.599 93.3885 174.536 93.6153 174.521 93.8478C174.507 94.0803 174.542 94.3132 174.623 94.5314Z" fill="#7C1D19" stroke="#1E1F1D" stroke-width="0.327871" stroke-miterlimit="10"/>
<path d="M192.604 99.2022L188.168 99.7297C187.682 99.7873 187.218 99.9672 186.82 100.253C186.422 100.538 186.102 100.92 185.892 101.362L184.01 105.332C183.859 105.651 183.834 106.015 183.939 106.352C184.044 106.688 184.272 106.973 184.578 107.15C185.066 107.431 185.64 107.521 186.191 107.403C186.741 107.285 187.228 106.967 187.557 106.51L189.589 103.69" fill="#F08378"/>
<path d="M192.604 99.2022L188.168 99.7297C187.682 99.7873 187.218 99.9672 186.82 100.253C186.422 100.538 186.102 100.92 185.892 101.362L184.01 105.332C183.859 105.651 183.834 106.015 183.939 106.352C184.044 106.688 184.272 106.973 184.578 107.15V107.15C185.066 107.431 185.64 107.521 186.191 107.403C186.741 107.285 187.228 106.967 187.557 106.51L189.589 103.69" stroke="#1E1F1D" stroke-width="0.308864" stroke-miterlimit="10"/>
<path d="M196.838 102.847L193.29 101.932C192.682 101.658 191.991 101.626 191.36 101.845C190.729 102.064 190.206 102.516 189.898 103.108L188.144 106.446C187.968 106.782 187.865 107.151 187.841 107.529C187.817 107.907 187.874 108.286 188.007 108.642L189.273 112.02C189.453 112.501 189.803 112.901 190.256 113.143C190.71 113.385 191.236 113.454 191.737 113.336L193.721 112.861" fill="#F08378"/>
<path d="M196.838 102.847L193.29 101.932C192.682 101.658 191.991 101.626 191.36 101.845C190.729 102.064 190.206 102.516 189.898 103.108L188.144 106.446C187.968 106.782 187.865 107.151 187.841 107.529C187.817 107.907 187.874 108.286 188.007 108.642L189.273 112.02C189.453 112.501 189.803 112.901 190.256 113.143C190.71 113.385 191.236 113.454 191.737 113.336L193.721 112.861" stroke="#1E1F1D" stroke-width="0.308864" stroke-miterlimit="10"/>
<path d="M203.219 107.228L195.11 105.618C194.542 105.523 193.96 105.64 193.473 105.947C192.986 106.253 192.628 106.728 192.468 107.281L191.606 110.246C191.499 110.608 191.479 110.991 191.548 111.362C191.617 111.734 191.773 112.084 192.002 112.384L193.794 114.731C193.885 114.851 194 114.95 194.131 115.024C194.262 115.098 194.407 115.144 194.557 115.16C194.706 115.176 194.857 115.161 195.001 115.117C195.145 115.073 195.278 115 195.393 114.902C195.783 114.571 196.059 114.125 196.18 113.627C196.302 113.13 196.263 112.606 196.07 112.132L195.395 110.469L198.346 109.36" fill="#F08378"/>
<path d="M203.219 107.228L195.11 105.618C194.542 105.523 193.96 105.64 193.473 105.947C192.986 106.253 192.628 106.728 192.468 107.281L191.606 110.246C191.499 110.608 191.479 110.991 191.548 111.362C191.617 111.734 191.773 112.084 192.002 112.384L193.794 114.731C193.885 114.851 194 114.95 194.131 115.024C194.262 115.098 194.407 115.144 194.557 115.16C194.706 115.176 194.857 115.161 195.001 115.117C195.145 115.073 195.278 115 195.393 114.902V114.902C195.783 114.571 196.059 114.125 196.18 113.627C196.302 113.13 196.263 112.606 196.07 112.132L195.395 110.469L198.346 109.36" stroke="#1E1F1D" stroke-width="0.308864" stroke-miterlimit="10"/>
<path d="M151.156 92.2078L148.251 67.3657L168.258 66.0874C171.055 65.908 173.815 66.8037 175.973 68.5913C178.132 70.379 179.526 72.9236 179.871 75.705C180.864 83.7141 182.05 94.08 182.04 97.8006C182.021 104.215 177.45 112.196 168.225 112.598C160.643 112.928 152.368 108.01 150.384 100.918C144.965 103.98 142.67 94.6431 145.395 92.3646C148.35 89.889 151.156 92.2078 151.156 92.2078Z" fill="#F08378" stroke="#1E1E1C" stroke-width="0.301736" stroke-miterlimit="10"/>
<path d="M158.113 85.0279C160.17 80.2167 164.597 81.9131 164.597 81.9131" stroke="#1E1E1C" stroke-width="0.624855" stroke-linecap="round" stroke-linejoin="round"/>
<path d="M172.471 80.7511C174.447 77.6126 177.821 79.7129 177.821 79.7129" stroke="#1E1E1C" stroke-width="0.624855" stroke-linecap="round" stroke-linejoin="round"/>
<path d="M169.567 86.0753C169.567 86.0753 172.853 89.9124 172.894 92.015C172.934 94.1177 169.853 94.1937 169.853 94.1937" stroke="#1E1E1C" stroke-width="0.624855" stroke-linecap="round" stroke-linejoin="round"/>
<path d="M163.407 89.3117C164.319 89.3117 165.058 88.5724 165.058 87.6605C165.058 86.7485 164.319 86.0092 163.407 86.0092C162.495 86.0092 161.755 86.7485 161.755 87.6605C161.755 88.5724 162.495 89.3117 163.407 89.3117Z" fill="#1E1E1C"/>
<path d="M175.172 86.8832C176.084 86.8832 176.823 86.1439 176.823 85.232C176.823 84.32 176.084 83.5807 175.172 83.5807C174.26 83.5807 173.521 84.32 173.521 85.232C173.521 86.1439 174.26 86.8832 175.172 86.8832Z" fill="#1E1E1C"/>
<path d="M148.899 101.894C151.003 101.894 152.708 100.189 152.708 98.0857C152.708 95.9823 151.003 94.2772 148.899 94.2772C146.796 94.2772 145.091 95.9823 145.091 98.0857C145.091 100.189 146.796 101.894 148.899 101.894Z" fill="#C3472C" stroke="#1E1E1C" stroke-width="0.301736" stroke-miterlimit="10"/>
<path d="M173.865 64.1204C173.865 64.1204 164.599 81.9109 146.067 86.8836C135.787 89.6396 131.206 80.7444 131.206 80.7444C131.206 80.7444 139.593 64.7856 143.178 63.6381C146.763 62.4905 173.865 64.1204 173.865 64.1204Z" fill="#1E1E1C"/>
<path d="M171.575 99.0291L162.444 99.2975C162.444 99.2975 163.238 103.489 167.26 103.574C170.777 103.648 171.575 99.0291 171.575 99.0291Z" fill="white" stroke="#1E1E1C" stroke-width="0.301736" stroke-linecap="round" stroke-linejoin="round"/>
</svg>
