<svg width="231" height="161" viewBox="0 0 231 161" fill="none" xmlns="http://www.w3.org/2000/svg">
<rect x="0.336914" y="0.988281" width="230.602" height="159.036" rx="12.7229" fill="white"/>
<path d="M56.8827 22.9395L60.434 15.091H61.6363L65.2321 22.9395H63.7737L62.8163 20.7352L63.3952 21.1249H58.6862L59.2873 20.7352L58.3299 22.9395H56.8827ZM61.024 16.6273L59.4543 20.3456L59.1649 20.0005H62.9054L62.6716 20.3456L61.0685 16.6273H61.024ZM67.3214 22.9395L64.8946 17.3175H66.3752L68.1341 21.7149H67.789L69.5925 17.3175H70.984L68.546 22.9395H67.3214ZM74.3369 23.0508C73.7061 23.0508 73.1643 22.9357 72.7116 22.7057C72.2663 22.4682 71.9212 22.1305 71.6763 21.6926C71.4388 21.2547 71.32 20.7352 71.32 20.1341C71.32 19.5477 71.4351 19.0356 71.6651 18.5978C71.8952 18.1599 72.2143 17.8185 72.6225 17.5736C73.0381 17.3287 73.5206 17.2062 74.0698 17.2062C74.6115 17.2062 75.0643 17.3212 75.4279 17.5513C75.7916 17.7814 76.0662 18.1042 76.2517 18.5198C76.4447 18.9355 76.5412 19.4216 76.5412 19.9782V20.3456H72.4444V19.6108H75.5504L75.3611 19.7667C75.3611 19.2472 75.2498 18.8501 75.0272 18.5755C74.8119 18.3009 74.4965 18.1636 74.0809 18.1636C73.7692 18.1636 73.5057 18.2378 73.2905 18.3862C73.0827 18.5347 72.9231 18.7462 72.8118 19.0208C72.7005 19.2954 72.6448 19.6294 72.6448 20.0227V20.1675C72.6448 20.776 72.7932 21.2325 73.0901 21.5368C73.3944 21.8336 73.8211 21.9821 74.3703 21.9821C74.6895 21.9821 74.9863 21.9412 75.2609 21.8596C75.543 21.7705 75.8101 21.6295 76.0625 21.4366L76.4744 22.3717C76.2072 22.5869 75.8881 22.7539 75.517 22.8727C75.1459 22.9914 74.7526 23.0508 74.3369 23.0508ZM77.7084 22.9395V18.7536C77.7084 18.5161 77.701 18.2749 77.6862 18.03C77.6788 17.7851 77.6602 17.5476 77.6305 17.3175H78.9775L79.1334 18.8538H78.9108C78.985 18.4827 79.1074 18.1747 79.2781 17.9298C79.4562 17.6849 79.6715 17.5031 79.9238 17.3843C80.1761 17.2656 80.4508 17.2062 80.7476 17.2062C80.8812 17.2062 80.9888 17.2136 81.0705 17.2285C81.1521 17.2359 81.2337 17.2544 81.3154 17.2841L81.3042 18.5087C81.1632 18.4493 81.0408 18.4122 80.9369 18.3974C80.8404 18.3825 80.7179 18.3751 80.5695 18.3751C80.2504 18.3751 79.9795 18.4419 79.7568 18.5755C79.5416 18.7091 79.3783 18.8946 79.267 19.1321C79.1631 19.3696 79.1111 19.6405 79.1111 19.9448V22.9395H77.7084ZM84.2064 23.0508C83.7166 23.0508 83.2862 22.9357 82.9151 22.7057C82.544 22.4682 82.2545 22.1305 82.0467 21.6926C81.8389 21.2547 81.735 20.7315 81.735 20.1229C81.735 19.5143 81.8389 18.9948 82.0467 18.5644C82.2545 18.1265 82.544 17.7925 82.9151 17.5624C83.2862 17.3249 83.7166 17.2062 84.2064 17.2062C84.6814 17.2062 85.097 17.3249 85.4533 17.5624C85.8169 17.7925 86.0582 18.1042 86.1769 18.4976H86.0544L86.1769 17.3175H87.5128C87.4905 17.5476 87.4683 17.7814 87.446 18.0189C87.4312 18.2564 87.4237 18.4902 87.4237 18.7202V22.9395H86.0433L86.0322 21.7817H86.1658C86.047 22.1676 85.8058 22.4756 85.4422 22.7057C85.0785 22.9357 84.6666 23.0508 84.2064 23.0508ZM84.5961 21.9821C85.034 21.9821 85.3865 21.8299 85.6537 21.5256C85.9209 21.2139 86.0544 20.7463 86.0544 20.1229C86.0544 19.4995 85.9209 19.0356 85.6537 18.7314C85.3865 18.4271 85.034 18.2749 84.5961 18.2749C84.1582 18.2749 83.8057 18.4271 83.5385 18.7314C83.2713 19.0356 83.1377 19.4995 83.1377 20.1229C83.1377 20.7463 83.2676 21.2139 83.5274 21.5256C83.7945 21.8299 84.1508 21.9821 84.5961 21.9821ZM91.5441 25.4331C91.0246 25.4331 90.5533 25.3775 90.1303 25.2662C89.7146 25.1548 89.3436 24.9841 89.017 24.7541L89.3176 23.7521C89.5328 23.8931 89.7555 24.0082 89.9855 24.0972C90.2156 24.1863 90.4531 24.2531 90.698 24.2976C90.9429 24.3422 91.1916 24.3644 91.4439 24.3644C91.9634 24.3644 92.3493 24.2345 92.6017 23.9748C92.8614 23.7224 92.9913 23.3588 92.9913 22.8838V21.5368H93.1026C92.9839 21.9227 92.7427 22.2307 92.379 22.4608C92.0228 22.6908 91.6109 22.8059 91.1433 22.8059C90.6386 22.8059 90.197 22.6945 89.8185 22.4719C89.4475 22.2418 89.158 21.9153 88.9502 21.4922C88.7424 21.0692 88.6385 20.5719 88.6385 20.0005C88.6385 19.429 88.7424 18.9355 88.9502 18.5198C89.158 18.0968 89.4475 17.774 89.8185 17.5513C90.197 17.3212 90.6386 17.2062 91.1433 17.2062C91.6183 17.2062 92.0302 17.3212 92.379 17.5513C92.7353 17.774 92.9728 18.0782 93.0915 18.4642L92.9913 18.3974L93.1026 17.3175H94.4497C94.42 17.5476 94.3977 17.7814 94.3829 18.0189C94.368 18.2564 94.3606 18.4902 94.3606 18.7202V22.7168C94.3606 23.6 94.1194 24.2716 93.637 24.7318C93.162 25.1994 92.4644 25.4331 91.5441 25.4331ZM91.5218 21.7371C91.9671 21.7371 92.3197 21.5887 92.5794 21.2918C92.8466 20.9875 92.9802 20.5571 92.9802 20.0005C92.9802 19.4438 92.8466 19.0171 92.5794 18.7202C92.3197 18.4234 91.9671 18.2749 91.5218 18.2749C91.0691 18.2749 90.7091 18.4234 90.442 18.7202C90.1748 19.0171 90.0412 19.4438 90.0412 20.0005C90.0412 20.5571 90.1748 20.9875 90.442 21.2918C90.7091 21.5887 91.0691 21.7371 91.5218 21.7371ZM98.5806 23.0508C97.9498 23.0508 97.408 22.9357 96.9553 22.7057C96.51 22.4682 96.1649 22.1305 95.92 21.6926C95.6825 21.2547 95.5637 20.7352 95.5637 20.1341C95.5637 19.5477 95.6787 19.0356 95.9088 18.5978C96.1389 18.1599 96.458 17.8185 96.8662 17.5736C97.2818 17.3287 97.7642 17.2062 98.3134 17.2062C98.8552 17.2062 99.308 17.3212 99.6716 17.5513C100.035 17.7814 100.31 18.1042 100.495 18.5198C100.688 18.9355 100.785 19.4216 100.785 19.9782V20.3456H96.6881V19.6108H99.7941L99.6048 19.7667C99.6048 19.2472 99.4935 18.8501 99.2708 18.5755C99.0556 18.3009 98.7402 18.1636 98.3246 18.1636C98.0129 18.1636 97.7494 18.2378 97.5342 18.3862C97.3264 18.5347 97.1668 18.7462 97.0555 19.0208C96.9441 19.2954 96.8885 19.6294 96.8885 20.0227V20.1675C96.8885 20.776 97.0369 21.2325 97.3338 21.5368C97.6381 21.8336 98.0648 21.9821 98.614 21.9821C98.9332 21.9821 99.23 21.9412 99.5046 21.8596C99.7867 21.7705 100.054 21.6295 100.306 21.4366L100.718 22.3717C100.451 22.5869 100.132 22.7539 99.7607 22.8727C99.3896 22.9914 98.9962 23.0508 98.5806 23.0508ZM107.601 23.0508C107.022 23.0508 106.514 22.932 106.076 22.6945C105.645 22.457 105.311 22.1194 105.074 21.6815C104.836 21.2362 104.718 20.7092 104.718 20.1007C104.718 19.4921 104.836 18.9726 105.074 18.5421C105.319 18.1116 105.656 17.7814 106.087 17.5513C106.517 17.3212 107.022 17.2062 107.601 17.2062C107.972 17.2062 108.332 17.2656 108.681 17.3843C109.037 17.4956 109.326 17.6589 109.549 17.8742L109.126 18.8427C108.926 18.6571 108.699 18.5198 108.447 18.4308C108.202 18.3343 107.961 18.2861 107.723 18.2861C107.226 18.2861 106.836 18.4419 106.554 18.7536C106.28 19.0653 106.143 19.5181 106.143 20.1118C106.143 20.7055 106.28 21.162 106.554 21.4811C106.836 21.8002 107.226 21.9598 107.723 21.9598C107.953 21.9598 108.191 21.9153 108.436 21.8262C108.688 21.7371 108.918 21.5998 109.126 21.4143L109.549 22.3717C109.319 22.5869 109.026 22.7539 108.67 22.8727C108.321 22.9914 107.965 23.0508 107.601 23.0508ZM112.766 23.0508C112.276 23.0508 111.846 22.9357 111.475 22.7057C111.104 22.4682 110.814 22.1305 110.606 21.6926C110.399 21.2547 110.295 20.7315 110.295 20.1229C110.295 19.5143 110.399 18.9948 110.606 18.5644C110.814 18.1265 111.104 17.7925 111.475 17.5624C111.846 17.3249 112.276 17.2062 112.766 17.2062C113.241 17.2062 113.657 17.3249 114.013 17.5624C114.377 17.7925 114.618 18.1042 114.737 18.4976H114.614L114.737 17.3175H116.073C116.05 17.5476 116.028 17.7814 116.006 18.0189C115.991 18.2564 115.983 18.4902 115.983 18.7202V22.9395H114.603L114.592 21.7817H114.725C114.607 22.1676 114.366 22.4756 114.002 22.7057C113.638 22.9357 113.226 23.0508 112.766 23.0508ZM113.156 21.9821C113.594 21.9821 113.946 21.8299 114.213 21.5256C114.481 21.2139 114.614 20.7463 114.614 20.1229C114.614 19.4995 114.481 19.0356 114.213 18.7314C113.946 18.4271 113.594 18.2749 113.156 18.2749C112.718 18.2749 112.365 18.4271 112.098 18.7314C111.831 19.0356 111.697 19.4995 111.697 20.1229C111.697 20.7463 111.827 21.2139 112.087 21.5256C112.354 21.8299 112.711 21.9821 113.156 21.9821ZM117.499 22.9395V14.7459H118.89V22.9395H117.499ZM120.402 22.9395V14.7459H121.793V22.9395H120.402ZM126.522 23.0508C126.047 23.0508 125.631 22.9357 125.275 22.7057C124.918 22.4682 124.681 22.149 124.562 21.7483H124.685V22.9395H123.304V14.7459H124.696V18.4642H124.562C124.688 18.0782 124.93 17.774 125.286 17.5513C125.642 17.3212 126.054 17.2062 126.522 17.2062C127.019 17.2062 127.453 17.3249 127.824 17.5624C128.195 17.7999 128.485 18.1376 128.692 18.5755C128.9 19.006 129.004 19.5255 129.004 20.1341C129.004 20.7426 128.9 21.2659 128.692 21.7037C128.485 22.1342 128.191 22.4682 127.813 22.7057C127.442 22.9357 127.011 23.0508 126.522 23.0508ZM126.132 21.9821C126.57 21.9821 126.922 21.8299 127.189 21.5256C127.464 21.2213 127.601 20.7575 127.601 20.1341C127.601 19.5106 127.464 19.0468 127.189 18.7425C126.922 18.4308 126.57 18.2749 126.132 18.2749C125.694 18.2749 125.341 18.4271 125.074 18.7314C124.807 19.0356 124.674 19.4995 124.674 20.1229C124.674 20.7463 124.807 21.2139 125.074 21.5256C125.341 21.8299 125.694 21.9821 126.132 21.9821ZM132.379 23.0508C131.889 23.0508 131.458 22.9357 131.087 22.7057C130.716 22.4682 130.427 22.1305 130.219 21.6926C130.011 21.2547 129.907 20.7315 129.907 20.1229C129.907 19.5143 130.011 18.9948 130.219 18.5644C130.427 18.1265 130.716 17.7925 131.087 17.5624C131.458 17.3249 131.889 17.2062 132.379 17.2062C132.854 17.2062 133.269 17.3249 133.625 17.5624C133.989 17.7925 134.23 18.1042 134.349 18.4976H134.227L134.349 17.3175H135.685C135.663 17.5476 135.64 17.7814 135.618 18.0189C135.603 18.2564 135.596 18.4902 135.596 18.7202V22.9395H134.215L134.204 21.7817H134.338C134.219 22.1676 133.978 22.4756 133.614 22.7057C133.251 22.9357 132.839 23.0508 132.379 23.0508ZM132.768 21.9821C133.206 21.9821 133.559 21.8299 133.826 21.5256C134.093 21.2139 134.227 20.7463 134.227 20.1229C134.227 19.4995 134.093 19.0356 133.826 18.7314C133.559 18.4271 133.206 18.2749 132.768 18.2749C132.33 18.2749 131.978 18.4271 131.711 18.7314C131.443 19.0356 131.31 19.4995 131.31 20.1229C131.31 20.7463 131.44 21.2139 131.699 21.5256C131.967 21.8299 132.323 21.9821 132.768 21.9821ZM139.694 23.0508C139.115 23.0508 138.607 22.932 138.169 22.6945C137.738 22.457 137.404 22.1194 137.167 21.6815C136.929 21.2362 136.811 20.7092 136.811 20.1007C136.811 19.4921 136.929 18.9726 137.167 18.5421C137.412 18.1116 137.749 17.7814 138.18 17.5513C138.61 17.3212 139.115 17.2062 139.694 17.2062C140.065 17.2062 140.425 17.2656 140.774 17.3843C141.13 17.4956 141.419 17.6589 141.642 17.8742L141.219 18.8427C141.019 18.6571 140.792 18.5198 140.54 18.4308C140.295 18.3343 140.054 18.2861 139.816 18.2861C139.319 18.2861 138.929 18.4419 138.647 18.7536C138.373 19.0653 138.236 19.5181 138.236 20.1118C138.236 20.7055 138.373 21.162 138.647 21.4811C138.929 21.8002 139.319 21.9598 139.816 21.9598C140.046 21.9598 140.284 21.9153 140.529 21.8262C140.781 21.7371 141.011 21.5998 141.219 21.4143L141.642 22.3717C141.412 22.5869 141.119 22.7539 140.763 22.8727C140.414 22.9914 140.058 23.0508 139.694 23.0508ZM142.721 22.9395V14.7459H144.112V19.711H144.135L146.417 17.3175H148.098L145.259 20.2899L145.27 19.7333L148.298 22.9395H146.573L144.135 20.4235H144.112V22.9395H142.721ZM154.323 23.0508C153.655 23.0508 153.15 22.8764 152.809 22.5275C152.468 22.1787 152.297 21.6555 152.297 20.9579V18.364H151.217V17.3175H152.297V15.8814L153.688 15.5252V17.3175H155.191V18.364H153.688V20.8688C153.688 21.2547 153.763 21.5256 153.911 21.6815C154.059 21.8373 154.264 21.9153 154.523 21.9153C154.664 21.9153 154.783 21.9041 154.88 21.8819C154.983 21.8596 155.084 21.8299 155.18 21.7928V22.8949C155.054 22.9469 154.913 22.984 154.757 23.0062C154.609 23.0359 154.464 23.0508 154.323 23.0508ZM156.136 22.9395V17.3175H157.528V22.9395H156.136ZM156.059 16.2599V14.9018H157.606V16.2599H156.059ZM159.039 22.9395V18.7202C159.039 18.4902 159.032 18.2564 159.017 18.0189C159.002 17.7814 158.98 17.5476 158.95 17.3175H160.297L160.409 18.4308H160.275C160.431 18.0449 160.668 17.7443 160.987 17.529C161.314 17.3138 161.7 17.2062 162.145 17.2062C162.591 17.2062 162.958 17.3138 163.247 17.529C163.544 17.7369 163.752 18.0634 163.871 18.5087H163.693C163.848 18.1079 164.105 17.7925 164.461 17.5624C164.817 17.3249 165.225 17.2062 165.685 17.2062C166.316 17.2062 166.787 17.3917 167.099 17.7628C167.411 18.1339 167.567 18.7128 167.567 19.4995V22.9395H166.175V19.5552C166.175 19.1099 166.101 18.7907 165.953 18.5978C165.804 18.3974 165.567 18.2972 165.24 18.2972C164.854 18.2972 164.55 18.4345 164.327 18.7091C164.105 18.9763 163.993 19.3399 163.993 19.8001V22.9395H162.602V19.5552C162.602 19.1099 162.527 18.7907 162.379 18.5978C162.231 18.3974 161.993 18.2972 161.667 18.2972C161.281 18.2972 160.976 18.4345 160.754 18.7091C160.538 18.9763 160.431 19.3399 160.431 19.8001V22.9395H159.039ZM171.768 23.0508C171.137 23.0508 170.596 22.9357 170.143 22.7057C169.698 22.4682 169.353 22.1305 169.108 21.6926C168.87 21.2547 168.751 20.7352 168.751 20.1341C168.751 19.5477 168.866 19.0356 169.097 18.5978C169.327 18.1599 169.646 17.8185 170.054 17.5736C170.47 17.3287 170.952 17.2062 171.501 17.2062C172.043 17.2062 172.496 17.3212 172.859 17.5513C173.223 17.7814 173.498 18.1042 173.683 18.5198C173.876 18.9355 173.973 19.4216 173.973 19.9782V20.3456H169.876V19.6108H172.982L172.793 19.7667C172.793 19.2472 172.681 18.8501 172.459 18.5755C172.243 18.3009 171.928 18.1636 171.512 18.1636C171.201 18.1636 170.937 18.2378 170.722 18.3862C170.514 18.5347 170.354 18.7462 170.243 19.0208C170.132 19.2954 170.076 19.6294 170.076 20.0227V20.1675C170.076 20.776 170.225 21.2325 170.521 21.5368C170.826 21.8336 171.253 21.9821 171.802 21.9821C172.121 21.9821 172.418 21.9412 172.692 21.8596C172.974 21.7705 173.242 21.6295 173.494 21.4366L173.906 22.3717C173.639 22.5869 173.319 22.7539 172.948 22.8727C172.577 22.9914 172.184 23.0508 171.768 23.0508Z" fill="black"/>
<path d="M26.5107 87.974C24.933 87.974 23.718 87.3761 22.8656 86.1801C22.0131 84.9714 21.5869 83.2539 21.5869 81.0273C21.5869 78.7754 22.0131 77.0642 22.8656 75.8937C23.718 74.7232 24.933 74.1379 26.5107 74.1379C28.101 74.1379 29.3161 74.7232 30.1558 75.8937C31.0082 77.0642 31.4344 78.769 31.4344 81.0083C31.4344 83.2475 31.0082 84.9714 30.1558 86.1801C29.3161 87.3761 28.101 87.974 26.5107 87.974ZM26.5107 85.9511C27.3758 85.9511 28.0183 85.5567 28.4382 84.7679C28.858 83.9663 29.068 82.7131 29.068 81.0083C29.068 79.8632 28.9726 78.9344 28.7817 78.222C28.6036 77.5095 28.3237 76.9878 27.942 76.657C27.5603 76.3135 27.0832 76.1418 26.5107 76.1418C25.6582 76.1418 25.0157 76.5298 24.5832 77.3059C24.1633 78.0693 23.9534 79.3034 23.9534 81.0083C23.9534 82.1406 24.0488 83.0757 24.2396 83.8137C24.4305 84.5389 24.7104 85.0796 25.0793 85.4358C25.461 85.7793 25.9381 85.9511 26.5107 85.9511ZM34.156 87.7832V85.7412H37.2477V76.3899H38.4309L34.4614 78.7563V76.428L37.9538 74.3287H39.7096V85.7412H42.6104V87.7832H34.156ZM44.3205 80.7793V78.1456H46.9923V80.7793H44.3205ZM44.3205 87.7832V85.1305H46.9923V87.7832H44.3205ZM49.9513 87.7832V85.7412H53.043V76.3899H54.2262L50.2567 78.7563V76.428L53.7491 74.3287H55.5048V85.7412H58.4057V87.7832H49.9513ZM60.7265 87.7832L67.2533 75.5311V76.3899H60.1158V74.3287H69.5244V76.1608L63.4174 87.7832H60.7265ZM71.3681 80.7793V78.1456H74.0399V80.7793H71.3681ZM71.3681 87.7832V85.1305H74.0399V87.7832H71.3681ZM80.3959 87.974C79.4671 87.974 78.5765 87.8405 77.7241 87.5733C76.8716 87.2934 76.1719 86.9117 75.6248 86.4282L76.4263 84.577C77.0243 85.0351 77.6414 85.3722 78.2775 85.5885C78.9264 85.8048 79.6071 85.9129 80.3196 85.9129C81.1847 85.9129 81.8399 85.7412 82.2852 85.3977C82.7305 85.0541 82.9532 84.5516 82.9532 83.89C82.9532 83.2539 82.7305 82.7767 82.2852 82.4587C81.8527 82.1279 81.2165 81.9625 80.3768 81.9625H78.2012V79.9968H80.1669C80.8921 79.9968 81.471 79.8187 81.9036 79.4624C82.3361 79.1062 82.5524 78.6164 82.5524 77.9929C82.5524 77.4077 82.3489 76.9624 81.9417 76.657C81.5473 76.3517 80.9748 76.199 80.2241 76.199C79.5371 76.199 78.9009 76.3135 78.3157 76.5425C77.7304 76.7588 77.177 77.1023 76.6554 77.5731L75.8538 75.741C76.4009 75.2321 77.0752 74.8377 77.8768 74.5578C78.691 74.2779 79.5435 74.1379 80.4341 74.1379C81.8336 74.1379 82.9277 74.456 83.7166 75.0921C84.5181 75.7155 84.9189 76.5871 84.9189 77.7067C84.9189 78.5082 84.6899 79.2016 84.2318 79.7869C83.7865 80.3594 83.1695 80.7411 82.3807 80.9319V80.7029C83.3094 80.8556 84.0283 81.2373 84.5372 81.848C85.0588 82.446 85.3196 83.1966 85.3196 84.0999C85.3196 85.2959 84.8807 86.2437 84.0028 86.9435C83.1249 87.6305 81.9226 87.974 80.3959 87.974ZM91.9535 87.974C91.3683 87.974 90.783 87.9104 90.1978 87.7832C89.6253 87.656 89.0845 87.4779 88.5756 87.2488C88.0794 87.0198 87.6532 86.7463 87.297 86.4282L88.0985 84.577C88.6965 85.0223 89.3072 85.3595 89.9306 85.5885C90.5667 85.8048 91.2283 85.9129 91.9154 85.9129C92.7424 85.9129 93.3849 85.7094 93.8429 85.3022C94.3136 84.8824 94.549 84.3226 94.549 83.6228C94.549 82.9103 94.3264 82.3378 93.8811 81.9052C93.4358 81.4599 92.8251 81.2373 92.049 81.2373C91.5019 81.2373 90.9993 81.3454 90.5413 81.5617C90.096 81.7653 89.6952 82.0833 89.339 82.5159H87.7168V74.3287H96.0758V76.3517H90.0451V80.6266H89.4535C89.7843 80.1813 90.2232 79.8378 90.7703 79.596C91.3301 79.3543 91.9535 79.2334 92.6406 79.2334C93.5057 79.2334 94.2564 79.4115 94.8925 79.7678C95.5287 80.124 96.0249 80.6266 96.3811 81.2754C96.7373 81.9116 96.9155 82.6622 96.9155 83.5274C96.9155 84.4053 96.7119 85.1814 96.3048 85.8557C95.9104 86.5173 95.3378 87.0389 94.5872 87.4206C93.8493 87.7896 92.9714 87.974 91.9535 87.974Z" fill="#E60050"/>
<path d="M139.426 87.974C137.848 87.974 136.633 87.3761 135.781 86.1801C134.928 84.9714 134.502 83.2539 134.502 81.0273C134.502 78.7754 134.928 77.0642 135.781 75.8937C136.633 74.7232 137.848 74.1379 139.426 74.1379C141.016 74.1379 142.231 74.7232 143.071 75.8937C143.923 77.0642 144.349 78.769 144.349 81.0083C144.349 83.2475 143.923 84.9714 143.071 86.1801C142.231 87.3761 141.016 87.974 139.426 87.974ZM139.426 85.9511C140.291 85.9511 140.933 85.5567 141.353 84.7679C141.773 83.9663 141.983 82.7131 141.983 81.0083C141.983 79.8632 141.888 78.9344 141.697 78.222C141.519 77.5095 141.239 76.9878 140.857 76.657C140.475 76.3135 139.998 76.1418 139.426 76.1418C138.573 76.1418 137.931 76.5298 137.498 77.3059C137.078 78.0693 136.868 79.3034 136.868 81.0083C136.868 82.1406 136.964 83.0757 137.155 83.8137C137.346 84.5389 137.625 85.0796 137.994 85.4358C138.376 85.7793 138.853 85.9511 139.426 85.9511ZM150.678 87.974C149.1 87.974 147.885 87.3761 147.033 86.1801C146.18 84.9714 145.754 83.2539 145.754 81.0273C145.754 78.7754 146.18 77.0642 147.033 75.8937C147.885 74.7232 149.1 74.1379 150.678 74.1379C152.268 74.1379 153.483 74.7232 154.323 75.8937C155.176 77.0642 155.602 78.769 155.602 81.0083C155.602 83.2475 155.176 84.9714 154.323 86.1801C153.483 87.3761 152.268 87.974 150.678 87.974ZM150.678 85.9511C151.543 85.9511 152.186 85.5567 152.606 84.7679C153.025 83.9663 153.235 82.7131 153.235 81.0083C153.235 79.8632 153.14 78.9344 152.949 78.222C152.771 77.5095 152.491 76.9878 152.109 76.657C151.728 76.3135 151.251 76.1418 150.678 76.1418C149.826 76.1418 149.183 76.5298 148.75 77.3059C148.331 78.0693 148.121 79.3034 148.121 81.0083C148.121 82.1406 148.216 83.0757 148.407 83.8137C148.598 84.5389 148.878 85.0796 149.247 85.4358C149.628 85.7793 150.105 85.9511 150.678 85.9511ZM157.236 80.7793V78.1456H159.907V80.7793H157.236ZM157.236 87.7832V85.1305H159.907V87.7832H157.236ZM166.263 87.974C165.335 87.974 164.444 87.8405 163.592 87.5733C162.739 87.2934 162.039 86.9117 161.492 86.4282L162.294 84.577C162.892 85.0351 163.509 85.3722 164.145 85.5885C164.794 85.8048 165.475 85.9129 166.187 85.9129C167.052 85.9129 167.707 85.7412 168.153 85.3977C168.598 85.0541 168.821 84.5516 168.821 83.89C168.821 83.2539 168.598 82.7767 168.153 82.4587C167.72 82.1279 167.084 81.9625 166.244 81.9625H164.069V79.9968H166.034C166.76 79.9968 167.338 79.8187 167.771 79.4624C168.204 79.1062 168.42 78.6164 168.42 77.9929C168.42 77.4077 168.216 76.9624 167.809 76.657C167.415 76.3517 166.842 76.199 166.092 76.199C165.405 76.199 164.768 76.3135 164.183 76.5425C163.598 76.7588 163.044 77.1023 162.523 77.5731L161.721 75.741C162.268 75.2321 162.943 74.8377 163.744 74.5578C164.558 74.2779 165.411 74.1379 166.302 74.1379C167.701 74.1379 168.795 74.456 169.584 75.0921C170.386 75.7155 170.786 76.5871 170.786 77.7067C170.786 78.5082 170.557 79.2016 170.099 79.7869C169.654 80.3594 169.037 80.7411 168.248 80.9319V80.7029C169.177 80.8556 169.896 81.2373 170.405 81.848C170.926 82.446 171.187 83.1966 171.187 84.0999C171.187 85.2959 170.748 86.2437 169.87 86.9435C168.992 87.6305 167.79 87.974 166.263 87.974ZM176.714 87.974C175.989 87.974 175.27 87.8405 174.558 87.5733C173.845 87.2934 173.234 86.918 172.725 86.4473L173.546 84.6152C174.017 85.0478 174.526 85.3722 175.073 85.5885C175.62 85.8048 176.173 85.9129 176.733 85.9129C177.866 85.9129 178.731 85.5249 179.329 84.7488C179.939 83.9727 180.245 82.8149 180.245 81.2754V79.8441H180.474C180.385 80.4803 180.168 81.0337 179.825 81.5045C179.481 81.9752 179.049 82.3378 178.527 82.5923C178.018 82.834 177.446 82.9549 176.81 82.9549C176.033 82.9549 175.334 82.7704 174.71 82.4014C174.1 82.0325 173.616 81.5235 173.26 80.8747C172.916 80.2131 172.745 79.4688 172.745 78.6418C172.745 77.7639 172.935 76.9878 173.317 76.3135C173.712 75.6392 174.246 75.1112 174.92 74.7295C175.595 74.3351 176.371 74.1379 177.248 74.1379C178.394 74.1379 179.36 74.3987 180.149 74.9204C180.938 75.442 181.536 76.2054 181.943 77.2105C182.363 78.2029 182.573 79.4052 182.573 80.8174C182.573 82.3314 182.338 83.6228 181.867 84.6915C181.409 85.7603 180.741 86.5745 179.863 87.1343C178.985 87.6941 177.936 87.974 176.714 87.974ZM177.401 81.0083C177.872 81.0083 178.285 80.9065 178.642 80.7029C178.998 80.4993 179.278 80.2131 179.481 79.8441C179.685 79.4624 179.787 79.0299 179.787 78.5464C179.787 78.0502 179.685 77.6176 179.481 77.2486C179.278 76.8797 178.998 76.5934 178.642 76.3899C178.285 76.1736 177.872 76.0654 177.401 76.0654C176.93 76.0654 176.517 76.1736 176.161 76.3899C175.804 76.5934 175.525 76.8797 175.321 77.2486C175.13 77.6176 175.035 78.0502 175.035 78.5464C175.035 79.0299 175.13 79.4624 175.321 79.8441C175.525 80.2131 175.804 80.4993 176.161 80.7029C176.517 80.9065 176.93 81.0083 177.401 81.0083ZM184.283 80.7793V78.1456H186.955V80.7793H184.283ZM184.283 87.7832V85.1305H186.955V87.7832H184.283ZM189.284 87.7832V85.9702L193.75 81.3136C194.31 80.7284 194.723 80.1876 194.99 79.6914C195.258 79.1953 195.391 78.6863 195.391 78.1647C195.391 77.5158 195.188 77.026 194.78 76.6952C194.373 76.3644 193.782 76.199 193.006 76.199C192.382 76.199 191.784 76.3135 191.212 76.5425C190.639 76.7588 190.079 77.1023 189.532 77.5731L188.731 75.741C189.278 75.2575 189.952 74.8695 190.754 74.5768C191.568 74.2842 192.42 74.1379 193.311 74.1379C194.278 74.1379 195.092 74.2842 195.754 74.5768C196.428 74.8695 196.937 75.2957 197.28 75.8555C197.637 76.4153 197.815 77.096 197.815 77.8975C197.815 78.7372 197.618 79.5388 197.223 80.3021C196.829 81.0528 196.218 81.8416 195.391 82.6686L191.67 86.39V85.7412H198.349V87.7832H189.284ZM201.166 87.7832V85.7412H204.258V76.3899H205.441L201.472 78.7563V76.428L204.964 74.3287H206.72V85.7412H209.621V87.7832H201.166Z" fill="#00AAB9"/>
<g clip-path="url(#clip0_4039_102277)">
<rect x="90.9873" y="128.217" width="49.3012" height="12.7229" rx="4.77108" fill="#00AAB9"/>
<path d="M106.852 137.288C106.56 137.288 106.266 137.227 105.969 137.105C105.673 136.978 105.426 136.814 105.23 136.612L105.476 136.096C105.678 136.302 105.898 136.456 106.136 136.557C106.375 136.658 106.616 136.708 106.86 136.708C107.395 136.708 107.806 136.517 108.093 136.135C108.384 135.748 108.53 135.171 108.53 134.402V133.662H108.609C108.578 133.959 108.485 134.219 108.331 134.442C108.183 134.664 107.989 134.834 107.751 134.951C107.517 135.067 107.255 135.125 106.963 135.125C106.624 135.125 106.322 135.051 106.057 134.903C105.797 134.754 105.593 134.545 105.445 134.275C105.296 134.004 105.222 133.699 105.222 133.36C105.222 133.005 105.299 132.692 105.453 132.422C105.612 132.146 105.826 131.931 106.097 131.778C106.372 131.619 106.688 131.539 107.043 131.539C107.499 131.539 107.886 131.648 108.204 131.865C108.522 132.077 108.763 132.387 108.927 132.796C109.092 133.204 109.174 133.697 109.174 134.275C109.174 134.916 109.081 135.462 108.896 135.913C108.71 136.363 108.445 136.705 108.1 136.938C107.756 137.172 107.34 137.288 106.852 137.288ZM107.099 134.577C107.342 134.577 107.557 134.524 107.743 134.418C107.928 134.312 108.071 134.166 108.172 133.98C108.278 133.795 108.331 133.58 108.331 133.336C108.331 133.087 108.278 132.87 108.172 132.684C108.071 132.499 107.928 132.353 107.743 132.247C107.557 132.141 107.342 132.088 107.099 132.088C106.855 132.088 106.637 132.141 106.447 132.247C106.261 132.353 106.115 132.499 106.009 132.684C105.908 132.87 105.858 133.087 105.858 133.336C105.858 133.58 105.908 133.795 106.009 133.98C106.115 134.166 106.261 134.312 106.447 134.418C106.637 134.524 106.855 134.577 107.099 134.577ZM110.507 137.217L113.266 131.889V132.175H110.133V131.611H113.862V132.104L111.23 137.217H110.507ZM114.877 137.217V136.406H115.688V137.217H114.877ZM117.195 137.217V136.652H118.515V132.175H118.865L117.323 133.138V132.478L118.698 131.611H119.175V136.652H120.416V137.217H117.195ZM123.522 137.288C123.071 137.288 122.687 137.182 122.369 136.97C122.051 136.753 121.81 136.44 121.645 136.032C121.481 135.624 121.399 135.131 121.399 134.553C121.399 133.906 121.492 133.36 121.677 132.915C121.863 132.464 122.128 132.122 122.472 131.889C122.817 131.656 123.233 131.539 123.721 131.539C124.012 131.539 124.307 131.6 124.603 131.722C124.9 131.839 125.144 132.003 125.335 132.215L125.096 132.724C124.895 132.517 124.675 132.366 124.436 132.271C124.198 132.17 123.957 132.12 123.713 132.12C123.172 132.12 122.756 132.313 122.464 132.7C122.178 133.082 122.035 133.657 122.035 134.426V135.165H121.963C122.001 134.863 122.091 134.603 122.234 134.386C122.382 134.163 122.576 133.994 122.814 133.877C123.053 133.76 123.318 133.702 123.609 133.702C123.949 133.702 124.248 133.776 124.508 133.925C124.768 134.073 124.972 134.283 125.12 134.553C125.269 134.818 125.343 135.123 125.343 135.467C125.343 135.817 125.266 136.13 125.112 136.406C124.959 136.681 124.744 136.899 124.468 137.058C124.193 137.211 123.877 137.288 123.522 137.288ZM123.474 136.732C123.718 136.732 123.933 136.681 124.118 136.581C124.309 136.475 124.455 136.329 124.556 136.143C124.662 135.952 124.715 135.735 124.715 135.491C124.715 135.247 124.662 135.033 124.556 134.847C124.455 134.662 124.309 134.516 124.118 134.41C123.933 134.304 123.718 134.251 123.474 134.251C123.23 134.251 123.016 134.304 122.83 134.41C122.645 134.516 122.499 134.662 122.393 134.847C122.292 135.033 122.242 135.247 122.242 135.491C122.242 135.735 122.292 135.952 122.393 136.143C122.499 136.329 122.645 136.475 122.83 136.581C123.016 136.681 123.23 136.732 123.474 136.732ZM128.075 137.217H127.495L130.827 131.611H131.407L128.075 137.217ZM127.511 134.974C127.081 134.974 126.742 134.823 126.493 134.521C126.249 134.214 126.127 133.792 126.127 133.257C126.127 132.716 126.252 132.297 126.501 132C126.75 131.698 127.087 131.547 127.511 131.547C127.94 131.547 128.277 131.698 128.521 132C128.77 132.297 128.894 132.716 128.894 133.257C128.894 133.792 128.77 134.214 128.521 134.521C128.277 134.823 127.94 134.974 127.511 134.974ZM127.511 134.513C127.77 134.513 127.972 134.41 128.115 134.203C128.263 133.991 128.338 133.676 128.338 133.257C128.338 132.833 128.263 132.517 128.115 132.311C127.972 132.104 127.77 132 127.511 132C127.256 132 127.055 132.104 126.906 132.311C126.763 132.517 126.692 132.833 126.692 133.257C126.692 133.681 126.763 133.996 126.906 134.203C127.055 134.41 127.256 134.513 127.511 134.513ZM131.391 137.288C130.956 137.288 130.615 137.137 130.365 136.835C130.121 136.533 130 136.109 130 135.563C130 135.022 130.124 134.603 130.373 134.306C130.622 134.01 130.962 133.861 131.391 133.861C131.821 133.861 132.157 134.012 132.401 134.314C132.65 134.611 132.775 135.027 132.775 135.563C132.775 136.104 132.65 136.528 132.401 136.835C132.157 137.137 131.821 137.288 131.391 137.288ZM131.391 136.827C131.646 136.827 131.844 136.724 131.988 136.517C132.136 136.305 132.21 135.987 132.21 135.563C132.21 135.144 132.136 134.831 131.988 134.625C131.844 134.418 131.646 134.314 131.391 134.314C131.131 134.314 130.93 134.418 130.787 134.625C130.644 134.831 130.572 135.144 130.572 135.563C130.572 135.992 130.644 136.31 130.787 136.517C130.93 136.724 131.131 136.827 131.391 136.827Z" fill="white"/>
<path fill-rule="evenodd" clip-rule="evenodd" d="M99.4161 133.411C99.5751 133.199 99.8932 133.199 100.052 133.411L101.643 135.532C101.839 135.794 101.652 136.168 101.325 136.168H98.1438C97.8162 136.168 97.6292 135.794 97.8257 135.532L99.4161 133.411Z" fill="white"/>
</g>
<path opacity="0.2" d="M115.638 51.8789V109.132" stroke="black" stroke-width="0.795181" stroke-linecap="round" stroke-linejoin="round"/>
<defs>
<clipPath id="clip0_4039_102277">
<rect width="49.3012" height="12.7229" fill="white" transform="translate(90.9875 128.217)"/>
</clipPath>
</defs>
</svg>
