<svg width="478" height="161" viewBox="0 0 478 161" fill="none" xmlns="http://www.w3.org/2000/svg">
<rect x="0.673828" y="0.975586" width="477.108" height="159.036" rx="12.7229" fill="white"/>
<path d="M391.903 65.3849H398.265" stroke="#5D6AE8" stroke-width="1.59036" stroke-linecap="round" stroke-linejoin="round"/>
<path d="M391.903 95.6017H398.265" stroke="#FF0090" stroke-width="1.59036" stroke-linecap="round" stroke-linejoin="round"/>
<path d="M407.982 71.2539V69.5522H410.558V61.7594H411.544L408.236 63.7315V61.7913L411.147 60.0419H412.61V69.5522H415.027V71.2539H407.982ZM416.993 71.2539V69.7431L420.714 65.8626C421.181 65.3749 421.526 64.9243 421.748 64.5108C421.971 64.0973 422.082 63.6732 422.082 63.2385C422.082 62.6978 421.913 62.2896 421.573 62.0139C421.234 61.7382 420.741 61.6004 420.094 61.6004C419.575 61.6004 419.076 61.6958 418.599 61.8867C418.122 62.0669 417.656 62.3532 417.2 62.7455L416.532 61.2187C416.988 60.8158 417.55 60.4925 418.218 60.2486C418.896 60.0048 419.606 59.8828 420.349 59.8828C421.154 59.8828 421.833 60.0048 422.384 60.2486C422.946 60.4925 423.37 60.8476 423.657 61.3141C423.953 61.7807 424.102 62.3479 424.102 63.0158C424.102 63.7156 423.938 64.3835 423.609 65.0197C423.28 65.6452 422.771 66.3026 422.082 66.9917L418.981 70.0929V69.5522H424.547V71.2539H416.993ZM426.529 71.2539V69.7431L430.25 65.8626C430.717 65.3749 431.061 64.9243 431.284 64.5108C431.507 64.0973 431.618 63.6732 431.618 63.2385C431.618 62.6978 431.448 62.2896 431.109 62.0139C430.77 61.7382 430.277 61.6004 429.63 61.6004C429.111 61.6004 428.612 61.6958 428.135 61.8867C427.658 62.0669 427.192 62.3532 426.736 62.7455L426.068 61.2187C426.524 60.8158 427.086 60.4925 427.754 60.2486C428.432 60.0048 429.142 59.8828 429.885 59.8828C430.69 59.8828 431.369 60.0048 431.92 60.2486C432.482 60.4925 432.906 60.8476 433.193 61.3141C433.489 61.7807 433.638 62.3479 433.638 63.0158C433.638 63.7156 433.474 64.3835 433.145 65.0197C432.816 65.6452 432.307 66.3026 431.618 66.9917L428.517 70.0929V69.5522H434.083V71.2539H426.529Z" fill="black"/>
<path d="M407.982 101.471V99.769H410.558V91.9762H411.544L408.236 93.9483V92.0081L411.147 90.2587H412.61V99.769H415.027V101.471H407.982ZM420.524 101.63C419.209 101.63 418.196 101.131 417.486 100.135C416.776 99.1276 416.42 97.6962 416.42 95.8408C416.42 93.9642 416.776 92.5382 417.486 91.5628C418.196 90.5873 419.209 90.0996 420.524 90.0996C421.849 90.0996 422.861 90.5873 423.561 91.5628C424.272 92.5382 424.627 93.9589 424.627 95.8249C424.627 97.6909 424.272 99.1276 423.561 100.135C422.861 101.131 421.849 101.63 420.524 101.63ZM420.524 99.944C421.245 99.944 421.78 99.6153 422.13 98.9579C422.48 98.29 422.655 97.2456 422.655 95.8249C422.655 94.8707 422.575 94.0967 422.416 93.503C422.268 92.9093 422.034 92.4746 421.716 92.1989C421.398 91.9126 421.001 91.7695 420.524 91.7695C419.813 91.7695 419.278 92.0929 418.917 92.7396C418.567 93.3758 418.393 94.4042 418.393 95.8249C418.393 96.7685 418.472 97.5478 418.631 98.1628C418.79 98.7671 419.023 99.2177 419.331 99.5146C419.649 99.8008 420.046 99.944 420.524 99.944ZM427.054 101.471V99.769H429.63V91.9762H430.616L427.308 93.9483V92.0081L430.219 90.2587H431.682V99.769H434.099V101.471H427.054Z" fill="black"/>
<g clip-path="url(#clip0_4039_102350)">
<g opacity="0.2">
<path d="M46.7949 58.2277H352.144" stroke="black" stroke-width="0.795181" stroke-linecap="round" stroke-linejoin="round"/>
<path d="M46.7947 90.0353H352.144" stroke="black" stroke-width="0.795181" stroke-linecap="round" stroke-linejoin="round"/>
<path d="M46.7947 121.842H352.144" stroke="black" stroke-width="0.795181" stroke-linecap="round" stroke-linejoin="round"/>
</g>
<path d="M22.3653 60.8672V60.3026H23.6853V55.8257H24.0352L22.4925 56.7879V56.1279L23.8682 55.2612H24.3453V60.3026H25.5858V60.8672H22.3653ZM28.5089 60.9388C27.8728 60.9388 27.3851 60.6922 27.0458 60.1992C26.7065 59.7062 26.5369 58.9932 26.5369 58.0602C26.5369 57.1219 26.7065 56.4089 27.0458 55.9212C27.3851 55.4335 27.8728 55.1896 28.5089 55.1896C29.1504 55.1896 29.6381 55.4335 29.9721 55.9212C30.3114 56.4089 30.481 57.1192 30.481 58.0522C30.481 58.9906 30.3114 59.7062 29.9721 60.1992C29.6328 60.6922 29.1451 60.9388 28.5089 60.9388ZM28.5089 60.3662C28.9542 60.3662 29.2856 60.178 29.5029 59.8016C29.7203 59.4253 29.8289 58.8421 29.8289 58.0522C29.8289 57.5221 29.7812 57.0901 29.6858 56.7561C29.5904 56.4168 29.4446 56.165 29.2485 56.0007C29.0523 55.8363 28.8058 55.7542 28.5089 55.7542C28.0689 55.7542 27.7376 55.9397 27.515 56.3108C27.2976 56.6819 27.1889 57.2624 27.1889 58.0522C27.1889 58.5771 27.2367 59.0118 27.3321 59.3563C27.4328 59.6956 27.5786 59.9501 27.7694 60.1197C27.9656 60.2841 28.2121 60.3662 28.5089 60.3662Z" fill="black"/>
</g>
<g clip-path="url(#clip1_4039_102350)">
<path d="M28.5087 124.554C27.8726 124.554 27.3848 124.307 27.0456 123.814C26.7063 123.321 26.5366 122.608 26.5366 121.675C26.5366 120.737 26.7063 120.024 27.0456 119.536C27.3848 119.049 27.8726 118.805 28.5087 118.805C29.1501 118.805 29.6379 119.049 29.9718 119.536C30.3111 120.024 30.4807 120.734 30.4807 121.667C30.4807 122.606 30.3111 123.321 29.9718 123.814C29.6326 124.307 29.1448 124.554 28.5087 124.554ZM28.5087 123.981C28.954 123.981 29.2853 123.793 29.5027 123.417C29.72 123.04 29.8287 122.457 29.8287 121.667C29.8287 121.137 29.781 120.705 29.6856 120.371C29.5901 120.032 29.4444 119.78 29.2482 119.616C29.0521 119.452 28.8056 119.369 28.5087 119.369C28.0687 119.369 27.7374 119.555 27.5147 119.926C27.2974 120.297 27.1887 120.878 27.1887 121.667C27.1887 122.192 27.2364 122.627 27.3318 122.972C27.4326 123.311 27.5783 123.565 27.7692 123.735C27.9653 123.899 28.2118 123.981 28.5087 123.981Z" fill="black"/>
<path d="M28.6121 92.7464C28.3682 92.7464 28.1297 92.7199 27.8964 92.6669C27.6632 92.6138 27.4432 92.537 27.2364 92.4363C27.035 92.3355 26.8574 92.2136 26.7036 92.0705L26.9501 91.5616C27.2099 91.7683 27.475 91.922 27.7453 92.0228C28.0157 92.1182 28.3046 92.1659 28.6121 92.1659C29.015 92.1659 29.3304 92.0572 29.5583 91.8399C29.7863 91.6225 29.9003 91.3363 29.9003 90.9811C29.9003 90.6153 29.7916 90.3158 29.5742 90.0825C29.3569 89.8493 29.0547 89.7326 28.6677 89.7326C28.3921 89.7326 28.1456 89.7883 27.9282 89.8996C27.7109 90.0056 27.5227 90.1726 27.3636 90.4006H26.8865V87.0688H30.2104V87.6254H27.5227V89.8599H27.3477C27.4909 89.6372 27.687 89.4676 27.9362 89.3509C28.1906 89.229 28.4769 89.1681 28.795 89.1681C29.1554 89.1681 29.4656 89.2423 29.7253 89.3907C29.9904 89.5391 30.1945 89.7459 30.3376 90.0109C30.4807 90.276 30.5523 90.5861 30.5523 90.9413C30.5523 91.2965 30.4728 91.6119 30.3138 91.8876C30.16 92.1579 29.9374 92.37 29.6458 92.5237C29.3595 92.6722 29.015 92.7464 28.6121 92.7464Z" fill="black"/>
</g>
<path d="M51.2504 137.647C50.7415 137.647 50.3513 137.45 50.0799 137.055C49.8085 136.661 49.6728 136.091 49.6728 135.344C49.6728 134.594 49.8085 134.023 50.0799 133.633C50.3513 133.243 50.7415 133.048 51.2504 133.048C51.7636 133.048 52.1537 133.243 52.4209 133.633C52.6923 134.023 52.8281 134.591 52.8281 135.338C52.8281 136.089 52.6923 136.661 52.4209 137.055C52.1495 137.45 51.7593 137.647 51.2504 137.647ZM51.2504 137.189C51.6067 137.189 51.8717 137.039 52.0456 136.737C52.2195 136.436 52.3064 135.97 52.3064 135.338C52.3064 134.914 52.2683 134.568 52.1919 134.301C52.1156 134.03 51.9989 133.828 51.842 133.697C51.6851 133.565 51.4879 133.499 51.2504 133.499C50.8984 133.499 50.6334 133.648 50.4552 133.945C50.2814 134.242 50.1944 134.706 50.1944 135.338C50.1944 135.758 50.2326 136.106 50.3089 136.381C50.3895 136.653 50.5061 136.856 50.6588 136.992C50.8157 137.123 51.0129 137.189 51.2504 137.189ZM53.9643 137.59V137.138H55.0203V133.557H55.3002L54.0661 134.326V133.798L55.1666 133.105H55.5483V137.138H56.5407V137.59H53.9643Z" fill="black"/>
<path d="M63.9731 137.647C63.4642 137.647 63.074 137.45 62.8026 137.055C62.5311 136.661 62.3954 136.091 62.3954 135.344C62.3954 134.594 62.5311 134.023 62.8026 133.633C63.074 133.243 63.4642 133.048 63.9731 133.048C64.4862 133.048 64.8764 133.243 65.1436 133.633C65.415 134.023 65.5507 134.591 65.5507 135.338C65.5507 136.089 65.415 136.661 65.1436 137.055C64.8722 137.45 64.482 137.647 63.9731 137.647ZM63.9731 137.189C64.3293 137.189 64.5944 137.039 64.7683 136.737C64.9421 136.436 65.0291 135.97 65.0291 135.338C65.0291 134.914 64.9909 134.568 64.9146 134.301C64.8382 134.03 64.7216 133.828 64.5647 133.697C64.4078 133.565 64.2106 133.499 63.9731 133.499C63.6211 133.499 63.356 133.648 63.1779 133.945C63.004 134.242 62.9171 134.706 62.9171 135.338C62.9171 135.758 62.9552 136.106 63.0316 136.381C63.1122 136.653 63.2288 136.856 63.3815 136.992C63.5384 137.123 63.7356 137.189 63.9731 137.189ZM66.4261 137.59V137.195L68.0165 135.535C68.2243 135.319 68.3791 135.113 68.4809 134.918C68.5869 134.719 68.6399 134.513 68.6399 134.301C68.6399 134.042 68.5593 133.847 68.3982 133.716C68.237 133.58 68.0037 133.512 67.6984 133.512C67.4609 133.512 67.2404 133.555 67.0368 133.639C66.8375 133.72 66.6445 133.849 66.4579 134.027L66.2671 133.614C66.4367 133.444 66.653 133.309 66.9159 133.207C67.1789 133.101 67.4567 133.048 67.7493 133.048C68.0546 133.048 68.3112 133.094 68.519 133.188C68.7311 133.281 68.8922 133.419 69.0025 133.601C69.1128 133.779 69.1679 133.998 69.1679 134.256C69.1679 134.541 69.0979 134.812 68.958 135.071C68.8223 135.325 68.6229 135.588 68.36 135.86L66.9541 137.284V137.138H69.3587V137.59H66.4261Z" fill="black"/>
<path d="M76.6965 137.647C76.1875 137.647 75.7974 137.45 75.526 137.055C75.2545 136.661 75.1188 136.091 75.1188 135.344C75.1188 134.594 75.2545 134.023 75.526 133.633C75.7974 133.243 76.1875 133.048 76.6965 133.048C77.2096 133.048 77.5998 133.243 77.867 133.633C78.1384 134.023 78.2741 134.591 78.2741 135.338C78.2741 136.089 78.1384 136.661 77.867 137.055C77.5955 137.45 77.2054 137.647 76.6965 137.647ZM76.6965 137.189C77.0527 137.189 77.3178 137.039 77.4916 136.737C77.6655 136.436 77.7525 135.97 77.7525 135.338C77.7525 134.914 77.7143 134.568 77.638 134.301C77.5616 134.03 77.445 133.828 77.2881 133.697C77.1312 133.565 76.934 133.499 76.6965 133.499C76.3445 133.499 76.0794 133.648 75.9013 133.945C75.7274 134.242 75.6405 134.706 75.6405 135.338C75.6405 135.758 75.6786 136.106 75.755 136.381C75.8355 136.653 75.9522 136.856 76.1048 136.992C76.2618 137.123 76.459 137.189 76.6965 137.189ZM80.4854 137.647C80.1843 137.647 79.8959 137.6 79.6202 137.507C79.3446 137.414 79.1134 137.28 78.9268 137.106L79.1241 136.699C79.3319 136.869 79.546 136.992 79.7666 137.068C79.9871 137.145 80.2246 137.183 80.479 137.183C80.8141 137.183 81.0685 137.113 81.2424 136.973C81.4163 136.829 81.5032 136.619 81.5032 136.343C81.5032 136.08 81.4142 135.881 81.2361 135.745C81.0579 135.605 80.7971 135.535 80.4536 135.535H79.7793V135.096H80.4091C80.7059 135.096 80.9413 135.02 81.1152 134.867C81.2891 134.714 81.376 134.507 81.376 134.244C81.376 134.006 81.2954 133.826 81.1343 133.703C80.9774 133.576 80.7505 133.512 80.4536 133.512C80.2076 133.512 79.9807 133.555 79.7729 133.639C79.5694 133.72 79.3785 133.849 79.2004 134.027L79.0032 133.614C79.1771 133.436 79.3955 133.298 79.6584 133.2C79.9214 133.099 80.197 133.048 80.4854 133.048C80.9265 133.048 81.2721 133.15 81.5223 133.353C81.7725 133.557 81.8976 133.839 81.8976 134.199C81.8976 134.475 81.8192 134.712 81.6623 134.912C81.5054 135.107 81.2933 135.24 81.0261 135.312V135.242C81.3442 135.293 81.5902 135.421 81.7641 135.624C81.9379 135.823 82.0249 136.076 82.0249 136.381C82.0249 136.771 81.887 137.081 81.6114 137.31C81.34 137.535 80.9646 137.647 80.4854 137.647Z" fill="black"/>
<path d="M89.4191 137.647C88.9102 137.647 88.52 137.45 88.2486 137.055C87.9772 136.661 87.8415 136.091 87.8415 135.344C87.8415 134.594 87.9772 134.023 88.2486 133.633C88.52 133.243 88.9102 133.048 89.4191 133.048C89.9323 133.048 90.3224 133.243 90.5896 133.633C90.861 134.023 90.9968 134.591 90.9968 135.338C90.9968 136.089 90.861 136.661 90.5896 137.055C90.3182 137.45 89.928 137.647 89.4191 137.647ZM89.4191 137.189C89.7754 137.189 90.0404 137.039 90.2143 136.737C90.3882 136.436 90.4751 135.97 90.4751 135.338C90.4751 134.914 90.437 134.568 90.3606 134.301C90.2843 134.03 90.1677 133.828 90.0107 133.697C89.8538 133.565 89.6566 133.499 89.4191 133.499C89.0671 133.499 88.8021 133.648 88.6239 133.945C88.4501 134.242 88.3631 134.706 88.3631 135.338C88.3631 135.758 88.4013 136.106 88.4776 136.381C88.5582 136.653 88.6748 136.856 88.8275 136.992C88.9844 137.123 89.1816 137.189 89.4191 137.189ZM93.7806 137.59V136.617H91.6431V136.235L93.8633 133.105H94.2959V136.19H94.9829V136.617H94.2959V137.59H93.7806ZM93.7806 136.19V133.728H93.9205L92.0757 136.324V136.19H93.7806Z" fill="black"/>
<path d="M102.142 137.647C101.633 137.647 101.243 137.45 100.971 137.055C100.7 136.661 100.564 136.091 100.564 135.344C100.564 134.594 100.7 134.023 100.971 133.633C101.243 133.243 101.633 133.048 102.142 133.048C102.655 133.048 103.045 133.243 103.312 133.633C103.584 134.023 103.719 134.591 103.719 135.338C103.719 136.089 103.584 136.661 103.312 137.055C103.041 137.45 102.651 137.647 102.142 137.647ZM102.142 137.189C102.498 137.189 102.763 137.039 102.937 136.737C103.111 136.436 103.198 135.97 103.198 135.338C103.198 134.914 103.16 134.568 103.083 134.301C103.007 134.03 102.89 133.828 102.733 133.697C102.576 133.565 102.379 133.499 102.142 133.499C101.79 133.499 101.525 133.648 101.347 133.945C101.173 134.242 101.086 134.706 101.086 135.338C101.086 135.758 101.124 136.106 101.2 136.381C101.281 136.653 101.397 136.856 101.55 136.992C101.707 137.123 101.904 137.189 102.142 137.189ZM106.039 137.647C105.844 137.647 105.653 137.626 105.466 137.583C105.28 137.541 105.104 137.48 104.938 137.399C104.777 137.318 104.635 137.221 104.512 137.106L104.709 136.699C104.917 136.865 105.129 136.988 105.345 137.068C105.562 137.145 105.793 137.183 106.039 137.183C106.361 137.183 106.614 137.096 106.796 136.922C106.978 136.748 107.069 136.519 107.069 136.235C107.069 135.942 106.982 135.703 106.809 135.516C106.635 135.329 106.393 135.236 106.083 135.236C105.863 135.236 105.666 135.281 105.492 135.37C105.318 135.455 105.167 135.588 105.04 135.77H104.658V133.105H107.318V133.55H105.167V135.338H105.027C105.142 135.16 105.299 135.024 105.498 134.931C105.702 134.833 105.931 134.784 106.185 134.784C106.474 134.784 106.722 134.844 106.929 134.963C107.142 135.081 107.305 135.247 107.419 135.459C107.534 135.671 107.591 135.919 107.591 136.203C107.591 136.487 107.527 136.74 107.4 136.96C107.277 137.176 107.099 137.346 106.866 137.469C106.637 137.588 106.361 137.647 106.039 137.647Z" fill="black"/>
<path d="M114.864 137.647C114.356 137.647 113.965 137.45 113.694 137.055C113.423 136.661 113.287 136.091 113.287 135.344C113.287 134.594 113.423 134.023 113.694 133.633C113.965 133.243 114.356 133.048 114.864 133.048C115.378 133.048 115.768 133.243 116.035 133.633C116.306 134.023 116.442 134.591 116.442 135.338C116.442 136.089 116.306 136.661 116.035 137.055C115.764 137.45 115.373 137.647 114.864 137.647ZM114.864 137.189C115.221 137.189 115.486 137.039 115.66 136.737C115.833 136.436 115.92 135.97 115.92 135.338C115.92 134.914 115.882 134.568 115.806 134.301C115.73 134.03 115.613 133.828 115.456 133.697C115.299 133.565 115.102 133.499 114.864 133.499C114.512 133.499 114.247 133.648 114.069 133.945C113.895 134.242 113.808 134.706 113.808 135.338C113.808 135.758 113.847 136.106 113.923 136.381C114.004 136.653 114.12 136.856 114.273 136.992C114.43 137.123 114.627 137.189 114.864 137.189ZM118.825 137.647C118.465 137.647 118.157 137.562 117.903 137.393C117.648 137.219 117.455 136.969 117.324 136.642C117.192 136.315 117.127 135.921 117.127 135.459C117.127 134.941 117.201 134.505 117.349 134.148C117.498 133.788 117.71 133.514 117.985 133.328C118.261 133.141 118.594 133.048 118.984 133.048C119.217 133.048 119.453 133.097 119.69 133.194C119.928 133.287 120.123 133.419 120.276 133.588L120.085 133.996C119.924 133.83 119.748 133.709 119.557 133.633C119.366 133.552 119.173 133.512 118.978 133.512C118.545 133.512 118.212 133.667 117.979 133.977C117.75 134.282 117.636 134.742 117.636 135.357V135.949H117.578C117.608 135.707 117.68 135.499 117.795 135.325C117.913 135.147 118.068 135.011 118.259 134.918C118.45 134.825 118.662 134.778 118.895 134.778C119.167 134.778 119.406 134.837 119.614 134.956C119.822 135.075 119.985 135.242 120.104 135.459C120.223 135.671 120.282 135.915 120.282 136.19C120.282 136.47 120.22 136.72 120.097 136.941C119.974 137.162 119.803 137.335 119.582 137.463C119.362 137.586 119.109 137.647 118.825 137.647ZM118.787 137.202C118.982 137.202 119.154 137.162 119.302 137.081C119.455 136.996 119.572 136.879 119.652 136.731C119.737 136.578 119.779 136.404 119.779 136.209C119.779 136.014 119.737 135.843 119.652 135.694C119.572 135.546 119.455 135.429 119.302 135.344C119.154 135.259 118.982 135.217 118.787 135.217C118.592 135.217 118.42 135.259 118.272 135.344C118.123 135.429 118.007 135.546 117.922 135.694C117.841 135.843 117.801 136.014 117.801 136.209C117.801 136.404 117.841 136.578 117.922 136.731C118.007 136.879 118.123 136.996 118.272 137.081C118.42 137.162 118.592 137.202 118.787 137.202Z" fill="black"/>
<path d="M127.588 137.647C127.079 137.647 126.688 137.45 126.417 137.055C126.146 136.661 126.01 136.091 126.01 135.344C126.01 134.594 126.146 134.023 126.417 133.633C126.688 133.243 127.079 133.048 127.588 133.048C128.101 133.048 128.491 133.243 128.758 133.633C129.03 134.023 129.165 134.591 129.165 135.338C129.165 136.089 129.03 136.661 128.758 137.055C128.487 137.45 128.096 137.647 127.588 137.647ZM127.588 137.189C127.944 137.189 128.209 137.039 128.383 136.737C128.557 136.436 128.644 135.97 128.644 135.338C128.644 134.914 128.605 134.568 128.529 134.301C128.453 134.03 128.336 133.828 128.179 133.697C128.022 133.565 127.825 133.499 127.588 133.499C127.236 133.499 126.971 133.648 126.792 133.945C126.619 134.242 126.532 134.706 126.532 135.338C126.532 135.758 126.57 136.106 126.646 136.381C126.727 136.653 126.843 136.856 126.996 136.992C127.153 137.123 127.35 137.189 127.588 137.189ZM130.212 137.59L132.42 133.328V133.557H129.913V133.105H132.897V133.499L130.791 137.59H130.212Z" fill="black"/>
<path d="M140.31 137.647C139.802 137.647 139.411 137.45 139.14 137.055C138.869 136.661 138.733 136.091 138.733 135.344C138.733 134.594 138.869 134.023 139.14 133.633C139.411 133.243 139.802 133.048 140.31 133.048C140.824 133.048 141.214 133.243 141.481 133.633C141.752 134.023 141.888 134.591 141.888 135.338C141.888 136.089 141.752 136.661 141.481 137.055C141.21 137.45 140.819 137.647 140.31 137.647ZM140.31 137.189C140.667 137.189 140.932 137.039 141.106 136.737C141.28 136.436 141.366 135.97 141.366 135.338C141.366 134.914 141.328 134.568 141.252 134.301C141.176 134.03 141.059 133.828 140.902 133.697C140.745 133.565 140.548 133.499 140.31 133.499C139.958 133.499 139.693 133.648 139.515 133.945C139.341 134.242 139.254 134.706 139.254 135.338C139.254 135.758 139.293 136.106 139.369 136.381C139.45 136.653 139.566 136.856 139.719 136.992C139.876 137.123 140.073 137.189 140.31 137.189ZM144.125 137.647C143.612 137.647 143.215 137.539 142.935 137.323C142.655 137.102 142.515 136.795 142.515 136.4C142.515 136.091 142.611 135.834 142.802 135.631C142.993 135.423 143.245 135.298 143.559 135.255V135.351C143.275 135.291 143.048 135.162 142.878 134.963C142.708 134.759 142.624 134.519 142.624 134.244C142.624 133.866 142.757 133.574 143.024 133.366C143.292 133.154 143.658 133.048 144.125 133.048C144.439 133.048 144.708 133.097 144.933 133.194C145.158 133.287 145.329 133.423 145.448 133.601C145.571 133.775 145.633 133.989 145.633 134.244C145.633 134.519 145.552 134.759 145.391 134.963C145.234 135.166 145.013 135.293 144.729 135.344V135.255C144.937 135.281 145.115 135.346 145.264 135.452C145.416 135.554 145.533 135.686 145.613 135.847C145.698 136.008 145.741 136.192 145.741 136.4C145.741 136.795 145.601 137.102 145.321 137.323C145.041 137.539 144.642 137.647 144.125 137.647ZM144.125 137.215C144.498 137.215 144.776 137.145 144.958 137.005C145.145 136.865 145.238 136.653 145.238 136.368C145.238 136.089 145.145 135.881 144.958 135.745C144.776 135.605 144.498 135.535 144.125 135.535C143.752 135.535 143.472 135.605 143.285 135.745C143.103 135.881 143.012 136.089 143.012 136.368C143.012 136.653 143.105 136.865 143.292 137.005C143.478 137.145 143.756 137.215 144.125 137.215ZM144.125 135.103C144.447 135.103 144.693 135.03 144.863 134.886C145.037 134.742 145.124 134.543 145.124 134.288C145.124 134.034 145.037 133.837 144.863 133.697C144.693 133.552 144.447 133.48 144.125 133.48C143.803 133.48 143.554 133.552 143.381 133.697C143.211 133.837 143.126 134.034 143.126 134.288C143.126 134.543 143.211 134.742 143.381 134.886C143.554 135.03 143.803 135.103 144.125 135.103Z" fill="black"/>
<path d="M153.034 137.647C152.525 137.647 152.135 137.45 151.863 137.055C151.592 136.661 151.456 136.091 151.456 135.344C151.456 134.594 151.592 134.023 151.863 133.633C152.135 133.243 152.525 133.048 153.034 133.048C153.547 133.048 153.937 133.243 154.204 133.633C154.476 134.023 154.611 134.591 154.611 135.338C154.611 136.089 154.476 136.661 154.204 137.055C153.933 137.45 153.543 137.647 153.034 137.647ZM153.034 137.189C153.39 137.189 153.655 137.039 153.829 136.737C154.003 136.436 154.09 135.97 154.09 135.338C154.09 134.914 154.051 134.568 153.975 134.301C153.899 134.03 153.782 133.828 153.625 133.697C153.468 133.565 153.271 133.499 153.034 133.499C152.682 133.499 152.417 133.648 152.238 133.945C152.065 134.242 151.978 134.706 151.978 135.338C151.978 135.758 152.016 136.106 152.092 136.381C152.173 136.653 152.289 136.856 152.442 136.992C152.599 137.123 152.796 137.189 153.034 137.189ZM156.549 137.647C156.316 137.647 156.08 137.598 155.843 137.501C155.605 137.399 155.408 137.268 155.251 137.106L155.448 136.693C155.61 136.858 155.786 136.981 155.976 137.062C156.167 137.142 156.36 137.183 156.555 137.183C156.984 137.183 157.312 137.03 157.541 136.725C157.775 136.415 157.891 135.953 157.891 135.338V134.746H157.955C157.929 134.984 157.855 135.192 157.732 135.37C157.613 135.548 157.459 135.684 157.268 135.777C157.081 135.87 156.871 135.917 156.638 135.917C156.367 135.917 156.125 135.857 155.913 135.739C155.705 135.62 155.542 135.452 155.423 135.236C155.304 135.02 155.245 134.776 155.245 134.505C155.245 134.22 155.306 133.97 155.429 133.754C155.557 133.533 155.728 133.362 155.945 133.239C156.165 133.111 156.418 133.048 156.702 133.048C157.066 133.048 157.376 133.135 157.63 133.309C157.885 133.478 158.078 133.726 158.209 134.053C158.341 134.379 158.407 134.774 158.407 135.236C158.407 135.749 158.332 136.186 158.184 136.547C158.035 136.907 157.823 137.181 157.548 137.367C157.272 137.554 156.939 137.647 156.549 137.647ZM156.746 135.478C156.941 135.478 157.113 135.435 157.261 135.351C157.41 135.266 157.524 135.149 157.605 135.001C157.69 134.852 157.732 134.681 157.732 134.485C157.732 134.286 157.69 134.112 157.605 133.964C157.524 133.815 157.41 133.699 157.261 133.614C157.113 133.529 156.941 133.487 156.746 133.487C156.551 133.487 156.377 133.529 156.225 133.614C156.076 133.699 155.96 133.815 155.875 133.964C155.794 134.112 155.754 134.286 155.754 134.485C155.754 134.681 155.794 134.852 155.875 135.001C155.96 135.149 156.076 135.266 156.225 135.351C156.377 135.435 156.551 135.478 156.746 135.478Z" fill="black"/>
<path d="M164.656 137.59V137.138H165.712V133.557H165.992L164.758 134.326V133.798L165.858 133.105H166.24V137.138H167.232V137.59H164.656ZM169.571 137.647C169.062 137.647 168.672 137.45 168.4 137.055C168.129 136.661 167.993 136.091 167.993 135.344C167.993 134.594 168.129 134.023 168.4 133.633C168.672 133.243 169.062 133.048 169.571 133.048C170.084 133.048 170.474 133.243 170.741 133.633C171.013 134.023 171.148 134.591 171.148 135.338C171.148 136.089 171.013 136.661 170.741 137.055C170.47 137.45 170.08 137.647 169.571 137.647ZM169.571 137.189C169.927 137.189 170.192 137.039 170.366 136.737C170.54 136.436 170.627 135.97 170.627 135.338C170.627 134.914 170.588 134.568 170.512 134.301C170.436 134.03 170.319 133.828 170.162 133.697C170.005 133.565 169.808 133.499 169.571 133.499C169.219 133.499 168.954 133.648 168.775 133.945C168.602 134.242 168.515 134.706 168.515 135.338C168.515 135.758 168.553 136.106 168.629 136.381C168.71 136.653 168.826 136.856 168.979 136.992C169.136 137.123 169.333 137.189 169.571 137.189Z" fill="black"/>
<path d="M177.379 137.59V137.138H178.435V133.557H178.715L177.481 134.326V133.798L178.581 133.105H178.963V137.138H179.955V137.59H177.379ZM181.193 137.59V137.138H182.249V133.557H182.529L181.295 134.326V133.798L182.396 133.105H182.777V137.138H183.77V137.59H181.193Z" fill="black"/>
<path d="M190.101 137.59V137.138H191.157V133.557H191.437L190.203 134.326V133.798L191.303 133.105H191.685V137.138H192.677V137.59H190.101ZM193.655 137.59V137.195L195.245 135.535C195.453 135.319 195.608 135.113 195.709 134.918C195.815 134.719 195.868 134.513 195.868 134.301C195.868 134.042 195.788 133.847 195.627 133.716C195.466 133.58 195.232 133.512 194.927 133.512C194.689 133.512 194.469 133.555 194.265 133.639C194.066 133.72 193.873 133.849 193.686 134.027L193.496 133.614C193.665 133.444 193.882 133.309 194.144 133.207C194.407 133.101 194.685 133.048 194.978 133.048C195.283 133.048 195.54 133.094 195.748 133.188C195.96 133.281 196.121 133.419 196.231 133.601C196.341 133.779 196.396 133.998 196.396 134.256C196.396 134.541 196.326 134.812 196.186 135.071C196.051 135.325 195.851 135.588 195.589 135.86L194.183 137.284V137.138H196.587V137.59H193.655Z" fill="black"/>
<path d="M202.824 137.59V137.138H203.88V133.557H204.16L202.926 134.326V133.798L204.027 133.105H204.408V137.138H205.401V137.59H202.824ZM207.714 137.647C207.413 137.647 207.124 137.6 206.849 137.507C206.573 137.414 206.342 137.28 206.155 137.106L206.353 136.699C206.56 136.869 206.775 136.992 206.995 137.068C207.216 137.145 207.453 137.183 207.708 137.183C208.043 137.183 208.297 137.113 208.471 136.973C208.645 136.829 208.732 136.619 208.732 136.343C208.732 136.08 208.643 135.881 208.465 135.745C208.286 135.605 208.026 135.535 207.682 135.535H207.008V135.096H207.638C207.934 135.096 208.17 135.02 208.344 134.867C208.518 134.714 208.605 134.507 208.605 134.244C208.605 134.006 208.524 133.826 208.363 133.703C208.206 133.576 207.979 133.512 207.682 133.512C207.436 133.512 207.209 133.555 207.001 133.639C206.798 133.72 206.607 133.849 206.429 134.027L206.232 133.614C206.406 133.436 206.624 133.298 206.887 133.2C207.15 133.099 207.426 133.048 207.714 133.048C208.155 133.048 208.501 133.15 208.751 133.353C209.001 133.557 209.126 133.839 209.126 134.199C209.126 134.475 209.048 134.712 208.891 134.912C208.734 135.107 208.522 135.24 208.255 135.312V135.242C208.573 135.293 208.819 135.421 208.993 135.624C209.166 135.823 209.253 136.076 209.253 136.381C209.253 136.771 209.116 137.081 208.84 137.31C208.568 137.535 208.193 137.647 207.714 137.647Z" fill="black"/>
<path d="M215.547 137.59V137.138H216.603V133.557H216.883L215.649 134.326V133.798L216.749 133.105H217.131V137.138H218.123V137.59H215.547ZM221.009 137.59V136.617H218.872V136.235L221.092 133.105H221.524V136.19H222.211V136.617H221.524V137.59H221.009ZM221.009 136.19V133.728H221.149L219.304 136.324V136.19H221.009Z" fill="black"/>
<path d="M228.27 137.59V137.138H229.326V133.557H229.606L228.372 134.326V133.798L229.473 133.105H229.854V137.138H230.847V137.59H228.27ZM233.268 137.647C233.073 137.647 232.882 137.626 232.695 137.583C232.509 137.541 232.333 137.48 232.167 137.399C232.006 137.318 231.864 137.221 231.741 137.106L231.938 136.699C232.146 136.865 232.358 136.988 232.574 137.068C232.791 137.145 233.022 137.183 233.268 137.183C233.59 137.183 233.843 137.096 234.025 136.922C234.207 136.748 234.298 136.519 234.298 136.235C234.298 135.942 234.211 135.703 234.038 135.516C233.864 135.329 233.622 135.236 233.312 135.236C233.092 135.236 232.895 135.281 232.721 135.37C232.547 135.455 232.396 135.588 232.269 135.77H231.887V133.105H234.547V133.55H232.396V135.338H232.256C232.371 135.16 232.528 135.024 232.727 134.931C232.931 134.833 233.16 134.784 233.414 134.784C233.703 134.784 233.951 134.844 234.158 134.963C234.371 135.081 234.534 135.247 234.648 135.459C234.763 135.671 234.82 135.919 234.82 136.203C234.82 136.487 234.756 136.74 234.629 136.96C234.506 137.176 234.328 137.346 234.095 137.469C233.866 137.588 233.59 137.647 233.268 137.647Z" fill="black"/>
<path d="M240.993 137.59V137.138H242.049V133.557H242.329L241.095 134.326V133.798L242.195 133.105H242.577V137.138H243.569V137.59H240.993ZM246.054 137.647C245.694 137.647 245.386 137.562 245.132 137.393C244.877 137.219 244.684 136.969 244.553 136.642C244.421 136.315 244.356 135.921 244.356 135.459C244.356 134.941 244.43 134.505 244.578 134.148C244.727 133.788 244.939 133.514 245.214 133.328C245.49 133.141 245.823 133.048 246.213 133.048C246.446 133.048 246.682 133.097 246.919 133.194C247.157 133.287 247.352 133.419 247.505 133.588L247.314 133.996C247.153 133.83 246.977 133.709 246.786 133.633C246.595 133.552 246.402 133.512 246.207 133.512C245.774 133.512 245.441 133.667 245.208 133.977C244.979 134.282 244.865 134.742 244.865 135.357V135.949H244.807C244.837 135.707 244.909 135.499 245.024 135.325C245.142 135.147 245.297 135.011 245.488 134.918C245.679 134.825 245.891 134.778 246.124 134.778C246.396 134.778 246.635 134.837 246.843 134.956C247.051 135.075 247.214 135.242 247.333 135.459C247.452 135.671 247.511 135.915 247.511 136.19C247.511 136.47 247.449 136.72 247.326 136.941C247.203 137.162 247.032 137.335 246.811 137.463C246.591 137.586 246.338 137.647 246.054 137.647ZM246.016 137.202C246.211 137.202 246.383 137.162 246.531 137.081C246.684 136.996 246.801 136.879 246.881 136.731C246.966 136.578 247.008 136.404 247.008 136.209C247.008 136.014 246.966 135.843 246.881 135.694C246.801 135.546 246.684 135.429 246.531 135.344C246.383 135.259 246.211 135.217 246.016 135.217C245.821 135.217 245.649 135.259 245.501 135.344C245.352 135.429 245.236 135.546 245.151 135.694C245.07 135.843 245.03 136.014 245.03 136.209C245.03 136.404 245.07 136.578 245.151 136.731C245.236 136.879 245.352 136.996 245.501 137.081C245.649 137.162 245.821 137.202 246.016 137.202Z" fill="black"/>
<path d="M253.716 137.59V137.138H254.772V133.557H255.052L253.818 134.326V133.798L254.919 133.105H255.3V137.138H256.293V137.59H253.716ZM257.442 137.59L259.649 133.328V133.557H257.143V133.105H260.126V133.499L258.021 137.59H257.442Z" fill="black"/>
<path d="M266.439 137.59V137.138H267.495V133.557H267.775L266.541 134.326V133.798L267.641 133.105H268.023V137.138H269.015V137.59H266.439ZM271.354 137.647C270.841 137.647 270.444 137.539 270.164 137.323C269.884 137.102 269.744 136.795 269.744 136.4C269.744 136.091 269.84 135.834 270.031 135.631C270.222 135.423 270.474 135.298 270.788 135.255V135.351C270.504 135.291 270.277 135.162 270.107 134.963C269.937 134.759 269.853 134.519 269.853 134.244C269.853 133.866 269.986 133.574 270.253 133.366C270.521 133.154 270.887 133.048 271.354 133.048C271.668 133.048 271.937 133.097 272.162 133.194C272.387 133.287 272.558 133.423 272.677 133.601C272.8 133.775 272.862 133.989 272.862 134.244C272.862 134.519 272.781 134.759 272.62 134.963C272.463 135.166 272.242 135.293 271.958 135.344V135.255C272.166 135.281 272.344 135.346 272.493 135.452C272.645 135.554 272.762 135.686 272.842 135.847C272.927 136.008 272.97 136.192 272.97 136.4C272.97 136.795 272.83 137.102 272.55 137.323C272.27 137.539 271.871 137.647 271.354 137.647ZM271.354 137.215C271.727 137.215 272.005 137.145 272.187 137.005C272.374 136.865 272.467 136.653 272.467 136.368C272.467 136.089 272.374 135.881 272.187 135.745C272.005 135.605 271.727 135.535 271.354 135.535C270.981 135.535 270.701 135.605 270.514 135.745C270.332 135.881 270.241 136.089 270.241 136.368C270.241 136.653 270.334 136.865 270.521 137.005C270.707 137.145 270.985 137.215 271.354 137.215ZM271.354 135.103C271.676 135.103 271.922 135.03 272.092 134.886C272.266 134.742 272.353 134.543 272.353 134.288C272.353 134.034 272.266 133.837 272.092 133.697C271.922 133.552 271.676 133.48 271.354 133.48C271.032 133.48 270.783 133.552 270.61 133.697C270.44 133.837 270.355 134.034 270.355 134.288C270.355 134.543 270.44 134.742 270.61 134.886C270.783 135.03 271.032 135.103 271.354 135.103Z" fill="black"/>
<path d="M279.162 137.59V137.138H280.218V133.557H280.498L279.263 134.326V133.798L280.364 133.105H280.746V137.138H281.738V137.59H279.162ZM283.778 137.647C283.544 137.647 283.309 137.598 283.071 137.501C282.834 137.399 282.637 137.268 282.48 137.106L282.677 136.693C282.838 136.858 283.014 136.981 283.205 137.062C283.396 137.142 283.589 137.183 283.784 137.183C284.212 137.183 284.541 137.03 284.77 136.725C285.003 136.415 285.12 135.953 285.12 135.338V134.746H285.183C285.158 134.984 285.084 135.192 284.961 135.37C284.842 135.548 284.687 135.684 284.496 135.777C284.31 135.87 284.1 135.917 283.867 135.917C283.595 135.917 283.353 135.857 283.141 135.739C282.934 135.62 282.77 135.452 282.652 135.236C282.533 135.02 282.473 134.776 282.473 134.505C282.473 134.22 282.535 133.97 282.658 133.754C282.785 133.533 282.957 133.362 283.173 133.239C283.394 133.111 283.646 133.048 283.93 133.048C284.295 133.048 284.605 133.135 284.859 133.309C285.113 133.478 285.306 133.726 285.438 134.053C285.569 134.379 285.635 134.774 285.635 135.236C285.635 135.749 285.561 136.186 285.412 136.547C285.264 136.907 285.052 137.181 284.776 137.367C284.501 137.554 284.168 137.647 283.778 137.647ZM283.975 135.478C284.17 135.478 284.342 135.435 284.49 135.351C284.638 135.266 284.753 135.149 284.834 135.001C284.918 134.852 284.961 134.681 284.961 134.485C284.961 134.286 284.918 134.112 284.834 133.964C284.753 133.815 284.638 133.699 284.49 133.614C284.342 133.529 284.17 133.487 283.975 133.487C283.78 133.487 283.606 133.529 283.453 133.614C283.305 133.699 283.188 133.815 283.103 133.964C283.023 134.112 282.982 134.286 282.982 134.485C282.982 134.681 283.023 134.852 283.103 135.001C283.188 135.149 283.305 135.266 283.453 135.351C283.606 135.435 283.78 135.478 283.975 135.478Z" fill="black"/>
<path d="M291.623 137.59V137.195L293.214 135.535C293.422 135.319 293.576 135.113 293.678 134.918C293.784 134.719 293.837 134.513 293.837 134.301C293.837 134.042 293.757 133.847 293.595 133.716C293.434 133.58 293.201 133.512 292.896 133.512C292.658 133.512 292.438 133.555 292.234 133.639C292.035 133.72 291.842 133.849 291.655 134.027L291.464 133.614C291.634 133.444 291.85 133.309 292.113 133.207C292.376 133.101 292.654 133.048 292.947 133.048C293.252 133.048 293.509 133.094 293.716 133.188C293.928 133.281 294.09 133.419 294.2 133.601C294.31 133.779 294.365 133.998 294.365 134.256C294.365 134.541 294.295 134.812 294.155 135.071C294.02 135.325 293.82 135.588 293.557 135.86L292.151 137.284V137.138H294.556V137.59H291.623ZM296.799 137.647C296.29 137.647 295.9 137.45 295.629 137.055C295.357 136.661 295.222 136.091 295.222 135.344C295.222 134.594 295.357 134.023 295.629 133.633C295.9 133.243 296.29 133.048 296.799 133.048C297.312 133.048 297.703 133.243 297.97 133.633C298.241 134.023 298.377 134.591 298.377 135.338C298.377 136.089 298.241 136.661 297.97 137.055C297.698 137.45 297.308 137.647 296.799 137.647ZM296.799 137.189C297.155 137.189 297.42 137.039 297.594 136.737C297.768 136.436 297.855 135.97 297.855 135.338C297.855 134.914 297.817 134.568 297.741 134.301C297.664 134.03 297.548 133.828 297.391 133.697C297.234 133.565 297.037 133.499 296.799 133.499C296.447 133.499 296.182 133.648 296.004 133.945C295.83 134.242 295.743 134.706 295.743 135.338C295.743 135.758 295.781 136.106 295.858 136.381C295.938 136.653 296.055 136.856 296.208 136.992C296.364 137.123 296.562 137.189 296.799 137.189Z" fill="black"/>
<path d="M304.347 137.59V137.195L305.937 135.535C306.145 135.319 306.3 135.113 306.401 134.918C306.507 134.719 306.56 134.513 306.56 134.301C306.56 134.042 306.48 133.847 306.319 133.716C306.157 133.58 305.924 133.512 305.619 133.512C305.381 133.512 305.161 133.555 304.957 133.639C304.758 133.72 304.565 133.849 304.378 134.027L304.188 133.614C304.357 133.444 304.573 133.309 304.836 133.207C305.099 133.101 305.377 133.048 305.67 133.048C305.975 133.048 306.232 133.094 306.44 133.188C306.652 133.281 306.813 133.419 306.923 133.601C307.033 133.779 307.088 133.998 307.088 134.256C307.088 134.541 307.018 134.812 306.878 135.071C306.743 135.325 306.543 135.588 306.28 135.86L304.875 137.284V137.138H307.279V137.59H304.347ZM308.422 137.59V137.138H309.478V133.557H309.758L308.524 134.326V133.798L309.624 133.105H310.006V137.138H310.998V137.59H308.422Z" fill="black"/>
<path d="M317.07 137.59V137.195L318.66 135.535C318.868 135.319 319.023 135.113 319.125 134.918C319.231 134.719 319.284 134.513 319.284 134.301C319.284 134.042 319.203 133.847 319.042 133.716C318.881 133.58 318.648 133.512 318.342 133.512C318.105 133.512 317.884 133.555 317.681 133.639C317.481 133.72 317.288 133.849 317.102 134.027L316.911 133.614C317.081 133.444 317.297 133.309 317.56 133.207C317.823 133.101 318.101 133.048 318.393 133.048C318.699 133.048 318.955 133.094 319.163 133.188C319.375 133.281 319.536 133.419 319.646 133.601C319.757 133.779 319.812 133.998 319.812 134.256C319.812 134.541 319.742 134.812 319.602 135.071C319.466 135.325 319.267 135.588 319.004 135.86L317.598 137.284V137.138H320.003V137.59H317.07ZM320.884 137.59V137.195L322.475 135.535C322.683 135.319 322.837 135.113 322.939 134.918C323.045 134.719 323.098 134.513 323.098 134.301C323.098 134.042 323.018 133.847 322.856 133.716C322.695 133.58 322.462 133.512 322.157 133.512C321.919 133.512 321.699 133.555 321.495 133.639C321.296 133.72 321.103 133.849 320.916 134.027L320.725 133.614C320.895 133.444 321.111 133.309 321.374 133.207C321.637 133.101 321.915 133.048 322.208 133.048C322.513 133.048 322.769 133.094 322.977 133.188C323.189 133.281 323.35 133.419 323.461 133.601C323.571 133.779 323.626 133.998 323.626 134.256C323.626 134.541 323.556 134.812 323.416 135.071C323.281 135.325 323.081 135.588 322.818 135.86L321.412 137.284V137.138H323.817V137.59H320.884Z" fill="black"/>
<path d="M329.793 137.59V137.195L331.383 135.535C331.591 135.319 331.746 135.113 331.847 134.918C331.953 134.719 332.006 134.513 332.006 134.301C332.006 134.042 331.926 133.847 331.765 133.716C331.604 133.58 331.37 133.512 331.065 133.512C330.827 133.512 330.607 133.555 330.403 133.639C330.204 133.72 330.011 133.849 329.824 134.027L329.634 133.614C329.803 133.444 330.02 133.309 330.282 133.207C330.545 133.101 330.823 133.048 331.116 133.048C331.421 133.048 331.678 133.094 331.886 133.188C332.098 133.281 332.259 133.419 332.369 133.601C332.479 133.779 332.534 133.998 332.534 134.256C332.534 134.541 332.464 134.812 332.324 135.071C332.189 135.325 331.989 135.588 331.727 135.86L330.321 137.284V137.138H332.725V137.59H329.793ZM334.943 137.647C334.642 137.647 334.353 137.6 334.078 137.507C333.802 137.414 333.571 137.28 333.384 137.106L333.582 136.699C333.789 136.869 334.004 136.992 334.224 137.068C334.445 137.145 334.682 137.183 334.937 137.183C335.272 137.183 335.526 137.113 335.7 136.973C335.874 136.829 335.961 136.619 335.961 136.343C335.961 136.08 335.872 135.881 335.694 135.745C335.515 135.605 335.255 135.535 334.911 135.535H334.237V135.096H334.867C335.163 135.096 335.399 135.02 335.573 134.867C335.747 134.714 335.834 134.507 335.834 134.244C335.834 134.006 335.753 133.826 335.592 133.703C335.435 133.576 335.208 133.512 334.911 133.512C334.665 133.512 334.438 133.555 334.23 133.639C334.027 133.72 333.836 133.849 333.658 134.027L333.461 133.614C333.635 133.436 333.853 133.298 334.116 133.2C334.379 133.099 334.655 133.048 334.943 133.048C335.384 133.048 335.73 133.15 335.98 133.353C336.23 133.557 336.355 133.839 336.355 134.199C336.355 134.475 336.277 134.712 336.12 134.912C335.963 135.107 335.751 135.24 335.484 135.312V135.242C335.802 135.293 336.048 135.421 336.222 135.624C336.395 135.823 336.482 136.076 336.482 136.381C336.482 136.771 336.345 137.081 336.069 137.31C335.797 137.535 335.422 137.647 334.943 137.647Z" fill="black"/>
<path d="M342.515 137.59V137.195L344.106 135.535C344.313 135.319 344.468 135.113 344.57 134.918C344.676 134.719 344.729 134.513 344.729 134.301C344.729 134.042 344.648 133.847 344.487 133.716C344.326 133.58 344.093 133.512 343.788 133.512C343.55 133.512 343.33 133.555 343.126 133.639C342.927 133.72 342.734 133.849 342.547 134.027L342.356 133.614C342.526 133.444 342.742 133.309 343.005 133.207C343.268 133.101 343.546 133.048 343.838 133.048C344.144 133.048 344.4 133.094 344.608 133.188C344.82 133.281 344.981 133.419 345.092 133.601C345.202 133.779 345.257 133.998 345.257 134.256C345.257 134.541 345.187 134.812 345.047 135.071C344.911 135.325 344.712 135.588 344.449 135.86L343.043 137.284V137.138H345.448V137.59H342.515ZM348.238 137.59V136.617H346.101V136.235L348.321 133.105H348.753V136.19H349.44V136.617H348.753V137.59H348.238ZM348.238 136.19V133.728H348.378L346.533 136.324V136.19H348.238Z" fill="black"/>
<path d="M17.4574 22.9287V15.0803H18.7153L21.5987 21.5705H21.2535L24.1369 15.0803H25.3837V22.9287H24.0812V17.1064H24.482L21.8436 22.9287H20.9864L18.348 17.1064H18.7599V22.9287H17.4574ZM27.0215 22.9287V17.3068H28.4131V22.9287H27.0215ZM26.9436 16.2492V14.891H28.491V16.2492H26.9436ZM31.9281 23.04C31.4457 23.04 31.0004 22.9844 30.5922 22.873C30.1914 22.7543 29.8537 22.591 29.5791 22.3832L29.9687 21.4481C30.2508 21.641 30.5625 21.7895 30.9039 21.8934C31.2453 21.9973 31.5904 22.0492 31.9392 22.0492C32.3103 22.0492 32.5849 21.9862 32.763 21.86C32.9486 21.7338 33.0413 21.5631 33.0413 21.3479C33.0413 21.1772 32.982 21.0436 32.8632 20.9471C32.7519 20.8432 32.57 20.7653 32.3177 20.7133L31.2045 20.5018C30.7295 20.3979 30.3658 20.2198 30.1135 19.9675C29.8686 19.7151 29.7461 19.3849 29.7461 18.9767C29.7461 18.6278 29.8389 18.3198 30.0244 18.0527C30.2174 17.7855 30.4883 17.5777 30.8371 17.4292C31.1933 17.2734 31.6089 17.1955 32.0839 17.1955C32.4995 17.1955 32.8892 17.2511 33.2528 17.3624C33.6239 17.4738 33.9356 17.6408 34.188 17.8634L33.7872 18.7651C33.5571 18.5796 33.2937 18.4349 32.9968 18.331C32.6999 18.2271 32.4105 18.1751 32.1285 18.1751C31.7425 18.1751 31.4605 18.2456 31.2824 18.3866C31.1043 18.5202 31.0152 18.6946 31.0152 18.9099C31.0152 19.0731 31.0672 19.2104 31.1711 19.3218C31.2824 19.4257 31.4531 19.5036 31.6832 19.5556L32.7964 19.7671C33.2937 19.8636 33.6685 20.0343 33.9208 20.2792C34.1806 20.5167 34.3104 20.8432 34.3104 21.2588C34.3104 21.6299 34.2102 21.949 34.0099 22.2162C33.8095 22.4834 33.5312 22.6875 33.1749 22.8285C32.8187 22.9695 32.4031 23.04 31.9281 23.04ZM37.5052 23.04C37.0228 23.04 36.5775 22.9844 36.1693 22.873C35.7685 22.7543 35.4308 22.591 35.1562 22.3832L35.5459 21.4481C35.8279 21.641 36.1396 21.7895 36.481 21.8934C36.8224 21.9973 37.1675 22.0492 37.5163 22.0492C37.8874 22.0492 38.162 21.9862 38.3401 21.86C38.5257 21.7338 38.6185 21.5631 38.6185 21.3479C38.6185 21.1772 38.5591 21.0436 38.4403 20.9471C38.329 20.8432 38.1472 20.7653 37.8948 20.7133L36.7816 20.5018C36.3066 20.3979 35.9429 20.2198 35.6906 19.9675C35.4457 19.7151 35.3232 19.3849 35.3232 18.9767C35.3232 18.6278 35.416 18.3198 35.6015 18.0527C35.7945 17.7855 36.0654 17.5777 36.4142 17.4292C36.7705 17.2734 37.1861 17.1955 37.6611 17.1955C38.0767 17.1955 38.4663 17.2511 38.83 17.3624C39.2011 17.4738 39.5128 17.6408 39.7651 17.8634L39.3643 18.7651C39.1343 18.5796 38.8708 18.4349 38.5739 18.331C38.2771 18.2271 37.9876 18.1751 37.7056 18.1751C37.3197 18.1751 37.0376 18.2456 36.8595 18.3866C36.6814 18.5202 36.5923 18.6946 36.5923 18.9099C36.5923 19.0731 36.6443 19.2104 36.7482 19.3218C36.8595 19.4257 37.0302 19.5036 37.2603 19.5556L38.3735 19.7671C38.8708 19.8636 39.2456 20.0343 39.4979 20.2792C39.7577 20.5167 39.8876 20.8432 39.8876 21.2588C39.8876 21.6299 39.7874 21.949 39.587 22.2162C39.3866 22.4834 39.1083 22.6875 38.7521 22.8285C38.3958 22.9695 37.9802 23.04 37.5052 23.04ZM43.7948 23.04C43.164 23.04 42.6222 22.925 42.1695 22.6949C41.7242 22.4574 41.3791 22.1197 41.1342 21.6819C40.8967 21.244 40.7779 20.7245 40.7779 20.1233C40.7779 19.537 40.8929 19.0249 41.123 18.587C41.3531 18.1491 41.6722 17.8077 42.0804 17.5628C42.496 17.3179 42.9784 17.1955 43.5276 17.1955C44.0694 17.1955 44.5222 17.3105 44.8858 17.5406C45.2495 17.7706 45.5241 18.0935 45.7096 18.5091C45.9026 18.9247 45.9991 19.4108 45.9991 19.9675V20.3348H41.9023V19.6001H45.0083L44.819 19.7559C44.819 19.2364 44.7077 18.8394 44.485 18.5648C44.2698 18.2902 43.9544 18.1529 43.5388 18.1529C43.2271 18.1529 42.9636 18.2271 42.7484 18.3755C42.5406 18.5239 42.381 18.7355 42.2697 19.0101C42.1583 19.2847 42.1027 19.6186 42.1027 20.012V20.1567C42.1027 20.7653 42.2511 21.2217 42.548 21.526C42.8523 21.8229 43.279 21.9713 43.8282 21.9713C44.1474 21.9713 44.4442 21.9305 44.7188 21.8489C45.0009 21.7598 45.268 21.6188 45.5204 21.4258L45.9323 22.361C45.6651 22.5762 45.346 22.7432 44.9749 22.8619C44.6038 22.9807 44.2104 23.04 43.7948 23.04ZM49.3594 23.04C48.8696 23.04 48.4354 22.925 48.0569 22.6949C47.6858 22.4574 47.3964 22.1197 47.1886 21.6819C46.9808 21.244 46.8769 20.7208 46.8769 20.1122C46.8769 19.5036 46.9808 18.9841 47.1886 18.5536C47.3964 18.1157 47.6858 17.7818 48.0569 17.5517C48.4354 17.3142 48.8696 17.1955 49.3594 17.1955C49.827 17.1955 50.2389 17.3105 50.5952 17.5406C50.9588 17.7632 51.2 18.0675 51.3188 18.4534H51.174V14.7352H52.5656V22.9287H51.1963V21.7375H51.3299C51.2112 22.1383 50.9699 22.4574 50.6063 22.6949C50.25 22.925 49.8344 23.04 49.3594 23.04ZM49.7491 21.9713C50.187 21.9713 50.5395 21.8192 50.8067 21.5149C51.0738 21.2032 51.2074 20.7356 51.2074 20.1122C51.2074 19.4888 51.0738 19.0249 50.8067 18.7206C50.5395 18.4163 50.187 18.2642 49.7491 18.2642C49.3112 18.2642 48.955 18.4163 48.6804 18.7206C48.4132 19.0249 48.2796 19.4888 48.2796 20.1122C48.2796 20.7356 48.4132 21.2032 48.6804 21.5149C48.955 21.8192 49.3112 21.9713 49.7491 21.9713ZM60.8987 23.04C60.0823 23.04 59.3809 22.8768 58.7946 22.5502C58.2157 22.2162 57.7704 21.7487 57.4587 21.1475C57.147 20.5389 56.9911 19.8227 56.9911 18.9989C56.9911 18.1751 57.147 17.4626 57.4587 16.8615C57.7704 16.2603 58.2157 15.7965 58.7946 15.4699C59.3809 15.1359 60.0823 14.969 60.8987 14.969C61.4479 14.969 61.9414 15.0469 62.3793 15.2027C62.8246 15.3586 63.2068 15.5887 63.5259 15.893L63.0584 17.0285C62.7095 16.7464 62.3719 16.5461 62.0453 16.4273C61.7262 16.3011 61.3588 16.2381 60.9432 16.2381C60.1491 16.2381 59.5405 16.4793 59.1175 16.9617C58.7018 17.4367 58.494 18.1157 58.494 18.9989C58.494 19.5852 58.5868 20.0862 58.7723 20.5018C58.9579 20.9174 59.2325 21.2329 59.5962 21.4481C59.9672 21.6633 60.4162 21.7709 60.9432 21.7709C61.3588 21.7709 61.7262 21.7116 62.0453 21.5928C62.3719 21.4666 62.7095 21.2588 63.0584 20.9694L63.5259 22.1049C63.2068 22.4018 62.8246 22.6318 62.3793 22.7951C61.9414 22.9584 61.4479 23.04 60.8987 23.04ZM66.732 23.04C66.2422 23.04 65.8117 22.925 65.4406 22.6949C65.0696 22.4574 64.7801 22.1197 64.5723 21.6819C64.3645 21.244 64.2606 20.7208 64.2606 20.1122C64.2606 19.5036 64.3645 18.9841 64.5723 18.5536C64.7801 18.1157 65.0696 17.7818 65.4406 17.5517C65.8117 17.3142 66.2422 17.1955 66.732 17.1955C67.207 17.1955 67.6226 17.3142 67.9789 17.5517C68.3425 17.7818 68.5837 18.0935 68.7025 18.4868H68.58L68.7025 17.3068H70.0384C70.0161 17.5369 69.9938 17.7706 69.9716 18.0081C69.9567 18.2456 69.9493 18.4794 69.9493 18.7095V22.9287H68.5689L68.5577 21.7709H68.6913C68.5726 22.1569 68.3314 22.4649 67.9677 22.6949C67.6041 22.925 67.1922 23.04 66.732 23.04ZM67.1217 21.9713C67.5595 21.9713 67.9121 21.8192 68.1792 21.5149C68.4464 21.2032 68.58 20.7356 68.58 20.1122C68.58 19.4888 68.4464 19.0249 68.1792 18.7206C67.9121 18.4163 67.5595 18.2642 67.1217 18.2642C66.6838 18.2642 66.3312 18.4163 66.0641 18.7206C65.7969 19.0249 65.6633 19.4888 65.6633 20.1122C65.6633 20.7356 65.7932 21.2032 66.0529 21.5149C66.3201 21.8192 66.6763 21.9713 67.1217 21.9713ZM71.4646 22.9287V14.7352H72.8562V22.9287H71.4646ZM74.3674 22.9287V14.7352H75.7589V22.9287H74.3674ZM79.2739 23.04C78.7915 23.04 78.3462 22.9844 77.938 22.873C77.5373 22.7543 77.1996 22.591 76.925 22.3832L77.3146 21.4481C77.5966 21.641 77.9083 21.7895 78.2497 21.8934C78.5911 21.9973 78.9362 22.0492 79.2851 22.0492C79.6562 22.0492 79.9308 21.9862 80.1089 21.86C80.2944 21.7338 80.3872 21.5631 80.3872 21.3479C80.3872 21.1772 80.3278 21.0436 80.2091 20.9471C80.0977 20.8432 79.9159 20.7653 79.6636 20.7133L78.5503 20.5018C78.0753 20.3979 77.7117 20.2198 77.4593 19.9675C77.2144 19.7151 77.092 19.3849 77.092 18.9767C77.092 18.6278 77.1847 18.3198 77.3703 18.0527C77.5632 17.7855 77.8341 17.5777 78.1829 17.4292C78.5392 17.2734 78.9548 17.1955 79.4298 17.1955C79.8454 17.1955 80.235 17.2511 80.5987 17.3624C80.9698 17.4738 81.2815 17.6408 81.5338 17.8634L81.1331 18.7651C80.903 18.5796 80.6395 18.4349 80.3427 18.331C80.0458 18.2271 79.7563 18.1751 79.4743 18.1751C79.0884 18.1751 78.8064 18.2456 78.6282 18.3866C78.4501 18.5202 78.3611 18.6946 78.3611 18.9099C78.3611 19.0731 78.413 19.2104 78.5169 19.3218C78.6282 19.4257 78.7989 19.5036 79.029 19.5556L80.1423 19.7671C80.6395 19.8636 81.0143 20.0343 81.2667 20.2792C81.5264 20.5167 81.6563 20.8432 81.6563 21.2588C81.6563 21.6299 81.5561 21.949 81.3557 22.2162C81.1553 22.4834 80.877 22.6875 80.5208 22.8285C80.1645 22.9695 79.7489 23.04 79.2739 23.04ZM89.1194 23.04C88.6445 23.04 88.2288 22.925 87.8726 22.6949C87.5164 22.4574 87.2789 22.1383 87.1601 21.7375H87.2826V22.9287H85.9021V14.7352H87.2937V18.4534H87.1601C87.2863 18.0675 87.5275 17.7632 87.8837 17.5406C88.24 17.3105 88.6519 17.1955 89.1194 17.1955C89.6167 17.1955 90.0509 17.3142 90.4219 17.5517C90.793 17.7892 91.0825 18.1269 91.2903 18.5648C91.4981 18.9952 91.602 19.5147 91.602 20.1233C91.602 20.7319 91.4981 21.2551 91.2903 21.693C91.0825 22.1235 90.7893 22.4574 90.4108 22.6949C90.0397 22.925 89.6093 23.04 89.1194 23.04ZM88.7298 21.9713C89.1677 21.9713 89.5202 21.8192 89.7874 21.5149C90.062 21.2106 90.1993 20.7467 90.1993 20.1233C90.1993 19.4999 90.062 19.036 89.7874 18.7317C89.5202 18.42 89.1677 18.2642 88.7298 18.2642C88.2919 18.2642 87.9394 18.4163 87.6722 18.7206C87.405 19.0249 87.2714 19.4888 87.2714 20.1122C87.2714 20.7356 87.405 21.2032 87.6722 21.5149C87.9394 21.8192 88.2919 21.9713 88.7298 21.9713ZM92.5856 25.4558L92.2627 24.3537C92.6116 24.2795 92.9047 24.1941 93.1422 24.0976C93.3797 24.0011 93.5764 23.875 93.7322 23.7191C93.8881 23.5633 94.018 23.3629 94.1219 23.118L94.4002 22.4611L94.3668 23.0066L91.9176 17.3068H93.3982L95.1572 21.693H94.8343L96.6044 17.3068H98.0071L95.4466 23.2404C95.2759 23.6412 95.0904 23.9715 94.89 24.2312C94.6896 24.4984 94.4744 24.7099 94.2443 24.8658C94.0142 25.029 93.7619 25.1552 93.4873 25.2443C93.2127 25.3333 92.9121 25.4038 92.5856 25.4558ZM101.908 22.9287V15.0803H103.344V18.3532H107.363V15.0803H108.799V22.9287H107.363V19.5444H103.344V22.9287H101.908ZM112.956 23.04C112.377 23.04 111.876 22.9213 111.453 22.6838C111.03 22.4463 110.7 22.1086 110.462 21.6707C110.232 21.2329 110.117 20.7133 110.117 20.1122C110.117 19.511 110.232 18.9952 110.462 18.5648C110.7 18.1269 111.03 17.7892 111.453 17.5517C111.876 17.3142 112.377 17.1955 112.956 17.1955C113.535 17.1955 114.036 17.3142 114.459 17.5517C114.889 17.7892 115.219 18.1269 115.45 18.5648C115.687 18.9952 115.806 19.511 115.806 20.1122C115.806 20.7133 115.687 21.2329 115.45 21.6707C115.219 22.1086 114.889 22.4463 114.459 22.6838C114.036 22.9213 113.535 23.04 112.956 23.04ZM112.956 21.9713C113.394 21.9713 113.743 21.8192 114.002 21.5149C114.262 21.2032 114.392 20.7356 114.392 20.1122C114.392 19.4888 114.262 19.0249 114.002 18.7206C113.743 18.4163 113.394 18.2642 112.956 18.2642C112.518 18.2642 112.169 18.4163 111.909 18.7206C111.65 19.0249 111.52 19.4888 111.52 20.1122C111.52 20.7356 111.65 21.2032 111.909 21.5149C112.169 21.8192 112.518 21.9713 112.956 21.9713ZM119.032 23.04C118.342 23.04 117.826 22.8508 117.485 22.4723C117.143 22.0938 116.972 21.5149 116.972 20.7356V17.3068H118.364V20.7245C118.364 21.1401 118.449 21.4481 118.62 21.6485C118.791 21.8414 119.05 21.9379 119.399 21.9379C119.793 21.9379 120.112 21.8043 120.357 21.5371C120.609 21.27 120.735 20.9174 120.735 20.4796V17.3068H122.127V22.9287H120.769V21.7821H120.924C120.761 22.1828 120.513 22.4945 120.179 22.7172C119.852 22.9324 119.47 23.04 119.032 23.04ZM123.626 22.9287V18.7429C123.626 18.5054 123.619 18.2642 123.604 18.0193C123.597 17.7743 123.578 17.5369 123.548 17.3068H124.895L125.051 18.8431H124.829C124.903 18.472 125.025 18.164 125.196 17.9191C125.374 17.6742 125.589 17.4923 125.842 17.3736C126.094 17.2548 126.369 17.1955 126.666 17.1955C126.799 17.1955 126.907 17.2029 126.988 17.2177C127.07 17.2251 127.152 17.2437 127.233 17.2734L127.222 18.498C127.081 18.4386 126.959 18.4015 126.855 18.3866C126.758 18.3718 126.636 18.3644 126.487 18.3644C126.168 18.3644 125.897 18.4312 125.675 18.5648C125.46 18.6983 125.296 18.8839 125.185 19.1214C125.081 19.3589 125.029 19.6298 125.029 19.9341V22.9287H123.626ZM129.957 23.04C129.475 23.04 129.03 22.9844 128.621 22.873C128.221 22.7543 127.883 22.591 127.608 22.3832L127.998 21.4481C128.28 21.641 128.592 21.7895 128.933 21.8934C129.275 21.9973 129.62 22.0492 129.969 22.0492C130.34 22.0492 130.614 21.9862 130.792 21.86C130.978 21.7338 131.071 21.5631 131.071 21.3479C131.071 21.1772 131.011 21.0436 130.893 20.9471C130.781 20.8432 130.599 20.7653 130.347 20.7133L129.234 20.5018C128.759 20.3979 128.395 20.2198 128.143 19.9675C127.898 19.7151 127.775 19.3849 127.775 18.9767C127.775 18.6278 127.868 18.3198 128.054 18.0527C128.247 17.7855 128.518 17.5777 128.866 17.4292C129.223 17.2734 129.638 17.1955 130.113 17.1955C130.529 17.1955 130.918 17.2511 131.282 17.3624C131.653 17.4738 131.965 17.6408 132.217 17.8634L131.817 18.7651C131.586 18.5796 131.323 18.4349 131.026 18.331C130.729 18.2271 130.44 18.1751 130.158 18.1751C129.772 18.1751 129.49 18.2456 129.312 18.3866C129.134 18.5202 129.045 18.6946 129.045 18.9099C129.045 19.0731 129.096 19.2104 129.2 19.3218C129.312 19.4257 129.482 19.5036 129.712 19.5556L130.826 19.7671C131.323 19.8636 131.698 20.0343 131.95 20.2792C132.21 20.5167 132.34 20.8432 132.34 21.2588C132.34 21.6299 132.24 21.949 132.039 22.2162C131.839 22.4834 131.56 22.6875 131.204 22.8285C130.848 22.9695 130.432 23.04 129.957 23.04Z" fill="black"/>
<path d="M49.1799 111.109C49.1799 110.231 49.892 109.519 50.7703 109.519H52.3607V121.446H49.1799V111.109Z" fill="#5D6AE8"/>
<path d="M92.1204 109.519H93.7107C94.5891 109.519 95.3011 110.231 95.3011 111.109V121.446H92.1204V109.519Z" fill="#FF0090"/>
<path d="M61.9033 111.109C61.9033 110.231 62.6153 109.519 63.4937 109.519H65.084V121.446H61.9033V111.109Z" fill="#5D6AE8"/>
<path d="M74.626 111.109C74.626 110.231 75.338 109.519 76.2163 109.519H77.8067V121.446H74.626V111.109Z" fill="#5D6AE8"/>
<path d="M87.3491 118.265C87.3491 117.387 88.0612 116.675 88.9395 116.675H90.5298V121.446H87.3491V118.265Z" fill="#5D6AE8"/>
<path d="M104.843 103.156H106.433C107.312 103.156 108.024 103.868 108.024 104.747V121.445H104.843V103.156Z" fill="#FF0090"/>
<path d="M100.072 118.265C100.072 117.387 100.784 116.675 101.662 116.675H103.253V121.446H100.072V118.265Z" fill="#5D6AE8"/>
<path d="M117.566 84.0723H119.157C120.035 84.0723 120.747 84.7843 120.747 85.6626V121.446H117.566V84.0723Z" fill="#FF0090"/>
<path d="M112.795 98.3863C112.795 97.5079 113.507 96.7959 114.385 96.7959H115.976V121.447H112.795V98.3863Z" fill="#5D6AE8"/>
<path d="M130.289 57.8311H131.879C132.758 57.8311 133.47 58.5431 133.47 59.4214V121.446H130.289V57.8311Z" fill="#FF0090"/>
<path d="M125.518 37.9517C125.518 37.0734 126.23 36.3613 127.108 36.3613H128.699V121.446H125.518V37.9517Z" fill="#5D6AE8"/>
<path d="M143.012 51.4707H144.602C145.48 51.4707 146.192 52.1827 146.192 53.0611V121.447H143.012V51.4707Z" fill="#FF0090"/>
<path d="M138.241 43.5181C138.241 42.6398 138.953 41.9277 139.831 41.9277H141.422V121.446H138.241V43.5181Z" fill="#5D6AE8"/>
<path d="M155.734 59.4209H157.325C158.203 59.4209 158.915 60.1329 158.915 61.0113V121.445H155.734V59.4209Z" fill="#FF0090"/>
<path d="M150.963 61.0113C150.963 60.1329 151.675 59.4209 152.553 59.4209H154.144V121.445H150.963V61.0113Z" fill="#5D6AE8"/>
<path d="M168.458 64.9873H170.048C170.926 64.9873 171.638 65.6993 171.638 66.5777V121.445H168.458V64.9873Z" fill="#FF0090"/>
<path d="M163.686 48.2886C163.686 47.4103 164.398 46.6982 165.277 46.6982H166.867V121.445H163.686V48.2886Z" fill="#5D6AE8"/>
<path d="M181.18 57.8311H182.771C183.649 57.8311 184.361 58.5431 184.361 59.4214V121.446H181.18V57.8311Z" fill="#FF0090"/>
<path d="M176.409 54.6509C176.409 53.7726 177.121 53.0605 178 53.0605H179.59V121.446H176.409V54.6509Z" fill="#5D6AE8"/>
<path d="M193.903 71.3496H195.494C196.372 71.3496 197.084 72.0616 197.084 72.94V121.446H193.903V71.3496Z" fill="#FF0090"/>
<path d="M189.132 48.2886C189.132 47.4103 189.844 46.6982 190.723 46.6982H192.313V121.445H189.132V48.2886Z" fill="#5D6AE8"/>
<path d="M206.626 71.3496H208.217C209.095 71.3496 209.807 72.0616 209.807 72.94V121.446H206.626V71.3496Z" fill="#FF0090"/>
<path d="M201.855 85.6626C201.855 84.7843 202.567 84.0723 203.445 84.0723H205.036V121.446H201.855V85.6626Z" fill="#5D6AE8"/>
<path d="M219.349 89.6387H220.94C221.818 89.6387 222.53 90.3507 222.53 91.229V121.446H219.349V89.6387Z" fill="#FF0090"/>
<path d="M214.578 97.5904C214.578 96.712 215.29 96 216.168 96H217.759V121.446H214.578V97.5904Z" fill="#5D6AE8"/>
<path d="M232.072 64.9873H233.662C234.54 64.9873 235.252 65.6993 235.252 66.5777V121.445H232.072V64.9873Z" fill="#FF0090"/>
<path d="M227.301 111.109C227.301 110.231 228.013 109.519 228.891 109.519H230.482V121.446H227.301V111.109Z" fill="#5D6AE8"/>
<path d="M244.795 116.675H246.385C247.263 116.675 247.975 117.387 247.975 118.265V121.446H244.795V116.675Z" fill="#FF0090"/>
<path d="M240.024 111.109C240.024 110.231 240.736 109.519 241.614 109.519H243.204V121.446H240.024V111.109Z" fill="#5D6AE8"/>
<path d="M257.518 97.5898H259.108C259.986 97.5898 260.698 98.3019 260.698 99.1802V121.445H257.518V97.5898Z" fill="#FF0090"/>
<path d="M252.746 99.1802C252.746 98.3019 253.458 97.5898 254.337 97.5898H255.927V121.445H252.746V99.1802Z" fill="#5D6AE8"/>
<path d="M270.241 103.156H271.831C272.709 103.156 273.421 103.868 273.421 104.747V121.445H270.241V103.156Z" fill="#FF0090"/>
<path d="M265.469 79.3013C265.469 78.423 266.182 77.7109 267.06 77.7109H268.65V121.446H265.469V79.3013Z" fill="#5D6AE8"/>
<path d="M282.963 96H284.554C285.432 96 286.144 96.712 286.144 97.5904V121.446H282.963V96Z" fill="#FF0090"/>
<path d="M278.192 81.687C278.192 80.8087 278.904 80.0967 279.783 80.0967H281.373V121.446H278.192V81.687Z" fill="#5D6AE8"/>
<path d="M295.687 104.746H297.277C298.155 104.746 298.867 105.458 298.867 106.336V121.445H295.687V104.746Z" fill="#FF0090"/>
<path d="M290.916 102.361C290.916 101.483 291.628 100.771 292.506 100.771H294.096V121.445H290.916V102.361Z" fill="#5D6AE8"/>
<path d="M308.409 111.904H310C310.878 111.904 311.59 112.616 311.59 113.495V121.446H308.409V111.904Z" fill="#FF0090"/>
<path d="M303.638 116.675C303.638 115.797 304.35 115.085 305.229 115.085H306.819V121.446H303.638V116.675Z" fill="#5D6AE8"/>
<path d="M321.133 119.061H322.723C323.601 119.061 324.313 119.773 324.313 120.651V121.446H321.133V119.061Z" fill="#FF0090"/>
<path d="M316.361 118.265C316.361 117.387 317.073 116.675 317.952 116.675H319.542V121.446H316.361V118.265Z" fill="#5D6AE8"/>
<path d="M329.084 119.06C329.084 118.182 329.797 117.47 330.675 117.47H332.265V121.446H329.084V119.06Z" fill="#5D6AE8"/>
<path d="M341.807 120.651C341.807 119.773 342.519 119.061 343.397 119.061H344.987V121.446H341.807V120.651Z" fill="#5D6AE8"/>
<defs>
<clipPath id="clip0_4039_102350">
<rect width="335.566" height="70.3735" fill="white" transform="translate(16.5779 51.8672)"/>
</clipPath>
<clipPath id="clip1_4039_102350">
<rect width="14.3133" height="44.5301" fill="white" transform="translate(16.5779 83.6748)"/>
</clipPath>
</defs>
</svg>
