<svg width="560" height="560" viewBox="0 0 560 560" fill="none" xmlns="http://www.w3.org/2000/svg">
<path d="M235.043 322.067H475.449C476.851 322.068 478.239 322.346 479.533 322.886C480.827 323.426 482.002 324.217 482.988 325.213C483.984 326.2 484.772 327.377 485.305 328.673C485.839 329.967 486.114 331.353 486.113 332.752V496.015H224.379V332.731C224.379 329.903 225.502 327.191 227.502 325.191C229.502 323.191 232.215 322.067 235.043 322.067Z" fill="#E5E5E5" stroke="black" stroke-width="0.5" stroke-linecap="round" stroke-linejoin="round"/>
<path d="M474.987 330.456H235.913C234.801 330.456 233.734 330.898 232.947 331.684C232.161 332.471 231.719 333.538 231.719 334.65V484.596C231.719 485.708 232.161 486.775 232.947 487.562C233.734 488.348 234.801 488.79 235.913 488.79H474.987C476.1 488.79 477.167 488.348 477.953 487.562C478.74 486.775 479.182 485.708 479.182 484.596V334.65C479.182 333.538 478.74 332.471 477.953 331.684C477.167 330.898 476.1 330.456 474.987 330.456Z" fill="#E5E5E5" stroke="black" stroke-width="0.5" stroke-linecap="round" stroke-linejoin="round"/>
<path d="M324.13 386.838H288.227C287.775 386.836 287.326 386.924 286.908 387.096C286.489 387.269 286.109 387.522 285.788 387.841C285.468 388.161 285.214 388.54 285.04 388.958C284.867 389.376 284.777 389.824 284.777 390.277V416.303C284.777 417.217 285.141 418.095 285.788 418.742C286.435 419.389 287.312 419.752 288.227 419.752H324.13C325.043 419.75 325.918 419.385 326.563 418.738C327.208 418.092 327.57 417.216 327.57 416.303V390.277C327.57 389.365 327.207 388.49 326.562 387.845C325.917 387.2 325.042 386.838 324.13 386.838Z" fill="white"/>
<path fill-rule="evenodd" clip-rule="evenodd" d="M306.166 394.136C304.356 394.136 302.586 394.673 301.081 395.678C299.575 396.684 298.402 398.114 297.709 399.787C297.016 401.459 296.835 403.3 297.188 405.076C297.541 406.851 298.413 408.482 299.694 409.763C300.974 411.043 302.605 411.915 304.381 412.268C306.156 412.621 307.997 412.44 309.67 411.747C311.342 411.054 312.772 409.881 313.778 408.375C314.784 406.87 315.32 405.1 315.32 403.29C315.32 400.862 314.356 398.534 312.639 396.817C310.923 395.1 308.594 394.136 306.166 394.136ZM291.77 403.29C291.77 400.442 292.614 397.659 294.196 395.291C295.778 392.924 298.026 391.078 300.657 389.989C303.288 388.899 306.182 388.614 308.975 389.169C311.768 389.725 314.333 391.096 316.347 393.11C318.36 395.123 319.731 397.688 320.287 400.481C320.842 403.274 320.557 406.168 319.467 408.799C318.378 411.43 316.532 413.678 314.165 415.26C311.797 416.842 309.014 417.687 306.166 417.687C302.35 417.684 298.691 416.166 295.993 413.466C293.295 410.767 291.78 407.106 291.78 403.29H291.77Z" fill="#4C4C4C"/>
<path fill-rule="evenodd" clip-rule="evenodd" d="M306.168 388.893C309.559 388.891 312.842 390.085 315.439 392.264C318.036 394.444 319.781 397.47 320.367 400.81C320.954 404.149 320.343 407.589 318.643 410.523C316.943 413.457 314.263 415.697 311.074 416.85C307.886 418.002 304.393 417.993 301.21 416.824C298.027 415.655 295.358 413.401 293.674 410.458C291.989 407.516 291.396 404.073 291.999 400.737C292.603 397.4 294.364 394.383 296.972 392.217L300.317 396.243C298.656 397.615 297.533 399.529 297.144 401.648C296.755 403.767 297.126 405.955 298.192 407.828C299.257 409.7 300.949 411.136 302.969 411.885C304.989 412.633 307.208 412.644 309.236 411.917C311.264 411.191 312.971 409.772 314.056 407.911C315.141 406.05 315.535 403.866 315.168 401.743C314.802 399.62 313.698 397.694 312.052 396.305C310.406 394.915 308.322 394.151 306.168 394.146V388.893Z" fill="#808080"/>
<path fill-rule="evenodd" clip-rule="evenodd" d="M306.167 388.893C309.413 388.901 312.561 390.005 315.101 392.026C317.641 394.048 319.424 396.867 320.161 400.028C320.898 403.19 320.546 406.507 319.162 409.443C317.778 412.379 315.443 414.762 312.536 416.205C309.628 417.648 306.318 418.067 303.143 417.394C299.968 416.721 297.112 414.996 295.04 412.497C292.968 409.999 291.8 406.874 291.726 403.629C291.652 400.383 292.676 397.208 294.633 394.618L298.827 397.764C298.058 398.786 297.513 399.959 297.225 401.205C296.938 402.451 296.914 403.744 297.157 405C297.4 406.256 297.903 407.447 298.634 408.496C299.365 409.546 300.308 410.43 301.403 411.093C302.497 411.756 303.717 412.182 304.986 412.344C306.255 412.505 307.544 412.4 308.769 412.033C309.995 411.666 311.13 411.047 312.101 410.214C313.072 409.382 313.858 408.356 314.409 407.201C315.286 405.335 315.508 403.227 315.037 401.219C314.567 399.211 313.433 397.421 311.819 396.138C310.199 394.86 308.198 394.163 306.135 394.157L306.167 388.893Z" fill="#808080"/>
<path fill-rule="evenodd" clip-rule="evenodd" d="M306.168 388.893C309.154 388.892 312.066 389.82 314.501 391.548C316.936 393.276 318.774 395.718 319.76 398.537C320.746 401.355 320.831 404.411 320.003 407.279C319.176 410.148 317.477 412.689 315.141 414.55C312.806 416.41 309.95 417.499 306.969 417.664C303.987 417.83 301.028 417.064 298.501 415.474C295.974 413.883 294.004 411.546 292.864 408.787C291.724 406.027 291.47 402.981 292.138 400.071L297.245 401.245C296.924 402.629 296.93 404.068 297.263 405.449C297.595 406.83 298.244 408.115 299.158 409.202C300.073 410.289 301.227 411.148 302.531 411.712C303.835 412.275 305.252 412.528 306.671 412.449C308.089 412.37 309.469 411.962 310.703 411.258C311.936 410.553 312.989 409.572 313.777 408.39C314.566 407.208 315.068 405.86 315.245 404.45C315.423 403.041 315.269 401.61 314.798 400.27C314.171 398.48 313.004 396.929 311.458 395.83C309.913 394.732 308.064 394.14 306.168 394.136V388.893Z" fill="#808080"/>
<path fill-rule="evenodd" clip-rule="evenodd" d="M306.167 388.893C308.713 388.891 311.215 389.565 313.417 390.844C315.619 392.124 317.442 393.965 318.701 396.179C319.959 398.393 320.609 400.901 320.583 403.447C320.557 405.994 319.856 408.488 318.553 410.676C317.249 412.864 315.388 414.667 313.161 415.901C310.934 417.136 308.419 417.758 305.872 417.704C303.326 417.651 300.84 416.923 298.666 415.595C296.493 414.268 294.71 412.388 293.5 410.147L298.114 407.673C299.073 409.459 300.598 410.876 302.45 411.702C304.302 412.528 306.375 412.715 308.345 412.235C310.315 411.756 312.07 410.635 313.334 409.05C314.598 407.466 315.301 405.506 315.331 403.478C315.345 401.861 314.932 400.268 314.133 398.861C313.334 397.454 312.177 396.284 310.78 395.467C309.384 394.65 307.795 394.219 306.177 394.22L306.167 388.893Z" fill="#B3B3B3"/>
<path fill-rule="evenodd" clip-rule="evenodd" d="M306.171 388.893C309.83 388.897 313.35 390.294 316.016 392.8C318.683 395.307 320.294 398.734 320.524 402.386C320.754 406.038 319.584 409.641 317.253 412.461C314.922 415.282 311.604 417.109 307.974 417.571L307.314 412.328C309.622 412.034 311.732 410.872 313.214 409.078C314.696 407.284 315.439 404.992 315.292 402.67C315.146 400.347 314.12 398.168 312.423 396.575C310.727 394.982 308.487 394.095 306.16 394.094L306.171 388.893Z" fill="#CCCCCC"/>
<path d="M369.88 386.838H333.977C333.064 386.838 332.188 387.2 331.541 387.844C330.895 388.489 330.53 389.364 330.527 390.277V416.303C330.53 417.217 330.894 418.092 331.541 418.739C332.187 419.385 333.063 419.75 333.977 419.752H369.88C370.794 419.75 371.67 419.385 372.317 418.739C372.963 418.092 373.327 417.217 373.33 416.303V390.277C373.327 389.364 372.963 388.489 372.316 387.844C371.669 387.2 370.793 386.838 369.88 386.838Z" fill="white"/>
<path fill-rule="evenodd" clip-rule="evenodd" d="M351.926 394.251C350.157 394.251 348.428 394.775 346.957 395.758C345.486 396.741 344.34 398.138 343.663 399.772C342.986 401.406 342.809 403.205 343.154 404.94C343.499 406.675 344.351 408.269 345.602 409.52C346.853 410.77 348.446 411.622 350.181 411.967C351.916 412.313 353.715 412.135 355.349 411.458C356.984 410.781 358.38 409.635 359.363 408.164C360.346 406.693 360.871 404.964 360.871 403.195C360.871 400.823 359.928 398.548 358.251 396.87C356.573 395.193 354.298 394.251 351.926 394.251ZM337.246 403.195C337.246 400.292 338.107 397.453 339.72 395.039C341.333 392.625 343.626 390.744 346.309 389.632C348.991 388.521 351.943 388.231 354.79 388.797C357.638 389.363 360.254 390.762 362.307 392.815C364.36 394.868 365.758 397.483 366.324 400.331C366.891 403.179 366.6 406.13 365.489 408.813C364.378 411.495 362.496 413.788 360.082 415.401C357.668 417.014 354.83 417.875 351.926 417.875C349.996 417.879 348.084 417.502 346.299 416.767C344.514 416.031 342.892 414.95 341.526 413.586C340.159 412.223 339.075 410.603 338.335 408.82C337.596 407.037 337.215 405.125 337.215 403.195H337.246Z" fill="#CCCCCC"/>
<path fill-rule="evenodd" clip-rule="evenodd" d="M344.065 390.77C346.416 389.277 349.144 388.484 351.929 388.484V394.251C350.235 394.251 348.576 394.732 347.145 395.638C345.714 396.543 344.569 397.837 343.844 399.368L338.602 396.904C339.802 394.381 341.697 392.253 344.065 390.77Z" fill="#808080"/>
<path d="M273.954 435.313H241.302C240.529 435.316 239.79 435.624 239.244 436.17C238.697 436.716 238.389 437.456 238.387 438.228C238.387 439.002 238.693 439.745 239.24 440.293C239.786 440.841 240.528 441.151 241.302 441.154H273.954C274.338 441.154 274.718 441.078 275.072 440.931C275.427 440.784 275.748 440.568 276.019 440.296C276.29 440.024 276.505 439.702 276.65 439.347C276.796 438.992 276.871 438.612 276.869 438.228C276.869 437.455 276.562 436.714 276.015 436.167C275.469 435.62 274.727 435.313 273.954 435.313Z" fill="white"/>
<path d="M258.624 445.159H241.302C240.53 445.162 239.79 445.47 239.244 446.016C238.698 446.562 238.39 447.302 238.387 448.074C238.381 448.461 238.453 448.845 238.597 449.204C238.74 449.563 238.954 449.89 239.225 450.166C239.496 450.442 239.819 450.662 240.176 450.812C240.532 450.962 240.915 451.04 241.302 451.042H258.624C259.008 451.042 259.388 450.966 259.742 450.819C260.097 450.672 260.419 450.456 260.689 450.184C260.96 449.913 261.175 449.59 261.321 449.235C261.466 448.88 261.541 448.5 261.539 448.116C261.545 447.73 261.474 447.346 261.33 446.988C261.186 446.629 260.972 446.303 260.701 446.028C260.429 445.753 260.106 445.534 259.75 445.385C259.393 445.236 259.011 445.159 258.624 445.159Z" fill="white"/>
<path d="M267.705 455.519H241.302C240.529 455.519 239.787 455.826 239.241 456.373C238.694 456.92 238.387 457.661 238.387 458.434C238.387 459.207 238.694 459.949 239.241 460.495C239.787 461.042 240.529 461.349 241.302 461.349H267.705C268.478 461.349 269.219 461.042 269.766 460.495C270.313 459.949 270.62 459.207 270.62 458.434C270.62 457.661 270.313 456.92 269.766 456.373C269.219 455.826 268.478 455.519 267.705 455.519Z" fill="white"/>
<path d="M275.469 468.259H241.579C240.647 468.259 239.754 468.629 239.095 469.288C238.436 469.947 238.066 470.84 238.066 471.772V473.544C238.066 474.005 238.157 474.462 238.334 474.888C238.51 475.314 238.769 475.702 239.095 476.028C239.421 476.354 239.809 476.613 240.235 476.789C240.661 476.966 241.118 477.057 241.579 477.057H275.469C275.93 477.057 276.387 476.966 276.813 476.789C277.239 476.613 277.627 476.354 277.953 476.028C278.279 475.702 278.538 475.314 278.714 474.888C278.891 474.462 278.982 474.005 278.982 473.544V471.772C278.982 470.84 278.612 469.947 277.953 469.288C277.294 468.629 276.401 468.259 275.469 468.259Z" fill="#B3B3B3"/>
<path d="M465.813 386.838H380.197C379.285 386.838 378.41 387.2 377.765 387.845C377.12 388.49 376.758 389.365 376.758 390.277V416.303C376.758 417.216 377.12 418.092 377.765 418.738C378.409 419.385 379.284 419.75 380.197 419.752H465.813C466.727 419.75 467.603 419.385 468.249 418.739C468.896 418.092 469.26 417.217 469.263 416.303V390.277C469.26 389.364 468.895 388.489 468.249 387.844C467.602 387.2 466.726 386.838 465.813 386.838Z" fill="white"/>
<path d="M384.621 391.41C384.624 391.157 384.725 390.916 384.904 390.738C385.082 390.56 385.323 390.458 385.575 390.455H392.265C392.517 390.458 392.759 390.56 392.937 390.738C393.115 390.916 393.217 391.157 393.219 391.41V415.999H384.621V391.41Z" fill="#B3B3B3"/>
<path d="M397.992 392.72C397.995 392.468 398.096 392.227 398.275 392.049C398.453 391.87 398.694 391.769 398.946 391.766H405.636C405.888 391.769 406.13 391.87 406.308 392.049C406.486 392.227 406.588 392.468 406.59 392.72V416.125H397.992V392.72Z" fill="#B3B3B3"/>
<path d="M411.363 397.501C411.372 397.247 411.473 397.005 411.646 396.82C411.735 396.732 411.84 396.663 411.955 396.617C412.07 396.57 412.193 396.546 412.317 396.547H419.007C419.132 396.546 419.255 396.57 419.37 396.617C419.485 396.663 419.59 396.732 419.678 396.82C419.852 397.005 419.953 397.247 419.962 397.501V416.124H411.363V397.501Z" fill="#B3B3B3"/>
<path d="M424.73 399.766C424.733 399.514 424.835 399.273 425.013 399.095C425.191 398.916 425.432 398.815 425.685 398.812H432.375C432.627 398.815 432.868 398.916 433.046 399.095C433.225 399.273 433.326 399.514 433.329 399.766V415.998H424.73V399.766Z" fill="#B3B3B3"/>
<path d="M438.102 401.203C438.103 400.948 438.205 400.703 438.385 400.522C438.473 400.434 438.578 400.365 438.693 400.318C438.808 400.272 438.931 400.248 439.056 400.249H445.746C445.87 400.248 445.993 400.272 446.108 400.318C446.224 400.365 446.328 400.434 446.417 400.522C446.597 400.703 446.698 400.948 446.7 401.203V415.998H438.102V401.203Z" fill="#B3B3B3"/>
<path d="M451.469 402.398C451.471 402.272 451.496 402.148 451.542 402.031C451.592 401.915 451.663 401.808 451.752 401.717C451.838 401.629 451.941 401.561 452.056 401.517C452.172 401.467 452.297 401.442 452.423 401.444H459.113C459.362 401.452 459.6 401.549 459.784 401.717C459.869 401.81 459.94 401.917 459.994 402.031C460.04 402.148 460.065 402.272 460.067 402.398V416.03H451.469V402.398Z" fill="#B3B3B3"/>
<path d="M465.635 342.326H288.227C287.775 342.324 287.326 342.412 286.908 342.584C286.489 342.757 286.109 343.01 285.788 343.329C285.468 343.649 285.214 344.028 285.04 344.446C284.867 344.864 284.777 345.312 284.777 345.765V380.525C284.777 381.44 285.141 382.317 285.788 382.964C286.435 383.611 287.312 383.975 288.227 383.975H465.635C466.088 383.975 466.537 383.886 466.955 383.712C467.374 383.539 467.754 383.285 468.074 382.964C468.395 382.644 468.649 382.264 468.822 381.845C468.996 381.427 469.085 380.978 469.085 380.525V345.765C469.085 345.312 468.995 344.864 468.822 344.446C468.648 344.028 468.394 343.649 468.074 343.329C467.753 343.01 467.373 342.757 466.954 342.584C466.536 342.412 466.087 342.324 465.635 342.326Z" fill="white"/>
<path d="M289.055 374.118L301.323 373.804L313.581 373.961H325.849L338.107 373.804L350.375 373.961L362.958 373.217L375.216 374.118H399.742L412.01 373.961L424.268 373.804L436.526 373.038L448.794 373.395L461.062 374.297" stroke="#E5E5E5" stroke-width="0.5" stroke-linecap="round" stroke-linejoin="round"/>
<path d="M289.055 372.681L301.323 368.257L313.581 363.842L325.849 365.467L338.107 365.279L350.375 363.475L362.958 367.271L375.258 353.524L387.526 362.353L399.784 359.47L412.073 358.767L424.331 361.472L436.589 360.424L448.857 355.181L461.125 353.084" stroke="#CCCCCC" stroke-width="0.5" stroke-linecap="round" stroke-linejoin="round"/>
<path d="M465.635 422.73H288.227C287.312 422.73 286.435 423.094 285.788 423.741C285.141 424.388 284.777 425.265 284.777 426.18V474.414C284.777 475.329 285.141 476.207 285.788 476.854C286.435 477.501 287.312 477.864 288.227 477.864H465.635C466.088 477.864 466.537 477.775 466.955 477.602C467.374 477.428 467.754 477.174 468.074 476.854C468.395 476.533 468.649 476.153 468.822 475.735C468.996 475.316 469.085 474.867 469.085 474.414V426.18C469.085 425.727 468.996 425.278 468.822 424.86C468.649 424.441 468.395 424.061 468.074 423.741C467.754 423.42 467.374 423.166 466.955 422.993C466.537 422.819 466.088 422.73 465.635 422.73Z" fill="white"/>
<path d="M298.105 463.415C298.104 462.975 298.19 462.539 298.357 462.133C298.525 461.727 298.771 461.357 299.082 461.046C299.393 460.736 299.762 460.489 300.169 460.322C300.575 460.154 301.011 460.068 301.45 460.07H318.228C318.666 460.068 319.1 460.154 319.505 460.321C319.91 460.488 320.278 460.734 320.587 461.045C320.899 461.356 321.147 461.725 321.316 462.132C321.485 462.538 321.572 462.974 321.573 463.415V471.321H298.105V463.415Z" fill="#E5E5E5"/>
<path d="M324.875 457.962C324.878 457.075 325.231 456.225 325.857 455.596C326.484 454.968 327.333 454.612 328.22 454.607H344.997C345.437 454.607 345.873 454.694 346.28 454.862C346.686 455.031 347.055 455.278 347.366 455.59C347.677 455.902 347.923 456.272 348.09 456.679C348.258 457.086 348.343 457.522 348.342 457.962V471.321H324.875V457.962Z" fill="#E5E5E5"/>
<path d="M351.656 450.203C351.656 449.316 352.009 448.465 352.636 447.838C353.263 447.211 354.114 446.858 355.001 446.858H371.778C372.665 446.858 373.516 447.211 374.144 447.838C374.771 448.465 375.123 449.316 375.123 450.203V471.332H351.656V450.203Z" fill="#CCCCCC"/>
<path d="M378.426 456.599C378.425 456.157 378.511 455.719 378.677 455.309C378.851 454.915 379.101 454.559 379.411 454.261C379.708 453.951 380.065 453.704 380.46 453.537C380.865 453.367 381.3 453.278 381.739 453.275H398.516C399.404 453.284 400.254 453.638 400.886 454.261C401.194 454.559 401.44 454.916 401.61 455.309C401.776 455.719 401.862 456.157 401.861 456.599V471.279H378.426V456.599Z" fill="#CCCCCC"/>
<path d="M405.207 443.639C405.206 443.198 405.291 442.762 405.459 442.355C405.626 441.948 405.872 441.578 406.183 441.267C406.494 440.955 406.863 440.707 407.27 440.539C407.676 440.37 408.112 440.283 408.552 440.283H425.329C425.769 440.286 426.203 440.375 426.608 440.545C427.004 440.712 427.36 440.959 427.657 441.269C427.971 441.578 428.219 441.947 428.389 442.354C428.558 442.761 428.644 443.198 428.643 443.639V471.321H405.207V443.639Z" fill="#B3B3B3"/>
<path d="M431.996 435.449C431.999 435.01 432.088 434.575 432.258 434.17C432.429 433.777 432.675 433.421 432.982 433.122C433.284 432.818 433.639 432.572 434.03 432.398C434.436 432.23 434.871 432.145 435.31 432.146H452.087C452.525 432.146 452.96 432.231 453.366 432.398C453.759 432.569 454.115 432.815 454.415 433.122C454.722 433.423 454.97 433.779 455.149 434.17C455.315 434.576 455.401 435.011 455.4 435.449V471.321H431.996V435.449Z" fill="#B3B3B3"/>
<path d="M289.055 471.583H464.407" stroke="#808080" stroke-width="0.5" stroke-linecap="round" stroke-linejoin="round"/>
<path d="M173 538.136L224.695 496.015H486.439L540 538.136H173Z" fill="#B3B3B3" stroke="black" stroke-width="0.5" stroke-linecap="round" stroke-linejoin="round"/>
<path d="M173 538.136H540V542.781C540 544.378 539.366 545.908 538.237 547.037C537.108 548.166 535.578 548.8 533.981 548.8H179.019C177.423 548.8 175.892 548.166 174.763 547.037C173.634 545.908 173 544.378 173 542.781V538.136Z" fill="#808080" stroke="black" stroke-width="0.5" stroke-linecap="round" stroke-linejoin="round"/>
<path d="M411.213 517.102H298.544C297.91 517.101 297.29 517.291 296.766 517.649C296.242 518.006 295.839 518.513 295.608 519.104L290.973 530.733C290.805 531.155 290.744 531.613 290.795 532.065C290.846 532.517 291.008 532.949 291.267 533.323C291.537 533.705 291.897 534.015 292.316 534.225C292.717 534.433 293.163 534.541 293.616 534.539H416.917C417.386 534.54 417.847 534.425 418.259 534.204C418.667 533.979 419.012 533.656 419.263 533.264C419.514 532.873 419.663 532.424 419.696 531.96C419.727 531.493 419.644 531.025 419.455 530.597L414.086 518.884C413.836 518.333 413.432 517.865 412.922 517.538C412.412 517.21 411.819 517.037 411.213 517.039V517.102Z" fill="#CCCCCC" stroke="black" stroke-width="0.5" stroke-linecap="round" stroke-linejoin="round"/>
<path d="M111.242 278.564C111.242 275.296 112.54 272.162 114.851 269.852C117.161 267.541 120.295 266.243 123.563 266.243H329.083C332.351 266.243 335.484 267.541 337.795 269.852C340.106 272.162 341.404 275.296 341.404 278.564V390.761C341.404 394.028 340.106 397.162 337.795 399.473C335.484 401.783 332.351 403.082 329.083 403.082H123.563C120.295 403.082 117.161 401.783 114.851 399.473C112.54 397.162 111.242 394.028 111.242 390.761V278.564Z" fill="#4C4C4C" stroke="black" stroke-width="0.5" stroke-linecap="round" stroke-linejoin="round"/>
<path d="M106 273.321C106 270.053 107.298 266.919 109.609 264.609C111.919 262.298 115.053 261 118.321 261H323.841C327.108 261 330.242 262.298 332.553 264.609C334.863 266.919 336.161 270.053 336.161 273.321V385.518C336.161 388.786 334.863 391.919 332.553 394.23C330.242 396.54 327.108 397.839 323.841 397.839H118.321C115.053 397.839 111.919 396.54 109.609 394.23C107.298 391.919 106 388.786 106 385.518V273.321Z" fill="white" stroke="black" stroke-width="0.5" stroke-linecap="round" stroke-linejoin="round"/>
<path d="M131.95 279.266C132.314 279.284 132.659 279.437 132.917 279.694C133.174 279.952 133.327 280.297 133.345 280.661H133.513C134.225 280.659 134.912 280.93 135.432 281.417C135.952 281.904 136.267 282.571 136.312 283.282L136.847 289.049C137.197 289.08 137.524 289.24 137.761 289.499C137.999 289.759 138.131 290.097 138.131 290.449C138.131 290.801 137.999 291.14 137.761 291.399C137.524 291.658 137.197 291.819 136.847 291.849H127.053C126.703 291.819 126.377 291.658 126.139 291.399C125.901 291.14 125.77 290.801 125.77 290.449C125.77 290.097 125.901 289.759 126.139 289.499C126.377 289.24 126.703 289.08 127.053 289.049L127.588 283.282C127.633 282.571 127.948 281.904 128.469 281.417C128.989 280.93 129.675 280.659 130.388 280.661H130.556C130.566 280.294 130.716 279.946 130.976 279.686C131.235 279.427 131.584 279.277 131.95 279.266V279.266Z" stroke="black" stroke-width="0.5" stroke-linecap="round" stroke-linejoin="round"/>
<path d="M129.855 292.541C129.855 293.097 130.076 293.631 130.47 294.024C130.863 294.417 131.396 294.638 131.953 294.638C132.509 294.638 133.042 294.417 133.436 294.024C133.829 293.631 134.05 293.097 134.05 292.541V291.849H129.855V292.541Z" stroke="black" stroke-width="0.5" stroke-linecap="round" stroke-linejoin="round"/>
<path d="M139.585 273.321H124.318C122.727 273.321 121.202 273.953 120.077 275.078C118.952 276.202 118.32 277.728 118.32 279.319V294.586C118.32 296.177 118.952 297.702 120.077 298.827C121.202 299.952 122.727 300.584 124.318 300.584H139.585C141.176 300.584 142.702 299.952 143.826 298.827C144.951 297.702 145.583 296.177 145.583 294.586V279.319C145.583 277.728 144.951 276.202 143.826 275.078C142.702 273.953 141.176 273.321 139.585 273.321V273.321Z" stroke="black" stroke-width="0.5" stroke-linecap="round" stroke-linejoin="round"/>
<path d="M158.742 293.244V281.416H159.35L167.603 292.541H167.257V281.416H167.907V293.244H167.32L159.088 282.119H159.424V293.244H158.742Z" fill="black"/>
<path d="M174.145 293.38C173.451 293.396 172.767 293.214 172.173 292.856C171.6 292.502 171.147 291.983 170.873 291.367C170.271 289.881 170.271 288.218 170.873 286.732C171.147 286.116 171.6 285.597 172.173 285.243C172.775 284.899 173.457 284.718 174.15 284.718C174.843 284.718 175.524 284.899 176.126 285.243C176.699 285.595 177.149 286.115 177.416 286.732C177.728 287.465 177.888 288.253 177.888 289.05C177.888 289.846 177.728 290.634 177.416 291.367C177.149 291.984 176.699 292.504 176.126 292.856C175.529 293.215 174.842 293.397 174.145 293.38ZM174.145 292.72C174.558 292.737 174.97 292.662 175.351 292.501C175.732 292.339 176.072 292.095 176.347 291.786C176.939 291.002 177.229 290.03 177.165 289.05C177.232 288.075 176.941 287.109 176.347 286.334C176.065 286.033 175.725 285.793 175.347 285.63C174.969 285.466 174.562 285.381 174.15 285.381C173.738 285.381 173.331 285.466 172.953 285.63C172.575 285.793 172.235 286.033 171.953 286.334C171.366 287.113 171.08 288.077 171.146 289.05C171.087 290.028 171.372 290.996 171.953 291.786C172.227 292.094 172.565 292.337 172.944 292.499C173.323 292.66 173.733 292.735 174.145 292.72Z" fill="black"/>
<path d="M182.64 293.38C182.345 293.395 182.051 293.346 181.777 293.235C181.504 293.125 181.258 292.956 181.056 292.74C180.661 292.158 180.473 291.46 180.521 290.759V285.516H178.844V284.855H180.521V282.454L181.224 282.192V284.855H183.783V285.463H181.234V290.612C181.195 291.167 181.311 291.723 181.57 292.216C181.702 292.388 181.875 292.523 182.072 292.611C182.27 292.699 182.487 292.736 182.702 292.719C182.903 292.721 183.104 292.7 183.3 292.656C183.455 292.622 183.606 292.573 183.751 292.51V293.181C183.59 293.245 183.42 293.287 183.248 293.307C183.049 293.358 182.845 293.382 182.64 293.38Z" fill="black"/>
<path d="M185.629 293.244V284.855H186.331V293.244H185.629ZM185.43 282.653V281.604H186.478V282.653H185.43Z" fill="black"/>
<path d="M189.623 293.244V285.463H187.945V284.855H189.791L189.623 285.044V283.544C189.577 282.825 189.802 282.115 190.252 281.552C190.478 281.305 190.757 281.112 191.067 280.987C191.377 280.862 191.711 280.808 192.045 280.828C192.246 280.83 192.446 280.851 192.643 280.891C192.815 280.918 192.984 280.964 193.146 281.028V281.709C192.998 281.645 192.843 281.596 192.685 281.562C192.486 281.512 192.282 281.487 192.077 281.489C191.828 281.469 191.578 281.51 191.349 281.606C191.119 281.703 190.915 281.853 190.755 282.045C190.443 282.527 190.296 283.097 190.336 283.67V285.096L190.2 284.865H195.18V293.254H194.478V285.474H190.284V293.244H189.623ZM194.279 282.653V281.604H195.327V282.653H194.279Z" fill="black"/>
<path d="M201.367 293.38C200.653 293.397 199.949 293.215 199.333 292.856C198.757 292.485 198.298 291.957 198.011 291.335C197.693 290.594 197.54 289.793 197.56 288.986C197.539 288.189 197.697 287.397 198.022 286.669C198.309 286.063 198.773 285.558 199.354 285.222C199.966 284.875 200.662 284.701 201.367 284.719C201.888 284.716 202.403 284.827 202.877 285.044C203.347 285.227 203.767 285.518 204.104 285.893L203.747 286.428C203.422 286.085 203.029 285.814 202.594 285.631C202.198 285.467 201.774 285.382 201.346 285.379C200.923 285.358 200.5 285.43 200.109 285.591C199.717 285.753 199.366 285.999 199.081 286.312C198.496 287.08 198.209 288.034 198.274 288.997C198.21 289.982 198.495 290.959 199.081 291.755C199.362 292.074 199.712 292.327 200.104 292.494C200.496 292.661 200.92 292.738 201.346 292.719C201.759 292.718 202.168 292.64 202.552 292.489C203.004 292.305 203.412 292.026 203.747 291.671L204.104 292.205C203.759 292.591 203.328 292.889 202.845 293.076C202.377 293.272 201.875 293.375 201.367 293.38Z" fill="black"/>
<path d="M209.377 293.38C208.68 293.396 207.993 293.215 207.395 292.856C206.828 292.498 206.379 291.979 206.106 291.367C205.787 290.637 205.634 289.845 205.655 289.049C205.631 288.253 205.785 287.461 206.106 286.732C206.387 286.118 206.843 285.6 207.416 285.243C208.007 284.885 208.687 284.703 209.377 284.719C210.101 284.698 210.812 284.915 211.401 285.337C211.977 285.752 212.38 286.364 212.533 287.057H212.324L212.491 284.855H213.183C213.183 285.17 213.12 285.474 213.079 285.778C213.037 286.082 213.079 286.375 213.079 286.669V293.244H212.376V291.042H212.565C212.412 291.735 212.009 292.347 211.432 292.761C210.832 293.185 210.111 293.402 209.377 293.38ZM209.377 292.719C209.787 292.737 210.196 292.662 210.573 292.5C210.951 292.339 211.287 292.095 211.558 291.786C212.139 290.996 212.424 290.028 212.365 289.049C212.431 288.076 212.145 287.112 211.558 286.334C211.292 286.018 210.957 285.768 210.579 285.603C210.2 285.437 209.789 285.361 209.377 285.379C208.962 285.361 208.547 285.437 208.166 285.602C207.784 285.768 207.445 286.018 207.175 286.334C206.6 287.117 206.324 288.08 206.399 289.049C206.34 290.028 206.626 290.996 207.206 291.786C207.478 292.091 207.813 292.333 208.188 292.494C208.563 292.655 208.969 292.732 209.377 292.719Z" fill="black"/>
<path d="M218.449 293.38C218.156 293.397 217.863 293.348 217.591 293.237C217.319 293.126 217.075 292.957 216.877 292.74C216.482 292.158 216.293 291.46 216.342 290.759V285.516H214.664V284.855H216.342V282.454L217.044 282.192V284.855H219.592V285.463H217.044V290.612C217.005 291.167 217.121 291.723 217.38 292.216C217.509 292.388 217.68 292.525 217.876 292.613C218.072 292.701 218.287 292.737 218.502 292.719C218.706 292.722 218.91 292.701 219.11 292.656C219.264 292.62 219.415 292.571 219.561 292.51V293.181C219.399 293.243 219.23 293.285 219.058 293.307C218.859 293.357 218.654 293.382 218.449 293.38Z" fill="black"/>
<path d="M221.447 293.244V284.855H222.128V293.244H221.447ZM221.258 282.653V281.604H222.306V282.653H221.258Z" fill="black"/>
<path d="M228.254 293.38C227.557 293.396 226.87 293.214 226.272 292.855C225.705 292.497 225.256 291.979 224.982 291.366C224.381 289.88 224.381 288.218 224.982 286.732C225.256 286.119 225.705 285.601 226.272 285.243C226.87 284.884 227.557 284.702 228.254 284.718C228.951 284.704 229.637 284.886 230.236 285.243C230.803 285.601 231.252 286.119 231.526 286.732C231.837 287.465 231.998 288.253 231.998 289.049C231.998 289.845 231.837 290.633 231.526 291.366C231.252 291.979 230.803 292.497 230.236 292.855C229.637 293.212 228.951 293.394 228.254 293.38ZM228.254 292.719C228.666 292.735 229.076 292.659 229.454 292.498C229.833 292.337 230.172 292.093 230.446 291.786C231.045 291.005 231.34 290.032 231.274 289.049C231.344 288.072 231.048 287.105 230.446 286.333C230.164 286.033 229.824 285.793 229.446 285.629C229.068 285.465 228.661 285.381 228.249 285.381C227.837 285.381 227.429 285.465 227.052 285.629C226.674 285.793 226.334 286.033 226.052 286.333C225.477 287.116 225.201 288.08 225.276 289.049C225.217 290.028 225.503 290.996 226.083 291.786C226.355 292.091 226.69 292.332 227.065 292.494C227.44 292.655 227.846 292.732 228.254 292.719Z" fill="black"/>
<path d="M234.365 293.243V286.669C234.381 286.372 234.381 286.074 234.365 285.777C234.365 285.473 234.365 285.169 234.281 284.855H234.963L235.12 286.868H234.91C235.109 286.219 235.524 285.657 236.085 285.274C236.673 284.898 237.359 284.705 238.056 284.718C238.463 284.688 238.872 284.741 239.258 284.875C239.644 285.008 239.999 285.219 240.3 285.494C240.582 285.826 240.795 286.209 240.928 286.623C241.062 287.037 241.112 287.473 241.076 287.906V293.243H240.363V288C240.427 287.296 240.233 286.592 239.818 286.019C239.588 285.795 239.312 285.624 239.01 285.518C238.708 285.411 238.386 285.371 238.067 285.4C237.67 285.381 237.273 285.443 236.901 285.584C236.53 285.725 236.191 285.941 235.907 286.218C235.362 286.822 235.079 287.618 235.12 288.43V293.243H234.365Z" fill="black"/>
<path d="M212.691 324.963H122.514C120.343 324.963 118.582 326.723 118.582 328.895V338.332C118.582 340.504 120.343 342.264 122.514 342.264H212.691C214.863 342.264 216.623 340.504 216.623 338.332V328.895C216.623 326.723 214.863 324.963 212.691 324.963Z" fill="#B3B3B3" stroke="black" stroke-width="0.5" stroke-linecap="round" stroke-linejoin="round"/>
<path d="M257.78 349.08H120.417C119.404 349.08 118.582 349.902 118.582 350.915V356.158C118.582 357.171 119.404 357.993 120.417 357.993H257.78C258.793 357.993 259.615 357.171 259.615 356.158V350.915C259.615 349.902 258.793 349.08 257.78 349.08Z" fill="#CCCCCC" stroke="black" stroke-width="0.5" stroke-linecap="round" stroke-linejoin="round"/>
<path d="M289.237 362.712H120.417C119.404 362.712 118.582 363.533 118.582 364.547V369.789C118.582 370.803 119.404 371.624 120.417 371.624H289.237C290.25 371.624 291.072 370.803 291.072 369.789V364.547C291.072 363.533 290.25 362.712 289.237 362.712Z" fill="#CCCCCC" stroke="black" stroke-width="0.5" stroke-linecap="round" stroke-linejoin="round"/>
<path d="M223.177 376.343H120.417C119.404 376.343 118.582 377.165 118.582 378.178V383.421C118.582 384.434 119.404 385.256 120.417 385.256H223.177C224.19 385.256 225.012 384.434 225.012 383.421V378.178C225.012 377.165 224.19 376.343 223.177 376.343Z" fill="#CCCCCC" stroke="black" stroke-width="0.5" stroke-linecap="round" stroke-linejoin="round"/>
<path d="M395.36 509.919H305.12L303.516 514.249H397.3L395.36 509.919Z" fill="#4C4C4C"/>
<path d="M303.023 509.919H282.282L279.965 514.249H301.198L303.023 509.919Z" fill="#4C4C4C"/>
<path d="M419.238 509.919H398.676L400.427 514.249H421.66L419.238 509.919Z" fill="#4C4C4C"/>
<path d="M437.127 509.919H421.66L424.177 514.249H440.283L437.127 509.919Z" fill="#4C4C4C"/>
<path d="M457.74 512.079H442.012L443.438 514.25H459.533L457.74 512.079Z" fill="#4C4C4C"/>
<path d="M494.818 512.31H479.184L481.281 514.48H497.376L494.818 512.31Z" fill="#4C4C4C"/>
<path d="M476.686 512.079H460.297L462.048 514.25H478.532L476.686 512.079Z" fill="#4C4C4C"/>
<path d="M473.857 509.321H458.129L459.754 511.481H475.85L473.857 509.321Z" fill="#4C4C4C"/>
<path d="M279.368 509.919H263.933L260.84 514.249H276.841L279.368 509.919Z" fill="#4C4C4C"/>
<path d="M261.258 509.919H245.833L241.922 514.249H257.923L261.258 509.919Z" fill="#4C4C4C"/>
<path d="M242.804 509.919H226.823L222.199 514.249H238.672L242.804 509.919Z" fill="#4C4C4C"/>
<path d="M269.585 505.336H232.456L228.922 508.566H266.786L269.585 505.336Z" fill="#4C4C4C"/>
<path d="M287.475 505.336H272.868L270.32 508.566H285.525L287.475 505.336Z" fill="#4C4C4C"/>
<path d="M305.99 505.336H290.785L289.16 508.566H304.364L305.99 505.336Z" fill="#4C4C4C"/>
<path d="M323.177 505.336H308.267L307.113 508.566H322.318L323.177 505.336Z" fill="#4C4C4C"/>
<path d="M340.791 505.336H325.587L325.062 508.566H340.267L340.791 505.336Z" fill="#4C4C4C"/>
<path d="M358.407 505.336H343.57L343.203 508.566H358.407V505.336Z" fill="#4C4C4C"/>
<path d="M375.96 505.336H361.039L361.354 508.566H376.558L375.96 505.336Z" fill="#4C4C4C"/>
<path d="M393.629 505.336H378.75L379.505 508.566H394.709L393.629 505.336Z" fill="#4C4C4C"/>
<path d="M411.372 505.336H396.398L397.657 508.566H412.861L411.372 505.336Z" fill="#4C4C4C"/>
<path d="M429.263 505.336H414.059L415.799 508.566H431.004L429.263 505.336Z" fill="#4C4C4C"/>
<path d="M446.708 505.336H431.504L433.947 508.566H449.151L446.708 505.336Z" fill="#4C4C4C"/>
<path d="M486.816 505.336H449.277L452.098 508.566H490.654L486.816 505.336Z" fill="#4C4C4C"/>
<path d="M264.089 500.849H237.12L233.723 503.879H261.174L264.089 500.849Z" fill="#4C4C4C"/>
<path d="M478.608 497.703H240.844L237.457 499.916H481.627L478.608 497.703Z" fill="#4C4C4C"/>
<path d="M280.656 500.849H266.993L264.277 503.879H278.737L280.656 500.849Z" fill="#4C4C4C"/>
<path d="M297.57 500.849H283.32L281.453 503.879H295.913L297.57 500.849Z" fill="#4C4C4C"/>
<path d="M315.146 500.849H300.686L299.176 503.879H313.961L315.146 500.849Z" fill="#4C4C4C"/>
<path d="M331.9 500.849H317.702L316.664 503.879H331.124L331.9 500.849Z" fill="#4C4C4C"/>
<path d="M349.38 500.849H335.361L334.711 503.879H349.171L349.38 500.849Z" fill="#4C4C4C"/>
<path d="M366.347 500.849H351.887V503.879H366.347V500.849Z" fill="#4C4C4C"/>
<path d="M383.89 500.849H369.703L369.934 503.879H384.383L383.89 500.849Z" fill="#4C4C4C"/>
<path d="M400.322 500.849H386.355L387.205 503.879H401.654L400.322 500.849Z" fill="#4C4C4C"/>
<path d="M417.969 500.849H403.52L404.956 503.879H419.405L417.969 500.849Z" fill="#4C4C4C"/>
<path d="M434.358 500.849H420.727L422.509 503.879H436.969L434.358 500.849Z" fill="#4C4C4C"/>
<path d="M452.139 500.849H437.68L440.364 503.879H454.813L452.139 500.849Z" fill="#4C4C4C"/>
<path d="M481.624 500.849H454.812L457.822 503.879H485.473L481.624 500.849Z" fill="#4C4C4C"/>
<path d="M326.5 537.989C327.681 537.301 329.024 536.939 330.39 536.941H383.637C385.004 536.938 386.346 537.3 387.527 537.989C387.527 538.618 387.403 539.241 387.162 539.821C386.921 540.402 386.568 540.93 386.123 541.374C385.678 541.818 385.149 542.17 384.568 542.41C383.987 542.649 383.364 542.772 382.735 542.771H331.334C330.065 542.771 328.848 542.267 327.949 541.371C327.051 540.474 326.545 539.258 326.542 537.989H326.5Z" fill="#666666" stroke="black" stroke-width="0.5" stroke-linecap="round" stroke-linejoin="round"/>
<path d="M332.059 123.567C332.059 123.567 360.277 117.113 362.699 113.624C365.121 110.136 354.578 102.003 376.497 100.293C473.284 92.9157 527.011 111.791 541.464 121.69C543.286 122.934 538.631 123.756 536.476 123.289C536.476 123.289 524.9 122.934 503.647 115.568C503.647 115.568 498.992 122.39 495.248 124.812C481.183 133.944 464.141 127.978 464.141 127.978C464.141 127.978 473.529 131.577 469.574 135.421C466.13 138.754 447.354 134.999 447.354 134.999C447.354 134.999 450.687 138.332 448.677 140.887C443.722 147.253 425.146 140.887 425.146 140.887C425.146 140.887 429.868 146.731 426.824 149.775C424.08 152.497 411.815 152.475 411.815 152.475C411.815 152.475 416.759 159.696 412.559 164.073C408.893 167.906 400.95 165.695 400.95 165.695C400.95 165.695 404.282 171.472 399.716 175.127C392.851 180.682 359.199 157.352 351.334 150.253C343.468 143.154 332.059 123.567 332.059 123.567Z" fill="#4C4C4C" stroke="black" stroke-width="0.5" stroke-linecap="round" stroke-linejoin="round"/>
<path d="M394.573 193.68C394.573 193.68 404.639 216.199 419.992 233.886C435.346 251.572 467.352 288.501 467.352 288.501C467.352 288.501 432.979 241.529 430.124 237.107L420.647 222.409C420.647 222.409 423.98 223.52 426.202 221.187C427.713 219.565 425.747 215.932 425.747 215.932C425.747 215.932 430.024 217.877 431.768 215.632C433.512 213.388 430.657 209.533 430.657 209.533C430.657 209.533 434.79 210.811 436.345 208.856C437.901 206.9 436.812 203.201 436.812 203.201C436.812 203.201 462.497 205.156 479.795 210.833C497.093 216.51 534.488 231.175 534.488 231.175C534.488 231.175 492.271 208.8 458.409 198.668C425.902 188.925 391.062 183.514 391.062 183.514L394.573 193.68Z" fill="#333333" stroke="black" stroke-width="0.5" stroke-linecap="round" stroke-linejoin="round"/>
<path d="M329.754 120.627C329.754 120.627 355.513 124.145 380.387 156.551C405.262 188.958 417.438 208.034 417.438 208.034C417.438 208.034 376.332 192.48 368.422 174.882C360.512 157.285 329.754 120.627 329.754 120.627Z" fill="#333333" stroke="black" stroke-width="0.5" stroke-linecap="round" stroke-linejoin="round"/>
<path d="M417.439 208.067C417.681 208.32 417.831 208.647 417.865 208.996C417.9 209.344 417.816 209.694 417.628 209.99C417.44 210.285 417.158 210.509 416.828 210.626C416.498 210.743 416.138 210.745 415.806 210.633C404.258 206.746 392.468 203.621 380.511 201.279C362.591 197.602 343.671 191.28 325.774 163.584C307.876 135.888 309.42 120.623 309.42 120.623L336.85 123.811C353.301 134.621 367.835 148.096 379.855 163.684C391.63 179.1 404.173 193.913 417.439 208.067Z" fill="white" stroke="black" stroke-width="0.5" stroke-linecap="round" stroke-linejoin="round"/>
<path d="M333.958 122.843C333.958 122.843 351.577 121.734 351.975 117.518C352.374 113.302 340.336 109.657 356.14 94.3783C370.542 80.4961 481.914 38.3647 537.734 30.1022C537.895 30.0786 538.059 30.1069 538.203 30.1829C538.347 30.2589 538.463 30.3787 538.534 30.525C538.606 30.6713 538.628 30.8364 538.6 30.9966C538.571 31.1567 538.492 31.3035 538.374 31.4158C528.777 40.7113 519.795 44.4876 508.176 47.9995C490.549 53.3256 475.621 56.2154 475.621 56.2154C475.621 56.2154 484.777 55.4365 485.204 59.8751C485.63 64.3136 458.092 68.0176 458.092 68.0176C458.092 68.0176 471.756 65.3781 472.011 70.3078C472.267 75.2375 449.015 76.2506 449.015 76.2506C449.015 76.2506 460.991 77.0448 458.827 81.3405C456.663 85.6361 439.767 89.1968 439.767 89.1968C439.767 89.1968 450.713 90.1605 449.274 95.5352C447.974 100.441 432.666 99.792 432.666 99.792C432.666 99.792 440.64 101.24 439.418 106.212C438.197 111.184 426.923 109.791 426.923 109.791C426.923 109.791 433.046 113.986 430.682 117.518C428.319 121.05 422.54 116.828 422.54 116.828C422.54 116.828 430.087 123.637 425.384 127.522C421.186 131.001 416.441 123.51 416.441 123.51C416.441 123.51 424.582 134.822 420.052 138.338C415.874 141.594 410.765 131.052 410.765 131.052C410.765 131.052 418.462 147.37 414.71 151.687C410.957 156.004 402.923 146.835 402.923 146.835C402.923 146.835 411.276 160.766 405.632 165.687C399.987 170.607 376.7 162.399 362.943 148.229C356.126 141.177 333.958 122.843 333.958 122.843Z" fill="#666666" stroke="black" stroke-width="0.5" stroke-linecap="round" stroke-linejoin="round"/>
<path d="M333.644 121.183C333.644 121.183 355.944 120.947 350.508 115.809C345.319 110.868 340.359 104.746 350.251 96.6912C365.637 84.1512 435.566 58.5217 435.566 58.5217C435.566 58.5217 440.015 63.7838 433.618 69.7919C427.222 75.8 416.505 77.7998 416.505 77.7998C416.505 77.7998 430.189 75.0267 429.151 80.4516C428.113 85.8765 408.544 90.6398 408.544 90.6398C408.544 90.6398 418.187 91.3432 416.594 96.8311C415.001 102.319 389.682 105.727 389.682 105.727C390.647 110.136 390.682 114.698 389.785 119.121C388.888 123.545 387.078 127.733 384.472 131.418C375.566 144.137 369.239 149.489 362.955 148.251C356.419 141.736 346.975 133.959 338.088 126.182C331.986 120.231 333.644 121.183 333.644 121.183Z" fill="white" stroke="black" stroke-width="0.5" stroke-linecap="round" stroke-linejoin="round"/>
<path d="M313.765 140.92L337.695 125.933L335.762 122.856C334.223 120.416 333.413 117.587 333.429 114.702C333.485 109.902 331.94 101.692 321.908 96.8373C307.099 89.6716 298.434 103.014 298.434 103.014C298.434 103.014 301.633 119.734 307.832 131.088C311.154 137.176 313.765 140.92 313.765 140.92Z" fill="#666666" stroke="black" stroke-width="0.5" stroke-linecap="round" stroke-linejoin="round"/>
<path d="M307.828 131.088C305.534 127.344 303.724 123.323 302.44 119.123C299.04 108.625 298.852 105.669 298.852 105.669L301.196 100.326C301.196 100.326 310.083 100.104 317.271 108.769C317.971 109.613 318.638 110.447 319.271 111.28C321.164 113.779 322.166 116.84 322.118 119.975C322.069 123.109 320.973 126.138 319.004 128.578C317.968 129.967 316.574 131.05 314.972 131.71C313.804 132.116 312.564 132.27 311.333 132.163C310.102 132.056 308.908 131.69 307.828 131.088Z" fill="#4C4C4C" stroke="black" stroke-width="0.5" stroke-linecap="round" stroke-linejoin="round"/>
<path d="M300.777 100.248C301.099 100.639 301.34 101.089 301.486 101.574C301.633 102.058 301.683 102.566 301.633 103.07C301.629 103.641 301.505 104.204 301.267 104.723C301.03 105.242 300.685 105.705 300.255 106.081C299.887 106.362 299.449 106.538 298.989 106.592L292.423 99.226C292.36 99.1653 292.319 99.0858 292.305 98.9994C292.292 98.9131 292.307 98.8248 292.349 98.748C292.391 98.6711 292.456 98.6101 292.536 98.574C292.615 98.5379 292.704 98.5289 292.79 98.5483L300.777 100.248Z" fill="#1A1A1A" stroke="black" stroke-width="0.5" stroke-linecap="round" stroke-linejoin="round"/>
<path d="M315.318 109.513C316.834 109.513 318.062 108.285 318.062 106.769C318.062 105.254 316.834 104.025 315.318 104.025C313.803 104.025 312.574 105.254 312.574 106.769C312.574 108.285 313.803 109.513 315.318 109.513Z" fill="white" stroke="black" stroke-width="0.5" stroke-linecap="round" stroke-linejoin="round"/>
<path d="M315.314 106.347C315.314 106.81 314.939 107.186 314.475 107.186C314.012 107.186 313.637 106.81 313.637 106.347C313.637 105.884 314.012 105.508 314.475 105.508C314.939 105.508 315.314 105.884 315.314 106.347Z" fill="black" stroke="black" stroke-width="0.5"/>
<path fill-rule="evenodd" clip-rule="evenodd" d="M359.316 191.991C360.088 191.675 361.457 191.765 362.64 193.552C363.279 194.529 364.028 194.887 364.678 194.943C364.989 194.97 365.253 194.926 365.441 194.875C365.535 194.849 365.612 194.821 365.668 194.798C365.697 194.786 365.72 194.776 365.738 194.767L365.761 194.756L365.769 194.752L365.772 194.75L365.774 194.749L365.775 194.749C365.775 194.749 365.775 194.749 365.515 194.258L365.775 194.749C366.046 194.605 366.15 194.269 366.006 193.998C365.864 193.729 365.532 193.625 365.262 193.763C365.26 193.764 365.255 193.767 365.246 193.77C365.227 193.778 365.193 193.791 365.148 193.803C365.058 193.828 364.927 193.85 364.774 193.836C364.497 193.812 364.041 193.665 363.569 192.943L363.569 192.943L363.568 192.94C362.173 190.833 360.317 190.445 359.022 190.911C359.021 190.912 359.02 190.912 359.019 190.912L359.019 190.912C359.019 190.912 359.019 190.912 359.018 190.912C359.018 190.912 359.018 190.912 359.018 190.912L359.017 190.913L359.016 190.913L359.011 190.915L359.008 190.916C358.77 191.003 358.552 191.118 358.36 191.257C358.185 191.372 357.989 191.52 357.792 191.708C357.702 191.701 357.595 191.696 357.475 191.695C357.121 191.694 356.633 191.737 356.134 191.922C355.629 192.11 355.109 192.447 354.72 193.028C354.333 193.607 354.105 194.384 354.105 195.402C354.105 196.991 354.728 198.238 355.765 199.033C356.789 199.818 358.159 200.117 359.594 199.942C359.618 199.939 359.641 199.935 359.663 199.929C359.912 199.994 360.162 200.023 360.408 200.021C361.049 200.016 361.645 199.801 362.116 199.494C362.581 199.192 362.971 198.771 363.154 198.306C363.267 198.02 363.127 197.698 362.842 197.585C362.556 197.472 362.234 197.612 362.121 197.897C362.043 198.093 361.837 198.35 361.511 198.562C361.191 198.77 360.8 198.907 360.399 198.91C360.007 198.913 359.587 198.79 359.182 198.449C358.771 198.102 358.352 197.508 358.019 196.533C357.361 194.605 357.777 193.483 358.259 192.848C358.479 192.557 358.729 192.348 358.941 192.204C358.958 192.194 358.975 192.183 358.991 192.172C359.004 192.163 359.018 192.154 359.031 192.146C359.145 192.075 359.242 192.026 359.307 191.995C359.31 191.994 359.313 191.993 359.316 191.991ZM356.968 196.892C357.241 197.693 357.586 198.326 357.984 198.808C357.389 198.701 356.864 198.476 356.44 198.151C355.705 197.587 355.216 196.68 355.216 195.402C355.216 194.549 355.406 194.001 355.643 193.645C355.88 193.292 356.193 193.085 356.521 192.963C356.67 192.908 356.82 192.871 356.966 192.847C356.513 193.797 356.362 195.118 356.968 196.892Z" fill="black"/>
<path d="M360.458 260.127L339.461 252.272L353.492 229.864C354.47 228.298 357.325 227.92 360.158 228.975C362.98 230.086 364.88 232.186 364.602 234.008L360.458 260.127Z" fill="#666666" stroke="black" stroke-width="0.5" stroke-linecap="round" stroke-linejoin="round"/>
<path d="M355.602 241.04C357.799 241.04 359.58 239.26 359.58 237.063C359.58 234.867 357.799 233.086 355.602 233.086C353.406 233.086 351.625 234.867 351.625 237.063C351.625 239.26 353.406 241.04 355.602 241.04Z" fill="#E5E5E5" stroke="black" stroke-width="0.5" stroke-linecap="round" stroke-linejoin="round"/>
<path d="M370.569 332.75C365.469 319.141 365.258 305.676 369.969 293.922C373.979 283.924 372.024 272.103 364.58 260.938C359.481 253.328 348.127 248.717 339.173 250.75C326.086 253.672 316.487 260.916 312.51 270.87C307.799 282.624 298.345 292.211 285.246 298.533C281.801 300.064 279.063 302.842 277.581 306.309L275.137 312.72L314.376 328.795L321.386 331.606L368.413 349.704L370.757 343.682C372.078 340.145 372.01 336.24 370.569 332.75Z" fill="#666666" stroke="black" stroke-width="0.5" stroke-linecap="round" stroke-linejoin="round"/>
<path d="M279.148 303.388C283.37 297.167 304.589 299.977 330.019 310.165C355.449 320.352 372.636 332.929 371.57 340.339" stroke="black" stroke-width="0.5" stroke-linecap="round" stroke-linejoin="round"/>
<path d="M326.438 319.308C300.708 309.009 277.734 305.898 275.145 312.375C272.556 318.852 291.31 332.45 317.051 342.76C342.792 353.07 365.755 356.181 368.344 349.704C370.932 343.227 352.224 329.618 326.438 319.308Z" fill="#333333" stroke="black" stroke-width="0.5" stroke-linecap="round" stroke-linejoin="round"/>
<path d="M297.424 327.618C298.83 328.391 300.375 328.88 301.97 329.056C303.566 329.232 305.18 329.092 306.721 328.645C308.263 328.197 309.701 327.45 310.953 326.447C312.206 325.443 313.248 324.203 314.021 322.796C315.204 320.545 316.2 318.2 316.999 315.786C309.335 313.088 301.451 311.062 293.435 309.731C293.133 310.144 292.854 310.574 292.602 311.02C291.829 312.426 291.34 313.971 291.164 315.566C290.988 317.162 291.127 318.776 291.575 320.317C292.023 321.859 292.77 323.297 293.773 324.549C294.777 325.802 296.017 326.845 297.424 327.618Z" fill="white" stroke="black" stroke-width="0.5" stroke-linecap="round" stroke-linejoin="round"/>
<path d="M281.458 289.667C281.458 289.667 270.226 290.645 264.916 297.855C259.605 305.065 262.949 314.086 262.949 314.086" stroke="black" stroke-width="0.5" stroke-linecap="round" stroke-linejoin="round"/>
<path d="M380.179 296.277C380.179 296.277 386.145 286.701 383.512 278.124C382.146 273.169 379.226 268.784 375.18 265.615" stroke="black" stroke-width="0.5" stroke-linecap="round" stroke-linejoin="round"/>
<path d="M286.289 278.524C286.289 278.524 262.87 273.192 252.46 290.456C242.05 307.721 251.405 326.451 251.405 326.451" stroke="black" stroke-width="0.5" stroke-linecap="round" stroke-linejoin="round"/>
<path fill-rule="evenodd" clip-rule="evenodd" d="M350.013 202.486C347.967 205.806 346.669 210.456 346.669 215.644C346.669 220.832 347.967 225.481 350.013 228.802C352.07 232.138 354.78 233.997 357.601 233.997C360.422 233.997 363.132 232.138 365.188 228.802C367.235 225.481 368.533 220.832 368.533 215.644C368.533 210.456 367.235 205.806 365.188 202.486C363.132 199.149 360.422 197.291 357.601 197.291C354.78 197.291 352.07 199.149 350.013 202.486ZM348.33 201.448C350.588 197.784 353.838 195.313 357.601 195.313C361.363 195.313 364.613 197.784 366.872 201.448C369.14 205.128 370.51 210.149 370.51 215.644C370.51 221.138 369.14 226.159 366.872 229.839C364.613 233.503 361.363 235.974 357.601 235.974C353.838 235.974 350.588 233.503 348.33 229.839C346.062 226.159 344.691 221.138 344.691 215.644C344.691 210.149 346.062 205.128 348.33 201.448Z" fill="#333333"/>
<path d="M364.513 234.43L362.658 245.962L356.814 242.418C357.768 241.261 358.584 239.997 359.247 238.652C360.791 234.675 355.914 232.23 355.914 232.23L362.324 230.175C363.104 230.548 363.74 231.166 364.135 231.934C364.53 232.702 364.663 233.579 364.513 234.43Z" fill="#666666"/>
<path d="M362.544 246.895L364.589 234.086C364.692 233.476 364.587 232.85 364.289 232.308C363.901 231.572 363.359 230.928 362.7 230.42C361.986 229.816 361.17 229.345 360.289 229.031" stroke="black" stroke-width="0.5" stroke-linecap="round" stroke-linejoin="round"/>
<path d="M355.602 241.04C357.799 241.04 359.58 239.26 359.58 237.063C359.58 234.867 357.799 233.086 355.602 233.086C355.218 233.086 354.847 233.14 354.496 233.242C354.078 233.363 353.688 233.55 353.339 233.792C353.049 233.993 352.787 234.232 352.56 234.501C351.977 235.193 351.625 236.087 351.625 237.063C351.625 239.26 353.406 241.04 355.602 241.04Z" stroke="#333333" stroke-width="0.5" stroke-linecap="round" stroke-linejoin="round"/>
<path d="M95.3203 77.9638C95.1792 78.0579 95.0132 78.1077 94.8436 78.1069C94.6739 78.106 94.5084 78.0546 94.3682 77.9591C94.228 77.8636 94.1196 77.7284 94.0567 77.5708C93.9939 77.4133 93.9795 77.2405 94.0154 77.0748C95.3461 71.1233 97.5151 65.3911 100.457 60.0495C104.322 53.0771 109.723 47.4592 112.6 44.735C112.733 44.6093 112.902 44.5298 113.084 44.5083C113.266 44.4868 113.45 44.5243 113.608 44.6154C113.767 44.7065 113.892 44.8462 113.965 45.014C114.038 45.1817 114.055 45.3686 114.014 45.5468C112.948 50.1038 110.403 59.666 106.524 66.1678C103.689 70.8658 99.866 74.8908 95.3203 77.9638Z" fill="#B3B3B3"/>
<path d="M106.607 136.924C106.674 137.017 106.767 137.089 106.874 137.129C106.982 137.169 107.099 137.176 107.211 137.15C107.323 137.123 107.424 137.063 107.502 136.979C107.579 136.894 107.63 136.788 107.648 136.675C108.222 132.574 108.211 128.412 107.615 124.314C106.826 118.952 104.732 114.104 103.554 111.681C103.5 111.569 103.411 111.477 103.3 111.42C103.19 111.362 103.064 111.342 102.941 111.362C102.818 111.382 102.705 111.441 102.619 111.53C102.532 111.62 102.477 111.734 102.461 111.858C102.05 115.01 101.385 121.694 102.299 126.757C102.979 130.418 104.45 133.888 106.607 136.924Z" fill="#4C4C4C"/>
<path d="M100.263 145.767C100.33 145.86 100.423 145.931 100.531 145.972C100.638 146.012 100.755 146.019 100.867 145.992C100.979 145.966 101.08 145.906 101.158 145.822C101.236 145.737 101.286 145.631 101.304 145.518C101.878 141.416 101.867 137.255 101.271 133.156C100.482 127.798 98.3879 122.947 97.21 120.524C97.1557 120.412 97.0667 120.32 96.9561 120.263C96.8456 120.205 96.7194 120.185 96.5965 120.205C96.4736 120.226 96.3604 120.285 96.274 120.375C96.1876 120.464 96.1324 120.58 96.1168 120.703C95.7059 123.853 95.0411 130.539 95.955 135.599C96.6357 139.261 98.1058 142.73 100.263 145.767Z" fill="#4C4C4C"/>
<path d="M95.0538 154.089C95.1321 154.17 95.2323 154.226 95.342 154.251C95.4518 154.276 95.5665 154.268 95.6721 154.229C95.7776 154.19 95.8696 154.121 95.9367 154.031C96.0037 153.94 96.0431 153.833 96.0499 153.72C96.1639 149.581 95.6902 145.447 94.6429 141.441C93.2609 136.212 90.6387 131.61 89.1994 129.339C89.1329 129.234 89.0344 129.153 88.9183 129.109C88.8023 129.064 88.675 129.058 88.5553 129.092C88.4356 129.125 88.33 129.196 88.254 129.295C88.178 129.393 88.1358 129.513 88.1336 129.638C88.0763 132.815 88.1585 139.531 89.6277 144.459C90.7164 148.025 92.5679 151.311 95.0538 154.089Z" fill="#4C4C4C"/>
<path d="M91.1477 162.468C91.2342 162.544 91.3412 162.592 91.4552 162.606C91.5691 162.621 91.6848 162.601 91.7875 162.549C91.8901 162.498 91.975 162.417 92.0314 162.317C92.0878 162.217 92.113 162.102 92.1039 161.987C91.7412 157.863 90.7938 153.81 89.29 149.952C87.3153 144.907 84.1802 140.649 82.4869 138.56C82.4087 138.464 82.3017 138.395 82.1816 138.365C82.0615 138.334 81.9348 138.343 81.8201 138.39C81.7053 138.437 81.6087 138.519 81.5445 138.625C81.4803 138.731 81.4519 138.855 81.4635 138.978C81.7722 142.141 82.6313 148.804 84.6608 153.528C86.1482 156.944 88.3618 159.995 91.1477 162.468Z" fill="#4C4C4C"/>
<path d="M107.509 137.429C107.403 137.386 107.311 137.312 107.247 137.217C107.183 137.122 107.148 137.009 107.148 136.894C107.148 136.779 107.183 136.667 107.247 136.571C107.311 136.476 107.403 136.402 107.509 136.359C111.366 134.853 115.417 133.902 119.542 133.532C124.94 133.064 130.15 133.981 132.772 134.568C132.893 134.596 133.002 134.661 133.083 134.755C133.164 134.849 133.212 134.967 133.221 135.09C133.23 135.214 133.199 135.337 133.132 135.442C133.066 135.547 132.967 135.627 132.851 135.672C129.881 136.8 123.531 138.991 118.409 139.27C114.685 139.455 110.966 138.827 107.509 137.429Z" fill="#4C4C4C"/>
<path d="M112.648 131.699C112.526 131.732 112.398 131.727 112.28 131.685C112.161 131.644 112.058 131.568 111.983 131.467C111.908 131.366 111.865 131.245 111.86 131.119C111.855 130.994 111.887 130.87 111.953 130.763C114.333 126.928 117.246 123.45 120.604 120.434C125.004 116.497 130.149 113.892 132.821 112.689C132.944 112.634 133.083 112.619 133.215 112.649C133.348 112.678 133.467 112.749 133.556 112.852C133.645 112.955 133.698 113.083 133.708 113.219C133.717 113.354 133.683 113.489 133.61 113.603C131.755 116.527 127.649 122.588 123.35 126.189C120.225 128.781 116.573 130.661 112.648 131.699Z" fill="#4C4C4C"/>
<path d="M100.989 146.225C100.887 146.17 100.804 146.087 100.75 145.985C100.696 145.883 100.674 145.767 100.687 145.652C100.7 145.538 100.746 145.429 100.821 145.341C100.896 145.253 100.995 145.19 101.106 145.159C105.099 144.064 109.227 143.541 113.367 143.605C118.786 143.702 123.871 145.156 126.418 146.015C126.536 146.055 126.638 146.132 126.708 146.234C126.779 146.336 126.815 146.458 126.81 146.582C126.806 146.706 126.762 146.826 126.685 146.923C126.608 147.02 126.501 147.089 126.381 147.121C123.308 147.933 116.764 149.449 111.629 149.19C107.909 148.987 104.278 147.975 100.989 146.225Z" fill="#4C4C4C"/>
<path d="M96.0325 155.062C95.9246 155.022 95.8312 154.951 95.7642 154.857C95.6972 154.763 95.6597 154.652 95.6565 154.537C95.6533 154.422 95.6845 154.308 95.7462 154.211C95.8078 154.114 95.8971 154.037 96.0026 153.991C99.81 152.363 103.829 151.283 107.94 150.784C113.319 150.144 118.556 150.894 121.196 151.397C121.318 151.42 121.429 151.482 121.513 151.573C121.597 151.665 121.649 151.781 121.662 151.904C121.675 152.028 121.648 152.152 121.584 152.259C121.521 152.366 121.425 152.449 121.31 152.497C118.377 153.72 112.097 156.113 106.977 156.556C103.263 156.859 99.5287 156.349 96.0325 155.062Z" fill="#4C4C4C"/>
<path d="M91.9568 162.732C91.8548 162.679 91.7708 162.597 91.7156 162.496C91.6604 162.395 91.6365 162.28 91.6469 162.166C91.6573 162.052 91.7017 161.943 91.7742 161.854C91.8467 161.765 91.944 161.699 92.0539 161.666C96.023 160.486 100.14 159.877 104.281 159.858C109.699 159.841 114.812 161.19 117.376 161.995C117.496 162.031 117.6 162.105 117.673 162.206C117.747 162.307 117.786 162.429 117.784 162.553C117.783 162.678 117.741 162.799 117.666 162.898C117.59 162.997 117.484 163.069 117.364 163.103C114.309 163.977 107.797 165.628 102.657 165.478C98.9333 165.35 95.282 164.413 91.9568 162.732Z" fill="#4C4C4C"/>
<path d="M117.613 126.467C117.613 126.467 106.452 133.905 93.2915 158.635C80.131 183.365 77.7691 191.025 74.6016 210.05" stroke="#4C4C4C" stroke-width="0.5" stroke-miterlimit="10" stroke-linecap="round" stroke-linejoin="round"/>
<path d="M87.1685 90.6464C87.2955 90.7362 87.4465 90.786 87.602 90.7893C87.7575 90.7926 87.9104 90.7492 88.0411 90.6648C88.1718 90.5805 88.2743 90.4589 88.3353 90.3159C88.3964 90.1728 88.4132 90.0148 88.3837 89.862C87.2969 84.3737 85.4347 79.0679 82.853 74.1043C79.4614 67.6174 74.6355 62.3532 72.0507 59.7958C71.932 59.6765 71.7779 59.5988 71.6114 59.5744C71.4449 59.5499 71.2749 59.5801 71.127 59.6602C70.979 59.7404 70.8609 59.8662 70.7904 60.019C70.7199 60.1718 70.7008 60.3433 70.7359 60.5079C71.6149 64.7113 73.739 73.5365 77.158 79.5851C79.6528 83.9548 83.0687 87.7292 87.1685 90.6464Z" fill="#B3B3B3"/>
<path d="M83.0109 104.754C83.1383 104.842 83.2893 104.891 83.4446 104.894C83.5999 104.896 83.7524 104.853 83.8828 104.768C84.0131 104.684 84.1154 104.563 84.1766 104.42C84.2377 104.277 84.2549 104.119 84.2261 103.967C83.1353 98.4791 81.2706 93.1744 78.688 88.2113C75.2964 81.7244 70.4704 76.4602 67.8856 73.9003C67.7662 73.7825 67.612 73.7063 67.4459 73.6829C67.2798 73.6594 67.1106 73.69 66.9632 73.7701C66.8158 73.8502 66.6981 73.9756 66.6274 74.1277C66.5568 74.2799 66.5369 74.4507 66.5708 74.615C67.4498 78.8159 69.574 87.641 72.9929 93.6921C75.4899 98.0626 78.9084 101.837 83.0109 104.754Z" fill="#B3B3B3"/>
<path d="M80.0531 117.687C80.1896 117.762 80.3454 117.795 80.5004 117.78C80.6555 117.766 80.8028 117.706 80.9234 117.608C81.0441 117.509 81.1326 117.377 81.1776 117.228C81.2226 117.079 81.2221 116.92 81.1762 116.771C79.4803 111.439 77.0363 106.375 73.9173 101.73C69.826 95.6594 64.4373 90.9679 61.5885 88.7118C61.4572 88.6075 61.2957 88.5483 61.128 88.543C60.9604 88.5378 60.7955 88.5868 60.6579 88.6827C60.5203 88.7786 60.4173 88.9164 60.3643 89.0755C60.3112 89.2346 60.3109 89.4067 60.3633 89.566C61.7031 93.6449 64.7983 102.179 68.8673 107.811C71.8348 111.876 75.6518 115.246 80.0531 117.687Z" fill="#B3B3B3"/>
<path d="M78.8093 130.113C78.9527 130.168 79.1089 130.179 79.2585 130.145C79.4081 130.111 79.5444 130.034 79.6506 129.924C79.7567 129.813 79.828 129.673 79.8555 129.523C79.883 129.372 79.8656 129.216 79.8053 129.075C77.5062 123.974 74.4945 119.225 70.8607 114.971C66.0945 109.415 60.2003 105.376 57.1125 103.461C56.9693 103.372 56.8011 103.332 56.6332 103.346C56.4652 103.361 56.3064 103.429 56.1804 103.541C56.0544 103.653 55.968 103.803 55.934 103.968C55.9 104.133 55.9203 104.305 55.9919 104.457C57.7948 108.354 61.8537 116.475 66.5452 121.6C69.9659 125.295 74.1511 128.2 78.8093 130.113Z" fill="#B3B3B3"/>
<path d="M88.5557 90.888C88.4005 90.88 88.2512 90.8258 88.127 90.7323C88.0028 90.6388 87.9094 90.5103 87.8588 90.3633C87.8083 90.2163 87.8028 90.0576 87.8431 89.9075C87.8834 89.7574 87.9676 89.6227 88.085 89.5209C92.3344 85.8796 97.08 82.8611 102.179 80.5563C108.858 77.5681 115.91 76.4077 119.518 75.9893C119.685 75.9703 119.854 76.0055 119.999 76.0897C120.144 76.1738 120.258 76.3025 120.325 76.4566C120.391 76.6108 120.406 76.7822 120.368 76.9456C120.329 77.109 120.239 77.2557 120.111 77.3639C116.822 80.1255 109.695 85.7458 103.268 88.3854C98.6035 90.2779 93.5832 91.1319 88.5557 90.888Z" fill="#B3B3B3"/>
<path d="M84.141 105.012C83.9875 104.988 83.8449 104.917 83.7315 104.811C83.6181 104.705 83.5389 104.567 83.5042 104.415C83.4694 104.264 83.4806 104.105 83.5364 103.96C83.5922 103.815 83.6899 103.69 83.8172 103.601C88.4242 100.425 93.4591 97.921 98.7707 96.1624C105.723 93.8765 112.858 93.4706 116.491 93.4232C116.659 93.4207 116.823 93.4725 116.96 93.5711C117.096 93.6697 117.196 93.8097 117.247 93.9702C117.297 94.1307 117.294 94.303 117.238 94.4616C117.182 94.6202 117.076 94.7565 116.936 94.8501C113.376 97.2506 105.701 102.096 99.0346 104.064C94.1976 105.456 89.1156 105.78 84.141 105.012Z" fill="#B3B3B3"/>
<path d="M81.7511 118.494C81.5957 118.49 81.4449 118.44 81.318 118.351C81.1912 118.261 81.094 118.135 81.039 117.99C80.9839 117.844 80.9734 117.686 81.0089 117.534C81.0444 117.383 81.1242 117.245 81.2381 117.14C85.3713 113.368 90.0186 110.203 95.0411 107.737C101.62 104.527 108.632 103.155 112.223 102.622C112.389 102.597 112.559 102.627 112.707 102.706C112.855 102.786 112.974 102.911 113.045 103.063C113.117 103.214 113.137 103.385 113.104 103.55C113.071 103.715 112.986 103.864 112.861 103.977C109.661 106.84 102.716 112.692 96.3759 115.529C91.7737 117.566 86.7834 118.578 81.7511 118.494Z" fill="#B3B3B3"/>
<path d="M79.9589 130.091C79.8049 130.07 79.6607 130.003 79.5449 129.9C79.429 129.796 79.3468 129.66 79.3088 129.509C79.2708 129.359 79.2787 129.2 79.3316 129.054C79.3844 128.908 79.4797 128.781 79.6053 128.689C84.1459 125.419 89.1278 122.811 94.4019 120.942C101.307 118.512 108.431 117.954 112.062 117.844C112.23 117.838 112.396 117.887 112.534 117.982C112.672 118.078 112.775 118.216 112.829 118.375C112.882 118.535 112.883 118.707 112.83 118.867C112.778 119.026 112.675 119.165 112.538 119.261C109.029 121.736 101.456 126.732 94.8302 128.836C90.023 130.329 84.9483 130.757 79.9589 130.091Z" fill="#B3B3B3"/>
<path d="M98.7199 71.9603C98.7199 71.9603 89.6831 81.8712 82.8774 109.046C76.0718 136.222 78.8442 192.883 73.9609 211.539" stroke="#B3B3B3" stroke-width="0.5" stroke-miterlimit="10" stroke-linecap="round" stroke-linejoin="round"/>
<path d="M57.5293 150.686C57.4524 150.771 57.3518 150.832 57.2403 150.86C57.1288 150.889 57.0115 150.883 56.9032 150.844C56.7949 150.806 56.7005 150.736 56.632 150.643C56.5635 150.551 56.524 150.44 56.5185 150.326C56.3782 146.187 56.8258 142.05 57.8478 138.037C59.1958 132.79 61.7883 128.18 63.2142 125.9C63.28 125.795 63.3779 125.714 63.4935 125.669C63.609 125.624 63.736 125.617 63.8557 125.649C63.9754 125.682 64.0814 125.752 64.1581 125.85C64.2348 125.947 64.278 126.067 64.2815 126.191C64.36 129.368 64.3182 136.085 62.8786 141.023C61.8173 144.594 59.992 147.891 57.5293 150.686Z" fill="#808080"/>
<path d="M62.9098 160.146C62.8332 160.232 62.7327 160.293 62.6213 160.321C62.5098 160.349 62.3925 160.344 62.2842 160.305C62.1759 160.266 62.0816 160.196 62.0134 160.104C61.9452 160.011 61.9063 159.9 61.9015 159.785C61.7599 155.647 62.2075 151.509 63.2308 147.496C64.5787 142.249 67.1713 137.64 68.5972 135.36C68.6631 135.255 68.7612 135.173 68.877 135.128C68.9928 135.083 69.1201 135.076 69.24 135.109C69.3599 135.142 69.466 135.213 69.5425 135.311C69.619 135.409 69.6618 135.529 69.6647 135.653C69.7407 138.831 69.7014 145.547 68.2591 150.483C67.1995 154.054 65.374 157.352 62.9098 160.146Z" fill="#808080"/>
<path d="M67.2239 168.967C67.1384 169.044 67.0318 169.094 66.9178 169.11C66.8039 169.126 66.6877 169.108 66.5843 169.057C66.4809 169.007 66.3949 168.927 66.3374 168.827C66.2798 168.727 66.2533 168.613 66.2612 168.498C66.5817 164.369 67.4868 160.307 68.9494 156.432C70.873 151.368 73.9627 147.075 75.6335 144.97C75.7098 144.869 75.817 144.796 75.9387 144.762C76.0604 144.728 76.1899 144.735 76.3074 144.781C76.4248 144.828 76.5238 144.912 76.589 145.02C76.6543 145.128 76.6822 145.255 76.6686 145.38C76.3912 148.546 75.6034 155.22 73.6223 159.964C72.1694 163.395 69.9859 166.467 67.2239 168.967Z" fill="#808080"/>
<path d="M70.2201 177.712C70.1261 177.779 70.0142 177.816 69.8989 177.818C69.7835 177.821 69.67 177.789 69.573 177.727C69.4759 177.665 69.3998 177.575 69.3543 177.468C69.3089 177.362 69.2962 177.245 69.3179 177.132C70.1119 173.069 71.4795 169.139 73.3797 165.46C75.8749 160.649 79.4402 156.743 81.3412 154.843C81.429 154.754 81.5431 154.697 81.6663 154.679C81.7895 154.66 81.9154 154.682 82.025 154.742C82.1347 154.801 82.2223 154.894 82.2747 155.007C82.3272 155.12 82.3417 155.247 82.3162 155.369C81.6767 158.48 80.1248 165.017 77.6091 169.503C75.7702 172.742 73.249 175.543 70.2201 177.712Z" fill="#808080"/>
<path d="M56.5743 151.093C56.685 151.061 56.7837 150.997 56.8575 150.908C56.9314 150.82 56.9771 150.711 56.9887 150.596C57.0004 150.482 56.9774 150.366 56.9228 150.264C56.8682 150.163 56.7845 150.08 56.6825 150.027C53.0045 148.124 49.0754 146.753 45.0124 145.955C39.694 144.913 34.4173 145.284 31.735 145.598C31.6118 145.612 31.4966 145.666 31.4064 145.751C31.3161 145.836 31.2557 145.948 31.2339 146.07C31.2122 146.192 31.2304 146.318 31.2857 146.429C31.3411 146.54 31.4307 146.63 31.5413 146.687C34.3764 148.12 40.4624 150.965 45.539 151.783C49.2239 152.357 52.9896 152.122 56.5743 151.093Z" fill="#808080"/>
<path d="M62.1394 160.525C62.2461 160.481 62.3374 160.407 62.4015 160.311C62.4656 160.215 62.4995 160.102 62.499 159.987C62.4985 159.872 62.4635 159.759 62.3986 159.664C62.3337 159.569 62.2418 159.495 62.1347 159.453C58.279 157.943 54.2282 156.99 50.104 156.622C44.7069 156.146 39.4969 157.06 36.8729 157.645C36.7516 157.672 36.6421 157.738 36.5609 157.832C36.4796 157.926 36.4308 158.044 36.4219 158.168C36.4129 158.292 36.4442 158.415 36.511 158.52C36.5779 158.625 36.6768 158.705 36.793 158.749C39.7647 159.881 46.1119 162.074 51.2474 162.357C54.9681 162.544 58.6849 161.919 62.1394 160.525Z" fill="#808080"/>
<path d="M66.1381 169.836C66.2496 169.807 66.3499 169.746 66.4263 169.659C66.5027 169.573 66.5515 169.466 66.5667 169.352C66.5818 169.238 66.5626 169.122 66.5113 169.019C66.4601 168.916 66.3793 168.83 66.2792 168.774C62.6645 166.753 58.7807 165.257 54.7446 164.33C49.4624 163.128 44.178 163.323 41.4981 163.548C41.3745 163.559 41.2576 163.609 41.1646 163.691C41.0716 163.773 41.0076 163.883 40.9818 164.004C40.9561 164.125 40.9702 164.252 41.0218 164.365C41.0735 164.477 41.1601 164.57 41.2688 164.63C44.0591 166.152 50.0492 169.191 55.0998 170.171C58.7599 170.861 62.5266 170.747 66.1381 169.836Z" fill="#808080"/>
<path d="M69.3898 177.888C69.4973 177.847 69.59 177.775 69.656 177.68C69.722 177.586 69.7582 177.474 69.7601 177.359C69.762 177.244 69.7295 177.131 69.6667 177.034C69.6039 176.938 69.5137 176.862 69.4076 176.817C65.5835 175.229 61.5534 174.192 57.4379 173.736C52.0515 173.152 46.8246 173.957 44.1885 174.489C44.067 174.513 43.9568 174.577 43.874 174.669C43.7911 174.761 43.7402 174.878 43.7287 175.001C43.7172 175.125 43.7457 175.248 43.81 175.354C43.8743 175.46 43.971 175.543 44.0859 175.59C47.0326 176.781 53.3339 179.108 58.4635 179.496C62.1791 179.76 65.9077 179.211 69.3898 177.888Z" fill="#808080"/>
<path d="M47.6836 139.132C47.6836 139.132 58.0012 147.701 68.4944 173.674C77.8787 196.902 79.4549 205.506 80.1843 213.981" stroke="#808080" stroke-width="0.5" stroke-miterlimit="10" stroke-linecap="round" stroke-linejoin="round"/>
<path d="M52.0695 144.857C52.1871 144.901 52.3151 144.91 52.4373 144.88C52.5595 144.851 52.6702 144.786 52.7552 144.694C52.8402 144.601 52.8956 144.486 52.9143 144.361C52.933 144.237 52.9142 144.11 52.8602 143.997C50.8959 139.933 48.3647 136.169 45.3422 132.817C41.3789 128.439 36.5382 125.309 34.0069 123.835C33.8897 123.765 33.7531 123.736 33.6176 123.751C33.4821 123.765 33.355 123.824 33.2555 123.917C33.1559 124.01 33.0892 124.132 33.0653 124.267C33.0415 124.401 33.0618 124.539 33.1232 124.661C34.6625 127.765 38.1106 134.229 42.006 138.253C44.8411 141.159 48.2752 143.413 52.0695 144.857Z" fill="#808080"/>
<path d="M54.8945 186.143V186.606C54.8946 192.012 55.9649 197.365 58.0436 202.355C60.1222 207.346 63.1682 211.876 67.0059 215.684C69.65 218.308 73.214 219.796 76.9391 219.832C80.6643 219.868 84.2562 218.448 86.9502 215.875L87.062 215.769C91.0677 211.944 94.256 207.346 96.4344 202.254C98.6128 197.162 99.7359 191.681 99.7359 186.143H54.8945Z" fill="#CCCCCC"/>
<rect x="60.4023" y="227.094" width="7.98357" height="14.9954" fill="#B3B3B3"/>
<rect x="208.883" y="227.094" width="7.98357" height="14.9954" fill="#B3B3B3"/>
<rect x="50.5742" y="219.752" width="175.5" height="8.5" rx="0.75" fill="#B3B3B3" stroke="black" stroke-width="0.5"/>
<path d="M222.106 178.083H131.376C131.167 178.081 130.96 178.119 130.766 178.197C130.572 178.274 130.395 178.389 130.245 178.535C130.096 178.681 129.977 178.854 129.894 179.046C129.812 179.238 129.768 179.445 129.766 179.653V193.043C129.768 193.252 129.812 193.458 129.894 193.65C129.977 193.842 130.096 194.016 130.245 194.162C130.395 194.308 130.572 194.423 130.766 194.5C130.96 194.577 131.167 194.616 131.376 194.613H222.106C222.314 194.616 222.522 194.577 222.716 194.5C222.91 194.423 223.086 194.308 223.236 194.162C223.385 194.016 223.505 193.842 223.587 193.65C223.669 193.458 223.713 193.252 223.716 193.043V179.653C223.713 179.445 223.669 179.238 223.587 179.046C223.505 178.854 223.385 178.681 223.236 178.535C223.086 178.389 222.91 178.274 222.716 178.197C222.522 178.119 222.314 178.081 222.106 178.083Z" fill="#E5E5E5" stroke="black" stroke-width="0.5" stroke-linecap="round" stroke-linejoin="round"/>
<path d="M219.324 178.083V194.613" stroke="black" stroke-width="0.5" stroke-linecap="round" stroke-linejoin="round"/>
<path d="M210.664 178.083V194.613" stroke="black" stroke-width="0.5" stroke-linecap="round" stroke-linejoin="round"/>
<path d="M215.016 178.083V194.613" stroke="black" stroke-width="0.5" stroke-linecap="round" stroke-linejoin="round"/>
<path d="M126.005 194.613H219.325V202.443H126.005C125.579 202.442 125.159 202.353 124.77 202.181C124.381 202.009 124.032 201.758 123.745 201.443C123.136 200.785 122.8 199.92 122.805 199.023V198.023C122.8 197.127 123.136 196.262 123.745 195.603C124.033 195.292 124.383 195.043 124.772 194.873C125.16 194.703 125.58 194.614 126.005 194.613Z" fill="#999999" stroke="black" stroke-width="0.5" stroke-linecap="round" stroke-linejoin="round"/>
<path d="M215.123 197.223H140.123C139.922 197.223 139.728 197.303 139.586 197.446C139.443 197.588 139.363 197.782 139.363 197.983V198.203C139.363 198.405 139.443 198.598 139.586 198.741C139.728 198.883 139.922 198.963 140.123 198.963H215.123C215.325 198.963 215.518 198.883 215.661 198.741C215.803 198.598 215.883 198.405 215.883 198.203V197.983C215.883 197.782 215.803 197.588 215.661 197.446C215.518 197.303 215.325 197.223 215.123 197.223Z" fill="#666666" stroke="black" stroke-width="0.5" stroke-linecap="round" stroke-linejoin="round"/>
<path d="M216.514 219.833H128.224C127.055 219.833 125.897 219.606 124.814 219.163C122.652 218.295 120.922 216.605 120.004 214.463C119.556 213.41 119.325 212.277 119.324 211.133C119.327 209.984 119.56 208.848 120.008 207.79C120.456 206.732 121.111 205.774 121.934 204.973C123.619 203.338 125.877 202.427 128.224 202.433H216.564C216.778 202.429 216.99 202.484 217.174 202.593C217.36 202.694 217.513 202.847 217.614 203.033C218.851 205.548 219.438 208.333 219.324 211.133C219.327 213.897 218.723 216.628 217.554 219.133C217.458 219.338 217.305 219.512 217.114 219.633C216.934 219.748 216.728 219.817 216.514 219.833Z" fill="#E5E5E5" stroke="black" stroke-width="0.5" stroke-linecap="round" stroke-linejoin="round"/>
<path d="M199.054 206.833H144.854C144.204 206.833 143.684 207.173 143.684 207.593V207.813C143.684 208.233 144.204 208.573 144.854 208.573H199.054C199.704 208.573 200.224 208.233 200.224 207.813V207.593C200.224 207.133 199.704 206.833 199.054 206.833Z" fill="#999999" stroke="black" stroke-width="0.5" stroke-linecap="round" stroke-linejoin="round"/>
<path d="M199.054 212.013H144.854C144.702 212.01 144.551 212.038 144.41 212.094C144.269 212.15 144.14 212.233 144.031 212.339C143.922 212.445 143.836 212.572 143.776 212.711C143.716 212.851 143.685 213.001 143.684 213.153V213.483C143.685 213.635 143.716 213.785 143.776 213.925C143.836 214.064 143.922 214.191 144.031 214.297C144.14 214.403 144.269 214.486 144.41 214.542C144.551 214.598 144.702 214.626 144.854 214.623H199.054C199.205 214.626 199.356 214.598 199.498 214.542C199.639 214.486 199.767 214.403 199.876 214.297C199.985 214.191 200.072 214.064 200.131 213.925C200.191 213.785 200.222 213.635 200.224 213.483V213.153C200.222 213.001 200.191 212.851 200.131 212.711C200.072 212.572 199.985 212.445 199.876 212.339C199.767 212.233 199.639 212.15 199.498 212.094C199.356 212.038 199.205 212.01 199.054 212.013Z" fill="#999999" stroke="black" stroke-width="0.5" stroke-linecap="round" stroke-linejoin="round"/>
<path fill-rule="evenodd" clip-rule="evenodd" d="M541.599 121.5C530.299 113.8 498.199 102 444.499 99.0999C446.999 98.3999 449.099 97.3999 449.499 95.5999C449.799 94.4999 449.599 93.4999 448.999 92.5999C447.399 90.3999 443.399 89.3999 441.199 89.0999C445.299 88.0999 457.199 85.0999 459.099 81.3999C459.499 80.5999 459.499 79.8999 459.099 79.2999C458.099 77.5999 454.499 76.6999 451.899 76.2999C457.399 75.8999 468.999 74.6999 471.699 71.7999C472.099 71.2999 472.299 70.7999 472.299 70.2999C472.299 69.4999 471.899 68.8999 471.299 68.3999C470.099 67.4999 467.999 67.0999 465.899 67.0999C474.199 65.5999 485.899 62.9999 485.599 59.8999C485.299 56.7999 481.199 56.0999 478.399 55.9999C483.399 54.8999 495.199 52.2999 508.399 48.2999C520.499 44.6999 529.299 40.7999 538.699 31.6999C538.899 31.4999 538.999 31.3999 538.999 31.0999C538.999 30.8999 538.999 30.6999 538.899 30.4999C538.799 30.2999 538.699 30.0999 538.499 29.9999C538.299 29.8999 538.099 29.8999 537.899 29.8999C510.699 33.8999 471.299 45.6999 435.899 58.3999C435.861 58.3999 435.837 58.3853 435.817 58.3728C435.785 58.3527 435.761 58.3381 435.699 58.3999C435.644 58.4273 435.281 58.5601 434.646 58.7921C432.967 59.4057 429.389 60.7132 424.599 62.5999C409.499 68.1999 395.599 73.8999 384.199 78.9999C369.599 85.3999 356.099 91.8999 350.399 96.5999C346.599 99.6999 344.699 102.6 344.599 105.7C344.399 109.7 347.399 113.1 350.599 116.1C351.299 116.7 351.499 117.3 351.299 117.8C351.199 118.2 350.799 118.5 350.199 118.8C349.399 119.05 348.599 119.275 347.799 119.5C346.999 119.725 346.199 119.95 345.399 120.2C341.999 120.8 337.899 121 335.199 121.1C334.299 119.2 333.899 117 333.899 114.9C333.999 110.3 332.499 101.8 322.199 96.7999C311.899 91.7999 304.499 96.6999 300.899 100.2L292.999 98.4999H292.599L292.299 98.7999C292.199 98.8999 292.199 99.0999 292.199 99.1999C292.199 99.2999 292.299 99.4999 292.399 99.5999L298.899 106.9C299.199 108.5 299.999 112.1 302.399 119.4C303.699 123.6 305.499 127.6 307.799 131.4C310.243 135.843 312.303 139.08 313.207 140.501C313.524 140.999 313.699 141.274 313.699 141.3C313.699 141.4 313.799 141.4 313.899 141.4C316.299 147.6 320.099 155.2 325.699 164C335.299 178.9 345.299 187.6 355.099 193C354.999 193.1 354.899 193.2 354.899 193.3C354.499 193.9 354.299 194.7 354.299 195.7V196.3C351.999 197.3 349.999 199.2 348.499 201.7C346.199 205.4 344.899 210.4 344.899 215.9C344.899 221.4 346.299 226.4 348.499 230.1C349.299 231.4 350.199 232.5 351.299 233.5L340.599 250.5C340.399 250.55 340.174 250.575 339.949 250.6C339.724 250.625 339.499 250.65 339.299 250.7C331.099 252.5 324.199 256.1 319.299 260.9H118.299C114.899 260.9 111.799 262.2 109.399 264.6C106.999 267 105.699 270.1 105.699 273.5V385.7C105.699 389.1 106.999 392.2 109.399 394.6C110.299 395.5 111.299 396.2 112.399 396.8C112.999 397.9 113.699 398.9 114.599 399.8C116.999 402.2 120.099 403.5 123.499 403.5H224.099V496.1L172.799 537.9V542.6C172.799 544.3 173.499 545.8 174.599 547C175.799 548.2 177.399 548.8 178.999 548.8H533.999C535.699 548.8 537.199 548.1 538.399 547C539.599 545.8 540.199 544.2 540.199 542.6V537.9L486.599 495.8C486.599 495.8 486.499 495.7 486.399 495.7H486.299V332.7C486.299 331.3 485.999 329.9 485.499 328.5C484.999 327.2 484.199 326 483.099 325C482.099 324 480.899 323.2 479.599 322.6C478.299 322 476.899 321.8 475.399 321.8H367.799C365.999 312 366.799 302.6 370.199 294C374.299 283.9 372.299 272.1 364.799 260.8C363.799 259.3 362.599 258 361.299 256.8L364.699 235.5L364.899 234.2V233.4C364.899 233.31 364.879 233.22 364.857 233.121C364.83 233 364.799 232.865 364.799 232.7C365.599 231.9 366.299 230.9 366.999 229.9C369.299 226.2 370.599 221.2 370.599 215.7C370.599 210.2 369.199 205.2 366.999 201.5C364.799 197.9 361.599 195.4 357.899 195.4C357.799 195 357.799 194.6 357.899 194.3C365.799 198.2 373.399 200.2 380.599 201.6C387.399 202.9 394.199 204.5 400.899 206.4C405.399 214.4 411.999 225 419.899 234.1C435.299 251.8 467.299 288.7 467.299 288.7C467.299 288.8 467.399 288.8 467.499 288.8C467.599 288.8 467.599 288.8 467.699 288.7C467.799 288.6 467.799 288.5 467.699 288.4C467.614 288.258 464.804 284.407 460.759 278.865L460.741 278.841C450.537 264.859 432.503 240.149 430.499 237L421.399 222.8C422.499 223 424.799 223.2 426.599 221.4C427.799 220.1 426.999 217.6 426.499 216.4C427.799 216.9 430.799 217.7 432.199 215.8C433.599 213.9 432.199 211.1 431.499 210C432.799 210.3 435.499 210.7 436.799 209.1C438.099 207.4 437.599 204.6 437.399 203.6C437.552 203.615 437.754 203.634 438.002 203.657C442.794 204.105 464.787 206.161 479.999 211.2C493.868 215.742 520.959 226.204 530.915 230.049C533.234 230.944 534.624 231.481 534.699 231.5C534.799 231.5 534.999 231.5 534.999 231.4C535.099 231.3 534.999 231.1 534.899 231.1C534.886 231.093 534.826 231.062 534.721 231.007C531.692 229.425 491.181 208.266 458.799 198.6C437.599 192.2 415.199 187.7 402.299 185.3C400.299 182.5 398.099 179.5 395.699 176.3C396.199 176.4 396.599 176.4 396.999 176.4C398.299 176.4 399.399 176.1 400.099 175.5C403.199 173 402.799 169.5 402.099 167.5C403.199 167.4 404.199 167.1 404.999 166.7C407.599 166.9 410.899 166.6 412.999 164.4C416.499 160.8 413.899 155.2 412.699 153.2C413.199 153.2 413.699 153 414.099 152.8C417.699 152.7 425.099 152.2 427.299 150.1C429.899 147.5 427.299 143.2 426.099 141.5C429.699 142.6 444.699 146.9 449.199 141.2C450.799 139.1 449.199 136.6 448.299 135.5C451.799 136.2 466.899 138.8 469.999 135.7C470.899 134.9 471.199 134 470.999 133.1C470.699 131.5 468.699 130 466.999 129.1C472.399 130.3 484.899 132.1 495.599 125.2C498.865 123.147 502.653 117.874 503.795 116.283C503.84 116.22 503.881 116.163 503.918 116.112C503.948 116.071 503.975 116.033 503.999 116C524.899 123.2 536.599 123.7 536.699 123.7C538.399 124.1 541.899 123.7 542.399 122.7C542.362 122.607 542.332 122.52 542.303 122.439C542.178 122.084 542.087 121.825 541.599 121.5ZM365.199 202.5C367.199 205.8 368.499 210.5 368.499 215.7C368.499 220.9 367.199 225.5 365.199 228.9C364.699 229.7 364.199 230.4 363.599 231L362.899 230.3C362.199 229.7 361.299 229.2 360.399 228.9C360.399 228.9 360.299 228.9 360.299 228.8C357.399 227.7 354.399 228.1 353.299 229.8L352.199 231.6C351.399 230.8 350.699 230 349.999 228.9C347.999 225.6 346.699 220.9 346.699 215.7C346.699 210.5 347.999 205.9 349.999 202.5C351.399 200.3 352.999 198.8 354.799 198C355.099 198.4 355.399 198.8 355.799 199.1C356.799 199.9 358.199 200.2 359.599 200H359.699C359.899 200.1 360.199 200.1 360.399 200.1C360.999 200.1 361.599 199.9 362.099 199.6L362.399 199.3C363.399 200.1 364.399 201.2 365.199 202.5ZM357.099 197.3C357.299 197.9 357.599 198.4 357.899 198.8C357.299 198.7 356.799 198.5 356.399 198.1L355.799 197.5C356.034 197.453 356.246 197.428 356.447 197.405C356.674 197.378 356.887 197.353 357.099 197.3ZM358.399 197.4C359.499 197.5 360.599 197.9 361.599 198.6C361.299 198.8 360.899 198.9 360.499 198.9C360.099 198.9 359.699 198.8 359.299 198.4C358.899 198.2 358.599 197.9 358.399 197.4ZM356.371 195.441C356.296 195.453 356.222 195.464 356.15 195.474C355.837 195.52 355.542 195.563 355.199 195.7V195.4C355.199 194.5 355.399 194 355.599 193.6C355.626 193.573 355.652 193.54 355.679 193.503C355.702 193.471 355.726 193.435 355.749 193.4C355.799 193.325 355.849 193.25 355.899 193.2C355.999 193.25 356.124 193.325 356.249 193.4C356.374 193.475 356.499 193.55 356.599 193.6C356.599 193.8 356.588 193.989 356.577 194.178C356.555 194.555 356.533 194.933 356.599 195.4C356.521 195.416 356.445 195.429 356.371 195.441Z" fill="url(#paint0_linear_2677_292814)" style="mix-blend-mode:overlay"/>
<path d="M379.999 296.5H380.099C380.199 296.5 380.299 296.5 380.299 296.4C380.399 296.3 386.299 286.6 383.699 278C382.299 273 379.299 268.5 375.299 265.4C375.199 265.3 374.999 265.3 374.899 265.4C374.799 265.5 374.799 265.7 374.899 265.8C378.899 268.9 381.799 273.3 383.099 278.2C385.699 286.6 379.899 296.1 379.799 296.1C379.837 296.176 379.861 296.238 379.881 296.291C379.914 296.376 379.937 296.438 379.999 296.5Z" fill="url(#paint1_linear_2677_292814)" style="mix-blend-mode:overlay"/>
<path fill-rule="evenodd" clip-rule="evenodd" d="M208.901 242.1V228.2H68.4008V241.8H60.4008V228.2H51.3008C50.7008 228.2 50.3008 227.8 50.3008 227.2V220.2C50.3008 219.6 50.7008 219.2 51.3008 219.2H74.0008C71.4008 218.6 68.9008 217.3 67.0008 215.4C63.1008 211.6 60.1008 207.1 58.0008 202.1C56.0008 197.2 54.9008 191.8 54.9008 186.4V185.9H73.0008C72.5236 184.707 72.0463 183.446 71.5474 182.127C71.0008 180.682 70.4281 179.168 69.8008 177.6C69.7008 177.6 69.6008 177.6 69.5008 177.5C69.4626 177.538 69.439 177.576 69.4188 177.609C69.3862 177.662 69.3626 177.7 69.3008 177.7C65.8008 179 62.1008 179.6 58.4008 179.3C53.2008 178.9 46.9008 176.6 44.0008 175.4C43.9008 175.4 43.8008 175.3 43.7008 175.2C43.6008 175 43.6008 174.9 43.6008 174.8C43.6008 174.7 43.6008 174.6 43.7008 174.5C43.8008 174.4 43.9008 174.3 44.0008 174.3C46.6008 173.7 51.8008 172.9 57.2008 173.5C61.4008 174 65.4008 175 69.2008 176.6V176.5C68.8008 175.6 68.4008 174.6 68.0008 173.6L66.2008 169.4C66.1008 169.4 66.1008 169.5 66.1008 169.5C66.0008 169.6 65.9008 169.7 65.8008 169.7C62.2008 170.6 58.5008 170.7 54.8008 170C49.8008 169.1 43.8008 166 41.0008 164.5C40.9508 164.45 40.9258 164.4 40.9008 164.35C40.8758 164.3 40.8508 164.25 40.8008 164.2V163.8C40.8008 163.7 40.9008 163.6 41.0008 163.5C41.0508 163.5 41.1008 163.475 41.1508 163.45C41.2008 163.425 41.2508 163.4 41.3008 163.4C43.9008 163.2 49.2008 163 54.5008 164.2C58.5008 165.2 62.3008 166.6 65.9008 168.6C64.6008 165.6 63.3008 162.9 62.0008 160.4H61.9008C58.4008 161.8 54.7008 162.4 51.0008 162.2C45.8008 161.9 39.5008 159.7 36.5008 158.6C36.4008 158.6 36.3008 158.5 36.2009 158.4C36.1009 158.2 36.1008 158.1 36.1008 158C36.1008 157.9 36.1008 157.8 36.2008 157.7C36.3008 157.6 36.4008 157.5 36.5008 157.5C39.1008 156.9 44.3008 156 49.7008 156.5C53.7008 156.8 57.5008 157.7 61.2008 159.1C59.5008 155.9 57.9008 153.1 56.4008 150.8C56.3508 150.8 56.3258 150.825 56.3008 150.85C56.2758 150.875 56.2508 150.9 56.2008 150.9C52.7008 151.9 48.9008 152.2 45.2008 151.6C40.1008 150.8 34.0008 147.9 31.2008 146.5C31.0674 146.433 31.023 146.367 30.9786 146.3C30.9563 146.267 30.9341 146.233 30.9008 146.2C30.8008 146 30.8008 145.9 30.8008 145.8C30.8008 145.7 30.9008 145.6 31.0008 145.5C31.1008 145.4 31.2008 145.3 31.3008 145.3C34.0008 145 39.3008 144.7 44.6008 145.7C48.4008 146.4 52.0008 147.7 55.5008 149.4C54.3008 147.5 53.1008 145.9 52.1008 144.6C51.9613 144.67 51.8705 144.642 51.7944 144.619C51.7613 144.609 51.7311 144.6 51.7008 144.6C47.9008 143.2 44.4008 140.9 41.6008 138C37.7008 134 34.2008 127.5 32.7008 124.4C32.6008 124.3 32.6008 124.1 32.6008 124C32.6008 123.9 32.7008 123.8 32.8008 123.7C32.9008 123.6 33.1008 123.5 33.2008 123.5C33.3008 123.5 33.5008 123.5 33.6008 123.6C36.1008 125.1 40.9008 128.2 44.9008 132.6C47.9008 136 50.4008 139.7 52.4008 143.8C52.5008 143.9 52.5008 144.1 52.5008 144.2C52.5008 144.25 52.4758 144.275 52.4508 144.3C52.4258 144.325 52.4008 144.35 52.4008 144.4C53.5008 145.8 54.8008 147.6 56.1008 149.6C56.0008 145.6 56.4008 141.7 57.4008 137.9C58.8008 132.7 61.4008 128.1 62.8008 125.8C62.9008 125.7 63.0008 125.6 63.1008 125.6H63.5008C63.6008 125.6 63.7008 125.7 63.8008 125.8C63.9008 125.9 63.9008 126 63.9008 126.1C64.0008 129.2 63.9008 136 62.5008 140.9C61.5008 144.5 59.7008 147.8 57.2008 150.6C57.1008 150.7 57.0008 150.8 56.9008 150.8C56.9759 150.923 57.0516 151.048 57.1278 151.173C58.4725 153.38 59.9866 155.866 61.5008 158.8C61.4008 155 61.9008 151.2 62.8008 147.5C64.2008 142.3 66.8008 137.7 68.2008 135.4C68.2276 135.373 68.2472 135.346 68.2654 135.321C68.3151 135.253 68.3544 135.2 68.5008 135.2H68.9008C69.0008 135.2 69.1008 135.3 69.2008 135.4C69.3008 135.5 69.3008 135.6 69.3008 135.7C69.4008 138.8 69.3008 145.6 67.9008 150.5C66.9008 154.1 65.1008 157.4 62.6008 160.2C62.6008 160.2 62.5008 160.3 62.4008 160.3C63.6008 162.6 64.9008 165.1 66.1008 167.9C66.4008 164 67.3008 160.1 68.7008 156.4C70.6008 151.3 73.7008 147 75.4008 144.9C75.5008 144.8 75.6008 144.7 75.7008 144.7C75.8402 144.63 75.9311 144.658 76.0072 144.681C76.0402 144.691 76.0705 144.7 76.1008 144.7C76.2008 144.7 76.3008 144.8 76.4008 144.9C76.5008 145 76.5008 145.2 76.5008 145.3C76.3008 148.5 75.5008 155.2 73.5008 159.9C72.0008 163.3 69.9008 166.4 67.1008 168.9C67.0508 168.9 67.0008 168.925 66.9508 168.95C66.9008 168.975 66.8508 169 66.8008 169H66.7008C66.9609 169.65 67.2399 170.282 67.5213 170.919C67.889 171.752 68.2609 172.594 68.6008 173.5C68.7508 173.85 68.9008 174.225 69.0508 174.6C69.2008 174.975 69.3508 175.35 69.5008 175.7C70.4008 172.1 71.6008 168.6 73.3008 165.3C74.5008 162.8 76.0008 160.6 77.5008 158.8C77.9008 149 78.4008 139 79.3008 129.9C79.3008 130 79.2008 130 79.2008 130C79.1008 130.1 78.9008 130.1 78.8008 130C74.1008 128.1 69.9008 125.2 66.5008 121.5C61.8008 116.4 57.7008 108.3 55.9008 104.4C55.8008 104.2 55.8008 104.1 55.8008 103.9C55.8008 103.8 55.9008 103.6 56.0008 103.5C56.0544 103.473 56.1008 103.446 56.1439 103.421C56.2616 103.353 56.3544 103.3 56.5008 103.3C56.7008 103.3 56.9008 103.3 57.0008 103.4C60.0008 105.3 65.9008 109.3 70.7008 114.9C74.2008 119 77.1008 123.6 79.4008 128.5C79.8008 124.7 80.3008 121 80.8008 117.6C80.7008 117.7 80.6008 117.8 80.4008 117.8C80.3008 117.8 80.1008 117.8 80.0008 117.7C75.6008 115.2 71.8008 111.9 68.8008 107.8C64.7008 102.2 61.6008 93.6999 60.3008 89.5999C60.2008 89.3999 60.2008 89.2999 60.3008 89.0999C60.4008 88.8999 60.5008 88.7999 60.6008 88.6999C60.8008 88.5999 60.9008 88.5999 61.1008 88.5999C61.3008 88.5999 61.5008 88.6999 61.6008 88.7999C64.4008 90.9999 69.8008 95.6999 73.9008 101.8C77.0008 106.4 79.4008 111.3 81.1008 116.6C81.5008 113.9 82.0008 111.3 82.6008 109C82.7782 108.379 82.936 107.758 83.0916 107.145C83.2866 106.377 83.4782 105.623 83.7008 104.9C83.6008 105 83.5008 105 83.4008 105C83.3008 105 83.1008 105 83.0008 104.9C78.9008 101.9 75.5008 98.1999 73.0008 93.7999C69.6008 87.6999 67.5008 78.8999 66.6008 74.6999C66.6008 74.4999 66.6008 74.3999 66.7008 74.1999C66.7008 74.0471 66.8175 73.9527 66.9172 73.872C66.948 73.8471 66.9772 73.8235 67.0008 73.7999C67.2008 73.6999 67.3008 73.6999 67.5008 73.6999C67.6008 73.6999 67.8008 73.7999 67.9008 73.8999C70.5008 76.3999 75.3008 81.6999 78.7008 88.1999C81.2008 92.9999 83.0008 98.0999 84.0008 103.3C85.4008 98.5999 86.8008 94.3999 88.2008 90.7999C88.1508 90.7999 88.1258 90.7749 88.1008 90.7499C88.0758 90.7249 88.0508 90.6999 88.0008 90.6999C87.9008 90.6999 87.9008 90.5999 87.9008 90.5999C87.8008 90.6999 87.7008 90.6999 87.5008 90.6999C87.4008 90.6999 87.2008 90.6999 87.1008 90.5999C83.0008 87.5999 79.6008 83.8999 77.1008 79.4999C73.7008 73.3999 71.6008 64.5999 70.7008 60.3999C70.7008 60.1999 70.7008 60.0999 70.8008 59.8999C70.8008 59.7471 70.9175 59.6527 71.0172 59.572C71.048 59.5471 71.0772 59.5235 71.1008 59.4999C71.3008 59.3999 71.4008 59.3999 71.6008 59.3999C71.7008 59.3999 71.9008 59.4999 72.0008 59.5999C74.6008 62.0999 79.4008 67.3999 82.8008 73.8999C85.3008 78.7999 87.1008 83.8999 88.2008 89.1999C88.3508 89.0499 88.5258 88.9249 88.7008 88.7999C88.8758 88.6749 89.0508 88.5499 89.2008 88.3999C91.0008 83.8999 92.8008 80.3999 94.3008 77.7999C94.2008 77.6999 94.1008 77.5999 94.0008 77.3999V76.8999C95.3008 70.9999 97.5008 65.1999 100.401 59.8999C104.201 52.8999 109.601 47.2999 112.501 44.5999C112.601 44.4999 112.801 44.3999 113.001 44.3999C113.201 44.3999 113.301 44.3999 113.501 44.4999C113.701 44.5999 113.801 44.6999 113.901 44.8999V45.3999C112.801 49.8999 110.301 59.4999 106.401 65.9999C103.601 70.6999 99.7008 74.6999 95.2008 77.7999C95.1594 77.7999 95.1179 77.8171 95.0694 77.8372C95.0008 77.8656 94.9179 77.8999 94.8008 77.8999C93.4008 80.2999 91.7008 83.5999 90.0008 87.6999C93.7008 84.7999 97.8008 82.3999 102.101 80.3999C108.701 77.3999 115.801 76.1999 119.401 75.7999C119.601 75.7999 119.801 75.7999 119.901 75.8999C120.001 75.9999 120.101 76.0999 120.201 76.2999V76.7999C120.151 76.8499 120.101 76.9249 120.051 76.9999C120.001 77.0749 119.951 77.1499 119.901 77.1999C116.701 79.8999 109.501 85.5999 103.101 88.1999C98.5008 89.9999 93.6008 90.8999 88.7008 90.6999C87.3008 94.1999 85.9008 98.1999 84.6008 102.8C89.0008 99.8999 93.7008 97.5999 98.6008 95.9999C105.501 93.7999 112.701 93.2999 116.301 93.2999C116.501 93.1999 116.701 93.2999 116.801 93.3999C116.901 93.4999 117.001 93.5999 117.101 93.7999C117.201 93.9999 117.201 94.0999 117.101 94.2999C117.001 94.4999 116.901 94.5999 116.801 94.6999C113.201 97.0999 105.601 101.9 98.9008 103.9C94.1008 105.3 89.1008 105.7 84.1008 104.9C83.8782 105.623 83.6867 106.377 83.4916 107.145C83.336 107.758 83.1782 108.379 83.0008 109C82.4008 111.3 81.9008 113.9 81.4008 116.7C85.5008 113.1 90.0008 110 94.9008 107.6C101.501 104.4 108.501 103 112.101 102.5C112.301 102.5 112.501 102.5 112.601 102.6C112.701 102.7 112.801 102.8 112.901 103C113.001 103.2 113.001 103.3 113.001 103.5C113.001 103.6 112.901 103.8 112.801 103.9C110.801 105.7 107.201 108.7 103.301 111.4C103.339 111.438 103.377 111.462 103.41 111.482C103.463 111.514 103.501 111.538 103.501 111.6C104.201 113 105.201 115.4 106.101 118.2C106.532 118.164 106.95 118.128 107.354 118.093C109.203 117.935 110.77 117.8 112.001 117.8C112.201 117.8 112.401 117.8 112.501 117.9C112.601 118 112.701 118.1 112.801 118.3C112.901 118.5 112.901 118.6 112.801 118.8C112.701 119 112.601 119.1 112.501 119.2C111.201 120.1 109.401 121.3 107.301 122.6C107.351 122.85 107.401 123.125 107.451 123.4C107.501 123.675 107.551 123.95 107.601 124.2C108.201 128.1 108.201 132 107.701 135.9C108.114 135.435 108.514 134.984 108.9 134.547C110.011 133.293 111.011 132.164 111.901 131.2V131C111.901 130.8 111.901 130.7 112.001 130.6C114.401 126.8 117.301 123.3 120.701 120.3C125.101 116.4 130.201 113.8 132.901 112.6H133.301C133.401 112.6 133.501 112.7 133.601 112.8C133.701 112.9 133.801 113.1 133.801 113.2C133.801 113.4 133.801 113.5 133.701 113.6C131.801 116.5 127.701 122.6 123.401 126.2C120.301 128.8 116.601 130.7 112.701 131.7H112.301C111.101 132.9 109.801 134.4 108.401 136.1C112.001 134.8 115.801 133.9 119.601 133.6C125.001 133.1 130.201 134 132.801 134.6C132.901 134.6 133.101 134.7 133.101 134.8C133.101 134.85 133.126 134.9 133.151 134.95C133.176 135 133.201 135.05 133.201 135.1C133.201 135.3 133.201 135.4 133.101 135.5C133.001 135.6 132.901 135.7 132.801 135.7C129.901 136.8 123.501 139 118.401 139.3C114.701 139.5 111.001 138.9 107.501 137.5C107.451 137.5 107.426 137.475 107.401 137.45C107.376 137.425 107.351 137.4 107.301 137.4C105.601 139.6 103.701 142.1 101.701 145.1C105.501 144.1 109.501 143.6 113.401 143.7C118.901 143.8 124.001 145.2 126.501 146.1C126.601 146.1 126.701 146.2 126.801 146.3C126.901 146.4 126.901 146.5 126.901 146.6C126.901 146.7 126.901 146.8 126.801 146.9C126.701 147 126.601 147.1 126.501 147.1C123.401 147.9 116.801 149.5 111.701 149.2C108.001 149 104.401 148 101.101 146.2L101.001 146.1C99.4008 148.5 97.8008 151.1 96.2008 153.9C100.001 152.4 104.001 151.3 108.001 150.8C113.401 150.1 118.701 150.9 121.301 151.4C121.401 151.4 121.501 151.5 121.601 151.6C121.601 151.65 121.626 151.7 121.651 151.75C121.676 151.8 121.701 151.85 121.701 151.9C121.701 152.1 121.701 152.2 121.601 152.3C121.501 152.4 121.401 152.5 121.301 152.5C118.401 153.8 112.101 156.2 107.001 156.6C103.301 156.9 99.6008 156.4 96.1008 155.1C96.0008 155.1 95.9008 155 95.8008 154.9V154.8C95.5282 155.306 95.2405 155.812 94.9494 156.324C94.493 157.127 94.0282 157.945 93.6008 158.8C93.1008 159.8 92.6008 160.7 92.1008 161.6V161.7C96.1008 160.5 100.201 159.9 104.301 159.9C109.701 159.8 114.801 161.2 117.401 162C117.501 162 117.601 162.1 117.701 162.2C117.801 162.3 117.801 162.4 117.801 162.5C117.801 162.6 117.801 162.7 117.701 162.8C117.601 162.9 117.501 163 117.401 163C114.401 163.9 107.801 165.6 102.701 165.4C99.0008 165.3 95.3008 164.4 92.0008 162.7L91.8008 162.5C91.7008 162.6 91.6008 162.6 91.5008 162.6C86.2008 172.6 82.9008 179.7 80.6008 186.1H99.8008C99.8008 191.6 98.7008 197.1 96.5008 202.2C94.3008 207.3 91.1008 211.9 87.1008 215.7L87.0008 215.8C85.1008 217.6 82.7008 218.8 80.1008 219.4H125.001C124.951 219.4 124.901 219.375 124.851 219.35C124.801 219.325 124.751 219.3 124.701 219.3C122.501 218.4 120.801 216.7 119.801 214.5C119.301 213.4 119.101 212.3 119.101 211.1C119.101 210 119.301 208.8 119.801 207.7C120.301 206.6 120.901 205.6 121.801 204.8C122.801 203.8 124.101 203 125.401 202.6C125.201 202.6 124.901 202.5 124.701 202.4C124.301 202.2 123.901 201.9 123.601 201.6C123.001 200.9 122.601 200 122.601 199V198C122.601 197 122.901 196.1 123.601 195.4C123.901 195.1 124.301 194.8 124.701 194.6C125.101 194.4 125.501 194.3 126.001 194.3H130.201C130.001 194.1 129.901 193.9 129.801 193.7C129.801 193.6 129.776 193.475 129.751 193.35C129.726 193.225 129.701 193.1 129.701 193V179.7C129.701 179.5 129.701 179.2 129.801 179C129.901 178.8 130.001 178.6 130.201 178.4C130.401 178.2 130.601 178.1 130.801 178C131.001 177.9 131.301 177.9 131.501 177.9H222.201C222.401 177.9 222.701 177.9 222.901 178C223.101 178.1 223.301 178.2 223.501 178.4C223.701 178.6 223.801 178.8 223.901 179C223.901 179.1 223.926 179.225 223.951 179.35C223.976 179.475 224.001 179.6 224.001 179.7V193.1C224.001 193.3 224.001 193.6 223.901 193.8C223.801 194 223.701 194.2 223.501 194.4C223.301 194.6 223.101 194.7 222.901 194.8C222.701 194.9 222.401 194.9 222.201 194.9H219.701V202.5C219.701 202.6 219.601 202.7 219.501 202.7H217.801C217.901 202.7 218.001 202.8 218.001 202.9C219.201 205.4 219.801 208.3 219.701 211.1C219.701 213.9 219.101 216.7 217.901 219.2C217.851 219.25 217.826 219.3 217.801 219.35C217.776 219.4 217.751 219.45 217.701 219.5H225.401C226.001 219.5 226.401 219.9 226.401 220.5V227.5C226.401 228.1 226.001 228.5 225.401 228.5H216.901V242.1H208.901ZM100.301 145.8C98.2008 142.7 96.7008 139.3 96.0008 135.6C95.6008 133.4 95.5008 131 95.6008 128.7C95.4008 128.7 95.1008 128.8 94.9008 128.9C93.2008 129.5 91.5008 129.8 89.7008 130.1C91.2008 132.5 93.4008 136.7 94.7008 141.5C95.7008 145.3 96.2008 149.2 96.1008 153.2C97.6008 150.6 99.1008 148.2 100.501 146L100.301 145.8ZM106.601 137C104.401 133.9 103.001 130.5 102.301 126.8C102.201 126.4 102.201 126 102.201 125.8L99.8008 127C100.401 128.9 101.001 131.1 101.301 133.3C101.801 137.1 101.801 140.9 101.401 144.7C103.301 141.8 105.101 139.3 106.801 137.2L106.601 137ZM81.7008 118.4C81.6008 118.4 81.4008 118.4 81.3008 118.3C80.8835 120.97 80.5359 123.78 80.1999 126.496C80.1332 127.035 80.067 127.57 80.0008 128.1C84.4008 125 89.2008 122.5 94.3008 120.7C94.6508 120.6 94.9758 120.5 95.3008 120.4C95.6258 120.3 95.9508 120.2 96.3008 120.1C96.3008 120.1 96.4008 120 96.5008 120H96.6008C98.4008 119.5 100.101 119.1 101.801 118.8C101.894 116.283 102.161 114.028 102.359 112.356C102.373 112.234 102.387 112.115 102.401 112C100.401 113.3 98.3008 114.5 96.3008 115.4C91.7008 117.5 86.7008 118.5 81.7008 118.4ZM88.1008 130.2C85.4008 130.5 82.7008 130.5 79.9008 130.1C79.1008 139 78.6008 148.8 78.2008 158.3C79.4008 156.8 80.6008 155.6 81.4008 154.8C81.5008 154.7 81.6008 154.6 81.7008 154.6C81.9008 154.6 82.0008 154.6 82.1008 154.7C82.1508 154.75 82.1758 154.8 82.2008 154.85C82.2258 154.9 82.2508 154.95 82.3008 155V155.4C81.7008 158.5 80.1008 164.8 77.7008 169.3C77.5008 175.2 77.3008 180.9 77.0008 186.2H80.0008C82.3008 179.7 85.7008 172.6 91.0008 162.4C88.2008 160 86.1008 157 84.6008 153.6C82.6008 148.8 81.7008 142.2 81.4008 139C81.4008 138.8 81.4008 138.7 81.5008 138.6C81.6008 138.5 81.7008 138.4 81.8008 138.4H82.2008C82.3008 138.4 82.4008 138.5 82.5008 138.6C84.2008 140.7 87.3008 145 89.3008 150C90.6008 153.4 91.5008 157 91.9008 160.7C92.2007 160 92.6006 159.3 93.0006 158.6C93.8006 157.1 94.6008 155.7 95.4008 154.3H95.3008C95.2508 154.25 95.2008 154.225 95.1508 154.2C95.1008 154.175 95.0508 154.15 95.0008 154.1C92.5008 151.4 90.7008 148.1 89.6008 144.5C88.2008 139.8 88.1008 133.6 88.1008 130.2ZM77.2008 170.2C75.4008 173.1 73.1008 175.6 70.3008 177.6C71.1721 179.678 71.9086 181.665 72.6007 183.533C72.9413 184.452 73.271 185.342 73.6008 186.2H76.5008C76.8008 181.1 77.0008 175.7 77.2008 170.2Z" fill="url(#paint2_linear_2677_292814)" style="mix-blend-mode:overlay"/>
<defs>
<linearGradient id="paint0_linear_2677_292814" x1="30.8008" y1="289.35" x2="542.399" y2="289.35" gradientUnits="userSpaceOnUse">
<stop stop-color="#5D6AE8"/>
<stop offset="1" stop-color="#00D2FE"/>
</linearGradient>
<linearGradient id="paint1_linear_2677_292814" x1="30.8008" y1="289.35" x2="542.399" y2="289.35" gradientUnits="userSpaceOnUse">
<stop stop-color="#5D6AE8"/>
<stop offset="1" stop-color="#00D2FE"/>
</linearGradient>
<linearGradient id="paint2_linear_2677_292814" x1="30.8008" y1="289.35" x2="542.399" y2="289.35" gradientUnits="userSpaceOnUse">
<stop stop-color="#5D6AE8"/>
<stop offset="1" stop-color="#00D2FE"/>
</linearGradient>
</defs>
</svg>
