<svg width="478" height="161" viewBox="0 0 478 161" fill="none" xmlns="http://www.w3.org/2000/svg">
<rect x="0.61377" y="0.975586" width="477.108" height="159.036" rx="12.7229" fill="white"/>
<g opacity="0.2">
<path d="M46.7339 58.2286H352.083" stroke="black" stroke-width="0.795181" stroke-linecap="round" stroke-linejoin="round"/>
<path d="M46.7336 90.4347H352.083" stroke="black" stroke-width="0.795181" stroke-linecap="round" stroke-linejoin="round"/>
<path d="M46.7336 121.843H352.083" stroke="black" stroke-width="0.795181" stroke-linecap="round" stroke-linejoin="round"/>
</g>
<path d="M17.21 60.8672V60.3742L19.198 58.2988C19.4577 58.0284 19.6512 57.7713 19.7785 57.5274C19.911 57.2783 19.9772 57.0212 19.9772 56.7561C19.9772 56.4327 19.8765 56.1889 19.6751 56.0245C19.4736 55.8549 19.1821 55.7701 18.8004 55.7701C18.5035 55.7701 18.2279 55.8231 17.9734 55.9291C17.7242 56.0298 17.483 56.1915 17.2498 56.4142L17.0112 55.8973C17.2233 55.6853 17.4936 55.5156 17.8223 55.3884C18.151 55.2559 18.4982 55.1896 18.864 55.1896C19.2457 55.1896 19.5664 55.2479 19.8262 55.3645C20.0912 55.4812 20.2927 55.6535 20.4305 55.8814C20.5683 56.1041 20.6372 56.3771 20.6372 56.7004C20.6372 57.0556 20.5498 57.3949 20.3748 57.7183C20.2052 58.0363 19.956 58.365 19.6274 58.7043L17.87 60.4855V60.3026H20.8758V60.8672H17.21ZM24.3635 60.8672V59.6506H21.6917V59.1735L24.4669 55.2612H25.0076V59.1178H25.8664V59.6506H25.0076V60.8672H24.3635ZM24.3635 59.1178V56.0404H24.5385L22.2325 59.2848V59.1178H24.3635ZM28.4477 60.9388C27.8115 60.9388 27.3238 60.6922 26.9845 60.1992C26.6453 59.7062 26.4756 58.9932 26.4756 58.0602C26.4756 57.1219 26.6453 56.4089 26.9845 55.9212C27.3238 55.4335 27.8115 55.1896 28.4477 55.1896C29.0891 55.1896 29.5768 55.4335 29.9108 55.9212C30.2501 56.4089 30.4197 57.1192 30.4197 58.0522C30.4197 58.9906 30.2501 59.7062 29.9108 60.1992C29.5715 60.6922 29.0838 60.9388 28.4477 60.9388ZM28.4477 60.3662C28.893 60.3662 29.2243 60.178 29.4416 59.8016C29.659 59.4253 29.7677 58.8421 29.7677 58.0522C29.7677 57.5221 29.72 57.0901 29.6245 56.7561C29.5291 56.4168 29.3833 56.165 29.1872 56.0007C28.991 55.8363 28.7445 55.7542 28.4477 55.7542C28.0077 55.7542 27.6763 55.9397 27.4537 56.3108C27.2363 56.6819 27.1277 57.2624 27.1277 58.0522C27.1277 58.5771 27.1754 59.0118 27.2708 59.3563C27.3715 59.6956 27.5173 59.9501 27.7081 60.1197C27.9043 60.2841 28.1508 60.3662 28.4477 60.3662Z" fill="black"/>
<path d="M28.4477 124.553C27.8115 124.553 27.3238 124.307 26.9845 123.813C26.6453 123.32 26.4756 122.607 26.4756 121.674C26.4756 120.736 26.6453 120.023 26.9845 119.535C27.3238 119.048 27.8115 118.804 28.4477 118.804C29.0891 118.804 29.5768 119.048 29.9108 119.535C30.2501 120.023 30.4197 120.733 30.4197 121.667C30.4197 122.605 30.2501 123.32 29.9108 123.813C29.5715 124.307 29.0838 124.553 28.4477 124.553ZM28.4477 123.98C28.893 123.98 29.2243 123.792 29.4416 123.416C29.659 123.04 29.7677 122.456 29.7677 121.667C29.7677 121.136 29.72 120.704 29.6245 120.37C29.5291 120.031 29.3833 119.779 29.1872 119.615C28.991 119.451 28.7445 119.368 28.4477 119.368C28.0077 119.368 27.6763 119.554 27.4537 119.925C27.2363 120.296 27.1277 120.877 27.1277 121.667C27.1277 122.191 27.1754 122.626 27.2708 122.971C27.3715 123.31 27.5173 123.564 27.7081 123.734C27.9043 123.898 28.1508 123.98 28.4477 123.98Z" fill="black"/>
<path d="M17.536 92.6748V92.1102H18.856V87.6334H19.2059L17.6633 88.5955V87.9355L19.0389 87.0688H19.516V92.1102H20.7565V92.6748H17.536ZM21.978 92.6748V92.1818L23.9659 90.1064C24.2257 89.836 24.4192 89.5789 24.5464 89.335C24.679 89.0859 24.7452 88.8288 24.7452 88.5637C24.7452 88.2403 24.6445 87.9965 24.4431 87.8322C24.2416 87.6625 23.95 87.5777 23.5684 87.5777C23.2715 87.5777 22.9958 87.6307 22.7414 87.7367C22.4922 87.8375 22.251 87.9991 22.0178 88.2218L21.7792 87.7049C21.9913 87.4929 22.2616 87.3232 22.5903 87.196C22.919 87.0635 23.2662 86.9972 23.632 86.9972C24.0137 86.9972 24.3344 87.0555 24.5941 87.1722C24.8592 87.2888 25.0606 87.4611 25.1985 87.689C25.3363 87.9117 25.4052 88.1847 25.4052 88.5081C25.4052 88.8632 25.3178 89.2025 25.1428 89.5259C24.9732 89.844 24.724 90.1726 24.3953 90.5119L22.638 92.2931V92.1102H25.6438V92.6748H21.978ZM28.4477 92.7464C27.8115 92.7464 27.3238 92.4999 26.9845 92.0069C26.6453 91.5138 26.4756 90.8008 26.4756 89.8678C26.4756 88.9295 26.6453 88.2165 26.9845 87.7288C27.3238 87.2411 27.8115 86.9972 28.4477 86.9972C29.0891 86.9972 29.5768 87.2411 29.9108 87.7288C30.2501 88.2165 30.4197 88.9269 30.4197 89.8599C30.4197 90.7982 30.2501 91.5138 29.9108 92.0069C29.5715 92.4999 29.0838 92.7464 28.4477 92.7464ZM28.4477 92.1738C28.893 92.1738 29.2243 91.9856 29.4416 91.6093C29.659 91.2329 29.7677 90.6497 29.7677 89.8599C29.7677 89.3297 29.72 88.8977 29.6245 88.5637C29.5291 88.2244 29.3833 87.9726 29.1872 87.8083C28.991 87.644 28.7445 87.5618 28.4477 87.5618C28.0077 87.5618 27.6763 87.7473 27.4537 88.1184C27.2363 88.4895 27.1277 89.07 27.1277 89.8599C27.1277 90.3847 27.1754 90.8194 27.2708 91.164C27.3715 91.5032 27.5173 91.7577 27.7081 91.9273C27.9043 92.0917 28.1508 92.1738 28.4477 92.1738Z" fill="black"/>
<path d="M63.228 140.387V134.781H66.7268V135.321H63.888V137.286H66.5519V137.826H63.888V140.387H63.228ZM68.9851 140.458C68.6299 140.458 68.3198 140.376 68.0547 140.212C67.7896 140.042 67.5829 139.804 67.4345 139.496C67.2913 139.189 67.2198 138.82 67.2198 138.391C67.2198 137.956 67.2913 137.585 67.4345 137.278C67.5829 136.97 67.7896 136.734 68.0547 136.57C68.3198 136.406 68.6299 136.323 68.9851 136.323C69.3455 136.323 69.6557 136.416 69.9154 136.602C70.1805 136.782 70.3554 137.028 70.4402 137.341H70.3448L70.4323 136.395H71.0525C71.0366 136.549 71.0207 136.705 71.0048 136.864C70.9942 137.018 70.9889 137.169 70.9889 137.317V140.387H70.3448V139.448H70.4323C70.3475 139.761 70.1725 140.008 69.9075 140.188C69.6424 140.368 69.3349 140.458 68.9851 140.458ZM69.1123 139.933C69.494 139.933 69.7961 139.804 70.0188 139.544C70.2414 139.279 70.3528 138.894 70.3528 138.391C70.3528 137.882 70.2414 137.498 70.0188 137.238C69.7961 136.973 69.494 136.84 69.1123 136.84C68.7359 136.84 68.4337 136.973 68.2058 137.238C67.9831 137.498 67.8718 137.882 67.8718 138.391C67.8718 138.894 67.9831 139.279 68.2058 139.544C68.4337 139.804 68.7359 139.933 69.1123 139.933ZM73.9121 140.458C73.5198 140.458 73.1779 140.373 72.8863 140.204C72.6 140.034 72.3774 139.793 72.2183 139.48C72.0646 139.167 71.9877 138.796 71.9877 138.367C71.9877 137.932 72.0672 137.564 72.2263 137.262C72.3853 136.954 72.608 136.721 72.8942 136.562C73.1858 136.403 73.5251 136.323 73.9121 136.323C74.1665 136.323 74.413 136.368 74.6516 136.459C74.8954 136.549 75.0969 136.676 75.2559 136.84L75.0253 137.301C74.8663 137.148 74.6913 137.034 74.5005 136.959C74.315 136.885 74.1321 136.848 73.9518 136.848C73.5383 136.848 73.2176 136.978 72.9897 137.238C72.7617 137.498 72.6477 137.877 72.6477 138.375C72.6477 138.868 72.7617 139.25 72.9897 139.52C73.2176 139.79 73.5383 139.926 73.9518 139.926C74.1268 139.926 74.307 139.891 74.4926 139.822C74.6834 139.753 74.861 139.639 75.0253 139.48L75.2559 139.933C75.0916 140.103 74.8875 140.233 74.6436 140.323C74.3998 140.413 74.1559 140.458 73.9121 140.458ZM77.8669 140.458C77.4534 140.458 77.0956 140.379 76.7934 140.22C76.4912 140.055 76.258 139.819 76.0937 139.512C75.9293 139.199 75.8472 138.828 75.8472 138.399C75.8472 137.98 75.9267 137.617 76.0857 137.309C76.2447 136.997 76.4674 136.755 76.7537 136.586C77.0399 136.411 77.3686 136.323 77.7397 136.323C78.1055 136.323 78.4129 136.4 78.6621 136.554C78.9112 136.708 79.1021 136.928 79.2346 137.214C79.3672 137.495 79.4334 137.829 79.4334 138.216V138.454H76.3402V138.049H79.012L78.8768 138.152C78.8768 137.728 78.7814 137.397 78.5905 137.158C78.3997 136.92 78.1161 136.8 77.7397 136.8C77.4693 136.8 77.2387 136.864 77.0479 136.991C76.8623 137.119 76.7192 137.296 76.6185 137.524C76.5231 137.752 76.4753 138.025 76.4753 138.343V138.415C76.4753 138.913 76.5973 139.292 76.8411 139.552C77.0903 139.806 77.4375 139.933 77.8828 139.933C78.1214 139.933 78.344 139.899 78.5508 139.83C78.7628 139.756 78.9643 139.637 79.1551 139.472L79.3778 139.926C79.2028 140.095 78.9802 140.228 78.7098 140.323C78.4447 140.413 78.1638 140.458 77.8669 140.458ZM82.4229 140.458C82.0624 140.458 81.7523 140.368 81.4925 140.188C81.2327 140.002 81.0578 139.751 80.9677 139.433H81.0552V140.387H80.419V134.534H81.0631V137.325H80.9677C81.0578 137.018 81.2327 136.774 81.4925 136.594C81.7523 136.413 82.0624 136.323 82.4229 136.323C82.7833 136.323 83.0935 136.408 83.3532 136.578C83.6183 136.742 83.8224 136.978 83.9655 137.286C84.1139 137.593 84.1882 137.961 84.1882 138.391C84.1882 138.82 84.1139 139.189 83.9655 139.496C83.8171 139.804 83.6103 140.042 83.3453 140.212C83.0855 140.376 82.778 140.458 82.4229 140.458ZM82.2877 139.933C82.6641 139.933 82.9662 139.804 83.1942 139.544C83.4221 139.284 83.5361 138.9 83.5361 138.391C83.5361 137.882 83.4221 137.498 83.1942 137.238C82.9662 136.973 82.6641 136.84 82.2877 136.84C81.9113 136.84 81.6091 136.973 81.3812 137.238C81.1585 137.498 81.0472 137.882 81.0472 138.391C81.0472 138.894 81.1585 139.279 81.3812 139.544C81.6091 139.804 81.9113 139.933 82.2877 139.933ZM86.8251 140.458C86.4434 140.458 86.1094 140.376 85.8231 140.212C85.5422 140.042 85.3248 139.804 85.1711 139.496C85.0173 139.183 84.9405 138.815 84.9405 138.391C84.9405 137.961 85.0173 137.593 85.1711 137.286C85.3248 136.978 85.5422 136.742 85.8231 136.578C86.1094 136.408 86.4434 136.323 86.8251 136.323C87.212 136.323 87.546 136.408 87.827 136.578C88.1132 136.742 88.3332 136.978 88.487 137.286C88.646 137.593 88.7255 137.961 88.7255 138.391C88.7255 138.815 88.646 139.183 88.487 139.496C88.3332 139.804 88.1132 140.042 87.827 140.212C87.546 140.376 87.212 140.458 86.8251 140.458ZM86.8251 139.933C87.2067 139.933 87.5089 139.804 87.7316 139.544C87.9542 139.279 88.0655 138.894 88.0655 138.391C88.0655 137.882 87.9542 137.498 87.7316 137.238C87.5089 136.973 87.2067 136.84 86.8251 136.84C86.4487 136.84 86.1492 136.973 85.9265 137.238C85.7039 137.498 85.5925 137.882 85.5925 138.391C85.5925 138.894 85.7039 139.279 85.9265 139.544C86.1492 139.804 86.4487 139.933 86.8251 139.933ZM91.3678 140.458C90.9862 140.458 90.6522 140.376 90.3659 140.212C90.0849 140.042 89.8676 139.804 89.7139 139.496C89.5601 139.183 89.4833 138.815 89.4833 138.391C89.4833 137.961 89.5601 137.593 89.7139 137.286C89.8676 136.978 90.0849 136.742 90.3659 136.578C90.6522 136.408 90.9862 136.323 91.3678 136.323C91.7548 136.323 92.0888 136.408 92.3698 136.578C92.656 136.742 92.876 136.978 93.0298 137.286C93.1888 137.593 93.2683 137.961 93.2683 138.391C93.2683 138.815 93.1888 139.183 93.0298 139.496C92.876 139.804 92.656 140.042 92.3698 140.212C92.0888 140.376 91.7548 140.458 91.3678 140.458ZM91.3678 139.933C91.7495 139.933 92.0517 139.804 92.2743 139.544C92.497 139.279 92.6083 138.894 92.6083 138.391C92.6083 137.882 92.497 137.498 92.2743 137.238C92.0517 136.973 91.7495 136.84 91.3678 136.84C90.9915 136.84 90.6919 136.973 90.4693 137.238C90.2466 137.498 90.1353 137.882 90.1353 138.391C90.1353 138.894 90.2466 139.279 90.4693 139.544C90.6919 139.804 90.9915 139.933 91.3678 139.933ZM94.2725 140.387V134.534H94.9166V138.168H94.9325L96.7853 136.395H97.5964L95.4097 138.478L95.4256 138.152L97.8031 140.387H96.9682L94.9325 138.51H94.9166V140.387H94.2725Z" fill="black"/>
<path d="M109.219 140.387L107.263 134.781H107.955L109.665 139.83H109.386L111.183 134.781H111.708L113.41 139.83H113.155L114.913 134.781H115.565L113.593 140.387H113.004L111.35 135.528H111.517L109.792 140.387H109.219ZM116.466 140.387V136.395H117.11V140.387H116.466ZM116.386 135.488V134.765H117.181V135.488H116.386ZM119.776 140.458C119.384 140.458 119.084 140.347 118.877 140.124C118.671 139.896 118.567 139.554 118.567 139.099V136.896H117.788V136.395H118.567V135.306L119.211 135.123V136.395H120.356V136.896H119.211V139.027C119.211 139.345 119.264 139.573 119.37 139.711C119.482 139.843 119.646 139.91 119.863 139.91C119.964 139.91 120.054 139.902 120.134 139.886C120.213 139.865 120.285 139.841 120.348 139.814V140.355C120.274 140.387 120.184 140.411 120.078 140.426C119.977 140.448 119.877 140.458 119.776 140.458ZM121.141 140.387V134.534H121.785V137.278H121.681C121.793 136.965 121.978 136.729 122.238 136.57C122.503 136.406 122.808 136.323 123.152 136.323C123.629 136.323 123.985 136.453 124.218 136.713C124.451 136.967 124.568 137.354 124.568 137.874V140.387H123.924V137.914C123.924 137.543 123.849 137.272 123.701 137.103C123.558 136.933 123.325 136.848 123.001 136.848C122.63 136.848 122.333 136.962 122.111 137.19C121.893 137.418 121.785 137.718 121.785 138.089V140.387H121.141ZM127.438 140.458C127.056 140.458 126.722 140.376 126.436 140.212C126.155 140.042 125.938 139.804 125.784 139.496C125.63 139.183 125.553 138.815 125.553 138.391C125.553 137.961 125.63 137.593 125.784 137.286C125.938 136.978 126.155 136.742 126.436 136.578C126.722 136.408 127.056 136.323 127.438 136.323C127.825 136.323 128.159 136.408 128.44 136.578C128.726 136.742 128.946 136.978 129.1 137.286C129.259 137.593 129.338 137.961 129.338 138.391C129.338 138.815 129.259 139.183 129.1 139.496C128.946 139.804 128.726 140.042 128.44 140.212C128.159 140.376 127.825 140.458 127.438 140.458ZM127.438 139.933C127.82 139.933 128.122 139.804 128.344 139.544C128.567 139.279 128.678 138.894 128.678 138.391C128.678 137.882 128.567 137.498 128.344 137.238C128.122 136.973 127.82 136.84 127.438 136.84C127.062 136.84 126.762 136.973 126.539 137.238C126.317 137.498 126.205 137.882 126.205 138.391C126.205 138.894 126.317 139.279 126.539 139.544C126.762 139.804 127.062 139.933 127.438 139.933ZM131.75 140.458C131.278 140.458 130.92 140.328 130.677 140.069C130.438 139.809 130.319 139.411 130.319 138.876V136.395H130.963V138.86C130.963 139.226 131.037 139.496 131.185 139.671C131.334 139.841 131.565 139.926 131.877 139.926C132.227 139.926 132.508 139.812 132.72 139.584C132.932 139.35 133.038 139.046 133.038 138.669V136.395H133.682V140.387H133.054V139.488H133.158C133.046 139.796 132.866 140.034 132.617 140.204C132.373 140.373 132.084 140.458 131.75 140.458ZM136.347 140.458C135.955 140.458 135.656 140.347 135.449 140.124C135.242 139.896 135.139 139.554 135.139 139.099V136.896H134.359V136.395H135.139V135.306L135.783 135.123V136.395H136.928V136.896H135.783V139.027C135.783 139.345 135.836 139.573 135.942 139.711C136.053 139.843 136.218 139.91 136.435 139.91C136.536 139.91 136.626 139.902 136.705 139.886C136.785 139.865 136.856 139.841 136.92 139.814V140.355C136.846 140.387 136.756 140.411 136.65 140.426C136.549 140.448 136.448 140.458 136.347 140.458ZM141.304 140.458C140.949 140.458 140.639 140.376 140.374 140.212C140.109 140.042 139.902 139.804 139.754 139.496C139.61 139.189 139.539 138.82 139.539 138.391C139.539 137.956 139.61 137.585 139.754 137.278C139.902 136.97 140.109 136.734 140.374 136.57C140.639 136.406 140.949 136.323 141.304 136.323C141.665 136.323 141.975 136.416 142.235 136.602C142.5 136.782 142.675 137.028 142.759 137.341H142.664L142.751 136.395H143.372C143.356 136.549 143.34 136.705 143.324 136.864C143.313 137.018 143.308 137.169 143.308 137.317V140.387H142.664V139.448H142.751C142.667 139.761 142.492 140.008 142.227 140.188C141.962 140.368 141.654 140.458 141.304 140.458ZM141.431 139.933C141.813 139.933 142.115 139.804 142.338 139.544C142.561 139.279 142.672 138.894 142.672 138.391C142.672 137.882 142.561 137.498 142.338 137.238C142.115 136.973 141.813 136.84 141.431 136.84C141.055 136.84 140.753 136.973 140.525 137.238C140.302 137.498 140.191 137.882 140.191 138.391C140.191 138.894 140.302 139.279 140.525 139.544C140.753 139.804 141.055 139.933 141.431 139.933ZM146.064 140.458C145.714 140.458 145.407 140.376 145.142 140.212C144.877 140.042 144.67 139.804 144.522 139.496C144.378 139.189 144.307 138.82 144.307 138.391C144.307 137.956 144.378 137.585 144.522 137.278C144.67 136.97 144.877 136.734 145.142 136.57C145.407 136.406 145.714 136.323 146.064 136.323C146.425 136.323 146.735 136.413 146.995 136.594C147.26 136.774 147.437 137.018 147.527 137.325H147.432V134.534H148.076V140.387H147.44V139.433H147.527C147.443 139.751 147.268 140.002 147.003 140.188C146.737 140.368 146.425 140.458 146.064 140.458ZM146.199 139.933C146.576 139.933 146.878 139.804 147.106 139.544C147.334 139.279 147.448 138.894 147.448 138.391C147.448 137.882 147.334 137.498 147.106 137.238C146.878 136.973 146.576 136.84 146.199 136.84C145.823 136.84 145.521 136.973 145.293 137.238C145.07 137.498 144.959 137.882 144.959 138.391C144.959 138.894 145.07 139.279 145.293 139.544C145.521 139.804 145.823 139.933 146.199 139.933Z" fill="black"/>
<path d="M157.473 140.387V134.781H158.133V140.387H157.473ZM159.459 140.387V137.317C159.459 137.169 159.451 137.018 159.435 136.864C159.425 136.705 159.411 136.549 159.395 136.395H160.016L160.095 137.27H160C160.116 136.962 160.302 136.729 160.556 136.57C160.816 136.406 161.116 136.323 161.455 136.323C161.927 136.323 162.282 136.451 162.52 136.705C162.764 136.954 162.886 137.349 162.886 137.89V140.387H162.242V137.93C162.242 137.553 162.165 137.28 162.011 137.111C161.863 136.936 161.63 136.848 161.312 136.848C160.941 136.848 160.646 136.962 160.429 137.19C160.212 137.418 160.103 137.723 160.103 138.105V140.387H159.459ZM165.446 140.458C165.128 140.458 164.831 140.416 164.556 140.331C164.28 140.241 164.052 140.116 163.872 139.957L164.094 139.504C164.291 139.658 164.503 139.772 164.731 139.846C164.964 139.92 165.205 139.957 165.454 139.957C165.772 139.957 166.011 139.902 166.17 139.79C166.334 139.674 166.416 139.515 166.416 139.313C166.416 139.159 166.363 139.038 166.257 138.947C166.157 138.852 165.99 138.778 165.756 138.725L165.017 138.574C164.678 138.499 164.423 138.375 164.253 138.2C164.084 138.02 163.999 137.792 163.999 137.516C163.999 137.283 164.06 137.079 164.182 136.904C164.304 136.724 164.481 136.583 164.715 136.482C164.948 136.376 165.221 136.323 165.534 136.323C165.825 136.323 166.093 136.368 166.337 136.459C166.586 136.543 166.793 136.668 166.957 136.832L166.726 137.278C166.567 137.124 166.384 137.01 166.178 136.936C165.976 136.856 165.767 136.816 165.55 136.816C165.237 136.816 165.001 136.88 164.842 137.007C164.688 137.129 164.611 137.291 164.611 137.492C164.611 137.646 164.659 137.773 164.754 137.874C164.855 137.969 165.009 138.041 165.216 138.089L165.955 138.24C166.316 138.319 166.583 138.444 166.758 138.613C166.938 138.778 167.029 139 167.029 139.281C167.029 139.52 166.962 139.729 166.83 139.91C166.697 140.085 166.512 140.22 166.273 140.315C166.04 140.411 165.764 140.458 165.446 140.458ZM169.44 140.458C169.047 140.458 168.748 140.347 168.541 140.124C168.334 139.896 168.231 139.554 168.231 139.099V136.896H167.452V136.395H168.231V135.306L168.875 135.123V136.395H170.02V136.896H168.875V139.027C168.875 139.345 168.928 139.573 169.034 139.711C169.145 139.843 169.31 139.91 169.527 139.91C169.628 139.91 169.718 139.902 169.797 139.886C169.877 139.865 169.949 139.841 170.012 139.814V140.355C169.938 140.387 169.848 140.411 169.742 140.426C169.641 140.448 169.54 140.458 169.44 140.458ZM172.323 140.458C171.968 140.458 171.658 140.376 171.393 140.212C171.128 140.042 170.921 139.804 170.772 139.496C170.629 139.189 170.558 138.82 170.558 138.391C170.558 137.956 170.629 137.585 170.772 137.278C170.921 136.97 171.128 136.734 171.393 136.57C171.658 136.406 171.968 136.323 172.323 136.323C172.684 136.323 172.994 136.416 173.253 136.602C173.518 136.782 173.693 137.028 173.778 137.341H173.683L173.77 136.395H174.391C174.375 136.549 174.359 136.705 174.343 136.864C174.332 137.018 174.327 137.169 174.327 137.317V140.387H173.683V139.448H173.77C173.685 139.761 173.511 140.008 173.245 140.188C172.98 140.368 172.673 140.458 172.323 140.458ZM172.45 139.933C172.832 139.933 173.134 139.804 173.357 139.544C173.579 139.279 173.691 138.894 173.691 138.391C173.691 137.882 173.579 137.498 173.357 137.238C173.134 136.973 172.832 136.84 172.45 136.84C172.074 136.84 171.772 136.973 171.544 137.238C171.321 137.498 171.21 137.882 171.21 138.391C171.21 138.894 171.321 139.279 171.544 139.544C171.772 139.804 172.074 139.933 172.45 139.933ZM177.33 142.16C176.985 142.16 176.667 142.118 176.375 142.033C176.084 141.948 175.821 141.818 175.588 141.643L175.779 141.158C175.943 141.275 176.105 141.367 176.264 141.436C176.423 141.505 176.587 141.556 176.757 141.587C176.927 141.625 177.107 141.643 177.298 141.643C177.69 141.643 177.987 141.54 178.188 141.333C178.39 141.126 178.491 140.832 178.491 140.45V139.281H178.57C178.485 139.594 178.31 139.843 178.045 140.029C177.78 140.209 177.47 140.299 177.115 140.299C176.749 140.299 176.431 140.22 176.161 140.061C175.896 139.896 175.689 139.666 175.54 139.369C175.397 139.067 175.326 138.712 175.326 138.303C175.326 137.9 175.397 137.551 175.54 137.254C175.689 136.957 175.896 136.729 176.161 136.57C176.431 136.406 176.749 136.323 177.115 136.323C177.475 136.323 177.785 136.413 178.045 136.594C178.31 136.774 178.485 137.023 178.57 137.341L178.491 137.262L178.562 136.395H179.19C179.169 136.549 179.153 136.705 179.143 136.864C179.132 137.018 179.127 137.169 179.127 137.317V140.363C179.127 140.957 178.973 141.405 178.665 141.707C178.363 142.009 177.918 142.16 177.33 142.16ZM177.234 139.774C177.621 139.774 177.926 139.647 178.149 139.393C178.371 139.133 178.483 138.77 178.483 138.303C178.483 137.837 178.371 137.476 178.149 137.222C177.926 136.967 177.621 136.84 177.234 136.84C176.852 136.84 176.548 136.967 176.32 137.222C176.092 137.476 175.978 137.837 175.978 138.303C175.978 138.77 176.092 139.133 176.32 139.393C176.548 139.647 176.852 139.774 177.234 139.774ZM180.348 140.387V137.357C180.348 137.198 180.342 137.036 180.332 136.872C180.326 136.708 180.316 136.549 180.3 136.395H180.92L181 137.365L180.888 137.373C180.941 137.134 181.034 136.938 181.167 136.785C181.299 136.631 181.456 136.517 181.636 136.443C181.816 136.363 182.004 136.323 182.2 136.323C182.28 136.323 182.349 136.326 182.407 136.331C182.471 136.337 182.529 136.35 182.582 136.371L182.574 136.944C182.495 136.917 182.42 136.901 182.351 136.896C182.288 136.885 182.214 136.88 182.129 136.88C181.896 136.88 181.691 136.936 181.517 137.047C181.347 137.158 181.217 137.301 181.127 137.476C181.042 137.651 181 137.837 181 138.033V140.387H180.348ZM184.732 140.458C184.377 140.458 184.067 140.376 183.802 140.212C183.537 140.042 183.33 139.804 183.182 139.496C183.038 139.189 182.967 138.82 182.967 138.391C182.967 137.956 183.038 137.585 183.182 137.278C183.33 136.97 183.537 136.734 183.802 136.57C184.067 136.406 184.377 136.323 184.732 136.323C185.093 136.323 185.403 136.416 185.663 136.602C185.928 136.782 186.103 137.028 186.187 137.341H186.092L186.179 136.395H186.8C186.784 136.549 186.768 136.705 186.752 136.864C186.741 137.018 186.736 137.169 186.736 137.317V140.387H186.092V139.448H186.179C186.095 139.761 185.92 140.008 185.655 140.188C185.39 140.368 185.082 140.458 184.732 140.458ZM184.859 139.933C185.241 139.933 185.543 139.804 185.766 139.544C185.989 139.279 186.1 138.894 186.1 138.391C186.1 137.882 185.989 137.498 185.766 137.238C185.543 136.973 185.241 136.84 184.859 136.84C184.483 136.84 184.181 136.973 183.953 137.238C183.73 137.498 183.619 137.882 183.619 138.391C183.619 138.894 183.73 139.279 183.953 139.544C184.181 139.804 184.483 139.933 184.859 139.933ZM187.981 140.387V137.317C187.981 137.169 187.973 137.018 187.958 136.864C187.947 136.705 187.934 136.549 187.918 136.395H188.538L188.618 137.27H188.522C188.628 136.967 188.795 136.734 189.023 136.57C189.256 136.406 189.537 136.323 189.866 136.323C190.2 136.323 190.47 136.403 190.677 136.562C190.889 136.721 191.032 136.967 191.106 137.301H190.987C191.088 136.999 191.266 136.761 191.52 136.586C191.774 136.411 192.071 136.323 192.411 136.323C192.851 136.323 193.182 136.451 193.405 136.705C193.627 136.954 193.739 137.349 193.739 137.89V140.387H193.094V137.93C193.094 137.553 193.028 137.28 192.896 137.111C192.763 136.936 192.551 136.848 192.259 136.848C191.926 136.848 191.66 136.965 191.464 137.198C191.273 137.426 191.178 137.733 191.178 138.12V140.387H190.534V137.93C190.534 137.553 190.468 137.28 190.335 137.111C190.203 136.936 189.991 136.848 189.699 136.848C189.365 136.848 189.103 136.965 188.912 137.198C188.721 137.426 188.626 137.733 188.626 138.12V140.387H187.981Z" fill="black"/>
<path d="M205.287 140.458C204.672 140.458 204.158 140.344 203.744 140.116C203.331 139.888 203.02 139.56 202.814 139.13C202.607 138.701 202.504 138.187 202.504 137.588C202.504 136.994 202.612 136.482 202.83 136.053C203.047 135.624 203.36 135.292 203.768 135.059C204.176 134.826 204.669 134.709 205.247 134.709C205.655 134.709 206.008 134.77 206.305 134.892C206.607 135.009 206.877 135.184 207.116 135.417L206.869 135.934C206.694 135.78 206.525 135.658 206.36 135.568C206.201 135.478 206.034 135.412 205.859 135.369C205.684 135.321 205.48 135.298 205.247 135.298C204.584 135.298 204.075 135.499 203.72 135.902C203.37 136.299 203.195 136.864 203.195 137.596C203.195 138.333 203.365 138.897 203.704 139.289C204.049 139.682 204.582 139.878 205.303 139.878C205.568 139.878 205.819 139.854 206.058 139.806C206.302 139.753 206.538 139.679 206.766 139.584L206.623 139.941V137.969H205.191V137.453H207.187V140.053C207.039 140.132 206.859 140.204 206.646 140.267C206.44 140.326 206.22 140.371 205.986 140.403C205.753 140.44 205.52 140.458 205.287 140.458ZM210.093 140.458C209.711 140.458 209.377 140.376 209.091 140.212C208.81 140.042 208.593 139.804 208.439 139.496C208.285 139.183 208.209 138.815 208.209 138.391C208.209 137.961 208.285 137.593 208.439 137.286C208.593 136.978 208.81 136.742 209.091 136.578C209.377 136.408 209.711 136.323 210.093 136.323C210.48 136.323 210.814 136.408 211.095 136.578C211.381 136.742 211.601 136.978 211.755 137.286C211.914 137.593 211.994 137.961 211.994 138.391C211.994 138.815 211.914 139.183 211.755 139.496C211.601 139.804 211.381 140.042 211.095 140.212C210.814 140.376 210.48 140.458 210.093 140.458ZM210.093 139.933C210.475 139.933 210.777 139.804 211 139.544C211.222 139.279 211.334 138.894 211.334 138.391C211.334 137.882 211.222 137.498 211 137.238C210.777 136.973 210.475 136.84 210.093 136.84C209.717 136.84 209.417 136.973 209.195 137.238C208.972 137.498 208.861 137.882 208.861 138.391C208.861 138.894 208.972 139.279 209.195 139.544C209.417 139.804 209.717 139.933 210.093 139.933ZM214.636 140.458C214.254 140.458 213.92 140.376 213.634 140.212C213.353 140.042 213.136 139.804 212.982 139.496C212.828 139.183 212.751 138.815 212.751 138.391C212.751 137.961 212.828 137.593 212.982 137.286C213.136 136.978 213.353 136.742 213.634 136.578C213.92 136.408 214.254 136.323 214.636 136.323C215.023 136.323 215.357 136.408 215.638 136.578C215.924 136.742 216.144 136.978 216.298 137.286C216.457 137.593 216.536 137.961 216.536 138.391C216.536 138.815 216.457 139.183 216.298 139.496C216.144 139.804 215.924 140.042 215.638 140.212C215.357 140.376 215.023 140.458 214.636 140.458ZM214.636 139.933C215.018 139.933 215.32 139.804 215.542 139.544C215.765 139.279 215.876 138.894 215.876 138.391C215.876 137.882 215.765 137.498 215.542 137.238C215.32 136.973 215.018 136.84 214.636 136.84C214.26 136.84 213.96 136.973 213.737 137.238C213.515 137.498 213.403 137.882 213.403 138.391C213.403 138.894 213.515 139.279 213.737 139.544C213.96 139.804 214.26 139.933 214.636 139.933ZM219.298 142.16C218.953 142.16 218.635 142.118 218.344 142.033C218.052 141.948 217.79 141.818 217.557 141.643L217.747 141.158C217.912 141.275 218.073 141.367 218.232 141.436C218.391 141.505 218.556 141.556 218.725 141.587C218.895 141.625 219.075 141.643 219.266 141.643C219.658 141.643 219.955 141.54 220.157 141.333C220.358 141.126 220.459 140.832 220.459 140.45V139.281H220.538C220.454 139.594 220.279 139.843 220.014 140.029C219.749 140.209 219.438 140.299 219.083 140.299C218.718 140.299 218.399 140.22 218.129 140.061C217.864 139.896 217.657 139.666 217.509 139.369C217.366 139.067 217.294 138.712 217.294 138.303C217.294 137.9 217.366 137.551 217.509 137.254C217.657 136.957 217.864 136.729 218.129 136.57C218.399 136.406 218.718 136.323 219.083 136.323C219.444 136.323 219.754 136.413 220.014 136.594C220.279 136.774 220.454 137.023 220.538 137.341L220.459 137.262L220.531 136.395H221.159C221.138 136.549 221.122 136.705 221.111 136.864C221.1 137.018 221.095 137.169 221.095 137.317V140.363C221.095 140.957 220.941 141.405 220.634 141.707C220.332 142.009 219.886 142.16 219.298 142.16ZM219.203 139.774C219.59 139.774 219.894 139.647 220.117 139.393C220.34 139.133 220.451 138.77 220.451 138.303C220.451 137.837 220.34 137.476 220.117 137.222C219.894 136.967 219.59 136.84 219.203 136.84C218.821 136.84 218.516 136.967 218.288 137.222C218.06 137.476 217.946 137.837 217.946 138.303C217.946 138.77 218.06 139.133 218.288 139.393C218.516 139.647 218.821 139.774 219.203 139.774ZM222.332 140.387V134.534H222.976V140.387H222.332ZM226 140.458C225.586 140.458 225.229 140.379 224.926 140.22C224.624 140.055 224.391 139.819 224.227 139.512C224.062 139.199 223.98 138.828 223.98 138.399C223.98 137.98 224.06 137.617 224.219 137.309C224.378 136.997 224.6 136.755 224.887 136.586C225.173 136.411 225.502 136.323 225.873 136.323C226.238 136.323 226.546 136.4 226.795 136.554C227.044 136.708 227.235 136.928 227.368 137.214C227.5 137.495 227.566 137.829 227.566 138.216V138.454H224.473V138.049H227.145L227.01 138.152C227.01 137.728 226.914 137.397 226.724 137.158C226.533 136.92 226.249 136.8 225.873 136.8C225.602 136.8 225.372 136.864 225.181 136.991C224.995 137.119 224.852 137.296 224.751 137.524C224.656 137.752 224.608 138.025 224.608 138.343V138.415C224.608 138.913 224.73 139.292 224.974 139.552C225.223 139.806 225.571 139.933 226.016 139.933C226.254 139.933 226.477 139.899 226.684 139.83C226.896 139.756 227.097 139.637 227.288 139.472L227.511 139.926C227.336 140.095 227.113 140.228 226.843 140.323C226.578 140.413 226.297 140.458 226 140.458ZM230.14 140.387L232.613 134.781H233.186L235.699 140.387H235.015L234.315 138.788L234.609 138.955H231.182L231.5 138.788L230.816 140.387H230.14ZM232.892 135.536L231.603 138.558L231.413 138.415H234.371L234.228 138.558L232.908 135.536H232.892ZM237.945 140.458C237.595 140.458 237.287 140.376 237.022 140.212C236.757 140.042 236.551 139.804 236.402 139.496C236.259 139.189 236.187 138.82 236.187 138.391C236.187 137.956 236.259 137.585 236.402 137.278C236.551 136.97 236.757 136.734 237.022 136.57C237.287 136.406 237.595 136.323 237.945 136.323C238.305 136.323 238.615 136.413 238.875 136.594C239.14 136.774 239.318 137.018 239.408 137.325H239.313V134.534H239.957V140.387H239.32V139.433H239.408C239.323 139.751 239.148 140.002 238.883 140.188C238.618 140.368 238.305 140.458 237.945 140.458ZM238.08 139.933C238.456 139.933 238.759 139.804 238.986 139.544C239.214 139.279 239.328 138.894 239.328 138.391C239.328 137.882 239.214 137.498 238.986 137.238C238.759 136.973 238.456 136.84 238.08 136.84C237.704 136.84 237.401 136.973 237.173 137.238C236.951 137.498 236.839 137.882 236.839 138.391C236.839 138.894 236.951 139.279 237.173 139.544C237.401 139.804 237.704 139.933 238.08 139.933ZM242.53 140.458C242.212 140.458 241.915 140.416 241.639 140.331C241.364 140.241 241.136 140.116 240.955 139.957L241.178 139.504C241.374 139.658 241.586 139.772 241.814 139.846C242.047 139.92 242.289 139.957 242.538 139.957C242.856 139.957 243.094 139.902 243.253 139.79C243.418 139.674 243.5 139.515 243.5 139.313C243.5 139.159 243.447 139.038 243.341 138.947C243.24 138.852 243.073 138.778 242.84 138.725L242.1 138.574C241.761 138.499 241.507 138.375 241.337 138.2C241.167 138.02 241.083 137.792 241.083 137.516C241.083 137.283 241.144 137.079 241.266 136.904C241.387 136.724 241.565 136.583 241.798 136.482C242.032 136.376 242.305 136.323 242.617 136.323C242.909 136.323 243.177 136.368 243.42 136.459C243.67 136.543 243.876 136.668 244.041 136.832L243.81 137.278C243.651 137.124 243.468 137.01 243.261 136.936C243.06 136.856 242.851 136.816 242.633 136.816C242.32 136.816 242.085 136.88 241.926 137.007C241.772 137.129 241.695 137.291 241.695 137.492C241.695 137.646 241.743 137.773 241.838 137.874C241.939 137.969 242.093 138.041 242.299 138.089L243.039 138.24C243.399 138.319 243.667 138.444 243.842 138.613C244.022 138.778 244.112 139 244.112 139.281C244.112 139.52 244.046 139.729 243.913 139.91C243.781 140.085 243.595 140.22 243.357 140.315C243.124 140.411 242.848 140.458 242.53 140.458Z" fill="black"/>
<path d="M255.845 140.387V134.781H257.706C258.326 134.781 258.851 134.889 259.281 135.107C259.71 135.319 260.036 135.634 260.259 136.053C260.481 136.466 260.593 136.975 260.593 137.58C260.593 138.179 260.481 138.688 260.259 139.106C260.036 139.525 259.71 139.843 259.281 140.061C258.851 140.278 258.326 140.387 257.706 140.387H255.845ZM256.505 139.822H257.658C258.422 139.822 258.989 139.637 259.36 139.266C259.731 138.889 259.917 138.327 259.917 137.58C259.917 136.827 259.731 136.265 259.36 135.894C258.989 135.523 258.422 135.337 257.658 135.337H256.505V139.822ZM263.122 140.458C262.65 140.458 262.292 140.328 262.048 140.069C261.81 139.809 261.691 139.411 261.691 138.876V136.395H262.335V138.86C262.335 139.226 262.409 139.496 262.557 139.671C262.706 139.841 262.936 139.926 263.249 139.926C263.599 139.926 263.88 139.812 264.092 139.584C264.304 139.35 264.41 139.046 264.41 138.669V136.395H265.054V140.387H264.426V139.488H264.529C264.418 139.796 264.238 140.034 263.989 140.204C263.745 140.373 263.456 140.458 263.122 140.458ZM268.308 140.458C267.947 140.458 267.637 140.368 267.377 140.188C267.118 140.002 266.943 139.751 266.852 139.433H266.94V140.387H266.304V134.534H266.948V137.325H266.852C266.943 137.018 267.118 136.774 267.377 136.594C267.637 136.413 267.947 136.323 268.308 136.323C268.668 136.323 268.978 136.408 269.238 136.578C269.503 136.742 269.707 136.978 269.85 137.286C269.999 137.593 270.073 137.961 270.073 138.391C270.073 138.82 269.999 139.189 269.85 139.496C269.702 139.804 269.495 140.042 269.23 140.212C268.97 140.376 268.663 140.458 268.308 140.458ZM268.172 139.933C268.549 139.933 268.851 139.804 269.079 139.544C269.307 139.284 269.421 138.9 269.421 138.391C269.421 137.882 269.307 137.498 269.079 137.238C268.851 136.973 268.549 136.84 268.172 136.84C267.796 136.84 267.494 136.973 267.266 137.238C267.043 137.498 266.932 137.882 266.932 138.391C266.932 138.894 267.043 139.279 267.266 139.544C267.494 139.804 267.796 139.933 268.172 139.933ZM271.072 140.387V136.395H271.716V140.387H271.072ZM270.992 135.488V134.765H271.787V135.488H270.992ZM272.736 140.387V139.957L275.424 136.729L275.432 136.896H272.736V136.395H276.028V136.824L273.308 140.069L273.301 139.886H276.115V140.387H272.736ZM276.859 140.387V139.957L279.547 136.729L279.555 136.896H276.859V136.395H280.151V136.824L277.432 140.069L277.424 139.886H280.239V140.387H276.859ZM281.213 140.387V134.534H281.858V140.387H281.213ZM284.881 140.458C284.468 140.458 284.11 140.379 283.808 140.22C283.506 140.055 283.273 139.819 283.108 139.512C282.944 139.199 282.862 138.828 282.862 138.399C282.862 137.98 282.941 137.617 283.1 137.309C283.259 136.997 283.482 136.755 283.768 136.586C284.054 136.411 284.383 136.323 284.754 136.323C285.12 136.323 285.427 136.4 285.677 136.554C285.926 136.708 286.117 136.928 286.249 137.214C286.382 137.495 286.448 137.829 286.448 138.216V138.454H283.355V138.049H286.027L285.891 138.152C285.891 137.728 285.796 137.397 285.605 137.158C285.414 136.92 285.131 136.8 284.754 136.8C284.484 136.8 284.253 136.864 284.062 136.991C283.877 137.119 283.734 137.296 283.633 137.524C283.538 137.752 283.49 138.025 283.49 138.343V138.415C283.49 138.913 283.612 139.292 283.856 139.552C284.105 139.806 284.452 139.933 284.897 139.933C285.136 139.933 285.359 139.899 285.565 139.83C285.777 139.756 285.979 139.637 286.17 139.472L286.392 139.926C286.217 140.095 285.995 140.228 285.724 140.323C285.459 140.413 285.178 140.458 284.881 140.458Z" fill="black"/>
<path d="M302.817 140.458C302.255 140.458 301.778 140.342 301.386 140.108C300.994 139.875 300.691 139.544 300.479 139.114C300.273 138.685 300.169 138.173 300.169 137.58C300.169 136.986 300.273 136.477 300.479 136.053C300.691 135.624 300.994 135.292 301.386 135.059C301.778 134.826 302.255 134.709 302.817 134.709C303.215 134.709 303.57 134.77 303.883 134.892C304.195 135.014 304.468 135.192 304.702 135.425L304.455 135.95C304.201 135.727 303.949 135.565 303.7 135.465C303.451 135.359 303.159 135.306 302.825 135.306C302.184 135.306 301.696 135.504 301.362 135.902C301.028 136.299 300.861 136.859 300.861 137.58C300.861 138.062 300.935 138.476 301.084 138.82C301.232 139.159 301.452 139.419 301.744 139.599C302.041 139.774 302.401 139.862 302.825 139.862C303.159 139.862 303.451 139.812 303.7 139.711C303.949 139.605 304.201 139.438 304.455 139.21L304.702 139.743C304.468 139.971 304.195 140.148 303.883 140.275C303.57 140.397 303.215 140.458 302.817 140.458ZM307.135 140.458C306.78 140.458 306.469 140.376 306.204 140.212C305.939 140.042 305.733 139.804 305.584 139.496C305.441 139.189 305.369 138.82 305.369 138.391C305.369 137.956 305.441 137.585 305.584 137.278C305.733 136.97 305.939 136.734 306.204 136.57C306.469 136.406 306.78 136.323 307.135 136.323C307.495 136.323 307.805 136.416 308.065 136.602C308.33 136.782 308.505 137.028 308.59 137.341H308.494L308.582 136.395H309.202C309.186 136.549 309.17 136.705 309.154 136.864C309.144 137.018 309.139 137.169 309.139 137.317V140.387H308.494V139.448H308.582C308.497 139.761 308.322 140.008 308.057 140.188C307.792 140.368 307.485 140.458 307.135 140.458ZM307.262 139.933C307.644 139.933 307.946 139.804 308.168 139.544C308.391 139.279 308.502 138.894 308.502 138.391C308.502 137.882 308.391 137.498 308.168 137.238C307.946 136.973 307.644 136.84 307.262 136.84C306.886 136.84 306.583 136.973 306.355 137.238C306.133 137.498 306.021 137.882 306.021 138.391C306.021 138.894 306.133 139.279 306.355 139.544C306.583 139.804 306.886 139.933 307.262 139.933ZM310.368 140.387V137.357C310.368 137.198 310.363 137.036 310.352 136.872C310.347 136.708 310.336 136.549 310.32 136.395H310.941L311.02 137.365L310.909 137.373C310.962 137.134 311.055 136.938 311.187 136.785C311.32 136.631 311.476 136.517 311.656 136.443C311.836 136.363 312.025 136.323 312.221 136.323C312.3 136.323 312.369 136.326 312.428 136.331C312.491 136.337 312.549 136.35 312.602 136.371L312.595 136.944C312.515 136.917 312.441 136.901 312.372 136.896C312.308 136.885 312.234 136.88 312.149 136.88C311.916 136.88 311.712 136.936 311.537 137.047C311.367 137.158 311.237 137.301 311.147 137.476C311.062 137.651 311.02 137.837 311.02 138.033V140.387H310.368ZM315.173 140.458C314.723 140.458 314.32 140.4 313.964 140.283C313.609 140.167 313.299 140 313.034 139.782L313.273 139.258C313.458 139.395 313.644 139.512 313.829 139.607C314.02 139.698 314.224 139.766 314.442 139.814C314.659 139.857 314.903 139.878 315.173 139.878C315.645 139.878 315.995 139.79 316.223 139.615C316.451 139.44 316.565 139.207 316.565 138.916C316.565 138.666 316.485 138.476 316.326 138.343C316.167 138.211 315.889 138.105 315.491 138.025L314.656 137.858C314.142 137.752 313.758 137.58 313.503 137.341C313.254 137.103 313.13 136.779 313.13 136.371C313.13 136.037 313.214 135.746 313.384 135.496C313.559 135.247 313.803 135.054 314.116 134.916C314.428 134.778 314.791 134.709 315.205 134.709C315.603 134.709 315.966 134.77 316.294 134.892C316.623 135.009 316.904 135.181 317.137 135.409L316.907 135.918C316.657 135.695 316.395 135.536 316.119 135.441C315.849 135.34 315.542 135.29 315.197 135.29C314.762 135.29 314.418 135.385 314.163 135.576C313.914 135.761 313.79 136.016 313.79 136.339C313.79 136.599 313.869 136.803 314.028 136.952C314.187 137.095 314.45 137.203 314.815 137.278L315.658 137.445C316.199 137.556 316.596 137.723 316.851 137.946C317.105 138.168 317.233 138.481 317.233 138.884C317.233 139.191 317.148 139.464 316.978 139.703C316.814 139.941 316.578 140.127 316.27 140.259C315.963 140.392 315.597 140.458 315.173 140.458ZM319.246 140.387L317.767 136.395H318.451L319.683 139.91H319.477L320.749 136.395H321.305L322.554 139.91H322.355L323.596 136.395H324.248L322.761 140.387H322.14L320.852 136.816H321.17L319.874 140.387H319.246ZM325.092 140.387V136.395H325.736V140.387H325.092ZM325.012 135.488V134.765H325.807V135.488H325.012ZM328.402 140.458C328.01 140.458 327.71 140.347 327.503 140.124C327.297 139.896 327.193 139.554 327.193 139.099V136.896H326.414V136.395H327.193V135.306L327.837 135.123V136.395H328.982V136.896H327.837V139.027C327.837 139.345 327.89 139.573 327.996 139.711C328.108 139.843 328.272 139.91 328.489 139.91C328.59 139.91 328.68 139.902 328.76 139.886C328.839 139.865 328.911 139.841 328.974 139.814V140.355C328.9 140.387 328.81 140.411 328.704 140.426C328.603 140.448 328.503 140.458 328.402 140.458ZM331.405 140.458C331.013 140.458 330.671 140.373 330.38 140.204C330.093 140.034 329.871 139.793 329.712 139.48C329.558 139.167 329.481 138.796 329.481 138.367C329.481 137.932 329.561 137.564 329.72 137.262C329.879 136.954 330.101 136.721 330.388 136.562C330.679 136.403 331.018 136.323 331.405 136.323C331.66 136.323 331.906 136.368 332.145 136.459C332.389 136.549 332.59 136.676 332.749 136.84L332.519 137.301C332.36 137.148 332.185 137.034 331.994 136.959C331.808 136.885 331.625 136.848 331.445 136.848C331.032 136.848 330.711 136.978 330.483 137.238C330.255 137.498 330.141 137.877 330.141 138.375C330.141 138.868 330.255 139.25 330.483 139.52C330.711 139.79 331.032 139.926 331.445 139.926C331.62 139.926 331.8 139.891 331.986 139.822C332.177 139.753 332.354 139.639 332.519 139.48L332.749 139.933C332.585 140.103 332.381 140.233 332.137 140.323C331.893 140.413 331.649 140.458 331.405 140.458ZM333.665 140.387V134.534H334.309V137.278H334.205C334.317 136.965 334.502 136.729 334.762 136.57C335.027 136.406 335.332 136.323 335.676 136.323C336.154 136.323 336.509 136.453 336.742 136.713C336.975 136.967 337.092 137.354 337.092 137.874V140.387H336.448V137.914C336.448 137.543 336.374 137.272 336.225 137.103C336.082 136.933 335.849 136.848 335.525 136.848C335.154 136.848 334.857 136.962 334.635 137.19C334.417 137.418 334.309 137.718 334.309 138.089V140.387H333.665Z" fill="black"/>
<path d="M17.3862 30.8789V23.0305H18.466L23.0192 28.9196H22.7298V23.0305H24.0657V30.8789H22.9858L18.4437 24.9898H18.7221V30.8789H17.3862ZM27.7047 30.9902C27.0145 30.9902 26.4987 30.801 26.1573 30.4225C25.8159 30.044 25.6452 29.4651 25.6452 28.6858V25.257H27.0368V28.6747C27.0368 29.0903 27.1221 29.3983 27.2928 29.5987C27.4635 29.7916 27.7233 29.8881 28.0721 29.8881C28.4654 29.8881 28.7846 29.7545 29.0295 29.4873C29.2818 29.2202 29.408 28.8676 29.408 28.4297V25.257H30.7996V30.8789H29.4414V29.7323H29.5972C29.434 30.133 29.1853 30.4447 28.8514 30.6674C28.5248 30.8826 28.1426 30.9902 27.7047 30.9902ZM32.3103 30.8789V26.6597C32.3103 26.4296 32.3029 26.1958 32.288 25.9583C32.2732 25.7208 32.2509 25.4871 32.2212 25.257H33.5682L33.6796 26.3702H33.546C33.7018 25.9843 33.9393 25.6837 34.2585 25.4685C34.585 25.2533 34.9709 25.1457 35.4162 25.1457C35.8615 25.1457 36.2289 25.2533 36.5184 25.4685C36.8152 25.6763 37.023 26.0029 37.1418 26.4482H36.9637C37.1195 26.0474 37.3756 25.732 37.7318 25.5019C38.0881 25.2644 38.4962 25.1457 38.9564 25.1457C39.5872 25.1457 40.0585 25.3312 40.3702 25.7023C40.6819 26.0734 40.8378 26.6523 40.8378 27.439V30.8789H39.4462V27.4946C39.4462 27.0493 39.372 26.7302 39.2236 26.5372C39.0751 26.3368 38.8376 26.2366 38.5111 26.2366C38.1252 26.2366 37.8209 26.3739 37.5982 26.6485C37.3756 26.9157 37.2642 27.2794 37.2642 27.7395V30.8789H35.8727V27.4946C35.8727 27.0493 35.7985 26.7302 35.65 26.5372C35.5016 26.3368 35.2641 26.2366 34.9375 26.2366C34.5516 26.2366 34.2473 26.3739 34.0247 26.6485C33.8095 26.9157 33.7018 27.2794 33.7018 27.7395V30.8789H32.3103ZM45.5403 30.9902C45.0653 30.9902 44.6497 30.8752 44.2935 30.6451C43.9372 30.4076 43.6997 30.0885 43.581 29.6877H43.7035V30.8789H42.323V22.6854H43.7146V26.4036H43.581C43.7072 26.0177 43.9484 25.7134 44.3046 25.4908C44.6609 25.2607 45.0728 25.1457 45.5403 25.1457C46.0376 25.1457 46.4717 25.2644 46.8428 25.5019C47.2139 25.7394 47.5034 26.0771 47.7112 26.515C47.919 26.9454 48.0229 27.4649 48.0229 28.0735C48.0229 28.6821 47.919 29.2053 47.7112 29.6432C47.5034 30.0737 47.2102 30.4076 46.8317 30.6451C46.4606 30.8752 46.0302 30.9902 45.5403 30.9902ZM45.1507 29.9215C45.5886 29.9215 45.9411 29.7694 46.2083 29.4651C46.4829 29.1608 46.6202 28.6969 46.6202 28.0735C46.6202 27.4501 46.4829 26.9862 46.2083 26.6819C45.9411 26.3702 45.5886 26.2144 45.1507 26.2144C44.7128 26.2144 44.3603 26.3665 44.0931 26.6708C43.8259 26.9751 43.6923 27.439 43.6923 28.0624C43.6923 28.6858 43.8259 29.1534 44.0931 29.4651C44.3603 29.7694 44.7128 29.9215 45.1507 29.9215ZM51.9428 30.9902C51.312 30.9902 50.7702 30.8752 50.3175 30.6451C49.8722 30.4076 49.5271 30.0699 49.2822 29.6321C49.0447 29.1942 48.9259 28.6747 48.9259 28.0735C48.9259 27.4872 49.041 26.9751 49.271 26.5372C49.5011 26.0993 49.8202 25.7579 50.2284 25.513C50.644 25.2681 51.1265 25.1457 51.6757 25.1457C52.2174 25.1457 52.6702 25.2607 53.0338 25.4908C53.3975 25.7208 53.6721 26.0437 53.8576 26.4593C54.0506 26.8749 54.1471 27.361 54.1471 27.9177V28.285H50.0503V27.5503H53.1563L52.967 27.7061C52.967 27.1866 52.8557 26.7896 52.6331 26.515C52.4178 26.2404 52.1024 26.1031 51.6868 26.1031C51.3751 26.1031 51.1116 26.1773 50.8964 26.3257C50.6886 26.4741 50.529 26.6857 50.4177 26.9603C50.3064 27.2349 50.2507 27.5688 50.2507 27.9622V28.1069C50.2507 28.7155 50.3991 29.1719 50.696 29.4762C51.0003 29.7731 51.427 29.9215 51.9762 29.9215C52.2954 29.9215 52.5922 29.8807 52.8668 29.7991C53.1489 29.71 53.416 29.569 53.6684 29.376L54.0803 30.3111C53.8131 30.5264 53.494 30.6934 53.1229 30.8121C52.7518 30.9309 52.3585 30.9902 51.9428 30.9902ZM55.3143 30.8789V26.6931C55.3143 26.4556 55.3069 26.2144 55.2921 25.9695C55.2847 25.7245 55.2661 25.4871 55.2364 25.257H56.5834L56.7393 26.7933H56.5167C56.5909 26.4222 56.7133 26.1142 56.884 25.8693C57.0621 25.6244 57.2774 25.4425 57.5297 25.3238C57.782 25.205 58.0567 25.1457 58.3535 25.1457C58.4871 25.1457 58.5947 25.1531 58.6764 25.1679C58.758 25.1753 58.8396 25.1939 58.9213 25.2236L58.9101 26.4482C58.7691 26.3888 58.6467 26.3517 58.5428 26.3368C58.4463 26.322 58.3238 26.3146 58.1754 26.3146C57.8563 26.3146 57.5854 26.3814 57.3627 26.515C57.1475 26.6485 56.9842 26.8341 56.8729 27.0716C56.769 27.3091 56.717 27.58 56.717 27.8843V30.8789H55.3143ZM65.289 30.9902C64.7101 30.9902 64.2091 30.8715 63.7861 30.634C63.3631 30.3965 63.0328 30.0588 62.7953 29.6209C62.5652 29.1831 62.4502 28.6635 62.4502 28.0624C62.4502 27.4612 62.5652 26.9454 62.7953 26.515C63.0328 26.0771 63.3631 25.7394 63.7861 25.5019C64.2091 25.2644 64.7101 25.1457 65.289 25.1457C65.8679 25.1457 66.3689 25.2644 66.7919 25.5019C67.2223 25.7394 67.5526 26.0771 67.7827 26.515C68.0202 26.9454 68.1389 27.4612 68.1389 28.0624C68.1389 28.6635 68.0202 29.1831 67.7827 29.6209C67.5526 30.0588 67.2223 30.3965 66.7919 30.634C66.3689 30.8715 65.8679 30.9902 65.289 30.9902ZM65.289 29.9215C65.7269 29.9215 66.0757 29.7694 66.3355 29.4651C66.5952 29.1534 66.7251 28.6858 66.7251 28.0624C66.7251 27.439 66.5952 26.9751 66.3355 26.6708C66.0757 26.3665 65.7269 26.2144 65.289 26.2144C64.8511 26.2144 64.5023 26.3665 64.2425 26.6708C63.9828 26.9751 63.8529 27.439 63.8529 28.0624C63.8529 28.6858 63.9828 29.1534 64.2425 29.4651C64.5023 29.7694 64.8511 29.9215 65.289 29.9215ZM69.6631 30.8789V26.3034H68.5833V25.257H70.0528L69.6631 25.6132V24.756C69.6631 24.0584 69.8412 23.5314 70.1975 23.1752C70.5611 22.819 71.0918 22.6408 71.7894 22.6408C71.9527 22.6408 72.1234 22.652 72.3015 22.6742C72.4871 22.6965 72.6466 22.7373 72.7802 22.7967V23.8877C72.6838 23.8506 72.5687 23.8209 72.4351 23.7986C72.3015 23.7764 72.1717 23.7652 72.0455 23.7652C71.8525 23.7652 71.6781 23.8023 71.5223 23.8765C71.3738 23.9508 71.2551 24.0658 71.166 24.2217C71.0844 24.3701 71.0436 24.5705 71.0436 24.8228V25.5019L70.8432 25.257H72.5242V26.3034H71.0547V30.8789H69.6631ZM79.0209 30.9902C78.442 30.9902 77.9336 30.8715 77.4957 30.634C77.0653 30.3965 76.7313 30.0588 76.4938 29.6209C76.2563 29.1756 76.1376 28.6487 76.1376 28.0401C76.1376 27.4315 76.2563 26.912 76.4938 26.4816C76.7387 26.0511 77.0764 25.7208 77.5069 25.4908C77.9373 25.2607 78.442 25.1457 79.0209 25.1457C79.392 25.1457 79.7519 25.205 80.1007 25.3238C80.457 25.4351 80.7464 25.5984 80.9691 25.8136L80.546 26.7821C80.3457 26.5966 80.1193 26.4593 79.867 26.3702C79.622 26.2737 79.3808 26.2255 79.1433 26.2255C78.6461 26.2255 78.2565 26.3814 77.9744 26.6931C77.6998 27.0048 77.5625 27.4575 77.5625 28.0512C77.5625 28.645 77.6998 29.1014 77.9744 29.4205C78.2565 29.7397 78.6461 29.8992 79.1433 29.8992C79.3734 29.8992 79.6109 29.8547 79.8558 29.7657C80.1082 29.6766 80.3382 29.5393 80.546 29.3537L80.9691 30.3111C80.739 30.5264 80.4459 30.6934 80.0896 30.8121C79.7408 30.9309 79.3846 30.9902 79.0209 30.9902ZM84.1861 30.9902C83.6963 30.9902 83.2658 30.8752 82.8947 30.6451C82.5237 30.4076 82.2342 30.0699 82.0264 29.6321C81.8186 29.1942 81.7147 28.671 81.7147 28.0624C81.7147 27.4538 81.8186 26.9343 82.0264 26.5038C82.2342 26.0659 82.5237 25.732 82.8947 25.5019C83.2658 25.2644 83.6963 25.1457 84.1861 25.1457C84.6611 25.1457 85.0767 25.2644 85.433 25.5019C85.7966 25.732 86.0378 26.0437 86.1566 26.437H86.0341L86.1566 25.257H87.4925C87.4702 25.4871 87.4479 25.7208 87.4257 25.9583C87.4108 26.1958 87.4034 26.4296 87.4034 26.6597V30.8789H86.023L86.0119 29.7211H86.1454C86.0267 30.1071 85.7855 30.4151 85.4218 30.6451C85.0582 30.8752 84.6463 30.9902 84.1861 30.9902ZM84.5758 29.9215C85.0136 29.9215 85.3662 29.7694 85.6333 29.4651C85.9005 29.1534 86.0341 28.6858 86.0341 28.0624C86.0341 27.439 85.9005 26.9751 85.6333 26.6708C85.3662 26.3665 85.0136 26.2144 84.5758 26.2144C84.1379 26.2144 83.7853 26.3665 83.5182 26.6708C83.251 26.9751 83.1174 27.439 83.1174 28.0624C83.1174 28.6858 83.2473 29.1534 83.507 29.4651C83.7742 29.7694 84.1305 29.9215 84.5758 29.9215ZM88.9187 30.8789V22.6854H90.3103V30.8789H88.9187ZM91.8215 30.8789V22.6854H93.213V30.8789H91.8215ZM96.728 30.9902C96.2456 30.9902 95.8003 30.9346 95.3921 30.8232C94.9914 30.7045 94.6537 30.5412 94.3791 30.3334L94.7687 29.3983C95.0507 29.5912 95.3625 29.7397 95.7039 29.8436C96.0453 29.9475 96.3904 29.9994 96.7392 29.9994C97.1103 29.9994 97.3849 29.9364 97.563 29.8102C97.7485 29.684 97.8413 29.5133 97.8413 29.2981C97.8413 29.1274 97.7819 28.9938 97.6632 28.8973C97.5519 28.7934 97.37 28.7155 97.1177 28.6635L96.0044 28.452C95.5294 28.3481 95.1658 28.17 94.9134 27.9177C94.6685 27.6653 94.5461 27.3351 94.5461 26.9269C94.5461 26.578 94.6388 26.27 94.8244 26.0029C95.0173 25.7357 95.2882 25.5279 95.6371 25.3794C95.9933 25.2236 96.4089 25.1457 96.8839 25.1457C97.2995 25.1457 97.6892 25.2013 98.0528 25.3126C98.4239 25.424 98.7356 25.591 98.9879 25.8136L98.5872 26.7153C98.3571 26.5298 98.0936 26.3851 97.7968 26.2812C97.4999 26.1773 97.2105 26.1253 96.9284 26.1253C96.5425 26.1253 96.2605 26.1958 96.0824 26.3368C95.9042 26.4704 95.8152 26.6448 95.8152 26.8601C95.8152 27.0233 95.8671 27.1606 95.971 27.272C96.0824 27.3759 96.2531 27.4538 96.4831 27.5057L97.5964 27.7173C98.0936 27.8137 98.4684 27.9844 98.7208 28.2294C98.9805 28.4669 99.1104 28.7934 99.1104 29.209C99.1104 29.5801 99.0102 29.8992 98.8098 30.1664C98.6094 30.4336 98.3311 30.6377 97.9749 30.7787C97.6186 30.9197 97.203 30.9902 96.728 30.9902ZM103.735 30.8789V26.3034H102.655V25.257H104.124L103.735 25.6132V24.756C103.735 24.0584 103.913 23.5314 104.269 23.1752C104.633 22.819 105.163 22.6408 105.861 22.6408C106.024 22.6408 106.195 22.652 106.373 22.6742C106.559 22.6965 106.718 22.7373 106.852 22.7967V23.8877C106.755 23.8506 106.64 23.8209 106.507 23.7986C106.373 23.7764 106.243 23.7652 106.117 23.7652C105.924 23.7652 105.75 23.8023 105.594 23.8765C105.445 23.9508 105.327 24.0658 105.238 24.2217C105.156 24.3701 105.115 24.5705 105.115 24.8228V25.5019L104.915 25.257H106.596V26.3034H105.126V30.8789H103.735ZM107.444 30.8789V26.6931C107.444 26.4556 107.436 26.2144 107.421 25.9695C107.414 25.7245 107.395 25.4871 107.366 25.257H108.713L108.869 26.7933H108.646C108.72 26.4222 108.843 26.1142 109.013 25.8693C109.192 25.6244 109.407 25.4425 109.659 25.3238C109.911 25.205 110.186 25.1457 110.483 25.1457C110.616 25.1457 110.724 25.1531 110.806 25.1679C110.887 25.1753 110.969 25.1939 111.051 25.2236L111.04 26.4482C110.899 26.3888 110.776 26.3517 110.672 26.3368C110.576 26.322 110.453 26.3146 110.305 26.3146C109.986 26.3146 109.715 26.3814 109.492 26.515C109.277 26.6485 109.114 26.8341 109.002 27.0716C108.898 27.3091 108.846 27.58 108.846 27.8843V30.8789H107.444ZM114.276 30.9902C113.698 30.9902 113.197 30.8715 112.774 30.634C112.351 30.3965 112.02 30.0588 111.783 29.6209C111.553 29.1831 111.438 28.6635 111.438 28.0624C111.438 27.4612 111.553 26.9454 111.783 26.515C112.02 26.0771 112.351 25.7394 112.774 25.5019C113.197 25.2644 113.698 25.1457 114.276 25.1457C114.855 25.1457 115.356 25.2644 115.779 25.5019C116.21 25.7394 116.54 26.0771 116.77 26.515C117.008 26.9454 117.126 27.4612 117.126 28.0624C117.126 28.6635 117.008 29.1831 116.77 29.6209C116.54 30.0588 116.21 30.3965 115.779 30.634C115.356 30.8715 114.855 30.9902 114.276 30.9902ZM114.276 29.9215C114.714 29.9215 115.063 29.7694 115.323 29.4651C115.583 29.1534 115.713 28.6858 115.713 28.0624C115.713 27.439 115.583 26.9751 115.323 26.6708C115.063 26.3665 114.714 26.2144 114.276 26.2144C113.839 26.2144 113.49 26.3665 113.23 26.6708C112.97 26.9751 112.84 27.439 112.84 28.0624C112.84 28.6858 112.97 29.1534 113.23 29.4651C113.49 29.7694 113.839 29.9215 114.276 29.9215ZM118.326 30.8789V26.6597C118.326 26.4296 118.319 26.1958 118.304 25.9583C118.289 25.7208 118.267 25.4871 118.237 25.257H119.584L119.696 26.3702H119.562C119.718 25.9843 119.956 25.6837 120.275 25.4685C120.601 25.2533 120.987 25.1457 121.432 25.1457C121.878 25.1457 122.245 25.2533 122.535 25.4685C122.831 25.6763 123.039 26.0029 123.158 26.4482H122.98C123.136 26.0474 123.392 25.732 123.748 25.5019C124.104 25.2644 124.512 25.1457 124.973 25.1457C125.603 25.1457 126.075 25.3312 126.386 25.7023C126.698 26.0734 126.854 26.6523 126.854 27.439V30.8789H125.462V27.4946C125.462 27.0493 125.388 26.7302 125.24 26.5372C125.091 26.3368 124.854 26.2366 124.527 26.2366C124.141 26.2366 123.837 26.3739 123.614 26.6485C123.392 26.9157 123.28 27.2794 123.28 27.7395V30.8789H121.889V27.4946C121.889 27.0493 121.815 26.7302 121.666 26.5372C121.518 26.3368 121.28 26.2366 120.954 26.2366C120.568 26.2366 120.264 26.3739 120.041 26.6485C119.826 26.9157 119.718 27.2794 119.718 27.7395V30.8789H118.326ZM133.565 30.9902C133.075 30.9902 132.645 30.8752 132.274 30.6451C131.903 30.4076 131.613 30.0699 131.405 29.6321C131.197 29.1942 131.094 28.671 131.094 28.0624C131.094 27.4538 131.197 26.9343 131.405 26.5038C131.613 26.0659 131.903 25.732 132.274 25.5019C132.645 25.2644 133.075 25.1457 133.565 25.1457C134.04 25.1457 134.456 25.2644 134.812 25.5019C135.175 25.732 135.417 26.0437 135.535 26.437H135.413L135.535 25.257H136.871C136.849 25.4871 136.827 25.7208 136.805 25.9583C136.79 26.1958 136.782 26.4296 136.782 26.6597V30.8789H135.402L135.391 29.7211H135.524C135.406 30.1071 135.164 30.4151 134.801 30.6451C134.437 30.8752 134.025 30.9902 133.565 30.9902ZM133.955 29.9215C134.392 29.9215 134.745 29.7694 135.012 29.4651C135.279 29.1534 135.413 28.6858 135.413 28.0624C135.413 27.439 135.279 26.9751 135.012 26.6708C134.745 26.3665 134.392 26.2144 133.955 26.2144C133.517 26.2144 133.164 26.3665 132.897 26.6708C132.63 26.9751 132.496 27.439 132.496 28.0624C132.496 28.6858 132.626 29.1534 132.886 29.4651C133.153 29.7694 133.509 29.9215 133.955 29.9215ZM140.48 30.9902C139.99 30.9902 139.556 30.8752 139.177 30.6451C138.806 30.4076 138.517 30.0699 138.309 29.6321C138.101 29.1942 137.997 28.671 137.997 28.0624C137.997 27.4538 138.101 26.9343 138.309 26.5038C138.517 26.0659 138.806 25.732 139.177 25.5019C139.556 25.2644 139.99 25.1457 140.48 25.1457C140.947 25.1457 141.359 25.2607 141.715 25.4908C142.079 25.7134 142.32 26.0177 142.439 26.4036H142.294V22.6854H143.686V30.8789H142.316V29.6877H142.45C142.331 30.0885 142.09 30.4076 141.726 30.6451C141.37 30.8752 140.955 30.9902 140.48 30.9902ZM140.869 29.9215C141.307 29.9215 141.66 29.7694 141.927 29.4651C142.194 29.1534 142.328 28.6858 142.328 28.0624C142.328 27.439 142.194 26.9751 141.927 26.6708C141.66 26.3665 141.307 26.2144 140.869 26.2144C140.431 26.2144 140.075 26.3665 139.8 26.6708C139.533 26.9751 139.4 27.439 139.4 28.0624C139.4 28.6858 139.533 29.1534 139.8 29.4651C140.075 29.7694 140.431 29.9215 140.869 29.9215ZM150.839 30.9902C150.26 30.9902 149.751 30.8715 149.314 30.634C148.883 30.3965 148.549 30.0588 148.312 29.6209C148.074 29.1756 147.955 28.6487 147.955 28.0401C147.955 27.4315 148.074 26.912 148.312 26.4816C148.557 26.0511 148.894 25.7208 149.325 25.4908C149.755 25.2607 150.26 25.1457 150.839 25.1457C151.21 25.1457 151.57 25.205 151.919 25.3238C152.275 25.4351 152.564 25.5984 152.787 25.8136L152.364 26.7821C152.164 26.5966 151.937 26.4593 151.685 26.3702C151.44 26.2737 151.199 26.2255 150.961 26.2255C150.464 26.2255 150.074 26.3814 149.792 26.6931C149.518 27.0048 149.38 27.4575 149.38 28.0512C149.38 28.645 149.518 29.1014 149.792 29.4205C150.074 29.7397 150.464 29.8992 150.961 29.8992C151.191 29.8992 151.429 29.8547 151.674 29.7657C151.926 29.6766 152.156 29.5393 152.364 29.3537L152.787 30.3111C152.557 30.5264 152.264 30.6934 151.907 30.8121C151.559 30.9309 151.202 30.9902 150.839 30.9902ZM156.004 30.9902C155.514 30.9902 155.084 30.8752 154.713 30.6451C154.342 30.4076 154.052 30.0699 153.844 29.6321C153.636 29.1942 153.533 28.671 153.533 28.0624C153.533 27.4538 153.636 26.9343 153.844 26.5038C154.052 26.0659 154.342 25.732 154.713 25.5019C155.084 25.2644 155.514 25.1457 156.004 25.1457C156.479 25.1457 156.895 25.2644 157.251 25.5019C157.614 25.732 157.856 26.0437 157.974 26.437H157.852L157.974 25.257H159.31C159.288 25.4871 159.266 25.7208 159.244 25.9583C159.229 26.1958 159.221 26.4296 159.221 26.6597V30.8789H157.841L157.83 29.7211H157.963C157.845 30.1071 157.603 30.4151 157.24 30.6451C156.876 30.8752 156.464 30.9902 156.004 30.9902ZM156.394 29.9215C156.831 29.9215 157.184 29.7694 157.451 29.4651C157.718 29.1534 157.852 28.6858 157.852 28.0624C157.852 27.439 157.718 26.9751 157.451 26.6708C157.184 26.3665 156.831 26.2144 156.394 26.2144C155.956 26.2144 155.603 26.3665 155.336 26.6708C155.069 26.9751 154.935 27.439 154.935 28.0624C154.935 28.6858 155.065 29.1534 155.325 29.4651C155.592 29.7694 155.948 29.9215 156.394 29.9215ZM160.737 30.8789V26.6597C160.737 26.4296 160.729 26.1958 160.714 25.9583C160.7 25.7208 160.677 25.4871 160.648 25.257H161.995L162.106 26.3702H161.972C162.128 25.9843 162.366 25.6837 162.685 25.4685C163.011 25.2533 163.397 25.1457 163.843 25.1457C164.288 25.1457 164.655 25.2533 164.945 25.4685C165.242 25.6763 165.449 26.0029 165.568 26.4482H165.39C165.546 26.0474 165.802 25.732 166.158 25.5019C166.514 25.2644 166.923 25.1457 167.383 25.1457C168.014 25.1457 168.485 25.3312 168.797 25.7023C169.108 26.0734 169.264 26.6523 169.264 27.439V30.8789H167.873V27.4946C167.873 27.0493 167.798 26.7302 167.65 26.5372C167.501 26.3368 167.264 26.2366 166.937 26.2366C166.552 26.2366 166.247 26.3739 166.025 26.6485C165.802 26.9157 165.691 27.2794 165.691 27.7395V30.8789H164.299V27.4946C164.299 27.0493 164.225 26.7302 164.076 26.5372C163.928 26.3368 163.69 26.2366 163.364 26.2366C162.978 26.2366 162.674 26.3739 162.451 26.6485C162.236 26.9157 162.128 27.2794 162.128 27.7395V30.8789H160.737ZM170.749 33.2835V26.6597C170.749 26.4296 170.742 26.1958 170.727 25.9583C170.712 25.7208 170.69 25.4871 170.66 25.257H172.007L172.13 26.437H172.007C172.119 26.0437 172.352 25.732 172.709 25.5019C173.072 25.2644 173.492 25.1457 173.967 25.1457C174.464 25.1457 174.898 25.2644 175.269 25.5019C175.64 25.732 175.93 26.0659 176.138 26.5038C176.345 26.9343 176.449 27.4538 176.449 28.0624C176.449 28.671 176.345 29.1942 176.138 29.6321C175.93 30.0699 175.64 30.4076 175.269 30.6451C174.898 30.8752 174.464 30.9902 173.967 30.9902C173.499 30.9902 173.087 30.8752 172.731 30.6451C172.375 30.4151 172.137 30.1071 172.018 29.7211H172.141V33.2835H170.749ZM173.577 29.9215C174.022 29.9215 174.379 29.7694 174.646 29.4651C174.913 29.1534 175.047 28.6858 175.047 28.0624C175.047 27.439 174.913 26.9751 174.646 26.6708C174.379 26.3665 174.022 26.2144 173.577 26.2144C173.139 26.2144 172.787 26.3665 172.519 26.6708C172.252 26.9751 172.119 27.439 172.119 28.0624C172.119 28.6858 172.252 29.1534 172.519 29.4651C172.787 29.7694 173.139 29.9215 173.577 29.9215ZM179.824 30.9902C179.334 30.9902 178.903 30.8752 178.532 30.6451C178.161 30.4076 177.872 30.0699 177.664 29.6321C177.456 29.1942 177.352 28.671 177.352 28.0624C177.352 27.4538 177.456 26.9343 177.664 26.5038C177.872 26.0659 178.161 25.732 178.532 25.5019C178.903 25.2644 179.334 25.1457 179.824 25.1457C180.299 25.1457 180.714 25.2644 181.071 25.5019C181.434 25.732 181.675 26.0437 181.794 26.437H181.672L181.794 25.257H183.13C183.108 25.4871 183.086 25.7208 183.063 25.9583C183.048 26.1958 183.041 26.4296 183.041 26.6597V30.8789H181.661L181.649 29.7211H181.783C181.664 30.1071 181.423 30.4151 181.059 30.6451C180.696 30.8752 180.284 30.9902 179.824 30.9902ZM180.213 29.9215C180.651 29.9215 181.004 29.7694 181.271 29.4651C181.538 29.1534 181.672 28.6858 181.672 28.0624C181.672 27.439 181.538 26.9751 181.271 26.6708C181.004 26.3665 180.651 26.2144 180.213 26.2144C179.775 26.2144 179.423 26.3665 179.156 26.6708C178.889 26.9751 178.755 27.439 178.755 28.0624C178.755 28.6858 178.885 29.1534 179.145 29.4651C179.412 29.7694 179.768 29.9215 180.213 29.9215ZM184.556 30.8789V25.257H185.948V30.8789H184.556ZM184.478 24.1994V22.8412H186.026V24.1994H184.478ZM190.064 33.3726C189.545 33.3726 189.073 33.3169 188.65 33.2056C188.235 33.0943 187.864 32.9236 187.537 32.6935L187.838 31.6916C188.053 31.8326 188.275 31.9476 188.505 32.0367C188.736 32.1257 188.973 32.1925 189.218 32.2371C189.463 32.2816 189.712 32.3039 189.964 32.3039C190.483 32.3039 190.869 32.174 191.122 31.9142C191.381 31.6619 191.511 31.2982 191.511 30.8232V29.4762H191.623C191.504 29.8621 191.263 30.1701 190.899 30.4002C190.543 30.6303 190.131 30.7453 189.663 30.7453C189.159 30.7453 188.717 30.634 188.338 30.4113C187.967 30.1813 187.678 29.8547 187.47 29.4317C187.262 29.0086 187.158 28.5114 187.158 27.9399C187.158 27.3684 187.262 26.8749 187.47 26.4593C187.678 26.0363 187.967 25.7134 188.338 25.4908C188.717 25.2607 189.159 25.1457 189.663 25.1457C190.138 25.1457 190.55 25.2607 190.899 25.4908C191.255 25.7134 191.493 26.0177 191.611 26.4036L191.511 26.3368L191.623 25.257H192.97C192.94 25.4871 192.918 25.7208 192.903 25.9583C192.888 26.1958 192.881 26.4296 192.881 26.6597V30.6563C192.881 31.5394 192.639 32.2111 192.157 32.6712C191.682 33.1388 190.984 33.3726 190.064 33.3726ZM190.042 29.6766C190.487 29.6766 190.84 29.5282 191.099 29.2313C191.367 28.927 191.5 28.4965 191.5 27.9399C191.5 27.3833 191.367 26.9565 191.099 26.6597C190.84 26.3628 190.487 26.2144 190.042 26.2144C189.589 26.2144 189.229 26.3628 188.962 26.6597C188.695 26.9565 188.561 27.3833 188.561 27.9399C188.561 28.4965 188.695 28.927 188.962 29.2313C189.229 29.5282 189.589 29.6766 190.042 29.6766ZM194.384 30.8789V26.6597C194.384 26.4296 194.377 26.1958 194.362 25.9583C194.347 25.7208 194.325 25.4871 194.295 25.257H195.642L195.754 26.3702H195.62C195.798 25.9769 196.062 25.6763 196.41 25.4685C196.759 25.2533 197.164 25.1457 197.624 25.1457C198.284 25.1457 198.782 25.3312 199.116 25.7023C199.45 26.0734 199.617 26.6523 199.617 27.439V30.8789H198.225V27.5057C198.225 27.053 198.136 26.7302 197.958 26.5372C197.787 26.3368 197.527 26.2366 197.179 26.2366C196.748 26.2366 196.407 26.3702 196.154 26.6374C195.902 26.9046 195.776 27.2608 195.776 27.7061V30.8789H194.384ZM203.096 30.9902C202.613 30.9902 202.168 30.9346 201.76 30.8232C201.359 30.7045 201.022 30.5412 200.747 30.3334L201.137 29.3983C201.419 29.5912 201.73 29.7397 202.072 29.8436C202.413 29.9475 202.758 29.9994 203.107 29.9994C203.478 29.9994 203.753 29.9364 203.931 29.8102C204.116 29.684 204.209 29.5133 204.209 29.2981C204.209 29.1274 204.15 28.9938 204.031 28.8973C203.92 28.7934 203.738 28.7155 203.486 28.6635L202.372 28.452C201.897 28.3481 201.534 28.17 201.281 27.9177C201.036 27.6653 200.914 27.3351 200.914 26.9269C200.914 26.578 201.007 26.27 201.192 26.0029C201.385 25.7357 201.656 25.5279 202.005 25.3794C202.361 25.2236 202.777 25.1457 203.252 25.1457C203.667 25.1457 204.057 25.2013 204.421 25.3126C204.792 25.424 205.103 25.591 205.356 25.8136L204.955 26.7153C204.725 26.5298 204.461 26.3851 204.165 26.2812C203.868 26.1773 203.578 26.1253 203.296 26.1253C202.91 26.1253 202.628 26.1958 202.45 26.3368C202.272 26.4704 202.183 26.6448 202.183 26.8601C202.183 27.0233 202.235 27.1606 202.339 27.272C202.45 27.3759 202.621 27.4538 202.851 27.5057L203.964 27.7173C204.461 27.8137 204.836 27.9844 205.089 28.2294C205.348 28.4669 205.478 28.7934 205.478 29.209C205.478 29.5801 205.378 29.8992 205.178 30.1664C204.977 30.4336 204.699 30.6377 204.343 30.7787C203.986 30.9197 203.571 30.9902 203.096 30.9902Z" fill="black"/>
<path d="M57.8674 58.2286C57.8674 54.7153 60.7155 51.8672 64.2289 51.8672H96.0361C99.5494 51.8672 102.398 54.7153 102.398 58.2286V121.446H57.8674V58.2286Z" fill="#FF0090"/>
<path d="M105.578 72.5411C105.578 69.0278 108.426 66.1797 111.939 66.1797H143.747C147.26 66.1797 150.108 69.0278 150.108 72.5411V121.445H105.578V72.5411Z" fill="#FF0090"/>
<path d="M153.289 81.2892C153.289 77.7759 156.137 74.9277 159.65 74.9277H191.457C194.971 74.9277 197.819 77.7758 197.819 81.2892V121.446H153.289V81.2892Z" fill="#FF0090"/>
<path d="M201 91.6261C201 88.1128 203.848 85.2646 207.361 85.2646H239.168C242.682 85.2646 245.53 88.1128 245.53 91.6261V121.843H201V91.6261Z" fill="#FF0090"/>
<path d="M248.71 93.2169C248.71 89.7036 251.559 86.8555 255.072 86.8555H286.879C290.392 86.8555 293.241 89.7036 293.241 93.2169V121.843H248.71V93.2169Z" fill="#FF0090"/>
<path d="M296.421 105.144C296.421 101.63 299.269 98.7822 302.782 98.7822H334.59C338.103 98.7822 340.951 101.63 340.951 105.144V121.047H296.421V105.144Z" fill="#FF0090"/>
<path d="M391.843 80.4943H398.204" stroke="#FF0090" stroke-width="1.59036" stroke-linecap="round" stroke-linejoin="round"/>
<path d="M407.921 86.3613V84.6596H410.498V76.8669H411.484L408.176 78.8389V76.8987L411.086 75.1493H412.549V84.6596H414.967V86.3613H407.921ZM421.297 86.3613V84.8505L425.018 80.97C425.485 80.4823 425.829 80.0317 426.052 79.6182C426.274 79.2047 426.386 78.7806 426.386 78.3459C426.386 77.8052 426.216 77.397 425.877 77.1213C425.538 76.8457 425.045 76.7078 424.398 76.7078C423.878 76.7078 423.38 76.8033 422.903 76.9941C422.426 77.1743 421.959 77.4606 421.503 77.8529L420.835 76.3261C421.291 75.9233 421.853 75.5999 422.521 75.356C423.2 75.1122 423.91 74.9902 424.652 74.9902C425.458 74.9902 426.137 75.1122 426.688 75.356C427.25 75.5999 427.674 75.9551 427.96 76.4216C428.257 76.8881 428.406 77.4553 428.406 78.1233C428.406 78.823 428.241 79.491 427.913 80.1271C427.584 80.7527 427.075 81.41 426.386 82.0992L423.285 85.2004V84.6596H428.851V86.3613H421.297ZM434.761 86.5204C433.817 86.5204 433.017 86.303 432.359 85.8683C431.702 85.423 431.198 84.7869 430.848 83.9599C430.509 83.1329 430.34 82.131 430.34 80.9541C430.34 79.6818 430.536 78.6057 430.928 77.7257C431.32 76.8351 431.877 76.1565 432.598 75.69C433.329 75.2235 434.204 74.9902 435.222 74.9902C435.826 74.9902 436.425 75.1016 437.019 75.3242C437.613 75.5363 438.122 75.8437 438.546 76.2466L437.862 77.7734C437.47 77.4129 437.046 77.1478 436.59 76.9782C436.134 76.798 435.673 76.7078 435.206 76.7078C434.252 76.7078 433.526 77.0312 433.027 77.678C432.529 78.3247 432.28 79.2895 432.28 80.5724V81.7652H432.089C432.174 81.2245 432.354 80.7633 432.63 80.3816C432.905 79.9893 433.261 79.6924 433.695 79.491C434.13 79.2789 434.612 79.1729 435.142 79.1729C435.8 79.1729 436.383 79.3266 436.892 79.6341C437.401 79.9416 437.798 80.3657 438.085 80.9064C438.381 81.4471 438.53 82.0674 438.53 82.7671C438.53 83.4881 438.366 84.1348 438.037 84.7074C437.719 85.2693 437.279 85.7146 436.717 86.0433C436.155 86.3613 435.503 86.5204 434.761 86.5204ZM434.649 84.8982C435.042 84.8982 435.386 84.8134 435.683 84.6437C435.98 84.4741 436.208 84.2355 436.367 83.9281C436.537 83.61 436.621 83.2495 436.621 82.8466C436.621 82.4331 436.537 82.0727 436.367 81.7652C436.208 81.4577 435.98 81.2192 435.683 81.0495C435.386 80.8693 435.042 80.7792 434.649 80.7792C434.257 80.7792 433.913 80.8693 433.616 81.0495C433.319 81.2192 433.086 81.4577 432.916 81.7652C432.746 82.0727 432.661 82.4331 432.661 82.8466C432.661 83.2495 432.746 83.61 432.916 83.9281C433.086 84.2355 433.319 84.4741 433.616 84.6437C433.913 84.8134 434.257 84.8982 434.649 84.8982ZM443.724 86.5204C442.95 86.5204 442.208 86.409 441.498 86.1864C440.787 85.9531 440.204 85.6351 439.748 85.2322L440.416 83.6895C440.915 84.0712 441.429 84.3522 441.959 84.5324C442.5 84.7127 443.067 84.8028 443.661 84.8028C444.382 84.8028 444.928 84.6596 445.299 84.3734C445.67 84.0871 445.855 83.6683 445.855 83.117C445.855 82.5869 445.67 82.1893 445.299 81.9242C444.938 81.6486 444.408 81.5107 443.708 81.5107H441.895V79.8727H443.533C444.138 79.8727 444.62 79.7242 444.981 79.4274C445.341 79.1305 445.521 78.7223 445.521 78.2028C445.521 77.7151 445.352 77.344 445.012 77.0895C444.684 76.8351 444.207 76.7078 443.581 76.7078C443.009 76.7078 442.478 76.8033 441.991 76.9941C441.503 77.1743 441.042 77.4606 440.607 77.8529L439.939 76.3261C440.395 75.9021 440.957 75.5734 441.625 75.3401C442.303 75.1069 443.014 74.9902 443.756 74.9902C444.922 74.9902 445.834 75.2553 446.491 75.7854C447.159 76.3049 447.493 77.0312 447.493 77.9642C447.493 78.6322 447.303 79.21 446.921 79.6977C446.55 80.1748 446.036 80.4929 445.378 80.6519V80.4611C446.152 80.5883 446.751 80.9064 447.175 81.4153C447.61 81.9136 447.827 82.5392 447.827 83.2919C447.827 84.2886 447.462 85.0784 446.73 85.6616C445.998 86.2341 444.996 86.5204 443.724 86.5204Z" fill="black"/>
</svg>
