<svg width="231" height="160" viewBox="0 0 231 160" fill="none" xmlns="http://www.w3.org/2000/svg">
<rect y="0.963867" width="230.602" height="159.036" rx="12.7229" fill="white"/>
<circle cx="19.0838" cy="121.831" r="3.18072" fill="#FF0090"/>
<circle cx="19.0838" cy="137.734" r="3.18072" fill="#00D2FE"/>
<circle cx="86.6741" cy="121.831" r="3.18072" fill="#5D6AE8"/>
<circle cx="154.264" cy="121.831" r="3.18072" fill="#2100FF"/>
<circle cx="86.6741" cy="137.734" r="3.18072" fill="#F38478"/>
<circle cx="154.264" cy="137.734" r="3.18072" fill="#B2B2B2"/>
<path d="M31.5361 124.541C31.0325 124.541 30.6137 124.456 30.2797 124.287C29.9457 124.112 29.6966 123.855 29.5322 123.516C29.3732 123.171 29.2937 122.749 29.2937 122.251V118.864H29.9457V122.219C29.9457 122.797 30.073 123.232 30.3274 123.523C30.5819 123.815 30.9848 123.961 31.5361 123.961C32.0556 123.961 32.4506 123.815 32.7209 123.523C32.9913 123.232 33.1265 122.797 33.1265 122.219V118.864H33.7785V122.251C33.7785 122.749 33.6937 123.171 33.524 123.516C33.3544 123.855 33.1026 124.112 32.7686 124.287C32.4346 124.456 32.0238 124.541 31.5361 124.541ZM34.5386 124.47L37.0116 118.864H37.5841L40.0969 124.47H39.413L38.7133 122.871L39.0075 123.038H35.5803L35.8983 122.871L35.2145 124.47H34.5386ZM37.2899 119.619L36.0017 122.641L35.8109 122.498H38.7689L38.6258 122.641L37.3058 119.619H37.2899ZM40.9426 124.47V118.864H44.5209V119.404H41.5867V121.353H44.346V121.901H41.5867V123.921H44.5209V124.47H40.9426Z" fill="black"/>
<path d="M29.2539 141.852C29.1691 141.852 29.071 141.847 28.9597 141.836C28.8537 141.831 28.745 141.815 28.6337 141.788V141.24C28.7344 141.261 28.8272 141.277 28.912 141.288C29.0021 141.303 29.0816 141.311 29.1506 141.311C29.3944 141.311 29.5773 141.234 29.6992 141.081C29.8212 140.932 29.8821 140.694 29.8821 140.365V134.767H30.5421V140.373C30.5421 140.691 30.4944 140.961 30.399 141.184C30.3089 141.407 30.1684 141.574 29.9775 141.685C29.792 141.796 29.5508 141.852 29.2539 141.852ZM33.5089 140.445C33.1273 140.445 32.7933 140.362 32.507 140.198C32.2261 140.028 32.0087 139.79 31.855 139.482C31.7012 139.17 31.6244 138.801 31.6244 138.377C31.6244 137.948 31.7012 137.579 31.855 137.272C32.0087 136.964 32.2261 136.728 32.507 136.564C32.7933 136.394 33.1273 136.31 33.5089 136.31C33.8959 136.31 34.2299 136.394 34.5109 136.564C34.7971 136.728 35.0171 136.964 35.1709 137.272C35.3299 137.579 35.4094 137.948 35.4094 138.377C35.4094 138.801 35.3299 139.17 35.1709 139.482C35.0171 139.79 34.7971 140.028 34.5109 140.198C34.2299 140.362 33.8959 140.445 33.5089 140.445ZM33.5089 139.92C33.8906 139.92 34.1928 139.79 34.4155 139.53C34.6381 139.265 34.7494 138.881 34.7494 138.377C34.7494 137.868 34.6381 137.484 34.4155 137.224C34.1928 136.959 33.8906 136.827 33.5089 136.827C33.1326 136.827 32.833 136.959 32.6104 137.224C32.3877 137.484 32.2764 137.868 32.2764 138.377C32.2764 138.881 32.3877 139.265 32.6104 139.53C32.833 139.79 33.1326 139.92 33.5089 139.92ZM36.3978 140.373V137.343C36.3978 137.184 36.3925 137.023 36.3818 136.858C36.3765 136.694 36.3659 136.535 36.35 136.381H36.9703L37.0498 137.351L36.9385 137.359C36.9915 137.121 37.0843 136.925 37.2168 136.771C37.3493 136.617 37.5057 136.503 37.6859 136.429C37.8662 136.349 38.0544 136.31 38.2505 136.31C38.33 136.31 38.399 136.312 38.4573 136.318C38.5209 136.323 38.5792 136.336 38.6322 136.357L38.6243 136.93C38.5447 136.903 38.4705 136.888 38.4016 136.882C38.338 136.872 38.2638 136.866 38.179 136.866C37.9457 136.866 37.7416 136.922 37.5667 137.033C37.397 137.145 37.2672 137.288 37.177 137.463C37.0922 137.638 37.0498 137.823 37.0498 138.019V140.373H36.3978ZM40.7667 140.445C40.4168 140.445 40.1093 140.362 39.8442 140.198C39.5792 140.028 39.3724 139.79 39.224 139.482C39.0809 139.175 39.0093 138.807 39.0093 138.377C39.0093 137.942 39.0809 137.571 39.224 137.264C39.3724 136.956 39.5792 136.721 39.8442 136.556C40.1093 136.392 40.4168 136.31 40.7667 136.31C41.1271 136.31 41.4373 136.4 41.697 136.58C41.9621 136.76 42.1397 137.004 42.2298 137.312H42.1344V134.521H42.7785V140.373H42.1423V139.419H42.2298C42.145 139.737 41.97 139.989 41.705 140.174C41.4399 140.354 41.1271 140.445 40.7667 140.445ZM40.9018 139.92C41.2782 139.92 41.5804 139.79 41.8083 139.53C42.0363 139.265 42.1503 138.881 42.1503 138.377C42.1503 137.868 42.0363 137.484 41.8083 137.224C41.5804 136.959 41.2782 136.827 40.9018 136.827C40.5254 136.827 40.2233 136.959 39.9953 137.224C39.7727 137.484 39.6613 137.868 39.6613 138.377C39.6613 138.881 39.7727 139.265 39.9953 139.53C40.2233 139.79 40.5254 139.92 40.9018 139.92ZM45.5426 140.445C45.1874 140.445 44.8773 140.362 44.6122 140.198C44.3472 140.028 44.1404 139.79 43.992 139.482C43.8488 139.175 43.7773 138.807 43.7773 138.377C43.7773 137.942 43.8488 137.571 43.992 137.264C44.1404 136.956 44.3472 136.721 44.6122 136.556C44.8773 136.392 45.1874 136.31 45.5426 136.31C45.9031 136.31 46.2132 136.402 46.4729 136.588C46.738 136.768 46.9129 137.015 46.9978 137.328H46.9023L46.9898 136.381H47.61C47.5941 136.535 47.5782 136.691 47.5623 136.85C47.5517 137.004 47.5464 137.155 47.5464 137.304V140.373H46.9023V139.435H46.9898C46.905 139.748 46.73 139.994 46.465 140.174C46.1999 140.354 45.8925 140.445 45.5426 140.445ZM45.6698 139.92C46.0515 139.92 46.3537 139.79 46.5763 139.53C46.799 139.265 46.9103 138.881 46.9103 138.377C46.9103 137.868 46.799 137.484 46.5763 137.224C46.3537 136.959 46.0515 136.827 45.6698 136.827C45.2934 136.827 44.9913 136.959 44.7633 137.224C44.5407 137.484 44.4293 137.868 44.4293 138.377C44.4293 138.881 44.5407 139.265 44.7633 139.53C44.9913 139.79 45.2934 139.92 45.6698 139.92ZM48.7918 140.373V137.304C48.7918 137.155 48.7838 137.004 48.7679 136.85C48.7573 136.691 48.7441 136.535 48.7281 136.381H49.3484L49.4279 137.256H49.3325C49.4491 136.948 49.6347 136.715 49.8891 136.556C50.1489 136.392 50.4484 136.31 50.7877 136.31C51.2595 136.31 51.6147 136.437 51.8532 136.691C52.0971 136.941 52.219 137.335 52.219 137.876V140.373H51.5749V137.916C51.5749 137.54 51.498 137.267 51.3443 137.097C51.1959 136.922 50.9626 136.834 50.6445 136.834C50.2734 136.834 49.9792 136.948 49.7619 137.176C49.5445 137.404 49.4359 137.709 49.4359 138.091V140.373H48.7918Z" fill="black"/>
<path d="M98.7452 124.541C98.2946 124.541 97.8917 124.483 97.5366 124.366C97.1814 124.25 96.8713 124.083 96.6062 123.865L96.8447 123.341C97.0303 123.478 97.2158 123.595 97.4014 123.69C97.5922 123.781 97.7963 123.849 98.0137 123.897C98.231 123.94 98.4749 123.961 98.7452 123.961C99.217 123.961 99.5669 123.873 99.7949 123.698C100.023 123.523 100.137 123.29 100.137 122.999C100.137 122.749 100.057 122.559 99.8982 122.426C99.7392 122.294 99.4609 122.188 99.0633 122.108L98.2284 121.941C97.7141 121.835 97.3298 121.663 97.0753 121.424C96.8262 121.186 96.7016 120.862 96.7016 120.454C96.7016 120.12 96.7864 119.829 96.9561 119.579C97.131 119.33 97.3749 119.137 97.6876 118.999C98.0004 118.861 98.3635 118.792 98.777 118.792C99.1746 118.792 99.5378 118.853 99.8664 118.975C100.195 119.092 100.476 119.264 100.709 119.492L100.479 120.001C100.23 119.778 99.9672 119.619 99.6915 119.524C99.4211 119.423 99.1137 119.373 98.7691 119.373C98.3344 119.373 97.9898 119.468 97.7353 119.659C97.4862 119.844 97.3616 120.099 97.3616 120.422C97.3616 120.682 97.4411 120.886 97.6002 121.035C97.7592 121.178 98.0216 121.286 98.3874 121.361L99.2303 121.528C99.771 121.639 100.169 121.806 100.423 122.029C100.678 122.251 100.805 122.564 100.805 122.967C100.805 123.274 100.72 123.547 100.55 123.786C100.386 124.024 100.15 124.21 99.8426 124.342C99.5351 124.475 99.1693 124.541 98.7452 124.541ZM103.318 124.541C102.963 124.541 102.653 124.459 102.388 124.295C102.122 124.125 101.916 123.887 101.767 123.579C101.624 123.272 101.553 122.903 101.553 122.474C101.553 122.039 101.624 121.668 101.767 121.361C101.916 121.053 102.122 120.817 102.388 120.653C102.653 120.489 102.963 120.406 103.318 120.406C103.678 120.406 103.988 120.499 104.248 120.685C104.513 120.865 104.688 121.111 104.773 121.424H104.678L104.765 120.478H105.385C105.369 120.632 105.354 120.788 105.338 120.947C105.327 121.101 105.322 121.252 105.322 121.4V124.47H104.678V123.531H104.765C104.68 123.844 104.505 124.091 104.24 124.271C103.975 124.451 103.668 124.541 103.318 124.541ZM103.445 124.016C103.827 124.016 104.129 123.887 104.352 123.627C104.574 123.362 104.686 122.977 104.686 122.474C104.686 121.965 104.574 121.581 104.352 121.321C104.129 121.056 103.827 120.923 103.445 120.923C103.069 120.923 102.767 121.056 102.539 121.321C102.316 121.581 102.205 121.965 102.205 122.474C102.205 122.977 102.316 123.362 102.539 123.627C102.767 123.887 103.069 124.016 103.445 124.016ZM107.975 124.541C107.503 124.541 107.145 124.411 106.901 124.152C106.662 123.892 106.543 123.494 106.543 122.959V120.478H107.187V122.943C107.187 123.309 107.262 123.579 107.41 123.754C107.558 123.924 107.789 124.009 108.102 124.009C108.452 124.009 108.733 123.895 108.945 123.667C109.157 123.433 109.263 123.129 109.263 122.752V120.478H109.907V124.47H109.279V123.571H109.382C109.271 123.879 109.09 124.117 108.841 124.287C108.597 124.456 108.309 124.541 107.975 124.541ZM112.667 124.541C112.317 124.541 112.01 124.459 111.745 124.295C111.48 124.125 111.273 123.887 111.125 123.579C110.982 123.272 110.91 122.903 110.91 122.474C110.91 122.039 110.982 121.668 111.125 121.361C111.273 121.053 111.48 120.817 111.745 120.653C112.01 120.489 112.317 120.406 112.667 120.406C113.028 120.406 113.338 120.496 113.598 120.677C113.863 120.857 114.04 121.101 114.13 121.408H114.035V118.617H114.679V124.47H114.043V123.516H114.13C114.046 123.834 113.871 124.085 113.606 124.271C113.341 124.451 113.028 124.541 112.667 124.541ZM112.802 124.016C113.179 124.016 113.481 123.887 113.709 123.627C113.937 123.362 114.051 122.977 114.051 122.474C114.051 121.965 113.937 121.581 113.709 121.321C113.481 121.056 113.179 120.923 112.802 120.923C112.426 120.923 112.124 121.056 111.896 121.321C111.673 121.581 111.562 121.965 111.562 122.474C111.562 122.977 111.673 123.362 111.896 123.627C112.124 123.887 112.426 124.016 112.802 124.016ZM115.924 124.47V120.478H116.569V124.47H115.924ZM115.845 119.571V118.848H116.64V119.571H115.845ZM119.407 124.47L121.881 118.864H122.453L124.966 124.47H124.282L123.582 122.871L123.876 123.038H120.449L120.767 122.871L120.083 124.47H119.407ZM122.159 119.619L120.871 122.641L120.68 122.498H123.638L123.495 122.641L122.175 119.619H122.159ZM125.724 124.47V121.44C125.724 121.281 125.719 121.119 125.708 120.955C125.703 120.791 125.692 120.632 125.676 120.478H126.297L126.376 121.448L126.265 121.456C126.318 121.217 126.411 121.021 126.543 120.868C126.676 120.714 126.832 120.6 127.012 120.526C127.192 120.446 127.381 120.406 127.577 120.406C127.656 120.406 127.725 120.409 127.784 120.414C127.847 120.42 127.905 120.433 127.958 120.454L127.951 121.027C127.871 121 127.797 120.984 127.728 120.979C127.664 120.968 127.59 120.963 127.505 120.963C127.272 120.963 127.068 121.019 126.893 121.13C126.723 121.241 126.593 121.384 126.503 121.559C126.418 121.734 126.376 121.92 126.376 122.116V124.47H125.724ZM130.109 124.541C129.753 124.541 129.443 124.459 129.178 124.295C128.913 124.125 128.706 123.887 128.558 123.579C128.415 123.272 128.343 122.903 128.343 122.474C128.343 122.039 128.415 121.668 128.558 121.361C128.706 121.053 128.913 120.817 129.178 120.653C129.443 120.489 129.753 120.406 130.109 120.406C130.469 120.406 130.779 120.499 131.039 120.685C131.304 120.865 131.479 121.111 131.564 121.424H131.468L131.556 120.478H132.176C132.16 120.632 132.144 120.788 132.128 120.947C132.118 121.101 132.112 121.252 132.112 121.4V124.47H131.468V123.531H131.556C131.471 123.844 131.296 124.091 131.031 124.271C130.766 124.451 130.459 124.541 130.109 124.541ZM130.236 124.016C130.618 124.016 130.92 123.887 131.142 123.627C131.365 123.362 131.476 122.977 131.476 122.474C131.476 121.965 131.365 121.581 131.142 121.321C130.92 121.056 130.618 120.923 130.236 120.923C129.859 120.923 129.557 121.056 129.329 121.321C129.107 121.581 128.995 121.965 128.995 122.474C128.995 122.977 129.107 123.362 129.329 123.627C129.557 123.887 129.859 124.016 130.236 124.016ZM135.362 124.541C135.001 124.541 134.691 124.451 134.431 124.271C134.172 124.085 133.997 123.834 133.907 123.516H133.994V124.47H133.358V118.617H134.002V121.408H133.907C133.997 121.101 134.172 120.857 134.431 120.677C134.691 120.496 135.001 120.406 135.362 120.406C135.722 120.406 136.032 120.491 136.292 120.661C136.557 120.825 136.761 121.061 136.904 121.369C137.053 121.676 137.127 122.044 137.127 122.474C137.127 122.903 137.053 123.272 136.904 123.579C136.756 123.887 136.549 124.125 136.284 124.295C136.024 124.459 135.717 124.541 135.362 124.541ZM135.227 124.016C135.603 124.016 135.905 123.887 136.133 123.627C136.361 123.367 136.475 122.983 136.475 122.474C136.475 121.965 136.361 121.581 136.133 121.321C135.905 121.056 135.603 120.923 135.227 120.923C134.85 120.923 134.548 121.056 134.32 121.321C134.097 121.581 133.986 121.965 133.986 122.474C133.986 122.977 134.097 123.362 134.32 123.627C134.548 123.887 134.85 124.016 135.227 124.016ZM138.126 124.47V120.478H138.77V124.47H138.126ZM138.046 119.571V118.848H138.841V119.571H138.046ZM141.539 124.541C141.184 124.541 140.874 124.459 140.609 124.295C140.344 124.125 140.137 123.887 139.989 123.579C139.846 123.272 139.774 122.903 139.774 122.474C139.774 122.039 139.846 121.668 139.989 121.361C140.137 121.053 140.344 120.817 140.609 120.653C140.874 120.489 141.184 120.406 141.539 120.406C141.9 120.406 142.21 120.499 142.47 120.685C142.735 120.865 142.91 121.111 142.995 121.424H142.899L142.987 120.478H143.607C143.591 120.632 143.575 120.788 143.559 120.947C143.549 121.101 143.543 121.252 143.543 121.4V124.47H142.899V123.531H142.987C142.902 123.844 142.727 124.091 142.462 124.271C142.197 124.451 141.889 124.541 141.539 124.541ZM141.667 124.016C142.048 124.016 142.35 123.887 142.573 123.627C142.796 123.362 142.907 122.977 142.907 122.474C142.907 121.965 142.796 121.581 142.573 121.321C142.35 121.056 142.048 120.923 141.667 120.923C141.29 120.923 140.988 121.056 140.76 121.321C140.537 121.581 140.426 121.965 140.426 122.474C140.426 122.977 140.537 123.362 140.76 123.627C140.988 123.887 141.29 124.016 141.667 124.016Z" fill="black"/>
<path d="M166.948 124.541C166.386 124.541 165.909 124.425 165.517 124.191C165.124 123.958 164.822 123.627 164.61 123.197C164.403 122.768 164.3 122.256 164.3 121.663C164.3 121.069 164.403 120.56 164.61 120.136C164.822 119.707 165.124 119.375 165.517 119.142C165.909 118.909 166.386 118.792 166.948 118.792C167.345 118.792 167.701 118.853 168.013 118.975C168.326 119.097 168.599 119.275 168.832 119.508L168.586 120.033C168.331 119.81 168.08 119.648 167.83 119.548C167.581 119.442 167.29 119.389 166.956 119.389C166.314 119.389 165.827 119.587 165.493 119.985C165.159 120.382 164.992 120.942 164.992 121.663C164.992 122.145 165.066 122.559 165.214 122.903C165.363 123.242 165.583 123.502 165.874 123.682C166.171 123.857 166.532 123.945 166.956 123.945C167.29 123.945 167.581 123.895 167.83 123.794C168.08 123.688 168.331 123.521 168.586 123.293L168.832 123.826C168.599 124.054 168.326 124.231 168.013 124.358C167.701 124.48 167.345 124.541 166.948 124.541ZM169.871 124.47V118.617H170.515V121.361H170.412C170.523 121.048 170.708 120.812 170.968 120.653C171.233 120.489 171.538 120.406 171.883 120.406C172.36 120.406 172.715 120.536 172.948 120.796C173.181 121.05 173.298 121.437 173.298 121.957V124.47H172.654V121.997C172.654 121.626 172.58 121.355 172.431 121.186C172.288 121.016 172.055 120.931 171.732 120.931C171.361 120.931 171.064 121.045 170.841 121.273C170.624 121.501 170.515 121.801 170.515 122.172V124.47H169.871ZM174.53 124.47V120.478H175.174V124.47H174.53ZM174.451 119.571V118.848H175.246V119.571H174.451ZM176.425 124.47V121.4C176.425 121.252 176.417 121.101 176.401 120.947C176.39 120.788 176.377 120.632 176.361 120.478H176.982L177.061 121.353H176.966C177.082 121.045 177.268 120.812 177.522 120.653C177.782 120.489 178.082 120.406 178.421 120.406C178.893 120.406 179.248 120.534 179.486 120.788C179.73 121.037 179.852 121.432 179.852 121.973V124.47H179.208V122.013C179.208 121.636 179.131 121.363 178.977 121.194C178.829 121.019 178.596 120.931 178.278 120.931C177.907 120.931 177.612 121.045 177.395 121.273C177.178 121.501 177.069 121.806 177.069 122.188V124.47H176.425ZM182.603 124.541C182.248 124.541 181.938 124.459 181.673 124.295C181.408 124.125 181.201 123.887 181.052 123.579C180.909 123.272 180.838 122.903 180.838 122.474C180.838 122.039 180.909 121.668 181.052 121.361C181.201 121.053 181.408 120.817 181.673 120.653C181.938 120.489 182.248 120.406 182.603 120.406C182.963 120.406 183.274 120.499 183.533 120.685C183.798 120.865 183.973 121.111 184.058 121.424H183.963L184.05 120.478H184.67C184.655 120.632 184.639 120.788 184.623 120.947C184.612 121.101 184.607 121.252 184.607 121.4V124.47H183.963V123.531H184.05C183.965 123.844 183.79 124.091 183.525 124.271C183.26 124.451 182.953 124.541 182.603 124.541ZM182.73 124.016C183.112 124.016 183.414 123.887 183.637 123.627C183.859 123.362 183.971 122.977 183.971 122.474C183.971 121.965 183.859 121.581 183.637 121.321C183.414 121.056 183.112 120.923 182.73 120.923C182.354 120.923 182.052 121.056 181.824 121.321C181.601 121.581 181.49 121.965 181.49 122.474C181.49 122.977 181.601 123.362 181.824 123.627C182.052 123.887 182.354 124.016 182.73 124.016Z" fill="black"/>
<path d="M99.3575 140.445C98.7956 140.445 98.3185 140.328 97.9262 140.095C97.5339 139.861 97.2317 139.53 97.0197 139.101C96.8129 138.671 96.7096 138.16 96.7096 137.566C96.7096 136.972 96.8129 136.463 97.0197 136.039C97.2317 135.61 97.5339 135.279 97.9262 135.045C98.3185 134.812 98.7956 134.695 99.3575 134.695C99.7551 134.695 100.11 134.756 100.423 134.878C100.736 135 101.009 135.178 101.242 135.411L100.996 135.936C100.741 135.713 100.489 135.552 100.24 135.451C99.991 135.345 99.6994 135.292 99.3655 135.292C98.724 135.292 98.2363 135.491 97.9023 135.888C97.5684 136.286 97.4014 136.845 97.4014 137.566C97.4014 138.048 97.4756 138.462 97.624 138.807C97.7725 139.146 97.9925 139.406 98.284 139.586C98.5809 139.761 98.9414 139.848 99.3655 139.848C99.6994 139.848 99.991 139.798 100.24 139.697C100.489 139.591 100.741 139.424 100.996 139.196L101.242 139.729C101.009 139.957 100.736 140.134 100.423 140.262C100.11 140.384 99.7551 140.445 99.3575 140.445ZM103.675 140.445C103.32 140.445 103.01 140.362 102.745 140.198C102.48 140.028 102.273 139.79 102.124 139.482C101.981 139.175 101.91 138.807 101.91 138.377C101.91 137.942 101.981 137.571 102.124 137.264C102.273 136.956 102.48 136.721 102.745 136.556C103.01 136.392 103.32 136.31 103.675 136.31C104.036 136.31 104.346 136.402 104.605 136.588C104.871 136.768 105.045 137.015 105.13 137.328H105.035L105.122 136.381H105.743C105.727 136.535 105.711 136.691 105.695 136.85C105.684 137.004 105.679 137.155 105.679 137.304V140.373H105.035V139.435H105.122C105.038 139.748 104.863 139.994 104.598 140.174C104.332 140.354 104.025 140.445 103.675 140.445ZM103.802 139.92C104.184 139.92 104.486 139.79 104.709 139.53C104.931 139.265 105.043 138.881 105.043 138.377C105.043 137.868 104.931 137.484 104.709 137.224C104.486 136.959 104.184 136.827 103.802 136.827C103.426 136.827 103.124 136.959 102.896 137.224C102.673 137.484 102.562 137.868 102.562 138.377C102.562 138.881 102.673 139.265 102.896 139.53C103.124 139.79 103.426 139.92 103.802 139.92ZM106.924 140.373V137.304C106.924 137.155 106.916 137.004 106.9 136.85C106.89 136.691 106.877 136.535 106.861 136.381H107.481L107.56 137.256H107.465C107.582 136.948 107.767 136.715 108.022 136.556C108.281 136.392 108.581 136.31 108.92 136.31C109.392 136.31 109.747 136.437 109.986 136.691C110.23 136.941 110.352 137.335 110.352 137.876V140.373H109.707V137.916C109.707 137.54 109.631 137.267 109.477 137.097C109.328 136.922 109.095 136.834 108.777 136.834C108.406 136.834 108.112 136.948 107.894 137.176C107.677 137.404 107.568 137.709 107.568 138.091V140.373H106.924ZM113.102 140.445C112.747 140.445 112.437 140.362 112.172 140.198C111.907 140.028 111.7 139.79 111.552 139.482C111.409 139.175 111.337 138.807 111.337 138.377C111.337 137.942 111.409 137.571 111.552 137.264C111.7 136.956 111.907 136.721 112.172 136.556C112.437 136.392 112.747 136.31 113.102 136.31C113.463 136.31 113.773 136.402 114.033 136.588C114.298 136.768 114.473 137.015 114.558 137.328H114.462L114.55 136.381H115.17C115.154 136.535 115.138 136.691 115.122 136.85C115.111 137.004 115.106 137.155 115.106 137.304V140.373H114.462V139.435H114.55C114.465 139.748 114.29 139.994 114.025 140.174C113.76 140.354 113.452 140.445 113.102 140.445ZM113.23 139.92C113.611 139.92 113.913 139.79 114.136 139.53C114.359 139.265 114.47 138.881 114.47 138.377C114.47 137.868 114.359 137.484 114.136 137.224C113.913 136.959 113.611 136.827 113.23 136.827C112.853 136.827 112.551 136.959 112.323 137.224C112.1 137.484 111.989 137.868 111.989 138.377C111.989 138.881 112.1 139.265 112.323 139.53C112.551 139.79 112.853 139.92 113.23 139.92ZM117.862 140.445C117.512 140.445 117.205 140.362 116.94 140.198C116.675 140.028 116.468 139.79 116.32 139.482C116.177 139.175 116.105 138.807 116.105 138.377C116.105 137.942 116.177 137.571 116.32 137.264C116.468 136.956 116.675 136.721 116.94 136.556C117.205 136.392 117.512 136.31 117.862 136.31C118.223 136.31 118.533 136.4 118.793 136.58C119.058 136.76 119.235 137.004 119.325 137.312H119.23V134.521H119.874V140.373H119.238V139.419H119.325C119.241 139.737 119.066 139.989 118.801 140.174C118.536 140.354 118.223 140.445 117.862 140.445ZM117.998 139.92C118.374 139.92 118.676 139.79 118.904 139.53C119.132 139.265 119.246 138.881 119.246 138.377C119.246 137.868 119.132 137.484 118.904 137.224C118.676 136.959 118.374 136.827 117.998 136.827C117.621 136.827 117.319 136.959 117.091 137.224C116.868 137.484 116.757 137.868 116.757 138.377C116.757 138.881 116.868 139.265 117.091 139.53C117.319 139.79 117.621 139.92 117.998 139.92ZM122.638 140.445C122.283 140.445 121.973 140.362 121.708 140.198C121.443 140.028 121.236 139.79 121.088 139.482C120.945 139.175 120.873 138.807 120.873 138.377C120.873 137.942 120.945 137.571 121.088 137.264C121.236 136.956 121.443 136.721 121.708 136.556C121.973 136.392 122.283 136.31 122.638 136.31C122.999 136.31 123.309 136.402 123.569 136.588C123.834 136.768 124.009 137.015 124.093 137.328H123.998L124.086 136.381H124.706C124.69 136.535 124.674 136.691 124.658 136.85C124.647 137.004 124.642 137.155 124.642 137.304V140.373H123.998V139.435H124.086C124.001 139.748 123.826 139.994 123.561 140.174C123.296 140.354 122.988 140.445 122.638 140.445ZM122.766 139.92C123.147 139.92 123.449 139.79 123.672 139.53C123.895 139.265 124.006 138.881 124.006 138.377C124.006 137.868 123.895 137.484 123.672 137.224C123.449 136.959 123.147 136.827 122.766 136.827C122.389 136.827 122.087 136.959 121.859 137.224C121.636 137.484 121.525 137.868 121.525 138.377C121.525 138.881 121.636 139.265 121.859 139.53C122.087 139.79 122.389 139.92 122.766 139.92Z" fill="black"/>
<path d="M164.3 137.566C164.3 136.972 164.401 136.463 164.602 136.039C164.809 135.61 165.103 135.279 165.485 135.045C165.872 134.812 166.336 134.695 166.876 134.695C167.401 134.695 167.857 134.812 168.244 135.045C168.631 135.279 168.928 135.61 169.135 136.039C169.347 136.463 169.453 136.97 169.453 137.558C169.453 138.152 169.347 138.663 169.135 139.093C168.923 139.522 168.623 139.856 168.236 140.095C167.854 140.328 167.401 140.445 166.876 140.445C166.336 140.445 165.874 140.328 165.493 140.095C165.111 139.856 164.817 139.522 164.61 139.093C164.403 138.663 164.3 138.154 164.3 137.566ZM164.992 137.566C164.992 138.048 165.063 138.462 165.206 138.807C165.35 139.146 165.562 139.408 165.843 139.594C166.124 139.774 166.468 139.864 166.876 139.864C167.47 139.864 167.931 139.663 168.26 139.26C168.594 138.852 168.761 138.287 168.761 137.566C168.761 137.078 168.687 136.665 168.538 136.326C168.39 135.986 168.175 135.727 167.894 135.546C167.613 135.366 167.274 135.276 166.876 135.276C166.256 135.276 165.787 135.477 165.469 135.88C165.151 136.278 164.992 136.84 164.992 137.566ZM171.993 140.445C171.601 140.445 171.301 140.333 171.094 140.111C170.888 139.883 170.784 139.541 170.784 139.085V136.882H170.005V136.381H170.784V135.292L171.428 135.109V136.381H172.573V136.882H171.428V139.013C171.428 139.331 171.481 139.559 171.587 139.697C171.699 139.83 171.863 139.896 172.08 139.896C172.181 139.896 172.271 139.888 172.351 139.872C172.43 139.851 172.502 139.827 172.565 139.801V140.341C172.491 140.373 172.401 140.397 172.295 140.413C172.194 140.434 172.094 140.445 171.993 140.445ZM173.358 140.373V134.521H174.002V137.264H173.898C174.01 136.951 174.195 136.715 174.455 136.556C174.72 136.392 175.025 136.31 175.369 136.31C175.846 136.31 176.202 136.44 176.435 136.699C176.668 136.954 176.785 137.341 176.785 137.86V140.373H176.141V137.9C176.141 137.529 176.066 137.259 175.918 137.089C175.775 136.919 175.542 136.834 175.218 136.834C174.847 136.834 174.55 136.948 174.328 137.176C174.11 137.404 174.002 137.704 174.002 138.075V140.373H173.358ZM179.79 140.445C179.377 140.445 179.019 140.365 178.717 140.206C178.414 140.042 178.181 139.806 178.017 139.498C177.852 139.186 177.77 138.814 177.77 138.385C177.77 137.966 177.85 137.603 178.009 137.296C178.168 136.983 178.391 136.742 178.677 136.572C178.963 136.397 179.292 136.31 179.663 136.31C180.029 136.31 180.336 136.387 180.585 136.54C180.834 136.694 181.025 136.914 181.158 137.2C181.29 137.481 181.357 137.815 181.357 138.202V138.441H178.263V138.035H180.935L180.8 138.139C180.8 137.714 180.705 137.383 180.514 137.145C180.323 136.906 180.039 136.787 179.663 136.787C179.392 136.787 179.162 136.85 178.971 136.978C178.786 137.105 178.642 137.282 178.542 137.51C178.446 137.738 178.399 138.011 178.399 138.329V138.401C178.399 138.899 178.52 139.278 178.764 139.538C179.013 139.793 179.361 139.92 179.806 139.92C180.045 139.92 180.267 139.885 180.474 139.816C180.686 139.742 180.887 139.623 181.078 139.459L181.301 139.912C181.126 140.081 180.903 140.214 180.633 140.309C180.368 140.4 180.087 140.445 179.79 140.445ZM182.326 140.373V137.343C182.326 137.184 182.321 137.023 182.31 136.858C182.305 136.694 182.294 136.535 182.279 136.381H182.899L182.978 137.351L182.867 137.359C182.92 137.121 183.013 136.925 183.145 136.771C183.278 136.617 183.434 136.503 183.614 136.429C183.795 136.349 183.983 136.31 184.179 136.31C184.259 136.31 184.327 136.312 184.386 136.318C184.449 136.323 184.508 136.336 184.561 136.357L184.553 136.93C184.473 136.903 184.399 136.888 184.33 136.882C184.267 136.872 184.192 136.866 184.107 136.866C183.874 136.866 183.67 136.922 183.495 137.033C183.326 137.145 183.196 137.288 183.106 137.463C183.021 137.638 182.978 137.823 182.978 138.019V140.373H182.326ZM187.288 140.373V137.343C187.288 137.184 187.283 137.023 187.272 136.858C187.267 136.694 187.257 136.535 187.241 136.381H187.861L187.94 137.351L187.829 137.359C187.882 137.121 187.975 136.925 188.107 136.771C188.24 136.617 188.396 136.503 188.577 136.429C188.757 136.349 188.945 136.31 189.141 136.31C189.221 136.31 189.29 136.312 189.348 136.318C189.412 136.323 189.47 136.336 189.523 136.357L189.515 136.93C189.435 136.903 189.361 136.888 189.292 136.882C189.229 136.872 189.154 136.866 189.07 136.866C188.836 136.866 188.632 136.922 188.457 137.033C188.288 137.145 188.158 137.288 188.068 137.463C187.983 137.638 187.94 137.823 187.94 138.019V140.373H187.288ZM191.92 140.445C191.506 140.445 191.148 140.365 190.846 140.206C190.544 140.042 190.311 139.806 190.146 139.498C189.982 139.186 189.9 138.814 189.9 138.385C189.9 137.966 189.979 137.603 190.138 137.296C190.298 136.983 190.52 136.742 190.806 136.572C191.093 136.397 191.421 136.31 191.792 136.31C192.158 136.31 192.466 136.387 192.715 136.54C192.964 136.694 193.155 136.914 193.287 137.2C193.42 137.481 193.486 137.815 193.486 138.202V138.441H190.393V138.035H193.065L192.93 138.139C192.93 137.714 192.834 137.383 192.643 137.145C192.452 136.906 192.169 136.787 191.792 136.787C191.522 136.787 191.291 136.85 191.101 136.978C190.915 137.105 190.772 137.282 190.671 137.51C190.576 137.738 190.528 138.011 190.528 138.329V138.401C190.528 138.899 190.65 139.278 190.894 139.538C191.143 139.793 191.49 139.92 191.936 139.92C192.174 139.92 192.397 139.885 192.604 139.816C192.816 139.742 193.017 139.623 193.208 139.459L193.431 139.912C193.256 140.081 193.033 140.214 192.763 140.309C192.498 140.4 192.217 140.445 191.92 140.445ZM196.229 142.146C195.885 142.146 195.566 142.104 195.275 142.019C194.983 141.934 194.721 141.804 194.488 141.629L194.679 141.144C194.843 141.261 195.005 141.354 195.164 141.423C195.323 141.492 195.487 141.542 195.657 141.574C195.826 141.611 196.006 141.629 196.197 141.629C196.59 141.629 196.886 141.526 197.088 141.319C197.289 141.113 197.39 140.818 197.39 140.437V139.268H197.47C197.385 139.581 197.21 139.83 196.945 140.015C196.68 140.195 196.37 140.286 196.014 140.286C195.649 140.286 195.331 140.206 195.06 140.047C194.795 139.883 194.588 139.652 194.44 139.355C194.297 139.053 194.225 138.698 194.225 138.29C194.225 137.887 194.297 137.537 194.44 137.24C194.588 136.943 194.795 136.715 195.06 136.556C195.331 136.392 195.649 136.31 196.014 136.31C196.375 136.31 196.685 136.4 196.945 136.58C197.21 136.76 197.385 137.009 197.47 137.328L197.39 137.248L197.462 136.381H198.09C198.069 136.535 198.053 136.691 198.042 136.85C198.032 137.004 198.026 137.155 198.026 137.304V140.349C198.026 140.943 197.873 141.391 197.565 141.693C197.263 141.995 196.818 142.146 196.229 142.146ZM196.134 139.761C196.521 139.761 196.826 139.634 197.048 139.379C197.271 139.119 197.382 138.756 197.382 138.29C197.382 137.823 197.271 137.463 197.048 137.208C196.826 136.954 196.521 136.827 196.134 136.827C195.752 136.827 195.447 136.954 195.219 137.208C194.991 137.463 194.877 137.823 194.877 138.29C194.877 138.756 194.991 139.119 195.219 139.379C195.447 139.634 195.752 139.761 196.134 139.761ZM199.263 140.373V136.381H199.907V140.373H199.263ZM199.184 135.475V134.751H199.979V135.475H199.184ZM202.796 140.445C202.414 140.445 202.08 140.362 201.794 140.198C201.513 140.028 201.296 139.79 201.142 139.482C200.988 139.17 200.911 138.801 200.911 138.377C200.911 137.948 200.988 137.579 201.142 137.272C201.296 136.964 201.513 136.728 201.794 136.564C202.08 136.394 202.414 136.31 202.796 136.31C203.183 136.31 203.517 136.394 203.798 136.564C204.084 136.728 204.304 136.964 204.458 137.272C204.617 137.579 204.696 137.948 204.696 138.377C204.696 138.801 204.617 139.17 204.458 139.482C204.304 139.79 204.084 140.028 203.798 140.198C203.517 140.362 203.183 140.445 202.796 140.445ZM202.796 139.92C203.178 139.92 203.48 139.79 203.702 139.53C203.925 139.265 204.036 138.881 204.036 138.377C204.036 137.868 203.925 137.484 203.702 137.224C203.48 136.959 203.178 136.827 202.796 136.827C202.42 136.827 202.12 136.959 201.897 137.224C201.675 137.484 201.563 137.868 201.563 138.377C201.563 138.881 201.675 139.265 201.897 139.53C202.12 139.79 202.42 139.92 202.796 139.92ZM205.701 140.373V137.304C205.701 137.155 205.693 137.004 205.677 136.85C205.666 136.691 205.653 136.535 205.637 136.381H206.257L206.337 137.256H206.241C206.358 136.948 206.543 136.715 206.798 136.556C207.058 136.392 207.357 136.31 207.697 136.31C208.168 136.31 208.523 136.437 208.762 136.691C209.006 136.941 209.128 137.335 209.128 137.876V140.373H208.484V137.916C208.484 137.54 208.407 137.267 208.253 137.097C208.105 136.922 207.871 136.834 207.553 136.834C207.182 136.834 206.888 136.948 206.671 137.176C206.453 137.404 206.345 137.709 206.345 138.091V140.373H205.701ZM211.688 140.445C211.37 140.445 211.073 140.402 210.797 140.317C210.522 140.227 210.294 140.103 210.113 139.944L210.336 139.49C210.532 139.644 210.744 139.758 210.972 139.832C211.205 139.907 211.447 139.944 211.696 139.944C212.014 139.944 212.252 139.888 212.411 139.777C212.576 139.66 212.658 139.501 212.658 139.3C212.658 139.146 212.605 139.024 212.499 138.934C212.398 138.838 212.231 138.764 211.998 138.711L211.258 138.56C210.919 138.486 210.665 138.361 210.495 138.186C210.325 138.006 210.241 137.778 210.241 137.502C210.241 137.269 210.302 137.065 210.423 136.89C210.545 136.71 210.723 136.569 210.956 136.469C211.19 136.363 211.463 136.31 211.775 136.31C212.067 136.31 212.335 136.355 212.578 136.445C212.828 136.53 213.034 136.654 213.199 136.819L212.968 137.264C212.809 137.11 212.626 136.996 212.419 136.922C212.218 136.842 212.009 136.803 211.791 136.803C211.478 136.803 211.243 136.866 211.083 136.994C210.93 137.115 210.853 137.277 210.853 137.479C210.853 137.632 210.901 137.76 210.996 137.86C211.097 137.956 211.25 138.027 211.457 138.075L212.197 138.226C212.557 138.306 212.825 138.43 213 138.6C213.18 138.764 213.27 138.987 213.27 139.268C213.27 139.506 213.204 139.716 213.071 139.896C212.939 140.071 212.753 140.206 212.515 140.301C212.282 140.397 212.006 140.445 211.688 140.445Z" fill="black"/>
<rect x="15.9028" y="45.4932" width="198.795" height="19.0843" rx="3.18072" fill="#B2B2B2"/>
<path d="M15.9028 48.6739C15.9028 46.9172 17.3269 45.4932 19.0836 45.4932H128.023V64.5775H19.0836C17.3269 64.5775 15.9028 63.1534 15.9028 61.3968V48.6739Z" fill="#FF0090"/>
<rect x="128.023" y="45.4932" width="31.8072" height="19.0843" fill="#00D2FE"/>
<rect x="159.83" y="45.4932" width="19.0843" height="19.0843" fill="#5D6AE8"/>
<rect x="178.915" y="45.4932" width="11.9277" height="19.0843" fill="#F38478"/>
<rect x="190.842" y="45.4932" width="4.77108" height="19.0843" fill="#2100FF"/>
<rect x="15.9028" y="78.8916" width="198.795" height="19.0843" rx="3.18072" fill="#B2B2B2"/>
<path d="M15.9028 82.0723C15.9028 80.3157 17.3269 78.8916 19.0836 78.8916H115.3V97.9759H19.0836C17.3269 97.9759 15.9028 96.5519 15.9028 94.7952V82.0723Z" fill="#FF0090"/>
<rect x="115.3" y="78.8916" width="33.3976" height="19.0843" fill="#00D2FE"/>
<rect x="148.698" y="78.8916" width="21.4699" height="19.0843" fill="#5D6AE8"/>
<rect x="170.167" y="78.8916" width="14.3133" height="19.0843" fill="#F38478"/>
<rect x="184.481" y="78.8916" width="7.95181" height="19.0843" fill="#2100FF"/>
<path d="M20.4229 23.0264C19.6065 23.0264 18.9051 22.8631 18.3188 22.5365C17.7399 22.2026 17.2946 21.735 16.9829 21.1338C16.6712 20.5253 16.5154 19.8091 16.5154 18.9853C16.5154 18.1614 16.6712 17.449 16.9829 16.8478C17.2946 16.2467 17.7399 15.7828 18.3188 15.4562C18.9051 15.1223 19.6065 14.9553 20.4229 14.9553C20.9721 14.9553 21.4656 15.0332 21.9035 15.1891C22.3488 15.3449 22.731 15.575 23.0502 15.8793L22.5826 17.0148C22.2338 16.7328 21.8961 16.5324 21.5695 16.4136C21.2504 16.2875 20.883 16.2244 20.4674 16.2244C19.6733 16.2244 19.0647 16.4656 18.6417 16.948C18.2261 17.423 18.0183 18.1021 18.0183 18.9853C18.0183 19.5716 18.111 20.0725 18.2966 20.4881C18.4821 20.9038 18.7567 21.2192 19.1204 21.4344C19.4915 21.6496 19.9405 21.7573 20.4674 21.7573C20.883 21.7573 21.2504 21.6979 21.5695 21.5791C21.8961 21.453 22.2338 21.2452 22.5826 20.9557L23.0502 22.0912C22.731 22.3881 22.3488 22.6182 21.9035 22.7814C21.4656 22.9447 20.9721 23.0264 20.4229 23.0264ZM26.1659 23.0264C25.4757 23.0264 24.9599 22.8371 24.6185 22.4586C24.2771 22.0801 24.1064 21.5012 24.1064 20.7219V17.2931H25.4979V20.7108C25.4979 21.1264 25.5833 21.4344 25.754 21.6348C25.9247 21.8278 26.1844 21.9242 26.5333 21.9242C26.9266 21.9242 27.2457 21.7907 27.4906 21.5235C27.743 21.2563 27.8692 20.9038 27.8692 20.4659V17.2931H29.2607V22.915H27.9026V21.7684H28.0584C27.8951 22.1692 27.6465 22.4809 27.3125 22.7035C26.986 22.9187 26.6038 23.0264 26.1659 23.0264ZM32.7753 23.0264C32.2929 23.0264 31.8476 22.9707 31.4394 22.8594C31.0386 22.7406 30.7009 22.5774 30.4263 22.3695L30.816 21.4344C31.098 21.6274 31.4097 21.7758 31.7511 21.8797C32.0925 21.9836 32.4376 22.0356 32.7864 22.0356C33.1575 22.0356 33.4321 21.9725 33.6102 21.8463C33.7958 21.7201 33.8885 21.5494 33.8885 21.3342C33.8885 21.1635 33.8292 21.0299 33.7104 20.9334C33.5991 20.8295 33.4173 20.7516 33.1649 20.6997L32.0517 20.4881C31.5767 20.3842 31.213 20.2061 30.9607 19.9538C30.7158 19.7014 30.5933 19.3712 30.5933 18.963C30.5933 18.6142 30.6861 18.3062 30.8716 18.039C31.0646 17.7718 31.3355 17.564 31.6843 17.4156C32.0405 17.2597 32.4562 17.1818 32.9312 17.1818C33.3468 17.1818 33.7364 17.2374 34.1001 17.3488C34.4711 17.4601 34.7829 17.6271 35.0352 17.8497L34.6344 18.7515C34.4044 18.5659 34.1409 18.4212 33.844 18.3173C33.5471 18.2134 33.2577 18.1614 32.9757 18.1614C32.5898 18.1614 32.3077 18.232 32.1296 18.373C31.9515 18.5066 31.8624 18.681 31.8624 18.8962C31.8624 19.0595 31.9144 19.1968 32.0183 19.3081C32.1296 19.412 32.3003 19.4899 32.5304 19.5419L33.6436 19.7534C34.1409 19.8499 34.5157 20.0206 34.768 20.2655C35.0278 20.503 35.1577 20.8295 35.1577 21.2452C35.1577 21.6162 35.0575 21.9354 34.8571 22.2026C34.6567 22.4697 34.3784 22.6738 34.0221 22.8148C33.6659 22.9559 33.2503 23.0264 32.7753 23.0264ZM38.6988 23.0264C38.0309 23.0264 37.5262 22.852 37.1848 22.5031C36.8434 22.1543 36.6727 21.6311 36.6727 20.9334V18.3396H35.5929V17.2931H36.6727V15.857L38.0643 15.5008V17.2931H39.5672V18.3396H38.0643V20.8444C38.0643 21.2303 38.1385 21.5012 38.2869 21.6571C38.4354 21.8129 38.6395 21.8908 38.8992 21.8908C39.0402 21.8908 39.159 21.8797 39.2555 21.8574C39.3594 21.8352 39.4596 21.8055 39.556 21.7684V22.8705C39.4299 22.9225 39.2889 22.9596 39.133 22.9818C38.9846 23.0115 38.8399 23.0264 38.6988 23.0264ZM42.9963 23.0264C42.4174 23.0264 41.9164 22.9076 41.4934 22.6701C41.0703 22.4326 40.7401 22.0949 40.5026 21.6571C40.2725 21.2192 40.1575 20.6997 40.1575 20.0985C40.1575 19.4974 40.2725 18.9815 40.5026 18.5511C40.7401 18.1132 41.0703 17.7755 41.4934 17.538C41.9164 17.3005 42.4174 17.1818 42.9963 17.1818C43.5752 17.1818 44.0761 17.3005 44.4992 17.538C44.9296 17.7755 45.2599 18.1132 45.4899 18.5511C45.7274 18.9815 45.8462 19.4974 45.8462 20.0985C45.8462 20.6997 45.7274 21.2192 45.4899 21.6571C45.2599 22.0949 44.9296 22.4326 44.4992 22.6701C44.0761 22.9076 43.5752 23.0264 42.9963 23.0264ZM42.9963 21.9576C43.4341 21.9576 43.783 21.8055 44.0427 21.5012C44.3025 21.1895 44.4324 20.7219 44.4324 20.0985C44.4324 19.4751 44.3025 19.0112 44.0427 18.7069C43.783 18.4027 43.4341 18.2505 42.9963 18.2505C42.5584 18.2505 42.2096 18.4027 41.9498 18.7069C41.69 19.0112 41.5602 19.4751 41.5602 20.0985C41.5602 20.7219 41.69 21.1895 41.9498 21.5012C42.2096 21.8055 42.5584 21.9576 42.9963 21.9576ZM47.0462 22.915V18.6958C47.0462 18.4657 47.0388 18.232 47.024 17.9945C47.0091 17.757 46.9869 17.5232 46.9572 17.2931H48.3042L48.4155 18.4064H48.2819C48.4378 18.0204 48.6753 17.7199 48.9944 17.5046C49.321 17.2894 49.7069 17.1818 50.1522 17.1818C50.5975 17.1818 50.9649 17.2894 51.2543 17.5046C51.5512 17.7124 51.759 18.039 51.8778 18.4843H51.6996C51.8555 18.0835 52.1115 17.7681 52.4678 17.538C52.824 17.3005 53.2322 17.1818 53.6924 17.1818C54.3232 17.1818 54.7945 17.3673 55.1062 17.7384C55.4179 18.1095 55.5738 18.6884 55.5738 19.4751V22.915H54.1822V19.5307C54.1822 19.0854 54.108 18.7663 53.9595 18.5734C53.8111 18.373 53.5736 18.2728 53.2471 18.2728C52.8611 18.2728 52.5568 18.4101 52.3342 18.6847C52.1115 18.9519 52.0002 19.3155 52.0002 19.7757V22.915H50.6086V19.5307C50.6086 19.0854 50.5344 18.7663 50.386 18.5734C50.2376 18.373 50.0001 18.2728 49.6735 18.2728C49.2876 18.2728 48.9833 18.4101 48.7606 18.6847C48.5454 18.9519 48.4378 19.3155 48.4378 19.7757V22.915H47.0462ZM59.7753 23.0264C59.1445 23.0264 58.6027 22.9113 58.15 22.6813C57.7047 22.4438 57.3596 22.1061 57.1147 21.6682C56.8772 21.2303 56.7584 20.7108 56.7584 20.1096C56.7584 19.5233 56.8734 19.0112 57.1035 18.5734C57.3336 18.1355 57.6527 17.7941 58.0609 17.5492C58.4765 17.3042 58.9589 17.1818 59.5081 17.1818C60.0499 17.1818 60.5027 17.2968 60.8663 17.5269C61.23 17.757 61.5046 18.0798 61.6901 18.4954C61.8831 18.911 61.9796 19.3972 61.9796 19.9538V20.3212H57.8828V19.5864H60.9888L60.7995 19.7423C60.7995 19.2227 60.6882 18.8257 60.4655 18.5511C60.2503 18.2765 59.9349 18.1392 59.5193 18.1392C59.2076 18.1392 58.9441 18.2134 58.7289 18.3618C58.5211 18.5103 58.3615 18.7218 58.2502 18.9964C58.1388 19.271 58.0832 19.605 58.0832 19.9983V20.143C58.0832 20.7516 58.2316 21.2081 58.5285 21.5123C58.8328 21.8092 59.2595 21.9576 59.8087 21.9576C60.1279 21.9576 60.4247 21.9168 60.6993 21.8352C60.9814 21.7461 61.2485 21.6051 61.5009 21.4121L61.9128 22.3473C61.6456 22.5625 61.3265 22.7295 60.9554 22.8482C60.5843 22.967 60.1909 23.0264 59.7753 23.0264ZM63.1468 22.915V18.7292C63.1468 18.4917 63.1394 18.2505 63.1246 18.0056C63.1171 17.7607 63.0986 17.5232 63.0689 17.2931H64.4159L64.5718 18.8294H64.3491C64.4234 18.4583 64.5458 18.1503 64.7165 17.9054C64.8946 17.6605 65.1099 17.4787 65.3622 17.3599C65.6145 17.2412 65.8891 17.1818 66.186 17.1818C66.3196 17.1818 66.4272 17.1892 66.5089 17.2041C66.5905 17.2115 66.6721 17.23 66.7538 17.2597L66.7426 18.4843C66.6016 18.4249 66.4792 18.3878 66.3753 18.373C66.2788 18.3581 66.1563 18.3507 66.0079 18.3507C65.6888 18.3507 65.4179 18.4175 65.1952 18.5511C64.98 18.6847 64.8167 18.8702 64.7054 19.1077C64.6015 19.3452 64.5495 19.6161 64.5495 19.9204V22.915H63.1468ZM70.5721 22.915V18.7292C70.5721 18.4917 70.5647 18.2505 70.5499 18.0056C70.5425 17.7607 70.5239 17.5232 70.4942 17.2931H71.8413L71.9971 18.8294H71.7745C71.8487 18.4583 71.9711 18.1503 72.1418 17.9054C72.32 17.6605 72.5352 17.4787 72.7875 17.3599C73.0399 17.2412 73.3145 17.1818 73.6113 17.1818C73.7449 17.1818 73.8525 17.1892 73.9342 17.2041C74.0158 17.2115 74.0974 17.23 74.1791 17.2597L74.168 18.4843C74.0269 18.4249 73.9045 18.3878 73.8006 18.373C73.7041 18.3581 73.5816 18.3507 73.4332 18.3507C73.1141 18.3507 72.8432 18.4175 72.6205 18.5511C72.4053 18.6847 72.242 18.8702 72.1307 19.1077C72.0268 19.3452 71.9748 19.6161 71.9748 19.9204V22.915H70.5721ZM77.583 23.0264C76.9522 23.0264 76.4104 22.9113 75.9577 22.6813C75.5124 22.4438 75.1673 22.1061 74.9224 21.6682C74.6849 21.2303 74.5661 20.7108 74.5661 20.1096C74.5661 19.5233 74.6812 19.0112 74.9112 18.5734C75.1413 18.1355 75.4604 17.7941 75.8686 17.5492C76.2842 17.3042 76.7666 17.1818 77.3158 17.1818C77.8576 17.1818 78.3104 17.2968 78.674 17.5269C79.0377 17.757 79.3123 18.0798 79.4978 18.4954C79.6908 18.911 79.7873 19.3972 79.7873 19.9538V20.3212H75.6905V19.5864H78.7965L78.6072 19.7423C78.6072 19.2227 78.4959 18.8257 78.2732 18.5511C78.058 18.2765 77.7426 18.1392 77.327 18.1392C77.0153 18.1392 76.7518 18.2134 76.5366 18.3618C76.3288 18.5103 76.1692 18.7218 76.0579 18.9964C75.9465 19.271 75.8909 19.605 75.8909 19.9983V20.143C75.8909 20.7516 76.0393 21.2081 76.3362 21.5123C76.6405 21.8092 77.0672 21.9576 77.6164 21.9576C77.9356 21.9576 78.2324 21.9168 78.507 21.8352C78.7891 21.7461 79.0562 21.6051 79.3086 21.4121L79.7205 22.3473C79.4533 22.5625 79.1342 22.7295 78.7631 22.8482C78.392 22.967 77.9986 23.0264 77.583 23.0264ZM83.5707 25.4087C83.0512 25.4087 82.5799 25.3531 82.1568 25.2417C81.7412 25.1304 81.3702 24.9597 81.0436 24.7296L81.3442 23.7277C81.5594 23.8687 81.7821 23.9838 82.0121 24.0728C82.2422 24.1619 82.4797 24.2287 82.7246 24.2732C82.9695 24.3177 83.2182 24.34 83.4705 24.34C83.99 24.34 84.3759 24.2101 84.6283 23.9504C84.888 23.698 85.0179 23.3344 85.0179 22.8594V21.5123H85.1292C85.0105 21.8983 84.7693 22.2063 84.4056 22.4363C84.0494 22.6664 83.6375 22.7814 83.1699 22.7814C82.6652 22.7814 82.2236 22.6701 81.8451 22.4475C81.4741 22.2174 81.1846 21.8908 80.9768 21.4678C80.769 21.0448 80.6651 20.5475 80.6651 19.9761C80.6651 19.4046 80.769 18.911 80.9768 18.4954C81.1846 18.0724 81.4741 17.7495 81.8451 17.5269C82.2236 17.2968 82.6652 17.1818 83.1699 17.1818C83.6449 17.1818 84.0568 17.2968 84.4056 17.5269C84.7619 17.7495 84.9994 18.0538 85.1181 18.4398L85.0179 18.373L85.1292 17.2931H86.4763C86.4466 17.5232 86.4243 17.757 86.4095 17.9945C86.3946 18.232 86.3872 18.4657 86.3872 18.6958V22.6924C86.3872 23.5756 86.146 24.2472 85.6636 24.7074C85.1886 25.1749 84.491 25.4087 83.5707 25.4087ZM83.5484 21.7127C83.9937 21.7127 84.3462 21.5643 84.606 21.2674C84.8732 20.9631 85.0068 20.5327 85.0068 19.9761C85.0068 19.4194 84.8732 18.9927 84.606 18.6958C84.3462 18.3989 83.9937 18.2505 83.5484 18.2505C83.0957 18.2505 82.7357 18.3989 82.4686 18.6958C82.2014 18.9927 82.0678 19.4194 82.0678 19.9761C82.0678 20.5327 82.2014 20.9631 82.4686 21.2674C82.7357 21.5643 83.0957 21.7127 83.5484 21.7127ZM87.8909 22.915V17.2931H89.2824V22.915H87.8909ZM87.8129 16.2355V14.8774H89.3604V16.2355H87.8129ZM93.3318 23.0264C92.7529 23.0264 92.252 22.9076 91.8289 22.6701C91.4059 22.4326 91.0756 22.0949 90.8381 21.6571C90.6081 21.2192 90.493 20.6997 90.493 20.0985C90.493 19.4974 90.6081 18.9815 90.8381 18.5511C91.0756 18.1132 91.4059 17.7755 91.8289 17.538C92.252 17.3005 92.7529 17.1818 93.3318 17.1818C93.9107 17.1818 94.4117 17.3005 94.8347 17.538C95.2652 17.7755 95.5954 18.1132 95.8255 18.5511C96.063 18.9815 96.1817 19.4974 96.1817 20.0985C96.1817 20.6997 96.063 21.2192 95.8255 21.6571C95.5954 22.0949 95.2652 22.4326 94.8347 22.6701C94.4117 22.9076 93.9107 23.0264 93.3318 23.0264ZM93.3318 21.9576C93.7697 21.9576 94.1185 21.8055 94.3783 21.5012C94.638 21.1895 94.7679 20.7219 94.7679 20.0985C94.7679 19.4751 94.638 19.0112 94.3783 18.7069C94.1185 18.4027 93.7697 18.2505 93.3318 18.2505C92.8939 18.2505 92.5451 18.4027 92.2854 18.7069C92.0256 19.0112 91.8957 19.4751 91.8957 20.0985C91.8957 20.7219 92.0256 21.1895 92.2854 21.5012C92.5451 21.8055 92.8939 21.9576 93.3318 21.9576ZM97.3818 22.915V18.6958C97.3818 18.4657 97.3744 18.232 97.3595 17.9945C97.3447 17.757 97.3224 17.5232 97.2927 17.2931H98.6398L98.7511 18.4064H98.6175C98.7956 18.013 99.0591 17.7124 99.4079 17.5046C99.7567 17.2894 100.161 17.1818 100.621 17.1818C101.282 17.1818 101.779 17.3673 102.113 17.7384C102.447 18.1095 102.614 18.6884 102.614 19.4751V22.915H101.223V19.5419C101.223 19.0892 101.133 18.7663 100.955 18.5734C100.785 18.373 100.525 18.2728 100.176 18.2728C99.7456 18.2728 99.4042 18.4064 99.1519 18.6735C98.8995 18.9407 98.7734 19.297 98.7734 19.7423V22.915H97.3818ZM106.093 23.0264C105.611 23.0264 105.166 22.9707 104.758 22.8594C104.357 22.7406 104.019 22.5774 103.744 22.3695L104.134 21.4344C104.416 21.6274 104.728 21.7758 105.069 21.8797C105.411 21.9836 105.756 22.0356 106.105 22.0356C106.476 22.0356 106.75 21.9725 106.928 21.8463C107.114 21.7201 107.207 21.5494 107.207 21.3342C107.207 21.1635 107.147 21.0299 107.029 20.9334C106.917 20.8295 106.735 20.7516 106.483 20.6997L105.37 20.4881C104.895 20.3842 104.531 20.2061 104.279 19.9538C104.034 19.7014 103.911 19.3712 103.911 18.963C103.911 18.6142 104.004 18.3062 104.19 18.039C104.383 17.7718 104.654 17.564 105.002 17.4156C105.359 17.2597 105.774 17.1818 106.249 17.1818C106.665 17.1818 107.055 17.2374 107.418 17.3488C107.789 17.4601 108.101 17.6271 108.353 17.8497L107.953 18.7515C107.722 18.5659 107.459 18.4212 107.162 18.3173C106.865 18.2134 106.576 18.1614 106.294 18.1614C105.908 18.1614 105.626 18.232 105.448 18.373C105.27 18.5066 105.181 18.681 105.181 18.8962C105.181 19.0595 105.233 19.1968 105.336 19.3081C105.448 19.412 105.618 19.4899 105.849 19.5419L106.962 19.7534C107.459 19.8499 107.834 20.0206 108.086 20.2655C108.346 20.503 108.476 20.8295 108.476 21.2452C108.476 21.6162 108.376 21.9354 108.175 22.2026C107.975 22.4697 107.697 22.6738 107.34 22.8148C106.984 22.9559 106.568 23.0264 106.093 23.0264Z" fill="black"/>
</svg>
