<svg width="560" height="560" viewBox="0 0 560 560" fill="none" xmlns="http://www.w3.org/2000/svg">
<path d="M263.681 152.572C263.681 152.572 252.582 152.606 252.459 145.951C252.336 139.295 257.536 136.201 260.651 135.068C266.086 133.091 273.834 133.278 273.834 133.278C273.834 133.278 276.14 121.757 285.355 117.781C294.571 113.805 303.404 117.781 303.404 117.781C303.404 117.781 313.517 108.563 326.19 114.195C338.863 119.828 338.863 128.404 338.863 128.404C338.863 128.404 348.078 123.413 355.503 127.381C362.928 131.349 363.439 137.366 363.439 137.366C363.439 137.366 381.875 136.214 389.295 142.229C396.714 148.243 392.979 152.486 389.132 152.556C385.37 152.633 263.681 152.572 263.681 152.572Z" fill="#CCCCCC" stroke="black" stroke-width="0.5" stroke-linecap="round" stroke-linejoin="round"/>
<path d="M298.535 148.254C298.535 148.254 293.333 140.989 298.327 134.921C303.874 128.18 313.896 132.474 313.896 132.474C313.896 132.474 315.053 128.437 320.167 127.518C324.295 126.777 327.592 129.546 327.592 129.546" stroke="black" stroke-width="0.5" stroke-linecap="round" stroke-linejoin="round"/>
<path d="M248.986 396.582C248.986 396.582 264.483 396.627 264.67 387.329C264.857 378.031 257.568 373.702 253.226 372.131C245.635 369.369 234.809 369.628 234.809 369.628C234.809 369.628 231.602 353.538 218.716 347.986C205.829 342.433 193.507 347.986 193.507 347.986C193.507 347.986 179.38 335.112 161.679 342.978C143.978 350.844 143.978 362.825 143.978 362.825C143.978 362.825 131.105 355.854 120.732 361.396C110.36 366.937 109.647 375.343 109.647 375.343C109.647 375.343 83.9005 373.74 73.5282 382.138C63.156 390.535 68.3848 396.462 73.7606 396.566C79.0002 396.662 248.986 396.582 248.986 396.582Z" fill="#CCCCCC" stroke="black" stroke-width="0.5" stroke-linecap="round" stroke-linejoin="round"/>
<path d="M200.303 390.549C200.303 390.549 207.568 380.396 200.595 371.926C192.846 362.508 178.848 368.506 178.848 368.506C178.848 368.506 177.232 362.866 170.087 361.583C164.321 360.549 159.715 364.415 159.715 364.415" stroke="black" stroke-width="0.5" stroke-linecap="round" stroke-linejoin="round"/>
<path d="M44.5004 222.312L25.3633 109.311H125.503L44.5004 222.312Z" fill="#E5E5E5" stroke="black" stroke-width="0.5" stroke-miterlimit="10" stroke-linecap="round" stroke-linejoin="round"/>
<path d="M44.5 222.312L50.0865 76.5048H227.281L213.088 222.312H44.5Z" fill="#CCCCCC" stroke="black" stroke-width="0.5" stroke-miterlimit="10" stroke-linecap="round" stroke-linejoin="round"/>
<path d="M225.392 113.739L232.855 54.6889H247.594C245.888 52.8991 226.452 28.1147 226.452 28.1147L201.836 54.6889H217.069L203.435 133.71L225.392 113.739Z" fill="#CCCCCC" stroke="black" stroke-width="0.5" stroke-linecap="round" stroke-linejoin="round"/>
<path d="M195.502 139.998L202.965 80.9445H217.703C215.997 79.1576 196.562 54.3704 196.562 54.3704L171.945 80.9445H187.178L173.547 159.969L195.502 139.998Z" fill="#B3B3B3" stroke="black" stroke-width="0.5" stroke-linecap="round" stroke-linejoin="round"/>
<path d="M121.676 100.328L120.917 133.264C120.896 134.181 121.622 134.94 122.538 134.962L123.366 134.981C124.282 135.002 125.042 134.276 125.063 133.36L125.822 100.423C125.843 99.5069 125.118 98.747 124.201 98.7259L123.373 98.7068C122.457 98.6857 121.697 99.4113 121.676 100.328Z" fill="#B3B3B3"/>
<path d="M115.647 109.909L115.112 133.13C115.091 134.046 115.817 134.806 116.733 134.827L117.561 134.846C118.478 134.867 119.237 134.141 119.259 133.225L119.794 110.005C119.815 109.089 119.089 108.329 118.173 108.308L117.345 108.289C116.429 108.268 115.669 108.993 115.647 109.909Z" fill="#B3B3B3"/>
<path d="M109.992 103.142L109.304 132.996C109.283 133.912 110.008 134.672 110.925 134.693L111.753 134.712C112.669 134.733 113.429 134.007 113.45 133.091L114.138 103.238C114.159 102.322 113.433 101.562 112.517 101.541L111.689 101.522C110.773 101.501 110.013 102.226 109.992 103.142Z" fill="#B3B3B3"/>
<path d="M104.283 98.8623L103.499 132.862C103.478 133.778 104.204 134.538 105.12 134.559L105.948 134.578C106.864 134.599 107.624 133.873 107.645 132.957L108.429 98.9578C108.45 98.0416 107.724 97.2817 106.808 97.2606L105.98 97.2415C105.064 97.2204 104.304 97.946 104.283 98.8623Z" fill="#B3B3B3"/>
<path d="M87.1067 87.9612L86.0812 132.465C86.0601 133.381 86.7857 134.141 87.702 134.162L88.53 134.181C89.4462 134.202 90.2061 133.476 90.2272 132.56L91.2527 88.0567C91.2738 87.1405 90.5481 86.3806 89.6319 86.3595L88.8039 86.3404C87.8876 86.3193 87.1278 87.045 87.1067 87.9612Z" fill="#B3B3B3"/>
<path d="M75.2783 97.3671L74.4757 132.197C74.4546 133.114 75.1803 133.873 76.0965 133.895L76.9245 133.914C77.8407 133.935 78.6006 133.209 78.6217 132.293L79.4243 97.4626C79.4454 96.5464 78.7198 95.7865 77.8035 95.7654L76.9755 95.7463C76.0593 95.7252 75.2994 96.4509 75.2783 97.3671Z" fill="#B3B3B3"/>
<path d="M158.473 125.417L158.273 134.123C158.251 135.039 158.977 135.799 159.893 135.82L160.721 135.839C161.638 135.86 162.397 135.135 162.419 134.219L162.619 125.512C162.64 124.596 161.915 123.836 160.998 123.815L160.17 123.796C159.254 123.775 158.494 124.501 158.473 125.417Z" fill="#B3B3B3"/>
<path d="M144.616 132.982L144.597 133.81C144.576 134.726 145.301 135.486 146.218 135.507L147.046 135.526C147.962 135.548 148.722 134.822 148.743 133.906L148.762 133.078C148.783 132.161 148.057 131.402 147.141 131.38L146.313 131.361C145.397 131.34 144.637 132.066 144.616 132.982Z" fill="#B3B3B3"/>
<path d="M151.206 133.133L151.187 133.961C151.166 134.877 151.891 135.637 152.807 135.658L153.636 135.677C154.552 135.698 155.312 134.972 155.333 134.056L155.352 133.228C155.373 132.312 154.647 131.552 153.731 131.531L152.903 131.512C151.987 131.491 151.227 132.216 151.206 133.133Z" fill="#B3B3B3"/>
<path d="M81.4231 82.571L80.2765 132.329C80.2554 133.246 80.981 134.005 81.8973 134.027L82.7253 134.046C83.6415 134.067 84.4014 133.341 84.4225 132.425L85.5691 82.6666C85.5902 81.7503 84.8645 80.9905 83.9483 80.9694L83.1203 80.9503C82.204 80.9292 81.4442 81.6548 81.4231 82.571Z" fill="#B3B3B3"/>
<path d="M92.5586 103.572L91.8898 132.597C91.8687 133.513 92.5943 134.273 93.5106 134.294L94.3386 134.313C95.2549 134.335 96.0147 133.609 96.0359 132.693L96.7047 103.668C96.7258 102.751 96.0001 101.991 95.0839 101.97L94.2558 101.951C93.3396 101.93 92.5797 102.656 92.5586 103.572Z" fill="#B3B3B3"/>
<path d="M98.3594 103.704L97.6906 132.729C97.6695 133.645 98.3951 134.405 99.3113 134.426L100.139 134.445C101.056 134.466 101.816 133.741 101.837 132.824L102.505 103.799C102.527 102.883 101.801 102.123 100.885 102.102L100.057 102.083C99.1404 102.062 98.3805 102.788 98.3594 103.704Z" fill="#B3B3B3"/>
<path d="M127.094 117.227L126.722 133.397C126.701 134.314 127.426 135.073 128.343 135.095L129.171 135.114C130.087 135.135 130.847 134.409 130.868 133.493L131.24 117.323C131.262 116.407 130.536 115.647 129.62 115.626L128.792 115.606C127.875 115.585 127.116 116.311 127.094 117.227Z" fill="#B3B3B3"/>
<path d="M133.008 112.801L132.53 133.531C132.509 134.448 133.235 135.207 134.151 135.229L134.979 135.248C135.895 135.269 136.655 134.543 136.676 133.627L137.154 112.897C137.175 111.98 136.45 111.221 135.533 111.199L134.705 111.18C133.789 111.159 133.029 111.885 133.008 112.801Z" fill="#B3B3B3"/>
<path d="M138.975 105.885L138.335 133.665C138.314 134.581 139.04 135.341 139.956 135.362L140.784 135.381C141.7 135.403 142.46 134.677 142.481 133.761L143.121 105.981C143.142 105.064 142.417 104.304 141.5 104.283L140.672 104.264C139.756 104.243 138.996 104.969 138.975 105.885Z" fill="#B3B3B3"/>
<path d="M167.07 119.393L166.726 134.319C166.705 135.235 167.43 135.995 168.346 136.016L169.175 136.035C170.091 136.056 170.851 135.33 170.872 134.414L171.216 119.489C171.237 118.573 170.511 117.813 169.595 117.792L168.767 117.773C167.851 117.751 167.091 118.477 167.07 119.393Z" fill="#B3B3B3"/>
<path d="M173.356 109.993L172.792 134.455C172.771 135.371 173.497 136.131 174.413 136.152L175.241 136.171C176.157 136.192 176.917 135.467 176.938 134.551L177.502 110.088C177.523 109.172 176.797 108.412 175.881 108.391L175.053 108.372C174.137 108.351 173.377 109.077 173.356 109.993Z" fill="#B3B3B3"/>
<path d="M179.132 111.37L178.597 134.591C178.576 135.507 179.301 136.267 180.218 136.288L181.046 136.307C181.962 136.328 182.722 135.602 182.743 134.686L183.278 111.466C183.299 110.55 182.573 109.79 181.657 109.769L180.829 109.75C179.913 109.729 179.153 110.454 179.132 111.37Z" fill="#B3B3B3"/>
<path d="M185.023 107.764L184.402 134.722C184.38 135.639 185.106 136.398 186.022 136.42L186.85 136.439C187.767 136.46 188.526 135.734 188.548 134.818L189.169 107.86C189.19 106.944 188.464 106.184 187.548 106.163L186.72 106.144C185.804 106.122 185.044 106.848 185.023 107.764Z" fill="#B3B3B3"/>
<path d="M190.598 117.859L190.206 134.86C190.185 135.777 190.911 136.537 191.827 136.558L192.655 136.577C193.571 136.598 194.331 135.872 194.352 134.956L194.744 117.955C194.765 117.039 194.039 116.279 193.123 116.258L192.295 116.239C191.379 116.218 190.619 116.943 190.598 117.859Z" fill="#B3B3B3"/>
<path d="M58.9023 49.7858L68.0712 96.9363L77.2401 72.7051L86.409 115.929L95.5779 107.414L104.744 104.139L113.913 104.793L123.082 107.4L132.251 94.3009L141.419 100.852L150.585 110.018L159.754 121.153L168.923 117.223L178.092 110.675L187.261 116.569L196.427 120.499L205.596 115.914L214.765 117.223L223.934 121.153L233.103 128.356" stroke="#1A1A1A" stroke-width="0.5" stroke-linecap="round" stroke-linejoin="round"/>
<path d="M58.901 51.7464C59.9854 51.7464 60.8645 50.8673 60.8645 49.7829C60.8645 48.6985 59.9854 47.8194 58.901 47.8194C57.8166 47.8194 56.9375 48.6985 56.9375 49.7829C56.9375 50.8673 57.8166 51.7464 58.901 51.7464Z" fill="white" stroke="#1A1A1A" stroke-width="0.5" stroke-linecap="round" stroke-linejoin="round"/>
<path d="M68.069 98.8967C69.1534 98.8967 70.0325 98.0176 70.0325 96.9332C70.0325 95.8488 69.1534 94.9697 68.069 94.9697C66.9846 94.9697 66.1055 95.8488 66.1055 96.9332C66.1055 98.0176 66.9846 98.8967 68.069 98.8967Z" fill="white" stroke="#1A1A1A" stroke-width="0.5" stroke-linecap="round" stroke-linejoin="round"/>
<path d="M77.2409 74.6689C78.3253 74.6689 79.2044 73.7898 79.2044 72.7053C79.2044 71.6209 78.3253 70.7418 77.2409 70.7418C76.1564 70.7418 75.2773 71.6209 75.2773 72.7053C75.2773 73.7898 76.1564 74.6689 77.2409 74.6689Z" fill="white" stroke="#1A1A1A" stroke-width="0.5" stroke-linecap="round" stroke-linejoin="round"/>
<path d="M86.4049 117.89C87.4893 117.89 88.3684 117.01 88.3684 115.926C88.3684 114.842 87.4893 113.962 86.4049 113.962C85.3205 113.962 84.4414 114.842 84.4414 115.926C84.4414 117.01 85.3205 117.89 86.4049 117.89Z" fill="white" stroke="#1A1A1A" stroke-width="0.5" stroke-linecap="round" stroke-linejoin="round"/>
<path d="M95.5729 109.375C96.6573 109.375 97.5364 108.496 97.5364 107.411C97.5364 106.327 96.6573 105.448 95.5729 105.448C94.4885 105.448 93.6094 106.327 93.6094 107.411C93.6094 108.496 94.4885 109.375 95.5729 109.375Z" fill="white" stroke="#1A1A1A" stroke-width="0.5" stroke-linecap="round" stroke-linejoin="round"/>
<path d="M104.745 106.102C105.829 106.102 106.708 105.223 106.708 104.139C106.708 103.054 105.829 102.175 104.745 102.175C103.66 102.175 102.781 103.054 102.781 104.139C102.781 105.223 103.66 106.102 104.745 106.102Z" fill="white" stroke="#1A1A1A" stroke-width="0.5" stroke-linecap="round" stroke-linejoin="round"/>
<path d="M113.913 106.757C114.997 106.757 115.876 105.878 115.876 104.793C115.876 103.709 114.997 102.83 113.913 102.83C112.828 102.83 111.949 103.709 111.949 104.793C111.949 105.878 112.828 106.757 113.913 106.757Z" fill="white" stroke="#1A1A1A" stroke-width="0.5" stroke-linecap="round" stroke-linejoin="round"/>
<path d="M123.077 109.375C124.161 109.375 125.04 108.496 125.04 107.411C125.04 106.327 124.161 105.448 123.077 105.448C121.992 105.448 121.113 106.327 121.113 107.411C121.113 108.496 121.992 109.375 123.077 109.375Z" fill="white" stroke="#1A1A1A" stroke-width="0.5" stroke-linecap="round" stroke-linejoin="round"/>
<path d="M132.245 96.2791C133.329 96.2791 134.208 95.4 134.208 94.3156C134.208 93.2311 133.329 92.3521 132.245 92.3521C131.16 92.3521 130.281 93.2311 130.281 94.3156C130.281 95.4 131.16 96.2791 132.245 96.2791Z" fill="white" stroke="#1A1A1A" stroke-width="0.5" stroke-linecap="round" stroke-linejoin="round"/>
<path d="M141.413 102.827C142.497 102.827 143.376 101.948 143.376 100.863C143.376 99.7787 142.497 98.8996 141.413 98.8996C140.328 98.8996 139.449 99.7787 139.449 100.863C139.449 101.948 140.328 102.827 141.413 102.827Z" fill="white" stroke="#1A1A1A" stroke-width="0.5" stroke-linecap="round" stroke-linejoin="round"/>
<path d="M150.585 111.996C151.669 111.996 152.548 111.117 152.548 110.032C152.548 108.948 151.669 108.069 150.585 108.069C149.5 108.069 148.621 108.948 148.621 110.032C148.621 111.117 149.5 111.996 150.585 111.996Z" fill="white" stroke="#1A1A1A" stroke-width="0.5" stroke-linecap="round" stroke-linejoin="round"/>
<path d="M159.753 123.128C160.837 123.128 161.716 122.249 161.716 121.164C161.716 120.08 160.837 119.201 159.753 119.201C158.668 119.201 157.789 120.08 157.789 121.164C157.789 122.249 158.668 123.128 159.753 123.128Z" fill="white" stroke="#1A1A1A" stroke-width="0.5" stroke-linecap="round" stroke-linejoin="round"/>
<path d="M168.921 119.198C170.005 119.198 170.884 118.319 170.884 117.234C170.884 116.15 170.005 115.271 168.921 115.271C167.836 115.271 166.957 116.15 166.957 117.234C166.957 118.319 167.836 119.198 168.921 119.198Z" fill="white" stroke="#1A1A1A" stroke-width="0.5" stroke-linecap="round" stroke-linejoin="round"/>
<path d="M178.089 112.65C179.173 112.65 180.052 111.771 180.052 110.687C180.052 109.603 179.173 108.723 178.089 108.723C177.004 108.723 176.125 109.603 176.125 110.687C176.125 111.771 177.004 112.65 178.089 112.65Z" fill="white" stroke="#1A1A1A" stroke-width="0.5" stroke-linecap="round" stroke-linejoin="round"/>
<path d="M187.256 118.544C188.341 118.544 189.22 117.665 189.22 116.581C189.22 115.496 188.341 114.617 187.256 114.617C186.172 114.617 185.293 115.496 185.293 116.581C185.293 117.665 186.172 118.544 187.256 118.544Z" fill="white" stroke="#1A1A1A" stroke-width="0.5" stroke-linecap="round" stroke-linejoin="round"/>
<path d="M196.424 122.473C197.509 122.473 198.388 121.594 198.388 120.51C198.388 119.425 197.509 118.546 196.424 118.546C195.34 118.546 194.461 119.425 194.461 120.51C194.461 121.594 195.34 122.473 196.424 122.473Z" fill="white" stroke="#1A1A1A" stroke-width="0.5" stroke-linecap="round" stroke-linejoin="round"/>
<path d="M205.592 117.89C206.677 117.89 207.556 117.01 207.556 115.926C207.556 114.842 206.677 113.962 205.592 113.962C204.508 113.962 203.629 114.842 203.629 115.926C203.629 117.01 204.508 117.89 205.592 117.89Z" fill="white" stroke="#1A1A1A" stroke-width="0.5" stroke-linecap="round" stroke-linejoin="round"/>
<path d="M214.764 119.198C215.849 119.198 216.728 118.319 216.728 117.234C216.728 116.15 215.849 115.271 214.764 115.271C213.68 115.271 212.801 116.15 212.801 117.234C212.801 118.319 213.68 119.198 214.764 119.198Z" fill="white" stroke="#1A1A1A" stroke-width="0.5" stroke-linecap="round" stroke-linejoin="round"/>
<path d="M223.932 123.128C225.017 123.128 225.896 122.249 225.896 121.164C225.896 120.08 225.017 119.201 223.932 119.201C222.848 119.201 221.969 120.08 221.969 121.164C221.969 122.249 222.848 123.128 223.932 123.128Z" fill="white" stroke="#1A1A1A" stroke-width="0.5" stroke-linecap="round" stroke-linejoin="round"/>
<path d="M233.096 130.333C234.181 130.333 235.06 129.454 235.06 128.37C235.06 127.285 234.181 126.406 233.096 126.406C232.012 126.406 231.133 127.285 231.133 128.37C231.133 129.454 232.012 130.333 233.096 130.333Z" fill="white" stroke="#1A1A1A" stroke-width="0.5" stroke-linecap="round" stroke-linejoin="round"/>
<path d="M50.0859 222.312L66.2864 121.159H131.022L154.112 96.5543H247.614L223.58 222.312H50.0859Z" fill="#666666" stroke="black" stroke-width="0.5" stroke-linecap="round" stroke-linejoin="round"/>
<path d="M154.974 216.071C181.634 216.071 203.246 194.459 203.246 167.8C203.246 141.14 181.634 119.528 154.974 119.528C128.315 119.528 106.703 141.14 106.703 167.8C106.703 194.459 128.315 216.071 154.974 216.071Z" fill="black"/>
<path d="M158.503 216.123C184.691 216.123 205.92 194.894 205.92 168.706C205.92 142.518 184.691 121.289 158.503 121.289C132.315 121.289 111.086 142.518 111.086 168.706C111.086 194.894 132.315 216.123 158.503 216.123Z" fill="white" stroke="black" stroke-width="0.5" stroke-miterlimit="10" stroke-linecap="round" stroke-linejoin="round"/>
<path d="M158.501 208.692C180.585 208.692 198.487 190.79 198.487 168.706C198.487 146.622 180.585 128.72 158.501 128.72C136.418 128.72 118.516 146.622 118.516 168.706C118.516 190.79 136.418 208.692 158.501 208.692Z" fill="#E5E5E5" stroke="black" stroke-width="0.5" stroke-miterlimit="10" stroke-linecap="round" stroke-linejoin="round"/>
<path d="M139.455 174.267C142.526 174.267 145.015 171.777 145.015 168.706C145.015 165.635 142.526 163.146 139.455 163.146C136.384 163.146 133.895 165.635 133.895 168.706C133.895 171.777 136.384 174.267 139.455 174.267Z" fill="black"/>
<path d="M177.549 174.267C180.62 174.267 183.109 171.777 183.109 168.706C183.109 165.635 180.62 163.146 177.549 163.146C174.478 163.146 171.988 165.635 171.988 168.706C171.988 171.777 174.478 174.267 177.549 174.267Z" fill="black"/>
<path d="M342.206 206.01C342.887 200.91 340.099 196.329 335.979 195.779C331.859 195.228 327.966 198.916 327.285 204.017C326.603 209.117 329.391 213.697 333.511 214.248C337.632 214.798 341.524 211.11 342.206 206.01Z" fill="#4C4C4C" stroke="black" stroke-width="0.5" stroke-linecap="round" stroke-linejoin="round"/>
<path d="M333.219 196.458C333.219 196.458 336.143 182.07 347.536 181.876C358.929 181.682 361.765 186.14 363.35 188.344C365.101 190.271 364.703 193.082 372.233 194.6C379.762 196.117 381.306 193.027 386.713 198.625C392.12 204.223 390.573 209.543 395.595 210.551C400.617 211.559 407.95 205.385 415.867 209.63C423.785 213.876 424.472 219.3 431.755 221.872C434.402 222.807 440.788 223.627 451.868 219.06C452.737 218.701 453.591 219.572 453.108 220.38C449.36 226.627 441.784 230.994 441.784 230.994C441.784 230.994 443.09 232.608 447.53 229.517C451.97 226.427 449.462 234.536 442.123 238.591C434.784 242.645 432.665 241.296 429.768 240.908C426.872 240.52 422.479 239.428 422.479 239.428C422.479 239.428 425.086 245.136 430.82 244.235C435.477 243.503 437.539 247.236 427.99 250.068C415.737 253.702 416.059 246.303 409.687 246.882C403.316 247.461 397.524 257.114 386.907 254.797C376.29 252.48 374.631 242.828 368.025 238.773C361.419 234.719 336.998 224.875 336.998 224.875L333.219 196.458Z" fill="black"/>
<path d="M340.309 184.284C340.309 184.284 327.108 183.822 329.593 201.607C332.292 220.928 344.51 230.887 344.51 230.887L340.309 184.284Z" fill="black"/>
<path d="M364.688 240.366C364.688 240.366 398.105 281.241 434.667 299.641C471.229 318.041 520.323 318.162 520.323 318.162C520.323 318.162 506.096 328.64 487.155 328.698C468.213 328.756 457.039 334.477 460.026 351.125C463.012 367.773 484.192 398.015 452.763 402.649C421.334 407.282 375.187 382.622 360.422 364.487C345.657 346.352 364.688 240.366 364.688 240.366Z" fill="#333333" stroke="black" stroke-width="0.5" stroke-linecap="round" stroke-linejoin="round"/>
<path d="M281.541 222.748L253.652 198.038L258.717 194.434L280.477 209.365L281.541 222.748Z" fill="#E5E5E5" stroke="black" stroke-width="0.5" stroke-linecap="round" stroke-linejoin="round"/>
<path d="M342.403 264.143C340.517 263.589 311.825 251.422 302.724 247.555C300.905 246.783 299.237 245.696 297.796 244.345L268.211 216.617L276.509 205.871L307.36 227.545L342.178 237.631L342.403 264.143Z" fill="#999999" stroke="black" stroke-width="0.5" stroke-linecap="round" stroke-linejoin="round"/>
<path d="M352.537 221.345L354.99 238.115C355.7 242.971 354.084 254.064 349.177 254.203L346.551 255.146C342.348 255.265 340.386 254.274 339.824 250.119L336.27 222.102L352.537 221.345Z" fill="#E5E5E5" stroke="black" stroke-width="0.5" stroke-miterlimit="10" stroke-linecap="round" stroke-linejoin="round"/>
<path d="M352.533 204.655C350.274 201.223 345.489 199.442 345.489 199.442L339.445 191.988C338.102 191.852 332.973 193.485 331.971 197.884C330.578 203.986 328.852 211.895 328.568 214.774C328.081 219.717 330.977 226.488 338.125 226.758C345.272 227.027 349.726 225.599 353.106 222.286C356.046 219.39 356.506 216.81 356.871 214.846C356.885 214.858 355.255 208.791 352.533 204.655Z" fill="#E5E5E5" stroke="black" stroke-width="0.5" stroke-miterlimit="10" stroke-linecap="round" stroke-linejoin="round"/>
<path d="M344.833 207.854L340.5 205.149" stroke="black" stroke-width="0.5" stroke-linecap="round" stroke-linejoin="round"/>
<path d="M334.981 202.618L331.109 202.167" stroke="black" stroke-width="0.5" stroke-linecap="round" stroke-linejoin="round"/>
<path d="M335.843 207.527C335.843 207.527 333.372 210.568 333.387 212.19C333.401 213.812 335.788 213.821 335.788 213.821" stroke="black" stroke-width="0.5" stroke-linecap="round" stroke-linejoin="round"/>
<path d="M340.932 211.093C341.639 211.093 342.212 210.52 342.212 209.813C342.212 209.106 341.639 208.533 340.932 208.533C340.225 208.533 339.652 209.106 339.652 209.813C339.652 210.52 340.225 211.093 340.932 211.093Z" fill="black"/>
<path d="M332.304 207.573C333.01 207.573 333.584 207 333.584 206.293C333.584 205.586 333.01 205.013 332.304 205.013C331.597 205.013 331.023 205.586 331.023 206.293C331.023 207 331.597 207.573 332.304 207.573Z" fill="black"/>
<path d="M336.062 219.787C336.831 220.044 337.666 220.025 338.423 219.735C339.581 219.234 340.436 217.725 340.436 217.725" stroke="black" stroke-width="0.5" stroke-linecap="round" stroke-linejoin="round"/>
<path d="M362.367 216.902C352.057 216.702 358.125 204.927 347.354 200.786C337.238 196.896 337.007 189.566 338.788 187.249" fill="black"/>
<path d="M361.491 213.511C362.172 208.41 359.384 203.83 355.264 203.279C351.144 202.729 347.251 206.417 346.57 211.517C345.888 216.617 348.676 221.198 352.796 221.748C356.917 222.299 360.809 218.611 361.491 213.511Z" fill="#4C4C4C" stroke="black" stroke-width="0.5" stroke-linecap="round" stroke-linejoin="round"/>
<path d="M360.871 213.542C361.363 209.864 359.353 206.56 356.382 206.163C353.411 205.766 350.604 208.426 350.112 212.104C349.621 215.782 351.631 219.086 354.602 219.483C357.573 219.879 360.38 217.22 360.871 213.542Z" fill="#B3B3B3" stroke="black" stroke-width="0.5" stroke-linecap="round" stroke-linejoin="round"/>
<path d="M346.63 230.167C345.581 230.574 344.467 230.791 343.342 230.807L343.336 230.276C346.904 230.221 350.137 228.063 352.177 224.355C354.729 219.742 356.936 212.245 356.959 212.168L357.47 212.318C357.447 212.395 355.219 219.949 352.644 224.613C351.146 227.318 349.045 229.236 346.63 230.167Z" fill="black"/>
<path d="M342.299 228.899L339.415 228.905C338.599 228.907 337.939 229.57 337.941 230.385L337.941 230.501C337.943 231.317 338.605 231.977 339.421 231.975L342.305 231.969C343.121 231.967 343.781 231.305 343.779 230.489L343.779 230.373C343.777 229.557 343.115 228.897 342.299 228.899Z" fill="#B3B3B3" stroke="black" stroke-width="0.5" stroke-linecap="round" stroke-linejoin="round"/>
<path d="M355.195 210.536C356.006 206.658 356.704 204.338 354.488 196.481C351.636 186.362 338.945 184.436 338.945 184.436L342.16 184.373C342.16 184.373 354.144 185.963 357.61 196.69C359.617 202.905 360.04 207.923 359.044 212.204C358.812 213.197 357.746 215.653 356.107 215.039C354.468 214.425 354.958 211.659 355.195 210.536Z" fill="#CCCCCC" stroke="black" stroke-width="0.5" stroke-linecap="round" stroke-linejoin="round"/>
<path d="M441.89 482.739L427.148 463.148L438.903 454.304L452.21 474.971L441.89 482.739Z" fill="#E5E5E5" stroke="black" stroke-width="0.5" stroke-linecap="round" stroke-linejoin="round"/>
<path d="M354.477 348.48L398.827 424.13L432.186 472.462L450.439 457.443L418.79 408.982C418.79 408.982 389.633 324.314 388.32 324.577C387.006 324.839 354.477 348.48 354.477 348.48Z" fill="#666666" stroke="black" stroke-width="0.5" stroke-miterlimit="10" stroke-linecap="round" stroke-linejoin="round"/>
<path d="M409.5 411.545H384.984V396.835L409.5 398.154V411.545Z" fill="#E5E5E5" stroke="black" stroke-width="0.5" stroke-linecap="round" stroke-linejoin="round"/>
<path d="M397.425 395.727V418.661L328.867 418.186C315.166 417.55 307.094 402.53 314.125 390.752L357.766 317.66L380.007 310.305L387.814 319.909C392.288 325.415 394.494 332.421 393.983 339.497C393.472 346.574 390.282 353.19 385.063 357.996L346.03 392.872L397.425 395.727Z" fill="#666666" stroke="black" stroke-width="0.5" stroke-miterlimit="10" stroke-linecap="round" stroke-linejoin="round"/>
<path d="M354.258 230.625C354.082 229.927 327.202 247.072 329.117 286.123C330.596 316.126 333.583 332.803 334.896 338.921C334.97 339.266 335.115 339.591 335.324 339.875C335.532 340.159 335.798 340.396 336.105 340.57C336.411 340.743 336.751 340.85 337.102 340.883C337.453 340.916 337.807 340.874 338.14 340.76C338.14 340.76 370.993 340.896 395.422 321.164C395.422 321.164 379.643 306.378 376.682 294.721C372.306 277.473 375.282 265.477 374.802 256.108L371.98 247.177L354.258 230.625Z" fill="#B3B3B3" stroke="black" stroke-width="0.5" stroke-linecap="round" stroke-linejoin="round"/>
<path d="M289.473 277.907C315.74 307.605 278.784 340.894 344.789 355.658C415.52 371.474 426 320.268 462.935 341.587C484.79 354.195 484.212 392.648 508.661 411.842C563.243 454.692 577.372 300.967 491.795 266.861" stroke="#1A1A1A" stroke-width="3" stroke-linecap="round" stroke-linejoin="round"/>
<path d="M285.544 268.403L278.695 274.249C277.166 275.554 276.984 277.852 278.289 279.381L288.469 291.309C289.775 292.839 292.073 293.02 293.602 291.715L300.451 285.869C301.981 284.564 302.162 282.266 300.857 280.737L290.677 268.809C289.371 267.279 287.073 267.098 285.544 268.403Z" fill="#333333"/>
<path d="M198.911 199.725C197.31 197.849 194.491 197.626 192.615 199.227C190.739 200.828 190.517 203.647 192.118 205.522L212.581 229.498C214.182 231.374 217 231.597 218.876 229.996C220.752 228.395 220.975 225.576 219.374 223.7L198.911 199.725Z" fill="#CCCCCC" stroke="black" stroke-width="0.5" stroke-miterlimit="10" stroke-linecap="round" stroke-linejoin="round"/>
<path d="M231.274 172.103C229.673 170.227 226.854 170.004 224.979 171.605C223.103 173.206 222.88 176.025 224.481 177.901L244.944 201.877C246.545 203.752 249.363 203.975 251.239 202.374C253.115 200.773 253.338 197.955 251.737 196.079L231.274 172.103Z" fill="#CCCCCC" stroke="black" stroke-width="0.5" stroke-miterlimit="10" stroke-linecap="round" stroke-linejoin="round"/>
<path d="M206.375 233.291L256.459 190.546L290.93 230.936C296.319 237.252 298.978 245.45 298.323 253.726C297.668 262.003 293.752 269.681 287.437 275.07L284.982 277.166C281.854 279.835 278.232 281.862 274.321 283.131C270.411 284.4 266.288 284.887 262.19 284.563C258.091 284.239 254.096 283.111 250.434 281.243C246.771 279.375 243.512 276.804 240.843 273.677L206.375 233.291Z" fill="#B3B3B3" stroke="black" stroke-width="0.5" stroke-miterlimit="10" stroke-linecap="round" stroke-linejoin="round"/>
<path d="M235.143 209.811L230.152 214.08L256.332 244.689L261.323 240.421L235.143 209.811Z" fill="#E5E5E5" stroke="black" stroke-width="0.5" stroke-linecap="round" stroke-linejoin="round"/>
<path d="M286.261 227.734L238.417 268.568C234.741 271.705 234.305 277.228 237.442 280.903L238.018 281.579C241.155 285.254 246.678 285.691 250.354 282.554L298.197 241.72C301.873 238.583 302.31 233.06 299.173 229.385L298.596 228.709C295.459 225.034 289.936 224.597 286.261 227.734Z" fill="#999999" stroke="black" stroke-width="0.5" stroke-linecap="round" stroke-linejoin="round"/>
<path d="M395.973 288.493C395.973 288.493 411.914 305.113 429.671 314.461" stroke="black" stroke-width="0.5" stroke-linecap="round" stroke-linejoin="round"/>
<path d="M404.988 304.503C404.988 304.503 420.93 321.12 438.689 330.468" stroke="black" stroke-width="0.5" stroke-linecap="round" stroke-linejoin="round"/>
<path d="M474.578 484.735L506.17 530.167" stroke="black" stroke-width="0.5" stroke-linecap="round" stroke-linejoin="round"/>
<path d="M482.949 507.551L497.488 528.462" stroke="black" stroke-width="0.5" stroke-linecap="round" stroke-linejoin="round"/>
<path d="M431.38 423.143L436.027 432.31C436.505 433.256 438.593 433.776 439.647 433.674L442.373 431.796L441.291 420.001L429.878 395.433L424.871 390.487C423.528 390.53 422.216 390.899 421.049 391.564L412.809 396.253L400.934 396.295L401.459 412.555L414.285 412.218L431.38 423.143Z" fill="black" stroke="black" stroke-width="0.5" stroke-linecap="round" stroke-linejoin="round"/>
<path d="M439.984 433.671L447.032 432.709C447.032 432.709 448.208 429.696 447.985 422.62C447.762 415.543 446.693 413.164 446.693 413.164L440.417 413.363L435.44 403.889L446.078 403.55C446.078 403.55 445.863 396.757 445.188 393.379C444.512 390.001 442.387 389.925 442.387 389.925L426.595 390.075C425.253 390.117 423.619 390.258 422.453 390.923C422.453 390.931 439.629 412.693 439.984 433.671Z" fill="white" stroke="black" stroke-width="0.5" stroke-linecap="round" stroke-linejoin="round"/>
<path d="M445.724 509.707L440.76 518.706C440.248 519.634 440.991 521.654 441.669 522.468L444.755 523.666L453.899 516.135L467.792 492.878L469.063 485.956C468.272 484.87 467.228 483.993 466.021 483.4L457.511 479.227L450.797 469.434L437.645 479.008L445.139 489.424L445.724 509.707Z" fill="black" stroke="black" stroke-width="0.5" stroke-linecap="round" stroke-linejoin="round"/>
<path d="M441.863 522.743L446.62 528.028C446.62 528.028 449.772 527.309 455.499 523.143C461.225 518.976 462.591 516.76 462.591 516.76L458.898 511.685L463.931 502.228L470.195 510.836C470.195 510.836 475.691 506.836 478.102 504.38C480.513 501.924 479.384 500.119 479.384 500.119L470.377 487.148C469.589 486.061 468.538 484.784 467.343 484.198C467.335 484.206 459.013 510.66 441.863 522.743Z" fill="white" stroke="black" stroke-width="0.5" stroke-linecap="round" stroke-linejoin="round"/>
<path d="M339.381 331.056L332.31 336.236C332.31 336.236 323.545 344.737 321.301 346.108C319.058 347.479 315.911 348.191 314.821 347.492C313.731 346.793 314.007 345.774 314.007 345.774C314.007 345.774 312.801 346.097 311.992 345.265C311.759 345.039 311.577 344.766 311.46 344.463C311.342 344.161 311.292 343.836 311.312 343.513C311.312 343.513 309.888 343.82 309.237 342.987C308.585 342.154 309.042 340.859 309.042 340.859C309.042 340.859 307.571 341.613 306.728 340.334C305.885 339.055 309.284 336.063 309.284 336.063C308.828 335.46 308.409 334.829 308.031 334.174C308.031 334.174 308.425 333.578 310.153 332.304C311.39 331.397 312.836 330.817 314.356 330.618L322.068 329.606L333.597 322.275L339.381 331.056Z" fill="#E5E5E5" stroke="black" stroke-width="0.5" stroke-miterlimit="10" stroke-linecap="round" stroke-linejoin="round"/>
<path d="M313.211 333.032L309.281 336.066" stroke="black" stroke-width="0.5" stroke-linecap="round" stroke-linejoin="round"/>
<path d="M311.544 339.215L309.059 340.852" stroke="black" stroke-width="0.5" stroke-linecap="round" stroke-linejoin="round"/>
<path d="M313.472 342.142L311.387 343.513" stroke="black" stroke-width="0.5" stroke-linecap="round" stroke-linejoin="round"/>
<path d="M315.467 344.81L313.859 345.869" stroke="black" stroke-width="0.5" stroke-linecap="round" stroke-linejoin="round"/>
<path d="M311.465 335.956L313.797 338.614" stroke="black" stroke-width="0.5" stroke-linecap="round" stroke-linejoin="round"/>
<path d="M316.727 341.787L320.727 346.229" stroke="black" stroke-width="0.5" stroke-linecap="round" stroke-linejoin="round"/>
<path d="M353.776 262.152C353.576 258.298 354.391 254.459 356.14 251.02C358.394 246.649 362.631 242.002 369.44 244.96C379.511 249.333 377.475 270.334 377.475 270.334L374.365 301.02C374.186 303.121 373.581 305.164 372.588 307.024C371.594 308.884 370.233 310.522 368.586 311.839L336.863 336.068L328.586 324.955L355.571 300.431L353.776 262.152Z" fill="#B3B3B3" stroke="black" stroke-width="0.5" stroke-linecap="round" stroke-linejoin="round"/>
</svg>
