<svg width="560" height="560" viewBox="0 0 560 560" fill="none" xmlns="http://www.w3.org/2000/svg">
<path d="M449.341 13.3857H133.686C130.583 13.3857 128.066 15.9019 128.066 19.0058V218.012C128.066 221.116 130.583 223.632 133.686 223.632H449.341C452.444 223.632 454.961 221.116 454.961 218.012V19.0058C454.961 15.9019 452.444 13.3857 449.341 13.3857Z" fill="#CCCCCC"/>
<path d="M128.066 30.6319H454.96V224.982C454.96 226.436 454.383 227.83 453.355 228.857C452.327 229.885 450.933 230.462 449.48 230.462H133.538C132.085 230.462 130.691 229.885 129.664 228.857C128.636 227.83 128.059 226.436 128.059 224.982V30.6319H128.066Z" fill="#E5E5E5"/>
<path d="M152.742 45.4797C152.742 44.2114 151.714 43.1833 150.447 43.1833C149.18 43.1833 148.152 44.2114 148.152 45.4797V66.9328C148.152 68.2011 149.18 69.2292 150.447 69.2292C151.714 69.2292 152.742 68.2011 152.742 66.9328V45.4797Z" fill="#CCCCCC"/>
<path d="M168.382 51.0371C168.382 49.7688 167.355 48.7407 166.088 48.7407C164.82 48.7407 163.793 49.7688 163.793 51.0371V61.3762C163.793 62.6445 164.82 63.6726 166.088 63.6726C167.355 63.6726 168.382 62.6445 168.382 61.3762V51.0371Z" fill="#CCCCCC"/>
<path d="M175.847 56.2067C175.847 54.9393 174.82 53.912 173.552 53.912C172.285 53.912 171.258 54.9393 171.258 56.2067C171.258 57.474 172.285 58.5013 173.552 58.5013C174.82 58.5013 175.847 57.474 175.847 56.2067Z" fill="#CCCCCC"/>
<path d="M161.167 40.5297C161.167 38.9497 159.886 37.6688 158.306 37.6688C156.726 37.6688 155.445 38.9497 155.445 40.5297V71.8837C155.445 73.4637 156.726 74.7446 158.306 74.7446C159.886 74.7446 161.167 73.4637 161.167 71.8837V40.5297Z" fill="#CCCCCC"/>
<path d="M437.66 40.2247H202.858C200.337 40.2247 198.293 42.2684 198.293 44.7895V90.7844C198.293 93.3055 200.337 95.3492 202.858 95.3492H437.66C440.181 95.3492 442.225 93.3055 442.225 90.7844V44.7895C442.225 42.2684 440.181 40.2247 437.66 40.2247Z" fill="white" stroke="black" stroke-width="0.5" stroke-linecap="round" stroke-linejoin="round"/>
<path d="M437.66 146.659H202.858C200.337 146.659 198.293 148.703 198.293 151.224V215.015C198.293 217.536 200.337 219.58 202.858 219.58H437.66C440.181 219.58 442.225 217.536 442.225 215.015V151.224C442.225 148.703 440.181 146.659 437.66 146.659Z" fill="white" stroke="black" stroke-width="0.5" stroke-linecap="round" stroke-linejoin="round"/>
<path d="M250.367 99.1317H202.858C200.337 99.1317 198.293 101.175 198.293 103.697V138.129C198.293 140.65 200.337 142.694 202.858 142.694H250.367C252.888 142.694 254.932 140.65 254.932 138.129V103.697C254.932 101.175 252.888 99.1317 250.367 99.1317Z" fill="white" stroke="black" stroke-width="0.5" stroke-linecap="round" stroke-linejoin="round"/>
<path d="M310.922 99.1317H263.412C260.891 99.1317 258.848 101.175 258.848 103.697V138.129C258.848 140.65 260.891 142.694 263.412 142.694H310.922C313.443 142.694 315.487 140.65 315.487 138.129V103.697C315.487 101.175 313.443 99.1317 310.922 99.1317Z" fill="white" stroke="black" stroke-width="0.5" stroke-linecap="round" stroke-linejoin="round"/>
<path d="M437.891 99.1317H324.588C322.067 99.1317 320.023 101.175 320.023 103.697V138.129C320.023 140.65 322.067 142.694 324.588 142.694H437.891C440.412 142.694 442.456 140.65 442.456 138.129V103.697C442.456 101.175 440.412 99.1317 437.891 99.1317Z" fill="white" stroke="black" stroke-width="0.5" stroke-linecap="round" stroke-linejoin="round"/>
<path d="M226.612 139.465C221.511 139.455 216.622 137.424 213.015 133.817C209.408 130.21 207.377 125.321 207.367 120.22C207.376 115.119 209.407 110.229 213.014 106.622C216.621 103.014 221.51 100.983 226.612 100.973C231.714 100.982 236.604 103.013 240.212 106.62C243.819 110.228 245.85 115.118 245.859 120.22C245.849 125.322 243.818 130.211 240.21 133.818C236.603 137.425 231.713 139.455 226.612 139.465ZM226.612 108.307C223.45 108.307 220.418 109.563 218.183 111.798C215.947 114.034 214.691 117.066 214.691 120.227C214.691 123.389 215.947 126.421 218.183 128.656C220.418 130.892 223.45 132.148 226.612 132.148C229.773 132.148 232.805 130.892 235.041 128.656C237.276 126.421 238.532 123.389 238.532 120.227C238.532 117.066 237.276 114.034 235.041 111.798C232.805 109.563 229.773 108.307 226.612 108.307Z" fill="#B3B3B3"/>
<path d="M226.612 139.465C221.511 139.455 216.622 137.424 213.015 133.817C209.408 130.21 207.377 125.321 207.367 120.22C207.364 117.393 207.985 114.6 209.186 112.04C210.387 109.481 212.139 107.219 214.316 105.415L219.004 111.052C217.656 112.17 216.571 113.571 215.827 115.155C215.083 116.74 214.697 118.47 214.698 120.22C214.698 123.382 215.954 126.414 218.19 128.649C220.425 130.885 223.457 132.141 226.619 132.141C229.78 132.141 232.812 130.885 235.048 128.649C237.283 126.414 238.539 123.382 238.539 120.22C238.539 117.059 237.283 114.027 235.048 111.792C232.812 109.556 229.78 108.3 226.619 108.3V100.966C231.721 100.975 236.611 103.006 240.219 106.613C243.826 110.221 245.857 115.111 245.866 120.213C245.858 125.317 243.827 130.21 240.217 133.818C236.608 137.427 231.715 139.457 226.612 139.465Z" fill="#666666"/>
<path d="M226.612 139.465C221.511 139.454 216.622 137.424 213.015 133.817C209.408 130.21 207.377 125.321 207.367 120.22C207.355 116.033 208.72 111.958 211.252 108.623L217.1 113.058C215.534 115.122 214.69 117.643 214.698 120.234C214.698 123.396 215.954 126.428 218.19 128.663C220.425 130.899 223.457 132.155 226.619 132.155C229.78 132.155 232.812 130.899 235.048 128.663C237.283 126.428 238.539 123.396 238.539 120.234C238.539 117.073 237.283 114.041 235.048 111.805C232.812 109.57 229.78 108.314 226.619 108.314V100.979C231.721 100.989 236.611 103.02 240.219 106.627C243.826 110.235 245.857 115.125 245.866 120.227C245.854 125.329 243.821 130.217 240.212 133.823C236.604 137.429 231.713 139.457 226.612 139.465Z" fill="#333333"/>
<path d="M226.612 139.465C221.511 139.455 216.622 137.424 213.015 133.817C209.408 130.21 207.377 125.321 207.367 120.22C207.363 118.773 207.522 117.33 207.841 115.919L214.986 117.552C214.788 118.428 214.688 119.323 214.688 120.22C214.688 123.382 215.944 126.414 218.179 128.649C220.415 130.885 223.447 132.141 226.608 132.141C229.77 132.141 232.802 130.885 235.037 128.649C237.273 126.414 238.528 123.382 238.528 120.22C238.528 117.059 237.273 114.027 235.037 111.792C232.802 109.556 229.77 108.3 226.608 108.3V100.966C231.71 100.975 236.601 103.006 240.208 106.613C243.816 110.221 245.847 115.111 245.856 120.213C245.848 125.315 243.818 130.206 240.211 133.815C236.604 137.423 231.714 139.455 226.612 139.465Z" fill="#666666"/>
<path d="M226.612 139.464C223.136 139.467 219.724 138.526 216.74 136.744C213.756 134.962 211.31 132.404 209.664 129.343L216.115 125.865C217.136 127.76 218.65 129.344 220.499 130.447C222.347 131.551 224.459 132.134 226.612 132.133C229.773 132.133 232.805 130.878 235.041 128.642C237.276 126.407 238.532 123.375 238.532 120.213C238.532 117.052 237.276 114.02 235.041 111.784C232.805 109.549 229.773 108.293 226.612 108.293V100.958C231.714 100.968 236.604 102.998 240.212 106.606C243.82 110.214 245.851 115.104 245.86 120.206C245.853 125.31 243.824 130.203 240.216 133.813C236.608 137.423 231.716 139.455 226.612 139.464Z" fill="#CCCCCC"/>
<path d="M229.014 139.318L228.106 132.043C230.984 131.677 233.63 130.275 235.548 128.099C237.466 125.923 238.525 123.122 238.526 120.22C238.526 118.655 238.217 117.105 237.618 115.659C237.019 114.213 236.141 112.898 235.034 111.792C233.928 110.685 232.613 109.807 231.167 109.208C229.721 108.608 228.171 108.3 226.605 108.3V100.966C231.707 100.975 236.598 103.006 240.205 106.613C243.813 110.221 245.844 115.111 245.853 120.213C245.848 124.9 244.135 129.425 241.036 132.941C237.937 136.457 233.663 138.724 229.014 139.318Z" fill="#999999"/>
<path d="M287.168 139.482C282.041 139.477 277.126 137.438 273.501 133.813C269.877 130.188 267.838 125.273 267.832 120.147C267.838 115.02 269.877 110.105 273.501 106.481C277.126 102.856 282.041 100.817 287.168 100.811C292.294 100.817 297.209 102.856 300.834 106.481C304.459 110.105 306.497 115.02 306.503 120.147C306.497 125.273 304.459 130.188 300.834 133.813C297.209 137.438 292.294 139.477 287.168 139.482ZM287.168 108.177C283.994 108.181 280.952 109.443 278.708 111.687C276.464 113.931 275.202 116.973 275.198 120.147C275.201 123.32 276.463 126.363 278.707 128.607C280.951 130.851 283.994 132.113 287.168 132.116C290.341 132.112 293.383 130.85 295.627 128.606C297.871 126.362 299.133 123.32 299.137 120.147C299.133 116.973 297.871 113.931 295.627 111.687C293.383 109.443 290.341 108.181 287.168 108.177Z" fill="#999999"/>
<path d="M276.345 115.021L269.684 111.866C271.261 108.565 273.738 105.777 276.83 103.821C279.922 101.866 283.503 100.822 287.161 100.811V108.174C284.897 108.183 282.681 108.83 280.768 110.041C278.855 111.252 277.322 112.978 276.345 115.021Z" fill="#666666"/>
<path d="M183.969 99.0895H140.758C138.624 99.0895 136.895 100.819 136.895 102.951C136.895 105.084 138.624 106.813 140.758 106.813H183.969C186.103 106.813 187.833 105.084 187.833 102.951C187.833 100.819 186.103 99.0895 183.969 99.0895Z" fill="white" stroke="black" stroke-width="0.5" stroke-linecap="round" stroke-linejoin="round"/>
<path d="M163.68 112.121H140.758C138.624 112.121 136.895 113.85 136.895 115.983C136.895 118.116 138.624 119.845 140.758 119.845H163.68C165.814 119.845 167.544 118.116 167.544 115.983C167.544 113.85 165.814 112.121 163.68 112.121Z" fill="white" stroke="black" stroke-width="0.5" stroke-linecap="round" stroke-linejoin="round"/>
<path d="M175.692 125.823H140.758C138.624 125.823 136.895 127.552 136.895 129.685C136.895 131.817 138.624 133.546 140.758 133.546H175.692C177.826 133.546 179.555 131.817 179.555 129.685C179.555 127.552 177.826 125.823 175.692 125.823Z" fill="white" stroke="black" stroke-width="0.5" stroke-linecap="round" stroke-linejoin="round"/>
<path d="M185.976 142.697H141.106C138.541 142.697 136.461 144.777 136.461 147.343V149.695C136.461 152.261 138.541 154.34 141.106 154.34H185.976C188.542 154.34 190.621 152.261 190.621 149.695V147.343C190.621 144.777 188.542 142.697 185.976 142.697Z" fill="#999999" stroke="black" stroke-width="0.5" stroke-linecap="round" stroke-linejoin="round"/>
<path d="M215.926 166.952C215.926 165.777 216.392 164.65 217.222 163.819C218.053 162.988 219.179 162.521 220.354 162.52H242.505C243.679 162.521 244.806 162.988 245.636 163.819C246.466 164.65 246.933 165.777 246.933 166.952V210.973H215.926V166.952Z" fill="#999999"/>
<path d="M251.363 176.919C251.363 176.337 251.477 175.761 251.699 175.224C251.922 174.686 252.248 174.197 252.659 173.786C253.07 173.374 253.559 173.048 254.096 172.825C254.633 172.602 255.21 172.488 255.791 172.488H277.939C279.114 172.488 280.241 172.955 281.072 173.786C281.903 174.617 282.37 175.744 282.37 176.919V210.973H251.363V176.919Z" fill="#999999"/>
<path d="M286.8 183.009C286.8 182.427 286.915 181.851 287.137 181.314C287.36 180.776 287.687 180.288 288.098 179.877C288.51 179.465 288.998 179.139 289.536 178.917C290.074 178.695 290.65 178.58 291.232 178.581H313.372C313.954 178.58 314.53 178.695 315.067 178.917C315.605 179.139 316.094 179.465 316.505 179.877C316.917 180.288 317.243 180.776 317.466 181.314C317.689 181.851 317.803 182.427 317.803 183.009V210.973H286.793L286.8 183.009Z" fill="#999999"/>
<path d="M322.238 197.405C322.243 196.233 322.712 195.11 323.543 194.284C324.373 193.457 325.498 192.993 326.67 192.994H348.817C349.399 192.994 349.975 193.108 350.513 193.33C351.05 193.552 351.539 193.879 351.95 194.29C352.362 194.701 352.689 195.189 352.911 195.727C353.134 196.264 353.249 196.84 353.249 197.422V210.99H322.238V197.405Z" fill="#999999"/>
<path d="M357.676 206.264C357.676 205.09 358.142 203.963 358.973 203.133C359.803 202.302 360.929 201.836 362.104 201.836H384.255C384.836 201.835 385.412 201.95 385.95 202.172C386.487 202.394 386.975 202.721 387.387 203.132C387.798 203.543 388.124 204.031 388.347 204.569C388.569 205.106 388.683 205.682 388.683 206.264V210.972H357.676V206.264Z" fill="#999999"/>
<path d="M393.113 210.696C393.113 209.521 393.58 208.394 394.41 207.563C395.24 206.732 396.367 206.265 397.541 206.264H419.692C420.867 206.265 421.993 206.732 422.823 207.563C423.654 208.394 424.12 209.521 424.12 210.696V210.973H393.113V210.696Z" fill="#999999"/>
<path d="M330.441 105.197C330.441 104.861 330.575 104.539 330.812 104.302C331.049 104.065 331.371 103.931 331.707 103.931H340.553C340.888 103.931 341.21 104.065 341.448 104.302C341.685 104.539 341.818 104.861 341.818 105.197V137.74H330.441V105.197Z" fill="#666666"/>
<path d="M348.137 106.933C348.138 106.598 348.271 106.277 348.509 106.04C348.746 105.803 349.067 105.671 349.402 105.671H358.248C358.583 105.671 358.904 105.803 359.142 106.04C359.379 106.277 359.513 106.598 359.514 106.933V137.898H348.137V106.933Z" fill="#666666"/>
<path d="M365.832 113.254C365.832 112.918 365.965 112.596 366.203 112.359C366.44 112.122 366.762 111.988 367.098 111.988H375.943C376.278 111.989 376.599 112.123 376.836 112.36C377.073 112.598 377.205 112.919 377.205 113.254V137.898H365.832V113.254Z" fill="#666666"/>
<path d="M383.527 116.255C383.527 115.92 383.66 115.599 383.897 115.361C384.133 115.124 384.454 114.99 384.789 114.989H393.639C393.974 114.99 394.295 115.124 394.531 115.361C394.768 115.599 394.901 115.92 394.901 116.255V137.74H383.527V116.255Z" fill="#666666"/>
<path d="M401.219 118.152C401.219 117.817 401.352 117.495 401.588 117.258C401.825 117.021 402.146 116.887 402.481 116.886H411.33C411.665 116.887 411.986 117.021 412.223 117.258C412.459 117.495 412.592 117.817 412.592 118.152V137.74H401.219V118.152Z" fill="#666666"/>
<path d="M418.898 119.719C418.898 119.384 419.031 119.063 419.268 118.826C419.505 118.59 419.826 118.457 420.161 118.457H429.006C429.172 118.456 429.337 118.489 429.49 118.552C429.644 118.615 429.783 118.708 429.901 118.825C430.019 118.942 430.112 119.082 430.175 119.235C430.239 119.388 430.272 119.553 430.272 119.719V137.74H418.898V119.719Z" fill="#666666"/>
<path d="M203.957 82.3138L220.19 81.8931L236.419 82.1034H252.648L268.881 81.8931L285.11 82.1034L301.82 81.1182L318.049 82.3138H350.507L366.74 82.1034L382.969 81.8931L399.198 80.8798L415.431 81.3566L431.66 82.5522" stroke="#4C4C4C" stroke-width="1.5" stroke-linecap="round" stroke-linejoin="round"/>
<path d="M203.957 78.4028L220.19 72.5549L236.419 66.7069L252.648 68.8561L268.881 68.6176L285.11 66.2301L301.82 71.2436L318.049 53.1037L334.278 64.7961L350.507 60.9781L366.74 60.0245L382.969 63.6041L399.198 62.1737L415.431 55.2493L431.66 52.5042" stroke="#999999" stroke-width="1.5" stroke-linecap="round" stroke-linejoin="round"/>
<path d="M203.961 211.295H436.046" stroke="black" stroke-width="0.5" stroke-linecap="round" stroke-linejoin="round"/>
<path d="M141.501 26.1163C143.519 26.1163 145.154 24.4807 145.154 22.463C145.154 20.4454 143.519 18.8098 141.501 18.8098C139.483 18.8098 137.848 20.4454 137.848 22.463C137.848 24.4807 139.483 26.1163 141.501 26.1163Z" fill="#CCCCCC" stroke="black" stroke-width="0.5" stroke-miterlimit="10" stroke-linecap="round" stroke-linejoin="round"/>
<path d="M152.739 26.1163C154.757 26.1163 156.392 24.4807 156.392 22.463C156.392 20.4454 154.757 18.8098 152.739 18.8098C150.722 18.8098 149.086 20.4454 149.086 22.463C149.086 24.4807 150.722 26.1163 152.739 26.1163Z" fill="white" stroke="black" stroke-width="0.5" stroke-miterlimit="10" stroke-linecap="round" stroke-linejoin="round"/>
<path d="M163.977 26.1163C165.995 26.1163 167.631 24.4807 167.631 22.463C167.631 20.4454 165.995 18.8098 163.977 18.8098C161.96 18.8098 160.324 20.4454 160.324 22.463C160.324 24.4807 161.96 26.1163 163.977 26.1163Z" fill="white" stroke="black" stroke-width="0.5" stroke-miterlimit="10" stroke-linecap="round" stroke-linejoin="round"/>
<path d="M481.115 349.936C481.115 349.936 472.834 337.104 458.428 337.599C444.021 338.093 437.357 345.536 436.056 345.312C434.755 345.088 433.388 337.855 439.562 331.029C445.736 324.202 453.382 325.419 458.592 327.828C463.802 330.236 468.549 334.328 468.549 334.328L479.586 344.144L481.115 349.936Z" fill="#999999" stroke="black" stroke-width="0.5" stroke-miterlimit="10" stroke-linecap="round" stroke-linejoin="round"/>
<path d="M481.115 349.936C481.115 349.936 475.905 342.434 474.359 340.554C472.813 338.675 468.539 334.324 468.539 334.324L483.17 344.842C483.17 344.842 486.444 346.848 485.54 349.007C484.635 351.167 481.115 349.936 481.115 349.936Z" fill="black" stroke="black" stroke-width="0.5" stroke-linecap="round" stroke-linejoin="round"/>
<path d="M488.337 465.725C486.542 447.417 487.426 420.669 488.067 394.364L488.211 388.404C488.874 360.566 485.543 311.244 485.508 310.746L488.663 310.371C488.698 310.869 492.046 360.444 491.377 388.555L491.233 394.515C490.599 420.655 489.943 447.872 491.703 465.848L488.337 465.725Z" fill="black" stroke="black" stroke-width="0.5" stroke-linecap="round" stroke-linejoin="round"/>
<path d="M493.83 376.992C493.83 376.992 487.979 356.152 505.603 349.786C523.228 343.419 525.093 323.897 552.001 324.132C552.001 324.118 533.097 360.076 493.83 376.992Z" fill="#4C4C4C" stroke="black" stroke-width="0.5" stroke-linecap="round" stroke-linejoin="round"/>
<path d="M518.521 289.833C507.866 309.73 494.329 322.232 493.106 323.347L493.018 323.424C493.018 323.424 483.748 290.773 495.455 270.182C507.161 249.591 525.003 249.739 525.003 249.739C525.003 249.739 529.691 268.987 518.521 289.833Z" fill="#4C4C4C" stroke="black" stroke-width="0.5" stroke-linecap="round" stroke-linejoin="round"/>
<path d="M518.52 289.833C507.866 309.73 494.329 322.232 493.105 323.347C497.635 291.968 525.01 249.739 525.01 249.739C525.01 249.739 529.69 268.987 518.52 289.833Z" fill="#999999" stroke="black" stroke-width="0.5" stroke-linecap="round" stroke-linejoin="round"/>
<path d="M484.66 332.182C484.66 332.182 487.816 339.604 488.191 346.585" stroke="black" stroke-width="0.5" stroke-miterlimit="10" stroke-linecap="round" stroke-linejoin="round"/>
<path d="M484.945 332.953C484.766 333.227 484.661 333.363 484.661 333.363C484.661 333.363 468.333 328.35 455.663 309.263C442.992 290.177 444.794 276.815 448.963 272.882C448.963 272.882 465.791 267.469 483.321 289.398C499.449 309.575 487.031 329.84 484.945 332.953Z" fill="#4C4C4C" stroke="black" stroke-width="0.5" stroke-linecap="round" stroke-linejoin="round"/>
<path d="M484.945 332.953C484.766 333.227 484.661 333.364 484.661 333.364C484.661 333.364 468.333 328.35 455.663 309.263C442.992 290.177 444.794 276.816 448.963 272.882C448.963 272.882 471.951 296.772 484.945 332.953Z" fill="black" stroke="black" stroke-width="0.5" stroke-linecap="round" stroke-linejoin="round"/>
<path d="M539.597 311.363C539.597 311.363 539.74 321.881 519.753 333.802C502.952 343.829 497.237 346.774 495.842 347.447C495.568 347.57 495.463 347.622 495.463 347.622C495.463 347.622 487.589 335.001 504.505 321.257C521.422 307.514 539.597 311.363 539.597 311.363Z" fill="#4C4C4C" stroke="black" stroke-width="0.5" stroke-linecap="round" stroke-linejoin="round"/>
<path d="M539.595 311.363C539.595 311.363 539.738 321.881 519.751 333.802C502.95 343.829 497.235 346.774 495.84 347.447C512.511 317.551 539.595 311.363 539.595 311.363Z" fill="#999999" stroke="black" stroke-width="0.5" stroke-linecap="round" stroke-linejoin="round"/>
<path d="M479.934 424.168C479.934 424.168 449.208 398.62 427.145 392.464C427.145 392.464 437.989 388.744 448.268 392.089C458.548 395.433 484.169 396.85 479.934 424.168Z" fill="#4C4C4C" stroke="black" stroke-width="0.5" stroke-linecap="round" stroke-linejoin="round"/>
<path d="M544.585 357.965C544.585 357.965 533.113 367.508 525.982 372.992C518.851 378.475 503.863 394.027 495.715 395.43L509.546 372.992C509.546 372.992 537.282 356.861 544.585 357.965Z" fill="black" stroke="black" stroke-width="0.5" stroke-linecap="round" stroke-linejoin="round"/>
<path d="M495.713 395.426C495.713 395.426 523.354 366.572 544.583 357.965C544.583 357.965 533.384 355.511 523.547 359.977C513.709 364.444 488.417 368.763 495.713 395.426Z" fill="#999999" stroke="black" stroke-width="0.5" stroke-linecap="round" stroke-linejoin="round"/>
<path d="M485.508 444.237L488.418 450.575" stroke="black" stroke-width="0.5" stroke-linecap="round" stroke-linejoin="round"/>
<path d="M486.12 445.944C485.991 446.996 469.856 427.667 449.469 427.983C449.469 427.983 463.629 424.926 473.25 429.41C482.87 433.894 486.779 440.569 486.12 445.944Z" fill="#4C4C4C" stroke="black" stroke-width="0.5" stroke-linecap="round" stroke-linejoin="round"/>
<path d="M489.285 291.292L489.481 299.892" stroke="black" stroke-width="0.5" stroke-linecap="round" stroke-linejoin="round"/>
<path d="M489.141 293.521C488.482 294.643 479.675 264.888 456.434 255.282C456.434 255.282 473.963 258.746 482.655 268.52C491.346 278.295 492.528 287.761 489.141 293.521Z" fill="#4C4C4C" stroke="black" stroke-width="0.5" stroke-linecap="round" stroke-linejoin="round"/>
<path d="M483.265 400.745C478.602 394.991 457.98 387.134 448.268 374.271C438.557 361.408 443.917 345.234 443.917 345.234C443.917 345.234 464.28 338.468 479.973 358.207C495.666 377.945 483.265 400.745 483.265 400.745Z" fill="#4C4C4C" stroke="black" stroke-width="0.5" stroke-linecap="round" stroke-linejoin="round"/>
<path d="M483.265 400.745C478.602 394.992 457.98 387.135 448.268 374.271C438.557 361.408 443.917 345.235 443.917 345.235C477.07 366.074 483.265 400.745 483.265 400.745Z" fill="#999999" stroke="black" stroke-width="0.5" stroke-linecap="round" stroke-linejoin="round"/>
<path d="M518.628 410.751C511.206 420.761 496.617 426.598 493.203 427.864C492.726 428.039 492.473 428.123 492.473 428.123C492.473 428.123 473.117 400.868 520.104 390.704C520.104 390.704 527.077 399.367 518.628 410.751Z" fill="#4C4C4C" stroke="black" stroke-width="0.5" stroke-linecap="round" stroke-linejoin="round"/>
<path d="M518.628 410.751C511.206 420.76 496.618 426.598 493.203 427.863C510.884 405.355 519.824 391.156 520.105 390.7C520.105 390.7 527.078 399.367 518.628 410.751Z" fill="black" stroke="black" stroke-width="0.5" stroke-linecap="round" stroke-linejoin="round"/>
<path d="M493.107 323.347C493.107 323.347 489.419 347.03 489.538 352.878" stroke="black" stroke-width="0.5" stroke-linecap="round" stroke-linejoin="round"/>
<path d="M480.758 349.424C480.758 349.424 487.591 359.893 489.523 370.566" stroke="black" stroke-width="0.5" stroke-linecap="round" stroke-linejoin="round"/>
<path d="M495.84 347.464C495.84 347.464 491.552 356.384 490.23 370.565" stroke="black" stroke-width="0.5" stroke-linecap="round" stroke-linejoin="round"/>
<path d="M493.83 376.988L489.531 380.67" stroke="black" stroke-width="0.5" stroke-linecap="round" stroke-linejoin="round"/>
<path d="M483.266 400.745C483.266 400.745 486.568 415.47 488.612 429.922" stroke="black" stroke-width="0.5" stroke-linecap="round" stroke-linejoin="round"/>
<path d="M492.475 428.123L488.527 437.67" stroke="black" stroke-width="0.5" stroke-linecap="round" stroke-linejoin="round"/>
<path d="M479.934 424.168C479.934 424.168 487.131 430.946 488.611 439.279" stroke="black" stroke-width="0.5" stroke-linecap="round" stroke-linejoin="round"/>
<path d="M495.712 395.426L489.531 405.359" stroke="black" stroke-width="0.5" stroke-linecap="round" stroke-linejoin="round"/>
<path d="M456.867 446.41V447.055C456.866 454.629 458.365 462.127 461.277 469.118C464.189 476.109 468.456 482.454 473.833 487.788C477.536 491.463 482.528 493.548 487.746 493.599C492.963 493.649 497.994 491.661 501.768 488.058L501.923 487.907C507.533 482.55 512 476.11 515.051 468.978C518.103 461.845 519.676 454.168 519.677 446.41H456.867Z" fill="#4C4C4C" stroke="black" stroke-width="0.5" stroke-linecap="round" stroke-linejoin="round"/>
<path d="M459.272 462.531H456.867V536.171H459.272V462.531Z" fill="black"/>
<path d="M489.475 462.531H487.07V536.171H489.475V462.531Z" fill="black"/>
<path d="M519.679 462.531H517.273V536.171H519.679V462.531Z" fill="black"/>
<path d="M488.275 519.91C504.954 519.91 518.475 516.893 518.475 513.171C518.475 509.45 504.954 506.433 488.275 506.433C471.595 506.433 458.074 509.45 458.074 513.171C458.074 516.893 471.595 519.91 488.275 519.91Z" stroke="black" stroke-width="0.5" stroke-linecap="round" stroke-linejoin="round"/>
<path d="M518.471 470.005C518.471 473.725 504.948 476.744 488.267 476.744C471.585 476.744 458.066 473.725 458.066 470.005" stroke="black" stroke-width="0.5" stroke-linecap="round" stroke-linejoin="round"/>
<path d="M183.062 196.617C183.113 190.247 178.982 185.049 173.836 185.008C168.689 184.967 164.476 190.097 164.425 196.468C164.373 202.838 168.504 208.035 173.651 208.077C178.797 208.118 183.011 202.987 183.062 196.617Z" fill="#4C4C4C" stroke="black" stroke-width="0.5" stroke-linecap="round" stroke-linejoin="round"/>
<path d="M68.7383 486.143L79.6489 442.003L99.7522 449.755L85.8685 488.026L68.7383 486.143Z" fill="#E5E5E5" stroke="black" stroke-width="0.5" stroke-miterlimit="10" stroke-linecap="round" stroke-linejoin="round"/>
<path d="M87.2358 508.719L89.5147 479.57L79.2702 478.869L76.9738 473.259C76.7134 472.625 76.326 472.05 75.8354 471.571C75.3449 471.092 74.7615 470.718 74.1211 470.473C73.4808 470.228 72.797 470.116 72.1119 470.145C71.4267 470.174 70.7547 470.342 70.1371 470.64L65.4601 475.075C65.4601 475.075 50.5457 478.35 33.0018 483.104C20.9903 486.361 14.1571 489.734 14.1571 489.734L10.0516 491.659C9.55785 491.877 9.14162 492.24 8.85758 492.699C8.57353 493.158 8.43491 493.693 8.4599 494.232C8.51304 494.929 8.8349 495.577 9.35745 496.041C9.57211 496.223 9.81635 496.366 10.0796 496.465C11.5381 497.047 17.7928 499.445 23.4795 500.017C31.8272 500.858 42.6677 503.127 54.3321 503.028C62.5922 502.958 67.3253 502.148 70.109 501.998L70.0389 506.387L87.2358 508.719Z" fill="black" stroke="black" stroke-width="0.5" stroke-linecap="round" stroke-linejoin="round"/>
<path d="M30.5813 501.142C30.5813 501.142 30.5007 495.2 28.7232 490.859C26.9456 486.519 25.0664 485.474 25.0664 485.474C25.0664 485.474 8.2622 490.221 8.42699 493.927C8.61631 498.134 18.5558 499.186 22.6367 499.887C26.7177 500.588 30.5813 501.142 30.5813 501.142Z" fill="white" stroke="black" stroke-width="0.5" stroke-linecap="round" stroke-linejoin="round"/>
<path d="M64.1455 481.277C64.1455 481.277 62.7817 478.395 60.9621 476.607C59.1425 474.819 55.7031 474.413 55.7031 474.413" stroke="white" stroke-width="0.5" stroke-linecap="round" stroke-linejoin="round"/>
<path d="M57.2627 484.215C57.2627 484.215 55.9024 481.333 54.0793 479.542C52.2562 477.75 48.8203 477.347 48.8203 477.347" stroke="white" stroke-width="0.5" stroke-linecap="round" stroke-linejoin="round"/>
<path d="M50.4542 486.981C50.4542 486.981 49.0903 484.099 47.2707 482.308C45.4511 480.516 42.0117 480.113 42.0117 480.113" stroke="white" stroke-width="0.5" stroke-linecap="round" stroke-linejoin="round"/>
<path d="M145.518 242.892H166.628C177.059 242.892 187.064 247.036 194.441 254.412C201.817 261.789 205.961 271.793 205.961 282.225V338.395C205.961 341.511 205.347 344.597 204.155 347.476C202.962 350.356 201.214 352.972 199.01 355.176C196.806 357.379 194.19 359.127 191.311 360.32C188.432 361.513 185.346 362.127 182.229 362.127H129.92C123.626 362.126 117.591 359.625 113.141 355.174C108.691 350.724 106.191 344.688 106.191 338.395V282.225C106.191 271.794 110.335 261.791 117.709 254.415C125.084 247.038 135.087 242.893 145.518 242.892Z" fill="#999999" stroke="black" stroke-width="0.5" stroke-linecap="round" stroke-linejoin="round"/>
<path d="M162.358 365.099H156.148V457.65H162.358V365.099Z" fill="black" stroke="black" stroke-width="0.5" stroke-miterlimit="10" stroke-linecap="round" stroke-linejoin="round"/>
<path d="M210.519 383.776H101.431C96.7681 383.776 92.9883 387.556 92.9883 392.218V393.691C92.9883 398.353 96.7681 402.133 101.431 402.133H210.519C215.182 402.133 218.962 398.353 218.962 393.691V392.218C218.962 387.556 215.182 383.776 210.519 383.776Z" fill="#999999" stroke="black" stroke-width="0.5" stroke-linecap="round" stroke-linejoin="round"/>
<path d="M105.078 515.811V527.135" stroke="black" stroke-width="0.5" stroke-linecap="round" stroke-linejoin="round"/>
<path d="M159.254 514.307V526.532" stroke="black" stroke-width="0.5" stroke-linecap="round" stroke-linejoin="round"/>
<path d="M213.434 515.811V528.762" stroke="black" stroke-width="0.5" stroke-linecap="round" stroke-linejoin="round"/>
<path d="M168.382 501.945C168.855 501.156 169.104 500.253 169.104 499.333V476.769C169.106 475.466 168.604 474.212 167.703 473.271C166.801 472.33 165.571 471.774 164.269 471.72V451.42H154.596V471.72C153.292 471.774 152.06 472.332 151.158 473.276C150.256 474.22 149.756 475.477 149.762 476.783V499.347C149.762 500.283 150.02 501.2 150.508 501.998L105.074 515.825V519.801L154.596 512.575V515.646H164.269V512.74L213.434 520.33V515.811L168.382 501.945Z" fill="black" stroke="black" stroke-width="0.5" stroke-miterlimit="10" stroke-linecap="round" stroke-linejoin="round"/>
<path d="M105.197 535.027C108.627 535.027 111.406 532.222 111.406 528.762C111.406 525.302 108.627 522.497 105.197 522.497C101.768 522.497 98.9883 525.302 98.9883 528.762C98.9883 532.222 101.768 535.027 105.197 535.027Z" fill="white" stroke="black" stroke-width="0.5" stroke-linecap="round" stroke-linejoin="round"/>
<path d="M159.252 535.027C162.681 535.027 165.461 532.222 165.461 528.762C165.461 525.302 162.681 522.497 159.252 522.497C155.823 522.497 153.043 525.302 153.043 528.762C153.043 532.222 155.823 535.027 159.252 535.027Z" fill="white" stroke="black" stroke-width="0.5" stroke-linecap="round" stroke-linejoin="round"/>
<path d="M213.315 535.027C216.744 535.027 219.524 532.222 219.524 528.762C219.524 525.302 216.744 522.497 213.315 522.497C209.885 522.497 207.105 525.302 207.105 528.762C207.105 532.222 209.885 535.027 213.315 535.027Z" fill="white" stroke="black" stroke-width="0.5" stroke-linecap="round" stroke-linejoin="round"/>
<path d="M126.193 385.655L178.323 383.657C188.294 383.657 195.38 371.035 195.38 361.071L193.686 334.731H117.505C117.505 334.731 114.058 358.747 112.383 369.17C110.759 379.274 115.959 385.655 126.193 385.655Z" fill="#4C4C4C" stroke="black" stroke-width="0.5" stroke-linecap="round" stroke-linejoin="round"/>
<path d="M150.055 516.817L149.862 484.173L132.062 484.38L133.532 521.154L150.055 516.817Z" fill="#E5E5E5" stroke="black" stroke-width="0.5" stroke-miterlimit="10" stroke-linecap="round" stroke-linejoin="round"/>
<path d="M132.886 545.917L147.408 546.359C148.085 546.38 148.76 546.267 149.394 546.027C150.027 545.787 150.608 545.425 151.101 544.961C151.595 544.496 151.992 543.939 152.27 543.321C152.549 542.703 152.702 542.037 152.723 541.359L153.61 512.13L128.23 511.359L127.879 540.7C127.864 542.052 128.38 543.356 129.316 544.332C130.252 545.308 131.534 545.877 132.886 545.917Z" fill="black" stroke="black" stroke-width="0.5" stroke-linecap="round" stroke-linejoin="round"/>
<path d="M152.057 542.407C152.057 542.407 147.749 535.062 140.176 534.835C132.603 534.607 127.926 542.306 127.926 542.306V542.376C127.971 544.522 130.271 546.285 133.132 546.373L146.546 546.779C149.389 546.864 151.784 545.265 151.984 543.144L152.057 542.407Z" fill="white" stroke="black" stroke-width="0.5" stroke-linecap="round" stroke-linejoin="round"/>
<path d="M150.958 515.033C150.958 515.033 147.473 504.992 141.015 504.799C134.557 504.606 130.473 514.409 130.473 514.409L150.958 515.033Z" fill="black" stroke="black" stroke-width="0.5" stroke-linecap="round" stroke-linejoin="round"/>
<path d="M135.145 519.153C135.145 519.153 138.076 517.901 140.624 517.771C143.173 517.641 146.006 519.615 146.006 519.615" stroke="white" stroke-width="0.5" stroke-linecap="round" stroke-linejoin="round"/>
<path d="M135.016 523.388C135.016 523.388 137.95 522.139 140.499 522.01C143.048 521.88 145.877 523.85 145.877 523.85" stroke="white" stroke-width="0.5" stroke-linecap="round" stroke-linejoin="round"/>
<path d="M134.883 527.626C134.883 527.626 137.817 526.375 140.366 526.249C142.915 526.122 145.748 528.089 145.748 528.089" stroke="white" stroke-width="0.5" stroke-linecap="round" stroke-linejoin="round"/>
<path d="M148.211 546.618C148.211 546.618 144.551 543.154 140.06 543.017C135.569 542.881 131.996 546.229 131.996 546.229L148.211 546.618Z" fill="black" stroke="black" stroke-width="0.5" stroke-linecap="round" stroke-linejoin="round"/>
<path d="M127.529 344.284C115.258 340.926 107.969 349.252 104.141 361.372L146.006 394.939L180.143 389.094C194.634 385.655 197.673 375.07 195.079 356.366" fill="#4C4C4C"/>
<path d="M127.529 344.284C115.258 340.926 107.969 349.252 104.141 361.372L146.006 394.939L180.143 389.094C194.634 385.655 197.673 375.07 195.079 356.366" stroke="black" stroke-width="0.5" stroke-linecap="round" stroke-linejoin="round"/>
<path d="M124.71 495.294H155.139L159.367 401.646C159.482 399.064 159.072 396.485 158.163 394.066C157.254 391.647 155.864 389.437 154.077 387.569C152.291 385.702 150.144 384.216 147.768 383.2C145.391 382.185 142.833 381.662 140.249 381.662C137.675 381.661 135.126 382.18 132.757 383.188C130.388 384.196 128.247 385.671 126.462 387.526C124.676 389.38 123.283 391.576 122.367 393.982C121.45 396.388 121.029 398.954 121.127 401.527L124.71 495.294Z" fill="#4C4C4C" stroke="black" stroke-width="0.5" stroke-linecap="round" stroke-linejoin="round"/>
<path d="M61.5722 231.153L62.1822 227.297C62.3451 226.26 62.237 225.198 61.8684 224.215C61.4998 223.232 60.8833 222.361 60.0786 221.687L52.7336 215.496C52.5985 215.382 52.4407 215.298 52.2707 215.251C52.1008 215.203 51.9226 215.192 51.748 215.218C51.5735 215.245 51.4066 215.308 51.2586 215.405C51.1105 215.501 50.9847 215.627 50.8895 215.776L50.8614 215.818C50.457 216.447 50.2825 217.197 50.3675 217.94C50.4525 218.683 50.7917 219.374 51.3277 219.896L55.3596 223.819L53.4769 227.279L45.0029 224.636L44.3193 220.078L48.5265 217.683C48.8203 217.516 49.0527 217.259 49.1896 216.95C49.3266 216.64 49.3608 216.296 49.2872 215.965C49.2188 215.661 49.0796 215.377 48.8808 215.136C48.6821 214.895 48.4294 214.704 48.1433 214.58C47.8572 214.455 47.5457 214.399 47.234 214.417C46.9223 214.434 46.6191 214.525 46.3492 214.682L40.8133 217.894C40.1845 218.259 39.6631 218.783 39.3018 219.414C38.9404 220.045 38.7519 220.76 38.7552 221.487V225.109L23.9985 224.264C23.4737 224.235 22.9506 224.345 22.4821 224.584C22.0136 224.822 21.6163 225.18 21.3305 225.621L20.8292 226.399C20.4529 226.401 20.0888 226.533 19.7987 226.773C19.5086 227.012 19.3103 227.345 19.2375 227.714C19.1554 228.131 19.2215 228.564 19.4244 228.938C19.6273 229.312 19.9542 229.603 20.3488 229.762L34.0608 235.02L22.4208 234.828C22.1078 234.822 21.8023 234.923 21.5544 235.114C21.3065 235.305 21.1311 235.575 21.057 235.879C20.9768 236.228 21.0351 236.594 21.2196 236.9C21.4041 237.206 21.7003 237.428 22.0458 237.52L45.4342 243.719C46.0085 243.871 46.5383 244.157 46.9797 244.555C47.4212 244.952 47.7615 245.449 47.9725 246.005L56.0643 267.346L69.1872 262.287L61.1234 238.162C60.4783 234.407 61.3969 232.261 61.5722 231.153Z" fill="#E5E5E5" stroke="black" stroke-width="0.5" stroke-linecap="round" stroke-linejoin="round"/>
<path d="M53.4877 227.269C52.2645 229.095 51.5394 231.209 51.3841 233.401C51.2029 235.428 51.3044 237.47 51.6856 239.47" stroke="black" stroke-width="0.5" stroke-linecap="round" stroke-linejoin="round"/>
<path d="M40.843 225.754C39.4147 227.535 38.31 229.552 37.579 231.714C36.8237 234.185 36.3106 236.724 36.0469 239.294" stroke="black" stroke-width="0.5" stroke-linecap="round" stroke-linejoin="round"/>
<path d="M20.8516 226.385C20.8516 226.385 27.818 227.64 31.941 228.573C34.0367 229.02 36.1079 229.575 38.1466 230.235" stroke="black" stroke-width="0.5" stroke-linecap="round" stroke-linejoin="round"/>
<path d="M265.977 235.066L265.36 231.21C265.196 230.174 265.301 229.114 265.666 228.132C266.031 227.149 266.643 226.277 267.443 225.6L274.777 219.401C274.912 219.287 275.069 219.203 275.239 219.155C275.409 219.107 275.587 219.095 275.761 219.121C275.936 219.147 276.103 219.21 276.251 219.305C276.399 219.401 276.526 219.527 276.621 219.675L276.649 219.72C277.054 220.349 277.229 221.098 277.146 221.841C277.062 222.584 276.724 223.275 276.19 223.798L272.165 227.728L274.051 231.185L282.522 228.528L283.199 223.97L278.991 221.586C278.697 221.419 278.464 221.162 278.327 220.852C278.19 220.543 278.156 220.198 278.231 219.868C278.298 219.563 278.436 219.279 278.634 219.037C278.831 218.796 279.083 218.605 279.369 218.479C279.654 218.354 279.965 218.297 280.277 218.314C280.588 218.331 280.892 218.421 281.162 218.578L286.705 221.782C287.334 222.146 287.856 222.67 288.218 223.3C288.581 223.931 288.771 224.645 288.77 225.372V228.994L303.526 228.128C304.051 228.097 304.574 228.207 305.043 228.444C305.512 228.682 305.909 229.04 306.194 229.481L306.696 230.259C307.072 230.259 307.438 230.389 307.729 230.629C308.02 230.868 308.218 231.201 308.291 231.571C308.375 231.988 308.31 232.421 308.107 232.795C307.905 233.169 307.578 233.46 307.183 233.618L293.478 238.909L305.118 238.698C305.431 238.692 305.737 238.793 305.985 238.984C306.233 239.175 306.408 239.446 306.482 239.75C306.563 240.098 306.506 240.464 306.322 240.77C306.138 241.077 305.842 241.299 305.497 241.391L282.119 247.625C281.545 247.778 281.015 248.067 280.575 248.465C280.134 248.864 279.794 249.362 279.584 249.918L271.52 271.265L258.387 266.227L266.419 242.092C267.092 238.327 266.152 236.167 265.977 235.066Z" fill="#E5E5E5" stroke="black" stroke-width="0.5" stroke-linecap="round" stroke-linejoin="round"/>
<path d="M274.051 231.182C275.273 233.007 275.998 235.119 276.154 237.31C276.337 239.337 276.239 241.379 275.863 243.379" stroke="black" stroke-width="0.5" stroke-linecap="round" stroke-linejoin="round"/>
<path d="M286.695 229.649C288.127 231.429 289.234 233.447 289.966 235.61C290.724 238.079 291.241 240.617 291.509 243.186" stroke="black" stroke-width="0.5" stroke-linecap="round" stroke-linejoin="round"/>
<path d="M306.683 230.249C306.683 230.249 299.72 231.515 295.597 232.451C293.502 232.902 291.432 233.46 289.395 234.123" stroke="black" stroke-width="0.5" stroke-linecap="round" stroke-linejoin="round"/>
<path d="M174.183 224.257H136.778C125.721 224.258 115.111 228.625 107.258 236.409L77.8073 268.878L66.0972 245.387L44.2305 253.861L62.146 300.652C66.2445 311.36 80.0826 314.554 88.199 306.455C88.3392 306.314 88.4794 306.167 88.6197 306.02L115.216 277.509L114.231 342.924C114.222 343.503 114.328 344.077 114.544 344.615C114.759 345.152 115.079 345.641 115.486 346.054C115.892 346.466 116.376 346.793 116.91 347.017C117.444 347.24 118.017 347.356 118.596 347.356H192.221C192.795 347.356 193.363 347.242 193.893 347.023C194.422 346.803 194.904 346.481 195.309 346.076C195.715 345.67 196.036 345.188 196.255 344.659C196.474 344.129 196.587 343.561 196.586 342.987V277.488L236.102 309.94C236.261 310.071 236.423 310.197 236.586 310.318C244.194 316.089 255.234 313.151 259.308 304.512L280.695 259.243L259.308 249.809L242.9 273.141L199.57 234.663C192.799 228 183.682 224.263 174.183 224.257Z" fill="#808080" stroke="black" stroke-width="0.5" stroke-linecap="round" stroke-linejoin="round"/>
<path d="M196.586 277.496V257.213" stroke="black" stroke-width="0.5" stroke-linecap="round" stroke-linejoin="round"/>
<path d="M115.207 277.496V259.251" stroke="black" stroke-width="0.5" stroke-linecap="round" stroke-linejoin="round"/>
<path d="M142.23 199.94L142.49 226.662C142.52 229.843 143.799 232.884 146.052 235.129C148.304 237.375 151.349 238.646 154.529 238.667C156.148 238.677 157.753 238.363 159.248 237.743C160.744 237.123 162.1 236.21 163.237 235.057C164.374 233.904 165.268 232.536 165.868 231.032C166.467 229.528 166.759 227.92 166.727 226.301L166.134 197.345L142.23 199.94Z" fill="#E5E5E5" stroke="black" stroke-width="0.5" stroke-linecap="round" stroke-linejoin="round"/>
<path d="M142.313 210.559C141.194 210.213 140.199 209.548 139.452 208.645C138.704 207.742 138.237 206.64 138.106 205.475C137.517 201.289 137.279 198.656 137.279 198.656C137.279 198.656 130.418 188.387 135.063 177.052C141.819 160.574 155.748 163.348 155.748 163.348L161.467 162.752C181.514 152.952 191.997 168.47 191.369 175.902C190.359 187.882 175.985 188.755 175.985 188.755L149.69 179.349L147.642 193.425C147.642 193.425 144.172 189.972 141.507 193.075C138.734 196.304 143.032 203.452 143.032 203.452L142.313 210.559Z" fill="black" stroke="black" stroke-width="0.5" stroke-linecap="round" stroke-linejoin="round"/>
<path d="M147.646 193.425L148.579 177.053L178.73 180.152C178.73 180.152 178.208 197.741 177.131 204.049C176.055 210.356 170.158 217.782 161.176 215.681C152.193 213.581 147.758 209.907 144.088 205.037C140.417 200.167 139.852 194.13 141.942 192.626C145.083 190.379 147.646 193.425 147.646 193.425Z" fill="#E5E5E5" stroke="black" stroke-width="0.5" stroke-linecap="round" stroke-linejoin="round"/>
<path d="M157.188 188.03L162.306 187.476" stroke="black" stroke-width="0.5" stroke-linecap="round" stroke-linejoin="round"/>
<path d="M171.18 188.03L176.211 189.734" stroke="black" stroke-width="0.5" stroke-linecap="round" stroke-linejoin="round"/>
<path d="M167.492 192.696C167.492 192.696 169.143 197.465 168.407 199.421C167.671 201.377 164.785 200.333 164.785 200.333" stroke="black" stroke-width="0.5" stroke-linecap="round" stroke-linejoin="round"/>
<path d="M176.205 193.345C175.864 193.735 175.448 194.054 174.983 194.283C174.518 194.512 174.012 194.647 173.495 194.681C171.795 194.754 169.961 192.682 169.961 192.682" stroke="black" stroke-width="0.5" stroke-linecap="round" stroke-linejoin="round"/>
<path d="M162.865 193.345C162.524 193.735 162.109 194.054 161.643 194.283C161.178 194.512 160.673 194.647 160.155 194.681C158.455 194.754 156.621 192.682 156.621 192.682" stroke="black" stroke-width="0.5" stroke-linecap="round" stroke-linejoin="round"/>
<path d="M162.566 207.688C162.566 207.688 160.943 208.74 159.309 208.294C157.676 207.849 156.887 206.117 156.887 206.117" stroke="black" stroke-width="0.5" stroke-linecap="round" stroke-linejoin="round"/>
<path d="M77.8008 268.878L82.7021 278.509" stroke="black" stroke-width="0.5" stroke-linecap="round" stroke-linejoin="round"/>
<path d="M133.727 378.349L100.82 472.004L66.875 460.816L98.7164 359.977C98.7164 359.977 104.445 343.545 121.113 343.439C137.78 343.334 178.316 355.36 178.316 355.36" fill="#4C4C4C"/>
<path d="M133.727 378.349L100.82 472.004L66.875 460.816L98.7164 359.977C98.7164 359.977 104.445 343.545 121.113 343.439C137.78 343.334 178.316 355.36 178.316 355.36" stroke="black" stroke-width="0.5" stroke-linecap="round" stroke-linejoin="round"/>
<path d="M152.226 197.733C152.29 191.362 148.169 186.156 143.022 186.105C137.876 186.053 133.652 191.176 133.588 197.546C133.524 203.917 137.645 209.123 142.792 209.174C147.938 209.225 152.162 204.103 152.226 197.733Z" fill="#4C4C4C" stroke="black" stroke-width="0.5" stroke-linecap="round" stroke-linejoin="round"/>
<path d="M149.368 197.698C149.405 193.105 146.428 189.358 142.718 189.328C139.008 189.298 135.971 192.997 135.934 197.59C135.897 202.183 138.875 205.93 142.584 205.96C146.294 205.99 149.332 202.291 149.368 197.698Z" fill="#666666" stroke="black" stroke-width="0.5" stroke-linecap="round" stroke-linejoin="round"/>
<path d="M152.201 219.061C153.452 219.675 154.802 220.062 156.188 220.204L156.254 219.552C151.858 219.097 148.117 216.085 145.996 211.292C143.356 205.332 141.438 195.838 141.438 195.743L140.793 195.873C140.814 195.968 142.742 205.525 145.41 211.559C146.942 215.058 149.327 217.649 152.201 219.061Z" fill="black"/>
<path d="M157.303 221.756L160.864 222.077C161.869 222.167 162.757 221.426 162.848 220.422L162.861 220.275C162.951 219.27 162.21 218.382 161.206 218.292L157.644 217.971C156.639 217.88 155.751 218.621 155.661 219.626L155.647 219.773C155.557 220.777 156.298 221.665 157.303 221.756Z" fill="#4C4C4C" stroke="black" stroke-width="0.5" stroke-linecap="round" stroke-linejoin="round"/>
<path d="M143.417 194.975C143.094 190.067 142.526 184.836 146.695 175.629C151.691 164.603 161.462 162.752 161.462 162.752L155.744 163.348C155.744 163.348 148.181 164.869 142.8 175.03C139.017 182.175 137.933 190.933 138.41 196.353C138.522 197.612 139.399 200.806 141.517 200.339C143.634 199.873 143.511 196.395 143.417 194.975Z" fill="#B3B3B3" stroke="black" stroke-width="0.5" stroke-miterlimit="10" stroke-linecap="round" stroke-linejoin="round"/>
<path d="M242.917 273.141L237.57 280.602" stroke="black" stroke-width="0.5" stroke-linecap="round" stroke-linejoin="round"/>
<path d="M366.334 242.892H387.444C397.875 242.892 407.88 247.036 415.257 254.412C422.633 261.789 426.777 271.793 426.777 282.225V338.395C426.777 341.511 426.163 344.597 424.971 347.476C423.778 350.356 422.03 352.972 419.826 355.176C417.623 357.379 415.006 359.127 412.127 360.32C409.248 361.513 406.162 362.127 403.045 362.127H350.736C347.619 362.127 344.533 361.513 341.654 360.32C338.775 359.127 336.159 357.379 333.955 355.176C331.751 352.972 330.003 350.356 328.81 347.476C327.618 344.597 327.004 341.511 327.004 338.395V282.225C327.004 271.794 331.147 261.79 338.523 254.413C345.899 247.037 355.903 242.893 366.334 242.892Z" fill="#999999" stroke="black" stroke-width="0.5" stroke-linecap="round" stroke-linejoin="round"/>
<path d="M383.178 365.099H376.969V457.65H383.178V365.099Z" fill="black" stroke="black" stroke-width="0.5" stroke-miterlimit="10" stroke-linecap="round" stroke-linejoin="round"/>
<path d="M431.336 383.776H322.247C317.584 383.776 313.805 387.556 313.805 392.218V393.691C313.805 398.354 317.584 402.133 322.247 402.133H431.336C435.998 402.133 439.778 398.354 439.778 393.691V392.218C439.778 387.556 435.998 383.776 431.336 383.776Z" fill="#999999" stroke="black" stroke-width="0.5" stroke-linecap="round" stroke-linejoin="round"/>
<path d="M325.891 515.812V527.136" stroke="black" stroke-width="0.5" stroke-linecap="round" stroke-linejoin="round"/>
<path d="M380.074 514.307V526.532" stroke="black" stroke-width="0.5" stroke-linecap="round" stroke-linejoin="round"/>
<path d="M434.25 515.811V528.762" stroke="black" stroke-width="0.5" stroke-linecap="round" stroke-linejoin="round"/>
<path d="M389.199 501.945C389.672 501.156 389.922 500.253 389.922 499.333V476.769C389.924 475.466 389.421 474.213 388.52 473.272C387.619 472.331 386.389 471.775 385.087 471.72V451.421H375.424V471.72C374.12 471.775 372.888 472.333 371.986 473.277C371.084 474.221 370.584 475.478 370.59 476.783V499.347C370.588 500.283 370.846 501.201 371.336 501.998L325.902 515.826V519.801L375.424 512.576V515.647H385.097V512.74L434.258 520.331V515.812L389.199 501.945Z" fill="black" stroke="black" stroke-width="0.5" stroke-miterlimit="10" stroke-linecap="round" stroke-linejoin="round"/>
<path d="M326.01 535.028C329.439 535.028 332.219 532.223 332.219 528.763C332.219 525.303 329.439 522.498 326.01 522.498C322.581 522.498 319.801 525.303 319.801 528.763C319.801 532.223 322.581 535.028 326.01 535.028Z" fill="white" stroke="black" stroke-width="0.5" stroke-linecap="round" stroke-linejoin="round"/>
<path d="M380.072 535.027C383.502 535.027 386.281 532.222 386.281 528.762C386.281 525.302 383.502 522.497 380.072 522.497C376.643 522.497 373.863 525.302 373.863 528.762C373.863 532.222 376.643 535.027 380.072 535.027Z" fill="white" stroke="black" stroke-width="0.5" stroke-linecap="round" stroke-linejoin="round"/>
<path d="M434.131 535.027C437.56 535.027 440.34 532.222 440.34 528.762C440.34 525.302 437.56 522.497 434.131 522.497C430.702 522.497 427.922 525.302 427.922 528.762C427.922 532.222 430.702 535.027 434.131 535.027Z" fill="white" stroke="black" stroke-width="0.5" stroke-linecap="round" stroke-linejoin="round"/>
<path d="M354.837 482.519L288.802 398.565C286.911 396.344 285.566 393.711 284.877 390.877C284.187 388.043 284.171 385.087 284.831 382.246C285.491 379.404 286.807 376.757 288.675 374.517C290.543 372.277 292.91 370.506 295.586 369.346L351.643 349.505L358.971 381.154L328.164 392.594L367.48 469.967L354.837 482.519Z" fill="#E5E5E5" stroke="black" stroke-width="0.5" stroke-miterlimit="10" stroke-linecap="round" stroke-linejoin="round"/>
<path d="M389.566 487.872L348.016 538.769C346.818 540.235 345.086 541.166 343.202 541.356C341.318 541.546 339.435 540.98 337.968 539.782C336.565 538.636 335.588 537.051 335.195 535.282C334.803 533.513 335.018 531.664 335.805 530.032L339.521 522.319C341.791 517.603 343.215 512.525 343.728 507.317L345.401 490.488L342.74 486.13C342.54 485.804 342.418 485.437 342.381 485.057C342.344 484.677 342.394 484.294 342.527 483.936C342.66 483.578 342.873 483.255 343.149 482.991C343.425 482.728 343.757 482.53 344.121 482.414C344.121 482.414 339.795 478.494 343.988 474.995C347.224 472.295 348.402 476.029 352.448 476.001C352.507 476.001 358.794 475.552 363.344 469.424C367.113 464.347 369.971 467.755 374.251 471.04L388.903 482.291C389.32 482.609 389.669 483.007 389.929 483.462C390.189 483.918 390.355 484.421 390.416 484.941C390.478 485.462 390.435 485.99 390.289 486.493C390.142 486.997 389.897 487.466 389.566 487.872Z" fill="#666666" stroke="black" stroke-width="0.5" stroke-linecap="round" stroke-linejoin="round"/>
<path d="M337.383 539.256C337.383 539.256 349.457 535.585 364.004 508.48C372.884 491.935 387.038 480.762 387.038 480.762" stroke="black" stroke-width="0.5" stroke-linecap="round" stroke-linejoin="round"/>
<path d="M346.142 479.252L344.906 479.854C344.356 480.122 344.127 480.785 344.395 481.335L348.207 489.158C348.475 489.708 349.139 489.936 349.689 489.668L350.924 489.066C351.474 488.798 351.703 488.135 351.435 487.585L347.623 479.763C347.355 479.213 346.692 478.984 346.142 479.252Z" stroke="black" stroke-width="0.5" stroke-linecap="round" stroke-linejoin="round"/>
<path d="M344.686 482.404L342.77 483.337C342.094 483.667 341.814 484.481 342.143 485.156L343.984 488.935C344.313 489.61 345.128 489.891 345.803 489.562L347.719 488.628C348.395 488.299 348.675 487.485 348.346 486.81L346.505 483.031C346.176 482.355 345.361 482.075 344.686 482.404Z" fill="#4C4C4C" stroke="black" stroke-width="0.5" stroke-linecap="round" stroke-linejoin="round"/>
<path d="M348.411 479.945L362.401 473.127C362.781 472.942 363.22 472.915 363.62 473.053C364.02 473.191 364.348 473.482 364.534 473.863C364.84 474.492 365.02 475.175 365.062 475.874C365.105 476.572 365.009 477.272 364.781 477.934C364.553 478.595 364.197 479.206 363.733 479.73C363.269 480.254 362.707 480.681 362.078 480.988L351.444 486.169C351.064 486.355 350.625 486.381 350.225 486.244C349.825 486.106 349.496 485.815 349.311 485.434L347.675 482.078C347.49 481.697 347.463 481.259 347.601 480.859C347.739 480.459 348.03 480.13 348.411 479.945Z" fill="#4C4C4C" stroke="black" stroke-width="0.5" stroke-linecap="round" stroke-linejoin="round"/>
<path d="M336.508 528.573C336.508 528.573 339.839 529.432 348.05 520.075C352.169 515.38 351.808 513.017 350.048 511.397C348.288 509.778 343.387 509.995 343.387 509.995L343.94 505.248C343.94 505.248 349.319 506.089 352.109 505.967C363.006 505.493 367.63 502.401 367.63 502.401" stroke="black" stroke-width="0.5" stroke-linecap="round" stroke-linejoin="round"/>
<path d="M376.88 490.369C376.88 490.369 373.023 488.903 373.627 484.713C374.23 480.524 377.508 478.013 374.657 476.558C371.099 474.746 363.214 482.063 359.704 483.974C354.75 486.677 351.879 485.948 351.879 485.948" stroke="black" stroke-width="0.5" stroke-linecap="round" stroke-linejoin="round"/>
<path d="M301.613 367.21L379.937 339.776L307.889 385.031L301.613 367.21Z" fill="#333333" stroke="black" stroke-width="0.5" stroke-miterlimit="10" stroke-linecap="round" stroke-linejoin="round"/>
<path d="M303.9 515.503L273.97 406.257C271.014 394.294 276.715 383.591 289.179 377.858L332.092 359.799L356.045 386.599L310.912 409.836L322.251 510.63L303.9 515.503Z" fill="#E5E5E5" stroke="black" stroke-width="0.5" stroke-miterlimit="10" stroke-linecap="round" stroke-linejoin="round"/>
<path d="M322.095 541.437L256.414 543.025C255.476 543.048 254.543 542.886 253.668 542.548C252.793 542.21 251.993 541.703 251.314 541.056C250.635 540.41 250.09 539.635 249.71 538.778C249.33 537.92 249.123 536.996 249.1 536.059C249.056 534.247 249.623 532.474 250.71 531.024C251.797 529.575 253.341 528.533 255.092 528.068L263.362 525.874C268.423 524.533 273.208 522.312 277.499 519.314L291.365 509.627L292.939 504.771C293.057 504.408 293.256 504.076 293.521 503.801C293.785 503.525 294.109 503.314 294.468 503.182C294.826 503.05 295.21 503.001 295.59 503.039C295.97 503.077 296.337 503.2 296.662 503.4C296.662 503.4 296.82 497.566 302.209 498.471C306.363 499.172 304.295 502.496 306.949 505.546C306.987 505.592 311.422 510.076 319.034 509.539C325.345 509.098 324.615 513.484 324.906 518.872L325.902 537.317C325.93 537.84 325.854 538.362 325.676 538.854C325.499 539.346 325.225 539.798 324.869 540.182C324.514 540.566 324.086 540.875 323.609 541.091C323.133 541.306 322.618 541.424 322.095 541.437Z" fill="#666666" stroke="black" stroke-width="0.5" stroke-linecap="round" stroke-linejoin="round"/>
<path d="M249.121 535.27C249.121 535.27 259.765 542.047 289.812 535.449C308.151 531.42 325.846 534.891 325.846 534.891" stroke="black" stroke-width="0.5" stroke-linecap="round" stroke-linejoin="round"/>
<path d="M300.372 502.852L299.11 502.306C298.549 502.063 297.897 502.321 297.654 502.883L294.196 510.868C293.953 511.43 294.211 512.082 294.773 512.325L296.034 512.871C296.596 513.114 297.248 512.856 297.491 512.295L300.948 504.309C301.191 503.748 300.933 503.096 300.372 502.852Z" stroke="black" stroke-width="0.5" stroke-linecap="round" stroke-linejoin="round"/>
<path d="M297.025 503.798L295.069 502.951C294.379 502.653 293.578 502.97 293.28 503.659L291.61 507.517C291.311 508.206 291.628 509.007 292.318 509.306L294.274 510.153C294.963 510.451 295.764 510.134 296.063 509.445L297.733 505.587C298.031 504.898 297.714 504.097 297.025 503.798Z" fill="#4C4C4C" stroke="black" stroke-width="0.5" stroke-linecap="round" stroke-linejoin="round"/>
<path d="M301.323 505.029L315.605 511.212C315.994 511.38 316.299 511.696 316.455 512.089C316.61 512.482 316.603 512.922 316.435 513.31C315.874 514.607 314.82 515.628 313.506 516.148C312.192 516.668 310.725 516.645 309.428 516.083L298.572 511.383C298.184 511.215 297.878 510.9 297.723 510.506C297.567 510.113 297.574 509.674 297.742 509.285L299.226 505.859C299.394 505.471 299.709 505.165 300.103 505.009C300.496 504.854 300.935 504.861 301.323 505.029Z" fill="#4C4C4C" stroke="black" stroke-width="0.5" stroke-linecap="round" stroke-linejoin="round"/>
<path d="M256.66 527.651C256.66 527.651 258.175 530.74 270.624 530.884C276.869 530.957 278.425 529.131 278.513 526.754C278.601 524.377 275.249 520.794 275.249 520.794L279.214 518.122C279.214 518.122 282.075 522.75 283.986 524.783C291.436 532.746 296.793 534.25 296.793 534.25" stroke="black" stroke-width="0.5" stroke-linecap="round" stroke-linejoin="round"/>
<path d="M311.94 533.425C311.94 533.425 310.537 529.541 314.117 527.276C317.696 525.011 321.728 525.874 320.978 522.753C320.042 518.869 309.352 517.645 305.615 516.229C300.338 514.227 299.023 511.569 299.023 511.569" stroke="black" stroke-width="0.5" stroke-linecap="round" stroke-linejoin="round"/>
<path d="M298.453 373.974L313.638 408.585C313.861 409.108 314.276 409.526 314.797 409.753C315.318 409.981 315.907 410 316.442 409.808L382.169 386.29L399.811 385.463C412.433 385.463 421.927 369.738 420.409 357.222C418.305 339.794 419.501 321.307 419.501 321.307L375.732 305.309L365.393 344.558L298.453 373.974Z" fill="#333333" stroke="black" stroke-width="0.5" stroke-miterlimit="10" stroke-linecap="round" stroke-linejoin="round"/>
<path d="M377.723 222.248C383.37 222.248 387.947 217.671 387.947 212.025C387.947 206.379 383.37 201.802 377.723 201.802C372.077 201.802 367.5 206.379 367.5 212.025C367.5 217.671 372.077 222.248 377.723 222.248Z" fill="#333333" stroke="black" stroke-width="0.5" stroke-linecap="round" stroke-linejoin="round"/>
<path d="M365.255 346.203L346.035 344.727L350.211 290.296L374.444 292.154L365.255 346.203Z" fill="#E5E5E5" stroke="black" stroke-width="0.5" stroke-miterlimit="10" stroke-linecap="round" stroke-linejoin="round"/>
<path d="M380.49 185.394C380.49 185.394 385.686 178.403 399.92 183.732C416.85 190.071 417.713 202.713 419.175 217.14C420.612 231.326 431.095 236.865 440.151 242.457C451.44 249.424 452.569 259.738 450.073 265.898C447.054 273.345 438.082 284.238 415.865 283.225C405.603 282.755 377.867 291.218 377.867 291.218C377.867 291.218 349.052 248.249 365.176 230.214C369.733 225.12 378.737 220.611 374.782 207.471C373.439 203.015 369.716 198.191 371.858 191.925C373.874 186.046 380.49 185.394 380.49 185.394Z" fill="black"/>
<path d="M419.058 309.011L438.979 296.989L438.888 283.473L414.812 288.441L419.058 309.011Z" fill="#E5E5E5"/>
<path d="M415.989 288.087L442.316 291.919C442.504 291.947 442.696 291.931 442.877 291.873C443.058 291.816 443.224 291.718 443.362 291.588C443.5 291.458 443.607 291.298 443.675 291.12C443.743 290.943 443.77 290.752 443.753 290.563L441.843 268.373C440.877 264.878 439.444 261.529 437.583 258.416C433.891 252.305 428.218 247.022 407.856 241.1L396.661 237.654L367.498 247.688C358.12 250.573 351.847 260.239 350.066 269.891L348.664 299.159L361.338 300.264L362.222 327.656V349.502L419.222 348.762C419.835 348.798 420.448 348.698 421.017 348.469C421.586 348.24 422.098 347.888 422.515 347.438C422.932 346.988 423.244 346.451 423.429 345.865C423.613 345.28 423.666 344.661 423.583 344.053L415.989 288.087Z" fill="#4C4C4C" stroke="black" stroke-width="0.5" stroke-linecap="round" stroke-linejoin="round"/>
<path d="M402.828 222.644L401.054 244.381C400.93 245.864 400.495 247.304 399.776 248.606C399.057 249.908 398.071 251.044 396.881 251.938C395.692 252.832 394.328 253.464 392.877 253.793C391.426 254.123 389.922 254.141 388.464 253.848C385.912 253.333 383.641 251.892 382.088 249.804C380.534 247.715 379.808 245.126 380.049 242.534L382.24 218.886L402.828 222.644Z" fill="#E5E5E5" stroke="black" stroke-width="0.5" stroke-miterlimit="10" stroke-linecap="round" stroke-linejoin="round"/>
<path d="M405.454 199.876L399.817 189.856L385.228 191.546C382.715 191.213 380.169 191.852 378.111 193.334C376.053 194.815 374.638 197.026 374.156 199.515C372.754 206.685 371.06 215.969 370.843 219.338C370.464 225.12 374.1 232.903 382.455 232.941C390.81 232.98 395.49 230.673 399.75 227.153C404.01 223.633 405.111 214.77 405.465 212.463C406.334 206.825 405.454 199.876 405.454 199.876Z" fill="#E5E5E5" stroke="black" stroke-width="0.5" stroke-miterlimit="10" stroke-linecap="round" stroke-linejoin="round"/>
<path d="M392.338 209.01L386.715 207.039" stroke="black" stroke-width="0.5" stroke-linecap="round" stroke-linejoin="round"/>
<path d="M379.781 205.57L375.258 206.047" stroke="black" stroke-width="0.5" stroke-linecap="round" stroke-linejoin="round"/>
<path d="M382.019 210.934C382.019 210.934 379.982 215.026 380.416 216.87C380.851 218.714 383.572 218.111 383.572 218.111" stroke="black" stroke-width="0.5" stroke-linecap="round" stroke-linejoin="round"/>
<path d="M388.396 213.729C389.221 213.729 389.889 213.06 389.889 212.235C389.889 211.41 389.221 210.742 388.396 210.742C387.571 210.742 386.902 211.41 386.902 212.235C386.902 213.06 387.571 213.729 388.396 213.729Z" fill="black"/>
<path d="M377.677 211.93C378.502 211.93 379.171 211.262 379.171 210.437C379.171 209.612 378.502 208.943 377.677 208.943C376.852 208.943 376.184 209.612 376.184 210.437C376.184 211.262 376.852 211.93 377.677 211.93Z" fill="black"/>
<path d="M404.454 221.319C404.454 221.319 403.844 208.144 391.132 203.73C379.187 199.586 385.21 188.682 385.21 188.682L394.259 184.955C394.259 184.955 401.295 187.409 405.892 197.068C410.134 205.995 404.454 221.319 404.454 221.319Z" fill="black"/>
<path d="M385.5 224.597C386.408 224.866 387.38 224.812 388.252 224.443C389.598 223.819 390.521 222.024 390.521 222.024" stroke="black" stroke-width="0.5" stroke-linecap="round" stroke-linejoin="round"/>
<path d="M413.352 274.919L414.509 282.187" stroke="black" stroke-width="0.5" stroke-linecap="round" stroke-linejoin="round"/>
<path d="M361.156 280.5L361.156 300.268" stroke="black" stroke-width="0.5" stroke-linecap="round" stroke-linejoin="round"/>
<path d="M427.798 301.368L400.872 262.515L391.056 245.42C390.742 244.872 390.321 244.393 389.818 244.011C389.315 243.63 388.74 243.354 388.128 243.2L380.737 241.335C380.047 241.16 379.325 241.15 378.63 241.305C377.934 241.459 377.285 241.775 376.734 242.226L372.151 246.131C371.727 246.482 369.077 248.424 369.469 249.224C369.82 249.946 371.107 249.865 371.573 249.788C372.749 249.584 373.818 248.98 374.598 248.077L375.878 246.675L373.897 250.289C373.584 250.862 373.499 251.532 373.659 252.165L374.36 254.938C374.36 254.938 373.908 257.102 375.114 257.978C376.32 258.854 380.59 259.854 380.832 258.283C381.028 257 379.079 255.899 379.079 255.899L384.023 256.523L386.477 264.506C386.984 266.148 388.118 267.525 389.632 268.338L391.122 269.145L408.603 317.327C409.918 321.031 412.329 324.246 415.517 326.544C419.279 329.216 424.506 330.804 429.93 325.791C440.343 316.163 439.045 291.45 439.045 291.45" fill="#E5E5E5"/>
<path d="M427.798 301.368L400.872 262.515L391.056 245.42C390.742 244.872 390.321 244.393 389.818 244.011C389.315 243.63 388.74 243.354 388.128 243.2L380.737 241.335C380.047 241.16 379.325 241.15 378.63 241.305C377.934 241.459 377.285 241.775 376.734 242.226L372.151 246.131C371.727 246.482 369.077 248.424 369.469 249.224C369.82 249.946 371.107 249.865 371.573 249.788C372.749 249.584 373.818 248.98 374.598 248.077L375.878 246.675L373.897 250.289C373.584 250.862 373.499 251.532 373.659 252.165L374.36 254.938C374.36 254.938 373.908 257.102 375.114 257.978C376.32 258.854 380.59 259.854 380.832 258.283C381.028 257 379.079 255.899 379.079 255.899L384.023 256.523L386.477 264.506C386.984 266.148 388.118 267.525 389.632 268.338L391.122 269.145L408.603 317.327C409.918 321.031 412.329 324.246 415.517 326.544C419.279 329.216 424.506 330.804 429.93 325.791C440.343 316.163 439.045 291.45 439.045 291.45" stroke="black" stroke-width="0.5" stroke-miterlimit="10" stroke-linecap="round" stroke-linejoin="round"/>
<path d="M379.078 255.888L379.429 253.679L382.43 254.191C382.797 254.252 383.135 254.428 383.396 254.694C383.656 254.96 383.825 255.302 383.878 255.671L384.004 256.512" stroke="black" stroke-width="0.5" stroke-linecap="round" stroke-linejoin="round"/>
<path d="M385.638 250.366C385.638 250.366 379.891 248.28 377.574 249.469C375.257 250.657 374.355 254.928 374.355 254.928" stroke="black" stroke-width="0.5" stroke-linecap="round" stroke-linejoin="round"/>
<path d="M386.294 246.538C386.294 246.538 380.6 244.375 378.672 244.613C376.744 244.851 375.867 246.664 375.867 246.664" stroke="black" stroke-width="0.5" stroke-linecap="round" stroke-linejoin="round"/>
<path d="M379.936 256.519C379.28 255.982 378.549 255.544 377.766 255.218" stroke="black" stroke-width="0.5" stroke-linecap="round" stroke-linejoin="round"/>
<path d="M308.38 349.775L300.978 337.276C300.719 336.837 300.295 336.519 299.8 336.392C299.306 336.265 298.781 336.34 298.342 336.6C298.124 336.728 297.934 336.899 297.783 337.101C297.631 337.303 297.521 337.533 297.458 337.778C297.396 338.023 297.382 338.278 297.418 338.528C297.454 338.778 297.539 339.019 297.669 339.236L303.98 352.075C304.519 352.99 306.784 352.952 307.689 352.426C307.909 352.298 308.102 352.128 308.257 351.925C308.411 351.723 308.524 351.491 308.588 351.245C308.652 350.998 308.667 350.741 308.631 350.489C308.595 350.237 308.51 349.994 308.38 349.775Z" fill="#E5E5E5" stroke="black" stroke-width="0.5" stroke-miterlimit="10" stroke-linecap="round" stroke-linejoin="round"/>
<path d="M356.004 354.125L402.152 349.088L401.616 344.17L355.467 349.208L356.004 354.125Z" fill="#CCCCCC" stroke="black" stroke-width="0.5" stroke-linecap="round" stroke-linejoin="round"/>
<path d="M288.535 325.132L342.625 319.228L368.489 352.766L314.399 358.67L288.535 325.132Z" fill="#CCCCCC" stroke="black" stroke-width="0.5" stroke-linecap="round" stroke-linejoin="round"/>
<path d="M365.465 353.099L368.491 352.766L342.627 319.228L339.602 319.557L365.465 353.099Z" fill="#CCCCCC" stroke="black" stroke-width="0.5" stroke-linecap="round" stroke-linejoin="round"/>
<path d="M312.668 359.918C310.351 360.388 306.631 356.696 304.629 353.372C302.627 350.049 302.175 347.5 302.312 345.642C302.539 342.574 305.421 333.637 308.054 334.587C310.34 335.408 309.271 338.185 309.271 338.185C309.271 338.185 310.158 337.269 311.196 337.964C312.567 338.882 312.107 341.925 312.107 341.925C312.107 341.925 313.485 341.165 314.495 342.192C315.96 343.678 314.537 346.981 314.537 346.981C314.537 346.981 315.659 346.914 316.153 347.836C317.44 350.273 315.473 359.347 312.668 359.918Z" fill="#E5E5E5" stroke="black" stroke-width="0.5" stroke-linecap="round" stroke-linejoin="round"/>
<path d="M305.32 349.333C305.32 349.333 305.93 345.505 306.972 342.931C307.672 341.249 308.473 339.61 309.37 338.023" fill="#E5E5E5"/>
<path d="M305.32 349.333C305.32 349.333 305.93 345.505 306.972 342.931C307.672 341.249 308.473 339.61 309.37 338.023" stroke="black" stroke-width="0.5" stroke-linecap="round" stroke-linejoin="round"/>
<path d="M308.285 352.812C308.707 350.706 309.267 348.631 309.961 346.599C310.575 344.999 311.286 343.439 312.089 341.925" fill="#E5E5E5"/>
<path d="M308.285 352.812C308.707 350.706 309.267 348.631 309.961 346.599C310.575 344.999 311.286 343.439 312.089 341.925" stroke="black" stroke-width="0.5" stroke-linecap="round" stroke-linejoin="round"/>
<path d="M311.055 357.092C311.055 357.092 311.998 353.8 312.678 351.812C313.477 349.474 314.519 346.981 314.519 346.981" fill="#E5E5E5"/>
<path d="M311.055 357.092C311.055 357.092 311.998 353.8 312.678 351.812C313.477 349.474 314.519 346.981 314.519 346.981" stroke="black" stroke-width="0.5" stroke-linecap="round" stroke-linejoin="round"/>
<path d="M406.131 228.055C411.15 227.978 415.141 222.88 415.047 216.667C414.953 210.454 410.808 205.48 405.79 205.556C400.771 205.632 396.78 210.73 396.874 216.943C396.968 223.156 401.113 228.131 406.131 228.055Z" fill="#333333" stroke="black" stroke-width="0.5" stroke-linecap="round" stroke-linejoin="round"/>
<path d="M407.876 225.03C411.495 224.975 414.373 221.299 414.305 216.819C414.237 212.338 411.249 208.751 407.63 208.806C404.012 208.861 401.133 212.537 401.201 217.018C401.269 221.498 404.258 225.085 407.876 225.03Z" fill="#4C4C4C" stroke="black" stroke-width="0.5" stroke-linecap="round" stroke-linejoin="round"/>
<path d="M394.905 237.924C393.61 238.334 392.252 238.511 390.895 238.446L390.923 237.808C395.231 238.008 399.277 235.645 402.019 231.329C405.434 225.961 408.659 217.088 408.68 216.996L409.283 217.214C409.252 217.305 406.002 226.245 402.552 231.672C400.557 234.824 397.882 236.981 394.905 237.924Z" fill="black"/>
<path d="M389.807 236.051L386.332 235.844C385.348 235.785 384.503 236.535 384.444 237.518L384.436 237.658C384.377 238.642 385.127 239.488 386.111 239.546L389.586 239.754C390.57 239.813 391.415 239.063 391.474 238.079L391.482 237.939C391.541 236.955 390.791 236.11 389.807 236.051Z" fill="#4C4C4C" stroke="black" stroke-width="0.5" stroke-linecap="round" stroke-linejoin="round"/>
<path d="M406.932 214.328C407.212 209.553 407.731 204.434 403.601 195.484C398.651 184.759 387.586 181.905 387.586 181.905L391.989 181.814C391.989 181.814 402.076 184.994 407.395 194.87C411.136 201.812 412.254 210.345 411.826 215.639C411.725 216.867 410.89 219.987 408.822 219.545C406.753 219.103 406.851 215.713 406.932 214.328Z" fill="#B3B3B3" stroke="black" stroke-width="0.5" stroke-linecap="round" stroke-linejoin="round"/>
<path d="M552.199 324.3C552.199 324.2 552.199 324.2 552.199 324.3C552.199 324.1 552.199 324 551.999 323.9C551.999 323.9 551.999 323.9 551.899 323.9C551.699 323.9 551.599 323.9 551.399 323.9C535.299 323.9 528.099 331.1 521.199 338.1C516.599 342.7 512.199 347.1 505.399 349.6C488.499 355.7 492.999 375.1 493.399 376.9L491.599 378.5C491.599 373.7 491.499 368.6 491.299 363.4C492.999 354 495.699 348.1 495.899 347.6C497.299 346.9 502.999 344 519.699 334C521.599 332.9 523.299 331.8 524.799 330.7C539.599 320.3 539.699 311.7 539.699 311.3C539.699 311.2 539.699 311.2 539.599 311.1C539.599 311.1 539.599 311.1 539.499 311.1C539.299 311.1 520.999 307.4 504.199 321C487.299 334.7 494.999 347.6 495.099 347.7C495.099 347.8 495.199 347.8 495.199 347.8C494.599 349.3 492.699 354 491.199 361C490.999 354.7 490.799 348.3 490.499 342.4C491.499 334.2 492.999 324.5 493.199 323.4C493.499 323.1 494.099 322.5 494.999 321.7C498.299 318.4 505.199 311.1 512.099 300.7C514.299 297.4 516.499 293.8 518.599 289.9C522.699 282.2 524.699 274.7 525.499 268.2C526.899 257.4 525.099 249.7 525.099 249.6C525.099 249.5 525.099 249.5 524.999 249.5H524.899C524.499 249.5 506.699 249.7 495.099 270.1C492.899 273.9 491.499 278.2 490.599 282.6C489.699 278.4 487.299 273.6 482.699 268.4C474.099 258.7 456.499 255.1 456.299 255.1C456.199 255.1 455.999 255.1 455.999 255.3C455.999 255.5 455.999 255.6 456.099 255.6C474.599 263.3 483.799 283.5 487.299 291.1C488.399 293.5 488.599 293.9 488.899 293.9L488.999 298.9C487.699 295.8 485.899 292.6 483.299 289.4C465.899 267.6 448.799 272.7 448.699 272.8C448.699 272.8 448.599 272.8 448.599 272.9C444.399 276.9 442.499 290.3 455.299 309.6C467.899 328.5 484.299 333.8 484.399 333.8C484.399 333.8 484.399 333.8 484.499 333.8C484.599 333.8 484.699 333.8 484.699 333.7C485.199 335 485.999 337.4 486.699 340.2C486.999 347.6 487.399 355.6 487.599 363.5C485.499 357.6 482.699 352.6 481.399 350.5C481.799 350.6 482.399 350.7 482.999 350.7C483.999 350.7 485.099 350.4 485.599 349.3C486.599 347 483.299 344.9 483.099 344.8L468.499 334.3C468.499 334.3 463.699 330.2 458.499 327.8C454.199 325.8 445.899 323.6 439.199 331.1C434.399 336.4 433.999 342.1 434.899 344.6C435.099 345.3 435.499 345.7 435.899 345.8C436.299 345.9 436.999 345.4 438.199 344.7C441.299 342.7 447.699 338.5 458.299 338.1C458.599 338.1 458.799 338.1 459.099 338.1C471.099 338.1 478.799 347.6 480.399 349.8C480.599 350.1 484.999 357 487.699 365.2C487.799 369.9 487.899 374.5 487.899 378.8C487.499 372.3 485.399 365.1 479.999 358.3C464.399 338.7 443.899 345.2 443.699 345.2C443.599 345.2 443.599 345.3 443.599 345.3C443.599 345.4 442.099 350 442.099 356.3C442.099 360.3 442.799 365.1 444.999 369.7C445.799 371.4 446.799 373 447.999 374.6C453.899 382.4 463.799 388.4 471.799 393.2C476.499 396 480.699 398.5 482.599 400.7C482.699 400.8 482.799 401 482.899 401.1C483.099 401.9 485.199 411.5 486.999 422.5C486.899 426.4 486.899 430.2 486.899 433.9C484.499 428.7 480.699 424.9 480.099 424.3C483.699 400.9 465.599 396.4 453.599 393.5C451.599 393 449.799 392.6 448.299 392.1C445.399 391.2 442.499 390.8 439.799 390.7C438.999 386.7 435.499 383.8 431.299 383.8H407.799C409.799 382.7 411.799 381.1 413.499 379.1C418.699 373.2 421.499 364.7 420.599 357.4C420.499 356.6 420.399 355.9 420.299 355.1C422.299 353 423.999 350.5 425.099 347.8C426.299 344.9 426.899 341.8 426.899 338.6V328.4C427.899 327.9 428.899 327.2 429.999 326.2C439.799 317.2 439.299 294.8 439.199 292L442.199 292.4C442.399 292.4 442.699 292.4 442.899 292.3C443.099 292.2 443.299 292.1 443.499 292C443.699 291.8 443.799 291.7 443.899 291.4C443.999 291.2 443.999 291 443.999 290.7L442.699 276C446.499 272.8 448.799 269.1 449.999 266.1C452.499 259.9 451.399 249.6 440.099 242.7C434.599 239.3 428.699 236 424.499 230.7H449.499C450.999 230.7 452.299 230.1 453.399 229.1C454.399 228.1 454.999 226.7 454.999 225.2V218.2V30.6V19C454.999 15.9 452.499 13.4 449.399 13.4H133.699C130.599 13.4 128.099 15.9 128.099 19V30.6V224.9C120.199 226.5 112.999 230.4 107.099 236.2L77.8992 268.4L66.3992 245.2C66.2992 245.1 66.1992 245 66.0992 245.1L64.0992 245.9L61.4992 238.1C60.9992 235.1 61.4992 233.2 61.7992 232C61.8992 231.7 61.8992 231.4 61.9992 231.2L62.5992 227.3C62.7992 226.2 62.6992 225.1 62.2992 224.1C61.8992 223.1 61.2992 222.2 60.3992 221.5L53.0992 215.3C52.8992 215.2 52.6992 215.1 52.4992 215C52.2992 214.9 52.0992 214.9 51.8992 215C51.6992 215 51.4992 215.1 51.2992 215.2C51.0992 215.3 50.9992 215.5 50.7992 215.7C50.3992 216.4 50.1992 217.2 50.2992 218C50.3992 218.8 50.7992 219.5 51.2992 220.1L55.1992 223.9L53.4992 227L45.3992 224.5L44.7992 220.3L48.8992 218C49.1992 217.8 49.4992 217.5 49.6992 217.2C49.8992 216.8 49.8992 216.4 49.7992 216.1C49.6992 215.8 49.5992 215.4 49.2992 215.2C49.0992 214.9 48.7992 214.7 48.4992 214.6C48.1992 214.5 47.7992 214.4 47.4992 214.4C47.1992 214.4 46.7992 214.5 46.4992 214.7L40.9992 217.9C40.2992 218.3 39.7992 218.8 39.3992 219.5C38.9992 220.2 38.7992 220.9 38.7992 221.7V225.1L23.9992 224C23.3992 224 22.8992 224.1 22.3992 224.3C21.8992 224.6 21.4992 224.9 21.1992 225.4L20.7992 226.1C20.3992 226.1 19.9992 226.3 19.7992 226.5C19.4992 226.8 19.1992 227.2 19.1992 227.6C19.0992 228.1 19.1992 228.6 19.3992 229C19.5992 229.4 19.9992 229.8 20.4992 229.9L32.8992 234.7L22.6992 234.5C22.2992 234.5 21.9992 234.6 21.6992 234.8C21.3992 235 21.1992 235.3 21.0992 235.7C20.9992 236.1 21.0992 236.5 21.2992 236.9C21.4992 237.3 21.8992 237.5 22.2992 237.6L45.6992 243.8C46.1992 243.9 46.6992 244.2 47.0992 244.6C47.4992 245 47.7992 245.4 47.9992 246L49.9992 251.4L44.3992 253.6C44.2992 253.6 44.1992 253.8 44.2992 253.9L62.1992 300.7C64.1992 305.9 68.5992 309.7 74.0992 310.8C79.3992 311.9 84.8992 310.3 88.6992 306.5C88.7992 306.4 88.9992 306.2 89.0992 306.1L106.199 287.7V338.3C106.199 341.5 106.799 344.6 107.999 347.5C101.399 352.4 98.7992 359.7 98.6992 359.8L66.5992 460.7C66.5992 460.8 66.5992 461 66.7992 461L74.0992 463.4L72.4992 469.9C72.3992 469.9 72.1992 469.9 72.0992 469.9C71.3992 469.9 70.6992 470.1 69.9992 470.4C69.9992 470.4 69.9992 470.4 69.8992 470.4L65.2992 474.8C64.8992 474.9 63.1992 475.3 60.4992 475.9C58.5992 474.5 55.7992 474.1 55.6992 474.1C55.5992 474.1 55.3992 474.2 55.3992 474.3C55.3992 474.4 55.4992 474.6 55.5992 474.6C55.5992 474.6 57.9992 474.9 59.7992 476C57.6992 476.5 54.9992 477.1 51.9992 477.9C50.3992 477.2 48.8992 477 48.7992 477C48.6992 477 48.4992 477.1 48.4992 477.2C48.4992 477.3 48.5992 477.5 48.6992 477.5C48.6992 477.5 49.7992 477.6 51.0992 478.1C48.6992 478.7 46.0992 479.3 43.2992 480C42.5992 479.8 41.9992 479.8 41.9992 479.7C41.8992 479.7 41.6992 479.8 41.6992 479.9C41.6992 480 41.7992 480.2 41.8992 480.2C41.8992 480.2 41.9992 480.2 42.1992 480.2C39.1992 481 36.0992 481.8 32.8992 482.7C29.9992 483.5 27.2992 484.3 24.9992 485.1C23.5992 485.5 13.9992 488.3 9.89922 491.3C9.39922 491.5 8.89922 491.9 8.59922 492.4C8.49922 492.6 8.39922 492.7 8.39922 492.9C8.19922 493.2 8.19922 493.5 8.19922 493.8C8.19922 493.9 8.19922 493.9 8.19922 494V494.1C8.29922 494.9 8.59922 495.6 9.19922 496.1C9.39922 496.3 9.69922 496.4 9.99922 496.6C12.2992 498.2 16.4992 499.1 19.7992 499.6C20.8992 499.8 22.0992 500 23.1992 500.2C26.9992 500.8 30.4992 501.3 30.5992 501.4C30.6992 501.4 30.6992 501.4 30.7992 501.3C30.7992 501.3 30.7992 501.2 30.8992 501.2C31.1992 501.2 31.4992 501.3 31.7992 501.3C38.5992 502.3 46.2992 503.3 54.4992 503.3C60.2992 503.3 64.3992 502.8 67.2992 502.5C68.3992 502.4 69.2992 502.3 69.9992 502.2L69.8992 506.3C69.8992 506.4 69.9992 506.5 70.0992 506.6L87.2992 508.9C87.3992 508.9 87.3992 508.9 87.4992 508.8C87.5992 508.8 87.5992 508.7 87.5992 508.6L89.8992 479.5C89.8992 479.4 89.8992 479.4 89.7992 479.3C89.7992 479.2 89.6992 479.2 89.5992 479.2H89.3992L92.8992 469.5L100.799 472.1H100.899C100.999 472.1 101.099 472 101.099 471.9L121.399 414.1L124.499 495.1C124.499 495.2 124.599 495.3 124.699 495.3H132.199L132.699 506.9L105.099 515.3H104.999C104.999 515.3 104.899 515.3 104.899 515.4C104.899 515.4 104.899 515.5 104.799 515.5V519.5V522C101.399 522.2 98.6992 525 98.6992 528.5C98.6992 532.1 101.599 535 105.199 535C108.799 535 111.699 532.1 111.699 528.5C111.699 525 108.899 522.1 105.399 522V520L127.999 516.7L127.699 540.7C127.699 541.2 127.799 541.6 127.899 542C127.799 542.1 127.799 542.1 127.799 542.1V542.2V542.3C127.799 544.6 130.199 546.4 133.199 546.5L146.599 546.9C146.699 546.9 146.699 546.9 146.799 546.9C148.999 546.9 150.899 545.9 151.799 544.5C152.099 544.1 152.399 543.7 152.599 543.3C152.899 542.7 153.099 542 153.099 541.2L153.399 531.1C154.399 533.5 156.699 535.1 159.399 535.1C162.999 535.1 165.899 532.2 165.899 528.6C165.899 525.1 163.099 522.2 159.699 522.1V515.7H164.499C164.599 515.7 164.699 515.6 164.699 515.5V513L213.399 520.5V522.2C209.899 522.3 207.099 525.2 207.099 528.7C207.099 532.3 209.999 535.2 213.599 535.2C217.199 535.2 220.099 532.3 220.099 528.7C220.099 525.2 217.399 522.4 213.999 522.2V520.3V515.8C213.999 515.7 213.999 515.7 213.899 515.6C213.899 515.6 213.899 515.6 213.799 515.6L168.999 501.8C169.399 501 169.599 500.2 169.599 499.3V476.7C169.599 475.3 169.099 474 168.099 473C167.199 472.1 165.999 471.5 164.699 471.4V451.3C164.699 451.2 164.599 451.1 164.499 451.1H162.799V402.3H210.699C215.499 402.3 219.399 398.4 219.399 393.6V392.1C219.399 387.3 215.499 383.4 210.699 383.4H191.299C192.599 382 193.699 380.3 194.499 378.4C196.499 373.6 196.899 367.2 195.799 358.2C197.099 357.3 198.299 356.3 199.399 355.2C201.599 353 203.399 350.3 204.599 347.4C205.799 344.5 206.399 341.4 206.399 338.2V285.5L236.099 309.9C236.299 310 236.399 310.2 236.599 310.3C240.199 313 244.799 314 249.299 312.9C253.899 311.8 257.699 308.7 259.699 304.4L281.099 259.1C281.099 259 281.099 259 281.099 258.9C281.099 258.8 280.999 258.8 280.999 258.8L277.199 257.1L279.999 249.7C280.199 249.2 280.499 248.7 280.899 248.3C281.299 247.9 281.799 247.7 282.299 247.5L305.699 241.3C306.099 241.2 306.499 240.9 306.699 240.6C306.899 240.2 306.999 239.8 306.899 239.4C306.799 239 306.599 238.7 306.299 238.5C305.999 238.3 305.699 238.2 305.299 238.2L295.099 238.4L307.499 233.6C307.899 233.4 308.299 233.1 308.599 232.7C308.799 232.3 308.899 231.8 308.799 231.3C308.699 230.9 308.499 230.5 308.199 230.2H364.999C361.999 233.7 360.599 238 360.399 242.8C352.099 244.1 344.499 247.9 338.399 253.9C330.899 261.4 326.799 271.3 326.799 281.9V320.4L288.599 324.6C288.499 324.6 288.399 324.7 288.399 324.8C288.399 324.9 288.399 325 288.399 325L297.499 336.8C297.399 337 297.299 337.2 297.199 337.4C297.099 337.7 297.099 338 297.199 338.2C297.199 338.5 297.299 338.8 297.499 339L302.899 350C303.299 351 303.799 352.1 304.399 353.1C306.099 355.9 309.599 359.8 312.199 359.8C312.399 359.8 312.499 359.8 312.699 359.8C313.299 359.7 313.799 359.3 314.399 358.5L328.699 356.9L302.499 366.2L301.499 366.6L295.499 368.7C292.799 369.9 290.399 371.7 288.499 373.9C287.199 375.5 286.199 377.2 285.399 379.1C275.399 385.2 270.999 394.9 273.699 405.8L298.999 498.1C298.799 498.2 298.499 498.4 298.299 498.5C296.899 499.7 296.499 501.6 296.399 502.4C296.099 502.3 295.899 502.2 295.599 502.2C295.499 502.2 295.399 502.2 295.299 502.2L295.099 502.1C294.699 501.9 294.299 501.9 293.899 502.1C293.499 502.3 293.199 502.6 292.999 503L291.299 506.9C291.099 507.3 291.099 507.7 291.299 508.1C291.299 508.1 291.299 508.1 291.299 508.2L291.099 509L278.699 517.7L275.399 519.9C271.599 522.2 267.599 524 263.299 525.1L254.999 527.3C253.199 527.8 251.599 528.9 250.499 530.3C249.399 531.8 248.799 533.6 248.799 535.5C248.799 536.5 248.999 537.4 249.399 538.3C249.799 539.2 250.399 540 251.099 540.7C251.799 541.4 252.599 541.9 253.499 542.2C254.399 542.5 255.199 542.7 256.199 542.7C256.299 542.7 256.299 542.7 256.399 542.7L322.099 541.1C322.699 541.1 323.199 541 323.699 540.7C324.199 540.5 324.699 540.1 324.999 539.7C325.399 539.3 325.699 538.8 325.899 538.3C326.099 537.8 326.199 537.2 326.099 536.7L325.999 534.7C329.499 534.7 332.399 531.8 332.399 528.2C332.399 524.7 329.599 521.8 326.099 521.7V520L341.099 517.8C340.599 519.3 339.999 520.7 339.299 522.2L335.599 529.9C334.799 531.6 334.599 533.5 334.999 535.3C335.299 536.9 336.099 538.3 337.299 539.4C337.499 539.6 337.699 539.8 337.899 539.9C339.199 541 340.899 541.6 342.599 541.6C342.899 541.6 343.099 541.6 343.399 541.6C345.299 541.4 347.199 540.4 348.399 538.9L368.899 513.8L375.399 512.9V515.7C375.399 515.8 375.499 515.9 375.599 515.9H379.999V522.3C376.599 522.4 373.799 525.3 373.799 528.8C373.799 532.4 376.699 535.3 380.299 535.3C383.899 535.3 386.799 532.4 386.799 528.8C386.799 525.3 383.999 522.4 380.599 522.3V515.9H385.399C385.499 515.9 385.599 515.8 385.599 515.7V513L434.299 520.5V522.2C430.799 522.3 427.999 525.2 427.999 528.7C427.999 532.3 430.899 535.2 434.499 535.2C438.099 535.2 440.999 532.3 440.999 528.7C440.999 525.2 438.299 522.4 434.899 522.2V520.3V515.8C434.899 515.7 434.899 515.7 434.799 515.6C434.799 515.6 434.799 515.6 434.699 515.5L389.899 501.7C390.299 500.9 390.499 500.1 390.499 499.2V487.3C390.599 487 390.799 486.8 390.899 486.5C391.099 486 391.099 485.4 390.999 484.8C390.899 484.3 390.799 483.8 390.499 483.3V476.7C390.499 475.3 389.999 474 388.999 473C388.099 472.1 386.899 471.5 385.599 471.4V451.3C385.599 451.2 385.499 451.1 385.399 451.1H383.699V402.3H431.599C434.999 402.3 437.999 400.3 439.399 397.4C458.899 406.8 479.699 424 479.999 424.3C480.099 424.4 484.699 428.8 487.299 434.9C487.299 438.8 487.299 442.5 487.399 446.1H486.999L486.699 445.5C487.099 440.6 483.899 433.9 473.699 429.1C464.099 424.6 449.899 427.6 449.799 427.7C449.699 427.7 449.599 427.8 449.599 428C449.599 428.1 449.699 428.2 449.899 428.2C450.099 428.2 450.199 428.2 450.399 428.2C466.399 428.2 479.499 440.1 484.499 444.6C485.499 445.5 485.999 446 486.299 446.1H457.299C457.199 446.1 457.099 446.2 457.099 446.3V446.9C457.099 452.2 457.799 457.4 459.199 462.4H457.299V536H459.699V515.2C463.499 517.9 474.299 519.9 487.499 520V536H489.899V520C503.099 519.9 513.899 517.9 517.699 515.2V536H520.099V462.4H517.999C519.499 457.2 520.299 451.8 520.299 446.3C520.299 446.2 520.299 446.2 520.199 446.1C520.099 446 520.099 446 519.999 446H491.299C491.199 441.7 491.199 437.2 491.199 432.6L492.999 428.1C493.099 428.1 493.299 428 493.599 427.9C494.299 427.6 495.299 427.3 496.399 426.8C496.699 426.7 496.999 426.5 497.399 426.4C497.499 426.4 497.599 426.3 497.699 426.3C502.299 424.3 508.899 420.8 514.399 415.9C514.599 415.7 514.799 415.5 514.999 415.4C515.099 415.3 515.199 415.2 515.299 415.2C516.699 413.9 517.999 412.4 519.199 410.9C527.699 399.5 520.699 390.6 520.699 390.5C520.699 390.4 520.599 390.4 520.499 390.4C505.899 393.6 496.199 398.7 491.699 405.6C491.699 404.7 491.699 403.8 491.799 402.9L496.399 395.5C502.399 394.4 511.699 386.1 519.299 379.4C522.199 376.8 524.699 374.6 526.699 373.1C533.799 367.7 545.199 358.2 545.299 358.1C545.299 358.1 545.299 358.1 545.299 358V357.9C545.299 357.9 545.299 357.9 545.299 357.8C545.299 357.8 545.299 357.8 545.299 357.7C545.299 357.7 545.299 357.7 545.199 357.7C545.099 357.7 533.799 355.3 523.999 359.7C523.199 360.1 522.299 360.4 521.299 360.8C541.199 344.3 551.599 325.4 552.199 324.3ZM274.199 230.9L273.999 230.5H275.599L274.199 230.9ZM375.199 451.4V471.4L374.399 470.8C373.899 470.4 373.399 470 372.899 469.6C370.699 467.8 368.799 466.3 366.799 466.6C366.599 466.6 366.399 466.7 366.099 466.8L334.099 403.8L337.899 402.4H376.699V451.2H375.399C375.299 451.2 375.199 451.3 375.199 451.4ZM264.999 230.5C264.999 230.8 264.999 231 265.099 231.3L265.699 235.2C265.699 235.4 265.799 235.7 265.899 236C266.199 237.3 266.699 239.2 266.199 242.1L263.099 251.3L259.399 249.7C259.299 249.7 259.199 249.7 259.099 249.8L242.899 272.9L199.799 234.6C198.299 233.1 196.599 231.8 194.899 230.6H264.999V230.5ZM325.299 522.3L325.099 518.9C325.099 518.3 324.999 517.6 324.999 517C324.899 514.2 324.799 511.7 323.299 510.4C322.999 510.1 322.699 509.9 322.299 509.8L313.399 430.4L347.999 474.3C346.699 473.7 345.499 473.4 343.799 474.8C342.599 475.8 341.899 477 341.899 478.3C341.899 480.2 343.099 481.7 343.699 482.3C343.399 482.4 343.199 482.6 342.999 482.8C342.899 482.9 342.899 483 342.799 483L342.699 483.1C341.899 483.5 341.599 484.5 341.999 485.3L343.799 489.1C343.999 489.5 344.299 489.8 344.699 489.9C344.699 489.9 344.699 489.9 344.799 489.9L345.199 490.6L343.699 505.6L343.199 509.7C343.199 509.9 343.099 510.1 343.099 510.4L325.899 515.6C325.799 515.6 325.699 515.7 325.699 515.8V522.3C325.499 522.3 325.399 522.3 325.299 522.3ZM158.999 522.3C156.499 522.4 154.399 523.9 153.399 526L153.799 513L154.299 512.9V515.7C154.299 515.8 154.399 515.9 154.499 515.9H158.899V522.3H158.999ZM517.299 511C513.499 508.3 502.699 506.3 489.499 506.2V493.8C494.199 493.5 498.499 491.5 501.999 488.3L502.199 488.2C506.499 484.1 510.099 479.5 512.899 474.3C514.799 473.7 516.399 473 517.399 472.3V511H517.299ZM459.299 472.2C460.199 472.9 461.599 473.5 463.399 474.1C466.099 479.2 469.599 483.9 473.699 488C477.299 491.6 482.099 493.6 487.099 493.8V506.2C473.899 506.3 463.099 508.3 459.299 511V472.2ZM489.699 323.6C490.399 321.6 490.899 319.4 491.299 317.1C491.999 321 492.699 323.4 492.699 323.5C492.699 323.5 492.699 323.5 492.699 323.6C492.499 325 491.399 332.4 490.399 339.5C490.299 333.6 489.999 328.2 489.699 323.6ZM485.199 333C485.499 332.5 485.899 331.9 486.399 331C486.499 333.1 486.599 335.3 486.699 337.6C486.199 335.6 485.599 333.9 485.199 333ZM483.499 400.8C483.899 400 487.399 393 487.999 383.7C487.999 385.3 487.999 386.9 487.899 388.5L487.599 401.2C487.399 407.4 487.299 413.6 487.199 419.7C485.499 409.8 483.699 401.7 483.499 400.8ZM460.999 469.2C461.599 470.6 462.299 472 462.999 473.4C461.299 472.8 459.999 472.2 459.299 471.5V464.3C459.799 466 460.399 467.6 460.999 469.2ZM459.299 514.7V511.6C462.399 509.1 472.699 506.8 487.099 506.7V519.7C472.699 519.5 462.299 517.2 459.299 514.7ZM489.499 519.7V506.7C503.899 506.8 514.199 509.1 517.299 511.6V514.7C514.199 517.2 503.799 519.5 489.499 519.7ZM517.299 471.5C516.499 472.2 514.999 472.9 513.099 473.5C513.899 472 514.599 470.6 515.299 469C516.099 467.2 516.699 465.4 517.299 463.6V471.5ZM490.899 425.8C491.499 427 491.999 427.8 492.199 428.1L490.799 431.4C490.799 429.6 490.799 427.7 490.899 425.8ZM491.499 394.5L491.599 388.5C491.699 385.6 491.699 382.4 491.699 379.1L493.899 377.2C494.899 376.8 495.799 376.3 496.799 375.9C494.099 380.6 493.099 386.9 495.399 395.4L491.299 402.1C491.399 399.5 491.399 397 491.499 394.5Z" fill="url(#paint0_linear_2677_402520)" style="mix-blend-mode:overlay"/>
<defs>
<linearGradient id="paint0_linear_2677_402520" x1="8.19922" y1="13.4" x2="552.199" y2="13.4" gradientUnits="userSpaceOnUse">
<stop stop-color="#F38478"/>
<stop offset="1" stop-color="#5D6AE8"/>
</linearGradient>
</defs>
</svg>
