<svg width="72" height="32" viewBox="0 0 72 32" fill="none" xmlns="http://www.w3.org/2000/svg">
<path fill-rule="evenodd" clip-rule="evenodd" d="M1.02333 8.28873C0.85666 7.20409 1.60082 6.18971 2.68546 6.02305C2.81981 6.00241 2.95592 5.9956 3.09166 6.00275L6.01714 6.15672C6.85889 6.20102 7.58108 6.77161 7.81892 7.58027L8.57999 10.1679C8.93812 11.3855 8.48582 12.6964 7.45301 13.4341L6.71948 13.9581C7.42198 15.1289 8.35863 16.2997 9.52946 17.4705L9.91973 17.8521C10.8304 18.7223 11.741 19.4508 12.6516 20.0377L13.0419 20.2805L13.5659 19.547C14.2648 18.5685 15.4781 18.1111 16.6392 18.3702L16.8321 18.42L19.4197 19.1811C20.1778 19.4041 20.7267 20.0527 20.8289 20.8265L20.8433 20.9829L20.9973 23.9083C21.0044 24.0441 20.9976 24.1802 20.9769 24.3145C20.8103 25.3992 19.7959 26.1433 18.7113 25.9767C13.9232 25.2409 10.0317 23.4455 7.03692 20.5905L6.71948 20.2805C3.68405 17.2451 1.78534 13.2478 1.02333 8.28873Z" stroke="#5D6AE8" stroke-width="2" stroke-linejoin="round"/>
<path d="M48.1657 15.005C46.6601 18.4459 43.2736 20.876 39.3063 20.9954L39 21C33.4772 21 29 16.5228 29 11C29 6.89662 31.4715 3.37048 35.0071 1.82899M39 5.827V11H44.166H49C49 5.47715 44.5228 1 39 1V5.827Z" stroke="#5D6AE8" stroke-width="2" stroke-linecap="round" stroke-linejoin="round"/>
<path d="M71 19L62 28L59.353 25.353L57 23L49 31M71 19V25M71 19H65" stroke="#5D6AE8" stroke-width="2" stroke-linecap="round" stroke-linejoin="round"/>
</svg>
