<svg width="110" height="30" viewBox="0 0 110 30" fill="none" xmlns="http://www.w3.org/2000/svg">
<path d="M61 15H79" stroke="#5D6AE8" stroke-width="2" stroke-linecap="round" stroke-linejoin="round"/>
<path d="M99 20V24M91 6H107C108.105 6 109 6.89543 109 8V18C109 19.1046 108.105 20 107 20H91C89.8954 20 89 19.1046 89 18V8C89 6.89543 89.8954 6 91 6Z" stroke="#5D6AE8" stroke-width="2" stroke-linecap="round" stroke-linejoin="round"/>
<path d="M73 9L79 15L73 20.5" stroke="#5D6AE8" stroke-width="2" stroke-linecap="round" stroke-linejoin="round"/>
<path d="M95 24H103" stroke="#5D6AE8" stroke-width="2" stroke-linecap="round" stroke-linejoin="round"/>
<path d="M50.1657 15.005C48.6601 18.4459 45.2736 20.876 41.3063 20.9954L41 21C35.4772 21 31 16.5228 31 11C31 6.89662 33.4715 3.37048 37.0071 1.82899M41 5.827V11H46.166H51C51 5.47715 46.5228 1 41 1V5.827Z" stroke="#5D6AE8" stroke-width="2" stroke-linecap="round" stroke-linejoin="round"/>
<path fill-rule="evenodd" clip-rule="evenodd" d="M1 21H5V29H1V21ZM9 16H13V29H9V16ZM17 11H21V29H17V11Z" stroke="#5D6AE8" stroke-width="2" stroke-linejoin="round"/>
</svg>
