<svg width="120" height="40" viewBox="0 0 120 40" fill="none" xmlns="http://www.w3.org/2000/svg">
<path d="M78.1657 16.005C76.6601 19.4459 73.2736 21.876 69.3063 21.9954L69 22C63.4772 22 59 17.5228 59 12C59 7.89662 61.4715 4.37048 65.0071 2.82899M69 6.827V12H74.166H79C79 6.47715 74.5228 2 69 2V6.827Z" stroke="#5D6AE8" stroke-width="2" stroke-linecap="round" stroke-linejoin="round"/>
<path fill-rule="evenodd" clip-rule="evenodd" d="M1 30H5V38H1V30ZM9 25H13V38H9V25ZM17 20H21V38H17V20Z" stroke="#5D6AE8" stroke-width="2" stroke-linejoin="round"/>
<path d="M51 16L42 25L39.353 22.353L37 20L29 28M51 16V22M51 16H45" stroke="#5D6AE8" stroke-width="2" stroke-linecap="round" stroke-linejoin="round"/>
</svg>
