<svg width="90" height="38" viewBox="0 0 90 38" fill="none" xmlns="http://www.w3.org/2000/svg">
<path d="M4.125 20.0239C2.57211 17.5514 1.53822 14.6396 1.02333 11.2887C0.85666 10.2041 1.60082 9.18971 2.68546 9.02305C2.81981 9.00241 2.95592 8.9956 3.09166 9.00275L6.01714 9.15672C6.85889 9.20102 7.58108 9.77161 7.81892 10.5803L8.57999 13.1679C8.93812 14.3855 8.48582 15.6964 7.45301 16.4341M21 9L1 29M9.52946 20.4705L9.91973 20.8521C10.8304 21.7223 11.741 22.4508 12.6516 23.0377L13.0419 23.2805L13.5659 22.547C14.2648 21.5685 15.4781 21.1111 16.6392 21.3702L16.8321 21.42L19.4197 22.1811C20.1778 22.4041 20.7267 23.0527 20.8289 23.8265L20.8433 23.9829L20.9973 26.9083C21.0044 27.0441 20.9976 27.1802 20.9769 27.3145C20.8103 28.3992 19.7959 29.1433 18.7113 28.9767C13.9232 28.2409 10.0317 26.4455 7.03692 23.5905L6.71948 23.2805L9.52946 20.4705Z" stroke="#5D6AE8" stroke-width="2" stroke-linecap="round" stroke-linejoin="round"/>
<path fill-rule="evenodd" clip-rule="evenodd" d="M58.9767 19.2887C59.1433 18.2041 58.3992 17.1897 57.3145 17.023C57.1802 17.0024 57.0441 16.9956 56.9083 17.0027L53.9829 17.1567C53.1411 17.201 52.4189 17.7716 52.1811 18.5803L51.42 21.1679C51.0619 22.3855 51.5142 23.6964 52.547 24.4341L53.2805 24.9581C52.578 26.1289 51.6414 27.2997 50.4705 28.4705L50.0803 28.8521C49.1696 29.7223 48.259 30.4508 47.3484 31.0377L46.9581 31.2805L46.4341 30.547C45.7352 29.5685 44.5219 29.1111 43.3608 29.3702L43.1679 29.42L40.5803 30.1811C39.8222 30.4041 39.2733 31.0527 39.1711 31.8265L39.1567 31.9829L39.0027 34.9083C38.9956 35.0441 39.0024 35.1802 39.023 35.3145C39.1897 36.3992 40.2041 37.1433 41.2887 36.9767C46.0768 36.2409 49.9683 34.4455 52.9631 31.5905L53.2805 31.2805C56.3159 28.2451 58.2147 24.2478 58.9767 19.2887Z" stroke="#5D6AE8" stroke-width="2" stroke-linejoin="round"/>
<path d="M43 15H37M37 15V21M37 15L45 23" stroke="#5D6AE8" stroke-width="2" stroke-linecap="round" stroke-linejoin="round"/>
<path fill-rule="evenodd" clip-rule="evenodd" d="M67.0233 5.28873C66.8567 4.20409 67.6008 3.18971 68.6855 3.02305C68.8198 3.00241 68.9559 2.9956 69.0917 3.00275L72.0171 3.15672C72.8589 3.20102 73.5811 3.77161 73.8189 4.58027L74.58 7.16789C74.9381 8.38554 74.4858 9.69641 73.453 10.4341L72.7195 10.9581C73.422 12.1289 74.3586 13.2997 75.5295 14.4705L75.9197 14.8521C76.8304 15.7223 77.741 16.4508 78.6516 17.0377L79.0419 17.2805L79.5659 16.547C80.2648 15.5685 81.4781 15.1111 82.6392 15.3702L82.8321 15.42L85.4197 16.1811C86.1779 16.4041 86.7267 17.0527 86.8289 17.8265L86.8433 17.9829L86.9973 20.9083C87.0044 21.0441 86.9976 21.1802 86.977 21.3145C86.8103 22.3992 85.7959 23.1433 84.7113 22.9767C79.9232 22.2409 76.0317 20.4455 73.0369 17.5905L72.7195 17.2805C69.6841 14.2451 67.7853 10.2478 67.0233 5.28873Z" stroke="#5D6AE8" stroke-width="2" stroke-linejoin="round"/>
<path d="M87 9H81M81 9V3M81 9L89 1" stroke="#5D6AE8" stroke-width="2" stroke-linecap="round" stroke-linejoin="round"/>
</svg>
