<svg width="120" height="40" viewBox="0 0 120 40" fill="none" xmlns="http://www.w3.org/2000/svg">
<path d="M11 21C16.5228 21 21 16.5228 21 11C21 5.47715 16.5228 1 11 1C5.47715 1 1 5.47715 1 11C1 16.5228 5.47715 21 11 21Z" stroke="#5D6AE8" stroke-width="2" stroke-miterlimit="10"/>
<path d="M1 11H21" stroke="#5D6AE8" stroke-width="2" stroke-linecap="round" stroke-linejoin="round"/>
<path d="M11 1C8.33333 3.66667 7 7 7 11C7 15 8.33333 18.3333 11 21" stroke="#5D6AE8" stroke-width="2" stroke-miterlimit="10" stroke-linecap="round"/>
<path d="M11 1C13.6667 3.66667 15 7 15 11C15 15 13.6667 18.3333 11 21" stroke="#5D6AE8" stroke-width="2" stroke-miterlimit="10" stroke-linecap="round"/>
<path fill-rule="evenodd" clip-rule="evenodd" d="M39 27C40.1046 27 41 27.8954 41 29C41 30.1046 40.1046 31 39 31C37.8954 31 37 30.1046 37 29C37 27.8954 37.8954 27 39 27ZM39 19C40.1046 19 41 19.8954 41 21C41 22.1046 40.1046 23 39 23C37.8954 23 37 22.1046 37 21C37 19.8954 37.8954 19 39 19ZM39 11C40.1046 11 41 11.8954 41 13C41 14.1046 40.1046 15 39 15C37.8954 15 37 14.1046 37 13C37 11.8954 37.8954 11 39 11Z" stroke="#5D6AE8" stroke-width="2"/>
<path fill-rule="evenodd" clip-rule="evenodd" d="M47 27C48.1046 27 49 27.8954 49 29C49 30.1046 48.1046 31 47 31C45.8954 31 45 30.1046 45 29C45 27.8954 45.8954 27 47 27ZM47 35C48.1046 35 49 35.8954 49 37C49 38.1046 48.1046 39 47 39C45.8954 39 45 38.1046 45 37C45 35.8954 45.8954 35 47 35ZM47 19C48.1046 19 49 19.8954 49 21C49 22.1046 48.1046 23 47 23C45.8954 23 45 22.1046 45 21C45 19.8954 45.8954 19 47 19ZM47 11C48.1046 11 49 11.8954 49 13C49 14.1046 48.1046 15 47 15C45.8954 15 45 14.1046 45 13C45 11.8954 45.8954 11 47 11Z" stroke="#5D6AE8" stroke-width="2"/>
<path fill-rule="evenodd" clip-rule="evenodd" d="M55 27C56.1046 27 57 27.8954 57 29C57 30.1046 56.1046 31 55 31C53.8954 31 53 30.1046 53 29C53 27.8954 53.8954 27 55 27ZM55 19C56.1046 19 57 19.8954 57 21C57 22.1046 56.1046 23 55 23C53.8954 23 53 22.1046 53 21C53 19.8954 53.8954 19 55 19ZM55 11C56.1046 11 57 11.8954 57 13C57 14.1046 56.1046 15 55 15C53.8954 15 53 14.1046 53 13C53 11.8954 53.8954 11 55 11Z" stroke="#5D6AE8" stroke-width="2"/>
<path d="M73 12H85" stroke="#5D6AE8" stroke-width="2" stroke-linecap="round"/>
<path d="M89 12H93" stroke="#5D6AE8" stroke-width="2" stroke-linecap="round"/>
<path fill-rule="evenodd" clip-rule="evenodd" d="M83 26C84.1046 26 85 26.8954 85 28C85 29.1046 84.1046 30 83 30C81.8954 30 81 29.1046 81 28C81 26.8954 81.8954 26 83 26ZM79 18C80.1046 18 81 18.8954 81 20C81 21.1046 80.1046 22 79 22C77.8954 22 77 21.1046 77 20C77 18.8954 77.8954 18 79 18ZM87 10C88.1046 10 89 10.8954 89 12C89 13.1046 88.1046 14 87 14C85.8954 14 85 13.1046 85 12C85 10.8954 85.8954 10 87 10Z" stroke="#5D6AE8" stroke-width="2"/>
<path d="M73 20H77" stroke="#5D6AE8" stroke-width="2" stroke-linecap="round"/>
<path d="M81 20H93" stroke="#5D6AE8" stroke-width="2" stroke-linecap="round"/>
<path d="M73 28H81" stroke="#5D6AE8" stroke-width="2" stroke-linecap="round"/>
<path d="M85 28H93" stroke="#5D6AE8" stroke-width="2" stroke-linecap="round"/>
</svg>
