<svg width="82" height="24" viewBox="0 0 82 24" fill="none" xmlns="http://www.w3.org/2000/svg">
<path fill-rule="evenodd" clip-rule="evenodd" d="M59.0233 5.28873C58.8567 4.20409 59.6008 3.18971 60.6855 3.02305C60.8198 3.00241 60.9559 2.9956 61.0917 3.00275L64.0171 3.15672C64.8589 3.20102 65.5811 3.77161 65.8189 4.58027L66.58 7.16789C66.9381 8.38554 66.4858 9.69641 65.453 10.4341L64.7195 10.9581C65.422 12.1289 66.3586 13.2997 67.5295 14.4705L67.9197 14.8521C68.8304 15.7223 69.741 16.4508 70.6516 17.0377L71.0419 17.2805L71.5659 16.547C72.2648 15.5685 73.4781 15.1111 74.6392 15.3702L74.8321 15.42L77.4197 16.1811C78.1779 16.4041 78.7267 17.0527 78.8289 17.8265L78.8433 17.9829L78.9973 20.9083C79.0044 21.0441 78.9976 21.1802 78.977 21.3145C78.8103 22.3992 77.7959 23.1433 76.7113 22.9767C71.9232 22.2409 68.0317 20.4455 65.0369 17.5905L64.7195 17.2805C61.6841 14.2451 59.7853 10.2478 59.0233 5.28873Z" stroke="#5D6AE8" stroke-width="2" stroke-linejoin="round"/>
<path d="M79 9H73M73 9V3M73 9L81 1" stroke="#5D6AE8" stroke-width="2" stroke-linecap="round" stroke-linejoin="round"/>
<path fill-rule="evenodd" clip-rule="evenodd" d="M12 1C13.1046 1 14 1.89543 14 3L14 3.13517C14.0002 3.81136 14.4075 4.42093 15.0322 4.67989C15.6567 4.93881 16.3757 4.7959 16.8537 4.31783L16.9497 4.22183C17.7308 3.44078 18.9971 3.44078 19.7782 4.22183C20.5592 5.00287 20.5592 6.2692 19.7782 7.05025L19.6825 7.14589C19.2042 7.62416 19.0612 8.3435 19.3202 8.96834C19.5792 9.59319 20.1892 10.0004 20.8656 10.0001L21 10C22.1046 10 23 10.8954 23 12C23 13.1046 22.1046 14 21 14L20.8648 14C20.1886 14.0002 19.5791 14.4075 19.3201 15.0322C19.0612 15.6567 19.2041 16.3757 19.6822 16.8537L19.7782 16.9497C20.5592 17.7308 20.5592 18.9971 19.7782 19.7782C18.9971 20.5592 17.7308 20.5592 16.9497 19.7782L16.8537 19.6822C16.3757 19.2041 15.6567 19.0612 15.0322 19.3201C14.4075 19.5791 14.0002 20.1886 14 20.8648L14 21C14 22.1046 13.1046 23 12 23C10.8954 23 10 22.1046 10 21L10.0001 20.8656C10.0004 20.1892 9.59319 19.5792 8.96834 19.3202C8.3435 19.0612 7.62416 19.2042 7.14589 19.6825L7.05025 19.7782C6.2692 20.5592 5.00287 20.5592 4.22183 19.7782C3.44078 18.9971 3.44078 17.7308 4.22183 16.9497L4.31747 16.8541C4.79576 16.3758 4.93876 15.6565 4.67976 15.0317C4.42076 14.4068 3.81079 13.9996 3.1344 13.9999L3 14C1.89543 14 1 13.1046 1 12C1 10.8954 1.89543 10 3 10L3.13517 9.99996C3.81136 9.99977 4.42093 9.59248 4.67989 8.96784C4.93881 8.34331 4.7959 7.6243 4.31783 7.14625L4.22183 7.05025C3.44078 6.2692 3.44078 5.00287 4.22183 4.22183C5.00287 3.44078 6.2692 3.44078 7.05025 4.22183L7.14589 4.31747C7.62416 4.79576 8.3435 4.93876 8.96834 4.67976C9.59319 4.42076 10.0004 3.81079 10.0001 3.1344L10 3C10 1.89543 10.8954 1 12 1ZM12 9C10.3431 9 9 10.3431 9 12C9 13.6569 10.3431 15 12 15C13.6569 15 15 13.6569 15 12C15 10.3431 13.6569 9 12 9Z" stroke="#5D6AE8" stroke-width="2"/>
<path d="M31 12H51" stroke="#5D6AE8" stroke-width="2" stroke-linecap="round" stroke-linejoin="round"/>
<path d="M45 6L51 12L45 17.5" stroke="#5D6AE8" stroke-width="2" stroke-linecap="round" stroke-linejoin="round"/>
</svg>
