<svg width="120" height="40" viewBox="0 0 120 40" fill="none" xmlns="http://www.w3.org/2000/svg">
<path d="M11 25V29M3 11H19C20.1046 11 21 11.8954 21 13V23C21 24.1046 20.1046 25 19 25H3C1.89543 25 1 24.1046 1 23V13C1 11.8954 1.89543 11 3 11Z" stroke="#5D6AE8" stroke-width="2" stroke-linecap="round" stroke-linejoin="round"/>
<path d="M43 3H35C33.8954 3 33 3.89543 33 5V23C33 24.1046 33.8954 25 35 25H43C44.1046 25 45 24.1046 45 23V5C45 3.89543 44.1046 3 43 3Z" stroke="#5D6AE8" stroke-width="2" stroke-linecap="round" stroke-linejoin="round"/>
<path d="M38 6H40" stroke="#5D6AE8" stroke-width="2" stroke-linecap="round" stroke-linejoin="round"/>
<path d="M39.5 22C39.5 22.2761 39.2761 22.5 39 22.5C38.7239 22.5 38.5 22.2761 38.5 22C38.5 21.7239 38.7239 21.5 39 21.5C39.2761 21.5 39.5 21.7239 39.5 22Z" stroke="#5D6AE8"/>
<path d="M7 29H15" stroke="#5D6AE8" stroke-width="2" stroke-linecap="round" stroke-linejoin="round"/>
<path fill-rule="evenodd" clip-rule="evenodd" d="M74.9767 19.2887C75.1433 18.2041 74.3992 17.1897 73.3145 17.023C73.1802 17.0024 73.0441 16.9956 72.9083 17.0027L69.9829 17.1567C69.1411 17.201 68.4189 17.7716 68.1811 18.5803L67.42 21.1679C67.0619 22.3855 67.5142 23.6964 68.547 24.4341L69.2805 24.9581C68.578 26.1289 67.6414 27.2997 66.4705 28.4705L66.0803 28.8521C65.1696 29.7223 64.259 30.4508 63.3484 31.0377L62.9581 31.2805L62.4341 30.547C61.7352 29.5685 60.5219 29.1111 59.3608 29.3702L59.1679 29.42L56.5803 30.1811C55.8221 30.4041 55.2733 31.0527 55.1711 31.8265L55.1567 31.9829L55.0027 34.9083C54.9956 35.0441 55.0024 35.1802 55.023 35.3145C55.1897 36.3992 56.2041 37.1433 57.2887 36.9767C62.0768 36.2409 65.9683 34.4455 68.9631 31.5905L69.2805 31.2805C72.3159 28.2451 74.2147 24.2478 74.9767 19.2887Z" stroke="#5D6AE8" stroke-width="2" stroke-linejoin="round"/>
</svg>
