<svg width="80" height="38" viewBox="0 0 80 38" fill="none" xmlns="http://www.w3.org/2000/svg">
<path d="M78.1657 15.005C76.6601 18.4459 73.2736 20.876 69.3063 20.9954L69 21C63.4772 21 59 16.5228 59 11C59 6.89662 61.4715 3.37048 65.0071 1.82899M69 5.827V11H74.166H79C79 5.47715 74.5228 1 69 1V5.827Z" stroke="#5D6AE8" stroke-width="2" stroke-linecap="round" stroke-linejoin="round"/>
<path fill-rule="evenodd" clip-rule="evenodd" d="M1 29H5V37H1V29ZM9 24H13V37H9V24ZM17 19H21V37H17V19Z" stroke="#5D6AE8" stroke-width="2" stroke-linejoin="round"/>
<path d="M51 15L42 24L39.353 21.353L37 19L29 27M51 15V21M51 15H45" stroke="#5D6AE8" stroke-width="2" stroke-linecap="round" stroke-linejoin="round"/>
</svg>
