<svg width="120" height="40" viewBox="0 0 120 40" fill="none" xmlns="http://www.w3.org/2000/svg">
<circle cx="39" cy="22" r="4" stroke="#5D6AE8" stroke-width="2"/>
<path d="M30 36C30 36.5523 30.4477 37 31 37C31.5523 37 32 36.5523 32 36H30ZM46 36C46 36.5523 46.4477 37 47 37C47.5523 37 48 36.5523 48 36H46ZM32 36V34H30V36H32ZM35 31H43V29H35V31ZM46 34V36H48V34H46ZM43 31C44.6569 31 46 32.3431 46 34H48C48 31.2386 45.7614 29 43 29V31ZM32 34C32 32.3431 33.3431 31 35 31V29C32.2386 29 30 31.2386 30 34H32Z" fill="#5D6AE8"/>
<path fill-rule="evenodd" clip-rule="evenodd" d="M65 19H68V30H65C63.8954 30 63 29.1046 63 28V21C63 19.8954 63.8954 19 65 19Z" stroke="#5D6AE8" stroke-width="2" stroke-linejoin="round"/>
<path fill-rule="evenodd" clip-rule="evenodd" d="M68 19L72 10C73.6569 10 75 11.3431 75 13V17H80.6688C81.7733 17 82.6688 17.8954 82.6688 19C82.6688 19.1018 82.661 19.2035 82.6455 19.3041L81.2609 28.3041C81.1108 29.2798 80.2713 30 79.2842 30H68V19Z" stroke="#5D6AE8" stroke-width="2" stroke-linejoin="round"/>
<path fill-rule="evenodd" clip-rule="evenodd" d="M10.5 5C15.1944 5 19 8.80558 19 13.5C19 18.1944 15.1944 22 10.5 22C9.13195 22 7.83938 21.6768 6.69448 21.1026L1 23L2.8979 17.3065C2.32338 16.1614 2 14.8685 2 13.5C2 8.80558 5.80558 5 10.5 5Z" stroke="#5D6AE8" stroke-width="2" stroke-linejoin="round"/>
</svg>
