<svg width="120" height="40" viewBox="0 0 120 40" fill="none" xmlns="http://www.w3.org/2000/svg">
<path fill-rule="evenodd" clip-rule="evenodd" d="M59.0233 13.2887C58.8567 12.2041 59.6008 11.1897 60.6855 11.023C60.8198 11.0024 60.9559 10.9956 61.0917 11.0027L64.0171 11.1567C64.8589 11.201 65.5811 11.7716 65.8189 12.5803L66.58 15.1679C66.9381 16.3855 66.4858 17.6964 65.453 18.4341L64.7195 18.9581C65.422 20.1289 66.3586 21.2997 67.5295 22.4705L67.9197 22.8521C68.8304 23.7223 69.741 24.4508 70.6516 25.0377L71.0419 25.2805L71.5659 24.547C72.2648 23.5685 73.4781 23.1111 74.6392 23.3702L74.8321 23.42L77.4197 24.1811C78.1779 24.4041 78.7267 25.0527 78.8289 25.8265L78.8433 25.9829L78.9973 28.9083C79.0044 29.0441 78.9976 29.1802 78.977 29.3145C78.8103 30.3992 77.7959 31.1433 76.7113 30.9767C71.9232 30.2409 68.0317 28.4455 65.0369 25.5905L64.7195 25.2805C61.6841 22.2451 59.7853 18.2478 59.0233 13.2887Z" stroke="#5D6AE8" stroke-width="2" stroke-linejoin="round"/>
<path d="M79 17H73M73 17V11M73 17L81 9" stroke="#5D6AE8" stroke-width="2" stroke-linecap="round" stroke-linejoin="round"/>
<path fill-rule="evenodd" clip-rule="evenodd" d="M12 9C13.1046 9 14 9.89543 14 11L14 11.1352C14.0002 11.8114 14.4075 12.4209 15.0322 12.6799C15.6567 12.9388 16.3757 12.7959 16.8537 12.3178L16.9497 12.2218C17.7308 11.4408 18.9971 11.4408 19.7782 12.2218C20.5592 13.0029 20.5592 14.2692 19.7782 15.0503L19.6825 15.1459C19.2042 15.6242 19.0612 16.3435 19.3202 16.9683C19.5792 17.5932 20.1892 18.0004 20.8656 18.0001L21 18C22.1046 18 23 18.8954 23 20C23 21.1046 22.1046 22 21 22L20.8648 22C20.1886 22.0002 19.5791 22.4075 19.3201 23.0322C19.0612 23.6567 19.2041 24.3757 19.6822 24.8537L19.7782 24.9497C20.5592 25.7308 20.5592 26.9971 19.7782 27.7782C18.9971 28.5592 17.7308 28.5592 16.9497 27.7782L16.8537 27.6822C16.3757 27.2041 15.6567 27.0612 15.0322 27.3201C14.4075 27.5791 14.0002 28.1886 14 28.8648L14 29C14 30.1046 13.1046 31 12 31C10.8954 31 10 30.1046 10 29L10.0001 28.8656C10.0004 28.1892 9.59319 27.5792 8.96834 27.3202C8.3435 27.0612 7.62416 27.2042 7.14589 27.6825L7.05025 27.7782C6.2692 28.5592 5.00287 28.5592 4.22183 27.7782C3.44078 26.9971 3.44078 25.7308 4.22183 24.9497L4.31747 24.8541C4.79576 24.3758 4.93876 23.6565 4.67976 23.0317C4.42076 22.4068 3.81079 21.9996 3.1344 21.9999L3 22C1.89543 22 1 21.1046 1 20C1 18.8954 1.89543 18 3 18L3.13517 18C3.81136 17.9998 4.42093 17.5925 4.67989 16.9678C4.93881 16.3433 4.7959 15.6243 4.31783 15.1463L4.22183 15.0503C3.44078 14.2692 3.44078 13.0029 4.22183 12.2218C5.00287 11.4408 6.2692 11.4408 7.05025 12.2218L7.14589 12.3175C7.62416 12.7958 8.3435 12.9388 8.96834 12.6798C9.59319 12.4208 10.0004 11.8108 10.0001 11.1344L10 11C10 9.89543 10.8954 9 12 9ZM12 17C10.3431 17 9 18.3431 9 20C9 21.6569 10.3431 23 12 23C13.6569 23 15 21.6569 15 20C15 18.3431 13.6569 17 12 17Z" stroke="#5D6AE8" stroke-width="2"/>
<path d="M31 20H51" stroke="#5D6AE8" stroke-width="2" stroke-linecap="round" stroke-linejoin="round"/>
<path d="M45 14L51 20L45 25.5" stroke="#5D6AE8" stroke-width="2" stroke-linecap="round" stroke-linejoin="round"/>
</svg>
