<svg width="80" height="22" viewBox="0 0 80 22" fill="none" xmlns="http://www.w3.org/2000/svg">
<path d="M11 21C16.5228 21 21 16.5228 21 11C21 5.47715 16.5228 1 11 1C5.47715 1 1 5.47715 1 11C1 16.5228 5.47715 21 11 21Z" stroke="#5D6AE8" stroke-width="2"/>
<path d="M11.5 7C11.5 7.27614 11.2761 7.5 11 7.5C10.7239 7.5 10.5 7.27614 10.5 7C10.5 6.72386 10.7239 6.5 11 6.5C11.2761 6.5 11.5 6.72386 11.5 7Z" stroke="#5D6AE8"/>
<path d="M11 11V15" stroke="#5D6AE8" stroke-width="2" stroke-linecap="round" stroke-linejoin="round"/>
<path d="M31 11H51" stroke="#5D6AE8" stroke-width="2" stroke-linecap="round" stroke-linejoin="round"/>
<path d="M45 5L51 11L45 16.5" stroke="#5D6AE8" stroke-width="2" stroke-linecap="round" stroke-linejoin="round"/>
<path fill-rule="evenodd" clip-rule="evenodd" d="M78.9767 3.28873C79.1433 2.20409 78.3992 1.18971 77.3145 1.02305C77.1802 1.00241 77.0441 0.995602 76.9083 1.00275L73.9829 1.15672C73.1411 1.20102 72.4189 1.77161 72.1811 2.58027L71.42 5.16789C71.0619 6.38554 71.5142 7.69641 72.547 8.43413L73.2805 8.95808C72.578 10.1289 71.6414 11.2997 70.4705 12.4705L70.0803 12.8521C69.1696 13.7223 68.259 14.4508 67.3484 15.0377L66.9581 15.2805L66.4341 14.547C65.7352 13.5685 64.5219 13.1111 63.3608 13.3702L63.1679 13.42L60.5803 14.1811C59.8221 14.4041 59.2733 15.0527 59.1711 15.8265L59.1567 15.9829L59.0027 18.9083C58.9956 19.0441 59.0024 19.1802 59.023 19.3145C59.1897 20.3992 60.2041 21.1433 61.2887 20.9767C66.0768 20.2409 69.9683 18.4455 72.9631 15.5905L73.2805 15.2805C76.3159 12.2451 78.2147 8.24782 78.9767 3.28873Z" stroke="#5D6AE8" stroke-width="2" stroke-linejoin="round"/>
</svg>
