<svg width="120" height="40" viewBox="0 0 120 40" fill="none" xmlns="http://www.w3.org/2000/svg">
<path d="M4.125 21.0239C2.57211 18.5514 1.53822 15.6396 1.02333 12.2887C0.85666 11.2041 1.60082 10.1897 2.68546 10.023C2.81981 10.0024 2.95592 9.9956 3.09166 10.0027L6.01714 10.1567C6.85889 10.201 7.58108 10.7716 7.81892 11.5803L8.57999 14.1679C8.93812 15.3855 8.48582 16.6964 7.45301 17.4341M21 10L1 30M9.52946 21.4705L9.91973 21.8521C10.8304 22.7223 11.741 23.4508 12.6516 24.0377L13.0419 24.2805L13.5659 23.547C14.2648 22.5685 15.4781 22.1111 16.6392 22.3702L16.8321 22.42L19.4197 23.1811C20.1778 23.4041 20.7267 24.0527 20.8289 24.8265L20.8433 24.9829L20.9973 27.9083C21.0044 28.0441 20.9976 28.1802 20.9769 28.3145C20.8103 29.3992 19.7959 30.1433 18.7113 29.9767C13.9232 29.2409 10.0317 27.4455 7.03692 24.5905L6.71948 24.2805L9.52946 21.4705Z" stroke="#5D6AE8" stroke-width="2" stroke-linecap="round" stroke-linejoin="round"/>
<path fill-rule="evenodd" clip-rule="evenodd" d="M58.9767 20.2887C59.1433 19.2041 58.3992 18.1897 57.3145 18.023C57.1802 18.0024 57.0441 17.9956 56.9083 18.0027L53.9829 18.1567C53.1411 18.201 52.4189 18.7716 52.1811 19.5803L51.42 22.1679C51.0619 23.3855 51.5142 24.6964 52.547 25.4341L53.2805 25.9581C52.578 27.1289 51.6414 28.2997 50.4705 29.4705L50.0803 29.8521C49.1696 30.7223 48.259 31.4508 47.3484 32.0377L46.9581 32.2805L46.4341 31.547C45.7352 30.5685 44.5219 30.1111 43.3608 30.3702L43.1679 30.42L40.5803 31.1811C39.8222 31.4041 39.2733 32.0527 39.1711 32.8265L39.1567 32.9829L39.0027 35.9083C38.9956 36.0441 39.0024 36.1802 39.023 36.3145C39.1897 37.3992 40.2041 38.1433 41.2887 37.9767C46.0768 37.2409 49.9683 35.4455 52.9631 32.5905L53.2805 32.2805C56.3159 29.2451 58.2147 25.2478 58.9767 20.2887Z" stroke="#5D6AE8" stroke-width="2" stroke-linejoin="round"/>
<path d="M43 16H37M37 16V22M37 16L45 24" stroke="#5D6AE8" stroke-width="2" stroke-linecap="round" stroke-linejoin="round"/>
<path fill-rule="evenodd" clip-rule="evenodd" d="M67.0233 6.28873C66.8567 5.20409 67.6008 4.18971 68.6855 4.02305C68.8198 4.00241 68.9559 3.9956 69.0917 4.00275L72.0171 4.15672C72.8589 4.20102 73.5811 4.77161 73.8189 5.58027L74.58 8.16789C74.9381 9.38554 74.4858 10.6964 73.453 11.4341L72.7195 11.9581C73.422 13.1289 74.3586 14.2997 75.5295 15.4705L75.9197 15.8521C76.8304 16.7223 77.741 17.4508 78.6516 18.0377L79.0419 18.2805L79.5659 17.547C80.2648 16.5685 81.4781 16.1111 82.6392 16.3702L82.8321 16.42L85.4197 17.1811C86.1779 17.4041 86.7267 18.0527 86.8289 18.8265L86.8433 18.9829L86.9973 21.9083C87.0044 22.0441 86.9976 22.1802 86.977 22.3145C86.8103 23.3992 85.7959 24.1433 84.7113 23.9767C79.9232 23.2409 76.0317 21.4455 73.0369 18.5905L72.7195 18.2805C69.6841 15.2451 67.7853 11.2478 67.0233 6.28873Z" stroke="#5D6AE8" stroke-width="2" stroke-linejoin="round"/>
<path d="M87 10H81M81 10V4M81 10L89 2" stroke="#5D6AE8" stroke-width="2" stroke-linecap="round" stroke-linejoin="round"/>
</svg>
