<svg width="76" height="36" viewBox="0 0 76 36" fill="none" xmlns="http://www.w3.org/2000/svg">
<path d="M11 23V27M3 9H19C20.1046 9 21 9.89543 21 11V21C21 22.1046 20.1046 23 19 23H3C1.89543 23 1 22.1046 1 21V11C1 9.89543 1.89543 9 3 9Z" stroke="#5D6AE8" stroke-width="2" stroke-linecap="round" stroke-linejoin="round"/>
<path d="M43 1H35C33.8954 1 33 1.89543 33 3V21C33 22.1046 33.8954 23 35 23H43C44.1046 23 45 22.1046 45 21V3C45 1.89543 44.1046 1 43 1Z" stroke="#5D6AE8" stroke-width="2" stroke-linecap="round" stroke-linejoin="round"/>
<path d="M38 4H40" stroke="#5D6AE8" stroke-width="2" stroke-linecap="round" stroke-linejoin="round"/>
<path d="M39.5 20C39.5 20.2761 39.2761 20.5 39 20.5C38.7239 20.5 38.5 20.2761 38.5 20C38.5 19.7239 38.7239 19.5 39 19.5C39.2761 19.5 39.5 19.7239 39.5 20Z" stroke="#5D6AE8"/>
<path d="M7 27H15" stroke="#5D6AE8" stroke-width="2" stroke-linecap="round" stroke-linejoin="round"/>
<path fill-rule="evenodd" clip-rule="evenodd" d="M74.9767 17.2887C75.1433 16.2041 74.3992 15.1897 73.3145 15.023C73.1802 15.0024 73.0441 14.9956 72.9083 15.0027L69.9829 15.1567C69.1411 15.201 68.4189 15.7716 68.1811 16.5803L67.42 19.1679C67.0619 20.3855 67.5142 21.6964 68.547 22.4341L69.2805 22.9581C68.578 24.1289 67.6414 25.2997 66.4705 26.4705L66.0803 26.8521C65.1696 27.7223 64.259 28.4508 63.3484 29.0377L62.9581 29.2805L62.4341 28.547C61.7352 27.5685 60.5219 27.1111 59.3608 27.3702L59.1679 27.42L56.5803 28.1811C55.8221 28.4041 55.2733 29.0527 55.1711 29.8265L55.1567 29.9829L55.0027 32.9083C54.9956 33.0441 55.0024 33.1802 55.023 33.3145C55.1897 34.3992 56.2041 35.1433 57.2887 34.9767C62.0768 34.2409 65.9683 32.4455 68.9631 29.5905L69.2805 29.2805C72.3159 26.2451 74.2147 22.2478 74.9767 17.2887Z" stroke="#5D6AE8" stroke-width="2" stroke-linejoin="round"/>
</svg>
