<svg width="68" height="38" viewBox="0 0 68 38" fill="none" xmlns="http://www.w3.org/2000/svg">
<path fill-rule="evenodd" clip-rule="evenodd" d="M1.02333 19.2887C0.85666 18.2041 1.60082 17.1897 2.68546 17.023C2.81981 17.0024 2.95592 16.9956 3.09166 17.0027L6.01714 17.1567C6.85889 17.201 7.58108 17.7716 7.81892 18.5803L8.57999 21.1679C8.93812 22.3855 8.48582 23.6964 7.45301 24.4341L6.71948 24.9581C7.42198 26.1289 8.35863 27.2997 9.52946 28.4705L9.91973 28.8521C10.8304 29.7223 11.741 30.4508 12.6516 31.0377L13.0419 31.2805L13.5659 30.547C14.2648 29.5685 15.4781 29.1111 16.6392 29.3702L16.8321 29.42L19.4197 30.1811C20.1778 30.4041 20.7267 31.0527 20.8289 31.8265L20.8433 31.9829L20.9973 34.9083C21.0044 35.0441 20.9976 35.1802 20.9769 35.3145C20.8103 36.3992 19.7959 37.1433 18.7113 36.9767C13.9232 36.2409 10.0317 34.4455 7.03692 31.5905L6.71948 31.2805C3.68405 28.2451 1.78534 24.2478 1.02333 19.2887Z" stroke="#5D6AE8" stroke-width="2" stroke-linejoin="round"/>
<circle cx="57" cy="19" r="10" stroke="#5D6AE8" stroke-width="2"/>
<path fill-rule="evenodd" clip-rule="evenodd" d="M30.5 1C35.1944 1 39 4.80558 39 9.5C39 14.1944 35.1944 18 30.5 18C29.1319 18 27.8394 17.6768 26.6945 17.1026L21 19L22.8979 13.3065C22.3234 12.1614 22 10.8685 22 9.5C22 4.80558 25.8056 1 30.5 1Z" stroke="#5D6AE8" stroke-width="2" stroke-linejoin="round"/>
<path d="M57 13V19L60 22" stroke="#5D6AE8" stroke-width="2" stroke-linecap="round" stroke-linejoin="round"/>
</svg>
