<svg width="74" height="38" viewBox="0 0 74 38" fill="none" xmlns="http://www.w3.org/2000/svg">
<path fill-rule="evenodd" clip-rule="evenodd" d="M1.02333 19.2887C0.85666 18.2041 1.60082 17.1897 2.68546 17.023C2.81981 17.0024 2.95592 16.9956 3.09166 17.0027L6.01714 17.1567C6.85889 17.201 7.58108 17.7716 7.81892 18.5803L8.57999 21.1679C8.93812 22.3855 8.48582 23.6964 7.45301 24.4341L6.71948 24.9581C7.42198 26.1289 8.35863 27.2997 9.52946 28.4705L9.91973 28.8521C10.8304 29.7223 11.741 30.4508 12.6516 31.0377L13.0419 31.2805L13.5659 30.547C14.2648 29.5685 15.4781 29.1111 16.6392 29.3702L16.8321 29.42L19.4197 30.1811C20.1778 30.4041 20.7267 31.0527 20.8289 31.8265L20.8433 31.9829L20.9973 34.9083C21.0044 35.0441 20.9976 35.1802 20.9769 35.3145C20.8103 36.3992 19.7959 37.1433 18.7113 36.9767C13.9232 36.2409 10.0317 34.4455 7.03692 31.5905L6.71948 31.2805C3.68405 28.2451 1.78534 24.2478 1.02333 19.2887Z" stroke="#5D6AE8" stroke-width="2" stroke-linejoin="round"/>
<path d="M73 22V19C73 14.0294 68.9706 10 64 10C59.0294 10 55 14.0294 55 19V22" stroke="#5D6AE8" stroke-width="2"/>
<path d="M59 23V21C59 19.8954 58.1046 19 57 19C55.8954 19 55 19.8954 55 21V23C55 24.1046 55.8954 25 57 25C58.1046 25 59 24.1046 59 23Z" stroke="#5D6AE8" stroke-width="2"/>
<path d="M73 23V21C73 19.8954 72.1046 19 71 19C69.8954 19 69 19.8954 69 21V23C69 24.1046 69.8954 25 71 25C72.1046 25 73 24.1046 73 23Z" stroke="#5D6AE8" stroke-width="2"/>
<path d="M65 28H68C69.6569 28 71 26.6569 71 25" stroke="#5D6AE8" stroke-width="2" stroke-linecap="round" stroke-linejoin="round"/>
<path d="M25.3861 7.69973L34 1L42.6139 7.69973C42.8575 7.88919 43 8.18049 43 8.48908V19C43 20.1046 42.1046 21 41 21H27C25.8954 21 25 20.1046 25 19V8.48908C25 8.18049 25.1425 7.88919 25.3861 7.69973Z" stroke="#5D6AE8" stroke-width="2" stroke-linejoin="round"/>
<path d="M31 11H37V21H31V11Z" stroke="#5D6AE8" stroke-width="2" stroke-linejoin="round"/>
</svg>
