<svg width="120" height="40" viewBox="0 0 120 40" fill="none" xmlns="http://www.w3.org/2000/svg">
<path fill-rule="evenodd" clip-rule="evenodd" d="M1.02333 20.2887C0.85666 19.2041 1.60082 18.1897 2.68546 18.023C2.81981 18.0024 2.95592 17.9956 3.09166 18.0027L6.01714 18.1567C6.85889 18.201 7.58108 18.7716 7.81892 19.5803L8.57999 22.1679C8.93812 23.3855 8.48582 24.6964 7.45301 25.4341L6.71948 25.9581C7.42198 27.1289 8.35863 28.2997 9.52946 29.4705L9.91973 29.8521C10.8304 30.7223 11.741 31.4508 12.6516 32.0377L13.0419 32.2805L13.5659 31.547C14.2648 30.5685 15.4781 30.1111 16.6392 30.3702L16.8321 30.42L19.4197 31.1811C20.1778 31.4041 20.7267 32.0527 20.8289 32.8265L20.8433 32.9829L20.9973 35.9083C21.0044 36.0441 20.9976 36.1802 20.9769 36.3145C20.8103 37.3992 19.7959 38.1433 18.7113 37.9767C13.9232 37.2409 10.0317 35.4455 7.03692 32.5905L6.71948 32.2805C3.68405 29.2451 1.78534 25.2478 1.02333 20.2887Z" stroke="#5D6AE8" stroke-width="2" stroke-linejoin="round"/>
<circle cx="57" cy="20" r="10" stroke="#5D6AE8" stroke-width="2"/>
<path fill-rule="evenodd" clip-rule="evenodd" d="M30.5 2C35.1944 2 39 5.80558 39 10.5C39 15.1944 35.1944 19 30.5 19C29.1319 19 27.8394 18.6768 26.6945 18.1026L21 20L22.8979 14.3065C22.3234 13.1614 22 11.8685 22 10.5C22 5.80558 25.8056 2 30.5 2Z" stroke="#5D6AE8" stroke-width="2" stroke-linejoin="round"/>
<path d="M57 14V20L60 23" stroke="#5D6AE8" stroke-width="2" stroke-linecap="round" stroke-linejoin="round"/>
</svg>
