<svg width="120" height="40" viewBox="0 0 120 40" fill="none" xmlns="http://www.w3.org/2000/svg">
<path d="M45.7924 12.1817C44.9691 8.63941 41.7928 6 38 6C33.5817 6 30 9.58172 30 14C30 18.4183 33.5817 22 38 22H47" stroke="#5D6AE8" stroke-width="2" stroke-linecap="round" stroke-linejoin="round"/>
<path d="M47 22C49.7614 22 52 19.7614 52 17C52 14.2386 49.7614 12 47 12C44.2386 12 42 14.2386 42 17" stroke="#5D6AE8" stroke-width="2" stroke-linecap="round" stroke-linejoin="round"/>
<path fill-rule="evenodd" clip-rule="evenodd" d="M79.9767 15.2887C80.1433 14.2041 79.3992 13.1897 78.3145 13.023C78.1802 13.0024 78.0441 12.9956 77.9083 13.0027L74.9829 13.1567C74.1411 13.201 73.4189 13.7716 73.1811 14.5803L72.42 17.1679C72.0619 18.3855 72.5142 19.6964 73.547 20.4341L74.2805 20.9581C73.578 22.1289 72.6414 23.2997 71.4705 24.4705L71.0803 24.8521C70.1696 25.7223 69.259 26.4508 68.3484 27.0377L67.9581 27.2805L67.4341 26.547C66.7352 25.5685 65.5219 25.1111 64.3608 25.3702L64.1679 25.42L61.5803 26.1811C60.8221 26.4041 60.2733 27.0527 60.1711 27.8265L60.1567 27.9829L60.0027 30.9083C59.9956 31.0441 60.0024 31.1802 60.023 31.3145C60.1897 32.3992 61.2041 33.1433 62.2887 32.9767C67.0768 32.2409 70.9683 30.4455 73.9631 27.5905L74.2805 27.2805C77.3159 24.2451 79.2147 20.2478 79.9767 15.2887Z" stroke="#5D6AE8" stroke-width="2" stroke-linejoin="round"/>
<path d="M9.00583 32.5814C8.39183 32.8506 7.71336 33 7 33C4.23858 33 2 30.7614 2 28C2 25.2386 4.23858 23 7 23C9.76142 23 12 25.2386 12 28C12 30.7614 14.2386 33 17 33C19.7614 33 22 30.7614 22 28C22 25.2386 19.7614 23 17 23C16.2928 23 15.6199 23.1468 15.0101 23.4117" stroke="#5D6AE8" stroke-width="2" stroke-linecap="round" stroke-linejoin="round"/>
</svg>
