<svg width="80" height="29" viewBox="0 0 80 29" fill="none" xmlns="http://www.w3.org/2000/svg">
<path d="M44.7924 7.18166C43.9691 3.63941 40.7928 1 37 1C32.5817 1 29 4.58172 29 9C29 13.4183 32.5817 17 37 17H46" stroke="#5D6AE8" stroke-width="2" stroke-linecap="round" stroke-linejoin="round"/>
<path d="M46 17C48.7614 17 51 14.7614 51 12C51 9.23858 48.7614 7 46 7C43.2386 7 41 9.23858 41 12" stroke="#5D6AE8" stroke-width="2" stroke-linecap="round" stroke-linejoin="round"/>
<path fill-rule="evenodd" clip-rule="evenodd" d="M78.9767 10.2887C79.1433 9.20409 78.3992 8.18971 77.3145 8.02305C77.1802 8.00241 77.0441 7.9956 76.9083 8.00275L73.9829 8.15672C73.1411 8.20102 72.4189 8.77161 72.1811 9.58027L71.42 12.1679C71.0619 13.3855 71.5142 14.6964 72.547 15.4341L73.2805 15.9581C72.578 17.1289 71.6414 18.2997 70.4705 19.4705L70.0803 19.8521C69.1696 20.7223 68.259 21.4508 67.3484 22.0377L66.9581 22.2805L66.4341 21.547C65.7352 20.5685 64.5219 20.1111 63.3608 20.3702L63.1679 20.42L60.5803 21.1811C59.8221 21.4041 59.2733 22.0527 59.1711 22.8265L59.1567 22.9829L59.0027 25.9083C58.9956 26.0441 59.0024 26.1802 59.023 26.3145C59.1897 27.3992 60.2041 28.1433 61.2887 27.9767C66.0768 27.2409 69.9683 25.4455 72.9631 22.5905L73.2805 22.2805C76.3159 19.2451 78.2147 15.2478 78.9767 10.2887Z" stroke="#5D6AE8" stroke-width="2" stroke-linejoin="round"/>
<path d="M8.00583 27.5814C7.39183 27.8506 6.71336 28 6 28C3.23858 28 1 25.7614 1 23C1 20.2386 3.23858 18 6 18C8.76142 18 11 20.2386 11 23C11 25.7614 13.2386 28 16 28C18.7614 28 21 25.7614 21 23C21 20.2386 18.7614 18 16 18C15.2928 18 14.6199 18.1468 14.0101 18.4117" stroke="#5D6AE8" stroke-width="2" stroke-linecap="round" stroke-linejoin="round"/>
</svg>
