<svg width="360" height="360" viewBox="0 0 360 360" fill="none" xmlns="http://www.w3.org/2000/svg">
<g clip-path="url(#clip0_2568_226539)">
<path d="M202.317 289.697C202.23 289.617 202.121 289.563 202.004 289.544C201.887 289.524 201.767 289.539 201.658 289.587C201.549 289.634 201.457 289.712 201.392 289.812C201.326 289.911 201.292 290.027 201.291 290.146L201.238 307.337C201.238 314.771 206.549 320.376 213.592 320.376H285.488C288.776 320.376 291.931 319.069 294.256 316.744C296.582 314.418 297.888 311.264 297.888 307.975V235.443C297.885 232.156 296.577 229.004 294.252 226.679C291.927 224.354 288.775 223.046 285.488 223.043H259.819C260.015 223.295 260.25 223.514 260.517 223.691C264.475 226.327 266.745 230.186 266.745 234.278C266.745 241.911 258.883 248.122 249.219 248.122C239.554 248.122 231.692 241.911 231.692 234.278C231.692 230.186 233.963 226.327 237.921 223.691C238.187 223.514 238.422 223.295 238.619 223.043H212.95C206.15 223.043 201.215 228.116 201.215 235.106L201.123 259.515C201.122 259.639 201.16 259.76 201.23 259.862C201.3 259.964 201.4 260.043 201.516 260.087C201.632 260.131 201.758 260.139 201.879 260.11C201.999 260.081 202.108 260.016 202.191 259.923C204.774 257.026 207.736 255.463 210.735 255.463C214.91 255.463 218.732 256.997 221.499 259.783C224.801 263.104 226.524 268.147 226.484 274.356C226.444 280.474 224.707 285.49 221.456 288.865C220.068 290.304 218.4 291.446 216.556 292.22C214.712 292.994 212.73 293.384 210.73 293.367C207.869 293.367 204.818 291.994 202.317 289.697Z" fill="#E5E5E5" stroke="black" stroke-width="0.5" stroke-miterlimit="10" stroke-linecap="round" stroke-linejoin="round"/>
<path d="M211.483 257.756C207.533 257.756 204.614 259.99 201.845 263.187C201.307 263.808 200.712 264.621 199.867 265.697C199.815 265.762 199.744 265.81 199.664 265.834C199.584 265.857 199.498 265.856 199.419 265.828C199.34 265.801 199.272 265.75 199.223 265.682C199.174 265.614 199.148 265.533 199.147 265.449V236.788C199.147 232.913 197.608 229.198 194.869 226.458C192.129 223.719 188.414 222.18 184.539 222.18H160.606C159.293 222.18 158.731 223.894 159.82 224.63L159.845 224.647C163.421 227.029 165.688 230.565 165.688 234.517C165.688 241.685 158.229 247.497 149.024 247.497C139.82 247.497 132.361 241.685 132.361 234.517C132.361 230.565 134.629 227.039 138.204 224.647L138.23 224.63C139.318 223.894 138.756 222.18 137.442 222.18H114.692C110.818 222.18 107.103 223.719 104.363 226.458C101.624 229.198 100.084 232.913 100.084 236.788V307.985C100.084 311.501 101.481 314.873 103.968 317.359C106.454 319.846 109.826 321.243 113.342 321.243H185.889C189.405 321.243 192.777 319.846 195.264 317.36C197.75 314.874 199.147 311.502 199.147 307.987V306.644V283.367C199.148 283.29 199.172 283.214 199.218 283.152C199.263 283.089 199.327 283.043 199.4 283.019C199.474 282.994 199.553 282.994 199.627 283.017C199.7 283.041 199.765 283.086 199.811 283.148C200.697 284.356 201.257 284.824 201.782 285.484C204.444 288.84 207.535 291.083 211.483 291.083C218.653 291.083 224.465 283.622 224.465 274.42C224.465 265.217 218.653 257.756 211.483 257.756Z" fill="#808080" stroke="black" stroke-width="0.5" stroke-linecap="round" stroke-linejoin="round"/>
<path d="M299.55 53.7391C299.616 49.7365 297.049 46.4483 293.817 46.3947C290.584 46.3411 287.909 49.5424 287.843 53.545C287.776 57.5476 290.343 60.8358 293.576 60.8894C296.809 60.943 299.483 57.7417 299.55 53.7391Z" fill="#1A1A1A" stroke="black" stroke-width="0.5" stroke-linecap="round" stroke-linejoin="round"/>
<path d="M298.449 72.2879L318.715 71.6187L319.484 82.2266L298.449 82.0099V72.2879Z" fill="#808080" stroke="black" stroke-width="0.5" stroke-linecap="round" stroke-linejoin="round"/>
<path d="M300.593 297.452H288.878V317.371H300.593V297.452Z" fill="#E5E5E5" stroke="black" stroke-width="0.5" stroke-miterlimit="10" stroke-linecap="round" stroke-linejoin="round"/>
<path d="M344.687 314.038L333.732 316.621L327.876 296.704H341.249L344.687 314.038Z" fill="#E5E5E5" stroke="black" stroke-width="0.5" stroke-miterlimit="10" stroke-linecap="round" stroke-linejoin="round"/>
<path d="M302.558 330.453L301.494 312.044L293.354 312.487L291.436 309.183C291.219 308.809 290.928 308.482 290.581 308.224C290.233 307.966 289.836 307.782 289.415 307.683C288.994 307.584 288.557 307.573 288.131 307.649C287.704 307.725 287.299 307.888 286.938 308.127L284.395 311.298C284.395 311.298 277.028 314.619 266.466 319.089C259.235 322.157 255.252 324.842 255.252 324.842L252.849 326.395C252.561 326.575 252.333 326.838 252.196 327.149C252.059 327.46 252.019 327.806 252.082 328.14C252.175 328.571 252.431 328.948 252.797 329.193C252.947 329.289 253.113 329.358 253.286 329.398C254.245 329.638 258.364 330.602 261.965 330.474C267.256 330.282 274.226 330.781 281.511 329.722C286.669 328.974 289.565 328.062 291.277 327.732L291.609 330.482L302.558 330.453Z" fill="black" stroke="black" stroke-width="0.5" stroke-linecap="round" stroke-linejoin="round"/>
<path d="M266.495 330.552C266.495 330.552 265.937 326.846 264.453 324.284C262.968 321.722 261.709 321.231 261.709 321.231C261.709 321.231 251.611 325.63 252.031 327.943C252.508 330.562 258.809 330.37 261.427 330.447C264.044 330.524 266.495 330.552 266.495 330.552Z" fill="white" stroke="black" stroke-width="0.5" stroke-linecap="round" stroke-linejoin="round"/>
<path d="M285.778 315.271C285.778 315.271 284.679 313.586 283.388 312.623C282.098 311.661 279.921 311.699 279.921 311.699" stroke="white" stroke-width="0.5" stroke-linecap="round" stroke-linejoin="round"/>
<path d="M281.728 317.693C281.728 317.693 280.629 316.008 279.339 315.045C278.048 314.083 275.872 314.121 275.872 314.121" stroke="white" stroke-width="0.5" stroke-linecap="round" stroke-linejoin="round"/>
<path d="M277.707 320.004C277.707 320.004 276.608 318.318 275.319 317.356C274.031 316.393 271.852 316.432 271.852 316.432" stroke="white" stroke-width="0.5" stroke-linecap="round" stroke-linejoin="round"/>
<path d="M346.298 331.475L345.235 313.066L335.546 313.327L333.628 310.023C333.412 309.648 333.121 309.322 332.773 309.064C332.426 308.806 332.03 308.622 331.608 308.523C331.187 308.424 330.75 308.413 330.324 308.489C329.898 308.565 329.492 308.728 329.132 308.966L326.587 312.138C326.587 312.138 320.771 315.64 310.209 320.109C302.976 323.177 298.995 325.862 298.995 325.862L296.593 327.415C296.304 327.595 296.077 327.857 295.94 328.168C295.803 328.479 295.763 328.824 295.826 329.158C295.917 329.589 296.173 329.967 296.539 330.211C296.689 330.308 296.855 330.377 297.03 330.416C297.989 330.656 302.108 331.62 305.709 331.492C310.999 331.3 317.97 331.799 325.254 330.742C330.413 329.992 333.308 329.082 335.021 328.75L335.35 331.5L346.298 331.475Z" fill="black" stroke="black" stroke-width="0.5" stroke-linecap="round" stroke-linejoin="round"/>
<path d="M310.248 331.576C310.248 331.576 309.688 327.868 308.205 325.306C306.723 322.744 305.461 322.253 305.461 322.253C305.461 322.253 295.362 326.664 295.782 328.965C296.259 331.584 302.562 331.392 305.178 331.469C307.793 331.546 310.248 331.576 310.248 331.576Z" fill="white" stroke="black" stroke-width="0.5" stroke-linecap="round" stroke-linejoin="round"/>
<path d="M329.525 316.295C329.525 316.295 328.428 314.61 327.137 313.645C325.847 312.681 323.67 312.721 323.67 312.721" stroke="white" stroke-width="0.5" stroke-linecap="round" stroke-linejoin="round"/>
<path d="M325.475 318.717C325.475 318.717 324.378 317.032 323.088 316.067C321.797 315.103 319.621 315.143 319.621 315.143" stroke="white" stroke-width="0.5" stroke-linecap="round" stroke-linejoin="round"/>
<path d="M321.456 321.028C321.456 321.028 320.357 319.342 319.066 318.378C317.776 317.413 315.599 317.453 315.599 317.453" stroke="white" stroke-width="0.5" stroke-linecap="round" stroke-linejoin="round"/>
<path d="M285.777 162.333L277.265 231.104C276.771 237.004 276.707 242.932 277.074 248.841L282.846 305.641H304.159L300.405 246.772L320.196 143.702L285.777 142.482V162.333Z" fill="#333333" stroke="black" stroke-width="0.5" stroke-linecap="round" stroke-linejoin="round"/>
<path d="M325.396 144.325L330.725 167.215C332.278 173.886 332.963 180.73 332.765 187.577L331.283 238.83L347.786 306.662L325.045 307.592L308.575 248.458C307.399 244.597 306.632 240.623 306.288 236.602L301.548 181.094" fill="#333333"/>
<path d="M325.396 144.325L330.725 167.215C332.278 173.886 332.963 180.73 332.765 187.577L331.283 238.83L347.786 306.662L325.045 307.592L308.575 248.458C307.399 244.597 306.632 240.623 306.288 236.602L301.548 181.094" stroke="black" stroke-width="0.5" stroke-linecap="round" stroke-linejoin="round"/>
<path d="M309.563 74.9802C299.419 74.9802 286.19 81.3886 281.154 85.1777C278.727 87.0052 281.154 127.036 281.154 127.036V154.741C281.154 155.391 281.36 156.024 281.741 156.55C282.122 157.076 282.66 157.469 283.277 157.671C286.345 158.68 292.928 160.377 304.017 161.138C316.612 162.003 327.066 158.386 331.185 156.687C331.76 156.45 332.266 156.072 332.656 155.588C333.046 155.104 333.309 154.53 333.419 153.918L344.687 91.5843C344.687 91.5843 325.573 74.9802 309.563 74.9802Z" fill="#999999" stroke="black" stroke-width="0.5" stroke-miterlimit="10" stroke-linecap="round" stroke-linejoin="round"/>
<path d="M314.284 56.8706C314.284 56.8706 316.062 54.3778 315.553 52.3414C315.045 50.3049 312.76 49.5475 311.743 52.0883C310.627 54.9062 309.653 57.7786 308.825 60.6943C308.058 63.4326 305.208 66.468 300.388 66.8995C299.812 66.9532 299.734 71.4115 299.734 71.4115L300.399 79.1815C300.399 79.1815 299.764 81.4825 307.893 81.4825C316.021 81.4825 317.582 76.7174 317.582 76.7174L314.284 56.8706Z" fill="#E5E5E5" stroke="black" stroke-width="0.5" stroke-miterlimit="10" stroke-linecap="round" stroke-linejoin="round"/>
<path d="M287.872 42.9454L291.935 65.8027C291.935 65.8027 292.949 70.3741 300.061 68.3415C307.174 66.3089 310.729 49.5495 310.729 49.5495L310.221 38.884L287.872 42.9454Z" fill="#E5E5E5" stroke="black" stroke-width="0.5" stroke-miterlimit="10" stroke-linecap="round" stroke-linejoin="round"/>
<path d="M292.778 44.4125C301.923 45.5093 306.791 40.6541 306.791 40.6541C306.791 40.6541 308.017 46.8708 307.508 50.9341C307.428 51.5738 307.361 52.1758 307.298 52.736C306.963 55.7344 306.761 57.5382 305.478 57.5382H301.807C300.634 57.5351 299.475 57.7973 298.417 58.3052C298.211 58.4045 297.984 58.5223 297.74 58.6493C296.569 59.2579 294.993 60.077 293.286 60.077C292.392 60.0829 291.506 59.9101 290.68 59.5689C290.68 59.5689 287.7 69.7319 294.302 71.2525C300.904 72.7732 306.766 69.822 309.033 66.1729C310.567 63.7127 311.117 57.1335 311.106 53.6072C311.103 52.9408 311.273 52.2851 311.601 51.7047C311.928 51.1243 312.401 50.6394 312.973 50.2975L314.111 44.337L314.112 44.3377C314.112 44.3377 316.145 34.1804 310.049 31.1315C305.763 28.9819 299.257 30.1727 299.257 30.1727C299.257 30.1727 297.422 27.9464 291.094 28.3299C285.85 28.6578 287.192 33.6646 287.192 33.6646C287.192 33.6646 284.143 34.6809 283.635 37.2197C283.127 39.7586 283.633 43.3156 292.778 44.4125Z" fill="#666666" stroke="black" stroke-width="0.5" stroke-miterlimit="10" stroke-linecap="round" stroke-linejoin="round"/>
<path d="M296.455 61.1525L301.026 59.1199C301.026 59.1199 301.697 61.3615 300.259 62.1515C297.471 63.6913 296.455 61.1525 296.455 61.1525Z" fill="white" stroke="black" stroke-width="0.5" stroke-linecap="round" stroke-linejoin="round"/>
<path d="M290.18 52.073L292.351 50.3281" stroke="black" stroke-width="0.5" stroke-linecap="round" stroke-linejoin="round"/>
<path d="M298.539 49.5496L302.232 49.8679" stroke="black" stroke-width="0.5" stroke-linecap="round" stroke-linejoin="round"/>
<path d="M295.482 50.8399C295.482 50.8399 294.974 55.3788 295.482 56.2724C295.991 57.1659 298.042 56.5466 298.042 56.5466" fill="#E5E5E5"/>
<path d="M295.482 50.8399C295.482 50.8399 294.974 55.3788 295.482 56.2724C295.991 57.1659 298.042 56.5466 298.042 56.5466" stroke="black" stroke-width="0.5" stroke-linecap="round" stroke-linejoin="round"/>
<path d="M291.935 54.6291C292.496 54.6291 292.951 54.1741 292.951 53.6128C292.951 53.0515 292.496 52.5965 291.935 52.5965C291.374 52.5965 290.919 53.0515 290.919 53.6128C290.919 54.1741 291.374 54.6291 291.935 54.6291Z" fill="black"/>
<path d="M300.317 53.3597C300.878 53.3597 301.333 52.9047 301.333 52.3434C301.333 51.7821 300.878 51.3271 300.317 51.3271C299.755 51.3271 299.3 51.7821 299.3 52.3434C299.3 52.9047 299.755 53.3597 300.317 53.3597Z" fill="black"/>
<path d="M304.57 136.166L301.916 137.937L299.429 135.939L302.102 83.9333L306.088 84.1097L304.57 136.166Z" fill="#4C4C4C" stroke="black" stroke-width="0.5" stroke-linecap="round" stroke-linejoin="round"/>
<path d="M281.156 127.036V101.91" stroke="black" stroke-width="0.5" stroke-miterlimit="10" stroke-linecap="round" stroke-linejoin="round"/>
<path d="M298.819 81.4883L302.2 76.9341L304.299 81.2908L306.932 77.4096L309.979 78.6695V83.0511" fill="#808080"/>
<path d="M298.819 81.4883L302.2 76.9341L304.299 81.2908L306.932 77.4096L309.979 78.6695V83.0511" stroke="black" stroke-width="0.5" stroke-linecap="round" stroke-linejoin="round"/>
<path d="M301.584 78.0117L306.111 78.0482C306.431 78.0506 306.746 78.1299 307.029 78.2796C307.312 78.4293 307.555 78.6449 307.737 78.9082C307.919 79.1715 308.035 79.4748 308.075 79.7923C308.115 80.1099 308.078 80.4325 307.968 80.7328L306.8 83.9025C306.684 84.1898 306.477 84.4314 306.212 84.5903C305.946 84.7493 305.635 84.8168 305.327 84.7827L302.527 84.5276C302.234 84.5085 301.954 84.3944 301.731 84.2024C301.508 84.0104 301.353 83.751 301.291 83.4634L300.501 79.3119C300.47 79.1529 300.476 78.9892 300.516 78.8325C300.557 78.6758 300.631 78.53 300.735 78.4057C300.839 78.2814 300.968 78.1815 301.115 78.1134C301.262 78.0453 301.422 78.0106 301.584 78.0117V78.0117Z" fill="#4C4C4C" stroke="black" stroke-width="0.5" stroke-linecap="round" stroke-linejoin="round"/>
<path d="M318.716 71.6187L320.411 77.0626L310.729 85.9217L306.932 77.4097L318.716 71.6187Z" fill="#999999" stroke="black" stroke-width="0.5" stroke-linecap="round" stroke-linejoin="round"/>
<path d="M298.449 72.2879L302.199 76.9341L298.489 84.8345L296.658 77.7606L298.449 72.2879Z" fill="#999999" stroke="black" stroke-width="0.5" stroke-linecap="round" stroke-linejoin="round"/>
<path d="M276.755 68.7844L205.15 80.4358C203.431 80.7151 201.785 81.3303 200.304 82.246C198.823 83.1618 197.538 84.3602 196.52 85.7729C195.503 87.1856 194.773 88.785 194.374 90.4795C193.975 92.1741 193.913 93.9307 194.193 95.649L198.39 121.442L197.595 121.572C196.981 121.67 196.353 121.615 195.765 121.411C195.178 121.208 194.65 120.863 194.229 120.406C191.304 117.259 187.45 115.589 183.549 116.224C176.474 117.375 171.935 125.671 173.414 134.756C174.892 143.841 181.826 150.27 188.901 149.119C192.802 148.484 195.928 145.677 197.704 141.767C197.959 141.2 198.35 140.704 198.843 140.325C199.335 139.946 199.914 139.695 200.527 139.594L201.322 139.464L205.844 167.256C206.124 168.975 206.739 170.621 207.655 172.102C208.571 173.582 209.77 174.868 211.183 175.885C212.596 176.902 214.195 177.631 215.89 178.03C217.584 178.429 219.341 178.491 221.059 178.211L247.85 173.852L247.905 174.192C248.004 174.806 247.949 175.435 247.746 176.022C247.542 176.609 247.197 177.137 246.74 177.559C243.594 180.483 241.923 184.338 242.558 188.238C243.709 195.315 252.007 199.852 261.09 198.374C270.173 196.896 276.606 189.962 275.454 182.886C274.819 178.985 272.014 175.869 268.1 174.083C267.534 173.828 267.039 173.436 266.66 172.944C266.281 172.451 266.03 171.873 265.929 171.26L265.874 170.919L292.665 166.56C296.135 165.995 299.239 164.075 301.293 161.222C303.348 158.369 304.186 154.817 303.621 151.346L291.969 79.7354C291.403 76.266 289.482 73.1635 286.629 71.1099C283.776 69.0563 280.225 68.2199 276.755 68.7844V68.7844Z" fill="#CCCCCC" stroke="black" stroke-width="0.5" stroke-miterlimit="10" stroke-linecap="round" stroke-linejoin="round"/>
<path d="M268.433 148.007C268.433 148.007 263.91 146.223 257.62 147.084C251.331 147.945 250.42 148.689 250.548 149.385C250.677 150.081 258.219 151.08 258.219 151.08C258.219 151.08 255.15 153.257 252.978 154.361C250.805 155.466 244.577 158.611 244.909 159.573C245.196 160.404 247.484 159.512 250.698 158.521C252.694 157.905 254.38 157.255 254.38 157.255C254.38 157.255 246.013 162.877 245.542 163.966C245.07 165.056 246.424 165.468 246.424 165.468C246.424 165.468 246.529 166.946 247.894 166.96C249.26 166.973 258.057 162.166 258.057 162.166C258.057 162.166 251.482 168.009 252.387 168.948C253.292 169.888 270.579 156.691 270.579 156.691L289.064 147.134C294.673 145.663 303.385 126.666 268.435 148.012" fill="#E5E5E5"/>
<path d="M268.433 148.007C268.433 148.007 263.91 146.223 257.62 147.084C251.331 147.945 250.42 148.689 250.548 149.385C250.677 150.081 258.219 151.08 258.219 151.08C258.219 151.08 255.15 153.257 252.978 154.361C250.805 155.466 244.577 158.611 244.909 159.573C245.196 160.404 247.484 159.512 250.698 158.521C252.694 157.905 254.38 157.255 254.38 157.255C254.38 157.255 246.013 162.877 245.542 163.966C245.07 165.056 246.424 165.468 246.424 165.468C246.424 165.468 246.529 166.946 247.894 166.96C249.26 166.973 258.057 162.166 258.057 162.166C258.057 162.166 251.482 168.009 252.387 168.948C253.292 169.888 270.579 156.691 270.579 156.691L289.064 147.134C294.673 145.663 303.385 126.666 268.435 148.012" stroke="black" stroke-width="0.5" stroke-linecap="round" stroke-linejoin="round"/>
<path d="M246.418 165.464L256.445 159.381" stroke="black" stroke-width="0.5" stroke-linecap="round" stroke-linejoin="round"/>
<path d="M347.051 96.5872C347.546 98.6313 342.95 107.605 341.657 109.262L321.381 133.73C320.278 135.317 318.792 136.598 317.061 137.456L277.175 157.197L270.888 143.293L304.15 123.222L324.476 94.0599C326.707 90.8137 330.095 88.5447 333.947 87.7185C336.591 87.172 339.557 87.3024 342.137 89.2353C344.593 91.0271 346.335 93.6322 347.051 96.5872Z" fill="#999999" stroke="black" stroke-width="0.5" stroke-miterlimit="10" stroke-linecap="round" stroke-linejoin="round"/>
<path d="M194.108 104.72C192.548 104.172 191.641 100.624 191.631 97.9113C191.621 95.199 192.263 93.5091 193.012 92.4447C194.249 90.6867 199.182 86.3615 200.421 87.873C201.504 89.1832 199.861 90.4662 199.861 90.4662C199.861 90.4662 200.72 90.2352 201.093 91.0251C201.587 92.0658 200.22 93.7261 200.22 93.7261C200.22 93.7261 201.319 93.7638 201.557 94.7413C201.901 96.1598 199.864 97.6311 199.864 97.6311C199.864 97.6311 200.562 97.9927 200.527 98.7257C200.438 100.652 196.005 105.387 194.108 104.72Z" fill="#E5E5E5" stroke="black" stroke-width="0.5" stroke-linecap="round" stroke-linejoin="round"/>
<path d="M193.506 95.7461C193.506 95.7461 195.24 93.6613 196.793 92.4962C197.818 91.7342 198.887 91.0348 199.996 90.4018" fill="#E5E5E5"/>
<path d="M193.506 95.7461C193.506 95.7461 195.24 93.6613 196.793 92.4962C197.818 91.7342 198.887 91.0348 199.996 90.4018" stroke="black" stroke-width="0.5" stroke-linecap="round" stroke-linejoin="round"/>
<path d="M194.037 98.892C195.045 97.7807 196.124 96.7367 197.269 95.7667C198.211 95.0279 199.196 94.3465 200.22 93.7261" fill="#E5E5E5"/>
<path d="M194.037 98.892C195.045 97.7807 196.124 96.7367 197.269 95.7667C198.211 95.0279 199.196 94.3465 200.22 93.7261" stroke="black" stroke-width="0.5" stroke-linecap="round" stroke-linejoin="round"/>
<path d="M194.165 102.46C194.165 102.46 195.909 100.825 197.031 99.8745C198.348 98.7581 199.865 97.6387 199.865 97.6387" fill="#E5E5E5"/>
<path d="M194.165 102.46C194.165 102.46 195.909 100.825 197.031 99.8745C198.348 98.7581 199.865 97.6387 199.865 97.6387" stroke="black" stroke-width="0.5" stroke-linecap="round" stroke-linejoin="round"/>
<path d="M317.977 52.5016C318.043 48.4989 315.476 45.2107 312.243 45.1571C309.01 45.1035 306.336 48.3048 306.27 52.3074C306.203 56.31 308.77 59.5983 312.003 59.6519C315.236 59.7055 317.91 56.5042 317.977 52.5016Z" fill="#1A1A1A" stroke="black" stroke-width="0.5" stroke-linecap="round" stroke-linejoin="round"/>
<path d="M317.117 52.3227C317.175 49.4368 315.332 47.0595 313.001 47.0129C310.67 46.9663 308.734 49.268 308.676 52.1539C308.618 55.0397 310.461 57.417 312.792 57.4636C315.123 57.5102 317.059 55.2086 317.117 52.3227Z" fill="#333333" stroke="black" stroke-width="0.5" stroke-linecap="round" stroke-linejoin="round"/>
<path d="M308.056 66.1439C307.278 66.5536 306.434 66.8218 305.563 66.9359L305.509 66.5275C308.263 66.1612 310.556 64.2015 311.801 61.1583C313.35 57.3634 314.38 51.3691 314.389 51.3097L314.798 51.3787C314.786 51.4401 313.751 57.4785 312.184 61.3136C311.285 63.5342 309.835 65.2063 308.056 66.1439Z" fill="black"/>
<path d="M304.641 65.5888L302.414 65.8552C301.784 65.9306 301.334 66.5023 301.41 67.1321L301.421 67.2235C301.496 67.8534 302.068 68.3029 302.697 68.2276L304.925 67.9612C305.555 67.8859 306.004 67.3142 305.929 66.6843L305.918 66.5929C305.843 65.963 305.271 65.5135 304.641 65.5888Z" fill="#1A1A1A" stroke="black" stroke-width="0.5" stroke-linecap="round" stroke-linejoin="round"/>
<path d="M312.831 50.7958C313.109 47.7277 313.546 44.441 311.07 38.5944C308.104 31.5895 299.994 30.1206 299.994 30.1206L302.94 29.9883C302.94 29.9883 310.303 31.8119 313.527 38.276C315.793 42.8226 316.338 48.3394 315.954 51.7373C315.864 52.5254 315.264 54.5177 313.941 54.1918C312.618 53.8658 312.75 51.6855 312.831 50.7958Z" fill="#4C4C4C" stroke="black" stroke-width="0.5" stroke-miterlimit="10" stroke-linecap="round" stroke-linejoin="round"/>
<path d="M79.4678 299.732H90.7661L98.9118 229.8L79.3374 229.449L79.4678 299.732Z" fill="#E5E5E5" stroke="black" stroke-width="0.5" stroke-linecap="round" stroke-linejoin="round"/>
<path d="M103.322 314.886L111.729 318.815C112.596 319.222 113.125 321.089 113.071 322.044L111.453 324.558L100.778 323.92L78.2789 314.332L73.6768 309.958C73.677 308.745 73.9725 307.549 74.5377 306.476L78.5339 298.905L78.7948 288.19H93.3509L91.2915 299.289L103.322 314.886Z" fill="black" stroke="black" stroke-width="0.5" stroke-miterlimit="10" stroke-linecap="round" stroke-linejoin="round"/>
<path d="M113.058 322.347L112.394 328.737C112.394 328.737 109.71 329.887 103.318 329.887C96.9273 329.887 94.7528 328.992 94.7528 328.992V323.323L86.0605 319.105V328.714C86.0605 328.714 79.9243 328.714 76.8562 328.202C73.7881 327.69 73.6596 325.774 73.6596 325.774L73.3394 311.519C73.3394 310.307 73.4218 308.834 73.9875 307.755C73.9837 307.755 94.118 322.641 113.058 322.347Z" fill="white" stroke="black" stroke-width="0.5" stroke-miterlimit="10" stroke-linecap="round" stroke-linejoin="round"/>
<path d="M75.9204 159.316L76.6874 258.775C76.6901 259.147 76.8341 259.505 77.0904 259.775C77.3467 260.046 77.6961 260.209 78.0681 260.232L96.4421 261.363C96.8276 261.387 97.2067 261.257 97.498 261.004C97.7892 260.75 97.9692 260.392 97.9992 260.007L100.057 233.162C100.386 229.444 100.423 225.707 100.166 221.984L98.1008 158.76L75.9204 159.316Z" fill="#1A1A1A" stroke="black" stroke-width="0.5" stroke-miterlimit="10" stroke-linecap="round" stroke-linejoin="round"/>
<path d="M24.2134 288.052L34.5126 292.696L70.3019 231.53L52.8464 222.824L24.2134 288.052Z" fill="#E5E5E5" stroke="black" stroke-width="0.5" stroke-linecap="round" stroke-linejoin="round"/>
<path d="M43.8146 304.807L49.924 311.793C50.5549 312.512 50.2864 314.435 49.8435 315.285L47.3506 316.934L37.8376 312.048L21.1108 294.205L18.6582 288.345C19.1469 287.235 19.8993 286.261 20.85 285.507L27.5615 280.188L32.1175 270.485L45.646 276.443L39.1071 285.691L43.8146 304.807Z" fill="black" stroke="black" stroke-width="0.5" stroke-miterlimit="10" stroke-linecap="round" stroke-linejoin="round"/>
<path d="M49.7265 315.565L46.5433 321.143C46.5433 321.143 43.6228 321.114 37.7743 318.539C31.9257 315.964 30.2958 314.268 30.2958 314.268L32.5797 309.08L26.3246 301.714L22.4511 310.51C22.4511 310.51 16.8365 308.036 14.2344 306.334C11.6323 304.631 12.288 302.823 12.288 302.823L17.7396 289.649C18.2286 288.537 18.8998 287.217 19.849 286.464C19.849 286.464 32.2747 308.201 49.7265 315.565Z" fill="white" stroke="black" stroke-width="0.5" stroke-miterlimit="10" stroke-linecap="round" stroke-linejoin="round"/>
<path d="M56.4054 140.977C56.4054 140.977 48.5895 155.974 47.2568 168.246C45.9241 180.519 51.832 218.87 51.832 218.87L41.0937 242.648C40.8573 243.171 40.8263 243.764 41.0072 244.308C41.1881 244.853 41.5674 245.31 42.0697 245.587L57.8244 254.314C58.3468 254.603 58.9614 254.676 59.5368 254.518C60.1123 254.359 60.603 253.982 60.904 253.467L74.7565 229.773C77.7486 224.754 79.3282 219.02 79.328 213.177V138.643L56.4054 140.977Z" fill="#1A1A1A" stroke="black" stroke-width="0.5" stroke-miterlimit="10" stroke-linecap="round" stroke-linejoin="round"/>
<path d="M101.244 70.0349C100.915 70.8518 100.62 71.6827 100.36 72.5277C98.9004 77.2085 98.1928 82.6812 94.2387 85.5805C91.0652 87.9084 86.7603 87.7877 82.8561 87.2488C80.1716 86.8787 77.4448 86.338 75.0708 85.0206C72.6969 83.7032 71.9011 81.8413 70.3115 79.8432C68.9692 78.1462 67.3335 76.9668 66.3287 74.9381C64.2808 70.8115 64.9059 65.6744 67.276 61.7261C68.7774 59.2333 70.9193 57.1681 73.3201 55.5477C75.6979 53.9504 77.9587 53.519 79.2856 50.8152C80.4362 48.4643 80.7698 45.7873 81.8417 43.3981C84.8197 36.7633 93.6501 33.8314 100.02 37.3424C100.959 37.8711 101.777 38.5895 102.423 39.4518C103.148 40.3779 103.832 40.5141 104.851 41.143C108.642 43.4805 111.056 47.9887 110.722 52.4566C110.421 56.4701 108.551 58.7213 106.181 61.6321C104.123 64.1696 102.459 67.0022 101.244 70.0349V70.0349Z" fill="#1A1A1A" stroke="black" stroke-width="0.5" stroke-linecap="round" stroke-linejoin="round"/>
<path d="M62.2137 78.4165C64.9328 76.2382 73.1246 77.0225 76.4381 77.1088C77.1227 77.126 77.8072 77.1548 78.4899 77.1912C78.5206 77.0129 78.5532 76.8346 78.5858 76.6582C79.3528 72.7042 82.7641 60.9744 83.5369 57.0089C83.9204 55.0242 96.1621 63.9409 95.9742 64.8479C95.1957 68.6236 94.7278 72.4644 94.3078 76.3111C94.2024 77.2814 94.1832 78.3839 94.0452 79.4578C97.7863 80.3034 101.487 81.3236 105.142 82.4396C106.657 82.9017 108.271 83.454 109.198 84.7407C110.047 85.918 110.137 87.5019 109.829 88.9209C109.123 92.1808 106.62 94.7273 104.076 96.896C100.183 100.221 95.8726 103.157 91.0365 104.858C86.2004 106.559 80.8063 106.956 75.9722 105.268C72.302 103.985 69.1284 101.584 66.2482 98.9747C63.7554 96.7196 61.3642 94.1558 60.3632 90.9516C59.4581 88.0062 59.4965 80.593 62.2137 78.4165Z" fill="#E5E5E5" stroke="black" stroke-width="0.5" stroke-linecap="round" stroke-linejoin="round"/>
<path d="M54.5183 142.302C54.5567 141.468 57.0322 110.747 56.7599 109.957C56.4991 109.207 60.3458 107.4 59.8376 106.791L42.5374 99.759C44.6102 94.7733 50.4339 85.872 54.3438 82.825C57.9546 80.0081 61.5251 77.9391 65.6133 75.8719C70.3689 83.8509 78.0774 91.8855 87.8742 92.8385C96.3537 93.6611 102.724 88.3341 108.392 82.7579C108.666 82.4875 127.629 100.139 127.629 100.139L111.41 114.004L104.632 108.674L101.815 146.179C62.5088 147.096 54.5183 142.302 54.5183 142.302Z" fill="#666666" stroke="black" stroke-width="0.5" stroke-linecap="round" stroke-linejoin="round"/>
<path d="M106.066 65.2679C107.588 61.8675 106.529 58.084 103.7 56.8173C100.87 55.5506 97.3427 57.2803 95.8202 60.6807C94.2977 64.0811 95.357 67.8645 98.1861 69.1313C101.015 70.398 104.543 68.6683 106.066 65.2679Z" fill="#808080" stroke="black" stroke-width="0.5" stroke-linecap="round" stroke-linejoin="round"/>
<path d="M105.002 61.3386C103.631 65.3406 101.658 69.1872 98.7584 72.3013C95.8591 75.4154 92.6223 75.5727 89.1074 73.2371C86.5858 71.5592 85.0939 68.7615 84.0431 65.9695C83.0358 63.3697 82.3994 60.6412 82.1524 57.8641C82.0321 56.4683 82.0694 55.0635 82.2636 53.6761C82.4803 52.1976 82.4861 52.142 82.6299 52.1689C96.1295 53.8659 100.739 46.7805 101.359 45.91C103.499 48.6041 105.347 51.7873 106.047 55.2082C106.465 57.2523 105.654 59.4383 105.002 61.3386Z" fill="#E5E5E5" stroke="black" stroke-width="0.5" stroke-linecap="round" stroke-linejoin="round"/>
<path d="M94.3269 68.5334C93.8197 68.4908 93.3331 68.3134 92.9175 68.0195C92.0661 67.4232 91.7669 66.3685 91.5349 65.4289C93.2982 66.0801 95.0988 66.6257 96.9271 67.0627C96.3307 68.0003 95.5158 68.6178 94.3269 68.5334Z" fill="white" stroke="black" stroke-width="0.5" stroke-linecap="round" stroke-linejoin="round"/>
<path d="M97.7728 58.2034C97.8687 59.1354 97.8514 60.0424 97.8859 60.9724C97.9122 61.2933 97.8915 61.6163 97.8246 61.9312C97.7538 62.2513 97.5594 62.5304 97.2838 62.7078C96.7987 62.9897 96.1889 62.7845 95.6692 62.5755C95.5768 62.552 95.497 62.4936 95.4468 62.4125" stroke="black" stroke-width="0.5" stroke-linecap="round" stroke-linejoin="round"/>
<path d="M91.5005 54.9897C92.5041 54.9149 93.5111 54.8957 94.5168 54.9321" stroke="black" stroke-width="0.5" stroke-linecap="round" stroke-linejoin="round"/>
<path d="M100.567 56.3837L103.322 57.795" stroke="black" stroke-width="0.5" stroke-linecap="round" stroke-linejoin="round"/>
<path d="M93.7598 58.171C93.9516 57.4144 93.7907 56.721 93.4006 56.6221C93.0105 56.5232 92.5389 57.0564 92.3472 57.813C92.1554 58.5696 92.3162 59.2631 92.7063 59.362C93.0964 59.4608 93.5681 58.9276 93.7598 58.171Z" fill="black"/>
<path d="M101.344 60.0916C101.536 59.335 101.375 58.6415 100.985 58.5427C100.595 58.4438 100.123 58.9771 99.9311 59.7337C99.7394 60.4903 99.9002 61.1837 100.29 61.2826C100.68 61.3814 101.152 60.8482 101.344 60.0916Z" fill="black"/>
<path d="M102.858 42.4202C101.456 50.1748 89.7477 54.2496 83.7285 51.4806" stroke="black" stroke-width="0.5" stroke-linecap="round" stroke-linejoin="round"/>
<path d="M91.2588 46.746C92.9025 46.9459 94.5701 46.7446 96.119 46.1592C97.6679 45.5738 99.0519 44.6217 100.152 43.3846" stroke="black" stroke-width="0.5" stroke-linecap="round" stroke-linejoin="round"/>
<path d="M59.8376 106.791L62.5088 96.1425" stroke="black" stroke-width="0.5" stroke-linecap="round" stroke-linejoin="round"/>
<path d="M104.641 108.676L104.939 103.241" stroke="black" stroke-width="0.5" stroke-linecap="round" stroke-linejoin="round"/>
<path d="M90.4252 57.6546C91.152 53.718 89.1636 50.0508 85.9841 49.4639C82.8046 48.8769 79.6379 51.5923 78.9112 55.5289C78.1844 59.4656 80.1727 63.1327 83.3522 63.7197C86.5318 64.3067 89.6984 61.5913 90.4252 57.6546Z" fill="#808080" stroke="black" stroke-width="0.5" stroke-linecap="round" stroke-linejoin="round"/>
<path d="M87.6655 57.2364C88.1894 54.3985 86.7559 51.7549 84.4637 51.3317C82.1715 50.9085 79.8886 52.866 79.3647 55.704C78.8407 58.5419 80.2742 61.1855 82.5664 61.6087C84.8586 62.0319 87.1416 60.0744 87.6655 57.2364Z" fill="#666666" stroke="black" stroke-width="0.5" stroke-linecap="round" stroke-linejoin="round"/>
<path d="M83.8359 73.1605C84.436 73.7978 85.1443 74.3237 85.9279 74.7137L86.1197 74.3437C83.6269 73.1068 82.0928 70.5085 81.9011 67.2199C81.6633 63.1297 82.6316 57.1259 82.6412 57.0568L82.2328 56.9897C82.2232 57.0511 81.2472 63.0991 81.4868 67.2353C81.6268 69.6456 82.4571 71.6974 83.8359 73.1605Z" fill="black"/>
<path d="M86.2474 75.9345L88.2687 76.9081C88.8402 77.1834 89.5266 76.9433 89.8019 76.3717L89.8419 76.2888C90.1172 75.7173 89.877 75.0308 89.3055 74.7555L87.2843 73.7819C86.7128 73.5066 86.0263 73.7467 85.751 74.3182L85.711 74.4012C85.4357 74.9727 85.6759 75.6592 86.2474 75.9345Z" fill="#1A1A1A" stroke="black" stroke-width="0.5" stroke-linecap="round" stroke-linejoin="round"/>
<path d="M84.3384 54.8996C84.6721 51.8315 84.2425 48.0175 88.4765 43.2869C93.5772 37.5879 102.858 39.9177 102.858 39.9177L101.545 38.5236C101.545 38.5236 92.1659 36.4373 86.4573 42.9148C83.0977 46.725 81.3815 51.7989 81.0881 55.2045C81.0191 55.9964 81.2147 58.0674 82.5762 58.008C83.9376 57.9485 84.2387 55.7874 84.3384 54.8996Z" fill="#999999" stroke="black" stroke-width="0.5" stroke-miterlimit="10" stroke-linecap="round" stroke-linejoin="round"/>
<path d="M144.117 182.93C148.023 182.343 151.185 179.574 153.009 175.686C153.008 175.676 153.009 175.666 153.011 175.657C153.578 174.472 155.36 174.771 155.552 176.071L159.105 199.736C159.68 203.567 158.711 207.469 156.409 210.586C154.108 213.702 150.663 215.776 146.832 216.353L119.442 220.466C119.556 220.722 119.698 220.964 119.867 221.19C120.24 221.687 120.731 222.084 121.294 222.346C125.183 224.169 127.95 227.329 128.537 231.237C129.601 238.327 123.087 245.182 113.987 246.549C104.886 247.916 96.6442 243.276 95.5799 236.187C94.9932 232.271 96.7094 228.436 99.8925 225.56C100.354 225.144 100.706 224.62 100.917 224.035C101.012 223.77 101.077 223.496 101.111 223.219L77.7619 226.725C73.931 227.301 70.0283 226.331 66.9121 224.03C63.7959 221.729 61.7212 218.284 61.1444 214.453L50.7723 145.384C50.1968 141.553 51.1663 137.651 53.4677 134.535C55.7691 131.418 59.2139 129.344 63.0447 128.767L132.115 118.395C135.946 117.82 139.848 118.79 142.964 121.091C146.08 123.392 148.154 126.837 148.731 130.667L152.11 153.164C152.301 154.462 150.698 155.264 149.808 154.305L149.787 154.282C146.901 151.101 143.068 149.383 139.16 149.969C132.079 151.037 127.438 159.275 128.805 168.378C130.173 177.481 137.022 183.994 144.117 182.93Z" fill="#B3B3B3" stroke="black" stroke-width="0.5" stroke-linecap="round" stroke-linejoin="round"/>
<path d="M59.8378 106.791L58.5453 112.376L95.9377 118.102L105.267 116.591L111.664 118.474C111.664 118.474 114.444 123.602 113.499 124.246C112.553 124.89 111.213 123.435 111.213 123.435C111.213 123.435 110.657 126.405 109.786 126.081C108.916 125.757 108.768 125.412 108.768 125.412C108.768 125.412 108.074 127.366 107.457 127.33C106.839 127.293 106.283 126.754 106.283 126.754C106.283 126.754 105.343 129.013 104.459 128.553C103.575 128.093 103.884 126.415 103.884 126.415L96.3538 126.236L52.599 126.018C51.1558 126.011 49.7306 125.696 48.4193 125.093C47.108 124.49 45.941 123.614 44.9964 122.523C44.0519 121.431 43.3519 120.15 42.9433 118.766C42.5348 117.382 42.4271 115.926 42.6277 114.497L44.8751 100.716L59.8378 106.791Z" fill="#E5E5E5" stroke="black" stroke-width="0.5" stroke-miterlimit="10" stroke-linecap="round" stroke-linejoin="round"/>
<path d="M105.857 116.779C105.857 116.779 110.816 118.998 111.27 120.305C111.725 121.613 111.004 124.286 111.004 124.286" stroke="black" stroke-width="0.5" stroke-miterlimit="10" stroke-linecap="round" stroke-linejoin="round"/>
<path d="M105.24 119.656C105.24 119.656 109.217 120.52 109.387 121.901C109.558 123.282 108.496 126.005 108.496 126.005" stroke="black" stroke-width="0.5" stroke-miterlimit="10" stroke-linecap="round" stroke-linejoin="round"/>
<path d="M103.936 123.424C103.936 123.424 106.463 123.886 106.735 124.958C106.985 125.939 105.24 128.369 105.24 128.369" stroke="black" stroke-width="0.5" stroke-miterlimit="10" stroke-linecap="round" stroke-linejoin="round"/>
<path d="M58.5452 112.378L50.4915 111.521" stroke="black" stroke-width="0.5" stroke-linecap="round" stroke-linejoin="round"/>
<path d="M51.4253 216.139L52.827 226.08" stroke="black" stroke-width="0.5" stroke-miterlimit="10" stroke-linecap="round" stroke-linejoin="round"/>
<path d="M126.446 101.157L137.704 111.571C139.237 112.989 140.179 114.932 140.343 117.014C140.506 119.096 139.879 121.162 138.586 122.802L116.843 150.369C116.843 150.369 109.819 169.311 108.643 169.023C107.468 168.735 109.729 160.883 109.729 160.883C109.729 160.883 105.203 169.025 104.126 169.692C103.048 170.36 102.231 169.253 102.231 169.253C102.231 169.253 100.96 169.593 100.793 168.511C100.626 167.429 104.404 158.864 104.404 158.864C104.404 158.864 103.405 160.206 102.143 161.685C100.11 164.058 98.7566 165.892 98.1161 165.383C97.3778 164.791 100.705 159.232 101.865 157.286C103.025 155.339 104.358 152.108 104.358 152.108C104.358 152.108 97.9492 155.069 97.4986 154.584C97.048 154.099 97.397 153.061 101.909 149.263C106.421 145.464 110.856 144.62 110.856 144.62L123.207 120.252L113.694 112.11L126.446 101.157Z" fill="#E5E5E5" stroke="black" stroke-width="0.5" stroke-linecap="round" stroke-linejoin="round"/>
<path d="M102.231 169.253L107.085 159.5" stroke="black" stroke-width="0.5" stroke-linecap="round" stroke-linejoin="round"/>
<path d="M123.201 120.252L125.374 116.089" stroke="black" stroke-width="0.5" stroke-linecap="round" stroke-linejoin="round"/>
<path fill-rule="evenodd" clip-rule="evenodd" d="M331.34 238.821L332.819 187.586C333.017 180.724 332.33 173.866 330.774 167.181L328.595 157.815C329.565 157.467 330.385 157.148 331.059 156.886L331.06 156.886L331.167 156.844C331.766 156.593 332.294 156.198 332.703 155.693C333.11 155.188 333.384 154.589 333.5 153.951L341.517 109.594L341.703 109.369C343.04 107.653 347.649 98.6976 347.129 96.5569C346.692 94.7745 345.886 93.1035 344.763 91.6519C344.765 91.6356 344.765 91.6191 344.763 91.6029C344.761 91.5909 344.758 91.579 344.754 91.5675C344.75 91.5591 344.747 91.551 344.742 91.5432C344.738 91.5349 344.732 91.527 344.726 91.5195C344.72 91.5117 344.713 91.5043 344.705 91.4976L344.358 91.2019C343.702 90.4337 342.96 89.7435 342.147 89.1448C341.607 88.7386 341.022 88.3956 340.404 88.1226C335.904 84.7926 328.389 79.8105 320.476 76.9948L318.798 71.6076C318.785 71.5853 318.767 71.5656 318.747 71.5498H318.714L316.889 71.6076L314.806 59.1041C315.369 58.7559 315.874 58.3221 316.304 57.8184C317.466 56.3321 318.111 54.5074 318.143 52.621C318.174 50.7347 317.589 48.8896 316.477 47.3655C316.351 47.2019 316.216 47.0452 316.072 46.8962C315.838 44.7013 315.34 42.5428 314.587 40.4676C314.542 37.2534 313.745 32.9334 310.126 31.1205C306.114 29.1084 300.117 30.0019 299.319 30.1369C298.94 29.7448 296.864 27.9576 291.091 28.3048C289.477 28.4012 288.307 28.9476 287.613 29.9184C287.268 30.4775 287.037 31.0993 286.933 31.748C286.83 32.3967 286.855 33.0596 287.009 33.6984C286.366 33.9362 283.942 34.9841 283.479 37.3241C283.306 37.9831 283.277 38.672 283.394 39.3433C283.512 40.0146 283.774 40.6526 284.161 41.2134C285.108 42.3666 286.381 43.2087 287.812 43.6305L288.847 49.4548C288.101 50.7381 287.702 52.1938 287.69 53.6784C287.626 55.5673 288.211 57.4211 289.349 58.9305C289.64 59.2758 289.967 59.5884 290.326 59.8626C289.985 61.1998 288.982 65.9055 290.769 68.9526C291.126 69.5844 291.613 70.1326 292.198 70.5606C292.784 70.9886 293.454 71.2864 294.164 71.4341C295.357 71.7116 296.577 71.8517 297.802 71.8519C298.367 71.8526 298.932 71.8204 299.493 71.7555L299.525 72.1155L298.342 72.1541C298.311 72.1626 298.283 72.178 298.259 72.1991C298.258 72.214 298.258 72.2291 298.259 72.2441L296.6 77.2969C295.006 77.8434 293.444 78.4412 291.952 79.0776C291.24 75.7078 289.257 72.742 286.415 70.7966C283.573 68.8511 280.09 68.0756 276.691 68.6312L205.019 80.2798C203.28 80.5653 201.614 81.1877 200.114 82.1119C198.613 83.0413 197.31 84.2581 196.281 85.6922C195.252 87.1264 194.516 88.7497 194.116 90.4691C194.089 90.5792 194.069 90.6924 194.048 90.8065L194.048 90.8106C194.039 90.8617 194.029 90.9129 194.019 90.9641C193.569 91.4014 193.154 91.8743 192.779 92.3784C191.834 93.7155 191.358 95.5926 191.364 97.9391C191.371 100.286 192.2 104.284 193.936 104.895C194.08 104.945 194.233 104.969 194.386 104.966C194.732 104.952 195.073 104.871 195.389 104.728L198.089 121.333L197.446 121.435C196.859 121.533 196.258 121.48 195.697 121.281C195.137 121.079 194.637 120.738 194.244 120.291C191.165 116.981 187.218 115.438 183.419 116.061C176.264 117.225 171.661 125.62 173.133 134.775C173.747 139.007 175.751 142.914 178.829 145.883C181.786 148.648 185.347 149.863 188.857 149.284C192.657 148.641 195.929 145.948 197.78 141.84C198.022 141.296 198.395 140.821 198.867 140.458C199.324 140.103 199.86 139.863 200.429 139.757L201.072 139.654L205.572 167.297C205.853 169.039 206.476 170.709 207.405 172.21C208.334 173.711 209.55 175.014 210.983 176.044C212.417 177.073 214.04 177.81 215.759 178.211C217.478 178.612 219.259 178.669 221 178.38L247.634 174.047V174.227C247.731 174.816 247.678 175.419 247.479 175.982C247.286 176.544 246.957 177.05 246.522 177.454C243.211 180.527 241.668 184.474 242.285 188.273C242.851 191.751 245.114 194.702 248.662 196.669C251.395 198.118 254.447 198.861 257.54 198.829C258.701 198.827 259.859 198.732 261.005 198.546C270.166 197.055 276.665 190.022 275.502 182.873C274.859 179.081 272.172 175.802 268.057 173.951C267.514 173.706 267.039 173.331 266.676 172.859C266.312 172.387 266.072 171.832 265.974 171.244V171.064L284.829 167.998L278.036 222.883H259.658C259.628 222.884 259.6 222.893 259.575 222.909C259.55 222.925 259.53 222.947 259.516 222.973C259.51 222.984 259.506 222.995 259.502 223.007C259.497 223.024 259.495 223.042 259.495 223.06C259.495 223.09 259.502 223.12 259.516 223.147C259.725 223.411 259.975 223.641 260.255 223.828C264.17 226.438 266.414 230.257 266.414 234.281C266.414 241.828 258.623 247.967 249.057 247.967C239.491 247.967 231.7 241.828 231.7 234.281C231.7 230.244 233.943 226.438 237.858 223.828C238.137 223.64 238.384 223.411 238.591 223.147C238.606 223.121 238.615 223.092 238.615 223.063C238.615 223.033 238.606 223.005 238.591 222.979C238.579 222.953 238.561 222.929 238.537 222.912C238.513 222.895 238.485 222.885 238.456 222.883H212.793C205.895 222.883 200.894 228.026 200.894 235.11L200.804 259.539C200.803 259.695 200.85 259.847 200.939 259.976C201.026 260.106 201.152 260.204 201.299 260.259C201.447 260.307 201.607 260.307 201.755 260.259C201.908 260.219 202.047 260.137 202.154 260.021C204.725 257.141 207.631 255.617 210.575 255.617C212.545 255.587 214.501 255.949 216.33 256.682C218.159 257.414 219.824 258.504 221.228 259.886C224.493 263.177 226.203 268.179 226.165 274.344C226.126 280.509 224.403 285.401 221.183 288.744C219.809 290.169 218.16 291.301 216.335 292.069C214.51 292.837 212.549 293.226 210.569 293.212C207.805 293.212 204.783 291.887 202.263 289.586C202.155 289.482 202.019 289.413 201.871 289.387C201.723 289.364 201.571 289.384 201.434 289.444C201.297 289.503 201.181 289.602 201.1 289.727C201.016 289.853 200.971 290.001 200.971 290.152L200.92 307.342C200.92 314.869 206.3 320.539 213.43 320.539H262.717C262.332 320.721 261.961 320.9 261.603 321.075C261.595 321.074 261.586 321.073 261.577 321.073C261.571 321.072 261.564 321.072 261.558 321.073C261.551 321.073 261.545 321.074 261.539 321.075C260.709 321.435 254.808 324.058 252.59 326.308C252.308 326.5 252.085 326.767 251.947 327.079C251.903 327.166 251.87 327.259 251.851 327.356C251.768 327.548 251.739 327.759 251.767 327.966C251.767 328.018 251.767 328.063 251.812 328.114C251.814 328.125 251.815 328.136 251.814 328.146C251.814 328.153 251.813 328.159 251.812 328.166C251.912 328.641 252.197 329.057 252.603 329.323C252.761 329.424 252.935 329.498 253.117 329.541C254.66 330.338 257.206 330.506 259.289 330.557C259.932 330.608 260.574 330.641 261.217 330.641H262.066C264.354 330.698 266.36 330.724 266.379 330.724C266.388 330.724 266.396 330.724 266.405 330.723C266.409 330.722 266.413 330.721 266.417 330.72C266.422 330.719 266.427 330.718 266.432 330.716C266.436 330.715 266.439 330.713 266.443 330.711C266.463 330.703 266.481 330.689 266.495 330.673V330.596H267.099C271.887 330.707 276.677 330.462 281.429 329.863C284.102 329.472 286.754 328.946 289.374 328.288C290.017 328.127 290.57 327.998 291.033 327.902L291.348 330.473C291.351 330.512 291.369 330.548 291.398 330.574C291.426 330.6 291.464 330.615 291.502 330.615H296.986C298.561 331.373 301.074 331.528 303.125 331.579C303.723 331.624 304.334 331.65 304.938 331.65H305.748C307.199 331.686 308.545 331.71 309.354 331.724L309.359 331.724C309.841 331.732 310.132 331.737 310.139 331.74C310.185 331.737 310.229 331.716 310.261 331.682C310.263 331.667 310.264 331.652 310.264 331.637C310.263 331.627 310.262 331.616 310.261 331.605H310.859C315.633 331.73 320.411 331.493 325.149 330.898C327.828 330.513 330.485 329.987 333.108 329.323C333.751 329.162 334.291 329.033 334.754 328.943L335.062 331.515C335.067 331.554 335.086 331.59 335.116 331.616C335.128 331.627 335.142 331.636 335.156 331.642C335.167 331.647 335.179 331.651 335.19 331.653C335.201 331.655 335.212 331.656 335.223 331.656H346.152C346.197 331.656 346.241 331.637 346.274 331.605C346.281 331.596 346.287 331.588 346.292 331.578C346.297 331.568 346.302 331.558 346.305 331.548C346.308 331.537 346.311 331.527 346.312 331.517C346.313 331.505 346.313 331.494 346.312 331.483L345.252 313.078C345.248 313.037 345.23 312.998 345.201 312.97C345.185 312.955 345.166 312.943 345.146 312.935C345.128 312.928 345.11 312.924 345.091 312.923H344.487L343.31 306.996L347.649 306.823C347.672 306.82 347.693 306.813 347.713 306.803C347.735 306.792 347.755 306.777 347.772 306.758C347.781 306.737 347.786 306.714 347.786 306.691C347.786 306.677 347.784 306.664 347.781 306.651C347.779 306.641 347.775 306.632 347.772 306.623L331.34 238.821ZM330.189 308.34C329.741 308.416 329.314 308.587 328.936 308.841C328.922 308.848 328.911 308.86 328.904 308.873L326.377 312.023L325.143 312.724C324.62 312.62 324.088 312.566 323.555 312.563C323.534 312.564 323.513 312.569 323.494 312.578C323.475 312.587 323.458 312.599 323.443 312.615C323.429 312.63 323.418 312.649 323.411 312.669C323.403 312.688 323.4 312.709 323.401 312.731C323.4 312.752 323.403 312.773 323.411 312.792C323.419 312.812 323.431 312.83 323.446 312.844C323.461 312.859 323.48 312.87 323.499 312.877C323.519 312.884 323.541 312.887 323.562 312.885C323.936 312.894 324.309 312.924 324.68 312.975C323.729 313.496 322.392 314.209 320.675 315.071C320.288 315.015 319.897 314.987 319.505 314.987C319.497 314.987 319.488 314.988 319.48 314.99C319.467 314.992 319.455 314.996 319.444 315.002C319.425 315.01 319.408 315.023 319.393 315.039C319.379 315.054 319.368 315.072 319.361 315.092C319.353 315.112 319.35 315.133 319.351 315.154C319.352 315.186 319.363 315.217 319.382 315.243C319.387 315.25 319.393 315.257 319.4 315.264C319.43 315.292 319.47 315.308 319.512 315.308H320.154C318.942 315.913 317.566 316.573 316.027 317.288H315.5C315.466 317.289 315.434 317.301 315.407 317.322C315.393 317.334 315.382 317.347 315.372 317.362C315.369 317.368 315.365 317.375 315.362 317.381C315.359 317.389 315.356 317.398 315.354 317.406C315.35 317.423 315.349 317.441 315.351 317.458C315.352 317.474 315.356 317.49 315.363 317.505C315.369 317.518 315.376 317.53 315.385 317.541C315.397 317.556 315.412 317.568 315.429 317.578C313.801 318.328 312.007 319.121 310.049 319.956C308.287 320.702 306.719 321.428 305.349 322.097H305.298C304.951 322.251 303.71 322.804 302.225 323.556L301.582 312.03C301.581 312.007 301.576 311.985 301.566 311.965C301.56 311.953 301.553 311.942 301.544 311.932C301.541 311.928 301.537 311.924 301.533 311.92C301.503 311.892 301.463 311.875 301.422 311.876L300.689 311.914V305.794H304.096C304.118 305.794 304.139 305.789 304.159 305.78C304.179 305.771 304.197 305.759 304.212 305.743C304.241 305.711 304.257 305.67 304.257 305.627L300.502 246.773L304.951 223.631L306.024 236.648C306.367 240.68 307.134 244.664 308.313 248.535L324.783 307.678C324.793 307.712 324.814 307.742 324.843 307.763C324.873 307.784 324.908 307.795 324.944 307.793L330.774 307.556L331.006 308.34C330.735 308.305 330.46 308.305 330.189 308.34Z" fill="url(#paint0_linear_2568_226539)" style="mix-blend-mode:overlay"/>
<path fill-rule="evenodd" clip-rule="evenodd" d="M211.38 290.933C218.644 290.933 224.494 283.412 224.494 274.09C224.494 264.769 218.58 257.247 211.38 257.247C207.844 257.247 204.951 258.919 201.608 262.712C201.222 263.097 200.837 263.612 200.451 264.19C200.194 264.511 199.937 264.833 199.68 265.219C199.68 265.283 199.615 265.283 199.551 265.283H199.422C199.39 265.283 199.374 265.267 199.358 265.251C199.342 265.235 199.326 265.219 199.294 265.219C199.294 265.187 199.278 265.171 199.262 265.154C199.246 265.138 199.23 265.122 199.23 265.09V236.419C199.23 232.497 197.687 228.769 194.922 226.004C192.158 223.24 188.43 221.697 184.508 221.697H160.594C159.887 221.697 159.372 222.147 159.115 222.79C158.922 223.433 159.115 224.076 159.694 224.462C163.358 226.904 165.48 230.44 165.48 234.169C165.48 241.24 158.087 246.962 148.958 246.962C139.83 246.962 132.437 241.24 132.437 234.169C132.437 230.44 134.558 226.904 138.222 224.397C138.737 224.012 138.994 223.369 138.801 222.726C138.608 222.083 138.03 221.633 137.322 221.633H120.93C120.544 221.376 120.158 221.054 119.901 220.733C119.823 220.655 119.769 220.554 119.71 220.443C119.671 220.371 119.63 220.295 119.58 220.219L146.772 216.169C150.694 215.59 154.101 213.533 156.48 210.319C158.794 207.169 159.822 203.247 159.18 199.326L155.644 175.669C155.515 175.026 155.065 174.512 154.358 174.383C153.715 174.254 153.072 174.576 152.815 175.219V175.283C150.951 179.269 147.737 181.84 144.072 182.419C137.065 183.447 130.315 177.019 128.965 168.019C127.615 159.019 132.18 150.854 139.187 149.762C142.915 149.183 146.708 150.79 149.665 154.069C150.115 154.583 150.822 154.647 151.401 154.39C152.044 154.069 152.365 153.49 152.237 152.783L148.83 130.283C148.251 126.362 146.194 122.954 142.98 120.576C142.144 119.933 141.244 119.419 140.28 118.969C140.408 118.197 140.472 117.426 140.408 116.59C140.215 114.469 139.315 112.476 137.708 111.062L126.587 100.776L127.615 99.8759C127.68 99.8759 127.68 99.8116 127.68 99.7473C127.68 99.683 127.68 99.683 127.615 99.6187C127.599 99.6026 127.289 99.3166 126.759 98.8282L126.752 98.8218L126.751 98.8204C125.161 97.354 121.613 94.0828 118.101 90.8116C108.485 81.9649 108.33 82.0681 108.138 82.1962L108.137 82.1973C107.944 82.3901 107.751 82.583 107.494 82.7759C106.722 82.3901 105.887 82.0687 105.051 81.8116C102.608 81.0401 100.294 80.3973 98.0438 79.8187C98.6054 78.4709 99.0198 76.9759 99.4156 75.548C99.4729 75.3415 99.5298 75.1361 99.5867 74.933C99.8438 73.9687 100.101 73.0044 100.358 72.1044C100.615 71.2687 100.937 70.433 101.258 69.5973C101.29 69.5009 101.338 69.4044 101.387 69.308C101.435 69.2116 101.483 69.1151 101.515 69.0187C103.38 68.5044 105.115 67.0259 106.08 64.8401C106.722 63.4259 106.915 61.9473 106.722 60.5973C108.844 57.9616 110.451 55.7759 110.772 51.983C111.094 47.5473 108.715 42.9187 104.794 40.5401C104.472 40.3473 104.215 40.2188 103.958 40.0902C103.61 39.9408 103.338 39.7527 103.054 39.5559C102.971 39.4988 102.888 39.4409 102.801 39.383L102.351 38.933C101.708 38.033 100.872 37.3259 99.9081 36.7473C96.8224 35.0759 92.9653 34.7544 89.4295 35.9759C85.8295 37.1973 82.9367 39.7044 81.5224 42.9187C81.1541 43.7474 80.8847 44.6091 80.6197 45.4565C80.5148 45.7923 80.4104 46.1261 80.301 46.4544C80.2714 46.553 80.2418 46.652 80.2121 46.7513C79.855 47.9464 79.4851 49.1838 78.951 50.3116C78.051 52.1759 76.6367 52.9473 75.0295 53.783C74.3867 54.1044 73.7438 54.4901 73.0367 54.9401C70.401 56.6759 68.3438 58.7973 66.9295 61.1759C64.3581 65.4187 63.9724 70.5616 65.9653 74.5473C66.2867 75.2544 66.7367 75.833 67.1867 76.3473C67.026 76.3473 66.8652 76.3634 66.7045 76.3794C66.5438 76.3955 66.3831 76.4116 66.2224 76.4116C65.9652 76.0259 65.7081 75.6401 65.5152 75.2544C65.451 75.1901 65.3867 75.1259 65.3224 75.1901C60.6295 77.5687 57.2224 79.6259 54.0081 82.133C50.2152 85.0901 44.301 93.9616 42.1795 99.1044V99.233C42.1795 99.2973 42.2438 99.2973 42.2438 99.2973L44.4938 100.197L42.2438 113.89C42.051 115.369 42.1152 116.783 42.5652 118.197C43.0153 119.612 43.6581 120.897 44.6224 121.99C45.5867 123.083 46.7438 123.983 48.0938 124.626C49.4438 125.269 50.8581 125.59 52.3367 125.59H55.3581C55.2847 126.801 55.1903 128.033 55.0989 129.227C55.0303 130.123 54.9633 130.999 54.9081 131.826C54.2652 132.404 53.6867 133.112 53.1081 133.819C50.7938 136.969 49.7652 140.89 50.4081 144.812L51.3081 150.983C49.3795 155.997 47.451 162.104 46.8724 167.633C45.7795 177.854 49.701 206.59 51.051 215.59L51.4367 218.29L40.7652 242.012C40.5081 242.59 40.5081 243.233 40.701 243.812C40.8938 244.39 41.2795 244.904 41.8581 245.162L42.3724 245.419L28.8724 276.147L27.2652 279.49L20.5795 284.762C20.1938 285.019 19.8724 285.34 19.6152 285.726C18.651 286.497 17.9438 287.847 17.4295 289.004L12.0295 302.504C12.0295 302.509 12.0268 302.52 12.0225 302.539C11.9597 302.811 11.5585 304.55 14.0224 306.233C16.5938 307.904 22.1867 310.412 22.251 310.412H22.3795C22.4438 310.412 22.4438 310.347 22.4438 310.347L26.2367 301.797L32.2795 308.869L30.0295 313.947V314.14C30.0938 314.204 31.7652 315.876 37.551 318.447C43.3367 321.019 46.2938 321.083 46.3581 321.083C46.4224 321.083 46.4867 321.083 46.4867 321.019L49.701 315.426V315.297L49.6367 315.233L49.7652 315.104C50.2152 314.269 50.5367 312.276 49.8295 311.44L43.851 304.433L39.1581 285.404L45.651 276.212C45.651 276.187 45.6603 276.172 45.6684 276.159C45.6813 276.138 45.6907 276.123 45.651 276.083C45.614 276.046 45.5983 276.03 45.5916 276.011C45.5867 275.998 45.5867 275.982 45.5867 275.954L44.4295 275.44L57.0938 253.904L57.6081 254.162C57.9938 254.354 58.3795 254.483 58.7652 254.483C58.9581 254.483 59.2153 254.483 59.4081 254.419C60.051 254.226 60.5652 253.84 60.8867 253.262L74.7081 229.54C75.0903 228.919 75.437 228.263 75.7746 227.623L75.7755 227.621C75.8918 227.401 76.0071 227.183 76.1224 226.969L76.3795 258.469C76.3795 258.854 76.5724 259.304 76.8295 259.562C77.0867 259.883 77.4724 260.012 77.9224 260.076L79.0795 260.14L79.1438 287.719H78.6295C78.5653 287.719 78.501 287.783 78.501 287.847L78.2438 298.519L74.2581 306.04C74.0652 306.426 73.8724 306.876 73.7438 307.262C73.7438 307.262 73.6795 307.262 73.6795 307.326C73.101 308.483 73.0367 309.962 73.0367 311.183L73.3581 325.454C73.3581 325.519 73.551 327.512 76.701 328.026C79.7224 328.54 85.8938 328.54 85.9581 328.54C86.0224 328.54 86.0867 328.476 86.0867 328.412V319.09L94.4438 323.14V328.733C94.4438 328.797 94.5081 328.862 94.5724 328.862C94.6367 328.926 96.8224 329.762 103.187 329.762C109.551 329.762 112.187 328.669 112.315 328.604C112.38 328.604 112.38 328.54 112.38 328.476L113.022 322.112C113.022 322.084 113.022 322.069 113.017 322.055C113.011 322.036 112.995 322.02 112.958 321.983L113.022 321.919V321.854C113.022 321.662 113.022 321.469 112.958 321.212H185.665C189.265 321.212 192.608 319.797 195.18 317.29C197.687 314.783 199.101 311.376 199.101 307.776V283.154C199.101 283.127 199.101 283.111 199.106 283.097C199.113 283.079 199.128 283.063 199.165 283.026C199.165 282.962 199.23 282.962 199.294 282.962H199.422C199.438 282.962 199.449 282.965 199.459 282.971C199.47 282.977 199.478 282.985 199.487 282.994C199.503 283.01 199.519 283.026 199.551 283.026C200.129 283.797 200.515 284.247 200.901 284.697L200.901 284.697C200.997 284.826 201.11 284.938 201.222 285.051C201.335 285.163 201.447 285.276 201.544 285.404C204.565 289.133 207.78 290.933 211.38 290.933ZM91.3581 298.969L93.4153 287.912C93.4153 287.847 93.4152 287.847 93.351 287.783C93.351 287.719 93.2867 287.719 93.2224 287.719H92.1938L95.2795 261.169L96.3081 261.233H96.4367C96.8224 261.233 97.2081 261.104 97.5295 260.847C97.851 260.59 98.0438 260.14 98.1081 259.754L99.3938 242.847C99.458 242.912 99.5382 242.976 99.6185 243.04L99.6192 243.04C99.6994 243.105 99.7797 243.169 99.8438 243.233V307.712C99.8438 308.547 99.9081 309.447 100.101 310.283L91.3581 298.969ZM100.615 223.69C100.551 223.883 100.422 224.14 100.294 224.333C100.294 224.14 100.278 223.947 100.262 223.754C100.246 223.562 100.23 223.369 100.23 223.176L100.744 223.112C100.744 223.304 100.744 223.497 100.615 223.69ZM112.958 120.833C112.444 119.676 111.865 118.519 111.672 118.133C111.672 118.069 111.608 118.069 111.608 118.069L105.18 116.204H105.115L104.087 116.397L104.665 108.812L111.222 113.954C111.287 114.019 111.351 114.019 111.415 113.954L113.537 112.09L122.215 119.483L112.958 120.833Z" fill="url(#paint1_linear_2568_226539)" style="mix-blend-mode:overlay"/>
</g>
<defs>
<linearGradient id="paint0_linear_2568_226539" x1="11.9604" y1="28.2603" x2="347.786" y2="28.2603" gradientUnits="userSpaceOnUse">
<stop stop-color="#F38478"/>
<stop offset="1" stop-color="#5D6AE8"/>
</linearGradient>
<linearGradient id="paint1_linear_2568_226539" x1="11.9604" y1="28.2603" x2="347.786" y2="28.2603" gradientUnits="userSpaceOnUse">
<stop stop-color="#F38478"/>
<stop offset="1" stop-color="#5D6AE8"/>
</linearGradient>
<clipPath id="clip0_2568_226539">
<rect width="360" height="360" fill="white"/>
</clipPath>
</defs>
</svg>
