<svg width="130" height="20" viewBox="0 0 130 20" fill="none" xmlns="http://www.w3.org/2000/svg">
<path d="M0 19.6441V0.146423H8.5667C12.6454 0.146423 14.89 2.92368 14.89 6.25577C14.89 9.55902 12.6174 12.3363 8.5667 12.3363H3.40882V19.6441H0ZM11.3919 6.25577C11.3919 4.38478 10.0226 3.15707 8.09954 3.15707H3.40882V9.32524H8.09954C10.023 9.32524 11.3919 8.09753 11.3919 6.25577Z" fill="#2A374D"/>
<path d="M17.6562 19.6443V5.52537H20.7159V7.5713C21.7936 6.22554 23.4836 5.17432 25.2898 5.17432V8.21457C24.9833 8.15077 24.6707 8.12136 24.3578 8.1269C23.0464 8.1269 21.3276 9.00395 20.7171 10.0267V19.6443H17.6562Z" fill="#2A374D"/>
<path d="M26.918 12.5698C26.918 8.50679 29.6565 5.17432 34.1434 5.17432C38.6302 5.17432 41.3695 8.50679 41.3695 12.5698C41.3695 16.604 38.631 19.9949 34.1441 19.9949C29.6573 19.9949 26.918 16.604 26.918 12.5698ZM38.1929 12.5698C38.1929 10.0852 36.7654 7.89313 34.1434 7.89313C31.5504 7.89313 30.0934 10.0848 30.0934 12.5698C30.0934 15.0841 31.5497 17.2765 34.1434 17.2765C36.7654 17.2765 38.1929 15.0841 38.1929 12.5698Z" fill="#2A374D"/>
<path d="M48.1888 19.644L42.4492 5.52515H45.7415L49.8494 16.107L53.9576 5.52515H57.2208L51.4812 19.644H48.1888Z" fill="#2A374D"/>
<path d="M58.793 1.90021C58.793 1.52438 58.904 1.157 59.1122 0.844509C59.3203 0.532021 59.6161 0.288467 59.9621 0.144645C60.3082 0.000823011 60.689 -0.036807 61.0564 0.0365129C61.4238 0.109833 61.7612 0.290809 62.0261 0.556558C62.291 0.822307 62.4713 1.16089 62.5444 1.52949C62.6175 1.8981 62.58 2.28017 62.4366 2.62738C62.2933 2.9746 62.0505 3.27137 61.7391 3.48017C61.4276 3.68897 61.0615 3.80041 60.6869 3.80041C60.438 3.80097 60.1915 3.7522 59.9615 3.6569C59.7314 3.56161 59.5224 3.42166 59.3464 3.2451C59.1705 3.06854 59.031 2.85884 58.936 2.62804C58.841 2.39725 58.7924 2.1499 58.793 1.90021ZM59.1429 19.6442V5.52529H62.2018V19.6442H59.1429Z" fill="#2A374D"/>
<path d="M76.0671 19.6442V17.7147C75.5422 18.4202 74.8609 18.9934 74.0771 19.3891C73.2934 19.7848 72.4286 19.9922 71.5512 19.9948C67.968 19.9948 65.3164 17.2472 65.3164 12.5697C65.3164 8.00992 67.9388 5.17422 71.5512 5.17422C72.4335 5.16645 73.3048 5.37235 74.0909 5.77443C74.8771 6.17652 75.555 6.76293 76.0671 7.48392V0.146484H79.1264V19.6442H76.0671ZM76.0671 15.3762V9.79324C75.6531 9.2171 75.1111 8.74549 74.4841 8.41569C73.8571 8.0859 73.1622 7.90696 72.4544 7.89303C70.0071 7.89303 68.4631 9.85168 68.4631 12.5697C68.4631 15.3178 70.0071 17.2764 72.4544 17.2764C73.1622 17.2624 73.8571 17.0834 74.4841 16.7536C75.111 16.4238 75.653 15.9523 76.0671 15.3762Z" fill="#2A374D"/>
<path d="M82.2461 12.5698C82.2461 8.47757 85.2176 5.17432 89.3841 5.17432C93.6084 5.17432 96.2891 8.3899 96.2891 12.8332V13.5934H85.4507C85.684 15.6977 87.2572 17.4807 89.9084 17.4807C91.3986 17.482 92.8344 16.919 93.9288 15.9042L95.3276 17.9209C93.7528 19.3099 91.7136 20.0514 89.6175 19.9972C85.3633 19.9949 82.2461 17.0423 82.2461 12.5698ZM89.355 7.68665C86.7621 7.68665 85.5384 9.70374 85.4215 11.3994H93.3463C93.2589 9.7345 92.1227 7.68819 89.355 7.68819V7.68665Z" fill="#2A374D"/>
<path d="M108.845 19.6443V10.8161C108.845 8.59484 107.708 7.8939 105.99 7.8939C105.288 7.92108 104.6 8.10272 103.976 8.42596C103.352 8.74921 102.806 9.20617 102.377 9.76449V19.6462H99.3164V5.52537H102.375V7.42557C103.002 6.72063 103.769 6.15588 104.628 5.76802C105.486 5.38015 106.416 5.17787 107.357 5.17432C110.387 5.17432 111.902 6.81152 111.902 9.70528V19.6443H108.845Z" fill="#2A374D"/>
<path d="M116.507 16.3411V8.18544H114.176V5.52546H116.507V1.66699H119.566V5.52546H122.421V8.18544H119.566V15.5813C119.566 16.5457 120.032 17.2766 120.907 17.2766C121.406 17.2841 121.887 17.0953 122.248 16.7506L122.977 19.0887C122.423 19.5859 121.52 19.995 120.122 19.995C117.73 19.995 116.507 18.7089 116.507 16.3411Z" fill="#2A374D"/>
<path d="M128.229 19.7834C129.207 19.7834 130 18.9875 130 18.0058C130 17.0241 129.207 16.2283 128.229 16.2283C127.25 16.2283 126.457 17.0241 126.457 18.0058C126.457 18.9875 127.25 19.7834 128.229 19.7834Z" fill="#EE7133"/>
</svg>
