<svg width="148" height="40" viewBox="0 0 148 40" fill="none" xmlns="http://www.w3.org/2000/svg">
<g clip-path="url(#clip0_4723_10772)">
<path d="M0 0H36.3667C36.3667 13.3475 36.3667 26.6933 36.3667 40.0408C24.2451 40.0408 12.1216 40.0408 0 40.0408C0 26.6933 0 13.3475 0 0ZM1.49489 1.3631C1.49489 7.28129 1.49309 13.1977 1.4967 19.1159C2.73523 19.1159 3.97375 19.1159 5.21227 19.1159C5.20866 14.0715 5.21227 9.02714 5.21227 3.98458C5.47948 3.99 5.74668 3.99361 6.01569 4.00083C8.35372 7.30476 10.7441 10.5708 13.093 13.8657C15.4382 10.5672 17.825 7.29574 20.1576 3.98819C20.414 3.99 20.6704 3.99 20.9267 3.98819C20.9303 10.2332 20.9231 16.4763 20.9285 22.7195C20.4176 22.7213 19.9049 22.7213 19.3939 22.7195C19.3813 17.7329 19.4066 12.7463 19.3813 7.76154C17.3754 10.5455 15.3841 13.3403 13.3764 16.1243C13.2284 16.1225 12.9341 16.1189 12.786 16.1171C10.7983 13.3006 8.74911 10.5293 6.7505 7.72182C6.74508 11.5186 6.74508 15.3173 6.7505 19.1141C8.20928 19.1195 9.66807 19.1087 11.1287 19.1177C12.6398 19.1159 14.1871 19.7026 15.1999 20.8473C16.5468 22.3332 16.7706 24.6495 15.913 26.4315C15.4075 27.4913 14.4705 28.2838 13.4089 28.7533C14.5861 30.8837 15.8065 32.9888 16.9909 35.1156C16.4041 35.1174 15.8192 35.1156 15.2324 35.1174C14.1185 33.126 12.9919 31.14 11.8671 29.1559C10.1555 29.2534 8.43857 29.1793 6.72522 29.2046C6.72161 31.1743 6.72522 33.1459 6.72342 35.1174C6.2179 35.1156 5.71418 35.1156 5.21047 35.1156C5.21227 32.6349 5.20866 30.1525 5.21227 27.67C7.18561 27.661 9.16074 27.679 11.1341 27.6628C12.0133 27.6556 12.9052 27.3938 13.6003 26.8431C15.2775 25.5721 15.2541 22.6762 13.5732 21.4178C12.8294 20.8509 11.8779 20.636 10.9553 20.6505C7.80126 20.6469 4.64898 20.6487 1.49489 20.6505C1.4967 26.6084 1.49309 32.5681 1.49489 38.526C7.12061 38.526 12.7463 38.5278 18.3702 38.526C20.9935 31.7033 23.6222 24.8842 26.2636 18.0687C26.668 18.0669 27.0724 18.0796 27.4768 18.0814C28.7063 21.2788 29.943 24.4726 31.1725 27.67C32.4038 27.6682 33.6351 27.6718 34.8682 27.6664C34.87 18.8992 34.8682 10.1303 34.8682 1.3631C32.4508 1.35949 30.0351 1.36671 27.6176 1.35949C27.614 5.98861 27.6158 10.6177 27.6158 15.2468C27.1085 15.2468 26.6012 15.2468 26.0957 15.245C26.0939 10.6177 26.0957 5.99222 26.0939 1.3649C17.8954 1.36129 9.69515 1.3631 1.49489 1.3631ZM24.1819 27.67C25.9639 27.6682 27.7458 27.6718 29.5278 27.6664C28.6576 25.3554 27.7549 23.0553 26.8648 20.7498C25.9566 23.0499 25.0882 25.3681 24.1819 27.67ZM19.9933 38.5224C24.951 38.5297 29.9105 38.526 34.8682 38.526C34.87 35.4099 34.87 32.2937 34.8682 29.1775C31.1111 29.1757 27.354 29.1757 23.597 29.1775C22.4072 32.2973 21.1993 35.4099 19.9933 38.5224Z" fill="#72A7C5"/>
<path d="M48.3398 18.094C48.979 18.1066 49.6253 18.0362 50.259 18.1482C51.0173 18.3432 51.373 19.3054 51.0137 19.9789C50.8512 20.349 50.4504 20.497 50.1326 20.6974C50.5226 21.1325 50.8999 21.5785 51.2737 22.028C51.0209 22.0316 50.7681 22.0335 50.5154 22.0353C50.0189 21.4052 49.4321 20.8383 49.0494 20.1251C49.6253 20.1053 50.6598 20.1702 50.5515 19.3073C50.4702 18.493 49.4935 18.7169 48.9248 18.679C48.9248 19.7965 48.9248 20.9159 48.9248 22.0335C48.7786 22.0335 48.4861 22.0335 48.3398 22.0353V18.094Z" fill="#72A7C5"/>
<path d="M58.8367 18.0977C59.6636 18.0977 60.4887 18.0977 61.3156 18.0959C61.3138 18.2927 61.3138 18.4913 61.3138 18.6899C60.6855 18.6881 60.0572 18.6881 59.4271 18.6881C59.4271 19.0636 59.4253 19.4391 59.4253 19.8165C60.0319 19.8165 60.6404 19.8165 61.2488 19.8165C61.2488 19.9663 61.2506 20.2642 61.2506 20.4141C60.6422 20.4141 60.0337 20.4141 59.4253 20.4159C59.4271 20.7986 59.4271 21.1832 59.4271 21.5677C60.059 21.5677 60.6891 21.5677 61.3192 21.5695C61.3192 21.6851 61.3192 21.918 61.3192 22.0353C60.4905 22.0317 59.6636 22.0335 58.8367 22.0353C58.8367 20.7228 58.8349 19.4102 58.8367 18.0977Z" fill="#72A7C5"/>
<path d="M70.2837 18.0706C70.3993 18.0616 70.6286 18.0435 70.7423 18.0345C71.2894 19.3651 71.7967 20.7119 72.3401 22.0443C72.1794 22.0389 71.8617 22.0263 71.701 22.0191C71.5872 21.7248 71.4771 21.4287 71.3634 21.1362C70.8091 21.1326 70.2548 21.1344 69.7006 21.1416C69.6013 21.4485 69.4568 21.7374 69.3575 22.0461C69.2023 22.0407 68.8935 22.0317 68.7383 22.0263C69.2438 20.7047 69.8017 19.4012 70.2837 18.0706ZM70.5365 19.0004C70.3216 19.5204 70.1285 20.0493 69.9335 20.5783C70.3379 20.5783 70.7423 20.5765 71.1449 20.5765C70.9517 20.0475 70.7477 19.5222 70.5365 19.0004Z" fill="#72A7C5"/>
<path d="M79.8338 18.0957C80.027 18.0939 80.222 18.0921 80.4152 18.0903C80.4152 19.2494 80.4152 20.4085 80.4152 21.5658C81.0507 21.5676 81.6862 21.5676 82.3217 21.5694C82.3235 21.6849 82.3253 21.9178 82.3271 22.0334C81.4948 22.0316 80.6643 22.0352 79.832 22.0298C79.8338 20.719 79.832 19.4065 79.8338 18.0957Z" fill="#72A7C5"/>
<path d="M94.2054 18.0959C95.0305 18.0977 95.8537 18.0959 96.6788 18.0977C96.6806 18.2945 96.6824 18.4931 96.6842 18.6899C96.0578 18.6881 95.4295 18.6881 94.803 18.6863C94.803 19.0618 94.8012 19.4391 94.8012 19.8165C95.4168 19.8165 96.0343 19.8165 96.6517 19.8165C96.6517 19.9663 96.6517 20.2642 96.6517 20.4123C96.0343 20.4141 95.4168 20.4141 94.8012 20.4141C94.8012 20.7986 94.803 21.1832 94.803 21.5677C95.4331 21.5677 96.0632 21.5677 96.6933 21.5695C96.6933 21.6869 96.6933 21.9198 96.6915 22.0353C95.8628 22.0317 95.0341 22.0335 94.2036 22.0335C94.2036 20.721 94.2018 19.4084 94.2054 18.0959Z" fill="#72A7C5"/>
<path d="M104.658 18.4172C105.444 17.7312 106.928 18.0056 107.164 19.1123C107.016 19.1141 106.72 19.1159 106.572 19.1159C106.26 18.4245 104.926 18.4515 104.85 19.2784C104.992 19.9717 105.908 19.7189 106.408 19.95C107.177 20.0602 107.484 21.0694 106.991 21.6363C106.583 22.2231 105.79 22.0064 105.186 22.0299C104.617 22.0407 104.312 21.4774 104.207 20.9936C104.393 20.9827 104.579 20.9737 104.767 20.9665C104.991 21.676 105.993 21.8187 106.485 21.3149C106.673 21.1488 106.648 20.8618 106.567 20.6487C106.018 20.3057 105.303 20.4754 104.743 20.1577C104.144 19.8074 104.133 18.8397 104.658 18.4172Z" fill="#72A7C5"/>
<path d="M114.583 18.0921C115.592 18.0921 116.602 18.0939 117.613 18.0921C117.609 18.2799 117.607 18.4676 117.606 18.6572C117.198 18.6536 116.791 18.6572 116.385 18.6572C116.387 19.7838 116.385 20.9104 116.385 22.037C116.242 22.0352 115.955 22.0315 115.811 22.0297C115.809 20.905 115.813 19.782 115.809 18.6572C115.397 18.6572 114.986 18.6536 114.574 18.6554C114.576 18.5146 114.581 18.2329 114.583 18.0921Z" fill="#72A7C5"/>
<path d="M126.086 18.1283C126.198 18.0976 126.422 18.038 126.533 18.0092C127.073 19.3506 127.6 20.6956 128.133 22.0407C127.92 22.0244 127.707 22.0172 127.494 22.019C127.386 21.7229 127.277 21.4286 127.167 21.1344C126.613 21.1344 126.06 21.1344 125.508 21.138C125.394 21.4268 125.291 21.7175 125.185 22.01C124.966 22.0172 124.748 22.028 124.531 22.0425C125.048 20.7372 125.555 19.4264 126.086 18.1283ZM126.313 19.0599C126.106 19.5582 125.92 20.0673 125.737 20.5765C126.136 20.5765 126.537 20.5765 126.938 20.5783C126.743 20.0655 126.591 19.5347 126.313 19.0599Z" fill="#72A7C5"/>
<path d="M134.941 18.0958C135.961 18.0903 136.982 18.094 138.002 18.094C138 18.2348 137.998 18.5164 137.996 18.6572C137.585 18.6536 137.177 18.6572 136.768 18.6572C136.77 19.7838 136.769 20.9104 136.77 22.037C136.622 22.0352 136.328 22.0334 136.182 22.0316C136.18 20.9068 136.182 19.782 136.18 18.6572C135.77 18.6572 135.358 18.6536 134.95 18.6554C134.949 18.5146 134.943 18.2366 134.941 18.0958Z" fill="#72A7C5"/>
<path d="M145.509 18.0959C146.337 18.0977 147.168 18.0959 147.998 18.0995V18.6845C147.368 18.6881 146.736 18.6881 146.108 18.6881C146.106 19.0636 146.106 19.4391 146.106 19.8165C146.72 19.8147 147.336 19.8165 147.95 19.8183C147.951 19.9681 147.951 20.2678 147.953 20.4177C147.336 20.4123 146.722 20.4141 146.106 20.4159C146.106 20.7986 146.106 21.1832 146.108 21.5677C146.736 21.5677 147.368 21.5677 147.998 21.5695V22.0335C147.168 22.0335 146.337 22.0353 145.509 22.0317C145.507 20.7192 145.509 19.4084 145.509 18.0959Z" fill="#72A7C5"/>
</g>
<defs>
<clipPath id="clip0_4723_10772">
<rect width="148" height="40" fill="white"/>
</clipPath>
</defs>
</svg>
