<svg width="100" height="40" viewBox="0 0 100 40" fill="none" xmlns="http://www.w3.org/2000/svg">
<path d="M3.27637 23.1895C3.27637 24.3393 3.53059 25.222 3.86287 25.756C4.29852 26.4555 4.94831 26.7518 5.61076 26.7518C6.46519 26.7518 7.24684 26.5414 8.75317 24.4733C9.95992 22.8157 11.3819 20.489 12.3386 19.0304L13.9589 16.5592C15.0844 14.8429 16.3871 12.9351 17.8808 11.6419C19.1002 10.5864 20.4156 10 21.7395 10C23.962 10 26.0791 11.2785 27.6994 13.6764C29.4726 16.3026 30.3333 19.6105 30.3333 23.0241C30.3333 25.0534 29.9304 26.5445 29.2447 27.7225C28.5823 28.8618 27.2911 30 25.1192 30V26.7518C26.9789 26.7518 27.443 25.0555 27.443 23.1141C27.443 20.3476 26.7932 17.2775 25.3618 15.0838C24.346 13.5277 23.0295 12.577 21.5812 12.577C20.0148 12.577 18.7542 13.7497 17.3376 15.8408C16.5844 16.9518 15.8112 18.3058 14.943 19.8335L13.9873 21.5141C12.0675 24.8932 11.5812 25.6628 10.6213 26.933C8.93882 29.1571 7.50211 30 5.61076 30C3.36709 30 1.94831 29.0356 1.06962 27.5822C0.352321 26.3979 0 24.844 0 23.0733L3.27637 23.1895Z" fill="#0081FB"/>
<path d="M2.58203 13.9058C4.08414 11.6073 6.25186 10 8.73815 10C10.178 10 11.6095 10.423 13.1042 11.6346C14.7392 12.9592 16.4818 15.1403 18.6559 18.7351L19.4354 20.0251C21.3173 23.1372 22.3879 24.7382 23.0145 25.4932C23.8204 26.4628 24.3848 26.7518 25.1179 26.7518C26.9776 26.7518 27.4417 25.0555 27.4417 23.1141L30.332 23.0241C30.332 25.0534 29.9291 26.5445 29.2434 27.7225C28.581 28.8618 27.2898 30 25.1179 30C23.7677 30 22.5715 29.7089 21.2487 28.4702C20.2318 27.5194 19.043 25.8304 18.1284 24.312L15.408 19.801C14.043 17.5372 12.7909 15.8492 12.0662 15.0848C11.2867 14.2628 10.2846 13.2702 8.68541 13.2702C7.3911 13.2702 6.29195 14.1717 5.37212 15.5508L2.58203 13.9058Z" fill="url(#paint0_linear_2788_323178)"/>
<path d="M8.68671 13.2702C7.3924 13.2702 6.29325 14.1717 5.37342 15.5508C4.07278 17.4995 3.27637 20.4021 3.27637 23.1895C3.27637 24.3393 3.53059 25.222 3.86287 25.756L1.06962 27.5822C0.352321 26.3979 0 24.844 0 23.0733C0 19.8534 0.890295 16.4974 2.58333 13.9058C4.08544 11.6073 6.25316 10 8.73945 10L8.68671 13.2702Z" fill="url(#paint1_linear_2788_323178)"/>
<path d="M36.7031 10.6324H40.4932L46.9373 22.2052L53.3825 10.6324H57.0903V29.6482H53.9985V15.0743L48.3466 25.1665H45.4457L39.7949 15.0743V29.6482H36.7031V10.6324ZM66.778 17.7225C64.5607 17.7225 63.2253 19.379 62.9057 21.4304H70.431C70.2759 19.3173 69.0481 17.7225 66.778 17.7225ZM59.8403 22.5989C59.8403 18.2827 62.6504 15.1413 66.8318 15.1413C70.9447 15.1413 73.4004 18.2429 73.4004 22.8293V23.6722H62.9057C63.278 25.9037 64.7696 27.4073 67.1746 27.4073C69.0934 27.4073 70.2928 26.8262 71.4299 25.7633L73.0723 27.7602C71.5249 29.1728 69.5565 29.9874 67.0649 29.9874C62.5386 29.9874 59.8403 26.711 59.8403 22.5989ZM77.1493 17.9947H74.3033V15.4817H77.1493V11.3256H80.1325V15.4817H84.4563V17.9947H80.1325V24.3644C80.1325 26.5393 80.8329 27.312 82.5544 27.312C83.3403 27.312 83.7907 27.245 84.4563 27.1351V29.6209C83.6272 29.8534 82.836 29.9602 81.9795 29.9602C78.759 29.9602 77.1493 28.2136 77.1493 24.7173V17.9947ZM97.0175 20.4387C96.4183 18.9372 95.0818 17.8314 93.1177 17.8314C90.5649 17.8314 88.931 19.6293 88.931 22.5581C88.931 25.4136 90.4352 27.2984 92.9953 27.2984C95.008 27.2984 96.4447 26.1361 97.0175 24.69V20.4387ZM100.001 29.6482H97.0723V27.6649C96.2538 28.8324 94.7643 29.9874 92.3519 29.9874C88.4721 29.9874 85.8793 26.7633 85.8793 22.5581C85.8793 18.3131 88.5343 15.1413 92.5164 15.1413C94.4848 15.1413 96.0291 15.9225 97.0723 17.3016V15.4817H100.001V29.6482Z" fill="#192830"/>
<defs>
<linearGradient id="paint0_linear_2788_323178" x1="6.4333" y1="22.2513" x2="27.3186" y2="23.3139" gradientUnits="userSpaceOnUse">
<stop stop-color="#0064E1"/>
<stop offset="0.4" stop-color="#0064E1"/>
<stop offset="0.83" stop-color="#0073EE"/>
<stop offset="1" stop-color="#0082FB"/>
</linearGradient>
<linearGradient id="paint1_linear_2788_323178" x1="4.74684" y1="24.555" x2="4.74684" y2="16.911" gradientUnits="userSpaceOnUse">
<stop stop-color="#0082FB"/>
<stop offset="1" stop-color="#0064E0"/>
</linearGradient>
</defs>
</svg>
