<svg width="100" height="19" viewBox="0 0 100 19" fill="none" xmlns="http://www.w3.org/2000/svg">
<path fill-rule="evenodd" clip-rule="evenodd" d="M26.6655 10.6843C26.6655 10.1414 26.3468 9.86928 25.7095 9.86928C25.2735 9.86928 24.7872 10.2854 24.2505 11.1169C23.7134 11.9484 23.3277 12.8416 23.0933 13.7966V13.8456C23.0933 14.4062 23.181 14.9825 23.357 15.5748C23.5331 16.1676 23.6216 16.5792 23.6216 16.8097C23.6216 17.3695 22.9084 17.9211 21.4834 18.4644C21.2649 18.5464 21.0721 18.5883 20.9048 18.5883C20.4855 18.5883 20.1958 18.3735 20.0365 17.9458C19.8772 17.5181 19.7975 16.9377 19.7975 16.2046C19.7975 15.4719 19.8189 14.7808 19.8608 14.1304C19.9023 13.4801 19.9447 12.8795 19.9866 12.3271C20.0285 11.7755 20.0704 11.2898 20.1119 10.8699C20.1539 10.4501 20.1753 10.1088 20.1753 9.84499C20.1753 9.28559 19.9149 9.00527 19.3954 9.00527C18.8755 9.00527 18.2714 9.60213 17.5842 10.7954C16.8962 11.99 16.5528 12.9363 16.5528 13.6357C16.5528 14.3362 16.6409 14.9825 16.817 15.5748C16.993 16.1676 17.0811 16.5792 17.0811 16.8097C17.0811 17.3695 16.3679 17.9211 14.9428 18.4644C14.7248 18.5464 14.5315 18.5883 14.3643 18.5883C13.945 18.5883 13.6557 18.3735 13.4964 17.9458C13.4226 17.7482 13.3659 17.5011 13.3264 17.2048C12.987 17.4286 12.6288 17.6264 12.2515 17.7981C11.5639 18.1105 10.893 18.2665 10.239 18.2665C9.34974 18.2665 8.75522 17.5013 8.45293 15.9697C8.01648 16.6781 7.44628 17.2585 6.74234 17.7112C6.03797 18.1644 5.09463 18.3904 3.9123 18.3904C2.72956 18.3904 1.77825 18.0286 1.05712 17.3033C0.335983 16.5793 -0.0161988 15.698 0.000571723 14.6607C0.000571723 11.8625 0.947689 9.65614 2.84318 8.04174C3.64859 7.36708 4.39865 6.92253 5.09463 6.70848C5.79061 6.49444 6.52432 6.387 7.29576 6.387C8.06721 6.387 8.69611 6.51913 9.18245 6.78216C9.41724 6.30509 9.68557 6.06635 9.98744 6.06635C10.5744 6.06635 11.132 6.31703 11.6603 6.81962C12.1886 7.32222 12.4531 7.79476 12.4531 8.23932C12.2175 8.78308 11.8741 9.43345 11.4213 10.1908C11.2872 10.9478 11.2197 12.0102 11.2197 13.3768C11.2197 14.7438 11.3962 15.4263 11.7483 15.4263C12.0184 15.4263 12.5264 15.0983 13.2724 14.4418C13.3052 12.881 13.3923 11.7027 13.5341 10.907C13.7853 9.37533 14.3555 7.92681 15.2447 6.5598C15.5466 6.09919 15.8736 5.86868 16.2258 5.86868C16.7792 5.86868 17.2907 6.31324 17.7603 7.20235C17.8945 7.43327 17.9947 7.64691 18.0622 7.84449C18.8672 6.85659 19.8143 6.36222 20.9048 6.36222C21.6255 6.36222 22.2716 6.59685 22.8418 7.06651C23.4116 7.53577 23.6971 8.12439 23.6971 8.83198V9.10365C24.7197 7.85272 25.9695 7.22705 27.4449 7.22705C28.3509 7.22705 29.0385 7.45756 29.5077 7.91858C29.9772 8.37919 30.2124 8.94765 30.2124 9.62271C30.2124 10.2978 30.1621 10.907 30.0615 11.4507C29.9605 11.9933 29.8477 12.5037 29.7219 12.9816C29.5961 13.4591 29.4829 13.8826 29.3823 14.2531C29.2817 14.624 29.2309 14.9125 29.2309 15.1175C29.2309 15.3241 29.298 15.4262 29.4326 15.4262C29.6837 15.4262 29.994 15.2702 30.3634 14.9574C30.369 14.9526 30.3746 14.9479 30.3802 14.9431C30.2623 14.5002 30.2063 14.0275 30.2124 13.525C30.1957 11.5657 30.8246 9.878 32.0991 8.4616C33.3737 7.04602 35.0428 6.33802 37.1051 6.33802C38.0443 6.33802 38.799 6.45327 39.3692 6.68378C40.3586 7.07853 40.8534 7.449 40.8534 7.79476C40.8534 8.05862 40.1616 8.19445 38.7784 8.20268C37.3944 8.21092 36.2373 8.68017 35.3061 9.61003C34.3761 10.5403 33.9099 11.7134 33.9099 13.1303C33.9099 13.8708 34.1326 14.4919 34.577 14.9945C35.0214 15.4971 35.6503 15.7478 36.4637 15.7478C37.277 15.7478 37.952 15.5831 38.4887 15.2534C37.2976 14.4631 36.7026 13.3192 36.7026 11.8205C36.6854 11.0306 36.9752 10.3106 37.5705 9.65984C38.1659 9.00947 38.9289 8.68017 39.8597 8.67194C40.7905 8.66371 41.4567 8.9148 41.8596 9.42521C42.2621 9.93563 42.4633 10.5901 42.4633 11.3887C42.4633 12.1872 42.2705 13.0311 41.8847 13.9206H42.0357C42.7736 13.9037 43.4109 13.6485 43.9475 13.1541C44.1488 12.9566 44.3202 12.7837 44.4632 12.6359C44.6053 12.4877 44.7529 12.4136 44.9034 12.4136C45.1382 12.4136 45.2556 12.6857 45.2556 13.2282C45.2556 14.233 44.9538 14.9863 44.35 15.4881C43.7463 15.9907 43.0796 16.2413 42.3501 16.2413C41.6206 16.2413 41.0043 16.1923 40.5012 16.0936C39.1763 17.6252 37.5869 18.3904 35.7341 18.3904C33.8806 18.3904 32.4928 17.9249 31.5708 16.9946C31.529 16.9524 31.488 16.9097 31.4481 16.8665C30.3417 17.7997 29.1664 18.2664 27.9233 18.2664C26.7154 18.2664 26.112 17.1884 26.112 15.0315C26.112 14.4881 26.2039 13.7386 26.3887 12.7836C26.5728 11.8294 26.6655 11.1293 26.6655 10.6843ZM3.69848 13.8457C3.69848 15.1143 4.17686 15.7478 5.13236 15.7478C6.15495 15.7317 7.00228 15.1962 7.6731 14.1424C7.90789 13.7806 8.10075 13.3361 8.25169 12.8084C8.25169 10.9647 8.41939 9.38446 8.75522 8.06644C7.39639 8.33029 6.21406 8.97243 5.20783 9.99285C4.2016 11.0141 3.69848 12.2988 3.69848 13.8457ZM40.7028 11.4998C40.7028 12.0592 40.5599 12.6359 40.2748 13.2282C39.8387 12.8005 39.6207 12.2572 39.6207 11.5986C39.6207 11.401 39.671 11.1952 39.7717 10.9812C39.8723 10.7671 39.9981 10.6601 40.149 10.6601C40.5175 10.6601 40.7028 10.94 40.7028 11.4998Z" fill="#C8C9CB"/>
<path fill-rule="evenodd" clip-rule="evenodd" d="M56.6422 10.0475C57.3432 7.89832 58.0721 6.23912 58.8303 5.06962C58.9972 4.82305 59.2404 4.56826 59.5598 4.3044C59.8785 4.04096 60.2223 3.90924 60.5908 3.90924C60.8088 3.90924 60.9183 4.18956 60.9183 4.74896C60.9183 5.30836 60.8839 5.83565 60.8176 6.32961C60.6663 7.28458 60.4738 8.17369 60.2386 8.99694C59.6353 11.2358 59.333 12.5447 59.333 12.9234V16.554C59.333 17.4431 58.9892 18.0527 58.3021 18.3824C57.9826 18.5302 57.6773 18.6702 57.3834 18.8019C57.09 18.934 56.7583 18.9999 56.3898 18.9999C55.6858 18.9999 55.3337 18.2054 55.3337 16.6161C55.3337 16.5399 55.3345 16.4626 55.3363 16.3844C54.6745 17.0266 53.8798 17.5888 52.9517 18.0696C51.797 18.6685 50.4378 18.9677 48.8731 18.9677C47.3067 18.9677 45.9361 18.4548 44.7597 17.4266C43.5815 16.3984 42.9941 14.9149 42.9941 12.9765C42.9941 11.0394 43.27 9.28258 43.8234 7.70852C44.3765 6.13446 45.106 4.77486 46.0124 3.63013C46.9185 2.48499 47.9486 1.59382 49.1024 0.956619C50.2558 0.319422 51.3497 0 52.3857 0C54.1985 0 55.105 0.794438 55.105 2.38085C55.105 3.29219 54.9348 4.01994 54.5935 4.56658C54.251 5.1124 53.9046 5.38572 53.5516 5.38572C53.08 5.38572 52.6691 5.20419 52.3161 4.83908C51.9622 4.47561 51.574 4.28667 51.1501 4.27391C50.7258 4.26115 49.5753 4.22987 48.5968 5.77347C48.0332 6.66267 48.0056 6.74462 47.8677 7.15386C47.8383 7.24115 47.8039 7.34334 47.7582 7.47142C47.2409 8.92899 46.9373 10.0478 46.9373 11.9989C46.9608 12.9353 47.814 14.3682 48.5674 14.8371C49.0852 15.1487 49.7024 15.4109 50.4038 15.324C51.9165 15.1375 52.7655 14.4333 53.3839 13.7829C53.9385 13.1992 54.429 12.645 54.9538 12.052L54.9993 12.0005C55.5398 11.3897 56.0165 10.8245 56.4295 10.3034C56.5036 10.2097 56.5745 10.1244 56.6422 10.0475ZM68.1883 18.2334C68.7785 17.9658 69.3226 17.6332 69.8204 17.2364C69.9185 18.412 70.3301 19 71.0551 19C71.3909 19 71.7054 18.9337 71.9984 18.802C72.2915 18.6703 72.598 18.5303 72.9175 18.3826C73.6042 18.0528 73.9484 17.4111 73.9484 16.4562C73.9484 15.9947 73.7887 15.0072 73.4701 13.492L73.4956 13.0224C73.5963 12.5128 73.7388 11.9114 73.9229 11.2199C74.6281 8.55252 75.4238 6.58536 76.3131 5.31714C77.2015 4.04933 78.1 3.41543 79.0056 3.41543C79.5083 3.41543 79.8483 3.61301 80.0244 4.00776C80.2005 4.40333 80.2881 4.94626 80.2881 5.63821C80.2718 7.00481 79.8605 9.0794 79.0555 11.8616C78.7536 12.9153 78.4773 13.9115 78.2253 14.8504C77.9729 15.7889 77.8476 16.5302 77.8476 17.0736C77.8476 17.6161 77.9394 18.0738 78.1247 18.4435C78.3096 18.8139 78.5947 19 78.9804 19C79.6345 19 80.2257 18.781 80.7539 18.3455C81.2822 17.9088 81.5459 17.4272 81.5459 16.8999C81.5459 16.6369 81.5296 16.3903 81.496 16.1594L81.4485 15.8344C81.4306 15.7123 81.4128 15.5902 81.395 15.4678C81.4625 13.4591 82.0738 11.401 83.2318 9.29303C83.7345 8.3714 84.2711 7.61401 84.8418 7.02127C85.4115 6.42853 85.9482 6.13175 86.4517 6.13175C86.7368 6.13175 86.9293 6.23465 87.0299 6.44047C87.1305 6.64669 87.1812 6.93895 87.1812 7.31764C87.1641 8.20675 86.8374 9.74665 86.2002 11.9361C85.9654 12.7593 85.7474 13.5497 85.5461 14.3071C85.3444 15.0644 85.2438 15.7436 85.2438 16.3442C85.2438 16.9456 85.4576 17.4893 85.8857 17.9746C86.3134 18.4604 86.9087 18.7032 87.6718 18.7032C88.434 18.7032 89.1598 18.5472 89.8478 18.2336C90.5345 17.9215 91.1592 17.5223 91.7219 17.0357C92.2837 16.5508 92.7407 16.0157 93.0929 15.4312C93.445 14.8467 93.6211 14.3482 93.6211 13.9366C93.6211 13.1792 93.4786 12.8005 93.1935 12.8005C93.0593 12.8005 92.8413 12.9652 92.539 13.294C90.862 15.0072 89.8008 15.8626 89.3572 15.8626C88.9124 15.8626 88.6906 15.5502 88.6906 14.9245C88.6906 14.5787 88.7698 14.0885 88.9296 13.455C89.0885 12.8215 89.34 11.7756 89.6838 10.318C90.0276 8.86124 90.1995 7.58931 90.1995 6.50262C90.1995 3.99993 89.1434 2.74859 87.0299 2.74859C85.5369 2.74859 84.2456 3.48911 83.1559 4.97096V4.77338C83.1731 4.13166 83.1312 3.53068 83.0305 2.97087C82.7282 1.02841 81.5459 0.0565574 79.4831 0.0565574C77.5872 0.0565574 76.0192 1.20129 74.7786 3.48911C74.745 3.0285 74.6943 2.59217 74.6281 2.18055C74.3593 0.797484 73.4701 0.105953 71.9607 0.105953C70.7876 0.105953 69.7893 0.401912 68.968 0.995065C68.5878 1.2511 68.2921 1.53965 68.0809 1.86066C67.8022 1.59505 67.4774 1.35588 67.1066 1.14312C65.8316 0.418655 64.2137 0.0523079 62.2515 0.0440753C60.2894 0.0358428 58.528 0.56684 56.9688 1.63666C56.3483 2.06516 55.8783 2.49325 55.5596 2.92134C55.241 3.34984 55.0821 3.65856 55.0821 3.8475C55.0821 4.03685 55.233 4.13152 55.5349 4.13152C55.8364 4.13152 56.1592 4.04096 56.503 3.85985C56.8468 3.67873 57.2409 3.48115 57.6853 3.26711C58.1293 3.05347 58.6622 2.85548 59.2831 2.67437C59.9028 2.49325 60.7963 2.40269 61.9618 2.40269C63.1278 2.40269 64.012 2.66572 64.6157 3.19301C65.2199 3.7199 65.5214 4.42419 65.5214 5.30466C65.5214 6.18554 65.3746 6.88489 65.0816 7.40354C64.7876 7.9226 64.4061 8.37127 63.9365 8.74997C63.5848 8.53592 63.1856 8.42849 62.7421 8.42849C62.2972 8.42849 61.9027 8.51163 61.5597 8.67546C61.2155 8.84011 61.0436 9.10808 61.0436 9.47854C61.0436 9.84901 61.2076 10.1618 61.5342 10.4171C61.8616 10.6727 62.2423 10.841 62.6787 10.9234C62.8632 11.5494 63.0473 12.6485 63.2326 14.2201C63.4167 15.7929 63.6519 16.8594 63.9365 17.4192C64.1382 17.814 64.4149 18.1268 64.7671 18.3573C65.1193 18.5882 65.6056 18.7031 66.2261 18.7031C66.8462 18.7031 67.5003 18.5471 68.1883 18.2334ZM69.823 14.332C69.881 14.275 69.9381 14.2185 69.9943 14.1628C70.2048 12.4837 70.5839 10.2349 71.1314 7.41602C71.4492 5.76993 71.6089 4.84788 71.6089 4.6503C71.6089 3.31664 71.2647 2.6498 70.578 2.6498C70.3428 2.6498 70.1289 2.71607 69.9357 2.84738C69.7432 2.9791 69.5499 3.11864 69.3575 3.26724C69.2743 3.33099 69.1906 3.39322 69.1062 3.45393C69.2657 3.92214 69.3455 4.43613 69.3455 4.99594C69.3618 6.41234 68.9845 7.58918 68.213 8.52769C67.4416 9.4662 66.4861 10.1417 65.3453 10.5529C65.5972 11.0962 65.8023 11.6803 65.962 12.306C66.1205 12.9321 66.2765 13.5088 66.427 14.0352C66.5783 14.5625 66.7494 14.9984 66.9427 15.3442C67.1351 15.69 67.3703 15.8629 67.647 15.8629C67.9237 15.8629 68.2596 15.7027 68.6533 15.3813C69.0474 15.0602 69.4373 14.7107 69.823 14.332ZM97.4827 18.3905C98.8734 18.3905 100.001 17.284 100.001 15.9191C100.001 14.5541 98.8738 13.4477 97.4835 13.4477C96.0941 13.4468 94.9663 14.5533 94.9663 15.9182C94.9663 17.2832 96.0932 18.3896 97.4827 18.3905Z" fill="#8CD7F8"/>
</svg>
