<svg width="121" height="32" viewBox="0 0 121 32" fill="none" xmlns="http://www.w3.org/2000/svg">
<path d="M40.7423 6.77734H49.3412L49.5173 9.93683H49.0034C48.9562 9.48769 48.8677 9.04382 48.7393 8.61083C48.6571 8.3153 48.4998 8.04604 48.2828 7.82914C48.0658 7.63737 47.8002 7.5092 47.515 7.45876C47.1259 7.38915 46.7309 7.35762 46.3357 7.36463H45.742V16.839H47.3553V17.4263H42.6996V16.839H44.3129V7.36668H43.756C43.4387 7.36668 43.1582 7.37896 42.9125 7.40351C42.6938 7.42196 42.4784 7.46874 42.2717 7.54266C42.0968 7.60522 41.936 7.70191 41.7988 7.8271C41.6578 7.96155 41.5432 8.12118 41.461 8.29774C41.358 8.51801 41.2784 8.74845 41.2235 8.9853C41.1496 9.29995 41.0922 9.61824 41.0515 9.93888H40.5376L40.7423 6.77734Z" fill="black"/>
<path d="M53.6099 7.36668V16.841H55.0738V17.4283H50.7129V16.839H52.1788V7.36668H50.7129V6.77734H55.0738V7.36668H53.6099Z" fill="black"/>
<path d="M66.7441 16.839V7.55494H66.7073L62.891 17.5368H62.3116L58.7349 7.57131H58.698V16.841H60.0165V17.4283H56.5708V16.839H58.0367V7.36668H56.5708V6.77734H59.9653L63.0241 15.2572H63.0589L66.3142 6.77734H69.6432V7.36668H68.1773V16.841H69.6432V17.4283H65.4215V16.839H66.7441Z" fill="black"/>
<path d="M74.1 7.36668V16.841H75.566V17.4283H71.2051V16.839H72.6812V7.36668H71.2153V6.77734H75.5762V7.36668H74.1Z" fill="black"/>
<path fill-rule="evenodd" clip-rule="evenodd" d="M46.5875 21.3225C45.9173 21.1618 45.2293 21.0875 44.5402 21.1015L40.5376 21.1036V21.6909H42.0035V31.1652H40.5376V31.7525H44.9742V31.1652H43.4346V27.3407H44.446C45.1734 27.3598 45.8993 27.2659 46.5978 27.0624C47.099 26.9133 47.5635 26.661 47.9613 26.3216C48.2844 26.0385 48.5303 25.678 48.6758 25.2739C48.8118 24.888 48.881 24.4819 48.8806 24.0727C48.8856 23.6623 48.8098 23.2548 48.6574 22.8736C48.5016 22.5012 48.2485 22.1775 47.9245 21.9364C47.524 21.6452 47.0695 21.4365 46.5875 21.3225ZM44.3354 26.7514H43.4346L43.4326 21.6929H44.4562C44.9432 21.6815 45.4299 21.7282 45.9058 21.8321C46.2305 21.8996 46.5323 22.0497 46.782 22.2679C46.9944 22.4716 47.143 22.7325 47.2099 23.0189C47.3744 23.7968 47.3618 24.6018 47.1731 25.3742C47.0887 25.6879 46.9177 25.9715 46.6797 26.1927C46.4127 26.4125 46.0943 26.561 45.7543 26.6245C45.2873 26.7177 44.8116 26.7602 44.3354 26.7514Z" fill="black"/>
<path fill-rule="evenodd" clip-rule="evenodd" d="M56.1182 21.2773C55.4711 21.1495 54.8123 21.0905 54.1527 21.1014L50.1133 21.1034V21.6907H51.5792V31.1876H50.1133V31.7749H54.5458V31.1876H53.0042V26.52H54.3841C54.6961 26.5077 55.0073 26.5585 55.2992 26.6693C55.5292 26.7747 55.7177 26.9532 55.8356 27.1768C55.9867 27.4726 56.0903 27.7902 56.1428 28.1181C56.2165 28.5083 56.2902 28.9919 56.3639 29.5689C56.413 29.9618 56.4642 30.3029 56.5174 30.5921C56.5582 30.8479 56.6516 31.0924 56.7918 31.3103C56.928 31.5063 57.123 31.6539 57.3486 31.7319C57.6722 31.8337 58.0108 31.8794 58.3498 31.8669H58.6037C58.6917 31.8628 58.8043 31.8567 58.8964 31.8506C58.9886 31.8444 59.095 31.8322 59.1933 31.8178C59.2916 31.8035 59.3817 31.7871 59.4656 31.7667V31.2019C59.3673 31.2183 59.2773 31.2326 59.1974 31.2326H59.0111C58.8095 31.245 58.6102 31.1839 58.4501 31.0607C58.3041 30.9296 58.1942 30.7634 58.1307 30.5778C58.0443 30.3375 57.9812 30.0894 57.9424 29.837L57.9381 29.8098C57.8941 29.5299 57.8442 29.2125 57.7847 28.8875C57.7233 28.5519 57.6558 28.2429 57.58 27.9606C57.5112 27.6965 57.405 27.4436 57.2647 27.2096C57.129 26.9896 56.9491 26.8001 56.7365 26.653C56.4837 26.4868 56.2016 26.3701 55.9053 26.3092V26.2785C56.2754 26.204 56.6322 26.0743 56.9637 25.8938C57.2492 25.7362 57.5038 25.5282 57.7151 25.2799C57.9139 25.0498 58.0668 24.7837 58.1655 24.4962C58.2673 24.2013 58.3185 23.8914 58.317 23.5794C58.325 23.2275 58.255 22.8781 58.1123 22.5563C57.9561 22.235 57.7119 21.9646 57.408 21.7766C57.0117 21.5338 56.5747 21.3647 56.1182 21.2773ZM53.9848 25.9102H53.0082V21.6927H54.0647C54.5202 21.6839 54.9755 21.7195 55.4241 21.7991C55.7187 21.8475 55.9986 21.9615 56.2431 22.1327C56.4396 22.2799 56.5832 22.4866 56.6525 22.722C56.732 23.007 56.7692 23.3021 56.7631 23.5978C56.7704 23.9532 56.7249 24.3077 56.628 24.6496C56.5451 24.9281 56.3846 25.1772 56.1653 25.3679C55.9154 25.5697 55.6215 25.7099 55.3074 25.7772C54.8734 25.874 54.4294 25.9186 53.9848 25.9102Z" fill="black"/>
<path fill-rule="evenodd" clip-rule="evenodd" d="M60.7187 24.1647C60.4731 24.9267 60.3535 25.7236 60.3645 26.524C60.3563 27.2959 60.4717 28.0641 60.7064 28.7995C60.9035 29.4316 61.2235 30.0185 61.6482 30.5266C62.0483 30.9959 62.5495 31.3687 63.1141 31.6173C64.3735 32.142 65.7933 32.1264 67.0409 31.5743C67.6248 31.2976 68.1396 30.8943 68.5478 30.3936C68.974 29.8598 69.2937 29.2492 69.4895 28.5949C69.7126 27.8572 69.8224 27.09 69.8151 26.3194C69.8228 25.5509 69.7074 24.7862 69.4732 24.0542C69.2756 23.4242 68.9555 22.8393 68.5314 22.3332C68.1318 21.8635 67.6324 21.4888 67.0696 21.2364C66.4723 20.9745 65.8259 20.8434 65.1737 20.8517C64.5065 20.8445 63.8455 20.9798 63.2349 21.2487C62.6501 21.5084 62.1305 21.895 61.7137 22.3803C61.2692 22.9048 60.9312 23.5109 60.7187 24.1647ZM62.0617 28.2511C61.9854 27.6643 61.9498 27.0728 61.9553 26.4811C61.952 25.8754 61.991 25.2703 62.072 24.6701C62.129 24.2158 62.2333 23.7686 62.3832 23.3359C62.4967 23.0036 62.6611 22.6909 62.8704 22.4089C63.0453 22.1771 63.2619 21.98 63.5092 21.8278C63.7445 21.6858 64.002 21.5841 64.2708 21.527C64.5528 21.4671 64.8404 21.4376 65.1287 21.439C65.414 21.438 65.6987 21.4661 65.9783 21.5229C66.2422 21.5774 66.4944 21.6778 66.7236 21.8196C66.9605 21.9729 67.1684 22.1669 67.3378 22.3926C67.5416 22.6691 67.7011 22.9756 67.8107 23.3011C67.9536 23.7259 68.0538 24.164 68.1096 24.6087C68.1861 25.1955 68.2216 25.787 68.2161 26.3787C68.2211 26.9821 68.1848 27.5851 68.1076 28.1836C68.0487 28.6378 67.9437 29.0848 67.7943 29.5178C67.6827 29.8509 67.5182 30.1639 67.3071 30.4447C66.9661 30.9009 66.4691 31.2156 65.9108 31.3287C65.6297 31.3852 65.3437 31.4133 65.057 31.4126C64.771 31.4135 64.4856 31.3854 64.2053 31.3287C63.657 31.2177 63.1691 30.908 62.8356 30.4591C62.6303 30.185 62.4706 29.8796 62.3627 29.5546C62.2178 29.1316 62.1169 28.6948 62.0617 28.2511Z" fill="black"/>
<path fill-rule="evenodd" clip-rule="evenodd" d="M77.1198 21.3225C76.4496 21.1617 75.7615 21.0875 75.0724 21.1015L71.0698 21.1036V21.6909H72.5357V31.1652H71.0698V31.7525H75.5064V31.1652H73.9668V27.3407H74.9782C75.7062 27.3598 76.4328 27.2659 77.1321 27.0624C77.6333 26.9133 78.0978 26.661 78.4956 26.3216C78.8187 26.0385 79.0646 25.678 79.2101 25.2739C79.3461 24.8881 79.4153 24.4819 79.4149 24.0728C79.4199 23.6623 79.3441 23.2548 79.1917 22.8736C79.0359 22.5012 78.7827 22.1775 78.4587 21.9364C78.0577 21.6448 77.6025 21.4361 77.1198 21.3225ZM74.8677 26.7514H73.9648L73.9607 21.6929H74.9844C75.4707 21.6814 75.9566 21.7281 76.4319 21.8321C76.7569 21.8987 77.0589 22.049 77.3081 22.2679C77.5218 22.4709 77.6712 22.732 77.7381 23.0189C77.8997 23.7971 77.8872 24.6014 77.7012 25.3742C77.6162 25.6881 77.4445 25.9717 77.2058 26.1927C76.9412 26.4126 76.6247 26.5612 76.2865 26.6245C75.8195 26.7175 75.3438 26.76 74.8677 26.7514Z" fill="black"/>
<path d="M83.1226 25.9307H84.0828C84.3563 25.9332 84.6297 25.9209 84.9018 25.8939C85.0958 25.8809 85.2813 25.8096 85.4341 25.6893C85.5861 25.5451 85.6922 25.3593 85.7391 25.1552C85.821 24.8197 85.8697 24.477 85.8845 24.132H86.4066V28.4702H85.8845C85.8715 28.1168 85.8297 27.765 85.7596 27.4184C85.7215 27.2017 85.6228 27.0003 85.475 26.8372C85.3294 26.6985 85.1426 26.6109 84.9427 26.5876C84.6571 26.5492 84.369 26.5321 84.0808 26.5364H83.1226V31.1672H85.0656C85.4464 31.1672 85.7821 31.1529 86.0708 31.1242C86.3282 31.1007 86.5818 31.0464 86.8263 30.9626C87.0307 30.8908 87.2187 30.7788 87.3791 30.6331C87.5445 30.4754 87.6798 30.2889 87.7783 30.0827C87.9044 29.8215 88.0005 29.5469 88.0649 29.2642C88.1427 28.9429 88.2164 28.5602 88.284 28.1203H88.7979L88.6505 31.7504H80.2358V31.1631H81.7017V21.6908H80.2358V21.1035H88.4765L88.6239 24.042H88.11C88.0559 23.6375 87.9648 23.2389 87.8377 22.8511C87.7505 22.5775 87.5955 22.3305 87.3873 22.1328C87.1719 21.9493 86.9108 21.8277 86.6318 21.7808C86.243 21.7147 85.8489 21.6846 85.4546 21.6908H83.1226V25.9307Z" fill="black"/>
<path fill-rule="evenodd" clip-rule="evenodd" d="M96.8911 21.2773C96.2447 21.1496 95.5866 21.0906 94.9277 21.1013L90.8862 21.1034V21.6907H92.3542V31.1875H90.8862V31.7748H95.3167V31.1875H93.7771V26.5199H95.155C95.4676 26.5077 95.7796 26.5585 96.0722 26.6693C96.302 26.7742 96.4901 26.9528 96.6065 27.1768C96.7593 27.472 96.8636 27.7898 96.9157 28.1181C96.9894 28.5089 97.0611 28.9919 97.1348 29.5689C97.1839 29.9618 97.2351 30.3029 97.2883 30.5921C97.3298 30.848 97.4239 31.0926 97.5647 31.3103C97.7009 31.5063 97.8959 31.6539 98.1216 31.7319C98.4451 31.8339 98.7838 31.8796 99.1227 31.8669H99.3746C99.4626 31.8628 99.5732 31.8567 99.6673 31.8505C99.7615 31.8444 99.87 31.8321 99.9663 31.8178C100.062 31.8035 100.153 31.7871 100.237 31.7666V31.2019C100.138 31.2182 100.05 31.2326 99.9683 31.2326H99.782C99.5804 31.2446 99.3812 31.1835 99.221 31.0607C99.075 30.9296 98.9651 30.7633 98.9016 30.5777C98.8159 30.3374 98.7535 30.0893 98.7153 29.837C98.707 29.7865 98.6986 29.7351 98.69 29.6828C98.6499 29.4384 98.6066 29.1741 98.5577 28.8875C98.4976 28.5519 98.4294 28.2429 98.3529 27.9605C98.2842 27.6965 98.178 27.4436 98.0376 27.2095C97.9032 26.9892 97.7239 26.7996 97.5115 26.6529C97.258 26.4867 96.9752 26.3701 96.6782 26.3092V26.2785C97.049 26.204 97.4065 26.0743 97.7387 25.8938C98.0239 25.7356 98.2783 25.5277 98.4901 25.2799C98.6882 25.0492 98.841 24.7833 98.9405 24.4961C99.0416 24.2012 99.0922 23.8912 99.09 23.5794C99.0989 23.2274 99.029 22.8778 98.8853 22.5563C98.7299 22.2351 98.4863 21.9647 98.183 21.7766C97.7861 21.5335 97.3484 21.3643 96.8911 21.2773ZM94.7578 25.9101H93.7832V21.6927H94.8397C95.2952 21.6839 95.7505 21.7196 96.1991 21.7991C96.4938 21.8471 96.7738 21.9611 97.0181 22.1327C97.2145 22.2799 97.3581 22.4866 97.4275 22.722C97.507 23.007 97.5442 23.3021 97.5381 23.5978C97.5448 23.9533 97.4986 24.3078 97.4009 24.6496C97.3188 24.9279 97.159 25.1771 96.9403 25.3679C96.6904 25.5697 96.3965 25.7099 96.0824 25.7771C95.6477 25.8738 95.203 25.9185 94.7578 25.9101Z" fill="black"/>
<path d="M101.064 21.1013H109.663L109.839 24.2608H109.329C109.282 23.8117 109.193 23.3678 109.065 22.9348C108.983 22.6393 108.825 22.37 108.608 22.1531C108.391 21.9613 108.126 21.8332 107.841 21.7827C107.451 21.7131 107.056 21.6816 106.661 21.6886H106.053V31.163H107.667V31.7503H103.013V31.163H104.62V21.6907H104.063C103.746 21.6907 103.465 21.7029 103.22 21.7275C103.001 21.7457 102.785 21.7925 102.579 21.8666C102.404 21.9292 102.243 22.0259 102.106 22.1511C101.965 22.2855 101.85 22.4451 101.768 22.6217C101.665 22.842 101.585 23.0724 101.531 23.3093C101.456 23.6237 101.398 23.9421 101.359 24.2629H100.845L101.064 21.1013Z" fill="black"/>
<path d="M110.535 21.1013H114.898V21.6907H113.548L116.261 25.9326L118.923 21.6907H117.537V21.1034H120.96V21.6907H119.715L116.576 26.6591V31.1609H118.19V31.7482H113.542V31.1609H115.154V26.876L111.833 21.6907H110.535V21.1013Z" fill="black"/>
<path fill-rule="evenodd" clip-rule="evenodd" d="M30.7209 1.41189L31.0259 1.84161H31.1795L30.8539 1.38324C30.9442 1.35772 31.0234 1.30303 31.0791 1.22772C31.1392 1.14916 31.1703 1.05232 31.1672 0.953516C31.1742 0.825031 31.1204 0.700727 31.0218 0.617922C30.9048 0.52868 30.7591 0.485693 30.6123 0.497191H30.1128V1.84161H30.2541V1.41189H30.6123C30.6485 1.41398 30.6847 1.41398 30.7209 1.41189ZM31.0198 0.953516C31.0252 1.04716 30.9866 1.13797 30.9154 1.19907C30.8275 1.26393 30.7192 1.29515 30.6103 1.28706H30.2541V0.61383H30.6103C30.7198 0.606909 30.828 0.639596 30.9154 0.705913C30.9872 0.767461 31.0258 0.859167 31.0198 0.953516Z" fill="black"/>
<path fill-rule="evenodd" clip-rule="evenodd" d="M29.4819 1.16434C29.4819 1.80739 30.0035 2.32869 30.6469 2.32869C31.2898 2.32756 31.8107 1.80693 31.8118 1.16434C31.8118 0.521295 31.2903 0 30.6469 0C30.0035 0 29.4819 0.521295 29.4819 1.16434ZM29.6789 0.762768C29.8414 0.372098 30.2235 0.117857 30.6469 0.118685C31.2239 0.119814 31.691 0.587641 31.691 1.16434C31.691 1.58746 31.4359 1.96887 31.0447 2.1306C30.6535 2.29233 30.2034 2.20249 29.9043 1.90301C29.6053 1.60353 29.5163 1.15344 29.6789 0.762768Z" fill="black"/>
<path d="M16.5835 28.112V23.2766L14.7408 24.4287L12.8982 23.2766V28.112H10.1343V31.7954H19.3474V28.112H16.5835Z" fill="black"/>
<path d="M11.0559 14.76V7.85376H7.37061V12.4579L11.0559 14.76Z" fill="black"/>
<path d="M11.0559 22.1267L7.37061 19.8206V26.2705H11.0559V22.1267Z" fill="black"/>
<path d="M5.52802 6.01195H12.8985V15.9099L14.7411 17.062L16.5838 15.9099V6.01195H23.9542V11.3078L27.6395 9.00569V2.32861H1.84277V9.00569L5.52802 11.3078V6.01195Z" fill="black"/>
<path d="M22.1115 12.4579V7.85376H18.4263V14.76L22.1115 12.4579Z" fill="black"/>
<path d="M22.1115 19.8206L18.4263 22.1267V26.2705H22.1115V19.8206Z" fill="black"/>
<path d="M29.482 13.3787V9.69531L14.741 18.9037L0 9.69531V13.3787L1.84262 14.5287V28.112H0V31.7953H8.2918V28.112H5.52787V16.8308L14.741 22.587L23.9541 16.8308V28.112H21.1902V31.7953H29.482V28.112H27.6393V14.5287L29.482 13.3787Z" fill="black"/>
</svg>
