<svg width="87" height="40" viewBox="0 0 87 40" fill="none" xmlns="http://www.w3.org/2000/svg">
<path d="M86.9997 11.4053V32.0367L84.1504 34.8163V14.6407L86.9997 11.4051" fill="#EB7D1A"/>
<path fill-rule="evenodd" clip-rule="evenodd" d="M65.3281 14.6408H84.1962V34.841H65.3281V29.9463L65.8964 28.3641L65.3281 23.9893V14.6408Z" fill="#FFB111"/>
<path fill-rule="evenodd" clip-rule="evenodd" d="M79.6597 19.3869C80.3906 20.1289 80.9434 20.9699 81.3168 21.9079C81.6905 22.8462 81.8772 23.8667 81.8772 24.9671C81.8772 26.0674 81.6905 27.0896 81.3168 28.0306C80.9434 28.9725 80.3906 29.8181 79.6592 30.5678C78.9593 31.2679 78.1711 31.7975 77.2989 32.1548C76.4271 32.5119 75.4885 32.6907 74.4873 32.6907C73.4489 32.6907 72.4918 32.5119 71.6196 32.1548C70.7478 31.7973 69.9701 31.2673 69.292 30.5668C68.5685 29.8179 68.0209 28.9696 67.6519 28.0248C67.2812 27.0803 67.0977 26.0601 67.0977 24.9671C67.0977 23.8597 67.2807 22.8361 67.6461 21.8975C68.0116 20.9599 68.5621 20.1219 69.292 19.3873C69.9849 18.6739 70.7708 18.1352 71.6465 17.7738C72.5222 17.4125 73.4711 17.2321 74.4873 17.2324C75.4966 17.2321 76.4362 17.4126 77.3055 17.7741C78.1736 18.1353 78.9601 18.6737 79.6597 19.3869ZM74.4859 29.873C75.7425 29.8716 76.7161 29.438 77.439 28.5645C78.1612 27.6922 78.5264 26.4978 78.5264 24.9701C78.5264 23.406 78.1603 22.1924 77.439 21.3159C76.7157 20.4393 75.7425 20.0046 74.4859 20.003C73.214 20.0046 72.2336 20.4397 71.511 21.3159C70.7901 22.1924 70.4246 23.406 70.4242 24.9701C70.4246 26.5049 70.7915 27.7007 71.5163 28.5704C72.2432 29.4395 73.2207 29.8716 74.4859 29.873Z" fill="white"/>
<path d="M68.2835 11.4193L65.3281 14.6412L84.1962 14.6412L86.9995 11.4057L68.2831 11.4193" fill="#FFE500"/>
<path d="M44.9149 12.304L63.4746 9.72452L61.9217 14.1739L45.2371 16.4492L44.502 13.519L44.9149 12.304Z" fill="#93D4FD"/>
<path d="M44.2832 21.3216L45.6705 18.1727L45.2372 16.4492L61.9212 14.1732L64.4929 32.2705L46.1924 34.8414L44.2832 21.3216Z" fill="#0070B6"/>
<path d="M57.31 16.0324C57.2195 16.0324 57.1263 16.0397 57.0296 16.0538C56.5545 16.122 56.1906 16.3421 55.9676 16.7053C55.8054 16.9678 55.7267 17.2844 55.7267 17.6486C55.7267 17.7881 55.7383 17.935 55.7611 18.0892L56.4287 22.7981L51.1667 23.5723L50.4992 18.8625C50.4184 18.315 50.2291 17.8905 49.9222 17.602C49.6744 17.368 49.3653 17.2484 49.0168 17.2493C48.9346 17.2493 48.8501 17.2559 48.7638 17.2685C48.2685 17.3399 47.8913 17.5558 47.6623 17.9136C47.4962 18.1714 47.416 18.4896 47.416 18.8595C47.416 19.0016 47.4281 19.1517 47.451 19.3101L49.2515 31.5566C49.3341 32.1197 49.5311 32.5476 49.8549 32.8242C50.1074 33.0402 50.424 33.1489 50.7866 33.1482C50.8856 33.1482 50.9887 33.1405 51.095 33.1247C51.548 33.0592 51.898 32.84 52.109 32.4773C52.2602 32.2194 52.3338 31.9096 52.3338 31.555C52.3338 31.4131 52.3222 31.2643 52.2991 31.1086L51.5634 26.2701L56.8251 25.4969L57.5613 30.3353C57.6423 30.891 57.8373 31.3164 58.1566 31.5966C58.4102 31.8196 58.7237 31.9318 59.079 31.9312C59.1703 31.9312 59.2639 31.9243 59.3605 31.91C59.8338 31.8412 60.1963 31.6244 60.4127 31.2641C60.5687 31.0071 60.6439 30.6954 60.6439 30.3361C60.6439 30.1939 60.6325 30.0444 60.6094 29.8873L58.8089 17.6413C58.7263 17.0793 58.5343 16.6505 58.2231 16.3695C57.9758 16.1452 57.6646 16.0318 57.31 16.0324Z" fill="white"/>
<path d="M63.4747 9.72404L63.4891 9.8333L65.8961 28.3641L64.493 32.2705L61.9219 14.1732" fill="#079CE3"/>
<path d="M29.2393 10.7596L45.6702 18.1727L38.2563 35L21.9121 27.6272L21.9926 27.198L29.2393 10.7596Z" fill="#008F4C"/>
<path fill-rule="evenodd" clip-rule="evenodd" d="M34.0513 14.8979L34.0942 14.8977C35.0242 14.8977 35.9471 15.0911 36.8599 15.4788C37.7795 15.8687 38.5637 16.4041 39.2092 17.0848C39.8545 17.7653 40.3527 18.5821 40.7022 19.5331C41.0324 20.428 41.1973 21.3429 41.1973 22.2765C41.1973 22.3762 41.1955 22.476 41.1917 22.5761C41.1519 23.6145 40.9094 24.6583 40.4645 25.7067C40.0193 26.7553 39.4371 27.658 38.7169 28.4109C37.9963 29.163 37.1513 29.7573 36.1825 30.1895L35.8737 30.3148C35.053 30.628 34.2241 30.7875 33.3891 30.7914L33.0166 30.7825C32.2043 30.7407 31.4012 30.5513 30.6089 30.2147L30.2988 30.0763C29.4862 29.6927 28.7898 29.199 28.2117 28.5958C27.561 27.9172 27.0676 27.1121 26.733 26.1821C26.4176 25.3011 26.2598 24.3994 26.2598 23.479C26.2598 23.3614 26.2622 23.2433 26.2675 23.1254C26.313 22.0825 26.5581 21.0398 26.9997 19.9975C27.4474 18.9429 28.0273 18.0376 28.7394 17.285C29.4514 16.5319 30.2906 15.9455 31.2536 15.5265L31.5607 15.3968C32.3811 15.07 33.2118 14.9034 34.0513 14.8979ZM35.7408 18.1144C35.2006 17.8852 34.6791 17.7723 34.1744 17.7723C33.5981 17.7723 33.0423 17.9202 32.5018 18.2181C31.4898 18.7756 30.6633 19.7939 30.0302 21.2864C29.6173 22.2597 29.4126 23.1544 29.4126 23.9699C29.4126 24.3816 29.4648 24.7734 29.5684 25.1462C29.8785 26.2573 30.5948 27.045 31.7447 27.5352C32.2761 27.76 32.7907 27.8715 33.2898 27.8715C33.8643 27.8713 34.4197 27.7244 34.9616 27.4275C35.9729 26.8734 36.7901 25.8731 37.4093 24.4151C37.8354 23.411 38.0458 22.4921 38.0458 21.6594C38.0458 21.255 37.996 20.871 37.897 20.5061C37.5926 19.39 36.8834 18.6005 35.7408 18.1144Z" fill="white"/>
<path d="M27.5332 5L29.2388 10.76L45.6695 18.1725L44.2883 12.6686L27.5332 5Z" fill="#97DCA5"/>
<path d="M18.3667 14.1473L21.0748 31.9556L2.91652 34.8023L0 16.9599L18.3663 14.1483" fill="#D71329"/>
<path d="M16.4165 29.1199C16.2734 28.949 16.0807 28.8227 15.8459 28.7405C15.6044 28.6563 15.3126 28.6158 14.9689 28.6158C14.6451 28.6158 14.2749 28.6518 13.8573 28.7234L9.06456 29.5424C9.11521 29.1731 9.29864 28.6878 9.62202 28.0964C9.98323 27.4338 10.5157 26.6379 11.219 25.7114L11.2194 25.711C11.4608 25.3885 11.6452 25.1421 11.7727 24.972C11.8643 24.8586 11.9918 24.6919 12.157 24.4715C13.2533 23.0335 13.9319 21.8627 14.1921 20.9437C14.341 20.4226 14.4316 19.8976 14.4644 19.3688C14.4733 19.2241 14.4774 19.0804 14.4774 18.9378C14.4774 18.5589 14.4464 18.1857 14.3836 17.8186C14.3265 17.484 14.2441 17.2057 14.1337 16.9823C14.0232 16.7595 13.883 16.5899 13.71 16.483C13.5148 16.3643 13.2402 16.3139 12.8809 16.3133C12.5844 16.3133 12.2287 16.3492 11.8123 16.4202L6.27366 17.3677C5.60293 17.4826 5.10764 17.68 4.79167 17.9774C4.54055 18.213 4.41083 18.5181 4.41212 18.8683C4.41212 18.9597 4.42046 19.0543 4.43738 19.1522C4.51529 19.6227 4.76053 19.9677 5.15594 20.1433C5.38931 20.2485 5.67132 20.2988 6.00046 20.2988C6.22466 20.2988 6.47095 20.2754 6.74005 20.2296L11.3758 19.448C11.3837 19.5299 11.3891 19.6116 11.3891 19.6927C11.3891 19.9823 11.3389 20.2651 11.2384 20.5435C11.1008 20.9271 10.757 21.4755 10.2091 22.1727C10.0539 22.363 9.81602 22.6595 9.49558 23.0613C8.24542 24.5755 7.35002 25.8664 6.8082 26.9402C6.8082 26.9407 6.8082 26.9407 6.80785 26.9411C6.80785 26.9411 6.80785 26.9416 6.80773 26.9416C6.42313 27.6807 6.15615 28.4088 6.00974 29.1254C5.92443 29.5434 5.88131 29.9448 5.88131 30.3299C5.88131 30.6056 5.9034 30.8725 5.9477 31.1309C6.01115 31.5015 6.10269 31.8074 6.22595 32.0496C6.34922 32.2908 6.50644 32.4711 6.70056 32.5778C6.88129 32.6758 7.14685 32.7147 7.51242 32.7157C7.97645 32.7157 8.60112 32.6474 9.39182 32.5125L14.4173 31.6533C15.3073 31.5003 15.9263 31.2881 16.2859 30.9927C16.5734 30.7567 16.7222 30.4327 16.7207 30.051C16.7207 29.9544 16.7118 29.8546 16.6938 29.7509C16.6516 29.5031 16.5596 29.2906 16.4165 29.1199Z" fill="white"/>
<path d="M0 16.9587L1.27518 10.6006L19.6094 7.66232L18.3668 14.1471L0 16.9587Z" fill="#FF3E34"/>
<path d="M19.6098 7.6622L22.298 25.6422L21.0754 31.9548L18.3672 14.147L19.6098 7.6622Z" fill="#740005"/>
<path d="M22.2985 25.6422L21.3906 19.578L27.5338 5L29.2394 10.76L21.9966 27.198L22.2985 25.6422Z" fill="#65C96A"/>
</svg>
