<svg width="42" height="32" viewBox="0 0 42 32" fill="none" xmlns="http://www.w3.org/2000/svg">
<path d="M39.6147 0.013936C39.8831 -0.00461966 40.1534 -0.00333996 40.4224 0.0100969C40.3883 0.163021 40.2152 0.120151 40.0994 0.141266C40.0968 0.413843 40.1238 0.689618 40.0878 0.960915C40.0607 0.974352 40.0067 1.00123 39.9797 1.01466C39.9655 0.72417 39.9764 0.433678 39.9687 0.143186C39.8445 0.122071 39.6649 0.16686 39.6147 0.013936Z" fill="black"/>
<path d="M40.5674 0.00244141C40.651 0.00308126 40.7347 0.00372111 40.8197 0.00564066C40.9065 0.214872 40.9844 0.427942 41.0642 0.640372C41.2148 0.457375 41.265 0.22063 41.3506 0.00564066C41.433 0.00692036 41.516 0.00820006 41.5997 0.0107595C41.5759 0.324286 41.6319 0.646771 41.5694 0.955179L41.4787 0.99293C41.4562 0.731871 41.4761 0.469532 41.4536 0.208473C41.3126 0.458015 41.2271 0.732511 41.1073 0.99165C40.9252 0.769622 40.8956 0.467613 40.7154 0.244945C40.6903 0.490647 40.7038 0.73827 40.6974 0.985252C40.6652 0.978213 40.6008 0.963497 40.5687 0.956459C40.5687 0.638453 40.5687 0.320447 40.5674 0.00244141Z" fill="black"/>
<path d="M35.0985 0.0880397C36.0594 0.0893194 37.0203 0.0835607 37.9818 0.0912389C37.9843 8.63196 37.9888 17.1727 37.9792 25.7134C37.0196 25.7153 36.06 25.7141 35.1011 25.7141C35.0908 17.172 35.0953 8.63004 35.0985 0.0880397Z" fill="black"/>
<path d="M1.68084 1.71147C2.76012 1.48112 3.93787 2.27134 4.0801 3.36868C4.09812 3.72188 4.12708 4.09107 3.99773 4.42828C3.81624 4.9344 3.42494 5.3663 2.93067 5.58769C2.34888 5.8577 1.6403 5.8449 1.07073 5.54865C0.523042 5.2716 0.133033 4.72261 0.0249115 4.12435C-0.0188519 3.69565 -0.0259313 3.23943 0.182588 2.84785C0.453535 2.2515 1.03726 1.826 1.68084 1.71147Z" fill="black"/>
<path d="M28.4549 1.71408C29.336 1.52853 30.3052 1.99178 30.7016 2.79799C31.062 3.49799 30.9713 4.39762 30.4757 5.01187C29.9139 5.74386 28.8314 5.98509 27.996 5.60502C27.4323 5.36955 27.012 4.85575 26.8627 4.27029C26.7172 3.78528 26.8016 3.2574 27.0146 2.80503C27.2894 2.24452 27.8364 1.82606 28.4549 1.71408Z" fill="black"/>
<path d="M0.792938 8.59873C1.75573 8.60193 2.71981 8.57762 3.68261 8.61153C3.67167 14.312 3.68583 20.0124 3.67553 25.7135C2.78932 25.7199 1.90376 25.7128 1.01755 25.7173C0.917792 25.7103 0.750462 25.7282 0.793581 25.5772C0.790364 19.9177 0.791651 14.2582 0.792938 8.59873Z" fill="black"/>
<path d="M8.43757 8.59363C13.1305 8.58979 17.8242 8.59491 22.5172 8.59171C22.5957 8.59683 22.7482 8.5642 22.7257 8.69537C22.7295 9.22452 22.7257 9.75368 22.727 10.2828C22.7385 10.3929 22.6768 10.4889 22.6118 10.5714C19.7054 14.1245 16.8163 17.691 13.9054 21.2403C13.3243 21.9422 12.7315 22.6371 12.1877 23.3678C15.7023 23.3799 19.2175 23.3652 22.7328 23.3748C22.7334 24.1439 22.7315 24.913 22.734 25.6828C17.9503 25.6911 13.1666 25.6892 8.38287 25.6834C8.38608 25.0698 8.37514 24.4555 8.3893 23.8419C8.38158 23.648 8.50322 23.4842 8.61584 23.3383C11.6632 19.6074 14.7067 15.8732 17.7508 12.1397C18.0752 11.7308 18.4221 11.3373 18.7162 10.906C15.2904 10.8926 11.8646 10.9067 8.43886 10.899C8.43435 10.1305 8.43628 9.36209 8.43757 8.59363Z" fill="black"/>
<path d="M27.4337 8.58024C28.3811 8.57896 29.3291 8.57704 30.2764 8.58088C30.2726 14.2935 30.2874 20.0054 30.2694 25.7174C29.4205 25.7186 28.5722 25.7161 27.724 25.7193C27.6275 25.7078 27.4975 25.7404 27.4344 25.647C27.4325 19.9581 27.4331 14.2692 27.4337 8.58024Z" fill="black"/>
<path d="M4.64014 30.4658C4.75856 30.4626 4.87633 30.4613 4.99539 30.4607C5.15114 30.771 5.25862 31.1018 5.39956 31.4192C5.62417 31.1517 5.66407 30.787 5.83719 30.4895C5.95046 30.4344 6.08562 30.4716 6.2079 30.4645C6.20661 30.9623 6.2079 31.4608 6.20661 31.9592C6.14096 31.9573 6.01032 31.9528 5.94467 31.9509C5.94403 31.5919 5.95304 31.2336 5.93566 30.8753C5.77219 31.2272 5.63768 31.5919 5.4903 31.9509C5.45684 31.9509 5.39055 31.9515 5.35773 31.9515C5.2097 31.6067 5.09772 31.2458 4.92074 30.9137C4.89178 31.2579 4.90787 31.6041 4.90722 31.9496C4.84093 31.9528 4.70836 31.9586 4.64207 31.9618C4.63949 31.4627 4.64271 30.9642 4.64014 30.4658Z" fill="black"/>
<path fill-rule="evenodd" clip-rule="evenodd" d="M8.44592 30.9316C8.32815 30.5662 7.90467 30.3608 7.53783 30.4536C7.1607 30.5163 6.8846 30.8945 6.95411 31.272C6.90906 31.7736 7.49986 32.1178 7.94715 31.9624C8.38028 31.8619 8.62677 31.3289 8.44592 30.9316ZM7.71031 31.7551C7.16971 31.7794 7.03005 30.9456 7.48763 30.73C7.67942 30.6065 7.93685 30.6769 8.08359 30.8362C8.35904 31.1459 8.18527 31.787 7.71031 31.7551Z" fill="black"/>
<path fill-rule="evenodd" clip-rule="evenodd" d="M9.42256 30.4638C9.35332 30.466 9.28419 30.4682 9.21533 30.469C9.21984 30.9636 9.21791 31.4589 9.21598 31.9541C9.26038 31.9531 9.30479 31.952 9.3492 31.9509C9.3936 31.9498 9.43801 31.9487 9.48242 31.9477C9.47984 31.7711 9.4792 31.5945 9.4792 31.4185C9.56801 31.4179 9.65683 31.4179 9.74629 31.4192C9.85827 31.5919 9.96253 31.7705 10.0655 31.949C10.1384 31.952 10.2114 31.9544 10.2843 31.9568C10.3208 31.958 10.3573 31.9592 10.3937 31.9605C10.3352 31.869 10.2768 31.7772 10.2183 31.6854C10.1599 31.5935 10.1015 31.5017 10.043 31.4102C10.0585 31.3987 10.0743 31.3873 10.0901 31.3759C10.1886 31.3047 10.2888 31.2322 10.3532 31.1274C10.4484 30.8811 10.3313 30.5426 10.052 30.4831C9.84427 30.4503 9.63291 30.4571 9.42256 30.4638ZM9.48049 31.1703C9.47984 31.0174 9.4792 30.8651 9.47791 30.7134C9.66391 30.7057 9.85119 30.7077 10.0359 30.7333C10.0541 30.7753 10.0725 30.8175 10.0911 30.8599C10.1052 30.8925 10.1195 30.9251 10.1337 30.9578C10.036 31.1868 9.79804 31.1792 9.58407 31.1725C9.54863 31.1714 9.51386 31.1703 9.48049 31.1703Z" fill="black"/>
<path fill-rule="evenodd" clip-rule="evenodd" d="M12.4725 30.762C12.3007 30.5022 11.9583 30.3845 11.6578 30.4504C11.3997 30.4926 11.1783 30.6839 11.0882 30.9264C10.9221 31.3065 11.1262 31.8177 11.5335 31.9438C11.9319 32.1095 12.4545 31.8855 12.5684 31.4639C12.5696 31.4512 12.5708 31.4383 12.572 31.4254C12.5929 31.2008 12.6162 30.9508 12.4725 30.762ZM11.3379 31.3257C11.2922 31.0749 11.3913 30.7792 11.6578 30.7012C11.9055 30.5886 12.1964 30.7626 12.2949 30.9962C12.3605 31.2463 12.32 31.5733 12.0613 31.6987C11.7768 31.8612 11.3411 31.6693 11.3379 31.3257Z" fill="black"/>
<path d="M13.6986 30.5041C14.0796 30.3211 14.6002 30.4939 14.7386 30.9059C14.4194 30.9936 14.2224 30.5636 13.9077 30.6897C13.5422 30.7869 13.4032 31.2924 13.6548 31.5663C13.8099 31.7723 14.1336 31.8228 14.3286 31.6424C14.4413 31.5343 14.5931 31.5304 14.7405 31.542C14.5764 31.9809 13.983 32.1223 13.604 31.8728C13.1033 31.5823 13.1496 30.7165 13.6986 30.5041Z" fill="black"/>
<path d="M15.8497 30.4624C16.2114 30.3453 16.5795 30.5532 16.7809 30.8482C16.5396 31.0191 16.3517 30.7465 16.1361 30.6723C15.7589 30.6127 15.4313 31.0363 15.5723 31.3844C15.6456 31.6992 16.0768 31.8771 16.3317 31.6538C16.4578 31.5361 16.6252 31.5284 16.788 31.5489C16.6812 31.6883 16.5718 31.8387 16.407 31.9155C16.0337 32.1087 15.4983 31.9424 15.338 31.5457C15.1288 31.1285 15.3805 30.5564 15.8497 30.4624Z" fill="black"/>
<path fill-rule="evenodd" clip-rule="evenodd" d="M18.1167 30.4619C18.0079 30.4613 17.8998 30.4619 17.7917 30.4632C17.6761 30.7358 17.5666 31.0106 17.4572 31.2855C17.3685 31.5082 17.2799 31.7308 17.188 31.9521C17.2188 31.951 17.2504 31.9526 17.2823 31.9543C17.3557 31.9581 17.4302 31.962 17.4975 31.9317C17.5283 31.8747 17.5547 31.8158 17.5811 31.757C17.5918 31.7333 17.6025 31.7095 17.6134 31.686C17.8386 31.6764 18.0639 31.6783 18.2898 31.6808C18.3342 31.7723 18.3793 31.8645 18.4243 31.9566C18.4559 31.9564 18.4875 31.9561 18.5192 31.9558C18.5831 31.9553 18.6472 31.9547 18.7113 31.9547C18.5247 31.4524 18.3278 30.954 18.1167 30.4619ZM17.7456 31.2742C17.7964 31.1307 17.8473 30.9873 17.9133 30.8503L17.9912 30.8375C18.0864 31.025 18.1476 31.2278 18.2061 31.4294C18.0337 31.4339 17.8618 31.4339 17.6893 31.4307C17.7086 31.3787 17.7271 31.3265 17.7456 31.2742Z" fill="black"/>
<path d="M19.3329 30.4586C19.4308 30.4663 19.535 30.4496 19.629 30.4867C19.9057 30.7855 20.0872 31.1643 20.4 31.4318C20.4174 31.1042 20.4019 30.7759 20.4122 30.449C20.4972 30.4656 20.5969 30.4439 20.6709 30.5002C20.6754 30.9864 20.6799 31.474 20.6651 31.9603C20.5783 31.9577 20.4914 31.9552 20.4058 31.9526C20.1419 31.6289 19.9128 31.2801 19.6496 30.9564C19.5556 31.284 19.6122 31.6276 19.5949 31.9635C19.5067 31.9584 19.4192 31.9533 19.3316 31.9488C19.3323 31.4516 19.3304 30.9551 19.3329 30.4586Z" fill="black"/>
<path fill-rule="evenodd" clip-rule="evenodd" d="M22.4899 30.4677C22.5471 30.4668 22.6044 30.4655 22.6617 30.4643C22.8867 30.4595 23.1122 30.4547 23.3369 30.469C23.5428 30.4792 23.7101 30.6814 23.6985 30.8823C23.6694 30.9974 23.5909 31.0894 23.5151 31.1782L23.5061 31.1888L23.5255 31.2088C23.6269 31.3131 23.7411 31.4306 23.7127 31.5893C23.7333 31.7902 23.5396 31.9566 23.3452 31.9515C23.0813 31.9651 22.8169 31.9584 22.553 31.9518H22.553L22.4893 31.9502C22.4927 31.505 22.4915 31.0604 22.4903 30.6158L22.4899 30.4677ZM22.7512 30.7198C22.7512 30.8317 22.7499 30.9444 22.7486 31.057C22.9604 31.0736 23.174 31.0762 23.3845 31.0435C23.3851 30.9386 23.3845 30.8343 23.3825 30.73C23.1727 30.7044 22.961 30.7044 22.7512 30.7198ZM22.7917 31.7378C22.7885 31.5944 22.7892 31.4511 22.793 31.3084C22.8498 31.3121 22.908 31.3101 22.9665 31.308C23.0898 31.3037 23.2141 31.2993 23.3272 31.3487C23.4611 31.3961 23.4926 31.59 23.3825 31.6795C23.2526 31.7455 23.1077 31.7416 22.9644 31.7378C22.9062 31.7362 22.8483 31.7346 22.7917 31.7378Z" fill="black"/>
<path d="M24.461 30.4607C24.8085 30.4633 25.1561 30.4588 25.5036 30.4671C25.5029 30.5336 25.5042 30.6015 25.5074 30.6693C25.2494 30.7179 24.9868 30.7122 24.7255 30.7102C24.7255 30.8286 24.7249 30.947 24.7242 31.066C24.9829 31.0666 25.2416 31.0692 25.4991 31.1018C25.4965 31.1677 25.4952 31.2343 25.4959 31.3015C25.2404 31.313 24.9849 31.3091 24.7294 31.3091C24.7268 31.4512 24.7261 31.5939 24.7281 31.7372C24.9861 31.7366 25.2449 31.734 25.5029 31.743C25.5023 31.8114 25.5036 31.8805 25.5062 31.9503C25.1561 31.9624 24.8053 31.9573 24.4552 31.9573C24.4134 31.4608 24.4089 30.9566 24.461 30.4607Z" fill="black"/>
<path fill-rule="evenodd" clip-rule="evenodd" d="M26.7727 30.4598C26.7381 30.46 26.7036 30.4603 26.6699 30.458C26.5636 30.7072 26.4644 30.9591 26.3652 31.211C26.2679 31.4579 26.1707 31.7047 26.0669 31.9489C26.1295 31.9519 26.1924 31.9543 26.2554 31.9567C26.2863 31.9579 26.3172 31.9591 26.3481 31.9604C26.3603 31.9397 26.3725 31.9191 26.3847 31.8984C26.4284 31.8244 26.472 31.7505 26.5168 31.6769C26.5893 31.6776 26.6619 31.6779 26.7345 31.6783C26.8797 31.679 27.025 31.6797 27.17 31.6827C27.2144 31.7748 27.2594 31.867 27.3051 31.9597C27.3363 31.9589 27.3674 31.958 27.3986 31.9571C27.4628 31.9552 27.5272 31.9534 27.5922 31.9521C27.4169 31.4853 27.2294 31.0227 27.0424 30.5613C27.033 30.5382 27.0236 30.515 27.0142 30.4919C26.9381 30.4586 26.855 30.4592 26.7727 30.4598ZM26.6299 31.2614C26.6785 31.1226 26.7271 30.9838 26.7916 30.8515C26.8015 30.8493 26.8165 30.8461 26.8315 30.8429C26.8464 30.8397 26.8614 30.8365 26.8714 30.8342C26.9576 31.0124 27.0168 31.2018 27.0758 31.3908C27.0797 31.4034 27.0837 31.416 27.0876 31.4287C26.9145 31.4331 26.742 31.4344 26.5695 31.4306C26.5904 31.3745 26.6102 31.318 26.6299 31.2614Z" fill="black"/>
<path d="M29.1885 30.4677C29.2876 30.4651 29.3874 30.4632 29.4878 30.4619C29.4871 30.7735 29.4929 31.0858 29.4884 31.3974C29.4903 31.6521 29.3127 31.9042 29.0585 31.9617C28.7225 32.0718 28.263 31.9419 28.1729 31.5657C28.1111 31.2042 28.1613 30.8318 28.1452 30.4671C28.2122 30.4645 28.346 30.4607 28.4123 30.4587C28.4316 30.7985 28.3802 31.1466 28.4374 31.4825C28.5153 31.8043 28.9916 31.8491 29.1627 31.5798C29.2168 31.2125 29.173 30.8382 29.1885 30.4677Z" fill="black"/>
<path d="M31.8999 30.4626C31.9977 30.4619 32.0962 30.4632 32.1947 30.4658C32.3253 30.675 32.4611 30.8823 32.6117 31.0794C32.7546 30.8772 32.8891 30.6699 33.0268 30.4645C33.1266 30.4632 33.2263 30.4626 33.3267 30.4632C33.1896 30.6974 33.03 30.9169 32.8769 31.1408C32.6838 31.3705 32.7971 31.6892 32.7263 31.9592C32.64 31.9579 32.5544 31.9566 32.4695 31.956C32.4347 31.6872 32.5441 31.3731 32.3459 31.1498C32.1908 30.9245 32.0299 30.7031 31.8999 30.4626Z" fill="black"/>
<path d="M30.1966 30.4593C30.5557 30.4714 30.9167 30.4446 31.2759 30.4714C31.3093 30.4926 31.3756 30.5348 31.4091 30.5559C31.301 30.7319 31.0796 30.7037 30.9019 30.7203C30.9058 31.1324 30.9122 31.5445 30.8981 31.9559C30.8118 31.9572 30.7262 31.9585 30.6406 31.9604C30.6374 31.5477 30.6471 31.135 30.6329 30.7223C30.481 30.7114 30.3298 30.6935 30.1792 30.6743C30.1843 30.602 30.1901 30.5303 30.1966 30.4593Z" fill="black"/>
</svg>
