<svg width="86" height="36" viewBox="0 0 86 36" fill="none" xmlns="http://www.w3.org/2000/svg">
<path d="M68.9912 0.99448C70.9009 0.839276 72.7993 0.513053 74.6451 0C74.6457 3.01975 74.6475 6.04009 74.644 9.06043C75.5193 8.24107 76.5583 7.53825 77.7479 7.27236C78.7875 7.06503 79.9263 7.18685 80.8454 7.73329C81.5926 8.17782 82.1118 8.9269 82.3877 9.73513C82.6706 10.5457 82.745 11.4119 82.7379 12.2647C82.7379 13.9819 82.7379 15.6997 82.7379 17.4169C82.7432 17.8971 82.7196 18.3944 82.8809 18.8547C82.9677 19.0989 83.1898 19.2705 83.4355 19.3432C83.7368 19.4398 84.0528 19.4785 84.3635 19.5364C84.3605 19.8744 84.3623 20.2123 84.3623 20.5503C82.0734 20.5503 79.7846 20.5508 77.4957 20.5503C77.4945 20.2111 77.4975 19.8726 77.4934 19.5335C77.8295 19.4744 78.1868 19.4322 78.481 19.2459C78.7119 19.0937 78.8094 18.8172 78.8401 18.5554C78.9057 17.9821 78.8779 17.404 78.8838 16.8289C78.8838 15.6973 78.8838 14.5664 78.8838 13.4354C78.8749 12.7695 78.9181 12.0983 78.8123 11.4377C78.7344 10.9463 78.5826 10.4497 78.2683 10.0537C78.0137 9.724 77.6298 9.50262 77.2205 9.42648C76.2961 9.27303 75.3167 9.58461 74.6451 10.2306C74.6463 12.605 74.6451 14.9793 74.6457 17.3542C74.6469 17.787 74.6292 18.2251 74.7166 18.6527C74.7633 18.8834 74.8779 19.1165 75.0899 19.2395C75.4101 19.4322 75.7922 19.4691 76.1531 19.5364C76.1502 19.8744 76.1525 20.2123 76.1519 20.5503C73.804 20.5503 71.4561 20.5508 69.1082 20.5503C69.107 20.2111 69.1094 19.8715 69.1064 19.5323C69.5069 19.4779 69.928 19.455 70.2943 19.27C70.579 19.1288 70.703 18.8114 70.7538 18.5174C70.8477 17.92 70.8146 17.3132 70.8211 16.7111C70.8205 12.3789 70.8217 8.04721 70.8205 3.71495C70.8016 3.28214 70.8076 2.78197 70.4738 2.45399C70.0627 2.10492 69.4992 2.04577 68.9883 1.94855C68.9918 1.63053 68.9883 1.3125 68.9912 0.99448Z" fill="#7097BD"/>
<path d="M1.62115 6.66984C1.81666 4.70372 2.02812 2.73819 2.18819 0.768555C2.53492 0.769726 2.88223 0.76914 3.22896 0.76914C3.35418 0.987012 3.49712 1.21074 3.72748 1.33315C4.07716 1.51881 4.48768 1.4784 4.87043 1.50124C8.85392 1.50124 12.8374 1.50124 16.8203 1.50124C16.8906 1.67753 16.9597 1.85381 17.0294 2.0301C13.3129 7.70883 9.57277 13.3723 5.92892 19.0967C6.69738 19.1618 7.46939 19.1823 8.24081 19.1741C9.24672 19.2139 10.2526 19.17 11.2585 19.1723C12.0075 19.1407 12.7718 19.1477 13.4972 18.9369C14.1771 18.7319 14.6827 18.1966 15.1127 17.6618C15.776 16.8015 16.2846 15.8351 16.7223 14.8459C17.1003 14.9349 17.4777 15.0263 17.8569 15.1118C17.4765 16.9374 17.0117 18.7442 16.5498 20.551C11.2603 20.5504 5.97145 20.5498 0.681982 20.551C0.608149 20.3314 0.53904 20.1106 0.46875 19.8898C4.25791 14.2514 8.00158 8.58325 11.711 2.89222C10.0004 2.89339 8.29042 2.88929 6.57984 2.89456C5.78952 2.92795 4.87693 2.9953 4.32879 3.6413C3.59399 4.53563 3.18289 5.63319 2.75937 6.69385C2.38016 6.68448 2.00095 6.66691 1.62115 6.66984Z" fill="#7097BD"/>
<path d="M50.8568 1.24566C51.4936 1.12267 52.1923 1.26206 52.695 1.68082C53.4629 2.28582 53.6631 3.45308 53.1799 4.29177C52.7381 5.10527 51.721 5.53516 50.8196 5.3249C50.1332 5.17263 49.5379 4.66777 49.2821 4.01709C49.0494 3.43492 49.1108 2.74617 49.4439 2.21378C49.7493 1.71127 50.2791 1.36045 50.8568 1.24566Z" fill="#7097BD"/>
<path d="M35.6177 8.2288C37.4264 8.03553 39.209 7.6443 40.9462 7.11426C40.9509 8.16086 40.9456 9.20747 40.9486 10.2541C41.5221 9.39899 42.1169 8.53863 42.9043 7.86041C43.365 7.47035 43.9409 7.15701 44.5635 7.18044C45.1961 7.16697 45.8517 7.45864 46.1979 7.9957C46.4637 8.38986 46.5156 8.88945 46.4406 9.3492C46.3278 10.1961 45.7844 10.9598 45.0478 11.3926C44.7885 11.5467 44.443 11.5672 44.1848 11.3991C43.7655 11.1226 43.4542 10.6951 42.9881 10.4866C42.6562 10.3308 42.2728 10.4514 41.9816 10.6389C41.5186 10.9411 41.1807 11.4055 40.9539 11.9004C40.9403 13.6803 40.9521 15.4613 40.948 17.2412C40.9515 17.7138 40.9232 18.1976 41.0537 18.6574C41.1293 18.9403 41.3591 19.1616 41.6367 19.2542C42.1441 19.4334 42.6887 19.4656 43.2197 19.5318C43.2244 19.8709 43.2209 20.2106 43.222 20.5503C40.6184 20.5509 38.0147 20.5503 35.4104 20.5503C35.4098 20.2112 35.4104 19.8727 35.4104 19.5335C35.8203 19.4779 36.2515 19.4586 36.6266 19.2671C36.9178 19.1271 37.0383 18.7956 37.0743 18.4969C37.1488 17.9059 37.1163 17.3091 37.1234 16.7159C37.1234 14.7445 37.1234 12.7731 37.1234 10.8017C37.1092 10.4854 37.1127 10.1592 37.0005 9.85816C36.9261 9.65551 36.753 9.50382 36.5575 9.4189C36.2586 9.28536 35.9343 9.22211 35.6166 9.153C35.6177 8.84493 35.616 8.53687 35.6177 8.2288Z" fill="#7097BD"/>
<path d="M48.051 8.19738C49.8643 8.00411 51.657 7.64041 53.4107 7.14551C53.4113 10.6086 53.4119 14.0717 53.4107 17.5348C53.4214 17.9302 53.4202 18.3343 53.5389 18.7162C53.6104 18.9621 53.7935 19.1747 54.0321 19.2761C54.4143 19.4406 54.8343 19.4799 55.243 19.5343C55.2412 19.8734 55.2424 20.212 55.2424 20.5505C52.7663 20.5505 50.2908 20.5505 47.8147 20.5511C47.8141 20.2114 47.8147 19.8717 47.8147 19.532C48.1969 19.4793 48.5903 19.4465 48.95 19.2977C49.1709 19.2058 49.3505 19.0219 49.4296 18.7976C49.5791 18.3741 49.5643 17.919 49.5861 17.4769C49.5873 15.6214 49.5861 13.766 49.5867 11.9106C49.5844 11.3448 49.6015 10.7761 49.5312 10.2139C49.4928 9.92279 49.3971 9.59364 49.1201 9.44136C48.7964 9.25688 48.4119 9.23755 48.051 9.18308C48.051 8.85451 48.051 8.52595 48.051 8.19738Z" fill="#7097BD"/>
<path d="M60.4066 8.52279C61.8862 7.59859 63.6494 7.05801 65.4072 7.20033C66.158 7.28057 66.9282 7.47443 67.5395 7.9336C67.9199 8.20652 68.0965 8.70611 68.0085 9.15825C67.9359 9.57525 67.6972 9.94774 67.3995 10.2441C67.2093 10.4169 66.989 10.5879 66.7244 10.6178C66.5324 10.6271 66.3417 10.5533 66.1946 10.4333C65.6181 9.93544 65.0008 9.47452 64.3151 9.13307C63.8177 8.89352 63.2631 8.71665 62.7043 8.7922C62.1479 8.87713 61.6541 9.21858 61.3227 9.66252C60.8401 10.2933 60.621 11.0799 60.5129 11.8535C60.37 13.0038 60.4054 14.2068 60.8313 15.2985C61.3168 16.5952 62.4155 17.6635 63.7604 18.0564C64.3771 18.2509 65.0416 18.2035 65.6659 18.0728C66.4444 17.9024 67.1296 17.4626 67.7268 16.9519C67.9306 17.1978 68.1284 17.4491 68.331 17.6974C67.4403 18.9514 66.2406 20.0372 64.7811 20.5901C64.1396 20.8343 63.445 20.9386 62.7598 20.8841C61.5448 20.8273 60.3328 20.4601 59.3351 19.7619C57.8986 18.7762 56.9636 17.1486 56.7556 15.4373C56.5206 13.7318 57.0315 11.9636 58.0746 10.5967C58.699 9.75623 59.517 9.07391 60.4066 8.52279Z" fill="#7097BD"/>
<path d="M18.8746 7.81648C20.7169 7.7421 22.5545 7.56405 24.382 7.32217C24.2532 9.86401 24.2999 12.4094 24.291 14.9541C24.3082 15.6792 24.2237 16.4218 24.4298 17.1293C24.5728 17.6436 24.8982 18.1338 25.395 18.3686C25.8823 18.6164 26.4523 18.5947 26.9786 18.5127C27.532 18.4237 28.0306 18.1203 28.411 17.7185C28.4098 15.2745 28.4127 12.8305 28.4098 10.3858C28.3873 10.0415 28.3997 9.67425 28.2326 9.36091C28.1121 9.1325 27.851 9.03586 27.6124 8.98315C27.2592 8.90935 26.9047 8.84083 26.5509 8.7723C26.5509 8.4537 26.5474 8.1345 26.5533 7.81589C28.4612 7.74561 30.3696 7.59861 32.2586 7.31982C32.2734 10.3929 32.261 13.4659 32.2651 16.5384C32.2692 17.0684 32.2385 17.6084 32.3702 18.1267C32.4299 18.3856 32.6165 18.6193 32.8764 18.7025C33.2497 18.8243 33.649 18.8155 34.0365 18.8583C34.0377 19.1862 34.0359 19.5136 34.0377 19.841C32.1452 20.094 30.2728 20.4788 28.4116 20.8993C28.4092 20.2387 28.4127 19.5781 28.4098 18.9174C27.6082 19.5716 26.7902 20.2463 25.8096 20.6182C24.8764 20.9854 23.8161 20.9767 22.8669 20.6733C22.066 20.4203 21.3837 19.8434 20.9945 19.1054C20.5757 18.3212 20.4487 17.4163 20.4664 16.539C20.4664 14.6636 20.4664 12.7889 20.4664 10.9141C20.4647 10.4901 20.4812 10.0596 20.3879 9.64321C20.3365 9.40425 20.1811 9.18521 19.9472 9.09443C19.5987 8.95738 19.2296 8.88124 18.8716 8.77289C18.8722 8.45428 18.8687 8.13509 18.8746 7.81648Z" fill="#7097BD"/>
<path d="M34.9513 23.0603C36.1717 22.9349 37.3932 22.7545 38.5722 22.4102C38.568 26.3096 38.5722 30.2096 38.5704 34.1091C38.581 34.3919 38.5881 34.7457 38.8598 34.9144C39.1221 35.0573 39.4322 35.0678 39.7222 35.11C39.7222 35.3325 39.7222 35.5551 39.7222 35.7782C38.1274 35.7782 36.5326 35.7782 34.9378 35.7788C34.9372 35.5557 34.9378 35.3337 34.9378 35.1112C35.2467 35.0508 35.5899 35.0344 35.8492 34.8376C36.0896 34.6045 36.0494 34.2408 36.0736 33.9369C36.076 30.9077 36.0754 27.8786 36.0736 24.8495C36.0565 24.5514 36.0736 24.1918 35.8185 23.9815C35.5704 23.7929 35.2479 23.7555 34.9525 23.6828C34.9519 23.4755 34.9531 23.2676 34.9513 23.0603Z" fill="#7097BD"/>
<path d="M46.6484 23.0586C47.8906 22.959 49.1257 22.747 50.326 22.4126C50.326 24.3752 50.3265 26.3372 50.3254 28.2998C50.9556 27.7171 51.7152 27.214 52.5865 27.0974C53.3278 27.0166 54.1387 27.1724 54.6981 27.6896C55.3508 28.2875 55.5646 29.2059 55.5877 30.0551C55.6107 31.3079 55.5912 32.5618 55.5971 33.8146C55.6012 34.1414 55.5741 34.4992 55.7507 34.7903C55.9675 35.0498 56.3419 35.0421 56.6473 35.1107C56.645 35.3326 56.6461 35.5552 56.6461 35.7778C55.1547 35.7778 53.6633 35.7778 52.1718 35.7778C52.1712 35.5558 52.1724 35.3338 52.1706 35.1124C52.4163 35.0638 52.6928 35.0427 52.8889 34.8705C53.1051 34.6369 53.0578 34.2948 53.0832 34.0037C53.0938 32.8869 53.0832 31.7694 53.0879 30.6525C53.082 30.1447 53.0602 29.6123 52.8162 29.1532C52.6544 28.8433 52.3526 28.6038 52.0029 28.5458C51.3998 28.4386 50.7619 28.6547 50.3248 29.0747C50.3277 30.4212 50.3248 31.7676 50.326 33.1141C50.3277 33.5452 50.3141 33.978 50.3567 34.4079C50.3785 34.5964 50.4394 34.8049 50.6107 34.9127C50.8227 35.0416 51.0761 35.0685 51.3165 35.1124C51.3147 35.3338 51.3153 35.5558 51.3153 35.7778C49.7843 35.7778 48.2539 35.7778 46.7229 35.7778C46.7223 35.5552 46.7235 35.3326 46.7211 35.1107C47.0271 35.0621 47.3761 35.0662 47.6207 34.8512C47.8534 34.5836 47.818 34.2017 47.8428 33.872C47.8475 30.8862 47.844 27.8998 47.8451 24.9134C47.8274 24.6165 47.854 24.2727 47.6355 24.0373C47.3756 23.7819 46.9881 23.7532 46.6484 23.6812C46.649 23.4733 46.6496 23.2659 46.6484 23.0586Z" fill="#7097BD"/>
<path d="M0.000590685 23.3906C1.93977 23.3906 3.87953 23.3906 5.81871 23.3906C5.81871 23.6278 5.81871 23.865 5.81871 24.1028C5.4643 24.142 5.09631 24.1684 4.77026 24.3236C4.58656 24.4044 4.46961 24.5959 4.47375 24.7945C4.47906 25.0457 4.55053 25.2894 4.61492 25.5307C5.23867 27.6813 5.88368 29.8255 6.53755 31.9667C7.55646 29.1683 8.45842 26.3301 9.31371 23.4791C9.65748 23.4773 10.0007 23.4791 10.3444 23.4779C11.3775 26.3255 12.4649 29.1531 13.5435 31.9837C14.1761 30.1294 14.7355 28.2506 15.2594 26.3629C15.3722 25.9049 15.5382 25.4487 15.5358 24.972C15.5417 24.7025 15.3634 24.456 15.1171 24.3529C14.726 24.1754 14.2889 24.145 13.8666 24.104C13.8666 23.8662 13.8666 23.6284 13.8666 23.3906C15.4319 23.3906 16.9972 23.3906 18.5624 23.3906C18.5624 23.6284 18.5624 23.8656 18.5624 24.1034C18.045 24.1731 17.4597 24.2469 17.094 24.6598C16.7272 25.0821 16.5725 25.6326 16.3829 26.1462C15.2996 29.4131 14.2718 32.6982 13.2434 35.9827C12.8796 35.9815 12.5163 35.9844 12.1531 35.9809C11.1477 33.1662 10.0656 30.3789 8.99238 27.5893C8.02722 30.3813 7.05616 33.1726 6.14298 35.9821C5.76554 35.9833 5.3887 35.9821 5.01126 35.9827C4.0904 32.7738 3.08271 29.59 2.07503 26.4069C1.87125 25.8124 1.72004 25.1775 1.33787 24.6645C1.02954 24.251 0.485532 24.1467 0 24.1016C0.000590671 23.8644 0.000590685 23.6272 0.000590685 23.3906Z" fill="#7097BD"/>
<path d="M41.6333 25.6358C42.3439 25.1503 43.0645 24.6788 43.7792 24.1997C43.8637 24.2501 43.9487 24.3004 44.0344 24.3508C43.9977 25.3336 43.9842 26.3163 43.9913 27.3003C44.6374 27.2991 45.2836 27.302 45.9298 27.2991C46.0805 27.6113 46.0232 28.0207 45.7751 28.269C45.1803 28.2631 44.5855 28.2684 43.9913 28.2667C43.9913 29.7841 43.9918 31.3016 43.9913 32.8191C44.0025 33.2806 44.0155 33.7691 44.2576 34.1791C44.3852 34.4139 44.6434 34.5621 44.9097 34.5767C45.2494 34.592 45.5825 34.5024 45.8979 34.3841C45.9629 34.6189 46.0279 34.8532 46.094 35.088C45.5559 35.3323 45.0397 35.6204 44.4975 35.8547C43.9907 36.0749 43.4142 36.0146 42.895 35.8723C42.4218 35.7405 42.0078 35.4125 41.7869 34.9762C41.5713 34.5463 41.5016 34.0578 41.5098 33.5823C41.511 31.8106 41.5098 30.0383 41.5104 28.2667C41.0993 28.2667 40.6876 28.2661 40.2765 28.2672C40.2369 28.1882 40.1985 28.1091 40.1602 28.0306C40.3492 27.7882 40.5358 27.5433 40.7242 27.2997C40.9859 27.3003 41.2482 27.2997 41.5104 27.3003C41.5116 26.7972 41.5081 26.2941 41.5116 25.7916C41.4933 25.7084 41.5819 25.6774 41.6333 25.6358Z" fill="#7097BD"/>
<path d="M19.0099 28.2095C19.7483 27.5536 20.7052 27.1002 21.7075 27.0797C22.4571 27.0522 23.2167 27.2947 23.7979 27.7667C24.5274 28.3431 24.9869 29.2555 24.9734 30.1844C24.9704 30.3789 24.9781 30.585 24.8924 30.766C24.8032 30.9364 24.5841 30.9171 24.4217 30.9435C22.8818 31.0805 21.336 31.1303 19.7926 31.2064C19.8215 32.0223 20.0454 32.8762 20.6171 33.4888C21.0147 33.9257 21.5894 34.1887 22.1801 34.2268C23.0543 34.2953 23.9149 33.9357 24.5658 33.3717C24.6839 33.5503 24.8068 33.726 24.9202 33.9082C24.3526 34.7334 23.5616 35.4297 22.6059 35.773C21.7347 36.1039 20.7506 36.0535 19.8794 35.7513C19.0418 35.4584 18.3277 34.8476 17.9054 34.0745C17.307 32.984 17.2001 31.6504 17.5693 30.4685C17.838 29.6087 18.3218 28.8034 19.0099 28.2095ZM20.4884 28.3952C20.0891 28.9322 19.9438 29.6087 19.8865 30.2611C20.691 30.2248 21.4972 30.2289 22.3017 30.1891C22.4352 30.1885 22.5628 30.0936 22.5699 29.956C22.6077 29.4453 22.5102 28.9164 22.2633 28.4643C22.1021 28.1697 21.8233 27.9009 21.4701 27.8739C21.0749 27.8482 20.7152 28.0912 20.4884 28.3952Z" fill="#7097BD"/>
<path d="M29.8009 27.1347C30.0951 27.0398 30.4093 27.0861 30.7094 27.123C31.453 27.2261 32.1796 27.5904 32.6285 28.1995C32.9793 28.6885 33.0886 29.3023 33.0939 29.8915C33.0922 30.9849 33.0945 32.079 33.0927 33.173C33.0898 33.4594 33.1034 33.754 33.2067 34.0252C33.2717 34.1927 33.4005 34.3532 33.5854 34.3936C33.8329 34.4369 34.0744 34.3426 34.3007 34.253C34.3763 34.4727 34.4501 34.694 34.5151 34.9178C33.8736 35.2516 33.2345 35.5907 32.5954 35.931C32.3715 36.0645 32.0998 35.9708 31.8636 35.9222C31.3479 35.7963 30.9628 35.3764 30.7555 34.9072C30.2557 35.227 29.7667 35.5667 29.2345 35.8332C29.0608 35.9163 28.8789 36.0065 28.681 35.9995C28.0502 35.9972 27.4123 35.7787 26.9433 35.3547C26.3467 34.8334 26.0248 34.017 26.1258 33.2328C26.1553 32.8978 26.2799 32.5663 26.5127 32.3174C26.821 31.9905 27.2404 31.7955 27.6568 31.6397C28.2817 31.4101 28.9161 31.2046 29.5393 30.9674C29.9338 30.8122 30.3384 30.6611 30.6846 30.4116C30.6852 29.97 30.7017 29.5254 30.6426 29.0868C30.5889 28.7336 30.4288 28.364 30.1004 28.1831C29.6987 27.9699 29.1412 27.9869 28.8157 28.3301C28.4967 28.675 28.4223 29.1553 28.3 29.5904C28.2433 29.8382 28.1364 30.1017 27.9013 30.2323C27.267 30.5392 26.3857 30.073 26.3006 29.3761C26.2705 28.9579 26.6302 28.6651 26.9427 28.4507C27.8198 27.8721 28.7797 27.4024 29.8009 27.1347ZM29.4772 31.8705C29.1589 32.0468 28.8517 32.2998 28.7401 32.6571C28.6255 33.0418 28.6698 33.4682 28.8399 33.8307C29.0401 34.2583 29.5085 34.5681 29.9917 34.5177C30.2552 34.5113 30.4956 34.3842 30.6875 34.2126C30.6846 33.2111 30.6881 32.2096 30.6858 31.2075C30.2829 31.4295 29.8813 31.6514 29.4772 31.8705Z" fill="#7097BD"/>
<path d="M65.8892 31.9448C66.2224 31.9038 66.5555 31.8505 66.8798 31.7627C66.8763 32.7203 66.8804 33.6784 66.878 34.6366C66.878 34.7748 66.8703 34.9154 66.9005 35.0519C66.9276 35.203 67.1249 35.1608 67.2389 35.1907C67.2419 35.251 67.2466 35.3119 67.2525 35.3728C66.9223 35.4214 66.5933 35.4829 66.2726 35.5766C66.272 35.4718 66.272 35.367 66.2732 35.2633C66.0753 35.3752 65.8928 35.5321 65.6636 35.5725C65.3819 35.5784 65.1125 35.4466 64.9117 35.2574C64.4817 34.8416 64.4569 34.0995 64.8302 33.6404C65.1633 33.214 65.7451 33.033 66.2732 33.1156C66.2655 32.8427 66.2885 32.568 66.2614 32.2968C66.2413 32.117 66.0168 32.1504 65.8892 32.1123C65.8892 32.0702 65.8892 31.9864 65.8892 31.9448ZM65.5207 33.4489C65.2619 33.6638 65.2377 34.0334 65.2537 34.3444C65.2673 34.6747 65.4368 35.0384 65.7717 35.152C65.943 35.224 66.1208 35.1368 66.2738 35.0612C66.2667 34.5734 66.2826 34.0849 66.2667 33.5976C66.1379 33.33 65.7451 33.2562 65.5207 33.4489Z" fill="#7097BD"/>
<path d="M68.9886 31.947C69.3206 31.8984 69.6537 31.8486 69.9798 31.7637C69.9821 32.8355 69.975 33.9084 69.9833 34.9802C69.9668 35.1858 70.2066 35.1776 70.3513 35.1981C70.3489 35.2555 70.3466 35.3135 70.3454 35.3714C70.0134 35.423 69.6827 35.4839 69.3596 35.577C69.3584 35.4739 69.3584 35.3714 69.359 35.2701C69.1552 35.3802 68.9703 35.5466 68.7323 35.5741C68.2343 35.5624 67.789 35.1688 67.6939 34.6891C67.6005 34.3067 67.7039 33.8844 67.9674 33.5898C68.304 33.2009 68.8557 33.0346 69.3596 33.1172C69.3513 32.8302 69.3755 32.5414 69.3483 32.2556C69.2804 32.1268 69.1115 32.1432 68.9904 32.1121C68.9898 32.0706 68.9886 31.988 68.9886 31.947ZM68.633 33.4346C68.3903 33.6156 68.3454 33.9418 68.3395 34.2223C68.3342 34.5773 68.4747 34.9808 68.8221 35.1366C68.9981 35.2285 69.1936 35.1489 69.3572 35.0692C69.359 34.5784 69.3649 34.0871 69.3548 33.5968C69.242 33.3327 68.8539 33.2583 68.633 33.4346Z" fill="#7097BD"/>
<path d="M70.7024 31.9466C71.0161 31.9038 71.3303 31.8529 71.6345 31.7627C71.6369 32.8708 71.6292 33.9789 71.6381 35.087C71.6162 35.2797 71.83 35.3101 71.9748 35.3312C71.9742 35.3734 71.9742 35.4571 71.9736 35.4993C71.5453 35.4987 71.1171 35.4993 70.6895 35.4993C70.6895 35.4571 70.6895 35.3734 70.6895 35.3312C70.8218 35.299 71.0273 35.2914 71.0202 35.1069C71.0415 34.3075 71.022 33.5068 71.0297 32.7068C71.025 32.5545 71.0439 32.3993 71.0037 32.2511C70.9423 32.1463 70.807 32.144 70.7042 32.1094C70.7036 32.0684 70.703 31.987 70.7024 31.9466Z" fill="#7097BD"/>
<path d="M63.322 32.0349C63.5609 31.9324 63.8559 32.1538 63.8021 32.4115C63.7803 32.6522 63.4722 32.8027 63.2682 32.6692C63.011 32.5444 63.0459 32.1163 63.322 32.0349Z" fill="#7097BD"/>
<path d="M58.0939 32.0589C58.4548 32.0589 58.8157 32.0589 59.1772 32.0589C59.5369 32.8712 59.8925 33.6847 60.2528 34.497C60.6172 33.6829 60.9911 32.8729 61.3574 32.0589C61.7112 32.0583 62.0656 32.0589 62.4206 32.0589C62.4206 32.1081 62.4212 32.2059 62.4212 32.2551C62.2428 32.2802 61.9663 32.2914 61.9539 32.5268C61.9303 32.976 61.9758 33.4252 61.964 33.875C61.9965 34.2827 61.9474 34.6944 62.013 35.0991C62.0549 35.2947 62.2953 35.2836 62.4513 35.3176C62.4495 35.3779 62.4489 35.4382 62.4495 35.4997C61.9327 35.4991 61.4164 35.4997 60.8996 35.4997C60.8996 35.4546 60.8984 35.3644 60.8984 35.3193C61.0597 35.2941 61.3113 35.2854 61.3172 35.0675C61.3438 34.2786 61.3178 33.4879 61.3296 32.6984C60.9238 33.6255 60.5162 34.5521 60.1223 35.4839L60.0998 35.4997C60.0573 35.4997 59.9734 35.5003 59.9309 35.5003C59.5611 34.5814 59.2103 33.6537 58.8086 32.7482C58.7944 33.5154 58.7236 34.2821 58.749 35.0493C58.7862 35.2789 59.0644 35.2889 59.2469 35.3182C59.2469 35.3638 59.2457 35.454 59.2451 35.4997C58.8074 35.4997 58.3697 35.4991 57.9326 35.4997C57.9315 35.4552 57.9303 35.365 57.9297 35.3205C58.0909 35.2877 58.3095 35.2766 58.3703 35.0927C58.4583 34.7946 58.4418 34.4789 58.4755 34.1726C58.5056 33.6238 58.5706 33.0756 58.5782 32.5262C58.5528 32.2943 58.2735 32.2855 58.0939 32.2562C58.0939 32.2064 58.0939 32.1081 58.0939 32.0589Z" fill="#7097BD"/>
<path d="M76.3746 32.0591C77.2104 32.0591 78.0462 32.0591 78.882 32.0591C78.8921 32.3431 78.9157 32.626 78.9293 32.9101C78.8602 32.9171 78.7917 32.9247 78.7243 32.9323C78.6452 32.6887 78.5495 32.3367 78.2382 32.3197C77.9878 32.3191 77.7084 32.2594 77.4745 32.3537C77.4568 32.7678 77.4721 33.1824 77.4674 33.5965C77.7001 33.5924 77.934 33.6053 78.1667 33.5906C78.3788 33.5637 78.4036 33.323 78.4438 33.1578C78.4946 33.1578 78.5973 33.1572 78.6487 33.1566C78.6487 33.5426 78.6487 33.9286 78.6487 34.3145C78.5973 34.3139 78.4952 34.3134 78.4444 34.3134C78.4012 34.1505 78.3829 33.9075 78.1721 33.88C77.937 33.8653 77.7019 33.8782 77.4674 33.8747C77.4715 34.2624 77.4585 34.6513 77.4733 35.039C77.4822 35.278 77.7633 35.2715 77.9393 35.2668C78.162 35.2516 78.4136 35.3102 78.6145 35.1848C78.8023 35.0197 78.9133 34.7895 79.0291 34.5722C79.0941 34.5869 79.1608 34.6015 79.2282 34.6167C79.1608 34.9131 79.0841 35.2071 79.0019 35.4999C78.0964 35.4999 77.1915 35.4999 76.286 35.4999C76.2849 35.4384 76.2849 35.3769 76.286 35.316C76.4851 35.3031 76.7987 35.2926 76.7987 35.0238C76.8094 34.2501 76.7982 33.4758 76.8041 32.7016C76.8023 32.5698 76.8064 32.4011 76.6818 32.3197C76.5837 32.277 76.4762 32.2711 76.3735 32.2547C76.3729 32.1891 76.3735 32.1241 76.3746 32.0591Z" fill="#7097BD"/>
<path d="M84.7755 32.7208C84.984 32.5978 85.1506 32.3741 85.3963 32.3325C85.4016 32.6072 85.3733 32.8819 85.3809 33.1572C85.5765 33.1572 85.7732 33.1548 85.9704 33.1613C85.9734 33.2503 85.9551 33.3381 85.9267 33.4231C85.7442 33.4195 85.5623 33.4207 85.3809 33.4207C85.3815 33.8453 85.3786 34.2699 85.3815 34.6946C85.3916 34.8509 85.3945 35.036 85.5209 35.1502C85.655 35.2422 85.818 35.1654 85.9598 35.1326C85.9699 35.1777 85.9893 35.2673 85.9988 35.3119C85.7377 35.4431 85.4566 35.658 85.1488 35.5373C84.8984 35.4788 84.7814 35.2135 84.7791 34.9792C84.769 34.4597 84.7785 33.9402 84.7755 33.4207C84.6479 33.4207 84.5203 33.4207 84.3945 33.4172C84.4241 33.3176 84.4855 33.2345 84.5516 33.1554C84.6255 33.156 84.6999 33.1566 84.7755 33.1577C84.7743 33.0119 84.7749 32.8667 84.7755 32.7208Z" fill="#7097BD"/>
<path d="M62.8772 33.2896C63.1879 33.2474 63.4956 33.1818 63.7939 33.084C63.7939 33.7558 63.788 34.4281 63.7969 35.0999C63.7786 35.2891 63.9971 35.3019 64.1324 35.3324C64.1324 35.3746 64.1324 35.4583 64.1324 35.4999C63.7041 35.4999 63.2759 35.4993 62.8477 35.4999C62.8477 35.4583 62.8477 35.3752 62.8477 35.333C62.9776 35.3043 63.1778 35.2861 63.1678 35.1087C63.1749 34.6179 63.1767 34.1259 63.1672 33.6357C63.1548 33.4869 62.9882 33.4822 62.8772 33.4524C62.8772 33.412 62.8772 33.3306 62.8772 33.2896Z" fill="#7097BD"/>
<path d="M72.5304 34.9636C72.1801 34.242 72.6432 33.2528 73.4524 33.1116C73.9811 32.9863 74.5269 33.4601 74.4849 33.9931C74.4944 34.0833 74.4229 34.1606 74.3308 34.1541C73.8937 34.1957 73.4542 34.211 73.0159 34.2297C73.0136 34.5694 73.1695 34.9542 73.5174 35.0719C73.8192 35.1873 74.1358 35.0467 74.3745 34.8622C74.3975 34.8974 74.4448 34.9671 74.4684 35.0022C74.2888 35.2693 74.0136 35.4778 73.6952 35.5498C73.2327 35.65 72.7129 35.4034 72.5304 34.9636ZM73.0378 33.9579C73.313 33.9632 73.5895 33.9702 73.8641 33.9415C73.9138 33.6956 73.798 33.35 73.5109 33.319C73.1961 33.3459 73.0856 33.6985 73.0378 33.9579Z" fill="#7097BD"/>
<path d="M80.5808 33.1595C80.898 33.0172 81.3109 33.142 81.497 33.433C81.6629 33.7083 81.5832 34.0386 81.6015 34.3414C81.6145 34.5798 81.5637 34.8311 81.6452 35.0606C81.7025 35.1959 81.8514 35.1321 81.9571 35.1063C81.9766 35.1626 81.9967 35.2199 82.0179 35.2773C81.8354 35.3798 81.65 35.4765 81.4686 35.5801C81.269 35.5678 81.1059 35.4419 81.0244 35.2645C80.7923 35.4085 80.5454 35.6522 80.2489 35.5456C79.8023 35.4554 79.5495 34.8006 79.9228 34.4931C80.256 34.2829 80.6623 34.2284 81.0085 34.0392C81.0079 33.8811 81.0309 33.7153 80.9642 33.5666C80.8915 33.3739 80.6098 33.2878 80.4556 33.4366C80.3322 33.5742 80.3286 33.7686 80.2453 33.9262C80.0498 34.1042 79.6547 33.8225 79.8295 33.5923C80.0374 33.3897 80.3109 33.262 80.5808 33.1595ZM80.4846 34.537C80.3381 34.6682 80.3528 34.9037 80.4668 35.0513C80.5891 35.2205 80.8904 35.2205 81.0055 35.0507C81.0197 34.783 81.0061 34.5154 81.0108 34.2483C80.8331 34.3403 80.6417 34.4117 80.4846 34.537Z" fill="#7097BD"/>
<path d="M82.7907 33.2346C83.1251 33.0332 83.5379 33.0876 83.9006 33.1726C83.9236 33.3805 83.952 33.5872 83.9827 33.7946C83.9384 33.8069 83.8492 33.832 83.8049 33.8443C83.7287 33.6481 83.6283 33.4367 83.4263 33.3436C83.2928 33.2973 83.1162 33.2868 83.0217 33.4104C82.9 33.5427 82.9414 33.7676 83.0902 33.8631C83.3525 34.0622 83.711 34.119 83.9325 34.3767C84.0914 34.5313 84.1073 34.7732 84.0654 34.9782C83.9916 35.2927 83.6826 35.4948 83.3779 35.5481C83.0725 35.616 82.7624 35.5305 82.4789 35.4216C82.4422 35.1967 82.4109 34.9712 82.3867 34.7451C82.4298 34.7398 82.5173 34.7305 82.561 34.7252C82.6448 34.8939 82.7098 35.0807 82.8604 35.2055C83.0175 35.3571 83.2981 35.4186 83.4741 35.2611C83.5958 35.1322 83.5675 34.9144 83.4428 34.7978C83.2013 34.5764 82.8492 34.5179 82.6242 34.2748C82.333 33.982 82.4222 33.425 82.7907 33.2346Z" fill="#7097BD"/>
</svg>
