<svg width="146" height="36" viewBox="0 0 146 36" fill="none" xmlns="http://www.w3.org/2000/svg">
<g clip-path="url(#clip0_4794_11167)">
<path d="M146 0H0V27.1723H146V0Z" fill="#CF3339"/>
<path d="M89.054 18.4459V22.3054H73.7734L82.2171 8.63326H75.215V4.77216H89.9775L81.5764 18.4459H89.054Z" fill="white"/>
<path d="M14.2209 15.4235L18.5489 4.77216H23.5847L15.9697 22.3054H12.3772L4.875 4.77216H9.91405L14.2209 15.4235Z" fill="white"/>
<path d="M29.2776 4.77374H24.6406V22.3054H29.2776V4.77374Z" fill="white"/>
<path d="M45.1218 22.3038H39.3489L34.9751 15.5553H34.926V22.3038H30.2891V4.77374H37.2225C40.7447 4.77374 43.4187 6.4223 43.4187 10.1677C43.4187 12.5779 42.0457 14.6796 39.5156 15.1198L45.1218 22.3038ZM34.926 12.6309H35.3788C36.889 12.6309 38.5954 12.3529 38.5954 10.4457C38.5954 8.53844 36.889 8.26368 35.3788 8.26368H34.926V12.6309Z" fill="white"/>
<path d="M53.1877 22.3054H48.554V8.63326H44.1328V4.77216H57.6106V8.63326H53.1877V22.3054Z" fill="white"/>
<path d="M74.19 4.77216V14.6314C74.19 16.8809 74.0935 19.1191 72.3202 20.8191C70.8295 22.2652 68.489 22.7698 66.4067 22.7698C64.3244 22.7698 61.9855 22.2588 60.4948 20.8191C58.7198 19.1191 58.625 16.8889 58.625 14.6314V4.77216H63.2636V14.0047C63.2636 16.2832 63.427 18.7705 66.4067 18.7705C69.3863 18.7705 69.553 16.2832 69.553 14.0047V4.77216H74.19Z" fill="white"/>
<path d="M108.125 13.2142C108.125 18.8861 103.986 22.8854 98.2624 22.8854C92.5385 22.8854 88.3984 18.8861 88.3984 13.2142C88.3984 7.9118 93.1302 4.19049 98.2624 4.19049C103.395 4.19049 108.125 7.9118 108.125 13.2142ZM93.2234 13.2447C93.2234 16.2655 95.4936 18.4748 98.2624 18.4748C101.031 18.4748 103.298 16.2655 103.298 13.2447C103.298 10.8249 101.028 8.61558 98.2624 8.61558C95.4969 8.61558 93.2234 10.8169 93.2234 13.2447Z" fill="white"/>
<path d="M109.141 4.77216H113.774L122.269 15.4926H122.314V4.77216H126.95V22.3054H122.314L113.825 11.564H113.774V22.3054H109.141V4.77216Z" fill="white"/>
<path d="M132.628 8.63165V11.564H140.803V15.4235H132.628V18.4443H141.084V22.3038H127.992V4.77216H141.084V8.63165H132.628Z" fill="white"/>
<path d="M6.81838 35.9309H4.875V31.9139H6.77261C7.60782 31.9139 8.12104 32.3221 8.12104 32.9535V32.9648C8.12601 33.145 8.0779 33.3227 7.98249 33.4767C7.88709 33.6306 7.74847 33.7541 7.58331 33.8324C8.0573 34.0108 8.34823 34.2791 8.34823 34.819V34.8303C8.34823 35.5646 7.74185 35.9309 6.81838 35.9309ZM7.22699 33.1014C7.22699 32.8378 7.01778 32.6884 6.63695 32.6884H5.74944V33.5384H6.57648C6.97365 33.5384 7.23026 33.4115 7.23026 33.1126L7.22699 33.1014ZM7.45582 34.7081C7.45582 34.4382 7.25151 34.2727 6.78896 34.2727H5.74944V35.1564H6.81838C7.21555 35.1564 7.45582 35.0183 7.45582 34.7194V34.7081Z" fill="#808487"/>
<path d="M11.6747 35.9952C10.5764 35.9952 9.90625 35.3926 9.90625 34.2101V31.9124H10.8052V34.186C10.8052 34.8415 11.1321 35.1789 11.6862 35.1789C12.2403 35.1789 12.5688 34.8576 12.5688 34.2149V31.9124H13.4677V34.1811C13.4677 35.3975 12.7731 35.9952 11.6747 35.9952Z" fill="#808487"/>
<path d="M16.7107 35.9888C16.072 35.991 15.4548 35.7622 14.9766 35.346L15.5078 34.7194C15.8421 35.0198 16.2759 35.191 16.7287 35.2014C17.0965 35.2014 17.3187 35.0584 17.3187 34.8222V34.811C17.3187 34.5876 17.1782 34.4719 16.5015 34.3C15.6843 34.0944 15.1465 33.8694 15.1465 33.0724V33.0596C15.1465 32.3317 15.7431 31.8497 16.5783 31.8497C17.1296 31.8408 17.6667 32.0215 18.0968 32.3606L17.6293 33.0258C17.3231 32.7919 16.9523 32.6542 16.5653 32.6306C16.222 32.6306 16.0406 32.7913 16.0406 32.9809V32.9921C16.0406 33.2556 16.2155 33.3424 16.9216 33.5191C17.7519 33.7328 18.2193 34.0253 18.2193 34.7258V34.7371C18.2128 35.5405 17.5933 35.9888 16.7107 35.9888Z" fill="#808487"/>
<path d="M19.9141 35.9309V31.9139H20.813V35.9309H19.9141Z" fill="#808487"/>
<path d="M25.5794 35.9309L23.5984 33.3761V35.9309H22.7109V31.9139H23.5412L25.4568 34.3884V31.9139H26.3443V35.9309H25.5794Z" fill="#808487"/>
<path d="M28.2031 35.9309V31.9139H31.2857V32.7013H29.0955V33.5159H31.0226V34.3032H29.0955V35.1468H31.3151V35.9325L28.2031 35.9309Z" fill="#808487"/>
<path d="M34.4451 35.9887C33.8063 35.9913 33.189 35.7625 32.7109 35.346L33.2421 34.7194C33.5765 35.0198 34.0102 35.191 34.4631 35.2014C34.8308 35.2014 35.0531 35.0584 35.0531 34.8222V34.8109C35.0531 34.5876 34.9126 34.4719 34.2359 34.3C33.4187 34.0943 32.8809 33.8694 32.8809 33.0724V33.0596C32.8809 32.3317 33.4759 31.8496 34.3111 31.8496C34.8607 31.8434 35.3954 32.0258 35.823 32.3654L35.349 33.0322C35.0435 32.7982 34.6731 32.6604 34.2866 32.637C33.9417 32.637 33.7619 32.7976 33.7619 32.9872V32.9985C33.7619 33.262 33.9368 33.3488 34.6429 33.5255C35.4715 33.7392 35.939 34.0317 35.939 34.7322V34.7435C35.9455 35.5404 35.3277 35.9887 34.4451 35.9887Z" fill="#808487"/>
<path d="M38.9936 35.9888C38.3544 35.9911 37.7366 35.7624 37.2578 35.346L37.7906 34.7194C38.1244 35.0198 38.5576 35.1911 39.01 35.2014C39.3777 35.2014 39.6 35.0584 39.6 34.8222V34.811C39.6 34.5876 39.4594 34.4719 38.7828 34.3C37.9655 34.0944 37.4278 33.8694 37.4278 33.0724V33.0596C37.4278 32.3317 38.0244 31.8497 38.8596 31.8497C39.4108 31.8408 39.9479 32.0215 40.378 32.3606L39.9105 33.0258C39.605 32.792 39.2347 32.6542 38.8481 32.6306C38.5033 32.6306 38.3218 32.7913 38.3218 32.9809V32.9921C38.3218 33.2556 38.4967 33.3424 39.2045 33.5191C40.0331 33.7328 40.5006 34.0253 40.5006 34.7258V34.7371C40.494 35.5405 39.8746 35.9888 38.9936 35.9888Z" fill="#808487"/>
<path d="M46.2342 35.9888C45.5954 35.9913 44.9781 35.7625 44.5 35.346L45.0312 34.7194C45.3651 35.0196 45.7982 35.1908 46.2505 35.2014C46.6183 35.2014 46.8406 35.0584 46.8406 34.8222V34.811C46.8406 34.5876 46.7 34.4719 46.0233 34.3C45.2061 34.0944 44.67 33.8694 44.67 33.0724V33.0596C44.67 32.3317 45.2649 31.8497 46.1001 31.8497C46.6514 31.8408 47.1885 32.0215 47.6186 32.3606L47.1511 33.0258C46.8456 32.7918 46.4753 32.654 46.0887 32.6306C45.7438 32.6306 45.5624 32.7913 45.5624 32.9809V32.9921C45.5624 33.2556 45.7373 33.3424 46.445 33.5191C47.2737 33.7328 47.7411 34.0253 47.7411 34.7258V34.7371C47.7346 35.5405 47.1102 35.9888 46.2342 35.9888Z" fill="#808487"/>
<path d="M49.3984 35.9309V31.9139H52.4827V32.7013H50.2925V33.5159H52.2195V34.3032H50.2859V35.1468H52.5039V35.9325L49.3984 35.9309Z" fill="#808487"/>
<path d="M56.035 32.7286V35.9309H55.1344V32.7286H53.8906V31.9124H57.2789V32.7286H56.035Z" fill="#808487"/>
<path d="M60.5497 35.9952C59.453 35.9952 58.7812 35.3926 58.7812 34.2101V31.9124H59.6802V34.186C59.6802 34.8415 60.0071 35.1789 60.5628 35.1789C61.1185 35.1789 61.4438 34.8576 61.4438 34.2149V31.9124H62.3427V34.1811C62.3427 35.3975 61.6481 35.9952 60.5497 35.9952Z" fill="#808487"/>
<path d="M65.715 34.7258H65.0318V35.9309H64.1328V31.9139H65.8032C66.7839 31.9139 67.3674 32.4827 67.3674 33.3038V33.3151C67.3674 34.2438 66.6319 34.7258 65.715 34.7258ZM66.457 33.3199C66.457 32.923 66.1759 32.7109 65.7264 32.7109H65.0318V33.9401H65.7444C66.1939 33.9401 66.457 33.675 66.457 33.3311V33.3199Z" fill="#808487"/>
<path d="M76.0335 35.9598H75.2506L74.3271 33.3295L73.4053 35.9582H72.6224L71.2266 31.9107H72.1909L73.0375 34.6326L73.9545 31.9011H74.7243L75.6412 34.6326L76.4879 31.9107H77.4277L76.0335 35.9598Z" fill="#808487"/>
<path d="M79.0078 35.9309V31.9139H79.9068V35.9309H79.0078Z" fill="#808487"/>
<path d="M83.66 32.7286V35.9309H82.7594V32.7286H81.5156V31.9124H84.9039V32.7286H83.66Z" fill="#808487"/>
<path d="M89.0189 35.9309V34.3241H87.3599V35.9309H86.4609V31.9139H87.3599V33.5047H89.0189V31.9139H89.9178V35.9309H89.0189Z" fill="#808487"/>
<path d="M97.2731 35.9309L95.2938 33.3761V35.9309H94.4062V31.9139H95.2349L97.1505 34.3884V31.9139H98.038V35.9309H97.2731Z" fill="#808487"/>
<path d="M101.878 36C100.616 36 99.7109 35.0761 99.7109 33.9337V33.9224C99.7108 33.644 99.7676 33.3684 99.8778 33.112C99.9881 32.8556 100.15 32.6235 100.353 32.4296C100.556 32.2357 100.797 32.0839 101.061 31.9831C101.325 31.8824 101.607 31.8348 101.89 31.8432C103.151 31.8432 104.055 32.7687 104.055 33.9112V33.9224C104.055 34.2006 103.999 34.476 103.889 34.7322C103.778 34.9884 103.617 35.2203 103.414 35.4141C103.211 35.6078 102.97 35.7595 102.707 35.8602C102.443 35.9608 102.161 36.0084 101.878 36ZM103.116 33.9224C103.121 33.7589 103.094 33.5959 103.034 33.4431C102.975 33.2903 102.885 33.1509 102.769 33.033C102.654 32.9152 102.515 32.8214 102.362 32.7572C102.209 32.693 102.045 32.6598 101.878 32.6595C101.713 32.6589 101.549 32.6912 101.397 32.7545C101.245 32.8178 101.107 32.9107 100.993 33.0277C100.878 33.1446 100.789 33.2832 100.73 33.435C100.671 33.5869 100.644 33.7488 100.651 33.9112V33.9224C100.645 34.086 100.673 34.249 100.733 34.4018C100.792 34.5546 100.883 34.6941 100.998 34.8119C101.114 34.9297 101.252 35.0235 101.405 35.0876C101.558 35.1518 101.723 35.185 101.89 35.1853C102.055 35.1859 102.218 35.1536 102.371 35.0903C102.523 35.027 102.66 34.934 102.775 34.8171C102.889 34.7001 102.979 34.5615 103.037 34.4097C103.096 34.2578 103.122 34.0959 103.116 33.9337V33.9224Z" fill="#808487"/>
<path d="M110.842 35.9309L109.966 34.6455H109.258V35.9309H108.359V31.9139H110.228C111.192 31.9139 111.77 32.4137 111.77 33.2411V33.2524C111.784 33.5257 111.705 33.7957 111.547 34.0207C111.388 34.2457 111.159 34.4133 110.894 34.4977L111.893 35.9325L110.842 35.9309ZM110.858 33.2845C110.858 32.9069 110.59 32.7109 110.152 32.7109H109.258V33.8646H110.17C110.608 33.8646 110.858 33.6348 110.858 33.2958V33.2845Z" fill="#808487"/>
<path d="M113.461 35.9309V31.9139H116.545V32.7013H114.355V33.5159H116.282V34.3032H114.355V35.1468H116.579V35.9325L113.461 35.9309Z" fill="#808487"/>
<path d="M120.22 36C118.946 36 118.07 35.1227 118.07 33.9337V33.9224C118.068 33.6465 118.122 33.3729 118.229 33.1178C118.337 32.8628 118.495 32.6315 118.695 32.4376C118.895 32.2437 119.132 32.0912 119.393 31.9891C119.653 31.8871 119.932 31.8374 120.213 31.8433C120.801 31.8132 121.378 32.0111 121.82 32.3944L121.253 33.066C120.965 32.7976 120.581 32.6515 120.184 32.6595C119.53 32.6595 119.01 33.2283 119.01 33.9112V33.9224C119.01 34.6567 119.525 35.1966 120.249 35.1966C120.55 35.2054 120.846 35.1211 121.096 34.9556V34.382H120.19V33.6171H121.965V35.3637C121.481 35.7763 120.861 36.0023 120.22 36Z" fill="#808487"/>
<path d="M126.184 35.9309L125.308 34.6455H124.602V35.9309H123.703V31.9139H125.568C126.531 31.9139 127.109 32.4137 127.109 33.2411V33.2524C127.123 33.5257 127.044 33.7957 126.886 34.0207C126.727 34.2457 126.498 34.4133 126.233 34.4977L127.232 35.9325L126.184 35.9309ZM126.202 33.2845C126.202 32.9069 125.933 32.7109 125.496 32.7109H124.602V33.8646H125.512C125.951 33.8646 126.202 33.6348 126.202 33.2958V33.2845Z" fill="#808487"/>
<path d="M128.797 35.9309V31.9139H131.879V32.7013H129.689V33.5159H131.611V34.3032H129.689V35.1468H131.909V35.9325L128.797 35.9309Z" fill="#808487"/>
<path d="M135.441 32.7286V35.9309H134.541V32.7286H133.297V31.9124H136.683V32.7286H135.441Z" fill="#808487"/>
<path d="M139.617 35.9888C138.978 35.991 138.361 35.7622 137.883 35.346L138.416 34.7194C138.749 35.0198 139.183 35.1911 139.635 35.2014C140.003 35.2014 140.225 35.0584 140.225 34.8222V34.811C140.225 34.5876 140.084 34.4719 139.408 34.3C138.591 34.0944 138.053 33.8694 138.053 33.0724V33.0596C138.053 32.3317 138.649 31.8497 139.485 31.8497C140.036 31.8408 140.573 32.0215 141.003 32.3606L140.536 33.0258C140.23 32.7922 139.86 32.6545 139.473 32.6306C139.128 32.6306 138.947 32.7913 138.947 32.9809V32.9921C138.947 33.2556 139.122 33.3424 139.828 33.5191C140.658 33.7328 141.126 34.0253 141.126 34.7258V34.7371C141.119 35.5405 140.5 35.9888 139.617 35.9888Z" fill="#808487"/>
</g>
<defs>
<clipPath id="clip0_4794_11167">
<rect width="146" height="36" fill="white"/>
</clipPath>
</defs>
</svg>
