<svg width="108" height="30" viewBox="0 0 108 30" fill="none" xmlns="http://www.w3.org/2000/svg">
<path d="M5.55842 0.105188C3.34794 1.01122 0.917878 3.57089 0.150385 6.78383C-0.821583 10.8547 3.22323 12.5762 3.55499 12.0118C3.94547 11.3485 2.83021 11.1242 2.60064 9.01206C2.30394 6.28401 3.59914 3.23571 5.2292 1.89821C5.5322 1.64971 5.51779 1.99558 5.51779 2.63532C5.51779 3.77933 5.45323 14.0492 5.45323 16.1925C5.45323 19.0927 5.3309 20.0085 5.11119 20.9135C4.88858 21.8305 4.53069 22.4502 4.80188 22.6889C5.10486 22.9559 6.3985 22.3208 7.14741 21.2973C8.04545 20.0698 8.35981 18.5956 8.41625 16.9946C8.48442 15.0647 8.48151 12.0024 8.48442 10.2556C8.48715 8.65362 8.51198 3.96255 8.45574 1.14246C8.44196 0.450744 6.48285 -0.274965 5.55831 0.104347M84.0526 13.6779C83.9813 15.1856 83.6405 16.3641 83.2175 17.1954C82.3986 18.8046 80.6993 19.3043 79.9778 16.9909C79.5846 15.7299 79.5662 13.6239 79.8489 11.8641C80.1367 10.0715 80.9401 8.71758 82.2706 8.83968C83.5829 8.96038 84.1971 10.6162 84.0526 13.6778V13.6779ZM61.9297 23.0322C61.9119 25.5374 61.5092 27.734 60.6458 28.3719C59.4211 29.2766 57.7751 28.598 58.1159 26.7699C58.4175 25.1523 59.8437 23.5002 61.9331 21.4817C61.9331 21.4817 61.9375 21.942 61.9297 23.0322H61.9297ZM61.5952 13.6633C61.5203 15.0365 61.1568 16.4161 60.7601 17.1955C59.9413 18.8048 58.2297 19.3079 57.5204 16.9911C57.0354 15.4082 57.1515 13.3595 57.3915 12.0687C57.7029 10.3938 58.4577 8.84004 59.8132 8.84004C61.1311 8.84004 61.781 10.2559 61.5952 13.6634V13.6633ZM48.7794 13.6423C48.699 15.0967 48.4093 16.3125 47.9443 17.1955C47.103 18.7937 45.4386 19.3006 44.7045 16.9911C44.1754 15.3258 44.3555 13.0551 44.5756 11.8285C44.9023 10.0083 45.7203 8.71776 46.9974 8.84004C48.3091 8.96553 48.9468 10.6163 48.7794 13.6424V13.6423ZM107.511 15.3411C107.191 15.3411 107.044 15.6647 106.923 16.2095C106.503 18.1038 106.062 18.5316 105.493 18.5316C104.857 18.5316 104.286 17.5936 104.139 15.7159C104.023 14.2395 104.042 11.5213 104.19 8.81745C104.22 8.26191 104.063 7.71224 102.542 7.17094C101.887 6.9381 100.935 6.59527 100.461 7.71545C99.122 10.8801 98.5981 13.3926 98.4749 14.4133C98.4685 14.4661 98.4023 14.4769 98.3907 14.3535C98.3122 13.536 98.1366 12.0505 98.1148 8.92943C98.1105 8.32047 97.9788 7.80213 97.2924 7.37777C96.847 7.10241 95.4945 6.6154 95.0075 7.19478C94.5856 7.66863 94.097 8.94383 93.5893 10.4554C93.1766 11.684 92.8892 12.5151 92.8892 12.5151C92.8892 12.5151 92.8947 9.20016 92.8996 7.94275C92.9018 7.46838 92.5695 7.31031 92.4693 7.28166C92.0183 7.15348 91.1298 6.93936 90.7526 6.93936C90.2872 6.93936 90.1732 7.19408 90.1732 7.56522C90.1732 7.61381 90.0998 11.9297 90.0998 14.9475C90.0998 15.0786 90.0998 15.2216 90.1011 15.3735C89.8437 16.7606 89.009 18.6434 88.1012 18.6434C87.1923 18.6434 86.7634 17.8563 86.7634 14.2585C86.7634 12.1597 86.8278 11.2471 86.8594 9.72908C86.8778 8.85473 86.9132 8.1833 86.9112 8.03093C86.9045 7.56368 86.0794 7.32818 85.6955 7.24114C85.3097 7.15338 84.9745 7.11938 84.7128 7.13398C84.3423 7.15444 84.0802 7.39244 84.0802 7.71979C84.0802 7.8953 84.0822 8.22905 84.0822 8.22905C83.605 7.49479 82.8375 6.98374 82.3269 6.83565C80.9516 6.43568 79.5164 6.79008 78.4339 8.27338C77.5735 9.45193 77.0549 10.7868 76.8507 12.7046C76.7015 14.1066 76.7502 15.5284 77.0154 16.7308C76.6949 18.0876 76.1 18.6434 75.4485 18.6434C74.5026 18.6434 73.817 17.1317 73.8966 14.5173C73.9491 12.7977 74.3005 11.591 74.6846 9.84513C74.8484 9.1009 74.7153 8.71125 74.3816 8.3378C74.0754 7.99533 73.4232 7.82036 72.4856 8.03557C71.8177 8.189 70.8628 8.354 69.9892 8.48075C69.9892 8.48075 70.0419 8.27479 70.0852 7.91168C70.3124 6.00741 68.1992 6.16191 67.5249 6.77014C67.1225 7.13327 66.8485 7.56154 66.7445 8.33158C66.5797 9.55357 67.5975 10.1299 67.5975 10.1299C67.2635 11.6268 66.445 13.5821 65.5998 14.9958C65.1472 15.7532 64.8009 16.3145 64.3539 16.9111C64.3523 16.6889 64.351 16.4668 64.3502 16.2457C64.34 13.0988 64.3828 10.6221 64.4017 9.72937C64.42 8.85504 64.4558 8.20141 64.4538 8.04904C64.4488 7.70728 64.245 7.57822 63.8211 7.41481C63.4462 7.27028 63.003 7.17024 62.5433 7.13535C61.9631 7.09103 61.6135 7.39239 61.6226 7.74875C61.6243 7.81603 61.6243 8.22918 61.6243 8.22918C61.1472 7.49491 60.3797 6.98388 59.869 6.83577C58.4937 6.43598 57.0585 6.79038 55.976 8.2735C55.1158 9.45205 54.5525 11.1059 54.3928 12.6901C54.2442 14.1666 54.2716 15.4214 54.4743 16.4783C54.2556 17.5367 53.6268 18.6436 52.9159 18.6436C52.007 18.6436 51.4898 17.8564 51.4898 14.2587C51.4898 12.1598 51.5541 11.2472 51.5858 9.72937C51.6041 8.85504 51.6396 8.18343 51.6376 8.03124C51.6309 7.56399 50.8057 7.32849 50.4218 7.24127C50.0201 7.15031 49.6732 7.11684 49.4069 7.13606C49.0555 7.1617 48.8085 7.46982 48.8085 7.69962V8.22918C48.3313 7.49491 47.5638 6.98388 47.0532 6.83577C45.6778 6.43598 44.2507 6.79609 43.1602 8.2735C42.449 9.23685 41.8733 10.3049 41.577 12.6691C41.4914 13.3523 41.4536 13.9921 41.4585 14.5901C41.1749 16.2883 39.9224 18.2455 38.8979 18.2455C38.2984 18.2455 37.7274 17.1069 37.7274 14.6802C37.7274 11.4476 37.9317 6.84521 37.9663 6.40163C37.9663 6.40163 39.2607 6.38009 39.5114 6.37724C40.1571 6.37029 40.7419 6.38525 41.6019 6.34217C42.0333 6.32063 42.4488 4.80476 42.0036 4.61716C41.8019 4.53225 40.3758 4.45785 39.8105 4.4461C39.3351 4.43555 38.0117 4.33965 38.0117 4.33965C38.0117 4.33965 38.1304 1.28477 38.158 0.96206C38.1815 0.693096 37.8261 0.554614 37.6223 0.470586C37.1268 0.265354 36.6834 0.167091 36.1579 0.0610035C35.4319 -0.085663 35.1025 0.0577992 35.0381 0.657845C34.9412 1.56851 34.891 4.23587 34.891 4.23587C34.3582 4.23587 32.5382 4.13388 32.0053 4.13388C31.5101 4.13388 30.9756 6.21918 31.6602 6.2448C32.4479 6.27471 33.8205 6.30053 34.7305 6.3274C34.7305 6.3274 34.69 11.0057 34.69 12.45C34.69 12.6036 34.6914 12.7516 34.6916 12.8952C34.1908 15.4513 32.4268 16.8321 32.4268 16.8321C32.8056 15.141 32.0318 13.8712 30.6379 12.7962C30.1243 12.4001 29.1105 11.6502 27.9762 10.8284C27.9762 10.8284 28.6332 10.1944 29.2158 8.9188C29.6286 8.01526 29.6465 6.98123 28.6332 6.75322C26.959 6.37621 25.5785 7.58021 25.1668 8.86557C24.8478 9.86131 25.0179 10.6002 25.6429 11.3677C25.6885 11.4238 25.7379 11.4811 25.789 11.5388C25.4111 12.2521 24.8919 13.2124 24.4522 13.9571C23.2317 16.0248 22.3097 17.6603 21.6129 17.6603C21.0559 17.6603 21.0634 15.9999 21.0634 14.4452C21.0634 13.105 21.1645 11.0901 21.2452 9.00388C21.2719 8.31394 20.9196 7.92091 20.329 7.56491C19.9702 7.34863 19.2043 6.92339 18.7608 6.92339C18.0969 6.92339 16.1815 7.01185 14.3716 12.1381C14.1436 12.7843 13.6955 13.9616 13.6955 13.9616L13.734 7.79702C13.734 7.65249 13.6554 7.51275 13.4754 7.41716C13.1705 7.255 12.3559 6.92339 11.6316 6.92339C11.2865 6.92339 11.1143 7.08056 11.1143 7.39385L11.0511 17.0384C11.0511 17.7712 11.0706 18.6261 11.1446 19C11.2183 19.3743 11.3378 19.6789 11.4857 19.8601C11.6334 20.0409 11.8042 20.1789 12.0859 20.2358C12.3481 20.2887 13.7837 20.4692 13.8583 19.932C13.9477 19.2882 13.9511 18.5918 14.7049 15.9947C15.8785 11.9514 17.4086 9.97862 18.1279 9.278C18.2537 9.15554 18.3973 9.14824 18.3904 9.34866C18.3597 10.2351 18.2517 12.4502 18.179 14.332C17.9841 19.3681 18.9197 20.3015 20.2568 20.3015C21.2796 20.3015 22.7215 19.3063 24.2672 16.787C25.2309 15.2171 26.1665 13.6777 26.8387 12.5682C27.3072 12.9928 27.8329 13.4499 28.3582 13.9381C29.5791 15.0727 29.9799 16.1509 29.714 17.1737C29.5106 17.9556 28.7445 18.7614 27.3812 17.9781C26.9838 17.7497 26.8142 17.5731 26.4146 17.3155C26.1999 17.1771 25.8722 17.1358 25.6757 17.2807C25.1652 17.6576 24.8733 18.137 24.7066 18.7304C24.5445 19.3079 25.1351 19.6131 25.7473 19.8801C26.2745 20.1099 27.4075 20.3182 28.1301 20.3419C30.9456 20.4341 33.2009 19.0108 34.771 15.3393C35.052 18.5101 36.2481 20.3043 38.3263 20.3043C39.7157 20.3043 41.1086 18.5458 41.7178 16.8158C41.8927 17.521 42.1515 18.1343 42.4858 18.6528C44.0872 21.1372 47.1936 20.6025 48.7541 18.4928C49.2365 17.841 49.3099 17.6067 49.3099 17.6067C49.5375 19.5987 51.1758 20.2947 52.1138 20.2947C53.1643 20.2947 54.249 19.8084 55.0092 18.1325C55.0983 18.3144 55.1955 18.4881 55.3017 18.6528C56.903 21.1372 60.0095 20.6024 61.5699 18.4928C61.6435 18.3938 61.7073 18.3041 61.7631 18.2235L61.8089 19.5319C61.8089 19.5319 60.9187 20.3316 60.3723 20.8221C57.9673 22.9827 56.1386 24.6219 56.0041 26.5308C55.8314 28.9648 57.8474 29.8694 59.3725 29.988C60.9922 30.1138 62.3792 29.2377 63.2317 28.0116C63.9816 26.9324 64.4724 24.6096 64.4364 22.3155C64.4221 21.3969 64.3984 20.2288 64.3799 18.9768C65.2252 18.0156 66.1775 16.8007 67.0545 15.3786C68.0101 13.8289 69.0342 11.7477 69.5587 10.1281C69.5587 10.1281 70.4485 10.1356 71.3981 10.0747C71.7019 10.0553 71.7892 10.116 71.733 10.334C71.6652 10.5975 70.5332 14.8727 71.5663 17.7208C72.2734 19.6704 73.8675 20.2977 74.8126 20.2977C75.9189 20.2977 76.9772 19.4796 77.5444 18.2648C77.6127 18.4002 77.6842 18.5312 77.7622 18.6522C79.3635 21.1366 82.4591 20.5987 84.0304 18.4923C84.385 18.017 84.5863 17.6061 84.5863 17.6061C84.9235 19.6678 86.5608 20.3047 87.4986 20.3047C88.4755 20.3047 89.4026 19.9125 90.1548 18.1697C90.1863 18.937 90.2357 19.5645 90.3139 19.7623C90.3615 19.8833 90.6391 20.0352 90.841 20.1085C91.7347 20.433 92.6461 20.2796 92.9833 20.2128C93.2169 20.1665 93.3991 19.983 93.424 19.5092C93.4894 18.2649 93.4493 16.1745 93.8345 14.6209C94.4811 12.0135 95.0842 11.0021 95.3703 10.5014C95.5305 10.2208 95.7112 10.1745 95.7177 10.4715C95.7312 11.0722 95.7617 12.8364 96.0122 15.2067C96.1962 16.9499 96.4419 17.9803 96.6308 18.3064C97.1698 19.239 97.8355 19.2831 98.3776 19.2831C98.7224 19.2831 99.4435 19.1898 99.379 18.5964C99.3476 18.3071 99.4026 16.5194 100.04 13.9507C100.456 12.2732 101.15 10.7575 101.401 10.2034C101.493 9.99902 101.536 10.1601 101.535 10.1915C101.482 11.3467 101.364 15.1254 101.844 17.192C102.496 19.9916 104.38 20.3049 105.037 20.3049C106.439 20.3049 107.586 19.2605 107.972 16.5125C108.065 15.8512 107.927 15.3406 107.515 15.3406" fill="#262626"/>
</svg>
