<svg width="130" height="24" viewBox="0 0 130 24" fill="none" xmlns="http://www.w3.org/2000/svg">
<g clip-path="url(#clip0_4794_11901)">
<path fill-rule="evenodd" clip-rule="evenodd" d="M20.6161 1.11489C21.3633 1.37523 21.8957 2.04009 21.9864 2.82614L23.8382 18.875H28.3333C31.0017 18.875 32.8302 17.9541 33.9978 16.7244C35.1915 15.4672 35.8177 13.7566 35.8177 12C35.8177 10.2435 35.1915 8.53289 33.9978 7.27566C32.8302 6.04599 31.0017 5.12505 28.3333 5.12505H25.4458L24.8958 1.00006H28.3333C32.0295 1.00006 34.9744 2.31348 36.9891 4.43537C38.9777 6.52969 39.9427 9.28786 39.9427 12C39.9427 14.7122 38.9777 17.4704 36.9891 19.5647C34.9744 21.6866 32.0295 23 28.3333 23H22.0007H22C20.9524 23 20.0712 22.2146 19.9511 21.1739L18.3778 7.53902L7.04186 18.875H16.4875L17.0375 23H2.06256C1.22835 23 0.476293 22.4975 0.157058 21.7268C-0.162177 20.9561 0.0142819 20.069 0.604151 19.4791L18.4791 1.60415C19.0386 1.04464 19.8689 0.854549 20.6161 1.11489Z" fill="url(#paint0_radial_4794_11901)"/>
<path d="M87.0362 8.8584C85.4106 8.8584 84.0042 9.51593 83.1458 10.6301C82.3786 9.42461 81.0636 8.8584 79.4745 8.8584C78.2691 8.8584 77.1732 9.22369 76.333 9.88123V9.02278H73.1914V19.8356H76.333V13.2602C76.8261 12.2374 77.6481 11.5799 78.7074 11.5799C79.9677 11.5799 80.7531 12.3835 80.7531 14.1369V19.8356H83.8946C83.8946 19.8356 83.8946 13.4063 83.8946 13.2967C84.3878 12.2557 85.228 11.5799 86.2873 11.5799C87.5476 11.5799 88.333 12.3835 88.333 14.1369V19.8356H91.4745V13.6438C91.4563 10.3378 89.6115 8.8584 87.0362 8.8584Z" fill="#1A1A1A"/>
<path d="M56.3165 19.8172H59.732L53.4489 5.58887H53.2663H50.2343L43.9512 19.8172H47.3667L48.6818 16.6391H55.0014L56.3165 19.8172ZM49.6863 14.2464L51.8599 9.00439L54.0334 14.2464H49.6863Z" fill="#1A1A1A"/>
<path d="M93.576 9.02283H96.7175V19.8356H93.576V9.02283ZM96.9732 5.82648C96.9732 6.83105 96.1513 7.65296 95.1468 7.65296C94.1422 7.65296 93.3203 6.83105 93.3203 5.82648C93.3203 4.82192 94.1422 4 95.1468 4C96.1513 4 96.9732 4.82192 96.9732 5.82648Z" fill="#1A1A1A"/>
<path d="M106.18 19.3057C105.54 19.7624 104.591 19.9815 103.622 19.9815C101.065 19.9815 99.5859 18.6847 99.5859 16.1094V11.4336H97.9238V9.02261H99.5859V6.61166L102.727 5.77148V9.02261H105.412V11.4336H102.727V16.0729C102.727 17.0044 103.239 17.4975 104.079 17.4975C104.536 17.4975 105.011 17.3514 105.339 17.0957L106.18 19.3057Z" fill="#1A1A1A"/>
<path d="M111.658 8.8584C109.923 8.8584 108.187 9.31502 107 10.1735L108.133 12.3652C108.918 11.7442 110.105 11.3607 111.256 11.3607C112.936 11.3607 113.74 12.1461 113.74 13.4977C112.955 13.3698 111.913 13.315 111.256 13.315C107.968 13.315 106.617 14.831 106.617 16.7305C106.617 18.5935 108.114 19.9999 110.653 19.9999C112.096 19.9999 113.082 19.6712 113.74 18.9223V19.8356H113.941H116.882V13.662C116.863 10.3744 114.945 8.8584 111.658 8.8584ZM111.42 17.8812C110.324 17.8812 109.649 17.3515 109.649 16.5662C109.649 15.8356 110.105 15.3059 111.585 15.3059C111.585 15.3059 113.009 15.2328 113.74 15.4885C113.74 15.799 113.74 16.2191 113.74 16.2191C113.375 17.2054 112.461 17.8812 111.42 17.8812Z" fill="#1A1A1A"/>
<path d="M67.8766 5.57065V9.80809C67.0182 9.22362 66.0136 8.85832 64.936 8.85832C61.8675 8.85832 59.3652 11.3424 59.3652 14.4291C59.3652 17.5159 61.8492 19.9816 64.936 19.9816C66.0501 19.9816 67.0364 19.5981 67.8766 18.9588V19.8172H71.0182V4.73047L67.8766 5.57065ZM62.4885 14.4291C62.4885 11.9816 65.1917 10.5204 67.8584 12.5478V16.3652C65.0638 18.4474 62.4885 16.7487 62.4885 14.4291Z" fill="#1A1A1A"/>
<path d="M126.836 5.57065V9.80809C125.977 9.22362 124.973 8.85832 123.895 8.85832C120.827 8.85832 118.324 11.3424 118.324 14.4291C118.324 17.5159 120.808 19.9999 123.895 19.9999C125.009 19.9999 125.996 19.6163 126.836 18.977V19.8355H129.977V4.73047L126.836 5.57065ZM121.448 14.4291C121.448 11.9816 124.151 10.5204 126.818 12.5478V16.3652C124.023 18.4474 121.448 16.7487 121.448 14.4291Z" fill="#1A1A1A"/>
</g>
<defs>
<radialGradient id="paint0_radial_4794_11901" cx="0" cy="0" r="1" gradientUnits="userSpaceOnUse" gradientTransform="translate(32.2227 1) rotate(141.021) scale(34.974 34.9243)">
<stop stop-color="#9D70FF"/>
<stop offset="1" stop-color="#7D1EF5"/>
</radialGradient>
<clipPath id="clip0_4794_11901">
<rect width="130" height="24" fill="white"/>
</clipPath>
</defs>
</svg>
