<svg width="150" height="20" viewBox="0 0 150 20" fill="none" xmlns="http://www.w3.org/2000/svg">
<path fill-rule="evenodd" clip-rule="evenodd" d="M6.73958 0C7.89758 0 8.73906 0.16826 9.84303 0.390057L9.3335 3.54876C8.76994 3.43403 8.00566 3.3499 7.52702 3.3499C6.23006 3.3499 6.14514 3.90822 6.14514 4.80306V6.39388H9.38754L9.10962 9.69025H6.14514V19.7247H2.08441V9.69025H0V6.39388H2.08441V4.35946C2.08441 1.56788 3.41225 0 6.73958 0ZM22.0793 11.0363V19.7247H18.7519L18.4663 18.8528C16.8914 19.7247 15.4786 20 14.5522 20C12.0124 20 10.9701 18.1874 10.9701 15.87C10.9701 13.1319 12.2362 12.0382 15.054 12.0382H18.0185V11.0057C18.0185 9.61377 17.7638 9.13193 15.5944 9.13193C14.3824 9.13193 13.1704 9.27725 11.8734 9.52964L11.333 6.5086C12.63 6.11855 14.6912 5.83556 16.2738 5.83556C21.0371 5.83556 22.0793 7.26577 22.0793 11.0363ZM15.9573 16.8719C16.8065 16.8719 17.4009 16.6807 18.0185 16.3977V14.8375H16.0731C15.2007 14.8375 14.861 15.0593 14.861 15.8088C14.861 16.566 15.1698 16.8719 15.9573 16.8719ZM30.9032 9.27725C29.2666 9.27725 28.6799 9.91969 28.6799 11.3117V14.5239C28.6799 15.9235 29.2666 16.566 30.9032 16.566C31.9454 16.566 32.7406 16.4512 33.7288 16.2294L34.2306 19.5793C32.8487 19.8929 31.8605 20 30.9032 20C26.4488 20 24.6191 18.3556 24.6191 14.4704V11.3728C24.6191 7.48757 26.4488 5.83556 30.9032 5.83556C31.8605 5.83556 32.8487 5.95029 34.2306 6.25621L33.7288 9.61377C32.8796 9.41491 31.6984 9.27725 30.9032 9.27725ZM47.5167 11.4799V14.3327H40.1287V14.7228C40.1287 16.283 40.7463 16.7036 42.6068 16.7036C43.8729 16.7036 45.5713 16.4818 46.7833 16.1224L47.37 19.1358C46.1348 19.5793 44.1276 20 42.2131 20C37.7586 20 36.0679 17.8203 36.0679 14.4704V11.2887C36.0679 8.35182 37.3881 5.83556 41.9583 5.83556C46.5286 5.83556 47.5167 8.52008 47.5167 11.4799ZM40.1287 11.3117H43.6799V10.7304C43.6799 9.77438 43.3942 8.99426 41.9892 8.99426C40.5764 8.99426 40.1287 9.77438 40.1287 10.7304V11.3117ZM62.6557 10.7533V14.2715C62.6557 17.5143 61.7293 20 56.0551 20C54.5883 20 52.3649 19.8623 50.4735 19.5564V0.558317L54.5342 0V6.59273C55.6382 6.17208 56.9352 5.83556 58.4251 5.83556C61.4745 5.83556 62.6557 7.70937 62.6557 10.7533ZM57.1282 9.33078C56.2558 9.33078 55.2985 9.69025 54.5342 10.088V16.4512C55.1287 16.5124 55.6382 16.5124 56.2018 16.5124C58.2321 16.5124 58.595 15.587 58.595 14.3021V10.7839C58.595 9.8891 58.2012 9.33078 57.1282 9.33078ZM77.316 14.501C77.316 17.2925 75.9959 20 71.1168 20C66.2378 20 64.9099 17.2925 64.9099 14.501V11.3423C64.9099 8.55067 66.2378 5.83556 71.1168 5.83556C75.9959 5.83556 77.316 8.55067 77.316 11.3423V14.501ZM68.9707 14.608C68.9707 15.8929 69.65 16.6195 71.1168 16.6195C72.5836 16.6195 73.2553 15.8929 73.2553 14.608V11.2275C73.2553 9.94264 72.5836 9.21606 71.1168 9.21606C69.65 9.21606 68.9707 9.94264 68.9707 11.2275V14.608ZM91.984 14.501C91.984 17.2925 90.6562 20 85.7771 20C80.8981 20 79.578 17.2925 79.578 14.501V11.3423C79.578 8.55067 80.8981 5.83556 85.7771 5.83556C90.6562 5.83556 91.984 8.55067 91.984 11.3423V14.501ZM83.6387 14.608C83.6387 15.8929 84.3103 16.6195 85.7771 16.6195C87.2439 16.6195 87.9233 15.8929 87.9233 14.608V11.2275C87.9233 9.94264 87.2439 9.21606 85.7771 9.21606C84.3103 9.21606 83.6387 9.94264 83.6387 11.2275V14.608ZM99.0015 0V19.7247H94.9408V0.558317L99.0015 0ZM103.201 19.7247L99.5419 12.8795L103.039 6.11855H107.378L103.773 12.8795L107.548 19.7247H103.201ZM126.647 19.7476H125.18L123.582 15.3499H115.715L114.141 19.7476H112.666L118.556 3.00574H120.764L126.647 19.7476ZM123.127 14.065L119.645 3.86233L116.171 14.065H123.127ZM132.738 20C130.329 20 129.241 18.8222 129.241 16.6042V11.0287C129.241 8.78776 130.252 7.25813 133.047 7.25813C134.344 7.25813 135.432 7.3805 136.853 7.65583V2.50096L138.327 2.3021V19.7476H136.976L136.907 18.5927C135.656 19.5258 134.112 20 132.738 20ZM132.846 18.6922C134.367 18.6922 135.687 18.065 136.853 17.1319V8.98662C135.51 8.71128 134.189 8.56597 132.993 8.56597C131.372 8.56597 130.708 9.36902 130.708 11.0287V16.6042C130.708 18.0191 131.171 18.6922 132.846 18.6922ZM146.163 12.8872C149.799 13.7897 150 14.3709 150 16.6577C150 18.8681 149.189 20 145.885 20C144.642 20 143.176 19.7476 142.257 19.3728L142.512 18.195C143.577 18.5163 144.874 18.6922 145.785 18.6922C148.07 18.6922 148.525 18.2639 148.525 16.7113C148.525 14.9522 148.479 14.7686 145.661 14.1185C142.566 13.392 142.311 12.6348 142.311 10.3939C142.311 8.35946 143.299 7.25813 146.341 7.25813C147.483 7.25813 148.881 7.40344 149.846 7.67878L149.691 8.91778C148.703 8.71128 147.259 8.56597 146.24 8.56597C144.086 8.56597 143.778 9.11663 143.778 10.4474C143.778 12.13 143.886 12.3059 146.163 12.8872Z" fill="#004A9D"/>
</svg>
