<svg width="190" height="40" viewBox="0 0 190 40" fill="none" xmlns="http://www.w3.org/2000/svg">
<path d="M73.8469 25.2867C73.8469 28.2817 71.5039 30.4887 68.6285 30.4887C65.7531 30.4887 63.4102 28.2817 63.4102 25.2867C63.4102 22.2706 65.7531 20.0848 68.6285 20.0848C71.5039 20.0848 73.8469 22.2706 73.8469 25.2867ZM71.5625 25.2867C71.5625 23.4151 70.2046 22.1346 68.6285 22.1346C67.0525 22.1346 65.6945 23.4151 65.6945 25.2867C65.6945 27.1395 67.0525 28.4388 68.6285 28.4388C70.2046 28.4388 71.5625 27.1372 71.5625 25.2867Z" fill="#747474"/>
<path d="M85.1047 25.2867C85.1047 28.2817 82.7617 30.4887 79.8863 30.4887C77.011 30.4887 74.668 28.2817 74.668 25.2867C74.668 22.273 77.011 20.0848 79.8863 20.0848C82.7617 20.0848 85.1047 22.2706 85.1047 25.2867ZM82.8203 25.2867C82.8203 23.4151 81.4624 22.1346 79.8863 22.1346C78.3103 22.1346 76.9523 23.4151 76.9523 25.2867C76.9523 27.1395 78.3103 28.4388 79.8863 28.4388C81.4624 28.4388 82.8203 27.1372 82.8203 25.2867Z" fill="#747474"/>
<path d="M95.8942 20.3991V29.7382C95.8942 33.5798 93.6286 35.1488 90.9503 35.1488C88.429 35.1488 86.9116 33.4625 86.3393 32.0835L88.3282 31.2556C88.6823 32.1022 89.5501 33.1014 90.9479 33.1014C92.6624 33.1014 93.7248 32.0436 93.7248 30.0524V29.3043H93.645C93.1338 29.9352 92.1487 30.4863 90.9057 30.4863C88.3047 30.4863 85.9219 28.2207 85.9219 25.3055C85.9219 22.3691 88.3047 20.0848 90.9057 20.0848C92.1464 20.0848 93.1314 20.6359 93.645 21.2481H93.7248V20.4014H95.8942V20.3991ZM93.8866 25.3055C93.8866 23.4738 92.6647 22.1346 91.1097 22.1346C89.5337 22.1346 88.2133 23.4738 88.2133 25.3055C88.2133 27.1184 89.5337 28.4388 91.1097 28.4388C92.6647 28.4388 93.8866 27.1184 93.8866 25.3055Z" fill="#747474"/>
<path d="M99.4703 14.925V30.1696H97.2422V14.925H99.4703Z" fill="#747474"/>
<path d="M108.153 26.9991L109.926 28.1811C109.354 29.0278 107.975 30.4866 105.592 30.4866C102.637 30.4866 100.43 28.2022 100.43 25.2846C100.43 22.1912 102.655 20.0827 105.336 20.0827C108.036 20.0827 109.356 22.231 109.788 23.392L110.024 23.983L103.071 26.863C103.603 27.9067 104.431 28.4391 105.592 28.4391C106.755 28.4391 107.562 27.8668 108.153 26.9991ZM102.695 25.1275L107.344 23.1973C107.088 22.5476 106.319 22.095 105.414 22.095C104.253 22.095 102.637 23.1199 102.695 25.1275Z" fill="#747474"/>
<path d="M54.9774 23.9337V21.7267H62.4144C62.4871 22.1114 62.5247 22.5664 62.5247 23.0589C62.5247 24.7147 62.072 26.7622 60.6132 28.2209C59.1943 29.6985 57.3814 30.4865 54.9797 30.4865C50.5283 30.4865 46.7852 26.8607 46.7852 22.4092C46.7852 17.9578 50.5283 14.3319 54.9797 14.3319C57.4423 14.3319 59.1966 15.2982 60.5147 16.5576L58.9574 18.1149C58.0122 17.2284 56.7317 16.5389 54.9774 16.5389C51.7268 16.5389 49.1844 19.1586 49.1844 22.4092C49.1844 25.6598 51.7268 28.2796 54.9774 28.2796C57.0858 28.2796 58.2866 27.4329 59.0559 26.6636C59.6798 26.0398 60.0902 25.1486 60.252 23.9313L54.9774 23.9337Z" fill="#747474"/>
<path d="M22.8008 6.53408V35.0341C22.8008 38.2255 24.8747 40 27.0758 40C29.1115 40 31.3508 38.4886 31.3508 35.0341V6.74999C31.3508 3.82848 29.3151 2 27.0758 2C24.8365 2 22.8008 4.0174 22.8008 6.53408Z" fill="#F8AB00"/>
<path d="M11.3984 20.8257V34.9885C11.3984 38.2092 13.4723 40 15.6734 40C17.7092 40 19.9484 38.4748 19.9484 34.9885V21.0436C19.9484 18.0952 17.9127 16.25 15.6734 16.25C13.4342 16.25 11.3984 18.2859 11.3984 20.8257Z" fill="#E37300"/>
<path d="M8.55 35.725C8.55 38.0852 6.63516 40 4.275 40C1.91484 40 0 38.0852 0 35.725C0 33.3649 1.91484 31.45 4.275 31.45C6.63516 31.45 8.55 33.3649 8.55 35.725Z" fill="#E37300"/>
<path d="M120.609 18.4585L118.319 24.7937H122.992L120.683 18.4585H120.609ZM116.342 30.2792H114.348L119.63 16.2421H121.68L126.963 30.2792H124.968L123.62 26.4744H117.709L116.342 30.2792Z" fill="#747474"/>
<path d="M127.871 20.675H129.607V22.0048H129.681C129.949 21.5385 130.369 21.1506 130.937 20.8412C131.514 20.5226 132.105 20.361 132.71 20.361C133.892 20.361 134.797 20.7027 135.425 21.3769C136.062 22.0418 136.386 22.9976 136.386 24.2397V30.2793H134.576V24.369C134.539 22.7944 133.749 22.0048 132.211 22.0048C131.496 22.0048 130.891 22.3004 130.401 22.8914C129.921 23.4732 129.681 24.1612 129.681 24.96V30.2793H127.871V20.675Z" fill="#747474"/>
<path d="M139.729 27.3426C139.729 27.8136 139.923 28.2061 140.32 28.5247C140.712 28.8341 141.179 28.9864 141.723 28.9864C142.472 28.9864 143.146 28.7094 143.737 28.1553C144.337 27.592 144.642 26.927 144.642 26.1605C144.074 25.7173 143.284 25.4956 142.278 25.4956C141.548 25.4956 140.939 25.6757 140.449 26.0313C139.969 26.3776 139.729 26.8162 139.729 27.3426ZM142.056 20.361C143.386 20.361 144.429 20.7212 145.196 21.4323C145.972 22.148 146.359 23.1269 146.359 24.369V30.2793H144.642V28.9495H144.568C143.815 30.0484 142.818 30.5933 141.576 30.5933C140.514 30.5933 139.627 30.2793 138.916 29.6513C138.214 29.0234 137.863 28.243 137.863 27.3057C137.863 26.3083 138.237 25.5233 138.99 24.9415C139.738 24.3505 140.745 24.055 142.001 24.055C143.072 24.055 143.949 24.2489 144.642 24.6276V24.2212C144.642 23.5932 144.388 23.0669 143.884 22.6328C143.39 22.1895 142.813 21.9679 142.148 21.9679C141.137 21.9679 140.343 22.3927 139.766 23.2423L138.177 22.2449C139.05 20.989 140.343 20.361 142.056 20.361Z" fill="#747474"/>
<path d="M150.134 16.2421V30.2792H148.324V16.2421H150.134Z" fill="#747474"/>
<path d="M160.776 20.6748L154.755 34.5087H152.908L155.143 29.6696L151.172 20.6748H153.13L155.992 27.5825H156.029L158.818 20.6748H160.776Z" fill="#747474"/>
<path d="M165.734 30.4269C164.958 30.4269 164.311 30.1868 163.794 29.7065C163.277 29.2263 163.009 28.5568 163 27.6933V22.3186H161.301V20.6748H163V17.7381H164.792V20.6748H167.156V22.3186H164.792V27.1023C164.792 27.7441 164.912 28.1828 165.161 28.4137C165.42 28.6353 165.701 28.7461 166.011 28.7461C166.158 28.7461 166.297 28.7369 166.435 28.7092C166.569 28.6722 166.699 28.6307 166.823 28.5799L167.377 30.1868C166.906 30.3438 166.362 30.4269 165.734 30.4269Z" fill="#747474"/>
<path d="M171.104 17.3688C171.104 17.7151 170.974 18.0152 170.716 18.2738C170.466 18.5231 170.171 18.6432 169.829 18.6432C169.469 18.6432 169.169 18.5231 168.924 18.2738C168.675 18.0152 168.555 17.7151 168.555 17.3688C168.555 17.0132 168.675 16.7131 168.924 16.4638C169.169 16.219 169.469 16.0944 169.829 16.0944C170.171 16.0944 170.466 16.219 170.716 16.4638C170.974 16.7131 171.104 17.0132 171.104 17.3688ZM170.734 20.6749V30.2792H168.924V20.6749H170.734Z" fill="#747474"/>
<path d="M176.814 30.5933C175.383 30.5933 174.201 30.1085 173.268 29.1342C172.345 28.1507 171.883 26.9317 171.883 25.4772C171.883 23.9996 172.345 22.7806 173.268 21.8201C174.201 20.8505 175.383 20.361 176.814 20.361C177.798 20.361 178.652 20.6104 179.382 21.0998C180.106 21.5939 180.656 22.2726 181.025 23.1315L179.382 23.8149C178.874 22.6097 177.982 22.0048 176.703 22.0048C175.877 22.0048 175.161 22.3373 174.561 23.0022C173.97 23.6671 173.674 24.4936 173.674 25.4772C173.674 26.4653 173.97 27.2872 174.561 27.9521C175.161 28.617 175.877 28.9495 176.703 28.9495C178.019 28.9495 178.943 28.3492 179.474 27.1394L181.081 27.8228C180.734 28.6863 180.185 29.3651 179.437 29.8545C178.684 30.344 177.812 30.5933 176.814 30.5933Z" fill="#747474"/>
<path d="M189.998 27.6197C189.998 28.46 189.629 29.1665 188.89 29.7437C188.161 30.307 187.246 30.5933 186.138 30.5933C185.178 30.5933 184.328 30.3393 183.589 29.836C182.86 29.3327 182.338 28.6678 182.02 27.8413L183.626 27.1579C183.871 27.7397 184.217 28.1876 184.661 28.5062C185.113 28.8294 185.607 28.9864 186.138 28.9864C186.715 28.9864 187.196 28.8664 187.579 28.617C187.971 28.3723 188.17 28.0768 188.17 27.7305C188.17 27.1164 187.694 26.6685 186.748 26.3822L185.104 25.9758C183.229 25.4956 182.297 24.5906 182.297 23.2608C182.297 22.3881 182.652 21.6862 183.368 21.1552C184.079 20.6288 184.993 20.361 186.101 20.361C186.951 20.361 187.717 20.5642 188.41 20.9705C189.098 21.3769 189.578 21.9217 189.851 22.5959L188.244 23.2608C188.059 22.8544 187.754 22.5405 187.339 22.3188C186.933 22.0879 186.475 21.9679 185.972 21.9679C185.501 21.9679 185.076 22.0879 184.698 22.3188C184.328 22.5543 184.144 22.8452 184.144 23.1869C184.144 23.7318 184.661 24.1242 185.695 24.369L187.136 24.7384C189.043 25.2093 189.998 26.1698 189.998 27.6197Z" fill="#747474"/>
</svg>
