<svg width="116" height="32" viewBox="0 0 116 32" fill="none" xmlns="http://www.w3.org/2000/svg">
<g opacity="0.5">
<rect y="28.3843" width="16.9489" height="1.00156" fill="black"/>
<rect x="98.251" y="28.3843" width="16.9489" height="1.00156" fill="black"/>
<rect width="115.2" height="1.00156" fill="black"/>
<path d="M0 22.9758L3.25129 6.41992L8.54969 17.6775L14.0488 6.41992L16.9589 22.9758H14.5606L13.0453 13.6813L8.50955 22.9758L4.06411 13.6713L2.40836 22.9758H0Z" fill="black"/>
<path fill-rule="evenodd" clip-rule="evenodd" d="M23.5418 19.24H30.1046L31.7704 22.9758H34.3193L26.9436 6.41992L19.3071 22.9758H21.8158L23.5418 19.24ZM26.9135 11.6082L29.2015 17.0267H24.5052L26.9135 11.6082Z" fill="black"/>
<path d="M36.6772 22.9758V6.41992L47.9263 17.337V6.41992H50.2544V22.9758L39.0053 12.0788V22.9758H36.6772Z" fill="black"/>
<path d="M89.0093 22.9758V6.41992L100.258 17.337V6.41992H102.586V22.9758L91.3173 12.0788V22.9758H89.0093Z" fill="black"/>
<path d="M62.457 9.1041L60.45 10.2659C60.2243 9.77504 59.8794 9.34815 59.4465 9.02397C59.0422 8.78934 58.5792 8.67468 58.1119 8.69346C57.5037 8.67223 56.9085 8.87147 56.4361 9.25433C56.0098 9.59865 55.7656 10.1193 55.7738 10.6665C55.7738 11.4478 56.3558 12.0687 57.5198 12.5495L59.1154 13.2005C60.2126 13.5864 61.1934 14.2448 61.9653 15.1135C62.5725 15.9089 62.8877 16.8883 62.8584 17.8878C62.8986 19.2534 62.3678 20.5742 61.3933 21.5335C60.4115 22.4914 59.083 23.0117 57.7105 22.9758C56.4503 23.0215 55.221 22.5802 54.2786 21.7438C53.3345 20.8186 52.7451 19.5924 52.6128 18.2784L55.0513 17.7476C55.0799 18.4336 55.28 19.1015 55.6333 19.6906C56.1148 20.2802 56.8192 20.6447 57.5794 20.6978C58.3397 20.751 59.0881 20.4879 59.6472 19.9711C60.1717 19.4623 60.4591 18.7578 60.44 18.028C60.4405 17.7393 60.3965 17.4521 60.3095 17.1767C60.2199 16.9144 60.0839 16.6701 59.9081 16.4556C59.698 16.2222 59.4585 16.0168 59.1957 15.8446C58.8732 15.643 58.538 15.4623 58.1922 15.3038L56.6468 14.6628C54.4592 13.7413 53.3654 12.4059 53.3654 10.6565C53.3475 9.49954 53.8524 8.39599 54.7402 7.65183C55.6918 6.8333 56.9165 6.40084 58.1721 6.43994C59.9923 6.44059 61.6539 7.47373 62.457 9.1041Z" fill="black"/>
<path d="M114.789 9.10408L112.782 10.2659C112.553 9.77698 112.209 9.35081 111.778 9.02396C111.374 8.78932 110.911 8.67467 110.444 8.69344C109.836 8.67221 109.24 8.87145 108.768 9.25432C108.342 9.59863 108.097 10.1193 108.106 10.6665C108.106 11.4477 108.688 12.0687 109.852 12.5495L111.447 13.2005C112.544 13.5864 113.525 14.2447 114.297 15.1135C114.904 15.9089 115.22 16.8882 115.19 17.8878C115.23 19.2534 114.7 20.5741 113.725 21.5335C112.743 22.4914 111.415 23.0117 110.042 22.9758C108.782 23.0215 107.553 22.5802 106.61 21.7438C105.663 20.8195 105.07 19.5935 104.935 18.2784L107.383 17.7476C107.412 18.4336 107.612 19.1015 107.965 19.6906C108.447 20.2802 109.151 20.6447 109.911 20.6978C110.671 20.7509 111.42 20.4879 111.979 19.9711C112.481 19.4627 112.753 18.7716 112.732 18.0581C112.732 17.7693 112.688 17.4822 112.601 17.2067C112.512 16.9444 112.376 16.7002 112.2 16.4856C111.99 16.2522 111.75 16.0469 111.487 15.8747C111.165 15.673 110.83 15.4923 110.484 15.3338L108.938 14.6928C106.751 13.7714 105.657 12.436 105.657 10.6866C105.639 9.52957 106.144 8.42602 107.032 7.68186C107.983 6.86332 109.208 6.43087 110.464 6.46997C112.292 6.44965 113.971 7.47236 114.789 9.10408Z" fill="black"/>
<path d="M67.5647 6.41992V22.9758H65.2266V6.41992H67.5647Z" fill="black"/>
<path fill-rule="evenodd" clip-rule="evenodd" d="M72.3912 8.83403C70.7923 10.3376 69.8971 12.4406 69.9227 14.6331C69.8406 17.0021 70.8366 19.2811 72.6321 20.8328C75.9521 23.7943 81.005 23.676 84.1822 20.5624C85.7925 19.05 86.6889 16.9298 86.6508 14.7232C86.6778 12.512 85.7881 10.388 84.1922 8.85406C82.6543 7.27117 80.5308 6.39079 78.3218 6.42026C76.098 6.38434 73.9558 7.25621 72.3912 8.83403ZM72.3507 14.6463C72.2957 16.2943 72.9451 17.8882 74.1373 19.0303C76.4409 21.3265 80.1726 21.3265 82.4763 19.0303C83.6157 17.9011 84.2429 16.356 84.2123 14.7537C84.2533 13.1504 83.6329 11.6006 82.4963 10.467C81.4048 9.30216 79.8693 8.65423 78.2717 8.68418C76.6867 8.65275 75.16 9.28041 74.057 10.4169C72.9293 11.5325 72.3123 13.0625 72.3507 14.6463Z" fill="black"/>
<path d="M22.4379 28.9051C21.9648 28.8627 21.5083 29.0907 21.2587 29.494C21.009 29.8973 21.009 30.4068 21.2587 30.8101C21.5083 31.2134 21.9648 31.4414 22.4379 31.399C22.8141 31.3926 23.1734 31.242 23.4414 30.9783L23.7926 31.3689C23.4278 31.7355 22.9353 31.9472 22.4178 31.9599C21.7761 31.9599 21.1831 31.6182 20.8622 31.0635C20.5414 30.5088 20.5414 29.8254 20.8622 29.2707C21.1831 28.716 21.7761 28.3743 22.4178 28.3743C22.9214 28.3785 23.4049 28.5716 23.7725 28.9151L23.4213 29.3558C23.1676 29.0796 22.8131 28.9171 22.4379 28.9051Z" fill="black"/>
<path fill-rule="evenodd" clip-rule="evenodd" d="M26.5173 31.9028C27.5058 31.9028 28.3268 31.1411 28.3988 30.1571C28.3268 29.173 27.5058 28.4114 26.5173 28.4114C25.5287 28.4114 24.7078 29.173 24.6357 30.1571C24.7078 31.1411 25.5287 31.9028 26.5173 31.9028ZM26.5123 31.4294C25.8084 31.4294 25.2378 30.8599 25.2378 30.1574C25.2378 29.4549 25.8084 28.8854 26.5123 28.8854C27.2161 28.8854 27.7867 29.4549 27.7867 30.1574C27.7867 30.8599 27.2161 31.4294 26.5123 31.4294Z" fill="black"/>
<path d="M30.3555 28.3843L31.5296 30.738L32.6937 28.3843H33.3961V31.9298H32.8442V29.2857L31.7203 31.5592H31.3289L30.205 29.2857V31.9298H29.6431V28.3843H30.3555Z" fill="black"/>
<path d="M35.6539 28.3843L36.828 30.738L37.992 28.3843H38.7045V31.9298H38.1325V29.2857L37.0086 31.5592H36.6273L35.5134 29.2857V31.9298H34.9414V28.3843H35.6539Z" fill="black"/>
<path d="M41.7251 31.419C41.993 31.4438 42.2575 31.3439 42.4418 31.1482C42.6261 30.9525 42.7097 30.6829 42.6683 30.4175V28.3843H43.2704V30.4575C43.2704 31.3094 42.5785 31.9999 41.7251 31.9999C40.8716 31.9999 40.1797 31.3094 40.1797 30.4575V28.3843H40.7717V30.4575C40.7506 30.7166 40.8439 30.9721 41.0271 31.1569C41.2103 31.3417 41.4652 31.4374 41.7251 31.419Z" fill="black"/>
<path d="M45.3174 28.3843L47.224 30.9383V28.3843H47.816V31.9298H47.224L45.3274 29.3858V31.9298H44.7354V28.3843H45.3174Z" fill="black"/>
<path d="M49.9535 28.3843V31.9298H49.3615V28.3843H49.9535Z" fill="black"/>
<path d="M53.927 28.3843V28.9251H52.8031V31.9298H52.181V28.9251H51.0771V28.3843H53.927Z" fill="black"/>
<path d="M56.506 30.748V31.9298H55.914V30.768L54.5894 28.3843H55.1914L56.1949 30.117L57.1984 28.3843H57.8105L56.506 30.748Z" fill="black"/>
<path d="M61.7241 28.3843L62.8982 30.738L64.0723 28.3843H64.7747V31.9298H64.2228V29.2857L63.0989 31.5592H62.7176L61.5937 29.2857V31.9298H61.0317V28.3843H61.7241Z" fill="black"/>
<path fill-rule="evenodd" clip-rule="evenodd" d="M66.8222 31.1286H68.6084L68.9496 31.9298H69.5918L68.0364 28.3843H67.4243L65.8589 31.9298H66.481L66.8222 31.1286ZM67.7153 29.0453L68.3877 30.5977L67.043 30.6178L67.7153 29.0453Z" fill="black"/>
<path d="M71.2473 28.3843L73.1539 30.9383V28.3843H73.746V31.9298H73.1539L71.2473 29.3858V31.9298H70.6553V28.3843H71.2473Z" fill="black"/>
<path fill-rule="evenodd" clip-rule="evenodd" d="M75.8032 31.1286H77.5894L77.9306 31.9298H78.5728L77.0174 28.3843H76.4053L74.8398 31.9298H75.462L75.8032 31.1286ZM76.6963 29.0453L77.3686 30.5977L76.0239 30.6178L76.6963 29.0453Z" fill="black"/>
<path d="M81.9947 30.1871H82.5165V31.4992C82.1129 31.7903 81.6296 31.951 81.1317 31.9599C80.1397 31.9599 79.3354 31.1572 79.3354 30.1671C79.3354 29.1769 80.1397 28.3743 81.1317 28.3743C81.6297 28.3757 82.1119 28.5491 82.4964 28.865L82.1552 29.3057C81.88 29.056 81.5237 28.9137 81.1518 28.9051C80.675 28.8626 80.215 29.0924 79.9635 29.4989C79.712 29.9054 79.712 30.4188 79.9635 30.8252C80.215 31.2317 80.675 31.4615 81.1518 31.419C81.4422 31.411 81.7257 31.3282 81.9746 31.1786L81.9947 30.1871Z" fill="black"/>
<path d="M86.5105 28.3843V28.9251H84.5738V29.9267H86.2998V30.4575H84.5738V31.4591H86.5807V31.9899H83.9717V28.3843H86.5105Z" fill="black"/>
<path fill-rule="evenodd" clip-rule="evenodd" d="M89.5108 30.8581L90.1631 31.9298H90.7953L90.0026 30.748C90.4772 30.5706 90.7763 30.1004 90.7351 29.5962C90.7351 28.825 90.2133 28.3843 89.3102 28.3843H87.9053V31.9298H88.5074V30.8581H89.5108ZM90.1732 29.6165C90.1732 30.0972 89.8521 30.3276 89.3102 30.3276H88.5074V28.9254H89.3102C89.8521 28.9254 90.1732 29.1357 90.1732 29.6165Z" fill="black"/>
<path d="M93.3242 28.9252C92.973 28.9252 92.7522 29.0554 92.7522 29.2957C92.7522 30.067 94.6689 29.6563 94.6588 30.9283C94.6588 31.5593 94.1069 31.9299 93.3242 31.9299C92.7868 31.9268 92.2691 31.7272 91.8691 31.369L92.13 30.8482C92.4535 31.1639 92.8823 31.3494 93.3342 31.369C93.7457 31.369 93.9965 31.2087 93.9965 30.9383C93.9965 30.1471 92.0799 30.5878 92.0799 29.3258C92.0799 28.7249 92.6017 28.3242 93.3744 28.3242C93.8152 28.3228 94.2472 28.448 94.6187 28.6848L94.3678 29.2156C94.0518 29.0284 93.6917 28.9281 93.3242 28.9252Z" fill="black"/>
</g>
</svg>
