<svg width="170" height="23" viewBox="0 0 170 23" fill="none" xmlns="http://www.w3.org/2000/svg">
<path d="M68.6875 0.801208H72.4647C73.8263 1.97317 73.3711 3.9365 73.537 5.50918C72.2543 5.38031 70.8968 5.54744 69.6606 5.15478C68.2242 4.25466 69.0254 2.16447 68.6875 0.801208Z" fill="#EB5E42"/>
<path d="M58.9261 2.3476C60.3038 2.59528 62.3512 1.83814 63.2535 3.28395C63.6137 4.25052 63.4781 5.33388 63.5813 6.35078C64.7325 6.53201 66.3854 6.04068 67.0773 7.30325C67.1582 8.35439 67.2047 9.40553 67.2209 10.4607C65.9908 10.4627 64.7628 10.4688 63.5348 10.4708C63.5165 12.8086 63.4174 15.1546 63.6177 17.4884C63.6845 17.9073 63.8989 18.2838 64.0668 18.6705C65.1249 18.5476 66.1669 18.308 67.1784 17.9777C67.1784 19.2625 67.1804 20.5472 67.1825 21.8319C65.3819 22.5428 63.3304 23.0985 61.4266 22.4401C59.8486 21.989 58.8107 20.3317 58.9119 18.7228C58.7986 16.0325 58.8957 13.3403 58.837 10.648C58.2584 10.356 57.2064 10.3157 57.0061 9.53038C56.8827 8.55173 56.8038 7.56906 56.7734 6.58034C57.2792 6.51188 58.2888 6.37092 58.7946 6.30245C58.8735 4.98551 58.918 3.66655 58.9261 2.3476Z" fill="#1D2545"/>
<path d="M2.27198 8.70098C5.56969 5.15691 11.7645 5.38647 15.0845 8.78757C14.1255 9.83871 13.1686 10.8939 12.1833 11.9229C11.0301 11.2443 9.93966 10.171 8.50324 10.2656C6.84831 10.1367 5.38356 11.4496 4.93847 12.968C3.99165 15.3622 5.60611 18.5076 8.31306 18.7009C9.88302 18.86 11.1171 17.8088 12.3715 17.0577C13.3365 17.976 14.251 18.9425 15.1432 19.9313C13.2212 21.7677 10.6538 23.129 7.90237 22.7262C3.76101 22.8108 0.404627 19.1761 0 15.2233V13.7855C0.41272 11.9712 0.859832 10.03 2.27198 8.70098Z" fill="#1D2545"/>
<path d="M22.6216 6.79787C23.5199 6.20383 24.6649 6.30452 25.6806 6.10718C25.7008 7.71409 25.7048 9.321 25.6866 10.9279C23.704 10.9682 21.5615 12.0636 21.0051 14.0632C20.3719 16.7736 20.7057 19.5887 20.6288 22.3434C19.0811 22.3535 17.5334 22.3555 15.9857 22.3434C15.9857 17.0253 15.9817 11.7052 15.9877 6.38708C17.1854 6.52199 18.4822 6.21189 19.6354 6.63073C20.5539 7.04152 20.5661 8.17724 20.7178 9.01895C21.2256 8.18731 21.7739 7.32948 22.6216 6.79787Z" fill="#1D2545"/>
<path d="M26.4747 11.0466C27.5328 8.449 30.0618 6.24402 32.9832 6.25409C35.7023 5.84733 38.6925 6.97096 40.1795 9.33099C41.3974 11.3467 41.7433 13.7852 41.5774 16.103C37.869 16.1191 34.1606 16.0748 30.4542 16.1312C30.9863 17.3394 31.83 18.6483 33.2684 18.8255C35.1459 19.4457 36.7624 18.3623 38.2069 17.3575C39.1436 18.1791 40.0945 18.9906 40.9968 19.8504C39.6717 21.0163 38.2312 22.2608 36.4225 22.5447C33.8895 23.0743 31.0288 22.7521 28.943 21.1231C25.8112 18.9121 25.1658 14.4518 26.4747 11.0466ZM33.7155 9.88273C31.9291 9.94314 30.8933 11.542 30.4279 13.0603C32.6554 13.0905 34.8849 13.0885 37.1124 13.0583C36.5985 11.5219 35.5971 9.82232 33.7155 9.88273Z" fill="#1D2545"/>
<path d="M43.284 7.5128C46.5332 6.28446 50.3488 5.51725 53.6162 7.04966C55.6029 7.82895 56.5902 9.96344 56.7379 11.965C56.9827 15.4366 56.8168 18.9223 56.8451 22.3999C55.7243 22.3314 54.5772 22.4563 53.4725 22.2549C52.9971 21.9388 52.5722 21.5602 52.1433 21.1897C51.0488 21.8119 49.9745 22.5731 48.6777 22.6677C46.347 23.0201 43.5005 22.267 42.4687 19.9412C41.6534 17.9295 41.9022 15.3118 43.6785 13.8659C46.2176 12.1201 49.4606 12.6416 52.3416 13.0605C52.0644 12.3194 51.9936 11.2824 51.1823 10.8756C49.1248 9.70771 46.6444 10.5897 44.51 11.0569C44.0872 9.88088 43.6664 8.70288 43.284 7.5128ZM47.0167 16.3871C46.0861 17.3315 46.7011 19.0512 47.9676 19.3049C49.0034 19.3291 50.2031 19.4559 51.1136 18.8458C52.0584 18.2256 52.3315 17.0757 52.5621 16.0528C50.8 15.7024 48.4309 14.8526 47.0167 16.3871Z" fill="#1D2545"/>
<path d="M95.3637 6.52189C98.1111 5.81911 101.342 6.10707 103.44 8.19122C105.512 10.2432 105.831 13.3402 105.848 16.105C102.089 16.111 98.3316 16.0768 94.5726 16.1452C95.3313 17.1642 95.9564 18.6825 97.3969 18.8335C99.2885 19.4155 100.97 18.3824 102.408 17.3172C103.304 18.1408 104.217 18.9463 105.121 19.7638C103.99 20.7686 102.865 21.9487 101.354 22.3433C98.5643 23.1649 95.3131 22.8468 92.9723 21.0344C90.0125 18.7187 89.27 14.2967 90.7145 10.9379C91.5359 8.90407 93.2798 7.23674 95.3637 6.52189ZM95.835 10.811C95.2483 11.4473 94.955 12.2891 94.5908 13.0623C96.8183 13.0905 99.0478 13.0865 101.279 13.0543C100.875 11.7856 100.189 10.3459 98.7221 10.072C97.7064 9.68739 96.6261 10.1968 95.835 10.811Z" fill="#1D2545"/>
<path d="M68.7883 6.38708C70.2125 6.59651 72.5877 5.8152 73.2918 7.57918C73.666 12.4986 73.3342 17.4563 73.4374 22.3918C72.2478 22.3273 71.0339 22.4784 69.8605 22.2629C69.025 22.0797 68.679 21.1071 68.8166 20.3358C68.6992 15.6883 68.8267 11.0367 68.7883 6.38708Z" fill="#1D2545"/>
<path d="M74.2188 6.45354C75.9 6.43944 77.5812 6.43944 79.2644 6.45958C80.4237 9.81437 81.5223 13.1873 82.6674 16.5461C83.9905 13.2296 84.9677 9.79221 86.1775 6.43743C87.8102 6.43542 89.4469 6.4334 91.0816 6.45153C89.0746 11.8522 86.9099 17.1945 84.7876 22.5509C83.3653 22.5549 81.9451 22.5529 80.5249 22.5468C78.435 17.1764 76.3228 11.816 74.2188 6.45354Z" fill="#1D2545"/>
<path d="M128.354 6.74566C132.548 5.96637 136.984 9.18019 137.454 13.4069C138.208 17.2752 135.671 21.4314 131.836 22.4684C129.582 22.9537 126.986 22.9054 125.036 21.5361C121.109 19.1942 120.188 13.2156 123.092 9.73194C124.364 8.10489 126.26 6.91481 128.354 6.74566ZM128.766 8.95063C127.459 9.11374 126.207 9.78832 125.376 10.8113C123.46 12.9659 123.51 16.5744 125.481 18.6807C127.061 20.6561 130.205 21.1253 132.299 19.7057C135.034 18.1954 135.75 14.2345 134.152 11.6631C133.14 9.77825 130.915 8.56401 128.766 8.95063Z" fill="#1D2545"/>
<path d="M146.189 6.74741C148.315 6.34669 150.656 7.05953 152.052 8.73491C152.916 9.7337 153.108 11.105 153.242 12.3676C153.466 15.6881 153.333 19.0208 153.347 22.3474C152.465 22.3474 151.595 22.3474 150.721 22.3474C150.68 18.9463 150.862 15.5391 150.626 12.1441C150.326 10.1405 148.331 8.72686 146.337 8.90607C144.18 9.12959 142.098 11.0245 142.268 13.2858C142.137 16.3043 142.244 19.3268 142.228 22.3474C141.344 22.3474 140.474 22.3474 139.598 22.3474C139.594 17.2266 139.592 12.1058 139.598 6.98503C140.435 7.03336 141.295 6.98906 142.135 7.10585C142.175 7.57503 142.258 8.51341 142.298 8.98058C143.458 8.04221 144.585 6.80984 146.189 6.74741Z" fill="#1D2545"/>
<path d="M157.606 8.65652C160.306 5.94007 165.336 5.96424 167.877 8.89615C169.574 10.6762 169.678 13.2678 170.001 15.5654C165.89 15.8131 161.771 15.6621 157.658 15.7185C158.03 17.2368 158.662 18.8437 160.06 19.7056C161.269 20.5654 162.821 20.6822 164.256 20.501C165.609 20.1546 166.627 19.0974 167.893 18.5558C168.425 18.9283 168.911 19.3673 169.408 19.7861C167.092 22.8086 162.591 23.6322 159.238 21.9226C154.488 19.4659 153.804 12.2409 157.606 8.65652ZM157.717 13.6746C160.95 13.7008 164.183 13.7028 167.42 13.6605C166.908 12.2268 166.548 10.4628 165.148 9.59691C164.339 9.13376 163.444 8.65048 162.467 8.8599C159.831 8.74311 158.095 11.3246 157.717 13.6746Z" fill="#1D2545"/>
<path d="M107.229 7.0475C111.599 7.04548 115.967 7.02535 120.339 7.05555C120.347 8.17918 119.847 9.19005 119.097 9.99753C116.137 13.4308 113.149 16.842 110.239 20.3176C113.551 20.3438 116.863 20.3297 120.177 20.3357C120.177 20.8372 120.177 21.842 120.177 22.3434C115.676 22.3474 111.176 22.3615 106.677 22.3333C106.577 20.5532 108.052 19.3833 109.072 18.1429C111.647 15.1304 114.259 12.1461 116.766 9.07326C113.586 9.04506 110.407 9.06117 107.229 9.05513C107.229 8.55373 107.229 7.5489 107.229 7.0475Z" fill="#1D2545"/>
</svg>
