<svg width="104" height="30" viewBox="0 0 104 30" fill="none" xmlns="http://www.w3.org/2000/svg">
<path fill-rule="evenodd" clip-rule="evenodd" d="M3.62638 5.59308H0V25.2676H3.62638V17.0842H11.2746V25.2676H14.9057V5.59308H11.2746V13.6081H3.62638V5.59308ZM23.3901 21.8465C25.0452 21.8465 26.394 20.5063 26.394 18.8593V10.3887H29.8319V18.8593C29.8319 22.3931 26.9417 25.2676 23.3901 25.2676C19.8376 25.2676 16.9472 22.3931 16.9472 18.8593V10.3887H20.3863V18.8593C20.3863 20.5063 21.7343 21.8465 23.3901 21.8465ZM39.4325 10.488C37.7266 10.488 36.5358 10.9804 35.3858 12.1034V5.59308H31.9356V17.6585C31.9356 22.1747 35.2178 25.2676 38.9054 25.2676C43.0048 25.2676 46.5967 22.1195 46.5967 17.878C46.5967 13.6902 43.2846 10.488 39.4325 10.488ZM35.3925 17.878C35.3925 20.1498 37.1803 22.0922 39.5182 22.0922C41.4992 22.0922 43.288 20.1498 43.288 17.878C43.288 15.6057 41.4992 13.6627 39.5182 13.6627C37.1803 13.6627 35.3925 15.6057 35.3925 17.878ZM52.3915 11.3527C52.3915 9.62728 53.5472 9.08024 54.8123 9.08024C55.8308 9.08024 57.1786 9.84655 58.0582 10.7773L60.3136 8.15005C59.1864 6.64493 56.9034 5.6046 55.0325 5.6046C51.2905 5.6046 48.5943 7.7669 48.5943 11.3527C48.5943 15.1569 51.286 16.0953 53.59 16.8985C55.3139 17.4995 56.8207 18.0248 56.8207 19.6183C56.8207 20.7666 55.6931 21.7802 54.4008 21.7802C52.5507 21.7802 51.8361 20.9671 51.0198 20.0384L51.0198 20.0383L51.0196 20.0381C50.9374 19.9445 50.8541 19.8498 50.7685 19.7545L48.2644 22.3269C49.8611 24.2703 51.8412 25.2561 54.2076 25.2561C57.7564 25.2561 60.6177 23.0665 60.6177 19.6448C60.6177 15.1887 57.6263 14.256 55.2512 13.5154C53.6878 13.028 52.3915 12.6238 52.3915 11.3527ZM62.7309 17.9034C62.7309 13.3863 66.0136 10.2952 69.7007 10.2952C73.7994 10.2952 77.3923 13.4424 77.3923 17.6846C77.3923 21.8724 74.0797 25.0742 70.2279 25.0742C68.5213 25.0742 67.3312 24.5809 66.181 23.4587V30H62.7309V17.9034ZM70.3138 21.8999C67.9761 21.8999 66.1881 19.9548 66.1881 17.6846C66.1881 15.4123 67.9761 13.4693 70.3138 13.4693C72.2944 13.4693 74.0834 15.4123 74.0834 17.6846C74.0834 19.9548 72.2944 21.8999 70.3138 21.8999ZM100.176 19.8752C100.176 21.2168 100.753 22.0922 102.788 22.0922C103.175 22.0922 103.615 22.065 104 22.0385L103.147 25.1583C102.817 25.2393 102.211 25.2676 101.77 25.2676C98.828 25.2676 96.6828 23.7073 96.6828 20.6142V8.51683L100.176 6.95715V10.9261H103.339V13.9363H100.176V19.8752Z" fill="#33475B"/>
<path fill-rule="evenodd" clip-rule="evenodd" d="M90.9355 11.3885C92.0986 12.0717 93.029 12.9793 93.6904 14.1113C94.3402 15.2351 94.6496 16.4618 94.6496 17.7913V17.8588C94.6496 19.2103 94.2651 20.4388 93.5667 21.5507C92.872 22.6595 91.9524 23.5281 90.7774 24.1632C89.6624 24.7642 88.4763 25.058 87.2189 25.058H87.0105C85.8731 25.058 84.8339 24.8113 83.8924 24.4063C83.415 24.2012 82.9709 23.9633 82.5598 23.6808L79.5609 26.6646C79.6316 26.8889 79.6692 27.1249 79.6692 27.3668C79.6707 27.9876 79.4228 28.5833 78.9805 29.0213C78.5402 29.4618 77.9411 29.7088 77.3167 29.7072C76.6924 29.7088 76.0934 29.4618 75.6534 29.0213C75.2089 28.5793 74.9641 27.9919 74.9639 27.3668C74.9618 26.7458 75.2097 26.1498 75.6522 25.7118C76.2984 25.0655 77.2647 24.8546 78.1235 25.1726L81.0249 22.2792C80.5449 21.6901 80.1573 21.0386 79.8922 20.322C79.5912 19.5013 79.4144 18.6277 79.4144 17.7024V17.4273C79.4144 16.1091 79.8408 14.9007 80.5386 13.8023C80.8829 13.2636 81.3134 12.7834 81.7755 12.3613L73.0333 6.09506L72.3971 5.61491C71.9392 5.88934 71.4087 6.05626 70.835 6.05626C69.1532 6.05626 67.791 4.70028 67.791 3.02803C67.791 1.35558 69.1518 0 70.8336 0C72.5153 0 73.8768 1.35558 73.8768 3.02803C73.8768 3.30691 73.8217 3.57123 73.7502 3.82768C76.0541 5.56645 79.607 8.25149 81.8559 9.95102C82.5498 10.4754 83.1196 10.906 83.4902 11.186C84.2596 10.7988 85.1022 10.5468 85.9148 10.43V6.83125C84.8991 6.40223 84.3051 5.45263 84.3051 4.34481C84.3051 2.83484 85.5437 1.61122 87.0615 1.61122C88.5781 1.61122 89.7953 2.83484 89.7953 4.34481C89.7953 5.45263 89.165 6.40223 88.1493 6.83125V10.4284C89.165 10.5656 90.0663 10.8851 90.9355 11.3885ZM87.2189 21.8247C88.2766 21.8247 89.2123 21.2704 90.0263 20.3705C90.735 19.5951 91.0893 18.7409 91.0893 17.8186C91.0893 17.6803 91.0836 17.5357 91.0724 17.3944C91.0013 16.7148 90.7803 16.091 90.4088 15.5126C90.0263 14.9344 89.5328 14.4949 88.9289 14.1732C88.3362 13.8715 87.7081 13.7413 87.0446 13.7413H86.9766C86.2449 13.7413 85.5879 13.9392 84.9728 14.3425C84.3464 14.7487 83.8753 15.2596 83.5265 15.9166C83.2003 16.5176 83.0709 17.1539 83.0709 17.825V18.0324C83.0709 18.715 83.2984 19.3589 83.7177 19.9485C84.1233 20.5493 84.619 21.0238 85.271 21.3565C85.8496 21.6586 86.4405 21.8247 87.0446 21.8247H87.2189Z" fill="#FF7959"/>
</svg>
