<svg width="74" height="34" viewBox="0 0 74 34" fill="none" xmlns="http://www.w3.org/2000/svg">
<path fill-rule="evenodd" clip-rule="evenodd" d="M49.8358 3.94229H47.0866L49.0304 1.98973C48.7248 1.55855 48.3495 1.18173 47.9201 0.874825L45.976 2.82739V0.0658534C45.7175 0.022177 45.4558 0.000150079 45.1936 0H45.1886C44.9219 0 44.6607 0.0228926 44.4061 0.0658534V2.82739L42.4615 0.874676C42.2474 1.02777 42.0464 1.19863 41.8607 1.38545L41.8598 1.38634C41.674 1.57303 41.5041 1.7749 41.3517 1.98987L43.2963 3.94229H40.5464C40.5464 3.94229 40.481 4.46109 40.481 4.72926V4.73253C40.481 5.0007 40.5036 5.26352 40.5466 5.51935H43.2964L41.3515 7.47162C41.6574 7.90273 42.0327 8.27963 42.462 8.58681L44.4063 6.6344V9.39608C44.6605 9.4389 44.9213 9.46149 45.1877 9.46179H45.1944C45.4562 9.46155 45.7176 9.43957 45.9758 9.39608V6.6344L47.9203 8.58726C48.1344 8.43403 48.3356 8.26318 48.5216 8.07649H48.522C48.7077 7.8896 48.8776 7.68759 49.03 7.47251L47.0861 5.5195H49.836C49.8786 5.26382 49.9011 5.00189 49.9011 4.73431V4.72747C49.9011 4.46436 49.8792 4.20198 49.836 3.94258V3.94229H49.8358ZM46.1878 5.73178C46.3075 5.41256 46.3688 5.07424 46.3688 4.73312L46.3685 4.73298H46.368V4.72852C46.3682 4.38729 46.3069 4.04885 46.187 3.72956C45.8777 3.61228 45.5426 3.54776 45.1925 3.54776H45.1886C44.8488 3.54754 44.5117 3.60914 44.1937 3.72956C44.0774 4.04025 44.0132 4.37695 44.0132 4.72852V4.73298C44.0132 5.07421 44.0746 5.41265 44.1945 5.73193C44.5124 5.85218 44.8493 5.91377 45.1891 5.91373H45.1932C45.5329 5.91366 45.8698 5.85202 46.1878 5.73178ZM54.4354 24.0536C53.6504 23.313 53.239 22.1443 53.2011 20.5484L53.2008 20.5482L53.2005 20.5478H63.1031C63.1253 20.2963 63.1441 20.0446 63.1597 19.7926C63.1784 19.4983 63.1885 19.2182 63.1885 18.9521C63.1885 17.9829 63.0556 17.0853 62.791 16.2585C62.5261 15.4325 62.1383 14.72 61.6277 14.1213C61.1168 13.5228 60.4829 13.0525 59.7266 12.7106C58.9697 12.3687 58.0902 12.1975 57.0878 12.1975C55.9144 12.1975 54.8978 12.402 54.0375 12.8105C53.1767 13.219 52.4627 13.7698 51.895 14.4635C51.3281 15.157 50.9063 15.9741 50.6325 16.9141C50.3581 17.8548 50.2211 18.8666 50.2211 19.9496C50.2211 21.0515 50.3633 22.0634 50.6469 22.9846C50.9306 23.9063 51.3801 24.7044 51.9947 25.3787C52.6095 26.0528 53.3898 26.5754 54.3358 26.9462C55.2811 27.3164 56.4163 27.5022 57.7409 27.5022C58.6483 27.5022 59.4758 27.4353 60.2235 27.3027C60.9701 27.1694 61.6564 26.9708 62.2802 26.7041C62.2599 26.2961 62.203 25.8907 62.11 25.493C62.0153 25.0845 61.8925 24.7377 61.7415 24.4527C60.5309 24.9277 59.2539 25.1655 57.9112 25.1655C56.379 25.1655 55.2201 24.7945 54.4354 24.0536ZM44.4052 14.7628H42.5607C42.5228 14.6111 42.4945 14.4353 42.4757 14.2356C42.4382 13.8471 42.4382 13.4558 42.4757 13.0672C42.4945 12.868 42.5228 12.6923 42.5607 12.5398H47.1576V27.1603C46.9275 27.2005 46.6955 27.2289 46.4625 27.2453C46.231 27.2632 45.999 27.2726 45.7669 27.2736C45.5445 27.2722 45.3222 27.2627 45.1006 27.2453C44.8676 27.2288 44.6357 27.2002 44.4057 27.1599V14.7625L44.4052 14.7628ZM60.4082 18.4396C60.4082 17.9074 60.3371 17.3993 60.1956 16.9144C60.0536 16.4302 59.8449 16.0076 59.5714 15.6464C59.2965 15.2857 58.9468 14.9957 58.5211 14.7773C58.0956 14.5588 57.5895 14.4494 57.0031 14.4494C55.8493 14.4494 54.9648 14.8014 54.3502 15.5041C53.7354 16.2069 53.362 17.1854 53.2294 18.4396H60.4082ZM66.2829 12.5398C66.4804 12.5038 66.6792 12.4753 66.8788 12.4545C67.0675 12.4359 67.2665 12.4262 67.4746 12.4262C67.6827 12.4262 67.8905 12.4359 68.0989 12.4545C68.3068 12.4738 68.4961 12.5023 68.6665 12.5398C68.7227 12.8249 68.7796 13.2006 68.8361 13.6656C68.8928 14.1311 68.9216 14.5251 68.9216 14.8482C69.3187 14.2025 69.8437 13.6416 70.4961 13.1665C71.1488 12.6919 71.9857 12.454 73.0071 12.454C73.1583 12.454 73.3143 12.4591 73.4752 12.4686C73.6128 12.476 73.7505 12.49 73.8866 12.511C73.9242 12.6822 73.9532 12.863 73.9719 13.0527C73.9905 13.2425 74 13.4421 74 13.651C74 13.8792 73.9859 14.1169 73.9577 14.3633C73.9304 14.6016 73.8973 14.8391 73.8585 15.0757C73.7052 15.0378 73.5479 15.0187 73.3901 15.0187H73.0068C72.4962 15.0187 72.0089 15.0901 71.5455 15.2324C71.0817 15.3751 70.6658 15.6269 70.297 15.9875C69.9285 16.3487 69.635 16.8429 69.4179 17.4699C69.1999 18.0969 69.0914 18.9044 69.0914 19.8922V27.1599C68.8613 27.2 68.6292 27.2287 68.3961 27.2452C68.1411 27.2642 67.9092 27.2734 67.7012 27.2734C67.4692 27.2725 67.2373 27.2631 67.0059 27.2452C66.7635 27.2275 66.5221 27.1991 66.2822 27.16V12.54L66.2829 12.5398ZM0.00010207 26.7613L0 26.7615V26.761L0.00010207 26.7613ZM0.142081 27.1603L0.00010207 26.7613L7.66113 14.7913H0.907839C0.851303 14.4494 0.823035 14.0697 0.823035 13.6516C0.823035 13.2527 0.851747 12.8819 0.908431 12.5397H11.8324L11.9745 12.9108L4.25666 24.909H11.4918C11.5485 25.2891 11.5771 25.6782 11.5771 26.0771C11.5771 26.4576 11.5487 26.8184 11.492 27.1603H0.142081ZM22.1034 20.2916C21.8197 20.254 21.4602 20.2164 21.0252 20.1779C20.5901 20.1403 20.2213 20.121 19.919 20.121C18.746 20.121 17.8522 20.3395 17.2378 20.7765C16.6226 21.2139 16.3158 21.8785 16.3158 22.7715C16.3158 23.3414 16.4194 23.788 16.6276 24.1108C16.8354 24.4343 17.0958 24.6808 17.4079 24.8519C17.7202 25.0228 18.065 25.1275 18.4432 25.1655C18.8213 25.2034 19.181 25.2223 19.5214 25.2223C19.9565 25.2223 20.4057 25.1985 20.8692 25.151C21.3324 25.1038 21.7439 25.0323 22.1035 24.9373V20.2916H22.1034ZM21.2524 15.1901C21.8197 15.6272 22.1034 16.4061 22.1034 17.5276L22.1031 17.5277V18.0693C21.8382 18.0312 21.5117 17.9979 21.1242 17.9697C20.7363 17.9411 20.2398 17.9266 19.6344 17.9266C18.821 17.9266 18.0458 18.0265 17.3078 18.2261C16.5701 18.4253 15.9175 18.7297 15.3501 19.1376C14.7887 19.5395 14.3274 20.0661 14.0021 20.6765C13.671 21.2943 13.5056 22.0117 13.5056 22.8284C13.5056 23.6646 13.6475 24.3769 13.9311 24.966C14.2152 25.5549 14.6166 26.0395 15.1373 26.4191C15.6573 26.7997 16.2911 27.0745 17.0385 27.2459C17.7853 27.417 18.6227 27.5022 19.5495 27.5022C20.5193 27.5031 21.4874 27.4221 22.4436 27.2599C23.3894 27.0983 24.193 26.9416 24.8555 26.7897V17.6413C24.8555 15.7416 24.3632 14.3596 23.3799 13.4945C22.3961 12.63 20.9586 12.1975 19.0671 12.1975C18.348 12.1975 17.6009 12.2545 16.8254 12.3687C16.0494 12.4827 15.3402 12.6442 14.6979 12.8529C14.6979 13.7274 14.8769 14.4774 15.2366 15.1044C15.7906 14.9323 16.3545 14.7945 16.9253 14.6916C17.502 14.5872 18.1211 14.5346 18.7837 14.5346C19.8619 14.5346 20.6846 14.7531 21.2524 15.1901ZM30.729 24.7659C31.0872 24.8987 31.458 24.9943 31.8356 25.0509C32.2139 25.1082 32.7053 25.1365 33.3112 25.1365C33.992 25.1365 34.616 25.0276 35.1834 24.8091C35.7512 24.591 36.2381 24.2534 36.6448 23.7972C37.0515 23.3414 37.373 22.767 37.6095 22.0728C37.8458 21.3798 37.9644 20.5583 37.9644 19.6078C37.9644 18.088 37.6849 16.8815 37.1273 15.9884C36.5689 15.0956 35.6561 14.649 34.3893 14.649C33.9164 14.649 33.462 14.7344 33.0276 14.9056C32.5919 15.0766 32.2045 15.3331 31.8639 15.6751C31.5235 16.017 31.2493 16.4495 31.0413 16.9719C30.8326 17.4949 30.729 18.1165 30.729 18.8387V24.7659ZM28.5015 12.4542C28.3061 12.4731 28.1122 12.5015 27.9198 12.5395L27.9194 12.5397V33.8863C28.1495 33.9266 28.3814 33.9552 28.6144 33.9718C28.8457 33.9896 29.0775 33.999 29.3094 34C29.5175 34 29.7494 33.9903 30.005 33.9718C30.2472 33.954 30.4885 33.9255 30.7282 33.8863V27.1889C31.0499 27.2834 31.4279 27.3595 31.8633 27.4167C32.2984 27.4737 32.7238 27.5022 33.1401 27.5022C35.6181 27.5022 37.5328 26.7948 38.8855 25.3791C40.2383 23.964 40.9146 22.0017 40.9146 19.494C40.9146 18.2402 40.7681 17.1527 40.4751 16.2304C40.1816 15.3092 39.775 14.5492 39.2551 13.9505C38.7346 13.3519 38.1107 12.9108 37.3829 12.6254C36.6543 12.3403 35.8644 12.1976 35.0134 12.1976C34.4458 12.1976 33.9303 12.2646 33.4671 12.3975C33.0034 12.5307 32.5875 12.7111 32.2187 12.9392C31.8499 13.167 31.5327 13.4234 31.2678 13.7085C31.0028 13.9935 30.7757 14.2883 30.587 14.592C30.587 14.535 30.5728 14.402 30.5443 14.1927C30.5159 13.9843 30.4877 13.7653 30.4592 13.5371C30.4307 13.3094 30.4023 13.0958 30.3741 12.8961C30.3457 12.6965 30.3217 12.5783 30.3031 12.5397C30.1137 12.5022 29.915 12.4735 29.7072 12.4542C29.4987 12.4357 29.3002 12.4259 29.1117 12.4259C28.908 12.4259 28.7043 12.4353 28.5015 12.4542Z" fill="#FF4A01"/>
</svg>
