<svg width="106" height="24" viewBox="0 0 106 24" fill="none" xmlns="http://www.w3.org/2000/svg">
<path fill-rule="evenodd" clip-rule="evenodd" d="M63.2888 15.5392C63.0799 15.5392 62.9992 15.4552 62.9992 15.2465V2.02661C62.9992 0.663857 62.3378 0 60.9817 0H57.6095V3.33472H58.9085C59.1271 3.33472 59.1981 3.40476 59.1981 3.62604V6.0154C58.6412 5.5098 57.5538 4.84454 55.6811 4.84454C52.0193 4.84454 49.4644 7.78711 49.4644 12C49.4644 16.2801 51.9121 19.1541 55.5544 19.1541C57.6359 19.1541 58.8361 18.1821 59.4223 17.5042C59.4989 18.0952 59.879 18.8431 61.2908 18.8431H64.56V15.5392H63.2888ZM59.2761 11.9748C59.2761 14.8319 57.7223 15.8473 56.2701 15.8473C54.4754 15.8473 53.3142 14.3361 53.3142 12C53.3142 9.72829 54.5227 8.20448 56.3216 8.20448C58.3613 8.20448 59.2761 10.0966 59.2761 11.9748ZM36.1107 12C36.1107 7.71989 33.663 4.84454 30.022 4.84454C27.9002 4.84454 26.6763 5.80252 26.0818 6.46359C26.0122 5.89356 25.6404 5.15405 24.1827 5.15405H21.0151V8.4874H22.3128C22.5314 8.4874 22.6024 8.55742 22.6024 8.7787V24H26.3783V18.2871C26.3783 18.1331 26.3742 17.9888 26.37 17.8599C26.9562 18.4034 28.0867 19.1541 29.8438 19.1541C33.5335 19.1541 36.1107 16.2129 36.1107 12ZM32.2846 12.0504C32.2846 14.6751 30.7628 15.8473 29.2521 15.8473C27.2263 15.8473 26.299 13.8908 26.299 12.077C26.299 9.22129 27.8514 8.20448 29.305 8.20448C31.0872 8.20448 32.2846 9.7493 32.2846 12.0504ZM20.1641 15.2464C20.1641 15.455 20.2449 15.5391 20.4537 15.5391H21.7528V18.843H18.3764C17.0217 18.843 16.3896 18.2001 16.3896 16.8164V8.77858C16.3896 8.55868 16.3186 8.48726 16.1 8.48726H14.8009V5.15392H18.1731C19.5111 5.15392 20.1641 5.81778 20.1641 7.18054V15.2464ZM43.2126 4.84495C46.8382 4.84495 49.2748 7.46121 49.2748 11.3548C49.2748 11.7497 49.201 12.5578 49.194 12.5915L49.1731 12.8408H40.2247C40.5519 14.6615 41.9359 15.8225 43.8266 15.8225C45.7293 15.8225 47.1853 14.5332 47.2978 14.4336L47.3046 14.4276L47.5483 14.1951L49.1926 16.9388L49.0409 17.0901L49.0406 17.0903C48.951 17.1776 46.9202 19.1545 43.5983 19.1545C39.3712 19.1545 36.3039 16.1447 36.3039 12.0004C36.3039 7.78754 39.147 4.84495 43.2126 4.84495ZM40.3653 10.0242H45.3777C45.2231 8.78894 44.3488 7.91919 43.2126 7.91919C41.798 7.91919 40.7747 8.6811 40.3653 10.0242ZM73.5904 5.02787C73.5793 5.02507 73.259 4.97325 72.9569 4.97325C71.3864 4.97325 69.9411 5.88502 69.0835 7.33739V7.02506C69.0835 5.78416 68.4026 5.15392 67.066 5.15392H63.8219V8.48726H65.1195C65.3381 8.48726 65.4105 8.55727 65.4105 8.77858V18.843H69.1837V13.3654C69.1837 12.6441 69.2756 11.9494 69.4538 11.3066C70.0219 9.41722 71.5312 8.74496 72.7522 8.74496C73.1852 8.74496 73.4999 8.79117 73.5055 8.79258L73.8201 8.84019V5.06709L73.5904 5.02787ZM79.1912 15.2464C79.1912 15.455 79.2719 15.5391 79.4807 15.5391H80.7812V18.843H77.4076C76.0501 18.843 75.4166 18.2001 75.4166 16.8164V8.77858C75.4166 8.55868 75.3469 8.48726 75.127 8.48726H74.1523V5.15392H77.2029C78.5409 5.15392 79.1912 5.81778 79.1912 7.18054V15.2464ZM93.4368 8.48753V5.15419H91.4235C90.247 5.15419 89.6163 5.56456 89.2431 6.57157L86.7829 13.4833C86.698 13.7396 86.6186 14.0268 86.5504 14.3027C86.4794 14.0268 86.3945 13.7354 86.3012 13.4791L83.8409 6.57017C83.4636 5.55196 82.8538 5.15419 81.662 5.15419H79.5206V8.48753H80.0761C80.3713 8.48753 80.466 8.58838 80.5356 8.77324L84.3436 18.8433H88.5874L92.3954 8.77324C92.465 8.58838 92.5624 8.48753 92.8576 8.48753H93.4368ZM106 11.3548C106 7.46121 103.562 4.84495 99.9337 4.84495C95.8695 4.84495 93.0277 7.78754 93.0277 12.0004C93.0277 16.1447 96.0923 19.1545 100.319 19.1545C103.646 19.1545 105.678 17.1741 105.763 17.0901L105.916 16.9388L104.276 14.1951L104.026 14.4276C104.013 14.4402 102.514 15.8225 100.55 15.8225C98.6583 15.8225 97.2743 14.6615 96.9471 12.8408H105.898L105.919 12.5915C105.923 12.5578 106 11.7497 106 11.3548ZM102.1 10.0242H97.0878C97.5013 8.6811 98.5204 7.91919 99.9337 7.91919C101.073 7.91919 101.946 8.78894 102.1 10.0242ZM19.906 0.00098082H16.5422V3.56541H19.906V0.00098082ZM75.5696 0.00098082H78.9348V3.56541H75.5696V0.00098082ZM9.00553 4.84454C12.6478 4.84454 15.0969 7.71989 15.0969 12C15.0969 16.2129 12.517 19.1541 8.8287 19.1541C7.0702 19.1541 5.94382 18.4034 5.35486 17.8599C5.35905 17.9888 5.36183 18.1331 5.36183 18.2871V24H1.58864V8.7787C1.58864 8.55742 1.51763 8.4874 1.29764 8.4874H0V5.15405H3.16614C4.6239 5.15405 4.99704 5.89356 5.06804 6.46359C5.65978 5.80252 6.88641 4.84454 9.00553 4.84454ZM5.28525 12.077C5.28525 13.8908 6.20836 15.8473 8.23976 15.8473C9.74624 15.8473 11.2694 14.6751 11.2694 12.0504C11.2694 9.7493 10.072 8.20448 8.28988 8.20448C6.83769 8.20448 5.28525 9.22129 5.28525 12.077Z" fill="#25292C"/>
</svg>
