<svg width="100" height="26" viewBox="0 0 100 26" fill="none" xmlns="http://www.w3.org/2000/svg">
<path d="M0.00368821 1.06609C-0.0279184 0.692459 0.316243 0.366063 0.684986 0.40272C4.34082 0.40413 7.99665 0.402015 11.6525 0.403425C11.944 0.374522 12.2081 0.636062 12.1736 0.930735C12.1736 4.66843 12.1786 8.40753 12.1715 12.1452C12.1884 12.4286 11.9194 12.6486 11.649 12.6197C8.84792 12.6218 6.04758 12.6197 3.24653 12.6204C3.25074 11.025 3.2388 9.42972 3.25215 7.8344C3.24161 7.58978 3.48323 7.43539 3.70798 7.45795C5.30096 7.45654 6.89393 7.45584 8.4869 7.45866C8.70815 7.43892 8.94555 7.59824 8.92869 7.84074C8.94485 8.70925 8.92167 9.57847 8.93712 10.447C8.9308 10.6 9.04178 10.7431 9.19349 10.767C9.46039 10.8051 9.73782 10.8107 10.0033 10.7586C10.2014 10.7127 10.2794 10.4942 10.2639 10.3095C10.2639 7.84215 10.2625 5.37409 10.2646 2.90674C10.2758 2.72133 10.2175 2.48799 10.0181 2.42877C9.76662 2.38013 9.50604 2.3893 9.25249 2.41749C9.04318 2.43512 8.92448 2.65436 8.93572 2.84822C8.92589 3.66668 8.93923 4.48584 8.9315 5.3043C8.93572 5.45657 8.88866 5.63845 8.72782 5.69203C8.49042 5.76041 8.23967 5.73503 7.99595 5.73856C6.72887 5.73715 5.4611 5.73715 4.19402 5.73856C3.94609 5.73503 3.69183 5.75971 3.45021 5.69132C3.29148 5.63986 3.24582 5.45869 3.24863 5.30924C3.2395 4.48514 3.25496 3.66104 3.24372 2.83694C3.24863 2.65154 3.13766 2.43864 2.93678 2.41961C2.66707 2.39212 2.38261 2.36815 2.11922 2.44569C1.94574 2.52465 1.9043 2.7312 1.91413 2.90392C1.91694 6.1425 1.91413 9.38179 1.91554 12.6204C1.41405 12.6119 0.911852 12.6366 0.411062 12.6112C0.147674 12.5957 -0.0251089 12.3257 0.00298584 12.0754C0.00368821 8.40612 0.00228347 4.7361 0.00368821 1.06609Z" fill="black"/>
<path d="M13.3159 0.922379C13.3082 0.649559 13.5364 0.387315 13.8174 0.405644C17.4479 0.400004 21.0785 0.407053 24.709 0.402119C24.9275 0.392249 25.1719 0.420448 25.3243 0.597392C25.5484 0.8117 25.4992 1.14444 25.5041 1.42501C25.5006 4.97448 25.5034 8.52466 25.5027 12.0741C25.5364 12.3646 25.2941 12.6458 24.9963 12.6162C21.2695 12.6184 17.542 12.6198 13.8153 12.6155C13.5182 12.6409 13.2976 12.3596 13.3145 12.0769C13.3131 9.29518 13.3131 6.5127 13.3152 3.73094C14.8414 3.7253 16.3677 3.73235 17.8939 3.72671C18.0548 3.72812 18.2416 3.72459 18.3624 3.85219C18.4832 3.97203 18.4678 4.15885 18.4755 4.31535C18.4727 5.84158 18.4734 7.36782 18.4755 8.89335C18.4685 9.04915 18.4741 9.23878 18.3413 9.34735C18.2437 9.44674 18.0962 9.43547 17.9698 9.44181C17.1719 9.44181 16.3747 9.43828 15.5775 9.4411C15.4321 9.43617 15.2537 9.47001 15.2011 9.62721C15.1069 9.92612 15.1104 10.2624 15.2018 10.562C15.2657 10.7481 15.4764 10.7826 15.6485 10.7742C18.1306 10.7707 20.6128 10.777 23.0957 10.7707C23.286 10.7918 23.4806 10.6522 23.4946 10.4555C23.5157 10.2053 23.5227 9.94938 23.4792 9.70123C23.4258 9.50244 23.2102 9.43406 23.0261 9.4411C22.2528 9.43758 21.4788 9.44181 20.7055 9.44181C20.5587 9.43617 20.3824 9.45097 20.2806 9.32197C20.171 9.18168 20.1914 8.99416 20.1851 8.82779C20.1914 7.27759 20.1844 5.72668 20.1886 4.17576C20.1717 3.9678 20.3024 3.74503 20.5264 3.73728C21.3798 3.7119 22.236 3.74222 23.0901 3.7253C23.2818 3.74222 23.4771 3.60263 23.4918 3.40454C23.5115 3.14159 23.534 2.86807 23.4672 2.61005C23.3977 2.42817 23.1982 2.39433 23.0261 2.40068C19.7889 2.39927 16.551 2.40632 13.3131 2.39715C13.3187 1.9058 13.3061 1.41374 13.3159 0.922379Z" fill="black"/>
<path fill-rule="evenodd" clip-rule="evenodd" d="M51.7577 2.24474C50.9184 2.29479 50.0186 2.46892 49.383 3.0632C48.7733 3.6314 48.564 4.4992 48.557 5.30638C48.5547 7.51295 48.5551 9.71953 48.5554 11.9261C48.5556 13.152 48.5558 14.3778 48.5556 15.6037C49.102 15.6037 49.6492 15.6037 50.1963 15.6044C50.1958 14.6908 50.196 13.7774 50.1962 12.8642C50.1962 12.4076 50.1963 11.9511 50.1963 11.4945H54.2574C54.2571 12.1794 54.2572 12.8642 54.2574 13.5491C54.2576 14.234 54.2578 14.9189 54.2574 15.6037H55.8981C55.8957 13.709 55.8924 11.8142 55.8891 9.91948C55.8866 8.4981 55.8841 7.07672 55.882 5.65533C55.8897 5.09489 55.8553 4.52176 55.653 3.99375C55.443 3.41427 55.0026 2.92714 54.4492 2.66067C53.6162 2.25814 52.6665 2.20667 51.7577 2.24474ZM50.2687 4.72267C50.3284 4.3998 50.5032 4.08751 50.787 3.91197C51.1754 3.66594 51.6509 3.63633 52.0976 3.62153C52.6708 3.61236 53.3064 3.6596 53.758 4.05508C54.1654 4.41672 54.2441 4.99549 54.256 5.51152C54.2585 6.43065 54.258 7.34977 54.2575 8.2689C54.2572 8.88165 54.2569 9.4944 54.2574 10.1072H50.1963C50.1963 9.6912 50.1962 9.27533 50.1962 8.85948C50.196 8.02786 50.1958 7.19635 50.1963 6.36452C50.1978 6.23572 50.1969 6.10657 50.196 5.97731C50.1931 5.55755 50.1903 5.13661 50.2687 4.72267Z" fill="black"/>
<path fill-rule="evenodd" clip-rule="evenodd" d="M85.1142 2.23977C84.2974 2.27924 83.4292 2.42658 82.7732 2.95319C82.1895 3.41775 81.9093 4.16431 81.8447 4.89041C81.8122 5.27625 81.8156 5.66332 81.819 6.0504C81.8207 6.24891 81.8225 6.44742 81.8194 6.64576V15.6044C82.3658 15.6037 82.913 15.6037 83.4601 15.6044C83.4601 15.1475 83.4602 14.6907 83.4603 14.234C83.4604 13.3207 83.4606 12.4076 83.4601 11.4945H87.5219V15.6037C88.0684 15.6037 88.6155 15.6037 89.1627 15.6044C89.1602 14.0639 89.1576 12.5235 89.1549 10.9832C89.1523 9.44179 89.1497 7.90041 89.1472 6.35884C89.1448 6.20632 89.1458 6.05278 89.1467 5.89889C89.1505 5.27893 89.1543 4.65311 88.9421 4.0635C88.7412 3.45864 88.2959 2.94261 87.7228 2.66627C86.9179 2.27008 85.9964 2.21298 85.1142 2.23977ZM83.4638 5.42693C83.4825 4.97946 83.5029 4.48908 83.8022 4.12976C84.1386 3.73358 84.6907 3.65321 85.1795 3.62854C85.8032 3.60457 86.5035 3.61937 87.0071 4.04164C87.4285 4.40329 87.5093 4.99616 87.5205 5.51994C87.5226 6.41939 87.5222 7.31883 87.5219 8.21828C87.5216 8.84789 87.5213 9.4775 87.5219 10.1071C87.0705 10.1071 86.6192 10.107 86.1679 10.107C85.2653 10.1068 84.3629 10.1066 83.4601 10.1071C83.4613 9.45583 83.4609 8.80455 83.4604 8.15332C83.4599 7.25165 83.4593 6.35008 83.4629 5.44874C83.4632 5.44148 83.4635 5.43421 83.4638 5.42693Z" fill="black"/>
<path d="M31.1201 2.42383C31.6673 2.42383 32.2137 2.42383 32.7609 2.42383C32.7609 4.34907 32.7616 6.27431 32.7609 8.19956C34.115 8.19885 35.4685 8.19885 36.8227 8.19885C36.8219 6.27431 36.8227 4.34907 36.8227 2.42383C37.3691 2.42383 37.9162 2.42383 38.4634 2.42383C38.4634 6.81713 38.4634 11.2104 38.4641 15.6037C37.9162 15.6044 37.3691 15.6037 36.8227 15.6044C36.8219 13.5981 36.8227 11.5925 36.8219 9.58692C35.4685 9.58621 34.1143 9.58692 32.7609 9.58621C32.7609 11.5925 32.7609 13.5981 32.7609 15.6037C32.2137 15.6037 31.6673 15.6037 31.1201 15.6037C31.1201 11.2104 31.1201 6.81713 31.1201 2.42383Z" fill="black"/>
<path d="M41.6212 2.53954C42.1066 2.40842 42.613 2.42323 43.1109 2.42393C44.4356 2.42393 45.761 2.42393 47.0856 2.42393C46.8904 2.88638 46.6937 3.34813 46.4985 3.81059C45.3459 3.81199 44.1926 3.80847 43.04 3.81199C42.7401 3.82186 42.3763 3.82398 42.1824 4.09468C41.9576 4.42531 41.9654 4.84758 41.9541 5.23249C41.9534 6.2152 41.9541 7.19862 41.9534 8.18133C43.4741 8.18274 44.9947 8.18133 46.5153 8.18204C46.3137 8.65013 46.1122 9.11822 45.9106 9.58702C44.5915 9.58631 43.2725 9.58702 41.9534 9.58631C41.9576 10.8376 41.9464 12.0882 41.9598 13.3395C41.9738 13.5884 41.9591 13.8993 42.1866 14.0614C42.4402 14.2221 42.7562 14.1996 43.0442 14.2165C44.3338 14.2207 45.6233 14.2165 46.9129 14.2179C46.7127 14.6796 46.509 15.1407 46.3095 15.6024C45.244 15.606 44.1778 15.6031 43.1123 15.6038C42.5729 15.6017 42.0202 15.6271 41.4976 15.4692C41.1183 15.3564 40.765 15.1111 40.5845 14.7501C40.3022 14.2108 40.3359 13.582 40.3148 12.9913C40.3127 10.3329 40.3106 7.67517 40.3155 5.01677C40.3422 4.38654 40.3289 3.69991 40.699 3.15709C40.9118 2.83986 41.2581 2.63683 41.6212 2.53954Z" fill="black"/>
<path fill-rule="evenodd" clip-rule="evenodd" d="M59.7565 2.4238C59.0817 2.42171 58.4069 2.41963 57.7321 2.43517C57.73 5.01739 57.7304 7.59936 57.7308 10.1814C57.731 11.9888 57.7313 13.7962 57.7307 15.6038C58.2179 15.603 58.7052 15.6034 59.1926 15.6039C59.9642 15.6046 60.7359 15.6053 61.5073 15.601C62.2631 15.57 63.0518 15.5086 63.7338 15.1505C64.2269 14.8946 64.5999 14.4308 64.7579 13.8978C64.9291 13.3533 64.9239 12.7828 64.9187 12.216C64.9172 12.0483 64.9157 11.8809 64.9187 11.7146V5.51303C64.9187 4.97162 64.866 4.41822 64.6546 3.91559C64.4685 3.45525 64.1145 3.06823 63.6706 2.84898C62.8313 2.42248 61.8641 2.41614 60.9454 2.42389C60.5491 2.42624 60.1528 2.42502 59.7565 2.4238ZM59.3721 14.2179V3.81055C59.656 3.81213 59.9397 3.81125 60.2234 3.81038C60.7 3.80891 61.1766 3.80744 61.6534 3.8176C62.0994 3.84368 62.6044 3.89091 62.9352 4.23071C63.2373 4.55358 63.2639 5.0259 63.2773 5.44535C63.2787 7.84057 63.278 10.2358 63.2773 12.6317V12.6324C63.2661 13.0512 63.2415 13.5305 62.9198 13.8393C62.5812 14.1552 62.0894 14.1853 61.6525 14.2121L61.6499 14.2122C61.1754 14.2206 60.7008 14.2193 60.2263 14.2181C59.9416 14.2173 59.6568 14.2165 59.3721 14.2179Z" fill="black"/>
<path d="M65.8521 2.42383C66.4856 2.42383 67.1191 2.42383 67.7527 2.42383C68.455 6.01418 69.1581 9.60454 69.8605 13.1949C70.7251 9.60525 71.589 6.01489 72.4529 2.42453C73.0001 2.42383 73.5472 2.42383 74.0944 2.42383C74.959 6.01207 75.8187 9.60102 76.6868 13.1878C77.4608 9.60031 78.2306 6.01207 79.0025 2.42383C79.5953 2.42383 80.1881 2.42383 80.7816 2.42383C79.733 6.81713 78.685 11.2104 77.6371 15.6037C77.0085 15.6037 76.3813 15.6037 75.7533 15.6037C74.9239 12.1762 74.0951 8.74802 73.2649 5.3198C72.4459 8.74802 71.6304 12.1769 70.8101 15.6044C70.1765 15.603 69.5437 15.6044 68.9109 15.6037C67.891 11.2104 66.8719 6.81713 65.8521 2.42383Z" fill="black"/>
<path d="M89.7686 2.40681C90.4014 2.4061 91.0349 2.40681 91.6685 2.40681C92.6068 4.10012 93.5459 5.79414 94.485 7.48815C95.4304 5.80048 96.3736 4.1114 97.3197 2.42443C97.9462 2.42655 98.5735 2.41738 99.2 2.42937C97.9378 4.61121 96.616 6.75993 95.3383 8.93261C95.2807 9.02919 95.2997 9.14551 95.2948 9.25267C95.2997 11.3697 95.2955 13.4866 95.2969 15.6036C94.7498 15.6036 94.2026 15.6036 93.6562 15.6036C93.6569 13.4627 93.6548 11.321 93.6569 9.18005C93.6611 9.06938 93.6414 8.96011 93.5803 8.86705C92.309 6.71411 91.0391 4.56046 89.7686 2.40681Z" fill="black"/>
<path d="M31.7515 18.0866C32.0093 17.9611 32.3324 18.2071 32.2818 18.4898C32.2572 18.7845 31.852 18.9318 31.6469 18.7182C31.4418 18.5476 31.5078 18.1846 31.7515 18.0866Z" fill="black"/>
<path d="M49.2342 18.0859C49.4849 17.9661 49.7996 18.1966 49.7638 18.4723C49.7532 18.7733 49.3431 18.9347 49.1309 18.7225C48.9209 18.5533 48.9856 18.1825 49.2342 18.0859Z" fill="black"/>
<path d="M44.9436 18.133C45.1613 18.1323 45.379 18.1323 45.5975 18.1323C45.5968 18.697 45.5968 19.261 45.5975 19.8256C45.9613 19.8256 46.3258 19.8256 46.6904 19.8256C46.5977 20.011 46.5049 20.1957 46.4136 20.3811C46.1411 20.3811 45.8693 20.3811 45.5975 20.3811C45.601 21.1101 45.5898 21.8397 45.6024 22.5686C45.6221 22.8429 45.6256 23.158 45.8293 23.3681C46.0646 23.5739 46.4017 23.5309 46.6918 23.5464C46.6904 23.7205 46.6904 23.8947 46.689 24.0688C46.2472 24.0977 45.7555 24.0871 45.3931 23.7974C44.8783 23.3906 44.9576 22.6638 44.9429 22.0801C44.9436 20.7639 44.9436 19.4485 44.9436 18.133Z" fill="black"/>
<path d="M52.1321 18.1323C52.3499 18.1323 52.5676 18.1323 52.786 18.1323C52.786 18.697 52.786 19.261 52.786 19.8256C53.1499 19.8256 53.5144 19.8256 53.8789 19.8256C53.7855 20.0103 53.6942 20.1957 53.6022 20.3811C53.3297 20.3811 53.0579 20.3811 52.786 20.3811C52.7903 21.1115 52.7783 21.8425 52.7917 22.5729C52.8113 22.8555 52.8141 23.1918 53.0459 23.3934C53.2847 23.5697 53.6001 23.5309 53.8796 23.5471C53.8789 23.7212 53.8789 23.8961 53.8782 24.0709C53.4027 24.0998 52.8591 24.0815 52.4988 23.7241C52.168 23.4096 52.1455 22.9225 52.135 22.4953C52.1286 21.041 52.1342 19.5867 52.1321 18.1323Z" fill="black"/>
<path d="M61.584 18.1323C61.8011 18.1323 62.0195 18.1323 62.2379 18.1323C62.2379 18.697 62.2379 19.261 62.2379 19.8256C62.6025 19.8256 62.967 19.8256 63.3315 19.8256C63.2381 20.0103 63.1454 20.1957 63.0541 20.3818C62.7816 20.3811 62.5097 20.3811 62.2379 20.3811C62.2407 21.1101 62.2309 21.839 62.2428 22.5686C62.2625 22.8464 62.2653 23.1693 62.4788 23.3765C62.7155 23.5732 63.0457 23.5302 63.3322 23.5464C63.3308 23.7205 63.3308 23.8954 63.3294 24.0695C62.8476 24.1033 62.2962 24.0779 61.9352 23.71C61.6058 23.3772 61.5953 22.8767 61.5854 22.4375C61.5812 21.0029 61.5854 19.5676 61.584 18.1323Z" fill="black"/>
<path d="M34.6298 19.9913C35.3441 19.7721 36.1392 19.6212 36.8591 19.8983C37.3318 20.071 37.6774 20.5349 37.6858 21.0431C37.7019 22.0301 37.6879 23.0177 37.6928 24.0054C37.4744 24.0054 37.2566 24.0054 37.0389 24.0054C37.0375 23.0614 37.0417 22.1168 37.0375 21.1728C37.0403 20.8866 36.9111 20.5955 36.6638 20.4418C36.2565 20.1725 35.7381 20.2282 35.283 20.3121C35.283 21.5429 35.283 22.7745 35.283 24.0054C35.0646 24.0047 34.8468 24.0054 34.6291 24.0054C34.6291 22.6674 34.6284 21.3293 34.6298 19.9913Z" fill="black"/>
<path d="M40.3006 20.0267C40.6174 19.7842 41.0353 19.7377 41.4223 19.7511C41.7875 19.7673 42.1815 19.871 42.4302 20.1586C42.6037 20.3546 42.6332 20.6238 42.6648 20.8727C42.4653 20.8769 42.2665 20.8762 42.067 20.8748C42.0235 20.6852 41.9715 20.461 41.7699 20.382C41.4974 20.2742 41.1828 20.2805 40.9039 20.3588C40.5598 20.4673 40.5106 20.9658 40.7641 21.1927C41.2769 21.6897 42.067 21.8244 42.4835 22.4356C42.7792 22.8741 42.6999 23.5868 42.2195 23.8638C41.8802 24.0697 41.4651 24.1021 41.0781 24.0718C40.7368 24.0422 40.3729 23.9231 40.1594 23.6383C40.0091 23.4444 39.9859 23.1927 39.9536 22.9587C40.1636 22.9544 40.3743 22.9551 40.5857 22.9544C40.6293 23.1349 40.637 23.364 40.8196 23.4662C41.0929 23.6185 41.4384 23.6093 41.7285 23.5092C42.0741 23.3838 42.1001 22.8698 41.8591 22.6323C41.5255 22.2876 41.0641 22.1177 40.6721 21.854C40.3821 21.6623 40.0836 21.4169 39.9951 21.0644C39.9185 20.7007 39.9908 20.2636 40.3006 20.0267Z" fill="black"/>
<path fill-rule="evenodd" clip-rule="evenodd" d="M67.2045 19.758C66.6904 19.7241 66.0807 19.7537 65.7218 20.1795C65.4364 20.5399 65.4304 21.0134 65.4248 21.4585C65.4239 21.5272 65.4231 21.5952 65.4212 21.6621C65.4255 21.8037 65.424 21.9471 65.4224 22.0911C65.4177 22.5391 65.413 22.9921 65.582 23.4104C65.7527 23.8284 66.2107 24.0335 66.6363 24.0596C67.1476 24.0942 67.7306 24.085 68.1394 23.7304C68.4189 23.4851 68.4611 23.0931 68.487 22.7449C68.3329 22.7459 68.179 22.7487 68.0253 22.7515C67.9641 22.7526 67.9028 22.7537 67.8416 22.7547C67.8085 23.041 67.7165 23.3941 67.3963 23.4752C67.0296 23.5612 66.5548 23.6 66.2697 23.3039C66.0707 23.0406 66.074 22.7078 66.0772 22.385C66.0783 22.2817 66.0793 22.1794 66.0737 22.0808H68.4842C68.4826 21.9792 68.483 21.8765 68.4834 21.7735C68.4853 21.3133 68.4872 20.8446 68.303 20.4178C68.1162 19.992 67.6463 19.7791 67.2045 19.758ZM66.0767 21.3553C66.0796 21.0099 66.0828 20.6289 66.3884 20.4192C66.7143 20.238 67.142 20.2458 67.4798 20.3931C67.8029 20.5937 67.815 20.9907 67.8258 21.3465C67.8281 21.4208 67.8303 21.4934 67.8352 21.562C67.4611 21.5638 67.087 21.5635 66.713 21.5633C66.4994 21.5632 66.2858 21.5631 66.0723 21.5634C66.0755 21.4968 66.0761 21.4268 66.0767 21.3553Z" fill="black"/>
<path d="M31.5693 19.8257C31.7899 19.8257 32.0104 19.8257 32.231 19.8257C32.231 21.2187 32.231 22.6124 32.231 24.0054C32.0104 24.0054 31.7899 24.0054 31.5693 24.0054C31.5693 22.6117 31.5693 21.2187 31.5693 19.8257Z" fill="black"/>
<path d="M49.0493 19.8257C49.2699 19.8257 49.4904 19.8257 49.7117 19.8257C49.7109 21.2187 49.7117 22.6124 49.7117 24.0054C49.4904 24.0054 49.2699 24.0054 49.0493 24.0054C49.0493 22.6124 49.0493 21.2187 49.0493 19.8257Z" fill="black"/>
<path d="M56.0456 19.8257C56.2654 19.8257 56.486 19.8257 56.7072 19.8257C56.7037 20.7654 56.7143 21.7058 56.7164 22.6462C56.7037 22.9628 56.866 23.2842 57.1539 23.4273C57.5648 23.6416 58.0488 23.5768 58.4863 23.4929C58.4863 22.2705 58.4863 21.0481 58.4863 19.8257C58.7062 19.8257 58.9267 19.8257 59.1473 19.8257C59.1473 21.1552 59.148 22.4855 59.1473 23.815C58.4351 24.042 57.6463 24.1943 56.9187 23.9483C56.4242 23.7883 56.0604 23.3075 56.0519 22.7837C56.0365 21.7982 56.0505 20.8112 56.0456 19.8257Z" fill="black"/>
<path d="M0.0041809 14.3243C-0.0175925 14.0994 0.111643 13.852 0.341318 13.7998C0.595576 13.761 0.854048 13.7829 1.10971 13.7794C4.62226 13.7808 8.13481 13.7794 11.6467 13.7808C11.9185 13.7484 12.1847 13.9711 12.1692 14.2517C12.1762 17.0588 12.172 19.866 12.1713 22.6724C10.6149 22.6745 9.05842 22.671 7.50267 22.6745C7.34534 22.6738 7.16343 22.6661 7.05316 22.5371C6.94078 22.4144 6.96466 22.2354 6.95483 22.0824C6.96325 20.5054 6.94921 18.9284 6.96185 17.3521C6.9464 17.1322 7.14306 16.9397 7.3608 16.9616C8.20364 16.951 9.04718 16.9672 9.89003 16.9573C10.0523 16.9693 10.2145 16.8805 10.251 16.7134C10.3002 16.4406 10.3044 16.153 10.2447 15.8816C10.1991 15.6933 10.0024 15.6123 9.82471 15.6278C7.36501 15.625 4.90531 15.6292 2.44491 15.6257C2.27143 15.6235 2.04175 15.6334 1.96871 15.8259C1.87599 16.0663 1.91252 16.3377 1.92516 16.59C1.9378 16.7867 2.09935 16.9545 2.30093 16.951C3.14447 16.9749 3.99013 16.9482 4.83437 16.9608C4.98257 16.9475 5.09425 17.0546 5.21857 17.1159C5.2558 18.5132 5.22489 19.9111 5.23472 21.3083C5.22419 21.6827 5.26493 22.0605 5.20944 22.432C5.15676 22.621 4.93832 22.6795 4.76484 22.6731C3.96554 22.6781 3.16625 22.6654 2.36765 22.6752C2.19066 22.6689 1.98767 22.7359 1.94834 22.9326C1.88372 23.2731 1.87178 23.6523 2.0551 23.9611C2.23069 23.9766 2.40699 23.9985 2.58398 24.0034C5.78047 23.9999 8.97695 24.0027 12.1734 24.002C12.1671 24.4665 12.1833 24.9311 12.1685 25.3957C12.1734 25.6882 11.9332 25.9547 11.646 25.9857C11.3882 26.0097 11.129 25.9935 10.8712 25.9963C7.42893 25.9956 3.98661 25.9963 0.545005 25.9963C0.319545 26.0182 0.0793344 25.8821 0.0238472 25.6544C-0.0147831 25.4063 0.00699038 25.1546 0.00347854 24.905C0.00488327 21.3781 0.00347854 17.8512 0.0041809 14.3243Z" fill="black"/>
<path d="M13.3233 14.3249C13.2882 14.0387 13.5235 13.761 13.815 13.7765C16.6034 13.7687 19.3925 13.7758 22.1809 13.773C22.183 15.2971 22.1788 16.8212 22.1837 18.3453C22.1753 18.5025 22.1977 18.6851 22.0854 18.812C21.9723 18.9474 21.7805 18.9368 21.6218 18.9445C20.0984 18.9424 18.5749 18.9417 17.0522 18.9445C16.892 18.9382 16.701 18.9459 16.5865 18.8134C16.4903 18.7063 16.4973 18.5533 16.4903 18.42C16.4868 17.5945 16.5036 16.7683 16.4861 15.9428C16.5029 15.7497 16.3217 15.6214 16.1461 15.615C15.8877 15.596 15.6123 15.5713 15.3644 15.6644C15.1972 15.732 15.1593 15.9245 15.1649 16.0859C15.1642 18.5554 15.1656 21.0256 15.1642 23.4951C15.1488 23.6903 15.2183 23.9399 15.4409 23.9765C15.7107 24.0153 15.9944 24.0252 16.2606 23.9589C16.4524 23.8941 16.498 23.672 16.4917 23.4936C16.4945 22.7414 16.4931 21.9886 16.4889 21.2364C16.4994 21.0813 16.4769 20.898 16.5921 20.776C16.7129 20.6541 16.8998 20.6766 17.0557 20.6675C18.5763 20.6703 20.097 20.6703 21.6169 20.6675C21.7749 20.6766 21.9639 20.6548 22.0847 20.7803C22.1844 20.8804 22.1732 21.0354 22.1823 21.1666C22.1872 21.9674 22.1725 22.7689 22.1851 23.5698C22.1788 23.7474 22.2792 23.9434 22.4682 23.9744C22.7365 24.016 23.0181 24.0252 23.2843 23.9617C23.4796 23.899 23.5217 23.6748 23.5126 23.4951C23.5112 20.2544 23.5126 17.0137 23.5119 13.773C24.0288 13.7807 24.5458 13.7596 25.0627 13.7807C25.3352 13.7906 25.5263 14.0627 25.4996 14.3249C25.4996 17.9914 25.5017 21.6579 25.4989 25.3244C25.5291 25.6875 25.2109 26.0153 24.8492 25.9962C21.22 26.0012 17.5909 25.9948 13.9611 25.9998C13.782 26.0012 13.5748 25.992 13.4511 25.8412C13.3282 25.7255 13.324 25.5472 13.3212 25.3907C13.324 21.7023 13.3212 18.0133 13.3233 14.3249Z" fill="black"/>
</svg>
