<svg width="97" height="40" viewBox="0 0 97 40" fill="none" xmlns="http://www.w3.org/2000/svg">
<path fill-rule="evenodd" clip-rule="evenodd" d="M94.7508 13.2526C93.5645 12.3114 92.004 11.8672 90.5 12.0347C88.7447 12.2131 87.1042 13.2404 86.1705 14.7376C85.2242 16.2118 85.0047 18.1197 85.5772 19.774C86.0392 21.1433 87.0295 22.3225 88.2944 23.0191C89.7206 23.8158 91.4854 23.9707 93.0285 23.4346C94.2757 23.013 95.3663 22.1524 96.0739 21.042C96.8207 19.8885 97.1307 18.4661 96.9485 17.1051C96.7594 15.5978 95.947 14.185 94.7508 13.2526ZM89.8114 13.2574C90.0331 13.179 90.2683 13.1503 90.5013 13.1229C91.0116 13.0703 91.5293 13.0798 92.0366 13.1595C92.3435 13.2012 92.6334 13.317 92.919 13.4318C93.3928 13.6385 93.8566 13.887 94.24 14.2381C94.5173 14.4979 94.7925 14.7642 95.0155 15.0731C95.3637 15.5735 95.6245 16.1352 95.794 16.7204C95.8966 17.1843 95.9231 17.6629 95.9057 18.1367C95.8827 18.5383 95.8475 18.9465 95.701 19.3246C95.4949 19.8959 95.2202 20.4519 94.8268 20.9184C94.4952 21.2847 94.1444 21.6433 93.7219 21.9048C93.1116 22.2655 92.4443 22.5792 91.7275 22.6319C90.9929 22.6902 90.2248 22.6788 89.5337 22.3943C89.0238 22.1989 88.5309 21.9426 88.1101 21.5915C87.8793 21.3887 87.6624 21.1707 87.4568 20.9428C87.1194 20.559 86.8817 20.1008 86.6791 19.6352C86.6658 19.6 86.6523 19.5648 86.6388 19.5295C86.5454 19.2861 86.4514 19.0411 86.4192 18.7815C86.3301 18.1933 86.3279 17.592 86.4148 17.0032C86.4476 16.7122 86.5543 16.4378 86.6597 16.1665C86.6701 16.1396 86.6805 16.1128 86.6908 16.086C86.9095 15.5944 87.1655 15.1088 87.5402 14.7172C87.7867 14.4561 88.0401 14.1972 88.3326 13.9866C88.7825 13.6668 89.2885 13.431 89.8114 13.2574Z" fill="#005893"/>
<path d="M61.0925 12.3023C62.104 12.2353 63.132 12.2636 64.1205 12.5055C64.8942 12.6922 65.6458 13.0194 66.2596 13.5341C66.8951 14.0575 67.3506 14.7881 67.5641 15.5817C67.7536 16.284 67.7853 17.0272 67.678 17.7455C67.5371 18.648 67.1116 19.4869 66.5408 20.1922C65.5989 21.3618 64.3583 22.2307 63.179 23.1396C62.4796 23.677 61.7823 24.2261 61.1807 24.874C60.6813 25.4118 60.254 26.0344 60.0353 26.7415C62.6812 26.7406 65.3276 26.741 67.9735 26.7415C67.974 27.7601 67.974 28.7787 67.974 29.7973C63.7601 29.7973 59.5459 29.799 55.332 29.7968C55.4681 28.0268 55.9815 26.2681 56.9451 24.7687C57.7402 23.5125 58.8247 22.4682 59.9962 21.565C60.7895 20.9458 61.6289 20.388 62.4144 19.7584C62.9612 19.3076 63.5102 18.8085 63.7932 18.1432C64.0622 17.4962 64.0175 16.6908 63.5802 16.1274C63.2933 15.7645 62.8656 15.5413 62.4248 15.4264C61.851 15.2745 61.2498 15.2906 60.6634 15.3381C59.3233 15.4547 58.0523 15.939 56.8365 16.4894C56.5209 15.5674 56.217 14.641 55.908 13.7164C57.5428 12.968 59.292 12.428 61.0925 12.3023Z" fill="#005893"/>
<path fill-rule="evenodd" clip-rule="evenodd" d="M77.0476 12.317C76.7594 12.317 76.4712 12.3171 76.183 12.3171C75.05 13.7552 73.9175 15.1938 72.785 16.6323C71.016 18.8793 69.2471 21.1262 67.4763 23.3715C67.4742 23.8809 67.4745 24.3903 67.4748 24.8997C67.475 25.1543 67.4751 25.409 67.475 25.6637C68.9592 25.6642 70.4435 25.6641 71.9277 25.6641C73.0407 25.664 74.1537 25.664 75.2667 25.6641C75.2667 26.1235 75.2666 26.5828 75.2666 27.0421C75.2665 27.9606 75.2664 28.8791 75.2667 29.7977C75.5592 29.7977 75.8518 29.7977 76.1443 29.7978C77.0218 29.7978 77.8992 29.7979 78.7768 29.7973V25.6646C79.2078 25.6641 79.6387 25.6641 80.0698 25.6641C80.5008 25.6641 80.9319 25.6641 81.3631 25.6637V22.7711C80.8929 22.7704 80.4227 22.7704 79.9524 22.7705C79.5607 22.7706 79.1689 22.7706 78.7772 22.7702C78.7767 20.7793 78.7768 18.7884 78.7768 16.7975C78.7769 15.304 78.777 13.8105 78.7768 12.3171C78.2004 12.3168 77.624 12.3169 77.0476 12.317ZM75.1881 22.77C73.9633 22.7666 72.738 22.7631 71.5145 22.8377C71.888 22.3447 72.2612 21.8515 72.6344 21.3583C73.5592 20.1364 74.484 18.9144 75.4127 17.6955C75.2583 19.1816 75.262 20.6754 75.2656 22.1677C75.2661 22.3686 75.2666 22.5694 75.2667 22.7702L75.1881 22.77Z" fill="#005893"/>
<path d="M90.473 15.01C90.8825 15.0096 91.2924 15.0096 91.7023 15.01C91.7027 15.7427 91.7018 16.4755 91.7027 17.2086C92.3791 17.2086 93.0559 17.2082 93.7327 17.2086C93.7327 17.6011 93.7327 17.9936 93.7327 18.386C92.646 18.386 91.5593 18.3865 90.473 18.386C90.4725 17.2604 90.4725 16.1352 90.473 15.01Z" fill="#005893"/>
<path d="M14.082 13.1233C14.6232 12.9985 15.2209 13.0676 15.6947 13.3674C16.0851 13.6098 16.3746 14.0071 16.4845 14.4535C16.601 14.9325 16.5428 15.4595 16.2946 15.8885C16.0503 16.3227 15.6273 16.6517 15.1466 16.7822C14.415 16.9867 13.5569 16.7713 13.0657 16.1757C12.5363 15.5608 12.4707 14.5897 12.9288 13.9166C13.194 13.5176 13.6174 13.2334 14.082 13.1233Z" fill="#0BBBEF"/>
<path d="M37.5113 13.1238C38.0438 13.0006 38.6315 13.065 39.1027 13.3535C39.4935 13.5889 39.7891 13.9779 39.906 14.42C40.0416 14.9299 39.9721 15.4982 39.6904 15.9476C39.3518 16.5059 38.7093 16.8596 38.0577 16.8544C37.5418 16.8714 37.018 16.6856 36.6407 16.3301C36.1721 15.895 35.9686 15.2145 36.0847 14.5892C36.2112 13.8709 36.8063 13.283 37.5113 13.1238Z" fill="#0BBBEF"/>
<path fill-rule="evenodd" clip-rule="evenodd" d="M0 13.9814H5.19535C6.24468 14.0101 7.32053 14.2333 8.20989 14.8151C8.85062 15.2245 9.3679 15.8297 9.65435 16.5364C9.96776 17.3017 10.0164 18.1698 9.80388 18.9682C9.57437 19.8637 8.98059 20.6699 8.16338 21.1116C8.15358 21.1221 8.13649 21.1295 8.11918 21.1369C8.08661 21.1508 8.05324 21.1651 8.06601 21.2021C8.80324 21.4035 9.50221 21.7838 10.0191 22.3542C10.6672 23.0565 11.0136 24.0159 11.0088 24.9688C11.0306 25.9822 10.6872 26.9986 10.059 27.7936C9.467 28.5524 8.62893 29.0976 7.72087 29.3996C6.79934 29.7233 5.81348 29.7781 4.84543 29.7542H0V13.9814ZM3.28187 16.6682C3.28168 17.2043 3.28174 17.7404 3.28179 18.2764C3.28186 18.9911 3.28193 19.7058 3.28144 20.4206C3.45635 20.4185 3.63132 20.4198 3.80627 20.421H3.80629C4.14001 20.4234 4.47366 20.4258 4.80675 20.4049C5.38183 20.3649 5.97735 20.1443 6.34249 19.6792C6.84455 19.0326 6.82499 18.0401 6.32293 17.3992C5.92171 16.8945 5.25882 16.6917 4.63678 16.6686C4.35885 16.6676 4.08092 16.6678 3.80299 16.6681C3.62928 16.6682 3.45558 16.6684 3.28187 16.6682ZM3.28187 27.0674V23.097C3.53688 23.0976 3.79189 23.0973 4.0469 23.0969C4.4613 23.0964 4.87571 23.0958 5.29012 23.0996C5.90954 23.11 6.56678 23.2188 7.06363 23.6169C7.45441 23.918 7.66697 24.4067 7.68784 24.8931C7.7087 25.3918 7.61524 25.9287 7.28445 26.3203C6.97322 26.6945 6.49811 26.8842 6.03212 26.9773C5.58203 27.0729 5.12244 27.0703 4.66432 27.0678C4.55082 27.0671 4.4374 27.0665 4.32425 27.0674H3.28187Z" fill="#0BBBEF"/>
<path d="M19.5502 15.768C20.6365 15.4569 21.7219 15.1444 22.8086 14.8351C22.8108 16.0334 22.8086 17.2321 22.8095 18.4304C23.9545 18.4308 25.0994 18.43 26.2448 18.4308C25.9992 19.2689 25.7497 20.1056 25.502 20.9427C24.6048 20.9436 23.7071 20.9432 22.8095 20.9432C22.8091 22.3147 22.8095 23.6857 22.8095 25.0572C22.8156 25.5188 22.7904 25.9827 22.8404 26.4426C22.8795 26.745 22.9786 27.0813 23.2529 27.2514C23.5576 27.439 23.9349 27.4177 24.2761 27.3759C24.7343 27.3106 25.1807 27.1496 25.5698 26.8968C25.8862 27.6339 26.1974 28.3736 26.5117 29.1115C25.8567 29.5432 25.0838 29.7529 24.3192 29.8882C23.3837 30.0392 22.3944 30.0766 21.4911 29.7472C20.87 29.5288 20.3149 29.105 19.9788 28.5341C19.6702 28.0133 19.5355 27.3998 19.5489 26.7972C19.5494 24.8461 19.5494 22.8947 19.5494 20.9432C18.8539 20.9427 18.1584 20.9436 17.4629 20.9432C17.4629 20.1056 17.4629 19.268 17.4629 18.4304C18.1584 18.4304 18.8539 18.4308 19.5494 18.4304C19.5502 17.5428 19.5481 16.6556 19.5502 15.768Z" fill="#0BBBEF"/>
<path d="M32.6143 18.3486C33.5667 18.0018 34.6956 18.0884 35.5385 18.6719C35.1581 19.5674 34.7834 20.4659 34.4039 21.3618C33.8393 21.0093 33.1477 20.8431 32.4887 20.971C31.8654 21.0915 31.3394 21.4779 30.8521 21.8647C30.8508 24.4946 30.8521 27.1244 30.8517 29.7542C29.7724 29.7542 28.6926 29.7542 27.6133 29.7542C27.6133 25.9796 27.6133 22.205 27.6137 18.4304C28.527 18.4308 29.4403 18.4295 30.354 18.4313C30.4709 18.8281 30.5926 19.2232 30.71 19.6196C31.2716 19.1005 31.888 18.6123 32.6143 18.3486Z" fill="#0BBBEF"/>
<path d="M12.9653 18.4308C14.0442 18.4304 15.1235 18.4304 16.2028 18.4308C16.2032 22.205 16.2032 25.9796 16.2032 29.7542C15.1239 29.7542 14.0442 29.7542 12.9648 29.7542C12.9648 25.9796 12.9648 22.205 12.9653 18.4308Z" fill="#0BBBEF"/>
<path d="M36.395 18.4308C37.4739 18.4304 38.5532 18.4304 39.6325 18.4308C39.6329 22.205 39.6329 25.9796 39.6329 29.7542C38.5532 29.7542 37.4739 29.7542 36.3945 29.7542C36.3945 25.9796 36.3945 22.205 36.395 18.4308Z" fill="#0BBBEF"/>
<path d="M44.9808 24.0577C43.599 22.1811 42.2145 20.3066 40.8318 18.4308C41.9572 18.4304 43.083 18.4295 44.2088 18.4317C45.0539 19.5747 45.8954 20.7213 46.7422 21.8634C47.5863 20.7195 48.4309 19.5761 49.2738 18.4308C50.3992 18.4295 51.5246 18.4317 52.65 18.4295C51.2542 20.3079 49.8511 22.1811 48.4535 24.0581C49.8702 25.9557 51.2851 27.8545 52.6991 29.7542C51.5741 29.7542 50.4487 29.7542 49.3238 29.7542C48.4566 28.5777 47.5855 27.4042 46.72 26.2263C45.8385 27.3985 44.9656 28.5777 44.0889 29.7533C42.963 29.7551 41.8368 29.7542 40.7109 29.7538C42.1328 27.8541 43.5573 25.9561 44.9808 24.0577Z" fill="#0BBBEF"/>
</svg>
