<svg width="154" height="40" viewBox="0 0 154 40" fill="none" xmlns="http://www.w3.org/2000/svg">
<path d="M0 7H23.1309C23.1301 14.7601 23.1317 22.5202 23.1301 30.2802C19.6446 30.2802 16.159 30.2802 12.6735 30.2802C12.3501 30.2802 12.0274 30.2729 11.7048 30.294C11.6682 30.2519 11.6317 30.2105 11.5959 30.1684C11.63 26.2993 11.6016 22.4286 11.6105 18.5595C7.74795 18.5627 3.88535 18.553 0.0227546 18.5643H0V7Z" fill="#0C9AFC"/>
<path d="M150.753 13.8899C150.325 13.5552 150.443 12.7326 151.001 12.611C151.374 12.5665 151.753 12.6054 152.129 12.5908C152.355 12.5972 152.624 12.5519 152.8 12.7334C153.046 12.9393 152.975 13.2861 152.986 13.5674C152.983 18.644 152.985 23.7207 152.984 28.7974C153.228 28.8087 153.504 28.7674 153.717 28.9198C153.866 29.0178 153.937 29.1888 154 29.3493V29.7026C153.939 29.979 153.724 30.2375 153.427 30.2602C152.992 30.2837 152.557 30.2667 152.123 30.27C151.834 30.2943 151.54 30.0682 151.526 29.774C151.511 29.265 151.526 28.7552 151.523 28.2463C150.794 29.2537 149.689 29.9758 148.473 30.2416C146.968 30.5771 145.332 30.3259 144.016 29.5171C142.915 28.8501 142.046 27.8183 141.562 26.6286C140.889 24.9955 140.937 23.078 141.713 21.4887C142.282 20.2949 143.25 19.2908 144.439 18.7016C145.667 18.0816 147.119 17.943 148.453 18.268C149.712 18.5768 150.845 19.3824 151.523 20.4878C151.518 18.3369 151.523 16.1859 151.521 14.0342C151.262 14.0245 150.966 14.0706 150.753 13.8899ZM146.244 19.6222C145.177 19.8216 144.207 20.4432 143.552 21.3015C142.591 22.5342 142.294 24.237 142.753 25.7266C143.08 26.8272 143.831 27.8102 144.846 28.3622C146.095 29.0502 147.677 29.1102 148.958 28.4732C150.129 27.9342 151.048 26.8677 151.353 25.6123C151.778 23.9849 151.38 22.1363 150.212 20.9019C149.228 19.8265 147.671 19.3345 146.244 19.6222Z" fill="#0C9AFC"/>
<path d="M71.5113 19.3102C72.2532 18.4495 73.4032 18.0167 74.523 17.9819C75.6063 17.9381 76.7448 18.3296 77.4592 19.1676C77.4706 18.9058 77.4185 18.6327 77.4998 18.379C77.7436 17.7825 78.857 17.9081 78.8675 18.5913C78.8708 19.5339 78.8732 20.4773 78.8667 21.4206C78.8342 22.0025 78.0085 22.2124 77.6339 21.8088C77.3933 21.5779 77.4795 21.2213 77.4112 20.9279C77.2975 20.3387 76.8537 19.8565 76.319 19.606C75.3974 19.1668 74.2743 19.1781 73.3585 19.6247C72.8879 19.8508 72.4621 20.2276 72.2971 20.7334C72.1061 21.2926 72.2695 21.9523 72.7262 22.3348C73.3577 22.8835 74.189 23.112 74.9781 23.3365C76.1134 23.6437 77.3381 23.826 78.3076 24.5409C78.9325 24.9955 79.2795 25.759 79.295 26.5224C79.3519 27.3693 79.0561 28.2317 78.4799 28.8573C77.5534 29.8736 76.1199 30.3494 74.7628 30.2521C73.7583 30.1662 72.7351 29.7966 72.033 29.0518C72.0241 29.3169 72.0639 29.59 71.9997 29.8509C71.7811 30.4677 70.6409 30.3915 70.6165 29.6913C70.6092 28.6669 70.6043 27.6417 70.6182 26.6181C70.6824 26.0167 71.5218 25.7865 71.9282 26.2063C72.2581 26.5062 72.0931 26.9892 72.2362 27.3661C72.4239 28.0218 73.009 28.4829 73.638 28.6912C74.5198 28.9846 75.521 29.0138 76.3808 28.632C76.9342 28.3929 77.447 27.9918 77.6973 27.4326C77.9492 26.8806 77.9061 26.1593 77.4592 25.7176C76.9561 25.2314 76.2451 25.0701 75.5852 24.9153C74.2605 24.6243 72.8611 24.3123 71.7941 23.4241C70.5848 22.4418 70.5044 20.461 71.5113 19.3102Z" fill="#0C9AFC"/>
<path d="M81.8166 20.1961C83.2298 18.4204 85.7223 17.5662 87.9214 18.1765C89.1111 18.5023 90.1538 19.2698 90.877 20.2593C90.8762 19.7277 90.8738 19.1968 90.877 18.6652C90.8624 18.3734 91.1233 18.0914 91.4207 18.1043C91.7742 18.0986 92.1285 18.1076 92.4829 18.1019C92.6706 18.1027 92.8762 18.0873 93.042 18.1967C93.4776 18.4617 93.4784 19.1992 93.0452 19.4675C92.838 19.5996 92.5812 19.5664 92.3488 19.5753C92.3504 24.2305 92.3488 28.8858 92.3496 33.541C92.6015 33.5459 92.89 33.511 93.1013 33.682C93.4914 33.9827 93.4499 34.6837 93.0046 34.9139C92.4975 35.0687 91.9473 34.9625 91.4231 34.9869C91.1159 34.9877 90.8567 34.6975 90.8762 34.396C90.8762 32.2264 90.8746 30.0569 90.8778 27.8873C90.218 28.9538 89.1355 29.7432 87.9238 30.069C86.6764 30.4046 85.3151 30.3259 84.123 29.8251C82.9194 29.3242 81.9044 28.406 81.2591 27.2794C79.9792 25.0969 80.1986 22.1477 81.8166 20.1961ZM85.4606 19.5461C84.101 19.799 82.9088 20.748 82.3367 22.001C81.7288 23.2904 81.7264 24.8457 82.3294 26.1375C82.7634 27.0898 83.52 27.8994 84.4618 28.3663C85.6378 28.9603 87.0892 28.979 88.2789 28.4108C89.1615 27.9935 89.8783 27.2616 90.3203 26.3969C90.964 25.1553 91.0469 23.6454 90.5771 22.3316C89.8685 20.3169 87.537 19.0801 85.4606 19.5461Z" fill="#0C9AFC"/>
<path d="M132.317 18.7721C133.649 17.9746 135.323 17.7558 136.811 18.2129C137.836 18.5249 138.738 19.1886 139.378 20.042C140.268 21.2229 140.698 22.7117 140.713 24.1794C140.717 24.5595 140.454 25.0012 140.031 24.9907C136.928 24.9947 133.824 24.9899 130.72 24.9931C130.902 26.1407 131.53 27.2129 132.46 27.9172C133.377 28.6272 134.558 28.9684 135.713 28.9124C136.526 28.8662 137.346 28.735 138.105 28.431C138.404 28.2941 138.755 28.1101 139.081 28.2811C139.541 28.5177 139.532 29.2496 139.095 29.5057C138.373 29.9352 137.541 30.1395 136.72 30.2805C135.388 30.5066 133.98 30.3729 132.75 29.7983C131.585 29.2617 130.602 28.3427 129.996 27.2145C129.145 25.6601 129.025 23.7434 129.62 22.0803C130.103 20.7131 131.063 19.5104 132.317 18.7721ZM133.141 19.9975C131.851 20.7293 130.958 22.0787 130.72 23.5327C133.545 23.5335 136.371 23.5351 139.196 23.5318C138.983 22.2408 138.432 20.9181 137.345 20.1223C136.139 19.2292 134.414 19.2543 133.141 19.9975Z" fill="#0C9AFC"/>
<path d="M94.2691 19.4074C93.8611 19.0589 93.9782 18.2622 94.5243 18.1236C94.9233 18.0758 95.3296 18.1171 95.7319 18.1025C95.9668 18.1147 96.2333 18.0539 96.4397 18.2014C96.6193 18.3157 96.6982 18.5361 96.6876 18.7428C96.6884 20.88 96.6868 23.0171 96.6884 25.1543C96.7112 26.0985 96.9883 27.0832 97.6579 27.7785C98.2292 28.3823 99.0508 28.6951 99.8692 28.7705C100.841 28.8605 101.864 28.7243 102.72 28.2316C103.361 27.8661 103.867 27.2801 104.15 26.6001C104.423 25.9672 104.507 25.271 104.509 24.587C104.51 22.9118 104.509 21.2366 104.509 19.5622C104.188 19.5435 103.8 19.6448 103.546 19.3895C103.148 19.0264 103.295 18.2225 103.854 18.1155C104.373 18.0888 104.894 18.1082 105.414 18.1042C105.71 18.0928 105.991 18.3619 105.971 18.6609C105.974 22.0316 105.971 25.4015 105.973 28.7721C106.292 28.7892 106.655 28.7016 106.937 28.8953C107.407 29.2244 107.302 30.1118 106.714 30.2439C106.168 30.2804 105.619 30.252 105.072 30.2593C104.771 30.2731 104.495 29.9984 104.51 29.6985C104.505 29.2665 104.51 28.8345 104.51 28.4034C103.776 29.4602 102.527 30.0559 101.27 30.2091C100.105 30.3452 98.8785 30.2399 97.8123 29.7228C96.9875 29.3297 96.3 28.6635 95.8741 27.8579C95.3776 26.934 95.1939 25.8699 95.2142 24.8301C95.215 23.0738 95.2134 21.3184 95.215 19.563C94.8997 19.5427 94.5267 19.6408 94.2691 19.4074Z" fill="#0C9AFC"/>
<path d="M111.449 18.7006C112.656 18.0935 114.078 17.9485 115.391 18.2532C116.677 18.549 117.842 19.3627 118.53 20.49C118.525 19.8846 118.526 19.2792 118.529 18.6738C118.508 18.3513 118.814 18.0611 119.137 18.1025C119.594 18.1146 120.055 18.0798 120.511 18.1211C121.088 18.254 121.191 19.1252 120.725 19.4462C120.515 19.6067 120.235 19.5548 119.991 19.5629C119.991 22.6418 119.991 25.7207 119.991 28.7996C120.235 28.8069 120.512 28.7664 120.724 28.9204C121.189 29.2445 121.088 30.1158 120.508 30.2487C120.052 30.2973 119.59 30.2584 119.133 30.2706C118.812 30.3022 118.5 30.0185 118.528 29.6943C118.526 29.2113 118.527 28.7283 118.529 28.2444C117.863 29.1659 116.884 29.8532 115.788 30.1628C114.24 30.6004 112.516 30.3905 111.127 29.5785C110.046 28.9536 109.177 27.9786 108.665 26.844C107.94 25.2604 107.913 23.3744 108.593 21.7714C109.142 20.4552 110.166 19.3368 111.449 18.7006ZM113.405 19.6164C112.209 19.7939 111.112 20.4892 110.419 21.4739C109.679 22.5024 109.402 23.8323 109.626 25.074C109.837 26.3828 110.6 27.6228 111.757 28.3012C113.019 29.0517 114.651 29.1181 115.975 28.4827C117.153 27.9616 118.113 26.9299 118.451 25.6786C118.899 24.129 118.547 22.3638 117.482 21.1408C116.508 19.9738 114.91 19.3741 113.405 19.6164Z" fill="#0C9AFC"/>
<path d="M122.413 18.2063C122.645 18.0539 122.936 18.1139 123.198 18.1033C123.499 18.1082 123.8 18.0936 124.103 18.1074C124.374 18.1301 124.591 18.3967 124.58 18.6658C124.584 19.1593 124.579 19.6529 124.581 20.1465C125.213 19.195 126.208 18.4907 127.334 18.2573C127.925 18.1301 128.538 18.0701 129.143 18.1155C129.713 18.203 129.853 19.0329 129.425 19.3668C129.108 19.6205 128.679 19.5143 128.308 19.5711C127.094 19.6926 125.847 20.2235 125.14 21.2544C124.711 21.8687 124.561 22.6329 124.58 23.3713C124.581 25.4801 124.581 27.5897 124.58 29.6985C124.592 29.8865 124.49 30.0705 124.333 30.1718C124.147 30.3047 123.904 30.2488 123.691 30.2609C123.335 30.248 122.975 30.2836 122.621 30.2431C122.046 30.1231 121.921 29.273 122.369 28.9366C122.579 28.764 122.865 28.8037 123.118 28.8005C123.118 25.7151 123.118 22.6289 123.118 19.5435C122.884 19.5378 122.629 19.5751 122.423 19.443C121.993 19.1869 121.989 18.4697 122.413 18.2063Z" fill="#0C9AFC"/>
<path d="M26.5131 14.0172C25.8857 13.8154 25.9206 12.7497 26.5732 12.6095C27.199 12.5706 27.828 12.6006 28.4553 12.5941C28.752 12.5827 29.0315 12.8518 29.0112 13.1509C29.0128 18.3677 29.0112 23.5846 29.012 28.8015C29.3054 28.812 29.6036 28.7731 29.8929 28.8283C30.4537 28.996 30.5276 29.8656 30.0433 30.1631C29.8588 30.2911 29.624 30.2555 29.4135 30.2619C28.5195 30.2514 27.6248 30.2741 26.7317 30.2514C26.1027 30.1614 25.9808 29.1978 26.5066 28.8931C26.817 28.7237 27.1908 28.8307 27.5289 28.8007C27.5289 23.8845 27.5289 18.9683 27.5289 14.0521C27.1908 14.0343 26.8455 14.0894 26.5131 14.0172Z" fill="#0C293D"/>
<path d="M65.9852 13.885C65.5675 13.547 65.6837 12.7422 66.2323 12.6118C66.6906 12.5672 67.1538 12.6036 67.6146 12.5915C67.9332 12.551 68.2355 12.8346 68.2225 13.1523C68.2249 18.3676 68.2225 23.5837 68.2241 28.7989C68.4663 28.807 68.7401 28.7673 68.9514 28.9164C69.3984 29.2244 69.3383 30.0365 68.8117 30.2269C68.4736 30.3153 68.1176 30.2512 67.7723 30.2707C67.5268 30.2553 67.2554 30.3209 67.0319 30.1921C66.8621 30.09 66.7451 29.8995 66.7605 29.6985C66.7581 29.2139 66.7605 28.7292 66.7613 28.2454C66.1047 29.1523 65.1457 29.8322 64.0698 30.1483C62.6248 30.5714 61.0206 30.4263 59.6757 29.7512C58.646 29.2349 57.7765 28.4131 57.1946 27.4228C56.5185 26.28 56.23 24.9201 56.3608 23.6023C56.4819 22.3064 57.0223 21.0526 57.8878 20.0776C58.811 19.0265 60.121 18.3157 61.5147 18.1439C62.559 18.0223 63.648 18.1431 64.6069 18.5905C65.4903 18.9949 66.251 19.6603 66.7613 20.4861C66.7581 18.3352 66.7621 16.1842 66.7597 14.0333C66.498 14.0276 66.1989 14.0706 65.9852 13.885ZM61.4822 19.6222C60.2413 19.8523 59.1409 20.6587 58.4949 21.7326C57.7553 22.9353 57.5806 24.4589 58.0146 25.7994C58.3632 26.9089 59.1474 27.8904 60.1925 28.4188C61.2563 28.9602 62.5452 29.0826 63.6772 28.6838C64.7207 28.3329 65.6512 27.6124 66.1835 26.6431C67.2684 24.6478 66.7889 21.902 64.9897 20.4756C64.0234 19.6902 62.702 19.3831 61.4822 19.6222Z" fill="#0C293D"/>
<path d="M34.3814 18.5185C35.6191 17.9325 37.0778 17.8101 38.3894 18.2105C39.4199 18.5225 40.326 19.1887 40.9672 20.0454C41.8563 21.2254 42.2846 22.7126 42.3 24.1787C42.3049 24.5604 42.0391 25.0045 41.6149 24.9907C38.5122 24.9948 35.4102 24.9899 32.3075 24.9932C32.4863 26.1229 33.0974 27.1798 34.0035 27.8832C34.9689 28.6499 36.2351 28.9984 37.4598 28.9044C38.3179 28.8363 39.1859 28.6832 39.9676 28.3095C40.2001 28.2009 40.4943 28.1612 40.7185 28.3112C41.0907 28.5519 41.1086 29.1443 40.7803 29.4288C40.4926 29.6589 40.1375 29.7846 39.7954 29.9126C38.4228 30.3738 36.9169 30.548 35.4972 30.2011C34.0994 29.8713 32.8251 29.0333 31.9905 27.8654C30.6643 26.05 30.4822 23.5165 31.446 21.5001C32.0466 20.2123 33.0901 19.1263 34.3814 18.5185ZM34.7284 19.9975C33.4387 20.7294 32.5448 22.0788 32.3075 23.5327C35.1323 23.5335 37.9579 23.5352 40.7836 23.5311C40.6251 22.5886 40.3008 21.6541 39.7133 20.889C39.2623 20.2958 38.6341 19.8298 37.9165 19.6126C36.8608 19.2868 35.68 19.4489 34.7284 19.9975Z" fill="#0C293D"/>
<path d="M44.5945 19.7088C46.1857 18.1455 48.7188 17.66 50.7797 18.5134C51.7354 18.9105 52.5668 19.6059 53.1096 20.4877C53.1056 19.8831 53.1048 19.2785 53.108 18.6739C53.0909 18.3886 53.3347 18.1049 53.6265 18.1057C53.9824 18.096 54.3384 18.109 54.6943 18.1017C54.8837 18.1049 55.0909 18.0831 55.2599 18.19C55.7102 18.4518 55.711 19.212 55.2608 19.4746C55.0543 19.6026 54.8 19.5532 54.5708 19.5637C54.57 22.6418 54.57 25.7208 54.5708 28.7989C54.8138 28.807 55.0877 28.7672 55.2989 28.9172C55.767 29.2373 55.6712 30.1077 55.0942 30.2471C54.6399 30.299 54.1783 30.2577 53.7216 30.2706C53.4282 30.3006 53.1251 30.0705 53.1113 29.7714C53.0991 29.2624 53.1096 28.7535 53.108 28.2453C52.4408 29.1676 51.4591 29.8565 50.3604 30.1645C48.9114 30.5729 47.3064 30.4141 45.9687 29.7228C43.9842 28.7202 42.6945 26.5555 42.6839 24.347C42.636 22.6256 43.3373 20.8929 44.5945 19.7088ZM47.9809 19.6172C46.4612 19.8385 45.1244 20.9099 44.5246 22.312C43.6161 24.3527 44.315 27.0353 46.2377 28.2413C47.347 28.9366 48.7741 29.1133 50.0166 28.6927C51.03 28.3628 51.954 27.7096 52.5278 26.8043C53.0836 25.9323 53.286 24.8665 53.199 23.8446C53.0763 22.4141 52.2807 21.0444 51.0625 20.2688C50.1621 19.6821 49.0414 19.4551 47.9809 19.6172Z" fill="#0C293D"/>
<path d="M0 18.5645H0.0227546C3.59685 22.1864 7.1864 25.7945 10.7654 29.4116C11.0441 29.6669 11.2733 29.9765 11.5862 30.1937C11.5333 30.2253 11.4813 30.2569 11.4293 30.2893C7.61955 30.269 3.80977 30.2861 0 30.2804V18.5645Z" fill="#0C293D"/>
</svg>
