<svg width="260" height="260" viewBox="0 0 260 260" fill="none" xmlns="http://www.w3.org/2000/svg">
<g clip-path="url(#clip0_1240_20592)">
<path d="M1.85718 205.599L45.8234 237.822V230.473L1.85718 198.25V205.599Z" fill="white" stroke="black" stroke-width="0.5" stroke-linecap="round" stroke-linejoin="round"/>
<path d="M45.9644 230.442H259.535L215.569 198.219H1.85718L45.9644 230.442Z" fill="#E5E5E5" stroke="black" stroke-width="0.5" stroke-linecap="round" stroke-linejoin="round"/>
<path d="M91.1025 203.131L138.746 207.502L150.549 204.775C151.504 204.555 152.355 204.018 152.964 203.251C153.574 202.485 153.906 201.534 153.906 200.555V183.685L119.649 179.674V195.795C119.649 196.852 119.262 197.873 118.561 198.665C117.86 199.457 116.894 199.965 115.844 200.094L91.1025 203.131Z" fill="#E5E5E5" stroke="black" stroke-width="0.5" stroke-linecap="round" stroke-linejoin="round"/>
<path d="M155.201 183.212V200.034C155.201 202.625 153.531 204.978 151.037 205.686C147.995 206.549 138.792 208.841 138.792 208.841L138.744 207.502C138.744 207.502 147.013 205.495 149.743 204.727C152.238 204.026 153.906 201.668 153.906 199.077V183.288L155.201 183.212Z" fill="#B3B3B3" stroke="black" stroke-width="0.5" stroke-linecap="round" stroke-linejoin="round"/>
<path d="M91.1003 204.469L138.744 208.84V207.501L91.1003 203.131V204.469Z" fill="#CCCCCC" stroke="black" stroke-width="0.5" stroke-linecap="round" stroke-linejoin="round"/>
<path d="M58.6867 185.413L203.993 203.616C203.993 203.616 206.389 202.522 207.468 201.706C208.141 201.199 208.687 200.543 209.063 199.788C209.439 199.034 209.633 198.203 209.632 197.36V101.689C209.632 100.357 209.144 99.0709 208.26 98.0745C207.375 97.0781 206.157 96.4403 204.834 96.2819L60.7083 79.0149C59.6403 78.8868 57.6179 79.1034 56.678 79.428C55.0148 80.0038 52.2159 81.6987 51.9438 83.9535L53.887 180.006C53.8871 181.339 54.3756 182.625 55.2601 183.621C56.1446 184.618 57.3637 185.255 58.6867 185.413Z" fill="#4C4C4C" stroke="black" stroke-width="0.5" stroke-linecap="round" stroke-linejoin="round"/>
<path d="M56.1923 186.732L201.043 204.087C201.807 204.178 202.582 204.107 203.317 203.877C204.052 203.647 204.729 203.264 205.305 202.753C205.881 202.242 206.342 201.615 206.658 200.913C206.973 200.21 207.136 199.449 207.136 198.679V103.008C207.136 101.676 206.648 100.39 205.764 99.3936C204.879 98.3972 203.661 97.7595 202.338 97.601L57.4877 80.247C56.7233 80.1553 55.9482 80.2268 55.2134 80.4566C54.4787 80.6865 53.8011 81.0695 53.2252 81.5805C52.6494 82.0914 52.1884 82.7187 51.8728 83.4209C51.5571 84.1231 51.394 84.8842 51.394 85.6541V181.325C51.3939 182.658 51.8822 183.944 52.7664 184.94C53.6507 185.936 54.8695 186.574 56.1923 186.732Z" fill="white" stroke="black" stroke-width="0.5" stroke-linecap="round" stroke-linejoin="round"/>
<path d="M51.394 171.217L207.136 189.876V102.933C207.137 101.621 206.657 100.355 205.786 99.3731C204.916 98.3916 203.716 97.7634 202.413 97.6075L57.3941 80.2326C56.6415 80.1424 55.8782 80.2129 55.1547 80.4394C54.4313 80.6659 53.7641 81.0433 53.1972 81.5466C52.6303 82.0499 52.1766 82.6676 51.866 83.3592C51.5555 84.0507 51.3951 84.8003 51.3955 85.5583L51.394 171.217Z" fill="#1A1A1A"/>
<path d="M57.2324 166.245L199.955 183.344V103.828L57.2324 86.7286V166.245Z" fill="white" stroke="black" stroke-width="0.5" stroke-miterlimit="10" stroke-linejoin="round"/>
<path d="M193.927 158.22L98.0757 146.577C96.9451 146.468 96.2527 145.261 96.2124 144.234V122.909C96.2405 121.945 96.9674 120.828 98.0757 121.019L193.927 132.662C194.994 132.855 195.828 133.91 195.79 135.004V156.33C195.847 157.383 194.978 158.3 193.927 158.22Z" fill="white" stroke="black" stroke-width="0.5" stroke-linecap="round" stroke-linejoin="round"/>
<path d="M193.927 130.909L98.0757 119.265C96.9443 119.157 96.2527 117.949 96.2124 116.923V95.5982C96.2405 94.6345 96.9674 93.5183 98.0757 93.709L193.927 105.351C194.994 105.545 195.828 106.6 195.79 107.694V129.019C195.847 130.072 194.978 130.987 193.927 130.909Z" fill="white" stroke="black" stroke-width="0.5" stroke-linecap="round" stroke-linejoin="round"/>
<path d="M117.471 170.882L98.0757 168.526C96.9451 168.417 96.2527 167.21 96.2124 166.184V150.221C96.2405 149.257 96.9674 148.14 98.0757 148.331L117.471 150.687C118.539 150.88 119.371 151.935 119.335 153.029V168.993C119.392 170.046 118.523 170.961 117.471 170.882Z" fill="white" stroke="black" stroke-width="0.5" stroke-linecap="round" stroke-linejoin="round"/>
<path d="M142.191 173.885L122.796 171.529C121.664 171.419 120.972 170.213 120.932 169.186V153.223C120.96 152.26 121.687 151.143 122.796 151.333L142.191 153.689C143.259 153.883 144.091 154.938 144.055 156.032V171.995C144.111 173.048 143.242 173.964 142.191 173.885Z" fill="white" stroke="black" stroke-width="0.5" stroke-linecap="round" stroke-linejoin="round"/>
<path d="M194.019 180.179L147.77 174.565C146.639 174.456 145.946 173.249 145.907 172.223V156.26C145.935 155.296 146.662 154.179 147.77 154.37L194.019 159.985C195.086 160.179 195.92 161.234 195.882 162.328V178.291C195.941 179.343 195.073 180.259 194.019 180.179Z" fill="white" stroke="black" stroke-width="0.5" stroke-linecap="round" stroke-linejoin="round"/>
<path fill-rule="evenodd" clip-rule="evenodd" d="M104.062 155.05C103.183 156.016 102.65 157.409 102.656 158.826C102.663 160.307 103.203 161.915 104.149 163.187C105.09 164.453 106.358 165.293 107.787 165.455L107.789 165.455C109.162 165.613 110.319 165.085 111.175 164.144C112.052 163.18 112.589 161.795 112.597 160.379C112.616 157.263 110.336 154.132 107.447 153.762C106.076 153.587 104.918 154.108 104.062 155.05ZM101.962 153.141C103.361 151.602 105.406 150.64 107.807 150.947C112.461 151.543 115.46 156.219 115.435 160.396C115.423 162.477 114.646 164.546 113.274 166.054C111.88 167.586 109.852 168.548 107.465 168.274C105.088 168.004 103.17 166.625 101.872 164.881C100.579 163.143 99.8278 160.951 99.8184 158.838M101.962 153.141C100.584 154.656 99.809 156.744 99.8184 158.838L101.962 153.141Z" fill="#B3B3B3"/>
<path fill-rule="evenodd" clip-rule="evenodd" d="M111.13 152.191C113.893 153.965 115.435 157.272 115.435 160.387H112.597C112.597 158.108 111.443 155.764 109.597 154.579L111.13 152.191Z" fill="#666666"/>
<path fill-rule="evenodd" clip-rule="evenodd" d="M136.014 167.136C136.944 166.218 137.552 164.857 137.622 163.442C137.696 161.962 137.244 160.327 136.368 159.006C135.497 157.691 134.276 156.784 132.858 156.544L132.856 156.544C131.494 156.312 130.31 156.776 129.404 157.669C128.476 158.585 127.865 159.939 127.78 161.352C127.593 164.463 129.699 167.712 132.565 168.238C133.924 168.488 135.109 168.03 136.014 167.136ZM138.008 169.155C136.527 170.617 134.433 171.466 132.052 171.029C127.437 170.182 124.696 165.351 124.947 161.182C125.072 159.104 125.96 157.08 127.412 155.649C128.886 154.195 130.963 153.344 133.332 153.747C135.691 154.145 137.532 155.626 138.733 157.438C139.93 159.243 140.562 161.473 140.457 163.583M138.008 169.155C139.465 167.717 140.352 165.675 140.457 163.583L138.008 169.155Z" fill="#B3B3B3"/>
<path fill-rule="evenodd" clip-rule="evenodd" d="M128.801 169.608C126.138 167.687 124.778 164.301 124.947 161.19L127.78 161.344C127.657 163.62 128.682 166.023 130.461 167.307L128.801 169.608Z" fill="#666666"/>
<path d="M86.4137 123.366L68.864 121.236C67.914 121.062 67.3317 120.197 67.2957 119.264C67.2871 118.389 67.9341 117.574 68.864 117.673L86.4137 119.803C87.3126 119.966 88.0136 120.854 87.9827 121.775C87.9906 122.651 87.3436 123.467 86.4137 123.366Z" fill="white" stroke="black" stroke-width="0.5" stroke-linecap="round" stroke-linejoin="round"/>
<path d="M78.1739 128.376L68.864 127.245C67.914 127.071 67.3317 126.206 67.2957 125.273C67.2871 124.397 67.9341 123.583 68.864 123.682L78.1739 124.813C79.0721 124.975 79.7738 125.864 79.7422 126.785C79.7508 127.66 79.1031 128.475 78.1739 128.376Z" fill="white" stroke="black" stroke-width="0.5" stroke-linecap="round" stroke-linejoin="round"/>
<path d="M83.052 135.29L68.864 133.563C67.914 133.389 67.3317 132.524 67.2957 131.591C67.2871 130.716 67.9341 129.901 68.864 130L83.052 131.723C83.9509 131.886 84.6519 132.775 84.621 133.695C84.6289 134.574 83.9819 135.389 83.052 135.29Z" fill="white" stroke="black" stroke-width="0.5" stroke-linecap="round" stroke-linejoin="round"/>
<path d="M87.2284 145.388L69.0079 143.174C67.8621 143.064 67.1612 141.841 67.1208 140.799V139.715C67.1489 138.739 67.8852 137.607 69.0079 137.8L87.2284 140.02C88.308 140.216 89.1529 141.284 89.1155 142.395V143.474C89.1731 144.54 88.2957 145.467 87.2284 145.388Z" fill="#B3B3B3" stroke="black" stroke-width="0.5" stroke-linecap="round" stroke-linejoin="round"/>
<path d="M150.16 157.468C150.16 157.144 150.391 156.91 150.676 156.944L154.288 157.383C154.575 157.418 154.804 157.708 154.804 158.031V173.119L150.16 172.554V157.468Z" fill="#666666"/>
<path d="M157.386 159.151C157.386 158.827 157.617 158.593 157.902 158.628L161.514 159.066C161.802 159.1 162.03 159.391 162.03 159.714V174.069L157.386 173.506V159.151Z" fill="#666666"/>
<path d="M164.606 162.958C164.606 162.634 164.837 162.4 165.122 162.435L168.734 162.873C169.022 162.908 169.25 163.198 169.25 163.521V174.946L164.606 174.382V162.958Z" fill="#666666"/>
<path d="M171.829 165.227C171.829 164.903 172.06 164.669 172.345 164.703L175.957 165.142C176.245 165.177 176.473 165.468 176.473 165.79V175.751L171.829 175.187V165.227Z" fill="#666666"/>
<path d="M179.049 166.983C179.049 166.659 179.28 166.426 179.565 166.46L183.177 166.898C183.465 166.933 183.693 167.224 183.693 167.546V176.628L179.049 176.064V166.983Z" fill="#666666"/>
<path d="M186.275 168.592C186.275 168.268 186.506 168.033 186.791 168.068L190.402 168.507C190.69 168.541 190.918 168.832 190.918 169.155V177.503L186.275 176.94V168.592Z" fill="#666666"/>
<path d="M104.273 96.8252C104.273 96.3509 104.612 96.0076 105.029 96.0587L108.052 96.4257V118.972L104.273 118.513V96.8252Z" fill="#CCCCCC"/>
<path d="M108.433 103.557L111.455 103.925C111.873 103.975 112.211 104.401 112.211 104.876V119.478L108.43 119.018L108.433 103.557Z" fill="#4C4C4C"/>
<path d="M115.24 105.243C115.24 104.769 115.578 104.425 115.996 104.476L119.019 104.843V120.305L115.238 119.845L115.24 105.243Z" fill="#CCCCCC"/>
<path d="M119.4 115.838L122.422 116.205C122.84 116.256 123.179 116.682 123.179 117.156V120.807L119.397 120.348L119.4 115.838Z" fill="#4C4C4C"/>
<path d="M126.206 107.649C126.206 107.174 126.545 106.831 126.962 106.882L129.985 107.249V121.637L126.203 121.177L126.206 107.649Z" fill="#CCCCCC"/>
<path d="M137.172 116.067C137.172 115.593 137.511 115.249 137.929 115.3L140.951 115.668V122.969L137.169 122.509L137.172 116.067Z" fill="#CCCCCC"/>
<path d="M141.332 110.56L144.355 110.928C144.773 110.978 145.112 111.404 145.112 111.878V123.474L141.33 123.014L141.332 110.56Z" fill="#4C4C4C"/>
<path d="M170.086 111.906C170.086 111.431 170.425 111.087 170.843 111.138L173.866 111.506V126.967L170.084 126.507L170.086 111.906Z" fill="#CCCCCC"/>
<path d="M174.245 122.503L177.268 122.87C177.686 122.921 178.024 123.347 178.024 123.821V127.472L174.243 127.012L174.245 122.503Z" fill="#4C4C4C"/>
<path d="M181.051 114.311C181.051 113.837 181.39 113.493 181.808 113.544L184.831 113.911V128.298L181.049 127.839L181.051 114.311Z" fill="#CCCCCC"/>
<path d="M185.211 121.044L188.234 121.411C188.652 121.462 188.991 121.887 188.991 122.361V128.803L185.209 128.344L185.211 121.044Z" fill="#4C4C4C"/>
<path d="M148.139 121.479C148.139 121.005 148.478 120.662 148.896 120.712L151.918 121.08V124.3L148.137 123.841L148.139 121.479Z" fill="#CCCCCC"/>
<path d="M159.164 124.467C159.164 123.992 159.503 123.649 159.921 123.699L162.943 124.067V125.64L159.162 125.181L159.164 124.467Z" fill="#CCCCCC"/>
<path d="M152.299 108.886L155.322 109.254C155.74 109.304 156.078 109.73 156.078 110.204V124.805L152.297 124.346L152.299 108.886Z" fill="#4C4C4C"/>
<path d="M163.265 121.169L166.288 121.537C166.705 121.587 167.043 122.013 167.043 122.487V126.138L163.262 125.679L163.265 121.169Z" fill="#4C4C4C"/>
<path d="M98.8752 142.467C98.8752 142.239 99.0386 142.073 99.2401 142.098L99.6043 142.142V145.247L98.8752 145.156V142.467Z" fill="#666666"/>
<path d="M108.721 143.246L109.085 143.291C109.286 143.315 109.45 143.52 109.45 143.749V146.44L108.721 146.353V143.246Z" fill="#B3B3B3"/>
<path d="M101.794 142.82C101.794 142.591 101.957 142.425 102.159 142.45L102.523 142.494V145.599L101.794 145.51V142.82Z" fill="#666666"/>
<path d="M104.71 143.174C104.71 142.945 104.874 142.779 105.075 142.804L105.439 142.848V145.953L104.71 145.865V143.174Z" fill="#666666"/>
<path d="M107.627 145.391C107.627 145.162 107.79 144.997 107.992 145.021L108.356 145.066V146.307L107.627 146.219V145.391Z" fill="#666666"/>
<path d="M111.637 141.944L112.001 141.989C112.203 142.013 112.366 142.219 112.366 142.447V146.794L111.637 146.706V141.944Z" fill="#B3B3B3"/>
<path d="M110.543 145.745C110.543 145.516 110.707 145.351 110.908 145.375L111.272 145.42V146.662L110.543 146.573V145.745Z" fill="#666666"/>
<path d="M114.553 137.33L114.918 137.375C115.119 137.399 115.282 137.605 115.282 137.833V147.148L114.553 147.06V137.33Z" fill="#B3B3B3"/>
<path d="M113.459 140.924C113.459 140.695 113.623 140.529 113.824 140.554L114.189 140.599V147.016L113.459 146.929V140.924Z" fill="#666666"/>
<path d="M117.469 130.853L117.834 130.898C118.036 130.922 118.198 131.127 118.198 131.356V147.505L117.469 147.416V130.853Z" fill="#B3B3B3"/>
<path d="M116.376 125.545C116.376 125.317 116.539 125.151 116.74 125.175L117.105 125.219V147.37L116.376 147.282V125.545Z" fill="#666666"/>
<path d="M120.386 129.551L120.75 129.596C120.952 129.62 121.115 129.825 121.115 130.054V147.857L120.386 147.769V129.551Z" fill="#B3B3B3"/>
<path d="M119.292 127.348C119.292 127.119 119.456 126.954 119.657 126.978L120.021 127.023V147.724L119.292 147.636V127.348Z" fill="#666666"/>
<path d="M123.302 131.976L123.666 132.02C123.868 132.044 124.031 132.25 124.031 132.478V148.211L123.302 148.123V131.976Z" fill="#B3B3B3"/>
<path d="M122.208 132.257C122.208 132.028 122.372 131.863 122.573 131.887L122.938 131.931V148.08L122.208 147.991V132.257Z" fill="#666666"/>
<path d="M126.219 133.779L126.584 133.823C126.785 133.848 126.948 134.053 126.948 134.282V148.566L126.219 148.477V133.779Z" fill="#B3B3B3"/>
<path d="M125.125 129.296C125.125 129.068 125.288 128.902 125.49 128.927L125.855 128.97V148.43L125.125 148.342V129.296Z" fill="#666666"/>
<path d="M129.136 132.27L129.5 132.315C129.701 132.339 129.865 132.544 129.865 132.773V148.92L129.136 148.832V132.27Z" fill="#B3B3B3"/>
<path d="M128.042 131.312C128.042 131.083 128.205 130.917 128.406 130.942L128.771 130.986V148.789L128.042 148.701V131.312Z" fill="#666666"/>
<path d="M132.053 136.144L132.417 136.188C132.619 136.213 132.782 136.418 132.782 136.647V149.274L132.053 149.186V136.144Z" fill="#B3B3B3"/>
<path d="M130.958 130.007C130.958 129.779 131.121 129.613 131.323 129.638L131.687 129.682V149.141L130.958 149.053V130.007Z" fill="#666666"/>
<path d="M134.968 136.498L135.333 136.542C135.534 136.567 135.697 136.772 135.697 137.001V149.629L134.968 149.54V136.498Z" fill="#B3B3B3"/>
<path d="M133.875 140.092C133.875 139.863 134.037 139.697 134.239 139.722L134.604 139.766V149.495L133.875 149.407V140.092Z" fill="#666666"/>
<path d="M137.883 141.614L138.248 141.658C138.449 141.682 138.613 141.887 138.613 142.116V149.983L137.883 149.894V141.614Z" fill="#B3B3B3"/>
<path d="M136.791 143.551C136.791 143.323 136.954 143.157 137.155 143.181L137.52 143.225V149.85L136.791 149.762V143.551Z" fill="#666666"/>
<path d="M140.801 135.551L141.165 135.594C141.367 135.619 141.53 135.824 141.53 136.053V150.337L140.801 150.248V135.551Z" fill="#B3B3B3"/>
<path d="M139.707 147.425C139.707 147.196 139.87 147.03 140.072 147.055L140.436 147.099V150.204L139.707 150.116V147.425Z" fill="#666666"/>
<path d="M143.717 149.361L144.082 149.405C144.283 149.429 144.446 149.634 144.446 149.863V150.692L143.717 150.603V149.361Z" fill="#B3B3B3"/>
<path d="M142.624 147.779C142.624 147.55 142.787 147.385 142.988 147.409L143.353 147.454V150.558L142.624 150.47V147.779Z" fill="#666666"/>
<path d="M146.633 144.747L146.998 144.791C147.2 144.815 147.362 145.02 147.362 145.249V151.046L146.633 150.959V144.747Z" fill="#B3B3B3"/>
<path d="M145.54 145.028C145.54 144.799 145.703 144.634 145.904 144.658L146.269 144.702V150.913L145.54 150.824V145.028Z" fill="#666666"/>
<path d="M149.55 146.55L149.914 146.594C150.116 146.619 150.279 146.824 150.279 147.053V151.4L149.55 151.311V146.55Z" fill="#B3B3B3"/>
<path d="M148.457 140.206C148.457 139.978 148.62 139.813 148.821 139.837L149.186 139.881V151.267L148.457 151.179V140.206Z" fill="#666666"/>
<path d="M152.467 145.041L152.831 145.085C153.032 145.11 153.196 145.315 153.196 145.544V151.751L152.467 151.662V145.041Z" fill="#B3B3B3"/>
<path d="M151.373 141.182C151.373 140.953 151.536 140.788 151.737 140.812L152.102 140.856V151.621L151.373 151.535V141.182Z" fill="#666666"/>
<path d="M155.383 147.672L155.748 147.717C155.949 147.742 156.112 147.947 156.112 148.175V152.111L155.383 152.022V147.672Z" fill="#B3B3B3"/>
<path d="M154.292 146.919C154.292 146.69 154.455 146.524 154.657 146.549L155.022 146.593V151.975L154.292 151.887V146.919Z" fill="#666666"/>
<path d="M158.299 149.89L158.664 149.934C158.865 149.959 159.028 150.164 159.028 150.392V152.463L158.299 152.374V149.89Z" fill="#B3B3B3"/>
<path d="M157.206 150.999C157.206 150.771 157.368 150.605 157.57 150.63L157.935 150.674V152.329L157.206 152.24V150.999Z" fill="#666666"/>
<path d="M161.215 152.111L161.58 152.155C161.782 152.18 161.944 152.385 161.944 152.613V152.82L161.215 152.732V152.111Z" fill="#B3B3B3"/>
<path d="M160.121 151.768C160.121 151.539 160.285 151.373 160.486 151.398L160.85 151.442V152.687L160.121 152.598V151.768Z" fill="#666666"/>
<path d="M163.038 152.327C163.038 152.098 163.202 151.932 163.403 151.957L163.767 152.001V153.036L163.038 152.948V152.327Z" fill="#666666"/>
<path d="M165.955 153.097C165.955 152.868 166.118 152.702 166.319 152.727L166.684 152.771V153.393L165.955 153.304V153.097Z" fill="#666666"/>
<path d="M164.645 150.456C164.645 150.227 164.809 150.061 165.01 150.086L165.375 150.129V153.235L164.645 153.146V150.456Z" fill="#666666"/>
<path d="M174.488 151.235L174.853 151.28C175.054 151.304 175.217 151.509 175.217 151.738V154.429L174.488 154.34V151.235Z" fill="#B3B3B3"/>
<path d="M167.562 150.808C167.562 150.579 167.725 150.414 167.926 150.438L168.291 150.483V153.588L167.562 153.499V150.808Z" fill="#666666"/>
<path d="M170.478 151.162C170.478 150.933 170.641 150.768 170.842 150.792L171.207 150.837V153.942L170.478 153.853V151.162Z" fill="#666666"/>
<path d="M173.395 153.38C173.395 153.151 173.558 152.985 173.759 153.01L174.124 153.054V154.296L173.395 154.208V153.38Z" fill="#666666"/>
<path d="M177.404 149.934L177.769 149.978C177.971 150.002 178.133 150.207 178.133 150.436V154.783L177.404 154.694V149.934Z" fill="#B3B3B3"/>
<path d="M176.314 153.734C176.314 153.505 176.478 153.339 176.679 153.364L177.044 153.408V154.651L176.314 154.562V153.734Z" fill="#666666"/>
<path d="M180.32 145.319L180.685 145.364C180.886 145.388 181.049 145.593 181.049 145.822V155.138L180.32 155.049V145.319Z" fill="#B3B3B3"/>
<path d="M179.227 148.912C179.227 148.684 179.39 148.519 179.591 148.543L179.956 148.587V155.005L179.227 154.916V148.912Z" fill="#666666"/>
<path d="M183.237 138.842L183.601 138.886C183.803 138.911 183.966 139.116 183.966 139.345V155.493L183.237 155.405V138.842Z" fill="#B3B3B3"/>
<path d="M182.144 133.534C182.144 133.305 182.307 133.14 182.508 133.164L182.873 133.208V155.359L182.144 155.27V133.534Z" fill="#666666"/>
<path d="M186.153 137.54L186.518 137.584C186.719 137.609 186.882 137.814 186.882 138.043V155.846L186.153 155.758V137.54Z" fill="#B3B3B3"/>
<path d="M185.06 135.337C185.06 135.109 185.222 134.943 185.424 134.967L185.789 135.012V155.713L185.06 155.624V135.337Z" fill="#666666"/>
<path d="M189.069 139.964L189.433 140.008C189.635 140.033 189.798 140.238 189.798 140.467V156.2L189.069 156.112V139.964Z" fill="#B3B3B3"/>
<path d="M187.974 140.246C187.974 140.017 188.136 139.852 188.338 139.876L188.702 139.92V156.069L187.974 155.981V140.246Z" fill="#666666"/>
<path d="M191.985 141.768L192.349 141.812C192.551 141.836 192.714 142.041 192.714 142.27V156.554L191.985 156.466V141.768Z" fill="#B3B3B3"/>
<path d="M190.891 137.285C190.891 137.057 191.055 136.891 191.256 136.916L191.62 136.96V156.42L190.891 156.331V137.285Z" fill="#666666"/>
<path d="M8.35718 201.527L16.7488 207.437V200.582L8.35718 194.548V201.527Z" fill="white" stroke="black" stroke-width="0.5" stroke-linecap="round" stroke-linejoin="round"/>
<path d="M11.251 185.4H50.5183L58.91 191.434H19.6426L11.251 185.4Z" fill="#CCCCCC" stroke="black" stroke-width="0.5" stroke-linecap="round" stroke-linejoin="round"/>
<path d="M8.35718 194.548H56.8575L65.2491 200.582H16.7488L8.35718 194.548Z" fill="#333333"/>
<path d="M19.7457 191.309L58.8094 191.331C58.837 191.331 58.8634 191.342 58.8828 191.362C58.9022 191.382 58.913 191.408 58.913 191.436L58.9173 200.581C58.9177 200.595 58.9151 200.609 58.9097 200.622C58.9044 200.635 58.8964 200.647 58.8863 200.657C58.8762 200.667 58.8641 200.675 58.8509 200.68C58.8377 200.685 58.8235 200.687 58.8094 200.687L19.7479 200.667C19.7203 200.667 19.6941 200.656 19.6748 200.636C19.6555 200.616 19.6448 200.59 19.645 200.562L19.6407 191.416C19.6403 191.402 19.6427 191.388 19.6478 191.375C19.6529 191.362 19.6606 191.35 19.6704 191.34C19.6803 191.33 19.692 191.322 19.7049 191.317C19.7178 191.312 19.7317 191.309 19.7457 191.309Z" fill="#808080" stroke="black" stroke-width="0.5" stroke-linecap="round" stroke-linejoin="round"/>
<path d="M24.4893 191.294H25.3975L25.4069 200.686L24.4986 200.685L24.4893 191.294Z" fill="#CCCCCC" stroke="black" stroke-width="0.5" stroke-linecap="round" stroke-linejoin="round"/>
<path d="M22.0562 191.292L22.9644 191.293L22.9738 200.685H22.0655L22.0562 191.292Z" fill="#CCCCCC" stroke="black" stroke-width="0.5" stroke-linecap="round" stroke-linejoin="round"/>
<path d="M16.851 200.582L65.1426 200.607C65.1701 200.607 65.1964 200.618 65.2157 200.638C65.235 200.658 65.2457 200.684 65.2455 200.712L65.2491 207.333C65.2493 207.347 65.2468 207.36 65.2417 207.373C65.2366 207.386 65.2291 207.397 65.2195 207.407C65.2099 207.417 65.1985 207.425 65.1859 207.43C65.1734 207.435 65.1598 207.438 65.1462 207.438L16.8546 207.414C16.8409 207.414 16.8274 207.411 16.8148 207.405C16.8022 207.4 16.7908 207.392 16.7812 207.383C16.7717 207.373 16.7641 207.361 16.7591 207.349C16.754 207.336 16.7515 207.322 16.7517 207.309L16.7481 200.687C16.7479 200.674 16.7504 200.66 16.7555 200.647C16.7605 200.635 16.7681 200.623 16.7776 200.613C16.7872 200.604 16.7986 200.596 16.8112 200.591C16.8238 200.585 16.8373 200.582 16.851 200.582Z" fill="#1A1A1A" stroke="black" stroke-width="0.5" stroke-linecap="round" stroke-linejoin="round"/>
<path d="M58.9153 202.621L59.6458 202.622L59.6472 205.416H58.9167L58.9153 202.621Z" fill="white" stroke="black" stroke-width="0.5" stroke-linecap="round" stroke-linejoin="round"/>
<path d="M57.3521 202.62H56.6216V205.415H57.3521V202.62Z" fill="white" stroke="black" stroke-width="0.5" stroke-linecap="round" stroke-linejoin="round"/>
<path d="M11.251 194.672L19.6426 200.582V191.309L11.251 185.4V194.672Z" fill="white" stroke="black" stroke-width="0.5" stroke-linecap="round" stroke-linejoin="round"/>
<path d="M36.7911 117.298C35.5676 123.243 33.2099 128.873 29.9374 133.677C29.9144 133.471 29.8899 133.266 29.8655 133.062C32.1527 127.747 33.2689 121.607 36.7911 117.298Z" fill="#B3B3B3" stroke="black" stroke-width="0.5" stroke-linecap="round" stroke-linejoin="round"/>
<path d="M42.9485 123.125C40.0697 130.348 35.8372 136.921 30.6331 142.245C30.6503 141.981 30.6654 141.718 30.682 141.453C34.7562 135.266 37.5407 127.77 42.9485 123.125Z" fill="#B3B3B3" stroke="black" stroke-width="0.5" stroke-linecap="round" stroke-linejoin="round"/>
<path d="M33.9391 108.8C33.3806 114.779 31.6533 120.608 28.9242 125.73C28.8954 125.532 28.8662 125.335 28.8364 125.138C30.1952 119.552 31.5864 113.926 33.9391 108.8Z" fill="#B3B3B3" stroke="black" stroke-width="0.5" stroke-linecap="round" stroke-linejoin="round"/>
<path d="M31.8748 102.396C31.8748 107.923 30.3498 113.436 27.5732 117.937L27.53 117.721C28.9781 112.614 30.4263 107.506 31.8748 102.396Z" fill="#B3B3B3" stroke="black" stroke-width="0.5" stroke-linecap="round" stroke-linejoin="round"/>
<path d="M28.2751 99.2477C28.326 103.329 27.6014 107.383 26.1397 111.195L25.9908 111.098C25.9375 110.894 25.8828 110.691 25.8274 110.487C25.9742 106.622 27.13 102.894 28.2751 99.2477Z" fill="#B3B3B3" stroke="black" stroke-width="0.5" stroke-linecap="round" stroke-linejoin="round"/>
<path d="M25.4565 95.3628C25.6605 98.5667 25.2399 101.78 24.2179 104.823L24.1056 104.792C24.0394 104.596 23.9732 104.4 23.9055 104.204C24.0071 101.199 24.5292 98.2231 25.4565 95.3628Z" fill="#B3B3B3" stroke="black" stroke-width="0.5" stroke-linecap="round" stroke-linejoin="round"/>
<path d="M21.7674 99.6658C21.4874 99.4737 21.3528 99.0613 21.2636 98.6863C20.6624 96.1711 20.494 93.5718 20.7656 91C21.669 93.7605 22.1322 96.6461 22.138 99.5507C22.0243 99.4183 21.8329 99.5032 21.7674 99.6658Z" fill="#B3B3B3" stroke="black" stroke-width="0.5" stroke-linecap="round" stroke-linejoin="round"/>
<path d="M21.5097 102.592C19.9206 102.736 18.2962 101.734 17.5146 100.131C19.3859 100.414 21.2017 101.21 22.7641 102.441C22.7821 102.491 22.8008 102.54 22.8195 102.59C22.4151 102.448 21.9458 102.554 21.5097 102.592Z" fill="#B3B3B3" stroke="black" stroke-width="0.5" stroke-linecap="round" stroke-linejoin="round"/>
<path d="M21.601 107.501C20.0278 107.29 18.533 106.376 17.4988 104.992C19.9984 105.355 22.391 106.251 24.5151 107.618C23.5507 107.508 22.569 107.63 21.601 107.501Z" fill="#B3B3B3" stroke="black" stroke-width="0.5" stroke-linecap="round" stroke-linejoin="round"/>
<path d="M25.5215 142.625C22.8629 142.269 20.3396 140.724 18.5886 138.385C22.7384 138.97 26.7867 140.489 30.4456 142.824C28.8133 142.637 27.1544 142.844 25.5215 142.625Z" fill="#B3B3B3" stroke="black" stroke-width="0.5" stroke-linecap="round" stroke-linejoin="round"/>
<path d="M22.1525 114.448C20.7433 114.294 19.3363 113.752 18.2546 112.698C20.9811 112.53 23.7107 112.974 26.2433 113.998C26.2526 114.037 26.2627 114.077 26.2721 114.117C24.9118 114.407 23.5271 114.6 22.1525 114.448Z" fill="#B3B3B3" stroke="black" stroke-width="0.5" stroke-linecap="round" stroke-linejoin="round"/>
<path d="M24.5651 135.562C22.7558 135.363 20.9501 134.669 19.5618 133.315C23.0608 133.1 26.5637 133.67 29.8138 134.984C29.8261 135.035 29.839 135.085 29.8505 135.135C28.1074 135.508 26.3291 135.756 24.5651 135.562Z" fill="#B3B3B3" stroke="black" stroke-width="0.5" stroke-linecap="round" stroke-linejoin="round"/>
<path d="M19.1162 117.437C18.9277 117.274 18.7283 117.082 18.6895 116.813C22.0353 117.293 25.243 118.99 27.7432 121.602L27.808 121.621C27.808 121.64 27.8145 121.659 27.8181 121.678C24.6773 121.108 21.6596 119.641 19.1162 117.437Z" fill="#B3B3B3" stroke="black" stroke-width="0.5" stroke-linecap="round" stroke-linejoin="round"/>
<path d="M18.3171 122.531C22.251 123.571 25.9344 125.842 28.8686 129.044L28.9614 129.116C28.9679 129.163 28.9737 129.209 28.9802 129.26C24.9995 128.02 20.9858 126.146 18.3171 122.531Z" fill="#B3B3B3" stroke="black" stroke-width="0.5" stroke-linecap="round" stroke-linejoin="round"/>
<path d="M24.5165 107.618C23.9983 105.922 23.4326 104.246 22.8194 102.591C22.8007 102.541 22.782 102.491 22.764 102.442C22.445 101.591 22.1136 100.745 21.7701 99.9056C21.7543 99.8676 21.7461 99.8269 21.7461 99.7857C21.7461 99.7446 21.7543 99.7039 21.7701 99.6659C21.8356 99.5033 22.027 99.4184 22.14 99.5508C22.1594 99.5735 22.1751 99.5989 22.1868 99.6263C22.8053 101.133 23.3791 102.659 23.9083 104.204C23.976 104.4 24.0422 104.596 24.1084 104.792C24.7393 106.668 25.3132 108.566 25.8299 110.488C25.8853 110.692 25.94 110.895 25.9933 111.098C26.569 113.285 27.0822 115.493 27.5327 117.724L27.5759 117.94C27.8312 119.209 28.0694 120.483 28.2906 121.761C28.4854 122.885 28.6682 124.013 28.839 125.144C28.8687 125.341 28.898 125.538 28.9268 125.735C29.2094 127.645 29.4627 129.559 29.6868 131.477C29.7496 132.005 29.8106 132.535 29.8696 133.068C29.8926 133.272 29.9171 133.477 29.9415 133.682C31.1578 144.587 31.871 155.615 32.0402 166.601C32.1445 173.388 31.7437 163.011 30.975 151.07C30.5072 143.801 29.9394 136.492 28.9843 129.263C28.9779 129.217 28.9721 129.17 28.9656 129.119C28.6346 126.628 28.2534 124.148 27.822 121.681C27.8184 121.661 27.8156 121.643 27.812 121.623C27.5721 120.26 27.3122 118.902 27.0325 117.548C26.7965 116.4 26.5439 115.257 26.2747 114.119C26.2653 114.079 26.2553 114.04 26.2459 114C25.7349 111.851 25.1592 109.725 24.5186 107.621L24.5165 107.618Z" fill="#1A1A1A" stroke="black" stroke-width="0.5" stroke-linecap="round" stroke-linejoin="round"/>
<path d="M18.8208 177.157C18.8203 179.466 19.4575 181.731 20.6621 183.702C21.8667 185.672 23.592 187.272 25.6478 188.324C25.9646 188.488 26.3157 188.573 26.672 188.573H36.0561C36.4122 188.573 36.763 188.488 37.0795 188.324C39.1354 187.272 40.8608 185.672 42.0655 183.702C43.2703 181.731 43.9076 179.467 43.9072 177.157C43.911 174.686 43.1816 172.27 41.8115 170.215C43.438 168.939 45.2833 165.997 45.2833 161.111C45.2833 157.329 43.0904 154.062 39.4581 152.554C37.7783 151.857 36.1151 151.593 35.0859 151.495V149.725H27.6414V165.175C25.0854 165.971 22.8507 167.562 21.2638 169.718C19.6768 171.873 18.8208 174.48 18.8208 177.157ZM39.2753 167.424C38.0353 166.413 36.6132 165.65 35.0859 165.175V152.771C36.0417 152.872 37.5329 153.122 39.0032 153.738C42.1476 155.055 43.6568 157.576 43.7424 160.64C43.8785 165.521 41.4538 167.032 39.2753 167.424Z" fill="black"/>
<path d="M140.016 212.081L47.2669 212.56C46.2557 212.565 37.8677 219.049 37.1429 219.757C37.1429 219.757 37.1429 220.476 37.1429 220.831C37.1372 221.267 37.3516 221.575 37.7863 221.575H149.843C150.371 221.575 150.57 221.275 150.57 220.754V219.824C149.834 219.093 141.053 212.076 140.016 212.081Z" fill="black" stroke="black" stroke-width="0.5" stroke-linecap="round" stroke-linejoin="round"/>
<path d="M140.015 210.786L47.2668 211.264C46.2556 211.269 45.2856 211.666 44.5608 212.371L37.2918 219.445C37.2226 219.512 37.175 219.599 37.1551 219.693C37.1353 219.788 37.1441 219.886 37.1804 219.975C37.2168 220.065 37.279 220.141 37.3591 220.195C37.4392 220.249 37.5336 220.277 37.6301 220.277H150.085C150.182 220.277 150.275 220.248 150.355 220.195C150.435 220.141 150.497 220.065 150.533 219.976C150.57 219.887 150.579 219.79 150.56 219.695C150.541 219.601 150.494 219.515 150.426 219.447L142.784 211.911C142.047 211.184 141.051 210.78 140.015 210.786Z" fill="white" stroke="black" stroke-width="0.5" stroke-linecap="round" stroke-linejoin="round"/>
<path d="M107.579 217.558H71.4874L70.8159 219.478H108.059L107.579 217.558Z" fill="#E5E5E5" stroke="black" stroke-width="0.5" stroke-linecap="round" stroke-linejoin="round"/>
<path d="M117.1 217.558H108.56L109.136 219.478H117.676L117.1 217.558Z" fill="#E5E5E5" stroke="black" stroke-width="0.5" stroke-linecap="round" stroke-linejoin="round"/>
<path d="M124.529 217.558H118.036L118.724 219.478H125.321L124.529 217.558Z" fill="#E5E5E5" stroke="black" stroke-width="0.5" stroke-linecap="round" stroke-linejoin="round"/>
<path d="M132.214 217.558H125.688L126.56 219.478H133.222L132.214 217.558Z" fill="#E5E5E5" stroke="black" stroke-width="0.5" stroke-linecap="round" stroke-linejoin="round"/>
<path d="M139.523 217.558H133.126L134.333 219.478H140.962L139.523 217.558Z" fill="#E5E5E5" stroke="black" stroke-width="0.5" stroke-linecap="round" stroke-linejoin="round"/>
<path d="M147.007 217.558H140.771L142.21 219.478H148.807L147.007 217.558Z" fill="#E5E5E5" stroke="black" stroke-width="0.5" stroke-linecap="round" stroke-linejoin="round"/>
<path d="M70.5765 217.558H62.5562L61.4702 219.478H69.8741L70.5765 217.558Z" fill="#E5E5E5" stroke="black" stroke-width="0.5" stroke-linecap="round" stroke-linejoin="round"/>
<path d="M61.47 217.558H55.0014L53.6555 219.478H60.384L61.47 217.558Z" fill="#E5E5E5" stroke="black" stroke-width="0.5" stroke-linecap="round" stroke-linejoin="round"/>
<path d="M53.8448 217.558H47.3762L45.8418 219.478H52.5702L53.8448 217.558Z" fill="#E5E5E5" stroke="black" stroke-width="0.5" stroke-linecap="round" stroke-linejoin="round"/>
<path d="M46.5034 217.558H40.0347L38.1462 219.478H44.874L46.5034 217.558Z" fill="#E5E5E5" stroke="black" stroke-width="0.5" stroke-linecap="round" stroke-linejoin="round"/>
<path d="M43.3237 215.247H144.841" stroke="black" stroke-width="0.5" stroke-linecap="round" stroke-linejoin="round"/>
<path d="M45.8418 212.936H142.21" stroke="black" stroke-width="0.5" stroke-linecap="round" stroke-linejoin="round"/>
<path d="M151.861 225.015C151.861 225.015 152.766 225.929 155.165 226.231C157.563 226.533 170.992 227.61 173.24 227.836C175.488 228.063 178.584 228.44 181.021 228.309C182.471 228.233 183.906 227.992 185.301 227.589C185.301 227.589 182.627 223.758 176.677 223.021C170.727 222.284 164.211 221.359 164.211 221.359C164.211 221.359 154.862 222.795 154.768 222.871C154.674 222.946 151.861 225.015 151.861 225.015Z" fill="#1A1A1A" stroke="black" stroke-width="0.5" stroke-linecap="round" stroke-linejoin="round"/>
<path d="M151.861 225.015C151.681 224.606 152.155 224.045 152.481 223.74C153.92 222.396 159.416 220.076 168.688 219.651C180.247 219.123 189.891 223.454 187.776 226.201C185.661 228.947 179.995 227.334 177.25 226.201C174.505 225.067 166.849 222.65 160.629 222.901C155.016 223.129 152.42 224.737 151.969 225.047C151.96 225.053 151.95 225.057 151.94 225.059C151.929 225.061 151.918 225.061 151.908 225.058C151.897 225.055 151.888 225.05 151.88 225.042C151.872 225.035 151.865 225.027 151.861 225.017V225.015Z" fill="white" stroke="black" stroke-width="0.5" stroke-linecap="round" stroke-linejoin="round"/>
<path d="M99.5435 140.823C99.5435 140.823 135.307 122.504 139.608 85.4925C143.908 48.4807 138.035 40.9908 138.035 40.9908L101.595 26.6797C101.595 26.6797 91.904 29.3383 86.7747 30.8431C81.6454 32.348 62.2144 34.2977 62.2144 34.2977V70.5991C62.2144 78.5568 64.4764 95.3041 75.1163 111.867C85.7563 128.429 99.5435 140.823 99.5435 140.823Z" fill="#B3B3B3" stroke="black" stroke-width="0.429382" stroke-linecap="round" stroke-linejoin="round"/>
<path d="M143.926 38.6626L136.647 43.7933C136.647 43.7933 136.929 69.2425 136.647 79.1081C136.37 88.824 135.351 105.941 123.138 119.728C110.925 133.515 99.5435 140.823 99.5435 140.823C99.5435 140.823 115.18 132.68 127.857 118.154C140.534 103.629 142.521 88.1712 143.216 78.5366C143.985 67.8801 143.926 38.6626 143.926 38.6626Z" fill="#666666" stroke="black" stroke-width="0.429382" stroke-linecap="round" stroke-linejoin="round"/>
<path d="M136.646 43.7933C136.646 43.7933 124.49 40.3042 115.919 36.5416C107.348 32.7791 98.8992 27.9405 98.8992 27.9405L105.579 23.2143C105.579 23.2143 116.573 29.9873 124.882 33.2483C131.08 35.6809 143.926 38.6611 143.926 38.6611L136.646 43.7933Z" fill="#CCCCCC" stroke="black" stroke-width="0.429382" stroke-linecap="round" stroke-linejoin="round"/>
<path d="M134.18 45.6444C134.18 45.6444 126.963 44.164 116.6 39.5378C106.237 34.9116 99.1412 30.8431 99.1412 30.8431C99.1412 30.8431 90.7525 33.9889 82.0549 35.2225C73.3574 36.4561 65.0298 37.0728 65.0298 37.0728C65.0298 37.0728 64.8463 58.7263 65.0298 65.9413C65.2687 75.3312 66.0777 86.508 73.6035 102.521C82.7948 122.074 99.5421 137.372 99.5421 137.372C99.5421 137.372 124 124.727 131.464 97.4006C131.464 97.4006 134.178 88.7643 134.178 71.678C134.18 62.3097 134.036 44.7585 134.18 45.6444Z" fill="#808080" stroke="black" stroke-width="0.429382" stroke-linecap="round" stroke-linejoin="round"/>
<path d="M105.579 23.2143C105.579 23.2143 94.9893 28.9891 84.1716 30.0996C73.3538 31.2101 67.1248 30.8431 67.1248 30.8431L62.2144 34.2976C62.2144 34.2976 74.1498 33.6384 82.7761 32.1594C91.4023 30.6804 98.8973 27.9442 98.8973 27.9442L105.579 23.2143Z" fill="#999999" stroke="black" stroke-width="0.429382" stroke-linecap="round" stroke-linejoin="round"/>
<path d="M80.4038 76.2696L84.9285 73.1029L94.9409 82.7814L90.4162 85.948L80.4038 76.2696Z" fill="#CCCCCC" stroke="black" stroke-width="0.429382" stroke-linecap="round" stroke-linejoin="round"/>
<path d="M115.53 61.0848L120.055 57.9181L125.812 63.508L121.287 66.6746L115.53 61.0848Z" fill="#999999" stroke="black" stroke-width="0.429382" stroke-linecap="round" stroke-linejoin="round"/>
<path d="M90.4163 97.4624L94.941 94.2957L125.812 63.5079L121.288 66.6745L90.4163 97.4624Z" fill="#666666" stroke="black" stroke-width="0.429382" stroke-linecap="round" stroke-linejoin="round"/>
<path d="M74.8967 81.8602L80.4038 76.2696L90.4162 85.9481L115.53 61.0848L121.288 66.6747L90.4162 97.4625L74.8967 81.8602Z" fill="white" stroke="black" stroke-width="0.27437" stroke-miterlimit="10"/>
<path d="M252.784 197.436C252.766 197.437 252.748 197.437 252.729 197.436C252.622 197.422 252.525 197.366 252.459 197.28C252.393 197.194 252.365 197.085 252.379 196.978C252.384 196.938 252.908 192.918 252.37 187.751C251.877 183.006 250.363 176.292 245.95 171.249C241.613 166.293 235.262 163.78 227.073 163.78C218.768 163.78 212.352 166.305 208.001 171.284C203.683 176.226 202.202 182.742 201.721 187.338C201.197 192.334 201.706 196.191 201.711 196.229C201.718 196.283 201.715 196.337 201.701 196.388C201.687 196.44 201.664 196.489 201.631 196.531C201.599 196.574 201.558 196.61 201.512 196.637C201.465 196.664 201.414 196.681 201.361 196.689C201.254 196.703 201.145 196.674 201.059 196.609C200.973 196.543 200.917 196.446 200.902 196.339C200.897 196.299 200.375 192.345 200.909 187.253C201.223 184.259 201.835 181.459 202.728 178.93C203.848 175.757 205.415 173.004 207.386 170.747C211.898 165.583 218.521 162.964 227.071 162.964C235.508 162.964 242.066 165.572 246.565 170.715C248.58 173.018 250.183 175.842 251.327 179.107C252.238 181.71 252.863 184.597 253.183 187.689C253.727 192.948 253.191 197.045 253.186 197.087C253.172 197.183 253.124 197.272 253.05 197.336C252.976 197.4 252.882 197.436 252.784 197.436Z" fill="black"/>
<path d="M225.713 163.369H224.591V222.222H225.713V163.369Z" fill="#CCCCCC" stroke="black" stroke-width="0.5" stroke-linecap="round" stroke-linejoin="round"/>
<path d="M229.895 163.369H228.773V222.222H229.895V163.369Z" fill="#CCCCCC" stroke="black" stroke-width="0.5" stroke-linecap="round" stroke-linejoin="round"/>
<path d="M214.355 216.836C213.898 216.782 213.444 216.697 212.998 216.584C211.664 216.243 210.493 215.648 209.518 214.821C207.848 213.401 207.335 211.791 207.314 211.726C207.298 211.675 207.293 211.621 207.298 211.568C207.302 211.514 207.318 211.462 207.343 211.415C207.368 211.368 207.402 211.326 207.443 211.291C207.484 211.257 207.532 211.231 207.583 211.216C207.686 211.184 207.798 211.194 207.893 211.244C207.989 211.295 208.061 211.381 208.093 211.484C208.103 211.515 208.582 212.972 210.08 214.23C212.104 215.93 214.939 216.485 218.506 215.881C228.836 214.135 232.879 213.265 232.919 213.257C233.025 213.234 233.135 213.254 233.226 213.312C233.317 213.371 233.381 213.463 233.404 213.569C233.427 213.675 233.407 213.785 233.348 213.876C233.29 213.967 233.197 214.031 233.092 214.054C233.051 214.063 228.989 214.936 218.642 216.686C217.098 216.948 215.662 216.996 214.355 216.836Z" fill="black"/>
<path d="M199.778 189.75L201.469 189.136L210.57 214.222L208.879 214.836C208.562 214.951 208.212 214.935 207.907 214.792C207.602 214.649 207.366 214.391 207.251 214.074L199.017 191.378C198.902 191.061 198.917 190.712 199.06 190.406C199.203 190.101 199.461 189.865 199.778 189.75Z" fill="#CCCCCC" stroke="black" stroke-width="0.5" stroke-linecap="round" stroke-linejoin="round"/>
<path d="M201.47 189.135C203.503 188.397 205.746 188.498 207.705 189.414C209.664 190.33 211.179 191.986 211.916 194.019L215.456 203.775C216.193 205.808 216.093 208.051 215.177 210.01C214.261 211.969 212.604 213.484 210.571 214.221L201.47 189.136L201.47 189.135Z" fill="#4C4C4C" stroke="black" stroke-width="0.5" stroke-linecap="round" stroke-linejoin="round"/>
<path d="M198.865 195.15L200.208 194.662L206.059 210.789L204.715 211.276C204.306 211.424 203.854 211.404 203.46 211.22C203.066 211.035 202.761 210.702 202.612 210.293L197.881 197.252C197.733 196.843 197.753 196.392 197.938 195.997C198.122 195.603 198.456 195.298 198.865 195.15Z" fill="#CCCCCC" stroke="black" stroke-width="0.5" stroke-linecap="round" stroke-linejoin="round"/>
<path d="M245.798 215.499L244.1 214.903L252.929 189.721L254.627 190.316C254.945 190.427 255.206 190.661 255.352 190.964C255.498 191.268 255.517 191.618 255.406 191.936L247.418 214.72C247.306 215.038 247.073 215.299 246.769 215.445C246.465 215.591 246.116 215.61 245.798 215.499Z" fill="#CCCCCC" stroke="black" stroke-width="0.5" stroke-linecap="round" stroke-linejoin="round"/>
<path d="M244.098 214.904C242.057 214.188 240.384 212.691 239.447 210.742C238.51 208.793 238.385 206.552 239.101 204.511L242.534 194.718C243.25 192.677 244.747 191.004 246.696 190.067C248.645 189.129 250.886 189.005 252.927 189.72L244.098 214.903L244.098 214.904Z" fill="#4C4C4C" stroke="black" stroke-width="0.5" stroke-linecap="round" stroke-linejoin="round"/>
<path d="M249.922 211.895L248.573 211.422L254.249 195.233L255.598 195.706C256.008 195.85 256.345 196.151 256.534 196.544C256.723 196.936 256.748 197.387 256.604 197.798L252.014 210.889C251.87 211.3 251.569 211.637 251.176 211.825C250.784 212.014 250.333 212.039 249.922 211.895Z" fill="#CCCCCC" stroke="black" stroke-width="0.5" stroke-linecap="round" stroke-linejoin="round"/>
<path d="M242.084 225.065H212.403V227.39H242.084V225.065Z" fill="#4C4C4C" stroke="black" stroke-width="0.5" stroke-linecap="round" stroke-linejoin="round"/>
<path d="M229.895 163.318H224.591V167.785H229.895V163.318Z" fill="#CCCCCC" stroke="black" stroke-width="0.5" stroke-linecap="round" stroke-linejoin="round"/>
<path d="M210.419 221.943H244.068C244.231 221.943 244.388 222.008 244.504 222.123C244.62 222.239 244.685 222.396 244.685 222.56V223.631C244.685 224.306 244.417 224.953 243.94 225.431C243.463 225.908 242.815 226.176 242.14 226.176H212.344C212.01 226.176 211.679 226.11 211.37 225.982C211.062 225.854 210.781 225.667 210.545 225.431C210.308 225.194 210.121 224.914 209.993 224.605C209.865 224.296 209.799 223.965 209.799 223.631V222.56C209.799 222.479 209.815 222.398 209.847 222.323C209.878 222.248 209.923 222.18 209.981 222.123C210.039 222.065 210.107 222.02 210.182 221.989C210.257 221.958 210.338 221.942 210.419 221.943Z" fill="#CCCCCC" stroke="black" stroke-width="0.5" stroke-linecap="round" stroke-linejoin="round"/>
<path d="M219.497 219.617H234.99C235.607 219.617 236.198 219.862 236.635 220.298C237.071 220.734 237.316 221.326 237.316 221.943H217.171C217.171 221.326 217.416 220.734 217.852 220.298C218.289 219.862 218.88 219.617 219.497 219.617Z" fill="#4C4C4C" stroke="black" stroke-width="0.5" stroke-linecap="round" stroke-linejoin="round"/>
<path d="M235.609 215.135C236.798 214.861 237.54 213.674 237.265 212.485C236.99 211.296 235.803 210.554 234.614 210.829L229.512 212.008C228.323 212.283 227.582 213.469 227.857 214.659C228.131 215.848 229.318 216.589 230.507 216.314L235.609 215.135Z" fill="black" stroke="black" stroke-width="0.5" stroke-linecap="round" stroke-linejoin="round"/>
<path d="M45.9642 237.946L259.536 237.946V230.286L45.9642 230.518V237.946Z" fill="#B3B3B3" stroke="black" stroke-width="0.5" stroke-linecap="round" stroke-linejoin="round"/>
<path d="M259.629 230.193C259.629 230.193 259.582 230.146 259.536 230.146H259.35L237.204 213.896C237.389 213.432 237.482 212.921 237.343 212.411C237.204 211.807 236.832 211.296 236.322 210.971C235.811 210.646 235.161 210.554 234.557 210.693L233.211 211.018L229.961 208.65V167.793V163.893C236.739 164.45 242.079 166.911 245.886 171.229C250.297 176.289 251.829 182.975 252.293 187.711C252.339 188.314 252.386 188.871 252.432 189.429C250.482 188.871 248.393 189.011 246.582 189.893C244.586 190.868 243.1 192.539 242.357 194.629L238.922 204.425C238.179 206.514 238.318 208.743 239.293 210.739C240.268 212.736 241.939 214.221 244.029 214.964L245.7 215.568C245.839 215.614 246.025 215.661 246.164 215.661C246.35 215.661 246.582 215.614 246.768 215.521C247.093 215.382 247.372 215.057 247.464 214.732L248.579 211.529L249.832 211.946C250.018 211.993 250.204 212.039 250.436 212.039C250.714 212.039 250.947 211.993 251.179 211.854C251.597 211.668 251.922 211.296 252.061 210.832L256.657 197.739C256.797 197.275 256.797 196.811 256.564 196.393C256.379 195.975 256.007 195.65 255.543 195.511L254.289 195.093L255.404 191.889C255.543 191.564 255.497 191.146 255.357 190.821C255.218 190.496 254.893 190.218 254.568 190.125L253.268 189.661C253.222 189.011 253.175 188.314 253.082 187.618C252.757 184.507 252.154 181.629 251.225 179.029C250.064 175.779 248.486 172.946 246.443 170.625C241.939 165.471 235.393 162.871 226.943 162.871C219.793 162.871 213.989 164.729 209.625 168.35V101.679C209.625 100.332 209.114 98.9857 208.232 97.9643C207.35 96.9428 206.097 96.2928 204.75 96.1536L142.072 88.6321C142.722 85.0571 143.093 81.6678 143.325 78.5107C144.068 67.9714 144.022 38.9071 144.022 38.6286C144.022 38.6286 144.022 38.6286 144.022 38.5821C143.882 38.5357 131.114 35.5643 124.986 33.1964C116.768 29.9928 105.811 23.2607 105.718 23.1678H105.672C105.579 23.2143 94.993 28.925 84.3144 30.0393C73.6358 31.1536 67.368 30.7821 67.2751 30.7821H67.2287L62.3073 34.2178V34.2643V70.5714C62.3073 73.0786 62.493 76.0036 62.9573 79.1143L60.9144 78.8821C59.8465 78.7428 57.8037 78.975 56.8287 79.3C55.7608 79.6714 54.368 80.4143 53.3465 81.4357C53.3465 81.4357 53.3465 81.4357 53.3001 81.4357C52.6965 81.9464 52.2323 82.5964 51.9073 83.2928C51.5823 84.0357 51.3965 84.7786 51.3965 85.5678V181.257C51.3965 182.604 51.9073 183.95 52.7894 184.971C53.6715 185.993 54.9251 186.643 56.2715 186.782L119.647 194.35V195.696C119.647 196.532 119.414 197.321 118.95 198.018H61.7965L59.0108 196.021V191.332C59.0108 191.286 59.0108 191.239 58.9644 191.193C58.918 191.146 58.8715 191.146 58.8251 191.146L50.6073 185.296H50.5608H40.9037C41.3215 184.786 41.693 184.275 42.0644 183.718C43.2715 181.768 43.9215 179.493 43.9215 177.171C43.9215 174.711 43.1787 172.296 41.8323 170.207C43.4573 168.954 45.3144 165.982 45.3144 161.107C45.3144 157.346 43.1323 154.05 39.5108 152.564C37.8394 151.868 36.168 151.589 35.1465 151.496V149.732H31.5251C31.3394 147.225 31.1537 144.671 30.968 142.164C36.0751 136.871 40.3001 130.325 43.1323 123.175C43.1323 123.129 43.1323 123.082 43.0858 123.036C43.0394 122.989 42.993 122.989 42.9465 123.036C39.2787 126.193 36.7715 130.743 34.3573 135.107C33.243 137.104 32.1287 139.146 30.8751 141.05C30.643 138.589 30.4108 136.129 30.1323 133.714C33.3823 128.932 35.7501 123.268 36.9573 117.325C36.9573 117.279 36.9573 117.232 36.9108 117.186C36.8644 117.139 36.818 117.186 36.7715 117.232C34.3573 120.157 33.0573 124.011 31.8037 127.679C31.2465 129.304 30.6894 130.975 29.993 132.6C29.9465 132.229 29.9001 131.857 29.8537 131.486C29.6215 129.582 29.3894 127.632 29.1108 125.775C31.8501 120.668 33.568 114.818 34.1251 108.829C34.1251 108.782 34.0787 108.736 34.0323 108.689C33.9858 108.689 33.9394 108.689 33.893 108.736C31.5715 113.796 30.1787 119.461 28.9251 124.521C28.7858 123.593 28.6465 122.664 28.4608 121.736C28.2287 120.482 27.9965 119.182 27.7644 117.929C30.5501 113.425 32.0358 107.9 32.0358 102.375C32.0358 102.329 31.9894 102.282 31.943 102.282C31.8965 102.282 31.8501 102.329 31.8037 102.375L27.5787 117.232C27.1608 115.236 26.6965 113.239 26.1858 111.289C26.2323 111.289 26.2323 111.243 26.2787 111.243C27.7644 107.389 28.4608 103.35 28.4144 99.2643C28.4144 99.2178 28.368 99.1714 28.3215 99.1714C28.2751 99.1714 28.2287 99.2178 28.1823 99.2643C27.1608 102.514 26.0465 106.182 25.768 109.85C25.3037 108.225 24.8394 106.554 24.2823 104.975C24.3287 104.975 24.3287 104.929 24.3287 104.929C25.3501 101.864 25.768 98.6607 25.5823 95.4107C25.5823 95.3643 25.5358 95.3178 25.4894 95.3178C25.443 95.3178 25.3965 95.3643 25.3501 95.4107C24.468 98.1036 23.9573 100.889 23.818 103.675C23.3537 102.329 22.843 100.982 22.2858 99.6357L22.2394 99.5893C22.2394 96.6643 21.7751 93.7857 20.8465 91.0464C20.8465 91 20.8001 90.9536 20.7073 90.9536C20.6608 90.9536 20.6144 91 20.6144 91.0464C20.3358 93.6464 20.5215 96.2464 21.1251 98.7536C21.218 99.0786 21.3573 99.4964 21.6358 99.7286C21.6358 99.775 21.6358 99.775 21.6358 99.8214C21.6358 99.8678 21.6358 99.9143 21.6823 100.007C21.9608 100.704 22.2394 101.446 22.518 102.189C21.0323 101.075 19.3144 100.379 17.5501 100.1C17.5037 100.1 17.4573 100.1 17.4573 100.146C17.4108 100.193 17.4108 100.239 17.4573 100.286C18.2001 101.818 19.6858 102.839 21.2644 102.839C21.3573 102.839 21.4965 102.839 21.5894 102.839C21.6823 102.839 21.7751 102.839 21.868 102.793C22.193 102.746 22.518 102.7 22.7965 102.793C23.3537 104.325 23.9108 105.904 24.3751 107.482C22.2858 106.182 20.0108 105.346 17.5965 105.021C17.5501 105.021 17.5037 105.021 17.4573 105.068C17.4108 105.114 17.4573 105.161 17.4573 105.207C18.5251 106.6 20.0108 107.529 21.6358 107.761C22.1465 107.807 22.6573 107.807 23.168 107.807C23.5858 107.807 24.0501 107.807 24.468 107.854C25.0715 109.85 25.6287 111.893 26.1394 113.936C23.6787 112.961 20.9394 112.543 18.293 112.682C18.2465 112.682 18.2001 112.729 18.2001 112.775C18.2001 112.821 18.2001 112.868 18.2465 112.914C19.5465 114.168 21.1251 114.586 22.193 114.679C22.518 114.725 22.843 114.725 23.2144 114.725C24.3287 114.725 25.3965 114.539 26.2787 114.354C26.5573 115.468 26.7894 116.582 27.0215 117.696C27.3001 118.95 27.5323 120.204 27.7644 121.457C25.2573 118.95 22.1001 117.279 18.8501 116.814C18.8037 116.814 18.7573 116.814 18.7573 116.861C18.7108 116.907 18.7108 116.907 18.7108 116.954C18.7573 117.279 18.9894 117.464 19.1751 117.65C21.7287 119.832 24.7001 121.318 27.8573 121.921C28.2751 124.243 28.6465 126.611 28.9251 128.932C26.0001 125.775 22.3787 123.593 18.4787 122.525C18.4323 122.525 18.3858 122.525 18.3394 122.571C18.293 122.618 18.293 122.664 18.3394 122.711C21.2644 126.657 25.8144 128.468 28.9715 129.443C29.2037 131.254 29.4358 133.064 29.6215 134.829C26.4644 133.621 23.0287 133.064 19.6394 133.296C19.593 133.296 19.5465 133.343 19.5465 133.389C19.5465 133.436 19.5465 133.482 19.593 133.529C21.218 135.154 23.2608 135.664 24.6537 135.804C25.0715 135.85 25.5358 135.85 25.9537 135.85C27.3001 135.85 28.6001 135.618 29.7144 135.432C29.993 137.893 30.1787 140.354 30.3644 142.675C26.7894 140.446 22.7501 138.961 18.7108 138.357C18.6644 138.357 18.618 138.357 18.618 138.404C18.5715 138.45 18.618 138.496 18.618 138.543C20.3823 140.911 22.9358 142.489 25.6287 142.814C26.4644 142.907 27.3465 142.907 28.1823 142.907C28.9251 142.907 29.668 142.907 30.3644 143C30.5501 145.368 30.7358 147.643 30.8751 149.779H27.7644V165.239C25.2108 166.029 22.9823 167.607 21.4037 169.789C19.8251 171.925 18.943 174.571 18.943 177.218C18.943 179.539 19.593 181.814 20.8001 183.764C21.1251 184.321 21.543 184.832 21.9608 185.343H11.2358H11.1894C11.1894 185.343 11.1894 185.343 11.143 185.389V194.536H8.54298L8.40369 194.443C8.35726 194.396 8.31083 194.396 8.2644 194.443C8.21798 194.443 8.21798 194.489 8.21798 194.536V198.111H1.85726C1.81083 198.111 1.7644 198.157 1.7644 198.204V198.25V205.586C1.7644 205.632 1.7644 205.679 1.81083 205.679L45.7787 237.9H45.8251C45.8251 237.9 45.8251 237.9 45.8715 237.9C45.8715 237.946 45.918 237.993 45.9644 237.993H259.536C259.582 237.993 259.629 237.946 259.629 237.9V230.286C259.629 230.239 259.629 230.239 259.629 230.193ZM35.1001 152.75C36.0751 152.843 37.5608 153.121 39.0001 153.725C42.1573 155.025 43.643 157.579 43.7358 160.643C43.8751 165.518 41.4608 167.05 39.2787 167.421C38.0251 166.4 36.6323 165.657 35.1001 165.193V152.75ZM225.829 205.586V167.886H228.661V207.675L225.829 205.586ZM224.482 163.893V167.793V204.611L215.661 198.111H215.614H213.572L212.086 193.979C211.622 192.679 210.832 191.518 209.811 190.636V169.511C213.479 166.168 218.4 164.264 224.482 163.893Z" fill="url(#paint0_linear_1240_20592)" style="mix-blend-mode:overlay"/>
</g>
<defs>
<linearGradient id="paint0_linear_1240_20592" x1="259.629" y1="130.246" x2="1.76441" y2="130.246" gradientUnits="userSpaceOnUse">
<stop stop-color="#E60050"/>
<stop offset="1" stop-color="#5D6AE8"/>
</linearGradient>
<clipPath id="clip0_1240_20592">
<rect width="260" height="260" fill="white"/>
</clipPath>
</defs>
</svg>
