<svg width="260" height="260" viewBox="0 0 260 260" fill="none" xmlns="http://www.w3.org/2000/svg">
<path d="M112.82 130.26V125.027H24.2188V216.326H112.82V211.091H112.78V130.26H112.82ZM107.684 211.091H29.3123V130.26H107.681L107.684 211.091Z" fill="#CCCCCC" stroke="black" stroke-width="0.5" stroke-miterlimit="10" stroke-linecap="round" stroke-linejoin="round"/>
<path d="M110.211 67.8438H26.9297V108.985H110.211V67.8438Z" fill="#E5E5E5" stroke="black" stroke-width="0.5" stroke-linecap="round" stroke-linejoin="round"/>
<path d="M47.9862 82.2463C48.006 82.2661 48.0296 82.2817 48.0556 82.2921C48.0816 82.3026 48.1094 82.3076 48.1374 82.3071L49.6205 82.2703C49.6611 82.2696 49.7006 82.257 49.7341 82.2339C49.7675 82.2109 49.7934 82.1784 49.8085 82.1407C49.8236 82.103 49.8272 82.0617 49.8189 82.0219C49.8106 81.9821 49.7907 81.9457 49.7618 81.9172L49.3592 81.5161C49.2955 81.4529 49.2199 81.4033 49.1366 81.3701C49.0534 81.3368 48.9643 81.3206 48.8747 81.3225L48.3507 81.3353C48.2463 81.3379 48.1449 81.371 48.0592 81.4307C47.9734 81.4903 47.907 81.5737 47.8683 81.6707C47.8295 81.7677 47.82 81.8739 47.841 81.9762C47.8619 82.0785 47.9124 82.1724 47.9862 82.2463Z" fill="#666666" stroke="black" stroke-width="0.5" stroke-linecap="round" stroke-linejoin="round"/>
<path d="M33.1073 94.3713C33.127 94.3907 33.1504 94.406 33.1761 94.4162C33.2019 94.4264 33.2294 94.4313 33.257 94.4306L34.7416 94.3953C34.7822 94.3946 34.8217 94.3819 34.8552 94.3589C34.8886 94.3358 34.9145 94.3034 34.9296 94.2657C34.9447 94.228 34.9483 94.1866 34.94 94.1469C34.9317 94.1071 34.9118 94.0707 34.8828 94.0422L34.4789 93.641C34.4158 93.5775 34.3404 93.5276 34.2573 93.4944C34.1742 93.4611 34.0852 93.4451 33.9958 93.4475L33.4717 93.4602C33.367 93.4622 33.2652 93.495 33.1791 93.5545C33.0929 93.614 33.0262 93.6976 32.9873 93.7949C32.9484 93.8921 32.939 93.9986 32.9604 94.1012C32.9817 94.2037 33.0328 94.2976 33.1073 94.3713Z" fill="#333333" stroke="black" stroke-width="0.5" stroke-linecap="round" stroke-linejoin="round"/>
<path d="M90.5497 91.7198C90.5242 91.7457 90.4936 91.7659 90.4597 91.7793C90.4259 91.7927 90.3897 91.7989 90.3534 91.7975L88.4211 91.7508C88.3695 91.7483 88.3198 91.7309 88.2779 91.7008C88.236 91.6708 88.2037 91.6293 88.1847 91.5813C88.1658 91.5333 88.1611 91.4808 88.1712 91.4303C88.1813 91.3797 88.2058 91.3331 88.2417 91.296L88.7671 90.772C88.8498 90.6898 88.9482 90.6252 89.0565 90.582C89.1647 90.5388 89.2806 90.5179 89.3971 90.5205L90.0793 90.5375C90.2142 90.5423 90.3447 90.5862 90.455 90.6639C90.5652 90.7416 90.6505 90.8498 90.7004 90.9751C90.7503 91.1005 90.7626 91.2376 90.7358 91.3699C90.7091 91.5021 90.6444 91.6237 90.5497 91.7198Z" fill="#333333" stroke="black" stroke-width="0.5" stroke-linecap="round" stroke-linejoin="round"/>
<path d="M85.6641 102.455L96.1802 85.3341C96.4443 84.9273 97.1492 84.9259 97.4147 85.3341L108.291 102.002L85.6641 102.455Z" fill="#808080"/>
<path d="M91.2188 102.663L96.5736 93.8331C96.6084 93.7818 96.6553 93.7399 96.7101 93.7109C96.7648 93.6819 96.8259 93.6667 96.8879 93.6667C96.9498 93.6667 97.0109 93.6819 97.0657 93.7109C97.1204 93.7399 97.1673 93.7818 97.2022 93.8331L102.745 102.93L91.2188 102.663Z" fill="#666666"/>
<path d="M68.4745 98.4139C68.4745 98.4139 67.093 99.4182 65.4602 98.1003C63.8273 96.7825 60.878 95.4632 57.1108 95.0239C52.7448 94.514 51.0215 86.5488 51.0215 86.5488C51.0215 86.5488 53.7914 90.7157 58.1236 90.6536C62.4558 90.5914 64.3316 90.3555 66.9673 92.3867C70.7966 95.3375 68.4745 98.4139 68.4745 98.4139Z" fill="#CCCCCC" stroke="black" stroke-width="0.5" stroke-linecap="round" stroke-linejoin="round"/>
<path d="M51.0215 86.5488C51.0215 86.5488 53.4849 91.1211 56.9696 92.1099C60.4542 93.0986 62.0546 91.9686 65.35 93.569C68.6454 95.1694 68.9914 99.6908 69.1722 101.15C69.353 102.609 69.4463 106.895 69.4463 106.895" stroke="black" stroke-width="0.5" stroke-linecap="round" stroke-linejoin="round"/>
<path d="M64.8916 72.3074C64.8916 72.3074 59.6885 76.5134 62.7709 82.226C65.8533 87.9386 66.2156 88.196 66.3604 90.5273C66.5748 93.9744 69.4618 95.9829 71.3484 95.4687C73.2351 94.9544 75.3532 86.8836 71.8185 83.7308C68.2838 80.5781 64.8899 78.6136 64.6212 76.3036C64.3525 73.9936 64.8916 72.3074 64.8916 72.3074Z" fill="#999999" stroke="black" stroke-width="0.5" stroke-linecap="round" stroke-linejoin="round"/>
<path d="M64.8916 72.3075C64.8916 72.3075 61.8946 77.3016 64.4053 79.6899C66.916 82.0782 70.666 83.8799 71.1209 88.4782C71.5758 93.0765 71.6114 106.066 71.6114 106.066" stroke="black" stroke-width="0.5" stroke-linecap="round" stroke-linejoin="round"/>
<path d="M73.0659 98.9833C73.0659 98.9833 68.036 91.6128 71.765 86.1803C75.3881 80.9032 77.6481 81.7818 80.2231 81.0275C82.7981 80.2732 83.8631 79.2703 83.8631 79.2703C83.8631 79.2703 83.0043 82.5007 78.716 85.3597C75.5138 87.494 78.4024 90.0054 76.3302 94.6511C74.6578 98.4 73.0659 98.9833 73.0659 98.9833Z" fill="#666666" stroke="black" stroke-width="0.5" stroke-linecap="round" stroke-linejoin="round"/>
<path d="M83.8608 79.2703C83.8608 79.2703 80.6276 82.4301 78.321 83.2254C76.0143 84.0206 74.2247 85.0983 73.8956 88.3104C73.5664 91.5224 72.3418 108.985 72.3418 108.985" stroke="black" stroke-width="0.5" stroke-linecap="round" stroke-linejoin="round"/>
<path d="M26.0469 103.973C26.0469 103.973 35.2748 98.8884 44.5042 98.8884C53.7335 98.8884 68.0451 101.038 73.3194 101.658C78.5937 102.278 90.4573 100.607 96.6724 100.407C102.887 100.206 110.985 100.407 110.985 100.407V111.129H26.0469V103.973Z" fill="#CCCCCC"/>
<path d="M27.5277 63.0229H26.0469V117.294H27.5277V63.0229Z" fill="#808080" stroke="black" stroke-width="0.5" stroke-linecap="round" stroke-linejoin="round"/>
<path d="M110.986 63.0229H109.492V117.294H110.986V63.0229Z" fill="#808080" stroke="black" stroke-width="0.5" stroke-linecap="round" stroke-linejoin="round"/>
<path d="M110.984 108.131H26.0469V117.627H110.984V108.131Z" fill="#808080" stroke="black" stroke-width="0.5" stroke-linecap="round" stroke-linejoin="round"/>
<path d="M110.986 63.2922C110.986 61.3516 109.595 59.6938 107.68 59.3828C100.171 58.1637 81.4812 55.3578 68.5174 55.3578C54.4746 55.3578 36.5642 58.132 29.3139 59.3619C27.4162 59.6838 26.0488 61.3321 26.0488 63.257V69.4363H110.986V63.2922Z" fill="#808080" stroke="black" stroke-width="0.5" stroke-linecap="round" stroke-linejoin="round"/>
<path d="M26.1938 117.676H110.803C111.328 117.676 111.831 117.885 112.201 118.256C112.572 118.626 112.781 119.129 112.781 119.654V125.021H24.2148V119.654C24.2148 119.394 24.266 119.137 24.3655 118.897C24.465 118.657 24.6108 118.439 24.7945 118.255C24.9783 118.071 25.1965 117.926 25.4366 117.827C25.6767 117.727 25.934 117.676 26.1938 117.676Z" fill="#666666" stroke="black" stroke-width="0.5" stroke-linecap="round" stroke-linejoin="round"/>
<path d="M54.6459 77.4015C54.6459 77.4015 53.2871 74.9155 52.4932 74.859C51.6994 74.8025 48.7232 77.321 48.8207 77.756C48.9182 78.1911 49.5383 78.8338 49.5383 78.8338L54.6459 77.4015Z" fill="#4C4C4C" stroke="black" stroke-width="0.5" stroke-linecap="round" stroke-linejoin="round"/>
<path d="M57.1567 80.04C57.1693 80.0357 57.1807 80.0286 57.1901 80.0192C57.1995 80.0099 57.2066 79.9984 57.2108 79.9858C57.215 79.9733 57.2163 79.9599 57.2145 79.9467C57.2127 79.9336 57.2079 79.921 57.2005 79.91C56.8262 79.345 54.7781 76.455 52.4163 76.479C49.8018 76.5045 49.8018 78.2998 48.2113 78.2998C46.6208 78.2998 45.0063 76.6838 45.0063 76.6838C44.9297 77.3298 45.055 77.9836 45.3651 78.5554C45.8778 79.4269 46.1349 79.5555 46.1349 79.5555C46.1349 79.5555 45.4173 80.581 45.2634 81.1714C45.1094 81.7618 45.4428 82.5839 45.4428 82.5839C45.4428 82.5839 46.8016 80.5838 47.9302 80.6869C49.0588 80.79 50.1083 84.019 52.3401 83.6602C53.8741 83.413 56.1891 81.5415 57.1341 80.5838C57.298 80.4171 56.6595 80.3408 56.6722 80.2504C56.6779 80.2123 56.9886 80.0993 57.1567 80.04Z" fill="#999999" stroke="black" stroke-width="0.5" stroke-linecap="round" stroke-linejoin="round"/>
<path d="M51.9627 84.8326C52.0006 84.8326 52.0382 84.825 52.0732 84.8102C52.1081 84.7954 52.1397 84.7737 52.1661 84.7464L53.563 83.2859C53.6007 83.2459 53.6258 83.1958 53.6354 83.1417C53.645 83.0876 53.6386 83.0319 53.617 82.9814C53.5954 82.9309 53.5596 82.8877 53.5139 82.8573C53.4682 82.8268 53.4146 82.8103 53.3597 82.8099H52.5842C52.462 82.8105 52.3411 82.8358 52.229 82.8844C52.1168 82.9329 52.0157 83.0037 51.9316 83.0924L51.4372 83.6094C51.3404 83.7124 51.2758 83.8414 51.2512 83.9806C51.2267 84.1199 51.2434 84.2632 51.2992 84.3931C51.355 84.523 51.4475 84.6338 51.5654 84.7119C51.6832 84.7899 51.8213 84.8319 51.9627 84.8326Z" fill="#666666" stroke="black" stroke-width="0.5" stroke-linecap="round" stroke-linejoin="round"/>
<path d="M55.1654 79.8762C55.4876 79.8762 55.7488 79.615 55.7488 79.2928C55.7488 78.9707 55.4876 78.7095 55.1654 78.7095C54.8432 78.7095 54.582 78.9707 54.582 79.2928C54.582 79.615 54.8432 79.8762 55.1654 79.8762Z" fill="white" stroke="black" stroke-width="0.5" stroke-linecap="round" stroke-linejoin="round"/>
<path d="M39.7683 89.5264C39.7683 89.5264 38.4095 87.039 37.6143 86.9839C36.819 86.9288 33.8457 89.4445 33.9417 89.881C34.0378 90.3174 34.6593 90.9573 34.6593 90.9573L39.7683 89.5264Z" fill="#333333" stroke="black" stroke-width="0.5" stroke-linecap="round" stroke-linejoin="round"/>
<path d="M42.2778 92.165C42.2903 92.1608 42.3018 92.1537 42.3111 92.1443C42.3205 92.1349 42.3276 92.1235 42.3318 92.1109C42.3361 92.0983 42.3373 92.0849 42.3356 92.0718C42.3338 92.0586 42.329 92.0461 42.3215 92.0351C41.9472 91.4701 39.8991 88.5801 37.5374 88.6027C34.9214 88.6281 34.9214 90.4234 33.3323 90.4234C31.7432 90.4234 30.1273 88.8089 30.1273 88.8089C30.0508 89.4548 30.1762 90.1086 30.4861 90.6805C30.9989 91.552 31.2559 91.6791 31.2559 91.6791C31.2559 91.6791 30.5369 92.706 30.383 93.295C30.229 93.884 30.5638 94.7075 30.5638 94.7075C30.5638 94.7075 31.9226 92.7088 33.0498 92.8105C34.177 92.9122 35.2293 96.1441 37.4597 95.7853C38.9951 95.5381 41.3102 93.6665 42.2551 92.7088C42.4176 92.5422 41.7805 92.4645 41.7932 92.3755C41.7989 92.3359 42.1097 92.2229 42.2778 92.165Z" fill="#4C4C4C" stroke="black" stroke-width="0.5" stroke-linecap="round" stroke-linejoin="round"/>
<path d="M37.0845 96.9619C37.1225 96.9618 37.1602 96.954 37.1951 96.9389C37.2301 96.9239 37.2616 96.9019 37.2879 96.8744L38.6848 95.4138C38.7225 95.3738 38.7476 95.3237 38.7572 95.2696C38.7668 95.2155 38.7604 95.1598 38.7388 95.1093C38.7172 95.0588 38.6814 95.0157 38.6357 94.9852C38.59 94.9547 38.5364 94.9383 38.4814 94.9378H37.706C37.5835 94.9383 37.4625 94.9636 37.3501 95.0121C37.2377 95.0607 37.1363 95.1315 37.052 95.2203L36.559 95.7359C36.4613 95.8388 36.3958 95.9681 36.3708 96.1078C36.3457 96.2475 36.3622 96.3914 36.4181 96.5219C36.474 96.6524 36.5669 96.7636 36.6853 96.8418C36.8038 96.92 36.9425 96.9617 37.0845 96.9619Z" fill="#666666" stroke="black" stroke-width="0.5" stroke-linecap="round" stroke-linejoin="round"/>
<path d="M40.2865 92.0011C40.6087 92.0011 40.8699 91.7399 40.8699 91.4177C40.8699 91.0955 40.6087 90.8344 40.2865 90.8344C39.9643 90.8344 39.7031 91.0955 39.7031 91.4177C39.7031 91.7399 39.9643 92.0011 40.2865 92.0011Z" fill="white" stroke="black" stroke-width="0.5" stroke-linecap="round" stroke-linejoin="round"/>
<path d="M81.8711 85.4129C81.8711 85.4129 83.6424 82.1726 84.6778 82.1062C85.7131 82.0398 89.5877 85.3126 89.4535 85.8804C89.3193 86.4483 88.5184 87.2831 88.5184 87.2831L81.8711 85.4129Z" fill="#333333" stroke="black" stroke-width="0.5" stroke-linecap="round" stroke-linejoin="round"/>
<path d="M78.6041 88.8495C78.5878 88.8441 78.5729 88.835 78.5606 88.823C78.5483 88.8109 78.539 88.7961 78.5334 88.7798C78.5278 88.7636 78.5261 88.7462 78.5283 88.7291C78.5305 88.712 78.5366 88.6957 78.5462 88.6814C79.0335 87.9497 81.7017 84.1797 84.7796 84.2094C88.1866 84.2433 88.1866 86.581 90.2573 86.581C92.3281 86.581 94.4327 84.4778 94.4327 84.4778C94.4327 84.4778 94.6333 85.7801 93.9652 86.9158C93.297 88.0514 92.9623 88.2181 92.9623 88.2181C92.9623 88.2181 93.8973 89.5543 94.0923 90.3227C94.2872 91.0912 93.8592 92.159 93.8592 92.159C93.8592 92.159 92.0879 89.5529 90.6189 89.6871C89.1499 89.8213 87.7798 94.0292 84.8742 93.5616C82.8741 93.2396 79.8584 90.8072 78.6267 89.5529C78.4148 89.3354 79.2454 89.2351 79.2284 89.1193C79.227 89.0741 78.823 88.9258 78.6041 88.8495Z" fill="#4C4C4C" stroke="black" stroke-width="0.5" stroke-linecap="round" stroke-linejoin="round"/>
<path d="M81.1955 88.6363C81.6152 88.6363 81.9554 88.2961 81.9554 87.8764C81.9554 87.4567 81.6152 87.1165 81.1955 87.1165C80.7758 87.1165 80.4355 87.4567 80.4355 87.8764C80.4355 88.2961 80.7758 88.6363 81.1955 88.6363Z" fill="white" stroke="black" stroke-width="0.5" stroke-linecap="round" stroke-linejoin="round"/>
<path d="M85.3688 95.0999C85.3191 95.0999 85.2699 95.0898 85.2242 95.0701C85.1785 95.0504 85.1374 95.0216 85.1033 94.9854L83.2825 93.0828C83.2331 93.0308 83.2001 92.9654 83.1874 92.8948C83.1747 92.8241 83.1831 92.7513 83.2113 92.6854C83.2395 92.6194 83.2865 92.5632 83.3463 92.5236C83.4062 92.484 83.4763 92.4629 83.5481 92.4627H84.558C84.7166 92.4631 84.8734 92.4957 85.019 92.5583C85.1647 92.6209 85.2961 92.7124 85.4055 92.8271L86.0482 93.4981C86.1765 93.6317 86.2628 93.8001 86.2963 93.9823C86.3298 94.1645 86.3091 94.3525 86.2368 94.523C86.1644 94.6936 86.0436 94.8391 85.8893 94.9417C85.7351 95.0442 85.554 95.0992 85.3688 95.0999Z" fill="#666666" stroke="black" stroke-width="0.5" stroke-linecap="round" stroke-linejoin="round"/>
<path d="M152.284 219.212H170.946C170.946 219.212 204.829 219.483 205.818 188.343C206.806 157.203 182.818 146.326 165.291 144.349C147.765 142.371 147.481 127.258 118.948 130.648C90.4156 134.038 68.2392 149.999 67.1092 172.599C65.9792 195.199 79.9631 207.771 91.5457 212.856C91.7265 212.936 91.9073 213.014 92.0852 213.092C101.426 217.138 111.499 219.221 121.679 219.212H152.284Z" fill="#B3B3B3" stroke="black" stroke-width="0.5" stroke-linecap="round" stroke-linejoin="round"/>
<path d="M133.935 143.064L145.535 128.232L136.998 117.999L125.545 138.778L133.935 143.064Z" fill="#E5E5E5" stroke="black" stroke-width="0.5" stroke-linecap="round" stroke-linejoin="round"/>
<path d="M155.461 79.4794C155.461 79.4794 157.902 72.7361 166.463 76.8804C173.846 80.4526 171.064 84.1845 175.677 87.3838C180.29 90.5831 182.464 89.5802 184.166 93.7839C185.844 97.9282 181.223 100.15 185.309 102.095C189.395 104.04 194.793 112.454 195.68 115.846C198.044 124.87 197.019 132.251 190.953 137.293C186.332 141.135 173.04 142.982 169.165 139.912C165.333 136.877 176.903 129.036 173.759 128.958C169.365 128.847 172.257 123.814 168.513 114.368C164.768 104.923 156.303 111.326 155.477 104.491C154.65 97.6556 155.461 79.4794 155.461 79.4794Z" fill="black"/>
<path d="M160.079 79.1968C160.079 79.1968 156.135 76.9199 152.621 82.4145C149.106 87.9092 143.889 99.5681 150.253 107.012C155.569 113.227 159.293 108.806 159.293 108.806L160.079 79.1968Z" fill="black"/>
<path fill-rule="evenodd" clip-rule="evenodd" d="M163.098 107.542L164.255 96.1695L153.3 95.9449L151.613 108.477C147.504 109.738 143.002 111.172 141.738 111.768C140.44 112.38 138.018 128.433 138.018 128.433L142.114 166.667L170.946 167.655L177.992 127.54V120.208C177.992 117.886 177.234 115.627 175.834 113.775C174.434 111.923 172.468 110.578 170.234 109.944L163.098 107.542Z" fill="#E5E5E5"/>
<path d="M164.255 96.1695L164.504 96.1948C164.511 96.1254 164.489 96.0561 164.443 96.0039C164.396 95.9516 164.33 95.921 164.26 95.9196L164.255 96.1695ZM163.098 107.542L162.849 107.516C162.838 107.633 162.908 107.741 163.018 107.779L163.098 107.542ZM153.3 95.9449L153.305 95.695C153.178 95.6924 153.069 95.7856 153.052 95.9116L153.3 95.9449ZM151.613 108.477L151.686 108.716C151.779 108.687 151.848 108.607 151.861 108.51L151.613 108.477ZM141.738 111.768L141.845 111.994L141.845 111.994L141.738 111.768ZM138.018 128.433L137.77 128.395C137.767 128.417 137.767 128.438 137.769 128.459L138.018 128.433ZM142.114 166.667L141.865 166.693C141.879 166.817 141.981 166.912 142.105 166.916L142.114 166.667ZM170.946 167.655L170.937 167.905C171.062 167.909 171.171 167.821 171.192 167.699L170.946 167.655ZM177.992 127.54L178.238 127.583C178.24 127.569 178.242 127.555 178.242 127.54H177.992ZM177.992 120.208L177.742 120.208V120.208H177.992ZM175.834 113.775L175.635 113.926L175.834 113.775ZM170.234 109.944L170.154 110.182L170.166 110.185L170.234 109.944ZM164.007 96.1442L162.849 107.516L163.347 107.567L164.504 96.1948L164.007 96.1442ZM153.295 96.1949L164.25 96.4195L164.26 95.9196L153.305 95.695L153.295 96.1949ZM151.861 108.51L153.548 95.9783L153.052 95.9116L151.365 108.444L151.861 108.51ZM141.845 111.994C142.46 111.704 143.885 111.201 145.687 110.609C147.482 110.02 149.632 109.346 151.686 108.716L151.539 108.238C149.484 108.869 147.33 109.543 145.531 110.134C143.738 110.723 142.28 111.236 141.631 111.542L141.845 111.994ZM138.018 128.433C138.265 128.47 138.265 128.47 138.265 128.47C138.265 128.47 138.265 128.47 138.265 128.469C138.265 128.469 138.265 128.468 138.265 128.467C138.266 128.465 138.266 128.462 138.267 128.459C138.268 128.451 138.269 128.439 138.272 128.424C138.276 128.394 138.283 128.349 138.292 128.29C138.31 128.173 138.337 128 138.371 127.78C138.44 127.341 138.54 126.712 138.663 125.955C138.91 124.442 139.253 122.418 139.637 120.376C140.02 118.333 140.444 116.275 140.851 114.692C141.055 113.9 141.254 113.233 141.439 112.749C141.532 112.506 141.619 112.317 141.698 112.183C141.737 112.116 141.772 112.068 141.801 112.035C141.831 112.001 141.846 111.993 141.845 111.994L141.632 111.542C141.477 111.615 141.359 111.773 141.267 111.929C141.168 112.097 141.07 112.315 140.972 112.57C140.777 113.081 140.573 113.769 140.367 114.568C139.955 116.167 139.53 118.237 139.145 120.284C138.761 122.331 138.417 124.359 138.17 125.875C138.046 126.633 137.946 127.263 137.877 127.703C137.843 127.923 137.816 128.096 137.798 128.214C137.789 128.273 137.782 128.319 137.777 128.349C137.775 128.364 137.773 128.376 137.772 128.384C137.772 128.388 137.771 128.39 137.771 128.392C137.771 128.393 137.771 128.394 137.77 128.395C137.77 128.395 137.77 128.395 137.77 128.395C137.77 128.395 137.77 128.395 138.018 128.433ZM142.362 166.64L138.266 128.406L137.769 128.459L141.865 166.693L142.362 166.64ZM170.955 167.405L142.122 166.417L142.105 166.916L170.937 167.905L170.955 167.405ZM177.745 127.497L170.7 167.612L171.192 167.699L178.238 127.583L177.745 127.497ZM177.742 120.208V127.54H178.242V120.208H177.742ZM175.635 113.926C177.002 115.735 177.742 117.94 177.742 120.208L178.242 120.208C178.242 117.831 177.467 115.52 176.034 113.624L175.635 113.926ZM170.166 110.185C172.347 110.803 174.268 112.117 175.635 113.926L176.034 113.624C174.601 111.729 172.588 110.352 170.302 109.704L170.166 110.185ZM163.018 107.779L170.154 110.181L170.314 109.707L163.178 107.305L163.018 107.779Z" fill="black"/>
<path d="M177.991 127.54L176.176 110.949L168.761 108.718C163.127 118.651 149.599 124.909 137.311 121.801L139.712 166.901L170.952 167.66L177.991 127.54Z" fill="#B3B3B3" stroke="black" stroke-width="0.5" stroke-linecap="round" stroke-linejoin="round"/>
<path d="M133.438 180.339L181.791 189.231L183.458 180.165L135.105 171.273L133.438 180.339Z" fill="#E5E5E5" stroke="black" stroke-width="0.5" stroke-linecap="round" stroke-linejoin="round"/>
<path d="M150.908 175.798L133.643 221.83L142.273 225.067L159.539 179.035L150.908 175.798Z" fill="#E5E5E5" stroke="black" stroke-width="0.5" stroke-linecap="round" stroke-linejoin="round"/>
<path d="M189.716 200.053L191.444 206.666C191.622 207.348 192.904 207.981 193.605 208.063L195.642 207.225L196.601 199.407L192.654 181.83L190.099 177.909C189.22 177.748 188.315 177.803 187.462 178.07L181.445 179.955L173.646 178.715L171.951 187.93L180.019 189.268L189.716 200.053Z" fill="black" stroke="black" stroke-width="0.5" stroke-miterlimit="10" stroke-linecap="round" stroke-linejoin="round"/>
<path d="M193.824 208.107L198.54 208.477C198.54 208.477 199.731 206.686 200.583 202.056C201.434 197.425 201.077 195.73 201.077 195.73L196.969 194.975L195.072 188.116L202.033 189.397C202.033 189.397 202.851 184.95 202.891 182.659C202.93 180.368 201.556 180.02 201.556 180.02L191.273 177.889C190.394 177.728 189.311 177.59 188.459 177.856C188.459 177.856 196.564 194.425 193.824 208.107Z" fill="white" stroke="black" stroke-width="0.5" stroke-miterlimit="10" stroke-linecap="round" stroke-linejoin="round"/>
<path d="M172.477 158.942L166.817 158.191H141.36L138.465 158.238L139.565 168.11C139.565 168.11 148.819 184.605 157.897 182.063C166.975 179.52 176.155 175.142 175.59 169.774C175.025 164.407 172.477 158.942 172.477 158.942Z" fill="#666666" stroke="black" stroke-width="0.5" stroke-linecap="round" stroke-linejoin="round"/>
<path d="M162.027 175.671L114.274 159.59C107.95 157.46 100.657 160.7 98.9172 167.143C97.7618 171.42 101.073 179.047 108.121 180.648L156.7 188.34L162.027 175.671Z" fill="#666666" stroke="black" stroke-width="0.5" stroke-linecap="round" stroke-linejoin="round"/>
<path d="M107.598 144.051C100.335 148.885 93.6792 160.875 96.2542 170.261C98.6018 178.824 107.598 180.519 107.598 180.519" stroke="black" stroke-width="0.5" stroke-linecap="round" stroke-linejoin="round"/>
<path d="M140.799 96.6667L140.885 103.372C140.896 104.1 140.752 104.823 140.462 105.491L125.115 136.707C124.494 137.966 124.377 139.415 124.789 140.757C125.2 142.1 126.108 143.234 127.328 143.929C128.024 144.328 128.799 144.569 129.598 144.637C130.397 144.705 131.201 144.598 131.955 144.322C132.708 144.047 133.392 143.611 133.959 143.044C134.526 142.477 134.963 141.793 135.238 141.039L147.637 107.242L150.688 104.276C151.118 103.909 151.436 103.429 151.608 102.89L153.303 97.5834C153.444 97.1512 152.848 96.6215 152.421 96.4647L150.366 99.4409L140.799 96.6667Z" fill="#E5E5E5" stroke="black" stroke-width="0.5" stroke-linecap="round" stroke-linejoin="round"/>
<path d="M158.015 89.181L153.023 85.6006C152.552 85.2628 151.896 85.3708 151.558 85.8418L142.777 98.0853C142.439 98.5563 142.547 99.212 143.018 99.5498L148.009 103.13C148.48 103.468 149.136 103.36 149.474 102.889L158.256 90.6455C158.593 90.1745 158.485 89.5188 158.015 89.181Z" fill="#666666" stroke="black" stroke-width="0.5" stroke-linecap="round" stroke-linejoin="round"/>
<path d="M148.95 92.0369L144.164 92.3665C143.595 92.4057 143.165 92.8993 143.204 93.469C143.243 94.0387 143.737 94.4687 144.306 94.4295L149.092 94.0999C149.662 94.0606 150.092 93.567 150.052 92.9973C150.013 92.4276 149.52 91.9976 148.95 92.0369Z" fill="#E5E5E5" stroke="black" stroke-width="0.5" stroke-miterlimit="10" stroke-linecap="round" stroke-linejoin="round"/>
<path d="M146.909 94.1554L142.112 94.4912C141.541 94.5311 141.111 95.0265 141.151 95.5975C141.19 96.1685 141.686 96.599 142.257 96.5591L147.054 96.2233C147.625 96.1833 148.055 95.688 148.015 95.117C147.975 94.5459 147.48 94.1154 146.909 94.1554Z" fill="#E5E5E5" stroke="black" stroke-width="0.5" stroke-miterlimit="10" stroke-linecap="round" stroke-linejoin="round"/>
<path d="M145.554 95.5856L141.727 95.8492C141.157 95.8885 140.727 96.3821 140.766 96.9518C140.806 97.5215 141.299 97.9515 141.869 97.9123L145.696 97.6487C146.266 97.6094 146.696 97.1158 146.657 96.5461C146.617 95.9764 146.124 95.5464 145.554 95.5856Z" fill="#E5E5E5" stroke="black" stroke-width="0.5" stroke-miterlimit="10" stroke-linecap="round" stroke-linejoin="round"/>
<path d="M164.47 95.3447L169.16 84.6322L160.387 81.3298C159.16 80.8675 157.804 80.8913 156.594 81.3962C155.385 81.9011 154.414 82.849 153.881 84.046C152.344 87.4911 150.399 91.966 149.893 93.6356C149.027 96.5015 149.981 100.698 154.053 102.137C157.398 103.32 161.769 102.25 163.624 99.3492C165.63 101.459 167.931 97.5962 167.023 96.1993C166.041 94.6907 164.47 95.3447 164.47 95.3447Z" fill="#E5E5E5" stroke="black" stroke-width="0.5" stroke-miterlimit="10" stroke-linecap="round" stroke-linejoin="round"/>
<path d="M162.34 91.1834C162.077 88.7511 159.865 88.9065 159.865 88.9065" stroke="black" stroke-width="0.5" stroke-linecap="round" stroke-linejoin="round"/>
<path d="M156.502 87.3089C156.047 85.635 154.252 86.1153 154.252 86.1153" stroke="black" stroke-width="0.5" stroke-linecap="round" stroke-linejoin="round"/>
<path d="M157.074 90.0901C157.074 90.0901 155.081 91.3614 154.781 92.2894C154.482 93.2174 155.844 93.6779 155.844 93.6779" stroke="black" stroke-width="0.5" stroke-linecap="round" stroke-linejoin="round"/>
<path d="M159.612 92.4123C160.039 92.4123 160.385 92.0664 160.385 91.6396C160.385 91.2129 160.039 90.867 159.612 90.867C159.186 90.867 158.84 91.2129 158.84 91.6396C158.84 92.0664 159.186 92.4123 159.612 92.4123Z" fill="black"/>
<path d="M154.683 89.7215C155.11 89.7215 155.455 89.3756 155.455 88.9488C155.455 88.5221 155.11 88.1762 154.683 88.1762C154.256 88.1762 153.91 88.5221 153.91 88.9488C153.91 89.3756 154.256 89.7215 154.683 89.7215Z" fill="black"/>
<path d="M170.797 85.2127C170.797 85.2127 172.437 93.2357 164.822 89.9884C157.464 86.8498 157.655 80.0372 157.655 80.0372L159.104 80.509C159.104 80.509 158.604 81.5175 160.081 83.529C164.822 89.9884 170.797 85.2127 170.797 85.2127Z" fill="black"/>
<path d="M164.678 100.062C165.661 100.062 166.459 99.265 166.459 98.2812C166.459 97.2975 165.661 96.5001 164.678 96.5001C163.694 96.5001 162.896 97.2975 162.896 98.2812C162.896 99.265 163.694 100.062 164.678 100.062Z" fill="#B3B3B3" stroke="black" stroke-width="0.5" stroke-miterlimit="10" stroke-linecap="round" stroke-linejoin="round"/>
<path d="M158.145 79.6855C158.145 79.6855 158.568 82.0105 162.738 85.1746C166.693 88.186 171.181 86.9444 171.181 86.9444C171.181 86.9444 173.386 84.6618 171.939 83.6618C170.493 82.6617 158.145 79.6855 158.145 79.6855Z" fill="black"/>
<path d="M154.409 95.6088L158.456 96.9747C158.456 96.9747 157.529 98.7404 155.718 98.2304C154.135 97.7827 154.409 95.6088 154.409 95.6088Z" fill="white" stroke="black" stroke-width="0.5" stroke-linecap="round" stroke-linejoin="round"/>
<path d="M119.723 167.337L124.451 167.705C125.034 167.75 125.613 167.572 126.07 167.208C126.528 166.844 126.83 166.32 126.917 165.741L128.974 152.04L117.484 151.149L117.589 165.051C117.594 165.63 117.816 166.186 118.211 166.609C118.606 167.033 119.146 167.293 119.723 167.337Z" fill="#333333" stroke="black" stroke-width="0.5" stroke-linecap="round" stroke-linejoin="round"/>
<path d="M150.587 150.32C150.536 150.452 146.823 152.693 142.571 154.875C140.912 155.722 135.829 157.465 133.995 157.135C132.052 156.782 129.701 156.383 128.91 156.372C127.247 156.347 121.706 157.108 122.008 158.648C122.266 159.934 123.782 159.389 123.782 159.389C123.782 159.389 121.765 160.038 122.163 160.871C122.781 162.159 125.538 161.223 125.538 161.223C125.538 161.223 124.094 161.936 124.664 162.721C125.327 163.637 128.093 162.789 128.093 162.789C128.093 162.789 127.377 163.213 127.991 163.745C128.402 164.104 138.954 163.873 142.015 162.546C143.427 161.937 154.047 156.998 156.422 154.879L150.587 150.32Z" fill="#E5E5E5" stroke="black" stroke-width="0.5" stroke-linecap="round" stroke-linejoin="round"/>
<path d="M130.081 158.238C130.081 158.238 127.984 158.238 126.519 158.573C125.556 158.8 124.608 159.085 123.68 159.427" fill="#E5E5E5"/>
<path d="M130.081 158.238C130.081 158.238 127.984 158.238 126.519 158.573C125.556 158.8 124.608 159.085 123.68 159.427" stroke="black" stroke-width="0.5" stroke-linecap="round" stroke-linejoin="round"/>
<path d="M131.683 160.117C130.522 160.163 129.366 160.284 128.221 160.481C127.312 160.672 126.416 160.919 125.537 161.218" fill="#E5E5E5"/>
<path d="M131.683 160.117C130.522 160.163 129.366 160.284 128.221 160.481C127.312 160.672 126.416 160.919 125.537 161.218" stroke="black" stroke-width="0.5" stroke-linecap="round" stroke-linejoin="round"/>
<path d="M133.21 162.299C133.21 162.299 131.638 162.299 130.497 162.426C129.169 162.567 128.096 162.785 128.096 162.785" fill="#E5E5E5"/>
<path d="M133.21 162.299C133.21 162.299 131.638 162.299 130.497 162.426C129.169 162.567 128.096 162.785 128.096 162.785" stroke="black" stroke-width="0.5" stroke-linecap="round" stroke-linejoin="round"/>
<path d="M127.009 164.87C127.069 164.879 127.13 164.881 127.191 164.877C128.886 164.757 132.233 163.432 132.841 159.281C133.049 157.868 132.343 156.588 130.851 155.683C130.094 155.231 129.268 154.908 128.406 154.725C128.301 154.708 128.193 154.712 128.089 154.737C127.986 154.762 127.888 154.807 127.802 154.869C127.715 154.932 127.642 155.011 127.586 155.102C127.531 155.193 127.493 155.294 127.477 155.399C127.448 155.611 127.504 155.826 127.633 155.998C127.762 156.169 127.954 156.282 128.166 156.313C128.241 156.327 131.504 157.076 131.214 159.04C130.641 162.938 127.2 163.262 127.054 163.278C126.948 163.285 126.845 163.313 126.75 163.36C126.655 163.408 126.57 163.473 126.501 163.554C126.431 163.634 126.378 163.727 126.345 163.828C126.312 163.929 126.299 164.035 126.307 164.141C126.325 164.324 126.404 164.495 126.532 164.627C126.659 164.759 126.827 164.845 127.009 164.87Z" fill="#333333" stroke="black" stroke-width="0.5" stroke-linecap="round" stroke-linejoin="round"/>
<path d="M179.248 111.149C180.295 111.942 181.064 113.046 181.445 114.304C181.826 115.561 181.798 116.906 181.367 118.147L177.242 144.107C176.979 145.769 176.321 147.343 175.324 148.698C174.327 150.054 173.021 151.151 171.513 151.897L143.122 165.972L137.311 156.037L163.395 139.501L169.561 114.241C169.859 113.29 170.382 112.424 171.085 111.717C171.789 111.01 172.652 110.483 173.602 110.18C174.551 109.877 175.56 109.806 176.543 109.975C177.526 110.144 178.454 110.547 179.248 111.149Z" fill="#B3B3B3" stroke="black" stroke-width="0.5" stroke-linecap="round" stroke-linejoin="round"/>
<path d="M182.888 170.857C182.888 170.857 183.767 161.629 178.242 156.858C173.338 152.62 165.636 152.693 165.636 152.693C159.922 152.693 153.885 157.674 151.403 164.823L139.668 202.628L154.252 207.83L164.907 186.227C164.907 186.227 166.403 186.494 170.362 186.172C179.215 185.453 181.814 177.923 182.888 170.857Z" fill="#666666" stroke="black" stroke-width="0.5" stroke-linecap="round" stroke-linejoin="round"/>
<path d="M158.455 199.257L171.952 171.336" stroke="black" stroke-width="0.5" stroke-linecap="round" stroke-linejoin="round"/>
<path d="M132.469 225.157L140.975 228.348L146.101 216.206L136.359 212.55L132.469 225.157Z" fill="black" stroke="black" stroke-width="0.5" stroke-miterlimit="10" stroke-linecap="round" stroke-linejoin="round"/>
<path d="M126.879 234.839L139.284 239.493L141.726 226.344L133.22 223.153L126.879 234.839Z" fill="black" stroke="black" stroke-width="0.5" stroke-miterlimit="10" stroke-linecap="round" stroke-linejoin="round"/>
<path d="M134.585 246.073L125.979 242.846C125.46 242.651 125.039 242.257 124.809 241.752C124.58 241.247 124.56 240.672 124.755 240.152L126.721 234.912L139.245 239.61L137.28 244.85C137.183 245.107 137.037 245.343 136.849 245.544C136.661 245.745 136.436 245.906 136.186 246.02C135.936 246.134 135.665 246.197 135.391 246.206C135.116 246.215 134.842 246.17 134.585 246.073Z" fill="white" stroke="black" stroke-width="0.5" stroke-miterlimit="10" stroke-linecap="round" stroke-linejoin="round"/>
<path d="M135.325 246.247L125.188 242.455C125.188 242.455 127.387 240.565 131.415 241.836C135.16 243.017 135.325 246.247 135.325 246.247Z" fill="black"/>
<path d="M125.367 151.762L128.971 152.041L128.324 156.351L126.733 156.543" fill="#333333"/>
<path d="M125.367 151.762L128.971 152.041L128.324 156.351L126.733 156.543" stroke="black" stroke-width="0.5" stroke-linecap="round" stroke-linejoin="round"/>
<path d="M125.46 163.11C125.807 163.14 126.156 163.14 126.503 163.11C126.917 163.053 127.33 162.977 127.33 162.977L126.906 165.733C126.815 166.321 126.504 166.853 126.035 167.22C125.567 167.587 124.976 167.763 124.383 167.71L122.971 167.586" fill="#333333"/>
<path d="M125.46 163.11C125.807 163.14 126.156 163.14 126.503 163.11C126.917 163.053 127.33 162.977 127.33 162.977L126.906 165.733C126.815 166.321 126.504 166.853 126.035 167.22C125.567 167.587 124.976 167.763 124.383 167.71L122.971 167.586" stroke="black" stroke-width="0.5" stroke-linecap="round" stroke-linejoin="round"/>
<path d="M183.839 38.1122C183.839 38.1122 184.04 29.8578 175.609 26.331C167.177 22.8041 161.358 25.4346 161.358 25.4346C161.358 25.4346 165.156 31.4318 173.07 33.8862C180.983 36.3407 183.839 38.1122 183.839 38.1122Z" fill="#4C4C4C" stroke="black" stroke-width="0.5" stroke-linecap="round" stroke-linejoin="round"/>
<path d="M190.096 71.6297V63.3863C190.096 63.1856 189.933 63.0229 189.732 63.0229H187.203C187.002 63.0229 186.84 63.1856 186.84 63.3863V71.6297C186.84 71.8304 187.002 71.9931 187.203 71.9931H189.732C189.933 71.9931 190.096 71.8304 190.096 71.6297Z" fill="#B3B3B3"/>
<path d="M225.928 71.6297V63.3863C225.928 63.1856 225.765 63.0229 225.564 63.0229H223.035C222.834 63.0229 222.672 63.1856 222.672 63.3863V71.6297C222.672 71.8304 222.834 71.9931 223.035 71.9931H225.564C225.765 71.9931 225.928 71.8304 225.928 71.6297Z" fill="#B3B3B3"/>
<path d="M230.325 62.6752H182.441C181.864 62.6752 181.396 63.1429 181.396 63.7199V66.4634C181.396 67.0403 181.864 67.508 182.441 67.508H230.325C230.902 67.508 231.369 67.0403 231.369 66.4634V63.7199C231.369 63.1429 230.902 62.6752 230.325 62.6752Z" fill="#B3B3B3" stroke="black" stroke-width="0.5" stroke-linecap="round" stroke-linejoin="round"/>
<path d="M208.549 53.0196L231.935 53.0309C231.944 53.0311 231.952 53.0329 231.959 53.0362C231.967 53.0395 231.974 53.0443 231.979 53.0502C231.985 53.0562 231.989 53.0632 231.992 53.0708C231.995 53.0785 231.997 53.0866 231.997 53.0948V58.5691C231.997 58.5773 231.995 58.5855 231.992 58.5932C231.989 58.6008 231.985 58.6078 231.979 58.6137C231.974 58.6197 231.967 58.6244 231.959 58.6277C231.952 58.631 231.944 58.6328 231.935 58.633L208.549 58.6202C208.533 58.6199 208.517 58.6131 208.506 58.6015C208.495 58.5898 208.488 58.5741 208.488 58.5578V53.082C208.488 53.0657 208.495 53.05 208.506 53.0384C208.517 53.0267 208.533 53.02 208.549 53.0196Z" fill="#4C4C4C" stroke="black" stroke-width="0.5" stroke-linecap="round" stroke-linejoin="round"/>
<path d="M211.383 53.011H211.926L211.932 58.6344L211.388 58.633L211.383 53.011Z" fill="#CCCCCC" stroke="black" stroke-width="0.5" stroke-linecap="round" stroke-linejoin="round"/>
<path d="M209.928 53.0095H210.471L210.477 58.6329H209.933L209.928 53.0095Z" fill="#CCCCCC" stroke="black" stroke-width="0.5" stroke-linecap="round" stroke-linejoin="round"/>
<path d="M206.813 58.5705L235.725 58.5861C235.741 58.5865 235.756 58.5932 235.768 58.6049C235.779 58.6166 235.786 58.6322 235.786 58.6486V62.6113C235.786 62.6195 235.784 62.6277 235.781 62.6353C235.778 62.643 235.774 62.65 235.768 62.6559C235.763 62.6618 235.756 62.6666 235.748 62.6699C235.741 62.6732 235.733 62.675 235.725 62.6752L206.813 62.6596C206.805 62.6596 206.797 62.6579 206.789 62.6548C206.782 62.6516 206.775 62.647 206.769 62.6412C206.764 62.6354 206.759 62.6285 206.756 62.6209C206.753 62.6133 206.752 62.6052 206.752 62.5971V58.6344C206.752 58.6179 206.758 58.6021 206.77 58.5902C206.781 58.5783 206.797 58.5712 206.813 58.5705Z" fill="#999999" stroke="black" stroke-width="0.5" stroke-linecap="round" stroke-linejoin="round"/>
<path d="M231.994 59.7925H232.431V61.4659H231.994V59.7925Z" fill="white" stroke="black" stroke-width="0.5" stroke-linecap="round" stroke-linejoin="round"/>
<path d="M231.058 59.7925H230.621V61.4659H231.058V59.7925Z" fill="white" stroke="black" stroke-width="0.5" stroke-linecap="round" stroke-linejoin="round"/>
<path d="M195.47 40.2004C195.47 40.2004 204.215 39.4177 206.921 30.0848C209.627 20.752 206.148 14.9157 206.148 14.9157C206.148 14.9157 200.266 19.653 198.632 28.3076C196.999 36.9622 195.47 40.2004 195.47 40.2004Z" fill="#4C4C4C" stroke="black" stroke-width="0.5" stroke-linecap="round" stroke-linejoin="round"/>
<path d="M161.396 25.3036C161.396 25.3036 182.696 28.4375 189.254 47.067" stroke="black" stroke-width="0.5" stroke-linecap="round" stroke-linejoin="round"/>
<path d="M197.525 39.1292C197.525 39.1292 203.103 28.3968 206.079 15.0005" stroke="black" stroke-width="0.5" stroke-linecap="round" stroke-linejoin="round"/>
<path d="M159.51 43.1571C159.51 43.1571 170.091 47.0006 177.409 46.5635C184.727 46.1263 190.281 44.6829 190.281 44.6829L187.195 39.9636C187.195 39.9636 179.084 37.0412 172.03 38.6295C167.687 39.623 163.483 41.1435 159.51 43.1571Z" fill="#333333" stroke="black" stroke-width="0.5" stroke-linecap="round" stroke-linejoin="round"/>
<path d="M193.797 36.6967C193.797 36.6967 197.775 27.4891 189.911 19.5225C182.046 11.556 174.219 11.7785 174.219 11.7785C174.219 11.7785 175.678 20.3574 183.464 26.864C191.251 33.3705 193.797 36.6967 193.797 36.6967Z" fill="#333333" stroke="black" stroke-width="0.5" stroke-linecap="round" stroke-linejoin="round"/>
<path d="M193.81 36.7125C193.81 36.7125 197.775 27.4891 189.911 19.5225C182.046 11.556 174.219 11.7785 174.219 11.7785C174.219 11.7785 182.873 18.0742 187.544 24.6164C193.076 33.0442 193.81 36.7125 193.81 36.7125Z" fill="#999999" stroke="black" stroke-width="0.5" stroke-linecap="round" stroke-linejoin="round"/>
<path d="M190.809 48.4989C190.809 48.4989 192.512 45.1479 192.583 41.6223C192.654 38.0967 192.042 36.2559 192.042 36.2559L185.43 36.9655L190.809 48.4989Z" fill="#4C4C4C" stroke="black" stroke-width="0.5" stroke-linecap="round" stroke-linejoin="round"/>
<path d="M177.841 41.9743C177.841 41.9743 181.632 38.944 183.396 38.4757C185.161 38.0073 192.036 36.2558 192.036 36.2558L188.981 35.7704C187.438 35.5246 186.039 34.7187 185.053 33.5066L183.396 31.4727C181.653 32.4296 180.195 33.8324 179.171 35.5377C177.489 38.3593 177.841 41.9743 177.841 41.9743Z" fill="#999999" stroke="black" stroke-width="0.5" stroke-linecap="round" stroke-linejoin="round"/>
<path d="M193.334 35.2097C193.334 35.2097 194.506 38.1365 194.489 41.13C194.472 44.1235 192.394 49.789 192.394 49.789" stroke="black" stroke-width="0.5" stroke-linecap="round" stroke-linejoin="round"/>
<path d="M190.809 49.3861C190.809 49.3861 192.835 48.5047 193.277 45.5071C193.538 43.7871 193.686 42.0518 193.718 40.3124C193.718 40.3124 202.196 38.5567 202.189 39.1216C202.182 39.6865 197.249 45.0657 195.88 46.2182C194.51 47.3707 190.809 49.3861 190.809 49.3861Z" fill="#333333" stroke="black" stroke-width="0.5" stroke-linecap="round" stroke-linejoin="round"/>
<path d="M193.711 40.3024L197.827 38.8603C199.42 38.3038 200.915 37.4985 202.257 36.4745L204.993 34.3881C204.993 34.3881 208.608 37.9789 209.136 43.3298C209.664 48.6806 209.136 49.9112 209.136 49.9112C209.136 49.9112 202.965 44.5093 200.231 43.3298C197.498 42.1503 193.711 40.3024 193.711 40.3024Z" fill="#999999" stroke="black" stroke-width="0.5" stroke-linecap="round" stroke-linejoin="round"/>
<path d="M181.537 47.0059V47.2216C181.538 49.7537 182.04 52.2607 183.014 54.5979C183.988 56.935 185.416 59.056 187.214 60.8386C188.453 62.0672 190.122 62.764 191.866 62.7807C193.61 62.7974 195.292 62.1327 196.554 60.928L196.606 60.8783C198.482 59.0874 199.975 56.9347 200.995 54.5503C202.015 52.1659 202.542 49.5993 202.542 47.0059H181.543H181.537Z" fill="#E5E5E5" stroke="black" stroke-width="0.5" stroke-linecap="round" stroke-linejoin="round"/>
<path fill-rule="evenodd" clip-rule="evenodd" d="M235.718 58.5C235.764 58.5 235.81 58.5 235.857 58.5464C235.886 58.5464 235.897 58.5641 235.912 58.5886C235.921 58.6038 235.932 58.6215 235.95 58.6392V62.6321L235.857 62.725H231.075C231.353 62.9107 231.539 63.2821 231.539 63.6535V66.3928C231.539 67.0428 231.028 67.5535 230.378 67.5535H225.968V71.5464C225.968 71.7321 225.782 71.9178 225.596 71.9178H223.089C222.857 71.9178 222.718 71.7321 222.718 71.5464V67.5535H190.125V71.5464C190.125 71.7321 189.939 71.9178 189.753 71.9178H187.246C187.06 71.9178 186.875 71.7321 186.875 71.5464V67.5535H182.464C181.814 67.5535 181.303 67.0428 181.303 66.3928V63.6535C181.303 63.0035 181.814 62.4928 182.464 62.4928H189.846C188.825 62.1678 187.896 61.6107 187.153 60.8678C185.343 59.0571 183.903 56.9678 182.928 54.6C181.953 52.2321 181.443 49.725 181.443 47.1714V46.9392C181.443 46.8928 181.489 46.8464 181.535 46.8464H188.964C188.778 46.2892 188.546 45.7321 188.314 45.175C186.039 45.6392 182.046 46.3357 177.31 46.6142C176.893 46.6607 176.521 46.6607 176.103 46.6607C168.907 46.6607 159.435 43.2714 159.343 43.225C159.296 43.225 159.25 43.1785 159.25 43.1321C159.25 43.0857 159.25 43.0392 159.296 43.0392C163.243 40.9964 167.468 39.4642 171.832 38.4892C173.828 38.0714 175.918 37.9785 177.868 38.0714C178.007 37.375 178.285 36.6785 178.61 35.9821C177.125 35.3785 175.221 34.7285 172.853 33.9857C165.323 31.6824 161.47 26.0831 161.091 25.5327C161.073 25.5062 161.063 25.4914 161.06 25.4892V25.3964L161.107 25.35V25.3035C161.107 25.2571 161.2 25.2107 161.246 25.2107C161.246 25.2107 161.339 25.2571 161.432 25.2571C162.732 24.7928 168.164 23.2142 175.5 26.2785C178.935 27.7178 180.978 29.9464 182.139 32.0821C182.244 32.0166 182.345 31.9511 182.444 31.8866C182.698 31.7227 182.94 31.5654 183.207 31.4321C183.253 31.4321 183.3 31.4321 183.346 31.4785L185.018 33.5214C185.993 34.7285 187.339 35.5178 188.871 35.75L191.935 36.2142C191.935 36.2607 191.982 36.2607 191.982 36.2607C192.028 36.2607 192.028 36.3071 192.028 36.3071C192.075 36.3535 192.678 38.2107 192.585 41.6928C192.585 43.6892 191.982 45.6392 191.518 46.9392H192.678C192.818 46.5214 192.957 46.0571 193.05 45.5464C193.282 43.8285 193.421 42.1107 193.468 40.3928V40.3464C193.468 40.3 193.514 40.2535 193.56 40.2535L194.21 40.0214C194.118 38.8142 193.839 37.6535 193.607 36.8178C193.607 36.8178 190.96 33.4285 183.3 27.0214C175.593 20.5678 174.014 11.9785 174.014 11.8857V11.7928C174.06 11.7464 174.06 11.7464 174.107 11.7464L174.11 11.7464C174.313 11.7455 182.149 11.7103 189.893 19.5464C197.414 27.1607 194.164 36.0285 193.839 36.8178C194.071 37.7 194.35 38.8142 194.443 40.0214L195.51 39.65C196.021 38.3035 197.182 34.8678 198.389 28.4142C199.966 20.0789 205.566 15.2851 205.938 14.9666C205.949 14.9569 205.956 14.9513 205.957 14.95C205.984 14.9233 205.995 14.9119 206.009 14.9071C206.019 14.9035 206.03 14.9035 206.05 14.9035C206.096 14.9035 206.143 14.9035 206.143 14.95C206.144 14.9522 206.147 14.9577 206.152 14.9665C206.35 15.3263 209.56 21.161 206.932 30.225C206.421 31.8964 205.771 33.2892 204.982 34.45C205.214 34.6821 208.65 38.2571 209.16 43.4571C209.633 48.3987 209.231 49.8406 209.168 50.0647C209.163 50.0828 209.16 50.0929 209.16 50.0964C209.137 50.0964 209.126 50.108 209.114 50.1196C209.102 50.1312 209.091 50.1428 209.068 50.1428H209.021C208.975 50.1428 208.928 50.0964 208.928 50.0964C208.882 50.05 202.753 44.7107 200.06 43.55L199.085 43.1321C197.785 44.5714 196.393 45.9178 195.835 46.4285C195.798 46.4587 195.759 46.4901 195.719 46.5223C195.513 46.6884 195.28 46.8765 195.046 47.0321H202.428C202.448 47.0321 202.459 47.0321 202.469 47.0357C202.483 47.0405 202.494 47.0518 202.521 47.0785C202.568 47.125 202.568 47.125 202.568 47.1714C202.568 49.7714 202.01 52.325 200.989 54.7392C199.968 57.1535 198.482 59.2892 196.578 61.1L196.532 61.1464C195.789 61.8428 194.907 62.3535 193.932 62.6785H206.514V58.7321C206.514 58.6857 206.514 58.6392 206.56 58.5928C206.607 58.5464 206.653 58.5464 206.7 58.5464H208.278V53.1607C208.278 53.1142 208.278 53.0678 208.325 53.0214C208.371 52.975 208.418 52.975 208.464 52.975H232.003L232.096 53.0678V58.5H235.718ZM184.925 38.1899C184.779 38.2309 184.64 38.2702 184.507 38.3035C184.623 38.466 184.751 38.6285 184.878 38.791C185.006 38.9535 185.134 39.116 185.25 39.2785C185.606 39.3756 185.939 39.4728 186.219 39.5541C186.34 39.5895 186.451 39.6218 186.55 39.65L185.76 37.9785C185.463 38.0381 185.184 38.1167 184.925 38.1899ZM183.021 38.7678C183.718 38.9071 184.321 39.0464 184.878 39.1857C184.723 38.9524 184.535 38.719 184.369 38.513C184.336 38.473 184.305 38.4341 184.275 38.3964C184.178 38.4241 184.085 38.4518 183.996 38.4783C183.788 38.5405 183.602 38.596 183.439 38.6285L183.021 38.7678ZM188.871 45.1285C188.79 45.1401 188.709 45.1517 188.639 45.175C188.871 45.7321 189.103 46.2892 189.335 46.8928H189.939L189.103 45.0821C189.034 45.1053 188.952 45.1169 188.871 45.1285Z" fill="url(#paint0_linear_1776_53169)" style="mix-blend-mode:overlay"/>
<path fill-rule="evenodd" clip-rule="evenodd" d="M176.614 146.668C181.768 148.293 187.525 150.986 192.585 155.304C201.871 163.243 206.375 174.339 206.003 188.361C205.771 195.464 203.775 201.546 200.107 206.375C199.828 206.746 199.55 207.071 199.271 207.396C199.052 207.929 198.875 208.25 198.783 208.417C198.739 208.497 198.714 208.542 198.714 208.557C198.714 208.604 198.668 208.604 198.621 208.604L198.25 208.557C195.51 211.436 192.168 213.757 188.128 215.568C179.818 219.282 171.46 219.329 171.043 219.329H144.996L141.839 226.757L139.471 239.479L139.425 239.525V239.618L137.475 244.864C137.382 245.143 137.196 245.375 137.01 245.607C136.825 245.839 136.593 245.979 136.314 246.118C136.035 246.211 135.757 246.304 135.478 246.304H135.385C135.107 246.304 134.828 246.257 134.596 246.164L126.007 242.914C125.45 242.682 124.985 242.264 124.753 241.754C124.521 241.243 124.521 240.639 124.707 240.082L126.657 234.836C126.657 234.836 126.657 234.789 126.703 234.789H126.796V234.743L132.832 223.646L134.178 219.282H121.596C114.585 219.282 107.714 218.307 101.075 216.404H24.2354C24.189 216.404 24.1426 216.357 24.1426 216.311V119.646C24.1426 119.368 24.189 119.136 24.2819 118.857C24.3747 118.579 24.5604 118.346 24.7461 118.161C24.9783 117.975 25.2105 117.789 25.4426 117.696C25.5664 117.635 25.6902 117.614 25.814 117.593C25.8759 117.583 25.9378 117.573 25.9997 117.557V61.4714C25.9997 60.5429 26.6497 59.7536 27.5783 59.5679C33.3354 58.5464 53.2533 55.25 68.5747 55.25C82.6426 55.25 103.489 58.5464 109.525 59.5679C110.453 59.7536 111.15 60.5429 111.15 61.5179V117.557C111.568 117.65 111.985 117.836 112.31 118.161C112.682 118.532 112.914 119.089 112.914 119.646V124.939C112.941 124.966 112.952 124.977 112.957 124.991C112.96 125.001 112.96 125.012 112.96 125.032V130.279C112.96 130.325 112.96 130.371 112.914 130.371V131.486C114.91 131.114 116.907 130.789 118.95 130.557C122.478 130.139 125.543 130 128.282 130.093L140.4 105.486C140.678 104.789 140.818 104.093 140.818 103.396L140.725 97.2214C140.678 97.1286 140.678 97.0821 140.678 96.9893C140.632 96.5714 140.818 96.2 141.143 95.9679C141.133 95.9388 141.123 95.9117 141.114 95.8859C141.079 95.7878 141.05 95.7066 141.05 95.5964C141.003 94.9464 141.468 94.3893 142.118 94.3429L143.51 94.25C143.278 94.0643 143.093 93.7857 143.093 93.4607C143.046 92.8571 143.51 92.3 144.16 92.2536L146.946 92.0679L149.36 88.6786C150.382 86.2179 151.589 84.0357 152.61 82.4107C153.539 80.925 154.514 80.0429 155.443 79.4857C155.445 79.4835 155.452 79.4661 155.466 79.4355C155.734 78.8253 158.311 72.951 166.446 76.8857C170.681 78.9368 171.57 81.0337 172.426 83.0537C173.062 84.5546 173.68 86.013 175.639 87.3786C177.327 88.5435 178.684 89.1498 179.81 89.6528C181.78 90.533 183.042 91.0971 184.135 93.7857C184.906 95.6389 184.397 97.1093 183.97 98.3433C183.444 99.8608 183.043 101.021 185.296 102.096C189.382 104.046 194.768 112.45 195.65 115.839C198.018 124.846 196.996 132.229 190.914 137.289C188.268 139.518 182.743 141.05 177.775 141.375L177.357 144.114C177.218 144.996 176.985 145.879 176.614 146.668ZM107.575 130.371H29.4354V211.018H87.564C82.4104 208.093 77.8604 204.054 74.4711 199.411C68.9926 191.889 66.4854 182.882 66.9962 172.621C67.5533 161.711 72.9854 151.961 82.689 144.346C89.3747 139.1 97.964 135.107 107.575 132.646V130.371ZM150.243 107.018C149.918 106.6 149.593 106.182 149.314 105.764L147.735 107.296L146.807 109.85C148.293 109.339 149.918 108.829 151.496 108.364V108.318C151.078 107.946 150.66 107.529 150.243 107.018Z" fill="url(#paint1_linear_1776_53169)" style="mix-blend-mode:overlay"/>
<defs>
<linearGradient id="paint0_linear_1776_53169" x1="24.1426" y1="129.025" x2="235.95" y2="129.025" gradientUnits="userSpaceOnUse">
<stop stop-color="#5D6AE8"/>
<stop offset="1" stop-color="#00D2FE"/>
</linearGradient>
<linearGradient id="paint1_linear_1776_53169" x1="24.1426" y1="129.025" x2="235.95" y2="129.025" gradientUnits="userSpaceOnUse">
<stop stop-color="#5D6AE8"/>
<stop offset="1" stop-color="#00D2FE"/>
</linearGradient>
</defs>
</svg>
