<svg width="260" height="260" viewBox="0 0 260 260" fill="none" xmlns="http://www.w3.org/2000/svg">
<g clip-path="url(#clip0_1837_55797)">
<path d="M108.321 79.3365L92.8238 59.4782C92.8238 59.4782 93.1135 55.5352 90.921 50.8603C88.7284 46.1855 87.932 45.6572 87.4172 45.9281C86.9024 46.199 87.9562 52.2901 87.9562 52.2901C87.9562 52.2901 85.5305 50.4358 84.1412 49.0141C82.7518 47.5924 78.8073 43.5213 78.1403 44.0131C77.5662 44.4363 78.8141 45.9955 80.3584 48.2514C81.3193 49.6515 82.233 50.8037 82.233 50.8037C82.233 50.8037 75.8426 45.6694 74.8899 45.5656C73.9371 45.4618 73.9371 46.614 73.9371 46.614C73.9371 46.614 72.8159 47.0534 73.1366 48.1166C73.4574 49.1799 79.3194 54.8546 79.3194 54.8546C79.3194 54.8546 73.1905 51.1649 72.6811 52.0934C72.1718 53.0219 86.6019 63.2502 86.6019 63.2502L102.68 89.7104C103.811 91.527 108.321 79.3365 108.321 79.3365Z" fill="#E5E5E5" stroke="black" stroke-width="0.5" stroke-linecap="round" stroke-linejoin="round"/>
<path d="M88.2397 59.6859C88.2397 59.6859 87.0026 58.0364 87.1441 56.5581C87.2856 55.0798 88.2222 53.4937 88.2222 53.4937" stroke="black" stroke-width="0.5" stroke-linecap="round" stroke-linejoin="round"/>
<path d="M79.7109 56.2765C79.7109 56.2765 79.9616 54.4397 81.0922 52.925C81.7391 52.0408 82.5425 51.2826 83.4627 50.688" stroke="black" stroke-width="0.5" stroke-linecap="round" stroke-linejoin="round"/>
<path d="M73.9414 46.6143L81.0918 52.9251" stroke="black" stroke-width="0.5" stroke-linecap="round" stroke-linejoin="round"/>
<path d="M144.555 221.007H153.867L159.231 182.935L144.555 179.431V221.007Z" fill="#E5E5E5" stroke="black" stroke-width="0.5" stroke-linecap="round" stroke-linejoin="round"/>
<path d="M122.825 217.077L131.418 213.881L126.751 168.684L114.465 175.793L122.825 217.077Z" fill="#E5E5E5" stroke="black" stroke-width="0.5" stroke-linecap="round" stroke-linejoin="round"/>
<path d="M160.58 97.4014H127.082L112.177 144.793C110.752 149.32 110.361 154.109 111.031 158.808L118.039 207.926L133.684 202.758L127.763 154.501L141.015 119.193L143.277 209.805L159.235 210.488L160.58 97.4014Z" fill="#333333" stroke="black" stroke-width="0.5" stroke-linecap="round" stroke-linejoin="round"/>
<path d="M122.942 206.305L115.708 158.027C115.245 153.896 115.676 149.714 116.972 145.764L132.848 97.4038" stroke="black" stroke-width="0.5" stroke-miterlimit="10" stroke-linecap="round" stroke-linejoin="round"/>
<path d="M148.02 209.804V97.7559" stroke="black" stroke-width="0.5" stroke-miterlimit="10" stroke-linecap="round" stroke-linejoin="round"/>
<path d="M163.624 51.2754L181.126 86.2794L171.148 89.1417L159.658 77.7329L163.624 51.2754Z" fill="#4C4C4C" stroke="black" stroke-width="0.5" stroke-miterlimit="10" stroke-linecap="round" stroke-linejoin="round"/>
<path d="M121.632 50.855L106.75 75.3814L100.089 67.0168L92.4453 76.101L100.24 89.5056C102.904 94.0875 109.312 94.6265 112.705 90.5567L131.522 67.9844L121.632 50.855Z" fill="#4C4C4C" stroke="black" stroke-width="0.5" stroke-miterlimit="10" stroke-linecap="round" stroke-linejoin="round"/>
<path d="M159.233 48.8285L144.428 46.5376L139.345 47.0969L124.221 49.3015L130.43 97.756H155.201L159.233 48.8285Z" fill="#4C4C4C" stroke="black" stroke-width="0.5" stroke-miterlimit="10" stroke-linecap="round" stroke-linejoin="round"/>
<path d="M151.434 47.4551L165.718 49.9711L161.046 86.8954L167.245 107.558L157.184 117.89L149.064 89.8601L151.434 47.4551Z" fill="#B3B3B3" stroke="black" stroke-width="0.5" stroke-miterlimit="10" stroke-linecap="round" stroke-linejoin="round"/>
<path d="M134.483 47.4551L120.198 49.9711L124.869 86.8954L118.67 107.558L128.732 117.89L136.852 89.8601L134.483 47.4551Z" fill="#B3B3B3" stroke="black" stroke-width="0.5" stroke-miterlimit="10" stroke-linecap="round" stroke-linejoin="round"/>
<path d="M139.128 38.7291L138.51 45.4469C138.466 45.9125 138.273 46.3514 137.959 46.6975C137.645 47.0436 137.226 47.2782 136.767 47.3659L136.066 47.5007C136.066 47.5007 137.329 65.9629 142.577 65.9346C147.698 65.9022 150.302 47.4724 150.302 47.4724C150.302 47.4724 148.521 45.8714 148.416 42.621C148.311 39.3706 148.986 31.8105 148.986 31.8105L139.128 38.7291Z" fill="#E5E5E5" stroke="black" stroke-width="0.5" stroke-miterlimit="10" stroke-linecap="round" stroke-linejoin="round"/>
<path d="M148.008 16.7889C144.166 14.4872 136.436 13.5911 134.037 17.328C132.408 19.8668 132.846 26.0119 132.925 28.9618C132.986 31.1935 133.096 34.4991 134.644 37.2429C136.275 40.1362 139.791 40.2292 142.617 39.5136C145.946 38.67 148.907 36.6432 149.4 33.2742C154.432 32.4818 152.049 19.2092 148.008 16.7889Z" fill="#E5E5E5" stroke="black" stroke-width="0.5" stroke-linecap="round" stroke-linejoin="round"/>
<path d="M135.274 29.4646C135.71 29.4646 136.064 29.1111 136.064 28.6749C136.064 28.2388 135.71 27.8853 135.274 27.8853C134.838 27.8853 134.484 28.2388 134.484 28.6749C134.484 29.1111 134.838 29.4646 135.274 29.4646Z" fill="black"/>
<path d="M141.362 29.4646C141.798 29.4646 142.152 29.1111 142.152 28.6749C142.152 28.2388 141.798 27.8853 141.362 27.8853C140.926 27.8853 140.572 28.2388 140.572 28.6749C140.572 29.1111 140.926 29.4646 141.362 29.4646Z" fill="black"/>
<path d="M137.985 27.8003C137.607 28.5511 137.324 29.346 137.142 30.1667C137.06 30.5346 137.007 30.9631 137.258 31.2447C137.36 31.3554 137.486 31.4404 137.627 31.4927C138.015 31.6491 138.447 31.6572 138.84 31.5156" stroke="black" stroke-width="0.5" stroke-linecap="round" stroke-linejoin="round"/>
<path d="M133.824 27.1115C134.45 26.606 135.122 26.161 135.832 25.7827" stroke="black" stroke-width="0.5" stroke-linecap="round" stroke-linejoin="round"/>
<path d="M140.408 26.0645L142.815 26.7975" stroke="black" stroke-width="0.5" stroke-linecap="round" stroke-linejoin="round"/>
<path d="M137.326 34.2714C137.326 34.2714 138.172 35.5732 139.497 35.2861C141.188 34.9196 141.362 33.002 141.362 33.002C141.362 33.002 140.015 33.9924 139.341 34.1784C138.686 34.3702 137.995 34.4021 137.326 34.2714Z" fill="white" stroke="black" stroke-width="0.5" stroke-linecap="round" stroke-linejoin="round"/>
<path d="M157.531 22.8973C156.965 19.9542 156.992 17.7158 154.952 15.4774C154.069 14.5098 153.031 13.6177 151.816 13.0989C150.94 12.7256 150.077 12.3914 149.14 12.7997C148.981 12.8875 148.808 12.9459 148.629 12.9722C148.456 12.9803 148.09 13.1474 147.92 13.0922C145.09 12.1273 142.655 11.781 140.171 12.3267C137.436 12.9291 135.735 13.9439 133.912 15.5879C130.529 18.6429 131.253 25.009 132.925 28.9615C132.925 28.9615 132.697 22.7154 133.319 19.2143C136.045 21.5524 140.364 23.2019 143.872 23.2935C144.601 23.3137 145.372 23.3245 145.991 23.7086C146.438 23.9848 146.754 24.4269 147.02 24.8797C147.555 25.8274 147.939 26.8532 148.157 27.9199C148.427 27.308 149.261 27.0938 149.878 27.3525C150.495 27.6113 150.905 28.2204 151.114 28.8564C151.592 30.3145 150.794 32.5947 149.401 33.2685C149.355 33.2914 149.255 34.5433 148.699 35.3735L148.595 37.7318C148.595 37.7318 153.192 33.8479 154.029 32.9963C156.28 30.7094 158.137 26.0548 157.531 22.8973Z" fill="#1A1A1A" stroke="black" stroke-width="0.5" stroke-linecap="round" stroke-linejoin="round"/>
<path d="M154.135 11.9335C159.198 13.9104 162.787 19.3062 161.298 24.8192C161.055 25.714 160.704 26.5806 160.547 27.4942C160.319 28.8324 160.7 29.9482 161.574 30.9603C162.03 31.4885 162.624 31.882 163.098 32.3928C163.522 32.848 163.843 33.3885 164.041 33.9781C164.239 34.5676 164.309 35.1926 164.245 35.8112C164.182 36.4298 163.988 37.0278 163.675 37.5652C163.362 38.1026 162.938 38.567 162.431 38.9273C161.728 39.4272 160.807 39.8032 160.557 40.6293C160.325 41.3907 160.782 42.1696 161.166 42.8677C161.612 43.6762 162.838 44.1371 162.724 45.0589C162.625 45.8513 161.376 45.8971 161.046 46.9455C160.757 47.8673 162.19 49.3483 162.19 49.3483L154.847 48.056C153.728 47.8579 151.703 47.0951 151.463 45.0589C151.328 43.9094 152.878 41.7424 152.452 40.6563C151.913 39.2952 149.275 37.7684 149.715 36.3736C150.435 34.0988 151.332 34.9492 152.102 32.7485C152.582 31.3753 152.309 29.8943 152.189 28.4861C152.055 26.9767 152.107 25.8555 152.979 24.578C153.518 23.7775 154.04 22.9259 154.204 21.9731C154.581 19.7927 153.494 17.468 152.068 15.8496C150.427 13.9872 148.098 13.0196 145.734 12.4577C145.994 12.5197 146.947 11.9065 147.236 11.8C147.826 11.5808 148.431 11.4007 149.045 11.261C150.103 11.0198 151.358 11.1869 152.414 11.42C153 11.5466 153.576 11.7183 154.135 11.9335Z" fill="black" stroke="black" stroke-width="0.5" stroke-miterlimit="10" stroke-linecap="round" stroke-linejoin="round"/>
<path d="M149.064 34.154C150.359 34.154 151.408 33.1042 151.408 31.8092C151.408 30.5142 150.359 29.4644 149.064 29.4644C147.769 29.4644 146.719 30.5142 146.719 31.8092C146.719 33.1042 147.769 34.154 149.064 34.154Z" fill="#B3B3B3" stroke="black" stroke-width="0.5" stroke-miterlimit="10" stroke-linecap="round" stroke-linejoin="round"/>
<path d="M171.577 87.3712C171.577 87.3712 173.733 84.3485 176.069 84.2717C178.404 84.1949 181.19 84.3782 181.459 88.2404C181.729 92.1026 179.064 93.5715 176.519 94.0499C174.567 94.4421 172.545 94.2839 170.678 93.5931C169.271 93.0918 168.193 90.9963 168.193 90.9963L171.577 87.3712Z" fill="#4C4C4C" stroke="black" stroke-width="0.5" stroke-miterlimit="10" stroke-linecap="round" stroke-linejoin="round"/>
<path d="M172.819 87.6594H174.144C175.003 87.6593 175.829 87.9891 176.453 88.5806C177.076 89.1722 177.448 89.9803 177.493 90.8384C177.511 91.2001 177.455 91.5618 177.327 91.9006C177.199 92.2394 177.002 92.548 176.749 92.807C176.496 93.0659 176.192 93.2696 175.856 93.4051C175.52 93.5406 175.159 93.605 174.797 93.5943L172.269 93.5202C170.831 93.4774 169.438 93.013 168.261 92.1847C165.971 90.5675 162.033 87.8589 158.963 86.0868C156.807 84.8443 155.783 84.3349 154.861 83.781C154.052 83.2905 152.78 82.5682 153.04 82.0399C153.326 81.4632 154.287 81.7232 154.287 81.7232C154.547 81.2502 155.339 80.9767 155.919 81.261L157.242 81.9092C157.432 81.7074 157.685 81.578 157.96 81.5433C158.234 81.5086 158.512 81.5708 158.746 81.7192L162.676 84.1449L169.233 83.8875L172.819 87.6594Z" fill="#E5E5E5" stroke="black" stroke-width="0.5" stroke-linecap="round" stroke-linejoin="round"/>
<path d="M167.175 87.3927C167.175 87.3927 163.762 86.5369 160.887 86.1327C158.931 85.8631 156.808 85.9426 155.651 86.0248C155.539 86.0338 155.427 86.0195 155.321 85.9829C155.216 85.9463 155.119 85.8882 155.037 85.8122C154.954 85.7362 154.889 85.644 154.844 85.5414C154.8 85.4388 154.777 85.3281 154.777 85.2163C154.779 85.0061 154.862 84.8048 155.009 84.6542C155.155 84.5037 155.354 84.4153 155.564 84.4077L166.367 84.0317" fill="#E5E5E5"/>
<path d="M167.175 87.3927C167.175 87.3927 163.762 86.5369 160.887 86.1327C158.931 85.8631 156.808 85.9426 155.651 86.0248C155.539 86.0338 155.427 86.0195 155.321 85.9829C155.216 85.9463 155.119 85.8882 155.037 85.8122C154.954 85.7362 154.889 85.644 154.844 85.5414C154.8 85.4388 154.777 85.3281 154.777 85.2163V85.2163C154.779 85.0061 154.862 84.8048 155.009 84.6542C155.155 84.5037 155.354 84.4153 155.564 84.4077L166.367 84.0317" stroke="black" stroke-width="0.5" stroke-linecap="round" stroke-linejoin="round"/>
<path d="M169.719 86.1016L164.713 83.0372C164.135 82.6828 163.866 81.8365 164.343 81.3554C164.499 81.1987 164.699 81.0943 164.916 81.0566C165.134 81.0189 165.357 81.0499 165.556 81.1452C165.556 81.1452 168.505 82.552 169.443 83.0574C170.343 83.5671 171.161 84.21 171.868 84.9643C172.451 85.6381 172.841 86.514 172.812 88.243" fill="#E5E5E5"/>
<path d="M169.719 86.1016L164.713 83.0372C164.135 82.6828 163.866 81.8365 164.343 81.3554C164.499 81.1987 164.699 81.0943 164.916 81.0566C165.134 81.0189 165.357 81.0499 165.556 81.1452C165.556 81.1452 168.505 82.552 169.443 83.0574C170.343 83.5671 171.161 84.21 171.868 84.9643C172.451 85.6381 172.841 86.514 172.812 88.243" stroke="black" stroke-width="0.5" stroke-linecap="round" stroke-linejoin="round"/>
<path d="M157.248 81.9106L161.051 84.207" stroke="black" stroke-width="0.5" stroke-linecap="round" stroke-linejoin="round"/>
<path d="M154.293 81.7246L159.1 84.2743" stroke="black" stroke-width="0.5" stroke-linecap="round" stroke-linejoin="round"/>
<path d="M117.92 234.891L112.188 239.918C111.598 240.436 111.61 242.032 111.877 242.77L113.73 244.387L122.003 241.436L137.553 228.713L140.183 224.207C139.904 223.249 139.395 222.375 138.701 221.658L133.815 216.604L132.197 207.905L121.116 211.126L122.613 220.602L117.92 234.891Z" fill="black" stroke="black" stroke-width="0.5" stroke-miterlimit="10" stroke-linecap="round" stroke-linejoin="round"/>
<path d="M111.941 243.011L113.928 247.897C113.928 247.897 116.309 248.189 121.35 246.724C126.392 245.259 127.901 244.055 127.901 244.055L126.602 239.584L132.492 234.264L134.694 241.844C134.694 241.844 139.535 240.437 141.837 239.331C144.138 238.224 143.8 236.683 143.8 236.683L140.786 225.363C140.508 224.406 140.105 223.258 139.412 222.541C139.415 222.544 126.948 238.901 111.941 243.011Z" fill="white" stroke="black" stroke-width="0.5" stroke-miterlimit="10" stroke-linecap="round" stroke-linejoin="round"/>
<path d="M133.139 236.069L126.039 238.846C125.308 239.132 124.775 240.636 124.775 241.421L125.968 243.568L134.752 243.608L153.702 236.934L157.709 233.59C157.774 232.596 157.594 231.601 157.187 230.692L154.312 224.276L155.754 215.547L144.237 214.805L142.422 224.224L133.139 236.069Z" fill="black" stroke="black" stroke-width="0.5" stroke-miterlimit="10" stroke-linecap="round" stroke-linejoin="round"/>
<path d="M124.756 241.67L124.962 246.941C124.962 246.941 127.102 248.026 132.342 248.364C137.581 248.702 139.41 248.084 139.41 248.084L139.709 243.437L147.059 240.437L146.551 248.315C146.551 248.315 151.58 248.64 154.121 248.383C156.663 248.125 156.871 246.561 156.871 246.561L157.885 234.893C157.95 233.899 157.961 232.682 157.554 231.773C157.554 231.773 140.265 242.911 124.756 241.67Z" fill="white" stroke="black" stroke-width="0.5" stroke-miterlimit="10" stroke-linecap="round" stroke-linejoin="round"/>
<path d="M199.17 52.9087C208.139 52.9087 215.41 45.6378 215.41 36.6687C215.41 27.6996 208.139 20.4287 199.17 20.4287C190.201 20.4287 182.93 27.6996 182.93 36.6687C182.93 45.6378 190.201 52.9087 199.17 52.9087Z" fill="#CCCCCC"/>
<path d="M199.17 50.9818C207.075 50.9818 213.483 44.5737 213.483 36.6689C213.483 28.7641 207.075 22.356 199.17 22.356C191.266 22.356 184.857 28.7641 184.857 36.6689C184.857 44.5737 191.266 50.9818 199.17 50.9818Z" fill="white"/>
<path d="M191.406 29.5078L199.128 36.7714L210.96 33.1113" stroke="#999999" stroke-width="0.5" stroke-linecap="round" stroke-linejoin="round"/>
<path d="M207.935 136.133C207.859 136.184 207.769 136.211 207.677 136.21C207.586 136.21 207.496 136.182 207.42 136.13C207.344 136.079 207.286 136.005 207.252 135.92C207.218 135.835 207.21 135.741 207.229 135.652C207.949 132.431 209.123 129.329 210.715 126.438C212.807 122.665 215.73 119.625 217.286 118.15C217.358 118.082 217.45 118.039 217.549 118.028C217.647 118.016 217.746 118.036 217.832 118.086C217.918 118.135 217.986 118.211 218.025 118.301C218.065 118.392 218.074 118.493 218.052 118.59C217.475 121.056 216.098 126.231 213.998 129.749C212.464 132.292 210.395 134.47 207.935 136.133Z" fill="#4C4C4C"/>
<path d="M214.045 168.04C214.081 168.09 214.131 168.129 214.189 168.15C214.248 168.172 214.311 168.176 214.372 168.162C214.432 168.147 214.487 168.115 214.529 168.069C214.571 168.024 214.598 167.966 214.608 167.905C214.918 165.685 214.913 163.433 214.59 161.215C214.163 158.314 213.03 155.69 212.392 154.379C212.363 154.318 212.315 154.269 212.255 154.238C212.196 154.206 212.127 154.195 212.061 154.206C211.994 154.217 211.933 154.249 211.886 154.297C211.839 154.346 211.809 154.408 211.801 154.475C211.578 156.181 211.219 159.798 211.713 162.537C212.082 164.519 212.877 166.396 214.045 168.04Z" fill="black"/>
<path d="M210.611 172.825C210.647 172.876 210.698 172.915 210.756 172.936C210.814 172.958 210.877 172.962 210.938 172.947C210.998 172.933 211.053 172.901 211.095 172.855C211.137 172.809 211.165 172.752 211.174 172.691C211.485 170.471 211.479 168.219 211.157 166.001C210.73 163.101 209.596 160.476 208.959 159.165C208.929 159.104 208.881 159.054 208.821 159.023C208.762 158.992 208.693 158.981 208.627 158.992C208.56 159.003 208.499 159.035 208.452 159.084C208.405 159.132 208.376 159.195 208.367 159.262C208.145 160.966 207.785 164.585 208.28 167.323C208.648 169.305 209.444 171.182 210.611 172.825Z" fill="black"/>
<path d="M207.793 177.329C207.835 177.373 207.889 177.403 207.949 177.417C208.008 177.43 208.07 177.426 208.127 177.405C208.185 177.384 208.234 177.346 208.271 177.298C208.307 177.249 208.328 177.19 208.332 177.129C208.394 174.89 208.137 172.652 207.57 170.484C206.823 167.654 205.403 165.164 204.625 163.935C204.589 163.878 204.535 163.834 204.472 163.81C204.41 163.786 204.341 163.783 204.276 163.801C204.211 163.819 204.154 163.858 204.113 163.911C204.072 163.964 204.049 164.029 204.048 164.097C204.017 165.816 204.061 169.451 204.856 172.118C205.446 174.047 206.448 175.825 207.793 177.329Z" fill="black"/>
<path d="M205.678 181.863C205.725 181.904 205.782 181.93 205.844 181.938C205.906 181.946 205.968 181.935 206.024 181.907C206.079 181.879 206.125 181.836 206.156 181.781C206.186 181.727 206.2 181.665 206.195 181.603C205.999 179.371 205.486 177.178 204.672 175.09C203.604 172.36 201.907 170.056 200.991 168.925C200.948 168.873 200.891 168.836 200.826 168.819C200.761 168.803 200.692 168.807 200.63 168.833C200.568 168.858 200.516 168.903 200.481 168.96C200.446 169.018 200.431 169.085 200.437 169.151C200.604 170.863 201.069 174.469 202.167 177.025C202.972 178.874 204.17 180.525 205.678 181.863Z" fill="black"/>
<path d="M214.531 168.313C214.473 168.29 214.424 168.25 214.389 168.198C214.354 168.147 214.336 168.086 214.336 168.024C214.336 167.961 214.354 167.901 214.389 167.849C214.424 167.797 214.473 167.757 214.531 167.734C216.619 166.919 218.811 166.404 221.043 166.204C223.964 165.951 226.784 166.447 228.203 166.765C228.268 166.78 228.327 166.815 228.371 166.866C228.415 166.917 228.441 166.981 228.446 167.048C228.451 167.114 228.434 167.181 228.398 167.238C228.362 167.294 228.308 167.338 228.246 167.362C226.638 167.972 223.202 169.158 220.43 169.309C218.414 169.409 216.402 169.07 214.531 168.313Z" fill="black"/>
<path d="M217.311 165.213C217.246 165.23 217.176 165.227 217.112 165.205C217.048 165.183 216.992 165.141 216.952 165.087C216.911 165.032 216.888 164.967 216.885 164.899C216.882 164.831 216.9 164.764 216.935 164.706C218.224 162.63 219.8 160.748 221.617 159.116C223.998 156.986 226.782 155.576 228.228 154.925C228.295 154.895 228.37 154.887 228.442 154.903C228.514 154.919 228.578 154.957 228.626 155.013C228.674 155.069 228.703 155.138 228.708 155.212C228.714 155.285 228.695 155.358 228.656 155.42C227.652 157.002 225.429 160.282 223.103 162.23C221.412 163.633 219.436 164.651 217.311 165.213Z" fill="black"/>
<path d="M211.005 173.073C210.95 173.044 210.905 172.999 210.876 172.943C210.847 172.888 210.835 172.826 210.842 172.764C210.849 172.702 210.874 172.643 210.914 172.595C210.955 172.548 211.008 172.513 211.068 172.497C213.229 171.904 215.463 171.621 217.704 171.656C220.636 171.708 223.388 172.495 224.767 172.96C224.83 172.982 224.885 173.023 224.924 173.078C224.962 173.134 224.981 173.2 224.979 173.267C224.977 173.334 224.953 173.399 224.911 173.451C224.869 173.504 224.811 173.541 224.747 173.559C223.084 173.998 219.542 174.818 216.763 174.678C214.75 174.568 212.785 174.02 211.005 173.073Z" fill="black"/>
<path d="M208.323 177.856C208.264 177.834 208.214 177.796 208.178 177.745C208.141 177.694 208.121 177.634 208.119 177.572C208.118 177.509 208.134 177.448 208.168 177.395C208.201 177.343 208.249 177.301 208.307 177.276C210.367 176.395 212.542 175.811 214.767 175.541C217.678 175.194 220.512 175.6 221.94 175.872C222.006 175.885 222.067 175.918 222.112 175.968C222.157 176.017 222.186 176.08 222.193 176.147C222.2 176.214 222.185 176.281 222.151 176.339C222.116 176.397 222.064 176.442 222.002 176.468C220.415 177.13 217.016 178.425 214.245 178.664C212.236 178.828 210.215 178.552 208.323 177.856Z" fill="black"/>
<path d="M206.114 182.006C206.059 181.978 206.014 181.933 205.984 181.879C205.954 181.824 205.941 181.762 205.947 181.7C205.952 181.638 205.976 181.58 206.015 181.531C206.055 181.483 206.107 181.448 206.167 181.43C208.315 180.791 210.543 180.462 212.784 180.451C215.716 180.442 218.483 181.172 219.871 181.608C219.935 181.627 219.992 181.667 220.031 181.722C220.071 181.776 220.092 181.842 220.091 181.91C220.091 181.977 220.068 182.043 220.027 182.096C219.986 182.15 219.929 182.189 219.864 182.207C218.21 182.68 214.686 183.574 211.905 183.493C209.89 183.423 207.914 182.916 206.114 182.006Z" fill="black"/>
<path d="M219.999 162.381C219.999 162.381 213.959 166.407 206.837 179.79C199.715 193.173 196.962 201.723 195.248 212.019C193.534 222.315 194.636 224.844 194.636 224.844" stroke="black" stroke-width="0.5" stroke-miterlimit="10" stroke-linecap="round" stroke-linejoin="round"/>
<path d="M186.691 161.35C186.645 161.393 186.588 161.421 186.527 161.431C186.465 161.441 186.402 161.432 186.346 161.407C186.289 161.381 186.241 161.339 186.209 161.286C186.176 161.233 186.16 161.171 186.162 161.109C186.279 158.871 186.712 156.661 187.449 154.545C188.42 151.778 190.031 149.413 190.906 148.25C190.946 148.197 191.003 148.157 191.067 148.138C191.132 148.119 191.2 148.121 191.263 148.145C191.326 148.168 191.38 148.211 191.417 148.267C191.454 148.323 191.472 148.389 191.468 148.456C191.363 150.173 191.029 153.793 190.023 156.388C189.285 158.264 188.148 159.957 186.691 161.35Z" fill="#999999" stroke="black" stroke-width="0.5" stroke-miterlimit="10" stroke-linecap="round" stroke-linejoin="round"/>
<path d="M189.152 166.7C189.107 166.743 189.05 166.771 188.989 166.782C188.927 166.792 188.864 166.783 188.808 166.757C188.751 166.731 188.703 166.689 188.671 166.636C188.638 166.583 188.623 166.521 188.625 166.459C188.741 164.221 189.174 162.011 189.912 159.895C190.883 157.128 192.494 154.763 193.369 153.6C193.409 153.547 193.466 153.507 193.531 153.488C193.595 153.469 193.664 153.472 193.727 153.495C193.79 153.518 193.844 153.561 193.881 153.618C193.918 153.674 193.935 153.741 193.931 153.808C193.824 155.525 193.492 159.144 192.485 161.739C191.748 163.615 190.611 165.308 189.152 166.7Z" fill="#999999" stroke="black" stroke-width="0.5" stroke-miterlimit="10" stroke-linecap="round" stroke-linejoin="round"/>
<path d="M191.069 171.657C191.02 171.694 190.96 171.716 190.898 171.719C190.836 171.723 190.774 171.707 190.72 171.675C190.667 171.643 190.624 171.596 190.598 171.54C190.571 171.483 190.562 171.42 190.572 171.359C190.937 169.147 191.613 166.999 192.581 164.978C193.854 162.337 195.719 160.166 196.717 159.108C196.763 159.057 196.824 159.023 196.891 159.01C196.959 158.997 197.028 159.007 197.089 159.037C197.15 159.068 197.2 159.118 197.23 159.179C197.26 159.241 197.269 159.31 197.256 159.377C196.96 161.071 196.225 164.633 194.937 167.099C193.994 168.881 192.675 170.437 191.069 171.657Z" fill="#999999" stroke="black" stroke-width="0.5" stroke-miterlimit="10" stroke-linecap="round" stroke-linejoin="round"/>
<path d="M192.28 176.511C192.226 176.543 192.164 176.557 192.102 176.554C192.039 176.55 191.98 176.527 191.93 176.489C191.881 176.451 191.844 176.399 191.824 176.34C191.805 176.28 191.803 176.217 191.82 176.157C192.437 174.002 193.357 171.947 194.552 170.052C196.121 167.574 198.224 165.633 199.337 164.697C199.389 164.653 199.453 164.627 199.52 164.623C199.588 164.619 199.654 164.637 199.711 164.674C199.767 164.711 199.81 164.765 199.833 164.828C199.856 164.892 199.858 164.961 199.839 165.025C199.349 166.673 198.209 170.126 196.645 172.428C195.503 174.089 194.014 175.482 192.28 176.511Z" fill="#999999" stroke="black" stroke-width="0.5" stroke-miterlimit="10" stroke-linecap="round" stroke-linejoin="round"/>
<path d="M186.155 161.526C186.217 161.514 186.273 161.483 186.317 161.439C186.361 161.395 186.39 161.338 186.402 161.277C186.413 161.216 186.406 161.152 186.382 161.095C186.357 161.038 186.316 160.989 186.263 160.956C184.368 159.759 182.313 158.838 180.16 158.219C177.341 157.41 174.478 157.366 173.018 157.41C172.95 157.412 172.886 157.436 172.833 157.478C172.781 157.519 172.743 157.577 172.726 157.642C172.708 157.707 172.712 157.775 172.737 157.838C172.761 157.9 172.806 157.953 172.863 157.988C174.325 158.893 177.474 160.709 180.173 161.386C182.134 161.866 184.175 161.914 186.155 161.526Z" fill="#999999" stroke="black" stroke-width="0.5" stroke-miterlimit="10" stroke-linecap="round" stroke-linejoin="round"/>
<path d="M188.718 166.869C188.777 166.85 188.83 166.814 188.869 166.766C188.908 166.717 188.932 166.658 188.937 166.596C188.942 166.534 188.928 166.471 188.898 166.417C188.867 166.363 188.821 166.319 188.765 166.291C186.756 165.298 184.616 164.596 182.41 164.206C179.522 163.699 176.67 163.95 175.228 164.144C175.162 164.153 175.1 164.183 175.051 164.23C175.003 164.277 174.972 164.338 174.961 164.405C174.95 164.471 174.961 164.539 174.993 164.599C175.024 164.658 175.073 164.706 175.134 164.736C176.684 165.484 180.004 166.961 182.76 167.351C184.758 167.625 186.791 167.461 188.718 166.869Z" fill="#999999" stroke="black" stroke-width="0.5" stroke-miterlimit="10" stroke-linecap="round" stroke-linejoin="round"/>
<path d="M190.443 172.075C190.505 172.065 190.562 172.036 190.607 171.993C190.652 171.95 190.683 171.895 190.697 171.834C190.71 171.773 190.705 171.71 190.682 171.652C190.66 171.594 190.62 171.544 190.569 171.509C188.713 170.252 186.689 169.265 184.556 168.578C181.763 167.684 178.905 167.544 177.45 167.542C177.383 167.541 177.317 167.563 177.263 167.603C177.209 167.643 177.17 167.699 177.15 167.763C177.131 167.828 177.132 167.896 177.155 167.96C177.178 168.023 177.22 168.077 177.276 168.114C178.71 169.064 181.798 170.981 184.476 171.743C186.418 172.285 188.454 172.399 190.443 172.075Z" fill="#999999" stroke="black" stroke-width="0.5" stroke-miterlimit="10" stroke-linecap="round" stroke-linejoin="round"/>
<path d="M191.822 176.567C191.882 176.55 191.935 176.515 191.975 176.468C192.015 176.42 192.04 176.361 192.046 176.299C192.053 176.237 192.04 176.175 192.011 176.12C191.982 176.065 191.937 176.02 191.881 175.991C189.893 174.957 187.768 174.211 185.571 173.774C182.693 173.209 179.838 173.401 178.392 173.565C178.325 173.573 178.263 173.602 178.214 173.648C178.165 173.693 178.132 173.754 178.12 173.82C178.108 173.886 178.118 173.954 178.148 174.014C178.177 174.074 178.226 174.123 178.285 174.154C179.819 174.933 183.109 176.48 185.856 176.927C187.847 177.242 189.883 177.119 191.822 176.567Z" fill="#999999" stroke="black" stroke-width="0.5" stroke-miterlimit="10" stroke-linecap="round" stroke-linejoin="round"/>
<path d="M181.918 154.664C181.918 154.664 187.083 159.763 191.536 174.254C195.988 188.744 197.061 197.664 196.791 208.097" stroke="black" stroke-width="0.5" stroke-miterlimit="10" stroke-linecap="round" stroke-linejoin="round"/>
<path d="M184.21 186.811C184.177 186.84 184.135 186.858 184.092 186.863C184.048 186.869 184.004 186.861 183.964 186.841C183.925 186.821 183.893 186.79 183.871 186.751C183.85 186.713 183.841 186.669 183.845 186.625C183.994 185.045 184.368 183.495 184.954 182.02C185.724 180.092 186.936 178.468 187.59 177.671C187.62 177.635 187.661 177.609 187.707 177.598C187.753 177.586 187.802 177.59 187.846 177.608C187.89 177.627 187.926 177.658 187.951 177.699C187.975 177.74 187.986 177.787 187.982 177.834C187.847 179.047 187.509 181.597 186.719 183.403C186.139 184.707 185.283 185.87 184.21 186.811Z" fill="#999999" stroke="black" stroke-width="0.5" stroke-miterlimit="10" stroke-linecap="round" stroke-linejoin="round"/>
<path d="M185.787 190.672C185.754 190.7 185.713 190.719 185.669 190.724C185.625 190.729 185.58 190.721 185.541 190.701C185.502 190.681 185.469 190.65 185.448 190.611C185.426 190.572 185.417 190.528 185.421 190.484C185.571 188.905 185.944 187.354 186.53 185.88C187.301 183.952 188.513 182.327 189.167 181.532C189.197 181.495 189.238 181.469 189.285 181.458C189.331 181.446 189.379 181.45 189.423 181.468C189.467 181.487 189.504 181.519 189.528 181.559C189.552 181.6 189.563 181.648 189.558 181.695C189.431 182.908 189.085 185.456 188.295 187.262C187.716 188.567 186.86 189.73 185.787 190.672Z" fill="#999999" stroke="black" stroke-width="0.5" stroke-miterlimit="10" stroke-linecap="round" stroke-linejoin="round"/>
<path d="M186.991 194.236C186.955 194.261 186.912 194.275 186.868 194.275C186.824 194.276 186.78 194.263 186.744 194.239C186.707 194.214 186.678 194.18 186.661 194.139C186.644 194.098 186.64 194.053 186.649 194.01C186.974 192.458 187.519 190.961 188.266 189.563C189.246 187.733 190.631 186.253 191.366 185.535C191.4 185.501 191.444 185.48 191.491 185.473C191.538 185.467 191.586 185.476 191.628 185.499C191.67 185.522 191.703 185.558 191.722 185.602C191.742 185.646 191.747 185.694 191.736 185.741C191.476 186.929 190.848 189.427 189.862 191.131C189.141 192.362 188.162 193.422 186.991 194.236Z" fill="#999999" stroke="black" stroke-width="0.5" stroke-miterlimit="10" stroke-linecap="round" stroke-linejoin="round"/>
<path d="M187.7 197.706C187.661 197.728 187.616 197.737 187.571 197.732C187.526 197.727 187.484 197.709 187.45 197.68C187.416 197.651 187.392 197.612 187.38 197.568C187.369 197.525 187.371 197.479 187.386 197.437C187.887 195.931 188.6 194.504 189.504 193.2C190.688 191.495 192.235 190.185 193.052 189.561C193.09 189.532 193.136 189.517 193.183 189.516C193.231 189.516 193.277 189.53 193.316 189.558C193.354 189.586 193.383 189.625 193.398 189.67C193.412 189.715 193.412 189.764 193.397 189.809C193.001 190.96 192.088 193.368 190.912 194.949C190.054 196.09 188.958 197.031 187.7 197.706Z" fill="#999999" stroke="black" stroke-width="0.5" stroke-miterlimit="10" stroke-linecap="round" stroke-linejoin="round"/>
<path d="M183.822 186.92C183.867 186.914 183.909 186.895 183.943 186.864C183.976 186.834 184 186.794 184.01 186.75C184.02 186.706 184.016 186.66 183.999 186.618C183.983 186.576 183.953 186.54 183.915 186.515C182.611 185.611 181.185 184.897 179.68 184.393C177.71 183.739 175.687 183.618 174.657 183.605C174.61 183.604 174.563 183.618 174.524 183.646C174.485 183.674 174.456 183.713 174.442 183.759C174.428 183.804 174.428 183.853 174.444 183.898C174.46 183.943 174.49 183.982 174.529 184.009C175.537 184.692 177.71 186.073 179.599 186.634C180.969 187.034 182.41 187.132 183.822 186.92Z" fill="#999999" stroke="black" stroke-width="0.5" stroke-miterlimit="10" stroke-linecap="round" stroke-linejoin="round"/>
<path d="M185.473 190.777C185.515 190.765 185.553 190.741 185.581 190.708C185.61 190.675 185.628 190.635 185.633 190.591C185.639 190.548 185.631 190.504 185.612 190.465C185.593 190.426 185.562 190.394 185.525 190.372C184.133 189.609 182.64 189.048 181.091 188.704C179.069 188.259 177.039 188.35 176.013 188.443C175.966 188.447 175.921 188.467 175.886 188.499C175.851 188.531 175.826 188.573 175.817 188.619C175.807 188.666 175.813 188.714 175.833 188.757C175.853 188.801 175.887 188.836 175.928 188.859C177.006 189.434 179.307 190.581 181.243 190.941C182.648 191.194 184.092 191.138 185.473 190.777Z" fill="#999999" stroke="black" stroke-width="0.5" stroke-miterlimit="10" stroke-linecap="round" stroke-linejoin="round"/>
<path d="M186.536 194.512C186.58 194.507 186.621 194.488 186.654 194.459C186.687 194.43 186.711 194.392 186.723 194.349C186.734 194.307 186.732 194.262 186.718 194.22C186.704 194.178 186.678 194.142 186.642 194.115C185.368 193.17 183.965 192.411 182.477 191.86C180.53 191.143 178.511 190.957 177.481 190.91C177.434 190.909 177.386 190.923 177.347 190.95C177.308 190.977 177.279 191.017 177.263 191.062C177.248 191.108 177.248 191.157 177.263 191.202C177.278 191.248 177.307 191.287 177.347 191.315C178.332 192.03 180.46 193.479 182.333 194.099C183.687 194.539 185.121 194.68 186.536 194.512Z" fill="#999999" stroke="black" stroke-width="0.5" stroke-miterlimit="10" stroke-linecap="round" stroke-linejoin="round"/>
<path d="M187.375 197.733C187.417 197.722 187.455 197.699 187.484 197.666C187.512 197.634 187.531 197.594 187.538 197.551C187.544 197.508 187.537 197.464 187.519 197.424C187.501 197.385 187.471 197.352 187.434 197.329C186.06 196.534 184.579 195.939 183.037 195.562C181.015 195.074 178.994 195.123 177.964 195.196C177.917 195.199 177.871 195.217 177.835 195.248C177.799 195.279 177.774 195.321 177.763 195.368C177.753 195.414 177.758 195.463 177.777 195.507C177.797 195.55 177.83 195.586 177.871 195.609C178.932 196.206 181.214 197.4 183.143 197.801C184.542 198.086 185.986 198.063 187.375 197.733Z" fill="#999999" stroke="black" stroke-width="0.5" stroke-miterlimit="10" stroke-linecap="round" stroke-linejoin="round"/>
<path d="M181.031 181.937C181.031 181.937 189.153 194.874 190.995 211.087" stroke="black" stroke-width="0.5" stroke-miterlimit="10" stroke-linecap="round" stroke-linejoin="round"/>
<path d="M203.525 142.996C203.594 143.045 203.676 143.072 203.76 143.073C203.844 143.075 203.927 143.052 203.997 143.006C204.068 142.96 204.124 142.895 204.157 142.817C204.19 142.74 204.199 142.654 204.183 142.572C203.595 139.601 202.587 136.73 201.19 134.044C199.354 130.533 196.743 127.685 195.344 126.301C195.28 126.236 195.196 126.194 195.106 126.181C195.016 126.168 194.924 126.184 194.844 126.227C194.764 126.271 194.7 126.339 194.662 126.421C194.624 126.504 194.613 126.597 194.632 126.686C195.108 128.961 196.258 133.737 198.108 137.01C199.458 139.375 201.306 141.417 203.525 142.996Z" fill="#4C4C4C"/>
<path d="M201.273 150.63C201.342 150.678 201.423 150.705 201.508 150.706C201.592 150.707 201.674 150.684 201.745 150.638C201.815 150.592 201.871 150.527 201.904 150.45C201.937 150.372 201.946 150.287 201.93 150.204C201.34 147.235 200.331 144.364 198.933 141.678C197.098 138.168 194.486 135.319 193.087 133.933C193.023 133.87 192.939 133.828 192.849 133.816C192.76 133.803 192.668 133.82 192.588 133.863C192.509 133.906 192.445 133.974 192.407 134.056C192.368 134.139 192.358 134.231 192.376 134.32C192.852 136.594 194.001 141.369 195.851 144.644C197.203 147.009 199.053 149.052 201.273 150.63Z" fill="#4C4C4C"/>
<path d="M199.675 157.63C199.749 157.67 199.833 157.688 199.917 157.68C200.001 157.672 200.08 157.64 200.146 157.587C200.211 157.533 200.259 157.462 200.283 157.381C200.308 157.3 200.307 157.214 200.283 157.134C199.365 154.248 198.042 151.508 196.354 148.994C194.14 145.709 191.224 143.17 189.682 141.949C189.611 141.892 189.524 141.86 189.433 141.858C189.342 141.855 189.253 141.881 189.179 141.933C189.104 141.985 189.048 142.06 189.02 142.146C188.991 142.232 188.991 142.325 189.019 142.411C189.744 144.619 191.419 149.237 193.621 152.285C195.227 154.485 197.293 156.309 199.675 157.63Z" fill="#4C4C4C"/>
<path d="M199.001 164.354C199.079 164.384 199.164 164.39 199.244 164.371C199.325 164.353 199.399 164.311 199.457 164.252C199.514 164.192 199.553 164.116 199.568 164.035C199.582 163.953 199.573 163.869 199.54 163.792C198.296 161.032 196.666 158.462 194.7 156.16C192.121 153.153 188.931 150.967 187.26 149.931C187.182 149.883 187.091 149.861 187 149.869C186.909 149.877 186.823 149.913 186.755 149.974C186.687 150.035 186.64 150.116 186.622 150.205C186.604 150.294 186.615 150.387 186.653 150.47C187.629 152.579 189.826 156.973 192.364 159.747C194.216 161.747 196.481 163.319 199.001 164.354Z" fill="#4C4C4C"/>
<path d="M204.273 143.126C204.189 143.122 204.108 143.093 204.041 143.042C203.974 142.992 203.923 142.922 203.896 142.843C203.869 142.763 203.866 142.677 203.887 142.596C203.909 142.515 203.955 142.442 204.018 142.387C206.318 140.416 208.886 138.783 211.646 137.535C215.26 135.918 219.077 135.29 221.029 135.064C221.119 135.053 221.211 135.072 221.289 135.118C221.368 135.164 221.43 135.233 221.466 135.317C221.502 135.4 221.51 135.493 221.489 135.581C221.468 135.67 221.419 135.749 221.35 135.808C219.57 137.302 215.713 140.344 212.235 141.772C209.711 142.796 206.994 143.258 204.273 143.126Z" fill="#4C4C4C"/>
<path d="M201.887 150.77C201.804 150.757 201.726 150.719 201.665 150.661C201.604 150.604 201.561 150.529 201.542 150.447C201.523 150.365 201.529 150.279 201.559 150.201C201.59 150.122 201.642 150.055 201.711 150.006C204.205 148.288 206.929 146.933 209.804 145.981C213.566 144.744 217.427 144.524 219.393 144.499C219.484 144.497 219.573 144.525 219.647 144.579C219.721 144.632 219.775 144.708 219.802 144.795C219.829 144.881 219.828 144.975 219.798 145.061C219.767 145.146 219.71 145.22 219.635 145.271C217.707 146.57 213.554 149.192 209.947 150.257C207.329 151.01 204.579 151.186 201.887 150.77Z" fill="#4C4C4C"/>
<path d="M200.591 158.066C200.506 158.064 200.425 158.037 200.356 157.989C200.288 157.94 200.235 157.872 200.205 157.793C200.175 157.714 200.17 157.629 200.189 157.547C200.208 157.465 200.251 157.39 200.313 157.333C202.55 155.292 205.065 153.579 207.783 152.245C211.343 150.508 215.138 149.765 217.081 149.477C217.171 149.463 217.263 149.479 217.343 149.522C217.423 149.565 217.487 149.633 217.526 149.715C217.565 149.797 217.576 149.89 217.558 149.979C217.54 150.068 217.494 150.149 217.426 150.21C215.694 151.76 211.936 154.926 208.505 156.461C206.014 157.564 203.314 158.112 200.591 158.066Z" fill="#4C4C4C"/>
<path d="M199.622 164.342C199.539 164.331 199.461 164.295 199.398 164.239C199.336 164.182 199.291 164.109 199.271 164.027C199.25 163.946 199.254 163.86 199.283 163.781C199.312 163.702 199.363 163.633 199.431 163.583C201.888 161.814 204.584 160.402 207.439 159.391C211.175 158.076 215.031 157.774 216.996 157.715C217.087 157.711 217.176 157.738 217.251 157.789C217.326 157.841 217.382 157.916 217.411 158.002C217.44 158.088 217.44 158.181 217.412 158.268C217.383 158.354 217.328 158.429 217.253 158.481C215.354 159.821 211.256 162.524 207.67 163.663C205.069 164.471 202.323 164.703 199.622 164.342Z" fill="#4C4C4C"/>
<path d="M209.776 132.884C209.776 132.884 204.885 138.247 201.202 152.954C197.519 167.66 197.279 214.748 194.637 224.844" stroke="#4C4C4C" stroke-width="0.5" stroke-miterlimit="10" stroke-linecap="round" stroke-linejoin="round"/>
<path d="M175.84 199.74V200.091C175.84 204.197 176.653 208.262 178.231 212.052C179.81 215.842 182.123 219.282 185.037 222.173C187.045 224.166 189.752 225.297 192.581 225.324C195.409 225.351 198.137 224.273 200.183 222.319L200.268 222.238C203.31 219.333 205.731 215.842 207.385 211.975C209.04 208.108 209.892 203.946 209.892 199.74H175.84Z" fill="#E5E5E5" stroke="black" stroke-width="0.5" stroke-linecap="round" stroke-linejoin="round"/>
<path d="M177.144 208.476H175.84V248.399H177.144V208.476Z" fill="black"/>
<path d="M193.517 208.476H192.213V248.399H193.517V208.476Z" fill="black"/>
<path d="M209.89 208.476H208.586V248.399H209.89V208.476Z" fill="black"/>
<path d="M192.866 239.582C201.908 239.582 209.239 237.946 209.239 235.928C209.239 233.911 201.908 232.275 192.866 232.275C183.823 232.275 176.492 233.911 176.492 235.928C176.492 237.946 183.823 239.582 192.866 239.582Z" stroke="black" stroke-width="0.5" stroke-miterlimit="10" stroke-linecap="round" stroke-linejoin="round"/>
<path d="M209.24 212.525C209.24 214.547 201.909 216.179 192.866 216.179C183.822 216.179 176.492 214.543 176.492 212.525" stroke="black" stroke-width="0.5" stroke-miterlimit="10" stroke-linecap="round" stroke-linejoin="round"/>
<path d="M184.018 157.954C184.079 157.984 184.148 157.994 184.215 157.984C184.282 157.974 184.345 157.944 184.395 157.898C184.445 157.852 184.48 157.792 184.496 157.726C184.512 157.66 184.508 157.591 184.484 157.527C183.613 155.245 182.423 153.098 180.949 151.15C179.015 148.606 176.551 146.694 175.254 145.781C175.194 145.739 175.122 145.716 175.048 145.718C174.974 145.72 174.903 145.745 174.845 145.791C174.787 145.836 174.746 145.899 174.726 145.971C174.707 146.042 174.712 146.117 174.739 146.186C175.425 147.931 176.984 151.576 178.898 153.926C180.292 155.625 182.039 156.999 184.018 157.954Z" fill="#999999" stroke="black" stroke-width="0.5" stroke-miterlimit="10" stroke-linecap="round" stroke-linejoin="round"/>
<path d="M182.418 184.327C182.46 184.35 182.508 184.359 182.556 184.355C182.604 184.35 182.65 184.331 182.687 184.3C182.724 184.269 182.75 184.228 182.764 184.181C182.777 184.135 182.776 184.086 182.761 184.04C182.215 182.399 181.437 180.844 180.453 179.422C179.162 177.563 177.476 176.135 176.587 175.45C176.546 175.419 176.495 175.402 176.444 175.401C176.392 175.4 176.342 175.416 176.3 175.446C176.258 175.476 176.226 175.519 176.211 175.569C176.195 175.618 176.195 175.671 176.212 175.72C176.643 176.974 177.636 179.6 178.918 181.322C179.853 182.566 181.047 183.591 182.418 184.327Z" fill="#999999" stroke="black" stroke-width="0.5" stroke-miterlimit="10" stroke-linecap="round" stroke-linejoin="round"/>
<path d="M53.7698 215.842L52 214.476V184.786L53.7915 186.153L53.7698 215.842Z" fill="#1A1A1A" stroke="black" stroke-width="0.5" stroke-miterlimit="10" stroke-linejoin="round"/>
<path d="M52 184.786L53.7928 186.153L74.2939 186.315L72.5011 184.947L52 184.786Z" fill="#808080" stroke="black" stroke-width="0.5" stroke-linecap="round" stroke-linejoin="round"/>
<path d="M53.7912 186.153L74.2936 186.315V193.45H61.3507V197.413H72.3451V204.338H61.2638V208.784H74.3575V216.005L53.7695 215.842L53.7912 186.153Z" fill="#999999" stroke="black" stroke-width="0.5" stroke-linecap="round" stroke-linejoin="round"/>
<path d="M60.7625 19.9644L58.3581 36.5096H58.2304L55.5309 19.9644H48.4516L45.9169 36.5096H45.7892L43.22 19.9644H35.75L40.9854 49.1525L42.7731 50.5201L48.873 49.1525L51.7653 31.3763H51.893L52.3693 34.2992L54.7839 49.1525L56.5716 50.5201L62.6728 49.1525L62.6818 49.109L67.9095 19.9644H60.7625Z" fill="#1A1A1A" stroke="black" stroke-width="0.5" stroke-miterlimit="10" stroke-linejoin="round"/>
<path d="M62.5562 21.3345L60.1517 37.881H60.024L57.3271 21.3345H50.2453L47.7106 37.881H47.5829L45.015 21.3345H37.5449L42.774 50.5226H50.6667L53.5589 32.7477H53.6866L54.1655 35.6706L55.3287 42.8278L55.6722 44.9347L56.5801 50.5226H64.4754L64.4831 50.4804L69.7057 21.3345H62.5562Z" fill="#B3B3B3" stroke="black" stroke-width="0.5" stroke-linejoin="round"/>
<path d="M35.75 19.9668L37.5428 21.3344H45.0141L43.22 19.9668H35.75Z" fill="#808080" stroke="black" stroke-width="0.5" stroke-linecap="round" stroke-linejoin="round"/>
<path d="M60.7324 19.9668L62.5252 21.3344H69.7016L67.9088 19.9668H60.7324Z" fill="#808080" stroke="black" stroke-width="0.5" stroke-linecap="round" stroke-linejoin="round"/>
<path d="M48.4648 19.9668L50.2577 21.3344H57.3229L55.5301 19.9668H48.4648Z" fill="#808080" stroke="black" stroke-width="0.5" stroke-linecap="round" stroke-linejoin="round"/>
<path d="M51.4495 99.7719L49.6797 98.4043V68.7144L51.4712 70.0832L51.4495 99.7719Z" fill="#1A1A1A" stroke="black" stroke-width="0.5" stroke-linecap="round" stroke-linejoin="round"/>
<path d="M49.6797 68.7144L51.4712 70.0832H59.7062L57.9133 68.7144H49.6797Z" fill="#808080" stroke="black" stroke-width="0.5" stroke-linecap="round" stroke-linejoin="round"/>
<path d="M55.6641 91.4976L57.4556 92.8652H72.3842L70.5914 91.4976H55.6641Z" fill="#808080" stroke="black" stroke-width="0.5" stroke-linecap="round" stroke-linejoin="round"/>
<path d="M51.4746 70.0835H59.7095V92.8869H72.3882V99.7722H51.4746V70.0835Z" fill="#B3B3B3" stroke="black" stroke-width="0.5" stroke-linejoin="round"/>
<path d="M32.8772 78.8788L31.1074 77.5112V47.8213L32.899 49.1902L32.8772 78.8788Z" fill="#1A1A1A" stroke="black" stroke-width="0.5" stroke-miterlimit="10" stroke-linejoin="round"/>
<path d="M31.1074 47.8213L32.9002 49.1902L53.4014 49.3511L51.6086 47.9835L31.1074 47.8213Z" fill="#808080" stroke="black" stroke-width="0.5" stroke-linecap="round" stroke-linejoin="round"/>
<path d="M32.8987 49.1899L53.4011 49.3508V56.4851H40.4581V60.4486H51.4538V67.3747H40.3725V71.8197H53.4662V79.0408L32.877 78.8786L32.8987 49.1899Z" fill="#808080" stroke="black" stroke-width="0.5" stroke-linecap="round" stroke-linejoin="round"/>
<path d="M59.949 117.786C58.741 123.389 54.5156 127.472 46.9932 127.472C37.4686 127.472 32.9648 120.731 32.9648 112.186C32.9648 103.951 37.6116 96.5713 47.3048 96.5713C55.3035 96.5713 59.1802 101.267 59.9158 106.287H53.42C52.793 103.972 51.1815 101.665 47.0979 101.665C41.7412 101.665 39.6726 106.483 39.6726 111.949C39.6726 117.028 41.4679 122.378 47.2716 122.378C51.511 122.378 52.8492 119.538 53.4149 117.781L59.949 117.786Z" fill="#4C4C4C" stroke="black" stroke-width="0.5" stroke-linejoin="round"/>
<path d="M61.2673 118.581C60.0593 124.184 55.834 128.265 48.3116 128.265C38.7869 128.265 34.2832 121.524 34.2832 112.979C34.2832 104.744 38.93 97.3657 48.6231 97.3657C56.6218 97.3657 60.4986 102.061 61.2341 107.082H54.7384C54.1114 104.762 52.4999 102.463 48.4137 102.463C43.057 102.463 40.9884 107.281 40.9884 112.748C40.9884 117.826 42.7837 123.176 48.5887 123.176C52.8268 123.176 54.165 120.336 54.7307 118.579L61.2673 118.581Z" stroke="#808080" stroke-width="0.5" stroke-linejoin="round"/>
<path d="M74.1971 138.907C74.1971 147.302 69.0934 154.529 59.1743 154.529C49.5889 154.529 44.5723 147.65 44.5723 139.015C44.5723 130.237 50.1134 123.5 59.6015 123.5C68.5364 123.491 74.1971 129.674 74.1971 138.907ZM52.4254 139.015C52.4254 144.903 55.49 148.832 59.6015 148.592C65.067 148.272 66.6632 143.676 66.6632 138.907C66.6632 134.139 64.3754 129.438 58.6824 129.438C53.1658 129.438 52.4254 133.142 52.4254 139.015Z" fill="#1A1A1A" stroke="black" stroke-width="0.5" stroke-linecap="round" stroke-linejoin="round"/>
<path d="M75.0159 139.58C75.0159 147.94 69.9963 155.139 60.2406 155.139C50.813 155.139 45.8789 148.288 45.8789 139.688C45.8789 130.946 51.3288 124.237 60.6607 124.237C69.4485 124.228 75.0159 130.385 75.0159 139.58ZM52.5866 139.552C52.5866 145.416 55.1609 149.853 60.4857 149.853C66.2626 149.853 68.3082 145.015 68.3082 139.662C68.3082 133.98 65.9804 129.513 60.381 129.513C54.9553 129.513 52.5866 133.704 52.5866 139.552Z" fill="#B3B3B3" stroke="black" stroke-width="0.5" stroke-linecap="round" stroke-linejoin="round"/>
<path d="M53.3078 151.357L51.1778 161.639L51.0591 162.214L50.5943 164.468L50.4768 165.035L49.7617 168.482H49.6238L48.2601 161.97L48.1962 161.671L46.0382 151.359H35.2852V181.047H42.2802V170.345C42.2802 165.858 41.6609 160.982 41.6609 160.982H41.7975L45.1941 176.432L45.2618 176.74L46.208 181.045H52.17L53.092 176.812L53.2311 176.173L53.65 174.251L53.8977 173.114L55.6854 164.927L55.8016 164.391L56.1847 162.615L56.5192 161.082L56.5486 160.955H56.6865C56.6865 160.955 56.6801 161.01 56.6699 161.113C56.6418 161.369 56.5856 161.921 56.518 162.677C56.4822 163.078 56.4439 163.535 56.4056 164.037C56.3673 164.539 56.3315 165.051 56.2971 165.605C56.269 166.061 56.2422 166.535 56.2204 167.02C56.1987 167.505 56.177 168.007 56.163 168.51C56.1489 169.013 56.1387 169.504 56.1362 169.999C56.1362 170.121 56.1362 170.241 56.1362 170.361V181.063H63.6828V151.374L53.3078 151.357Z" fill="#666666" stroke="black" stroke-width="0.5" stroke-linejoin="round"/>
<path d="M54.7035 152.96L52.5736 163.242L52.4548 163.816L51.9875 166.075L51.87 166.644L51.1536 170.091H51.017L49.6532 163.579L49.5894 163.28L47.4314 152.968H36.6758V182.656H43.6708V171.949C43.6708 167.462 43.0502 162.585 43.0502 162.585H43.1881L46.5848 178.036L46.6524 178.344L47.5986 182.649H53.5606L54.4826 178.416L54.6218 177.777L55.0406 175.855L55.2883 174.718L57.0696 166.531L57.1871 165.995L57.5702 164.219L57.9048 162.686L57.9341 162.552H58.072C58.072 162.552 58.0657 162.607 58.0542 162.711C58.0273 162.966 57.9712 163.519 57.9035 164.275C57.8677 164.676 57.8294 165.133 57.7898 165.635C57.7503 166.137 57.7171 166.649 57.6826 167.203C57.6545 167.659 57.6277 168.132 57.606 168.618C57.5843 169.103 57.5625 169.605 57.5485 170.108C57.5345 170.611 57.5242 171.101 57.5217 171.597C57.5217 171.724 57.5217 171.838 57.5217 171.958V182.66H65.0683V152.971L54.7035 152.96Z" stroke="#808080" stroke-width="0.5" stroke-linejoin="round"/>
<path fill-rule="evenodd" clip-rule="evenodd" d="M176.521 94.157C178.982 93.6927 181.86 92.2999 181.535 88.2142C181.489 87.4713 181.35 86.8677 181.117 86.357C181.141 86.357 181.152 86.3454 181.164 86.3338C181.175 86.3222 181.187 86.3106 181.21 86.3106V86.2177L165.285 54.3213L165.842 49.957C165.842 49.9106 165.796 49.8177 165.749 49.8177L162.267 49.2142C162.082 49.0284 160.921 47.7284 161.153 46.9392C161.272 46.5014 161.597 46.2683 161.921 46.0352C161.949 46.0146 161.978 45.9939 162.007 45.9731C162.032 45.9548 162.057 45.9363 162.082 45.9177C162.453 45.6856 162.778 45.4534 162.871 44.9892C162.964 44.3856 162.499 43.9213 162.035 43.5034C161.757 43.2713 161.478 42.9927 161.292 42.7142L161.246 42.6213C160.874 41.9713 160.503 41.2284 160.689 40.5784C160.874 39.9749 161.432 39.6034 161.989 39.2784C162.131 39.2075 162.273 39.1095 162.394 39.0257C162.431 38.9999 162.467 38.9754 162.499 38.9534C163.01 38.582 163.474 38.1177 163.799 37.5606C164.124 37.0034 164.31 36.3999 164.403 35.7499C164.45 35.0999 164.403 34.4963 164.171 33.8463C163.985 33.2427 163.66 32.6856 163.196 32.2213C162.964 31.9892 162.732 31.757 162.453 31.5713C162.174 31.3392 161.896 31.107 161.664 30.8284C160.782 29.807 160.457 28.6927 160.642 27.4392C160.735 26.882 160.921 26.2784 161.107 25.7213L161.385 24.7463C162.825 19.4999 159.714 13.882 154.142 11.6999C153.641 11.4908 153.101 11.357 152.592 11.2308L152.424 11.1892C151.032 10.8642 149.917 10.8177 148.989 11.0499C148.385 11.1892 147.735 11.3749 147.178 11.607L146.714 11.8392C146.657 11.8675 146.589 11.9036 146.515 11.9427C146.226 12.0955 145.85 12.294 145.739 12.257C143.649 11.7927 141.885 11.7463 140.121 12.1177C137.196 12.7677 135.478 13.882 133.807 15.4142C130.232 18.6177 131.253 25.2106 132.785 28.8784C132.832 30.9677 132.925 34.4034 134.503 37.1892C135.525 38.9999 137.242 39.6963 138.867 39.8356L138.357 45.3142C138.31 45.732 138.125 46.1499 137.846 46.4749C137.567 46.7999 137.149 47.032 136.732 47.1249L136.035 47.2642C135.989 47.2642 135.942 47.3106 135.942 47.357L134.596 47.5427V47.3106C134.596 47.2642 134.596 47.2642 134.549 47.2177C134.526 47.2177 134.515 47.2061 134.503 47.1945C134.491 47.1829 134.48 47.1713 134.457 47.1713L120.157 49.6784C120.11 49.6784 120.064 49.7249 120.064 49.8177L120.389 52.4642L106.692 75.0284L100.146 66.8106C100.146 66.7642 100.1 66.7642 100.053 66.7642C100.007 66.7642 100.007 66.7642 99.9602 66.8106L99.3566 67.5534L92.9495 59.4284C92.9495 59.4072 92.9498 59.379 92.9501 59.3441C92.9577 58.6149 92.9954 54.9575 91.0459 50.7927C89.0959 46.6142 88.3066 45.9177 87.8424 45.7784C87.6566 45.732 87.5174 45.732 87.3781 45.8249C86.8674 46.1034 87.4709 50.0499 87.7959 51.9999C87.1459 51.4892 85.3352 50.0499 84.2209 48.9356L84.1281 48.7963C80.3674 44.9427 78.6031 43.5034 78.0924 43.9213C77.5352 44.3392 78.2781 45.4534 79.5781 47.3106C79.8102 47.6356 80.0424 47.9606 80.2745 48.332C80.7388 49.0284 81.2031 49.6784 81.5745 50.1427C79.8566 48.7963 75.6781 45.5463 74.9352 45.4534C74.6566 45.407 74.4245 45.4999 74.2388 45.6392C73.9602 45.9177 73.8674 46.3356 73.8674 46.5213C73.8572 46.5274 73.8458 46.5341 73.8334 46.5414C73.5605 46.7022 72.7673 47.1695 73.0781 48.1463C73.3566 49.0284 77.0703 52.7421 78.6027 54.2745L78.6031 54.2749C77.0709 53.3927 73.7745 51.582 72.8924 51.8606C72.7531 51.907 72.7066 51.9534 72.6602 52.0463L72.6589 52.0489C72.5649 52.2364 72.3219 52.7214 79.4388 58.1284C82.8281 60.682 86.2638 63.1427 86.5888 63.3284L93.5066 74.7499L92.4388 76.0499C92.3924 76.0963 92.3924 76.1427 92.4388 76.1892L100.239 89.607C101.539 91.8356 103.721 93.2284 106.274 93.4142C106.391 93.4142 106.507 93.4258 106.623 93.4374C106.739 93.449 106.855 93.4606 106.971 93.4606C109.292 93.4606 111.382 92.4856 112.914 90.6749L123.685 77.7213L124.846 86.9142L118.671 107.575C118.671 107.621 118.671 107.668 118.717 107.668L122.617 111.661L112.217 144.764C110.778 149.268 110.407 154.143 111.057 158.832L117.928 207.953C117.928 207.959 117.929 207.963 117.93 207.967C117.931 207.972 117.932 207.976 117.934 207.979C117.937 207.984 117.94 207.987 117.943 207.991C117.946 207.994 117.948 207.997 117.951 208C117.963 208.011 117.975 208.023 117.975 208.046H118.067L120.714 207.164L121.457 210.878L121.085 210.971C121.039 210.971 120.992 211.064 120.992 211.111L122.478 220.582L117.789 234.836L112.078 239.85C111.428 240.453 111.474 242.125 111.753 242.821C111.753 242.821 111.753 242.868 111.799 242.868L111.892 242.914C111.892 242.914 111.846 242.914 111.846 242.961V243.053L113.842 247.928C113.842 247.957 113.86 247.968 113.885 247.983C113.9 247.993 113.917 248.004 113.935 248.021C113.94 248.021 113.947 248.022 113.955 248.023C113.967 248.024 113.982 248.026 114 248.029L114.001 248.029C114.091 248.042 114.264 248.068 114.539 248.068C115.56 248.068 117.789 247.928 121.41 246.861C122.803 246.443 123.917 246.071 124.846 245.746L124.892 247C124.892 247.046 124.939 247.093 124.939 247.093C125.032 247.139 127.167 248.207 132.367 248.532C137.162 248.832 139.115 248.342 139.426 248.264C139.453 248.257 139.467 248.253 139.471 248.253C139.517 248.253 139.564 248.207 139.564 248.161L139.842 243.564L146.946 240.686L146.435 248.393C146.435 248.439 146.435 248.439 146.482 248.486C146.493 248.497 146.502 248.506 146.509 248.513C146.515 248.518 146.52 248.521 146.524 248.524C146.531 248.528 146.538 248.53 146.546 248.531C146.553 248.532 146.562 248.532 146.575 248.532C146.58 248.532 146.623 248.535 146.698 248.54C147.241 248.575 149.469 248.718 151.589 248.718C152.564 248.718 153.446 248.671 154.189 248.625C156.789 248.346 157.021 246.768 157.021 246.675L158.042 235.021C158.089 234.046 158.135 232.793 157.717 231.864C157.625 231.493 157.532 231.121 157.346 230.796L154.467 224.389L155.907 215.707C155.907 215.661 155.907 215.661 155.86 215.614C155.86 215.568 155.814 215.568 155.767 215.568L154.792 215.521L155.489 210.6L159.249 210.739C159.269 210.739 159.281 210.739 159.291 210.736C159.296 210.734 159.3 210.731 159.306 210.727C159.31 210.724 159.315 210.719 159.321 210.714C159.327 210.708 159.334 210.701 159.342 210.693C159.342 210.693 159.389 210.646 159.389 210.6L160.549 114.771L167.374 107.761C167.421 107.714 167.421 107.668 167.421 107.668L161.478 87.8427C164.032 89.4677 166.678 91.2784 168.257 92.3927C168.721 92.7177 169.185 92.9963 169.696 93.182C170.021 93.4606 170.346 93.6927 170.717 93.832C171.925 94.2963 173.224 94.5284 174.478 94.5284C174.828 94.4534 175.192 94.3919 175.561 94.3293L175.562 94.3292C175.879 94.2756 176.2 94.2212 176.521 94.157ZM129.024 237.575L132.414 234.511L132.878 236.089L129.024 237.575ZM144.439 214.686H144.253C144.207 214.686 144.16 214.732 144.114 214.778L142.303 224.157L141.003 225.782L140.864 225.318C140.585 224.389 140.167 223.182 139.471 222.439C139.441 222.398 139.413 222.357 139.384 222.318C139.19 222.043 139.018 221.8 138.774 221.557L133.899 216.543L132.274 207.861C132.274 207.837 132.263 207.826 132.251 207.814C132.249 207.812 132.246 207.809 132.244 207.806C132.241 207.803 132.238 207.8 132.236 207.797C132.231 207.789 132.228 207.78 132.228 207.768H132.135L130.928 208.139L130.51 203.914L133.714 202.846C133.76 202.846 133.807 202.8 133.807 202.707L127.91 154.468L140.957 119.739L143.185 209.764C143.185 209.811 143.232 209.857 143.278 209.857L144.439 209.903V214.686ZM151.416 47.3586C151.413 47.3591 151.411 47.3598 151.408 47.3606C151.395 47.3654 151.383 47.3767 151.357 47.4034C151.31 47.4034 151.31 47.4499 151.31 47.4963V47.5427L150.335 47.4034C150.057 47.1249 148.617 45.5463 148.524 42.6677C148.478 41.4606 148.571 39.6499 148.664 37.8856C148.71 37.8392 149.082 37.5142 149.592 37.0963C149.763 37.7377 150.328 38.3397 150.924 38.9749L150.958 39.0114C150.998 39.0538 151.038 39.0964 151.078 39.1392C151.15 39.218 151.223 39.2967 151.297 39.3754C151.74 39.8529 152.179 40.3257 152.378 40.7642C152.59 41.2724 152.299 42.0511 152 42.8535L151.999 42.8555C151.971 42.932 151.942 43.0088 151.914 43.0856C151.864 43.2262 151.813 43.3638 151.763 43.4983L151.762 43.5027L151.761 43.5048C151.531 44.1225 151.327 44.6722 151.403 45.1284C151.589 46.5213 152.517 47.3106 153.399 47.7284L151.45 47.357C151.439 47.357 151.43 47.357 151.423 47.3576C151.42 47.3579 151.418 47.3582 151.416 47.3586ZM162.685 84.0356L161.571 83.3392L161.989 80.2284L163.985 82.2249C164.078 82.5963 164.31 82.9213 164.635 83.1534L165.378 83.6177L165.703 83.9427L162.685 84.0356Z" fill="url(#paint0_linear_1837_55797)" style="mix-blend-mode:overlay"/>
<path d="M199.178 52.9284C208.139 52.9284 215.428 45.6391 215.428 36.6784C215.428 27.7177 208.139 20.4284 199.178 20.4284C190.217 20.4284 182.928 27.7177 182.928 36.6784C182.928 45.6391 190.217 52.9284 199.178 52.9284Z" fill="url(#paint1_linear_1837_55797)" style="mix-blend-mode:overlay"/>
<path fill-rule="evenodd" clip-rule="evenodd" d="M217.152 165.202C217.132 165.197 217.114 165.193 217.1 165.193C216.45 165.843 215.753 166.632 215.103 167.607C217.053 166.864 219.096 166.4 221.185 166.214C224.11 165.936 226.896 166.446 228.335 166.771C228.428 166.771 228.475 166.818 228.521 166.864C228.567 166.911 228.614 167.003 228.614 167.05C228.614 167.096 228.614 167.189 228.567 167.236C228.536 167.297 228.505 167.318 228.475 167.339C228.465 167.345 228.455 167.352 228.445 167.36C228.439 167.364 228.434 167.369 228.428 167.375C226.85 167.978 223.414 169.186 220.628 169.325C218.632 169.464 216.589 169.093 214.732 168.35L214.639 168.257C213.71 169.418 212.689 170.811 211.575 172.436C213.664 171.925 215.8 171.646 217.935 171.693C220.86 171.739 223.6 172.528 224.992 172.993L225.132 173.132C225.178 173.178 225.178 173.271 225.178 173.318C225.178 173.364 225.178 173.457 225.132 173.503C225.085 173.55 224.992 173.596 224.946 173.596C223.275 174.014 219.746 174.85 216.96 174.711C214.964 174.571 212.967 174.014 211.203 173.086L211.157 173.039C210.321 174.293 209.439 175.732 208.557 177.264C210.6 176.382 212.782 175.825 214.964 175.546C217.889 175.175 220.721 175.593 222.16 175.871C222.253 175.871 222.3 175.918 222.346 175.964C222.392 176.011 222.439 176.103 222.439 176.15C222.439 176.196 222.439 176.289 222.392 176.336L222.253 176.475C220.675 177.125 217.285 178.425 214.5 178.657C212.457 178.843 210.46 178.564 208.557 177.868C208.51 177.868 208.464 177.821 208.417 177.775C208.409 177.766 208.402 177.759 208.396 177.753C208.39 177.747 208.386 177.742 208.382 177.738C208.379 177.733 208.376 177.728 208.374 177.723C208.373 177.72 208.372 177.716 208.372 177.712C208.372 177.709 208.371 177.707 208.371 177.705C208.371 177.698 208.371 177.691 208.371 177.682C208.118 178.104 207.882 178.543 207.642 178.988L207.642 178.989L207.641 178.991C207.485 179.28 207.328 179.572 207.164 179.864C206.885 180.375 206.607 180.886 206.375 181.35V181.443C208.51 180.793 210.739 180.468 212.967 180.468C215.939 180.468 218.678 181.211 220.071 181.628C220.117 181.628 220.164 181.675 220.21 181.721C220.257 181.768 220.257 181.861 220.257 181.907C220.257 181.953 220.257 182.046 220.21 182.093C220.164 182.139 220.071 182.186 220.025 182.186C218.4 182.65 214.871 183.578 212.085 183.486C210.042 183.439 208.092 182.928 206.282 182C206.253 182 206.242 181.982 206.227 181.958C206.218 181.942 206.207 181.925 206.189 181.907C206.142 181.953 206.05 181.953 206.003 181.953C202.382 188.918 200.06 194.536 198.435 199.643H210.042C210.089 199.643 210.135 199.689 210.135 199.736C210.135 202.707 209.717 205.632 208.882 208.464H209.996V248.393H208.696V237.111C206.653 238.596 200.757 239.664 193.607 239.711V248.393H192.307V239.293L192.214 239.292V232.421C185.064 232.468 178.935 233.628 177.125 235.068V236.832C177.154 236.856 177.185 236.879 177.217 236.903V248.021H175.917V208.093H176.939C176.15 205.353 175.778 202.568 175.778 199.689V199.318C175.778 199.271 175.825 199.225 175.871 199.225H188.546C188.435 198.836 188.307 198.447 188.183 198.068C188.099 197.814 188.017 197.564 187.942 197.321C187.907 197.339 187.878 197.35 187.854 197.359C187.814 197.374 187.785 197.385 187.757 197.414C187.664 197.461 187.617 197.461 187.571 197.461H187.525C187.478 197.414 187.478 197.414 187.432 197.414C187.432 197.461 187.385 197.461 187.385 197.461C186.642 197.646 185.9 197.739 185.11 197.739C184.414 197.739 183.764 197.693 183.114 197.553C181.21 197.182 178.982 196.021 177.821 195.371C177.79 195.371 177.759 195.33 177.728 195.289C177.724 195.283 177.72 195.278 177.716 195.273C177.705 195.258 177.693 195.243 177.682 195.232V195C177.682 194.907 177.728 194.861 177.775 194.814C177.821 194.768 177.867 194.721 177.96 194.721C178.982 194.628 181.025 194.582 183.067 195.093C184.6 195.464 186.039 196.068 187.385 196.811C187.403 196.759 187.426 196.7 187.452 196.638C187.494 196.533 187.542 196.416 187.571 196.3C187.452 195.984 187.342 195.668 187.234 195.355L187.233 195.354C187.086 194.932 186.942 194.517 186.782 194.118C186.782 194.164 186.782 194.164 186.735 194.211C186.689 194.257 186.596 194.303 186.55 194.303C186.178 194.35 185.76 194.35 185.389 194.35C184.321 194.35 183.253 194.211 182.278 193.886C180.421 193.282 178.332 191.889 177.264 191.1C177.171 191.053 177.125 191.007 177.125 190.914C177.078 190.821 177.078 190.728 177.125 190.682C177.171 190.589 177.217 190.543 177.264 190.496C177.31 190.45 177.357 190.45 177.45 190.45C178.471 190.496 180.514 190.682 182.464 191.425C183.903 191.982 185.25 192.725 186.503 193.607V193.561C186.241 192.841 185.957 192.145 185.682 191.471L185.68 191.467C185.565 191.186 185.452 190.908 185.342 190.636C184.553 190.821 183.717 190.914 182.928 190.914C182.325 190.914 181.721 190.868 181.164 190.775C179.26 190.403 176.985 189.336 175.825 188.686C175.778 188.686 175.732 188.593 175.685 188.546C175.639 188.453 175.639 188.407 175.639 188.314C175.639 188.221 175.685 188.175 175.732 188.128C175.778 188.082 175.825 188.036 175.917 188.036C176.939 187.943 178.982 187.85 181.025 188.314C182.371 188.639 183.671 189.103 184.878 189.707C184.438 188.696 183.999 187.768 183.598 186.923L183.598 186.921L183.597 186.92L183.532 186.782L183.531 186.782C183.113 186.828 182.696 186.875 182.278 186.875C181.35 186.875 180.421 186.736 179.492 186.457C177.635 185.9 175.5 184.553 174.385 183.811C174.327 183.781 174.305 183.734 174.286 183.691C174.274 183.666 174.263 183.642 174.246 183.625V183.393C174.292 183.3 174.339 183.253 174.385 183.207C174.432 183.161 174.478 183.161 174.571 183.161C175.592 183.161 177.635 183.3 179.632 183.95C180.792 184.368 181.907 184.878 182.928 185.482C182.65 184.925 182.417 184.461 182.185 184.043C180.839 183.346 179.632 182.278 178.703 181.071C177.403 179.4 176.428 176.846 175.964 175.453C175.964 175.42 175.958 175.393 175.953 175.368C175.943 175.322 175.934 175.281 175.964 175.221C176.01 175.128 176.057 175.082 176.103 175.036C176.122 175.036 176.142 175.028 176.164 175.018C176.196 175.005 176.234 174.989 176.289 174.989C176.382 174.989 176.475 175.036 176.521 175.082C177.403 175.778 179.121 177.218 180.421 179.075C181.396 180.514 182.185 182.046 182.742 183.718V183.95C182.742 184.043 182.696 184.089 182.65 184.136C182.603 184.182 182.51 184.228 182.464 184.228C182.742 184.693 183.021 185.203 183.3 185.807C183.369 185.853 183.427 185.888 183.485 185.923C183.517 185.942 183.548 185.961 183.581 185.981C183.609 185.999 183.639 186.018 183.671 186.039C183.857 184.553 184.182 183.114 184.739 181.721C185.528 179.771 186.735 178.146 187.385 177.357C187.432 177.311 187.478 177.264 187.571 177.264C187.664 177.218 187.757 177.218 187.803 177.264L187.942 177.403C187.989 177.45 187.989 177.496 187.989 177.589C187.757 179.957 187.292 181.907 186.735 183.207C186.132 184.507 185.25 185.714 184.182 186.643C184.135 186.689 184.042 186.736 183.996 186.736H183.903C183.903 186.736 183.857 186.782 183.81 186.782C184.141 187.443 184.472 188.175 184.819 188.944L184.82 188.946C184.96 189.257 185.103 189.573 185.25 189.893H185.296C185.435 188.407 185.807 186.968 186.364 185.575C187.153 183.625 188.36 182 189.01 181.211C189.057 181.164 189.103 181.118 189.196 181.118C189.289 181.071 189.382 181.071 189.428 181.118L189.567 181.257C189.614 181.303 189.614 181.35 189.614 181.443C189.475 182.789 189.15 185.25 188.36 187.061C187.757 188.361 186.921 189.521 185.807 190.496C185.76 190.543 185.667 190.589 185.621 190.589H185.528C185.805 191.178 186.056 191.818 186.32 192.491L186.32 192.491C186.377 192.637 186.435 192.784 186.494 192.932C186.527 193.017 186.561 193.103 186.596 193.189C186.921 191.796 187.432 190.496 188.082 189.243C189.057 187.432 190.45 185.946 191.192 185.203C191.239 185.157 191.285 185.111 191.378 185.111C191.471 185.111 191.564 185.111 191.61 185.157C191.641 185.157 191.672 185.198 191.703 185.24C191.719 185.26 191.734 185.281 191.75 185.296V185.528C191.471 186.828 190.821 189.243 189.846 190.961C189.103 192.214 188.082 193.282 186.921 194.118C186.921 194.164 186.875 194.164 186.875 194.164L187.571 196.114C188.035 195 188.592 193.932 189.289 192.957C190.496 191.239 192.028 189.893 192.864 189.289C192.873 189.289 192.883 189.287 192.893 189.284C192.903 189.281 192.913 189.276 192.925 189.272C192.957 189.259 192.995 189.243 193.05 189.243C193.096 189.243 193.189 189.243 193.235 189.289C193.328 189.336 193.375 189.428 193.375 189.475C193.421 189.568 193.421 189.661 193.375 189.707C192.957 190.961 192.028 193.282 190.867 194.861C190.078 195.928 189.103 196.811 187.989 197.461C188.036 197.601 188.082 197.739 188.129 197.877C188.313 198.421 188.491 198.947 188.639 199.503H196.439C196.021 193.143 194.814 186.132 192.028 176.568H191.982C191.958 176.568 191.935 176.556 191.912 176.544C191.889 176.533 191.866 176.521 191.842 176.521C191.819 176.521 191.808 176.533 191.796 176.544C191.789 176.551 191.783 176.558 191.774 176.562C191.767 176.566 191.759 176.568 191.75 176.568C190.496 176.893 189.196 177.078 187.896 177.078C187.153 177.078 186.41 176.986 185.714 176.893C182.975 176.428 179.771 174.943 178.1 174.107C178.007 174.061 177.96 174.014 177.914 173.921C177.867 173.828 177.867 173.736 177.867 173.643C177.914 173.55 177.96 173.457 178.007 173.411C178.053 173.364 178.146 173.318 178.239 173.318C179.678 173.178 182.557 172.993 185.435 173.55C187.617 174.014 189.707 174.711 191.657 175.732C191.657 175.709 191.668 175.686 191.68 175.662C191.691 175.639 191.703 175.616 191.703 175.593L191.285 174.2C191.13 173.674 190.976 173.189 190.821 172.704C190.744 172.461 190.666 172.219 190.589 171.971V172.018C190.542 172.064 190.45 172.111 190.357 172.111C189.614 172.25 188.871 172.296 188.128 172.296C186.875 172.296 185.575 172.111 184.367 171.786C181.721 171.043 178.703 169.186 177.125 168.164C177.032 168.071 176.985 168.025 176.939 167.932C176.892 167.839 176.892 167.746 176.939 167.653C176.939 167.561 176.985 167.468 177.078 167.421C177.171 167.375 177.264 167.328 177.357 167.328C178.842 167.328 181.675 167.468 184.507 168.35C186.596 169.046 188.546 169.975 190.357 171.182C190.296 171.009 190.235 170.838 190.175 170.667C189.687 169.28 189.228 167.975 188.732 166.818C188.732 166.841 188.732 166.852 188.726 166.858C188.72 166.864 188.708 166.864 188.685 166.864C187.339 167.282 185.946 167.468 184.553 167.468C183.903 167.468 183.253 167.421 182.65 167.328C179.91 166.911 176.66 165.518 174.989 164.682C174.896 164.636 174.85 164.589 174.803 164.496C174.757 164.403 174.757 164.311 174.757 164.218C174.803 164.125 174.85 164.032 174.896 163.986C174.942 163.893 175.035 163.846 175.128 163.846C176.567 163.614 179.446 163.382 182.325 163.893C184.414 164.264 186.41 164.914 188.314 165.796C187.571 164.125 186.875 162.639 186.225 161.386C186.178 161.432 186.132 161.478 186.085 161.478C185.203 161.664 184.275 161.757 183.392 161.757C182.278 161.757 181.117 161.618 180.05 161.339C177.403 160.689 174.292 158.925 172.714 157.95C172.621 157.903 172.528 157.857 172.528 157.764C172.528 157.748 172.527 157.731 172.524 157.714C172.523 157.7 172.52 157.686 172.518 157.671C172.507 157.609 172.497 157.547 172.528 157.486C172.528 157.393 172.575 157.3 172.667 157.253C172.714 157.207 172.807 157.161 172.9 157.161C174.385 157.161 177.264 157.207 180.096 157.996C182.046 158.553 183.903 159.389 185.667 160.411C185.157 159.482 184.692 158.646 184.228 157.95C184.182 157.996 184.182 157.996 184.135 157.996H184.089C184.042 157.996 183.95 157.996 183.903 157.95C181.907 157.021 180.142 155.628 178.75 153.911C176.846 151.589 175.314 148.061 174.571 146.157C174.571 146.126 174.566 146.095 174.561 146.064C174.55 146.002 174.54 145.94 174.571 145.878C174.571 145.786 174.617 145.693 174.71 145.646C174.803 145.6 174.896 145.553 174.989 145.553C175.082 145.553 175.175 145.6 175.267 145.646C176.567 146.575 179.028 148.478 180.978 151.032C182.417 152.982 183.625 155.164 184.507 157.439V157.718C184.507 157.811 184.46 157.857 184.414 157.903L184.501 158.043L184.501 158.044C184.947 158.756 185.47 159.592 185.992 160.55C186.132 158.507 186.55 156.418 187.246 154.468C187.287 154.366 187.327 154.262 187.368 154.157L187.369 154.156L187.369 154.155C187.516 153.781 187.668 153.39 187.85 153.028C187.525 152.408 187.237 151.806 186.987 151.283L186.986 151.281L186.986 151.281C186.844 150.983 186.714 150.71 186.596 150.475C186.55 150.382 186.55 150.289 186.55 150.196C186.596 150.103 186.642 150.011 186.689 149.964C186.735 149.918 186.828 149.871 186.921 149.871C187.014 149.825 187.107 149.871 187.2 149.918C187.664 150.196 188.221 150.568 188.871 151.032C189.567 149.778 190.264 148.803 190.728 148.153C190.775 148.107 190.867 148.061 190.96 148.014H191.146C190.171 145.832 189.382 143.696 188.964 142.396C188.917 142.303 188.917 142.211 188.964 142.118C188.964 142.025 189.01 141.932 189.103 141.886C189.15 141.839 189.242 141.793 189.335 141.793C189.403 141.793 189.446 141.818 189.501 141.849C189.521 141.861 189.542 141.873 189.567 141.886C191.1 143.139 194.025 145.646 196.253 148.943C197.925 151.45 199.225 154.143 200.153 157.021C200.432 155.443 200.71 154.003 200.989 152.843C201.082 152.472 201.186 152.101 201.29 151.73L201.291 151.729C201.395 151.357 201.499 150.986 201.592 150.614C201.5 150.661 201.453 150.661 201.407 150.661C201.314 150.661 201.221 150.614 201.175 150.568C198.946 148.989 197.089 146.946 195.742 144.578C193.885 141.328 192.725 136.546 192.26 134.271C192.26 134.178 192.26 134.086 192.307 133.993C192.353 133.9 192.4 133.853 192.492 133.807C192.585 133.761 192.678 133.761 192.771 133.761C192.864 133.807 192.957 133.853 193.003 133.9C194.396 135.293 196.996 138.125 198.853 141.653C200.2 144.253 201.175 146.993 201.778 149.871C201.778 149.849 201.789 149.837 201.8 149.831C201.812 149.825 201.825 149.825 201.825 149.825C202.567 147.225 203.357 144.996 204.1 143.046C204.053 143.046 204.007 143.046 203.96 143L203.914 142.953C203.867 143 203.775 143 203.682 143C203.589 143 203.496 142.953 203.45 142.907C201.221 141.328 199.364 139.286 198.017 136.918C196.16 133.668 195 128.886 194.535 126.611C194.535 126.518 194.535 126.425 194.582 126.332C194.628 126.239 194.675 126.193 194.767 126.146C194.86 126.1 194.953 126.1 195.046 126.1C195.139 126.146 195.232 126.193 195.278 126.239C196.671 127.632 199.271 130.464 201.128 133.993C202.475 136.593 203.45 139.378 204.053 142.257C204.146 142.187 204.239 142.106 204.332 142.025C204.425 141.944 204.517 141.862 204.61 141.793C205.632 139.378 206.607 137.475 207.396 136.082H207.35C207.257 135.989 207.21 135.943 207.164 135.85V135.571C207.86 132.368 209.067 129.257 210.646 126.378C212.782 122.571 215.66 119.553 217.239 118.068C217.332 117.975 217.425 117.928 217.517 117.928C217.61 117.882 217.703 117.928 217.796 117.975C217.889 118.021 217.935 118.114 217.982 118.207C218.028 118.3 218.028 118.393 218.028 118.486C217.471 120.946 216.078 126.1 213.989 129.628C212.457 132.182 210.367 134.364 207.907 136.036C207.814 136.082 207.721 136.128 207.628 136.128C206.885 137.475 205.957 139.239 205.028 141.468C207.071 139.889 209.253 138.543 211.621 137.475C215.242 135.85 219.05 135.246 221 135.014C221.092 135.014 221.185 135.014 221.278 135.061C221.371 135.107 221.417 135.153 221.464 135.246C221.51 135.339 221.51 135.432 221.51 135.525C221.51 135.618 221.417 135.711 221.371 135.757C219.607 137.243 215.753 140.261 212.271 141.7C209.81 142.675 207.164 143.139 204.471 143.046C203.775 144.95 203.032 147.086 202.289 149.593C204.657 148.014 207.21 146.761 209.903 145.878C213.71 144.625 217.564 144.439 219.514 144.393C219.582 144.393 219.625 144.418 219.68 144.449C219.7 144.461 219.721 144.473 219.746 144.486C219.792 144.532 219.839 144.625 219.885 144.718C219.932 144.811 219.932 144.903 219.885 144.996C219.839 145.089 219.792 145.182 219.7 145.228C217.75 146.528 213.617 149.128 209.996 150.196C207.396 150.939 204.657 151.125 201.964 150.707C201.732 151.449 201.546 152.192 201.361 152.934L201.36 152.936C201.079 153.939 200.868 155.151 200.635 156.482C200.599 156.69 200.562 156.901 200.525 157.114C202.707 155.164 205.167 153.493 207.814 152.193C211.342 150.428 215.15 149.686 217.1 149.407C217.192 149.407 217.285 149.407 217.378 149.453C217.471 149.5 217.517 149.546 217.564 149.639C217.61 149.732 217.61 149.825 217.61 149.918C217.564 150.011 217.517 150.103 217.471 150.15C216.403 151.125 214.5 152.75 212.364 154.189C212.41 154.189 212.457 154.236 212.457 154.282L212.51 154.396L212.511 154.396C212.884 155.19 213.453 156.397 213.896 157.857C214.932 157.742 215.873 157.69 216.614 157.649L216.615 157.649C216.77 157.641 216.916 157.633 217.053 157.625C217.1 157.625 217.192 157.671 217.285 157.718C217.308 157.764 217.332 157.799 217.355 157.834C217.378 157.869 217.401 157.903 217.425 157.95C217.471 158.043 217.471 158.136 217.425 158.228C217.425 158.321 217.378 158.414 217.285 158.461C217.218 158.505 217.149 158.552 217.077 158.601C216.962 158.679 216.84 158.762 216.712 158.849C216.09 159.273 215.324 159.795 214.453 160.318C214.476 160.457 214.5 160.608 214.523 160.759L214.523 160.759C214.546 160.91 214.569 161.061 214.592 161.2C214.871 163.289 214.917 165.425 214.639 167.561C215.418 166.608 216.157 165.817 216.781 165.149L216.914 165.007C216.867 164.961 216.867 164.914 216.867 164.868C216.867 164.821 216.867 164.728 216.914 164.682C218.214 162.639 219.792 160.736 221.603 159.111C223.971 156.975 226.757 155.582 228.196 154.932H228.428C228.521 154.932 228.567 154.978 228.614 155.025C228.66 155.071 228.707 155.118 228.707 155.211C228.707 155.257 228.707 155.35 228.66 155.396C227.639 156.975 225.41 160.271 223.089 162.221C221.371 163.614 219.421 164.636 217.285 165.193C217.253 165.225 217.198 165.212 217.152 165.202ZM178.1 212.086C177.728 211.203 177.403 210.321 177.125 209.393H177.078V213.386C177.542 213.757 178.239 214.082 179.167 214.407C178.796 213.664 178.425 212.875 178.1 212.086ZM177.125 234.743C179.167 233.257 185.064 232.189 192.214 232.143H192.167V225.364C189.428 225.271 186.875 224.157 184.925 222.207C182.696 219.978 180.839 217.471 179.353 214.686C178.378 214.361 177.635 214.036 177.125 213.664V234.743ZM200.571 158.089C200.478 158.089 200.385 158.043 200.339 157.996C200.107 159.621 199.875 161.478 199.642 163.428C202.057 161.711 204.657 160.364 207.442 159.389C207.628 159.343 207.802 159.285 207.976 159.227C208.15 159.169 208.325 159.11 208.51 159.064C208.533 159.064 208.557 159.052 208.58 159.041C208.603 159.029 208.626 159.018 208.65 159.018H208.696C209.518 158.73 210.376 158.551 211.175 158.385L211.178 158.385C211.281 158.363 211.382 158.342 211.482 158.321C211.528 156.836 211.667 155.489 211.76 154.607C210.646 155.35 209.532 156 208.464 156.464C206.003 157.578 203.31 158.136 200.571 158.089ZM193.607 152.286C192.864 151.218 192.167 150.011 191.564 148.757C191.551 148.894 191.539 149.039 191.526 149.19C191.442 150.165 191.334 151.411 191.053 152.657C191.178 152.761 191.306 152.866 191.435 152.971C191.879 153.335 192.339 153.711 192.771 154.143C192.881 154.005 192.976 153.866 193.063 153.738C193.122 153.651 193.179 153.568 193.235 153.493C193.282 153.446 193.375 153.4 193.467 153.353C193.56 153.307 193.653 153.307 193.746 153.353C193.839 153.4 193.932 153.446 193.978 153.539C194.025 153.632 194.025 153.725 194.025 153.818C193.978 154.236 193.932 154.746 193.885 155.303C194.164 155.582 194.442 155.861 194.675 156.139C195.417 157.021 196.114 157.903 196.764 158.878H196.81C196.903 158.878 196.996 158.878 197.089 158.925C197.182 158.971 197.228 159.018 197.275 159.111C197.321 159.203 197.321 159.296 197.321 159.389C197.321 159.435 197.309 159.482 197.298 159.528C197.292 159.553 197.285 159.578 197.281 159.603C197.277 159.625 197.275 159.646 197.275 159.668C198.064 160.921 198.76 162.175 199.364 163.521C199.596 161.386 199.875 159.389 200.153 157.578V157.532L200.107 157.578C200.06 157.625 199.967 157.671 199.875 157.671C199.782 157.671 199.735 157.671 199.642 157.625C197.275 156.325 195.232 154.468 193.607 152.286ZM186.55 161.571C187.2 162.778 187.85 164.171 188.546 165.75C188.732 163.753 189.15 161.757 189.753 159.9C190.032 159.111 190.357 158.414 190.681 157.718C190.565 157.555 190.449 157.381 190.333 157.207L190.333 157.206C190.217 157.032 190.101 156.859 189.985 156.696C189.242 158.507 188.128 160.132 186.735 161.478C186.689 161.525 186.642 161.571 186.55 161.571ZM189.565 168.216L189.565 168.217L189.566 168.219C189.883 169.057 190.213 169.928 190.542 170.857C190.914 168.814 191.564 166.818 192.492 164.914C193.05 163.707 193.746 162.593 194.442 161.664L193.05 160.411C192.91 160.875 192.771 161.339 192.585 161.757C191.842 163.661 190.682 165.378 189.242 166.771C189.196 166.818 189.15 166.864 189.057 166.864C189.221 167.307 189.391 167.757 189.565 168.216ZM191.819 174.734C191.877 174.908 191.935 175.082 191.982 175.268C192.585 173.411 193.421 171.646 194.35 169.975C195.928 167.468 198.064 165.518 199.178 164.589C199.178 164.543 199.225 164.543 199.225 164.543C199.271 164.496 199.271 164.403 199.271 164.311C199.243 164.338 199.232 164.349 199.218 164.354C199.208 164.357 199.197 164.357 199.178 164.357C199.085 164.403 199.039 164.403 198.946 164.357C198.11 163.986 197.275 163.568 196.485 163.103C196.114 164.496 195.603 165.936 195 167.143C194.071 168.907 192.725 170.532 191.1 171.739C191.053 171.786 190.96 171.832 190.867 171.832C191.146 172.575 191.425 173.364 191.657 174.2C191.703 174.386 191.761 174.56 191.819 174.734ZM196.717 172.528C195.603 174.153 194.071 175.593 192.353 176.614C195.185 186.178 196.392 193.236 196.717 199.643H196.857C196.996 197.832 197.089 196.021 197.182 194.164C197.235 193.24 197.289 192.309 197.343 191.372L197.345 191.344L197.345 191.342C197.804 183.399 198.282 175.114 198.946 167.978C198.389 169.511 197.6 171.228 196.717 172.528ZM193.514 239.478C200.664 239.432 206.792 238.318 208.603 236.832V235.068C206.792 233.628 200.664 232.468 193.514 232.421V239.478ZM208.603 209.068C208.278 210.089 207.907 211.064 207.489 212.039C207.117 212.875 206.746 213.664 206.328 214.5C207.35 214.175 208.139 213.803 208.603 213.432V209.068ZM200.339 222.3L200.246 222.393C198.389 224.157 196.021 225.225 193.514 225.364V232.143C200.71 232.189 206.56 233.257 208.603 234.743V213.664C208.046 214.082 207.21 214.453 206.142 214.778C204.61 217.564 202.66 220.071 200.339 222.3ZM206.444 180.305C206.549 180.108 206.653 179.911 206.746 179.725L206.746 179.724C207.164 178.935 207.582 178.146 207.953 177.357H207.907C207.86 177.357 207.814 177.311 207.767 177.264C206.421 175.778 205.446 174.014 204.842 172.064C204.053 169.557 204.007 166.168 204.007 164.357C202.567 164.543 201.082 164.496 199.596 164.311H199.55V164.496C199.642 164.496 199.735 164.496 199.782 164.543C199.874 164.635 199.921 164.682 199.967 164.775C200.014 164.868 200.014 164.961 199.967 165.053C199.828 165.611 199.596 166.307 199.317 167.096C198.528 175.268 197.971 185.064 197.46 194.164C197.321 195.974 197.228 197.784 197.135 199.595L197.135 199.596H198.064C199.689 194.489 202.057 188.825 205.678 181.814C204.192 180.514 202.985 178.843 202.196 177.032C201.128 174.478 200.664 170.857 200.478 169.139C200.478 169.093 200.478 169 200.525 168.953L200.664 168.814H200.85C200.942 168.814 200.989 168.861 201.035 168.907C201.917 170.068 203.635 172.343 204.703 175.082C205.4 176.939 205.91 178.889 206.142 180.886C206.235 180.7 206.34 180.503 206.444 180.305ZM207.582 170.486C208.092 172.575 208.371 174.711 208.325 176.846C209.16 175.407 209.95 174.107 210.739 172.9C210.692 172.9 210.646 172.853 210.6 172.807C209.439 171.182 208.65 169.325 208.278 167.328C208.092 166.121 208 164.821 208.046 163.521C207.985 163.541 207.934 163.562 207.883 163.582L207.86 163.591C207.802 163.614 207.744 163.637 207.675 163.661C206.746 163.939 205.817 164.171 204.842 164.311C205.678 165.611 206.885 167.932 207.582 170.486ZM211.157 165.982C211.482 168.071 211.482 170.161 211.25 172.203C212.271 170.625 213.292 169.278 214.175 168.164C214.128 168.164 214.082 168.118 214.035 168.071C212.875 166.4 212.085 164.543 211.714 162.546C211.703 162.493 211.695 162.443 211.688 162.394C211.681 162.343 211.675 162.293 211.67 162.246C211.657 162.14 211.646 162.041 211.621 161.943C211.203 162.175 210.739 162.407 210.321 162.593C210.692 163.614 210.971 164.775 211.157 165.982Z" fill="url(#paint2_linear_1837_55797)" style="mix-blend-mode:overlay"/>
<path d="M177.217 236.903C179.137 238.309 185.181 239.433 192.214 239.478V239.292C185.06 239.237 179.251 238.172 177.217 236.693V236.903Z" fill="url(#paint3_linear_1837_55797)" style="mix-blend-mode:overlay"/>
<path d="M74.378 208.65H61.378V204.425H72.3351C72.3815 204.425 72.428 204.378 72.428 204.332V197.414C72.428 197.368 72.3815 197.321 72.3351 197.321H61.4708V193.607H74.2851C74.3315 193.607 74.378 193.561 74.378 193.514V186.318L72.5672 184.971L72.5208 184.925L51.9994 184.786H51.953C51.953 184.786 51.9065 184.786 51.9065 184.832V214.5C51.9065 214.546 51.9065 214.593 51.953 214.593L53.7172 215.939H53.7637L74.3315 216.125C74.3513 216.125 74.3626 216.125 74.3727 216.121C74.3791 216.119 74.3849 216.115 74.3921 216.109C74.4003 216.103 74.4101 216.093 74.4244 216.078C74.4244 216.078 74.4708 216.032 74.4708 215.986V208.743C74.4708 208.743 74.4244 208.65 74.378 208.65Z" fill="url(#paint4_linear_1837_55797)" style="mix-blend-mode:overlay"/>
<path fill-rule="evenodd" clip-rule="evenodd" d="M59.6137 123.361C63.5137 123.361 66.8565 124.521 69.4101 126.75C69.9208 127.168 70.4315 127.586 70.6637 128.05C73.4494 130.836 74.9351 134.828 74.9351 139.611C74.9351 146.018 71.8244 152.471 64.9994 154.561V182.65C64.9994 182.696 64.953 182.743 64.9065 182.743H57.3387C57.2922 182.743 57.2458 182.696 57.2458 182.65V181.164H55.9922C55.9458 181.164 55.8994 181.118 55.8994 181.071V171.786L53.5315 182.557C53.5315 182.603 53.4851 182.65 53.4387 182.65H47.4958C47.4494 182.65 47.403 182.603 47.403 182.557L47.078 181.025H46.1494C46.103 181.025 46.0565 180.978 46.0565 180.932L43.7351 170.346V182.557C43.7351 182.603 43.6887 182.65 43.6422 182.65H36.6315C36.5851 182.65 36.5387 182.603 36.5387 182.557V181.071H35.2851C35.2387 181.071 35.1922 181.025 35.1922 180.978V151.311C35.1922 151.264 35.2387 151.218 35.2851 151.218H45.9637C46.0101 151.218 46.0565 151.264 46.0565 151.311L46.3815 152.843H47.3565C47.403 152.843 47.4494 152.889 47.4494 152.936L50.1422 165.703L52.6958 153.4C52.6494 153.377 52.6146 153.353 52.5797 153.33C52.5449 153.307 52.5101 153.284 52.4637 153.261C47.403 150.939 44.3851 145.832 44.3851 138.961C44.3851 134.689 45.6851 131.021 47.9601 128.328C44.803 128.282 42.0637 127.493 39.8815 125.961C38.4887 125.264 37.2815 124.289 36.2601 123.082C33.9851 120.389 32.778 116.628 32.778 112.171C32.778 107.9 34.078 104 36.353 101.214C38.953 98.0569 42.7137 96.4319 47.2637 96.4319C48.053 96.4319 48.8422 96.4784 49.5387 96.5712V79.0212L32.8708 78.882H32.8244L31.0601 77.5355C31.0137 77.5355 31.0137 77.4891 31.0137 77.4427V47.7284L31.0601 47.6819H31.1065L40.6708 47.8677L35.703 20.0569V20.0105C35.703 19.9641 35.7494 19.9641 35.7494 19.9641H43.3637C43.4101 19.9641 43.4565 20.0105 43.4565 20.0105L45.2208 21.3569C45.2672 21.3569 45.2672 21.4034 45.2672 21.4034L46.753 31.1069L48.4708 20.0105C48.4708 19.9641 48.5172 19.9177 48.5637 19.9177H55.6208C55.6672 19.9177 55.7137 19.9641 55.7137 19.9641L57.478 21.3105C57.5244 21.3105 57.5244 21.3569 57.5244 21.3569V21.4034L59.103 31.1534L60.728 20.1034V20.0105C60.728 19.9641 60.7744 19.9177 60.8208 19.9177H68.0172L69.828 21.2641V21.3569L64.5815 50.5141C64.5815 50.5605 64.5351 50.6069 64.4887 50.6069H56.5494L54.7387 49.2605C54.712 49.2338 54.7006 49.2225 54.6958 49.2088C54.6922 49.1987 54.6922 49.1874 54.6922 49.1677L52.8815 37.8855L51.2565 47.8677H51.628L51.6744 47.9141L53.4851 49.2605V56.4569C53.4851 56.5034 53.4387 56.5498 53.3922 56.5498H40.578V60.2641H51.4422C51.4887 60.2641 51.5351 60.3105 51.5351 60.357V67.2748C51.5351 67.3212 51.4887 67.3677 51.4422 67.3677H40.4851V71.5927H49.5851V68.6212L49.6315 68.5748H57.803C57.8494 68.5748 57.8958 68.6212 57.8958 68.6212L59.7065 69.9677C59.753 69.9677 59.753 70.0141 59.753 70.0141V91.3712H70.5244C70.5708 91.3712 70.6172 91.4177 70.6172 91.4177L72.428 92.7641C72.4547 92.7908 72.466 92.8021 72.4708 92.8158C72.4744 92.8259 72.4744 92.8372 72.4744 92.8569V99.7748C72.4744 99.8212 72.428 99.8677 72.3815 99.8677H57.2458C59.6601 101.771 60.9601 104.464 61.3315 107.064C61.3315 107.087 61.3199 107.099 61.3083 107.111C61.2967 107.122 61.2851 107.134 61.2851 107.157C61.2584 107.184 61.2471 107.195 61.2334 107.2C61.2233 107.203 61.212 107.203 61.1922 107.203H54.6922C54.6458 107.203 54.5994 107.157 54.5994 107.111C54.553 106.878 54.4601 106.646 54.3672 106.414H53.3922C53.3458 106.414 53.2994 106.368 53.2994 106.321C52.928 104.928 52.278 103.861 51.3958 103.118C50.5601 102.746 49.5387 102.561 48.4244 102.561C43.8744 102.561 41.1351 106.368 41.1351 112.728C41.1351 114.957 41.553 119.414 44.3387 121.643C45.1744 122.014 46.1494 122.246 47.3101 122.246C50.3744 122.246 52.3708 120.761 53.3458 117.743C53.3458 117.696 53.3922 117.65 53.4387 117.65H59.9851C60.0315 117.65 60.078 117.65 60.078 117.696V117.789C60.0547 117.905 60.0199 118.01 59.9851 118.114C59.9503 118.219 59.9155 118.323 59.8922 118.439H61.2851C61.3315 118.439 61.378 118.439 61.378 118.486V118.578C61.0065 120.389 60.3101 122.014 59.3351 123.361H59.6137ZM61.0994 106.925C60.6815 104.371 59.3351 101.725 56.828 99.8677C58.6851 101.725 59.7065 104.046 60.0315 106.228C60.0315 106.252 60.0199 106.263 60.0083 106.275C59.9967 106.286 59.9851 106.298 59.9851 106.321C59.9584 106.348 59.9471 106.359 59.9334 106.364C59.9233 106.368 59.912 106.368 59.8922 106.368H54.6458C54.7387 106.553 54.7851 106.739 54.8315 106.925H61.0994ZM47.078 101.771C42.528 101.771 39.7887 105.578 39.7887 111.939C39.7887 114.307 40.2065 119.089 43.4565 121.178C41.1815 118.764 40.8565 114.818 40.8565 112.728C40.8565 106.228 43.6422 102.328 48.378 102.328C49.2137 102.328 49.9565 102.421 50.653 102.607C49.678 102.05 48.5172 101.771 47.078 101.771ZM41.8315 126.796C43.6887 127.678 45.8244 128.143 48.1922 128.143C48.3148 128.02 48.4244 127.898 48.5279 127.782C48.6204 127.678 48.7081 127.58 48.7958 127.493C48.1922 127.539 47.5887 127.586 46.9387 127.586C45.0815 127.586 43.3637 127.307 41.8315 126.796ZM36.7708 182.557H43.4565V172.018C43.4565 171.089 43.4565 170.161 43.4101 169.278L41.8315 161.989C42.0172 163.614 42.3422 167.143 42.3422 170.393V181.071C42.3422 181.118 42.2958 181.164 42.2494 181.164H36.7708V182.557ZM61.1458 118.718H59.8458C59.2887 120.575 58.453 122.2 57.2922 123.546C57.8494 123.453 58.453 123.407 59.0565 123.407C60.0315 122.107 60.728 120.528 61.1458 118.718ZM47.3565 153.075H46.5208L49.7244 168.211L50.1422 166.261L47.3565 153.075ZM56.3172 164.032C56.3172 163.521 56.3637 163.103 56.4101 162.686C56.4101 162.314 56.4565 162.036 56.503 161.803L52.3244 181.071C52.3244 181.118 52.278 181.164 52.2315 181.164H47.4494L47.728 182.557H53.4851L56.0387 170.811V170.021C56.0387 169.766 56.0503 169.522 56.0619 169.278C56.0735 169.035 56.0851 168.791 56.0851 168.536C56.0851 168.274 56.0973 168.013 56.1091 167.757C56.1205 167.514 56.1315 167.276 56.1315 167.05C56.1542 166.801 56.1658 166.563 56.1771 166.331C56.189 166.086 56.2006 165.848 56.2244 165.611C56.2244 165.053 56.2708 164.543 56.3172 164.032ZM57.6172 182.557H64.9065V154.7C64.5351 154.793 64.1637 154.886 63.7458 154.978V181.118C63.7458 181.164 63.6994 181.211 63.653 181.211H57.6172V182.557ZM55.3422 146.9C56.5494 148.014 58.0351 148.571 59.6137 148.478C65.3244 148.153 66.5315 143.093 66.5315 138.868C66.5315 134.736 64.7672 130.325 59.9851 129.628C55.2958 129.814 52.6958 133.296 52.6958 139.518C52.6958 140.539 52.7887 141.514 52.928 142.396C53.3922 144.253 54.228 145.832 55.3422 146.9Z" fill="url(#paint5_linear_1837_55797)" style="mix-blend-mode:overlay"/>
</g>
<defs>
<linearGradient id="paint0_linear_1837_55797" x1="31.0137" y1="129.811" x2="228.707" y2="129.811" gradientUnits="userSpaceOnUse">
<stop stop-color="#5D6AE8"/>
<stop offset="1" stop-color="#00D2FE"/>
</linearGradient>
<linearGradient id="paint1_linear_1837_55797" x1="31.0137" y1="129.811" x2="228.707" y2="129.811" gradientUnits="userSpaceOnUse">
<stop stop-color="#5D6AE8"/>
<stop offset="1" stop-color="#00D2FE"/>
</linearGradient>
<linearGradient id="paint2_linear_1837_55797" x1="31.0137" y1="129.811" x2="228.707" y2="129.811" gradientUnits="userSpaceOnUse">
<stop stop-color="#5D6AE8"/>
<stop offset="1" stop-color="#00D2FE"/>
</linearGradient>
<linearGradient id="paint3_linear_1837_55797" x1="31.0137" y1="129.811" x2="228.707" y2="129.811" gradientUnits="userSpaceOnUse">
<stop stop-color="#5D6AE8"/>
<stop offset="1" stop-color="#00D2FE"/>
</linearGradient>
<linearGradient id="paint4_linear_1837_55797" x1="31.0137" y1="129.811" x2="228.707" y2="129.811" gradientUnits="userSpaceOnUse">
<stop stop-color="#5D6AE8"/>
<stop offset="1" stop-color="#00D2FE"/>
</linearGradient>
<linearGradient id="paint5_linear_1837_55797" x1="31.0137" y1="129.811" x2="228.707" y2="129.811" gradientUnits="userSpaceOnUse">
<stop stop-color="#5D6AE8"/>
<stop offset="1" stop-color="#00D2FE"/>
</linearGradient>
<clipPath id="clip0_1837_55797">
<rect width="260" height="260" fill="white"/>
</clipPath>
</defs>
</svg>
