<svg width="260" height="260" viewBox="0 0 260 260" fill="none" xmlns="http://www.w3.org/2000/svg">
<path d="M158.798 32.9644H17.1663C15.3782 32.9644 13.9287 34.4139 13.9287 36.2019V131.196C13.9287 132.984 15.3782 134.434 17.1663 134.434H158.798C160.586 134.434 162.036 132.984 162.036 131.196V36.2019C162.036 34.4139 160.586 32.9644 158.798 32.9644Z" fill="white" stroke="black" stroke-width="0.5" stroke-miterlimit="10" stroke-linecap="round" stroke-linejoin="round"/>
<path d="M17.1878 32.9644H158.768C159.196 32.9635 159.621 33.0472 160.017 33.2106C160.414 33.374 160.774 33.6139 161.077 33.9165C161.381 34.2192 161.622 34.5788 161.786 34.9746C161.951 35.3705 162.036 35.7948 162.036 36.2235V41.8486H13.9287V36.2235C13.9294 35.3593 14.273 34.5307 14.884 33.9197C15.4951 33.3086 16.3237 32.965 17.1878 32.9644V32.9644Z" fill="#E5E5E5" stroke="black" stroke-width="0.5" stroke-linecap="round" stroke-linejoin="round"/>
<path d="M155.561 46.7825H19.897C18.4901 46.7825 17.3496 47.923 17.3496 49.3299V70.1952C17.3496 71.6021 18.4901 72.7426 19.897 72.7426H155.561C156.968 72.7426 158.109 71.6021 158.109 70.1952V49.3299C158.109 47.923 156.968 46.7825 155.561 46.7825Z" fill="#E5E5E5"/>
<path d="M126.151 50.2292H51.0973C49.7605 50.2292 48.6768 51.313 48.6768 52.6498V66.8738C48.6768 68.2106 49.7605 69.2943 51.0973 69.2943H126.151C127.488 69.2943 128.572 68.2106 128.572 66.8738V52.6498C128.572 51.313 127.488 50.2292 126.151 50.2292Z" fill="white"/>
<path d="M151.161 50.2268H133.731C132.75 50.2268 131.955 51.022 131.955 52.0029V67.5158C131.955 68.4967 132.75 69.2919 133.731 69.2919H151.161C152.142 69.2919 152.937 68.4967 152.937 67.5158V52.0029C152.937 51.022 152.142 50.2268 151.161 50.2268Z" fill="white"/>
<path fill-rule="evenodd" clip-rule="evenodd" d="M102.292 53.9275C102.366 53.8859 102.458 53.8888 102.53 53.9349L114.147 61.3796L122.84 57.9097C122.959 57.8621 123.094 57.9201 123.142 58.0392C123.189 58.1583 123.131 58.2934 123.012 58.3409L114.208 61.855C114.138 61.8828 114.06 61.8753 113.996 61.8349L102.396 54.4007L91.5235 60.4556C91.4627 60.4895 91.39 60.4943 91.3253 60.4687L85.79 58.2805L81.226 61.0127C81.1957 61.0308 81.1618 61.0418 81.1267 61.0448L74.5944 61.6081C74.5765 61.6096 74.5585 61.6091 74.5407 61.6065L66.5667 60.4346L52.0571 65.1649C51.9352 65.2047 51.8042 65.1381 51.7644 65.0162C51.7247 64.8943 51.7913 64.7632 51.9132 64.7235L66.4746 59.9763C66.5087 59.9651 66.5449 59.9621 66.5803 59.9673L74.5815 61.1432L81.0334 60.5868L85.6497 57.8233C85.7116 57.7863 85.7872 57.7801 85.8543 57.8066L91.3937 59.9965L102.292 53.9275Z" fill="#999999"/>
<path d="M142.445 67.2734C140.453 67.2711 138.543 66.4787 137.134 65.0701C135.725 63.6615 134.932 61.7516 134.93 59.7593C134.932 57.7668 135.725 55.8566 137.133 54.4477C138.542 53.0388 140.453 52.2462 142.445 52.2439C144.438 52.2462 146.348 53.0388 147.757 54.4477C149.166 55.8566 149.958 57.7668 149.96 59.7593C149.958 61.7516 149.165 63.6615 147.756 65.0701C146.347 66.4787 144.437 67.2711 142.445 67.2734ZM142.445 53.8132C140.869 53.8156 139.358 54.4428 138.244 55.5575C137.13 56.6722 136.503 58.1833 136.502 59.7593C136.504 61.3357 137.131 62.8469 138.245 63.9616C139.36 65.0763 140.871 65.7034 142.448 65.7054C144.024 65.7034 145.535 65.0763 146.65 63.9616C147.765 62.8469 148.392 61.3357 148.394 59.7593C148.392 58.1824 147.765 56.6706 146.649 55.5557C145.534 54.4409 144.022 53.8142 142.445 53.8132V53.8132Z" fill="#666666"/>
<path d="M142.445 67.2734C140.453 67.2711 138.543 66.4787 137.134 65.0701C135.725 63.6615 134.932 61.7516 134.93 59.7593C134.932 57.7668 135.725 55.8566 137.133 54.4477C138.542 53.0388 140.453 52.2462 142.445 52.2439C142.653 52.2439 142.852 52.3265 142.999 52.4735C143.147 52.6206 143.229 52.82 143.229 53.0279C143.229 53.131 143.209 53.2331 143.17 53.3283C143.13 53.4236 143.073 53.5102 143 53.5831C142.927 53.6561 142.841 53.7139 142.745 53.7534C142.65 53.7929 142.548 53.8132 142.445 53.8132C140.869 53.8156 139.358 54.4428 138.244 55.5575C137.13 56.6722 136.503 58.1833 136.502 59.7593C136.504 61.3357 137.131 62.8469 138.245 63.9616C139.36 65.0763 140.871 65.7034 142.448 65.7054C144.024 65.7034 145.535 65.0763 146.65 63.9616C147.765 62.8469 148.392 61.3357 148.394 59.7593C148.394 59.5513 148.476 59.3517 148.623 59.2045C148.77 59.0572 148.97 58.9744 149.178 58.974C149.386 58.974 149.586 59.0568 149.733 59.204C149.88 59.3513 149.963 59.551 149.963 59.7593C149.96 61.752 149.167 63.6623 147.758 65.071C146.348 66.4797 144.438 67.2718 142.445 67.2734V67.2734Z" fill="#999999"/>
<path d="M138.489 58.7633H138.48L138.018 59.017L137.948 58.743L138.529 58.4309H138.836V61.095H138.489V58.7633Z" fill="#666666"/>
<path d="M141.576 59.7301C141.576 60.6359 141.24 61.1345 140.65 61.1345C140.13 61.1345 139.777 60.6473 139.77 59.7669C139.762 58.8865 140.15 58.3828 140.694 58.3828C141.258 58.3828 141.576 58.8827 141.576 59.7301ZM140.13 59.7707C140.13 60.4634 140.343 60.8567 140.67 60.8567C141.04 60.8567 141.215 60.4266 141.215 59.7466C141.215 59.0907 141.047 58.6606 140.674 58.6606C140.361 58.6606 140.131 59.0463 140.131 59.7707H140.13Z" fill="#666666"/>
<path d="M141.876 60.4139C141.876 60.0777 142.076 59.8405 142.405 59.7009V59.6895C142.283 59.6426 142.178 59.5607 142.103 59.4542C142.028 59.3476 141.986 59.2211 141.983 59.0907C141.983 58.6695 142.339 58.3828 142.806 58.3828C143.322 58.3828 143.58 58.7063 143.58 59.0374C143.58 59.2632 143.469 59.5043 143.142 59.6603V59.673C143.473 59.7999 143.679 60.0371 143.679 60.3606C143.679 60.8237 143.28 61.1345 142.773 61.1345C142.211 61.1345 141.876 60.8034 141.876 60.4139ZM143.31 60.3974C143.31 60.0739 143.085 59.9191 142.725 59.8164C142.413 59.9064 142.245 60.1107 142.245 60.3644C142.243 60.4339 142.255 60.5031 142.281 60.5674C142.308 60.6318 142.347 60.6899 142.398 60.7378C142.448 60.7857 142.508 60.8225 142.573 60.8456C142.639 60.8687 142.709 60.8777 142.778 60.8719C143.099 60.8731 143.31 60.6727 143.31 60.3974V60.3974ZM142.319 59.0666C142.319 59.333 142.519 59.4764 142.826 59.5576C143.056 59.4802 143.232 59.3165 143.232 59.0742C143.235 59.015 143.226 58.9558 143.204 58.9006C143.182 58.8454 143.149 58.7955 143.106 58.7544C143.063 58.7132 143.012 58.6817 142.956 58.6621C142.9 58.6424 142.841 58.635 142.782 58.6403C142.723 58.6348 142.663 58.6418 142.607 58.6608C142.551 58.6797 142.499 58.7103 142.455 58.7505C142.412 58.7907 142.377 58.8396 142.354 58.894C142.33 58.9485 142.318 59.0073 142.319 59.0666V59.0666Z" fill="#666666"/>
<path d="M145.211 59.177C145.211 59.7377 144.916 60.0168 144.577 60.0168C144.238 60.0168 143.958 59.7504 143.954 59.2138C143.95 58.6771 144.245 58.3828 144.597 58.3828C144.965 58.3828 145.211 58.6695 145.211 59.177ZM144.236 59.2011C144.228 59.5411 144.355 59.7999 144.58 59.7999C144.804 59.7999 144.923 59.5461 144.923 59.1935C144.923 58.87 144.83 58.5997 144.58 58.5997C144.355 58.5997 144.241 58.8662 144.241 59.2036L144.236 59.2011ZM144.547 61.1345L146.112 58.3828H146.342L144.776 61.1345H144.547ZM146.943 60.2794C146.943 60.8402 146.649 61.1193 146.309 61.1193C145.969 61.1193 145.69 60.8528 145.686 60.32C145.682 59.7872 145.976 59.484 146.329 59.484C146.702 59.484 146.943 59.7707 146.943 60.2794V60.2794ZM145.969 60.3035C145.969 60.6435 146.096 60.9011 146.316 60.9011C146.537 60.9011 146.661 60.6473 146.661 60.2959C146.661 59.9724 146.566 59.7009 146.316 59.7009C146.092 59.7009 145.969 59.9648 145.969 60.3035V60.3035Z" fill="#666666"/>
<path d="M155.561 75.1846H19.897C18.4901 75.1846 17.3496 76.3251 17.3496 77.732V98.5973C17.3496 100.004 18.4901 101.145 19.897 101.145H155.561C156.968 101.145 158.109 100.004 158.109 98.5973V77.732C158.109 76.3251 156.968 75.1846 155.561 75.1846Z" fill="#E5E5E5"/>
<path d="M126.151 78.6316H51.0973C49.7605 78.6316 48.6768 79.7153 48.6768 81.0522V95.2761C48.6768 96.613 49.7605 97.6967 51.0973 97.6967H126.151C127.488 97.6967 128.572 96.613 128.572 95.2761V81.0522C128.572 79.7153 127.488 78.6316 126.151 78.6316Z" fill="white"/>
<path d="M151.161 78.6316H133.731C132.75 78.6316 131.955 79.4268 131.955 80.4077V95.9206C131.955 96.9015 132.75 97.6967 133.731 97.6967H151.161C152.142 97.6967 152.937 96.9015 152.937 95.9206V80.4077C152.937 79.4268 152.142 78.6316 151.161 78.6316Z" fill="white"/>
<path fill-rule="evenodd" clip-rule="evenodd" d="M124.621 87.028C124.656 87.1513 124.585 87.2798 124.462 87.3152L114.186 90.2648C114.17 90.2693 114.154 90.2721 114.138 90.2732L101.908 91.122C101.887 91.1235 101.865 91.1219 101.844 91.1174L91.4377 88.8982L85.5681 91.6061C85.5041 91.6356 85.4302 91.6345 85.3671 91.603L81.0615 89.4527L74.5944 90.0103C74.5765 90.0119 74.5585 90.0113 74.5407 90.0087L66.5667 88.8368L52.0571 93.5672C51.9352 93.6069 51.8042 93.5403 51.7644 93.4184C51.7247 93.2965 51.7913 93.1655 51.9132 93.1257L66.4746 88.3785C66.5087 88.3674 66.5449 88.3643 66.5803 88.3695L74.5815 89.5454L81.0868 88.9845C81.1294 88.9808 81.1722 88.989 81.2104 89.0081L85.4748 91.1378L91.3134 88.4442C91.3589 88.4232 91.41 88.4175 91.459 88.428L101.909 90.6565L114.081 89.8118L124.334 86.8689C124.457 86.8336 124.585 86.9048 124.621 87.028Z" fill="#999999"/>
<path d="M34.2575 99.3128C40.4155 99.3128 45.4075 94.3208 45.4075 88.1628C45.4075 82.0048 40.4155 77.0127 34.2575 77.0127C28.0995 77.0127 23.1074 82.0048 23.1074 88.1628C23.1074 94.3208 28.0995 99.3128 34.2575 99.3128Z" fill="#B3B3B3" stroke="black" stroke-width="0.5" stroke-miterlimit="10" stroke-linecap="round" stroke-linejoin="round"/>
<path d="M36.4367 85.6096C37.1313 85.5176 37.6046 84.7661 37.494 83.9312C37.3833 83.0964 36.7305 82.4942 36.036 82.5862C35.3414 82.6783 34.868 83.4297 34.9787 84.2646C35.0893 85.0995 35.7421 85.7017 36.4367 85.6096Z" fill="#666666" stroke="black" stroke-width="0.5" stroke-linecap="round" stroke-linejoin="round"/>
<path d="M31.8394 86.7735C31.6657 86.7391 31.5059 86.6548 31.3794 86.5308C31.253 86.4069 31.1655 86.2487 31.1276 86.0758C30.9729 85.4554 30.8942 85.0609 30.8942 85.0609C30.8942 85.0609 29.8387 83.4484 30.1444 81.6229C30.4502 79.7973 31.9789 79.6413 31.9789 79.6413C31.9789 79.6413 32.9469 78.3244 35.3104 78.809C37.6738 79.2936 38.5263 79.6654 38.6621 80.7843C38.7978 81.9032 36.8315 81.6229 36.8315 81.6229H32.3468L32.3684 84.1107C32.3684 84.1107 31.7924 83.6463 31.441 84.1551C31.0756 84.6841 31.8343 85.6901 31.8343 85.6901L31.8394 86.7735Z" fill="black" stroke="black" stroke-width="0.5" stroke-miterlimit="10" stroke-linecap="round" stroke-linejoin="round"/>
<path d="M31.7939 85.561L32.0172 91.3954L35.676 90.8246L35.3931 85.0649L31.7939 85.561Z" fill="#E5E5E5" stroke="black" stroke-width="0.5" stroke-miterlimit="10" stroke-linecap="round" stroke-linejoin="round"/>
<path d="M41.3771 96.7438C41.0714 96.0016 40.2062 93.3451 39.1684 92.6042C37.8376 91.654 36.9103 91.7593 36.0273 91.2404C35.9785 91.2117 35.9381 91.1707 35.9101 91.1215C35.882 91.0723 35.8673 91.0167 35.8674 90.9601L35.856 89.5646L31.7964 88.7019L31.7329 89.6597C31.7272 89.7518 31.6985 89.841 31.6496 89.9192C31.6006 89.9974 31.5329 90.0621 31.4526 90.1076L27.9004 92.1247C28.1347 92.0588 28.3777 92.0292 28.621 92.0371C29.2257 92.0574 29.7992 92.3102 30.2221 92.743C30.6449 93.1758 30.8844 93.755 30.8906 94.36L30.1852 98.5465C31.5755 99.0806 33.0565 99.3391 34.5455 99.3077C36.8062 99.2519 38.7942 98.3499 38.7942 98.3499C38.7942 98.3499 40.5665 97.4986 41.3771 96.7438Z" fill="white" stroke="black" stroke-width="0.5" stroke-miterlimit="10" stroke-linecap="round" stroke-linejoin="round"/>
<path d="M30.8819 94.364C30.9796 93.1106 29.8987 91.9663 28.6415 91.9663C26.7601 91.9663 26.141 94.293 25.8213 95.4551C27.6063 97.5699 30.1765 98.5467 30.1765 98.5467C30.1765 98.5467 30.7398 96.168 30.8819 94.364Z" fill="white" stroke="black" stroke-width="0.5" stroke-miterlimit="10" stroke-linecap="round" stroke-linejoin="round"/>
<path d="M32.3698 84.1145L32.2506 81.6381L36.8316 81.6267C36.8316 81.6267 37.032 84.2782 36.9699 85.2436C36.9077 86.209 36.1402 87.4168 34.7574 87.2404C33.3746 87.0641 32.6489 86.5845 32.0209 85.9109C31.3929 85.2373 31.2116 84.3391 31.5021 84.0803C31.9347 83.6971 32.3698 84.1145 32.3698 84.1145Z" fill="#E5E5E5" stroke="black" stroke-width="0.5" stroke-miterlimit="10" stroke-linecap="round" stroke-linejoin="round"/>
<path d="M33.7656 83.0502L34.5052 82.8066" stroke="black" stroke-width="0.5" stroke-linecap="round" stroke-linejoin="round"/>
<path d="M35.9512 82.7229L36.6274 83.1542" stroke="black" stroke-width="0.5" stroke-linecap="round" stroke-linejoin="round"/>
<path d="M35.3258 83.3508C35.3258 83.3508 35.6493 84.041 35.5693 84.3467C35.4894 84.6525 35.0391 84.5408 35.0391 84.5408" stroke="black" stroke-width="0.5" stroke-linecap="round" stroke-linejoin="round"/>
<path d="M34.2574 83.791C34.3948 83.791 34.5061 83.6797 34.5061 83.5424C34.5061 83.405 34.3948 83.2937 34.2574 83.2937C34.1201 83.2937 34.0088 83.405 34.0088 83.5424C34.0088 83.6797 34.1201 83.791 34.2574 83.791Z" fill="black"/>
<path d="M36.1373 83.7861C36.2746 83.7861 36.386 83.6748 36.386 83.5375C36.386 83.4001 36.2746 83.2888 36.1373 83.2888C36 83.2888 35.8887 83.4001 35.8887 83.5375C35.8887 83.6748 36 83.7861 36.1373 83.7861Z" fill="black"/>
<path d="M34.51 84.9277C34.51 84.9277 34.4808 85.5862 35.0428 85.6978" stroke="black" stroke-width="0.5" stroke-linecap="round" stroke-linejoin="round"/>
<path d="M37.0545 84.1882C37.5302 84.4813 37.992 85.0763 37.7281 85.6497C37.4845 86.1724 36.8248 86.4845 36.2666 86.4413" stroke="black" stroke-width="0.5" stroke-linecap="round" stroke-linejoin="round"/>
<path d="M36.3605 86.4064C36.3654 86.2516 36.1809 86.1202 35.9484 86.1129C35.7159 86.1056 35.5234 86.2252 35.5186 86.3799C35.5137 86.5347 35.6982 86.6661 35.9307 86.6734C36.1632 86.6807 36.3557 86.5612 36.3605 86.4064Z" fill="#666666" stroke="black" stroke-width="0.5" stroke-linecap="round" stroke-linejoin="round"/>
<path d="M31.5656 86.102C32.2602 86.01 32.7335 85.2586 32.6229 84.4237C32.5122 83.5888 31.8594 82.9866 31.1649 83.0787C30.4703 83.1707 29.9969 83.9222 30.1076 84.757C30.2182 85.5919 30.871 86.1941 31.5656 86.102Z" fill="#666666" stroke="black" stroke-width="0.5" stroke-linecap="round" stroke-linejoin="round"/>
<path d="M38.785 98.3551C38.785 98.3551 38.1507 95.5857 37.8057 94.3462" stroke="black" stroke-width="0.5" stroke-linecap="round" stroke-linejoin="round"/>
<path d="M142.445 95.6795C140.453 95.6771 138.542 94.8846 137.133 93.4756C135.725 92.0667 134.932 90.1565 134.93 88.164C134.931 86.1707 135.723 84.2592 137.132 82.8492C138.541 81.4392 140.452 80.6459 142.445 80.6436C144.438 80.6459 146.348 81.4385 147.757 82.8474C149.166 84.2563 149.958 86.1665 149.96 88.159C149.959 90.1523 149.168 92.0638 147.758 93.4738C146.349 94.8839 144.438 95.6771 142.445 95.6795V95.6795ZM142.445 82.2179C140.869 82.2203 139.358 82.8476 138.244 83.9623C137.13 85.0769 136.503 86.588 136.502 88.164C136.504 89.7404 137.131 91.2517 138.245 92.3664C139.36 93.481 140.871 94.1081 142.448 94.1101C144.024 94.1081 145.535 93.481 146.65 92.3664C147.765 91.2517 148.392 89.7404 148.394 88.164C148.392 86.5871 147.765 85.0753 146.649 83.9605C145.534 82.8456 144.022 82.2189 142.445 82.2179V82.2179Z" fill="#666666"/>
<path d="M142.445 95.6795C140.453 95.6772 138.542 94.8846 137.133 93.4757C135.725 92.0668 134.932 90.1566 134.93 88.1641C134.93 88.061 134.95 87.959 134.989 87.8638C135.029 87.7686 135.087 87.6821 135.16 87.6093C135.233 87.5364 135.319 87.4787 135.415 87.4394C135.51 87.4001 135.612 87.3799 135.715 87.3801C135.923 87.3801 136.122 87.4627 136.269 87.6097C136.416 87.7567 136.499 87.9562 136.499 88.1641C136.501 89.7405 137.128 91.2517 138.243 92.3664C139.357 93.4811 140.869 94.1082 142.445 94.1102C144.021 94.1082 145.533 93.4811 146.647 92.3664C147.762 91.2517 148.389 89.7405 148.391 88.1641C148.39 86.5876 147.763 85.0762 146.648 83.9614C145.533 82.8467 144.022 82.2197 142.445 82.218C142.237 82.2177 142.038 82.1348 141.891 81.9875C141.744 81.8403 141.661 81.6408 141.661 81.4327C141.661 81.2248 141.744 81.0254 141.891 80.8783C142.038 80.7313 142.237 80.6487 142.445 80.6487C144.438 80.651 146.348 81.4436 147.757 82.8525C149.166 84.2614 149.958 86.1716 149.96 88.1641C149.958 90.1566 149.166 92.0668 147.757 93.4757C146.348 94.8846 144.438 95.6772 142.445 95.6795V95.6795Z" fill="#999999"/>
<path d="M155.561 103.586H19.897C18.4901 103.586 17.3496 104.726 17.3496 106.133V126.998C17.3496 128.405 18.4901 129.546 19.897 129.546H155.561C156.968 129.546 158.109 128.405 158.109 126.998V106.133C158.109 104.726 156.968 103.586 155.561 103.586Z" fill="#E5E5E5"/>
<path d="M126.151 107.034H51.0973C49.7605 107.034 48.6768 108.118 48.6768 109.454V123.678C48.6768 125.015 49.7605 126.099 51.0973 126.099H126.151C127.488 126.099 128.572 125.015 128.572 123.678V109.454C128.572 108.118 127.488 107.034 126.151 107.034Z" fill="white"/>
<path d="M151.161 107.034H133.731C132.75 107.034 131.955 107.829 131.955 108.81V124.323C131.955 125.304 132.75 126.099 133.731 126.099H151.161C152.142 126.099 152.937 125.304 152.937 124.323V108.81C152.937 107.829 152.142 107.034 151.161 107.034Z" fill="white"/>
<path fill-rule="evenodd" clip-rule="evenodd" d="M112.974 109.353C113.004 109.343 113.036 109.338 113.068 109.34L125.85 110.111C125.978 110.118 126.076 110.228 126.068 110.356C126.06 110.484 125.95 110.582 125.822 110.574L113.088 109.806L103.62 113.27L91.4994 118.287C91.4437 118.31 91.3813 118.31 91.3253 118.288L85.79 116.1L81.226 118.832C81.1957 118.85 81.1618 118.861 81.1267 118.864L74.5944 119.427C74.5765 119.429 74.5585 119.428 74.5407 119.426L66.5667 118.254L52.0571 122.984C51.9352 123.024 51.8042 122.957 51.7644 122.836C51.7247 122.714 51.7913 122.583 51.9132 122.543L66.4746 117.796C66.5087 117.785 66.5449 117.781 66.5803 117.787L74.5815 118.963L81.0334 118.406L85.6497 115.643C85.7116 115.606 85.7872 115.6 85.8543 115.626L91.4086 117.822L103.447 112.839C103.45 112.838 103.453 112.837 103.456 112.836L112.974 109.353Z" fill="#999999"/>
<path d="M142.445 124.082C140.453 124.079 138.542 123.287 137.133 121.878C135.725 120.469 134.932 118.559 134.93 116.566C134.932 114.574 135.725 112.664 137.134 111.256C138.543 109.847 140.453 109.055 142.445 109.052C144.437 109.055 146.347 109.847 147.756 111.256C149.165 112.664 149.958 114.574 149.96 116.566C149.958 118.559 149.166 120.469 147.757 121.878C146.348 123.287 144.438 124.079 142.445 124.082V124.082ZM142.445 110.62C140.869 110.623 139.359 111.25 138.244 112.365C137.13 113.48 136.504 114.99 136.502 116.566C136.504 118.142 137.131 119.652 138.245 120.766C139.359 121.88 140.87 122.506 142.445 122.509C144.022 122.507 145.533 121.88 146.648 120.765C147.763 119.651 148.39 118.139 148.391 116.563C148.388 114.987 147.761 113.477 146.646 112.363C145.531 111.249 144.021 110.622 142.445 110.62V110.62Z" fill="#666666"/>
<path d="M142.445 124.082C140.453 124.079 138.542 123.287 137.133 121.878C135.725 120.469 134.932 118.559 134.93 116.566C134.932 114.574 135.725 112.664 137.134 111.256C138.543 109.847 140.453 109.055 142.445 109.052C142.548 109.052 142.65 109.072 142.745 109.112C142.841 109.151 142.927 109.209 143 109.282C143.073 109.354 143.13 109.441 143.17 109.536C143.209 109.631 143.229 109.733 143.229 109.836C143.229 110.044 143.147 110.244 142.999 110.391C142.852 110.538 142.653 110.62 142.445 110.62C140.869 110.623 139.359 111.25 138.244 112.365C137.13 113.48 136.504 114.99 136.502 116.566C136.504 118.142 137.131 119.652 138.245 120.766C139.359 121.88 140.87 122.506 142.445 122.509C144.022 122.507 145.533 121.88 146.648 120.765C147.763 119.651 148.39 118.139 148.391 116.563C148.391 116.355 148.474 116.155 148.621 116.008C148.768 115.861 148.967 115.779 149.175 115.779C149.383 115.779 149.583 115.861 149.73 116.008C149.877 116.155 149.96 116.355 149.96 116.563C149.959 118.556 149.167 120.467 147.758 121.877C146.349 123.286 144.438 124.079 142.445 124.082V124.082Z" fill="#999999"/>
<path d="M143.579 87.125H142.564L142.461 87.8088C142.533 87.7974 142.606 87.7919 142.679 87.7923C142.88 87.788 143.078 87.8375 143.253 87.9356C143.372 88.0045 143.47 88.1045 143.537 88.2249C143.604 88.3453 143.638 88.4817 143.633 88.6194C143.633 89.1396 143.22 89.529 142.641 89.529C142.409 89.5341 142.18 89.4776 141.978 89.3654L142.068 89.0901C142.242 89.1863 142.438 89.2374 142.637 89.2385C142.977 89.2385 143.272 89.0165 143.272 88.66C143.272 88.3035 143.038 88.0701 142.51 88.0701C142.387 88.0713 142.263 88.0811 142.141 88.0993L142.314 86.8218H143.582L143.579 87.125Z" fill="#666666"/>
<path d="M145.291 87.5718C145.291 88.1325 144.996 88.4103 144.657 88.4103C144.318 88.4103 144.038 88.1452 144.034 87.6085C144.03 87.0719 144.325 86.7763 144.677 86.7763C145.045 86.7763 145.291 87.063 145.291 87.5718ZM144.316 87.5959C144.308 87.9358 144.435 88.1934 144.66 88.1934C144.884 88.1934 145.003 87.9397 145.003 87.587C145.003 87.2635 144.91 86.9933 144.66 86.9933C144.435 86.9933 144.316 87.2597 144.316 87.5959V87.5959ZM144.622 89.5242L146.187 86.7712H146.417L144.851 89.5242H144.622ZM147.018 88.6679C147.018 89.2286 146.724 89.5077 146.384 89.5077C146.044 89.5077 145.765 89.2413 145.761 88.7085C145.757 88.1756 146.051 87.8737 146.404 87.8737C146.778 87.875 147.023 88.1655 147.023 88.6729L147.018 88.6679ZM146.044 88.692C146.044 89.032 146.171 89.2908 146.391 89.2908C146.612 89.2908 146.736 89.037 146.736 88.6843C146.736 88.3608 146.641 88.0906 146.391 88.0906C146.172 88.0957 146.049 88.3621 146.049 88.697L146.044 88.692Z" fill="#666666"/>
<path d="M138.405 87.1796H138.396L137.934 87.4333L137.864 87.1592L138.445 86.8472H138.752V89.5113H138.405V87.1796Z" fill="#666666"/>
<path d="M141.498 88.1464C141.498 89.0522 141.162 89.552 140.572 89.552C140.052 89.552 139.699 89.0636 139.692 88.1832C139.684 87.3027 140.072 86.7991 140.616 86.7991C141.178 86.7991 141.498 87.2989 141.498 88.1464ZM140.052 88.187C140.052 88.8796 140.265 89.2729 140.592 89.2729C140.961 89.2729 141.137 88.8429 141.137 88.1629C141.137 87.507 140.969 87.0769 140.596 87.0769C140.281 87.0769 140.054 87.4626 140.054 88.187H140.052Z" fill="#666666"/>
<path d="M34.3786 127.492C40.5366 127.492 45.5286 122.5 45.5286 116.342C45.5286 110.184 40.5366 105.192 34.3786 105.192C28.2206 105.192 23.2285 110.184 23.2285 116.342C23.2285 122.5 28.2206 127.492 34.3786 127.492Z" fill="#B3B3B3" stroke="black" stroke-width="0.5" stroke-miterlimit="10" stroke-linecap="round" stroke-linejoin="round"/>
<path d="M37.2213 113.766C38.0335 113.659 38.588 112.781 38.4598 111.804C38.3315 110.828 37.5691 110.122 36.7568 110.229C35.9446 110.336 35.3901 111.214 35.5183 112.19C35.6466 113.167 36.409 113.872 37.2213 113.766Z" fill="#666666" stroke="black" stroke-width="0.5" stroke-linecap="round" stroke-linejoin="round"/>
<path d="M42.5352 123.904C42.5123 123.426 42.4469 122.95 42.3398 122.483C42.0691 121.505 41.5555 120.611 40.8466 119.885C39.7746 118.776 38.5707 118.504 37.1536 118.065C34.7838 117.331 32.3023 117.647 29.9376 118.296C28.3163 118.74 27.1085 119.31 26.0327 120.639C25.6082 121.136 25.2338 121.675 24.915 122.246C25.3083 122.939 26.6252 124.607 28.0207 125.525C30.2649 127.002 32.3632 127.496 34.5643 127.489C38.6582 127.479 41.7207 124.952 42.5352 123.904Z" fill="#4C4C4C" stroke="black" stroke-width="0.5" stroke-linecap="round" stroke-linejoin="round"/>
<path d="M40.4659 124.613L40.4316 125.707" stroke="black" stroke-width="0.5" stroke-linecap="round" stroke-linejoin="round"/>
<path d="M39.6489 119.854C39.4877 120.98 36.953 126.721 34.7532 127.138C32.5533 127.555 30.2432 120.186 29.0278 119.684C28.3952 119.425 27.6896 119.407 27.0449 119.634L30.7088 116.806C30.7088 116.806 29.8461 111.96 30.2571 110.004C30.6682 108.048 31.9304 106.605 33.7344 106.525C35.5385 106.445 36.9682 107.388 37.5163 108.72C38.0643 110.052 37.8727 113.229 37.6368 114.747C37.5065 115.658 37.1904 116.532 36.7081 117.315C36.7081 117.315 37.8499 117.678 39.0792 118.203C39.8315 118.523 39.7351 119.246 39.6489 119.854Z" fill="white" stroke="black" stroke-width="0.5" stroke-linecap="round" stroke-linejoin="round"/>
<path d="M34.3421 115.785C33.5911 115.567 33.0063 114.992 32.5305 114.389C32.1717 113.942 31.8553 113.462 31.5854 112.956C31.4322 112.692 31.2974 112.418 31.182 112.136C31.0551 111.768 30.9891 111.385 31.3976 111.162C31.5028 111.106 31.6208 111.079 31.7398 111.082C31.8589 111.086 31.975 111.121 32.0764 111.184C32.0044 110.763 32.0995 110.332 32.3415 109.981C32.58 109.633 34.0795 109.093 34.5933 109C35.0691 108.913 36.6447 109.406 36.8325 109.687C37.1946 110.262 37.3717 110.935 37.3399 111.615C37.312 112.707 37.1243 113.81 36.6511 114.802C36.1778 115.794 35.3913 116.084 34.3421 115.785Z" fill="#E5E5E5" stroke="black" stroke-width="0.5" stroke-linecap="round" stroke-linejoin="round"/>
<path d="M37.1874 110.312C37.1874 110.312 36.2245 109.744 34.777 109.919C33.3295 110.094 31.8895 112.026 31.8895 112.026C31.8895 112.026 31.6904 108.9 34.1731 108.419C36.3856 107.993 37.1874 110.312 37.1874 110.312Z" fill="black" stroke="black" stroke-width="0.5" stroke-linecap="round" stroke-linejoin="round"/>
<path d="M37.0523 116.706C36.7838 117.333 36.3208 117.858 35.7316 118.203C34.1001 119.104 32.3926 117.895 32.3926 117.895" stroke="black" stroke-width="0.5" stroke-linecap="round" stroke-linejoin="round"/>
<path d="M34.3779 113.813C34.5111 114.03 34.6697 114.273 34.9311 114.355C35.0591 114.396 35.1957 114.402 35.3269 114.373C35.4624 114.339 35.5852 114.267 35.6804 114.164" stroke="black" stroke-width="0.5" stroke-linecap="round" stroke-linejoin="round"/>
<path d="M35.375 111.502C35.474 111.729 35.5412 111.959 35.6288 112.19C35.6604 112.269 35.6805 112.352 35.6884 112.437C35.6962 112.523 35.6697 112.609 35.6148 112.675C35.5146 112.785 35.3446 112.781 35.1974 112.769C35.1725 112.77 35.1481 112.762 35.1289 112.746" stroke="black" stroke-width="0.5" stroke-linecap="round" stroke-linejoin="round"/>
<path d="M33.543 111.19C33.792 111.092 34.0461 111.007 34.3042 110.936" stroke="black" stroke-width="0.5" stroke-linecap="round" stroke-linejoin="round"/>
<path d="M35.9678 110.717L36.7049 111.064" stroke="black" stroke-width="0.5" stroke-linecap="round" stroke-linejoin="round"/>
<path d="M33.7197 112.026C33.8669 111.772 34.2602 111.673 34.4809 111.899" stroke="black" stroke-width="0.5" stroke-linecap="round" stroke-linejoin="round"/>
<path d="M35.9141 111.874C35.9508 111.812 36.0006 111.759 36.0601 111.719C36.1195 111.679 36.187 111.652 36.2579 111.641C36.3291 111.632 36.4014 111.639 36.4698 111.661C36.5382 111.683 36.6009 111.719 36.6537 111.768" stroke="black" stroke-width="0.5" stroke-linecap="round" stroke-linejoin="round"/>
<path d="M38.0287 112.239C38.526 112.664 38.9523 113.443 38.5425 114.053C38.1619 114.613 37.3461 114.855 36.708 114.703" stroke="black" stroke-width="0.5" stroke-linecap="round" stroke-linejoin="round"/>
<path d="M36.8151 114.68C36.8488 114.502 36.6591 114.316 36.3913 114.265C36.1235 114.215 35.8791 114.318 35.8453 114.496C35.8115 114.675 36.0013 114.86 36.2691 114.911C36.5369 114.962 36.7813 114.858 36.8151 114.68Z" fill="#666666" stroke="black" stroke-width="0.5" stroke-linecap="round" stroke-linejoin="round"/>
<path d="M31.657 114.237C32.4703 114.129 33.0246 113.249 32.895 112.271C32.7653 111.293 32.0009 110.587 31.1876 110.695C30.3742 110.803 29.8199 111.683 29.9495 112.661C30.0792 113.639 30.8436 114.345 31.657 114.237Z" fill="#666666" stroke="black" stroke-width="0.5" stroke-linecap="round" stroke-linejoin="round"/>
<path d="M25.2715 112.921C27.5766 112.921 29.4453 111.053 29.4453 108.748C29.4453 106.442 27.5766 104.574 25.2715 104.574C22.9663 104.574 21.0977 106.442 21.0977 108.748C21.0977 111.053 22.9663 112.921 25.2715 112.921Z" fill="#4C4C4C" stroke="black" stroke-width="0.5" stroke-miterlimit="10" stroke-linecap="round" stroke-linejoin="round"/>
<path d="M22.5306 108.854C22.569 108.72 22.6483 108.601 22.7576 108.514C22.8426 108.433 22.9238 108.348 23.0114 108.26C23.0531 108.214 23.1041 108.177 23.161 108.152C23.2179 108.127 23.2795 108.114 23.3418 108.114C23.4041 108.114 23.4657 108.127 23.5227 108.152C23.5796 108.177 23.6306 108.214 23.6723 108.26C23.9371 108.524 24.2018 108.789 24.4665 109.055C24.4818 109.073 24.4958 109.093 24.5084 109.113C24.5312 109.084 24.5426 109.065 24.5578 109.05L26.8617 106.746C26.904 106.695 26.9568 106.654 27.0165 106.626C27.0763 106.598 27.1415 106.584 27.2074 106.584C27.2733 106.584 27.3385 106.598 27.3982 106.626C27.458 106.654 27.5108 106.695 27.5531 106.746L27.8588 107.053C27.9074 107.095 27.9464 107.146 27.9731 107.205C27.9998 107.263 28.0136 107.326 28.0136 107.39C28.0136 107.454 27.9998 107.518 27.9731 107.576C27.9464 107.634 27.9074 107.686 27.8588 107.728L26.0828 109.504L24.8382 110.748C24.768 110.827 24.6719 110.878 24.5673 110.893C24.4626 110.907 24.3563 110.884 24.2673 110.827C24.2281 110.8 24.1916 110.769 24.1582 110.734C23.6871 110.263 23.2165 109.793 22.7462 109.324C22.6423 109.236 22.5668 109.12 22.5293 108.99L22.5306 108.854Z" fill="white" stroke="black" stroke-width="0.5" stroke-miterlimit="10" stroke-linecap="round" stroke-linejoin="round"/>
<path d="M25.2715 85C27.5766 85 29.4453 83.1313 29.4453 80.8262C29.4453 78.521 27.5766 76.6523 25.2715 76.6523C22.9663 76.6523 21.0977 78.521 21.0977 80.8262C21.0977 83.1313 22.9663 85 25.2715 85Z" fill="#4C4C4C" stroke="black" stroke-width="0.5" stroke-miterlimit="10" stroke-linecap="round" stroke-linejoin="round"/>
<path d="M22.5306 80.9316C22.5694 80.7975 22.6487 80.6788 22.7576 80.5916C22.8426 80.5104 22.9238 80.4254 23.0114 80.3378C23.0531 80.2916 23.1041 80.2547 23.161 80.2294C23.2179 80.2041 23.2795 80.191 23.3418 80.191C23.4041 80.191 23.4657 80.2041 23.5227 80.2294C23.5796 80.2547 23.6306 80.2916 23.6723 80.3378L24.4665 81.132C24.4818 81.1505 24.4958 81.17 24.5084 81.1904C24.5312 81.1612 24.5426 81.1422 24.5578 81.1269L26.8617 78.8231C26.904 78.7725 26.9568 78.7317 27.0165 78.7038C27.0763 78.6759 27.1415 78.6614 27.2074 78.6614C27.2733 78.6614 27.3385 78.6759 27.3982 78.7038C27.458 78.7317 27.5108 78.7725 27.5531 78.8231L27.8588 79.1301C27.9074 79.172 27.9464 79.2239 27.9731 79.2823C27.9998 79.3406 28.0136 79.404 28.0136 79.4682C28.0136 79.5324 27.9998 79.5958 27.9731 79.6541C27.9464 79.7125 27.9074 79.7644 27.8588 79.8063L26.0828 81.5824L24.8382 82.8269C24.768 82.9058 24.6719 82.957 24.5673 82.9714C24.4626 82.9858 24.3563 82.9625 24.2673 82.9056C24.2281 82.8782 24.1916 82.8472 24.1582 82.813C23.6871 82.3419 23.2165 81.8716 22.7462 81.4022C22.6423 81.3151 22.5668 81.1989 22.5293 81.0686L22.5306 80.9316Z" fill="white" stroke="black" stroke-width="0.5" stroke-miterlimit="10" stroke-linecap="round" stroke-linejoin="round"/>
<path d="M34.2995 71.224C40.4575 71.224 45.4495 66.2319 45.4495 60.0739C45.4495 53.9159 40.4575 48.9238 34.2995 48.9238C28.1415 48.9238 23.1494 53.9159 23.1494 60.0739C23.1494 66.2319 28.1415 71.224 34.2995 71.224Z" fill="#B3B3B3" stroke="black" stroke-width="0.5" stroke-miterlimit="10" stroke-linecap="round" stroke-linejoin="round"/>
<path d="M37.7389 56.8578C37.7732 57.0532 37.8151 57.2486 37.8658 57.4401C38.1411 58.5147 38.6536 59.6501 38.2375 60.6777C37.9026 61.5023 37.059 61.9907 36.2458 62.3498C35.6838 62.6035 35.0964 62.8154 34.4836 62.8445C33.8709 62.8737 33.4966 62.6086 32.9524 62.4119C32.4931 62.2445 32.0377 62.2102 31.6051 61.94C30.717 61.3894 30.2311 60.3276 30.2197 59.286C30.2224 58.6279 30.3692 57.9784 30.6498 57.3831C30.9175 56.7931 31.3006 56.443 31.2346 55.7655C31.1775 55.1756 30.9238 54.6238 30.8464 54.0351C30.632 52.4049 31.9882 50.7937 33.626 50.7126C33.8699 50.7048 34.1127 50.748 34.339 50.8394C34.5927 50.9308 34.7361 50.8762 35.0063 50.8762C35.5122 50.8794 36.008 51.018 36.4422 51.2777C36.8764 51.5374 37.233 51.9087 37.4751 52.3529C37.8937 53.161 37.8011 53.8156 37.6908 54.6567C37.5961 55.3887 37.6124 56.1307 37.7389 56.8578V56.8578Z" fill="#999999" stroke="black" stroke-width="0.5" stroke-linecap="round" stroke-linejoin="round"/>
<path d="M27.1073 68.6104C27.7074 69.0703 28.3344 69.4939 28.9849 69.8791C29.1333 69.553 29.3769 69.0164 29.5342 68.6967C29.7351 68.2888 29.9117 67.8694 30.0632 67.4408C30.2776 66.8369 30.2294 66.3256 29.6548 65.8791C29.2646 65.5735 28.784 65.4061 28.2884 65.4033C27.6199 65.4033 26.9031 65.6444 26.6215 66.2482C26.3322 66.8724 26.3677 66.809 26.0176 67.5422C26.3507 67.9278 26.7152 68.2851 27.1073 68.6104V68.6104Z" fill="#E5E5E5" stroke="black" stroke-width="0.5" stroke-linecap="round" stroke-linejoin="round"/>
<path d="M41.1956 68.8353C40.8594 68.3279 39.9042 67.1112 39.6086 66.5594C39.1912 65.7817 39.4297 65.4607 39.8306 64.7072C40.1223 64.2149 40.5956 63.8568 41.1487 63.71C41.7957 63.5438 42.3552 63.4106 42.8372 64.1718C43.3346 64.9571 43.28 64.8784 43.8674 65.8007C43.154 66.9555 42.2507 67.9815 41.1956 68.8353V68.8353Z" fill="#E5E5E5" stroke="black" stroke-width="0.5" stroke-linecap="round" stroke-linejoin="round"/>
<path d="M40.086 61.2068C39.5239 60.6549 37.6641 60.6473 36.9144 60.5915C36.7596 60.5801 36.6061 60.5712 36.4513 60.5636C36.4513 60.523 36.445 60.4824 36.4412 60.4367C36.36 59.5296 36.275 58.6276 36.1874 57.718C36.1456 57.2639 36.0885 56.7831 35.7815 56.4316C35.2385 55.8087 34.2591 55.8202 33.4522 56.0612C33.3334 56.0924 33.22 56.1416 33.1161 56.2071C33.0264 56.2723 32.9507 56.3548 32.8936 56.4498C32.8365 56.5449 32.7991 56.6504 32.7837 56.7602C32.7583 56.9712 32.7622 57.1846 32.7951 57.3945C32.8852 58.261 32.9029 59.1351 32.9105 60.0105C32.9105 60.2299 32.8928 60.4786 32.8991 60.7234C32.039 60.8287 31.1826 60.9772 30.3365 61.1434C29.985 61.2131 29.6095 61.3007 29.3723 61.5696C29.2708 61.6991 29.1974 61.8484 29.1568 62.0078C29.1162 62.1673 29.1092 62.3334 29.1363 62.4957C29.2213 63.2442 29.7262 63.8735 30.2477 64.4177C31.0494 65.2537 31.9514 66.0111 32.9993 66.5034C34.0472 66.9956 35.2524 67.2062 36.3777 66.9347C37.2328 66.7292 38.0003 66.261 38.7069 65.7396C39.3171 65.288 39.9134 64.7653 40.2115 64.0676C40.4932 63.4256 40.6518 61.7574 40.086 61.2068Z" fill="#E5E5E5" stroke="black" stroke-width="0.5" stroke-linecap="round" stroke-linejoin="round"/>
<path d="M35.4903 71.1606C37.3703 71.0169 39.1709 70.3425 40.6828 69.2158C40.6828 69.2158 40.5255 68.5942 40.6042 68.4229C40.6901 68.2653 40.803 68.1241 40.9378 68.0055L43.9305 65.0636C43.3127 64.0871 42.5843 63.185 41.7599 62.3753C41.0306 61.6909 40.2341 61.0818 39.3824 60.5574C38.1328 62.2447 36.2172 63.8774 33.9933 63.8711C32.0675 63.8711 30.757 62.7369 29.605 61.3554C29.5574 61.2817 29.4842 61.2284 29.3995 61.2057C29.2727 61.1892 29.1788 61.2983 29.1052 61.3972C27.5575 63.4613 27.1477 63.7379 25.7979 65.944C27.135 67.0198 28.1334 68.2415 29.8321 69.2285C29.9932 68.9329 30.181 68.6348 30.455 68.0867C30.5515 68.702 30.6707 70.043 30.5591 70.5809C31.8467 70.9539 32.8883 71.3611 35.4903 71.1606Z" fill="#666666" stroke="black" stroke-width="0.5" stroke-linecap="round" stroke-linejoin="round"/>
<path d="M37.0461 57.0713C37.7406 56.9792 38.214 56.2278 38.1033 55.3929C37.9927 54.558 37.3399 53.9559 36.6453 54.0479C35.9508 54.14 35.4774 54.8914 35.5881 55.7263C35.6987 56.5612 36.3515 57.1633 37.0461 57.0713Z" fill="#666666" stroke="black" stroke-width="0.5" stroke-linecap="round" stroke-linejoin="round"/>
<path d="M37.4299 54.7394C37.6405 55.6718 37.7179 56.6423 37.5289 57.5887C37.3398 58.5351 36.736 58.9462 35.7832 58.9132C35.0994 58.8904 34.4803 58.5326 33.9475 58.1165C33.4448 57.7364 32.9984 57.2871 32.6218 56.7819C32.4327 56.5275 32.2731 56.2526 32.146 55.9623C32.0128 55.6528 31.9634 55.2862 31.886 54.955C31.8752 54.9234 31.8752 54.889 31.886 54.8574C31.8961 54.8392 31.9101 54.8236 31.927 54.8115C31.9439 54.7995 31.9632 54.7913 31.9836 54.7876C34.6478 54.0771 34.8837 52.4444 34.9015 52.2034C35.6322 52.4672 36.3655 52.8605 36.906 53.4352C37.2269 53.779 37.3297 54.2954 37.4299 54.7394Z" fill="#E5E5E5" stroke="black" stroke-width="0.5" stroke-linecap="round" stroke-linejoin="round"/>
<path d="M35.3242 57.123C35.4803 57.2766 35.6629 57.444 35.8976 57.458C36.0126 57.4652 36.1273 57.4415 36.23 57.3895C36.3358 57.3331 36.4229 57.2472 36.4807 57.1422" stroke="black" stroke-width="0.5" stroke-linecap="round" stroke-linejoin="round"/>
<path d="M35.667 54.9929C35.7939 55.1616 35.9004 55.338 36.0184 55.5131C36.0613 55.5721 36.0955 55.6371 36.1199 55.7059C36.1442 55.7757 36.1401 55.8522 36.1085 55.919C36.0698 55.9691 36.0205 56.01 35.9641 56.0388C35.9078 56.0675 35.8457 56.0834 35.7825 56.0852C35.7625 56.0929 35.7403 56.0929 35.7203 56.0852" stroke="black" stroke-width="0.5" stroke-linecap="round" stroke-linejoin="round"/>
<path d="M34.0801 55.1199C34.2638 54.9857 34.4553 54.8624 34.6535 54.7507" stroke="black" stroke-width="0.5" stroke-linecap="round" stroke-linejoin="round"/>
<path d="M35.9893 54.3117L36.6857 54.2546" stroke="black" stroke-width="0.5" stroke-linecap="round" stroke-linejoin="round"/>
<path d="M34.8216 55.8394C34.9085 55.8121 34.9361 55.6534 34.8832 55.485C34.8303 55.3165 34.7169 55.2021 34.63 55.2294C34.5431 55.2567 34.5156 55.4154 34.5685 55.5838C34.6214 55.7523 34.7347 55.8667 34.8216 55.8394Z" fill="black"/>
<path d="M36.5082 55.3098C36.5951 55.2825 36.6226 55.1239 36.5697 54.9554C36.5168 54.787 36.4034 54.6725 36.3165 54.6998C36.2296 54.7271 36.2021 54.8858 36.255 55.0543C36.3079 55.2227 36.4213 55.3371 36.5082 55.3098Z" fill="black"/>
<path d="M34.7725 51.3533C35.4233 53.0114 33.5572 54.5147 32.0703 54.6949" stroke="black" stroke-width="0.5" stroke-linecap="round" stroke-linejoin="round"/>
<path d="M38.2234 56.1787C38.6991 56.4718 39.1609 57.0668 38.897 57.6402C38.6534 58.1629 37.9937 58.4749 37.4355 58.4318" stroke="black" stroke-width="0.5" stroke-linecap="round" stroke-linejoin="round"/>
<path d="M37.5295 58.3952C37.5343 58.2404 37.3498 58.109 37.1173 58.1017C36.8848 58.0944 36.6924 58.2139 36.6875 58.3687C36.6827 58.5235 36.8672 58.6548 37.0997 58.6622C37.3322 58.6695 37.5246 58.5499 37.5295 58.3952Z" fill="#666666" stroke="black" stroke-width="0.5" stroke-linecap="round" stroke-linejoin="round"/>
<path d="M31.8389 55.0247C31.8843 54.4882 31.9842 53.9577 32.137 53.4415C32.3692 52.6587 32.732 51.9001 33.3016 51.3431C33.8712 50.7862 34.6692 50.4551 35.4443 50.5819" stroke="black" stroke-width="0.5" stroke-linecap="round" stroke-linejoin="round"/>
<path d="M32.5441 57.5535C33.2387 57.4614 33.712 56.71 33.6014 55.8751C33.4907 55.0402 32.838 54.438 32.1434 54.5301C31.4488 54.6221 30.9754 55.3736 31.0861 56.2085C31.1968 57.0433 31.8495 57.6455 32.5441 57.5535Z" fill="#666666" stroke="black" stroke-width="0.5" stroke-linecap="round" stroke-linejoin="round"/>
<path d="M30.0791 66.4856C30.3531 67.2189 30.4051 67.6401 30.5066 68.4697" stroke="black" stroke-width="0.5" stroke-linecap="round" stroke-linejoin="round"/>
<path d="M25.2715 56.2514C27.5766 56.2514 29.4453 54.3828 29.4453 52.0776C29.4453 49.7725 27.5766 47.9038 25.2715 47.9038C22.9663 47.9038 21.0977 49.7725 21.0977 52.0776C21.0977 54.3828 22.9663 56.2514 25.2715 56.2514Z" fill="#4C4C4C" stroke="black" stroke-width="0.5" stroke-miterlimit="10" stroke-linecap="round" stroke-linejoin="round"/>
<path d="M22.5306 52.183C22.5694 52.0489 22.6487 51.9302 22.7576 51.843C22.8426 51.763 22.9238 51.6768 23.0114 51.5892C23.0532 51.5432 23.1042 51.5064 23.1611 51.4812C23.218 51.456 23.2796 51.443 23.3418 51.443C23.4041 51.443 23.4656 51.456 23.5225 51.4812C23.5794 51.5064 23.6305 51.5432 23.6723 51.5892L24.4665 52.3847C24.4818 52.4027 24.4958 52.4217 24.5084 52.4418C24.5237 52.4202 24.5403 52.3994 24.5578 52.3796C25.325 51.6108 26.0929 50.8429 26.8617 50.0758C26.9038 50.0249 26.9566 49.984 27.0164 49.956C27.0761 49.9279 27.1414 49.9133 27.2074 49.9133C27.2734 49.9133 27.3386 49.9279 27.3984 49.956C27.4581 49.984 27.5109 50.0249 27.5531 50.0758L27.8588 50.3815C27.9074 50.4234 27.9464 50.4753 27.9731 50.5337C27.9998 50.592 28.0136 50.6554 28.0136 50.7196C28.0136 50.7838 27.9998 50.8472 27.9731 50.9055C27.9464 50.9639 27.9074 51.0158 27.8588 51.0577L26.0828 52.8338L24.8382 54.0783C24.7677 54.1567 24.6716 54.2077 24.5671 54.2221C24.4626 54.2365 24.3564 54.2134 24.2673 54.157C24.2281 54.1292 24.1915 54.0978 24.1582 54.0631C23.6875 53.5937 23.2182 53.1218 22.7462 52.6536C22.642 52.5662 22.5665 52.4495 22.5293 52.3187L22.5306 52.183Z" fill="white" stroke="black" stroke-width="0.5" stroke-miterlimit="10" stroke-linecap="round" stroke-linejoin="round"/>
<path d="M21.3751 39.0956C22.3076 39.0956 23.0636 38.3396 23.0636 37.4071C23.0636 36.4745 22.3076 35.7185 21.3751 35.7185C20.4425 35.7185 19.6865 36.4745 19.6865 37.4071C19.6865 38.3396 20.4425 39.0956 21.3751 39.0956Z" fill="#999999" stroke="black" stroke-width="0.5" stroke-miterlimit="10" stroke-linecap="round" stroke-linejoin="round"/>
<path d="M27.8341 39.0956C28.7666 39.0956 29.5226 38.3396 29.5226 37.4071C29.5226 36.4745 28.7666 35.7185 27.8341 35.7185C26.9015 35.7185 26.1455 36.4745 26.1455 37.4071C26.1455 38.3396 26.9015 39.0956 27.8341 39.0956Z" fill="#B3B3B3" stroke="black" stroke-width="0.5" stroke-miterlimit="10" stroke-linecap="round" stroke-linejoin="round"/>
<path d="M34.293 39.0956C35.2256 39.0956 35.9816 38.3396 35.9816 37.4071C35.9816 36.4745 35.2256 35.7185 34.293 35.7185C33.3605 35.7185 32.6045 36.4745 32.6045 37.4071C32.6045 38.3396 33.3605 39.0956 34.293 39.0956Z" fill="#B3B3B3" stroke="black" stroke-width="0.5" stroke-miterlimit="10" stroke-linecap="round" stroke-linejoin="round"/>
<path d="M213.246 69.3476L216.751 62.7658V57.9503C216.75 57.1553 216.955 56.3736 217.344 55.6806L220.306 50.4114C220.37 50.2971 220.457 50.1967 220.56 50.1163C220.664 50.0359 220.782 49.9771 220.909 49.9434C221.035 49.9097 221.168 49.9017 221.297 49.92C221.427 49.9382 221.552 49.9824 221.664 50.0498L222.653 50.6406L225.915 58.1639C226.125 58.6464 226.19 59.1796 226.101 59.6981C226.012 60.2167 225.775 60.6982 225.417 61.0838L223.078 63.5967L219.926 72.7429L213.246 69.3476Z" fill="#E5E5E5" stroke="black" stroke-width="0.5" stroke-linecap="round" stroke-linejoin="round"/>
<path d="M160.36 89.6101C162.761 89.5908 164.688 87.1659 164.664 84.194C164.64 81.222 162.675 78.8284 160.273 78.8477C157.872 78.8669 155.945 81.2918 155.969 84.2638C155.993 87.2357 157.959 89.6293 160.36 89.6101Z" fill="#4C4C4C" stroke="black" stroke-width="0.5" stroke-linecap="round" stroke-linejoin="round"/>
<path d="M209.287 219.367L204.197 198.772L194.817 202.389L201.295 220.244L209.287 219.367Z" fill="#E5E5E5" stroke="black" stroke-width="0.5" stroke-miterlimit="10" stroke-linecap="round" stroke-linejoin="round"/>
<path d="M200.654 229.899L199.591 216.299L204.37 215.976L205.441 213.363C205.562 213.067 205.742 212.798 205.971 212.574C206.2 212.349 206.472 212.175 206.771 212.06C207.07 211.946 207.389 211.894 207.709 211.907C208.029 211.921 208.343 212.001 208.631 212.141L210.813 214.21C210.813 214.21 217.772 215.737 225.958 217.951C231.57 219.469 234.751 221.046 234.751 221.046L236.667 221.942C236.897 222.044 237.092 222.213 237.224 222.428C237.357 222.642 237.421 222.892 237.409 223.144C237.384 223.468 237.234 223.771 236.991 223.987C236.89 224.072 236.776 224.139 236.652 224.185C235.973 224.456 233.051 225.576 230.4 225.842C226.502 226.234 221.448 227.294 216.003 227.245C212.149 227.213 209.94 226.832 208.65 226.762L208.681 228.811L200.654 229.899Z" fill="black" stroke="black" stroke-width="0.5" stroke-linecap="round" stroke-linejoin="round"/>
<path d="M227.089 226.365C227.089 226.365 227.126 223.591 227.957 221.566C228.788 219.541 229.663 219.055 229.663 219.055C229.663 219.055 237.502 221.269 237.424 222.997C237.337 224.963 232.699 225.454 230.796 225.771C228.893 226.087 227.089 226.365 227.089 226.365Z" fill="white" stroke="black" stroke-width="0.5" stroke-linecap="round" stroke-linejoin="round"/>
<path d="M211.431 217.097C211.431 217.097 212.065 215.752 212.915 214.914C213.764 214.077 215.362 213.889 215.362 213.889" stroke="white" stroke-width="0.5" stroke-linecap="round" stroke-linejoin="round"/>
<path d="M214.641 218.466C214.641 218.466 215.277 217.122 216.125 216.283C216.973 215.445 218.572 215.259 218.572 215.259" stroke="white" stroke-width="0.5" stroke-linecap="round" stroke-linejoin="round"/>
<path d="M217.818 219.756C217.818 219.756 218.453 218.413 219.302 217.574C220.152 216.735 221.75 216.55 221.75 216.55" stroke="white" stroke-width="0.5" stroke-linecap="round" stroke-linejoin="round"/>
<path d="M180.744 161.504H156.337C153.402 161.504 150.586 160.338 148.511 158.263C146.435 156.187 145.269 153.372 145.269 150.436V124.224C145.269 119.357 147.202 114.69 150.644 111.248C154.086 107.806 158.753 105.873 163.62 105.873H173.47C178.337 105.873 183.005 107.806 186.446 111.248C189.888 114.69 191.821 119.357 191.821 124.224V150.433C191.822 151.888 191.535 153.328 190.979 154.672C190.422 156.016 189.606 157.237 188.577 158.265C187.548 159.293 186.327 160.108 184.983 160.664C183.639 161.22 182.198 161.506 180.744 161.504V161.504Z" fill="#333333" stroke="black" stroke-width="0.5" stroke-linecap="round" stroke-linejoin="round"/>
<path d="M165.608 206.072H168.505V162.892H165.608V206.072Z" fill="black" stroke="black" stroke-width="0.5" stroke-miterlimit="10" stroke-linecap="round" stroke-linejoin="round"/>
<path d="M143.138 180.169H194.033C196.209 180.169 197.973 178.406 197.973 176.23V175.544C197.973 173.368 196.209 171.605 194.033 171.605H143.138C140.962 171.605 139.198 173.368 139.198 175.544V176.23C139.198 178.406 140.962 180.169 143.138 180.169Z" fill="#666666" stroke="black" stroke-width="0.5" stroke-linecap="round" stroke-linejoin="round"/>
<path d="M192.334 233.208V238.491" stroke="black" stroke-width="0.5" stroke-linecap="round" stroke-linejoin="round"/>
<path d="M167.057 232.505V238.211" stroke="black" stroke-width="0.5" stroke-linecap="round" stroke-linejoin="round"/>
<path d="M141.778 233.208V239.251" stroke="black" stroke-width="0.5" stroke-linecap="round" stroke-linejoin="round"/>
<path d="M162.804 226.739C162.583 226.371 162.467 225.95 162.467 225.521V214.991C162.465 214.382 162.699 213.796 163.119 213.356C163.54 212.916 164.115 212.656 164.723 212.631V203.165H169.234V212.631C169.843 212.656 170.418 212.916 170.839 213.356C171.26 213.796 171.494 214.382 171.492 214.991V225.521C171.492 225.958 171.371 226.386 171.142 226.758L192.344 233.208V235.064L169.237 231.692V233.124H164.726V231.77L141.788 235.31V233.202L162.804 226.739Z" fill="black" stroke="black" stroke-width="0.5" stroke-miterlimit="10" stroke-linecap="round" stroke-linejoin="round"/>
<path d="M192.278 242.174C193.878 242.174 195.175 240.865 195.175 239.251C195.175 237.636 193.878 236.328 192.278 236.328C190.679 236.328 189.382 237.636 189.382 239.251C189.382 240.865 190.679 242.174 192.278 242.174Z" fill="white" stroke="black" stroke-width="0.5" stroke-linecap="round" stroke-linejoin="round"/>
<path d="M167.057 242.174C168.656 242.174 169.953 240.865 169.953 239.251C169.953 237.636 168.656 236.328 167.057 236.328C165.457 236.328 164.16 237.636 164.16 239.251C164.16 240.865 165.457 242.174 167.057 242.174Z" fill="white" stroke="black" stroke-width="0.5" stroke-linecap="round" stroke-linejoin="round"/>
<path d="M141.835 242.174C143.435 242.174 144.731 240.865 144.731 239.251C144.731 237.636 143.435 236.328 141.835 236.328C140.235 236.328 138.938 237.636 138.938 239.251C138.938 240.865 140.235 242.174 141.835 242.174Z" fill="white" stroke="black" stroke-width="0.5" stroke-linecap="round" stroke-linejoin="round"/>
<path d="M182.48 172.481L158.161 171.545C153.508 171.545 150.211 165.661 150.211 161.007L151.001 148.718H186.545C186.545 148.718 188.153 159.924 188.934 164.786C189.681 169.505 187.254 172.481 182.48 172.481Z" fill="#4C4C4C" stroke="black" stroke-width="0.5" stroke-linecap="round" stroke-linejoin="round"/>
<path d="M171.349 233.678L171.439 218.447L179.743 218.542L179.057 235.701L171.349 233.678Z" fill="#E5E5E5" stroke="black" stroke-width="0.5" stroke-miterlimit="10" stroke-linecap="round" stroke-linejoin="round"/>
<path d="M179.358 247.254L172.582 247.46C172.265 247.47 171.95 247.417 171.654 247.304C171.358 247.192 171.087 247.022 170.857 246.805C170.627 246.588 170.442 246.327 170.312 246.038C170.183 245.75 170.112 245.438 170.103 245.121L169.688 231.486L181.536 231.125L181.692 244.814C181.701 245.446 181.461 246.056 181.025 246.512C180.588 246.968 179.99 247.235 179.358 247.254V247.254Z" fill="black" stroke="black" stroke-width="0.5" stroke-linecap="round" stroke-linejoin="round"/>
<path d="M170.414 245.616C170.414 245.616 172.424 242.186 175.956 242.083C179.489 241.98 181.671 245.569 181.671 245.569V245.602C181.649 246.603 180.58 247.426 179.242 247.472L172.982 247.663C171.657 247.703 170.54 246.956 170.445 245.966L170.414 245.616Z" fill="white" stroke="black" stroke-width="0.5" stroke-linecap="round" stroke-linejoin="round"/>
<path d="M170.926 232.844C170.926 232.844 172.552 228.167 175.564 228.069C178.575 227.97 180.483 232.554 180.483 232.554L170.926 232.844Z" fill="black" stroke="black" stroke-width="0.5" stroke-linecap="round" stroke-linejoin="round"/>
<path d="M178.304 234.766C178.304 234.766 176.937 234.183 175.748 234.123C174.558 234.064 173.236 234.982 173.236 234.982" stroke="white" stroke-width="0.5" stroke-linecap="round" stroke-linejoin="round"/>
<path d="M178.365 236.744C178.365 236.744 176.996 236.159 175.807 236.1C174.617 236.041 173.297 236.959 173.297 236.959" stroke="white" stroke-width="0.5" stroke-linecap="round" stroke-linejoin="round"/>
<path d="M178.424 238.721C178.424 238.721 177.056 238.138 175.868 238.077C174.68 238.016 173.356 238.936 173.356 238.936" stroke="white" stroke-width="0.5" stroke-linecap="round" stroke-linejoin="round"/>
<path d="M172.207 247.582C172.207 247.582 173.922 245.965 176.011 245.901C178.1 245.837 179.774 247.399 179.774 247.399L172.207 247.582Z" fill="black" stroke="black" stroke-width="0.5" stroke-linecap="round" stroke-linejoin="round"/>
<path d="M168.285 162.867L167.004 179.942L184.846 179.881L188.663 167.855" fill="#333333"/>
<path d="M168.285 162.867L167.004 179.942L184.846 179.881L188.663 167.855" stroke="black" stroke-width="0.5" stroke-linecap="round" stroke-linejoin="round"/>
<path d="M181.857 153.18C187.578 151.621 190.983 155.498 192.769 161.154L174.218 177.075L159.239 177.008C153.715 176.983 148.294 171.405 150.353 158.817" fill="#4C4C4C"/>
<path d="M181.857 153.18C187.578 151.621 190.983 155.498 192.769 161.154L174.218 177.075L159.239 177.008C153.715 176.983 148.294 171.405 150.353 158.817" stroke="black" stroke-width="0.5" stroke-linecap="round" stroke-linejoin="round"/>
<path d="M183.172 223.635H168.975L167.003 179.943C166.949 178.738 167.139 177.534 167.563 176.405C167.986 175.275 168.634 174.243 169.468 173.371C170.301 172.499 171.303 171.805 172.412 171.33C173.522 170.856 174.715 170.612 175.922 170.612V170.612C177.123 170.612 178.312 170.854 179.417 171.324C180.523 171.794 181.522 172.483 182.355 173.348C183.188 174.214 183.837 175.238 184.265 176.361C184.693 177.483 184.889 178.681 184.843 179.881L183.172 223.635Z" fill="#4C4C4C" stroke="black" stroke-width="0.5" stroke-linecap="round" stroke-linejoin="round"/>
<path d="M117.262 102.224L117.552 100.423C117.629 99.9392 117.58 99.4437 117.409 98.9843C117.239 98.5249 116.953 98.1174 116.579 97.801L113.157 94.9076C113.094 94.8544 113.021 94.8152 112.941 94.7927C112.862 94.7702 112.779 94.7649 112.697 94.7772C112.616 94.7894 112.538 94.8189 112.469 94.8638C112.4 94.9086 112.341 94.9676 112.297 95.037L112.284 95.0573C112.095 95.3502 112.012 95.6997 112.051 96.0463C112.09 96.393 112.248 96.7156 112.498 96.9591L114.368 98.7924L113.488 100.406L109.536 99.1666L109.224 97.0371L111.188 95.924C111.326 95.8463 111.435 95.7265 111.499 95.5822C111.563 95.438 111.579 95.2769 111.545 95.1227V95.1227C111.512 94.9816 111.447 94.85 111.354 94.7385C111.261 94.627 111.144 94.5386 111.011 94.4802C110.878 94.4219 110.734 94.3952 110.589 94.4022C110.444 94.4093 110.303 94.45 110.176 94.521L107.592 96.016C107.298 96.1857 107.054 96.4299 106.885 96.7238C106.716 97.0178 106.627 97.3511 106.628 97.6903V99.3817L99.7426 98.9764C99.4974 98.9615 99.2526 99.0121 99.0335 99.1231C98.8143 99.234 98.6286 99.4013 98.4955 99.6077L98.2601 99.971C98.0843 99.971 97.914 100.032 97.7784 100.144C97.6427 100.256 97.5501 100.411 97.5165 100.584V100.584C97.4776 100.778 97.5081 100.98 97.6026 101.154C97.6972 101.329 97.8498 101.464 98.034 101.538L104.426 104.005L98.9943 103.909C98.8476 103.906 98.7045 103.954 98.5888 104.044C98.4731 104.135 98.3918 104.262 98.3583 104.405V104.405C98.3207 104.567 98.3475 104.738 98.4333 104.881C98.5191 105.024 98.6571 105.128 98.8182 105.172L109.731 108.079C109.998 108.151 110.245 108.285 110.451 108.471C110.656 108.657 110.814 108.889 110.912 109.148L114.672 119.11L120.799 116.759L117.057 105.497C116.75 103.745 117.181 102.738 117.262 102.224Z" fill="#E5E5E5" stroke="black" stroke-width="0.5" stroke-linecap="round" stroke-linejoin="round"/>
<path d="M113.495 100.411C112.925 101.263 112.587 102.249 112.515 103.271C112.429 104.217 112.475 105.169 112.65 106.102" stroke="black" stroke-width="0.5" stroke-linecap="round" stroke-linejoin="round"/>
<path d="M107.597 99.6951C106.928 100.527 106.411 101.469 106.069 102.479C105.715 103.631 105.474 104.815 105.349 106.013" stroke="black" stroke-width="0.5" stroke-linecap="round" stroke-linejoin="round"/>
<path d="M98.2646 99.9756C98.2646 99.9756 101.513 100.565 103.437 101.003C104.415 101.213 105.381 101.473 106.332 101.782" stroke="black" stroke-width="0.5" stroke-linecap="round" stroke-linejoin="round"/>
<path d="M160.095 97.1804H177.545C182.704 97.1804 202.4 86.042 202.4 86.042L213.625 65.8494L221.524 70.2143L211.961 95.2895C210.048 100.286 187.606 112.096 187.606 112.096L188.058 152.545C188.062 152.814 188.013 153.082 187.913 153.332C187.813 153.582 187.664 153.809 187.476 154.001C187.288 154.194 187.063 154.347 186.815 154.451C186.567 154.556 186.301 154.611 186.032 154.612H151.684C151.416 154.613 151.15 154.562 150.902 154.46C150.654 154.358 150.429 154.208 150.239 154.019C150.049 153.83 149.898 153.605 149.795 153.358C149.692 153.11 149.639 152.845 149.639 152.577V122.022L131.203 137.16C131.128 137.221 131.047 137.28 130.977 137.338C127.427 140.03 122.277 138.659 120.377 134.629L110.407 113.509L120.384 109.106L128.023 119.989L148.241 102.036C151.402 98.9254 155.659 97.1814 160.095 97.1804V97.1804Z" fill="#999999" stroke="black" stroke-width="0.5" stroke-linecap="round" stroke-linejoin="round"/>
<path d="M149.639 122.019V112.556" stroke="black" stroke-width="0.5" stroke-linecap="round" stroke-linejoin="round"/>
<path d="M187.606 114.798V105.341" stroke="black" stroke-width="0.5" stroke-linecap="round" stroke-linejoin="round"/>
<path d="M174.997 85.8347L174.877 98.306C174.863 99.7891 174.267 101.207 173.217 102.255C172.168 103.303 170.748 103.896 169.265 103.907V103.907C168.51 103.912 167.761 103.766 167.063 103.477C166.366 103.188 165.733 102.762 165.202 102.224C164.672 101.686 164.254 101.048 163.975 100.346C163.695 99.6448 163.558 98.8943 163.573 98.1392L163.851 84.6296L174.997 85.8347Z" fill="#E5E5E5" stroke="black" stroke-width="0.5" stroke-linecap="round" stroke-linejoin="round"/>
<path d="M174.963 90.789C175.486 90.628 175.95 90.3178 176.299 89.8966C176.647 89.4753 176.865 88.9614 176.926 88.4179C177.2 86.4646 177.311 85.2361 177.311 85.2361C177.311 85.2361 180.513 80.4456 178.344 75.1562C175.192 67.4629 168.696 68.7646 168.696 68.7646L166.029 68.4871C156.676 63.9148 151.785 71.1545 152.077 74.623C152.544 80.2118 159.256 80.6186 159.256 80.6186L171.52 76.2303L172.475 82.798C172.475 82.798 174.095 81.1861 175.337 82.6343C176.633 84.1418 174.627 87.4763 174.627 87.4763L174.963 90.789Z" fill="black" stroke="black" stroke-width="0.5" stroke-linecap="round" stroke-linejoin="round"/>
<path d="M172.469 82.7947L172.034 75.156L157.962 76.6011C157.962 76.6011 158.207 84.8088 158.709 87.752C159.211 90.6953 161.962 94.1576 166.152 93.1786C170.343 92.1996 172.412 90.4848 174.125 88.2135C175.838 85.9421 176.101 83.1252 175.126 82.4221C173.673 81.3745 172.469 82.7947 172.469 82.7947Z" fill="#E5E5E5" stroke="black" stroke-width="0.5" stroke-linecap="round" stroke-linejoin="round"/>
<path d="M168.021 80.2788L165.633 80.02" stroke="black" stroke-width="0.5" stroke-linecap="round" stroke-linejoin="round"/>
<path d="M161.493 80.2786L159.146 81.0721" stroke="black" stroke-width="0.5" stroke-linecap="round" stroke-linejoin="round"/>
<path d="M163.21 82.4551C163.21 82.4551 162.44 84.6797 162.783 85.5932C163.126 86.5067 164.475 86.0172 164.475 86.0172" stroke="black" stroke-width="0.5" stroke-linecap="round" stroke-linejoin="round"/>
<path d="M159.146 82.7637C159.306 82.9458 159.499 83.0947 159.716 83.2017C159.933 83.3088 160.169 83.3718 160.411 83.3873C161.204 83.4216 162.06 82.4519 162.06 82.4519" stroke="black" stroke-width="0.5" stroke-linecap="round" stroke-linejoin="round"/>
<path d="M165.37 82.7637C165.53 82.9456 165.723 83.0944 165.94 83.2014C166.157 83.3084 166.393 83.3715 166.634 83.3873C167.429 83.4216 168.284 82.4519 168.284 82.4519" stroke="black" stroke-width="0.5" stroke-linecap="round" stroke-linejoin="round"/>
<path d="M165.509 89.45C165.509 89.45 166.268 89.9348 167.03 89.7337C167.793 89.5326 168.159 88.7173 168.159 88.7173" stroke="black" stroke-width="0.5" stroke-linecap="round" stroke-linejoin="round"/>
<path d="M128.022 119.988L130.517 123.469" stroke="black" stroke-width="0.5" stroke-linecap="round" stroke-linejoin="round"/>
<path d="M178.965 169.073L194.319 212.768L210.156 207.549L195.299 160.502C195.299 160.502 192.626 152.835 184.854 152.785C177.083 152.736 158.161 158.345 158.161 158.345" fill="#4C4C4C"/>
<path d="M178.965 169.073L194.319 212.768L210.156 207.549L195.299 160.502C195.299 160.502 192.626 152.835 184.854 152.785C177.083 152.736 158.161 158.345 158.161 158.345" stroke="black" stroke-width="0.5" stroke-linecap="round" stroke-linejoin="round"/>
<path d="M174.384 90.1993C176.785 90.1752 178.708 87.7465 178.678 84.7744C178.648 81.8023 176.678 79.4125 174.277 79.4365C171.875 79.4605 169.953 81.8893 169.983 84.8614C170.012 87.8334 171.983 90.2233 174.384 90.1993Z" fill="#4C4C4C" stroke="black" stroke-width="0.5" stroke-linecap="round" stroke-linejoin="round"/>
<path d="M174.857 88.6209C176.587 88.607 177.976 86.8586 177.959 84.7157C177.942 82.5728 176.525 80.8469 174.794 80.8608C173.064 80.8747 171.675 82.6231 171.692 84.766C171.709 86.9089 173.126 88.6348 174.857 88.6209Z" fill="#666666" stroke="black" stroke-width="0.5" stroke-linecap="round" stroke-linejoin="round"/>
<path d="M170.346 94.7547C169.763 95.042 169.133 95.2231 168.486 95.2894L168.455 94.9776C170.507 94.7656 172.251 93.361 173.243 91.124C174.474 88.3413 175.367 83.914 175.377 83.8704L175.678 83.9296C175.668 83.9748 174.769 88.4349 173.523 91.2487C172.8 92.8871 171.69 94.0968 170.346 94.7547Z" fill="black"/>
<path d="M167.804 94.247L166.144 94.3966C165.675 94.4389 165.329 94.8534 165.371 95.3224L165.378 95.3907C165.42 95.8598 165.834 96.2058 166.303 96.1635L167.963 96.0139C168.432 95.9716 168.778 95.5571 168.736 95.0881L168.73 95.0198C168.688 94.5507 168.273 94.2047 167.804 94.247Z" fill="#333333" stroke="black" stroke-width="0.5" stroke-linecap="round" stroke-linejoin="round"/>
<path d="M174.443 83.5167C174.598 81.2329 174.859 78.7854 172.913 74.4906C170.584 69.3462 166.024 68.481 166.024 68.481L168.692 68.7584C168.692 68.7584 172.22 69.4693 174.731 74.2146C176.497 77.5492 177.002 81.6335 176.779 84.1637C176.728 84.7498 176.312 86.2401 175.33 86.0219C174.347 85.8036 174.399 84.1808 174.443 83.5167Z" fill="#808080" stroke="black" stroke-width="0.5" stroke-miterlimit="10" stroke-linecap="round" stroke-linejoin="round"/>
<path d="M237.84 81.6763H206.629C206.249 81.6763 205.94 81.9845 205.94 82.3648C205.94 82.745 206.249 83.0533 206.629 83.0533H237.84C238.221 83.0533 238.529 82.745 238.529 82.3648C238.529 81.9845 238.221 81.6763 237.84 81.6763Z" fill="#999999" stroke="black" stroke-width="0.5" stroke-linecap="round" stroke-linejoin="round"/>
<path d="M223.321 78.0001C223.321 78.0001 222.466 77.9224 222.161 77.9244C221.884 77.9244 221 78.0001 221 78.0001V47.1251C221 46.484 221.52 45.9644 222.161 45.9644V45.9644C222.802 45.9644 223.321 46.484 223.321 47.1251V78.0001Z" fill="#999999" stroke="black" stroke-width="0.5" stroke-linecap="round" stroke-linejoin="round"/>
<path d="M222.161 87.2859C224.854 87.2859 227.036 85.1033 227.036 82.4109C227.036 79.7185 224.854 77.5359 222.161 77.5359C219.469 77.5359 217.286 79.7185 217.286 82.4109C217.286 85.1033 219.469 87.2859 222.161 87.2859Z" fill="#CCCCCC" stroke="black" stroke-width="0.5" stroke-linecap="round" stroke-linejoin="round"/>
<path d="M235.305 83.1072L228.893 111.893H243.285L235.305 83.1072Z" stroke="black" stroke-width="0.5" stroke-linecap="round" stroke-linejoin="round"/>
<path d="M226.571 111.893H246.071C246.071 111.893 244.479 119.321 236.321 119.321C228.163 119.321 226.571 111.893 226.571 111.893Z" fill="#999999" stroke="black" stroke-width="0.5" stroke-linecap="round" stroke-linejoin="round"/>
<path d="M208.841 83.1072L202.429 111.893H216.822L208.841 83.1072Z" stroke="black" stroke-width="0.5" stroke-linecap="round" stroke-linejoin="round"/>
<path d="M200.107 111.893H219.143C219.143 111.893 217.589 119.321 209.625 119.321C201.661 119.321 200.107 111.893 200.107 111.893Z" fill="#999999" stroke="black" stroke-width="0.5" stroke-linecap="round" stroke-linejoin="round"/>
<path d="M223.913 52.0949C223.913 52.0949 224.468 50.1151 223.221 49.9124C221.974 49.7098 219.285 52.4784 219.48 53.342C219.675 54.2057 220.342 54.3834 220.342 54.3834" fill="#E5E5E5"/>
<path d="M223.913 52.0949C223.913 52.0949 224.468 50.1151 223.221 49.9124C221.974 49.7098 219.285 52.4784 219.48 53.342C219.675 54.2057 220.342 54.3834 220.342 54.3834" stroke="black" stroke-width="0.5" stroke-linecap="round" stroke-linejoin="round"/>
<path d="M224.605 54.3835C224.605 54.3835 225.16 52.5455 223.913 52.095C222.666 51.6445 219.721 54.5893 219.514 55.9066C219.307 57.2238 220.335 57.5481 220.335 57.5481" fill="#E5E5E5"/>
<path d="M224.605 54.3835C224.605 54.3835 225.16 52.5455 223.913 52.095C222.666 51.6445 219.721 54.5893 219.514 55.9066C219.307 57.2238 220.335 57.5481 220.335 57.5481" stroke="black" stroke-width="0.5" stroke-linecap="round" stroke-linejoin="round"/>
<path d="M225.16 56.4382C225.16 56.4382 225.771 54.739 224.619 54.2838C223.467 53.8286 220.172 57.1054 220.254 58.3853C220.337 59.6651 221.918 59.5965 221.918 59.5965" fill="#E5E5E5"/>
<path d="M225.16 56.4382C225.16 56.4382 225.771 54.739 224.619 54.2838C223.467 53.8286 220.172 57.1054 220.254 58.3853C220.337 59.6651 221.918 59.5965 221.918 59.5965" stroke="black" stroke-width="0.5" stroke-linecap="round" stroke-linejoin="round"/>
<path d="M226.13 59.1976C226.13 59.1976 226.339 56.0798 224.537 56.3915C222.735 56.7033 220.9 60.0986 222.043 60.7222C223.185 61.3458 224.814 59.7869 224.814 59.7869" fill="#E5E5E5"/>
<path d="M226.13 59.1976C226.13 59.1976 226.339 56.0798 224.537 56.3915C222.735 56.7033 220.9 60.0986 222.043 60.7222C223.185 61.3458 224.814 59.7869 224.814 59.7869" stroke="black" stroke-width="0.5" stroke-linecap="round" stroke-linejoin="round"/>
<path d="M228.8 111.753H226.572C226.525 111.753 226.525 111.753 226.479 111.8C226.432 111.846 226.432 111.846 226.479 111.893C226.479 111.986 228.197 119.414 236.322 119.414C244.447 119.414 246.165 111.986 246.165 111.893C246.165 111.846 246.165 111.8 246.165 111.8C246.165 111.8 246.118 111.753 246.072 111.753H243.379L235.44 83.1535H237.854C238.318 83.1535 238.643 82.782 238.643 82.3642C238.643 81.9463 238.272 81.5749 237.854 81.5749H227.082C226.757 79.6713 225.318 78.0928 223.461 77.6285V63.4213L225.504 61.1928C225.875 60.7749 226.107 60.3106 226.2 59.7535C226.247 59.5678 226.247 59.3821 226.247 59.1963C226.247 58.9178 226.293 57.2463 225.55 56.5963C225.457 56.5035 225.365 56.4571 225.318 56.4106C225.504 55.7606 225.597 54.6928 224.761 54.2749C224.854 53.8106 225.04 52.5106 224.065 52.0928C224.111 51.8142 224.297 50.8856 223.925 50.2821C223.786 50.0963 223.647 49.9571 223.415 49.9106V47.1713C223.415 46.4749 222.857 45.8713 222.115 45.8713C221.372 45.8713 220.815 46.4285 220.815 47.1713V49.8642C220.675 49.9106 220.536 49.9571 220.443 50.0499C220.304 50.1428 220.211 50.2356 220.165 50.3749L217.193 55.6213C216.775 56.3178 216.59 57.1535 216.59 57.9428V62.7249L214.686 66.2999L213.665 65.7428C213.618 65.6963 213.525 65.7428 213.525 65.7892L202.336 85.9392C201.5 86.4035 182.557 97.0356 177.543 97.0356H174.99L175.036 90.8606C175.547 90.6749 176.011 90.3963 176.336 89.9785C176.475 89.8392 176.568 89.6535 176.661 89.4678C176.94 89.2356 177.218 88.9571 177.497 88.6785C178.332 87.6106 178.75 86.2642 178.75 84.7785C178.75 84.1285 178.657 83.5249 178.472 82.9213C179.122 81.0178 179.632 78.1392 178.425 75.1213C175.407 67.6928 169.186 68.5749 168.675 68.6678L166.029 68.3892C164.59 67.6928 163.29 67.2749 162.129 67.0892V41.8321V36.2142C162.129 34.3571 160.643 32.8713 158.786 32.8713H17.1788C15.3217 32.8713 13.8359 34.3571 13.8359 36.2142V41.8321V131.161C13.8359 133.018 15.3217 134.503 17.1788 134.503H120.204L120.25 134.643C121.179 136.639 122.943 138.078 125.079 138.589C127.168 139.1 129.304 138.636 131.022 137.382C131.068 137.336 131.115 137.336 131.115 137.289C131.161 137.243 131.207 137.243 131.207 137.196L134.504 134.503H145.09V150.428C145.09 153.4 146.25 156.232 148.386 158.321C148.897 158.832 149.454 159.296 150.057 159.714C149.315 165.239 150.011 168.953 151.172 171.461H143.093C140.865 171.461 139.054 173.271 139.054 175.5V176.196C139.054 178.425 140.865 180.236 143.093 180.236H165.425V202.986H164.636C164.59 202.986 164.543 203.032 164.543 203.078V212.457C163.94 212.503 163.382 212.782 162.965 213.2C162.5 213.664 162.268 214.268 162.268 214.918V225.457C162.268 225.875 162.361 226.246 162.547 226.618L141.654 233.025C141.654 233.025 141.607 233.025 141.607 233.071C141.561 233.071 141.561 233.118 141.561 233.164V236.182C139.982 236.275 138.729 237.575 138.729 239.2C138.729 240.871 140.075 242.218 141.747 242.218C143.418 242.218 144.765 240.871 144.765 239.2C144.765 237.528 143.465 236.182 141.793 236.182V235.393L164.497 231.864V233.071C164.497 233.118 164.543 233.164 164.59 233.164H166.818V236.136C165.193 236.182 163.94 237.528 163.94 239.153C163.94 240.825 165.286 242.171 166.957 242.171C168.211 242.171 169.279 241.382 169.743 240.268L169.882 245.003C169.882 245.328 169.975 245.653 170.115 245.978C170.207 246.164 170.347 246.35 170.44 246.536C170.857 247.232 171.74 247.696 172.761 247.696C172.807 247.696 172.854 247.696 172.854 247.696L179.122 247.511C180.515 247.464 181.629 246.582 181.675 245.514V245.468V245.421C181.675 245.421 181.675 245.375 181.629 245.375C181.675 245.189 181.722 244.957 181.722 244.725L181.582 233.536L192.122 235.068V236.136C190.497 236.182 189.15 237.528 189.15 239.153C189.15 240.825 190.497 242.171 192.168 242.171C193.84 242.171 195.186 240.825 195.186 239.153C195.186 237.528 193.932 236.228 192.354 236.136V235.021V233.164C192.354 233.118 192.307 233.071 192.261 233.071L179.307 229.125L179.54 223.739H183.068C183.115 223.739 183.161 223.693 183.161 223.646L184.6 185.853L194.072 212.828C194.072 212.875 194.118 212.921 194.165 212.921H194.211L197.925 211.714L199.55 216.218H199.457C199.411 216.218 199.411 216.218 199.365 216.264C199.365 216.264 199.318 216.311 199.318 216.357L200.386 229.961C200.386 230.007 200.386 230.007 200.432 230.053C200.432 230.053 200.479 230.1 200.525 230.1L208.557 229.032C208.604 229.032 208.65 228.986 208.65 228.893L208.604 226.989C208.975 226.989 209.347 227.036 209.857 227.128C211.204 227.268 213.107 227.453 215.847 227.5C215.986 227.5 216.079 227.5 216.218 227.5C219.886 227.5 223.368 227.036 226.432 226.571C226.572 226.571 226.711 226.525 226.85 226.525C226.85 226.525 226.85 226.571 226.897 226.571C226.897 226.571 226.943 226.618 226.99 226.618C226.99 226.618 228.475 226.386 230.193 226.107C230.24 226.107 230.286 226.107 230.286 226.107C230.89 226.061 231.54 225.921 232.143 225.828C233.675 225.596 235.532 225.178 236.6 224.436C236.74 224.389 236.832 224.296 236.925 224.25C237.204 224.018 237.343 223.693 237.39 223.321V223.275C237.39 223.228 237.39 223.228 237.39 223.182C237.39 223.043 237.343 222.903 237.297 222.764C237.25 222.671 237.25 222.625 237.204 222.532C237.065 222.3 236.879 222.114 236.6 222.021C234.743 220.628 230.193 219.282 229.543 219.143C228.475 218.771 227.222 218.4 225.875 218.028C224.343 217.611 222.904 217.239 221.511 216.868C221.604 216.868 221.65 216.868 221.65 216.868C221.697 216.868 221.743 216.821 221.743 216.728C221.743 216.682 221.697 216.636 221.604 216.636C221.557 216.636 221.325 216.682 220.954 216.775C219.654 216.45 218.447 216.125 217.332 215.846C217.936 215.661 218.447 215.568 218.447 215.568C218.493 215.568 218.54 215.521 218.54 215.428C218.54 215.382 218.493 215.336 218.4 215.336C218.354 215.336 217.611 215.428 216.915 215.753C215.475 215.428 214.268 215.103 213.247 214.871C214.082 214.314 215.197 214.175 215.243 214.175C215.29 214.175 215.336 214.128 215.336 214.036C215.336 213.989 215.29 213.943 215.197 213.943C215.15 213.943 213.85 214.128 212.922 214.778C211.668 214.5 210.879 214.314 210.693 214.268L208.557 212.225C208.557 212.225 208.557 212.225 208.511 212.225C208.186 212.086 207.861 211.993 207.536 211.993C207.49 211.993 207.397 211.993 207.35 211.993L206.607 208.975L209.997 207.861C210.043 207.861 210.09 207.768 210.09 207.721L195.232 160.689C195.232 160.643 193.979 157.253 190.915 154.978C191.472 153.632 191.75 152.193 191.75 150.707V124.521C191.75 120.203 190.265 116.071 187.525 112.775V112.45C188.547 111.939 197.461 107.157 204.24 102.514L202.104 112.032H200.107C200.061 112.032 200.061 112.032 200.015 112.078C200.015 112.125 199.968 112.125 199.968 112.171C199.968 112.264 201.64 119.693 209.579 119.693C217.518 119.693 219.19 112.264 219.19 112.171C219.19 112.125 219.19 112.078 219.143 112.078C219.143 112.032 219.097 112.032 219.05 112.032H216.822L212.132 95.1785L216.59 83.4321H217.1C217.472 85.8463 219.515 87.6571 222.022 87.6571C224.529 87.6571 226.572 85.7999 226.943 83.4321H235.022L228.8 111.753ZM229.032 111.753L235.3 83.5713L243.1 111.753H229.032ZM220.907 77.5821C219.747 77.9071 218.772 78.5571 218.122 79.5321L220.907 72.2428V77.5821ZM162.129 97.0821V92.8571C162.593 93.0892 163.057 93.2749 163.522 93.3678L163.429 97.0821H162.129ZM169.232 233.257C169.279 233.257 169.325 233.211 169.325 233.164V231.864L169.557 231.911L169.743 237.993C169.279 237.018 168.304 236.321 167.143 236.275V233.303H169.232V233.257ZM216.682 111.753H202.568L204.75 102.05C208.418 99.4963 211.436 97.0356 212.086 95.3178V95.2713L216.682 111.753Z" fill="url(#paint0_linear_2386_442568)" style="mix-blend-mode:overlay"/>
<defs>
<linearGradient id="paint0_linear_2386_442568" x1="246.165" y1="139.949" x2="13.8359" y2="139.949" gradientUnits="userSpaceOnUse">
<stop stop-color="#E60050"/>
<stop offset="1" stop-color="#5D6AE8"/>
</linearGradient>
</defs>
</svg>
