<svg width="260" height="260" viewBox="0 0 260 260" fill="none" xmlns="http://www.w3.org/2000/svg">
<g clip-path="url(#clip0_1754_47721)">
<path d="M195.439 60.7169C203.895 60.7169 210.751 53.8661 210.751 45.4151C210.751 36.9641 203.895 30.1133 195.439 30.1133C186.982 30.1133 180.127 36.9641 180.127 45.4151C180.127 53.8661 186.982 60.7169 195.439 60.7169Z" fill="#CCCCCC" stroke="black" stroke-width="0.5" stroke-linecap="round" stroke-linejoin="round"/>
<path d="M195.438 58.9014C202.891 58.9014 208.933 52.8634 208.933 45.4153C208.933 37.9671 202.891 31.9292 195.438 31.9292C187.985 31.9292 181.943 37.9671 181.943 45.4153C181.943 52.8634 187.985 58.9014 195.438 58.9014Z" fill="white" stroke="black" stroke-width="0.5" stroke-linecap="round" stroke-linejoin="round"/>
<path d="M188.12 38.6689L195.4 45.5117L206.556 42.063" stroke="black" stroke-width="0.5" stroke-linecap="round" stroke-linejoin="round"/>
<path d="M236.739 202.114H53.0456L6.5 169.785H190.193L236.739 202.114Z" fill="#E5E5E5" stroke="black" stroke-width="0.5" stroke-linecap="round" stroke-linejoin="round"/>
<path d="M236.739 202.114H52.8118V236.598H236.739V202.114Z" fill="#808080" stroke="black" stroke-width="0.5" stroke-linecap="round" stroke-linejoin="round"/>
<path d="M52.8119 236.597L6.5 204.269V169.785L52.8119 202.114V236.597Z" fill="#999999" stroke="black" stroke-width="0.5" stroke-linecap="round" stroke-linejoin="round"/>
<path d="M165.323 160.513L160.039 160.846L160.993 175.96L166.277 175.627L165.323 160.513Z" fill="#CCCCCC" stroke="black" stroke-width="0.5" stroke-linecap="round" stroke-linejoin="round"/>
<path d="M179.394 158.996L174.239 160.202L177.695 174.948L182.85 173.741L179.394 158.996Z" fill="#CCCCCC" stroke="black" stroke-width="0.5" stroke-linecap="round" stroke-linejoin="round"/>
<path d="M170.33 165.982C170.33 165.982 168.311 167.08 163.247 167.08C159.562 167.08 157.18 165.982 157.18 165.982L154.257 133.372C154.064 131.203 154.06 129.022 154.245 126.852L159.262 92.4556H170.329L167.117 130.302L170.33 165.982Z" fill="white" stroke="black" stroke-width="0.5" stroke-linecap="round" stroke-linejoin="round"/>
<path d="M184.138 164.226C184.138 164.226 183.08 166.505 177.32 167.705C173.715 168.457 170.078 167.874 170.078 167.874L161.661 133.982C161.147 131.804 160.986 129.558 161.186 127.33L164.301 92.4559L180.203 92.4292L181.372 96.3489C182.709 100.831 182.71 105.624 181.256 110.071C181.209 110.217 181.16 110.362 181.11 110.508L174.035 130.884L184.138 164.226Z" fill="white" stroke="black" stroke-width="0.5" stroke-linecap="round" stroke-linejoin="round"/>
<path d="M159.412 175.171C159.412 175.171 155.843 173.325 156.035 172.031C156.162 171.142 156.967 171.422 158.044 172.605C158.885 173.529 159.412 175.171 159.412 175.171Z" stroke="black" stroke-width="0.5" stroke-linecap="round" stroke-linejoin="round"/>
<path d="M159.261 175.02C159.261 175.02 157.952 175.348 157.209 175.528C156.466 175.708 154.914 175.736 154.824 174.759C154.74 173.86 155.755 173.87 157.001 174.069C157.933 174.215 159.261 175.02 159.261 175.02Z" stroke="black" stroke-width="0.5" stroke-linecap="round" stroke-linejoin="round"/>
<path d="M166.785 170.73C166.785 170.73 167.202 174.482 167.827 176.774C168.452 179.066 168.87 183.024 167.827 186.152C167.209 188.018 166.442 189.831 165.534 191.574H146.808L145.874 187.829C145.658 186.964 145.767 186.051 146.179 185.261C146.591 184.472 147.278 183.86 148.11 183.542L154.068 181.265C155.601 180.679 156.921 179.643 157.854 178.294C158.787 176.944 159.289 175.344 159.295 173.704L159.305 170.73H166.785Z" fill="#999999" stroke="black" stroke-width="0.5" stroke-linecap="round" stroke-linejoin="round"/>
<path d="M168.055 185.321C168.055 185.321 165.777 184.278 162.464 184.904C159.152 185.53 155.006 186.988 152.935 187.196C150.864 187.404 145.844 187.196 145.844 187.196" stroke="black" stroke-width="0.5" stroke-linecap="round" stroke-linejoin="round"/>
<path d="M149.7 183.027C149.7 183.027 151.307 183.67 151.442 184.703C151.576 185.737 151.87 187.258 151.87 187.258" stroke="black" stroke-width="0.5" stroke-linecap="round" stroke-linejoin="round"/>
<path d="M168.055 177.708C168.055 177.708 165.132 178.651 164.092 180.318C163.051 181.985 162.423 184.904 162.423 184.904" stroke="black" stroke-width="0.5" stroke-linecap="round" stroke-linejoin="round"/>
<path d="M161.172 176.357C161.172 176.357 160.755 175.523 160.337 175.315C159.919 175.106 159.261 175.315 159.261 175.315" stroke="black" stroke-width="0.5" stroke-linecap="round" stroke-linejoin="round"/>
<path d="M160.664 177.708C160.664 177.708 160.129 176.982 159.712 176.774C159.295 176.565 158.746 176.774 158.746 176.774" stroke="black" stroke-width="0.5" stroke-linecap="round" stroke-linejoin="round"/>
<path d="M159.83 179.167C159.83 179.167 159.295 178.442 158.877 178.233C158.459 178.023 157.835 178.233 157.835 178.233" stroke="black" stroke-width="0.5" stroke-linecap="round" stroke-linejoin="round"/>
<path d="M158.995 180.208C158.995 180.208 158.46 179.483 158.044 179.275C157.627 179.067 157.078 179.275 157.078 179.275" stroke="black" stroke-width="0.5" stroke-linecap="round" stroke-linejoin="round"/>
<path d="M157.952 181.251C157.952 181.251 157.417 180.526 157.001 180.318C156.584 180.109 155.749 180.318 155.749 180.318" stroke="black" stroke-width="0.5" stroke-linecap="round" stroke-linejoin="round"/>
<path d="M156.701 181.877C156.701 181.877 156.166 181.152 155.749 180.944C155.332 180.735 154.783 180.944 154.783 180.944" stroke="black" stroke-width="0.5" stroke-linecap="round" stroke-linejoin="round"/>
<path d="M176.865 175.603C176.865 175.603 173.033 174.394 173 173.086C172.978 172.198 173.814 172.325 175.077 173.31C176.067 174.072 176.865 175.603 176.865 175.603Z" stroke="black" stroke-width="0.5" stroke-linecap="round" stroke-linejoin="round"/>
<path d="M176.695 175.48C176.695 175.48 175.461 176.027 174.758 176.327C174.056 176.626 172.534 176.925 172.277 175.976C172.041 175.105 173.039 174.939 174.304 174.925C175.245 174.915 176.695 175.48 176.695 175.48Z" stroke="black" stroke-width="0.5" stroke-linecap="round" stroke-linejoin="round"/>
<path d="M183.373 169.967C183.373 169.967 184.427 173.592 185.435 175.744C186.444 177.896 187.532 181.722 187.04 184.984C186.75 186.928 186.304 188.846 185.707 190.718L167.258 193.919L165.697 190.388C165.337 189.574 165.287 188.655 165.558 187.807C165.829 186.959 166.401 186.239 167.167 185.783L172.647 182.521C174.057 181.681 175.179 180.435 175.867 178.947C176.556 177.458 176.777 175.795 176.502 174.179L176.002 171.245L183.373 169.967Z" fill="#999999" stroke="black" stroke-width="0.5" stroke-linecap="round" stroke-linejoin="round"/>
<path d="M187.121 184.126C187.121 184.126 184.698 183.491 181.54 184.67C178.381 185.85 174.551 188 172.542 188.56C170.534 189.12 165.554 189.771 165.554 189.771" stroke="black" stroke-width="0.5" stroke-linecap="round" stroke-linejoin="round"/>
<path d="M168.645 185.004C168.645 185.004 170.338 185.362 170.648 186.358C170.958 187.353 171.506 188.802 171.506 188.802" stroke="black" stroke-width="0.5" stroke-linecap="round" stroke-linejoin="round"/>
<path d="M185.819 176.625C185.819 176.625 183.102 178.053 182.36 179.875C181.618 181.697 181.501 184.678 181.501 184.678" stroke="black" stroke-width="0.5" stroke-linecap="round" stroke-linejoin="round"/>
<path d="M178.805 176.472C178.805 176.472 178.252 175.721 177.805 175.583C177.358 175.444 176.744 175.767 176.744 175.767" stroke="black" stroke-width="0.5" stroke-linecap="round" stroke-linejoin="round"/>
<path d="M178.536 177.889C178.536 177.889 177.885 177.265 177.438 177.127C176.991 176.989 176.488 177.292 176.488 177.292" stroke="black" stroke-width="0.5" stroke-linecap="round" stroke-linejoin="round"/>
<path d="M177.964 179.468C177.964 179.468 177.314 178.846 176.866 178.706C176.419 178.567 175.838 178.885 175.838 178.885" stroke="black" stroke-width="0.5" stroke-linecap="round" stroke-linejoin="round"/>
<path d="M177.32 180.639C177.32 180.639 176.669 180.015 176.222 179.877C175.775 179.739 175.272 180.042 175.272 180.042" stroke="black" stroke-width="0.5" stroke-linecap="round" stroke-linejoin="round"/>
<path d="M176.471 181.844C176.471 181.844 175.821 181.22 175.373 181.082C174.926 180.944 174.141 181.297 174.141 181.297" stroke="black" stroke-width="0.5" stroke-linecap="round" stroke-linejoin="round"/>
<path d="M175.34 182.673C175.34 182.673 174.689 182.051 174.243 181.911C173.797 181.771 173.291 182.076 173.291 182.076" stroke="black" stroke-width="0.5" stroke-linecap="round" stroke-linejoin="round"/>
<path d="M92.7988 33.623L86.7305 46.2749L95.138 47.6577L98.857 35.9302L92.7988 33.623Z" fill="#666666" stroke="black" stroke-width="0.5" stroke-linecap="round" stroke-linejoin="round"/>
<path d="M89.9971 36.5574C90.0873 35.2318 89.9971 36.9053 90.0835 35.5797C90.1838 34.1093 90.3439 35.1518 90.5409 33.6878C90.7569 32.0993 91.119 25.0344 91.4303 23.4776C91.504 23.1081 91.584 22.7272 91.786 22.4428C91.9881 22.1584 92.3451 21.9946 92.6564 22.1596C92.8241 21.187 93.7301 20.5521 94.5826 20.8086C94.8367 19.8474 95.9053 19.3878 96.7185 19.883C97.1264 19.5617 97.5914 19.309 98.0996 19.2709C98.3714 19.2514 98.6439 19.2981 98.8936 19.4072C99.1432 19.5162 99.3626 19.6843 99.5329 19.8969C99.7388 19.7984 99.951 19.7135 100.168 19.643C100.439 19.5946 100.717 19.6028 100.985 19.6671C101.394 19.7649 102.129 20.0696 102.295 20.5953C102.908 20.2258 103.811 20.6067 104.155 21.38C104.327 21.2769 104.523 21.2206 104.724 21.2166C104.925 21.2126 105.123 21.2611 105.299 21.3572C105.496 21.4699 105.67 21.6204 105.809 21.8002C105.948 21.9799 106.05 22.1854 106.109 22.4047C106.289 22.3588 106.477 22.3594 106.656 22.4065C106.836 22.4536 107 22.5456 107.134 22.6739C107.439 22.9644 107.618 23.3627 107.633 23.7837C107.973 23.7125 108.364 23.9106 108.581 24.2547C108.688 24.4291 108.751 24.627 108.764 24.8313C108.778 25.0355 108.741 25.2399 108.657 25.4267C109.022 25.5067 109.355 25.8508 109.473 26.2686C109.533 26.4662 109.541 26.6759 109.496 26.8776C109.452 27.0792 109.356 27.2661 109.219 27.4202C109.343 27.5604 109.436 27.7258 109.49 27.9051C109.544 28.0844 109.559 28.2733 109.534 28.4589C109.514 28.6263 109.448 28.785 109.343 28.9174C109.239 29.0499 109.1 29.1509 108.942 29.2093C109.097 29.3883 109.205 29.6031 109.256 29.8343C109.308 30.0655 109.301 30.3058 109.236 30.5337C109.18 30.7353 109.057 30.9117 108.887 31.0337C108.717 31.1556 108.51 31.2158 108.301 31.2041C108.428 31.726 108.187 32.2491 107.85 32.5691C107.159 33.2256 106.151 33.2573 105.217 33.1341C104.568 33.0478 103.918 32.898 103.268 32.8802C102.652 32.8637 102.172 33.1189 101.596 33.289L95.3221 35.1378L92.5205 35.9631C91.7187 36.2019 90.8458 36.6196 89.9971 36.5574Z" fill="black"/>
<path d="M158.685 46.153C159.149 44.2572 159.667 42.3729 160.21 40.4924C160.706 38.7897 162.19 37.1352 163.568 36.0686C165.067 34.8844 166.912 34.221 168.822 34.1792C169.889 34.1665 170.855 34.0979 171.901 34.4522C173.241 34.9055 174.39 35.8172 175.324 36.88C176.258 37.9428 176.998 39.1579 177.738 40.3667C179.426 43.1399 181.852 46.7561 183.541 49.5305L180.095 52.6262C179.205 51.3501 178.268 49.6893 177.795 48.6011C178 49.3185 178.842 52.8852 178.917 53.6293C178.917 53.6293 173.369 55.8222 171.852 55.9072C170.088 56.0076 168.79 56.7148 167.024 56.6691C165.696 56.6285 164.59 56.6018 163.37 56.0749C162.665 55.7714 161.13 54.7492 161.13 54.7492C161.003 53.6966 160.876 52.0472 160.669 51.0111L159.906 54.1855C159.085 53.7208 158.177 53.4283 157.238 53.3258C157.61 50.9057 158.106 48.5185 158.685 46.153Z" fill="#1A1A1A" stroke="black" stroke-width="0.5" stroke-linecap="round" stroke-linejoin="round"/>
<path d="M108.136 111.381V107.479C108.136 107.164 108.261 106.862 108.484 106.64C108.707 106.417 109.009 106.292 109.324 106.292H117.442C117.757 106.292 118.058 106.418 118.281 106.64C118.504 106.863 118.629 107.165 118.629 107.479V111.381H117.19L117.172 108.119C117.172 108.047 117.143 107.978 117.092 107.928C117.04 107.877 116.971 107.849 116.899 107.849H109.798C109.726 107.849 109.656 107.877 109.605 107.928C109.554 107.979 109.525 108.048 109.525 108.12V111.381H108.136Z" fill="black"/>
<path d="M117.274 103.162L113.783 101.536L113.298 100.41L107.377 102.472L110.006 108.593L115.927 106.531L114.807 103.921L116.409 104.667C116.628 104.773 116.879 104.795 117.113 104.728C117.347 104.661 117.549 104.511 117.679 104.305C117.92 103.889 117.739 103.378 117.274 103.162Z" fill="#666666" stroke="black" stroke-width="0.5" stroke-linecap="round" stroke-linejoin="round"/>
<path d="M104.247 51.5239L114.029 100.989L107.581 103.642L101.613 87.8364L104.247 51.5239Z" fill="#B3B3B3" stroke="black" stroke-width="0.5" stroke-linecap="round" stroke-linejoin="round"/>
<path d="M130.637 116.816H96.8772V133.748H130.637V116.816Z" fill="#666666" stroke="black" stroke-width="0.5" stroke-linecap="round" stroke-linejoin="round"/>
<path d="M131.396 110.182H95.9917V120.29H131.396V110.182Z" fill="#4C4C4C" stroke="black" stroke-width="0.5" stroke-linecap="round" stroke-linejoin="round"/>
<path d="M103.326 117.574H100.923V122.249H103.326V117.574Z" fill="black" stroke="black" stroke-width="0.5" stroke-miterlimit="10" stroke-linecap="round" stroke-linejoin="round"/>
<path d="M126.655 117.574H124.252V122.249H126.655V117.574Z" fill="black" stroke="black" stroke-width="0.5" stroke-miterlimit="10" stroke-linecap="round" stroke-linejoin="round"/>
<path d="M150.047 86.1413L133.999 91.2838C133.877 91.3161 133.765 91.3769 133.671 91.4609C133.578 91.545 133.505 91.6501 133.46 91.7676L133.196 92.4545C133.196 92.4545 129.701 92.4901 128.217 91.4565C126.733 90.4229 125.494 87.9012 125.494 87.9012L132.252 86.4904L147.126 78.491L151.235 70.9067L160.876 76.6206L150.047 86.1413Z" fill="#CCCCCC" stroke="black" stroke-width="0.5" stroke-linecap="round" stroke-linejoin="round"/>
<path d="M124.821 93.0412H119.213L109.926 90.5601L111.858 84.2202L121.236 87.0683L131.099 86.3636" fill="#666666"/>
<path d="M124.821 93.0412H119.213L109.926 90.5601L111.858 84.2202L121.236 87.0683L131.099 86.3636" stroke="black" stroke-width="0.5" stroke-linecap="round" stroke-linejoin="round"/>
<path d="M72.0561 184.355H66.0818L67.5353 174.83H73.5097L72.0561 184.355Z" fill="#666666" stroke="black" stroke-width="0.5" stroke-miterlimit="10" stroke-linecap="round" stroke-linejoin="round"/>
<path d="M98.857 185.262H92.9144L91.2703 172.506L98.3513 172.002L98.857 185.262Z" fill="#666666" stroke="black" stroke-width="0.5" stroke-miterlimit="10" stroke-linecap="round" stroke-linejoin="round"/>
<path d="M102.023 94.5142H76.4195L62.6208 177.957L75.6749 179.82L89.2207 107.115L88.7938 180.374L102.023 178.991V94.5142Z" fill="#808080" stroke="black" stroke-width="0.5" stroke-miterlimit="10" stroke-linecap="round" stroke-linejoin="round"/>
<path d="M68.7312 178.83L84.5272 94.5142" stroke="black" stroke-width="0.5" stroke-miterlimit="10" stroke-linecap="round" stroke-linejoin="round"/>
<path d="M96.8492 179.592L95.4795 94.5142" stroke="black" stroke-width="0.5" stroke-miterlimit="10" stroke-linecap="round" stroke-linejoin="round"/>
<path d="M92.1367 191.366L92.631 182.52L95.7376 182.726L96.6537 181.137C96.7578 180.957 96.8976 180.8 97.0645 180.677C97.2313 180.553 97.4217 180.465 97.624 180.417C97.8263 180.369 98.0362 180.364 98.2407 180.4C98.4453 180.437 98.6403 180.514 98.8137 180.629L100.04 182.153C100.04 182.153 104.389 183.738 109.47 185.875C112.949 187.338 114.865 188.628 114.865 188.628L116.021 189.371C116.137 189.44 116.233 189.536 116.301 189.652C116.369 189.768 116.407 189.9 116.41 190.034C116.413 190.168 116.382 190.301 116.319 190.42C116.257 190.539 116.165 190.641 116.053 190.715C115.981 190.761 115.902 190.795 115.818 190.814C115.357 190.93 113.379 191.398 111.648 191.339C109.107 191.254 105.755 191.498 102.252 190.996C99.773 190.642 98.383 190.207 97.5507 190.05L97.3945 191.371L92.1367 191.366Z" fill="black" stroke="black" stroke-width="0.5" stroke-miterlimit="10" stroke-linecap="round" stroke-linejoin="round"/>
<path d="M109.47 191.38C109.47 191.38 109.734 189.602 110.445 188.367C111.155 187.131 111.761 186.897 111.761 186.897C111.761 186.897 116.619 189.001 116.419 190.107C116.193 191.366 113.164 191.279 111.91 191.319C110.656 191.358 109.47 191.38 109.47 191.38Z" fill="white" stroke="black" stroke-width="0.5" stroke-miterlimit="10" stroke-linecap="round" stroke-linejoin="round"/>
<path d="M100.187 184.058C100.187 184.058 100.713 183.248 101.331 182.789C101.948 182.329 102.997 182.34 102.997 182.34" stroke="white" stroke-width="0.5" stroke-linecap="round" stroke-linejoin="round"/>
<path d="M102.136 185.218C102.136 185.218 102.662 184.407 103.28 183.948C103.897 183.488 104.944 183.5 104.944 183.5" stroke="white" stroke-width="0.5" stroke-linecap="round" stroke-linejoin="round"/>
<path d="M104.071 186.323C104.071 186.323 104.597 185.513 105.215 185.054C105.832 184.594 106.881 184.605 106.881 184.605" stroke="white" stroke-width="0.5" stroke-linecap="round" stroke-linejoin="round"/>
<path d="M73.126 190.554L72.6317 181.708L69.5251 181.915L68.6091 180.325C68.5049 180.146 68.3651 179.989 68.1983 179.865C68.0314 179.741 67.841 179.653 67.6387 179.605C67.4365 179.558 67.2266 179.552 67.022 179.589C66.8174 179.625 66.6224 179.703 66.449 179.817L65.2229 181.341C65.2229 181.341 60.8737 182.927 55.7926 185.064C52.3137 186.527 50.3976 187.817 50.3976 187.817L49.2414 188.56C49.1257 188.628 49.0294 188.725 48.9614 188.841C48.8935 188.957 48.8562 189.088 48.853 189.223C48.8498 189.357 48.8809 189.49 48.9433 189.609C49.0057 189.728 49.0973 189.829 49.2096 189.903C49.2815 189.95 49.3611 189.983 49.4447 190.002C49.9059 190.119 51.8842 190.586 53.6148 190.528C56.156 190.443 59.5078 190.686 63.0108 190.185C65.4897 189.831 66.8798 189.395 67.712 189.239L67.8683 190.559L73.126 190.554Z" fill="black" stroke="black" stroke-width="0.5" stroke-miterlimit="10" stroke-linecap="round" stroke-linejoin="round"/>
<path d="M55.7925 190.569C55.7925 190.569 55.5282 188.791 54.818 187.556C54.1077 186.32 53.5016 186.086 53.5016 186.086C53.5016 186.086 48.6441 188.19 48.8436 189.296C49.0698 190.555 52.0989 190.468 53.353 190.508C54.607 190.547 55.7925 190.569 55.7925 190.569Z" fill="white" stroke="black" stroke-width="0.5" stroke-miterlimit="10" stroke-linecap="round" stroke-linejoin="round"/>
<path d="M65.0756 183.247C65.0756 183.247 64.5496 182.437 63.9321 181.977C63.3146 181.517 62.2664 181.529 62.2664 181.529" stroke="white" stroke-width="0.5" stroke-linecap="round" stroke-linejoin="round"/>
<path d="M63.1266 184.406C63.1266 184.406 62.6006 183.596 61.9831 183.137C61.3656 182.677 60.3186 182.689 60.3186 182.689" stroke="white" stroke-width="0.5" stroke-linecap="round" stroke-linejoin="round"/>
<path d="M61.1914 185.512C61.1914 185.512 60.6654 184.702 60.0478 184.243C59.4303 183.783 58.3821 183.794 58.3821 183.794" stroke="white" stroke-width="0.5" stroke-linecap="round" stroke-linejoin="round"/>
<path d="M84.0725 50.5866C84.4994 50.146 92.799 46.1323 92.799 46.1323L103.11 50.5866V95.0014L86.7192 96.2623L84.0725 50.5866Z" fill="white" stroke="black" stroke-width="0.5" stroke-linecap="round" stroke-linejoin="round"/>
<path d="M90.1685 46.0537L92.4987 49.3056L91.6373 51.8082L93.2153 77.1602L99.4108 83.7959L101.453 74.6689L95.0361 50.8102L93.5724 49.1633L95.6282 46.2264L90.1685 46.0537Z" fill="black" stroke="black" stroke-width="0.5" stroke-linecap="round" stroke-linejoin="round"/>
<path d="M122.772 91.53L126.737 95.7201C126.918 95.9109 127.164 96.0256 127.426 96.041C127.688 96.0563 127.947 95.9711 128.148 95.8027C128.237 95.7281 128.31 95.6361 128.362 95.5322C128.414 95.4283 128.445 95.3149 128.451 95.1988C128.458 95.0828 128.441 94.9666 128.4 94.8575C128.36 94.7485 128.298 94.6488 128.218 94.5647L124.389 90.5522" fill="#666666"/>
<path d="M122.772 91.53L126.737 95.7201C126.918 95.9109 127.164 96.0256 127.426 96.041C127.688 96.0563 127.947 95.9711 128.148 95.8027V95.8027C128.237 95.7281 128.31 95.6361 128.362 95.5322C128.414 95.4283 128.445 95.3149 128.451 95.1988C128.458 95.0828 128.441 94.9666 128.4 94.8575C128.36 94.7485 128.298 94.6488 128.218 94.5647L124.389 90.5522" stroke="black" stroke-width="0.5" stroke-linecap="round" stroke-linejoin="round"/>
<path d="M124.758 91.0056L128.722 95.1958C128.903 95.3865 129.15 95.501 129.412 95.5161C129.674 95.5312 129.933 95.4457 130.134 95.2771C130.223 95.2024 130.296 95.1103 130.348 95.0065C130.4 94.9026 130.43 94.7892 130.437 94.6732C130.443 94.5572 130.426 94.4411 130.386 94.332C130.346 94.223 130.284 94.1233 130.204 94.0391L126.379 90.0254" fill="#666666"/>
<path d="M124.758 91.0056L128.722 95.1958C128.903 95.3865 129.15 95.501 129.412 95.5161C129.674 95.5312 129.933 95.4457 130.134 95.2771V95.2771C130.223 95.2024 130.296 95.1103 130.348 95.0065C130.4 94.9026 130.43 94.7892 130.437 94.6732C130.443 94.5572 130.426 94.4411 130.386 94.332C130.346 94.223 130.284 94.1233 130.204 94.0391L126.379 90.0254" stroke="black" stroke-width="0.5" stroke-linecap="round" stroke-linejoin="round"/>
<path d="M126.423 90L130.387 94.1902C130.567 94.381 130.814 94.4958 131.076 94.5111C131.339 94.5265 131.597 94.4412 131.798 94.2727C131.888 94.1981 131.96 94.106 132.012 94.0021C132.065 93.8982 132.095 93.7848 132.101 93.6688C132.108 93.5528 132.091 93.4367 132.051 93.3277C132.01 93.2186 131.948 93.1189 131.868 93.0347L128.044 89.021" fill="#666666"/>
<path d="M126.423 90L130.387 94.1902C130.567 94.381 130.814 94.4958 131.076 94.5111C131.339 94.5265 131.597 94.4412 131.798 94.2727V94.2727C131.888 94.1981 131.96 94.106 132.012 94.0021C132.065 93.8982 132.095 93.7848 132.101 93.6688C132.108 93.5528 132.091 93.4367 132.051 93.3277C132.01 93.2186 131.948 93.1189 131.868 93.0347L128.044 89.021" stroke="black" stroke-width="0.5" stroke-linecap="round" stroke-linejoin="round"/>
<path d="M128.089 89.0503L132.054 93.2405C132.234 93.4316 132.481 93.5466 132.743 93.562C133.005 93.5773 133.264 93.4918 133.465 93.3231C133.554 93.2484 133.627 93.1563 133.679 93.0524C133.731 92.9486 133.762 92.8352 133.768 92.7192C133.775 92.6032 133.757 92.4871 133.717 92.378C133.677 92.269 133.615 92.1693 133.535 92.0851L128.961 87.1025" fill="#666666"/>
<path d="M128.089 89.0503L132.054 93.2405C132.234 93.4316 132.481 93.5466 132.743 93.562C133.005 93.5773 133.264 93.4918 133.465 93.3231V93.3231C133.554 93.2484 133.627 93.1563 133.679 93.0524C133.731 92.9486 133.762 92.8352 133.768 92.7192C133.775 92.6032 133.757 92.4871 133.717 92.378C133.677 92.269 133.615 92.1693 133.535 92.0851L128.961 87.1025" stroke="black" stroke-width="0.5" stroke-linecap="round" stroke-linejoin="round"/>
<path d="M125.66 95.9819L121.312 93.9147C120.697 93.6227 120.486 92.6551 120.983 92.1891L123.706 89.6318C124.185 89.1823 125.009 89.3144 125.508 89.7448L125.854 90.0445C126.135 89.7906 126.79 89.5836 127.203 89.9886C127.295 90.0593 127.37 90.1491 127.424 90.2518C127.477 90.3546 127.508 90.4678 127.514 90.5836C127.519 90.6994 127.499 90.815 127.455 90.9223C127.411 91.0297 127.345 91.1261 127.26 91.2051C127.412 91.0836 127.602 91.0191 127.797 91.0226C127.992 91.0261 128.179 91.0973 128.327 91.2241L128.454 91.36C128.741 91.6431 128.674 92.2336 128.454 92.4278C128.697 92.2094 129.225 92.1739 129.615 92.6018C130.03 93.0627 129.709 93.7446 129.275 94.1014L127.252 95.879C126.847 96.2358 126.145 96.2168 125.66 95.9819Z" fill="#CCCCCC" stroke="black" stroke-width="0.5" stroke-linecap="round" stroke-linejoin="round"/>
<path d="M125.848 90.0459L122.642 93.2431" stroke="black" stroke-width="0.5" stroke-linecap="round" stroke-linejoin="round"/>
<path d="M124.232 93.9995L127.255 91.2061" stroke="black" stroke-width="0.5" stroke-linecap="round" stroke-linejoin="round"/>
<path d="M125.909 94.7184L128.457 92.4277" stroke="black" stroke-width="0.5" stroke-linecap="round" stroke-linejoin="round"/>
<path d="M111.811 109.822L116.547 108.955C116.702 108.926 116.848 108.861 116.971 108.763C117.095 108.666 117.193 108.54 117.257 108.396C117.321 108.253 117.348 108.095 117.338 107.938C117.327 107.782 117.278 107.63 117.195 107.496L115.231 104.321C115.064 104.051 114.803 103.853 114.497 103.764C114.192 103.675 113.865 103.703 113.579 103.841L113.166 104.041C113.068 103.885 112.913 103.774 112.734 103.729C112.556 103.685 112.367 103.712 112.207 103.803L109.304 105.465C109.175 105.539 109.063 105.639 108.974 105.757C108.885 105.876 108.822 106.012 108.788 106.156C108.754 106.301 108.75 106.45 108.777 106.596C108.803 106.742 108.859 106.881 108.942 107.004L110.433 109.242C110.581 109.462 110.79 109.635 111.035 109.738C111.28 109.841 111.549 109.87 111.811 109.822Z" fill="#666666" stroke="black" stroke-width="0.5" stroke-linecap="round" stroke-linejoin="round"/>
<path d="M113.161 104.035L115.427 107.956" stroke="black" stroke-width="0.5" stroke-linecap="round" stroke-linejoin="round"/>
<path d="M113.694 108.273L111.229 104.356" stroke="black" stroke-width="0.5" stroke-linecap="round" stroke-linejoin="round"/>
<path d="M111.888 108.532L109.733 105.211" stroke="black" stroke-width="0.5" stroke-linecap="round" stroke-linejoin="round"/>
<path d="M132.267 88.7504C132.267 88.7504 131.262 89.3967 130.007 88.7022C129.416 88.3759 128.873 87.082 128.796 86.7975L129.761 89.6113C129.8 89.726 129.816 89.8475 129.806 89.9682C129.796 90.0889 129.762 90.2064 129.705 90.3134C129.648 90.4204 129.57 90.5147 129.476 90.5905C129.381 90.6663 129.272 90.722 129.155 90.7541C128.895 90.8245 128.617 90.7931 128.378 90.6666C128.14 90.54 127.958 90.3275 127.871 90.0723L126.753 86.8052C126.677 86.5846 126.688 86.3433 126.785 86.1309C126.881 85.9185 127.055 85.7508 127.271 85.6624L128.943 84.978C129.131 84.9009 129.334 84.8707 129.536 84.8899C129.738 84.9092 129.932 84.9773 130.102 85.0885L132.252 86.4954" fill="#CCCCCC"/>
<path d="M132.267 88.7504C132.267 88.7504 131.262 89.3967 130.007 88.7022C129.416 88.3759 128.873 87.082 128.796 86.7975L129.761 89.6113C129.8 89.726 129.816 89.8475 129.806 89.9682C129.796 90.0889 129.762 90.2064 129.705 90.3134C129.648 90.4204 129.57 90.5147 129.476 90.5905C129.381 90.6663 129.272 90.722 129.155 90.7541V90.7541C128.895 90.8245 128.617 90.7931 128.378 90.6666C128.14 90.54 127.958 90.3275 127.871 90.0723L126.753 86.8052C126.677 86.5846 126.688 86.3433 126.785 86.1309C126.881 85.9185 127.055 85.7508 127.271 85.6624L128.943 84.978C129.131 84.9009 129.334 84.8707 129.536 84.8899C129.738 84.9092 129.932 84.9773 130.102 85.0885L132.252 86.4954" stroke="black" stroke-width="0.5" stroke-linecap="round" stroke-linejoin="round"/>
<path d="M165.958 50.4448L165.899 56.8304C165.899 56.8304 164.247 67.7566 167.278 67.189C170.31 66.6215 172.562 55.9073 172.562 55.9073C172.562 55.9073 171.459 54.8038 171.395 52.8446C171.332 50.8854 171.903 46.2749 171.903 46.2749L165.958 50.4448Z" fill="#CCCCCC" stroke="black" stroke-width="0.5" stroke-miterlimit="10" stroke-linecap="round" stroke-linejoin="round"/>
<path d="M120.18 86.1734L118.167 85.646L116.302 92.7526L118.316 93.2801L120.18 86.1734Z" fill="black" stroke="black" stroke-width="0.5" stroke-linecap="round" stroke-linejoin="round"/>
<path d="M120.782 89.9874L120.598 89.9468C120.574 89.9373 120.554 89.919 120.542 89.8955C120.531 89.8719 120.528 89.8449 120.536 89.8198L120.62 89.4389C120.623 89.412 120.637 89.3875 120.658 89.3706C120.679 89.3537 120.706 89.3459 120.733 89.3487L120.917 89.3894C120.929 89.3934 120.941 89.4001 120.95 89.409C120.96 89.4179 120.967 89.4288 120.972 89.4409C120.977 89.453 120.979 89.4661 120.979 89.4791C120.978 89.4921 120.974 89.5049 120.968 89.5163L120.884 89.8973C120.884 89.9102 120.882 89.923 120.877 89.9349C120.871 89.9468 120.864 89.9573 120.854 89.9659C120.844 89.9745 120.833 89.9809 120.821 89.9846C120.808 89.9883 120.795 89.9893 120.782 89.9874Z" fill="black"/>
<path d="M118.428 91.3598C119.656 91.3598 120.652 90.3643 120.652 89.1364C120.652 87.9085 119.656 86.9131 118.428 86.9131C117.199 86.9131 116.203 87.9085 116.203 89.1364C116.203 90.3643 117.199 91.3598 118.428 91.3598Z" fill="white" stroke="black" stroke-width="0.5" stroke-linecap="round" stroke-linejoin="round"/>
<path d="M117.425 87.6318L118.362 89.3371" stroke="black" stroke-width="0.5" stroke-linecap="round" stroke-linejoin="round"/>
<path d="M120.062 89.1084L118.362 89.337" stroke="black" stroke-width="0.5" stroke-linecap="round" stroke-linejoin="round"/>
<path d="M96.5635 46.4614L101.121 48.2835C102.096 48.6731 102.938 49.3339 103.548 50.1876C104.158 51.0413 104.51 52.052 104.562 53.0997L106.595 94.1014C106.603 94.2638 106.659 95.8753 106.519 96.2537C106.462 96.4061 106.375 96.5455 106.263 96.6633C106.151 96.7811 106.016 96.8749 105.866 96.9389C105.717 97.003 105.556 97.0361 105.393 97.036H101.121L98.2877 72.6527L96.5635 46.4614Z" fill="#B3B3B3"/>
<path d="M96.5635 46.4614L96.6563 46.2293C96.5766 46.1974 96.486 46.2087 96.4166 46.2591C96.3471 46.3096 96.3084 46.3922 96.314 46.4778L96.5635 46.4614ZM101.121 48.2835L101.028 48.5157L101.028 48.5157L101.121 48.2835ZM104.562 53.0997L104.812 53.0873L104.812 53.0873L104.562 53.0997ZM106.595 94.1014L106.345 94.1138L106.345 94.1138L106.595 94.1014ZM106.519 96.2537L106.753 96.3407L106.519 96.2537ZM105.393 97.036L105.393 96.786H105.393V97.036ZM101.121 97.036L100.873 97.0649C100.887 97.1909 100.994 97.286 101.121 97.286V97.036ZM98.2877 72.6527L98.0379 72.6691L98.0394 72.6815L98.2877 72.6527ZM96.4707 46.6936L101.028 48.5157L101.214 48.0514L96.6563 46.2293L96.4707 46.6936ZM101.028 48.5157C101.959 48.8874 102.762 49.5182 103.344 50.3329L103.751 50.0423C103.114 49.1496 102.233 48.4587 101.214 48.0514L101.028 48.5157ZM103.344 50.3329C103.927 51.1477 104.262 52.1123 104.312 53.1121L104.812 53.0873C104.757 51.9918 104.389 50.9349 103.751 50.0423L103.344 50.3329ZM104.312 53.1121L106.345 94.1138L106.845 94.089L104.812 53.0873L104.312 53.1121ZM106.345 94.1138C106.349 94.1909 106.365 94.6297 106.363 95.0952C106.361 95.328 106.355 95.564 106.342 95.7633C106.327 95.9735 106.305 96.1105 106.284 96.1666L106.753 96.3407C106.803 96.2077 106.826 96.0014 106.84 95.7979C106.855 95.5835 106.861 95.3355 106.863 95.0979C106.865 94.6224 106.849 94.1743 106.845 94.0889L106.345 94.1138ZM106.284 96.1666C106.24 96.2873 106.171 96.3976 106.082 96.4909L106.444 96.8357C106.579 96.6933 106.685 96.5249 106.753 96.3407L106.284 96.1666ZM106.082 96.4909C105.993 96.5841 105.886 96.6584 105.768 96.7091L105.965 97.1687C106.145 97.0913 106.308 96.978 106.444 96.8357L106.082 96.4909ZM105.768 96.7091C105.649 96.7599 105.522 96.786 105.393 96.786L105.393 97.286C105.589 97.2861 105.784 97.2461 105.965 97.1687L105.768 96.7091ZM105.393 96.786H101.121V97.286H105.393V96.786ZM101.369 97.0072L98.536 72.6238L98.0394 72.6815L100.873 97.0649L101.369 97.0072ZM98.5371 72.6363L96.8129 46.445L96.314 46.4778L98.0382 72.6691L98.5371 72.6363Z" fill="black"/>
<path d="M97.2129 44.2568L92.7988 46.1323L95.3845 49.8742L100.101 48.4115L97.2129 44.2568Z" fill="white" stroke="black" stroke-width="0.5" stroke-linecap="round" stroke-linejoin="round"/>
<path d="M87.3173 45.8936L83.0952 48.508C77.8031 51.0145 75.9107 53.1607 75.4465 57.5714L74.1022 92.9152C74.016 95.1824 75.8306 97.0673 78.0994 97.0673H100.982L98.2864 72.6524L87.3173 45.8936Z" fill="#B3B3B3"/>
<path d="M87.3173 45.8936L87.5486 45.7987C87.5208 45.7307 87.4644 45.6784 87.3945 45.6558C87.3246 45.6331 87.2482 45.6423 87.1857 45.681L87.3173 45.8936ZM83.0952 48.508L83.2022 48.7339C83.2106 48.7299 83.2188 48.7255 83.2268 48.7205L83.0952 48.508ZM75.4465 57.5714L75.1978 57.5453C75.1973 57.5508 75.1969 57.5564 75.1966 57.5619L75.4465 57.5714ZM100.982 97.0673V97.3173C101.053 97.3173 101.121 97.287 101.168 97.2341C101.216 97.1811 101.238 97.1105 101.231 97.0398L100.982 97.0673ZM98.2864 72.6524L98.5349 72.625C98.5323 72.6018 98.5265 72.5791 98.5177 72.5576L98.2864 72.6524ZM87.1857 45.681L82.9635 48.2954L83.2268 48.7205L87.4489 46.1061L87.1857 45.681ZM82.9881 48.2821C80.3326 49.5398 78.4976 50.7214 77.27 52.1636C76.0356 53.6139 75.4336 55.306 75.1978 57.5453L75.6951 57.5976C75.9237 55.4262 76.5 53.8398 77.6508 52.4877C78.8085 51.1275 80.5657 49.9827 83.2022 48.7339L82.9881 48.2821ZM75.1966 57.5619L73.8524 92.9057L74.3521 92.9247L75.6963 57.5809L75.1966 57.5619ZM78.0994 97.3173H100.982V96.8173H78.0994V97.3173ZM101.231 97.0398L98.5349 72.625L98.0379 72.6798L100.734 97.0947L101.231 97.0398ZM98.5177 72.5576L87.5486 45.7987L87.086 45.9884L98.055 72.7472L98.5177 72.5576ZM73.8524 92.9057C73.7608 95.3146 75.6888 97.3173 78.0994 97.3173V96.8173C75.9724 96.8173 74.2712 95.0502 74.3521 92.9247L73.8524 92.9057Z" fill="black"/>
<path d="M86.8449 43.5103L83.0967 48.508L91.4635 50.6133L92.7989 46.1323L86.8449 43.5103Z" fill="white" stroke="black" stroke-width="0.5" stroke-linecap="round" stroke-linejoin="round"/>
<path d="M75.4463 58.2681L76.5032 77.4687C76.532 78.8634 77.0067 80.2123 77.8579 81.3179C78.7091 82.4235 79.892 83.2279 81.2337 83.6131L116.818 93.8346L118.383 85.2905L93.1391 74.7515C92.5136 74.4911 91.958 74.0878 91.5166 73.574C91.0753 73.0603 90.7607 72.4502 90.5979 71.7929L88.0809 61.6349" fill="#B3B3B3"/>
<path d="M75.4463 58.2681L76.5032 77.4687C76.532 78.8634 77.0067 80.2123 77.8579 81.3179C78.7091 82.4235 79.892 83.2279 81.2337 83.6131L116.818 93.8346L118.383 85.2905L93.1391 74.7515C92.5136 74.4911 91.958 74.0878 91.5166 73.574C91.0753 73.0603 90.7607 72.4502 90.5979 71.7929L88.0809 61.6349" stroke="black" stroke-width="0.5" stroke-linecap="round" stroke-linejoin="round"/>
<path d="M171.966 44.568C172.191 42.2228 172.474 38.8833 170.041 37.4256C167.724 36.0391 164.929 36.7108 163.483 38.9608C162.502 40.4845 162.28 42.3599 162.23 44.1376C162.179 46.0041 162.324 47.9227 163.257 49.5747C164.242 51.318 166.648 51.0552 168.351 50.6248C170.358 50.1169 172.149 48.8217 173.379 47.1723C173.76 46.6644 174.096 46.1057 174.17 45.4797C174.244 44.8537 173.983 44.1541 173.418 43.8747C172.853 43.5954 172.025 43.942 171.966 44.568Z" fill="#CCCCCC" stroke="black" stroke-width="0.5" stroke-linecap="round" stroke-linejoin="round"/>
<path d="M162.5 38.1267C161.883 38.9622 161.434 39.9043 161.042 40.8681C160.993 40.9575 160.98 41.0625 161.005 41.1614C161.064 41.2998 161.247 41.3252 161.398 41.3277L164.097 41.3836C164.14 41.388 164.183 41.3819 164.224 41.3658C164.271 41.3356 164.307 41.2911 164.328 41.2388L165.464 39.0625C165.573 39.9309 165.746 40.7903 165.98 41.6337C165.992 41.7097 166.03 41.779 166.088 41.8306C166.142 41.8615 166.203 41.8765 166.266 41.8737L167.206 41.9258C167.252 41.9332 167.299 41.9265 167.342 41.9067C167.41 41.8648 167.418 41.7696 167.418 41.6896C167.42 40.239 167.556 38.7917 167.825 37.3661C168.224 38.6381 168.527 39.9382 168.733 41.2554C168.77 41.4903 168.821 41.7531 169.021 41.8814C169.135 41.9423 169.261 41.9766 169.39 41.9817C170.071 42.0604 170.747 42.1745 171.417 42.3232C171.642 41.7256 171.881 41.133 172.134 40.5456L171.968 40.637C172.103 41.1917 172.158 41.763 172.131 42.3334C172.115 42.3763 172.111 42.4227 172.12 42.4675C172.128 42.5124 172.149 42.5541 172.179 42.5883C172.21 42.6225 172.249 42.6478 172.292 42.6618C172.336 42.6757 172.382 42.6776 172.427 42.6673H173.189C173.261 42.6747 173.333 42.6596 173.396 42.6242C173.45 42.5749 173.485 42.5092 173.497 42.4375C173.639 41.8725 173.536 41.2782 173.434 40.7043C173.307 39.9856 173.172 39.2542 172.84 38.6041C172.314 37.5769 171.325 36.8442 170.254 36.4163C169.183 35.9884 168.021 35.836 166.873 35.7256C166.497 35.6735 166.116 35.6735 165.74 35.7256C165.197 35.8246 164.543 36.2716 164.088 36.5814C163.473 37.0014 162.936 37.5241 162.5 38.1267Z" fill="#1A1A1A"/>
<path d="M174.126 43.2931C173.412 43.0856 172.686 42.9253 171.952 42.8131L171.892 40.7447L171.46 42.3738C171.458 42.3912 171.452 42.408 171.443 42.423C171.434 42.4381 171.422 42.4512 171.408 42.4614C171.381 42.4715 171.351 42.4715 171.324 42.4614C170.66 42.2989 169.996 42.2151 169.328 42.064C169.187 42.0608 169.052 42.0035 168.952 41.9041C168.852 41.8046 168.793 41.6705 168.789 41.5294C168.472 40.0438 168.154 38.5577 167.835 37.0713C167.866 37.2122 167.766 37.47 167.745 37.6147C167.712 37.8331 167.683 38.0515 167.657 38.2699C167.608 38.7084 167.573 39.1478 167.552 39.5879C167.516 40.3777 167.503 41.1751 167.505 41.9598L166.049 41.9319C165.876 41.9319 165.712 40.2419 165.681 40.0489C165.61 39.6537 165.562 39.2547 165.536 38.854C165.092 39.6794 164.66 40.4831 164.417 41.3935C164.417 41.4164 164.403 41.4431 164.382 41.4519C164.367 41.4564 164.352 41.4564 164.337 41.4519C163.368 41.2744 162.38 41.2317 161.399 41.325" stroke="black" stroke-width="0.5" stroke-linecap="round" stroke-linejoin="round"/>
<path d="M172.353 49.364C173.207 49.364 173.899 48.6722 173.899 47.8187C173.899 46.9653 173.207 46.2734 172.353 46.2734C171.499 46.2734 170.807 46.9653 170.807 47.8187C170.807 48.6722 171.499 49.364 172.353 49.364Z" fill="#B3B3B3" stroke="black" stroke-width="0.5" stroke-miterlimit="10" stroke-linecap="round" stroke-linejoin="round"/>
<path d="M163.637 44.8883C163.899 44.8883 164.112 44.6756 164.112 44.4134C164.112 44.1511 163.899 43.9385 163.637 43.9385C163.374 43.9385 163.162 44.1511 163.162 44.4134C163.162 44.6756 163.374 44.8883 163.637 44.8883Z" fill="black"/>
<path d="M167.306 44.8883C167.569 44.8883 167.781 44.6756 167.781 44.4134C167.781 44.1511 167.569 43.9385 167.306 43.9385C167.044 43.9385 166.831 44.1511 166.831 44.4134C166.831 44.6756 167.044 44.8883 167.306 44.8883Z" fill="black"/>
<path d="M165.271 43.8877C165.043 44.3397 164.872 44.8182 164.763 45.3124C164.714 45.5346 164.685 45.7923 164.834 45.9663C164.895 46.0332 164.971 46.0842 165.056 46.1149C165.288 46.2089 165.547 46.2138 165.783 46.1288" stroke="black" stroke-width="0.5" stroke-linecap="round" stroke-linejoin="round"/>
<path d="M162.761 43.4747C163.138 43.1702 163.543 42.9024 163.971 42.6748" stroke="black" stroke-width="0.5" stroke-linecap="round" stroke-linejoin="round"/>
<path d="M166.732 42.8413L168.183 43.2832" stroke="black" stroke-width="0.5" stroke-linecap="round" stroke-linejoin="round"/>
<path d="M164.995 47.8889C164.995 47.8889 165.504 48.6723 166.304 48.4997C167.321 48.2787 167.429 47.1245 167.429 47.1245C167.429 47.1245 166.618 47.5113 166.214 47.6231C165.819 47.7391 165.518 47.8552 164.995 47.8889Z" fill="white" stroke="black" stroke-width="0.5" stroke-linecap="round" stroke-linejoin="round"/>
<path d="M130.92 35.201H144.438C144.944 35.201 145.432 35.3878 145.808 35.7255L151.86 41.1575L151.951 35.201C153.07 35.201 154.143 34.7569 154.934 33.9663C155.725 33.1758 156.17 32.1035 156.17 30.9855V18.5266C156.17 17.973 156.061 17.4247 155.849 16.9132C155.637 16.4016 155.326 15.9369 154.935 15.5454C154.543 15.1539 154.078 14.8434 153.566 14.6316C153.054 14.4198 152.505 14.3109 151.951 14.311H130.92C130.366 14.3109 129.818 14.4198 129.306 14.6316C128.794 14.8434 128.329 15.1539 127.937 15.5454C127.546 15.9369 127.235 16.4016 127.023 16.9132C126.811 17.4247 126.702 17.973 126.702 18.5266V30.9918C126.704 32.1088 127.149 33.1794 127.94 33.9686C128.731 34.7578 129.803 35.201 130.92 35.201Z" fill="white" stroke="black" stroke-width="0.5" stroke-linecap="round" stroke-linejoin="round"/>
<path d="M147.206 32.0394H127.847C127.341 32.0395 126.854 32.2258 126.477 32.5626L120.425 37.9959L120.334 32.0394C119.78 32.0394 119.231 31.9304 118.719 31.7184C118.207 31.5065 117.742 31.1959 117.351 30.8043C116.959 30.4127 116.648 29.9478 116.436 29.4362C116.224 28.9246 116.115 28.3763 116.115 27.8226V15.3587C116.115 14.805 116.224 14.2568 116.436 13.7452C116.648 13.2337 116.959 12.7689 117.351 12.3774C117.742 11.9859 118.208 11.6754 118.719 11.4636C119.231 11.2518 119.78 11.1429 120.334 11.1431H147.206C148.324 11.1431 149.397 11.5872 150.188 12.3778C150.98 13.1684 151.424 14.2406 151.424 15.3587V27.8226C151.424 28.9407 150.98 30.0131 150.189 30.8039C149.397 31.5947 148.325 32.0391 147.206 32.0394Z" fill="#999999" stroke="black" stroke-width="0.5" stroke-linecap="round" stroke-linejoin="round"/>
<path d="M126.863 23.851C128.117 23.851 129.133 22.8357 129.133 21.5832C129.133 20.3308 128.117 19.3154 126.863 19.3154C125.61 19.3154 124.594 20.3308 124.594 21.5832C124.594 22.8357 125.61 23.851 126.863 23.851Z" fill="white" stroke="black" stroke-width="0.5" stroke-miterlimit="10" stroke-linecap="round" stroke-linejoin="round"/>
<path d="M134.149 23.851C135.402 23.851 136.418 22.8357 136.418 21.5832C136.418 20.3308 135.402 19.3154 134.149 19.3154C132.896 19.3154 131.88 20.3308 131.88 21.5832C131.88 22.8357 132.896 23.851 134.149 23.851Z" fill="white" stroke="black" stroke-width="0.5" stroke-miterlimit="10" stroke-linecap="round" stroke-linejoin="round"/>
<path d="M141.436 23.851C142.689 23.851 143.705 22.8357 143.705 21.5832C143.705 20.3308 142.689 19.3154 141.436 19.3154C140.182 19.3154 139.167 20.3308 139.167 21.5832C139.167 22.8357 140.182 23.851 141.436 23.851Z" fill="white" stroke="black" stroke-width="0.5" stroke-miterlimit="10" stroke-linecap="round" stroke-linejoin="round"/>
<path d="M53.6746 11.1431V42.9809H35.547V11.618H34.5305V42.9809H16.403V11.1431H13.8618V146.762H56.2158V11.1431H53.6746ZM16.403 43.9967H34.5305V75.7406H16.403V43.9967ZM16.403 78.2802H34.5305V110.024H16.403V78.2802ZM16.403 144.222V111.04H34.5305V144.222H16.403ZM53.6746 144.222H35.547V111.04H53.6746V144.222ZM53.6746 110.024H35.547V78.2802H53.6746V110.024ZM53.6746 75.7406H35.547V43.9967H53.6746V75.7406Z" fill="white" stroke="black" stroke-width="0.5" stroke-linecap="round" stroke-linejoin="round"/>
<path d="M57.7164 16.1533H12.5684V18.6928H57.7164V16.1533Z" fill="#CCCCCC" stroke="black" stroke-width="0.5" stroke-linecap="round" stroke-linejoin="round"/>
<path d="M57.7164 19.2568H12.5684V21.7963H57.7164V19.2568Z" fill="#CCCCCC" stroke="black" stroke-width="0.5" stroke-linecap="round" stroke-linejoin="round"/>
<path d="M57.7164 22.3599H12.5684V24.8994H57.7164V22.3599Z" fill="#CCCCCC" stroke="black" stroke-width="0.5" stroke-linecap="round" stroke-linejoin="round"/>
<path d="M57.7164 25.4648H12.5684V28.0044H57.7164V25.4648Z" fill="#CCCCCC" stroke="black" stroke-width="0.5" stroke-linecap="round" stroke-linejoin="round"/>
<path d="M57.7164 28.5679H12.5684V31.1074H57.7164V28.5679Z" fill="#CCCCCC" stroke="black" stroke-width="0.5" stroke-linecap="round" stroke-linejoin="round"/>
<path d="M57.7164 31.6724H12.5684V34.2119H57.7164V31.6724Z" fill="#CCCCCC" stroke="black" stroke-width="0.5" stroke-linecap="round" stroke-linejoin="round"/>
<path d="M57.7164 34.7759H12.5684V37.3154H57.7164V34.7759Z" fill="#CCCCCC" stroke="black" stroke-width="0.5" stroke-linecap="round" stroke-linejoin="round"/>
<path d="M57.7164 37.8804H12.5684V40.4199H57.7164V37.8804Z" fill="#CCCCCC" stroke="black" stroke-width="0.5" stroke-linecap="round" stroke-linejoin="round"/>
<path d="M57.7164 40.9834H12.5684V43.5229H57.7164V40.9834Z" fill="#CCCCCC" stroke="black" stroke-width="0.5" stroke-linecap="round" stroke-linejoin="round"/>
<path d="M57.7164 44.0884H12.5684V46.6279H57.7164V44.0884Z" fill="#CCCCCC" stroke="black" stroke-width="0.5" stroke-linecap="round" stroke-linejoin="round"/>
<path d="M52.1069 119.038V11.8286H51.4716V119.038H51.0879V127.095H52.4919V119.038H52.1069Z" fill="#808080" stroke="black" stroke-width="0.5" stroke-linecap="round" stroke-linejoin="round"/>
<path d="M57.7164 11.1431H12.5684V15.5517H57.7164V11.1431Z" fill="#808080" stroke="black" stroke-width="0.5" stroke-linecap="round" stroke-linejoin="round"/>
<path d="M92.2232 33.764C92.2232 33.764 91.9093 29.6614 94.2676 28.9389C96.6258 28.2164 98.782 29.7922 100.084 30.6213C101.387 31.4505 103.876 31.34 103.876 31.34C103.876 31.34 103.155 38.7922 100.932 41.6111C98.7083 44.43 94.4671 42.5177 92.9639 41.0587C91.4608 39.5998 89.3377 36.9282 89.4177 34.7798C89.5384 31.4886 92.2232 33.764 92.2232 33.764Z" fill="#666666" stroke="black" stroke-width="0.5" stroke-linecap="round" stroke-linejoin="round"/>
<path d="M96.4314 32.3532L98.3004 32.2466" stroke="black" stroke-width="0.5" stroke-linecap="round" stroke-linejoin="round"/>
<path d="M101.778 33.0146L103.134 34.2857" stroke="black" stroke-width="0.5" stroke-linecap="round" stroke-linejoin="round"/>
<path d="M99.9852 34.8696C99.9852 34.8696 99.8582 37.5539 99.4338 37.6986C99.0094 37.8434 98.2471 37.1806 98.2471 37.1806" stroke="black" stroke-width="0.5" stroke-linecap="round" stroke-linejoin="round"/>
<path d="M95.4951 37.4116C95.4951 37.4116 95.6222 38.2598 96.2371 38.7169C96.8521 39.174 97.7187 39.2363 97.7187 39.2363" stroke="black" stroke-width="0.5" stroke-linecap="round" stroke-linejoin="round"/>
<path d="M97.3043 34.6846C97.6011 34.6846 97.8418 34.4441 97.8418 34.1475C97.8418 33.8508 97.6011 33.6104 97.3043 33.6104C97.0075 33.6104 96.7668 33.8508 96.7668 34.1475C96.7668 34.4441 97.0075 34.6846 97.3043 34.6846Z" fill="black"/>
<path d="M101.68 35.7519C101.977 35.7519 102.218 35.5115 102.218 35.2148C102.218 34.9182 101.977 34.6777 101.68 34.6777C101.383 34.6777 101.143 34.9182 101.143 35.2148C101.143 35.5115 101.383 35.7519 101.68 35.7519Z" fill="black"/>
<path d="M172.562 55.9072L167.308 65.546L165.899 56.8303L160.562 58.2169C157.116 59.747 155.395 62.8617 154.273 64.6076L147.563 76.0354L136.094 83.7923L139.698 90.0421L156.5 84.4488L155.851 92.3035C155.832 92.5364 155.862 92.7706 155.939 92.9911C156.016 93.2115 156.139 93.4133 156.3 93.5832C156.46 93.7531 156.654 93.8874 156.87 93.9774C157.086 94.0673 157.318 94.1109 157.552 94.1053L180.282 93.5441C180.655 93.535 181.013 93.3951 181.293 93.1488C181.574 92.9025 181.758 92.5655 181.815 92.1968L185.438 68.7648L181.185 57.7306L172.562 55.9072Z" fill="#E5E5E5" stroke="black" stroke-width="0.5" stroke-linecap="round" stroke-linejoin="round"/>
<path d="M157.771 65.8569L156.457 85.0874" stroke="black" stroke-width="0.5" stroke-miterlimit="10" stroke-linecap="round" stroke-linejoin="round"/>
<path d="M191.66 105.367L169.879 92.8574L161.107 108.11L182.888 120.619L191.66 105.367Z" fill="#1A1A1A" stroke="black" stroke-width="0.5" stroke-miterlimit="10" stroke-linecap="round" stroke-linejoin="round"/>
<path d="M189.303 105.386L167.622 92.876L158.85 108.059L180.532 120.568L189.303 105.386Z" fill="#B3B3B3" stroke="black" stroke-width="0.5" stroke-linecap="round" stroke-linejoin="round"/>
<path d="M189.331 92.8876L177.206 110.344C177.083 110.521 176.894 110.642 176.682 110.68C176.47 110.719 176.252 110.671 176.075 110.549L175.746 110.321L175.307 110.913C175.162 111.108 174.95 111.242 174.712 111.291C174.474 111.34 174.226 111.299 174.016 111.177L173.029 110.603C172.83 110.488 172.683 110.301 172.619 110.081C172.554 109.861 172.576 109.624 172.681 109.42L172.143 109.166C172.049 109.122 171.966 109.058 171.898 108.979C171.83 108.9 171.78 108.808 171.75 108.709C171.72 108.609 171.712 108.504 171.725 108.401C171.739 108.298 171.774 108.199 171.828 108.111L174.572 103.625C174.572 103.625 171.512 103.799 171.109 102.878C170.706 101.957 173.434 101.916 174.803 101.066C176.171 100.217 177.65 98.3996 177.65 98.3996L183.686 89.5405L189.331 92.8876Z" fill="#CCCCCC" stroke="black" stroke-width="0.5" stroke-linecap="round" stroke-linejoin="round"/>
<path d="M175.517 105.291L172.638 109.507" stroke="black" stroke-width="0.5" stroke-linecap="round" stroke-linejoin="round"/>
<path d="M176.909 105.689L173.631 110.721" stroke="black" stroke-width="0.5" stroke-linecap="round" stroke-linejoin="round"/>
<path d="M178.39 106.32L175.684 110.477" stroke="black" stroke-width="0.5" stroke-linecap="round" stroke-linejoin="round"/>
<path d="M194.578 85.0951L185.692 100.058L178.982 95.7128L184.682 80.4681L176.91 63.5245C176.122 62.1278 175.893 59.2276 177.871 58.0074L178.336 57.7535C180.601 56.8913 182.911 57.7128 185.011 61.1145L194.552 78.2892C195.129 79.3297 195.434 80.499 195.439 81.6888C195.444 82.8785 195.148 84.0502 194.578 85.0951Z" fill="#E5E5E5" stroke="black" stroke-width="0.5" stroke-linecap="round" stroke-linejoin="round"/>
<path d="M178.982 95.7127L185.525 78.2129" stroke="black" stroke-width="0.5" stroke-linecap="round" stroke-linejoin="round"/>
<path d="M212.02 174.406C212.02 174.406 206.26 169.738 199.685 172.14C193.109 174.543 191.16 178.983 190.525 179.073C189.89 179.163 188.167 176.037 189.981 171.963C191.796 167.888 195.513 167.295 198.28 167.612C201.046 167.93 203.857 169.107 203.857 169.107L210.433 171.963L212.02 174.406Z" fill="#E5E5E5" stroke="black" stroke-width="0.5" stroke-miterlimit="10" stroke-linecap="round" stroke-linejoin="round"/>
<path d="M208.565 159.343C208.565 159.343 212.752 160.899 213.927 163.708C215.102 166.517 215.198 166.883 215.198 166.883C215.198 166.883 214.366 163.937 208.569 161.852C202.773 159.767 198.012 160.582 198.012 160.582L202.909 158.042L208.565 159.343Z" fill="#E5E5E5" stroke="black" stroke-width="0.5" stroke-miterlimit="10" stroke-linecap="round" stroke-linejoin="round"/>
<path d="M225.421 154.706C225.421 154.706 228.117 150.842 234.696 149.799C241.275 148.757 247.121 153.424 247.893 154.014C248.664 154.603 249.208 155.827 249.842 155.781C250.476 155.735 252.02 151.022 248.708 147.488C245.397 143.954 241.72 143.772 239.367 144.271C237.014 144.77 227.305 150.802 227.305 150.802L225.421 154.706Z" fill="#E5E5E5" stroke="black" stroke-width="0.5" stroke-miterlimit="10" stroke-linecap="round" stroke-linejoin="round"/>
<path d="M214.286 147.397C214.286 147.397 211.11 150.161 203.857 149.21C196.605 148.259 191.115 145.086 191.115 145.086L196.959 143.364L189.387 144.27C189.387 144.27 181.722 141.506 181.496 139.603C181.27 137.699 196.235 135.932 200.087 136.385C203.94 136.839 207.838 137.655 207.838 137.655L208.564 141.28L209.788 138.198C209.788 138.198 214.323 139.922 214.821 142.594C215.118 144.213 214.932 145.883 214.286 147.397Z" fill="#666666" stroke="black" stroke-width="0.5" stroke-miterlimit="10" stroke-linecap="round" stroke-linejoin="round"/>
<path d="M212.02 161.4C212.02 161.4 205.988 159.588 202.315 160.494C198.642 161.401 192.658 163.213 192.658 163.213L194.247 160.81L190.841 163.575C190.841 163.575 182.543 165.66 181.772 164.436C181.001 163.212 187.532 158.545 192.292 157.548C197.053 156.552 202.405 157.049 205.261 157.91C208.118 158.771 212.02 161.4 212.02 161.4Z" fill="#666666" stroke="black" stroke-width="0.5" stroke-miterlimit="10" stroke-linecap="round" stroke-linejoin="round"/>
<path d="M225.17 155.01C225.17 155.01 228.474 150.932 230.747 149.074C233.02 147.217 234.512 146.535 234.512 146.535C234.512 146.535 223.31 151.614 222.766 153.559C222.223 155.504 225.17 155.01 225.17 155.01Z" fill="#666666" stroke="black" stroke-width="0.5" stroke-miterlimit="10" stroke-linecap="round" stroke-linejoin="round"/>
<path d="M212.02 174.405C212.02 174.405 208.482 171.731 207.485 171.098C206.488 170.464 203.857 169.103 203.857 169.103L212.2 171.754C212.2 171.754 214.015 172.185 213.924 173.319C213.834 174.452 212.02 174.405 212.02 174.405Z" fill="black" stroke="black" stroke-width="0.5" stroke-miterlimit="10" stroke-linecap="round" stroke-linejoin="round"/>
<path d="M227.434 171.755C227.434 171.755 226.391 170.418 228.024 167.971C229.657 165.524 233.194 163.122 238.907 161.4C244.619 159.678 256.91 158.545 257.499 160.041C258.089 161.537 253.644 162.216 251.655 162.805C249.665 163.395 244.943 165.932 244.943 165.932L239.226 166.203L244.124 166.612C244.124 166.612 239.505 169.374 235.058 170.373C230.611 171.373 227.434 171.755 227.434 171.755Z" fill="black" stroke="black" stroke-width="0.5" stroke-miterlimit="10" stroke-linecap="round" stroke-linejoin="round"/>
<path d="M231.337 181.113C231.337 181.113 228.073 177.442 232.29 174.637C236.507 171.832 247.117 174.637 247.117 174.637L244.17 176.676L249.975 175.814C249.975 175.814 253.914 177.491 256.369 180.346C258.823 183.2 258.91 184.062 258.182 184.47C257.454 184.877 252.695 183.79 250.7 184.062C249.396 184.252 248.107 184.54 246.846 184.923L241.636 182.113L245.671 185.287C245.671 185.287 241.454 187.372 238.145 187.237C234.835 187.101 232.476 185.922 231.614 183.793C230.751 181.664 231.337 181.113 231.337 181.113Z" fill="#666666" stroke="black" stroke-width="0.5" stroke-miterlimit="10" stroke-linecap="round" stroke-linejoin="round"/>
<path d="M228.253 193.302C228.253 193.302 228.253 190.811 230.929 189.858C233.604 188.906 237.73 190.493 237.73 190.493L236.007 192.261L238.773 190.765C238.773 190.765 243.49 193.212 246.8 195.844C250.11 198.476 252.377 201.282 252.015 201.736C251.653 202.189 244.805 201.418 244.805 201.418L240.776 197.698L243.586 201.415C243.586 201.415 236.649 200.825 232.25 197.925C227.851 195.025 228.253 193.302 228.253 193.302Z" fill="#666666" stroke="black" stroke-width="0.5" stroke-miterlimit="10" stroke-linecap="round" stroke-linejoin="round"/>
<path d="M206.668 190.811C206.668 190.811 211.384 190.086 210.931 192.215C210.477 194.345 207.711 196.204 202.225 197.155C196.738 198.106 190.435 203.408 188.121 202.955C185.807 202.502 188.809 196.293 188.809 196.293L194.018 195.477L189.438 195.16C189.438 195.16 193.428 188.963 198.507 187.235C203.586 185.507 206.668 190.811 206.668 190.811Z" fill="#666666" stroke="black" stroke-width="0.5" stroke-miterlimit="10" stroke-linecap="round" stroke-linejoin="round"/>
<path d="M212.836 186.324C212.836 186.324 212.02 187.684 204.809 186.098C197.599 184.512 196.865 183.334 196.865 183.334L200.048 181.884L195.286 182.79C195.286 182.79 188.258 182.065 188.171 181.249C188.083 180.432 193.402 178.349 199.107 178.576C204.812 178.803 210.391 180.822 212.024 182.713C213.656 184.603 212.836 186.324 212.836 186.324Z" fill="#666666" stroke="black" stroke-width="0.5" stroke-miterlimit="10" stroke-linecap="round" stroke-linejoin="round"/>
<path d="M249.181 200.304C249.181 200.304 233.425 189.831 228.244 192.685C215.988 199.454 213.471 224.227 213.471 224.227" stroke="black" stroke-width="0.5" stroke-linecap="round" stroke-linejoin="round"/>
<path d="M249.657 160.91C249.657 160.91 234.004 164.295 227.435 171.755C219.495 180.77 220.202 224.503 220.202 224.503" stroke="black" stroke-width="0.5" stroke-linecap="round" stroke-linejoin="round"/>
<path d="M225.17 155.01C225.17 155.01 221.935 170.849 221.292 188.068C220.613 206.286 220.205 223.622 220.205 223.622" stroke="black" stroke-width="0.5" stroke-linecap="round" stroke-linejoin="round"/>
<path d="M190.206 140.215C190.206 140.215 207.96 139.422 214.285 147.397C220.61 155.372 217.524 225.116 217.524 225.116C217.524 225.116 221.773 185.963 231.34 181.114C240.908 176.265 253.47 181.341 253.47 181.341" stroke="black" stroke-width="0.5" stroke-linecap="round" stroke-linejoin="round"/>
<path d="M215.194 166.884C215.194 166.884 215.448 169.569 217.321 184.144C219.227 199 217.52 224.503 217.52 224.503" stroke="black" stroke-width="0.5" stroke-linecap="round" stroke-linejoin="round"/>
<path d="M212.02 174.406C212.02 174.406 215.919 179.437 216.327 190.312C216.632 198.447 216.327 224.503 216.327 224.503" stroke="black" stroke-width="0.5" stroke-linecap="round" stroke-linejoin="round"/>
<path d="M202.179 181.543C202.179 181.543 210.323 183.575 212.835 186.324C217.117 191.01 216.327 224.503 216.327 224.503" stroke="black" stroke-width="0.5" stroke-linecap="round" stroke-linejoin="round"/>
<path d="M192.045 199.012C192.045 199.012 197.146 195.274 200.003 193.914C202.859 192.554 206.668 190.811 206.668 190.811" stroke="black" stroke-width="0.5" stroke-miterlimit="10" stroke-linecap="round" stroke-linejoin="round"/>
<path d="M210.396 193.429C210.396 193.429 215.372 197.297 216.092 204.945C216.669 211.062 216.327 224.499 216.327 224.499" stroke="black" stroke-width="0.5" stroke-linecap="round" stroke-linejoin="round"/>
<path d="M206.668 221.858V239.293C206.668 240.346 207.087 241.356 207.832 242.1C208.577 242.845 209.587 243.263 210.641 243.263H224.131C225.185 243.263 226.195 242.845 226.94 242.1C227.686 241.356 228.104 240.346 228.104 239.293V221.537L206.668 221.858Z" fill="#1A1A1A" stroke="black" stroke-width="0.5" stroke-miterlimit="10" stroke-linecap="round" stroke-linejoin="round"/>
<path d="M206.668 224.502H228.107" stroke="black" stroke-width="0.5" stroke-miterlimit="10" stroke-linecap="round" stroke-linejoin="round"/>
<path fill-rule="evenodd" clip-rule="evenodd" d="M12.5815 46.7534H13.7422V146.761C13.7422 146.807 13.7886 146.853 13.8351 146.853H56.1779C56.2243 146.853 56.2708 146.807 56.2708 146.761V46.7534H57.6636C57.7101 46.7534 57.7565 46.7069 57.7565 46.6605V44.1069C57.7565 44.0605 57.7101 44.0141 57.6636 44.0141H56.2708V43.6427H57.6636C57.7101 43.6427 57.7565 43.5962 57.7565 43.5498V40.9962C57.7565 40.9498 57.7101 40.9034 57.6636 40.9034H56.2708V40.5784H57.6636C57.7101 40.5784 57.7565 40.5319 57.7565 40.4855V37.9319C57.7565 37.8855 57.7101 37.8391 57.6636 37.8391H56.2708V37.5141H57.6636C57.7101 37.5141 57.7565 37.4677 57.7565 37.4212V34.8677C57.7565 34.8212 57.7101 34.7748 57.6636 34.7748H56.2708V34.4498H57.6636C57.7101 34.4498 57.7565 34.4034 57.7565 34.3569V31.8034C57.7565 31.7569 57.7101 31.7105 57.6636 31.7105H56.2708V31.3855H57.6636C57.7101 31.3855 57.7565 31.3391 57.7565 31.2927V28.7391C57.7565 28.6927 57.7101 28.6462 57.6636 28.6462H56.2708V28.3212H57.6636C57.7101 28.3212 57.7565 28.2748 57.7565 28.2284V25.6748C57.7565 25.6284 57.7101 25.5819 57.6636 25.5819H56.2708V25.2569H57.6636C57.7101 25.2569 57.7565 25.2105 57.7565 25.1641V22.6105C57.7565 22.5641 57.7101 22.5177 57.6636 22.5177H56.2708V22.1927H57.6636C57.7101 22.1927 57.7565 22.1462 57.7565 22.0998V19.5462C57.7565 19.4998 57.7101 19.4534 57.6636 19.4534H56.2708V19.1284H57.6636C57.7101 19.1284 57.7565 19.0819 57.7565 19.0355V16.4819C57.7565 16.4355 57.7101 16.3891 57.6636 16.3891H56.2708V16.0177H57.6636C57.7101 16.0177 57.7565 15.9712 57.7565 15.9248V11.1427C57.7565 11.0962 57.7101 11.0498 57.6636 11.0498H12.5351C12.4886 11.0498 12.4422 11.0962 12.4422 11.1427V15.5534C12.4422 15.5998 12.4886 15.6462 12.5351 15.6462H13.6958V16.0177H12.5351C12.4886 16.0177 12.4422 16.0641 12.4422 16.1105V18.6641C12.4422 18.7105 12.4886 18.7569 12.5351 18.7569H13.6958V19.0819H12.5351C12.4886 19.0819 12.4422 19.1284 12.4422 19.1748V21.7284C12.4422 21.7748 12.4886 21.8212 12.5351 21.8212H13.6958V22.1462H12.5351C12.4886 22.1462 12.4422 22.1927 12.4422 22.2391V24.7927C12.4422 24.8391 12.4886 24.8855 12.5351 24.8855H13.6958V25.2105H12.5351C12.4886 25.2105 12.4422 25.2569 12.4422 25.3034V27.8569C12.4422 27.9034 12.4886 27.9498 12.5351 27.9498H13.6958V28.2748H12.5351C12.4886 28.2748 12.4422 28.3212 12.4422 28.3677V31.1069C12.4422 31.1534 12.4886 31.1998 12.5351 31.1998H13.6958V31.5712H12.5351C12.4886 31.5712 12.4422 31.6177 12.4422 31.6641V34.2177C12.4422 34.2641 12.4886 34.3105 12.5351 34.3105H13.6958V34.6355H12.5351C12.4886 34.6355 12.4422 34.682 12.4422 34.7284V37.2819C12.4422 37.3284 12.4886 37.3748 12.5351 37.3748H13.6958V37.6998H12.5351C12.4886 37.6998 12.4422 37.7462 12.4422 37.7927V40.3462C12.4422 40.3927 12.4886 40.4391 12.5351 40.4391H13.6958V40.8569H12.5351C12.4886 40.8569 12.4422 40.9034 12.4422 40.9498V43.5034C12.4422 43.5498 12.4886 43.5962 12.5351 43.5962H13.6958V43.9212H12.5351C12.4886 43.9212 12.4422 43.9677 12.4422 44.0141V46.5677C12.4422 46.707 12.4886 46.7534 12.5815 46.7534ZM16.5279 46.7534H34.4029V75.6319H16.5279V46.7534ZM35.6565 46.7534H51.3493V75.6319H35.6565V46.7534ZM51.3493 109.896H35.6565V78.3712H51.3493V109.896ZM52.2315 78.4177H53.5779V109.943H52.2315V78.4177ZM35.6565 111.15H51.3493V118.903H51.0708C51.0243 118.903 50.9779 118.95 50.9779 118.996V127.075C50.9779 127.121 51.0243 127.168 51.0708 127.168H52.4636C52.5101 127.168 52.5565 127.121 52.5565 127.075V118.996C52.5565 118.95 52.5101 118.903 52.4636 118.903H52.1851V111.15H53.5315V144.114H35.6565V111.15ZM16.5279 109.896V78.3712H34.4029V109.896H16.5279ZM34.4029 111.15V144.114H16.5279V111.15H34.4029ZM53.5779 75.6319H52.2315V46.7534H53.5779V75.6319ZM51.3493 18.8034V19.1284H35.6565V18.8034H51.3493ZM51.3493 21.9141V22.2391H35.6565V21.9141H51.3493ZM51.3493 25.0248V25.3498H35.6565V25.0248H51.3493ZM51.3493 28.1355V28.4605H35.6565V28.1355H51.3493ZM51.3493 31.2462V31.5712H35.6565V31.2462H51.3493ZM51.3493 34.3105V34.6355H35.6565V34.3105H51.3493ZM51.3493 37.4212V37.7462H35.6565V37.4212H51.3493ZM51.3493 16.0177H35.6565V15.6462H51.3493V16.0177ZM35.6565 40.5319H51.3493V40.8569H35.6565V40.5319ZM52.2315 40.8569V40.5319H53.5779V40.8569H52.2315ZM52.2315 37.7462V37.4212H53.5779V37.7462H52.2315ZM52.2315 34.6819V34.3569H53.5779V34.6819H52.2315ZM52.2315 31.5712V31.2462H53.5779V31.5712H52.2315ZM52.2315 28.4605V28.1355H53.5779V28.4605H52.2315ZM52.2315 25.3498V25.0248H53.5779V25.3498H52.2315ZM52.2315 22.2391V21.9141H53.5779V22.2391H52.2315ZM52.2315 19.1284V18.8034H53.5779V19.1284H52.2315ZM52.2315 16.0177V15.6462H53.5779V16.0177H52.2315ZM34.4029 15.6462V16.0177H16.5279V15.6462H34.4029ZM34.4029 18.8034V19.1284H16.5279V18.8034H34.4029ZM34.4029 21.9141V22.2391H16.5279V21.9141H34.4029ZM34.4029 25.0248V25.3498H16.5279V25.0248H34.4029ZM34.4029 28.1355V28.4605H16.5279V28.1355H34.4029ZM34.4029 31.2462V31.5712H16.5279V31.2462H34.4029ZM34.4029 34.3105V34.6355H16.5279V34.3105H34.4029ZM34.4029 37.4212V37.7462H16.5279V37.4212H34.4029ZM34.4029 40.5319V40.8569H16.5279V40.5319H34.4029Z" fill="url(#paint0_linear_1754_47721)" style="mix-blend-mode:overlay"/>
<path d="M118.671 31.8034C118.16 31.6177 117.696 31.2927 117.278 30.8748C116.86 30.5034 116.535 29.9927 116.303 29.4819C116.071 28.9248 115.978 28.3677 115.978 27.8105V15.3677C115.978 14.7641 116.071 14.2069 116.303 13.6962C116.489 13.1855 116.814 12.7212 117.231 12.3034C117.603 11.9319 118.114 11.6069 118.624 11.3748C119.181 11.1427 119.739 11.0498 120.296 11.0498H147.178C148.339 11.0498 149.406 11.4677 150.242 12.3034C150.799 12.8605 151.171 13.5105 151.356 14.2069H151.914C152.517 14.2069 153.074 14.2998 153.585 14.5319C154.096 14.7177 154.56 15.0427 154.978 15.4605C155.349 15.8319 155.674 16.2962 155.906 16.8534C156.139 17.4105 156.231 17.9677 156.231 18.5248V30.9677C156.231 32.1284 155.814 33.1962 154.978 34.0319C154.142 34.8212 153.121 35.2391 152.006 35.2855L151.914 41.1355C151.914 41.1819 151.914 41.2284 151.867 41.2284H151.821C151.774 41.2284 151.728 41.1819 151.728 41.1819L145.692 35.7498C145.321 35.4248 144.856 35.2391 144.392 35.2391H130.881C129.721 35.2391 128.653 34.8212 127.817 33.9855C127.353 33.5212 127.028 32.9641 126.796 32.3605C126.749 32.4069 126.703 32.4418 126.656 32.4766C126.61 32.5114 126.564 32.5462 126.517 32.5927L120.481 38.0248C120.455 38.0515 120.443 38.0629 120.43 38.0677C120.42 38.0712 120.408 38.0712 120.389 38.0712H120.342C120.342 38.0712 120.296 38.0248 120.296 37.9784L120.203 32.1284C119.692 32.1284 119.181 31.9891 118.671 31.8034Z" fill="url(#paint1_linear_1754_47721)" style="mix-blend-mode:overlay"/>
<path fill-rule="evenodd" clip-rule="evenodd" d="M250.017 175.732C250.064 175.732 254.01 177.45 256.471 180.282C258.142 182.232 258.792 183.346 258.699 184.136C258.653 184.368 258.514 184.553 258.235 184.693C257.864 184.878 256.749 184.786 254.939 184.553C254.819 184.539 254.699 184.524 254.578 184.509C253.143 184.334 251.613 184.146 250.714 184.275C249.414 184.461 248.114 184.739 246.86 185.111H246.767L242.728 182.928L245.699 185.25C245.746 185.25 245.746 185.296 245.746 185.343C245.746 185.389 245.746 185.436 245.699 185.436C245.694 185.436 245.644 185.458 245.555 185.497C244.809 185.83 241.313 187.386 238.41 187.386H238.085C234.649 187.246 232.328 185.993 231.446 183.857C230.935 182.511 230.935 181.768 231.028 181.396C228.242 183.021 225.967 187.571 224.064 193.189L225.642 194.303C226.432 193.653 227.267 193.05 228.149 192.586C228.149 192.539 228.196 192.539 228.196 192.539C228.428 191.703 229.032 190.403 230.842 189.753C233.301 188.906 236.844 190.109 237.582 190.36C237.653 190.384 237.698 190.399 237.714 190.403C237.731 190.421 237.749 190.432 237.764 190.442C237.789 190.457 237.807 190.468 237.807 190.496C237.807 190.543 237.806 190.543 237.76 190.589L236.553 191.796L238.642 190.682H238.735C238.742 190.689 238.84 190.743 239.012 190.838C240.07 191.422 243.933 193.554 246.767 195.789C249.785 198.203 251.967 200.757 252.06 201.593C252.106 201.732 252.06 201.825 252.014 201.871C251.921 202.011 251.41 202.057 250.714 202.057C248.903 202.057 245.839 201.732 244.678 201.593L244.632 201.546L241.567 198.714L243.61 201.407V201.546C243.61 201.593 243.564 201.593 243.517 201.593C243.512 201.587 243.412 201.574 243.233 201.551C241.88 201.374 235.997 200.607 232.142 198.064C227.871 195.232 228.056 193.514 228.103 193.328C228.103 193.282 228.103 193.143 228.149 192.911C227.36 193.375 226.617 193.886 225.874 194.489L236.785 202.057V236.6C236.785 236.646 236.739 236.693 236.692 236.693H228.196V239.293C228.196 240.361 227.778 241.382 226.989 242.171C226.246 242.961 225.178 243.378 224.11 243.378H210.599C209.532 243.378 208.51 242.961 207.721 242.171C206.931 241.428 206.514 240.407 206.514 239.293V236.693H52.7422L6.45292 204.378C6.40649 204.378 6.40649 204.332 6.40649 204.286V169.65L6.45292 169.603H64.0243L76.0029 97.1284C74.8886 97.1284 74.0065 96.1998 74.0529 95.0856L75.4922 57.5249C75.7243 55.3427 76.3279 53.6713 77.5351 52.232C78.7422 50.7927 80.5529 49.632 83.1993 48.3784L86.9136 43.4106C86.9601 43.3641 87.0065 43.3641 87.0529 43.3641L87.9351 43.782L90.6279 38.1641C89.9779 37.0963 89.4208 35.8427 89.4672 34.7284C89.5136 33.7534 89.7458 33.1499 90.2565 32.9177C90.3958 32.8249 90.5815 32.8248 90.7672 32.8248C90.8112 32.2422 90.863 31.4826 90.9201 30.6447C91.1042 27.9434 91.3439 24.4275 91.5565 23.3999C91.6493 23.0284 91.7422 22.657 91.9279 22.3784C92.1601 22.0998 92.4851 21.9141 92.8101 22.0998C92.9493 21.1248 93.8779 20.4748 94.7136 20.7534C94.9458 19.7784 96.0136 19.3141 96.8493 19.8249C97.2672 19.4998 97.7315 19.2677 98.2422 19.2213C98.5208 19.2213 98.7993 19.2677 99.0315 19.3606C99.3101 19.4998 99.4958 19.6391 99.6815 19.8713C99.7976 19.8248 99.902 19.79 100.006 19.7552C100.111 19.7204 100.215 19.6856 100.331 19.6391C100.61 19.5927 100.889 19.6391 101.167 19.6856C101.585 19.7784 102.281 20.1034 102.467 20.6141C103.071 20.2427 103.999 20.6141 104.324 21.4034C104.464 21.2641 104.696 21.2177 104.881 21.2177C105.067 21.2177 105.253 21.2641 105.439 21.357C105.624 21.4963 105.81 21.6356 105.949 21.8213C106.089 22.007 106.181 22.1927 106.228 22.4248C106.414 22.3784 106.599 22.3784 106.785 22.4248C106.971 22.4713 107.11 22.5641 107.249 22.7034C107.574 22.982 107.76 23.3998 107.76 23.8177C108.085 23.7248 108.456 23.957 108.689 24.282C108.781 24.4213 108.874 24.6534 108.874 24.8391C108.921 25.0713 108.874 25.257 108.781 25.4427C109.153 25.5356 109.478 25.8606 109.617 26.2784C109.664 26.4641 109.664 26.6963 109.617 26.882C109.571 27.1141 109.478 27.2999 109.339 27.4391C109.478 27.5784 109.571 27.7177 109.617 27.9034C109.664 28.0891 109.71 28.2748 109.664 28.4606C109.664 28.6463 109.571 28.7856 109.478 28.9249C109.339 29.0641 109.199 29.157 109.06 29.2034C109.246 29.3427 109.339 29.5748 109.385 29.807C109.478 30.0391 109.431 30.2713 109.385 30.5034C109.292 30.7356 109.199 30.8749 109.014 31.0141C108.828 31.1534 108.596 31.1998 108.41 31.1998C108.503 31.7106 108.271 32.2213 107.946 32.5463C107.249 33.1963 106.228 33.2427 105.299 33.1034C105.22 33.089 105.141 33.0745 105.064 33.0602C104.644 32.9828 104.252 32.9105 103.86 32.8713C103.489 35.2391 102.699 39.6034 101.074 41.6463C100.331 42.5748 99.4029 43.0391 98.1958 43.132H97.8708C97.4993 43.132 97.1279 43.0856 96.7565 42.9927L96.2922 44.4784L97.2208 44.107C97.2672 44.107 97.3136 44.107 97.3601 44.1534L99.7279 47.5427L101.214 48.1463C102.189 48.5641 103.071 49.2141 103.674 50.0963C104.278 50.9784 104.649 51.9999 104.696 53.0677L110.36 81.7606L118.439 85.1498C118.485 85.1963 118.485 85.2427 118.485 85.2891L118.439 85.5677L120.203 86.032C120.249 86.032 120.296 86.032 120.296 86.0784V86.1713L120.203 86.5891L121.271 86.9141L126.61 86.5427C126.61 86.4034 126.61 86.2177 126.703 86.0784C126.842 85.8463 127.028 85.6606 127.26 85.5677L128.932 84.8713C129.117 84.7784 129.349 84.7784 129.581 84.7784C129.6 84.783 129.618 84.7875 129.637 84.7922C129.812 84.8349 130.018 84.8849 130.185 85.0106L132.274 86.357L136.221 84.2213L135.989 83.8499C135.989 83.8034 135.989 83.757 136.035 83.7106L147.503 75.9106L154.189 64.4891C154.235 64.3963 154.293 64.315 154.351 64.2338C154.409 64.1525 154.467 64.0713 154.514 63.9784L154.57 63.89C155.73 62.0796 157.443 59.4059 160.549 58.0356L165.842 56.6427C165.007 56.5963 164.217 56.457 163.382 56.0856C162.639 55.7606 161.153 54.7856 161.106 54.7391C161.06 54.6927 161.06 54.6927 161.06 54.6463C161.014 54.322 160.967 53.9516 160.921 53.581L160.921 53.5784C160.874 52.882 160.782 52.1391 160.689 51.4891L160.039 54.1356C160.039 54.182 160.039 54.2284 159.992 54.2284H159.899C159.064 53.7641 158.182 53.4856 157.253 53.3927C157.206 53.3927 157.16 53.3927 157.16 53.3463V53.2534C157.485 50.932 157.996 48.6106 158.599 46.057C159.017 44.3856 159.481 42.5748 160.132 40.3927C160.549 38.8606 161.849 37.1891 163.521 35.8891C165.053 34.7284 166.956 34.032 168.86 33.9856H169.231C170.16 33.9391 171.042 33.9391 171.971 34.2641C173.224 34.682 174.385 35.5177 175.453 36.7248C176.231 37.6195 176.878 38.6445 177.505 39.6361C177.626 39.828 177.747 40.0187 177.867 40.207L177.914 40.2534C178.389 41.068 178.938 41.9323 179.508 42.8281C179.718 43.1576 179.93 43.4913 180.142 43.8284C180.932 36.0284 187.524 29.9463 195.51 29.9463C204.006 29.9463 210.924 36.8641 210.924 45.3606C210.924 53.857 204.006 60.7748 195.51 60.7748C189.196 60.7748 183.81 57.0141 181.396 51.6284L180.235 52.6963C180.208 52.723 180.197 52.7343 180.183 52.7391C180.173 52.7427 180.162 52.7427 180.142 52.7427C180.096 52.7427 180.049 52.7427 180.049 52.6963C179.399 51.7677 178.749 50.6534 178.239 49.6784C178.564 51.0713 179.028 53.0677 179.074 53.6249C179.074 53.7177 179.028 53.7641 178.981 53.7641C178.94 53.7746 178.71 53.8609 178.357 53.9941C177.145 54.4506 174.47 55.4581 172.853 55.8534L179.864 57.3391C181.814 57.2463 183.578 58.4999 185.156 61.0534L194.721 78.232C195.278 79.2534 195.603 80.4606 195.603 81.6677C195.603 82.8749 195.278 84.082 194.721 85.1498L185.853 100.1C185.83 100.1 185.818 100.111 185.807 100.123C185.795 100.135 185.783 100.146 185.76 100.146H185.667L184.831 99.5891L183.996 100.796L191.749 105.253C191.749 105.277 191.761 105.288 191.773 105.3C191.784 105.311 191.796 105.323 191.796 105.346V105.439L183.021 120.714C183.021 120.761 182.974 120.761 182.928 120.761H182.881L181.21 119.786L180.699 120.668C180.699 120.714 180.653 120.714 180.606 120.714H180.56L178.239 119.368L174.246 130.928L183.624 161.85C185.807 160.086 189.474 158.089 192.353 157.486C197.181 156.511 202.474 156.975 205.399 157.857C206.421 158.182 207.628 158.739 208.696 159.296C208.881 159.343 212.967 160.875 214.128 163.707C215.103 166.121 215.335 166.725 215.381 166.864C215.381 166.911 215.66 169.743 217.517 184.136C217.703 185.668 217.842 187.246 217.981 188.918L218.214 189.103C218.167 170.857 217.378 151.728 214.314 147.596C213.803 147.968 211.389 149.546 206.792 149.546C205.91 149.546 204.935 149.5 203.867 149.361C196.671 148.432 191.146 145.275 191.099 145.228C191.053 145.228 191.053 145.182 191.053 145.136C191.053 145.089 191.099 145.043 191.146 145.043L195.649 143.696L189.474 144.439H189.428C189.402 144.428 189.329 144.4 189.218 144.357C187.951 143.87 181.656 141.45 181.442 139.657C181.442 139.471 181.489 139.332 181.674 139.146C183.485 137.336 196.81 135.896 200.153 136.314C203.422 136.673 206.76 137.34 207.667 137.521C207.816 137.551 207.9 137.568 207.906 137.568C207.953 137.568 207.999 137.614 207.999 137.661L208.649 140.911L209.717 138.171C209.717 138.125 209.81 138.078 209.856 138.125C209.869 138.131 209.901 138.145 209.949 138.166C210.62 138.454 214.487 140.118 214.964 142.628C215.289 144.253 215.103 145.925 214.453 147.457C217.61 151.636 218.446 170.95 218.446 189.336L221.092 191.193C221.092 190.214 221.135 189.277 221.179 188.302L221.185 188.175C221.789 172.018 224.714 156.928 225.039 155.257C224.899 155.303 224.667 155.303 224.435 155.303C223.878 155.303 223.228 155.211 222.856 154.793C222.578 154.514 222.532 154.143 222.671 153.632C223.18 151.806 232.239 147.57 234.133 146.684C234.31 146.602 234.424 146.548 234.464 146.528H234.51C236.553 145.414 238.456 144.439 239.339 144.253C241.335 143.836 245.235 143.696 248.81 147.503C251.41 150.289 251.039 153.771 250.481 155.211C250.389 155.489 250.156 156 249.878 156H249.831C249.414 156 249.042 155.536 248.671 155.071C248.392 154.746 248.114 154.421 247.835 154.189L247.742 154.143C245.746 152.611 240.453 149.082 234.696 150.011C229.635 150.8 226.896 153.307 225.921 154.375C225.549 154.839 225.317 155.118 225.271 155.164C225.263 155.214 225.235 155.364 225.189 155.608C224.678 158.339 221.971 172.787 221.417 188.175C221.417 189.2 221.374 190.183 221.33 191.205L221.324 191.332L221.696 191.611C222.764 182.975 224.481 175.128 227.314 171.832C227.128 171.507 226.524 170.161 227.964 167.978C229.217 166.075 232.142 163.382 238.921 161.339C244.353 159.714 257.028 158.368 257.678 160.039C257.771 160.271 257.724 160.503 257.632 160.736C257.18 161.593 255.152 162.099 253.334 162.553L253.174 162.593C253 162.636 252.83 162.675 252.668 162.713C252.311 162.795 251.99 162.868 251.735 162.964C249.785 163.521 245.096 166.028 245.049 166.075H245.003L241.057 166.261L244.167 166.539C244.214 166.539 244.26 166.586 244.26 166.632C244.26 166.678 244.26 166.725 244.214 166.771C244.208 166.771 244.14 166.809 244.017 166.878C243.087 167.396 239.01 169.671 235.114 170.532C231.028 171.461 227.964 171.878 227.546 171.925C224.714 175.175 222.949 183.021 221.928 191.703L223.924 193.096C225.874 187.339 228.289 182.696 231.214 181.118C230.889 180.7 229.867 179.307 230.099 177.636C230.239 176.475 230.981 175.453 232.281 174.571C236.268 171.914 245.831 174.242 247.066 174.543C247.126 174.557 247.166 174.567 247.185 174.571C247.231 174.571 247.278 174.618 247.278 174.664C247.278 174.664 247.278 174.711 247.231 174.757L244.678 176.521L249.971 175.732H250.017ZM102.142 97.1749V110.128H108.131V107.528C108.131 107.203 108.271 106.925 108.503 106.693C108.526 106.669 108.561 106.646 108.596 106.623C108.631 106.6 108.665 106.577 108.689 106.553C108.642 106.414 108.642 106.321 108.689 106.182C108.689 106.136 108.689 106.043 108.735 105.996L107.76 103.721L107.621 103.768H107.528C107.528 103.768 107.481 103.768 107.481 103.721L105.021 97.1749H102.142ZM109.524 109.989H117.139V108.643L116.999 108.782C116.86 108.921 116.721 108.968 116.535 109.014L111.799 109.896C111.706 109.943 111.614 109.943 111.521 109.943C111.335 109.943 111.149 109.943 110.964 109.85C110.685 109.711 110.453 109.525 110.314 109.293L109.524 108.086V109.989ZM77.6743 169.65H88.7243L89.0958 108.411L77.6743 169.65ZM166.028 169.65H176.335L175.964 167.978C175.035 168.118 174.153 168.164 173.317 168.164C171.46 168.164 170.067 167.932 170.067 167.932C170.021 167.932 169.974 167.886 169.974 167.839L169.603 166.353C168.86 166.586 167.653 166.911 165.842 167.05L166.028 169.65ZM183.949 79.1606L183.16 84.1749L184.553 80.4606L183.949 79.1606ZM139.749 90.1641C139.703 90.2106 139.657 90.1641 139.61 90.1177L139.239 89.607L133.899 91.3248C133.806 91.3248 133.714 91.3713 133.621 91.4641C133.528 91.557 133.482 91.6498 133.435 91.7426L133.389 91.8356L133.481 91.9284C133.552 91.9994 133.596 92.0974 133.634 92.1811C133.645 92.207 133.656 92.2315 133.667 92.2534C133.714 92.3463 133.714 92.4856 133.714 92.6249C133.714 92.7351 133.685 92.8162 133.649 92.9143C133.64 92.9402 133.63 92.9672 133.621 92.9963C133.574 93.1356 133.481 93.2284 133.389 93.3213C133.156 93.507 132.924 93.5999 132.646 93.5999H132.599C132.414 93.5534 132.228 93.507 132.089 93.4141V93.5999C132.089 93.7101 132.06 93.7912 132.024 93.8893C132.015 93.9152 132.005 93.9422 131.996 93.9713C131.949 94.1106 131.856 94.2034 131.764 94.2963C131.531 94.482 131.299 94.5748 131.021 94.5748H130.974C130.789 94.5284 130.603 94.482 130.464 94.3891V94.6213C130.464 94.7315 130.435 94.8126 130.399 94.9107C130.39 94.9366 130.38 94.9636 130.371 94.9927C130.324 95.132 130.231 95.2249 130.139 95.3177C129.906 95.5034 129.674 95.5963 129.396 95.5963H129.349C129.024 95.5499 128.746 95.457 128.56 95.2249L128.467 95.132C128.467 95.2422 128.438 95.3233 128.403 95.4214C128.394 95.4473 128.384 95.4743 128.374 95.5034C128.328 95.6427 128.235 95.7356 128.142 95.8284C127.91 96.0141 127.678 96.107 127.399 96.107H127.353C127.26 96.107 127.167 96.107 127.074 96.0606C126.889 96.1999 126.61 96.2463 126.378 96.2463C126.053 96.2463 125.774 96.1534 125.542 96.0606L121.178 93.9713C120.853 93.7856 120.621 93.4606 120.528 93.0891H119.089L118.439 92.9034L118.346 93.2284C118.346 93.2749 118.299 93.3213 118.253 93.3213H118.206L116.999 92.9963L116.86 93.7856C116.86 93.832 116.86 93.8784 116.814 93.8784H116.721L112.449 92.6713L114.074 100.936C114.121 100.982 114.074 101.075 114.028 101.075L113.749 101.214L113.981 101.446L117.417 103.071C117.696 103.211 117.881 103.443 117.974 103.675C118.021 103.907 118.021 104.139 117.881 104.371C117.696 104.603 117.51 104.743 117.231 104.836C116.953 104.928 116.674 104.928 116.442 104.789L115.421 104.325L116.628 106.321H117.464C117.789 106.321 118.067 106.461 118.299 106.693C118.485 106.925 118.624 107.203 118.624 107.528V110.128H131.392C131.439 110.128 131.485 110.175 131.485 110.221V120.343C131.485 120.389 131.439 120.436 131.392 120.436H130.742V133.761C130.742 133.807 130.696 133.853 130.649 133.853H102.142V169.65H160.456L160.271 166.957C158.321 166.632 157.114 166.075 157.114 166.075C157.114 166.075 157.067 166.028 157.067 165.982L154.142 133.389C153.956 131.207 153.956 129.025 154.142 126.843L158.878 94.2034L157.531 94.2499H157.485C157.253 94.2499 157.021 94.2034 156.789 94.1106C156.557 94.0177 156.371 93.8784 156.185 93.6927C156.046 93.507 155.907 93.2749 155.814 93.0427C155.721 92.8106 155.721 92.532 155.721 92.2999L156.371 84.6391L139.749 90.1641ZM212.131 182.65C213.106 183.764 213.246 184.878 213.153 185.575L216.078 187.664C215.242 178.982 212.131 174.757 211.992 174.571C211.973 174.552 211.954 174.541 211.931 174.528C211.899 174.509 211.861 174.486 211.807 174.432C210.831 173.689 205.585 170.161 199.781 172.296C198.435 172.761 197.321 173.318 196.346 173.921L203.682 179.028C207.721 179.818 210.971 181.303 212.131 182.65ZM217.656 188.686C217.517 187.107 217.378 185.575 217.192 184.136C215.907 174.174 215.4 169.75 215.194 167.955C215.103 167.157 215.071 166.878 215.057 166.864L215.052 166.853C214.935 166.558 213.869 163.866 208.51 161.943C206.189 161.107 204.053 160.736 202.289 160.596C199.435 161.291 195.139 162.563 193.424 163.071C192.962 163.208 192.688 163.289 192.678 163.289C192.631 163.289 192.585 163.289 192.539 163.243C192.492 163.196 192.492 163.15 192.539 163.103L193.699 161.339L190.867 163.614H190.821C190.217 163.8 186.271 164.775 183.717 164.868C183.299 165.332 182.556 165.936 181.256 166.539L181.999 169.65H190.217L190.914 170.114C193.096 167.375 196.346 167.236 198.296 167.468C200.942 167.746 203.682 168.861 203.867 168.953L212.224 171.6C212.317 171.6 214.128 172.064 214.035 173.271C213.942 174.293 212.735 174.432 212.224 174.478C212.828 175.361 215.521 179.678 216.264 187.711L217.656 188.686Z" fill="url(#paint2_linear_1754_47721)" style="mix-blend-mode:overlay"/>
</g>
<defs>
<linearGradient id="paint0_linear_1754_47721" x1="258.708" y1="126.852" x2="6.4065" y2="126.852" gradientUnits="userSpaceOnUse">
<stop stop-color="#E60050"/>
<stop offset="1" stop-color="#5D6AE8"/>
</linearGradient>
<linearGradient id="paint1_linear_1754_47721" x1="258.708" y1="126.852" x2="6.4065" y2="126.852" gradientUnits="userSpaceOnUse">
<stop stop-color="#E60050"/>
<stop offset="1" stop-color="#5D6AE8"/>
</linearGradient>
<linearGradient id="paint2_linear_1754_47721" x1="258.708" y1="126.852" x2="6.4065" y2="126.852" gradientUnits="userSpaceOnUse">
<stop stop-color="#E60050"/>
<stop offset="1" stop-color="#5D6AE8"/>
</linearGradient>
<clipPath id="clip0_1754_47721">
<rect width="260" height="260" fill="white"/>
</clipPath>
</defs>
</svg>
