<svg width="260" height="260" viewBox="0 0 260 260" fill="none" xmlns="http://www.w3.org/2000/svg">
<path d="M228.831 29.3804H183.872C182.143 29.3804 180.741 30.7821 180.741 32.5111V63.9215C180.741 65.6506 182.143 67.0523 183.872 67.0523H228.831C230.56 67.0523 231.962 65.6506 231.962 63.9215V32.5111C231.962 30.7821 230.56 29.3804 228.831 29.3804Z" fill="#333333" stroke="black" stroke-width="0.5" stroke-linecap="round" stroke-linejoin="round"/>
<path d="M227.304 27.8574H182.345C180.616 27.8574 179.214 29.2591 179.214 30.9882V62.3985C179.214 64.1276 180.616 65.5293 182.345 65.5293H227.304C229.033 65.5293 230.435 64.1276 230.435 62.3985V30.9882C230.435 29.2591 229.033 27.8574 227.304 27.8574Z" fill="#808080" stroke="black" stroke-width="0.5" stroke-linecap="round" stroke-linejoin="round"/>
<path d="M209.245 58.3255C209.245 59.4643 208.793 60.5564 207.988 61.3617C207.182 62.1669 206.09 62.6193 204.951 62.6193C204.388 62.6193 203.829 62.5082 203.308 62.2924C202.788 62.0766 202.314 61.7603 201.916 61.3616C201.517 60.9628 201.201 60.4895 200.985 59.9685C200.77 59.4476 200.659 58.8893 200.659 58.3255C200.659 57.187 201.111 56.0951 201.916 55.2899C202.721 54.4847 203.813 54.0322 204.951 54.0317C206.09 54.0317 207.182 54.4841 207.988 55.2894C208.793 56.0946 209.245 57.1867 209.245 58.3255Z" fill="#808080" stroke="white" stroke-width="0.5" stroke-linecap="round" stroke-linejoin="round"/>
<path d="M203.844 57.1533C203.844 57.1043 203.857 57.0561 203.882 57.0138C203.906 56.9714 203.942 56.9364 203.984 56.9122C204.027 56.888 204.075 56.8755 204.124 56.876C204.173 56.8765 204.221 56.89 204.264 56.915L206.217 58.0891C206.258 58.1136 206.292 58.1483 206.315 58.1898C206.339 58.2313 206.351 58.2781 206.351 58.3258C206.351 58.3734 206.339 58.4203 206.315 58.4618C206.292 58.5032 206.258 58.5379 206.217 58.5625L204.264 59.7349C204.221 59.76 204.173 59.7735 204.124 59.774C204.075 59.7745 204.027 59.762 203.984 59.7378C203.942 59.7136 203.906 59.6785 203.882 59.6362C203.857 59.5938 203.844 59.5457 203.844 59.4967V57.1533Z" stroke="white" stroke-width="0.5" stroke-linecap="round" stroke-linejoin="round"/>
<path d="M183.014 60.0284C182.854 60.0359 182.695 60.0017 182.552 59.9292C182.409 59.8568 182.287 59.7485 182.198 59.615C182.01 59.3404 181.916 58.9443 181.916 58.4236C181.916 57.9029 182.01 57.5036 182.198 57.2306C182.288 57.0987 182.41 56.992 182.553 56.9208C182.696 56.8495 182.855 56.816 183.014 56.8235C183.174 56.8152 183.333 56.8484 183.476 56.9197C183.618 56.9911 183.741 57.0982 183.83 57.2306C184.019 57.5036 184.114 57.8981 184.114 58.4189C184.114 58.9396 184.019 59.3404 183.83 59.615C183.741 59.7485 183.619 59.8568 183.476 59.9292C183.333 60.0017 183.174 60.0359 183.014 60.0284ZM183.014 59.7128C183.127 59.7178 183.239 59.6908 183.337 59.635C183.435 59.5791 183.515 59.4967 183.568 59.3972C183.709 59.0924 183.771 58.7571 183.749 58.422C183.755 58.1787 183.729 57.9357 183.67 57.6993C183.633 57.538 183.548 57.3917 183.426 57.2795C183.31 57.185 183.164 57.1356 183.014 57.1407C182.902 57.1368 182.79 57.1643 182.692 57.22C182.595 57.2757 182.514 57.3575 182.46 57.4563C182.339 57.6667 182.279 57.9902 182.279 58.4268C182.274 58.6716 182.3 58.9161 182.358 59.1542C182.398 59.3157 182.483 59.4626 182.602 59.5787C182.719 59.6699 182.866 59.7158 183.014 59.7081V59.7128ZM185.671 60.0284C185.511 60.0359 185.352 60.0017 185.209 59.9292C185.066 59.8568 184.944 59.7485 184.856 59.615C184.668 59.3404 184.573 58.9443 184.573 58.4236C184.573 57.9029 184.668 57.5036 184.856 57.2306C184.945 57.0987 185.068 56.992 185.21 56.9208C185.353 56.8495 185.512 56.816 185.671 56.8235C185.831 56.8152 185.99 56.8484 186.133 56.9197C186.276 56.9911 186.398 57.0982 186.487 57.2306C186.677 57.5036 186.771 57.8981 186.771 58.4189C186.771 58.9396 186.677 59.3404 186.487 59.615C186.399 59.7485 186.277 59.8568 186.134 59.9292C185.991 60.0017 185.832 60.0359 185.671 60.0284ZM185.671 59.7128C185.784 59.7178 185.896 59.6908 185.994 59.635C186.092 59.5791 186.172 59.4967 186.225 59.3972C186.366 59.0924 186.429 58.7571 186.407 58.422C186.413 58.1787 186.387 57.9355 186.328 57.6993C186.29 57.538 186.205 57.3917 186.083 57.2795C185.967 57.185 185.821 57.1356 185.671 57.1407C185.559 57.1368 185.448 57.1643 185.35 57.22C185.252 57.2757 185.172 57.3575 185.117 57.4563C184.997 57.6667 184.936 57.9902 184.936 58.4268C184.931 58.6716 184.957 58.9161 185.015 59.1542C185.056 59.3154 185.141 59.4622 185.26 59.5787C185.377 59.6699 185.523 59.7158 185.671 59.7081V59.7128ZM187.279 58.22V57.7672H187.731V58.22H187.279ZM187.279 59.9921V59.5408H187.731V59.9921H187.279ZM189.32 60.0332C189.115 60.0337 188.911 60.0006 188.717 59.9353C188.538 59.8784 188.373 59.783 188.234 59.656L188.371 59.372C188.504 59.4835 188.656 59.5706 188.82 59.6292C188.979 59.6839 189.146 59.7111 189.315 59.7097C189.504 59.7227 189.691 59.6709 189.847 59.5629C189.909 59.5086 189.957 59.4408 189.989 59.3648C190.02 59.2887 190.034 59.2064 190.028 59.1242C190.033 59.0449 190.019 58.9656 189.987 58.893C189.954 58.8204 189.905 58.7568 189.842 58.7077C189.682 58.5991 189.49 58.5474 189.298 58.5609H188.824V58.2548H189.263C189.441 58.2653 189.617 58.209 189.755 58.097C189.816 58.0427 189.864 57.9756 189.895 57.9005C189.927 57.8254 189.941 57.7443 189.937 57.663C189.941 57.5912 189.928 57.5193 189.899 57.4536C189.87 57.3879 189.825 57.3303 189.768 57.2859C189.63 57.1887 189.463 57.1419 189.295 57.1533C189.133 57.1521 188.972 57.1821 188.821 57.2417C188.671 57.3036 188.536 57.396 188.423 57.5131L188.286 57.2243C188.415 57.0952 188.571 56.9966 188.742 56.9355C188.926 56.8653 189.121 56.8295 189.318 56.8298C189.577 56.8147 189.832 56.89 190.041 57.0428C190.127 57.1139 190.196 57.2042 190.241 57.3063C190.286 57.4085 190.307 57.5198 190.301 57.6314C190.308 57.8104 190.252 57.9861 190.143 58.1285C190.03 58.2671 189.875 58.3652 189.702 58.4078V58.3589C189.9 58.3817 190.082 58.4766 190.215 58.6256C190.339 58.7722 190.405 58.9603 190.398 59.1527C190.403 59.2755 190.38 59.398 190.33 59.5104C190.28 59.6227 190.204 59.7218 190.109 59.7996C189.881 59.9667 189.602 60.0477 189.32 60.0284V60.0332ZM192.376 59.9921V59.3152H190.887V59.0485L192.433 56.8677H192.735V59.0169H193.208V59.3152H192.735V59.9921H192.376ZM192.376 59.0169V57.2937H192.474L191.188 59.1006V59.0075L192.376 59.0169Z" fill="white"/>
<path d="M183.347 45.168H226.558C226.962 45.1684 227.349 45.3292 227.634 45.615C227.92 45.9008 228.08 46.2883 228.08 46.6923C228.08 47.0962 227.92 47.4835 227.634 47.7691C227.349 48.0547 226.961 48.2151 226.558 48.2151H183.347C182.943 48.2151 182.555 48.0547 182.27 47.7692C181.984 47.4837 181.823 47.0963 181.823 46.6923C181.823 46.2882 181.984 45.9007 182.269 45.6149C182.555 45.3291 182.943 45.1684 183.347 45.168Z" fill="#999999" stroke="black" stroke-width="0.5" stroke-linecap="round" stroke-linejoin="round"/>
<path d="M183.347 45.168H193.872C194.276 45.1684 194.664 45.3292 194.949 45.615C195.235 45.9008 195.395 46.2883 195.395 46.6923C195.395 47.0962 195.235 47.4835 194.949 47.7691C194.663 48.0547 194.276 48.2151 193.872 48.2151H183.347C182.943 48.2151 182.555 48.0547 182.27 47.7692C181.984 47.4837 181.823 47.0963 181.823 46.6923C181.823 46.2882 181.984 45.9007 182.269 45.6149C182.555 45.3291 182.943 45.1684 183.347 45.168Z" fill="white" stroke="black" stroke-width="0.5" stroke-linecap="round" stroke-linejoin="round"/>
<path d="M216.807 60.0284C216.647 60.0359 216.488 60.0017 216.345 59.9292C216.202 59.8568 216.08 59.7485 215.991 59.615C215.803 59.3404 215.709 58.9443 215.709 58.4236C215.709 57.9029 215.803 57.5036 215.991 57.2306C216.081 57.0987 216.203 56.992 216.346 56.9208C216.489 56.8495 216.648 56.816 216.807 56.8235C216.967 56.8152 217.126 56.8484 217.269 56.9197C217.411 56.9911 217.534 57.0982 217.623 57.2306C217.812 57.5036 217.907 57.8981 217.907 58.4189C217.907 58.9396 217.812 59.3404 217.623 59.615C217.534 59.7485 217.412 59.8568 217.269 59.9292C217.126 60.0017 216.967 60.0359 216.807 60.0284ZM216.807 59.7128C216.92 59.7178 217.032 59.6908 217.13 59.635C217.228 59.5791 217.308 59.4967 217.361 59.3972C217.502 59.0924 217.564 58.7571 217.542 58.422C217.548 58.1787 217.522 57.9357 217.464 57.6993C217.426 57.538 217.341 57.3917 217.219 57.2795C217.103 57.185 216.957 57.1356 216.807 57.1407C216.695 57.1368 216.583 57.1643 216.485 57.22C216.388 57.2757 216.307 57.3575 216.253 57.4563C216.132 57.6667 216.072 57.9902 216.072 58.4268C216.067 58.6716 216.093 58.9162 216.151 59.1542C216.192 59.3154 216.276 59.4622 216.395 59.5787C216.512 59.6699 216.659 59.7158 216.807 59.7081V59.7128ZM219.846 59.9921V59.3152H218.357V59.0485L219.903 56.8677H220.204V59.0169H220.678V59.3152H220.204V59.9921H219.846ZM219.846 59.0169V57.2937H219.944L218.658 59.1006V59.0075L219.846 59.0169ZM221.072 58.2279V57.7672H221.524V58.22L221.072 58.2279ZM221.072 60V59.5487H221.524V60H221.072ZM223.189 60.0411C223.054 60.0408 222.92 60.0259 222.789 59.9969C222.662 59.9683 222.539 59.9249 222.422 59.8675C222.313 59.8143 222.214 59.7457 222.125 59.6639L222.262 59.3799C222.395 59.4892 222.545 59.5761 222.706 59.6371C222.861 59.6917 223.024 59.7189 223.189 59.7176C223.382 59.7287 223.571 59.6629 223.716 59.5345C223.779 59.4733 223.828 59.3995 223.861 59.318C223.894 59.2365 223.909 59.149 223.907 59.0611C223.913 58.8771 223.848 58.6977 223.725 58.5609C223.659 58.494 223.58 58.442 223.493 58.4082C223.406 58.3745 223.312 58.3598 223.219 58.3652C223.076 58.3631 222.935 58.395 222.807 58.4583C222.679 58.5229 222.571 58.6191 222.491 58.7376H222.224V56.863H224.077V57.1786H222.579V58.4236H222.482C222.561 58.2993 222.675 58.2007 222.81 58.1396C222.958 58.071 223.12 58.0365 223.283 58.0386C223.464 58.0335 223.643 58.076 223.802 58.1617C223.947 58.2415 224.065 58.3615 224.143 58.5072C224.226 58.6675 224.267 58.846 224.263 59.0264C224.267 59.2107 224.221 59.3927 224.131 59.5535C224.044 59.7056 223.914 59.829 223.758 59.9085C223.579 59.9939 223.381 60.035 223.182 60.0284L223.189 60.0411ZM225.89 60.0411C225.663 60.0476 225.439 59.9854 225.248 59.8628C225.064 59.7335 224.923 59.5514 224.844 59.3404C224.746 59.0766 224.699 58.7965 224.707 58.5151C224.699 58.2037 224.753 57.8939 224.864 57.603C224.952 57.3726 225.106 57.1736 225.308 57.0318C225.514 56.897 225.757 56.8287 226.004 56.8361C226.173 56.8369 226.34 56.8718 226.496 56.9387C226.652 56.9966 226.791 57.0907 226.903 57.2133L226.771 57.4973C226.667 57.3879 226.542 57.3014 226.403 57.2433C226.275 57.1888 226.138 57.1604 225.999 57.1596C225.866 57.152 225.733 57.1767 225.612 57.2317C225.491 57.2866 225.385 57.3702 225.303 57.4752C225.143 57.6856 225.064 58.0065 225.065 58.4378V58.8497H225.024C225.041 58.6945 225.095 58.5457 225.182 58.4157C225.259 58.2944 225.368 58.1963 225.497 58.1317C225.635 58.0655 225.787 58.032 225.941 58.0338C226.115 58.0302 226.288 58.0733 226.441 58.1585C226.585 58.2401 226.703 58.361 226.782 58.5072C226.867 58.6634 226.91 58.8391 226.906 59.0169C226.91 59.1997 226.866 59.3801 226.779 59.5408C226.694 59.6922 226.569 59.8176 226.419 59.9038C226.256 59.9909 226.074 60.0339 225.89 60.0284V60.0411ZM225.863 59.7255C225.988 59.7279 226.111 59.6992 226.221 59.6418C226.325 59.5862 226.41 59.5011 226.466 59.3972C226.527 59.2861 226.557 59.1609 226.554 59.0343C226.558 58.9086 226.527 58.7845 226.466 58.6745C226.41 58.5711 226.325 58.4866 226.221 58.4315C226.112 58.3704 225.988 58.3399 225.863 58.3431C225.738 58.3399 225.614 58.3704 225.505 58.4315C225.403 58.4888 225.318 58.5728 225.26 58.6745C225.203 58.7857 225.175 58.9093 225.177 59.0343C225.175 59.1603 225.203 59.2849 225.26 59.3972C225.318 59.4994 225.403 59.5839 225.505 59.6418C225.617 59.6967 225.74 59.7227 225.865 59.7176L225.863 59.7255Z" fill="white"/>
<path d="M182.753 32.3391C183.005 32.3395 183.251 32.2659 183.46 32.1277C183.671 31.9898 183.836 31.7919 183.934 31.5596C184.031 31.3278 184.057 31.0723 184.008 30.8258C183.96 30.579 183.84 30.3521 183.662 30.1741C183.486 29.9965 183.26 29.8757 183.014 29.8269C182.768 29.7765 182.512 29.8007 182.28 29.8963C182.047 29.994 181.848 30.1588 181.709 30.3697C181.57 30.5787 181.496 30.8241 181.496 31.0751C181.496 31.2412 181.528 31.4057 181.591 31.5593C181.655 31.7128 181.748 31.8523 181.865 31.9699C182.101 32.2054 182.42 32.3381 182.753 32.3391Z" fill="white" stroke="black" stroke-width="0.5" stroke-linecap="round" stroke-linejoin="round"/>
<path d="M186.981 32.3392C187.232 32.3391 187.477 32.2644 187.685 32.1246C187.896 31.9858 188.06 31.7875 188.158 31.5549C188.253 31.3231 188.278 31.0684 188.229 30.8227C188.181 30.5763 188.06 30.3499 187.882 30.1726C187.705 29.995 187.479 29.8742 187.233 29.8254C186.987 29.776 186.732 29.8013 186.5 29.898C186.267 29.9961 186.069 30.1608 185.93 30.3714C185.791 30.5804 185.717 30.8258 185.717 31.0767C185.717 31.2432 185.749 31.4081 185.813 31.5619C185.877 31.7158 185.97 31.8555 186.088 31.9731C186.326 32.2079 186.647 32.3394 186.981 32.3392Z" fill="#CCCCCC" stroke="black" stroke-width="0.5" stroke-linecap="round" stroke-linejoin="round"/>
<path d="M191.202 32.3389C191.453 32.3395 191.698 32.2659 191.908 32.1274C192.119 31.9896 192.283 31.7917 192.381 31.5593C192.478 31.3276 192.504 31.0721 192.455 30.8256C192.407 30.5788 192.287 30.3518 192.11 30.1739C191.932 29.996 191.706 29.8752 191.459 29.8267C191.214 29.7767 190.959 29.8008 190.727 29.8961C190.494 29.9932 190.295 30.1581 190.156 30.3695C190.016 30.5781 189.941 30.8237 189.941 31.0749C189.944 31.41 190.077 31.7307 190.314 31.9681C190.55 32.2029 190.869 32.336 191.202 32.3389Z" fill="#B3B3B3" stroke="black" stroke-width="0.5" stroke-linecap="round" stroke-linejoin="round"/>
<path d="M208.263 165.762C208.263 165.762 211.99 159.988 218.474 160.209C224.959 160.429 227.958 163.783 228.544 163.68C229.129 163.578 229.745 160.325 226.966 157.253C224.187 154.181 220.747 154.728 218.4 155.811C216.054 156.893 213.919 158.736 213.919 158.736L208.951 163.155L208.263 165.762Z" fill="#999999" stroke="black" stroke-width="0.5" stroke-miterlimit="10" stroke-linecap="round" stroke-linejoin="round"/>
<path d="M208.263 165.762C208.263 165.762 210.608 162.386 211.304 161.539C212 160.692 213.924 158.735 213.924 158.735L207.339 163.478C207.339 163.478 205.866 164.379 206.272 165.353C206.677 166.327 208.263 165.762 208.263 165.762Z" fill="black" stroke="black" stroke-width="0.5" stroke-linecap="round" stroke-linejoin="round"/>
<path d="M205.014 217.879C205.82 209.637 205.423 197.598 205.134 185.758L205.069 183.076C204.771 170.546 206.272 148.347 206.286 148.124L204.866 147.956C204.851 148.178 203.343 170.491 203.644 183.136L203.709 185.818C203.995 197.584 204.29 209.836 203.498 217.926L205.014 217.879Z" fill="black" stroke="black" stroke-width="0.5" stroke-linecap="round" stroke-linejoin="round"/>
<path d="M202.54 177.939C202.54 177.939 205.174 168.561 197.242 165.694C189.311 162.827 188.469 154.042 176.357 154.147C176.357 154.147 184.866 170.327 202.54 177.939Z" fill="#333333" stroke="black" stroke-width="0.5" stroke-linecap="round" stroke-linejoin="round"/>
<path d="M191.429 138.711C196.223 147.665 202.317 153.292 202.866 153.794L202.906 153.829C202.906 153.829 207.078 139.133 201.809 129.865C196.54 120.597 188.51 120.664 188.51 120.664C188.51 120.664 186.397 129.327 191.429 138.711Z" fill="#333333" stroke="black" stroke-width="0.5" stroke-linecap="round" stroke-linejoin="round"/>
<path d="M191.429 138.711C196.223 147.665 202.317 153.292 202.866 153.794C200.828 139.672 188.506 120.656 188.506 120.656C188.506 120.656 186.397 129.327 191.429 138.711Z" fill="#999999" stroke="black" stroke-width="0.5" stroke-linecap="round" stroke-linejoin="round"/>
<path d="M206.668 157.771C206.668 157.771 205.248 161.111 205.079 164.255" stroke="black" stroke-width="0.5" stroke-miterlimit="10" stroke-linecap="round" stroke-linejoin="round"/>
<path d="M206.54 158.118C206.621 158.241 206.668 158.303 206.668 158.303C206.668 158.303 214.018 156.046 219.72 147.455C225.421 138.865 224.611 132.851 222.737 131.08C222.737 131.08 215.162 128.645 207.272 138.514C200.012 147.604 205.601 156.717 206.54 158.118Z" fill="#333333" stroke="black" stroke-width="0.5" stroke-linecap="round" stroke-linejoin="round"/>
<path d="M206.54 158.118C206.621 158.241 206.668 158.302 206.668 158.302C206.668 158.302 214.018 156.046 219.72 147.455C225.421 138.864 224.611 132.851 222.737 131.08C222.737 131.08 212.39 141.833 206.54 158.118Z" fill="black" stroke="black" stroke-width="0.5" stroke-linecap="round" stroke-linejoin="round"/>
<path d="M181.944 148.402C181.944 148.402 181.877 153.136 190.874 158.501C198.435 163.015 201.009 164.34 201.636 164.643L201.806 164.723C201.806 164.723 205.352 159.043 197.738 152.857C190.124 146.671 181.944 148.402 181.944 148.402Z" fill="#333333" stroke="black" stroke-width="0.5" stroke-linecap="round" stroke-linejoin="round"/>
<path d="M181.944 148.402C181.944 148.402 181.877 153.136 190.874 158.501C198.435 163.014 201.009 164.34 201.636 164.643C194.14 151.187 181.944 148.402 181.944 148.402Z" fill="#999999" stroke="black" stroke-width="0.5" stroke-linecap="round" stroke-linejoin="round"/>
<path d="M208.795 199.173C208.795 199.173 222.625 187.674 232.555 184.905C232.555 184.905 227.674 183.23 223.048 184.734C218.421 186.238 206.889 186.879 208.795 199.173Z" fill="#333333" stroke="black" stroke-width="0.5" stroke-linecap="round" stroke-linejoin="round"/>
<path d="M179.698 169.38C179.698 169.38 184.86 173.677 188.061 176.144C191.263 178.61 198.017 185.612 201.686 186.243L195.459 176.144C195.459 176.144 182.983 168.88 179.698 169.38Z" fill="black" stroke="black" stroke-width="0.5" stroke-linecap="round" stroke-linejoin="round"/>
<path d="M201.694 186.238C201.694 186.238 189.251 173.25 179.698 169.376C179.698 169.376 184.737 168.271 189.166 170.281C193.596 172.292 204.976 174.237 201.694 186.238Z" fill="#999999" stroke="black" stroke-width="0.5" stroke-linecap="round" stroke-linejoin="round"/>
<path d="M206.286 208.207L204.978 211.06" stroke="black" stroke-width="0.5" stroke-linecap="round" stroke-linejoin="round"/>
<path d="M206.013 208.974C206.07 209.447 213.332 200.748 222.508 200.89C222.508 200.89 216.136 199.515 211.804 201.532C207.473 203.549 205.716 206.555 206.013 208.974Z" fill="#333333" stroke="black" stroke-width="0.5" stroke-linecap="round" stroke-linejoin="round"/>
<path d="M204.587 139.368L204.5 143.239" stroke="black" stroke-width="0.5" stroke-linecap="round" stroke-linejoin="round"/>
<path d="M204.651 140.37C204.948 140.875 208.912 127.484 219.372 123.16C219.372 123.16 211.482 124.718 207.571 129.119C203.659 133.52 203.135 137.779 204.651 140.37Z" fill="#333333" stroke="black" stroke-width="0.5" stroke-linecap="round" stroke-linejoin="round"/>
<path d="M207.298 188.632C209.395 186.042 218.677 182.508 223.048 176.716C227.419 170.925 225.008 163.649 225.008 163.649C225.008 163.649 215.841 160.602 208.778 169.488C201.715 178.373 207.298 188.632 207.298 188.632Z" fill="#333333" stroke="black" stroke-width="0.5" stroke-linecap="round" stroke-linejoin="round"/>
<path d="M207.297 188.632C209.395 186.042 218.676 182.508 223.048 176.716C227.419 170.925 225.007 163.649 225.007 163.649C210.09 173.027 207.297 188.632 207.297 188.632Z" fill="#999999" stroke="black" stroke-width="0.5" stroke-linecap="round" stroke-linejoin="round"/>
<path d="M191.379 193.136C194.719 197.639 201.285 200.267 202.822 200.836C203.037 200.917 203.151 200.955 203.151 200.955C203.151 200.955 211.864 188.685 190.714 184.111C190.714 184.111 187.576 188.01 191.379 193.136Z" fill="#333333" stroke="black" stroke-width="0.5" stroke-linecap="round" stroke-linejoin="round"/>
<path d="M191.379 193.136C194.719 197.639 201.285 200.267 202.822 200.836C194.866 190.705 190.84 184.316 190.714 184.109C190.714 184.109 187.576 188.01 191.379 193.136Z" fill="black" stroke="black" stroke-width="0.5" stroke-linecap="round" stroke-linejoin="round"/>
<path d="M202.866 153.794C202.866 153.794 204.527 164.453 204.474 167.086" stroke="black" stroke-width="0.5" stroke-linecap="round" stroke-linejoin="round"/>
<path d="M208.424 165.531C208.424 165.531 205.349 170.245 204.479 175.048" stroke="black" stroke-width="0.5" stroke-linecap="round" stroke-linejoin="round"/>
<path d="M201.635 164.646C201.635 164.646 203.565 168.662 204.16 175.045" stroke="black" stroke-width="0.5" stroke-linecap="round" stroke-linejoin="round"/>
<path d="M202.54 177.941L204.474 179.596" stroke="black" stroke-width="0.5" stroke-linecap="round" stroke-linejoin="round"/>
<path d="M207.297 188.632C207.297 188.632 205.809 195.259 204.889 201.766" stroke="black" stroke-width="0.5" stroke-linecap="round" stroke-linejoin="round"/>
<path d="M203.15 200.955L204.929 205.252" stroke="black" stroke-width="0.5" stroke-linecap="round" stroke-linejoin="round"/>
<path d="M208.795 199.173C208.795 199.173 205.555 202.223 204.889 205.974" stroke="black" stroke-width="0.5" stroke-linecap="round" stroke-linejoin="round"/>
<path d="M201.694 186.238L204.475 190.709" stroke="black" stroke-width="0.5" stroke-linecap="round" stroke-linejoin="round"/>
<path d="M219.178 209.184V209.476C219.178 212.885 218.504 216.259 217.193 219.406C215.882 222.553 213.962 225.409 211.542 227.809C209.875 229.463 207.628 230.401 205.279 230.423C202.931 230.446 200.666 229.551 198.967 227.929L198.898 227.863C196.372 225.451 194.362 222.553 192.988 219.342C191.615 216.132 190.907 212.676 190.907 209.184H219.178Z" fill="#B3B3B3" stroke="black" stroke-width="0.5" stroke-linecap="round" stroke-linejoin="round"/>
<path d="M218.096 249.587H219.178V216.443H218.096V249.587Z" fill="black"/>
<path d="M204.501 249.587H205.584V216.443H204.501V249.587Z" fill="black"/>
<path d="M190.908 249.587H191.991V216.443H190.908V249.587Z" fill="black"/>
<path d="M205.042 242.267C212.55 242.267 218.635 240.909 218.635 239.234C218.635 237.559 212.55 236.201 205.042 236.201C197.535 236.201 191.449 237.559 191.449 239.234C191.449 240.909 197.535 242.267 205.042 242.267Z" stroke="black" stroke-width="0.5" stroke-linecap="round" stroke-linejoin="round"/>
<path d="M191.449 219.804C191.449 221.478 197.534 222.837 205.042 222.837C212.551 222.837 218.635 221.478 218.635 219.804" stroke="black" stroke-width="0.5" stroke-linecap="round" stroke-linejoin="round"/>
<path d="M156.943 109.013C157.867 105.938 156.598 102.842 154.108 102.098C151.617 101.354 148.849 103.242 147.924 106.317C147 109.391 148.269 112.487 150.759 113.232C153.25 113.976 156.018 112.087 156.943 109.013Z" fill="#999999" stroke="black" stroke-width="0.5" stroke-linecap="round" stroke-linejoin="round"/>
<path d="M97.9018 159.404L96.3491 151.255C96.2932 150.97 96.1272 150.718 95.8871 150.555C95.6469 150.391 95.352 150.329 95.0662 150.381C94.7807 150.437 94.5287 150.603 94.365 150.843C94.2013 151.084 94.1391 151.379 94.1919 151.665L95.1008 159.789C95.2144 160.384 96.4343 160.8 97.0292 160.687C97.1709 160.66 97.3058 160.606 97.4264 160.527C97.547 160.448 97.6508 160.346 97.7319 160.227C97.813 160.107 97.8697 159.973 97.8989 159.832C97.928 159.691 97.929 159.545 97.9018 159.404Z" fill="#E5E5E5" stroke="black" stroke-width="0.5" stroke-miterlimit="10" stroke-linecap="round" stroke-linejoin="round"/>
<path d="M97.0371 163.239C97.0371 163.239 124.308 177.881 123.972 179.043C123.636 180.204 124.524 159.791 124.524 159.791L97.6289 158.854L97.0371 163.239Z" fill="#E5E5E5" stroke="black" stroke-width="0.5" stroke-linecap="round" stroke-linejoin="round"/>
<path d="M125.377 177.206L114.799 174.163L123.417 144.208L136.754 148.044L125.377 177.206Z" fill="#E5E5E5" stroke="black" stroke-width="0.5" stroke-miterlimit="10" stroke-linecap="round" stroke-linejoin="round"/>
<path d="M158.425 92.8467C158.425 92.8467 162.138 89.5328 169.484 94.1611C178.218 99.6574 177.241 106.828 176.396 115.065C175.562 123.162 180.781 127.47 185.204 131.634C190.713 136.832 190.153 142.729 188.044 145.885C185.496 149.702 179.222 154.758 166.916 151.628C161.236 150.182 144.744 151.713 144.744 151.713C144.744 151.713 133.592 124.36 144.687 116.144C147.826 113.823 153.377 112.34 152.683 104.535C152.448 101.889 150.922 98.761 152.841 95.504C154.651 92.4395 158.425 92.8467 158.425 92.8467Z" fill="black"/>
<path d="M119.14 249.887H178.256V211.829H119.14V249.887Z" fill="#E5E5E5" stroke="black" stroke-width="0.5" stroke-linecap="round" stroke-linejoin="round"/>
<path d="M165.723 166.417L178.251 161.994L179.76 154.426H165.723V166.417Z" fill="#E5E5E5"/>
<path d="M119.024 212.356H178.373C182.817 212.356 186.42 208.753 186.42 204.308C186.42 199.863 182.817 196.26 178.373 196.26H119.024C114.579 196.26 110.976 199.863 110.976 204.308C110.976 208.753 114.579 212.356 119.024 212.356Z" fill="#E5E5E5" stroke="black" stroke-width="0.5" stroke-linecap="round" stroke-linejoin="round"/>
<path d="M147.387 242.952L157.969 242.15L160.251 221.534L148.174 220.35L147.387 242.952Z" fill="#E5E5E5" stroke="black" stroke-width="0.5" stroke-miterlimit="10" stroke-linecap="round" stroke-linejoin="round"/>
<path d="M79.0132 241.631L89.507 243.213L101.834 224.003L90.9004 217.352L79.0132 241.631Z" fill="#E5E5E5" stroke="black" stroke-width="0.5" stroke-miterlimit="10" stroke-linecap="round" stroke-linejoin="round"/>
<path d="M167.876 166.855L147.533 176.74C147.533 176.74 119.142 165.221 112.484 168.099C106.36 170.741 107.627 177.008 107.627 177.008L128.099 196.522C131.305 199.059 135.2 200.574 139.277 200.87C143.48 201.168 148.588 201.173 154.713 201.109C164.181 201.015 170.536 197.139 171.811 187.319C173.04 177.849 167.876 166.855 167.876 166.855Z" fill="#999999" stroke="black" stroke-width="0.5" stroke-miterlimit="10" stroke-linecap="round" stroke-linejoin="round"/>
<path d="M128.457 183.53L102.623 228.556L85.8506 218.456L108.585 171.438" fill="#999999"/>
<path d="M128.457 183.53L102.623 228.556L85.8506 218.456L108.585 171.438" stroke="black" stroke-width="0.5" stroke-miterlimit="10" stroke-linecap="round" stroke-linejoin="round"/>
<path d="M93.2184 250.313L91.8155 239.772L83.886 238.537L83.8986 238.518C84.1456 238.134 84.2508 237.677 84.196 237.224C84.1413 236.771 83.93 236.352 83.5988 236.039L79.496 235.398C78.7922 235.289 78.0733 235.452 77.4856 235.854L76.9664 236.211C75.7315 237.058 74.3032 237.581 72.8131 237.732L58.5431 239.177C57.2133 239.311 55.9556 239.846 54.9359 240.71C53.9163 241.574 53.1828 242.727 52.8323 244.017L78.1073 247.962L82.6299 246.636L81.9892 248.566L93.2184 250.313Z" fill="black" stroke="black" stroke-width="0.5" stroke-miterlimit="10" stroke-linecap="round" stroke-linejoin="round"/>
<path d="M72.0287 236.842L68.0616 237.456C67.9592 237.472 67.8635 237.517 67.7862 237.586C67.709 237.655 67.6533 237.745 67.626 237.845C67.5986 237.945 67.6008 238.051 67.6321 238.15C67.6635 238.249 67.7228 238.336 67.8028 238.402L71.4732 241.401C71.8167 241.683 72.2296 241.867 72.6688 241.935C73.1079 242.002 73.5572 241.951 73.9697 241.786C74.2274 241.682 74.4565 241.518 74.6376 241.307C74.8187 241.096 74.9466 240.845 75.0104 240.575C75.0743 240.304 75.0723 240.022 75.0046 239.753C74.9369 239.483 74.8055 239.234 74.6214 239.026L72.9676 237.168C72.8507 237.04 72.7036 236.943 72.5396 236.886C72.3757 236.829 72.2 236.814 72.0287 236.842Z" fill="#CCCCCC" stroke="black" stroke-width="0.5" stroke-miterlimit="10" stroke-linecap="round" stroke-linejoin="round"/>
<path d="M161.488 252.568L158.479 242.37H150.442L150.451 242.348C150.637 241.931 150.67 241.462 150.546 241.023C150.422 240.584 150.149 240.203 149.773 239.944H145.616C144.904 239.945 144.219 240.217 143.701 240.705L143.243 241.137C142.152 242.164 140.822 242.901 139.372 243.28L125.495 246.91C124.203 247.248 123.044 247.97 122.17 248.981C121.297 249.992 120.751 251.244 120.603 252.572H146.181L150.442 250.564L150.107 252.572L161.488 252.568Z" fill="black" stroke="black" stroke-width="0.5" stroke-miterlimit="10" stroke-linecap="round" stroke-linejoin="round"/>
<path d="M138.468 242.521L134.643 243.738C134.544 243.77 134.456 243.829 134.39 243.91C134.324 243.99 134.283 244.088 134.271 244.191C134.259 244.295 134.278 244.399 134.324 244.492C134.371 244.585 134.443 244.663 134.532 244.716L138.623 247.123C139.005 247.348 139.441 247.467 139.885 247.467C140.329 247.467 140.765 247.348 141.147 247.123C141.386 246.98 141.587 246.783 141.733 246.547C141.88 246.31 141.967 246.042 141.989 245.765C142.01 245.488 141.965 245.21 141.856 244.954C141.748 244.698 141.579 244.472 141.365 244.295L139.446 242.717C139.312 242.605 139.153 242.529 138.982 242.495C138.811 242.461 138.634 242.47 138.468 242.521Z" fill="#CCCCCC" stroke="black" stroke-width="0.5" stroke-miterlimit="10" stroke-linecap="round" stroke-linejoin="round"/>
<path d="M166.425 154.362L180.703 159.541C180.805 159.579 180.914 159.592 181.022 159.581C181.13 159.57 181.235 159.535 181.327 159.478C181.419 159.421 181.498 159.344 181.556 159.253C181.615 159.161 181.652 159.058 181.664 158.95L183.157 146.326C183.021 144.259 182.607 142.221 181.925 140.266C180.566 136.424 178.003 132.815 167.3 127.151L161.437 123.934L138.962 126.073C136.224 126.334 133.611 127.339 131.405 128.981C129.199 130.622 127.485 132.837 126.45 135.384L120.251 150.626L134.453 154.869L133.822 170.943L147.393 176.745L167.319 178.127L166.425 154.362Z" fill="#666666" stroke="black" stroke-width="0.5" stroke-linecap="round" stroke-linejoin="round"/>
<path d="M166.618 116.249L163.118 128.193C162.879 129.009 162.47 129.765 161.918 130.411C161.366 131.057 160.683 131.58 159.915 131.943C159.146 132.307 158.31 132.504 157.46 132.521C156.61 132.538 155.766 132.375 154.983 132.043C153.615 131.462 152.509 130.394 151.88 129.046C151.252 127.699 151.144 126.166 151.578 124.743L155.533 111.772L166.618 116.249Z" fill="#E5E5E5" stroke="black" stroke-width="0.5" stroke-miterlimit="10" stroke-linecap="round" stroke-linejoin="round"/>
<path d="M170.713 103.818L168.717 97.5648L160.364 96.8263C158.997 96.3505 157.5 96.4147 156.178 97.0057C154.857 97.5966 153.811 98.6698 153.254 100.006C151.651 103.853 149.625 108.843 149.113 110.706C148.234 113.897 149.369 118.668 154.037 119.654C158.704 120.64 161.587 119.889 164.376 118.414C167.164 116.938 168.804 112.101 169.268 110.858C170.404 107.806 170.713 103.818 170.713 103.818Z" fill="#E5E5E5" stroke="black" stroke-width="0.5" stroke-miterlimit="10" stroke-linecap="round" stroke-linejoin="round"/>
<path d="M162.324 107.413L159.406 105.662" stroke="black" stroke-width="0.5" stroke-linecap="round" stroke-linejoin="round"/>
<path d="M155.698 104.041L153.113 103.786" stroke="black" stroke-width="0.5" stroke-linecap="round" stroke-linejoin="round"/>
<path d="M156.332 107.298C156.332 107.298 154.721 109.35 154.754 110.432C154.788 111.515 156.372 111.49 156.372 111.49" stroke="black" stroke-width="0.5" stroke-linecap="round" stroke-linejoin="round"/>
<path d="M159.749 109.615C160.22 109.615 160.601 109.233 160.601 108.763C160.601 108.292 160.22 107.911 159.749 107.911C159.278 107.911 158.897 108.292 158.897 108.763C158.897 109.233 159.278 109.615 159.749 109.615Z" fill="black"/>
<path d="M153.962 107.372C154.433 107.372 154.815 106.991 154.815 106.52C154.815 106.049 154.433 105.668 153.962 105.668C153.492 105.668 153.11 106.049 153.11 106.52C153.11 106.991 153.492 107.372 153.962 107.372Z" fill="black"/>
<path d="M167.68 115.695C167.68 115.695 168.86 108.256 162.258 104.32C156.056 100.625 160.68 95.2216 160.68 95.2216L166.172 94.1816C166.172 94.1816 169.821 96.3735 171.276 102.297C172.629 107.781 167.68 115.695 167.68 115.695Z" fill="black"/>
<path d="M156.703 115.341C157.18 115.596 157.73 115.678 158.259 115.571C159.085 115.377 159.807 114.479 159.807 114.479" stroke="black" stroke-width="0.5" stroke-linecap="round" stroke-linejoin="round"/>
<path d="M166.47 146.693L166.277 150.892" stroke="black" stroke-width="0.5" stroke-linecap="round" stroke-linejoin="round"/>
<path d="M171.497 163.15L160.925 138.317L157.399 127.623C157.286 127.281 157.106 126.965 156.868 126.694C156.631 126.423 156.341 126.202 156.017 126.045L152.1 124.151C151.734 123.974 151.331 123.885 150.924 123.891C150.517 123.898 150.118 123.999 149.757 124.188L146.745 125.845C146.468 125.99 144.761 126.773 144.889 127.265C145.004 127.711 145.73 127.814 145.994 127.823C146.676 127.846 147.345 127.631 147.887 127.216L148.765 126.574L147.24 128.368C146.998 128.651 146.873 129.015 146.89 129.387L146.962 131.019C146.962 131.019 146.459 132.179 147.032 132.805C147.605 133.432 149.872 134.487 150.196 133.637C150.453 132.943 149.495 132.101 149.495 132.101L152.187 133.023L152.634 137.768C152.726 138.743 153.197 139.642 153.945 140.272L154.687 140.904L158.9 169.865C159.209 172.088 160.186 174.164 161.703 175.819C163.498 177.746 166.238 179.237 169.848 177.057C176.784 172.877 178.917 158.91 178.917 158.91" fill="#E5E5E5"/>
<path d="M171.497 163.15L160.925 138.317L157.399 127.623C157.286 127.281 157.106 126.965 156.868 126.694C156.631 126.423 156.341 126.202 156.017 126.045L152.1 124.151C151.734 123.974 151.331 123.885 150.924 123.891C150.517 123.898 150.118 123.999 149.757 124.188L146.745 125.845C146.468 125.99 144.761 126.773 144.889 127.265C145.004 127.711 145.73 127.814 145.994 127.823C146.676 127.846 147.345 127.631 147.887 127.216L148.765 126.574L147.24 128.368C146.998 128.651 146.873 129.015 146.89 129.387L146.962 131.019C146.962 131.019 146.459 132.179 147.032 132.805C147.605 133.432 149.872 134.487 150.196 133.637C150.453 132.943 149.495 132.101 149.495 132.101L152.187 133.023L152.634 137.768C152.726 138.743 153.197 139.642 153.945 140.272L154.687 140.904L158.9 169.865C159.209 172.088 160.186 174.164 161.703 175.819C163.498 177.746 166.238 179.237 169.848 177.057C176.784 172.877 178.917 158.91 178.917 158.91" stroke="black" stroke-width="0.5" stroke-miterlimit="10" stroke-linecap="round" stroke-linejoin="round"/>
<path d="M149.495 132.095L149.958 130.904L151.575 131.535C151.772 131.613 151.94 131.75 152.055 131.929C152.17 132.107 152.225 132.317 152.214 132.529L152.187 133.015" stroke="black" stroke-width="0.5" stroke-linecap="round" stroke-linejoin="round"/>
<path d="M153.805 129.772C153.805 129.772 150.833 127.943 149.396 128.338C147.958 128.732 146.967 131.021 146.967 131.021" stroke="black" stroke-width="0.5" stroke-linecap="round" stroke-linejoin="round"/>
<path d="M154.609 127.7C154.609 127.7 151.677 125.832 150.57 125.743C149.462 125.655 148.769 126.567 148.769 126.567" stroke="black" stroke-width="0.5" stroke-linecap="round" stroke-linejoin="round"/>
<path d="M149.907 132.55C149.603 132.173 149.246 131.843 148.845 131.571" stroke="black" stroke-width="0.5" stroke-linecap="round" stroke-linejoin="round"/>
<path d="M122.635 170.955L148.397 177.192L149.061 174.447L123.3 168.209L122.635 170.955Z" fill="#333333" stroke="black" stroke-width="0.5" stroke-linecap="round" stroke-linejoin="round"/>
<path d="M92.0205 142.324L122.216 149.635L129.606 172.659L99.4103 165.349L92.0205 142.324Z" fill="#666666" stroke="black" stroke-width="0.5" stroke-linecap="round" stroke-linejoin="round"/>
<path d="M127.916 172.251L129.606 172.66L122.216 149.635L120.526 149.226L127.916 172.251Z" fill="#333333" stroke="black" stroke-width="0.5" stroke-linecap="round" stroke-linejoin="round"/>
<path d="M98.2318 165.678C96.8952 165.483 95.6138 162.778 95.1815 160.605C94.7491 158.432 95 156.976 95.434 156.004C96.1504 154.4 99.4326 150.165 100.662 151.178C101.73 152.063 100.619 153.348 100.619 153.348C100.619 153.348 101.271 153.032 101.694 153.602C102.253 154.359 101.416 155.906 101.416 155.906C101.416 155.906 102.303 155.764 102.647 156.51C103.146 157.594 101.741 159.093 101.741 159.093C101.741 159.093 102.357 159.273 102.443 159.865C102.672 161.426 99.8571 165.918 98.2318 165.678Z" fill="#E5E5E5" stroke="black" stroke-width="0.5" stroke-linecap="round" stroke-linejoin="round"/>
<path d="M96.3477 158.574C96.3477 158.574 97.416 156.635 98.4748 155.454C99.1776 154.683 99.9264 153.955 100.717 153.273" fill="#E5E5E5"/>
<path d="M96.3477 158.574C96.3477 158.574 97.416 156.635 98.4748 155.454C99.1776 154.683 99.9264 153.955 100.717 153.273" stroke="black" stroke-width="0.5" stroke-linecap="round" stroke-linejoin="round"/>
<path d="M97.2629 161.017C97.898 159.968 98.6007 158.962 99.3664 158.004C100.007 157.264 100.692 156.564 101.418 155.907" fill="#E5E5E5"/>
<path d="M97.2629 161.017C97.898 159.968 98.6007 158.962 99.3664 158.004C100.007 157.264 100.692 156.564 101.418 155.907" stroke="black" stroke-width="0.5" stroke-linecap="round" stroke-linejoin="round"/>
<path d="M97.9224 163.858C97.9224 163.858 99.0664 162.28 99.816 161.333C100.698 160.228 101.741 159.097 101.741 159.097" fill="#E5E5E5"/>
<path d="M97.9224 163.858C97.9224 163.858 99.0664 162.28 99.816 161.333C100.698 160.228 101.741 159.097 101.741 159.097" stroke="black" stroke-width="0.5" stroke-linecap="round" stroke-linejoin="round"/>
<path d="M147.298 177.717L144.881 227.636L163.625 230.282L170.146 179.828C170.353 178.316 170.257 176.777 169.862 175.302C169.467 173.827 168.782 172.445 167.847 171.238C166.912 170.031 165.745 169.023 164.416 168.272C163.086 167.521 161.621 167.043 160.104 166.865C158.541 166.682 156.956 166.822 155.449 167.277C153.942 167.732 152.545 168.492 151.344 169.51C150.143 170.527 149.165 171.781 148.469 173.193C147.773 174.605 147.374 176.145 147.298 177.717Z" fill="#999999" stroke="black" stroke-width="0.5" stroke-miterlimit="10" stroke-linecap="round" stroke-linejoin="round"/>
<path d="M172.28 115.261C173.205 112.186 171.935 109.091 169.445 108.346C166.955 107.602 164.186 109.49 163.262 112.565C162.337 115.639 163.606 118.735 166.097 119.48C168.587 120.224 171.356 118.335 172.28 115.261Z" fill="#999999" stroke="black" stroke-width="0.5" stroke-linecap="round" stroke-linejoin="round"/>
<path d="M171.892 115.221C172.558 113.004 171.643 110.772 169.847 110.236C168.052 109.699 166.056 111.06 165.389 113.277C164.722 115.493 165.638 117.725 167.434 118.262C169.229 118.799 171.225 117.437 171.892 115.221Z" fill="#B3B3B3" stroke="black" stroke-width="0.5" stroke-linecap="round" stroke-linejoin="round"/>
<mask id="path-95-inside-1_1754_47101" fill="white">
<path d="M158.987 122.584C158.283 122.585 157.584 122.46 156.923 122.217L157.034 121.907C159.13 122.68 161.497 122.144 163.527 120.447C166.052 118.336 169.032 114.469 169.062 114.43L169.325 114.631C169.295 114.671 166.293 118.566 163.74 120.7C162.263 121.94 160.605 122.584 158.987 122.584Z"/>
</mask>
<path d="M158.987 122.584C158.283 122.585 157.584 122.46 156.923 122.217L157.034 121.907C159.13 122.68 161.497 122.144 163.527 120.447C166.052 118.336 169.032 114.469 169.062 114.43L169.325 114.631C169.295 114.671 166.293 118.566 163.74 120.7C162.263 121.94 160.605 122.584 158.987 122.584Z" fill="black"/>
<path d="M158.987 122.584V122.084H158.987L158.987 122.584ZM156.923 122.217L156.452 122.049L156.286 122.516L156.751 122.687L156.923 122.217ZM157.034 121.907L157.207 121.438L156.733 121.263L156.563 121.739L157.034 121.907ZM163.527 120.447L163.848 120.831L163.848 120.831L163.527 120.447ZM169.062 114.43L169.365 114.033L168.97 113.732L168.666 114.124L169.062 114.43ZM169.325 114.631L169.725 114.932L170.024 114.535L169.628 114.234L169.325 114.631ZM163.74 120.7L163.419 120.317L163.419 120.317L163.74 120.7ZM158.987 122.084C158.341 122.085 157.701 121.971 157.096 121.748L156.751 122.687C157.467 122.95 158.224 123.085 158.987 123.084L158.987 122.084ZM157.394 122.385L157.505 122.075L156.563 121.739L156.452 122.049L157.394 122.385ZM156.861 122.376C159.159 123.224 161.711 122.617 163.848 120.831L163.206 120.064C161.283 121.672 159.1 122.136 157.207 121.438L156.861 122.376ZM163.848 120.831C165.143 119.748 166.54 118.228 167.609 116.988C168.145 116.365 168.603 115.808 168.929 115.403C169.091 115.201 169.221 115.037 169.312 114.922C169.357 114.865 169.392 114.82 169.417 114.788C169.429 114.772 169.439 114.76 169.446 114.751C169.452 114.743 169.457 114.736 169.457 114.736L168.666 114.124C168.63 114.171 165.682 117.993 163.206 120.064L163.848 120.831ZM168.758 114.828L169.022 115.029L169.628 114.234L169.365 114.033L168.758 114.828ZM168.926 114.331C168.927 114.329 168.916 114.344 168.891 114.376C168.867 114.406 168.833 114.451 168.788 114.507C168.7 114.62 168.571 114.782 168.41 114.982C168.087 115.383 167.633 115.936 167.1 116.554C166.031 117.794 164.664 119.276 163.419 120.317L164.061 121.084C166.663 118.908 169.696 114.971 169.725 114.932L168.926 114.331ZM163.419 120.317C162.016 121.494 160.469 122.084 158.987 122.084V123.084C160.741 123.084 162.509 122.386 164.061 121.083L163.419 120.317Z" fill="black" mask="url(#path-95-inside-1_1754_47101)"/>
<path d="M156.757 120.889L155.07 120.245C154.594 120.063 154.061 120.3 153.878 120.774L153.851 120.844C153.669 121.318 153.907 121.85 154.383 122.032L156.069 122.677C156.545 122.859 157.079 122.622 157.262 122.147L157.288 122.078C157.471 121.604 157.233 121.071 156.757 120.889Z" fill="#999999" stroke="black" stroke-width="0.5" stroke-linecap="round" stroke-linejoin="round"/>
<path d="M168.613 112.843C169.499 110.534 170.826 105.625 168.072 99.8216C165.317 94.0181 158.554 92.8573 158.554 92.8573L159.25 92.3931C159.25 92.3931 166.214 93.7859 169.464 100.054C172.714 106.322 171.864 111.711 170.826 114.249C170.584 114.838 169.684 116.246 168.732 115.705C167.78 115.165 168.357 113.511 168.613 112.843Z" fill="white" stroke="black" stroke-width="0.5" stroke-miterlimit="10"/>
<path d="M140.825 97.9778L146.7 95.794C146.948 95.702 147.074 95.4268 146.982 95.1793C146.89 94.9317 146.615 94.8057 146.367 94.8977L140.492 97.0814C140.245 97.1734 140.119 97.4487 140.211 97.6962C140.303 97.9438 140.578 98.0698 140.825 97.9778Z" fill="#808080" stroke="black" stroke-width="0.5" stroke-linecap="round" stroke-linejoin="round"/>
<path d="M143.893 100.511L145.795 99.8027C145.93 99.7533 146.045 99.6633 146.127 99.5451C146.208 99.4269 146.25 99.2864 146.248 99.1431L146.227 97.6992L142.148 99.2157L143.133 100.32C143.226 100.425 143.348 100.499 143.484 100.533C143.619 100.567 143.762 100.56 143.893 100.511Z" fill="#808080" stroke="black" stroke-width="0.5" stroke-linecap="round" stroke-linejoin="round"/>
<path d="M141.406 99.5403L147.281 97.3565C147.529 97.2645 147.655 96.9893 147.563 96.7418C147.471 96.4942 147.196 96.3682 146.948 96.4602L141.073 98.6439C140.825 98.7359 140.699 99.0112 140.791 99.2587C140.883 99.5063 141.159 99.6323 141.406 99.5403Z" fill="#808080" stroke="black" stroke-width="0.5" stroke-linecap="round" stroke-linejoin="round"/>
<path d="M131.932 88.9678C131.163 86.9005 131.246 84.6123 132.163 82.6063C133.081 80.6003 134.757 79.0407 136.824 78.2705C138.891 77.5007 141.18 77.5836 143.186 78.501C145.192 79.4183 146.751 81.0951 147.521 83.1623C148.068 84.6301 148.188 86.2223 147.87 87.7557C147.551 89.2891 146.806 90.7015 145.721 91.8303L146.464 93.8171L139.694 96.3419L138.956 94.3552C137.397 94.2092 135.911 93.6262 134.668 92.6732C133.425 91.7202 132.477 90.4358 131.932 88.9678Z" fill="white" stroke="black" stroke-width="0.5" stroke-linecap="round" stroke-linejoin="round"/>
<path d="M143.958 94.6758C143.824 94.3947 143.675 94.1213 143.51 93.8568C143.1 93.1179 142.727 92.3584 142.395 91.5813C141.904 90.4332 141.52 89.2427 141.247 88.0245C141.219 87.8691 141.235 87.7088 141.293 87.5621C141.318 87.4945 141.36 87.4346 141.416 87.3883C141.471 87.3421 141.538 87.3112 141.609 87.2986C141.882 87.2591 142.161 87.5953 142.224 87.9172C142.296 88.2824 142.238 88.6611 142.062 88.9888C141.885 89.3165 141.601 89.5729 141.257 89.7145C140.548 89.9859 139.671 89.6719 139.341 89.0454C139.255 88.9082 139.219 88.7452 139.239 88.5843C139.26 88.4235 139.335 88.2747 139.453 88.1633C139.682 87.9661 140.058 88.0766 140.269 88.3038C140.48 88.531 140.624 88.8592 140.766 89.1606C140.908 89.462 141.03 89.7634 141.143 90.0554C141.352 90.599 141.532 91.1531 141.683 91.7155C141.894 92.479 142.046 93.2577 142.137 94.0446C142.182 94.3981 142.235 94.69 142.311 95.2991" stroke="black" stroke-width="0.5" stroke-linecap="round" stroke-linejoin="round"/>
<path d="M135.468 74.9755L135.469 74.9749C135.791 74.8553 135.955 74.4974 135.835 74.1755L133.85 68.8329C133.73 68.511 133.372 68.3471 133.05 68.4667L133.049 68.4673C132.727 68.5869 132.563 68.9448 132.682 69.2667L134.668 74.6093C134.788 74.9312 135.146 75.0951 135.468 74.9755Z" fill="white" stroke="black" stroke-width="0.5" stroke-linecap="round" stroke-linejoin="round"/>
<path d="M126.945 82.8841L126.946 82.8826C127.089 82.5704 126.952 82.2015 126.64 82.0585L121.458 79.6849C121.146 79.5419 120.777 79.679 120.634 79.9912L120.633 79.9927C120.49 80.3048 120.627 80.6738 120.939 80.8168L126.121 83.1904C126.433 83.3334 126.802 83.1963 126.945 82.8841Z" fill="white" stroke="black" stroke-width="0.5" stroke-linecap="round" stroke-linejoin="round"/>
<path d="M126.511 94.5017L126.511 94.5003C126.391 94.1784 126.033 94.0145 125.711 94.1341L120.369 96.1199C120.047 96.2396 119.883 96.5975 120.002 96.9193L120.003 96.9208C120.123 97.2426 120.48 97.4066 120.802 97.2869L126.145 95.3011C126.467 95.1814 126.631 94.8236 126.511 94.5017Z" fill="white" stroke="black" stroke-width="0.5" stroke-linecap="round" stroke-linejoin="round"/>
<path d="M161.58 81.4656L161.58 81.4641C161.46 81.1423 161.102 80.9783 160.78 81.098L155.438 83.0838C155.116 83.2034 154.952 83.5613 155.071 83.8832L155.072 83.8847C155.192 84.2065 155.55 84.3704 155.871 84.2508L161.214 82.265C161.536 82.1453 161.7 81.7874 161.58 81.4656Z" fill="white" stroke="black" stroke-width="0.5" stroke-linecap="round" stroke-linejoin="round"/>
<path d="M149.999 69.0071L149.998 69.0065C149.686 68.8635 149.317 69.0006 149.174 69.3128L146.8 74.4949C146.657 74.807 146.794 75.176 147.106 75.319L147.108 75.3197C147.42 75.4627 147.789 75.3255 147.932 75.0134L150.306 69.8313C150.449 69.5191 150.312 69.1501 149.999 69.0071Z" fill="white" stroke="black" stroke-width="0.5" stroke-linecap="round" stroke-linejoin="round"/>
<path d="M43.9594 16.6892C44.5248 16.1305 45.3019 15.7856 46.1596 15.7856H106.31C108.039 15.7856 109.441 17.1873 109.441 18.9164V78.0177C109.441 79.7468 108.039 81.1485 106.31 81.1485H46.1596C44.4305 81.1485 43.0288 79.7468 43.0288 78.0177V18.9164C43.0288 18.0588 43.3737 17.2816 43.9323 16.7162C43.9368 16.7117 43.9413 16.7071 43.9458 16.7026C43.9503 16.6981 43.9548 16.6936 43.9594 16.6892Z" fill="#666666" stroke="black" stroke-width="0.5" stroke-miterlimit="10" stroke-linecap="round" stroke-linejoin="round"/>
<path d="M104.453 13.9287H44.3024C42.5733 13.9287 41.1716 15.3304 41.1716 17.0595V76.1608C41.1716 77.8899 42.5733 79.2916 44.3024 79.2916H104.453C106.182 79.2916 107.584 77.8899 107.584 76.1608V17.0595C107.584 15.3304 106.182 13.9287 104.453 13.9287Z" fill="white" stroke="black" stroke-width="0.5" stroke-linecap="round" stroke-linejoin="round"/>
<path d="M44.3024 13.9287H104.452C104.863 13.9287 105.27 14.0097 105.65 14.167C106.029 14.3244 106.375 14.555 106.665 14.8457C106.956 15.1364 107.187 15.4815 107.344 15.8614C107.501 16.2412 107.582 16.6483 107.582 17.0595V18.8995H41.1716V17.0595C41.1716 16.2292 41.5015 15.4328 42.0886 14.8457C42.6757 14.2586 43.4721 13.9287 44.3024 13.9287Z" fill="#B3B3B3" stroke="black" stroke-width="0.5" stroke-miterlimit="10" stroke-linecap="round" stroke-linejoin="round"/>
<path d="M43.908 17.3547C44.4257 17.3547 44.8454 16.935 44.8454 16.4173C44.8454 15.8996 44.4257 15.48 43.908 15.48C43.3904 15.48 42.9707 15.8996 42.9707 16.4173C42.9707 16.935 43.3904 17.3547 43.908 17.3547Z" fill="white" stroke="black" stroke-width="0.5" stroke-linecap="round" stroke-linejoin="round"/>
<path d="M47.0846 17.3547C47.6022 17.3547 48.0219 16.935 48.0219 16.4173C48.0219 15.8996 47.6022 15.48 47.0846 15.48C46.5669 15.48 46.1472 15.8996 46.1472 16.4173C46.1472 16.935 46.5669 17.3547 47.0846 17.3547Z" fill="white" stroke="black" stroke-width="0.5" stroke-linecap="round" stroke-linejoin="round"/>
<path d="M50.2594 17.3547C50.777 17.3547 51.1967 16.935 51.1967 16.4173C51.1967 15.8996 50.777 15.48 50.2594 15.48C49.7417 15.48 49.322 15.8996 49.322 16.4173C49.322 16.935 49.7417 17.3547 50.2594 17.3547Z" fill="white" stroke="black" stroke-width="0.5" stroke-linecap="round" stroke-linejoin="round"/>
<path d="M70.111 24.1006H49.54C47.9591 24.1006 46.6775 25.3822 46.6775 26.9631V45.7004C46.6775 47.2813 47.9591 48.5629 49.54 48.5629H70.111C71.6919 48.5629 72.9735 47.2813 72.9735 45.7004V26.9631C72.9735 25.3822 71.6919 24.1006 70.111 24.1006Z" fill="white" stroke="black" stroke-width="0.5" stroke-linecap="round" stroke-linejoin="round"/>
<path d="M99.0641 24.1006H78.4931C76.9122 24.1006 75.6306 25.3822 75.6306 26.9631V45.7004C75.6306 47.2813 76.9122 48.5629 78.4931 48.5629H99.0641C100.645 48.5629 101.927 47.2813 101.927 45.7004V26.9631C101.927 25.3822 100.645 24.1006 99.0641 24.1006Z" fill="white" stroke="black" stroke-width="0.5" stroke-linecap="round" stroke-linejoin="round"/>
<path d="M99.7697 50.7124H48.8346C47.6433 50.7124 46.6775 51.6782 46.6775 52.8695V71.7284C46.6775 72.9197 47.6433 73.8855 48.8346 73.8855H99.7697C100.961 73.8855 101.927 72.9197 101.927 71.7284V52.8695C101.927 51.6782 100.961 50.7124 99.7697 50.7124Z" fill="white" stroke="black" stroke-width="0.5" stroke-linecap="round" stroke-linejoin="round"/>
<path d="M59.1958 45.9764C56.6384 45.9735 54.1867 44.9561 52.3786 43.1477C50.5704 41.3392 49.5535 38.8873 49.551 36.33C49.5535 33.7726 50.5704 31.3207 52.3786 29.5123C54.1867 27.7038 56.6384 26.6865 59.1958 26.6836C61.7531 26.6861 64.2051 27.703 66.0135 29.5112C67.822 31.3193 68.8393 33.7711 68.8422 36.3284C68.8397 38.8862 67.8226 41.3385 66.0141 43.1472C64.2057 44.956 61.7535 45.9735 59.1958 45.9764ZM59.1958 30.3541C57.6128 30.3561 56.0952 30.9859 54.9758 32.1053C53.8565 33.2246 53.2267 34.7422 53.2246 36.3252C53.2238 37.91 53.8523 39.4303 54.9721 40.5518C56.0918 41.6733 57.611 42.3042 59.1958 42.3059C60.7789 42.3042 62.2968 41.6746 63.4163 40.5551C64.5357 39.4357 65.1654 37.9179 65.167 36.3347C65.1666 34.7507 64.5375 33.2317 63.4179 32.1112C62.2983 30.9908 60.7797 30.3605 59.1958 30.3588V30.3541Z" fill="#CCCCCC"/>
<path d="M59.1958 45.9764C56.6384 45.9735 54.1867 44.9561 52.3786 43.1477C50.5704 41.3392 49.5535 38.8873 49.551 36.33C49.5535 33.7726 50.5704 31.3207 52.3786 29.5123C54.1867 27.7038 56.6384 26.6865 59.1958 26.6836C60.6121 26.6827 62.0112 26.9944 63.2932 27.5964C64.5752 28.1984 65.7086 29.0759 66.6124 30.1663L63.791 32.5222C63.231 31.8467 62.5288 31.303 61.7345 30.9301C60.9402 30.5573 60.0733 30.3643 59.1958 30.3651C57.6128 30.3672 56.0952 30.997 54.9758 32.1163C53.8565 33.2357 53.2267 34.7533 53.2246 36.3363C53.2267 37.9192 53.8565 39.4366 54.9759 40.5557C56.0953 41.6748 57.6129 42.3042 59.1958 42.3059C60.7789 42.3042 62.2968 41.6746 63.4163 40.5551C64.5357 39.4357 65.1654 37.9179 65.167 36.3347H68.8422C68.8381 38.8914 67.8202 41.3421 66.0119 43.1495C64.2036 44.9569 61.7524 45.9735 59.1958 45.9764Z" fill="#808080"/>
<path d="M59.1958 45.9764C56.6384 45.9735 54.1867 44.9562 52.3786 43.1477C50.5704 41.3393 49.5535 38.8874 49.551 36.33C49.5535 33.7727 50.5704 31.3208 52.3786 29.5123C54.1867 27.7039 56.6384 26.6866 59.1958 26.6836C61.2948 26.6768 63.3378 27.3611 65.0092 28.6309L62.7921 31.5613C61.7579 30.7762 60.4942 30.3531 59.1958 30.3573C57.6128 30.3594 56.0952 30.9891 54.9758 32.1085C53.8565 33.2279 53.2267 34.7454 53.2246 36.3285C53.2246 37.9127 53.8535 39.4321 54.9731 40.553C56.0928 41.6738 57.6115 42.3043 59.1958 42.306C60.7789 42.3043 62.2968 41.6747 63.4163 40.5552C64.5357 39.4357 65.1654 37.9179 65.167 36.3348H68.8422C68.8381 38.8914 67.8202 41.3421 66.0119 43.1495C64.2036 44.9569 61.7524 45.9735 59.1958 45.9764Z" fill="#4C4C4C"/>
<path d="M59.1958 45.9764C56.6384 45.9735 54.1867 44.9561 52.3786 43.1477C50.5704 41.3392 49.5535 38.8873 49.551 36.33C49.5535 33.7726 50.5704 31.3207 52.3786 29.5123C54.1867 27.7038 56.6384 26.6865 59.1958 26.6836C59.9211 26.683 60.6442 26.764 61.3514 26.925L60.5339 30.5071C60.0952 30.4046 59.6463 30.3517 59.1958 30.3493C57.6128 30.3514 56.0952 30.9812 54.9758 32.1006C53.8565 33.2199 53.2267 34.7375 53.2246 36.3205C53.2236 37.1056 53.3772 37.8832 53.6767 38.609C53.9763 39.3347 54.4159 39.9943 54.9704 40.5501C55.5249 41.1059 56.1834 41.5471 56.9084 41.8483C57.6334 42.1496 58.4107 42.3051 59.1958 42.3059C60.7789 42.3042 62.2968 41.6746 63.4163 40.5551C64.5357 39.4357 65.1654 37.9179 65.167 36.3347H68.8422C68.8381 38.8914 67.8202 41.3421 66.0119 43.1495C64.2036 44.9569 61.7524 45.9735 59.1958 45.9764Z" fill="#999999"/>
<path d="M59.1958 45.9768C56.6384 45.9739 54.1867 44.9565 52.3786 43.1481C50.5704 41.3396 49.5535 38.8877 49.551 36.3304C49.5502 34.5882 50.0214 32.8784 50.9148 31.3826C51.8081 29.8869 53.09 28.6613 54.6243 27.8359L56.3601 31.0709C55.4096 31.5814 54.6152 32.3401 54.0617 33.2663C53.5082 34.1925 53.2162 35.2514 53.2167 36.3304C53.217 37.1154 53.3718 37.8926 53.6724 38.6178C53.9729 39.3429 54.4134 40.0017 54.9686 40.5567C55.5238 41.1116 56.1829 41.5517 56.9082 41.8519C57.6335 42.1521 58.4108 42.3065 59.1958 42.3063C60.7789 42.3046 62.2968 41.675 63.4163 40.5555C64.5357 39.4361 65.1654 37.9183 65.167 36.3351H68.8422C68.8381 38.8918 67.8202 41.3425 66.0119 43.1499C64.2036 44.9572 61.7524 45.9739 59.1958 45.9768Z" fill="#CCCCCC"/>
<path d="M59.1956 45.9766C56.8463 45.9749 54.5783 45.1165 52.8165 43.5624C51.0546 42.0082 49.9199 39.865 49.625 37.5343L53.2718 37.0798C53.4538 38.5227 54.156 39.8496 55.2466 40.8118C56.3372 41.774 57.7413 42.3053 59.1956 42.3062C60.7788 42.3045 62.2967 41.6748 63.4161 40.5554C64.5356 39.4359 65.1652 37.9181 65.1669 36.335H68.8421C68.8379 38.8916 67.82 41.3423 66.0118 43.1497C64.2035 44.9571 61.7523 45.9737 59.1956 45.9766Z" fill="#666666"/>
<path d="M88.2833 45.9764C85.7259 45.9735 83.2739 44.9562 81.4655 43.1478C79.6571 41.3394 78.6399 38.8875 78.637 36.33C78.6395 33.7724 79.6566 31.3202 81.4651 29.5117C83.2736 27.7032 85.7257 26.6861 88.2833 26.6836C90.8401 26.6874 93.2911 27.705 95.0985 29.5134C96.906 31.3218 97.9225 33.7732 97.925 36.33C97.9225 38.8868 96.906 41.3382 95.0985 43.1466C93.2911 44.9549 90.8401 45.9726 88.2833 45.9764ZM88.2833 30.3541C86.7002 30.3557 85.1824 30.9854 84.0629 32.1048C82.9435 33.2243 82.3138 34.7421 82.3122 36.3252C82.3113 37.91 82.9399 39.4303 84.0596 40.5518C85.1793 41.6733 86.6985 42.3042 88.2833 42.3059C89.8665 42.3042 91.3843 41.6746 92.5038 40.5551C93.6232 39.4357 94.2529 37.9179 94.2546 36.3347C94.2538 34.7509 93.6245 33.2321 92.505 32.1117C91.3855 30.9913 89.8672 30.3609 88.2833 30.3588V30.3541Z" fill="#666666"/>
<path d="M97.9248 36.3304H94.2513C94.2475 35.2004 93.9251 34.0945 93.321 33.1396C92.717 32.1846 91.8558 31.4195 90.8364 30.932L92.4144 27.6182C94.0388 28.3868 95.4166 29.5935 96.3926 31.1024C97.3969 32.6608 97.929 34.4764 97.9248 36.3304Z" fill="#999999"/>
<path d="M54.9509 64.1235C55.1389 64.1235 55.3191 64.1982 55.4519 64.3311C55.5848 64.4639 55.6595 64.6441 55.6595 64.8321V71.526H54.2393V64.8321C54.2393 64.6441 54.3139 64.4639 54.4468 64.3311C54.5797 64.1982 54.7599 64.1235 54.9478 64.1235H54.9509Z" fill="#666666"/>
<path d="M57.0308 64.1235C57.2187 64.1235 57.3989 64.1982 57.5318 64.3311C57.6647 64.4639 57.7393 64.6442 57.7393 64.8321V71.526H56.3191V64.8321C56.3191 64.7388 56.3375 64.6464 56.3733 64.5602C56.4091 64.474 56.4616 64.3958 56.5277 64.3299C56.5939 64.2641 56.6723 64.212 56.7587 64.1766C56.845 64.1411 56.9375 64.1231 57.0308 64.1235Z" fill="#999999"/>
<path d="M61.0562 59C61.2441 59 61.4243 59.0746 61.5572 59.2075C61.69 59.3404 61.7647 59.5206 61.7647 59.7085V71.5263H60.3445V59.7085C60.3445 59.5206 60.4191 59.3404 60.552 59.2075C60.6849 59.0746 60.8651 59 61.053 59H61.0562Z" fill="#666666"/>
<path d="M63.1438 62.1543C63.2369 62.1543 63.329 62.1726 63.415 62.2082C63.5009 62.2438 63.579 62.296 63.6448 62.3618C63.7106 62.4276 63.7628 62.5057 63.7984 62.5917C63.834 62.6776 63.8523 62.7698 63.8523 62.8628V71.5261H62.4321V62.8628C62.4321 62.6749 62.5068 62.4947 62.6397 62.3618C62.7725 62.2289 62.9527 62.1543 63.1407 62.1543H63.1438Z" fill="#999999"/>
<path d="M67.1694 56.4356C67.2625 56.4356 67.3546 56.4539 67.4406 56.4895C67.5265 56.5251 67.6047 56.5773 67.6704 56.6431C67.7362 56.7089 67.7884 56.787 67.824 56.8729C67.8596 56.9589 67.878 57.051 67.878 57.1441V71.5261H66.4578V57.1441C66.4578 57.0508 66.4762 56.9584 66.512 56.8722C66.5478 56.786 66.6003 56.7078 66.6664 56.642C66.7325 56.5761 66.811 56.524 66.8973 56.4886C66.9837 56.4532 67.0761 56.4351 67.1694 56.4356Z" fill="#666666"/>
<path d="M69.2571 54.8779C69.445 54.8779 69.6252 54.9526 69.7581 55.0855C69.891 55.2183 69.9656 55.3985 69.9656 55.5865V71.5244H68.5454V55.5865C68.5454 55.4932 68.5638 55.4008 68.5996 55.3146C68.6354 55.2284 68.6879 55.1502 68.7541 55.0843C68.8202 55.0185 68.8987 54.9664 68.985 54.931C69.0713 54.8955 69.1638 54.8775 69.2571 54.8779Z" fill="#999999"/>
<path d="M73.2827 68.6749C73.4706 68.6749 73.6509 68.7496 73.7837 68.8824C73.9166 69.0153 73.9913 69.1955 73.9913 69.3834V71.5264H72.571V69.3819C72.571 69.194 72.6457 69.0137 72.7786 68.8809C72.9114 68.748 73.0917 68.6733 73.2796 68.6733L73.2827 68.6749Z" fill="#666666"/>
<path d="M75.3704 65.4351C75.5583 65.4351 75.7385 65.5097 75.8714 65.6426C76.0043 65.7755 76.0789 65.9557 76.0789 66.1436V71.5262H74.6587V66.1436C74.6587 66.0503 74.6771 65.9579 74.7129 65.8717C74.7487 65.7856 74.8012 65.7073 74.8673 65.6415C74.9335 65.5756 75.0119 65.5235 75.0983 65.4881C75.1846 65.4527 75.2771 65.4346 75.3704 65.4351Z" fill="#999999"/>
<path d="M79.3958 59.7998C79.5837 59.7998 79.7639 59.8745 79.8968 60.0073C80.0296 60.1402 80.1043 60.3204 80.1043 60.5083V71.526H78.6841V60.5083C78.6841 60.415 78.7025 60.3226 78.7383 60.2365C78.7741 60.1503 78.8266 60.072 78.8927 60.0062C78.9589 59.9404 79.0373 59.8883 79.1237 59.8528C79.21 59.8174 79.3025 59.7994 79.3958 59.7998Z" fill="#666666"/>
<path d="M81.4837 62.3657C81.6716 62.3657 81.8518 62.4404 81.9847 62.5732C82.1175 62.7061 82.1922 62.8863 82.1922 63.0743V71.5261H80.772V63.0727C80.7722 62.9795 80.7908 62.8873 80.8267 62.8013C80.8626 62.7153 80.9151 62.6372 80.9812 62.5716C81.0473 62.5059 81.1257 62.4539 81.2119 62.4186C81.2981 62.3833 81.3905 62.3653 81.4837 62.3657Z" fill="#999999"/>
<path d="M85.509 67.3286C85.697 67.3286 85.8772 67.4033 86.0101 67.5361C86.1429 67.669 86.2176 67.8492 86.2176 68.0371V71.5261H84.7974V68.0371C84.7974 67.8492 84.872 67.669 85.0049 67.5361C85.1378 67.4033 85.318 67.3286 85.5059 67.3286H85.509Z" fill="#666666"/>
<path d="M87.5969 56.9815C87.7849 56.9815 87.9651 57.0561 88.0979 57.189C88.2308 57.3219 88.3055 57.5021 88.3055 57.69V71.526H86.8853V57.69C86.8853 57.5967 86.9037 57.5043 86.9395 57.4181C86.9753 57.3319 87.0278 57.2537 87.0939 57.1879C87.16 57.122 87.2385 57.0699 87.3248 57.0345C87.4112 56.9991 87.5036 56.981 87.5969 56.9815Z" fill="#999999"/>
<path d="M91.6223 65.6621C91.8102 65.6621 91.9905 65.7368 92.1233 65.8696C92.2562 66.0025 92.3309 66.1827 92.3309 66.3706V71.526H90.9106V66.3706C90.9106 66.1827 90.9853 66.0025 91.1182 65.8696C91.251 65.7368 91.4313 65.6621 91.6192 65.6621H91.6223Z" fill="#666666"/>
<path d="M93.7099 66.9453C93.8033 66.9455 93.8958 66.9642 93.982 67.0003C94.0682 67.0364 94.1464 67.0892 94.2121 67.1556C94.2778 67.2221 94.3297 67.3009 94.3649 67.3875C94.4 67.474 94.4177 67.5667 94.4168 67.6602V71.5263H92.9966V67.6602C92.9958 67.5662 93.0136 67.473 93.0492 67.386C93.0847 67.299 93.1372 67.2199 93.2036 67.1534C93.2699 67.0869 93.3489 67.0342 93.4358 66.9985C93.5227 66.9628 93.6159 66.9447 93.7099 66.9453Z" fill="#999999"/>
<path d="M97.7356 68.8848C97.9235 68.8848 98.1037 68.9594 98.2366 69.0923C98.3695 69.2252 98.4441 69.4054 98.4441 69.5933V71.5264H97.0239V69.5933C97.0239 69.5 97.0424 69.4076 97.0782 69.3214C97.114 69.2353 97.1664 69.157 97.2326 69.0912C97.2987 69.0253 97.3772 68.9732 97.4635 68.9378C97.5498 68.9024 97.6423 68.8844 97.7356 68.8848Z" fill="#666666"/>
<path d="M99.8233 70.0996C100.011 70.0996 100.191 70.1743 100.324 70.3071C100.457 70.44 100.532 70.6202 100.532 70.8081V71.5261H99.1116V70.816C99.1116 70.6281 99.1862 70.4479 99.3191 70.315C99.452 70.1822 99.6322 70.1075 99.8201 70.1075L99.8233 70.0996Z" fill="#999999"/>
<path d="M48.7825 68.8848C48.9704 68.8848 49.1506 68.9594 49.2835 69.0923C49.4164 69.2252 49.491 69.4054 49.491 69.5933V71.5264H48.0708V69.5933C48.0708 69.4054 48.1454 69.2252 48.2783 69.0923C48.4112 68.9594 48.5914 68.8848 48.7793 68.8848H48.7825Z" fill="#666666"/>
<path d="M50.8702 70.0996C51.0581 70.0996 51.2383 70.1743 51.3712 70.3071C51.5041 70.44 51.5787 70.6202 51.5787 70.8081V71.5261H50.1585V70.816C50.1574 70.7221 50.1751 70.6288 50.2104 70.5417C50.2458 70.4547 50.2981 70.3755 50.3643 70.3088C50.4305 70.2421 50.5094 70.1893 50.5962 70.1534C50.6831 70.1175 50.7762 70.0992 50.8702 70.0996Z" fill="#999999"/>
<path d="M16.7452 57.0539C17.3081 56.5119 18.0733 56.1787 18.9164 56.1787H54.428C56.1571 56.1787 57.5588 57.5804 57.5588 59.3095V101.924C57.5588 103.653 56.1571 105.054 54.428 105.054H18.9164C17.1873 105.054 15.7856 103.653 15.7856 101.924V59.3095C15.7856 58.466 16.1192 57.7004 16.6616 57.1375C16.6751 57.1234 16.6888 57.1095 16.7026 57.0957C16.7167 57.0816 16.7309 57.0677 16.7452 57.0539Z" fill="#333333" stroke="black" stroke-width="0.5" stroke-miterlimit="10" stroke-linecap="round" stroke-linejoin="round"/>
<path d="M52.5708 54.3218H17.0592C15.3302 54.3218 13.9285 55.7235 13.9285 57.4526V100.067C13.9285 101.796 15.3302 103.198 17.0592 103.198H52.5708C54.2999 103.198 55.7016 101.796 55.7016 100.067V57.4526C55.7016 55.7235 54.2999 54.3218 52.5708 54.3218Z" fill="white" stroke="black" stroke-width="0.5" stroke-linecap="round" stroke-linejoin="round"/>
<path d="M17.0592 54.3218H52.5645C53.3949 54.3218 54.1912 54.6516 54.7783 55.2388C55.3655 55.8259 55.6953 56.6222 55.6953 57.4526V59.2988H13.9285V57.4526C13.9285 56.6222 14.2583 55.8259 14.8455 55.2388C15.4326 54.6516 16.2289 54.3218 17.0592 54.3218Z" fill="#B3B3B3" stroke="black" stroke-width="0.5" stroke-miterlimit="10" stroke-linecap="round" stroke-linejoin="round"/>
<path d="M26.9486 84.3813H23.032V95.8787H26.9486V84.3813Z" fill="#CCCCCC" stroke="black" stroke-width="0.5" stroke-miterlimit="10" stroke-linecap="round" stroke-linejoin="round"/>
<path d="M33.2245 77.5581H29.3079V95.8788H33.2245V77.5581Z" fill="#CCCCCC" stroke="black" stroke-width="0.5" stroke-miterlimit="10" stroke-linecap="round" stroke-linejoin="round"/>
<path d="M39.8788 73.853H35.9622V95.8805H39.8788V73.853Z" fill="#999999" stroke="black" stroke-width="0.5" stroke-miterlimit="10" stroke-linecap="round" stroke-linejoin="round"/>
<path d="M46.5333 69.8081H42.6167V95.8785H46.5333V69.8081Z" fill="#4C4C4C" stroke="black" stroke-width="0.5" stroke-linecap="round" stroke-linejoin="round"/>
<path d="M21.896 77.5581C21.896 77.5581 28.4652 76.758 34.8246 72.3774C41.184 67.9969 45.1859 62.144 45.1859 62.144L40.3429 63.913" stroke="black" stroke-width="0.5" stroke-linecap="round" stroke-linejoin="round"/>
<path d="M45.5219 67.2394L45.1858 62.144" stroke="black" stroke-width="0.5" stroke-linecap="round" stroke-linejoin="round"/>
<path d="M18.5962 95.8789H49.4811" stroke="black" stroke-width="0.5" stroke-linecap="round" stroke-linejoin="round"/>
<path d="M16.6646 57.7477C17.1823 57.7477 17.602 57.3281 17.602 56.8104C17.602 56.2927 17.1823 55.873 16.6646 55.873C16.147 55.873 15.7273 56.2927 15.7273 56.8104C15.7273 57.3281 16.147 57.7477 16.6646 57.7477Z" fill="white" stroke="black" stroke-width="0.5" stroke-linecap="round" stroke-linejoin="round"/>
<path d="M19.8397 57.7477C20.3574 57.7477 20.777 57.3281 20.777 56.8104C20.777 56.2927 20.3574 55.873 19.8397 55.873C19.322 55.873 18.9023 56.2927 18.9023 56.8104C18.9023 57.3281 19.322 57.7477 19.8397 57.7477Z" fill="white" stroke="black" stroke-width="0.5" stroke-linecap="round" stroke-linejoin="round"/>
<path d="M23.0162 57.7477C23.5339 57.7477 23.9535 57.3281 23.9535 56.8104C23.9535 56.2927 23.5339 55.873 23.0162 55.873C22.4985 55.873 22.0789 56.2927 22.0789 56.8104C22.0789 57.3281 22.4985 57.7477 23.0162 57.7477Z" fill="white" stroke="black" stroke-width="0.5" stroke-linecap="round" stroke-linejoin="round"/>
<path d="M57.6643 81.2498V101.911C57.6643 103.721 56.225 105.161 54.4607 105.021H18.9428C17.55 105.021 16.3893 104.139 15.925 102.932C14.7178 102.468 13.8357 101.307 13.8357 99.9141V56.9212C13.8357 56.8748 13.8473 56.8284 13.8589 56.782C13.8705 56.7355 13.8821 56.6891 13.8821 56.6427C14.0214 56.0391 14.3 55.482 14.7643 55.0177C15.2286 54.5534 15.7857 54.2748 16.3893 54.1355C16.4357 54.1355 16.4821 54.1239 16.5286 54.1123C16.575 54.1007 16.6214 54.0891 16.6678 54.0891H41.0893V16.5748C41.1821 15.8784 41.5071 15.182 42.0178 14.6712C42.4821 14.207 43.0393 13.9284 43.6428 13.7891C43.6893 13.7891 43.7357 13.7775 43.7821 13.7659C43.8286 13.7543 43.875 13.7427 43.9214 13.7427H104.836C104.929 13.7891 104.975 13.7891 105.021 13.7891H105.161C105.207 13.7891 105.242 13.8007 105.277 13.8123C105.312 13.8239 105.346 13.8355 105.393 13.8355C105.42 13.8622 105.431 13.8736 105.445 13.8784C105.455 13.882 105.466 13.882 105.486 13.882C105.532 13.9052 105.567 13.9168 105.602 13.9284C105.637 13.94 105.671 13.9516 105.718 13.9748H105.764C105.787 13.998 105.822 14.0096 105.857 14.0212C105.892 14.0329 105.927 14.0445 105.95 14.0677C105.973 14.0677 105.985 14.0793 105.996 14.0909C106.008 14.1025 106.02 14.1141 106.043 14.1141C106.066 14.1373 106.089 14.1489 106.112 14.1605C106.136 14.1721 106.159 14.1837 106.182 14.207C106.205 14.2302 106.229 14.2418 106.252 14.2534C106.275 14.265 106.298 14.2766 106.321 14.2998C106.321 14.3462 106.368 14.3462 106.368 14.3462C106.554 14.4391 106.693 14.5784 106.832 14.7177C106.879 14.7873 106.937 14.857 106.995 14.9266C107.053 14.9962 107.111 15.0659 107.157 15.1355C107.157 15.1587 107.169 15.1704 107.18 15.182C107.192 15.1936 107.204 15.2052 107.204 15.2284C107.204 15.2284 107.25 15.2748 107.25 15.3212C107.268 15.3567 107.279 15.3854 107.288 15.4099C107.303 15.4496 107.314 15.4783 107.343 15.507V15.5534C107.366 15.5998 107.389 15.6579 107.412 15.7159C107.436 15.7739 107.459 15.832 107.482 15.8784C108.689 16.3427 109.571 17.5034 109.571 18.8962V77.9998C109.571 79.8105 108.132 81.2498 106.321 81.2498H57.6643Z" fill="url(#paint0_linear_1754_47101)" style="mix-blend-mode:overlay"/>
<path d="M180.932 65.3248C181.443 66.3927 182.557 67.182 183.857 67.182H228.8C230.611 67.182 232.05 65.7427 232.05 63.932V32.4998C232.05 31.1998 231.307 30.0855 230.193 29.5748C229.682 28.507 228.568 27.7177 227.268 27.7177H182.325C180.514 27.7177 179.075 29.1569 179.075 30.9677V62.3998C179.121 63.6998 179.864 64.8141 180.932 65.3248Z" fill="url(#paint1_linear_1754_47101)" style="mix-blend-mode:overlay"/>
<path fill-rule="evenodd" clip-rule="evenodd" d="M232.539 184.766L232.537 184.766C231.921 184.581 227.34 183.211 223.043 184.6C222.526 184.784 221.892 184.94 221.187 185.112C221.006 185.157 220.819 185.202 220.629 185.25C215.243 186.55 207.071 188.546 208.696 199.132C208.418 199.411 206.7 201.128 205.632 203.45C205.632 202.62 205.621 201.778 205.609 200.931V200.922C205.597 200.066 205.586 199.205 205.586 198.343C206.421 193.421 207.35 189.103 207.443 188.686C208.279 187.711 210.229 186.503 212.457 185.157C216.032 183.021 220.489 180.328 223.182 176.8C227.28 171.395 225.443 164.598 225.203 163.71C225.187 163.653 225.179 163.62 225.179 163.614C225.179 163.585 225.161 163.574 225.136 163.559C225.121 163.55 225.103 163.539 225.086 163.521C224.993 163.475 215.754 160.55 208.743 169.418C206.329 172.436 205.4 175.639 205.214 178.518C205.214 176.614 205.261 174.571 205.307 172.528C206.33 169.337 208.002 166.542 208.448 165.796C208.508 165.696 208.546 165.633 208.557 165.611C209.3 164.589 212.875 160.132 218.493 160.318C223.275 160.503 226.154 162.361 227.546 163.289C228.104 163.661 228.382 163.846 228.568 163.8C228.754 163.753 228.893 163.568 228.986 163.243C229.357 162.082 229.171 159.528 227.036 157.161C223.971 153.818 220.257 154.793 218.354 155.675C216.032 156.743 213.85 158.6 213.85 158.6L207.304 163.336C207.301 163.338 207.295 163.343 207.285 163.35L207.273 163.359L207.258 163.37C207.002 163.552 205.81 164.404 206.189 165.332C206.421 165.843 206.886 165.982 207.35 165.982C207.629 165.982 207.861 165.936 208.046 165.889C207.489 166.818 206.236 169.093 205.261 171.693C205.354 168.164 205.493 164.543 205.679 161.2C205.957 159.946 206.329 158.878 206.561 158.275C206.561 158.321 206.607 158.321 206.654 158.321H206.7C206.793 158.321 214.175 155.953 219.793 147.411C225.55 138.728 224.668 132.693 222.811 130.882C222.811 130.882 222.764 130.882 222.764 130.836C222.76 130.836 222.743 130.832 222.714 130.825C222.033 130.663 214.684 128.922 207.164 138.311C206.004 139.75 205.214 141.189 204.611 142.582L204.657 140.353C204.796 140.353 204.889 140.168 205.354 139.1L205.387 139.026C206.991 135.536 211.123 126.54 219.375 123.128C219.421 123.128 219.468 123.036 219.421 122.989C219.375 122.943 219.329 122.896 219.282 122.896C219.189 122.896 211.296 124.521 207.396 128.886C205.354 131.207 204.286 133.343 203.868 135.246C203.45 133.25 202.8 131.346 201.825 129.628C196.764 120.668 189.011 120.389 188.454 120.389H188.407C188.361 120.389 188.314 120.436 188.314 120.482C188.314 120.487 188.309 120.512 188.301 120.557C188.131 121.432 186.515 129.761 191.239 138.636C191.312 138.767 191.381 138.895 191.448 139.019C191.593 139.288 191.73 139.542 191.889 139.796C191.936 139.866 191.982 139.947 192.029 140.028C192.047 140.062 192.066 140.095 192.085 140.127C192.092 140.138 192.098 140.149 192.105 140.16C192.126 140.195 192.147 140.229 192.168 140.261C194.443 144.161 196.904 147.364 198.854 149.686L198.9 149.732C198.993 149.848 199.086 149.953 199.179 150.057C199.271 150.161 199.364 150.266 199.457 150.382C200.917 152.004 202.023 153.095 202.496 153.562L202.552 153.617L202.622 153.686L202.661 153.725C202.754 154.189 203.404 158.553 203.868 162.221C203.729 164.914 203.636 167.746 203.543 170.578C202.893 167.468 202.057 165.332 201.732 164.682C201.755 164.682 201.767 164.682 201.773 164.676C201.775 164.674 201.776 164.672 201.777 164.669C201.779 164.662 201.779 164.651 201.779 164.636C201.825 164.589 205.307 158.786 197.693 152.611C193.514 149.221 189.15 148.2 186.039 147.968C186.829 147.225 187.432 146.436 187.896 145.739C189.986 142.582 190.543 136.686 185.064 131.486C184.767 131.204 184.466 130.922 184.163 130.639C179.974 126.714 175.463 122.488 176.243 114.911L176.306 114.297C177.121 106.334 177.836 99.3595 169.325 94.0177C164.079 90.7213 160.689 91.4641 159.204 92.1606H159.111L158.275 92.7177C157.811 92.6713 154.421 92.532 152.75 95.3641C151.45 97.5927 151.729 99.7748 152.146 101.771C150.243 102.143 148.432 103.814 147.736 106.182C147.225 107.9 147.364 109.711 148.107 111.103C148.293 111.428 148.479 111.707 148.664 111.939C148.618 112.45 148.618 112.914 148.664 113.425C147.969 113.935 147.238 114.376 146.537 114.799C145.834 115.223 145.159 115.63 144.579 116.071C141.654 118.253 140.261 121.782 139.843 125.775L138.868 125.868C136.129 126.146 133.482 127.121 131.254 128.793C129.025 130.464 127.307 132.693 126.239 135.246L120.714 149.175L120.529 149.128L92.0214 142.211C91.975 142.211 91.9286 142.211 91.9286 142.257C91.9286 142.303 91.8821 142.35 91.8821 142.35L94.4821 150.521L94.2036 150.8C94.0178 151.078 93.9714 151.403 94.0178 151.682L94.8071 158.553C94.8071 159.203 94.9 159.9 95.0393 160.643C95.5036 162.964 96.85 165.611 98.1964 165.796H98.3357C98.6143 165.796 98.9393 165.657 99.3107 165.425C99.3107 165.425 99.3571 165.425 99.3571 165.471L102.096 166.121C103.3 166.769 104.516 167.441 105.731 168.112L105.738 168.116L105.744 168.119L105.751 168.123C106.966 168.795 108.182 169.466 109.386 170.114C109.014 170.532 108.736 170.903 108.504 171.321C108.504 171.321 108.457 171.321 108.457 171.368L108.086 172.111L85.7071 218.4C85.6607 218.446 85.7071 218.539 85.7536 218.539L89.1428 220.582L81.7607 235.625L79.4393 235.253C78.6964 235.161 77.9536 235.3 77.35 235.718L76.8393 236.089C75.8178 236.786 74.6107 237.296 73.3571 237.482L72.9857 237.064C72.8464 236.925 72.7071 236.832 72.5214 236.739C72.3357 236.693 72.15 236.646 71.9643 236.693L68.0178 237.296C67.9168 237.296 67.8403 237.345 67.7704 237.39C67.7439 237.407 67.7184 237.423 67.6928 237.436C67.6 237.528 67.5536 237.621 67.5071 237.761C67.4607 237.853 67.4607 237.993 67.5071 238.086L58.5 239.014C57.1536 239.153 55.8536 239.711 54.8321 240.593C53.8107 241.475 53.0678 242.636 52.6964 243.936V244.028C52.6964 244.075 52.7428 244.075 52.7893 244.075L78.0464 248.021H78.0928L82.4107 246.768L81.8536 248.486V248.578C81.8536 248.625 81.9 248.625 81.9464 248.625L93.1821 250.389C93.2019 250.389 93.2132 250.389 93.2233 250.386C93.2369 250.381 93.2483 250.369 93.275 250.343C93.3017 250.316 93.313 250.305 93.3179 250.291C93.3214 250.281 93.3214 250.27 93.3214 250.25L91.9286 239.711C91.9286 239.687 91.9286 239.676 91.9228 239.67C91.917 239.664 91.9055 239.664 91.8821 239.664L99.9607 227.082L102.561 228.614H102.654C102.677 228.614 102.688 228.603 102.7 228.591C102.706 228.585 102.712 228.579 102.72 228.574C102.722 228.573 102.723 228.573 102.725 228.572C102.727 228.571 102.729 228.57 102.732 228.57C102.736 228.568 102.741 228.568 102.746 228.568L113.332 210.089C114.818 211.528 116.814 212.411 119.043 212.411V249.832C119.043 249.878 119.089 249.925 119.136 249.925H121.318C120.854 250.714 120.575 251.55 120.482 252.478C120.482 252.498 120.482 252.509 120.486 252.52C120.491 252.533 120.502 252.545 120.529 252.571C120.529 252.618 120.575 252.618 120.621 252.618H146.25L150.289 250.714L150.011 252.525C150.011 252.534 150.011 252.541 150.011 252.547C150.011 252.554 150.012 252.56 150.014 252.566C150.019 252.58 150.03 252.591 150.057 252.617L150.057 252.618C150.057 252.664 150.104 252.664 150.15 252.664H161.525C161.571 252.664 161.618 252.664 161.618 252.618C161.618 252.593 161.631 252.581 161.636 252.569C161.639 252.562 161.64 252.555 161.635 252.546C161.632 252.54 161.626 252.533 161.618 252.525L160.875 249.971H178.286C178.332 249.971 178.379 249.925 178.379 249.878V212.457C182.882 212.457 186.55 208.789 186.55 204.286C186.55 199.782 182.882 196.114 178.379 196.114H168.396C170.3 193.886 171.461 190.961 171.971 187.293C172.436 183.625 171.971 179.678 171.182 176.243C176.75 171.595 178.806 160.473 179.068 159.054L179.075 159.018L179.586 159.203C181.954 162.407 185.529 166.678 190.45 170.625C190.143 170.489 189.837 170.377 189.549 170.273C189.444 170.235 189.342 170.198 189.243 170.161C185.061 168.268 180.296 169.129 179.772 169.224C179.743 169.229 179.727 169.232 179.725 169.232C179.713 169.232 179.704 169.235 179.697 169.24C179.692 169.242 179.689 169.246 179.685 169.249L179.681 169.253L179.679 169.255C179.673 169.26 179.668 169.266 179.662 169.27C179.658 169.272 179.654 169.274 179.649 169.276C179.647 169.277 179.645 169.277 179.643 169.277C179.64 169.278 179.636 169.278 179.632 169.278V169.371C179.679 169.418 184.832 173.689 187.989 176.15C188.871 176.846 189.986 177.821 191.286 178.982C194.675 182 198.9 185.761 201.593 186.271L203.636 189.568C203.636 189.986 203.636 190.357 203.682 190.775C201.639 187.664 197.275 185.343 190.729 183.903C190.682 183.903 190.636 183.903 190.636 183.95C190.636 183.955 190.617 183.983 190.585 184.031C190.351 184.38 189.382 185.826 189.382 187.989C189.382 189.428 189.846 191.193 191.286 193.143C194.582 197.6 200.943 200.2 202.8 200.896C202.853 200.914 202.899 200.932 202.939 200.947L202.939 200.947C203.003 200.971 203.05 200.989 203.079 200.989L203.914 202.986C203.914 205.075 203.914 207.071 203.868 209.021H190.914C190.868 209.021 190.821 209.068 190.821 209.114C190.821 211.575 191.193 214.036 191.843 216.357H190.914V249.507H191.982V240.128C193.7 241.382 198.529 242.264 204.471 242.311V249.507H205.539V242.357C211.482 242.311 216.357 241.428 218.029 240.175V249.553H219.096V216.403H218.261C218.911 214.128 219.236 211.807 219.236 209.439V209.161C219.236 209.114 219.189 209.068 219.143 209.068H206.143C206.239 209.004 206.357 208.896 206.572 208.699C206.67 208.609 206.787 208.502 206.932 208.371C209.161 206.328 215.057 200.989 222.254 200.989H222.486C222.532 200.989 222.579 200.943 222.579 200.896C222.579 200.85 222.532 200.803 222.486 200.757C222.483 200.757 222.463 200.753 222.427 200.746C221.771 200.625 215.805 199.516 211.714 201.407C207.118 203.543 205.679 206.607 205.864 208.789L205.725 209.068H205.539C205.586 207.443 205.586 205.726 205.586 204.009V204.007C206.671 201.383 208.682 199.421 208.828 199.279L208.836 199.271C208.842 199.267 208.861 199.251 208.894 199.225L208.939 199.188C210.232 198.141 223.198 187.636 232.561 185.018C232.607 185.018 232.654 184.971 232.654 184.925C232.654 184.878 232.654 184.832 232.607 184.786C232.604 184.786 232.581 184.779 232.54 184.766L232.539 184.766L232.539 184.766ZM218.075 238.271C216.357 237.018 211.529 236.136 205.586 236.089V230.518C207.861 230.425 209.996 229.496 211.621 227.871C213.479 226.014 215.057 223.925 216.264 221.603C217.054 221.325 217.657 221.046 218.075 220.768V238.271ZM191.982 220.768C192.446 221.093 193.143 221.418 193.979 221.696C195.232 224.018 196.857 226.107 198.807 227.964L198.854 228.011C200.386 229.496 202.382 230.332 204.471 230.518V236.089C198.529 236.136 193.654 237.018 191.982 238.271V220.768ZM205.307 188.778L205.168 183.068C205.168 182.748 205.157 182.418 205.145 182.081C205.133 181.733 205.121 181.379 205.121 181.025C205.4 185.157 206.932 188.268 207.164 188.639C207.071 189.057 206.282 192.678 205.493 197.089L205.49 196.95C205.445 194.255 205.398 191.517 205.307 188.778ZM205.864 157.253C205.966 157.416 206.059 157.561 206.143 157.692C206.25 157.86 206.343 158.005 206.421 158.136C206.402 158.192 206.381 158.255 206.357 158.324C206.323 158.423 206.284 158.534 206.241 158.655C206.096 159.064 205.911 159.59 205.725 160.178C205.771 159.157 205.818 158.182 205.864 157.253ZM202.986 153.911C203.032 153.818 203.311 152.75 203.636 151.032C203.821 152.1 204.054 153.075 204.379 153.957C204.289 155.275 204.218 156.748 204.142 158.338C204.1 159.212 204.057 160.122 204.007 161.061C203.604 157.923 203.114 154.743 202.997 153.983L202.986 153.911ZM203.496 178.611L202.661 177.914C202.893 177.078 204.843 168.35 197.275 165.611C194.211 164.496 192.214 162.5 190.171 160.411C188.036 158.228 185.807 156.046 182.279 154.886L182.743 151.125C183.764 153.028 185.993 155.721 190.868 158.6C192.539 159.621 193.979 160.457 195.186 161.153C195.65 161.432 196.068 161.664 196.485 161.896L196.486 161.896L197.182 162.314C197.19 162.32 197.199 162.325 197.207 162.331C197.226 162.343 197.245 162.355 197.265 162.367C197.313 162.396 197.364 162.424 197.414 162.453C197.495 162.5 197.577 162.546 197.646 162.593C198.001 162.799 198.317 162.968 198.608 163.124C198.775 163.213 198.934 163.297 199.086 163.382C199.113 163.396 199.136 163.409 199.156 163.421L199.174 163.433C199.194 163.445 199.211 163.455 199.226 163.463C199.236 163.467 199.244 163.47 199.253 163.473C199.259 163.474 199.265 163.475 199.271 163.475C199.504 163.614 199.689 163.707 199.921 163.8C199.945 163.823 199.968 163.835 199.991 163.846C200.006 163.853 200.02 163.861 200.034 163.871C200.043 163.877 200.052 163.884 200.061 163.893C200.154 163.939 200.246 163.986 200.386 164.078C200.432 164.125 200.525 164.171 200.571 164.171C200.584 164.177 200.595 164.184 200.606 164.19L200.62 164.197L200.638 164.208C200.692 164.239 200.736 164.264 200.804 164.264C200.839 164.282 200.868 164.3 200.892 164.315C200.932 164.339 200.961 164.357 200.989 164.357C201.086 164.422 201.184 164.464 201.265 164.499L201.3 164.515C201.322 164.524 201.342 164.533 201.361 164.543C201.384 164.566 201.419 164.578 201.454 164.589C201.466 164.593 201.479 164.598 201.491 164.603L201.497 164.605C201.5 164.606 201.502 164.607 201.505 164.608C201.509 164.61 201.514 164.613 201.519 164.615C201.529 164.621 201.538 164.628 201.546 164.636C201.546 164.636 201.593 164.636 201.593 164.682C201.732 164.961 202.893 167.561 203.636 171.739C203.543 174.153 203.496 176.428 203.496 178.611ZM128.7 169.371L128.654 169.186L134.225 154.886L134.364 154.932L133.761 170.578L128.7 169.371ZM127.539 196.161H121.364L123.546 192.353L127.539 196.161ZM201.825 186.225C202.846 182.371 202.429 179.586 201.221 177.45C201.639 177.636 202.057 177.821 202.521 178.007L203.543 178.889C203.543 180.375 203.543 181.814 203.589 183.114L203.636 185.807C203.659 186.364 203.671 186.933 203.682 187.502C203.694 188.07 203.705 188.639 203.729 189.196L201.825 186.225ZM203.264 200.989C203.357 200.85 203.589 200.478 203.868 199.968V202.475L203.264 200.989ZM192.864 219.375C193.143 220.071 193.468 220.721 193.839 221.371C193.004 221.093 192.354 220.768 191.982 220.489V216.961C192.261 217.796 192.539 218.586 192.864 219.375ZM191.982 239.943V238.55C193.375 237.389 198.018 236.368 204.471 236.321V242.171C198.018 242.078 193.375 241.057 191.982 239.943ZM205.586 242.125V236.321C212.039 236.368 216.729 237.389 218.075 238.55V239.943C216.729 241.057 212.039 242.078 205.586 242.125ZM218.075 220.489C217.704 220.768 217.146 221.046 216.404 221.325C216.728 220.721 217.007 220.072 217.285 219.422L217.286 219.421C217.311 219.353 217.337 219.284 217.363 219.217C217.397 219.126 217.432 219.035 217.466 218.946C217.682 218.375 217.893 217.822 218.075 217.239V220.489Z" fill="url(#paint2_linear_1754_47101)" style="mix-blend-mode:overlay"/>
<path d="M147.132 95.1784C147.225 95.457 147.086 95.8284 146.761 95.9213L140.911 98.1034C140.864 98.1498 140.771 98.1498 140.725 98.1498C140.493 98.1498 140.261 98.0105 140.168 97.7784C140.075 97.6391 140.121 97.4534 140.168 97.3141C140.214 97.1748 140.354 97.0355 140.493 96.9891L146.389 94.807C146.668 94.7141 147.039 94.8998 147.132 95.1784Z" fill="url(#paint3_linear_1754_47101)" style="mix-blend-mode:overlay"/>
<path d="M147.643 97.1748C147.689 97.0355 147.736 96.8498 147.643 96.7105C147.596 96.5713 147.457 96.432 147.318 96.3855C147.179 96.3391 146.993 96.2927 146.854 96.3855L140.957 98.5677C140.818 98.6141 140.679 98.7534 140.632 98.8927C140.586 99.032 140.539 99.2177 140.632 99.357C140.725 99.5891 140.957 99.7284 141.189 99.7284C141.236 99.7284 141.329 99.7284 141.375 99.682L142.071 99.4034L142.954 100.425C143.046 100.564 143.186 100.611 143.371 100.657C143.395 100.657 143.429 100.669 143.464 100.68C143.499 100.692 143.534 100.703 143.557 100.703C143.65 100.703 143.743 100.703 143.836 100.657L145.739 99.9605C145.879 99.9141 146.018 99.8212 146.111 99.682C146.204 99.5427 146.25 99.4034 146.25 99.2177V97.9177L147.225 97.5462C147.457 97.407 147.596 97.3141 147.643 97.1748Z" fill="url(#paint4_linear_1754_47101)" style="mix-blend-mode:overlay"/>
<path d="M138.868 94.482C137.336 94.2963 135.85 93.7391 134.596 92.7641C133.343 91.7891 132.368 90.4891 131.764 89.0499C130.975 86.9141 131.068 84.6391 131.996 82.5963C132.925 80.5534 134.643 78.9748 136.732 78.1856C138.868 77.3963 141.143 77.4891 143.186 78.4177C145.229 79.3463 146.807 81.0641 147.596 83.1534C148.154 84.6391 148.293 86.2177 147.968 87.7963C147.643 89.3284 146.9 90.7677 145.832 91.882L146.529 93.7856V93.8784C146.529 93.8784 146.529 93.9249 146.482 93.9249L139.704 96.432H139.611C139.611 96.432 139.564 96.432 139.564 96.3856L138.868 94.482Z" fill="url(#paint5_linear_1754_47101)" style="mix-blend-mode:overlay"/>
<path d="M134.55 74.657C134.643 74.9356 134.921 75.1213 135.246 75.1213C135.339 75.1213 135.432 75.1213 135.525 75.0748C135.896 74.9356 136.082 74.5177 135.943 74.1463L133.946 68.807C133.9 68.6213 133.761 68.482 133.575 68.3891C133.389 68.2963 133.204 68.2963 133.018 68.3891C132.832 68.4356 132.693 68.5748 132.6 68.7606C132.507 68.9463 132.507 69.132 132.6 69.3177L134.55 74.657Z" fill="url(#paint6_linear_1754_47101)" style="mix-blend-mode:overlay"/>
<path d="M126.1 83.2927L120.9 80.9248C120.714 80.832 120.575 80.6927 120.529 80.507C120.436 80.3212 120.436 80.1355 120.529 79.9498C120.714 79.5784 121.132 79.3927 121.504 79.5784L126.704 81.9462C127.075 82.132 127.261 82.5498 127.075 82.9212C126.982 83.1998 126.704 83.3391 126.425 83.3391C126.286 83.3391 126.193 83.3391 126.1 83.2927Z" fill="url(#paint7_linear_1754_47101)" style="mix-blend-mode:overlay"/>
<path d="M120.296 97.3605C120.389 97.407 120.482 97.407 120.621 97.407C120.714 97.407 120.807 97.407 120.9 97.3605L126.239 95.3641C126.425 95.3177 126.564 95.1784 126.657 94.9927C126.75 94.807 126.75 94.6213 126.657 94.4355C126.518 94.0641 126.1 93.8784 125.729 94.0177L120.389 96.0141C120.204 96.0605 120.064 96.1998 119.971 96.3856C119.879 96.5713 119.879 96.757 119.971 96.9427C119.971 97.1284 120.111 97.3141 120.296 97.3605Z" fill="url(#paint8_linear_1754_47101)" style="mix-blend-mode:overlay"/>
<path d="M155.675 84.407C155.536 84.407 155.443 84.407 155.35 84.3605C155.164 84.2677 155.025 84.1284 155.025 83.9427C154.932 83.757 154.932 83.5713 155.025 83.3856C155.118 83.1998 155.257 83.0605 155.443 83.0141L160.782 81.0177C161.154 80.8784 161.571 81.0641 161.711 81.4355C161.804 81.6213 161.804 81.807 161.711 81.9927C161.618 82.1784 161.479 82.3177 161.293 82.3641L155.954 84.3605C155.861 84.407 155.768 84.407 155.675 84.407Z" fill="url(#paint9_linear_1754_47101)" style="mix-blend-mode:overlay"/>
<path d="M147.039 75.4462C147.132 75.4927 147.225 75.4927 147.364 75.4927C147.457 75.4927 147.55 75.4927 147.643 75.4462C147.829 75.3998 147.968 75.2605 148.061 75.0748L150.429 69.8748C150.614 69.5034 150.429 69.0855 150.057 68.8998C149.686 68.7141 149.268 68.8998 149.082 69.2712L146.714 74.4712C146.529 74.7962 146.668 75.2605 147.039 75.4462Z" fill="url(#paint10_linear_1754_47101)" style="mix-blend-mode:overlay"/>
<defs>
<linearGradient id="paint0_linear_1754_47101" x1="232.654" y1="132.831" x2="13.8357" y2="132.831" gradientUnits="userSpaceOnUse">
<stop stop-color="#E60050"/>
<stop offset="1" stop-color="#5D6AE8"/>
</linearGradient>
<linearGradient id="paint1_linear_1754_47101" x1="232.654" y1="132.831" x2="13.8357" y2="132.831" gradientUnits="userSpaceOnUse">
<stop stop-color="#E60050"/>
<stop offset="1" stop-color="#5D6AE8"/>
</linearGradient>
<linearGradient id="paint2_linear_1754_47101" x1="232.654" y1="132.831" x2="13.8357" y2="132.831" gradientUnits="userSpaceOnUse">
<stop stop-color="#E60050"/>
<stop offset="1" stop-color="#5D6AE8"/>
</linearGradient>
<linearGradient id="paint3_linear_1754_47101" x1="232.654" y1="132.831" x2="13.8357" y2="132.831" gradientUnits="userSpaceOnUse">
<stop stop-color="#E60050"/>
<stop offset="1" stop-color="#5D6AE8"/>
</linearGradient>
<linearGradient id="paint4_linear_1754_47101" x1="232.654" y1="132.831" x2="13.8357" y2="132.831" gradientUnits="userSpaceOnUse">
<stop stop-color="#E60050"/>
<stop offset="1" stop-color="#5D6AE8"/>
</linearGradient>
<linearGradient id="paint5_linear_1754_47101" x1="232.654" y1="132.831" x2="13.8357" y2="132.831" gradientUnits="userSpaceOnUse">
<stop stop-color="#E60050"/>
<stop offset="1" stop-color="#5D6AE8"/>
</linearGradient>
<linearGradient id="paint6_linear_1754_47101" x1="232.654" y1="132.831" x2="13.8357" y2="132.831" gradientUnits="userSpaceOnUse">
<stop stop-color="#E60050"/>
<stop offset="1" stop-color="#5D6AE8"/>
</linearGradient>
<linearGradient id="paint7_linear_1754_47101" x1="232.654" y1="132.831" x2="13.8357" y2="132.831" gradientUnits="userSpaceOnUse">
<stop stop-color="#E60050"/>
<stop offset="1" stop-color="#5D6AE8"/>
</linearGradient>
<linearGradient id="paint8_linear_1754_47101" x1="232.654" y1="132.831" x2="13.8357" y2="132.831" gradientUnits="userSpaceOnUse">
<stop stop-color="#E60050"/>
<stop offset="1" stop-color="#5D6AE8"/>
</linearGradient>
<linearGradient id="paint9_linear_1754_47101" x1="232.654" y1="132.831" x2="13.8357" y2="132.831" gradientUnits="userSpaceOnUse">
<stop stop-color="#E60050"/>
<stop offset="1" stop-color="#5D6AE8"/>
</linearGradient>
<linearGradient id="paint10_linear_1754_47101" x1="232.654" y1="132.831" x2="13.8357" y2="132.831" gradientUnits="userSpaceOnUse">
<stop stop-color="#E60050"/>
<stop offset="1" stop-color="#5D6AE8"/>
</linearGradient>
</defs>
</svg>
