<svg width="260" height="260" viewBox="0 0 260 260" fill="none" xmlns="http://www.w3.org/2000/svg">
<g clip-path="url(#clip0_2320_146509)">
<path d="M200.193 85.9215L218.182 144.457C218.312 144.883 218.338 145.334 218.257 145.772C218.177 146.21 217.993 146.622 217.721 146.974C215.387 150.02 208.471 156.61 200.087 142.047C189.709 124.024 188.203 90.8822 193.442 84.1448C196.344 80.4006 199.669 84.2035 200.193 85.9215Z" fill="#4C4C4C" stroke="black" stroke-width="0.232143" stroke-linecap="round" stroke-linejoin="round"/>
<path d="M187.41 122.725C185.102 124.809 183.259 127.356 182.001 130.2C179.907 134.945 179.986 138.557 179.986 138.557C179.986 138.557 154.079 146.26 151.2 145.763C148.321 145.266 144.096 144.3 144.858 149.301C145.619 154.301 160.397 152.653 160.397 152.653C160.397 152.653 168.518 150.475 175.719 149.38C182.92 148.284 189.708 147.012 194.597 142.972C201.691 137.113 203.084 135.079 203.084 135.079" fill="#666666"/>
<path d="M187.41 122.725C185.102 124.809 183.259 127.356 182.001 130.2C179.907 134.945 179.986 138.557 179.986 138.557C179.986 138.557 154.079 146.26 151.2 145.763C148.321 145.266 144.096 144.3 144.858 149.301C145.619 154.301 160.397 152.653 160.397 152.653C160.397 152.653 168.518 150.475 175.719 149.38C182.92 148.284 189.708 147.012 194.597 142.972C201.691 137.113 203.084 135.079 203.084 135.079" stroke="black" stroke-width="0.232143" stroke-linecap="round" stroke-linejoin="round"/>
<path d="M33.5089 137.229H139.956C140.577 137.229 141.191 137.352 141.764 137.591C142.337 137.83 142.857 138.181 143.294 138.622C143.735 139.059 144.084 139.58 144.32 140.154C144.556 140.727 144.678 141.34 144.677 141.96V214.249H28.7871V141.951C28.7871 140.699 29.2846 139.497 30.1701 138.612C31.0556 137.726 32.2566 137.229 33.5089 137.229Z" fill="#E5E5E5" stroke="black" stroke-width="0.232143" stroke-linecap="round" stroke-linejoin="round"/>
<path d="M139.751 140.943H33.8943C33.4017 140.943 32.9293 141.139 32.5811 141.487C32.2328 141.836 32.0371 142.308 32.0371 142.801V209.193C32.0371 209.686 32.2328 210.158 32.5811 210.507C32.9293 210.855 33.4017 211.05 33.8943 211.05H139.751C140.244 211.05 140.716 210.855 141.065 210.507C141.413 210.158 141.609 209.686 141.609 209.193V142.801C141.609 142.308 141.413 141.836 141.065 141.487C140.716 141.139 140.244 140.943 139.751 140.943Z" fill="#E5E5E5" stroke="black" stroke-width="0.232143" stroke-linecap="round" stroke-linejoin="round"/>
<path d="M72.9539 165.908H57.0568C56.8564 165.907 56.6579 165.946 56.4726 166.023C56.2873 166.099 56.1189 166.211 55.977 166.352C55.8351 166.494 55.7225 166.662 55.6457 166.847C55.5688 167.032 55.5293 167.23 55.5293 167.431V178.954C55.5293 179.36 55.6902 179.748 55.9767 180.035C56.2631 180.321 56.6517 180.482 57.0568 180.482H72.9539C73.3583 180.481 73.7456 180.319 74.031 180.033C74.3165 179.747 74.4768 179.359 74.4768 178.954V167.431C74.4768 167.027 74.3164 166.64 74.0308 166.354C73.7452 166.068 73.3578 165.908 72.9539 165.908Z" fill="white"/>
<path fill-rule="evenodd" clip-rule="evenodd" d="M65.0016 169.139C64.1999 169.139 63.4163 169.377 62.7497 169.822C62.0832 170.268 61.5637 170.901 61.2569 171.641C60.9501 172.382 60.8699 173.197 61.0263 173.983C61.1827 174.77 61.5687 175.492 62.1355 176.059C62.7024 176.625 63.4246 177.011 64.2109 177.168C64.9971 177.324 65.8121 177.244 66.5527 176.937C67.2933 176.63 67.9263 176.111 68.3717 175.444C68.8171 174.778 69.0548 173.994 69.0548 173.193C69.0548 172.118 68.6278 171.087 67.8676 170.326C67.1075 169.566 66.0766 169.139 65.0016 169.139ZM58.627 173.193C58.627 171.932 59.0008 170.699 59.7013 169.651C60.4017 168.603 61.3973 167.786 62.5621 167.303C63.7269 166.821 65.0087 166.694 66.2452 166.94C67.4818 167.186 68.6176 167.793 69.5091 168.685C70.4007 169.576 71.0078 170.712 71.2538 171.949C71.4997 173.185 71.3735 174.467 70.891 175.632C70.4085 176.797 69.5915 177.792 68.5432 178.493C67.4948 179.193 66.2624 179.567 65.0016 179.567C63.3117 179.566 61.6915 178.894 60.497 177.698C59.3026 176.503 58.6316 174.882 58.6316 173.193H58.627Z" fill="#4C4C4C"/>
<path fill-rule="evenodd" clip-rule="evenodd" d="M65.0023 166.818C66.5036 166.817 67.9572 167.346 69.1072 168.311C70.2572 169.276 71.03 170.616 71.2895 172.094C71.549 173.573 71.2787 175.096 70.5261 176.395C69.7734 177.694 68.5867 178.686 67.1748 179.197C65.7628 179.707 64.2162 179.703 62.8069 179.185C61.3976 178.668 60.216 177.67 59.4701 176.367C58.7241 175.064 58.4616 173.539 58.7288 172.062C58.9959 170.585 59.7755 169.249 60.9305 168.29L62.4116 170.073C61.6762 170.68 61.1787 171.528 61.0066 172.466C60.8345 173.404 60.9987 174.373 61.4705 175.202C61.9422 176.031 62.6913 176.667 63.5858 176.998C64.4803 177.329 65.4629 177.335 66.3609 177.013C67.2588 176.691 68.0144 176.063 68.4948 175.239C68.9753 174.415 69.1497 173.447 68.9874 172.508C68.8251 171.568 68.3365 170.715 67.6076 170.1C66.8787 169.485 65.9561 169.146 65.0023 169.144V166.818Z" fill="#808080"/>
<path fill-rule="evenodd" clip-rule="evenodd" d="M65.001 166.818C66.4383 166.822 67.8322 167.31 68.9568 168.205C70.0815 169.1 70.871 170.349 71.1974 171.748C71.5238 173.148 71.3679 174.617 70.7551 175.917C70.1423 177.217 69.1084 178.272 67.821 178.911C66.5336 179.55 65.0682 179.736 63.6622 179.438C62.2561 179.14 60.9919 178.376 60.0744 177.269C59.1569 176.163 58.6399 174.779 58.6071 173.343C58.5744 171.906 59.0278 170.5 59.8939 169.353L61.751 170.746C61.4108 171.198 61.1692 171.718 61.0418 172.269C60.9145 172.821 60.9042 173.394 61.0117 173.95C61.1191 174.506 61.3419 175.033 61.6657 175.498C61.9895 175.963 62.4071 176.354 62.8915 176.648C63.376 176.941 63.9165 177.13 64.4783 177.201C65.0401 177.273 65.6107 177.226 66.1533 177.064C66.6959 176.901 67.1984 176.627 67.6285 176.259C68.0586 175.89 68.4067 175.436 68.6503 174.924C69.0388 174.098 69.1369 173.165 68.9288 172.276C68.7207 171.387 68.2184 170.594 67.5035 170.026C66.7866 169.46 65.9005 169.151 64.9871 169.149L65.001 166.818Z" fill="#808080"/>
<path fill-rule="evenodd" clip-rule="evenodd" d="M65.0025 166.818C66.3246 166.818 67.614 167.228 68.6923 167.994C69.7706 168.759 70.5843 169.84 71.0208 171.088C71.4573 172.336 71.4949 173.689 71.1285 174.959C70.7621 176.229 70.0098 177.354 68.9758 178.178C67.9417 179.002 66.6771 179.484 65.357 179.557C64.0369 179.631 62.7267 179.292 61.6078 178.587C60.4889 177.883 59.6166 176.848 59.1118 175.626C58.6071 174.404 58.4947 173.056 58.7903 171.767L61.0514 172.287C60.9096 172.9 60.9123 173.537 61.0594 174.149C61.2064 174.76 61.4938 175.329 61.8987 175.81C62.3036 176.292 62.8149 176.672 63.3923 176.922C63.9696 177.171 64.5971 177.283 65.2251 177.248C65.853 177.213 66.4643 177.033 67.0104 176.721C67.5566 176.409 68.0226 175.974 68.3717 175.451C68.7208 174.928 68.9434 174.33 69.0218 173.706C69.1002 173.082 69.0323 172.449 68.8235 171.855C68.5459 171.063 68.0293 170.376 67.3449 169.89C66.6605 169.403 65.8421 169.141 65.0025 169.139V166.818Z" fill="#808080"/>
<path fill-rule="evenodd" clip-rule="evenodd" d="M65.0012 166.818C66.1288 166.817 67.2365 167.115 68.2114 167.682C69.1863 168.249 69.9935 169.064 70.5509 170.044C71.1083 171.024 71.3959 172.135 71.3843 173.262C71.3728 174.39 71.0626 175.494 70.4853 176.463C69.908 177.432 69.0843 178.23 68.098 178.777C67.1118 179.323 65.9982 179.599 64.8708 179.575C63.7434 179.551 62.6425 179.229 61.6802 178.641C60.7178 178.053 59.9285 177.221 59.3926 176.229L61.4354 175.133C61.8602 175.924 62.5355 176.552 63.3554 176.917C64.1753 177.283 65.0934 177.366 65.9656 177.154C66.8378 176.941 67.6148 176.445 68.1747 175.743C68.7345 175.041 69.0456 174.174 69.059 173.276C69.0653 172.56 68.8822 171.854 68.5284 171.232C68.1746 170.609 67.6625 170.09 67.044 169.729C66.4257 169.367 65.7222 169.176 65.0058 169.176L65.0012 166.818Z" fill="#B3B3B3"/>
<path fill-rule="evenodd" clip-rule="evenodd" d="M65.0007 166.818C66.621 166.82 68.1798 167.438 69.3603 168.548C70.5408 169.658 71.2544 171.175 71.3561 172.792C71.4578 174.409 70.9399 176.005 69.9078 177.253C68.8756 178.502 67.4066 179.311 65.7993 179.516L65.5068 177.195C66.529 177.064 67.4631 176.55 68.1194 175.755C68.7757 174.961 69.1047 173.946 69.0397 172.918C68.9746 171.89 68.5204 170.925 67.7692 170.219C67.0181 169.514 66.0265 169.121 64.9961 169.121L65.0007 166.818Z" fill="#CCCCCC"/>
<path d="M93.2118 165.908H77.3146C76.9103 165.908 76.5225 166.068 76.2361 166.354C75.9498 166.639 75.7883 167.027 75.7871 167.431V178.954C75.7883 179.359 75.9497 179.747 76.2359 180.033C76.5221 180.319 76.9099 180.481 77.3146 180.482H93.2118C93.6165 180.481 94.0043 180.319 94.2905 180.033C94.5767 179.747 94.738 179.359 94.7393 178.954V167.431C94.738 167.027 94.5766 166.639 94.2902 166.354C94.0039 166.068 93.6161 165.908 93.2118 165.908Z" fill="white"/>
<path fill-rule="evenodd" clip-rule="evenodd" d="M85.262 169.19C84.4787 169.19 83.713 169.423 83.0617 169.858C82.4104 170.293 81.9028 170.911 81.6031 171.635C81.3033 172.359 81.2249 173.155 81.3777 173.923C81.5305 174.691 81.9077 175.397 82.4616 175.951C83.0154 176.505 83.7211 176.882 84.4893 177.035C85.2576 177.188 86.0539 177.109 86.7775 176.81C87.5012 176.51 88.1197 176.002 88.5549 175.351C88.9901 174.7 89.2223 173.934 89.2223 173.151C89.2223 172.1 88.8051 171.093 88.0624 170.35C87.3197 169.608 86.3123 169.19 85.262 169.19ZM78.762 173.151C78.762 171.865 79.1432 170.608 79.8574 169.539C80.5716 168.471 81.5868 167.637 82.7745 167.145C83.9622 166.653 85.2692 166.525 86.5301 166.776C87.7909 167.026 88.9491 167.645 89.8582 168.554C90.7672 169.463 91.3863 170.622 91.6371 171.883C91.8879 173.143 91.7592 174.45 91.2672 175.638C90.7752 176.826 89.9421 177.841 88.8732 178.555C87.8043 179.269 86.5476 179.651 85.262 179.651C84.4072 179.652 83.5605 179.486 82.7703 179.16C81.98 178.834 81.2618 178.356 80.6568 177.752C80.0517 177.148 79.5717 176.431 79.2442 175.641C78.9166 174.852 78.748 174.005 78.748 173.151H78.762Z" fill="#CCCCCC"/>
<path fill-rule="evenodd" clip-rule="evenodd" d="M81.7803 167.649C82.8215 166.988 84.0292 166.637 85.2624 166.637V169.19C84.5124 169.19 83.7779 169.403 83.1442 169.804C82.5105 170.205 82.0037 170.778 81.6828 171.456L79.3613 170.365C79.8928 169.248 80.7319 168.306 81.7803 167.649Z" fill="#808080"/>
<path d="M50.7388 187.372H36.2809C35.939 187.373 35.6114 187.509 35.3696 187.751C35.1278 187.993 34.9915 188.321 34.9902 188.663C34.9902 189.005 35.1261 189.334 35.368 189.577C35.6099 189.82 35.9382 189.957 36.2809 189.958H50.7388C50.9087 189.958 51.0769 189.924 51.2338 189.859C51.3907 189.794 51.5332 189.699 51.6531 189.578C51.773 189.458 51.868 189.315 51.9326 189.158C51.9972 189.001 52.0301 188.832 52.0295 188.663C52.0295 188.32 51.8935 187.992 51.6515 187.75C51.4094 187.508 51.0811 187.372 50.7388 187.372Z" fill="white"/>
<path d="M43.9511 191.731H36.2811C35.9391 191.733 35.6116 191.869 35.3698 192.111C35.128 192.353 34.9916 192.68 34.9904 193.022C34.9879 193.193 35.0194 193.363 35.0832 193.522C35.1469 193.681 35.2415 193.826 35.3615 193.948C35.4815 194.071 35.6246 194.168 35.7825 194.234C35.9403 194.301 36.1098 194.335 36.2811 194.336H43.9511C44.121 194.336 44.2892 194.303 44.4461 194.237C44.603 194.172 44.7455 194.077 44.8654 193.956C44.9853 193.836 45.0803 193.693 45.1449 193.536C45.2095 193.379 45.2424 193.211 45.2418 193.041C45.2443 192.87 45.2127 192.7 45.1489 192.541C45.0852 192.382 44.9905 192.238 44.8704 192.116C44.7503 191.994 44.6072 191.897 44.4493 191.831C44.2915 191.765 44.1222 191.731 43.9511 191.731Z" fill="white"/>
<path d="M47.9717 196.319H36.2809C35.9386 196.319 35.6103 196.455 35.3683 196.697C35.1262 196.939 34.9902 197.267 34.9902 197.609C34.9902 197.952 35.1262 198.28 35.3683 198.522C35.6103 198.764 35.9386 198.9 36.2809 198.9H47.9717C48.314 198.9 48.6423 198.764 48.8843 198.522C49.1264 198.28 49.2624 197.952 49.2624 197.609C49.2624 197.267 49.1264 196.939 48.8843 196.697C48.6423 196.455 48.314 196.319 47.9717 196.319Z" fill="white"/>
<path d="M51.4068 201.96H36.4011C35.9886 201.96 35.5929 202.124 35.3013 202.415C35.0096 202.707 34.8457 203.103 34.8457 203.515V204.3C34.8457 204.504 34.8859 204.706 34.9641 204.895C35.0423 205.084 35.1568 205.255 35.3013 205.4C35.4457 205.544 35.6171 205.659 35.8058 205.737C35.9946 205.815 36.1968 205.855 36.4011 205.855H51.4068C51.611 205.855 51.8133 205.815 52.002 205.737C52.1907 205.659 52.3621 205.544 52.5066 205.4C52.651 205.255 52.7656 205.084 52.8437 204.895C52.9219 204.706 52.9621 204.504 52.9621 204.3V203.515C52.9621 203.103 52.7983 202.707 52.5066 202.415C52.2149 202.124 51.8193 201.96 51.4068 201.96Z" fill="#B3B3B3"/>
<path d="M135.69 165.908H97.7807C97.3768 165.908 96.9894 166.068 96.7038 166.354C96.4183 166.64 96.2578 167.027 96.2578 167.431V178.954C96.2578 179.359 96.4181 179.747 96.7036 180.033C96.989 180.319 97.3764 180.481 97.7807 180.482H135.69C136.094 180.481 136.482 180.319 136.768 180.033C137.055 179.747 137.216 179.359 137.217 178.954V167.431C137.216 167.027 137.054 166.639 136.768 166.354C136.482 166.068 136.094 165.908 135.69 165.908Z" fill="white"/>
<path d="M99.7402 167.932C99.7414 167.821 99.7863 167.714 99.8653 167.635C99.9443 167.556 100.051 167.511 100.163 167.51H103.125C103.237 167.511 103.343 167.556 103.422 167.635C103.501 167.714 103.546 167.821 103.547 167.932V178.82H99.7402V167.932Z" fill="#B3B3B3"/>
<path d="M105.658 168.513C105.659 168.401 105.704 168.294 105.783 168.215C105.862 168.136 105.969 168.091 106.081 168.09H109.043C109.155 168.091 109.261 168.136 109.34 168.215C109.419 168.294 109.464 168.401 109.465 168.513V178.875H105.658V168.513Z" fill="#B3B3B3"/>
<path d="M111.578 170.63C111.582 170.517 111.627 170.41 111.703 170.328C111.743 170.289 111.789 170.259 111.84 170.238C111.891 170.217 111.946 170.207 112.001 170.207H114.963C115.018 170.207 115.072 170.217 115.123 170.238C115.174 170.259 115.221 170.289 115.26 170.328C115.337 170.41 115.381 170.517 115.385 170.63V178.876H111.578V170.63Z" fill="#B3B3B3"/>
<path d="M117.498 171.632C117.499 171.521 117.544 171.414 117.623 171.335C117.702 171.256 117.809 171.211 117.921 171.21H120.883C120.994 171.211 121.101 171.256 121.18 171.335C121.259 171.414 121.304 171.521 121.305 171.632V178.82H117.498V171.632Z" fill="#B3B3B3"/>
<path d="M123.418 172.268C123.419 172.155 123.464 172.047 123.543 171.967C123.582 171.928 123.629 171.897 123.68 171.877C123.731 171.856 123.785 171.846 123.84 171.846H126.803C126.858 171.846 126.912 171.856 126.963 171.877C127.014 171.897 127.061 171.928 127.1 171.967C127.179 172.047 127.224 172.155 127.225 172.268V178.82H123.418V172.268Z" fill="#B3B3B3"/>
<path d="M129.338 172.798C129.339 172.742 129.35 172.687 129.37 172.636C129.393 172.584 129.424 172.537 129.463 172.496C129.501 172.457 129.547 172.427 129.598 172.408C129.649 172.386 129.705 172.375 129.76 172.376H132.723C132.833 172.379 132.938 172.422 133.02 172.496C133.057 172.538 133.089 172.585 133.113 172.636C133.133 172.687 133.144 172.742 133.145 172.798V178.834H129.338V172.798Z" fill="#B3B3B3"/>
<path d="M135.609 146.199H57.0568C56.8564 146.198 56.6579 146.237 56.4726 146.314C56.2873 146.39 56.1189 146.502 55.977 146.643C55.8351 146.785 55.7225 146.953 55.6457 147.138C55.5688 147.323 55.5293 147.521 55.5293 147.722V163.113C55.5293 163.518 55.6902 163.907 55.9767 164.193C56.2631 164.479 56.6517 164.64 57.0568 164.64H135.609C135.81 164.64 136.009 164.601 136.194 164.524C136.379 164.447 136.548 164.335 136.689 164.193C136.831 164.051 136.944 163.883 137.021 163.697C137.097 163.512 137.137 163.313 137.137 163.113V147.722C137.137 147.521 137.097 147.323 137.02 147.138C136.944 146.953 136.831 146.785 136.689 146.643C136.547 146.502 136.379 146.39 136.193 146.314C136.008 146.237 135.81 146.198 135.609 146.199Z" fill="white"/>
<path d="M57.4238 160.276L62.856 160.137L68.2835 160.206H73.7156L79.1431 160.137L84.5753 160.206L90.1467 159.877L95.5742 160.276H106.434L111.866 160.206L117.293 160.137L122.721 159.798L128.153 159.956L133.585 160.355" stroke="#E5E5E5" stroke-width="0.232143" stroke-linecap="round" stroke-linejoin="round"/>
<path d="M57.4238 159.64L62.856 157.681L68.2835 155.726L73.7156 156.446L79.1431 156.362L84.5753 155.563L90.1467 157.244L95.5928 151.157L101.025 155.067L106.452 153.79L111.894 153.479L117.321 154.677L122.749 154.212L128.181 151.891L133.613 150.962" stroke="#CCCCCC" stroke-width="0.232143" stroke-linecap="round" stroke-linejoin="round"/>
<path d="M135.609 181.8H57.0568C56.6517 181.8 56.2631 181.961 55.9767 182.248C55.6902 182.534 55.5293 182.923 55.5293 183.328V204.685C55.5293 205.09 55.6902 205.479 55.9767 205.765C56.2631 206.052 56.6517 206.212 57.0568 206.212H135.609C135.81 206.212 136.009 206.173 136.194 206.096C136.379 206.019 136.548 205.907 136.689 205.765C136.831 205.623 136.944 205.455 137.021 205.269C137.097 205.084 137.137 204.886 137.137 204.685V183.328C137.137 183.127 137.097 182.929 137.021 182.743C136.944 182.558 136.831 182.39 136.689 182.248C136.548 182.106 136.379 181.993 136.194 181.917C136.009 181.84 135.81 181.8 135.609 181.8Z" fill="white"/>
<path d="M61.4316 199.815C61.431 199.62 61.4689 199.427 61.5431 199.247C61.6174 199.067 61.7264 198.904 61.8641 198.766C62.0017 198.628 62.1652 198.519 62.3452 198.445C62.5252 198.371 62.7181 198.333 62.9127 198.334H70.3413C70.5353 198.333 70.7275 198.371 70.9069 198.445C71.0862 198.519 71.249 198.628 71.3859 198.765C71.5242 198.903 71.6339 199.066 71.7088 199.246C71.7837 199.426 71.8223 199.62 71.8224 199.815V203.315H61.4316V199.815Z" fill="#E5E5E5"/>
<path d="M73.2852 197.4C73.2864 197.007 73.4427 196.631 73.72 196.353C73.9974 196.074 74.3734 195.917 74.7662 195.915H82.1948C82.3897 195.915 82.5827 195.953 82.7627 196.028C82.9426 196.102 83.1061 196.212 83.2437 196.35C83.3813 196.488 83.4903 196.652 83.5645 196.832C83.6386 197.012 83.6765 197.205 83.6759 197.4V203.315H73.2852V197.4Z" fill="#E5E5E5"/>
<path d="M85.1406 193.965C85.1406 193.572 85.2967 193.195 85.5744 192.917C85.8522 192.64 86.2289 192.484 86.6217 192.484H94.0503C94.4431 192.484 94.8198 192.64 95.0975 192.917C95.3753 193.195 95.5313 193.572 95.5313 193.965V203.32H85.1406V193.965Z" fill="#CCCCCC"/>
<path d="M96.9961 196.797C96.9958 196.601 97.0337 196.407 97.1075 196.226C97.1844 196.051 97.2949 195.893 97.4325 195.761C97.5638 195.624 97.7218 195.515 97.8968 195.441C98.0762 195.366 98.2687 195.326 98.4632 195.325H105.892C106.285 195.329 106.661 195.486 106.941 195.761C107.077 195.894 107.186 196.051 107.261 196.226C107.335 196.407 107.373 196.601 107.373 196.797V203.297H96.9961V196.797Z" fill="#CCCCCC"/>
<path d="M108.854 191.058C108.853 190.863 108.891 190.67 108.965 190.49C109.039 190.31 109.148 190.146 109.286 190.008C109.423 189.87 109.587 189.76 109.767 189.686C109.947 189.611 110.14 189.573 110.335 189.573H117.763C117.958 189.574 118.15 189.613 118.33 189.689C118.505 189.763 118.663 189.872 118.794 190.009C118.933 190.146 119.043 190.309 119.118 190.49C119.193 190.67 119.231 190.863 119.23 191.058V203.315H108.854V191.058Z" fill="#B3B3B3"/>
<path d="M120.715 187.432C120.716 187.238 120.756 187.045 120.831 186.866C120.907 186.692 121.015 186.534 121.151 186.402C121.285 186.267 121.442 186.158 121.616 186.081C121.795 186.007 121.988 185.969 122.182 185.97H129.611C129.805 185.969 129.997 186.007 130.177 186.081C130.351 186.157 130.509 186.266 130.641 186.402C130.777 186.535 130.887 186.692 130.966 186.866C131.04 187.046 131.078 187.238 131.078 187.432V203.315H120.715V187.432Z" fill="#B3B3B3"/>
<path d="M57.4238 203.431H135.066" stroke="#808080" stroke-width="0.232143" stroke-linecap="round" stroke-linejoin="round"/>
<path d="M6.03711 232.9L28.9264 214.249H144.821L168.537 232.9H6.03711Z" fill="#B3B3B3" stroke="black" stroke-width="0.232143" stroke-linecap="round" stroke-linejoin="round"/>
<path d="M6.03711 232.9H168.537V234.956C168.537 235.663 168.256 236.341 167.757 236.841C167.257 237.341 166.579 237.621 165.872 237.621H8.70211C7.99531 237.621 7.31745 237.341 6.81767 236.841C6.31789 236.341 6.03711 235.663 6.03711 234.956V232.9Z" fill="#808080" stroke="black" stroke-width="0.232143" stroke-linecap="round" stroke-linejoin="round"/>
<path d="M111.514 223.586H61.6264C61.3456 223.586 61.0712 223.67 60.8392 223.828C60.6072 223.987 60.4285 224.211 60.3264 224.473L58.2743 229.622C58.1997 229.809 58.1726 230.012 58.1953 230.212C58.218 230.412 58.2898 230.603 58.4043 230.769C58.5238 230.938 58.6833 231.075 58.8686 231.168C59.0464 231.26 59.244 231.308 59.4443 231.307H114.04C114.247 231.308 114.451 231.257 114.634 231.159C114.814 231.059 114.967 230.916 115.078 230.743C115.189 230.569 115.255 230.371 115.27 230.165C115.284 229.958 115.247 229.751 115.163 229.562L112.786 224.376C112.675 224.131 112.496 223.924 112.271 223.779C112.045 223.634 111.782 223.558 111.514 223.558V223.586Z" fill="#CCCCCC" stroke="black" stroke-width="0.232143" stroke-linecap="round" stroke-linejoin="round"/>
<path d="M9.4043 106.586C9.4043 105.139 9.97906 103.752 11.0021 102.729C12.0252 101.706 13.4128 101.131 14.8597 101.131H105.86C107.307 101.131 108.694 101.706 109.717 102.729C110.74 103.752 111.315 105.139 111.315 106.586V156.265C111.315 157.712 110.74 159.099 109.717 160.122C108.694 161.145 107.307 161.72 105.86 161.72H14.8597C13.4128 161.72 12.0252 161.145 11.0021 160.122C9.97906 159.099 9.4043 157.712 9.4043 156.265V106.586Z" fill="black" stroke="black" stroke-width="0.232143" stroke-linecap="round" stroke-linejoin="round"/>
<path d="M7.08203 104.265C7.08203 102.818 7.65679 101.43 8.67987 100.407C9.70295 99.3841 11.0905 98.8093 12.5374 98.8093H103.537C104.984 98.8093 106.372 99.3841 107.395 100.407C108.418 101.43 108.993 102.818 108.993 104.265V153.943C108.993 155.39 108.418 156.778 107.395 157.801C106.372 158.824 104.984 159.399 103.537 159.399H12.5374C11.0905 159.399 9.70295 158.824 8.67987 157.801C7.65679 156.778 7.08203 155.39 7.08203 153.943V104.265Z" fill="white" stroke="black" stroke-width="0.232143" stroke-linecap="round" stroke-linejoin="round"/>
<path d="M18.5726 106.897C18.7338 106.905 18.8864 106.973 19.0005 107.087C19.1146 107.201 19.1822 107.353 19.1901 107.515H19.2644C19.5799 107.514 19.8838 107.634 20.1142 107.849C20.3445 108.065 20.4839 108.361 20.504 108.675L20.7408 111.229C20.8959 111.242 21.0404 111.314 21.1456 111.428C21.2509 111.543 21.3093 111.693 21.3093 111.849C21.3093 112.005 21.2509 112.155 21.1456 112.269C21.0404 112.384 20.8959 112.455 20.7408 112.469H16.4044C16.2493 112.455 16.1048 112.384 15.9996 112.269C15.8943 112.155 15.8359 112.005 15.8359 111.849C15.8359 111.693 15.8943 111.543 15.9996 111.428C16.1048 111.314 16.2493 111.242 16.4044 111.229L16.6412 108.675C16.6613 108.361 16.8007 108.065 17.031 107.849C17.2614 107.634 17.5653 107.514 17.8808 107.515H17.9551C17.9598 107.352 18.0263 107.198 18.1411 107.083C18.2559 106.968 18.4103 106.902 18.5726 106.897V106.897Z" stroke="black" stroke-width="0.232143" stroke-linecap="round" stroke-linejoin="round"/>
<path d="M17.6445 112.775C17.6445 113.021 17.7424 113.257 17.9165 113.432C18.0906 113.606 18.3268 113.704 18.5731 113.704C18.8194 113.704 19.0556 113.606 19.2297 113.432C19.4038 113.257 19.5017 113.021 19.5017 112.775V112.469H17.6445V112.775Z" stroke="black" stroke-width="0.232143" stroke-linecap="round" stroke-linejoin="round"/>
<path d="M21.9528 104.265H15.1928C14.4885 104.265 13.813 104.544 13.315 105.042C12.8169 105.541 12.5371 106.216 12.5371 106.92V113.68C12.5371 114.385 12.8169 115.06 13.315 115.558C13.813 116.056 14.4885 116.336 15.1928 116.336H21.9528C22.6572 116.336 23.3327 116.056 23.8307 115.558C24.3287 115.06 24.6085 114.385 24.6085 113.68V106.92C24.6085 106.216 24.3287 105.541 23.8307 105.042C23.3327 104.544 22.6572 104.265 21.9528 104.265V104.265Z" stroke="black" stroke-width="0.232143" stroke-linecap="round" stroke-linejoin="round"/>
<path d="M30.4355 113.086V107.849H30.7048L34.3588 112.775H34.2055V107.849H34.4934V113.086H34.2334L30.5888 108.16H30.7373V113.086H30.4355Z" fill="black"/>
<path d="M37.2558 113.147C36.9487 113.153 36.646 113.073 36.3829 112.914C36.129 112.758 35.9283 112.528 35.8072 112.255C35.5408 111.597 35.5408 110.861 35.8072 110.203C35.9283 109.93 36.129 109.7 36.3829 109.544C36.6495 109.391 36.9511 109.311 37.2581 109.311C37.5651 109.311 37.8667 109.391 38.1333 109.544C38.3869 109.7 38.5863 109.93 38.7044 110.203C38.8423 110.527 38.9134 110.876 38.9134 111.229C38.9134 111.582 38.8423 111.931 38.7044 112.255C38.5863 112.528 38.3869 112.758 38.1333 112.914C37.8687 113.073 37.5644 113.154 37.2558 113.147ZM37.2558 112.854C37.4388 112.862 37.6212 112.829 37.7898 112.757C37.9585 112.686 38.1091 112.578 38.2308 112.441C38.4929 112.093 38.6214 111.663 38.5929 111.229C38.6229 110.797 38.4941 110.37 38.2308 110.027C38.1061 109.893 37.9555 109.787 37.7882 109.715C37.6209 109.642 37.4405 109.605 37.2581 109.605C37.0757 109.605 36.8953 109.642 36.728 109.715C36.5607 109.787 36.4101 109.893 36.2854 110.027C36.0257 110.371 35.8987 110.798 35.9279 111.229C35.9018 111.662 36.0283 112.091 36.2854 112.441C36.4066 112.577 36.5565 112.685 36.7243 112.756C36.8921 112.828 37.0736 112.861 37.2558 112.854Z" fill="black"/>
<path d="M41.0166 113.147C40.8862 113.153 40.7559 113.131 40.6348 113.083C40.5137 113.034 40.4047 112.959 40.3156 112.863C40.1408 112.606 40.0574 112.297 40.0788 111.986V109.664H39.3359V109.372H40.0788V108.309L40.3899 108.193V109.372H41.5227V109.641H40.3945V111.921C40.3771 112.167 40.4286 112.413 40.5431 112.631C40.6015 112.707 40.678 112.767 40.7655 112.806C40.8531 112.845 40.949 112.862 41.0445 112.854C41.1335 112.855 41.2223 112.846 41.3092 112.826C41.3776 112.811 41.4444 112.789 41.5088 112.761V113.058C41.4374 113.087 41.3624 113.106 41.2859 113.114C41.198 113.137 41.1075 113.148 41.0166 113.147Z" fill="black"/>
<path d="M42.3402 113.086V109.372H42.6512V113.086H42.3402ZM42.252 108.397V107.933H42.7162V108.397H42.252Z" fill="black"/>
<path d="M44.1081 113.086V109.641H43.3652V109.372H44.1824L44.1081 109.455V108.791C44.0879 108.473 44.1872 108.158 44.3867 107.909C44.4867 107.8 44.61 107.715 44.7474 107.659C44.8847 107.604 45.0327 107.58 45.1806 107.589C45.2695 107.589 45.3581 107.599 45.4452 107.617C45.5215 107.629 45.5963 107.649 45.6681 107.677V107.979C45.6024 107.95 45.5339 107.929 45.4638 107.914C45.3758 107.891 45.2853 107.88 45.1945 107.881C45.0844 107.873 44.9739 107.891 44.8721 107.933C44.7704 107.976 44.6803 108.043 44.6095 108.127C44.471 108.341 44.4058 108.593 44.4238 108.847V109.478L44.3634 109.376H46.5688V113.091H46.2577V109.646H44.4006V113.086H44.1081ZM46.1695 108.397V107.932H46.6338V108.397H46.1695Z" fill="black"/>
<path d="M49.3092 113.146C48.9933 113.154 48.6815 113.073 48.4085 112.914C48.1536 112.75 47.9506 112.516 47.8235 112.241C47.6827 111.913 47.6146 111.558 47.6239 111.201C47.6145 110.848 47.6843 110.497 47.8282 110.175C47.9554 109.907 48.161 109.683 48.4178 109.534C48.6892 109.38 48.9974 109.303 49.3092 109.311C49.5399 109.31 49.7681 109.359 49.9778 109.455C50.1858 109.536 50.3719 109.665 50.521 109.831L50.3632 110.068C50.2191 109.917 50.0452 109.796 49.8525 109.715C49.6772 109.643 49.4896 109.605 49.3 109.604C49.1126 109.594 48.9255 109.626 48.7521 109.698C48.5787 109.769 48.4233 109.878 48.2971 110.017C48.0379 110.357 47.9109 110.779 47.9396 111.206C47.9113 111.642 48.0379 112.074 48.2971 112.427C48.4217 112.568 48.5765 112.68 48.7501 112.754C48.9236 112.828 49.1115 112.862 49.3 112.854C49.4827 112.853 49.6638 112.819 49.8339 112.752C50.0344 112.671 50.2149 112.547 50.3632 112.39L50.521 112.626C50.3684 112.797 50.1774 112.929 49.9639 113.012C49.7565 113.099 49.5341 113.144 49.3092 113.146Z" fill="black"/>
<path d="M52.8562 113.146C52.5477 113.154 52.2434 113.073 51.9788 112.914C51.7275 112.756 51.5288 112.526 51.4077 112.255C51.2669 111.932 51.1987 111.581 51.208 111.229C51.1978 110.876 51.266 110.526 51.4077 110.203C51.5322 109.931 51.734 109.702 51.988 109.544C52.2495 109.385 52.5507 109.305 52.8562 109.311C53.1769 109.302 53.4916 109.399 53.7523 109.585C54.0075 109.769 54.186 110.04 54.2538 110.347H54.1609L54.2352 109.372H54.5416C54.5416 109.511 54.5138 109.646 54.4952 109.78C54.4766 109.915 54.4952 110.045 54.4952 110.175V113.086H54.1841V112.111H54.2677C54.1999 112.418 54.0214 112.689 53.7663 112.872C53.5006 113.06 53.1813 113.156 52.8562 113.146ZM52.8562 112.854C53.0379 112.862 53.2189 112.828 53.386 112.757C53.5531 112.685 53.7021 112.577 53.822 112.441C54.0791 112.091 54.2056 111.662 54.1795 111.229C54.2086 110.798 54.0817 110.371 53.822 110.026C53.7041 109.887 53.5557 109.776 53.3883 109.703C53.2209 109.629 53.0388 109.596 52.8562 109.604C52.6723 109.596 52.4889 109.629 52.32 109.703C52.151 109.776 52.001 109.887 51.8813 110.026C51.6264 110.373 51.5045 110.8 51.5377 111.229C51.5116 111.662 51.6381 112.091 51.8952 112.441C52.0154 112.576 52.1637 112.683 52.3298 112.754C52.4959 112.825 52.6756 112.86 52.8562 112.854Z" fill="black"/>
<path d="M56.8714 113.147C56.7416 113.154 56.6117 113.132 56.4913 113.083C56.3709 113.034 56.2628 112.959 56.175 112.863C56.0001 112.606 55.9168 112.297 55.9382 111.986V109.664H55.1953V109.372H55.9382V108.309L56.2492 108.193V109.372H57.3775V109.641H56.2492V111.921C56.2318 112.167 56.2833 112.413 56.3978 112.631C56.4549 112.707 56.5305 112.768 56.6174 112.807C56.7043 112.846 56.7997 112.862 56.8946 112.854C56.9851 112.855 57.0755 112.846 57.1639 112.826C57.2321 112.81 57.2989 112.788 57.3635 112.761V113.058C57.2917 113.086 57.2169 113.104 57.1407 113.114C57.0527 113.137 56.9622 113.147 56.8714 113.147Z" fill="black"/>
<path d="M58.2008 113.086V109.372H58.5025V113.086H58.2008ZM58.1172 108.397V107.933H58.5815V108.397H58.1172Z" fill="black"/>
<path d="M61.2128 113.146C60.9042 113.154 60.5999 113.073 60.3353 112.914C60.084 112.756 59.8853 112.526 59.7642 112.255C59.4979 111.597 59.4979 110.861 59.7642 110.203C59.8853 109.932 60.084 109.702 60.3353 109.544C60.5999 109.385 60.9042 109.304 61.2128 109.311C61.5213 109.305 61.8253 109.386 62.0903 109.544C62.3416 109.702 62.5403 109.932 62.6614 110.203C62.7993 110.527 62.8704 110.876 62.8704 111.229C62.8704 111.582 62.7993 111.931 62.6614 112.255C62.5403 112.526 62.3416 112.756 62.0903 112.914C61.8253 113.072 61.5213 113.153 61.2128 113.146ZM61.2128 112.854C61.395 112.861 61.5766 112.828 61.7443 112.756C61.9121 112.685 62.062 112.577 62.1832 112.441C62.4488 112.095 62.5792 111.664 62.55 111.229C62.5808 110.797 62.4501 110.368 62.1832 110.026C62.0585 109.893 61.9079 109.787 61.7406 109.715C61.5733 109.642 61.3929 109.605 61.2105 109.605C61.0281 109.605 60.8477 109.642 60.6804 109.715C60.5131 109.787 60.3625 109.893 60.2378 110.026C59.983 110.373 59.8611 110.8 59.8942 111.229C59.8681 111.662 59.9946 112.091 60.2518 112.441C60.3719 112.576 60.5203 112.683 60.6864 112.754C60.8524 112.826 61.0321 112.86 61.2128 112.854Z" fill="black"/>
<path d="M63.92 113.086V110.175C63.9268 110.044 63.9268 109.912 63.92 109.78C63.92 109.646 63.92 109.511 63.8828 109.372H64.1846L64.2542 110.263H64.1614C64.2495 109.976 64.4329 109.727 64.6814 109.558C64.9417 109.391 65.2454 109.306 65.5542 109.312C65.7345 109.298 65.9156 109.322 66.0865 109.381C66.2573 109.44 66.4143 109.533 66.5478 109.655C66.6725 109.802 66.7671 109.972 66.8261 110.155C66.885 110.338 66.9072 110.531 66.8914 110.723V113.086H66.5757V110.765C66.604 110.453 66.5182 110.141 66.3342 109.887C66.2324 109.788 66.1104 109.713 65.9765 109.665C65.8427 109.618 65.7002 109.6 65.5589 109.613C65.3831 109.605 65.2075 109.633 65.043 109.695C64.8784 109.757 64.7285 109.853 64.6025 109.975C64.3613 110.243 64.236 110.595 64.2542 110.955V113.086H63.92Z" fill="black"/>
<path d="M54.3239 127.131H14.3954C13.4338 127.131 12.6543 127.91 12.6543 128.872V133.051C12.6543 134.012 13.4338 134.792 14.3954 134.792H54.3239C55.2855 134.792 56.065 134.012 56.065 133.051V128.872C56.065 127.91 55.2855 127.131 54.3239 127.131Z" fill="#B3B3B3" stroke="black" stroke-width="0.232143" stroke-linecap="round" stroke-linejoin="round"/>
<path d="M74.2882 137.809H13.4668C13.0181 137.809 12.6543 138.173 12.6543 138.622V140.943C12.6543 141.392 13.0181 141.756 13.4668 141.756H74.2882C74.737 141.756 75.1007 141.392 75.1007 140.943V138.622C75.1007 138.173 74.737 137.809 74.2882 137.809Z" fill="#CCCCCC" stroke="black" stroke-width="0.232143" stroke-linecap="round" stroke-linejoin="round"/>
<path d="M88.2168 143.845H13.4668C13.0181 143.845 12.6543 144.209 12.6543 144.657V146.979C12.6543 147.428 13.0181 147.791 13.4668 147.791H88.2168C88.6655 147.791 89.0293 147.428 89.0293 146.979V144.657C89.0293 144.209 88.6655 143.845 88.2168 143.845Z" fill="#CCCCCC" stroke="black" stroke-width="0.232143" stroke-linecap="round" stroke-linejoin="round"/>
<path d="M58.9668 149.881H13.4668C13.0181 149.881 12.6543 150.245 12.6543 150.693V153.015C12.6543 153.464 13.0181 153.827 13.4668 153.827H58.9668C59.4155 153.827 59.7793 153.464 59.7793 153.015V150.693C59.7793 150.245 59.4155 149.881 58.9668 149.881Z" fill="#CCCCCC" stroke="black" stroke-width="0.232143" stroke-linecap="round" stroke-linejoin="round"/>
<path d="M104.493 220.406H64.5365L63.8262 222.323H105.352L104.493 220.406Z" fill="#4C4C4C"/>
<path d="M63.6081 220.406H54.4245L53.3984 222.323H62.8002L63.6081 220.406Z" fill="#4C4C4C"/>
<path d="M115.066 220.406H105.961L106.736 222.323H116.138L115.066 220.406Z" fill="#4C4C4C"/>
<path d="M122.987 220.406H116.139L117.253 222.323H124.384L122.987 220.406Z" fill="#4C4C4C"/>
<path d="M132.115 221.362H125.15L125.782 222.323H132.909L132.115 221.362Z" fill="#4C4C4C"/>
<path d="M148.532 221.464H141.609L142.538 222.425H149.665L148.532 221.464Z" fill="#4C4C4C"/>
<path d="M140.503 221.362H133.246L134.021 222.323H141.32L140.503 221.362Z" fill="#4C4C4C"/>
<path d="M139.249 220.141H132.285L133.005 221.098H140.132L139.249 220.141Z" fill="#4C4C4C"/>
<path d="M53.1336 220.406H46.2993L44.9297 222.323H52.0147L53.1336 220.406Z" fill="#4C4C4C"/>
<path d="M45.1161 220.406H38.2865L36.5547 222.323H43.6397L45.1161 220.406Z" fill="#4C4C4C"/>
<path d="M36.9455 220.406H29.8698L27.8223 222.323H35.1162L36.9455 220.406Z" fill="#4C4C4C"/>
<path d="M48.8019 218.377H32.3615L30.7969 219.807H47.5622L48.8019 218.377Z" fill="#4C4C4C"/>
<path d="M56.7227 218.377H50.2552L49.127 219.807H55.8591L56.7227 218.377Z" fill="#4C4C4C"/>
<path d="M64.9225 218.377H58.1903L57.4707 219.807H64.2028L64.9225 218.377Z" fill="#4C4C4C"/>
<path d="M72.5328 218.377H65.9306L65.4199 219.807H72.1521L72.5328 218.377Z" fill="#4C4C4C"/>
<path d="M80.3315 218.377H73.5993L73.3672 219.807H80.0993L80.3315 218.377Z" fill="#4C4C4C"/>
<path d="M88.1325 218.377H81.5629L81.4004 219.807H88.1325V218.377Z" fill="#4C4C4C"/>
<path d="M95.9037 218.377H89.2969L89.4362 219.807H96.1683L95.9037 218.377Z" fill="#4C4C4C"/>
<path d="M103.727 218.377H97.1387L97.473 219.807H104.205L103.727 218.377Z" fill="#4C4C4C"/>
<path d="M111.583 218.377H104.953L105.51 219.807H112.242L111.583 218.377Z" fill="#4C4C4C"/>
<path d="M119.504 218.377H112.771L113.542 219.807H120.274L119.504 218.377Z" fill="#4C4C4C"/>
<path d="M127.23 218.377H120.498L121.58 219.807H128.312L127.23 218.377Z" fill="#4C4C4C"/>
<path d="M144.989 218.377H128.367L129.616 219.807H146.688L144.989 218.377Z" fill="#4C4C4C"/>
<path d="M46.3695 216.39H34.4281L32.9238 217.731H45.0788L46.3695 216.39Z" fill="#4C4C4C"/>
<path d="M141.353 214.997H36.0758L34.5762 215.976H142.69L141.353 214.997Z" fill="#4C4C4C"/>
<path d="M53.7053 216.39H47.6556L46.4531 217.731H52.8556L53.7053 216.39Z" fill="#4C4C4C"/>
<path d="M61.1947 216.39H54.885L54.0586 217.731H60.4611L61.1947 216.39Z" fill="#4C4C4C"/>
<path d="M68.9754 216.39H62.5729L61.9043 217.731H68.4507L68.9754 216.39Z" fill="#4C4C4C"/>
<path d="M76.3945 216.39H70.1081L69.6484 217.731H76.0509L76.3945 216.39Z" fill="#4C4C4C"/>
<path d="M84.134 216.39H77.9265L77.6387 217.731H84.0412L84.134 216.39Z" fill="#4C4C4C"/>
<path d="M91.6466 216.39H85.2441V217.731H91.6466V216.39Z" fill="#4C4C4C"/>
<path d="M99.4146 216.39H93.1328L93.235 217.731H99.6328L99.4146 216.39Z" fill="#4C4C4C"/>
<path d="M106.69 216.39H100.506L100.882 217.731H107.28L106.69 216.39Z" fill="#4C4C4C"/>
<path d="M114.503 216.39H108.105L108.742 217.731H115.139L114.503 216.39Z" fill="#4C4C4C"/>
<path d="M121.76 216.39H115.725L116.514 217.731H122.916L121.76 216.39Z" fill="#4C4C4C"/>
<path d="M129.635 216.39H123.232L124.421 217.731H130.819L129.635 216.39Z" fill="#4C4C4C"/>
<path d="M142.69 216.39H130.818L132.151 217.731H144.394L142.69 216.39Z" fill="#4C4C4C"/>
<path d="M74.0039 232.835C74.5268 232.53 75.1213 232.37 75.7264 232.37H99.3028C99.9081 232.369 100.503 232.529 101.025 232.835C101.025 233.113 100.97 233.389 100.864 233.646C100.757 233.903 100.601 234.137 100.404 234.333C100.207 234.53 99.9726 234.686 99.7152 234.792C99.4578 234.898 99.182 234.952 98.9036 234.952H76.1443C75.5823 234.952 75.0434 234.729 74.6456 234.332C74.2478 233.935 74.0237 233.397 74.0225 232.835H74.0039Z" fill="#666666" stroke="black" stroke-width="0.232143" stroke-linecap="round" stroke-linejoin="round"/>
<path d="M80.6665 51.3361C80.6665 51.3361 77.4676 46.2939 76.6087 43.5825C75.7498 40.8711 74.668 32.2354 74.668 32.2354C74.668 32.2354 78.4473 38.9257 79.3108 41.7857C80.1744 44.6457 80.6665 51.3361 80.6665 51.3361Z" fill="#808080" stroke="black" stroke-width="0.232143" stroke-linecap="round" stroke-linejoin="round"/>
<path d="M88.2148 52.7939C88.2148 52.7939 89.9606 47.0785 91.4648 44.6503C92.9691 42.2221 98.8145 35.7917 98.8145 35.7917C98.8145 35.7917 96.1959 43.016 94.5941 45.5417C92.9923 48.0675 88.2148 52.7939 88.2148 52.7939Z" fill="#808080" stroke="black" stroke-width="0.232143" stroke-linecap="round" stroke-linejoin="round"/>
<path d="M84.4454 55.3149C84.4454 55.3149 83.0896 43.2899 86.1911 34.7564C89.2925 26.2228 96.6654 16.3335 96.6654 16.3335C96.6654 16.3335 95.695 34.1574 93.5593 40.6574C91.4236 47.1574 87.0593 56.6567 87.0593 56.6567L84.4454 55.3149Z" fill="#666666" stroke="black" stroke-width="0.232143" stroke-linecap="round" stroke-linejoin="round"/>
<path d="M87.2598 52.7939C87.2598 52.7939 89.5348 40.8664 92.3994 37.0082C94.6405 34.0703 97.1815 31.3738 99.9812 28.9622C99.9812 28.9622 98.4305 33.15 96.9448 36.0936C94.8741 40.2397 96.0162 41.0104 92.9194 46.3636C91.2108 49.3025 87.2598 52.7939 87.2598 52.7939Z" fill="#B3B3B3" stroke="black" stroke-width="0.232143" stroke-linecap="round" stroke-linejoin="round"/>
<path d="M84.3473 50.4632C82.6183 46.5538 81.7218 42.3274 81.7148 38.0528C81.8123 31.2649 84.3334 22.541 84.3334 22.541C84.3334 22.541 88.2148 35.5503 87.9363 41.4467C87.6577 47.3432 84.8395 52.7939 84.8395 52.7939L84.3473 50.4632Z" fill="#B3B3B3" stroke="black" stroke-width="0.232143" stroke-linecap="round" stroke-linejoin="round"/>
<path d="M77.3691 50.0315V54.5397C77.3679 57.5081 77.6164 60.4714 78.112 63.3982L78.502 65.7197C78.5444 65.9628 78.6708 66.1834 78.8592 66.3429C79.0475 66.5024 79.2859 66.5908 79.5327 66.5925H91.3441C91.5915 66.5926 91.8308 66.5049 92.0195 66.3451C92.2083 66.1852 92.3342 65.9636 92.3749 65.7197L92.7649 63.3982C93.262 60.4716 93.5121 57.5083 93.5124 54.5397V50.0315C93.5124 49.7544 93.4023 49.4887 93.2064 49.2928C93.0105 49.0969 92.7448 48.9868 92.4677 48.9868H78.4138C78.1367 48.9868 77.871 49.0969 77.6751 49.2928C77.4792 49.4887 77.3691 49.7544 77.3691 50.0315Z" fill="#B3B3B3" stroke="black" stroke-width="0.232143" stroke-linecap="round" stroke-linejoin="round"/>
<path d="M98.416 80.1495V68.9648C98.416 68.6751 98.1811 68.4402 97.8914 68.4402H92.8678C92.5781 68.4402 92.3432 68.6751 92.3432 68.9648V80.1495C92.3432 80.4392 92.5781 80.6741 92.8678 80.6741H97.8914C98.1811 80.6741 98.416 80.4392 98.416 80.1495Z" fill="#CCCCCC" stroke="black" stroke-width="0.464286" stroke-linecap="round" stroke-linejoin="round"/>
<path d="M19.2363 80.1495V68.9648C19.2363 68.6751 19.0014 68.4402 18.7117 68.4402H13.6881C13.3984 68.4402 13.1635 68.6751 13.1635 68.9648V80.1495C13.1635 80.4392 13.3984 80.6741 13.6881 80.6741H18.7117C19.0014 80.6741 19.2363 80.4392 19.2363 80.1495Z" fill="#CCCCCC" stroke="black" stroke-width="0.464286" stroke-linecap="round" stroke-linejoin="round"/>
<path d="M36.6699 24.0593H25.6756C25.173 24.0593 24.7656 24.4667 24.7656 24.9693V65.6315C24.7656 66.134 25.173 66.5415 25.6756 66.5415H36.6699C37.1725 66.5415 37.5799 66.134 37.5799 65.6315V24.9693C37.5799 24.4667 37.1725 24.0593 36.6699 24.0593Z" fill="#B3B3B3" stroke="black" stroke-width="0.232143" stroke-linecap="round" stroke-linejoin="round"/>
<path d="M31.1731 38.8049C33.3936 38.8049 35.1938 37.0047 35.1938 34.7841C35.1938 32.5636 33.3936 30.7634 31.1731 30.7634C28.9525 30.7634 27.1523 32.5636 27.1523 34.7841C27.1523 37.0047 28.9525 38.8049 31.1731 38.8049Z" fill="white" stroke="black" stroke-width="0.232143" stroke-linecap="round" stroke-linejoin="round"/>
<path d="M31.1732 36.9802C32.4219 36.9802 33.4343 35.9678 33.4343 34.7191C33.4343 33.4703 32.4219 32.458 31.1732 32.458C29.9244 32.458 28.9121 33.4703 28.9121 34.7191C28.9121 35.9678 29.9244 36.9802 31.1732 36.9802Z" fill="#666666" stroke="black" stroke-width="0.232143" stroke-linecap="round" stroke-linejoin="round"/>
<path d="M33.0903 41.6882H29.2507C28.8404 41.6882 28.5078 42.0208 28.5078 42.4311V62.0982C28.5078 62.5085 28.8404 62.8411 29.2507 62.8411H33.0903C33.5006 62.8411 33.8332 62.5085 33.8332 62.0982V42.4311C33.8332 42.0208 33.5006 41.6882 33.0903 41.6882Z" fill="white" stroke="black" stroke-width="0.232143" stroke-linecap="round" stroke-linejoin="round"/>
<path d="M62.6549 22.7192L51.8693 24.8509C51.3763 24.9483 51.0556 25.427 51.153 25.9201L59.0371 65.8106C59.1345 66.3036 59.6132 66.6243 60.1062 66.5269L70.8919 64.3952C71.3849 64.2977 71.7056 63.819 71.6082 63.326L63.7241 23.4355C63.6267 22.9424 63.148 22.6218 62.6549 22.7192Z" fill="#4C4C4C" stroke="black" stroke-width="0.232143" stroke-linecap="round" stroke-linejoin="round"/>
<path d="M59.341 38.3268C61.5616 38.3268 63.3617 36.5267 63.3617 34.3061C63.3617 32.0855 61.5616 30.2854 59.341 30.2854C57.1204 30.2854 55.3203 32.0855 55.3203 34.3061C55.3203 36.5267 57.1204 38.3268 59.341 38.3268Z" fill="white" stroke="black" stroke-width="0.232143" stroke-linecap="round" stroke-linejoin="round"/>
<path d="M59.3333 36.5021C60.5821 36.5021 61.5944 35.4898 61.5944 34.2411C61.5944 32.9923 60.5821 31.98 59.3333 31.98C58.0846 31.98 57.0723 32.9923 57.0723 34.2411C57.0723 35.4898 58.0846 36.5021 59.3333 36.5021Z" fill="#4C4C4C" stroke="black" stroke-width="0.232143" stroke-linecap="round" stroke-linejoin="round"/>
<path d="M62.5639 40.7026L58.7971 41.447C58.3946 41.5266 58.1328 41.9173 58.2124 42.3198L62.0257 61.6137C62.1052 62.0162 62.496 62.278 62.8985 62.1985L66.6653 61.454C67.0677 61.3744 67.3295 60.9837 67.25 60.5812L63.4367 41.2873C63.3571 40.8848 62.9664 40.623 62.5639 40.7026Z" fill="white" stroke="black" stroke-width="0.232143" stroke-linecap="round" stroke-linejoin="round"/>
<path d="M50.7246 24.0593H39.7303C39.2277 24.0593 38.8203 24.4667 38.8203 24.9693V65.6315C38.8203 66.134 39.2277 66.5415 39.7303 66.5415H50.7246C51.2272 66.5415 51.6346 66.134 51.6346 65.6315V24.9693C51.6346 24.4667 51.2272 24.0593 50.7246 24.0593Z" fill="#808080" stroke="black" stroke-width="0.232143" stroke-linecap="round" stroke-linejoin="round"/>
<path d="M45.2277 38.8049C47.4483 38.8049 49.2485 37.0047 49.2485 34.7841C49.2485 32.5636 47.4483 30.7634 45.2277 30.7634C43.0072 30.7634 41.207 32.5636 41.207 34.7841C41.207 37.0047 43.0072 38.8049 45.2277 38.8049Z" fill="white" stroke="black" stroke-width="0.232143" stroke-linecap="round" stroke-linejoin="round"/>
<path d="M45.2279 36.9802C46.4766 36.9802 47.4889 35.9678 47.4889 34.7191C47.4889 33.4703 46.4766 32.458 45.2279 32.458C43.9791 32.458 42.9668 33.4703 42.9668 34.7191C42.9668 35.9678 43.9791 36.9802 45.2279 36.9802Z" fill="#808080" stroke="black" stroke-width="0.232143" stroke-linecap="round" stroke-linejoin="round"/>
<path d="M47.145 41.6882H43.3054C42.8951 41.6882 42.5625 42.0208 42.5625 42.4311V62.0982C42.5625 62.5085 42.8951 62.8411 43.3054 62.8411H47.145C47.5553 62.8411 47.8879 62.5085 47.8879 62.0982V42.4311C47.8879 42.0208 47.5553 41.6882 47.145 41.6882Z" fill="white" stroke="black" stroke-width="0.232143" stroke-linecap="round" stroke-linejoin="round"/>
<path d="M101.513 66.5415H10.6194C9.85017 66.5415 9.22656 67.1651 9.22656 67.9344V70.6922C9.22656 71.4615 9.85017 72.0851 10.6194 72.0851H101.513C102.282 72.0851 102.905 71.4615 102.905 70.6922V67.9344C102.905 67.1651 102.282 66.5415 101.513 66.5415Z" fill="#CCCCCC" stroke="black" stroke-width="0.232143" stroke-linecap="round" stroke-linejoin="round"/>
<path d="M166.411 64.5355C171.461 64.5355 176.398 63.0379 180.598 60.232C184.797 57.4261 188.07 53.438 190.003 48.7719C191.935 44.1059 192.441 38.9715 191.456 34.0181C190.47 29.0646 188.038 24.5146 184.467 20.9434C180.896 17.3721 176.346 14.9401 171.392 13.9548C166.439 12.9695 161.305 13.4752 156.639 15.4079C151.973 17.3407 147.984 20.6136 145.179 24.813C142.373 29.0123 140.875 33.9494 140.875 38.9998C140.875 45.7723 143.565 52.2674 148.354 57.0563C153.143 61.8452 159.638 64.5355 166.411 64.5355Z" fill="#CCCCCC"/>
<path d="M166.41 61.5084C170.862 61.5093 175.214 60.19 178.917 57.7172C182.619 55.2445 185.504 51.7295 187.209 47.6167C188.913 43.5038 189.359 38.978 188.491 34.6114C187.623 30.2449 185.48 26.2338 182.332 23.0855C179.185 19.9371 175.174 17.7929 170.808 16.9241C166.441 16.0552 161.915 16.5007 157.802 18.2041C153.689 19.9076 150.173 22.7926 147.7 26.4942C145.226 30.1958 143.906 34.5478 143.906 38.9998C143.907 44.9683 146.279 50.692 150.499 54.9128C154.718 59.1335 160.442 61.5059 166.41 61.5084Z" fill="white"/>
<path fill-rule="evenodd" clip-rule="evenodd" d="M154.036 27.5819C154.124 27.4885 154.27 27.484 154.364 27.5718L166.406 38.9006L184.877 33.1835C184.999 33.1455 185.129 33.2141 185.167 33.3366C185.205 33.4591 185.136 33.5891 185.014 33.627L166.415 39.3841C166.335 39.4088 166.248 39.3887 166.187 39.3314L154.046 27.91C153.952 27.8222 153.948 27.6753 154.036 27.5819Z" fill="#808080"/>
<path d="M178.835 86.7516C178.835 86.7516 170.162 69.703 176.109 61.3598C178.338 58.2398 193.288 78.6033 193.288 78.6033L178.835 86.7516Z" fill="white" stroke="black" stroke-width="0.232143" stroke-linecap="round" stroke-linejoin="round"/>
<path d="M182.622 86.2596C182.622 86.2596 181.726 84.941 180.593 82.8285C179.934 81.5982 180.556 79.9314 179.869 78.2646C179.242 76.7557 177.297 75.2792 176.851 73.5753C176.521 72.3032 177.492 70.7014 176.874 69.5453C175.277 66.5553 176.085 64.1596 177.241 61.6896C178.1 59.8325 192.609 79.7967 192.609 79.7967L182.622 86.2596Z" fill="#CCCCCC" stroke="black" stroke-width="0.232143" stroke-linecap="round" stroke-linejoin="round"/>
<path d="M196.042 74.6246L196.251 74.4668C197.817 73.2231 198.825 71.4082 199.053 69.4212C199.281 67.4343 198.711 65.4381 197.467 63.8718C196.223 62.3055 194.408 61.2974 192.422 61.0693C190.435 60.8411 188.438 61.4117 186.872 62.6553L186.668 62.8271L186.593 62.8782C186.475 62.9718 186.363 63.0742 186.259 63.1846L186.222 63.2403C186.078 63.3969 185.949 63.5663 185.837 63.7464C185.776 63.8361 185.72 63.9291 185.67 64.025L177.387 75.7575L181.315 80.7021L194.626 75.3489L194.96 75.2375C195.163 75.17 195.359 75.0829 195.545 74.9775H195.605C195.736 74.8994 195.862 74.8125 195.981 74.7175L196.042 74.6246Z" fill="#666666" stroke="black" stroke-width="0.232143" stroke-linecap="round" stroke-linejoin="round"/>
<path d="M209.12 60.2086C212.21 60.2086 214.715 57.7038 214.715 54.6139C214.715 51.5241 212.21 49.0193 209.12 49.0193C206.03 49.0193 203.525 51.5241 203.525 54.6139C203.525 57.7038 206.03 60.2086 209.12 60.2086Z" fill="#666666" stroke="black" stroke-width="0.232143" stroke-linecap="round" stroke-linejoin="round"/>
<path d="M206.783 59.0833L204.245 55.8876C203.86 55.4037 203.157 55.3231 202.673 55.7074C202.189 56.0918 202.108 56.7956 202.492 57.2795L205.031 60.4752C205.415 60.9591 206.119 61.0398 206.603 60.6554C207.087 60.2711 207.167 59.5672 206.783 59.0833Z" fill="#808080" stroke="black" stroke-width="0.232143" stroke-linecap="round" stroke-linejoin="round"/>
<path d="M203.971 62.7434L200.041 57.7954L195.678 61.2607L199.609 66.2086L203.971 62.7434Z" fill="#666666" stroke="black" stroke-width="0.232143" stroke-linecap="round" stroke-linejoin="round"/>
<path d="M172.863 89.1335L167.287 82.1135L177.548 76.1289L181.016 80.4932L172.863 89.1335Z" fill="#666666" stroke="black" stroke-width="0.232143" stroke-linecap="round" stroke-linejoin="round"/>
<path d="M205.851 61.5105L201.667 56.2426C201.282 55.7587 200.578 55.678 200.095 56.0624C199.611 56.4467 199.53 57.1506 199.914 57.6345L204.099 62.9024C204.483 63.3863 205.187 63.467 205.671 63.0826C206.155 62.6983 206.235 61.9944 205.851 61.5105Z" fill="#808080" stroke="black" stroke-width="0.232143" stroke-linecap="round" stroke-linejoin="round"/>
<path d="M200.609 65.6714L196.424 60.4035C196.04 59.9196 195.336 59.8389 194.852 60.2233C194.368 60.6076 194.288 61.3115 194.672 61.7954L198.856 67.0633C199.241 67.5472 199.945 67.6279 200.429 67.2435C200.912 66.8592 200.993 66.1553 200.609 65.6714Z" fill="#808080" stroke="black" stroke-width="0.232143" stroke-linecap="round" stroke-linejoin="round"/>
<path d="M166.443 90.8002L164.224 88.0145C163.482 87.0796 163.142 85.8885 163.277 84.7028C163.413 83.5172 164.014 82.4339 164.948 81.6909L165.876 80.9434C167.822 79.3973 170.278 79.9684 172.2 81.6677C173.062 82.4936 173.809 83.4304 174.424 84.4534C175.64 86.7748 175.645 89.2309 173.695 90.777L172.766 91.5245C171.831 92.2651 170.64 92.6047 169.455 92.4689C168.27 92.3331 167.187 91.7331 166.443 90.8002Z" fill="#B3B3B3" stroke="black" stroke-width="0.232143" stroke-linecap="round" stroke-linejoin="round"/>
<path d="M181.852 79.7281L178.491 75.4963C178.107 75.0124 177.403 74.9317 176.919 75.3161C176.435 75.7004 176.354 76.4043 176.739 76.8882L180.1 81.12C180.484 81.6038 181.188 81.6845 181.672 81.3002C182.156 80.9158 182.237 80.212 181.852 79.7281Z" fill="#808080" stroke="black" stroke-width="0.232143" stroke-linecap="round" stroke-linejoin="round"/>
<path d="M162.528 116.912C163.136 110.876 165.55 105.769 169.492 102.254C172.839 99.2595 174.302 94.4541 173.578 88.8966C173.076 85.0988 169.668 81.2824 165.945 80.377C160.499 79.0491 155.563 79.9824 152.225 82.9724C148.279 86.5056 142.963 88.3488 136.904 88.2931C135.329 88.2283 133.788 88.7624 132.591 89.7881L130.469 91.7288L142.201 105.017L144.304 107.366L158.577 122.854L160.568 121.03C161.718 119.954 162.418 118.483 162.528 116.912Z" fill="#808080" stroke="black" stroke-width="0.232143" stroke-linecap="round" stroke-linejoin="round"/>
<path d="M133.701 89.0036C136.436 87.4482 143.869 92.4346 151.511 100.959C159.153 109.483 163.262 117.376 161.493 119.957" stroke="black" stroke-width="0.232143" stroke-linecap="round" stroke-linejoin="round"/>
<path d="M148.503 103.717C140.768 95.0904 132.718 89.6722 130.568 91.6175C128.418 93.5629 132.889 102.134 140.643 110.765C148.397 119.396 156.405 124.805 158.578 122.859C160.751 120.914 156.238 112.343 148.503 103.717Z" fill="#333333" stroke="black" stroke-width="0.232143" stroke-linecap="round" stroke-linejoin="round"/>
<path d="M225.241 170.337C233.162 182.362 231.676 195.724 220.134 202.633C206.883 210.581 209.307 218.994 209.307 218.994C211.489 221.891 193.298 230.439 193.298 230.439C189.64 232.616 182.522 229.585 183.497 226.78C184.272 224.556 191.227 224.7 192.161 225.244L199.431 217.894C199.431 217.894 196.669 207.591 202.463 191.49C204.752 185.129 209.929 176.169 209.929 176.169C209.929 176.169 221.383 164.473 225.241 170.337Z" fill="#666666" stroke="black" stroke-width="0.232143" stroke-linecap="round" stroke-linejoin="round"/>
<path d="M232.788 187.418C232.788 187.418 233.573 191.536 241.359 201.347C248.931 210.874 253.862 206.918 252.79 199.647C258.417 209.007 248.021 215.818 238.206 205.859C226.641 194.122 228.206 191.151 228.206 191.151L232.788 187.418Z" fill="#4C4C4C" stroke="black" stroke-width="0.232143" stroke-linecap="round" stroke-linejoin="round"/>
<path d="M231.716 174.72C227.858 168.856 223.229 161.279 215.253 147.852C208.191 135.971 203.116 118.643 205.201 108.243L205.582 106.345C207.522 95.7496 207.657 88.3813 202.638 80.3028C196.788 70.8731 183.974 49.6599 183.974 49.6599C177.051 51.4799 174.971 56.5453 176.587 64.8653C176.893 66.4438 178.068 67.5303 178.63 69.341C179.071 70.7571 178.63 72.0292 179.201 73.5892C179.707 74.931 182.015 76.6117 182.623 78.0603C183.175 79.3649 182.256 81.2638 182.887 82.6567C183.658 85.006 180.626 84.3513 180.195 81.3706L177.585 84.1563C178.718 86.4313 181.109 91.1624 183.18 94.9417C184.341 101.976 184.271 107.519 181.987 114.256C181.987 114.256 165.077 134.322 179.122 155.276C185.158 164.273 207.931 187.655 207.931 187.655C206.333 190.428 205.093 193.392 204.24 196.476C199.569 213.153 204.648 226.711 204.648 226.711L195.084 235.068C194.156 234.52 187.191 234.381 186.425 236.605C185.446 239.39 192.563 242.441 196.222 240.263C196.222 240.263 214.417 231.716 212.23 228.818C212.23 228.818 209.807 220.406 223.062 212.457C234.567 205.539 239.632 186.745 231.716 174.72Z" fill="white" stroke="black" stroke-width="0.232143" stroke-linecap="round" stroke-linejoin="round"/>
<path d="M194.982 83.1442C195.425 83.2701 195.895 83.2619 196.332 83.1205C196.77 82.979 197.156 82.7108 197.441 82.3497C197.725 81.9887 197.897 81.5512 197.933 81.0927C197.969 80.6342 197.867 80.1753 197.642 79.7744C197.417 79.3734 197.078 79.0484 196.667 78.8406C196.257 78.6328 195.794 78.5515 195.338 78.6071C194.881 78.6627 194.451 78.8527 194.103 79.1529C193.754 79.4532 193.503 79.8501 193.381 80.2935C193.218 80.8838 193.294 81.5147 193.594 82.0487C193.895 82.5826 194.393 82.9764 194.982 83.1442Z" fill="black" stroke="black" stroke-width="0.232143" stroke-linecap="round" stroke-linejoin="round"/>
<path d="M197.017 141.449C199.338 148.701 204.445 148.209 207.644 156.037C209.195 159.807 202.644 174.065 216.976 183.43C222.218 186.847 230.236 181.494 226.759 173.898C230.427 176.86 231.708 174.743 231.708 174.743C231.708 174.743 231.485 173.41 226.93 166.493C221.057 157.583 214.232 146.589 211.256 140.729C205.838 129.977 194.783 134.48 197.017 141.449Z" fill="#999999" stroke="black" stroke-width="0.232143" stroke-linecap="round" stroke-linejoin="round"/>
<path d="M183.974 49.6506L186.923 54.5581C186.923 54.5581 184.531 56.8471 182.28 55.951C180.028 55.0549 178.301 52.8913 178.301 52.8913C178.913 52.1933 179.625 51.5894 180.413 51.0992C181.547 50.4953 182.741 50.0099 183.974 49.6506Z" fill="black" stroke="black" stroke-width="0.232143" stroke-linecap="round" stroke-linejoin="round"/>
<path d="M206.562 116.958L206.891 114.98C206.911 114.868 206.909 114.752 206.884 114.641C206.859 114.529 206.812 114.424 206.746 114.33C206.68 114.237 206.596 114.158 206.499 114.097C206.402 114.037 206.294 113.996 206.181 113.977L181.769 109.859C181.541 109.821 181.308 109.876 181.12 110.01C180.932 110.144 180.805 110.347 180.766 110.574L180.432 112.547C180.394 112.775 180.448 113.008 180.582 113.196C180.716 113.384 180.919 113.512 181.147 113.55L205.559 117.668C205.786 117.706 206.019 117.653 206.206 117.52C206.394 117.387 206.522 117.185 206.562 116.958Z" fill="#808080" stroke="black" stroke-width="0.232143" stroke-linecap="round" stroke-linejoin="round"/>
<path d="M205.633 86.4547L254.328 123.598C254.682 123.869 254.966 124.221 255.159 124.624C255.346 125.028 255.436 125.469 255.423 125.914C255.298 129.749 240.705 138.589 225.412 131.625C206.506 123.017 198.748 97.4815 199.106 88.9525C199.291 84.2029 204.203 85.3636 205.633 86.4547Z" fill="#4C4C4C" stroke="black" stroke-width="0.232143" stroke-linecap="round" stroke-linejoin="round"/>
<path d="M173.561 132.284C173.561 132.284 176.499 132.447 178.352 131.648" stroke="black" stroke-width="0.232143" stroke-linecap="round" stroke-linejoin="round"/>
<path d="M136.074 101.446C136.457 101.997 136.946 102.466 137.511 102.828C138.076 103.19 138.707 103.436 139.367 103.554C140.028 103.672 140.705 103.658 141.36 103.514C142.016 103.37 142.636 103.098 143.186 102.714C144.044 102.087 144.849 101.393 145.596 100.639C143.225 98.2079 140.646 95.9895 137.889 94.0085C137.7 94.1066 137.517 94.2151 137.341 94.3335C136.791 94.7172 136.321 95.2056 135.96 95.7707C135.598 96.3359 135.351 96.9668 135.234 97.6273C135.116 98.2879 135.129 98.9652 135.274 99.6205C135.418 100.276 135.69 100.896 136.074 101.446Z" fill="white" stroke="black" stroke-width="0.232143" stroke-linecap="round" stroke-linejoin="round"/>
<path d="M138.051 85.1545C138.051 85.1545 133.6 83.6818 130.231 85.1545C126.862 86.6272 126.443 90.0714 126.443 90.0714" stroke="black" stroke-width="0.232143" stroke-linecap="round" stroke-linejoin="round"/>
<path d="M172.873 102.143C172.873 102.143 175.19 100.194 175.558 97.2934C175.789 95.6321 175.62 93.914 175.078 92.3928" stroke="black" stroke-width="0.232143" stroke-linecap="round" stroke-linejoin="round"/>
<path d="M139.117 82.7448C139.117 82.7448 131.282 79.5438 124.893 84.9673C120.901 88.3565 120.745 94.1315 120.745 94.1315" stroke="#666666" stroke-width="0.232143" stroke-linecap="round" stroke-linejoin="round"/>
<path d="M187.548 116.8C187.548 116.8 183.3 118.24 178.643 122.344C174.753 125.775 173.56 132.27 173.56 132.27C173.56 132.27 146.538 131.709 143.933 130.353C141.329 128.997 137.601 126.81 136.807 131.792C136.013 136.774 150.587 139.731 150.587 139.731C150.587 139.731 158.986 140.135 166.168 141.277C173.351 142.42 179.869 143.539 186.1 140.929L193.013 138.032" fill="white"/>
<path d="M187.548 116.8C187.548 116.8 183.3 118.24 178.643 122.344C174.753 125.775 173.56 132.27 173.56 132.27C173.56 132.27 146.538 131.709 143.933 130.353C141.329 128.997 137.601 126.81 136.807 131.792C136.013 136.774 150.587 139.731 150.587 139.731C150.587 139.731 158.986 140.135 166.168 141.277C173.351 142.42 179.869 143.539 186.1 140.929L193.013 138.032" stroke="black" stroke-width="0.232143" stroke-linecap="round" stroke-linejoin="round"/>
<path d="M252.758 199.55C252.712 199.55 252.665 199.643 252.665 199.689C253.176 203.125 252.294 205.818 250.483 206.654C248.208 207.629 244.912 205.679 241.43 201.314C238.551 197.646 236.601 194.814 235.347 192.632C236.276 186.039 235.069 179.632 231.819 174.711V174.664C231.68 174.246 230.983 172.436 227.037 166.446C224.065 161.943 220.722 156.696 217.797 151.868C217.473 151.328 217.149 150.772 216.816 150.2L216.815 150.199L216.813 150.196C216.575 149.786 216.331 149.369 216.08 148.943C216.822 148.293 217.426 147.596 217.844 147.039C218.122 146.668 218.308 146.25 218.401 145.786C218.494 145.321 218.447 144.857 218.308 144.439L210.647 119.6C214.501 124.614 219.376 129.025 225.365 131.764C229.451 133.621 233.49 134.364 237.251 134.364C242.962 134.364 248.022 132.646 251.412 130.557C253.919 129.025 255.497 127.261 255.497 125.961C255.497 125.496 255.405 125.032 255.219 124.614C255.033 124.196 254.708 123.825 254.337 123.546L205.633 86.4035C205.619 86.4035 205.609 86.3992 205.601 86.3932C205.596 86.3893 205.591 86.3848 205.587 86.3803C205.575 86.3687 205.563 86.3571 205.54 86.3571C204.89 84.3607 203.915 82.3642 202.662 80.2749C201.362 78.1857 199.737 75.5392 197.972 72.6607C198.576 71.6857 198.947 70.6178 199.087 69.4571C199.18 68.7607 199.133 68.1107 199.04 67.4607C199.226 67.5535 199.412 67.6464 199.644 67.6464C199.922 67.6464 200.201 67.5535 200.433 67.3678C200.712 67.1821 200.851 66.8571 200.897 66.5321C200.944 66.2071 200.851 65.8821 200.619 65.6035L200.572 65.5571L203.869 62.9107L203.915 62.9571C204.101 63.2357 204.426 63.375 204.751 63.4214H204.89C205.169 63.4214 205.447 63.3285 205.633 63.1428C206.144 62.725 206.237 61.9357 205.819 61.425L205.447 60.9607C205.459 60.9607 205.473 60.9636 205.489 60.9679C205.498 60.9704 205.508 60.9734 205.518 60.9765C205.525 60.9789 205.533 60.9814 205.54 60.9839C205.575 60.9955 205.61 61.0071 205.633 61.0071H205.772C206.051 61.0071 206.33 60.9142 206.515 60.7285C206.747 60.5428 206.933 60.2642 206.98 59.9392C207.583 60.1714 208.28 60.3107 208.976 60.3107C212.133 60.3107 214.687 57.7571 214.687 54.6C214.687 51.4428 212.133 48.8892 208.976 48.8892C205.819 48.8892 203.265 51.4428 203.265 54.6C203.265 54.8321 203.265 55.1107 203.312 55.3428C202.987 55.2964 202.708 55.3892 202.43 55.6214C202.151 55.8071 202.012 56.1321 201.965 56.4571V56.6428L201.594 56.1785C201.176 55.6678 200.387 55.575 199.876 55.9928C199.365 56.4107 199.272 57.2 199.69 57.7107L199.737 57.8035L196.44 60.45L196.394 60.3571C195.976 59.8464 195.187 59.7535 194.676 60.1714C194.258 60.4964 194.119 61.0071 194.258 61.4714C193.655 61.2392 193.005 61.0535 192.308 61.0071C191.797 60.9607 191.287 60.9607 190.823 60.9607C189.29 58.4535 187.897 56.1321 186.783 54.275C188.037 52.6035 189.105 50.7464 189.894 48.7964C191.844 44.1071 192.355 39 191.333 34.0321C190.358 29.0642 187.897 24.5142 184.322 20.9392C180.747 17.3642 176.197 14.95 171.23 13.9285C166.262 12.9535 161.155 13.4642 156.465 15.3678C151.822 17.3178 147.83 20.5678 144.997 24.7928C142.212 28.9714 140.68 33.9392 140.68 39C140.68 45.7785 143.372 52.2785 148.155 57.0607C152.937 61.8428 159.437 64.5357 166.215 64.5357C169.187 64.5357 172.065 64.025 174.851 63.05C173.04 67.1821 173.737 72.7071 174.99 77.3964L169.976 80.3214C168.676 79.8107 167.376 79.8571 166.262 80.4607C166.169 80.4375 166.088 80.4142 166.006 80.391C165.925 80.3678 165.844 80.3446 165.751 80.3214C160.226 78.975 155.305 79.9035 151.915 82.9214C148.062 86.4035 142.862 88.2142 136.965 88.2142H136.687C135.665 88.1678 134.69 88.3535 133.808 88.7714C133.781 88.7805 133.755 88.7897 133.731 88.7988C133.693 88.8129 133.658 88.827 133.622 88.841C133.564 88.8642 133.506 88.8875 133.437 88.9107L133.39 88.9571C133.019 89.1892 132.647 89.4215 132.276 89.7L130.372 91.4642C130.355 91.482 130.337 91.4929 130.322 91.5023C130.297 91.5174 130.28 91.5284 130.28 91.5571C128.051 93.5535 132.601 102.236 140.355 110.871C147.133 118.393 153.958 123.407 157.162 123.407C157.719 123.407 158.137 123.268 158.462 122.989L158.508 122.943L160.458 121.132C160.783 120.807 161.108 120.436 161.34 120.064C161.34 120.064 161.387 120.064 161.387 120.018C161.433 119.971 161.48 119.879 161.526 119.786C162.037 118.904 162.362 117.929 162.455 116.907C163.058 110.871 165.472 105.811 169.372 102.329C172.39 99.6357 173.876 95.5964 173.644 90.7678C174.851 89.7464 175.362 88.3071 175.083 86.6821L177.312 84.3142C177.355 84.401 177.398 84.4924 177.445 84.5896C177.547 84.8044 177.663 85.048 177.822 85.3357C177.964 85.6353 178.085 85.8975 178.184 86.1131L178.185 86.1143C178.377 86.5325 178.488 86.7749 178.519 86.7749C178.519 86.8214 178.565 86.8214 178.612 86.8214L178.808 87.206C179.947 89.4391 181.436 92.3585 182.883 94.9464C183.858 100.796 183.858 105.3 182.883 109.943L181.63 109.711C181.351 109.664 181.119 109.711 180.887 109.896C180.655 110.036 180.515 110.268 180.469 110.546L180.144 112.543C180.097 112.821 180.144 113.054 180.33 113.286C180.469 113.518 180.701 113.657 180.98 113.704L181.862 113.843C181.815 113.982 181.769 114.121 181.722 114.214C181.444 114.539 177.405 119.554 175.037 126.889C175.017 126.968 174.989 127.047 174.96 127.129C174.92 127.241 174.878 127.359 174.851 127.493C173.876 129.721 173.412 131.718 173.319 132.182L172.908 132.172H172.907L172.906 132.172C169.175 132.08 146.179 131.516 143.837 130.279L143.512 130.093L143.453 130.063C141.745 129.186 139.641 128.105 138.172 128.839C137.337 129.257 136.78 130.232 136.547 131.811C135.784 136.658 148.907 139.553 150.326 139.866L150.399 139.882L150.43 139.889C150.522 139.889 158.926 140.307 165.983 141.421L166.447 141.514L166.451 141.515L166.451 141.515C167.054 141.608 167.656 141.7 168.212 141.793C160.922 143.789 152.565 145.971 151.033 145.693L150.662 145.646L150.575 145.632C148.688 145.309 146.418 144.921 145.23 146.064C144.951 146.343 144.719 146.714 144.626 147.132V142.025C144.626 141.375 144.487 140.771 144.255 140.168C144.022 139.564 143.651 139.054 143.187 138.589C142.722 138.125 142.212 137.8 141.608 137.521C141.005 137.289 140.401 137.15 139.751 137.15H111.43V106.646C111.43 105.161 110.872 103.768 109.805 102.7C109.387 102.282 108.969 101.957 108.458 101.725C108.18 101.261 107.855 100.796 107.483 100.379C106.415 99.3107 105.022 98.7535 103.537 98.7535H12.5367C11.0509 98.7535 9.65809 99.3107 8.59023 100.379C7.52238 101.446 6.96523 102.839 6.96523 104.325V154.004C6.96523 155.489 7.52238 156.882 8.59023 157.95C9.00809 158.368 9.42595 158.693 9.93666 158.925C10.2152 159.389 10.5402 159.854 10.9117 160.271C11.9795 161.339 13.3724 161.896 14.8581 161.896H28.6938V214.361L5.99023 232.886V234.975C5.99023 235.718 6.26881 236.414 6.82595 236.925C7.33666 237.436 8.03309 237.761 8.77595 237.761H165.937C166.68 237.761 167.376 237.482 167.887 236.925C168.397 236.414 168.722 235.718 168.722 234.975V232.886L144.997 214.221C144.997 214.221 144.951 214.175 144.905 214.175H144.858V149.546C145.555 152.425 150.94 153.029 155.212 153.029C157.951 153.029 160.226 152.796 160.505 152.75C160.519 152.75 160.719 152.699 161.074 152.61C163.049 152.111 169.805 150.405 175.826 149.5H175.965C176.755 151.45 177.822 153.4 179.122 155.35C183.858 162.407 199.04 178.471 205.262 184.971C204.194 187.154 203.172 189.429 202.43 191.471C197.022 206.422 199.086 216.525 199.351 217.818C199.356 217.846 199.361 217.87 199.365 217.889L192.215 225.132C191.287 224.714 187.34 224.621 185.112 225.457C184.23 225.782 183.672 226.246 183.487 226.804C183.208 227.686 183.58 228.614 184.647 229.45C186.04 230.564 188.269 231.354 190.358 231.354C191.519 231.354 192.587 231.121 193.469 230.611C193.502 230.594 193.578 230.557 193.692 230.502C194.853 229.942 199.954 227.478 204.055 224.9C204.196 225.395 204.326 225.806 204.425 226.122C204.521 226.427 204.589 226.643 204.612 226.757L195.047 234.929C194.119 234.511 190.172 234.418 187.944 235.207C187.062 235.532 186.505 235.996 186.272 236.554C185.947 237.436 186.365 238.364 187.387 239.2C188.78 240.314 191.008 241.104 193.097 241.104C194.212 241.104 195.326 240.871 196.208 240.361C196.858 240.082 211.576 233.118 212.412 229.682C212.505 229.357 212.458 229.032 212.272 228.754L212.268 228.732C212.134 228.078 210.488 220.065 223.044 212.55C227.269 209.996 230.844 205.679 233.072 200.479C234.372 202.057 235.997 203.868 238.087 205.911C241.569 209.439 245.097 210.832 247.93 210.832C249.647 210.832 251.133 210.321 252.201 209.486C254.94 207.35 255.172 203.45 252.851 199.55C252.851 199.55 252.805 199.504 252.758 199.55Z" fill="url(#paint0_linear_2320_146509)" style="mix-blend-mode:overlay"/>
<path fill-rule="evenodd" clip-rule="evenodd" d="M10.6332 72.1964H12.9546V80.1357C12.9546 80.5535 13.2796 80.8785 13.6974 80.8785H18.7117C19.1296 80.8785 19.4546 80.5535 19.4546 80.1357V72.1964H92.1153V80.1357C92.1153 80.5535 92.4403 80.8785 92.8582 80.8785H97.8724C98.2903 80.8785 98.6153 80.5535 98.6153 80.1357V72.1964H101.494C102.33 72.1964 102.98 71.4999 102.98 70.7106V67.9714C102.98 67.1356 102.283 66.4856 101.494 66.4856H92.0689C92.2546 66.2999 92.3939 66.0678 92.4403 65.7892L92.8117 63.4678C93.3224 60.5428 93.5546 57.5714 93.5546 54.5999V50.0964C93.5546 49.7714 93.4153 49.4928 93.2296 49.2606C92.9974 49.0285 92.7189 48.9356 92.3939 48.9356H92.0224C93.0439 47.7749 94.0653 46.5678 94.6224 45.6856C96.201 43.1785 98.8474 35.9821 98.8474 35.9356C98.8474 35.8892 98.8474 35.8428 98.801 35.7964C98.7701 35.7654 98.7391 35.7757 98.7082 35.786C98.6927 35.7912 98.6772 35.7964 98.6617 35.7964C98.6153 35.8428 97.3617 37.2356 95.876 38.9535C96.1082 38.1642 96.4332 37.3285 96.9903 36.2606C98.1448 33.9878 99.3273 30.9581 99.819 29.6982C99.96 29.3369 100.044 29.121 100.055 29.1106C100.055 29.0642 100.055 29.0178 100.008 28.9714C99.9617 28.9249 99.9153 28.9249 99.8689 28.9714C98.1974 30.4106 96.6189 31.9892 95.0867 33.6142C96.201 25.9999 96.7117 16.5749 96.7117 16.4356C96.7117 16.3892 96.6653 16.3428 96.6189 16.3428C96.5724 16.3428 96.526 16.3428 96.4796 16.3892C96.4756 16.3972 96.426 16.4661 96.3364 16.5902C95.3884 17.9053 89.9658 25.4273 86.8689 32.6392C86.0283 28.6192 84.9577 24.7718 84.5399 23.2707L84.5396 23.2696C84.4268 22.8644 84.3617 22.6304 84.3617 22.6106C84.3617 22.5642 84.3153 22.5178 84.2689 22.5178C84.2224 22.5178 84.176 22.5642 84.176 22.6106C84.1296 22.7035 81.6689 31.4321 81.576 38.1642C81.576 41.8785 82.226 45.4999 83.5724 48.9821H80.5546C80.3224 46.7535 79.951 43.5964 79.3939 41.8785C78.5582 39.0464 74.7974 32.3606 74.751 32.3142C74.7046 32.2678 74.6582 32.2214 74.6117 32.2678C74.5653 32.2678 74.5189 32.3142 74.5189 32.4071C74.5189 32.4999 75.6332 41.0892 76.4689 43.7821C76.9332 45.2214 78.0474 47.3571 79.0224 49.0285H78.3724C78.0474 49.0285 77.7689 49.1678 77.5367 49.3535C77.3046 49.5857 77.2117 49.8642 77.2117 50.1892V54.6928C77.2117 57.6642 77.4439 60.6356 77.9546 63.5606L78.326 65.8821C78.3724 66.1606 78.5117 66.3928 78.6974 66.5785H61.1474L70.851 64.6749C71.4082 64.5821 71.7796 64.0249 71.6403 63.4678L63.7474 23.5856C63.6546 23.0285 63.0974 22.6571 62.5403 22.7964L51.7689 24.9321C51.7224 24.9321 51.676 24.9321 51.6296 24.9785C51.5367 24.5142 51.1189 24.1428 50.6082 24.1428H39.7439C39.1867 24.1428 38.7224 24.6071 38.7224 25.1642V65.8356C38.7224 66.1606 38.8617 66.4392 39.0939 66.6249H37.3296C37.5617 66.4392 37.701 66.1606 37.701 65.8356V24.9785C37.701 24.4214 37.2367 23.9571 36.6796 23.9571H25.676C25.1189 23.9571 24.6546 24.4214 24.6546 24.9785V65.6499C24.6546 65.9749 24.7939 66.2535 25.026 66.4392H10.6332C9.79744 66.4392 9.14744 67.1357 9.14744 67.9249V70.6642C9.10101 71.5464 9.79744 72.1964 10.6332 72.1964ZM51.7689 65.6499V29.5285L58.9189 65.8356C58.9653 66.0678 59.1046 66.2999 59.2903 66.4392H51.3974C51.5832 66.2535 51.7689 65.9749 51.7689 65.6499Z" fill="url(#paint1_linear_2320_146509)" style="mix-blend-mode:overlay"/>
<path d="M126.333 90.0714C126.333 90.025 126.797 86.5428 130.187 85.0571C133.576 83.5714 138.033 85.0107 138.033 85.0571C138.126 85.0571 138.126 85.15 138.126 85.1964C138.126 85.2893 138.033 85.2893 137.987 85.2893C137.984 85.2893 137.959 85.2824 137.916 85.2701L137.916 85.2699C137.333 85.1032 133.301 83.95 130.233 85.2893C126.983 86.7286 126.519 90.0714 126.519 90.1179C126.519 90.1643 126.472 90.2107 126.426 90.2107C126.38 90.2107 126.333 90.1179 126.333 90.0714Z" fill="url(#paint2_linear_2320_146509)" style="mix-blend-mode:overlay"/>
<path d="M172.808 102.05C172.762 102.096 172.762 102.143 172.808 102.236C172.808 102.282 172.855 102.282 172.901 102.282C172.947 102.282 172.947 102.282 172.994 102.236C173.04 102.236 175.362 100.239 175.733 97.3142C175.965 95.6428 175.78 93.8785 175.269 92.3464C175.269 92.2999 175.176 92.2535 175.13 92.2535C175.083 92.2535 175.037 92.3464 175.037 92.3928C175.547 93.8785 175.733 95.5964 175.501 97.2214C175.083 100.1 172.808 102.05 172.808 102.05Z" fill="url(#paint3_linear_2320_146509)" style="mix-blend-mode:overlay"/>
<path d="M120.901 94.1571C120.901 94.2035 120.808 94.2499 120.762 94.2499C120.669 94.2499 120.622 94.2035 120.669 94.1571C120.669 94.1106 120.855 88.3071 124.847 84.9178C131.208 79.5321 139.101 82.6428 139.194 82.6892C139.24 82.6892 139.287 82.7821 139.24 82.8285C139.24 82.8749 139.147 82.9213 139.101 82.8749C139.008 82.8285 131.255 79.7642 124.987 85.0571C121.087 88.3999 120.901 94.1106 120.901 94.1571Z" fill="url(#paint4_linear_2320_146509)" style="mix-blend-mode:overlay"/>
</g>
<defs>
<linearGradient id="paint0_linear_2320_146509" x1="255.497" y1="126.92" x2="5.99024" y2="126.92" gradientUnits="userSpaceOnUse">
<stop stop-color="#E60050"/>
<stop offset="1" stop-color="#5D6AE8"/>
</linearGradient>
<linearGradient id="paint1_linear_2320_146509" x1="255.497" y1="126.92" x2="5.99024" y2="126.92" gradientUnits="userSpaceOnUse">
<stop stop-color="#E60050"/>
<stop offset="1" stop-color="#5D6AE8"/>
</linearGradient>
<linearGradient id="paint2_linear_2320_146509" x1="255.497" y1="126.92" x2="5.99024" y2="126.92" gradientUnits="userSpaceOnUse">
<stop stop-color="#E60050"/>
<stop offset="1" stop-color="#5D6AE8"/>
</linearGradient>
<linearGradient id="paint3_linear_2320_146509" x1="255.497" y1="126.92" x2="5.99024" y2="126.92" gradientUnits="userSpaceOnUse">
<stop stop-color="#E60050"/>
<stop offset="1" stop-color="#5D6AE8"/>
</linearGradient>
<linearGradient id="paint4_linear_2320_146509" x1="255.497" y1="126.92" x2="5.99024" y2="126.92" gradientUnits="userSpaceOnUse">
<stop stop-color="#E60050"/>
<stop offset="1" stop-color="#5D6AE8"/>
</linearGradient>
<clipPath id="clip0_2320_146509">
<rect width="260" height="260" fill="white"/>
</clipPath>
</defs>
</svg>
