<svg width="260" height="260" viewBox="0 0 260 260" fill="none" xmlns="http://www.w3.org/2000/svg">
<g clip-path="url(#clip0_2628_309571)">
<path d="M214.002 4.17871H108.086C106.638 4.17871 105.465 5.35208 105.465 6.79951V76.7503C105.465 78.1977 106.638 79.3711 108.086 79.3711H214.002C215.449 79.3711 216.623 78.1977 216.623 76.7503V6.79951C216.623 5.35208 215.449 4.17871 214.002 4.17871Z" fill="#E5E5E5" stroke="black" stroke-width="0.232143" stroke-linecap="round" stroke-linejoin="round"/>
<path d="M108.085 4.17871H214.001C214.696 4.17871 215.363 4.45483 215.854 4.94632C216.346 5.43782 216.622 6.10443 216.622 6.79951V9.94261H105.465V6.79951C105.465 6.10459 105.741 5.43812 106.232 4.94665C106.723 4.45518 107.39 4.17896 108.085 4.17871Z" fill="#CCCCCC" stroke="black" stroke-width="0.232143" stroke-miterlimit="10" stroke-linecap="round" stroke-linejoin="round"/>
<path d="M108.632 8.14447C109.232 8.14447 109.717 7.65857 109.717 7.05917C109.717 6.45978 109.232 5.97388 108.632 5.97388C108.033 5.97388 107.547 6.45978 107.547 7.05917C107.547 7.65857 108.033 8.14447 108.632 8.14447Z" fill="white" stroke="black" stroke-width="0.232143" stroke-linecap="round" stroke-linejoin="round"/>
<path d="M112.308 8.14447C112.907 8.14447 113.393 7.65857 113.393 7.05917C113.393 6.45978 112.907 5.97388 112.308 5.97388C111.709 5.97388 111.223 6.45978 111.223 7.05917C111.223 7.65857 111.709 8.14447 112.308 8.14447Z" fill="white" stroke="black" stroke-width="0.232143" stroke-linecap="round" stroke-linejoin="round"/>
<path d="M115.98 8.14447C116.579 8.14447 117.065 7.65857 117.065 7.05917C117.065 6.45978 116.579 5.97388 115.98 5.97388C115.38 5.97388 114.895 6.45978 114.895 7.05917C114.895 7.65857 115.38 8.14447 115.98 8.14447Z" fill="white" stroke="black" stroke-width="0.232143" stroke-linecap="round" stroke-linejoin="round"/>
<path d="M211.792 13.657H110.295C109.427 13.657 108.723 14.361 108.723 15.2295V37.4651C108.723 38.3335 109.427 39.0376 110.295 39.0376H211.792C212.66 39.0376 213.364 38.3335 213.364 37.4651V15.2295C213.364 14.361 212.66 13.657 211.792 13.657Z" fill="white"/>
<path d="M140.293 42.4062H110.295C109.427 42.4062 108.723 43.1103 108.723 43.9787V73.9769C108.723 74.8454 109.427 75.5494 110.295 75.5494H140.293C141.162 75.5494 141.866 74.8454 141.866 73.9769V43.9787C141.866 43.1103 141.162 42.4062 140.293 42.4062Z" fill="white"/>
<path d="M211.649 42.4062H147.151C146.282 42.4062 145.578 43.1103 145.578 43.9787V73.9769C145.578 74.8454 146.282 75.5494 147.151 75.5494H211.649C212.517 75.5494 213.221 74.8454 213.221 73.9769V43.9787C213.221 43.1103 212.517 42.4062 211.649 42.4062Z" fill="white"/>
<path d="M125.293 71.392C118.446 71.392 112.875 65.8213 112.875 58.974C112.875 52.1266 118.452 46.5605 125.293 46.5605C132.134 46.5605 137.71 52.1312 137.71 58.9777C137.71 65.8241 132.143 71.392 125.293 71.392ZM125.293 51.2872C123.772 51.287 122.286 51.7378 121.022 52.5824C119.757 53.4271 118.772 54.6277 118.19 56.0325C117.608 57.4373 117.456 58.9831 117.752 60.4745C118.049 61.9658 118.781 63.3357 119.856 64.4109C120.931 65.4861 122.301 66.2183 123.793 66.5149C125.284 66.8115 126.83 66.6592 128.234 66.0772C129.639 65.4952 130.84 64.5097 131.685 63.2454C132.529 61.981 132.98 60.4945 132.98 58.974C132.976 56.9367 132.165 54.9839 130.724 53.5437C129.283 52.1035 127.33 51.2934 125.293 51.2909V51.2872Z" fill="#B3B3B3"/>
<path d="M125.293 71.392C118.446 71.392 112.875 65.8213 112.875 58.974C112.873 57.1499 113.274 55.3478 114.049 53.6966C114.824 52.0453 115.954 50.5856 117.359 49.4217L120.382 53.0594C118.989 54.2138 118.048 55.8225 117.724 57.6025C117.4 59.3825 117.715 61.2196 118.612 62.7907C119.509 64.3618 120.932 65.5661 122.629 66.1918C124.327 66.8176 126.19 66.8245 127.893 66.2115C129.595 65.5985 131.026 64.4048 131.935 62.8405C132.844 61.2762 133.172 59.4414 132.861 57.6591C132.551 55.8767 131.622 54.261 130.237 53.0962C128.853 51.9314 127.102 51.2921 125.293 51.2909V46.5605C132.14 46.5605 137.71 52.1312 137.71 58.9777C137.71 65.8241 132.143 71.392 125.293 71.392Z" fill="#E5E5E5"/>
<path d="M125.293 71.392C118.446 71.392 112.875 65.8213 112.875 58.974C112.867 56.2723 113.748 53.6431 115.382 51.4915L119.156 54.3444C118.145 55.6756 117.6 57.3025 117.605 58.974C117.605 60.4946 118.055 61.9814 118.899 63.2463C119.743 64.5111 120.943 65.4972 122.348 66.0797C123.753 66.6623 125.298 66.8152 126.79 66.5191C128.282 66.223 129.652 65.4912 130.727 64.4162C131.803 63.3413 132.536 61.9715 132.833 60.4801C133.13 58.9887 132.978 57.4427 132.396 56.0377C131.814 54.6327 130.829 53.4318 129.565 52.5869C128.3 51.7419 126.814 51.2909 125.293 51.2909V46.5605C132.14 46.5605 137.71 52.1312 137.71 58.9777C137.71 65.8241 132.143 71.392 125.293 71.392Z" fill="#4C4C4C"/>
<path d="M125.293 71.392C118.446 71.392 112.875 65.8213 112.875 58.974C112.875 58.0408 112.979 57.1105 113.187 56.2006L117.805 57.2564C117.448 58.8107 117.582 60.4378 118.191 61.9122C118.799 63.3866 119.851 64.6353 121.201 65.4853C122.55 66.3353 124.131 66.7445 125.723 66.6563C127.316 66.5682 128.841 65.9869 130.089 64.9931C131.336 63.9992 132.244 62.642 132.686 61.1095C133.128 59.577 133.082 57.945 132.555 56.4396C132.028 54.9341 131.046 53.6298 129.745 52.7074C128.444 51.7849 126.888 51.2899 125.293 51.2909V46.5605C132.14 46.5605 137.71 52.1312 137.71 58.9777C137.71 65.8241 132.143 71.392 125.293 71.392Z" fill="#808080"/>
<path d="M125.292 71.392C123.049 71.3933 120.847 70.7867 118.922 69.6366C116.996 68.4866 115.418 66.8361 114.355 64.8608L118.515 62.6154C119.159 63.813 120.108 64.8187 121.266 65.53C122.425 66.2413 123.751 66.6326 125.11 66.6642C126.469 66.6958 127.812 66.3664 129.002 65.7097C130.193 65.053 131.187 64.0924 131.885 62.9259C132.583 61.7594 132.96 60.4287 132.976 59.0694C132.992 57.7101 132.647 56.3709 131.977 55.1882C131.307 54.0056 130.335 53.0217 129.16 52.3371C127.986 51.6525 126.651 51.2915 125.292 51.2909V46.5605C132.139 46.5605 137.709 52.1312 137.709 58.9777C137.709 65.8241 132.142 71.392 125.292 71.392Z" fill="#B3B3B3"/>
<path d="M126.844 71.2996L126.259 66.6062C128.2 66.3621 129.975 65.3872 131.222 63.8801C132.469 62.373 133.095 60.447 132.972 58.4946C132.849 56.5422 131.986 54.7102 130.559 53.3718C129.133 52.0334 127.249 51.2892 125.293 51.2909V46.5605C132.14 46.5605 137.71 52.1312 137.71 58.9777C137.713 65.2297 133.041 70.5277 126.844 71.2996Z" fill="#4C4C4C"/>
<path d="M149.059 48.7858C149.059 48.3236 149.402 47.9492 149.826 47.9492H155.198C155.621 47.9492 155.965 48.3236 155.965 48.7858V70.3337H149.059V48.7858Z" fill="#808080"/>
<path d="M159.801 49.9367C159.801 49.4745 160.145 49.1047 160.568 49.1047H165.94C166.363 49.1047 166.707 49.4745 166.707 49.9367V70.4381H159.801V49.9367Z" fill="#808080"/>
<path d="M170.543 54.1208C170.543 53.6586 170.887 53.2888 171.31 53.2888H176.681C177.106 53.2888 177.449 53.6586 177.449 54.1208V70.4382H170.543V54.1208Z" fill="#808080"/>
<path d="M181.289 56.1085C181.289 55.6463 181.632 55.271 182.056 55.271H187.427C187.852 55.271 188.195 55.6463 188.195 56.1085V70.3339H181.289V56.1085Z" fill="#808080"/>
<path d="M192.031 57.3628C192.031 56.9005 192.374 56.5308 192.799 56.5308H198.17C198.594 56.5308 198.937 56.9061 198.937 57.3628V70.3336H192.031V57.3628Z" fill="#808080"/>
<path d="M202.773 58.4094C202.773 57.9472 203.116 57.5774 203.541 57.5774H208.912C209.336 57.5774 209.679 57.9472 209.679 58.4094V70.3347H202.773V58.4094Z" fill="#808080"/>
<path fill-rule="evenodd" clip-rule="evenodd" d="M195.855 30.73C195.863 30.7295 195.87 30.7294 195.878 30.7296L202.957 30.9487C202.961 30.9488 202.964 30.949 202.968 30.9493L210.047 31.4965C210.175 31.5064 210.271 31.6181 210.261 31.7459C210.251 31.8737 210.139 31.9693 210.011 31.9594L202.937 31.4126L195.874 31.194L188.806 31.6555C188.802 31.6558 188.798 31.6559 188.794 31.656L174.635 31.8409L174.632 31.8409H160.474C160.468 31.8409 160.462 31.8407 160.456 31.8402L153.392 31.2942L146.121 31.7452C146.115 31.7456 146.11 31.7457 146.104 31.7456L139.027 31.6532L131.951 31.7456L131.948 31.7457H124.868L117.794 31.6533L110.719 31.8445C110.591 31.848 110.484 31.7469 110.481 31.6187C110.477 31.4906 110.578 31.3838 110.706 31.3804L117.786 31.189C117.789 31.1889 117.792 31.1889 117.795 31.189L124.873 31.2814H131.948L139.03 31.1889L146.101 31.2813L153.38 30.8298C153.391 30.8291 153.401 30.8292 153.412 30.83L160.482 31.3766H174.632L188.782 31.1918L195.855 30.73Z" fill="#808080"/>
<path fill-rule="evenodd" clip-rule="evenodd" d="M210.259 18.8099C210.281 18.9362 210.197 19.0567 210.071 19.0791L203.02 20.3332L195.966 23.497C195.943 23.5074 195.918 23.5139 195.893 23.5163L188.813 24.1727C188.789 24.1749 188.764 24.1733 188.74 24.1676L181.693 22.5335L174.669 22.9683L167.61 24.7196C167.542 24.7365 167.47 24.7217 167.414 24.6794L160.509 19.45L153.572 27.603C153.511 27.6741 153.414 27.702 153.325 27.6739L146.089 25.3902L139.063 26.4774C139.052 26.479 139.042 26.4799 139.031 26.4801L131.952 26.5892C131.94 26.5894 131.928 26.5886 131.916 26.587L124.898 25.6134L110.795 30.9542C110.675 30.9996 110.541 30.9392 110.496 30.8193C110.45 30.6994 110.511 30.5654 110.63 30.52L124.789 25.1582C124.826 25.1444 124.865 25.14 124.903 25.1454L131.962 26.1247L139.008 26.0161L146.071 24.9231C146.107 24.9176 146.143 24.9204 146.177 24.9311L153.318 27.1848L160.298 18.9821C160.377 18.8884 160.517 18.8732 160.615 18.9475L167.606 24.2423L174.577 22.5126C174.591 22.5092 174.605 22.507 174.619 22.5062L181.698 22.068C181.721 22.0666 181.743 22.0685 181.765 22.0735L188.808 23.7069L195.812 23.0575L202.856 19.8979C202.873 19.8901 202.891 19.8845 202.91 19.8811L209.99 18.622C210.116 18.5996 210.236 18.6837 210.259 18.8099Z" fill="#4C4C4C"/>
<path d="M148.187 121.419C148.187 121.419 128.023 103.072 145.553 91.4644C145.81 91.1537 146.198 90.612 146.481 90.3037C149.499 85.4287 160.101 87.1816 164.931 91.7141C173.416 99.6764 169.538 107.249 179.914 109.941C190.958 112.807 205.983 116.597 207.331 140.507C208.679 164.417 186.223 173.914 174.976 171.8C163.728 169.687 151.095 125.301 151.095 125.301L148.187 121.419Z" fill="#B3B3B3" stroke="black" stroke-width="0.232143" stroke-linecap="round" stroke-linejoin="round"/>
<path d="M149.496 93.7859C150.347 94.405 152.653 95.6896 155.068 95.8753C157.482 96.061 161.8 95.643 164.585 93.7859" stroke="black" stroke-width="0.232143" stroke-linecap="round" stroke-linejoin="round"/>
<path d="M151.115 104.727C150.664 101.762 148.352 99.6564 145.952 100.026C143.551 100.395 141.971 103.098 142.422 106.064C142.873 109.03 145.184 111.135 147.585 110.766C149.986 110.397 151.566 107.693 151.115 104.727Z" fill="#4C4C4C" stroke="black" stroke-width="0.232143" stroke-linecap="round" stroke-linejoin="round"/>
<path d="M79.1668 209.359H158.305V177.951H79.1668V209.359Z" fill="#1A1A1A" stroke="black" stroke-width="0.232143" stroke-miterlimit="10" stroke-linecap="round" stroke-linejoin="round"/>
<path d="M183.59 254.957C183.889 254.957 184.185 254.891 184.456 254.764C184.728 254.638 184.968 254.453 185.16 254.223C185.353 253.993 185.492 253.724 185.569 253.435C185.647 253.146 185.659 252.843 185.607 252.548L179.627 219.039H170.629L181.637 253.53C181.769 253.945 182.03 254.306 182.381 254.562C182.732 254.819 183.155 254.957 183.59 254.957Z" fill="black" stroke="black" stroke-width="0.232143" stroke-miterlimit="10" stroke-linecap="round" stroke-linejoin="round"/>
<path d="M151.296 254.957C151.595 254.957 151.891 254.891 152.163 254.765C152.434 254.638 152.675 254.453 152.867 254.223C153.059 253.994 153.199 253.725 153.276 253.435C153.353 253.146 153.366 252.843 153.313 252.548L147.334 219.039H138.336L149.343 253.53C149.476 253.944 149.736 254.306 150.087 254.562C150.438 254.818 150.861 254.957 151.296 254.957Z" fill="black" stroke="black" stroke-width="0.232143" stroke-miterlimit="10" stroke-linecap="round" stroke-linejoin="round"/>
<path d="M123.006 254.957C122.706 254.957 122.411 254.891 122.139 254.764C121.868 254.638 121.627 254.453 121.435 254.223C121.243 253.993 121.103 253.724 121.026 253.435C120.949 253.146 120.936 252.843 120.989 252.548L126.968 219.039H135.967L124.958 253.53C124.826 253.945 124.566 254.306 124.215 254.562C123.864 254.819 123.441 254.957 123.006 254.957Z" fill="black" stroke="black" stroke-width="0.232143" stroke-miterlimit="10" stroke-linecap="round" stroke-linejoin="round"/>
<path d="M47.4475 254.957C47.1479 254.957 46.852 254.891 46.5805 254.765C46.309 254.638 46.0687 254.453 45.8763 254.223C45.684 253.994 45.5444 253.725 45.4673 253.435C45.3903 253.146 45.3777 252.843 45.4304 252.548L51.4097 219.039H60.4073L49.3972 253.53C49.2651 253.944 49.0051 254.305 48.6547 254.561C48.3044 254.818 47.8817 254.956 47.4475 254.957Z" fill="black" stroke="black" stroke-width="0.232143" stroke-miterlimit="10" stroke-linecap="round" stroke-linejoin="round"/>
<path d="M128.081 143.684H189.202C189.935 143.684 190.659 143.852 191.316 144.176C191.974 144.501 192.548 144.972 192.994 145.554C193.441 146.135 193.747 146.812 193.89 147.531C194.034 148.25 194.009 148.993 193.82 149.701L179.768 202.175C179.496 203.192 178.896 204.09 178.061 204.731C177.226 205.371 176.203 205.719 175.15 205.718H114.031C113.297 205.719 112.574 205.551 111.915 205.227C111.257 204.903 110.683 204.432 110.236 203.85C109.789 203.269 109.482 202.592 109.338 201.873C109.195 201.153 109.219 200.411 109.409 199.702L123.46 147.228C123.732 146.211 124.333 145.312 125.169 144.671C126.004 144.03 127.028 143.683 128.081 143.684Z" fill="#1A1A1A" stroke="black" stroke-width="0.232143" stroke-miterlimit="10" stroke-linecap="round" stroke-linejoin="round"/>
<path d="M186.308 199.859L196.746 152.544C197.611 148.622 195.133 144.741 191.211 143.876C187.289 143.011 183.408 145.489 182.543 149.411L172.106 196.726C171.24 200.648 173.718 204.529 177.64 205.394C181.562 206.259 185.443 203.781 186.308 199.859Z" fill="#666666" stroke="black" stroke-width="0.232143" stroke-miterlimit="10" stroke-linecap="round" stroke-linejoin="round"/>
<path d="M104.443 126.443L122.813 143.684L135.964 130.359L147.519 141.232C147.519 141.232 123.707 161.755 122.814 159.911C121.92 158.068 95.793 125.287 95.793 125.287L103.401 117.919L104.443 126.443Z" fill="#E5E5E5" stroke="black" stroke-width="0.232143" stroke-miterlimit="10" stroke-linecap="round" stroke-linejoin="round"/>
<path d="M127.733 219.982H180.364C184.381 219.982 187.637 216.727 187.637 212.71C187.637 208.694 184.381 205.438 180.364 205.438H127.733C123.716 205.438 120.46 208.694 120.46 212.71C120.46 216.727 123.716 219.982 127.733 219.982Z" fill="#333333" stroke="black" stroke-width="0.232143" stroke-miterlimit="10" stroke-linecap="round" stroke-linejoin="round"/>
<path d="M52.6477 219.982H147.474C151.48 219.982 154.727 216.735 154.727 212.73V212.69C154.727 208.685 151.48 205.438 147.474 205.438H52.6477C48.6424 205.438 45.3955 208.685 45.3955 212.69V212.73C45.3955 216.735 48.6424 219.982 52.6477 219.982Z" fill="#666666" stroke="black" stroke-width="0.232143" stroke-miterlimit="10" stroke-linecap="round" stroke-linejoin="round"/>
<path d="M86.1826 157.818H41.7344C41.2013 157.818 40.6752 157.941 40.197 158.177C39.7188 158.413 39.3013 158.755 38.9766 159.178C38.652 159.601 38.429 160.093 38.3248 160.616C38.2206 161.139 38.2381 161.679 38.3759 162.194L48.5938 200.352C48.7921 201.091 49.2287 201.744 49.8359 202.21C50.4431 202.676 51.187 202.928 51.9523 202.928H96.4004C96.9336 202.928 97.4596 202.806 97.9378 202.57C98.416 202.334 98.8335 201.992 99.1581 201.569C99.4827 201.146 99.7056 200.654 99.8096 200.131C99.9136 199.608 99.896 199.068 99.758 198.553L89.5402 160.393C89.3418 159.654 88.9053 159.001 88.2982 158.536C87.6912 158.07 86.9475 157.818 86.1826 157.818Z" fill="#666666" stroke="black" stroke-width="0.232143" stroke-miterlimit="10" stroke-linecap="round" stroke-linejoin="round"/>
<path d="M86.8662 160.324H42.418C41.8849 160.324 41.3588 160.446 40.8806 160.682C40.4024 160.918 39.9849 161.261 39.6602 161.684C39.3356 162.106 39.1126 162.598 39.0084 163.121C38.9042 163.644 38.9217 164.184 39.0595 164.699L49.2774 202.86C49.4755 203.599 49.912 204.253 50.5192 204.719C51.1265 205.184 51.8705 205.437 52.6359 205.437H97.084C97.6172 205.437 98.1432 205.314 98.6214 205.078C99.0996 204.842 99.5171 204.5 99.8417 204.077C100.166 203.654 100.389 203.162 100.493 202.639C100.597 202.116 100.58 201.576 100.442 201.061L90.2238 162.901C90.0259 162.162 89.5896 161.508 88.9825 161.042C88.3754 160.576 87.6315 160.324 86.8662 160.324Z" fill="#666666" stroke="black" stroke-width="0.232143" stroke-miterlimit="10" stroke-linecap="round" stroke-linejoin="round"/>
<path d="M126.504 135.632L140.115 146.355C140.115 146.355 157.125 126.949 152.71 119.257C148.295 111.565 126.504 135.632 126.504 135.632Z" fill="white" stroke="black" stroke-width="0.232143" stroke-miterlimit="10" stroke-linecap="round" stroke-linejoin="round"/>
<path d="M150.116 117.608L156.915 116.776L172.656 122.005C174.989 122.799 176.757 128.299 175.05 134.375L160.293 165.904L146.999 161.696L133.688 156.704C134.858 147.448 141.287 120.099 150.116 117.608Z" fill="white" stroke="black" stroke-width="0.232143" stroke-miterlimit="10" stroke-linecap="round" stroke-linejoin="round"/>
<path d="M160.256 108.687L163.092 118.53C163.286 119.203 163.336 119.909 163.237 120.601C163.139 121.294 162.895 121.958 162.521 122.55C162.147 123.141 161.653 123.647 161.07 124.034C160.486 124.421 159.828 124.68 159.138 124.794C157.93 124.993 156.692 124.739 155.66 124.08C154.629 123.421 153.878 122.404 153.552 121.224L150.578 110.467L160.256 108.687Z" fill="#E5E5E5" stroke="black" stroke-width="0.232143" stroke-miterlimit="10" stroke-linecap="round" stroke-linejoin="round"/>
<path d="M161.106 102.375L160.41 96.5715C160.41 96.5715 152.088 99.0422 146.733 92.7402C143.674 94.0705 144.415 98.2943 144.415 98.2943C144.415 98.2943 145.438 106.614 146.226 109.551C147.013 112.488 150.136 115.753 154.301 114.358C158.465 112.963 160.402 111.03 161.931 108.561C163.46 106.092 164.485 102.997 163.428 102.375C161.854 101.452 161.106 102.375 161.106 102.375Z" fill="#E5E5E5" stroke="black" stroke-width="0.232143" stroke-miterlimit="10" stroke-linecap="round" stroke-linejoin="round"/>
<path d="M154.499 98.5957L152.09 99.0413" stroke="black" stroke-width="0.232143" stroke-linecap="round" stroke-linejoin="round"/>
<path d="M147.804 99.6765L145.488 100.692" stroke="black" stroke-width="0.232143" stroke-linecap="round" stroke-linejoin="round"/>
<path d="M150.135 102.687C150.135 102.687 149.564 105.021 150 105.915C150.435 106.81 151.756 106.187 151.756 106.187" stroke="black" stroke-width="0.232143" stroke-linecap="round" stroke-linejoin="round"/>
<path d="M152.547 103.724C152.98 103.724 153.331 103.373 153.331 102.94C153.331 102.506 152.98 102.155 152.547 102.155C152.113 102.155 151.762 102.506 151.762 102.94C151.762 103.373 152.113 103.724 152.547 103.724Z" fill="black"/>
<path d="M146.734 104.873C147.168 104.873 147.519 104.521 147.519 104.088C147.519 103.654 147.168 103.303 146.734 103.303C146.301 103.303 145.949 103.654 145.949 104.088C145.949 104.521 146.301 104.873 146.734 104.873Z" fill="black"/>
<path d="M153.634 107.056L149.867 108.893C149.867 108.893 150.792 110.456 152.466 109.765C154.14 109.073 153.634 107.056 153.634 107.056Z" fill="white" stroke="black" stroke-width="0.232143" stroke-miterlimit="10" stroke-linecap="round" stroke-linejoin="round"/>
<path fill-rule="evenodd" clip-rule="evenodd" d="M146.366 101.37C144.801 101.37 143.531 102.639 143.531 104.205C143.531 105.771 144.801 107.041 146.366 107.041C147.932 107.041 149.202 105.771 149.202 104.205C149.202 102.639 147.932 101.37 146.366 101.37ZM143.113 104.205C143.113 102.409 144.57 100.952 146.366 100.952C148.163 100.952 149.62 102.409 149.62 104.205C149.62 106.002 148.163 107.458 146.366 107.458C144.57 107.458 143.113 106.002 143.113 104.205Z" fill="black"/>
<path fill-rule="evenodd" clip-rule="evenodd" d="M153.632 100.212C152.066 100.212 150.797 101.481 150.797 103.047C150.797 104.613 152.066 105.882 153.632 105.882C155.198 105.882 156.467 104.613 156.467 103.047C156.467 101.481 155.198 100.212 153.632 100.212ZM150.379 103.047C150.379 101.25 151.835 99.7937 153.632 99.7937C155.429 99.7937 156.885 101.25 156.885 103.047C156.885 104.843 155.429 106.3 153.632 106.3C151.835 106.3 150.379 104.843 150.379 103.047Z" fill="black"/>
<path d="M91.8644 164.082C91.8644 164.082 77.9977 194.342 77.9792 196.453C77.9728 197.448 78.3324 198.764 78.7188 199.873C78.8189 200.167 78.859 200.478 78.8365 200.788C78.814 201.098 78.7296 201.4 78.5881 201.677C78.4466 201.953 78.2509 202.198 78.0128 202.398C77.7746 202.597 77.4988 202.747 77.2018 202.838L60.0071 208.119C59.4959 208.276 58.9443 208.236 58.4609 208.007C57.9775 207.779 57.5972 207.377 57.3947 206.882C57.2166 206.448 57.1859 205.968 57.3075 205.514C57.4291 205.061 57.6962 204.661 58.0677 204.374L70.825 194.516L77.725 159.8L91.8644 164.082Z" fill="#E5E5E5" stroke="black" stroke-width="0.232143" stroke-linecap="round" stroke-linejoin="round"/>
<path d="M81.5533 202.679C81.5984 202.85 81.6093 203.028 81.5854 203.203C81.5615 203.378 81.5033 203.546 81.414 203.699C81.3248 203.851 81.2063 203.985 81.0654 204.091C80.9244 204.198 80.7638 204.275 80.5928 204.32C77.6568 205.079 70.583 206.894 68.0204 207.41C64.8893 208.04 59.0736 209.068 55.3694 209.166C47.9738 209.371 50.9265 207.771 57.4956 203.085C64.5482 198.057 68.9134 195.932 68.9134 195.932L71.4889 204.475L80.6483 202.143C80.8392 202.096 81.0412 202.125 81.2106 202.226C81.3799 202.326 81.503 202.488 81.5533 202.679Z" fill="#B3B3B3" stroke="black" stroke-width="0.232143" stroke-linecap="round" stroke-linejoin="round"/>
<path d="M54.3906 207.358C54.3906 207.358 57.5337 207.599 62.9288 206.492C68.7398 205.301 71.7452 204.409 71.7452 204.409" stroke="black" stroke-width="0.232143" stroke-linecap="round" stroke-linejoin="round"/>
<path d="M68.0738 198.683C68.0738 198.683 67.9694 199.718 68.5435 201.641C69.1175 203.564 69.6935 204.962 69.6935 204.962" stroke="black" stroke-width="0.232143" stroke-linecap="round" stroke-linejoin="round"/>
<path d="M65.8265 199.57C65.8265 199.57 65.7109 200.562 66.2628 202.393C66.8147 204.224 67.3721 205.559 67.3721 205.559" stroke="black" stroke-width="0.232143" stroke-linecap="round" stroke-linejoin="round"/>
<path d="M63.4252 200.629C63.4252 200.629 63.2828 201.516 63.7783 203.131C64.068 204.078 64.4074 205.008 64.7952 205.919" stroke="black" stroke-width="0.232143" stroke-linecap="round" stroke-linejoin="round"/>
<path d="M60.9604 201.654C60.9604 201.654 60.8005 202.476 61.2618 203.959C61.5306 204.829 61.8488 205.683 62.2149 206.517" stroke="black" stroke-width="0.232143" stroke-linecap="round" stroke-linejoin="round"/>
<path d="M58.4336 203.095C58.4336 203.095 58.2311 203.752 58.6055 204.896C58.8234 205.57 59.0906 206.227 59.4052 206.861" stroke="black" stroke-width="0.232143" stroke-linecap="round" stroke-linejoin="round"/>
<path d="M55.8125 204.519L56.5419 207.345" stroke="black" stroke-width="0.232143" stroke-linecap="round" stroke-linejoin="round"/>
<path d="M95.8538 142.722L114.953 177.951L138.499 183.005C138.499 183.005 138.469 206.149 118.901 205.894C93.2635 205.559 89.4428 168.09 89.4428 168.09L85.8679 179.43L72.0586 175.115L80.1262 144.608C82.098 137.146 92.1763 135.94 95.8538 142.722Z" fill="#333333" stroke="black" stroke-width="0.232143" stroke-linecap="round" stroke-linejoin="round"/>
<path d="M102.959 164.082C102.959 164.082 87.7116 196.807 87.4648 198.905C87.3483 199.894 87.5572 201.241 87.8198 202.386C87.8871 202.69 87.8927 203.004 87.8364 203.309C87.78 203.615 87.6628 203.906 87.4917 204.165C87.3206 204.424 87.0991 204.647 86.8404 204.819C86.5817 204.991 86.291 205.109 85.9857 205.166L68.3103 208.524C67.7853 208.623 67.2422 208.523 66.7875 208.242C66.3328 207.962 65.9992 207.521 65.8522 207.008C65.7231 206.557 65.7457 206.076 65.9163 205.639C66.087 205.202 66.3964 204.833 66.797 204.589L80.5629 196.192L90.7567 153.562L102.959 164.082Z" fill="#E5E5E5" stroke="black" stroke-width="0.232143" stroke-linecap="round" stroke-linejoin="round"/>
<path d="M88.965 204.512C89.0109 204.683 89.0227 204.861 88.9998 205.036C88.9768 205.211 88.9195 205.38 88.8311 205.533C88.7428 205.686 88.6251 205.82 88.4848 205.927C88.3445 206.034 88.1844 206.113 88.0137 206.159C85.0814 206.935 78.0186 208.79 75.4561 209.321C72.3287 209.968 66.5186 211.03 62.8152 211.153C55.4197 211.4 58.365 209.784 64.91 205.06C71.9358 199.992 76.2871 197.841 76.2871 197.841L78.9079 206.366L88.0535 203.982C88.2445 203.933 88.4475 203.96 88.6182 204.06C88.7889 204.159 88.9135 204.321 88.965 204.512Z" fill="#CCCCCC" stroke="black" stroke-width="0.232143" stroke-linecap="round" stroke-linejoin="round"/>
<path d="M61.8281 209.341C61.8281 209.341 64.9712 209.565 70.3607 208.427C76.1653 207.203 79.1661 206.293 79.1661 206.293" stroke="black" stroke-width="0.232143" stroke-linecap="round" stroke-linejoin="round"/>
<path d="M75.4594 200.587C75.4594 200.587 75.3605 201.624 75.9457 203.541C76.5309 205.458 77.1151 206.856 77.1151 206.856" stroke="black" stroke-width="0.232143" stroke-linecap="round" stroke-linejoin="round"/>
<path d="M73.2157 201.488C73.2157 201.488 73.1057 202.481 73.6678 204.31C74.2299 206.138 74.7956 207.469 74.7956 207.469" stroke="black" stroke-width="0.232143" stroke-linecap="round" stroke-linejoin="round"/>
<path d="M70.8217 202.562C70.8217 202.562 70.684 203.449 71.1915 205.058C71.485 206.002 71.8281 206.931 72.2195 207.839" stroke="black" stroke-width="0.232143" stroke-linecap="round" stroke-linejoin="round"/>
<path d="M68.3605 203.601C68.3605 203.601 68.2052 204.424 68.6757 205.904C68.9493 206.772 69.2722 207.624 69.6427 208.456" stroke="black" stroke-width="0.232143" stroke-linecap="round" stroke-linejoin="round"/>
<path d="M65.8444 205.056C65.8444 205.056 65.6457 205.714 66.0293 206.857C66.2516 207.529 66.5226 208.184 66.8401 208.816" stroke="black" stroke-width="0.232143" stroke-linecap="round" stroke-linejoin="round"/>
<path d="M63.2305 206.494L63.9756 209.316" stroke="black" stroke-width="0.232143" stroke-linecap="round" stroke-linejoin="round"/>
<path d="M107.308 143.192L125.275 169.038L133.386 156.751L162.968 167.737C162.968 167.737 156.975 205.932 124.562 205.894C104.988 205.872 100.56 172.836 100.56 172.836L97.2236 180.786L82.6562 175.115L90.7239 144.608C92.6966 137.146 102.748 135.796 107.308 143.192Z" fill="#333333" stroke="black" stroke-width="0.232143" stroke-linecap="round" stroke-linejoin="round"/>
<path d="M126.499 163.852L152.902 171.428L153.71 168.615L127.306 161.039L126.499 163.852Z" fill="#B3B3B3" stroke="black" stroke-width="0.232143" stroke-linecap="round" stroke-linejoin="round"/>
<path d="M96.0586 132.847L127.006 141.729L133.657 165.892L102.71 157.009L96.0586 132.847Z" fill="#CCCCCC" stroke="black" stroke-width="0.232143" stroke-linecap="round" stroke-linejoin="round"/>
<path d="M131.929 165.395L133.659 165.892L127.009 141.729L125.277 141.233L131.929 165.395Z" fill="#B3B3B3" stroke="black" stroke-width="0.232143" stroke-linecap="round" stroke-linejoin="round"/>
<path d="M150.524 167.737H188.361C188.74 167.737 189.114 167.822 189.455 167.987C189.797 168.151 190.096 168.391 190.332 168.687C190.568 168.984 190.734 169.33 190.818 169.699C190.901 170.069 190.901 170.452 190.815 170.822L183.306 203.351C183.178 203.906 182.866 204.401 182.42 204.756C181.974 205.111 181.421 205.304 180.852 205.303H143.015C142.636 205.304 142.262 205.218 141.921 205.054C141.579 204.889 141.28 204.65 141.044 204.353C140.808 204.057 140.642 203.711 140.558 203.341C140.475 202.971 140.475 202.588 140.561 202.219L148.07 169.688C148.198 169.133 148.511 168.638 148.956 168.284C149.402 167.93 149.955 167.737 150.524 167.737Z" fill="#666666" stroke="black" stroke-width="0.232143" stroke-miterlimit="10" stroke-linecap="round" stroke-linejoin="round"/>
<path d="M152.887 167.737H190.724C191.103 167.737 191.477 167.822 191.818 167.987C192.159 168.152 192.459 168.391 192.695 168.688C192.931 168.984 193.097 169.33 193.181 169.699C193.264 170.069 193.264 170.453 193.179 170.822L185.669 203.351C185.541 203.906 185.229 204.401 184.783 204.756C184.337 205.111 183.785 205.304 183.215 205.303H145.377C144.999 205.303 144.625 205.218 144.283 205.053C143.942 204.889 143.643 204.649 143.407 204.353C143.171 204.056 143.005 203.71 142.921 203.341C142.838 202.971 142.839 202.588 142.924 202.219L150.433 169.688C150.561 169.134 150.873 168.638 151.319 168.284C151.765 167.93 152.317 167.737 152.887 167.737Z" fill="#666666" stroke="black" stroke-width="0.232143" stroke-miterlimit="10" stroke-linecap="round" stroke-linejoin="round"/>
<path d="M167.344 140.115L166.204 161.516L144.603 161.155L139.437 158.273L135.277 158.012C135.277 158.012 132.545 160.431 132.966 161.014C133.388 161.596 134.484 161.027 134.484 161.027C134.484 161.027 134.175 162.891 134.761 162.888C135.347 162.884 135.501 162.712 135.501 162.712C135.501 162.712 135.49 164.006 135.862 164.115C136.235 164.224 136.675 164.033 136.675 164.033C136.675 164.033 136.743 165.562 137.363 165.481C137.982 165.399 138.153 164.345 138.153 164.345L142.618 165.851L170.916 172.803C175.593 173.182 178.659 170.713 179.591 164.724L179.919 142.583L167.344 140.115Z" fill="#E5E5E5" stroke="black" stroke-width="0.232143" stroke-miterlimit="10" stroke-linecap="round" stroke-linejoin="round"/>
<path d="M139.047 158.255C139.047 158.255 135.657 158.499 135.109 159.171C134.562 159.842 134.414 161.569 134.414 161.569" stroke="black" stroke-width="0.232143" stroke-miterlimit="10" stroke-linecap="round" stroke-linejoin="round"/>
<path d="M138.802 160.08C138.802 160.08 136.278 159.737 135.883 160.513C135.487 161.289 135.529 163.118 135.529 163.118" stroke="black" stroke-width="0.232143" stroke-miterlimit="10" stroke-linecap="round" stroke-linejoin="round"/>
<path d="M138.758 162.575C138.758 162.575 137.172 162.306 136.784 162.874C136.426 163.399 136.933 165.2 136.933 165.2" stroke="black" stroke-width="0.232143" stroke-miterlimit="10" stroke-linecap="round" stroke-linejoin="round"/>
<path d="M132.983 180.786L123.397 166.225L105.788 141.233C105.788 141.233 101.997 136.498 96.5607 138.612C91.124 140.726 90.8837 143.998 89.7069 148.45L85.8242 163.128" fill="#333333"/>
<path d="M132.983 180.786L123.397 166.225L105.788 141.233C105.788 141.233 101.997 136.498 96.5607 138.612C91.124 140.726 90.8837 143.998 89.7069 148.45L85.8242 163.128" stroke="black" stroke-width="0.232143" stroke-linecap="round" stroke-linejoin="round"/>
<path d="M103.89 164.082L97.9062 179.164" stroke="black" stroke-width="0.232143" stroke-linecap="round" stroke-linejoin="round"/>
<path d="M164.387 151.655L181.636 149.985C181.636 149.985 180.499 124.206 171.99 121.703C163.481 119.201 164.387 151.655 164.387 151.655Z" fill="white" stroke="black" stroke-width="0.232143" stroke-miterlimit="10" stroke-linecap="round" stroke-linejoin="round"/>
<path d="M197.72 218.995C197.72 218.995 185.956 211.643 188.81 196.557C191.663 181.471 200.735 175.732 200.735 175.732C200.735 175.732 205.639 186.61 201.756 199.975C197.874 213.339 197.72 218.995 197.72 218.995Z" fill="#4C4C4C" stroke="black" stroke-width="0.232143" stroke-linecap="round" stroke-linejoin="round"/>
<path d="M214.059 221.451C214.059 221.451 211.149 225.496 210.034 230.093C208.919 234.69 208.641 237.477 208.641 237.477" stroke="black" stroke-width="0.232143" stroke-linecap="round" stroke-linejoin="round"/>
<path d="M214.058 221.451C214.058 221.451 212.84 208.461 225.746 201.983C238.652 195.506 248.123 199.016 248.123 199.016C248.123 199.016 242.79 208.891 230.582 213.617C218.375 218.342 214.058 221.451 214.058 221.451Z" fill="black" stroke="black" stroke-width="0.232143" stroke-linecap="round" stroke-linejoin="round"/>
<path d="M254.474 218.728C254.474 218.728 237.756 224.799 226.193 224.102C214.63 223.405 205.855 221.131 205.855 221.131L210.732 213.674C210.732 213.674 223.548 209.057 234.693 211.564C245.839 214.071 254.474 218.728 254.474 218.728Z" fill="#4C4C4C" stroke="black" stroke-width="0.232143" stroke-linecap="round" stroke-linejoin="round"/>
<path d="M202.898 213.674C202.898 213.674 197.768 198.537 211.315 187.162C224.863 175.788 237.144 177.289 237.144 177.289C237.144 177.289 233.584 190.569 220.374 199.661C207.164 208.753 202.898 213.674 202.898 213.674Z" fill="#4C4C4C" stroke="black" stroke-width="0.232143" stroke-linecap="round" stroke-linejoin="round"/>
<path d="M202.898 213.674C202.898 213.674 197.768 198.537 211.315 187.162C224.863 175.788 237.144 177.289 237.144 177.289C237.144 177.289 222.601 185.916 214.288 195.518C203.794 207.641 202.898 213.674 202.898 213.674Z" fill="black" stroke="black" stroke-width="0.232143" stroke-linecap="round" stroke-linejoin="round"/>
<path d="M206.411 233.019C206.411 233.019 203.73 227.725 203.608 222.153C203.486 216.58 204.461 213.674 204.461 213.674L214.907 214.783L206.411 233.019Z" fill="black" stroke="black" stroke-width="0.232143" stroke-linecap="round" stroke-linejoin="round"/>
<path d="M226.891 222.71C226.891 222.71 220.9 217.922 218.114 217.181C215.328 216.441 204.461 213.674 204.461 213.674L209.287 212.906C211.726 212.518 213.936 211.245 215.496 209.33L218.114 206.117C218.114 206.117 222.153 208.082 224.801 212.54C227.448 216.997 226.891 222.71 226.891 222.71Z" fill="#B3B3B3" stroke="black" stroke-width="0.232143" stroke-linecap="round" stroke-linejoin="round"/>
<path d="M203.612 211.336C203.612 211.336 201.336 215.769 200.916 220.481C200.496 225.192 202.927 234.412 202.927 234.412" stroke="black" stroke-width="0.232143" stroke-linecap="round" stroke-linejoin="round"/>
<path d="M206.408 234.412C206.408 234.412 203.204 233.019 202.507 228.282C201.81 223.545 201.811 220.074 201.811 220.074C201.811 220.074 188.415 217.301 188.426 218.194C188.437 219.087 196.231 227.586 198.394 229.397C200.557 231.208 206.408 234.412 206.408 234.412Z" fill="#4C4C4C" stroke="black" stroke-width="0.232143" stroke-linecap="round" stroke-linejoin="round"/>
<path d="M201.813 220.074L195.303 217.797C192.786 216.916 190.423 215.643 188.303 214.026L183.98 210.729C183.98 210.729 178.264 216.403 177.432 224.849C176.6 233.296 177.432 235.247 177.432 235.247C177.432 235.247 187.184 226.711 191.503 224.849C195.822 222.988 201.813 220.074 201.813 220.074Z" fill="#B3B3B3" stroke="black" stroke-width="0.232143" stroke-linecap="round" stroke-linejoin="round"/>
<path d="M221.048 230.66V231.002C221.047 235.002 220.255 238.964 218.716 242.656C217.177 246.349 214.922 249.701 212.081 252.518C210.124 254.46 207.487 255.561 204.731 255.587C201.975 255.614 199.317 254.563 197.324 252.66L197.242 252.581C194.278 249.751 191.919 246.349 190.307 242.581C188.695 238.813 187.863 234.758 187.863 230.66H221.043H221.048Z" fill="#E5E5E5" stroke="black" stroke-width="0.232143" stroke-linecap="round" stroke-linejoin="round"/>
<path d="M63.6879 131.244C63.6879 131.244 61.9315 131.969 57.9101 131.059C55.7442 130.567 49.3359 127.204 49.3359 127.204C49.3359 127.204 53.0679 130.81 56.0982 132.083C59.796 133.634 62.5268 133.523 62.5268 133.523L63.6879 131.244Z" fill="#666666" stroke="black" stroke-width="0.232143" stroke-linecap="round" stroke-linejoin="round"/>
<path d="M69.048 132.089C63.4199 132.823 59.8128 136.711 60.7178 141.927C61.7596 147.936 58.6249 149.374 58.6249 149.374C57.1966 149.467 59.3321 157.103 59.3321 157.103C59.6251 158.755 62.3633 160.098 62.9485 159.085C63.4107 158.28 61.5785 156.241 61.1754 156.102L61.2115 151.091C61.2115 151.091 64.4905 150.895 68.766 144.212C69.7478 142.678 71.433 139.071 71.433 139.071C71.433 139.071 71.7926 131.731 69.048 132.089Z" fill="#666666" stroke="black" stroke-width="0.232143" stroke-linecap="round" stroke-linejoin="round"/>
<path d="M103.401 138.537C103.41 138.019 101.979 137.559 100.812 137.419C99.8137 137.298 99.1102 137.345 97.3492 137.541C96.5172 137.633 95.4189 137.078 94.8957 135.808C94.3272 134.422 94.1885 134.445 94.8033 133.083L96.1234 130.831C97.5595 128.16 99.6803 125.918 102.268 124.337C102.794 124.016 106.218 122.118 109.45 120.765C111.838 119.767 117.531 116.443 115.575 112.435C115.575 112.435 105.939 114.076 101.616 114.759C97.9112 115.344 95.7462 117.281 93.0847 120.59L92.6151 121.193C90.0479 124.495 83.5685 127.443 78.203 128.397C72.1387 129.475 68.6813 130.046 65.9403 130.404C60.3114 131.138 56.0081 137.491 56.9131 142.708C57.954 148.717 54.8202 150.156 54.8202 150.156C53.3919 150.248 55.5274 157.884 55.5274 157.884C55.8195 159.536 58.5586 160.879 59.1429 159.866C59.6051 159.062 57.7738 157.022 57.3707 156.885L57.4068 151.872C57.4068 151.872 60.6858 151.676 64.9613 144.993C65.9422 143.46 67.6274 139.853 67.6274 139.853C67.6274 139.853 70.4932 138.594 72.8311 139.401C77.2555 140.926 82.6542 142.174 88.7694 138.068C89.7863 139.319 90.3123 140.018 92.0669 141.614C93.0838 142.538 95.0094 142.153 96.6817 141.218C98.2856 140.323 100.195 139.697 101.458 139.585C102.088 139.529 103.388 139.246 103.401 138.537Z" fill="white" stroke="black" stroke-width="0.232143" stroke-miterlimit="10" stroke-linecap="round" stroke-linejoin="round"/>
<path d="M103.247 117.928C103.751 117.928 104.159 117.52 104.159 117.017C104.159 116.514 103.751 116.105 103.247 116.105C102.744 116.105 102.336 116.514 102.336 117.017C102.336 117.52 102.744 117.928 103.247 117.928Z" fill="black" stroke="black" stroke-width="0.232143" stroke-linecap="round" stroke-linejoin="round"/>
<path d="M84.8106 132.187C82.0438 133.358 80.8845 131.717 77.7174 132.772C76.1921 133.281 73.6258 138.91 67.1445 137.04C64.7724 136.355 64.3056 132.583 67.4681 131.664C65.6395 131.331 65.9428 130.404 65.9428 130.404C65.9428 130.404 66.3976 130.127 69.635 129.706C73.807 129.163 78.8461 128.368 81.3615 127.746C85.9699 126.607 87.4693 131.062 84.8106 132.187Z" fill="#666666" stroke="black" stroke-width="0.232143" stroke-linecap="round" stroke-linejoin="round"/>
<path d="M115.577 112.437L113.353 112.822C113.353 112.822 113.285 114.126 114.124 114.568C114.963 115.01 115.903 114.833 115.903 114.833C115.903 114.833 116.041 114.163 115.944 113.6C115.872 113.198 115.749 112.808 115.577 112.437Z" fill="black" stroke="black" stroke-width="0.232143" stroke-linecap="round" stroke-linejoin="round"/>
<path d="M96.7163 130.137C97.0044 130.425 97.4715 130.425 97.7596 130.137C98.0477 129.849 98.0477 129.381 97.7596 129.093L91.415 122.749C91.1269 122.461 90.6598 122.461 90.3717 122.749C90.0836 123.037 90.0836 123.504 90.3717 123.792L96.7163 130.137Z" fill="#4C4C4C" stroke="black" stroke-width="0.232143" stroke-linecap="round" stroke-linejoin="round"/>
<path d="M104.445 119.456C104.445 119.456 106.82 120.458 108.224 120.245C109.627 120.033 110.17 119.634 110.17 119.634" stroke="black" stroke-width="0.232143" stroke-linecap="round" stroke-linejoin="round"/>
<path d="M94.9921 120.757L93.7903 145.545C93.7819 145.724 93.8168 145.904 93.8919 146.067C93.967 146.231 94.0802 146.375 94.222 146.486C95.4478 147.449 98.8294 149.343 100.666 142.788C102.936 134.68 100.204 121.508 97.4677 119.386C95.9516 118.21 95.0272 120.035 94.9921 120.757Z" fill="#666666" stroke="black" stroke-width="0.232143" stroke-linecap="round" stroke-linejoin="round"/>
<path d="M246.979 55.4409H203.879C202.431 55.4409 201.258 56.6143 201.258 58.0617V109.383C201.258 110.831 202.431 112.004 203.879 112.004H246.979C248.426 112.004 249.6 110.831 249.6 109.383V58.0617C249.6 56.6143 248.426 55.4409 246.979 55.4409Z" fill="white" stroke="black" stroke-width="0.232143" stroke-linecap="round" stroke-linejoin="round"/>
<path d="M203.879 55.439H246.98C247.675 55.4399 248.341 55.7167 248.831 56.2085C249.322 56.7003 249.597 57.3669 249.597 58.0616V61.2047H201.258V58.0616C201.258 57.7173 201.325 57.3763 201.457 57.0581C201.588 56.7399 201.781 56.4508 202.025 56.2072C202.268 55.9637 202.557 55.7705 202.875 55.6386C203.193 55.5068 203.534 55.439 203.879 55.439Z" fill="#CCCCCC" stroke="black" stroke-width="0.232143" stroke-miterlimit="10" stroke-linecap="round" stroke-linejoin="round"/>
<path d="M216.326 90.2285H211.793V103.535H216.326V90.2285Z" fill="#E5E5E5" stroke="black" stroke-width="0.232143" stroke-miterlimit="10" stroke-linecap="round" stroke-linejoin="round"/>
<path d="M223.587 82.333H219.055V103.535H223.587V82.333Z" fill="#E5E5E5" stroke="black" stroke-width="0.232143" stroke-miterlimit="10" stroke-linecap="round" stroke-linejoin="round"/>
<path d="M231.29 78.0435H226.758V103.535H231.29V78.0435Z" fill="#999999" stroke="black" stroke-width="0.232143" stroke-miterlimit="10" stroke-linecap="round" stroke-linejoin="round"/>
<path d="M238.99 73.364H234.457V103.534H238.99V73.364Z" fill="#4C4C4C" stroke="black" stroke-width="0.232143" stroke-linecap="round" stroke-linejoin="round"/>
<path d="M210.477 82.3329C210.477 82.3329 218.08 81.4084 225.44 76.3379C232.799 71.2673 237.431 64.4939 237.431 64.4939L231.827 66.5406" stroke="black" stroke-width="0.232143" stroke-linecap="round" stroke-linejoin="round"/>
<path d="M237.82 70.3909L237.43 64.4939" stroke="black" stroke-width="0.232143" stroke-linecap="round" stroke-linejoin="round"/>
<path d="M206.66 103.535H242.403" stroke="black" stroke-width="0.232143" stroke-linecap="round" stroke-linejoin="round"/>
<path d="M204.425 59.4067C205.025 59.4067 205.51 58.9208 205.51 58.3214C205.51 57.722 205.025 57.2361 204.425 57.2361C203.826 57.2361 203.34 57.722 203.34 58.3214C203.34 58.9208 203.826 59.4067 204.425 59.4067Z" fill="white" stroke="black" stroke-width="0.232143" stroke-linecap="round" stroke-linejoin="round"/>
<path d="M208.101 59.4067C208.7 59.4067 209.186 58.9208 209.186 58.3214C209.186 57.722 208.7 57.2361 208.101 57.2361C207.502 57.2361 207.016 57.722 207.016 58.3214C207.016 58.9208 207.502 59.4067 208.101 59.4067Z" fill="white" stroke="black" stroke-width="0.232143" stroke-linecap="round" stroke-linejoin="round"/>
<path d="M211.777 59.4067C212.376 59.4067 212.862 58.9208 212.862 58.3214C212.862 57.722 212.376 57.2361 211.777 57.2361C211.177 57.2361 210.691 57.722 210.691 58.3214C210.691 58.9208 211.177 59.4067 211.777 59.4067Z" fill="white" stroke="black" stroke-width="0.232143" stroke-linecap="round" stroke-linejoin="round"/>
<path d="M88.0978 73.8455H24.0549C20.0917 73.8455 16.8789 77.0582 16.8789 81.0214V102.235C16.8789 106.199 20.0917 109.411 24.0549 109.411H88.0978C92.061 109.411 95.2738 106.199 95.2738 102.235V81.0214C95.2738 77.0582 92.061 73.8455 88.0978 73.8455Z" fill="#B3B3B3"/>
<path d="M87.4687 71.5H20.0746C17.0368 71.5 14.5742 73.9626 14.5742 77.0003V101.566C14.5742 104.603 17.0368 107.066 20.0746 107.066H87.4687C90.5065 107.066 92.9691 104.603 92.9691 101.566V77.0003C92.9691 73.9626 90.5065 71.5 87.4687 71.5Z" fill="white" stroke="black" stroke-width="0.232143" stroke-miterlimit="10" stroke-linecap="round" stroke-linejoin="round"/>
<path d="M43.284 94.5464C43.2092 94.5464 43.1352 94.5317 43.0662 94.5031C42.9971 94.4744 42.9344 94.4325 42.8815 94.3796C42.8287 94.3267 42.7868 94.2639 42.7583 94.1948C42.7298 94.1257 42.7151 94.0516 42.7153 93.9769V84.8703C42.7123 84.7938 42.7249 84.7174 42.7522 84.6458C42.7795 84.5742 42.8209 84.5088 42.8741 84.4536C42.9272 84.3984 42.9909 84.3545 43.0614 84.3245C43.132 84.2945 43.2078 84.2791 43.2844 84.2791C43.361 84.2791 43.4369 84.2945 43.5074 84.3245C43.5779 84.3545 43.6416 84.3984 43.6948 84.4536C43.7479 84.5088 43.7894 84.5742 43.8167 84.6458C43.8439 84.7174 43.8565 84.7938 43.8536 84.8703V93.9769C43.8536 94.1279 43.7936 94.2728 43.6868 94.3796C43.5799 94.4864 43.4351 94.5464 43.284 94.5464Z" fill="#4C4C4C"/>
<path d="M45.5618 91.6991C45.4107 91.6991 45.2658 91.6391 45.159 91.5322C45.0522 91.4254 44.9922 91.2806 44.9922 91.1295V87.7129C44.9922 87.5618 45.0522 87.417 45.159 87.3101C45.2658 87.2033 45.4107 87.1433 45.5618 87.1433C45.7128 87.1433 45.8577 87.2033 45.9645 87.3101C46.0713 87.417 46.1313 87.5618 46.1313 87.7129V91.1295C46.1313 91.2806 46.0713 91.4254 45.9645 91.5322C45.8577 91.6391 45.7128 91.6991 45.5618 91.6991Z" fill="#4C4C4C"/>
<path d="M47.8391 93.4069C47.6882 93.4069 47.5434 93.347 47.4366 93.2404C47.3299 93.1338 47.2698 92.9891 47.2695 92.8382V86.0041C47.2695 85.9293 47.2843 85.8553 47.3129 85.7862C47.3415 85.7171 47.3835 85.6543 47.4364 85.6014C47.4892 85.5485 47.552 85.5065 47.6211 85.4779C47.6902 85.4493 47.7643 85.4346 47.8391 85.4346C47.9139 85.4346 47.988 85.4493 48.0571 85.4779C48.1262 85.5065 48.189 85.5485 48.2419 85.6014C48.2947 85.6543 48.3367 85.7171 48.3653 85.7862C48.3939 85.8553 48.4087 85.9293 48.4087 86.0041V92.8382C48.4085 92.9891 48.3484 93.1338 48.2416 93.2404C48.1348 93.347 47.99 93.4069 47.8391 93.4069Z" fill="#4C4C4C"/>
<path d="M50.1164 98.5324C49.9654 98.5324 49.8205 98.4724 49.7137 98.3655C49.6069 98.2587 49.5469 98.1139 49.5469 97.9628V80.8765C49.5469 80.7254 49.6069 80.5805 49.7137 80.4737C49.8205 80.3669 49.9654 80.3069 50.1164 80.3069C50.2675 80.3069 50.4124 80.3669 50.5192 80.4737C50.626 80.5805 50.686 80.7254 50.686 80.8765V97.9595C50.6865 98.0346 50.672 98.109 50.6436 98.1785C50.6152 98.248 50.5733 98.3111 50.5204 98.3644C50.4674 98.4176 50.4045 98.4599 50.3352 98.4887C50.2659 98.5175 50.1915 98.5324 50.1164 98.5324Z" fill="#4C4C4C"/>
<path d="M52.3938 96.2549C52.2427 96.2549 52.0979 96.1949 51.991 96.0881C51.8842 95.9813 51.8242 95.8364 51.8242 95.6853V83.1572C51.8242 83.0062 51.8842 82.8613 51.991 82.7545C52.0979 82.6476 52.2427 82.5876 52.3938 82.5876C52.5448 82.5876 52.6897 82.6476 52.7965 82.7545C52.9034 82.8613 52.9634 83.0062 52.9634 83.1572V95.6853C52.9634 95.8364 52.9034 95.9813 52.7965 96.0881C52.6897 96.1949 52.5448 96.2549 52.3938 96.2549Z" fill="#4C4C4C"/>
<path d="M54.6755 95.6853C54.5244 95.6853 54.3795 95.6253 54.2727 95.5185C54.1659 95.4117 54.1059 95.2668 54.1059 95.1158V84.8659C54.103 84.7894 54.1155 84.713 54.1428 84.6414C54.1701 84.5698 54.2116 84.5044 54.2647 84.4492C54.3178 84.394 54.3816 84.3501 54.4521 84.3201C54.5226 84.2901 54.5984 84.2747 54.675 84.2747C54.7517 84.2747 54.8275 84.2901 54.898 84.3201C54.9685 84.3501 55.0323 84.394 55.0854 84.4492C55.1385 84.5044 55.18 84.5698 55.2073 84.6414C55.2346 84.713 55.2471 84.7894 55.2442 84.8659V95.1158C55.2442 95.2667 55.1843 95.4114 55.0777 95.5182C54.971 95.625 54.8264 95.6851 54.6755 95.6853Z" fill="#4C4C4C"/>
<path d="M56.9485 100.811C56.8737 100.811 56.7996 100.796 56.7305 100.767C56.6614 100.739 56.5986 100.697 56.5457 100.644C56.4928 100.591 56.4509 100.528 56.4223 100.459C56.3936 100.39 56.3789 100.316 56.3789 100.241V78.6016C56.3789 78.4505 56.4389 78.3056 56.5457 78.1988C56.6525 78.092 56.7974 78.032 56.9485 78.032C57.0995 78.032 57.2444 78.092 57.3512 78.1988C57.458 78.3056 57.5181 78.4505 57.5181 78.6016V100.241C57.5181 100.316 57.5033 100.39 57.4747 100.459C57.4461 100.528 57.4041 100.591 57.3512 100.644C57.2983 100.697 57.2355 100.739 57.1664 100.767C57.0973 100.796 57.0233 100.811 56.9485 100.811Z" fill="#4C4C4C"/>
<path d="M59.2258 92.8382C59.0748 92.8382 58.9299 92.7782 58.8231 92.6714C58.7163 92.5646 58.6562 92.4197 58.6562 92.2686V86.5737C58.6563 86.4227 58.7163 86.2778 58.8231 86.171C58.9299 86.0642 59.0748 86.0042 59.2258 86.0042C59.3769 86.0042 59.5218 86.0642 59.6286 86.171C59.7354 86.2778 59.7954 86.4227 59.7954 86.5737V92.2686C59.7954 92.4197 59.7354 92.5646 59.6286 92.6714C59.5218 92.7782 59.3769 92.8382 59.2258 92.8382Z" fill="#4C4C4C"/>
<path d="M61.5071 90.5624C61.356 90.5624 61.2111 90.5024 61.1043 90.3955C60.9975 90.2887 60.9375 90.1439 60.9375 89.9928V88.8545C60.9375 88.7034 60.9975 88.5586 61.1043 88.4517C61.2111 88.3449 61.356 88.2849 61.5071 88.2849C61.6581 88.2849 61.803 88.3449 61.9098 88.4517C62.0166 88.5586 62.0766 88.7034 62.0766 88.8545V89.9928C62.0766 90.1439 62.0166 90.2887 61.9098 90.3955C61.803 90.5024 61.6581 90.5624 61.5071 90.5624Z" fill="#4C4C4C"/>
<path d="M63.7844 90.5624C63.6334 90.5624 63.4885 90.5024 63.3817 90.3955C63.2748 90.2887 63.2148 90.1439 63.2148 89.9928V88.8545C63.2148 88.7034 63.2748 88.5586 63.3817 88.4517C63.4885 88.3449 63.6334 88.2849 63.7844 88.2849C63.9355 88.2849 64.0803 88.3449 64.1872 88.4517C64.294 88.5586 64.354 88.7034 64.354 88.8545V89.9928C64.354 90.1439 64.294 90.2887 64.1872 90.3955C64.0803 90.5024 63.9355 90.5624 63.7844 90.5624Z" fill="#4C4C4C"/>
<path d="M66.0622 91.699C65.9111 91.699 65.7662 91.639 65.6594 91.5322C65.5526 91.4254 65.4926 91.2805 65.4926 91.1295V87.7129C65.4897 87.6363 65.5022 87.5599 65.5295 87.4883C65.5568 87.4167 65.5983 87.3514 65.6514 87.2962C65.7045 87.241 65.7683 87.197 65.8388 87.167C65.9093 87.137 65.9851 87.1216 66.0618 87.1216C66.1384 87.1216 66.2142 87.137 66.2847 87.167C66.3552 87.197 66.419 87.241 66.4721 87.2962C66.5252 87.3514 66.5667 87.4167 66.594 87.4883C66.6213 87.5599 66.6338 87.6363 66.6309 87.7129V91.1295C66.631 91.2042 66.6164 91.2783 66.5879 91.3474C66.5593 91.4165 66.5175 91.4793 66.4646 91.5322C66.4118 91.5851 66.3491 91.627 66.28 91.6557C66.211 91.6843 66.1369 91.699 66.0622 91.699Z" fill="#4C4C4C"/>
<path d="M68.3391 94.5465C68.2643 94.5465 68.1902 94.5317 68.1211 94.5031C68.052 94.4745 67.9892 94.4325 67.9364 94.3796C67.8835 94.3267 67.8415 94.264 67.8129 94.1948C67.7843 94.1257 67.7695 94.0517 67.7695 93.9769V84.8704C67.7695 84.7193 67.8295 84.5744 67.9364 84.4676C68.0432 84.3608 68.188 84.3008 68.3391 84.3008C68.4902 84.3008 68.635 84.3608 68.7419 84.4676C68.8487 84.5744 68.9087 84.7193 68.9087 84.8704V93.9769C68.9087 94.1279 68.8487 94.2728 68.7419 94.3796C68.635 94.4864 68.4902 94.5465 68.3391 94.5465Z" fill="#4C4C4C"/>
<path d="M70.616 92.8384C70.4651 92.8382 70.3205 92.7781 70.2138 92.6713C70.1072 92.5645 70.0473 92.4198 70.0473 92.2688V86.5739C70.0444 86.4974 70.0569 86.421 70.0842 86.3494C70.1115 86.2778 70.153 86.2124 70.2061 86.1572C70.2592 86.102 70.323 86.0581 70.3935 86.0281C70.464 85.9981 70.5398 85.9827 70.6164 85.9827C70.6931 85.9827 70.7689 85.9981 70.8394 86.0281C70.9099 86.0581 70.9737 86.102 71.0268 86.1572C71.0799 86.2124 71.1214 86.2778 71.1487 86.3494C71.176 86.421 71.1885 86.4974 71.1856 86.5739V92.2688C71.1856 92.4199 71.1256 92.5648 71.0188 92.6716C70.912 92.7784 70.7671 92.8384 70.616 92.8384Z" fill="#4C4C4C"/>
<path d="M72.8938 95.6853C72.7427 95.6853 72.5979 95.6253 72.491 95.5185C72.3842 95.4117 72.3242 95.2668 72.3242 95.1158V83.7268C72.3242 83.5757 72.3842 83.4309 72.491 83.324C72.5979 83.2172 72.7427 83.1572 72.8938 83.1572C73.0449 83.1572 73.1897 83.2172 73.2965 83.324C73.4034 83.4309 73.4634 83.5757 73.4634 83.7268V95.1158C73.4634 95.2668 73.4034 95.4117 73.2965 95.5185C73.1897 95.6253 73.0449 95.6853 72.8938 95.6853Z" fill="#4C4C4C"/>
<path d="M75.1711 93.9767C75.0201 93.9767 74.8752 93.9167 74.7684 93.8099C74.6616 93.7031 74.6016 93.5582 74.6016 93.4072V85.4348C74.6016 85.2837 74.6616 85.1389 74.7684 85.0321C74.8752 84.9252 75.0201 84.8652 75.1711 84.8652C75.3222 84.8652 75.4671 84.9252 75.5739 85.0321C75.6807 85.1389 75.7407 85.2837 75.7407 85.4348V93.4072C75.7407 93.5582 75.6807 93.7031 75.5739 93.8099C75.4671 93.9167 75.3222 93.9767 75.1711 93.9767Z" fill="#4C4C4C"/>
<path d="M77.4524 97.9628C77.3776 97.9628 77.3035 97.948 77.2344 97.9194C77.1653 97.8908 77.1025 97.8488 77.0496 97.7959C76.9967 97.743 76.9548 97.6803 76.9262 97.6112C76.8975 97.542 76.8828 97.468 76.8828 97.3932V81.4485C76.8828 81.2974 76.9428 81.1525 77.0496 81.0457C77.1565 80.9389 77.3013 80.8789 77.4524 80.8789C77.6034 80.8789 77.7483 80.9389 77.8551 81.0457C77.9619 81.1525 78.022 81.2974 78.022 81.4485V97.3932C78.022 97.5443 77.9619 97.6891 77.8551 97.7959C77.7483 97.9028 77.6034 97.9628 77.4524 97.9628Z" fill="#4C4C4C"/>
<path d="M79.7297 94.5465C79.5787 94.5465 79.4338 94.4864 79.327 94.3796C79.2202 94.2728 79.1602 94.1279 79.1602 93.9769V84.8704C79.1602 84.7193 79.2202 84.5744 79.327 84.4676C79.4338 84.3608 79.5787 84.3008 79.7297 84.3008C79.8808 84.3008 80.0257 84.3608 80.1325 84.4676C80.2393 84.5744 80.2993 84.7193 80.2993 84.8704V93.9769C80.2993 94.1279 80.2393 94.2728 80.1325 94.3796C80.0257 94.4864 79.8808 94.5465 79.7297 94.5465Z" fill="#4C4C4C"/>
<path d="M82.0075 90.5624C81.8564 90.5624 81.7116 90.5023 81.6047 90.3955C81.4979 90.2887 81.4379 90.1438 81.4379 89.9928V88.8545C81.435 88.7779 81.4476 88.7015 81.4748 88.6299C81.5021 88.5583 81.5436 88.493 81.5967 88.4378C81.6499 88.3825 81.7136 88.3386 81.7841 88.3086C81.8546 88.2786 81.9304 88.2632 82.0071 88.2632C82.0837 88.2632 82.1595 88.2786 82.23 88.3086C82.3006 88.3386 82.3643 88.3825 82.4174 88.4378C82.4706 88.493 82.512 88.5583 82.5393 88.6299C82.5666 88.7015 82.5792 88.7779 82.5762 88.8545V89.9928C82.5763 90.0675 82.5617 90.1416 82.5332 90.2107C82.5046 90.2798 82.4628 90.3426 82.4099 90.3955C82.3571 90.4484 82.2944 90.4903 82.2253 90.519C82.1563 90.5476 82.0822 90.5624 82.0075 90.5624Z" fill="#4C4C4C"/>
<path d="M84.2844 92.8382C84.1334 92.8382 83.9885 92.7782 83.8817 92.6714C83.7748 92.5646 83.7148 92.4197 83.7148 92.2686V86.5737C83.7148 86.4227 83.7748 86.2778 83.8817 86.171C83.9885 86.0642 84.1334 86.0042 84.2844 86.0042C84.4355 86.0042 84.5803 86.0642 84.6872 86.171C84.794 86.2778 84.854 86.4227 84.854 86.5737V92.2686C84.854 92.4197 84.794 92.5646 84.6872 92.6714C84.5803 92.7782 84.4355 92.8382 84.2844 92.8382Z" fill="#4C4C4C"/>
<path d="M41.0071 91.1297C40.856 91.1297 40.7111 91.0697 40.6043 90.9629C40.4975 90.8561 40.4375 90.7112 40.4375 90.5602V88.2827C40.4375 88.1316 40.4975 87.9868 40.6043 87.88C40.7111 87.7731 40.856 87.7131 41.0071 87.7131C41.1581 87.7131 41.303 87.7731 41.4098 87.88C41.5166 87.9868 41.5766 88.1316 41.5766 88.2827V90.5627C41.576 90.7133 41.5157 90.8575 41.4089 90.9638C41.3022 91.0701 41.1577 91.1297 41.0071 91.1297Z" fill="#4C4C4C"/>
<path d="M38.7301 90.5624C38.5791 90.5624 38.4342 90.5023 38.3274 90.3955C38.2206 90.2887 38.1606 90.1438 38.1606 89.9928V88.8545C38.1576 88.7779 38.1702 88.7015 38.1975 88.6299C38.2248 88.5583 38.2662 88.493 38.3194 88.4378C38.3725 88.3825 38.4362 88.3386 38.5068 88.3086C38.5773 88.2786 38.6531 88.2632 38.7297 88.2632C38.8064 88.2632 38.8822 88.2786 38.9527 88.3086C39.0232 88.3386 39.0869 88.3825 39.1401 88.4378C39.1932 88.493 39.2347 88.5583 39.262 88.6299C39.2892 88.7015 39.3018 88.7779 39.2989 88.8545V89.9928C39.2989 90.1437 39.239 90.2884 39.1324 90.3952C39.0257 90.502 38.8811 90.5621 38.7301 90.5624Z" fill="#4C4C4C"/>
<path d="M26.7692 95.6854C25.5302 95.6856 24.3189 95.3183 23.2886 94.6301C22.2583 93.9418 21.4553 92.9635 20.981 91.8188C20.5067 90.6742 20.3826 89.4146 20.6242 88.1993C20.8658 86.9841 21.4624 85.8678 22.3384 84.9916C23.2145 84.1154 24.3307 83.5187 25.5459 83.2769C26.7611 83.0351 28.0208 83.1592 29.1655 83.6333C30.3102 84.1074 31.2886 84.9103 31.977 85.9405C32.6654 86.9707 33.0328 88.1819 33.0328 89.421C33.0311 91.0817 32.3706 92.674 31.1964 93.8484C30.0221 95.0228 28.43 95.6835 26.7692 95.6854ZM26.7692 84.2965C25.7554 84.2963 24.7644 84.5968 23.9214 85.1599C23.0784 85.723 22.4214 86.5235 22.0334 87.46C21.6453 88.3966 21.5438 89.4272 21.7415 90.4215C21.9392 91.4158 22.4274 92.3291 23.1442 93.0459C23.8611 93.7628 24.7744 94.2509 25.7687 94.4487C26.763 94.6464 27.7936 94.5448 28.7301 94.1568C29.6667 93.7688 30.4672 93.1117 31.0303 92.2688C31.5934 91.4258 31.8939 90.4347 31.8937 89.421C31.8915 88.0625 31.3509 86.7604 30.3904 85.7998C29.4298 84.8393 28.1276 84.2987 26.7692 84.2965Z" fill="#4C4C4C"/>
<path d="M25.6282 92.2688C25.4772 92.2686 25.3324 92.2085 25.2257 92.1018C25.1189 91.995 25.0588 91.8502 25.0586 91.6993V87.146C25.0584 87.0429 25.0863 86.9417 25.1392 86.8532C25.1921 86.7648 25.2681 86.6923 25.359 86.6437C25.4499 86.5951 25.5523 86.572 25.6553 86.5771C25.7582 86.5822 25.8579 86.6151 25.9436 86.6725L29.3602 88.9499C29.4384 89.0018 29.5026 89.0722 29.5469 89.1549C29.5913 89.2376 29.6145 89.33 29.6145 89.4239C29.6145 89.5177 29.5913 89.6101 29.5469 89.6928C29.5026 89.7755 29.4384 89.8459 29.3602 89.8978L25.9436 92.1753C25.85 92.2369 25.7402 92.2695 25.6282 92.2688ZM26.1977 88.2073V90.6346L28.019 89.421L26.1977 88.2073Z" fill="#4C4C4C"/>
<path d="M165.877 102.58C165.249 99.6471 162.815 97.6849 160.441 98.1977C158.066 98.7105 156.651 101.504 157.28 104.437C157.908 107.371 160.343 109.333 162.717 108.82C165.091 108.307 166.506 105.514 165.877 102.58Z" fill="#4C4C4C" stroke="black" stroke-width="0.232143" stroke-linecap="round" stroke-linejoin="round"/>
<path d="M165.539 102.723C165.086 100.608 163.331 99.1934 161.619 99.5632C159.907 99.9329 158.887 101.947 159.34 104.062C159.793 106.176 161.548 107.591 163.26 107.221C164.972 106.851 165.992 104.837 165.539 102.723Z" fill="#808080" stroke="black" stroke-width="0.232143" stroke-linecap="round" stroke-linejoin="round"/>
<path d="M159.607 114.79L159.607 114.79C159.113 115.142 158.565 115.409 157.985 115.581L157.964 115.508C159.97 114.915 161.461 113.204 162.081 110.824L162.081 110.824C162.79 108.1 162.993 104.065 163.025 103.334L163.102 103.337C163.101 103.365 163.1 103.399 163.098 103.437C163.092 103.573 163.082 103.767 163.068 104.009C163.039 104.492 162.993 105.163 162.923 105.926C162.783 107.455 162.545 109.347 162.155 110.843L162.155 110.843C161.71 112.565 160.812 113.93 159.607 114.79Z" fill="black" stroke="black" stroke-width="0.232143"/>
<path d="M157.057 114.805L155.424 115.229C154.963 115.349 154.686 115.82 154.805 116.28L154.822 116.347C154.941 116.807 155.411 117.082 155.871 116.963L157.504 116.538C157.965 116.418 158.243 115.948 158.124 115.488L158.107 115.421C157.988 114.961 157.518 114.685 157.057 114.805Z" fill="#4C4C4C" stroke="black" stroke-width="0.232143" stroke-linecap="round" stroke-linejoin="round"/>
<path d="M161.786 102.254C161.471 99.9646 160.345 95.3483 155.475 91.8386C150.606 88.329 145.556 91.401 145.556 91.401L146.485 90.3034C146.485 90.3034 151.235 87.7347 156.72 91.401C162.205 95.0673 163.937 99.8622 164.231 102.408C164.299 102.999 164.196 104.556 163.174 104.543C162.151 104.53 161.877 102.916 161.786 102.254Z" fill="white"/>
<path d="M161.786 102.254L161.671 102.269L161.671 102.269L161.786 102.254ZM145.556 91.401L145.468 91.326L145.006 91.8716L145.617 91.5002L145.556 91.401ZM146.485 90.3034L146.43 90.2013C146.417 90.2081 146.406 90.2173 146.396 90.2284L146.485 90.3034ZM164.231 102.408L164.346 102.394L164.346 102.394L164.231 102.408ZM161.901 102.238C161.584 99.9323 160.449 95.28 155.543 91.7445L155.408 91.9328C160.241 95.4166 161.359 99.9969 161.671 102.269L161.901 102.238ZM155.543 91.7445C153.077 89.9668 150.563 89.8562 148.67 90.1894C147.724 90.3559 146.932 90.6332 146.376 90.869C146.098 90.9869 145.879 91.0946 145.729 91.173C145.654 91.2122 145.596 91.2441 145.557 91.2664C145.537 91.2775 145.522 91.2862 145.512 91.2922C145.507 91.2952 145.503 91.2976 145.5 91.2992C145.499 91.3 145.498 91.3006 145.497 91.3011C145.497 91.3013 145.497 91.3015 145.496 91.3016C145.496 91.3017 145.496 91.3017 145.496 91.3017C145.496 91.3018 145.496 91.3018 145.556 91.401C145.617 91.5002 145.617 91.5002 145.617 91.5002C145.617 91.5002 145.617 91.5002 145.617 91.5001C145.617 91.5001 145.617 91.5 145.617 91.4998C145.618 91.4995 145.619 91.499 145.62 91.4984C145.622 91.4971 145.625 91.495 145.63 91.4923C145.639 91.4869 145.653 91.4788 145.671 91.4683C145.709 91.4473 145.764 91.4166 145.837 91.3787C145.982 91.3029 146.195 91.1979 146.467 91.0827C147.01 90.8521 147.785 90.5808 148.71 90.418C150.559 90.0926 153.004 90.2009 155.408 91.9328L155.543 91.7445ZM145.645 91.476L146.574 90.3783L146.396 90.2284L145.468 91.326L145.645 91.476ZM146.485 90.3034C146.54 90.4055 146.54 90.4055 146.54 90.4055C146.54 90.4055 146.54 90.4055 146.54 90.4055C146.54 90.4054 146.54 90.4053 146.541 90.4052C146.541 90.405 146.542 90.4046 146.543 90.4041C146.545 90.403 146.548 90.4014 146.552 90.3991C146.561 90.3947 146.574 90.388 146.591 90.3794C146.626 90.3621 146.678 90.3369 146.747 90.306C146.885 90.2442 147.089 90.1595 147.351 90.069C147.875 89.8879 148.631 89.6837 149.557 89.5928C151.408 89.4112 153.939 89.6814 156.656 91.4975L156.785 91.3045C154.017 89.4544 151.43 89.1757 149.534 89.3618C148.587 89.4548 147.813 89.6636 147.275 89.8496C147.006 89.9426 146.796 90.0299 146.652 90.0942C146.581 90.1264 146.525 90.1529 146.488 90.1714C146.469 90.1807 146.455 90.188 146.445 90.1931C146.44 90.1956 146.437 90.1976 146.434 90.1989C146.433 90.1996 146.432 90.2002 146.431 90.2006C146.431 90.2007 146.43 90.2009 146.43 90.201C146.43 90.2011 146.43 90.2011 146.43 90.2012C146.43 90.2012 146.43 90.2013 146.485 90.3034ZM156.656 91.4975C162.109 95.1431 163.826 99.9061 164.116 102.421L164.346 102.394C164.049 99.8184 162.3 94.9915 156.785 91.3045L156.656 91.4975ZM164.116 102.421C164.148 102.704 164.139 103.225 164 103.667C163.931 103.888 163.832 104.081 163.697 104.216C163.566 104.349 163.397 104.43 163.175 104.427L163.172 104.659C163.461 104.663 163.689 104.554 163.862 104.38C164.032 104.209 164.146 103.977 164.222 103.737C164.373 103.256 164.382 102.702 164.346 102.394L164.116 102.421ZM163.175 104.427C162.737 104.421 162.441 104.075 162.237 103.596C162.036 103.124 161.946 102.568 161.901 102.238L161.671 102.269C161.717 102.602 161.81 103.184 162.024 103.687C162.235 104.184 162.587 104.651 163.172 104.659L163.175 104.427Z" fill="black"/>
<path d="M108.088 79.4856H201.131V109.386C201.131 110.918 202.338 112.125 203.87 112.125H247.002C248.488 112.125 249.741 110.918 249.741 109.386V58.0821C249.741 57.7106 249.695 57.3856 249.556 57.1071V57.0606C249.556 57.0374 249.544 57.0142 249.532 56.991C249.521 56.9678 249.509 56.9446 249.509 56.9214C249.509 56.8981 249.498 56.8749 249.486 56.8517C249.479 56.8379 249.472 56.8241 249.468 56.8103C249.465 56.8009 249.463 56.7915 249.463 56.7821C249.463 56.7356 249.416 56.7356 249.416 56.7356C249.393 56.7124 249.381 56.6892 249.37 56.666C249.358 56.6428 249.347 56.6196 249.323 56.5964C249.231 56.4571 249.138 56.3178 248.998 56.2249C248.488 55.7142 247.791 55.4356 247.048 55.4356H216.823V6.77851C216.823 6.59279 216.823 6.45351 216.777 6.31422V6.26779C216.777 6.22137 216.777 6.17494 216.731 6.12851C216.731 6.08208 216.731 6.03565 216.684 5.98922C216.684 5.98922 216.684 5.94279 216.638 5.94279C216.638 5.91958 216.626 5.88476 216.615 5.84994C216.603 5.81512 216.591 5.78029 216.591 5.75708C216.452 5.43208 216.266 5.15351 216.034 4.92137L215.848 4.73565C215.825 4.73565 215.814 4.72404 215.802 4.71244C215.79 4.70083 215.779 4.68922 215.756 4.68922C215.709 4.64279 215.663 4.59637 215.616 4.59637C215.245 4.36422 214.827 4.17851 214.363 4.13208H107.763C107.67 4.13208 107.623 4.13208 107.531 4.17851C107.02 4.27137 106.556 4.54994 106.138 4.92137C105.766 5.29279 105.488 5.80351 105.395 6.31422C105.395 6.36065 105.383 6.39547 105.372 6.43029C105.36 6.46512 105.348 6.49994 105.348 6.54637V76.8392C105.348 78.2785 106.602 79.4856 108.088 79.4856Z" fill="url(#paint0_linear_2628_309571)" style="mix-blend-mode:overlay"/>
<path fill-rule="evenodd" clip-rule="evenodd" d="M254.524 218.632L254.5 218.62C253.997 218.357 245.705 214.018 235.209 211.575C244.124 206.561 248.209 199.179 248.256 199.086V198.993C248.256 198.946 248.209 198.946 248.209 198.946C248.116 198.9 238.552 195.511 225.738 201.918C223.045 203.264 220.956 204.936 219.331 206.7C218.681 206.282 218.216 206.05 218.216 206.05C218.17 206.004 218.124 206.05 218.077 206.096L215.477 209.3C213.945 211.204 211.763 212.457 209.348 212.829L204.52 213.618H204.473V213.664C204.473 213.668 204.467 213.69 204.456 213.731C204.323 214.2 203.51 217.082 203.638 222.161C203.731 225.364 204.613 228.475 205.402 230.564H203.406C203.127 229.914 202.941 229.171 202.802 228.289C202.106 223.6 202.106 220.118 202.106 220.118C202.106 220.095 202.106 220.083 202.1 220.077C202.096 220.074 202.091 220.072 202.082 220.072C202.076 220.071 202.069 220.071 202.059 220.071L202.013 220.025L201.27 219.746C201.595 217.425 202.291 215.196 202.895 213.618C202.895 213.664 202.941 213.711 202.941 213.711C202.941 213.711 202.941 213.757 202.988 213.757H203.034C203.045 213.757 203.054 213.757 203.061 213.757C203.066 213.756 203.071 213.755 203.075 213.754C203.089 213.749 203.1 213.738 203.127 213.711C203.128 213.709 203.133 213.704 203.142 213.695C203.431 213.376 207.912 208.439 220.584 199.736C233.385 190.93 237.176 178.041 237.383 177.34C237.387 177.324 237.39 177.314 237.391 177.311V177.218C237.391 177.218 237.345 177.171 237.299 177.171C237.294 177.171 237.28 177.17 237.255 177.168L237.255 177.168C236.429 177.1 224.413 176.112 211.391 187.061C204.381 192.957 202.431 199.875 202.059 204.657C201.734 208.789 202.477 212.039 202.802 213.2C202.199 214.779 201.363 217.1 201.038 219.607L198.02 218.539C198.159 217.007 198.763 211.157 202.013 199.968C205.866 186.736 201.038 175.732 200.991 175.639C200.991 175.593 200.945 175.593 200.899 175.593H200.806C200.713 175.639 191.659 181.536 188.827 196.486C186.599 208.232 193.284 215.336 196.348 217.936L195.466 217.611C192.959 216.729 190.591 215.475 188.502 213.85L187.852 213.339C187.899 213.107 187.899 212.875 187.899 212.596C187.899 208.929 185.206 205.864 181.631 205.307H183.348C183.952 205.307 184.509 205.121 184.973 204.75C185.438 204.379 185.763 203.868 185.902 203.264L193.424 170.718C193.516 170.346 193.516 169.929 193.424 169.557C193.377 169.418 193.331 169.279 193.284 169.186L193.656 167.514C195.141 166.586 196.581 165.564 197.973 164.357C202.709 160.179 208.234 152.657 207.538 140.4C206.194 116.588 191.215 112.653 180.264 109.776L180.191 109.757L180.052 109.711C174.228 108.185 172.96 105.141 171.345 101.266L171.324 101.214L171.272 101.089C170.077 98.1938 168.718 94.8974 165.102 91.5107C161.899 88.4929 156.095 86.6822 151.638 87.2393C149.223 87.5643 147.459 88.5393 146.484 90.0714C146.391 90.1643 146.299 90.2572 146.206 90.3965L145.556 91.1857L145.416 91.325C141.052 94.25 138.684 97.825 138.406 102.05C137.895 108.689 142.724 115.329 145.788 118.857C137.941 122.896 127.077 134.829 126.52 135.479C126.52 135.502 126.508 135.513 126.497 135.525C126.485 135.537 126.474 135.548 126.474 135.571C126.474 135.618 126.474 135.618 126.52 135.664L128.795 137.475L125.266 141.05L118.07 139.007L104.606 126.379L104.234 123.407C105.627 122.664 107.577 121.689 109.527 120.854C111.431 120.064 114.913 118.021 115.841 115.468C115.919 115.312 115.964 115.124 116.004 114.958C116.012 114.926 116.02 114.894 116.027 114.864V114.632C116.027 114.586 116.027 114.493 116.074 114.4V114.261C116.074 114.029 116.074 113.796 116.027 113.564C115.981 113.193 115.841 112.775 115.656 112.404C115.656 112.357 115.563 112.311 115.516 112.357C115.487 112.357 114.537 112.519 113.113 112.761L113.11 112.762L113.109 112.762C109.955 113.299 104.482 114.231 101.541 114.679C97.8271 115.282 95.6449 117.186 92.9521 120.575L92.4878 121.179C92.1164 121.643 91.6985 122.107 91.1878 122.525C90.8628 122.386 90.4914 122.432 90.2592 122.711C90.0735 122.896 89.9807 123.221 90.0271 123.454C86.7771 125.821 81.9949 127.632 78.2342 128.282C75.6342 128.746 72.3378 129.257 69.5985 129.582C66.8759 129.933 66.1054 130.202 65.912 130.269L65.9103 130.27C65.9 130.273 65.8914 130.276 65.8842 130.279C64.8164 130.418 63.7485 130.789 62.7735 131.3C61.8914 131.439 60.3128 131.439 57.9449 130.929C55.8092 130.464 49.4485 127.121 49.4021 127.075C49.3557 127.029 49.3092 127.075 49.2628 127.121C49.2164 127.168 49.2164 127.214 49.2628 127.261C49.3092 127.307 53.0235 130.882 56.0414 132.182C57.5735 132.832 58.9664 133.204 60.0342 133.389C59.6628 133.761 59.2914 134.225 58.9664 134.643C57.1557 137.104 56.3199 140.121 56.7842 142.721C57.7501 148.287 55.0709 149.888 54.795 150.053L54.7878 150.057C54.6485 150.057 54.5092 150.15 54.4628 150.289C53.7199 151.357 55.0664 156.604 55.3914 157.718H41.7414C41.1842 157.718 40.6271 157.857 40.1628 158.089C39.6521 158.321 39.2342 158.693 38.9092 159.111C38.5842 159.529 38.3521 160.039 38.2128 160.596C38.1199 161.154 38.1199 161.711 38.2592 162.221L48.4735 200.386C48.4735 200.409 48.4851 200.432 48.4967 200.455C48.5083 200.479 48.5199 200.502 48.5199 200.525L49.1699 202.893C49.3557 203.636 49.8199 204.332 50.4699 204.796C50.8414 205.075 51.2128 205.261 51.6771 205.4C48.1021 205.911 45.3164 208.975 45.3164 212.689V212.736C45.3164 216.264 47.8235 219.236 51.1664 219.932L45.3628 252.525C45.3164 252.85 45.3164 253.175 45.4092 253.454C45.5021 253.779 45.6414 254.057 45.8271 254.289C46.0128 254.521 46.2914 254.707 46.5699 254.846C46.8485 254.986 47.1735 255.032 47.4985 255.032C47.9628 255.032 48.3807 254.893 48.7521 254.614C49.1235 254.336 49.4021 253.964 49.5414 253.546L60.2199 220.071H126.706L120.902 252.479C120.856 252.804 120.856 253.129 120.949 253.407C121.041 253.732 121.181 254.011 121.366 254.243C121.552 254.475 121.831 254.661 122.109 254.8C122.388 254.939 122.713 254.986 123.038 254.986C123.502 254.986 123.92 254.846 124.338 254.568C124.709 254.289 124.988 253.918 125.127 253.5L135.806 220.025H138.591L149.27 253.5C149.409 253.918 149.688 254.336 150.059 254.568C150.431 254.846 150.895 254.986 151.359 254.986C151.684 254.986 152.009 254.893 152.288 254.8C152.566 254.661 152.845 254.475 153.031 254.243C153.216 254.011 153.402 253.732 153.449 253.407C153.541 253.082 153.541 252.804 153.495 252.479L147.645 220.118H170.859L181.538 253.593C181.677 254.011 181.956 254.429 182.327 254.661C182.699 254.939 183.163 255.079 183.627 255.079C183.952 255.079 184.277 254.986 184.556 254.893C184.834 254.754 185.113 254.568 185.299 254.336C185.484 254.104 185.67 253.825 185.716 253.5C185.809 253.175 185.809 252.896 185.763 252.571L182.049 231.632C185.206 229.079 189.245 226.014 191.613 224.993C192.124 224.761 192.681 224.529 193.238 224.296C195.327 226.571 197.509 228.8 198.391 229.543C198.763 229.868 199.273 230.239 199.831 230.611H187.945C187.925 230.611 187.914 230.611 187.904 230.614C187.89 230.619 187.879 230.63 187.852 230.657C187.835 230.674 187.824 230.685 187.817 230.694C187.815 230.697 187.814 230.699 187.812 230.702C187.806 230.714 187.806 230.726 187.806 230.75C187.806 234.882 188.641 238.921 190.266 242.729C191.891 246.536 194.213 249.925 197.231 252.757L197.324 252.85C199.32 254.754 201.966 255.821 204.706 255.821H204.799C207.584 255.775 210.231 254.707 212.227 252.711C215.106 249.879 217.334 246.536 218.866 242.821C220.398 239.107 221.188 235.161 221.188 231.121V230.796C221.188 230.75 221.141 230.704 221.049 230.704H210.045C210.068 230.634 210.08 230.564 210.091 230.495C210.103 230.425 210.115 230.355 210.138 230.286C210.881 227.268 212.413 224.482 213.341 222.904C216.824 223.461 221.234 224.064 226.202 224.343C226.805 224.389 227.455 224.389 228.105 224.389H228.106C239.144 224.389 253.62 219.276 254.484 218.971L254.486 218.971C254.507 218.963 254.52 218.958 254.524 218.957C254.57 218.957 254.616 218.911 254.616 218.864C254.616 218.679 254.57 218.632 254.524 218.632ZM101.588 134.318C101.588 133.761 101.541 133.204 101.495 132.646C101.616 132.8 101.739 132.959 101.865 133.121L101.867 133.123C102.273 133.646 102.706 134.205 103.166 134.736L101.588 134.318ZM79.9985 144.579L76.5164 157.718H62.7271C62.3092 156.975 61.6128 156.232 61.2414 156.046L61.2878 151.218C61.8914 151.125 64.9557 150.382 68.8092 144.3C69.6914 142.954 71.0842 139.982 71.4092 139.286C71.8735 139.332 72.2914 139.379 72.7557 139.518C75.6807 140.539 78.7449 141.282 82.0414 140.818C81.1128 141.839 80.4164 143.139 79.9985 144.579ZM57.5271 151.961C57.6199 151.961 57.8521 151.914 58.0842 151.821C58.3393 153.862 59.0223 156.447 59.1716 157.012C59.1854 157.064 59.1946 157.099 59.1985 157.114C59.2449 157.3 59.2914 157.486 59.3842 157.671H58.3628C58.0378 157.254 57.6664 156.882 57.4342 156.789L57.5271 151.961ZM209.877 230.164L209.877 230.164C209.842 230.297 209.813 230.408 209.813 230.518H207.677L211.438 222.393C211.948 222.486 212.504 222.578 213.06 222.671L213.063 222.671C212.134 224.296 210.648 227.082 209.906 230.054C209.896 230.092 209.886 230.129 209.877 230.164Z" fill="url(#paint1_linear_2628_309571)" style="mix-blend-mode:overlay"/>
<path d="M95.2735 81.0178V102.236C95.2735 106.182 92.07 109.432 88.0307 109.386H24.0057C21.87 109.386 19.9664 108.457 18.6664 106.971C16.2521 106.368 14.4414 104.139 14.4414 101.539V76.9785C14.4414 73.8678 16.9485 71.3607 20.0593 71.3607H87.4735C90.1664 71.3607 92.395 73.2178 92.9521 75.725C94.3914 77.025 95.2735 78.9285 95.2735 81.0178Z" fill="url(#paint2_linear_2628_309571)" style="mix-blend-mode:overlay"/>
</g>
<defs>
<linearGradient id="paint0_linear_2628_309571" x1="254.616" y1="129.585" x2="14.4414" y2="129.585" gradientUnits="userSpaceOnUse">
<stop stop-color="#E60050"/>
<stop offset="1" stop-color="#5D6AE8"/>
</linearGradient>
<linearGradient id="paint1_linear_2628_309571" x1="254.616" y1="129.585" x2="14.4414" y2="129.585" gradientUnits="userSpaceOnUse">
<stop stop-color="#E60050"/>
<stop offset="1" stop-color="#5D6AE8"/>
</linearGradient>
<linearGradient id="paint2_linear_2628_309571" x1="254.616" y1="129.585" x2="14.4414" y2="129.585" gradientUnits="userSpaceOnUse">
<stop stop-color="#E60050"/>
<stop offset="1" stop-color="#5D6AE8"/>
</linearGradient>
<clipPath id="clip0_2628_309571">
<rect width="260" height="260" fill="white"/>
</clipPath>
</defs>
</svg>
