<svg width="260" height="260" viewBox="0 0 260 260" fill="none" xmlns="http://www.w3.org/2000/svg">
<path d="M86.6056 28.0044H44.1016V64.3484H86.6056V28.0044Z" fill="#CCCCCC" stroke="black" stroke-width="0.5" stroke-linecap="round" stroke-linejoin="round"/>
<path d="M87.1036 27.8223H43.6621V63.7325H87.1036V27.8223Z" fill="#E5E5E5" stroke="black" stroke-width="0.5" stroke-linecap="round" stroke-linejoin="round"/>
<path d="M87.7492 26.4644H43.1777V62.9089H87.7492V26.4644Z" fill="#E5E5E5" stroke="black" stroke-width="0.5" stroke-linecap="round" stroke-linejoin="round"/>
<path d="M43.1777 54.6308L54.5592 44.4507L67.6071 55.4653L76.4644 47.8107L87.7492 54.8543V62.8871H43.1777V54.6308Z" fill="#CCCCCC" stroke="black" stroke-width="0.5" stroke-linecap="round" stroke-linejoin="round"/>
<path d="M76.4647 47.8105L86.7089 54.205L84.8524 56.0275L80.812 55.1736L77.3212 56.325L74.4602 55.2243L69.7847 57.3076L67.6074 55.4651L76.4647 47.8105Z" fill="white" stroke="black" stroke-width="0.5" stroke-linecap="round" stroke-linejoin="round"/>
<path d="M54.5592 44.4507L61.7889 50.5543L61.2459 51.088L58.2768 50.2128L55.4851 51.1467L52.8482 50.1548L49.0746 52.1213L47.4863 50.7771L54.5592 44.4507Z" fill="white" stroke="black" stroke-width="0.5" stroke-linecap="round" stroke-linejoin="round"/>
<path d="M87.7492 26.4644H43.1777V34.9541H87.7492V26.4644Z" fill="#B3B3B3" stroke="black" stroke-width="0.5" stroke-linecap="round" stroke-linejoin="round"/>
<path d="M55.314 39.9546H53.4102V41.8584H55.314V39.9546Z" fill="#808080" stroke="black" stroke-width="0.5" stroke-linecap="round" stroke-linejoin="round"/>
<path d="M59.0132 39.9546H57.1094V41.8584H59.0132V39.9546Z" fill="#808080" stroke="black" stroke-width="0.5" stroke-linecap="round" stroke-linejoin="round"/>
<path d="M62.7144 39.9546H60.8105V41.8584H62.7144V39.9546Z" fill="#808080" stroke="black" stroke-width="0.5" stroke-linecap="round" stroke-linejoin="round"/>
<path d="M66.4155 39.9546H64.5117V41.8584H66.4155V39.9546Z" fill="#808080" stroke="black" stroke-width="0.5" stroke-linecap="round" stroke-linejoin="round"/>
<path d="M70.1148 39.9546H68.2109V41.8584H70.1148V39.9546Z" fill="#808080" stroke="black" stroke-width="0.5" stroke-linecap="round" stroke-linejoin="round"/>
<path d="M73.8159 39.9546H71.9121V41.8584H73.8159V39.9546Z" fill="#4C4C4C" stroke="black" stroke-width="0.5" stroke-miterlimit="10" stroke-linecap="round" stroke-linejoin="round"/>
<path d="M77.5171 39.9546H75.6133V41.8584H77.5171V39.9546Z" fill="#4C4C4C" stroke="black" stroke-width="0.5" stroke-miterlimit="10" stroke-linecap="round" stroke-linejoin="round"/>
<path d="M55.314 43.2959H53.4102V45.1997H55.314V43.2959Z" fill="#808080" stroke="black" stroke-width="0.5" stroke-linecap="round" stroke-linejoin="round"/>
<path d="M59.0132 43.2959H57.1094V45.1997H59.0132V43.2959Z" fill="#808080" stroke="black" stroke-width="0.5" stroke-linecap="round" stroke-linejoin="round"/>
<path d="M62.7144 43.2959H60.8105V45.1997H62.7144V43.2959Z" fill="#808080" stroke="black" stroke-width="0.5" stroke-linecap="round" stroke-linejoin="round"/>
<path d="M66.4155 43.2959H64.5117V45.1997H66.4155V43.2959Z" fill="#808080" stroke="black" stroke-width="0.5" stroke-linecap="round" stroke-linejoin="round"/>
<path d="M70.1148 43.2959H68.2109V45.1997H70.1148V43.2959Z" fill="#808080" stroke="black" stroke-width="0.5" stroke-linecap="round" stroke-linejoin="round"/>
<path d="M73.8159 43.2959H71.9121V45.1997H73.8159V43.2959Z" fill="#4C4C4C" stroke="black" stroke-width="0.5" stroke-miterlimit="10" stroke-linecap="round" stroke-linejoin="round"/>
<path d="M77.5171 43.2959H75.6133V45.1997H77.5171V43.2959Z" fill="#4C4C4C" stroke="black" stroke-width="0.5" stroke-miterlimit="10" stroke-linecap="round" stroke-linejoin="round"/>
<path d="M55.314 46.6372H53.4102V48.541H55.314V46.6372Z" fill="#808080" stroke="black" stroke-width="0.5" stroke-linecap="round" stroke-linejoin="round"/>
<path d="M59.0132 46.6372H57.1094V48.541H59.0132V46.6372Z" fill="#808080" stroke="black" stroke-width="0.5" stroke-linecap="round" stroke-linejoin="round"/>
<path d="M62.7144 46.6372H60.8105V48.541H62.7144V46.6372Z" fill="#808080" stroke="black" stroke-width="0.5" stroke-linecap="round" stroke-linejoin="round"/>
<path d="M66.4155 46.6372H64.5117V48.541H66.4155V46.6372Z" fill="#808080" stroke="black" stroke-width="0.5" stroke-linecap="round" stroke-linejoin="round"/>
<path d="M70.1148 46.6372H68.2109V48.541H70.1148V46.6372Z" fill="#808080" stroke="black" stroke-width="0.5" stroke-linecap="round" stroke-linejoin="round"/>
<path d="M73.8159 46.6372H71.9121V48.541H73.8159V46.6372Z" fill="#4C4C4C" stroke="black" stroke-width="0.5" stroke-miterlimit="10" stroke-linecap="round" stroke-linejoin="round"/>
<path d="M77.5171 46.6372H75.6133V48.541H77.5171V46.6372Z" fill="#4C4C4C" stroke="black" stroke-width="0.5" stroke-miterlimit="10" stroke-linecap="round" stroke-linejoin="round"/>
<path d="M55.314 49.9785H53.4102V51.8823H55.314V49.9785Z" fill="#808080" stroke="black" stroke-width="0.5" stroke-linecap="round" stroke-linejoin="round"/>
<path d="M59.0132 49.9785H57.1094V51.8823H59.0132V49.9785Z" fill="#808080" stroke="black" stroke-width="0.5" stroke-linecap="round" stroke-linejoin="round"/>
<path d="M62.7144 49.9785H60.8105V51.8823H62.7144V49.9785Z" fill="#808080" stroke="black" stroke-width="0.5" stroke-linecap="round" stroke-linejoin="round"/>
<path d="M66.4155 49.9785H64.5117V51.8823H66.4155V49.9785Z" fill="#808080" stroke="black" stroke-width="0.5" stroke-linecap="round" stroke-linejoin="round"/>
<path d="M70.1148 49.9785H68.2109V51.8823H70.1148V49.9785Z" fill="#808080" stroke="black" stroke-width="0.5" stroke-linecap="round" stroke-linejoin="round"/>
<path d="M73.8159 49.9785H71.9121V51.8823H73.8159V49.9785Z" fill="#4C4C4C" stroke="black" stroke-width="0.5" stroke-miterlimit="10" stroke-linecap="round" stroke-linejoin="round"/>
<path d="M77.5171 49.9785H75.6133V51.8823H77.5171V49.9785Z" fill="#4C4C4C" stroke="black" stroke-width="0.5" stroke-miterlimit="10" stroke-linecap="round" stroke-linejoin="round"/>
<path d="M55.314 53.3198H53.4102V55.2236H55.314V53.3198Z" fill="#808080" stroke="black" stroke-width="0.5" stroke-linecap="round" stroke-linejoin="round"/>
<path d="M59.0132 53.3198H57.1094V55.2236H59.0132V53.3198Z" fill="#808080" stroke="black" stroke-width="0.5" stroke-linecap="round" stroke-linejoin="round"/>
<path d="M62.7144 53.3198H60.8105V55.2236H62.7144V53.3198Z" fill="#808080" stroke="black" stroke-width="0.5" stroke-linecap="round" stroke-linejoin="round"/>
<path d="M66.4155 53.3198H64.5117V55.2236H66.4155V53.3198Z" fill="#808080" stroke="black" stroke-width="0.5" stroke-linecap="round" stroke-linejoin="round"/>
<path d="M70.1148 53.3198H68.2109V55.2236H70.1148V53.3198Z" fill="#808080" stroke="black" stroke-width="0.5" stroke-linecap="round" stroke-linejoin="round"/>
<path d="M73.8159 53.3198H71.9121V55.2236H73.8159V53.3198Z" fill="#4C4C4C" stroke="black" stroke-width="0.5" stroke-miterlimit="10" stroke-linecap="round" stroke-linejoin="round"/>
<path d="M77.5171 53.3198H75.6133V55.2236H77.5171V53.3198Z" fill="#4C4C4C" stroke="black" stroke-width="0.5" stroke-miterlimit="10" stroke-linecap="round" stroke-linejoin="round"/>
<path d="M65.4636 29.8691C65.9893 29.8691 66.4155 29.443 66.4155 28.9172C66.4155 28.3915 65.9893 27.9653 65.4636 27.9653C64.9379 27.9653 64.5117 28.3915 64.5117 28.9172C64.5117 29.443 64.9379 29.8691 65.4636 29.8691Z" fill="white" stroke="black" stroke-width="0.5" stroke-linecap="round" stroke-linejoin="round"/>
<path d="M152.843 207.734L141.822 189.457L152.639 185.133L160.099 206.236L152.843 207.734Z" fill="#E5E5E5" stroke="black" stroke-width="0.5" stroke-miterlimit="10" stroke-linecap="round" stroke-linejoin="round"/>
<path d="M142.791 156.409L159.414 200.468L147.582 205.21L124.218 159.383C121.537 152.935 125.84 146.703 130.601 144.866C138.043 141.998 164.98 138.746 164.98 138.746" fill="#CCCCCC"/>
<path d="M142.791 156.409L159.414 200.468L147.582 205.21L124.218 159.383C121.537 152.935 125.84 146.703 130.601 144.866C138.043 141.998 164.98 138.746 164.98 138.746" stroke="black" stroke-width="0.5" stroke-miterlimit="10" stroke-linecap="round" stroke-linejoin="round"/>
<path d="M143.237 90.2935L128.035 99.3555L130.08 111.005L149.493 100.292L143.237 90.2935Z" fill="#E5E5E5" stroke="black" stroke-width="0.5" stroke-linecap="round" stroke-linejoin="round"/>
<path d="M124.096 77.7494L125.201 104.4C125.233 105.148 125.419 105.881 125.747 106.554C126.075 107.227 126.539 107.825 127.108 108.31C127.678 108.796 128.342 109.158 129.059 109.375C129.775 109.592 130.529 109.659 131.272 109.572C132.024 109.482 132.749 109.235 133.4 108.849C134.051 108.462 134.615 107.944 135.054 107.327C135.494 106.71 135.8 106.009 135.952 105.267C136.105 104.525 136.101 103.76 135.941 103.019L130.225 76.7769L124.096 77.7494Z" fill="#E5E5E5" stroke="black" stroke-width="0.5" stroke-linecap="round" stroke-linejoin="round"/>
<path d="M128.456 79.3883C128.456 79.3883 130.197 79.5311 130.743 78.0418C131.204 76.787 130.339 68.5717 130.053 66.0044C130.03 65.7925 129.931 65.596 129.775 65.4508C129.619 65.3057 129.416 65.2215 129.203 65.2138C128.978 65.207 128.76 65.2851 128.59 65.4327C128.421 65.5802 128.314 65.7862 128.29 66.0095L128.037 68.3881L124.25 58.8245C124.147 58.5633 123.951 58.3491 123.701 58.2222C123.45 58.0954 123.162 58.0646 122.89 58.1359L122.285 58.294L121.967 57.4201C121.883 57.191 121.717 57.0014 121.501 56.8885C121.285 56.7756 121.035 56.7475 120.799 56.8097C120.549 56.8757 120.335 57.0379 120.204 57.2608C120.073 57.4838 120.036 57.7494 120.1 57.9999L120.455 59.36L119.918 59.4825C119.765 59.5172 119.621 59.5823 119.494 59.6739C119.367 59.7655 119.26 59.8817 119.179 60.0155C119.098 60.1494 119.044 60.2982 119.022 60.4532C118.999 60.6081 119.008 60.766 119.048 60.9174L119.359 62.1076L118.838 62.2436C118.555 62.3183 118.313 62.5024 118.165 62.7554C118.017 63.0085 117.976 63.3099 118.05 63.5935L119.954 70.8568C119.954 70.8568 120.937 74.4612 121.994 76.4147C123.138 78.5246 124.493 80.4169 126.245 80.1075C127.996 79.7981 128.456 79.3883 128.456 79.3883Z" fill="#E5E5E5" stroke="black" stroke-width="0.5" stroke-linecap="round" stroke-linejoin="round"/>
<path d="M122.285 58.2891L125.677 68.2947" stroke="black" stroke-width="0.5" stroke-linecap="round" stroke-linejoin="round"/>
<path d="M120.455 59.3535L123.713 69.4612" stroke="black" stroke-width="0.5" stroke-linecap="round" stroke-linejoin="round"/>
<path d="M119.357 62.1011L122.098 70.5697" stroke="black" stroke-width="0.5" stroke-linecap="round" stroke-linejoin="round"/>
<path d="M128.034 68.3813L127.672 72.812" stroke="black" stroke-width="0.5" stroke-linecap="round" stroke-linejoin="round"/>
<path d="M185.924 219.386V222.946" stroke="black" stroke-width="0.5" stroke-linecap="round" stroke-linejoin="round"/>
<path d="M168.895 218.913V222.757" stroke="black" stroke-width="0.5" stroke-linecap="round" stroke-linejoin="round"/>
<path d="M151.861 219.386V223.458" stroke="black" stroke-width="0.5" stroke-linecap="round" stroke-linejoin="round"/>
<path d="M166.024 215.026C165.876 214.778 165.798 214.494 165.798 214.205V207.11C165.796 206.7 165.953 206.305 166.237 206.008C166.52 205.711 166.908 205.537 167.318 205.52V189.86H170.358V205.52C170.768 205.537 171.155 205.711 171.439 206.008C171.722 206.305 171.88 206.7 171.878 207.11V214.205C171.878 214.499 171.797 214.787 171.643 215.038L185.925 219.385V220.635L170.356 218.362V219.328H167.318V218.42L151.861 220.8V219.38L166.024 215.026Z" fill="black" stroke="black" stroke-width="0.5" stroke-miterlimit="10" stroke-linecap="round" stroke-linejoin="round"/>
<path d="M185.887 225.426C186.965 225.426 187.839 224.545 187.839 223.458C187.839 222.37 186.965 221.489 185.887 221.489C184.809 221.489 183.936 222.37 183.936 223.458C183.936 224.545 184.809 225.426 185.887 225.426Z" fill="#999999" stroke="black" stroke-width="0.5" stroke-linecap="round" stroke-linejoin="round"/>
<path d="M168.893 225.426C169.971 225.426 170.845 224.545 170.845 223.458C170.845 222.37 169.971 221.489 168.893 221.489C167.815 221.489 166.941 222.37 166.941 223.458C166.941 224.545 167.815 225.426 168.893 225.426Z" fill="#999999" stroke="black" stroke-width="0.5" stroke-linecap="round" stroke-linejoin="round"/>
<path d="M151.899 225.426C152.977 225.426 153.851 224.545 153.851 223.458C153.851 222.37 152.977 221.489 151.899 221.489C150.821 221.489 149.947 222.37 149.947 223.458C149.947 224.545 150.821 225.426 151.899 225.426Z" fill="#999999" stroke="black" stroke-width="0.5" stroke-linecap="round" stroke-linejoin="round"/>
<path d="M167.917 192.776H169.869V157.594H167.917V192.776Z" fill="black" stroke="black" stroke-width="0.5" stroke-miterlimit="10" stroke-linecap="round" stroke-linejoin="round"/>
<path d="M184.611 103.938H211.916C212.264 103.937 212.606 104.023 212.913 104.188C213.22 104.352 213.481 104.589 213.674 104.879C213.867 105.168 213.985 105.501 214.018 105.847C214.051 106.193 213.999 106.543 213.864 106.864L192.753 160.029H160.871L182.661 105.236C182.821 104.851 183.092 104.523 183.439 104.291C183.786 104.06 184.194 103.937 184.611 103.938Z" fill="#333333" stroke="black" stroke-width="0.5" stroke-linecap="round" stroke-linejoin="round"/>
<path d="M189.548 156.829H143.976C142.206 156.829 140.771 158.263 140.771 160.033V160.035C140.771 161.805 142.206 163.24 143.976 163.24H189.548C191.318 163.24 192.753 161.805 192.753 160.035V160.033C192.753 158.263 191.318 156.829 189.548 156.829Z" fill="#333333" stroke="black" stroke-width="0.5" stroke-linecap="round" stroke-linejoin="round"/>
<path d="M145.087 159.277L176.371 156.699C186.116 155.65 189.632 148.8 189.632 139.055L187.135 123.314H159.444L159.677 139.272L135.175 143.693C133.673 143.952 132.249 144.544 131.006 145.425C126.183 148.907 125.96 152.638 126.604 158.758L145.087 159.277Z" fill="#CCCCCC" stroke="black" stroke-width="0.5" stroke-miterlimit="10" stroke-linecap="round" stroke-linejoin="round"/>
<path d="M29.8848 219.386V222.946" stroke="black" stroke-width="0.5" stroke-linecap="round" stroke-linejoin="round"/>
<path d="M46.916 218.913V222.757" stroke="black" stroke-width="0.5" stroke-linecap="round" stroke-linejoin="round"/>
<path d="M63.9492 219.386V223.458" stroke="black" stroke-width="0.5" stroke-linecap="round" stroke-linejoin="round"/>
<path d="M49.786 215.026C49.9348 214.778 50.0136 214.494 50.0139 214.205V207.11C50.016 206.7 49.8586 206.305 49.5751 206.008C49.2915 205.711 48.9039 205.537 48.4939 205.52V189.86H45.4556V205.52C45.0458 205.537 44.6584 205.712 44.3749 206.009C44.0915 206.305 43.934 206.7 43.9357 207.11V214.205C43.9356 214.499 44.0168 214.787 44.1703 215.038L29.8887 219.385V220.635L45.4556 218.362V219.328H48.4939V218.42L63.9487 220.8V219.38L49.786 215.026Z" fill="black" stroke="black" stroke-width="0.5" stroke-miterlimit="10" stroke-linecap="round" stroke-linejoin="round"/>
<path d="M29.9206 225.426C30.9985 225.426 31.8724 224.545 31.8724 223.458C31.8724 222.37 30.9985 221.489 29.9206 221.489C28.8426 221.489 27.9688 222.37 27.9688 223.458C27.9688 224.545 28.8426 225.426 29.9206 225.426Z" fill="#999999" stroke="black" stroke-width="0.5" stroke-linecap="round" stroke-linejoin="round"/>
<path d="M46.9167 225.426C47.9946 225.426 48.8685 224.545 48.8685 223.458C48.8685 222.37 47.9946 221.489 46.9167 221.489C45.8387 221.489 44.9648 222.37 44.9648 223.458C44.9648 224.545 45.8387 225.426 46.9167 225.426Z" fill="#999999" stroke="black" stroke-width="0.5" stroke-linecap="round" stroke-linejoin="round"/>
<path d="M63.9108 225.426C64.9888 225.426 65.8626 224.545 65.8626 223.458C65.8626 222.37 64.9888 221.489 63.9108 221.489C62.8328 221.489 61.959 222.37 61.959 223.458C61.959 224.545 62.8328 225.426 63.9108 225.426Z" fill="#999999" stroke="black" stroke-width="0.5" stroke-linecap="round" stroke-linejoin="round"/>
<path d="M47.8932 157.594H45.9414V192.776H47.8932V157.594Z" fill="black" stroke="black" stroke-width="0.5" stroke-miterlimit="10" stroke-linecap="round" stroke-linejoin="round"/>
<path d="M31.1982 103.938H3.89474C3.54674 103.937 3.20406 104.023 2.89719 104.187C2.59031 104.351 2.32874 104.588 2.13574 104.878C1.94275 105.168 1.82431 105.5 1.79097 105.847C1.75762 106.193 1.8104 106.542 1.94461 106.864L23.0576 160.029H54.9397L33.1483 105.236C32.9878 104.852 32.717 104.523 32.3699 104.292C32.0229 104.06 31.6151 103.937 31.1982 103.938Z" fill="#4C4C4C" stroke="black" stroke-width="0.5" stroke-linecap="round" stroke-linejoin="round"/>
<path d="M26.2603 163.238H71.8322C73.6022 163.238 75.0371 161.803 75.0371 160.033V160.032C75.0371 158.262 73.6022 156.827 71.8322 156.827H26.2603C24.4902 156.827 23.0554 158.262 23.0554 160.032V160.033C23.0554 161.803 24.4902 163.238 26.2603 163.238Z" fill="#333333" stroke="black" stroke-width="0.5" stroke-linecap="round" stroke-linejoin="round"/>
<path d="M204.18 112.047L199.9 124.957L208.153 127.886L214.1 112.583L204.18 112.047Z" fill="#E5E5E5" stroke="black" stroke-width="0.5" stroke-linecap="round" stroke-linejoin="round"/>
<path d="M47.3564 92.1606L30.2574 117.614C29.1977 119.281 28.7949 121.283 29.1273 123.231C29.4597 125.178 30.5034 126.933 32.0562 128.155L64.6999 131.443L66.667 123.178L42.8881 119.243L47.3564 92.1606Z" fill="#808080" stroke="black" stroke-width="0.5" stroke-miterlimit="10" stroke-linecap="round" stroke-linejoin="round"/>
<path d="M54.8466 195.218L77.1974 177.814L68.0759 169.395L49.6934 189.811L54.8466 195.218Z" fill="#E5E5E5" stroke="black" stroke-width="0.5" stroke-miterlimit="10" stroke-linecap="round" stroke-linejoin="round"/>
<path d="M68.8244 186.41L59.2676 175.223L74.1477 159.154L75.7306 144.645L91.102 151.867C95.6347 154.248 98.9807 161.754 92.8906 167.421L68.8244 186.41Z" fill="#B3B3B3" stroke="black" stroke-width="0.5" stroke-linecap="round" stroke-linejoin="round"/>
<path d="M74.0159 202.608L86.9493 170.903L74.2829 166.358L66.7578 199.618L74.0159 202.608Z" fill="#E5E5E5" stroke="black" stroke-width="0.5" stroke-miterlimit="10" stroke-linecap="round" stroke-linejoin="round"/>
<path d="M30.8752 130L28.1537 138.358C27.7738 140.736 27.8779 143.166 28.4599 145.503C29.0418 147.84 30.0895 150.035 31.5403 151.957C32.991 153.88 34.8149 155.489 36.9026 156.69C38.9903 157.89 41.2989 158.657 43.69 158.944L72.0425 160.603L69.8322 182.955L83.0546 187.206C83.0546 187.206 89.7602 166.394 90.3842 159.6C91.4196 148.316 86.1048 146.61 79.0014 144.104C68.6047 140.437 53.5886 138.281 53.5886 138.281L30.8752 130Z" fill="#B3B3B3" stroke="black" stroke-width="0.5" stroke-linecap="round" stroke-linejoin="round"/>
<path d="M55.5332 195.427C55.5332 195.427 60.1237 197.258 61.1744 196.037C61.8936 195.202 60.9908 194.677 59.0237 194.633C57.4867 194.595 55.5332 195.427 55.5332 195.427Z" stroke="black" stroke-width="0.5" stroke-linecap="round" stroke-linejoin="round"/>
<path d="M55.7949 195.445C55.7949 195.445 56.5447 196.926 56.9851 197.759C57.4254 198.592 58.6376 200.061 59.6221 199.357C60.5249 198.711 59.7003 197.773 58.5101 196.778C57.6175 196.035 55.7949 195.445 55.7949 195.445Z" stroke="black" stroke-width="0.5" stroke-linecap="round" stroke-linejoin="round"/>
<path d="M53.7316 184.991C53.7316 184.991 49.9045 187.626 47.2709 188.901C44.6373 190.176 40.6163 192.965 38.5438 196.457C37.3059 198.535 36.2364 200.709 35.3457 202.958L50.423 220.372L54.6616 218.223C55.6408 217.726 56.404 216.889 56.807 215.867C57.2099 214.846 57.2245 213.713 56.8481 212.682L54.1702 205.306C53.4808 203.409 53.382 201.347 53.8866 199.392C54.3913 197.437 55.4759 195.681 56.9977 194.354L59.7571 191.948L53.7316 184.991Z" fill="#666666" stroke="black" stroke-width="0.5" stroke-linecap="round" stroke-linejoin="round"/>
<path d="M39.1289 195.562C39.1289 195.562 41.9342 196.843 44.0221 200.428C46.1099 204.014 48.0872 209.043 49.5613 211.14C51.0354 213.236 55.2688 217.733 55.2688 217.733" stroke="black" stroke-width="0.5" stroke-linecap="round" stroke-linejoin="round"/>
<path d="M56.0431 210.787C56.0431 210.787 54.1508 209.812 53.0797 210.519C52.0086 211.226 50.3594 212.178 50.3594 212.178" stroke="black" stroke-width="0.5" stroke-linecap="round" stroke-linejoin="round"/>
<path d="M46.2137 189.442C46.2137 189.442 47.6878 192.915 46.9754 195.223C46.263 197.53 44.0527 200.469 44.0527 200.469" stroke="black" stroke-width="0.5" stroke-linecap="round" stroke-linejoin="round"/>
<path d="M53.0137 194.746C53.0137 194.746 54.1256 194.462 54.6544 194.682C55.1831 194.901 55.5215 195.683 55.5215 195.683" stroke="black" stroke-width="0.5" stroke-linecap="round" stroke-linejoin="round"/>
<path d="M52.166 196.305C52.166 196.305 53.2711 196.219 53.8016 196.44C54.3321 196.661 54.5786 197.337 54.5786 197.337" stroke="black" stroke-width="0.5" stroke-linecap="round" stroke-linejoin="round"/>
<path d="M51.4805 198.257C51.4805 198.257 52.5856 198.17 53.1161 198.391C53.6465 198.612 53.9543 199.36 53.9543 199.36" stroke="black" stroke-width="0.5" stroke-linecap="round" stroke-linejoin="round"/>
<path d="M51.1797 199.872C51.1797 199.872 52.2865 199.786 52.8153 200.007C53.344 200.228 53.5923 200.904 53.5923 200.904" stroke="black" stroke-width="0.5" stroke-linecap="round" stroke-linejoin="round"/>
<path d="M51.0508 201.683C51.0508 201.683 52.1559 201.596 52.6864 201.816C53.2168 202.035 53.6929 202.98 53.6929 202.98" stroke="black" stroke-width="0.5" stroke-linecap="round" stroke-linejoin="round"/>
<path d="M51.4766 203.351C51.4766 203.351 52.5817 203.264 53.1121 203.483C53.6426 203.703 53.8891 204.381 53.8891 204.381" stroke="black" stroke-width="0.5" stroke-linecap="round" stroke-linejoin="round"/>
<path d="M73.918 205.335C73.918 205.335 78.7703 204.388 78.9913 202.794C79.1444 201.704 78.1021 201.753 76.4224 202.778C75.1098 203.579 73.918 205.335 73.918 205.335Z" stroke="black" stroke-width="0.5" stroke-linecap="round" stroke-linejoin="round"/>
<path d="M74.1484 205.209C74.1484 205.209 75.58 206.049 76.3961 206.513C77.2122 206.978 79.0331 207.554 79.4785 206.43C79.8883 205.396 78.688 205.055 77.1476 204.863C75.9982 204.718 74.1484 205.209 74.1484 205.209Z" stroke="black" stroke-width="0.5" stroke-linecap="round" stroke-linejoin="round"/>
<path d="M66.7524 197.538C66.7524 197.538 64.9604 201.826 63.4285 204.317C61.8966 206.808 60.0281 211.339 60.1828 215.395C60.2677 217.812 60.5457 220.219 61.0142 222.592L83.1168 229.07L85.5174 224.976C86.071 224.03 86.259 222.914 86.046 221.838C85.833 220.763 85.2337 219.803 84.3613 219.139L78.1165 214.389C76.5095 213.166 75.3101 211.486 74.6761 209.569C74.0422 207.652 74.0034 205.588 74.5648 203.649L75.5849 200.133L66.7524 197.538Z" fill="#666666" stroke="black" stroke-width="0.5" stroke-linecap="round" stroke-linejoin="round"/>
<path d="M60.2012 214.334C60.2012 214.334 63.2615 213.89 66.9492 215.776C70.637 217.661 75.032 220.819 77.4054 221.781C79.7789 222.743 85.7738 224.234 85.7738 224.234" stroke="black" stroke-width="0.5" stroke-linecap="round" stroke-linejoin="round"/>
<path d="M82.6628 217.974C82.6628 217.974 80.5443 218.178 80.0258 219.351C79.5072 220.524 78.6367 222.221 78.6367 222.221" stroke="black" stroke-width="0.5" stroke-linecap="round" stroke-linejoin="round"/>
<path d="M62.8379 205.342C62.8379 205.342 65.9594 207.464 66.6123 209.795C67.2652 212.126 66.9949 215.79 66.9949 215.79" stroke="black" stroke-width="0.5" stroke-linecap="round" stroke-linejoin="round"/>
<path d="M71.4297 206.127C71.4297 206.127 72.2101 205.277 72.7745 205.184C73.339 205.09 74.0463 205.556 74.0463 205.556" stroke="black" stroke-width="0.5" stroke-linecap="round" stroke-linejoin="round"/>
<path d="M71.5625 207.897C71.5625 207.897 72.4449 207.226 73.0094 207.125C73.5738 207.025 74.1485 207.465 74.1485 207.465" stroke="black" stroke-width="0.5" stroke-linecap="round" stroke-linejoin="round"/>
<path d="M72.043 209.91C72.043 209.91 72.9254 209.23 73.4898 209.137C74.0543 209.043 74.7208 209.497 74.7208 209.497" stroke="black" stroke-width="0.5" stroke-linecap="round" stroke-linejoin="round"/>
<path d="M72.6602 211.431C72.6602 211.431 73.5426 210.759 74.107 210.657C74.6715 210.555 75.2461 210.997 75.2461 210.997" stroke="black" stroke-width="0.5" stroke-linecap="round" stroke-linejoin="round"/>
<path d="M73.5371 213.022C73.5371 213.022 74.4195 212.35 74.984 212.248C75.5484 212.146 76.4614 212.682 76.4614 212.682" stroke="black" stroke-width="0.5" stroke-linecap="round" stroke-linejoin="round"/>
<path d="M74.7988 214.193C74.7988 214.193 75.6812 213.522 76.2457 213.42C76.8102 213.318 77.3848 213.76 77.3848 213.76" stroke="black" stroke-width="0.5" stroke-linecap="round" stroke-linejoin="round"/>
<path d="M201.579 200.972L173.237 164.94C172.425 163.987 171.848 162.857 171.551 161.64C171.255 160.424 171.249 159.154 171.532 157.935C171.815 156.715 172.38 155.579 173.182 154.617C173.984 153.656 175.001 152.895 176.15 152.398L198.919 142.537L203.354 157.463L190.132 162.373L207.006 195.578L201.579 200.972Z" fill="#E5E5E5" stroke="black" stroke-width="0.5" stroke-miterlimit="10" stroke-linecap="round" stroke-linejoin="round"/>
<path d="M215.095 200.284L197.263 222.126C197.009 222.439 196.695 222.698 196.341 222.889C195.986 223.081 195.598 223.2 195.197 223.24C194.796 223.281 194.391 223.242 194.006 223.126C193.62 223.01 193.261 222.819 192.949 222.563C192.347 222.071 191.928 221.391 191.76 220.632C191.592 219.873 191.684 219.08 192.021 218.379L193.616 215.072C194.593 213.049 195.206 210.869 195.428 208.634L196.146 201.41L195.003 199.539C194.918 199.399 194.866 199.242 194.85 199.079C194.834 198.915 194.856 198.751 194.913 198.597C194.97 198.444 195.061 198.305 195.18 198.192C195.298 198.078 195.441 197.993 195.597 197.943C195.597 197.943 193.74 196.263 195.541 194.76C196.93 193.6 197.435 195.204 199.17 195.192C199.196 195.192 201.891 195 203.848 192.37C205.465 190.19 206.69 191.652 208.528 193.063L214.819 197.89C214.997 198.027 215.146 198.199 215.256 198.394C215.367 198.59 215.437 198.806 215.463 199.029C215.488 199.252 215.469 199.478 215.406 199.694C215.343 199.909 215.237 200.11 215.095 200.284Z" fill="#4C4C4C" stroke="black" stroke-width="0.5" stroke-linecap="round" stroke-linejoin="round"/>
<path d="M192.693 222.336C192.693 222.336 197.876 220.761 204.12 209.128C207.93 202.028 214.005 197.227 214.005 197.227" stroke="black" stroke-width="0.5" stroke-linecap="round" stroke-linejoin="round"/>
<path d="M196.461 196.575L195.932 196.832C195.696 196.948 195.597 197.233 195.712 197.469L197.348 200.825C197.463 201.062 197.748 201.16 197.984 201.045L198.513 200.787C198.75 200.672 198.848 200.387 198.733 200.151L197.097 196.794C196.982 196.558 196.697 196.46 196.461 196.575Z" stroke="black" stroke-width="0.5" stroke-linecap="round" stroke-linejoin="round"/>
<path d="M195.836 197.927L195.013 198.329C194.723 198.47 194.603 198.819 194.744 199.108L195.535 200.731C195.676 201.021 196.025 201.141 196.314 201L197.138 200.599C197.428 200.458 197.548 200.109 197.407 199.819L196.616 198.196C196.475 197.906 196.126 197.786 195.836 197.927Z" fill="#1A1A1A" stroke="black" stroke-width="0.5" stroke-linecap="round" stroke-linejoin="round"/>
<path d="M197.438 196.871L203.446 193.943C203.608 193.864 203.795 193.853 203.965 193.912C204.136 193.97 204.276 194.095 204.355 194.257C204.621 194.802 204.659 195.43 204.461 196.004C204.263 196.577 203.846 197.048 203.301 197.314L198.737 199.538C198.575 199.617 198.388 199.628 198.218 199.57C198.047 199.511 197.907 199.387 197.828 199.225L197.126 197.783C197.086 197.703 197.063 197.616 197.057 197.526C197.051 197.437 197.063 197.347 197.092 197.262C197.121 197.178 197.166 197.099 197.226 197.032C197.285 196.965 197.357 196.91 197.438 196.871Z" fill="#1A1A1A" stroke="black" stroke-width="0.5" stroke-linecap="round" stroke-linejoin="round"/>
<path d="M192.324 217.751C192.324 217.751 193.754 218.12 197.279 214.105C199.047 212.09 198.89 211.076 198.129 210.379C197.367 209.682 195.274 209.776 195.274 209.776L195.51 207.736C195.51 207.736 197.818 208.096 199.016 208.043C203.693 207.839 205.678 206.513 205.678 206.513" stroke="black" stroke-width="0.5" stroke-linecap="round" stroke-linejoin="round"/>
<path d="M209.65 201.355C209.65 201.355 207.992 200.726 208.254 198.929C208.516 197.132 209.92 196.052 208.698 195.428C207.168 194.65 203.784 197.79 202.28 198.611C200.153 199.771 198.92 199.461 198.92 199.461" stroke="black" stroke-width="0.5" stroke-linecap="round" stroke-linejoin="round"/>
<path d="M230.045 219.386V222.946" stroke="black" stroke-width="0.5" stroke-linecap="round" stroke-linejoin="round"/>
<path d="M213.012 218.913V222.757" stroke="black" stroke-width="0.5" stroke-linecap="round" stroke-linejoin="round"/>
<path d="M195.979 219.386V223.458" stroke="black" stroke-width="0.5" stroke-linecap="round" stroke-linejoin="round"/>
<path d="M210.143 215.026C209.995 214.778 209.916 214.494 209.917 214.205V207.11C209.915 206.7 210.072 206.305 210.356 206.008C210.639 205.711 211.027 205.537 211.437 205.52V189.86H214.477V205.52C214.887 205.537 215.274 205.711 215.558 206.008C215.841 206.305 215.999 206.7 215.997 207.11V214.205C215.997 214.499 215.915 214.787 215.762 215.038L230.044 219.385V220.635L214.475 218.362V219.328H211.435V218.42L195.979 220.8V219.38L210.143 215.026Z" fill="black" stroke="black" stroke-width="0.5" stroke-miterlimit="10" stroke-linecap="round" stroke-linejoin="round"/>
<path d="M230.005 225.426C231.083 225.426 231.956 224.545 231.956 223.458C231.956 222.37 231.083 221.489 230.005 221.489C228.927 221.489 228.053 222.37 228.053 223.458C228.053 224.545 228.927 225.426 230.005 225.426Z" fill="#999999" stroke="black" stroke-width="0.5" stroke-linecap="round" stroke-linejoin="round"/>
<path d="M213.012 225.426C214.09 225.426 214.964 224.545 214.964 223.458C214.964 222.37 214.09 221.489 213.012 221.489C211.934 221.489 211.061 222.37 211.061 223.458C211.061 224.545 211.934 225.426 213.012 225.426Z" fill="#999999" stroke="black" stroke-width="0.5" stroke-linecap="round" stroke-linejoin="round"/>
<path d="M196.016 225.426C197.094 225.426 197.968 224.545 197.968 223.458C197.968 222.37 197.094 221.489 196.016 221.489C194.938 221.489 194.064 222.37 194.064 223.458C194.064 224.545 194.938 225.426 196.016 225.426Z" fill="#999999" stroke="black" stroke-width="0.5" stroke-linecap="round" stroke-linejoin="round"/>
<path d="M212.036 192.776H213.988V157.594H212.036V192.776Z" fill="black" stroke="black" stroke-width="0.5" stroke-miterlimit="10" stroke-linecap="round" stroke-linejoin="round"/>
<path d="M228.737 103.938H256.04C256.387 103.939 256.728 104.026 257.034 104.191C257.339 104.356 257.599 104.594 257.791 104.883C257.982 105.172 258.1 105.504 258.133 105.85C258.166 106.195 258.114 106.543 257.98 106.864L236.872 160.029H204.99L226.782 105.231C226.943 104.847 227.215 104.518 227.563 104.288C227.911 104.058 228.32 103.936 228.737 103.938Z" fill="#4C4C4C" stroke="black" stroke-width="0.5" stroke-linecap="round" stroke-linejoin="round"/>
<path d="M233.666 156.829H188.094C186.324 156.829 184.889 158.263 184.889 160.033V160.035C184.889 161.805 186.324 163.24 188.094 163.24H233.666C235.436 163.24 236.87 161.805 236.87 160.035V160.033C236.87 158.263 235.436 156.829 233.666 156.829Z" fill="#333333" stroke="black" stroke-width="0.5" stroke-linecap="round" stroke-linejoin="round"/>
<path d="M163.662 215.681C164.146 214.639 164.235 213.456 163.91 212.353L161.36 205.553C160.94 204.764 160.323 205.034 159.408 205.325L154.862 206.921C154.378 207.074 153.855 207.039 153.396 206.823L151.789 206.063C151.518 205.934 151.22 205.869 150.92 205.871C150.619 205.872 150.322 205.942 150.052 206.073C149.782 206.205 149.544 206.396 149.357 206.631C149.171 206.867 149.039 207.142 148.972 207.435L148.685 208.707C148.59 209.12 132.052 221.177 132.052 221.177C131.171 221.949 131.073 223.19 131.979 223.933C132.581 224.428 133.761 224.94 135.366 224.406L163.662 215.681Z" fill="#808080" stroke="black" stroke-width="0.5" stroke-miterlimit="10" stroke-linecap="round" stroke-linejoin="round"/>
<path d="M138.037 216.771C137.801 216.431 137.988 215.931 138.333 215.708C138.678 215.485 139.117 215.48 139.523 215.538C140.538 215.665 141.492 216.091 142.266 216.76C142.353 216.819 142.428 216.894 142.487 216.981C142.545 217.069 142.585 217.167 142.606 217.27C142.602 217.394 142.559 217.513 142.483 217.61C142.407 217.708 142.303 217.779 142.184 217.813C141.944 217.876 141.692 217.881 141.45 217.826C140.864 217.725 140.286 217.586 139.719 217.41C139.221 217.259 138.357 217.223 138.037 216.771Z" fill="white" stroke="black" stroke-width="0.5" stroke-miterlimit="10" stroke-linecap="round" stroke-linejoin="round"/>
<path d="M140.715 214.506C140.629 214.184 140.871 213.85 141.175 213.719C141.491 213.612 141.829 213.593 142.155 213.663C143.267 213.818 144.345 214.159 145.344 214.671C145.674 214.841 146.04 215.108 146.004 215.477C145.975 215.613 145.905 215.736 145.804 215.832C145.703 215.927 145.575 215.988 145.438 216.009C145.161 216.04 144.881 216.011 144.616 215.924C143.792 215.72 142.967 215.519 142.144 215.308C141.687 215.191 140.874 215.011 140.715 214.506Z" fill="white" stroke="black" stroke-width="0.5" stroke-miterlimit="10" stroke-linecap="round" stroke-linejoin="round"/>
<path d="M145.172 211.813C145.898 211.989 146.596 212.267 147.246 212.638C147.537 212.796 147.787 212.92 147.965 213.223C148.033 213.313 148.073 213.421 148.082 213.534C148.09 213.646 148.066 213.759 148.012 213.858C147.959 213.958 147.878 214.04 147.779 214.094C147.68 214.149 147.568 214.175 147.455 214.168C147.223 214.17 146.992 214.129 146.775 214.049C145.809 213.751 144.823 213.26 143.837 213.056C143.526 212.991 143.067 213.041 142.946 212.641C142.856 212.347 143.116 212.131 143.335 211.992C143.864 211.679 144.519 211.674 145.172 211.813Z" fill="white" stroke="black" stroke-width="0.5" stroke-miterlimit="10" stroke-linecap="round" stroke-linejoin="round"/>
<path d="M131.373 222.613C131.798 223.463 133.971 223.366 135.054 223.164C137.633 222.679 139.388 221.849 141.593 220.819C146.236 218.648 150.264 215.616 154.909 213.668C158.398 212.206 159.861 211.458 163.639 211.628L163.964 212.524C164.234 213.577 164.127 214.691 163.661 215.674C156.884 217.835 141.794 222.444 135.069 224.486C133.847 224.857 131.796 224.371 131.41 223.153L131.373 222.613Z" fill="#333333"/>
<path d="M139.646 91.0007C139.646 91.0007 154.778 81.7295 159.789 80.2266C163.408 79.1401 170.219 78.103 170.219 78.103L183.877 78.7219C183.877 78.7219 192.284 83.2716 191.339 88.1767L184.732 122.478L156.589 122.07L156.108 98.4816L146.262 103.931L139.646 91.0007Z" fill="#666666" stroke="black" stroke-width="0.5" stroke-linecap="round" stroke-linejoin="round"/>
<path d="M198.198 67.4631C199.241 65.836 200.699 64.5165 202.421 63.6408C204.144 62.7651 206.069 62.3649 207.998 62.4815C212.4 61.8014 219.389 65.4075 218.468 74.9439C218.087 78.8952 219.148 82.0184 224.189 85.1451C226.896 86.8266 198.785 101.992 200.818 93.6852C202.688 86.053 199.492 84.6588 197.622 80.2536C194.934 73.9493 196.695 69.8399 198.198 67.4631Z" fill="black"/>
<path d="M211.276 130.472C211.276 130.443 211.276 130.399 211.229 130.346C211.239 130.499 211.254 130.55 211.276 130.472Z" fill="#E5E5E5" stroke="black" stroke-width="0.5" stroke-miterlimit="10" stroke-linecap="round" stroke-linejoin="round"/>
<path d="M180.314 149.887L209.687 137.637L184.691 156.233L180.314 149.887Z" fill="#808080" stroke="black" stroke-width="0.5" stroke-miterlimit="10" stroke-linecap="round" stroke-linejoin="round"/>
<path d="M120.946 213.036L123.521 197.53L133.679 199.922L129.47 215.013L120.946 213.036Z" fill="#E5E5E5" stroke="black" stroke-width="0.5" stroke-miterlimit="10" stroke-linecap="round" stroke-linejoin="round"/>
<path d="M126.575 151.71L118.376 205.211L132.979 208.326L146.297 152.645" fill="#CCCCCC"/>
<path d="M126.575 151.71L118.376 205.211L132.979 208.326L146.297 152.645" stroke="black" stroke-width="0.5" stroke-linecap="round" stroke-linejoin="round"/>
<path d="M162.404 70.486C164.637 70.486 166.447 68.6759 166.447 66.443C166.447 64.21 164.637 62.3999 162.404 62.3999C160.171 62.3999 158.361 64.21 158.361 66.443C158.361 68.6759 160.171 70.486 162.404 70.486Z" fill="#333333" stroke="black" stroke-width="0.5" stroke-linecap="round" stroke-linejoin="round"/>
<path d="M175.862 68.218C175.862 68.218 177.222 66.7848 177.086 65.4399C176.95 64.0951 175.556 63.3997 174.675 64.9298C173.704 66.6286 172.819 68.3752 172.024 70.1631C171.288 71.8428 169.187 73.5226 166.074 73.3594C165.696 73.3407 165.244 76.1835 165.244 76.1835L164.96 81.2075C164.96 81.2075 164.435 84.4991 169.627 85.2404C171.576 85.5175 172.982 85.0194 173.978 84.2883C174.671 83.7694 175.228 83.0911 175.603 82.311C175.978 81.5308 176.16 80.6717 176.132 79.8066L175.862 68.218Z" fill="#E5E5E5" stroke="black" stroke-width="0.5" stroke-miterlimit="10" stroke-linecap="round" stroke-linejoin="round"/>
<path d="M159.598 58.5443L161.651 73.3886C161.651 73.3886 162.192 76.3623 166.83 75.2283C171.468 74.0942 174.177 63.3711 174.177 63.3711L174.114 56.4785L159.598 58.5443Z" fill="#E5E5E5" stroke="black" stroke-width="0.5" stroke-miterlimit="10" stroke-linecap="round" stroke-linejoin="round"/>
<path d="M171.964 57.6294C171.964 57.6294 172.6 61.6691 172.172 64.2772C171.743 66.8853 171.68 68.5277 170.697 68.4868L168.331 68.395C167.572 68.364 166.817 68.5047 166.121 68.8065C165.335 69.1465 164.104 69.8725 162.768 69.8266C162.191 69.8087 161.624 69.6751 161.1 69.4338C161.1 69.4338 158.925 75.9133 163.14 77.0592C167.355 78.2051 171.219 76.4471 172.768 74.1502C173.812 72.6013 174.336 68.3695 174.418 66.0964C174.432 65.6663 174.559 65.2475 174.784 64.8812C175.01 64.5148 175.327 64.2135 175.705 64.0068L176.587 60.1882L171.964 57.6294Z" fill="#333333" stroke="black" stroke-width="0.5" stroke-miterlimit="10" stroke-linecap="round" stroke-linejoin="round"/>
<path d="M164.455 70.1579L167.453 68.9678C167.453 68.9678 167.83 70.4317 166.886 70.9043C165.047 71.8224 164.455 70.1579 164.455 70.1579Z" fill="white"/>
<path d="M160.857 64.4881L162.301 63.417" stroke="black" stroke-width="0.5" stroke-linecap="round" stroke-linejoin="round"/>
<path d="M166.312 63.0684L168.688 63.3659" stroke="black" stroke-width="0.5" stroke-linecap="round" stroke-linejoin="round"/>
<path d="M164.315 63.8247C164.315 63.8247 163.874 66.7406 164.18 67.3288C164.487 67.9171 165.825 67.5685 165.825 67.5685" fill="#E5E5E5"/>
<path d="M164.315 63.8247C164.315 63.8247 163.874 66.7406 164.18 67.3288C164.487 67.9171 165.825 67.5685 165.825 67.5685" stroke="black" stroke-width="0.5" stroke-linecap="round" stroke-linejoin="round"/>
<path d="M161.951 66.1812C162.314 66.1812 162.607 65.8874 162.607 65.5249C162.607 65.1625 162.314 64.8687 161.951 64.8687C161.589 64.8687 161.295 65.1625 161.295 65.5249C161.295 65.8874 161.589 66.1812 161.951 66.1812Z" fill="black"/>
<path d="M167.389 65.5709C167.751 65.5709 168.045 65.277 168.045 64.9146C168.045 64.5521 167.751 64.2583 167.389 64.2583C167.026 64.2583 166.732 64.5521 166.732 64.9146C166.732 65.277 167.026 65.5709 167.389 65.5709Z" fill="black"/>
<path d="M171.964 57.6291C171.964 57.6291 168.703 60.6402 162.833 59.7051C156.962 58.77 156.724 56.4645 157.115 54.8391C157.506 53.2138 159.495 52.6289 159.495 52.6289C159.495 52.6289 158.762 49.4733 162.144 49.2863C165.57 49.0959 166.735 51.0086 166.735 51.0086C166.735 51.0086 171.026 49.3934 174.302 51.5578C177.973 53.9822 176.596 60.1777 176.596 60.1777L171.964 57.6291Z" fill="#333333" stroke="black" stroke-width="0.5" stroke-miterlimit="10" stroke-linecap="round" stroke-linejoin="round"/>
<path d="M184.282 214.081L171.44 167.195C170.172 162.06 172.618 157.466 177.969 155.011L191.503 146.937L199.536 159.908L187.284 168.732L192.15 211.991L184.282 214.081Z" fill="#E5E5E5" stroke="black" stroke-width="0.5" stroke-miterlimit="10" stroke-linecap="round" stroke-linejoin="round"/>
<path d="M192.085 225.212L163.895 225.892C163.493 225.903 163.092 225.834 162.716 225.689C162.34 225.544 161.997 225.326 161.705 225.049C161.414 224.771 161.18 224.438 161.017 224.07C160.854 223.701 160.766 223.304 160.757 222.902C160.738 222.124 160.982 221.363 161.448 220.741C161.915 220.119 162.578 219.672 163.329 219.472L166.878 218.531C169.049 217.956 171.102 217.003 172.944 215.717L178.895 211.558L179.575 209.474C179.625 209.318 179.711 209.176 179.824 209.058C179.938 208.94 180.076 208.849 180.23 208.792C180.384 208.736 180.548 208.715 180.711 208.731C180.874 208.747 181.032 208.8 181.171 208.885C181.171 208.885 181.239 206.383 183.551 206.77C185.335 207.07 184.447 208.498 185.592 209.807C185.609 209.827 187.511 211.75 190.779 211.521C193.486 211.33 193.174 213.212 193.299 215.526L193.713 223.446C193.725 223.669 193.692 223.893 193.616 224.104C193.54 224.314 193.423 224.508 193.271 224.672C193.12 224.837 192.936 224.97 192.733 225.062C192.529 225.155 192.308 225.206 192.085 225.212Z" fill="#4C4C4C" stroke="black" stroke-width="0.5" stroke-linecap="round" stroke-linejoin="round"/>
<path d="M160.766 222.565C160.766 222.565 165.334 225.474 178.23 222.642C186.1 220.912 193.702 222.404 193.702 222.404" stroke="black" stroke-width="0.5" stroke-linecap="round" stroke-linejoin="round"/>
<path d="M182.766 208.651L182.226 208.418C181.985 208.313 181.704 208.424 181.6 208.665L180.117 212.092C180.012 212.333 180.123 212.613 180.364 212.718L180.904 212.951C181.145 213.056 181.426 212.945 181.53 212.704L183.013 209.277C183.118 209.036 183.007 208.756 182.766 208.651Z" stroke="black" stroke-width="0.5" stroke-linecap="round" stroke-linejoin="round"/>
<path d="M181.331 209.057L180.49 208.693C180.195 208.565 179.851 208.701 179.723 208.997L179.006 210.654C178.878 210.949 179.014 211.292 179.309 211.42L180.15 211.785C180.446 211.912 180.789 211.777 180.917 211.481L181.635 209.824C181.763 209.529 181.627 209.185 181.331 209.057Z" fill="#1A1A1A" stroke="black" stroke-width="0.5" stroke-linecap="round" stroke-linejoin="round"/>
<path d="M183.175 209.587L189.305 212.241C189.471 212.312 189.601 212.447 189.667 212.614C189.734 212.782 189.731 212.969 189.659 213.135C189.418 213.691 188.966 214.128 188.403 214.351C187.84 214.574 187.212 214.564 186.656 214.325L181.997 212.308C181.831 212.236 181.701 212.102 181.635 211.934C181.568 211.766 181.571 211.579 181.643 211.413L182.28 209.942C182.352 209.777 182.486 209.646 182.654 209.58C182.821 209.514 183.009 209.516 183.174 209.588L183.175 209.587Z" fill="#1A1A1A" stroke="black" stroke-width="0.5" stroke-linecap="round" stroke-linejoin="round"/>
<path d="M164.002 219.295C164.002 219.295 164.651 220.622 169.995 220.683C172.675 220.713 173.343 219.936 173.38 218.91C173.418 217.883 171.981 216.349 171.981 216.349L173.681 215.203C173.681 215.203 174.91 217.189 175.73 218.065C178.928 221.482 181.227 222.126 181.227 222.126" stroke="black" stroke-width="0.5" stroke-linecap="round" stroke-linejoin="round"/>
<path d="M187.726 221.776C187.726 221.776 187.124 220.108 188.659 219.136C190.195 218.163 191.927 218.529 191.604 217.194C191.201 215.528 186.614 215.003 185.011 214.394C182.746 213.535 182.182 212.395 182.182 212.395" stroke="black" stroke-width="0.5" stroke-linecap="round" stroke-linejoin="round"/>
<path d="M180.316 153.199L190.359 167.589L212.236 156.699H219.717C225.127 156.699 229.207 149.951 228.558 144.58C227.65 137.099 228.167 129.165 228.167 129.165L209.383 122.299L204.944 139.145L180.316 153.199Z" fill="#808080" stroke="black" stroke-width="0.5" stroke-miterlimit="10" stroke-linecap="round" stroke-linejoin="round"/>
<path d="M202.439 79.2815C204.927 79.2815 206.945 77.2644 206.945 74.776C206.945 72.2877 204.927 70.2705 202.439 70.2705C199.951 70.2705 197.934 72.2877 197.934 74.776C197.934 77.2644 199.951 79.2815 202.439 79.2815Z" fill="#333333" stroke="black" stroke-width="0.5" stroke-linecap="round" stroke-linejoin="round"/>
<path d="M211.791 79.8574L213.063 89.3822C213.15 90.0328 213.11 90.6962 212.945 91.3286C212.781 91.9611 212.497 92.5484 212.111 93.0519C211.725 93.5554 211.246 93.9637 210.705 94.2499C210.165 94.5362 209.575 94.6939 208.975 94.7127C207.926 94.745 206.903 94.351 206.102 93.6066C205.302 92.8622 204.781 91.8199 204.641 90.6803L203.357 80.2884L211.791 79.8574Z" fill="#E5E5E5" stroke="black" stroke-width="0.5" stroke-miterlimit="10" stroke-linecap="round" stroke-linejoin="round"/>
<path d="M211.62 72.6862C210.46 70.9231 208 70.0135 208 70.0135L204.894 66.1778C204.202 66.1081 201.565 66.948 201.05 69.2093C200.334 72.3461 199.446 76.4113 199.3 77.8921C199.05 80.4339 200.538 83.9142 204.219 84.0519C207.9 84.1896 210.183 83.4603 211.919 81.755C213.432 80.2707 213.669 78.9395 213.859 77.9296C213.859 77.933 213.021 74.8148 211.62 72.6862Z" fill="#E5E5E5" stroke="black" stroke-width="0.5" stroke-miterlimit="10" stroke-linecap="round" stroke-linejoin="round"/>
<path d="M208.977 74.32L206.75 72.9292" stroke="black" stroke-width="0.5" stroke-linecap="round" stroke-linejoin="round"/>
<path d="M203.911 71.6287L201.92 71.3975" stroke="black" stroke-width="0.5" stroke-linecap="round" stroke-linejoin="round"/>
<path d="M204.355 74.1519C204.355 74.1519 203.085 75.7144 203.094 76.5491C203.102 77.3839 204.326 77.3856 204.326 77.3856" stroke="black" stroke-width="0.5" stroke-linecap="round" stroke-linejoin="round"/>
<path d="M206.972 75.9864C207.336 75.9864 207.63 75.6918 207.63 75.3284C207.63 74.965 207.336 74.6704 206.972 74.6704C206.609 74.6704 206.314 74.965 206.314 75.3284C206.314 75.6918 206.609 75.9864 206.972 75.9864Z" fill="black"/>
<path d="M202.537 74.1773C202.9 74.1773 203.195 73.8827 203.195 73.5193C203.195 73.1559 202.9 72.8613 202.537 72.8613C202.173 72.8613 201.879 73.1559 201.879 73.5193C201.879 73.8827 202.173 74.1773 202.537 74.1773Z" fill="black"/>
<path d="M204.469 80.4594C204.864 80.5905 205.292 80.5803 205.681 80.4305C206.285 80.1754 206.716 79.3984 206.716 79.3984" stroke="black" stroke-width="0.5" stroke-linecap="round" stroke-linejoin="round"/>
<path d="M207.711 138.288H54.1289V143.207H207.711V138.288Z" fill="white" stroke="black" stroke-width="0.5" stroke-miterlimit="10" stroke-linecap="round" stroke-linejoin="round"/>
<path d="M54.1289 138.288H207.711L202.275 115.759H59.5644L54.1289 138.288Z" fill="white" stroke="black" stroke-width="0.5" stroke-miterlimit="10" stroke-linecap="round" stroke-linejoin="round"/>
<path d="M51.8529 69.6955C54.8135 69.6955 57.2136 67.2955 57.2136 64.3348C57.2136 61.3742 54.8135 58.9741 51.8529 58.9741C48.8923 58.9741 46.4922 61.3742 46.4922 64.3348C46.4922 67.2955 48.8923 69.6955 51.8529 69.6955Z" fill="#666666" stroke="black" stroke-width="0.5" stroke-linecap="round" stroke-linejoin="round"/>
<path d="M69.5995 71.5827C68.644 71.5657 68.1645 71.11 67.6579 70.197C64.4139 64.3483 50.8259 63.1633 46.487 73.3492C43.8619 79.5141 45.7492 82.3602 37.1054 86.66C31 89.7033 46.703 97.7878 50.8242 88.804C55.7548 78.0655 67.9163 87.2108 72.3113 80.7025C76.7522 74.1295 72.1328 71.6286 69.5995 71.5827Z" fill="#666666" stroke="black" stroke-width="0.5" stroke-linecap="round" stroke-linejoin="round"/>
<path d="M54.2324 79.2285L47.656 91.1707C46.794 93.3146 49.3698 95.9312 51.9065 96.5382L52.2109 95.3872C54.3837 95.9091 56.5719 94.9094 57.2859 93.0681L60.4313 84.965L54.2324 79.2285Z" fill="#E5E5E5" stroke="black" stroke-width="0.5" stroke-miterlimit="10" stroke-linecap="round" stroke-linejoin="round"/>
<path d="M58.0494 78.5418C58.0494 78.5418 61.6997 80.5361 64.6462 76.2516C67.1608 72.5928 69.2656 74.5208 69.2656 74.5208C69.2656 74.5208 68.4631 79.3409 68.0908 82.2108C67.7116 85.13 67.5433 87.2859 66.8819 88.6154C65.5711 91.2524 63.9916 93.6531 60.2835 91.5891C56.8372 89.6746 55.7116 86.0974 56.033 83.1374C53.5881 81.9473 54.5283 77.8192 55.6504 77.4332C57.3183 76.8569 58.0494 78.5418 58.0494 78.5418Z" fill="#E5E5E5" stroke="black" stroke-width="0.5" stroke-miterlimit="10" stroke-linecap="round" stroke-linejoin="round"/>
<path d="M67.728 81.9438C67.728 81.9438 69.0508 85.3136 68.7022 86.349C68.3537 87.3845 66.832 86.8931 66.832 86.8931" fill="#E5E5E5"/>
<path d="M67.728 81.9438C67.728 81.9438 69.0508 85.3136 68.7022 86.349C68.3537 87.3845 66.832 86.8931 66.832 86.8931" stroke="black" stroke-width="0.5" stroke-linecap="round" stroke-linejoin="round"/>
<path d="M65.4592 83.0659C65.8789 83.0659 66.2192 82.7256 66.2192 82.3059C66.2192 81.8862 65.8789 81.5459 65.4592 81.5459C65.0395 81.5459 64.6992 81.8862 64.6992 82.3059C64.6992 82.7256 65.0395 83.0659 65.4592 83.0659Z" fill="black"/>
<path d="M62.4225 85.3901L65.1785 88.3536C65.1785 88.3536 63.7963 89.44 62.5296 88.2346C61.263 87.0291 62.4225 85.3901 62.4225 85.3901Z" fill="white" stroke="black" stroke-width="0.5" stroke-linecap="round" stroke-linejoin="round"/>
<path d="M66.4817 79.4668L63.9824 80.305" stroke="black" stroke-width="0.5" stroke-linecap="round" stroke-linejoin="round"/>
<path d="M216.665 78.9837C211.364 78.8817 214.484 72.8273 208.948 70.6987C203.747 68.6992 203.626 64.9299 204.543 63.7397" fill="black"/>
<path d="M155.733 113.756L148.801 110.138C147.878 109.656 146.846 109.423 145.805 109.462C144.765 109.501 143.752 109.81 142.867 110.359L137.304 113.812C137.212 113.87 137.132 113.946 137.07 114.036C137.008 114.125 136.965 114.227 136.944 114.334C136.923 114.441 136.925 114.552 136.949 114.658C136.973 114.765 137.019 114.865 137.083 114.953C137.193 115.102 137.351 115.209 137.53 115.253C137.71 115.298 137.9 115.279 138.066 115.198L138.122 115.171L138.025 115.28C137.916 115.399 137.85 115.552 137.838 115.714C137.826 115.875 137.869 116.036 137.959 116.17L138.046 116.303C138.1 116.385 138.17 116.454 138.252 116.508C138.334 116.562 138.425 116.599 138.522 116.616C138.618 116.634 138.717 116.632 138.812 116.611C138.908 116.589 138.998 116.549 139.078 116.492L138.976 116.648C138.873 116.805 138.824 116.992 138.837 117.18C138.85 117.367 138.924 117.545 139.047 117.687L139.086 117.731C139.212 117.879 139.385 117.978 139.575 118.014C139.766 118.05 139.963 118.02 140.134 117.928L140.105 117.964C139.98 118.107 139.911 118.291 139.911 118.481C139.911 118.671 139.98 118.855 140.105 118.998C140.221 119.13 140.377 119.219 140.55 119.252C140.722 119.284 140.901 119.258 141.057 119.178L147.128 116.062L150.2 118.263C150.829 118.714 153.405 118.964 154.111 118.642L182.603 119.035C184.041 119.055 185.445 118.6 186.597 117.739C187.749 116.877 188.584 115.66 188.972 114.275L192.659 101.032L181.812 99.3555L179.423 108.484C179.346 108.739 179.2 108.968 179.002 109.146C178.804 109.324 178.561 109.444 178.3 109.494L155.733 113.756Z" fill="#E5E5E5" stroke="black" stroke-width="0.5" stroke-miterlimit="10" stroke-linecap="round" stroke-linejoin="round"/>
<path d="M138.031 115.232L142.873 112.045" stroke="black" stroke-width="0.5" stroke-linecap="round" stroke-linejoin="round"/>
<path d="M138.986 116.569L143.903 113.292" stroke="black" stroke-width="0.5" stroke-linecap="round" stroke-linejoin="round"/>
<path d="M140.062 117.978L145.03 114.703" stroke="black" stroke-width="0.5" stroke-linecap="round" stroke-linejoin="round"/>
<path d="M137.752 123.925H161.438V121.402H137.752V123.925Z" fill="#B3B3B3" stroke="black" stroke-width="0.5" stroke-linecap="round" stroke-linejoin="round"/>
<path d="M105.133 105.481H132.895L144.156 123.925H116.393L105.133 105.481Z" fill="#CCCCCC" stroke="black" stroke-width="0.5" stroke-linecap="round" stroke-linejoin="round"/>
<path d="M142.604 123.925H144.156L132.896 105.481H131.342L142.604 123.925Z" fill="#E5E5E5" stroke="black" stroke-width="0.5" stroke-linecap="round" stroke-linejoin="round"/>
<path d="M183.681 78.7222C183.681 78.7222 190.52 79.1727 192.9 82.534C196.254 87.2741 194.978 93.2639 194.978 93.2639L192.779 103.922L180.766 101.467L182.928 87.5181" fill="#666666"/>
<path d="M183.681 78.7222C183.681 78.7222 190.52 79.1727 192.9 82.534C196.254 87.2741 194.978 93.2639 194.978 93.2639L192.779 103.922L180.766 101.467L182.928 87.5181" stroke="black" stroke-width="0.5" stroke-linecap="round" stroke-linejoin="round"/>
<path d="M178.098 65.6366C178.142 62.9909 176.446 60.8171 174.309 60.7813C172.172 60.7454 170.404 62.8612 170.36 65.5069C170.315 68.1526 172.012 70.3264 174.148 70.3622C176.285 70.398 178.053 68.2823 178.098 65.6366Z" fill="#333333" stroke="black" stroke-width="0.5" stroke-linecap="round" stroke-linejoin="round"/>
<path d="M177.782 65.6912C177.814 63.7844 176.591 62.2176 175.05 62.1918C173.509 62.166 172.234 63.6909 172.202 65.5977C172.17 67.5045 173.394 69.0712 174.934 69.097C176.475 69.1229 177.75 67.598 177.782 65.6912Z" fill="#4C4C4C" stroke="black" stroke-width="0.5" stroke-linecap="round" stroke-linejoin="round"/>
<path d="M169.249 74.4325C168.692 74.5902 168.112 74.6478 167.535 74.6025L167.556 74.3287C169.387 74.4733 171.14 73.5246 172.365 71.7241C173.896 69.4866 175.385 65.7547 175.4 65.7173L175.654 65.8176C175.638 65.8567 174.134 69.6158 172.593 71.8788C171.696 73.1913 170.527 74.072 169.249 74.4325Z" fill="black"/>
<path d="M167.096 73.5891L165.616 73.4532C165.199 73.4149 164.83 73.7219 164.792 74.1389L164.786 74.2015C164.748 74.6186 165.055 74.9877 165.472 75.026L166.952 75.162C167.369 75.2003 167.738 74.8933 167.776 74.4763L167.782 74.4137C167.82 73.9966 167.513 73.6275 167.096 73.5891Z" fill="#4C4C4C" stroke="black" stroke-width="0.5" stroke-linecap="round" stroke-linejoin="round"/>
<path d="M174.686 64.5579C174.872 62.5295 175.125 60.3737 173.525 56.4938C171.466 51.4953 166.734 51.0141 166.734 51.0141L167.792 50.7251C167.792 50.7251 172.741 51.0141 175.149 56.2847C176.544 59.3451 177.005 62.9359 176.752 65.1818C176.692 65.7021 176.295 67.0197 175.421 66.8038C174.547 66.5879 174.633 65.1461 174.686 64.5579Z" fill="#B3B3B3" stroke="black" stroke-width="0.5" stroke-linecap="round" stroke-linejoin="round"/>
<path d="M216.789 76.1769C217.133 73.5573 215.696 71.2085 213.581 70.9306C211.465 70.6528 209.471 72.5512 209.127 75.1708C208.783 77.7905 210.219 80.1393 212.335 80.4171C214.451 80.6949 216.445 78.7966 216.789 76.1769Z" fill="#333333" stroke="black" stroke-width="0.5" stroke-linecap="round" stroke-linejoin="round"/>
<path d="M216.469 76.196C216.717 74.308 215.682 72.6151 214.156 72.4147C212.631 72.2144 211.193 73.5826 210.945 75.4706C210.697 77.3586 211.733 79.0516 213.258 79.2519C214.784 79.4522 216.221 78.084 216.469 76.196Z" fill="#4C4C4C" stroke="black" stroke-width="0.5" stroke-linecap="round" stroke-linejoin="round"/>
<path d="M209.515 85.3494C208.961 85.5169 208.382 85.5842 207.805 85.5483L207.822 85.2763C209.653 85.3886 211.392 84.4075 212.582 82.5883C214.068 80.3237 215.496 76.5662 215.51 76.5288L215.765 76.624C215.751 76.6631 214.313 80.4478 212.81 82.7447C211.941 84.0658 210.789 84.9669 209.515 85.3494Z" fill="black"/>
<path d="M207.568 84.6571L206.083 84.5531C205.664 84.5238 205.3 84.8395 205.271 85.2583L205.267 85.3212C205.237 85.74 205.553 86.1033 205.972 86.1326L207.458 86.2366C207.877 86.2659 208.24 85.9502 208.269 85.5314L208.274 85.4685C208.303 85.0497 207.987 84.6864 207.568 84.6571Z" fill="#4C4C4C" stroke="black" stroke-width="0.5" stroke-linecap="round" stroke-linejoin="round"/>
<path d="M214.699 75.9322C215.117 73.9379 215.476 72.746 214.337 68.7064C212.868 63.5055 206.346 62.5142 206.346 62.5142L207.998 62.4819C207.998 62.4819 214.158 63.2997 215.94 68.8135C216.972 72.0081 217.19 74.5941 216.676 76.7907C216.559 77.3008 216.011 78.5624 215.168 78.2478C214.325 77.9333 214.576 76.5103 214.699 75.9322Z" fill="#B3B3B3" stroke="black" stroke-width="0.5" stroke-linecap="round" stroke-linejoin="round"/>
<path d="M128.856 223.575C129.338 222.992 129.672 222.301 129.827 221.56L130.817 214.36C130.822 213.465 130.152 213.41 129.21 213.229L124.452 212.469C123.954 212.373 123.51 212.094 123.209 211.685L122.157 210.261C121.979 210.018 121.749 209.819 121.483 209.677C121.218 209.535 120.924 209.455 120.624 209.442C120.323 209.429 120.023 209.484 119.747 209.602C119.47 209.721 119.223 209.899 119.025 210.126L118.167 211.106C117.888 211.424 97.6039 214.152 97.6039 214.152C96.4616 214.411 95.7829 215.456 96.2265 216.541C96.5194 217.262 97.3141 218.274 98.98 218.571L127.126 224.195C127.444 224.259 127.772 224.234 128.077 224.125C128.382 224.016 128.651 223.826 128.856 223.575Z" fill="#808080" stroke="black" stroke-width="0.5" stroke-miterlimit="10" stroke-linecap="round" stroke-linejoin="round"/>
<path d="M104.972 213.116C104.924 212.709 105.327 212.354 105.738 212.323C106.148 212.293 106.535 212.497 106.869 212.733C107.701 213.33 108.337 214.159 108.699 215.116C108.795 215.304 108.814 215.522 108.751 215.724C108.689 215.831 108.594 215.915 108.481 215.965C108.367 216.014 108.241 216.027 108.12 216C107.879 215.941 107.656 215.825 107.47 215.662C107.003 215.295 106.561 214.898 106.147 214.472C105.778 214.116 105.036 213.673 104.972 213.116Z" fill="white" stroke="black" stroke-width="0.5" stroke-miterlimit="10" stroke-linecap="round" stroke-linejoin="round"/>
<path d="M108.403 212.414C108.481 212.093 108.85 211.912 109.19 211.944C109.518 212.001 109.824 212.145 110.078 212.36C110.981 213.028 111.767 213.841 112.402 214.767C112.612 215.071 112.806 215.482 112.599 215.788C112.51 215.895 112.39 215.971 112.255 216.006C112.121 216.042 111.979 216.034 111.849 215.984C111.59 215.88 111.357 215.722 111.165 215.52C110.539 214.948 109.907 214.379 109.285 213.802C108.932 213.472 108.305 212.927 108.403 212.414Z" fill="white" stroke="black" stroke-width="0.5" stroke-miterlimit="10" stroke-linecap="round" stroke-linejoin="round"/>
<path d="M113.603 212.16C114.158 212.662 114.641 213.238 115.037 213.873C115.215 214.15 115.376 214.38 115.386 214.728C115.402 214.84 115.387 214.954 115.341 215.056C115.295 215.159 115.221 215.247 115.127 215.309C115.033 215.371 114.923 215.405 114.81 215.407C114.698 215.409 114.587 215.378 114.491 215.32C114.286 215.211 114.103 215.066 113.951 214.891C113.242 214.17 112.61 213.269 111.84 212.619C111.597 212.414 111.171 212.239 111.254 211.829C111.314 211.529 111.639 211.455 111.908 211.44C112.518 211.421 113.095 211.727 113.603 212.16Z" fill="white" stroke="black" stroke-width="0.5" stroke-miterlimit="10" stroke-linecap="round" stroke-linejoin="round"/>
<path d="M96.3285 215.086C96.2949 216.044 98.2547 216.987 99.3037 217.325C101.801 218.127 103.74 218.232 106.171 218.376C111.286 218.679 116.267 217.926 121.283 218.428C125.048 218.804 126.691 218.843 129.929 220.797L129.789 221.74C129.635 222.374 129.346 222.966 128.941 223.478C128.717 223.759 128.42 223.973 128.082 224.097C127.744 224.221 127.378 224.249 127.026 224.179C119.657 222.763 105.258 219.848 98.6847 218.505C97.4326 218.254 95.8612 216.843 96.1015 215.589L96.3285 215.086Z" fill="#333333"/>
<path d="M26.7548 135.077C26.7548 135.077 36.2359 118.762 39.9293 112.125C40.5448 111.355 48.2622 88.8247 48.3098 89.2702C48.5241 91.1302 50.3909 92.3135 52.5977 93.303C55.7805 94.7295 56.9383 93.8012 56.9383 93.8012L68.2242 97.7456C68.2242 97.7456 62.2888 118.26 57.1883 127.593C56.2243 131.44 54.1279 138.288 54.1279 138.288C54.1279 138.288 48.1075 138.203 44.6459 138.203C33.6848 138.203 32.2549 140.22 28.4941 138.713C27.3941 138.266 26.1699 136.172 26.7548 135.077Z" fill="#808080" stroke="black" stroke-width="0.5" stroke-miterlimit="10" stroke-linecap="round" stroke-linejoin="round"/>
<path d="M230.981 132.089C230.981 132.089 224.017 115.607 215.892 90.9999C214.731 88.2142 212.874 87.2856 212.874 87.2856C211.017 88.6785 208.696 89.8392 206.839 90.0714C204.981 90.3035 204.517 90.0714 204.517 90.0714L194.303 95.4106C194.303 95.4106 194.303 103.304 202.892 118.393C204.159 123.346 206.839 134.961 206.839 134.961C206.839 134.961 212.795 134.961 216.257 134.961C227.218 134.961 226.292 136.847 230.053 135.339C231.155 134.892 231.566 133.182 230.981 132.089Z" fill="#999999" stroke="black" stroke-width="0.5" stroke-miterlimit="10" stroke-linecap="round" stroke-linejoin="round"/>
<path d="M166.193 88.8167L152.968 79.8512L146.715 72.3491C146.425 72.0016 146.067 71.7173 145.663 71.5139C145.259 71.3105 144.818 71.1923 144.366 71.1666L138.236 70.816C138.184 70.8142 138.133 70.8253 138.086 70.8485C138.04 70.8716 138 70.906 137.97 70.9485C137.94 70.991 137.922 71.0403 137.916 71.0919C137.91 71.1434 137.917 71.1956 137.936 71.2437C138.025 71.4593 138.165 71.6499 138.344 71.7984C138.524 71.947 138.737 72.0489 138.965 72.0953L137.819 72.4581L137.287 72.3946C137.214 72.3868 137.14 72.394 137.07 72.4158C137 72.4376 136.936 72.4734 136.88 72.5212C136.825 72.5689 136.78 72.6276 136.748 72.6934C136.716 72.7593 136.698 72.831 136.695 72.9041C136.689 73.6427 137.625 73.8816 138.31 74.159L143.077 76.0916L145.209 78.739L146.95 82.8176C147.206 83.4187 147.591 83.9567 148.077 84.3938C148.563 84.8309 149.138 85.1566 149.763 85.3482L150.958 85.7187L161.796 94.4931L166.193 88.8167Z" fill="#E5E5E5" stroke="black" stroke-width="0.5" stroke-linecap="round" stroke-linejoin="round"/>
<path d="M137.82 72.4648C137.82 72.4648 142.106 73.4249 144.216 74.6344C145.265 75.2363 147.272 78.2412 147.272 78.2412" stroke="black" stroke-width="0.5" stroke-linecap="round" stroke-linejoin="round"/>
<path d="M140.988 73.3203C140.988 73.3203 143.639 73.3623 144.713 73.6491C145.787 73.9359 147.965 76.4712 147.965 76.4712" stroke="black" stroke-width="0.5" stroke-linecap="round" stroke-linejoin="round"/>
<path d="M138.955 72.1099C138.955 72.1099 143.805 71.9122 144.875 72.1464C146.227 72.445 148.651 75.3489 148.651 75.3489" stroke="black" stroke-width="0.5" stroke-linecap="round" stroke-linejoin="round"/>
<path d="M85.1053 130.013H61.4199V132.536H85.1053V130.013Z" fill="#B3B3B3" stroke="black" stroke-width="0.5" stroke-linecap="round" stroke-linejoin="round"/>
<path d="M117.722 114.094H89.9596L78.6992 132.538H106.462L117.722 114.094Z" fill="#CCCCCC" stroke="black" stroke-width="0.5" stroke-linecap="round" stroke-linejoin="round"/>
<path d="M80.2532 132.538H78.6992L89.9596 114.094H91.5136L80.2532 132.538Z" fill="#E5E5E5" stroke="black" stroke-width="0.5" stroke-linecap="round" stroke-linejoin="round"/>
<path d="M55.6569 79.0229C55.6569 79.0229 55.4868 89.5471 51.8739 91.9444C43.645 97.385 36.8867 90.4465 36.8867 90.4465" fill="#666666"/>
<path d="M55.6569 79.0229C55.6569 79.0229 55.4868 89.5471 51.8739 91.9444C43.645 97.385 36.8867 90.4465 36.8867 90.4465" stroke="black" stroke-width="0.5" stroke-linecap="round" stroke-linejoin="round"/>
<path d="M59.1014 81.4819C59.5908 78.8815 58.285 76.453 56.1848 76.0577C54.0845 75.6623 51.9851 77.4499 51.4956 80.0503C51.0062 82.6507 52.312 85.0793 54.4122 85.4746C56.5125 85.8699 58.6119 84.0824 59.1014 81.4819Z" fill="#333333" stroke="black" stroke-width="0.5" stroke-linecap="round" stroke-linejoin="round"/>
<path d="M57.2787 81.1992C57.6315 79.3251 56.6899 77.5747 55.1756 77.2896C53.6613 77.0046 52.1478 78.2929 51.795 80.167C51.4422 82.0412 52.3838 83.7916 53.8981 84.0766C55.4124 84.3617 56.9259 83.0734 57.2787 81.1992Z" fill="#4C4C4C" stroke="black" stroke-width="0.5" stroke-linecap="round" stroke-linejoin="round"/>
<path d="M55.4661 91.1963C55.8825 91.5981 56.3673 91.9223 56.8977 92.1535L57.0065 91.9036C55.325 91.1674 54.2267 89.5029 53.9955 87.3369C53.7064 84.6438 54.1502 80.6483 54.1553 80.6092L53.8833 80.5786C53.8833 80.6177 53.431 84.6438 53.7234 87.3658C53.8935 88.947 54.5072 90.2748 55.4661 91.1963Z" fill="black"/>
<path d="M57.1457 92.9198L58.5144 93.4983C58.9002 93.6613 59.345 93.4807 59.5081 93.095L59.5326 93.037C59.6956 92.6513 59.515 92.2064 59.1293 92.0434L57.7605 91.4649C57.3748 91.3019 56.9299 91.4824 56.7669 91.8682L56.7424 91.9261C56.5794 92.3119 56.7599 92.7568 57.1457 92.9198Z" fill="#4C4C4C" stroke="black" stroke-width="0.5" stroke-linecap="round" stroke-linejoin="round"/>
<path d="M55.0666 79.6808C55.2944 77.6576 55.4798 75.4949 57.8277 72.0164C60.8524 67.5363 65.584 68.0175 65.584 68.0175L64.6064 67.521C64.6064 67.521 59.7013 66.8069 56.2755 71.4842C54.293 74.1943 53.1165 77.6253 52.9125 79.8763C52.8666 80.3983 52.9907 81.7686 53.8901 81.7329C54.7895 81.6972 55.0003 80.2691 55.0666 79.6808Z" fill="#B3B3B3" stroke="black" stroke-width="0.5" stroke-linecap="round" stroke-linejoin="round"/>
<path d="M183.245 132.002H203.703V129.823H183.245V132.002Z" fill="#B3B3B3" stroke="black" stroke-width="0.5" stroke-linecap="round" stroke-linejoin="round"/>
<path d="M155.07 116.071H179.052L188.777 132.002H164.797L155.07 116.071Z" fill="#CCCCCC" stroke="black" stroke-width="0.5" stroke-linecap="round" stroke-linejoin="round"/>
<path d="M187.436 132.002H188.777L179.052 116.071H177.711L187.436 132.002Z" fill="#E5E5E5" stroke="black" stroke-width="0.5" stroke-linecap="round" stroke-linejoin="round"/>
<path d="M100.683 85.9816L110.481 77.3446C110.481 77.3446 111.841 77.2001 112.368 76.5387C112.895 75.8774 114.651 67.3577 114.662 66.0486C114.662 65.2824 114.749 64.5188 114.92 63.772L117.678 59.7375C117.79 59.573 117.838 59.3724 117.81 59.175C117.783 58.9775 117.683 58.7974 117.53 58.6697C117.445 58.5991 117.347 58.5468 117.241 58.5159C117.135 58.485 117.024 58.4764 116.915 58.4904C116.806 58.5045 116.7 58.5409 116.606 58.5975C116.511 58.6541 116.429 58.7296 116.365 58.8193L110.35 67.2472L107.33 73.4359L96.1992 80.6583L100.683 85.9816Z" fill="#E5E5E5" stroke="black" stroke-width="0.5" stroke-linecap="round" stroke-linejoin="round"/>
<path d="M110.46 74.7332C110.46 74.7332 112.871 72.0928 113.441 70.4334C113.764 69.5284 114.008 68.5972 114.17 67.6502L117.261 63.1702C117.36 63.0271 117.404 62.8537 117.387 62.6809C117.369 62.508 117.291 62.347 117.166 62.2266C117.093 62.1561 117.006 62.1016 116.911 62.0666C116.816 62.0315 116.714 62.0166 116.613 62.0229C116.512 62.0291 116.413 62.0563 116.323 62.1028C116.233 62.1493 116.154 62.214 116.09 62.2928L110.404 69.3061" fill="#E5E5E5"/>
<path d="M110.46 74.7332C110.46 74.7332 112.871 72.0928 113.441 70.4334C113.764 69.5284 114.008 68.5972 114.17 67.6502L117.261 63.1702C117.36 63.0271 117.404 62.8537 117.387 62.6809C117.369 62.508 117.291 62.347 117.166 62.2266V62.2266C117.093 62.1561 117.006 62.1016 116.911 62.0666C116.816 62.0315 116.714 62.0166 116.613 62.0229C116.512 62.0291 116.413 62.0563 116.323 62.1028C116.233 62.1493 116.154 62.214 116.09 62.2928L110.404 69.3061" stroke="black" stroke-width="0.5" stroke-linecap="round" stroke-linejoin="round"/>
<path d="M99.9323 76.6733L105.024 84.4772L87.3084 100.289L65.1362 109.944C61.7783 111.913 57.4479 111.085 55.1475 107.952C54.1614 106.605 53.6173 104.917 54.1699 102.86C55.8837 96.4245 62.8511 95.3789 62.8511 95.3789L81.6756 88.8059L99.9323 76.6733Z" fill="#808080" stroke="black" stroke-width="0.5" stroke-miterlimit="10" stroke-linecap="round" stroke-linejoin="round"/>
<path d="M161.106 84.0356L155.07 91.6403L175.663 103.763L198.417 105.706C202.007 106.426 205.645 104.511 206.769 101.212C207.251 99.7955 207.234 98.2136 206.127 96.6272C202.673 91.66 196.115 92.7293 196.115 92.7293L177.28 92.4548L161.106 84.0356Z" fill="#999999" stroke="black" stroke-width="0.5" stroke-miterlimit="10" stroke-linecap="round" stroke-linejoin="round"/>
<path d="M194.308 115.723C194.711 114.762 196.978 114.32 198.686 114.413C200.394 114.507 201.434 114.972 202.077 115.482C203.139 116.326 205.682 119.591 204.685 120.315C203.82 120.944 203.071 119.868 203.071 119.868C203.101 120.02 203.079 120.178 203.007 120.315C202.935 120.452 202.818 120.561 202.676 120.623C202.003 120.896 201 119.974 201 119.974C201 119.974 200.935 120.666 200.311 120.779C199.406 120.944 198.554 119.606 198.554 119.606C198.48 119.727 198.375 119.826 198.249 119.892C198.124 119.959 197.983 119.991 197.841 119.985C196.638 119.858 193.818 116.893 194.308 115.723Z" fill="#E5E5E5" stroke="black" stroke-width="0.5" stroke-linecap="round" stroke-linejoin="round"/>
<path d="M199.98 115.673C199.98 115.673 201.227 116.844 201.906 117.861C202.349 118.533 202.751 119.231 203.109 119.951" fill="#E5E5E5"/>
<path d="M199.98 115.673C199.98 115.673 201.227 116.844 201.906 117.861C202.349 118.533 202.751 119.231 203.109 119.951" stroke="black" stroke-width="0.5" stroke-linecap="round" stroke-linejoin="round"/>
<path d="M197.98 115.893C198.643 116.568 199.261 117.286 199.83 118.042C200.261 118.662 200.654 119.307 201.007 119.974" fill="#E5E5E5"/>
<path d="M197.98 115.893C198.643 116.568 199.261 117.286 199.83 118.042C200.261 118.662 200.654 119.307 201.007 119.974" stroke="black" stroke-width="0.5" stroke-linecap="round" stroke-linejoin="round"/>
<path d="M195.732 115.841C195.732 115.841 196.699 117.001 197.256 117.741C197.902 118.617 198.56 119.607 198.56 119.607" fill="#E5E5E5"/>
<path d="M195.732 115.841C195.732 115.841 196.699 117.001 197.256 117.741C197.902 118.617 198.56 119.607 198.56 119.607" stroke="black" stroke-width="0.5" stroke-linecap="round" stroke-linejoin="round"/>
<path d="M71.6564 119.88C71.6253 119.882 71.594 119.882 71.5629 119.88C71.4252 119.859 68.1795 119.339 67.6525 116.391C67.3991 114.961 67.8089 114.125 68.1965 113.671C69.334 112.351 71.5442 112.821 71.7941 112.884C72.1818 112.975 72.4334 113.414 72.3535 113.863C72.2736 114.312 71.8962 114.602 71.5034 114.512C70.956 114.387 69.674 114.302 69.2065 114.852C69.1316 114.941 68.9021 115.208 69.0534 116.061C69.3663 117.831 71.7142 118.231 71.738 118.234C72.1308 118.294 72.4079 118.71 72.3569 119.166C72.3456 119.349 72.2686 119.522 72.1399 119.654C72.0112 119.785 71.8396 119.865 71.6564 119.88Z" fill="#CCCCCC" stroke="black" stroke-width="0.5" stroke-linecap="round" stroke-linejoin="round"/>
<path d="M78.839 122.396H71.8682C71.7576 122.397 71.6509 122.355 71.5691 122.281C71.4873 122.206 71.4364 122.104 71.4262 121.994L70.5047 111.532C70.496 111.432 70.5082 111.331 70.5406 111.235C70.5731 111.14 70.625 111.052 70.6931 110.978C70.7612 110.903 70.844 110.844 70.9362 110.803C71.0285 110.763 71.1282 110.742 71.229 110.742H79.4256C79.5259 110.742 79.625 110.763 79.7168 110.803C79.8086 110.843 79.891 110.902 79.9589 110.976C80.0268 111.05 80.0787 111.137 80.1113 111.232C80.1438 111.327 80.1564 111.427 80.1482 111.527L79.2811 121.99C79.2721 122.101 79.2216 122.205 79.1396 122.28C79.0577 122.355 78.9503 122.397 78.839 122.396Z" fill="#CCCCCC" stroke="black" stroke-width="0.5" stroke-linecap="round" stroke-linejoin="round"/>
<path d="M258.236 105.857C258.19 105.486 258.097 105.161 257.865 104.836C257.679 104.511 257.4 104.279 257.075 104.093C256.75 103.907 256.379 103.814 256.007 103.814H228.707C228.29 103.814 227.825 103.954 227.454 104.186C227.082 104.418 226.804 104.789 226.618 105.161L223.554 112.822C221.325 106.786 218.772 99.543 216.079 91.4644C221.14 88.7716 225.225 85.8466 224.111 85.1501C219.05 82.0394 218.029 78.8823 218.4 74.9359C219.282 65.6501 212.736 61.9823 208.325 62.4466C208.093 62.4002 207.954 62.4002 207.954 62.3537L206.282 62.4001C206.236 62.4001 206.19 62.4466 206.19 62.493C204.843 62.6323 203.59 63.0037 202.382 63.6073C200.665 64.4894 199.225 65.7894 198.157 67.4144C196.672 69.7823 194.907 73.9144 197.6 80.1823C199.272 84.1751 202.057 85.7073 201.175 91.6037L199.318 92.5787C197.507 92.3466 196.115 92.5323 196.068 92.5323H195.14C195.372 90.8144 195.604 86.1716 192.957 82.4109C190.822 79.393 185.204 78.6966 183.904 78.5573H183.857L176.197 78.2323L176.011 69.9216C176.382 69.6894 176.707 69.4109 176.986 69.0394C177.729 68.1109 178.193 66.9037 178.193 65.6037C178.193 64.3037 177.822 63.0502 177.079 62.1216C176.986 61.9823 176.893 61.8894 176.754 61.7502C176.707 61.3787 176.661 60.9609 176.568 60.543L176.661 60.1716C176.661 60.1252 178.007 53.8573 174.34 51.443C171.322 49.4466 167.375 50.6537 166.772 50.8394C166.493 50.468 165.24 48.9823 162.129 49.1216C161.061 49.168 160.272 49.5394 159.807 50.143C159.157 51.0252 159.297 52.1394 159.343 52.4644C158.925 52.6037 157.347 53.2537 156.975 54.7394C156.743 55.7609 156.836 56.5502 157.3 57.293C157.718 57.943 158.461 58.4537 159.482 58.8716L160.04 62.9109C158.925 63.6537 158.182 64.9073 158.182 66.3466C158.182 68.0644 159.204 69.5037 160.69 70.1537C160.411 71.4073 160.04 73.7287 160.922 75.4001C161.386 76.2359 162.082 76.793 163.057 77.0716C163.707 77.2573 164.357 77.3502 165.007 77.3966L164.915 78.7894C163.104 79.1609 161.154 79.5787 159.715 79.9966C158.74 80.2752 157.44 80.8787 155.907 81.6216L153.029 79.6716L146.807 72.1966C146.529 71.8251 146.157 71.5466 145.74 71.3144C145.322 71.0823 144.857 70.9894 144.393 70.943L138.265 70.5716C138.172 70.5716 138.125 70.5716 138.079 70.618C138.032 70.6644 137.94 70.7109 137.94 70.7573C137.893 70.8037 137.893 70.8966 137.847 70.943C137.847 71.0359 137.847 71.0823 137.893 71.1287C137.986 71.3609 138.125 71.5466 138.357 71.7323C138.45 71.8251 138.543 71.8716 138.682 71.918L137.893 72.1501L137.382 72.1037C137.29 72.1037 137.197 72.1037 137.104 72.1501C137.011 72.1966 136.918 72.243 136.872 72.2894C136.825 72.3359 136.732 72.4287 136.732 72.5216C136.686 72.6144 136.686 72.7073 136.686 72.8002C136.686 73.543 137.429 73.8216 138.079 74.0537C138.172 74.1002 138.265 74.1466 138.357 74.1466L143.093 76.0502L145.182 78.6501L146.9 82.7359C147.179 83.3394 147.55 83.8966 148.061 84.3609C148.432 84.6859 148.85 84.9644 149.268 85.1501C144.3 87.9359 139.704 90.7216 139.611 90.768C139.565 90.8144 139.518 90.8609 139.565 90.9073L140.075 91.9287L134.411 95.318L130.697 78.2787C130.743 78.1859 130.79 78.093 130.836 77.9537C131.3 76.6537 130.418 68.3894 130.14 65.8823C130.093 65.6501 130 65.418 129.815 65.2787C129.629 65.093 129.397 65.0002 129.165 65.0002C128.932 65.0002 128.654 65.093 128.468 65.2323C128.282 65.418 128.143 65.6501 128.143 65.8823L127.957 67.7859L124.336 58.6394C124.243 58.3609 124.011 58.1287 123.732 57.9894C123.454 57.8502 123.129 57.8037 122.85 57.8966L122.34 58.0359L122.061 57.2466C121.968 56.968 121.782 56.7823 121.55 56.643C121.318 56.5037 121.04 56.5037 120.761 56.5502C120.482 56.643 120.25 56.7823 120.111 57.0609C119.972 57.293 119.925 57.618 119.972 57.8966L120.297 59.1502L119.879 59.243C119.693 59.2894 119.554 59.3359 119.415 59.4752C119.275 59.568 119.136 59.7073 119.09 59.8466C118.997 59.9859 118.95 60.1716 118.904 60.3109C118.857 60.4966 118.904 60.6359 118.95 60.8216L119.229 61.8894L118.811 61.9823C118.486 62.0751 118.254 62.2609 118.068 62.5394C117.882 62.818 117.836 63.143 117.929 63.468L119.832 70.7109C119.832 70.7573 120.854 74.3323 121.875 76.2823C122.479 77.443 123.222 78.5573 124.057 79.3002L125.079 104.232C125.079 104.557 125.125 104.882 125.218 105.207H105.115C105.068 105.207 105.022 105.207 105.022 105.254C105.022 105.3 105.022 105.347 105.022 105.393L110.175 113.843H91.511H89.9789C89.9324 113.843 89.886 113.843 89.886 113.889L88.911 115.514H79.9503L80.2753 111.429C80.2753 111.289 80.2753 111.197 80.2289 111.104C80.1824 111.011 80.136 110.872 80.0431 110.825C79.9503 110.732 79.8574 110.686 79.7646 110.639C79.6717 110.593 79.5324 110.547 79.4396 110.547H71.2217C71.0824 110.547 70.9896 110.593 70.8967 110.639C70.8038 110.686 70.711 110.732 70.6181 110.825C70.5253 110.918 70.4788 111.011 70.4324 111.104C70.386 111.197 70.386 111.336 70.386 111.429L70.4789 112.543C69.6896 112.543 68.761 112.775 68.111 113.518C67.786 113.889 67.461 114.539 67.461 115.561H62.4467C63.0967 113.843 63.7003 112.079 64.2574 110.407C64.5824 110.268 64.861 110.129 65.1396 109.943L87.3324 100.286C87.3324 100.286 87.3324 100.286 87.3788 100.286L105.115 84.4537C105.161 84.4073 105.161 84.3609 105.115 84.3144L104.186 82.9216L110.5 77.3502C110.732 77.3037 111.94 77.1644 112.45 76.5144C112.915 75.9573 114.215 69.7823 114.632 67.043L117.325 63.143C117.418 62.9573 117.511 62.7716 117.465 62.5859C117.465 62.4002 117.372 62.2144 117.186 62.0751C117.093 61.9823 117 61.9359 116.907 61.8894C116.815 61.843 116.675 61.843 116.582 61.843C116.49 61.843 116.35 61.8894 116.257 61.9359L117.743 59.7537C117.882 59.568 117.929 59.3359 117.882 59.1037C117.836 58.8716 117.743 58.6859 117.557 58.5466C117.465 58.4537 117.372 58.4073 117.232 58.3609C117.093 58.3144 117 58.3144 116.861 58.3144C116.722 58.3144 116.629 58.3609 116.49 58.4537C116.397 58.5002 116.304 58.593 116.211 58.6859L110.175 67.1359L107.25 73.3573L100.704 77.6287L100.054 76.6073C100.054 76.5609 100.007 76.5609 99.961 76.5609C99.9146 76.5609 99.9146 76.5609 99.8681 76.5609L81.6217 88.6787L62.8181 95.2252C62.8181 95.2252 62.4931 95.2716 61.9824 95.4109L57.061 93.693C57.1539 93.5073 57.2931 93.3216 57.3396 93.0894L58.4074 93.5537C58.5003 93.6002 58.6396 93.6002 58.7324 93.6002C59.0574 93.6002 59.3824 93.4144 59.5217 93.0894L59.5681 93.043C59.661 92.8109 59.661 92.5787 59.5681 92.393C59.4753 92.1609 59.336 92.0216 59.1039 91.9287L57.9896 91.4644L58.4074 90.3966C58.9181 90.8609 59.5217 91.3251 60.1717 91.6966C61.1467 92.2073 61.9824 92.4859 62.7717 92.4859C63.0967 92.4859 63.4217 92.4394 63.7003 92.3466C65.2324 91.8823 66.2074 90.2109 66.9503 88.6787C67.1824 88.2609 67.3217 87.7501 67.461 87.1466C67.5074 87.1466 67.5074 87.1466 67.5538 87.1466C68.0646 87.1466 68.5753 86.9609 68.761 86.4037C68.9931 85.7537 68.6217 84.3144 68.2503 83.2466C69.9217 82.968 71.3146 82.2716 72.336 80.7859C74.6574 77.3502 74.3788 75.168 73.7753 73.9144C72.9396 72.2894 70.9896 71.5001 69.5503 71.4537C68.6217 71.4537 68.1574 70.9894 67.6931 70.1073C66.1146 67.2287 61.8896 65.3716 57.4789 65.6037C57.3396 65.6037 57.2003 65.6037 57.1074 65.6501C57.2003 65.2787 57.2467 64.8609 57.2931 64.443H86.5896C86.636 64.443 86.6824 64.3966 86.6824 64.3502V63.8394H87.0538C87.1003 63.8394 87.1467 63.793 87.1467 63.7466V63.0502H87.6574C87.7038 63.0502 87.7503 63.0037 87.7503 62.9573V54.9252V34.9609V26.4644C87.7503 26.418 87.7038 26.3716 87.6574 26.3716H43.1788C43.1324 26.3716 43.086 26.418 43.086 26.4644V34.9609V54.6466V62.9109C43.086 62.9573 43.1324 63.0037 43.1788 63.0037H43.5503V63.7001C43.5503 63.7466 43.5967 63.793 43.6431 63.793H43.9681V64.3037C43.9681 64.3502 44.0146 64.3966 44.061 64.3966H46.336C46.3824 66.393 47.4967 68.1573 49.1681 69.0859C48.0074 70.2466 47.0324 71.6394 46.336 73.2644C45.6396 74.8894 45.2681 76.2823 44.9431 77.5359C43.9681 81.0644 43.3646 83.3859 37.0503 86.4966C35.7038 87.193 35.5181 88.0287 35.611 88.6323C35.7038 89.2359 36.1217 89.8859 36.7717 90.443C36.8181 90.4894 40.3467 94.0644 45.4074 94.0644C45.5467 94.0644 45.7324 94.0644 45.8717 94.0644L35.1467 110.036L33.1967 105.161C33.011 104.743 32.7324 104.418 32.361 104.186C31.9896 103.954 31.5717 103.814 31.1074 103.814H3.90028C3.52885 103.814 3.15742 103.907 2.83242 104.093C2.50742 104.279 2.22885 104.511 2.04314 104.836C1.85742 105.161 1.71814 105.486 1.67171 105.857C1.62528 106.229 1.67171 106.6 1.81099 106.925L22.936 160.086C22.936 161.897 24.4217 163.382 26.2788 163.382H45.8253V189.568C45.7324 189.614 45.5931 189.707 45.5003 189.754H45.4538C45.4074 189.754 45.361 189.8 45.361 189.847C42.9003 191.379 40.0681 193.654 38.4431 196.439C37.1896 198.529 36.1217 200.711 35.2396 202.939C35.2396 202.986 35.2396 203.032 35.2396 203.079L43.7824 212.968V214.268C43.7824 214.547 43.8288 214.779 43.9681 215.011L29.8074 219.329C29.8074 219.329 29.8074 219.329 29.761 219.329C29.761 219.329 29.7146 219.329 29.7146 219.375L29.6681 219.422V221.418C28.6003 221.511 27.7646 222.393 27.7646 223.507C27.7646 224.668 28.6931 225.597 29.8539 225.597C31.0146 225.597 31.9431 224.668 31.9431 223.507C31.9431 222.393 31.061 221.464 29.9467 221.418V220.768L45.2681 218.539V219.375C45.2681 219.422 45.3146 219.468 45.361 219.468H46.7074V221.418C45.6396 221.464 44.7574 222.393 44.7574 223.507C44.7574 224.668 45.686 225.597 46.8467 225.597C48.0074 225.597 48.936 224.668 48.936 223.507C48.936 222.393 48.0538 221.511 46.986 221.418V219.468H48.4253C48.4717 219.468 48.5181 219.422 48.5181 219.375V218.586H48.611L50.236 220.443C50.236 220.489 50.2824 220.489 50.3288 220.489H50.3753L52.836 219.236L60.4039 220.397C60.4967 221.139 60.636 221.882 60.7753 222.625C60.7753 222.672 60.8217 222.718 60.8681 222.718L61.7967 222.997C61.7503 223.136 61.7503 223.322 61.7503 223.461C61.7503 224.622 62.6788 225.55 63.8396 225.55C64.7217 225.55 65.511 224.947 65.7896 224.157L83.0146 229.218C83.0146 229.218 83.0146 229.218 83.061 229.218C83.1074 229.218 83.1539 229.218 83.1539 229.172L85.5681 225.086C86.1253 224.111 86.311 222.95 86.1253 221.882C85.9396 220.814 85.2896 219.793 84.4074 219.097L78.1396 214.361C77.9074 214.175 77.6288 213.943 77.3967 213.757C77.3967 213.757 77.3967 213.757 77.3503 213.757C77.0253 213.479 76.7467 213.154 76.4681 212.829C76.5146 212.782 76.4681 212.689 76.4217 212.689C76.4217 212.689 76.3753 212.643 76.2824 212.597C75.586 211.714 75.0753 210.739 74.7038 209.672C74.7503 209.625 74.7038 209.532 74.6574 209.532C74.6574 209.532 74.6574 209.532 74.611 209.486C74.1931 208.232 74.1003 206.886 74.1931 205.586C74.6574 205.864 75.586 206.422 76.1896 206.747C76.6074 206.979 77.4431 207.35 78.186 207.35C78.3717 207.35 78.6038 207.304 78.7896 207.257C79.1146 207.164 79.3467 206.932 79.4396 206.607C79.5788 206.282 79.5788 206.004 79.4396 205.772C79.1146 205.214 78.0467 204.982 77.0253 204.889C76.8396 204.843 76.6074 204.843 76.4217 204.843C77.6289 204.379 78.8824 203.729 78.9753 202.939C79.0217 202.568 78.9288 202.289 78.6967 202.104C78.1396 201.732 77.0253 202.289 76.1896 202.8C75.4931 203.218 74.7967 203.961 74.3324 204.518C74.3789 204.286 74.4253 204.054 74.5181 203.822L75.5396 200.293C75.5396 200.247 75.5396 200.154 75.4467 200.154L75.0753 200.061L80.5074 186.736L82.8288 187.479H82.8753C82.9217 187.479 82.9681 187.432 82.9681 187.386C83.0146 187.247 85.5681 179.307 87.6574 171.693L92.7646 167.654C95.9681 164.636 96.3396 161.479 96.0146 159.343C95.5967 156.232 93.6003 153.307 90.9538 151.914L89.3753 151.172C87.611 147.225 83.8038 145.879 79.161 144.254L78.8824 144.161C78.2324 143.929 77.536 143.697 76.886 143.511H135.479C133.39 143.975 131.625 144.486 130.418 144.95C127.679 146.018 125.265 148.432 124.011 151.264C123.175 153.168 122.525 156.139 123.965 159.622L124.847 161.386L118.254 205.214C118.254 205.261 118.3 205.354 118.347 205.354L121.968 206.143L121.411 209.579C121.179 209.486 120.9 209.393 120.622 209.393C120.297 209.393 119.972 209.439 119.693 209.579C119.415 209.718 119.136 209.904 118.95 210.136L118.115 211.111C117.929 211.204 116.072 211.529 113.379 211.9C112.868 211.575 112.404 211.389 111.94 211.389C111.475 211.436 111.243 211.575 111.197 211.854C111.15 211.993 111.197 212.086 111.243 212.179C110.918 212.225 110.593 212.272 110.222 212.318C109.943 212.086 109.618 211.947 109.247 211.854C108.875 211.807 108.411 212.039 108.318 212.411C108.318 212.457 108.318 212.504 108.318 212.597C107.9 212.643 107.482 212.689 107.111 212.782C107.065 212.736 107.018 212.736 107.018 212.689C106.74 212.504 106.275 212.225 105.811 212.272C105.532 212.272 105.3 212.411 105.115 212.643C104.975 212.782 104.929 212.968 104.929 213.107C102.422 213.479 99.8681 213.804 97.6396 214.082C96.9896 214.222 96.4789 214.593 96.2467 215.104C96.0146 215.568 95.9681 216.125 96.2003 216.636C96.386 217.054 97.036 218.4 99.0324 218.725L127.168 224.343C127.307 224.389 127.4 224.389 127.54 224.389C127.772 224.389 127.957 224.343 128.19 224.297C128.515 224.204 128.793 223.972 129.025 223.693C129.536 223.089 129.861 222.393 130 221.604L130.975 214.407C130.975 213.757 130.65 213.479 130.093 213.339L131.532 208.186L132.972 208.511C132.972 208.511 132.972 208.511 133.018 208.511C133.065 208.511 133.111 208.464 133.111 208.418L138.218 187.107L147.504 205.307C147.504 205.354 147.55 205.354 147.597 205.354H147.643L150.568 204.193L151.59 205.911C151.357 205.864 151.172 205.818 150.94 205.818C150.615 205.818 150.29 205.911 150.011 206.05C149.732 206.189 149.454 206.375 149.268 206.654C149.082 206.886 148.943 207.211 148.85 207.489L148.572 208.743C148.479 208.929 146.947 210.089 144.765 211.714C144.161 211.668 143.65 211.714 143.279 211.947C143.14 212.039 142.722 212.318 142.861 212.736C142.907 212.875 142.954 212.968 143.047 213.014C142.768 213.2 142.536 213.432 142.257 213.618H142.211C141.886 213.525 141.515 213.572 141.143 213.664C140.818 213.804 140.493 214.175 140.632 214.593C140.632 214.639 140.679 214.686 140.725 214.732C140.4 214.964 140.075 215.243 139.704 215.475C139.657 215.475 139.611 215.475 139.565 215.475C139.007 215.382 138.59 215.475 138.311 215.661C138.079 215.8 137.94 216.032 137.893 216.311C137.847 216.497 137.893 216.682 137.94 216.822C135.897 218.307 133.854 219.839 131.997 221.139C131.532 221.557 131.254 222.161 131.254 222.718C131.254 223.229 131.486 223.739 131.95 224.064C132.275 224.343 132.972 224.807 134.086 224.807C134.504 224.807 134.968 224.761 135.479 224.575L151.822 219.514V220.814V221.418C150.754 221.511 149.918 222.393 149.918 223.507C149.918 224.668 150.847 225.597 152.007 225.597C153.168 225.597 154.097 224.668 154.097 223.507C154.097 222.393 153.215 221.464 152.1 221.418V220.954L165.24 218.911L163.382 219.422C162.593 219.607 161.897 220.072 161.432 220.722C161.015 221.279 160.782 221.882 160.736 222.579C160.736 222.625 160.736 222.625 160.736 222.672C160.736 222.764 160.736 222.857 160.736 222.997C160.736 223.414 160.829 223.832 161.015 224.204C161.2 224.575 161.432 224.947 161.711 225.225C162.036 225.504 162.361 225.736 162.779 225.875C163.15 226.014 163.522 226.107 163.94 226.107C163.986 226.107 163.986 226.107 164.032 226.107L185.575 225.597C185.715 225.643 185.854 225.643 186.04 225.643C186.225 225.643 186.411 225.597 186.55 225.55L192.215 225.411C192.447 225.411 192.679 225.364 192.911 225.272C193.143 225.179 193.329 225.039 193.468 224.854C193.654 224.668 193.747 224.482 193.84 224.25C193.932 224.018 193.979 223.786 193.932 223.554V223.275C193.979 223.275 194.025 223.322 194.072 223.322C194.072 223.414 194.072 223.461 194.072 223.554C194.072 224.714 195 225.643 196.161 225.643C197.322 225.643 198.25 224.714 198.25 223.554C198.25 222.997 198.018 222.486 197.647 222.114L198.9 220.582L211.482 218.632V219.422C211.482 219.468 211.529 219.514 211.575 219.514H213.015V221.464C211.947 221.511 211.065 222.439 211.065 223.554C211.065 224.714 211.993 225.643 213.154 225.643C214.315 225.643 215.243 224.714 215.243 223.554C215.243 222.439 214.361 221.557 213.293 221.464V219.514H214.64C214.686 219.514 214.732 219.468 214.732 219.422V218.586L230.054 220.814V221.464C228.94 221.511 228.057 222.439 228.057 223.554C228.057 224.714 228.986 225.643 230.147 225.643C231.307 225.643 232.236 224.714 232.236 223.554C232.236 222.439 231.4 221.557 230.332 221.464V219.468V219.422C230.332 219.422 230.332 219.422 230.286 219.422C230.286 219.422 230.286 219.422 230.24 219.422L216.079 215.104C216.218 214.872 216.265 214.593 216.265 214.361V207.257C216.265 206.793 216.079 206.375 215.8 206.097C215.522 205.818 215.15 205.632 214.732 205.586V201.268L215.336 200.525C215.475 200.339 215.615 200.107 215.661 199.875C215.707 199.643 215.754 199.411 215.707 199.179C215.661 198.947 215.615 198.714 215.475 198.482C215.336 198.25 215.197 198.111 215.011 197.925L214.732 197.693V189.986C214.732 189.939 214.686 189.893 214.64 189.893H214.268V163.522H233.815C235.625 163.522 237.111 162.036 237.111 160.225L258.236 107.064C258.236 106.554 258.282 106.182 258.236 105.857ZM69.3181 114.911C69.5967 114.586 70.1538 114.493 70.6646 114.539L70.7574 115.654H69.1324C69.086 115.143 69.2253 115.004 69.3181 114.911ZM209.95 214.964L200.99 217.704L209.765 206.932C209.765 206.979 209.765 207.072 209.765 207.118V214.222C209.811 214.454 209.857 214.732 209.95 214.964ZM66.7646 197.414C66.7181 197.414 66.6253 197.414 66.6253 197.461C66.6253 197.507 64.8146 201.779 63.3288 204.239C63.1431 204.564 62.9574 204.889 62.7717 205.261C61.286 208.047 59.986 211.993 60.0788 215.382C60.1253 216.311 60.1717 217.193 60.2646 218.122L56.3646 216.914C56.5967 216.589 56.7824 216.264 56.9217 215.893C57.3396 214.825 57.3396 213.664 56.9681 212.643L54.2753 205.261C53.9967 204.564 53.8574 203.822 53.7646 203.079C53.811 203.032 53.811 202.986 53.811 202.939C53.811 202.939 53.7646 202.893 53.7646 202.8C53.6717 201.686 53.7646 200.572 54.0431 199.457C54.0896 199.411 54.136 199.364 54.0896 199.318C54.0896 199.318 54.0896 199.318 54.0896 199.272C54.461 197.972 55.0646 196.811 55.8539 195.743C56.086 196.207 56.5967 197.182 56.9217 197.786C57.2003 198.343 57.9896 199.411 58.8253 199.597C58.9181 199.597 59.011 199.643 59.1039 199.643C59.336 199.643 59.5217 199.597 59.7074 199.457C59.986 199.272 60.1253 199.039 60.1253 198.761C60.1717 198.111 59.3824 197.368 58.5931 196.718C58.4538 196.579 58.2681 196.486 58.0824 196.347C58.686 196.486 59.2896 196.579 59.8467 196.579C60.4503 196.579 60.961 196.439 61.286 196.114C61.5646 195.789 61.611 195.511 61.5181 195.279C61.2396 194.675 60.0324 194.536 59.0574 194.536C58.2217 194.536 57.2931 194.722 56.5503 194.954C56.736 194.768 56.9217 194.629 57.061 194.443L59.8003 192.029C59.8467 191.982 59.8467 191.936 59.8003 191.843L59.6146 191.611L67.7396 185.297L68.7146 186.457C68.7146 186.504 68.761 186.504 68.8074 186.504C68.8538 186.504 68.8538 186.504 68.9003 186.457L69.7824 185.761L67.136 197.461L66.7646 197.414ZM171.507 205.911C171.229 205.632 170.857 205.447 170.44 205.4V189.847C170.44 189.8 170.393 189.754 170.347 189.754H169.975V163.382H171.043C170.904 164.636 170.997 165.889 171.322 167.236L182.186 206.839C182.093 206.886 182 206.932 181.907 207.025C181.304 207.536 181.118 208.372 181.118 208.697C181.025 208.65 180.886 208.604 180.793 208.604C180.747 208.604 180.7 208.604 180.7 208.604L180.607 208.557C180.236 208.418 179.865 208.557 179.679 208.929L178.982 210.6C178.89 210.786 178.89 210.972 178.982 211.157L178.89 211.482L173.643 215.15L173.318 215.382L171.925 214.964C172.065 214.732 172.111 214.454 172.111 214.222V207.118C172.018 206.654 171.832 206.236 171.507 205.911ZM57.061 196.068C57.5253 196.3 58.0824 196.579 58.4074 196.857C59.1039 197.414 59.8931 198.157 59.8467 198.714C59.8467 198.9 59.7074 199.086 59.5217 199.225C59.2896 199.364 59.0574 199.411 58.8253 199.364C58.0824 199.179 57.386 198.25 57.061 197.647C56.736 197.089 56.3181 196.207 56.0396 195.697C56.3646 195.836 56.6896 195.975 57.061 196.068ZM195.418 207.722L195.186 209.764C194.907 211.575 194.35 213.339 193.515 215.011L193.422 215.243C193.422 215.057 193.422 214.872 193.422 214.686C193.375 213.479 193.329 212.411 192.725 211.854C192.586 211.761 192.447 211.668 192.261 211.575L189.336 185.529L196.207 194.257C195.975 194.304 195.743 194.443 195.511 194.675C194.954 195.139 194.675 195.65 194.675 196.207C194.675 196.997 195.186 197.647 195.418 197.925C195.325 197.972 195.232 198.064 195.14 198.111C195.093 198.157 195.093 198.157 195.093 198.204L195.047 198.25C194.861 198.343 194.768 198.482 194.675 198.668C194.629 198.854 194.629 199.039 194.722 199.225L195.511 200.85C195.604 201.036 195.743 201.129 195.929 201.222L196.115 201.5L195.418 207.722ZM56.086 195.418C56.1324 195.372 56.1788 195.325 56.2253 195.279C56.9217 195.047 58.0824 194.722 59.011 194.722C60.2646 194.768 61.1003 195 61.286 195.325C61.3788 195.464 61.286 195.697 61.1003 195.929C60.4967 196.625 58.5467 196.254 57.1538 195.836C56.736 195.65 56.3646 195.511 56.086 195.418ZM146.157 104C146.157 104.047 146.204 104.047 146.204 104.047C146.25 104.047 146.25 104.047 146.297 104.047L155.954 98.7073L156.279 113.564L155.722 113.657L148.804 110.036C147.875 109.525 146.807 109.293 145.74 109.339C144.672 109.386 143.65 109.711 142.722 110.268L137.754 113.332L134.782 108.457L145.368 102.607L146.157 104ZM70.1074 163.336L59.1967 175.129C59.1503 175.175 59.1503 175.222 59.1967 175.268L60.8681 177.218L53.9038 184.972L53.8574 184.879C53.811 184.832 53.7646 184.832 53.7181 184.879C53.6717 184.925 50.561 187.014 48.0538 188.361V163.336H70.1074ZM211.343 205.075V205.4C211.25 205.4 211.111 205.447 211.018 205.447L211.343 205.075ZM211.436 189.754C211.39 189.754 211.343 189.8 211.343 189.847V195.047L208.604 192.957C208.372 192.772 208.186 192.632 207.954 192.447C207.025 191.704 206.19 191.007 205.307 191.147C205.168 191.147 205.029 191.193 204.936 191.239L192.447 166.679L199.132 163.336H211.947V189.707H211.436V189.754ZM164.032 212.318L161.479 205.493C161.107 204.75 160.55 204.843 159.807 205.075L158.368 200.989L159.436 200.572C159.482 200.525 159.529 200.479 159.482 200.432L145.507 163.382H167.793V189.754H167.329C167.282 189.754 167.236 189.8 167.236 189.847V205.4C166.818 205.447 166.447 205.632 166.168 205.911C165.843 206.236 165.704 206.654 165.704 207.072V214.175C165.704 214.454 165.75 214.686 165.89 214.918L163.847 215.522C164.265 214.547 164.357 213.386 164.032 212.318ZM77.1181 204.982C78.0003 205.075 79.0681 205.261 79.3467 205.772C79.4396 205.957 79.4396 206.143 79.3467 206.375C79.2538 206.607 79.0681 206.793 78.836 206.886C78.1396 207.118 77.0253 206.747 76.4217 206.422C75.8646 206.097 74.9824 205.586 74.5181 205.307C74.7967 205.261 75.1217 205.168 75.5396 205.029C76.0967 204.982 76.6539 204.936 77.1181 204.982ZM76.4681 202.893C77.3038 202.382 77.9538 202.104 78.3717 202.104C78.511 202.104 78.6039 202.15 78.6967 202.197C78.836 202.289 78.8824 202.475 78.836 202.8C78.6967 203.729 76.886 204.425 75.4467 204.843C74.9824 204.889 74.5646 204.982 74.3324 205.075C74.3324 205.029 74.3324 204.982 74.3788 204.889C74.8896 204.286 75.6788 203.404 76.4681 202.893Z" fill="url(#paint0_linear_1930_63522)" style="mix-blend-mode:overlay"/>
<defs>
<linearGradient id="paint0_linear_1930_63522" x1="258.257" y1="127.479" x2="1.6543" y2="127.479" gradientUnits="userSpaceOnUse">
<stop stop-color="#E60050"/>
<stop offset="1" stop-color="#5D6AE8"/>
</linearGradient>
</defs>
</svg>
