<svg width="260" height="260" viewBox="0 0 260 260" fill="none" xmlns="http://www.w3.org/2000/svg">
<path d="M46.0345 43.1724H95.6021C95.8257 43.1724 96.0439 43.1948 96.2549 43.2376C96.9223 43.2967 97.5511 43.5884 98.0287 44.066C98.5663 44.6036 98.8683 45.3327 98.8683 46.0929V46.3353C98.8694 46.3701 98.87 46.4051 98.87 46.4402V82.9432C98.87 84.748 97.4069 86.2111 95.6021 86.2111H46.0345C44.2297 86.2111 42.7666 84.748 42.7666 82.9432V46.4402C42.7666 45.6319 43.0601 44.8921 43.5463 44.3216C43.6166 44.2322 43.6924 44.1468 43.7732 44.066C44.0395 43.7996 44.3558 43.5883 44.7039 43.4443C44.7946 43.4067 44.887 43.3739 44.9808 43.346C45.3114 43.2334 45.6658 43.1724 46.0345 43.1724Z" fill="#666666" stroke="black" stroke-width="0.5" stroke-miterlimit="10" stroke-linecap="round" stroke-linejoin="round"/>
<path d="M93.7447 41.3149H44.177C42.3723 41.3149 40.9092 42.778 40.9092 44.5828V81.0858C40.9092 82.8906 42.3723 84.3536 44.177 84.3536H93.7447C95.5495 84.3536 97.0126 82.8906 97.0126 81.0858V44.5828C97.0126 42.778 95.5495 41.3149 93.7447 41.3149Z" fill="white" stroke="black" stroke-width="0.5" stroke-miterlimit="10" stroke-linecap="round" stroke-linejoin="round"/>
<path d="M92.3688 57.1943H45.8734C45.4487 57.1943 45.1045 57.5386 45.1045 57.9632V61.0372C45.1045 61.4619 45.4487 61.8061 45.8734 61.8061H92.3688C92.7935 61.8061 93.1377 61.4619 93.1377 61.0372V57.9632C93.1377 57.5386 92.7935 57.1943 92.3688 57.1943Z" fill="#CCCCCC"/>
<path d="M45.1035 57.9632C45.1035 57.7593 45.1845 57.5637 45.3287 57.4195C45.4729 57.2753 45.6685 57.1943 45.8724 57.1943H52.0203V61.8044H45.8724C45.6688 61.8044 45.4735 61.7236 45.3293 61.5798C45.1852 61.436 45.104 61.2408 45.1035 61.0372V57.9632Z" fill="#808080"/>
<path d="M59.7072 57.1943H52.0215V61.8061H59.7072V57.1943Z" fill="#999999"/>
<path d="M67.2005 57.1943H59.707V61.8061H67.2005V57.1943Z" fill="#4C4C4C"/>
<path d="M78.3433 57.1943H67.1992V61.8061H78.3433V57.1943Z" fill="#666666"/>
<path d="M87.3724 57.1943H78.3428V61.8061H87.3724V57.1943Z" fill="#333333"/>
<path d="M92.3688 66.8003H45.8734C45.4487 66.8003 45.1045 67.1445 45.1045 67.5692V70.6431C45.1045 71.0678 45.4487 71.4121 45.8734 71.4121H92.3688C92.7935 71.4121 93.1377 71.0678 93.1377 70.6431V67.5692C93.1377 67.1445 92.7935 66.8003 92.3688 66.8003Z" fill="#CCCCCC"/>
<path d="M45.1035 67.5692C45.1035 67.3653 45.1845 67.1697 45.3287 67.0255C45.4729 66.8813 45.6685 66.8003 45.8724 66.8003H53.5581V71.4121H45.8724C45.6685 71.4121 45.4729 71.331 45.3287 71.1869C45.1845 71.0427 45.1035 70.8471 45.1035 70.6432V67.5692Z" fill="#808080"/>
<path d="M61.2433 66.8003H53.5576V71.4121H61.2433V66.8003Z" fill="#999999"/>
<path d="M69.8883 66.8003H61.2432V71.4121H69.8883V66.8003Z" fill="#4C4C4C"/>
<path d="M79.6892 66.8003H69.8906V71.4121H79.6892V66.8003Z" fill="#666666"/>
<path d="M86.6053 66.8003H79.6885V71.4121H86.6053V66.8003Z" fill="#333333"/>
<path d="M45.9476 76.1301C46.4132 76.1301 46.7907 75.7526 46.7907 75.287C46.7907 74.8213 46.4132 74.4438 45.9476 74.4438C45.482 74.4438 45.1045 74.8213 45.1045 75.287C45.1045 75.7526 45.482 76.1301 45.9476 76.1301Z" fill="#808080"/>
<path d="M45.9476 79.1652C46.4132 79.1652 46.7907 78.7877 46.7907 78.3221C46.7907 77.8565 46.4132 77.479 45.9476 77.479C45.482 77.479 45.1045 77.8565 45.1045 78.3221C45.1045 78.7877 45.482 79.1652 45.9476 79.1652Z" fill="#999999"/>
<path d="M62.8099 76.1301C63.2755 76.1301 63.653 75.7526 63.653 75.287C63.653 74.8213 63.2755 74.4438 62.8099 74.4438C62.3443 74.4438 61.9668 74.8213 61.9668 75.287C61.9668 75.7526 62.3443 76.1301 62.8099 76.1301Z" fill="#4C4C4C"/>
<path d="M62.8099 79.1652C63.2755 79.1652 63.653 78.7877 63.653 78.3221C63.653 77.8565 63.2755 77.479 62.8099 77.479C62.3443 77.479 61.9668 77.8565 61.9668 78.3221C61.9668 78.7877 62.3443 79.1652 62.8099 79.1652Z" fill="#666666"/>
<path d="M80.1478 76.1301C80.6134 76.1301 80.9909 75.7526 80.9909 75.287C80.9909 74.8213 80.6134 74.4438 80.1478 74.4438C79.6822 74.4438 79.3047 74.8213 79.3047 75.287C79.3047 75.7526 79.6822 76.1301 80.1478 76.1301Z" fill="#333333"/>
<path d="M80.1478 79.1652C80.6134 79.1652 80.9909 78.7877 80.9909 78.3221C80.9909 77.8565 80.6134 77.479 80.1478 77.479C79.6822 77.479 79.3047 77.8565 79.3047 78.3221C79.3047 78.7877 79.6822 79.1652 80.1478 79.1652Z" fill="#999999"/>
<path d="M56.2317 74.8218H48.2694C47.9248 74.8218 47.6455 75.1011 47.6455 75.4457C47.6455 75.7902 47.9248 76.0696 48.2694 76.0696H56.2317C56.5762 76.0696 56.8556 75.7902 56.8556 75.4457C56.8556 75.1011 56.5762 74.8218 56.2317 74.8218Z" fill="#CCCCCC"/>
<path d="M53.3567 77.8975H48.2694C47.9248 77.8975 47.6455 78.1768 47.6455 78.5214C47.6455 78.8659 47.9248 79.1453 48.2694 79.1453H53.3567C53.7013 79.1453 53.9806 78.8659 53.9806 78.5214C53.9806 78.1768 53.7013 77.8975 53.3567 77.8975Z" fill="#CCCCCC"/>
<path d="M72.4434 77.8975H65.1405C64.7959 77.8975 64.5166 78.1768 64.5166 78.5214C64.5166 78.8659 64.7959 79.1453 65.1405 79.1453H72.4434C72.788 79.1453 73.0673 78.8659 73.0673 78.5214C73.0673 78.1768 72.788 77.8975 72.4434 77.8975Z" fill="#CCCCCC"/>
<path d="M65.6543 63.8394H45.6796C45.335 63.8394 45.0557 64.1187 45.0557 64.4633C45.0557 64.8078 45.335 65.0872 45.6796 65.0872H65.6543C65.9989 65.0872 66.2782 64.8078 66.2782 64.4633C66.2782 64.1187 65.9989 63.8394 65.6543 63.8394Z" fill="#CCCCCC"/>
<path d="M65.6543 54.2314H45.6796C45.335 54.2314 45.0557 54.5108 45.0557 54.8553C45.0557 55.1999 45.335 55.4792 45.6796 55.4792H65.6543C65.9989 55.4792 66.2782 55.1999 66.2782 54.8553C66.2782 54.5108 65.9989 54.2314 65.6543 54.2314Z" fill="#CCCCCC"/>
<path d="M90.4582 74.8218H82.496C82.1514 74.8218 81.8721 75.1011 81.8721 75.4457C81.8721 75.7902 82.1514 76.0696 82.496 76.0696H90.4582C90.8028 76.0696 91.0821 75.7902 91.0821 75.4457C91.0821 75.1011 90.8028 74.8218 90.4582 74.8218Z" fill="#CCCCCC"/>
<path d="M75.9488 74.8218H65.12C64.7754 74.8218 64.4961 75.1011 64.4961 75.4457C64.4961 75.7902 64.7754 76.0696 65.12 76.0696H75.9488C76.2934 76.0696 76.5727 75.7902 76.5727 75.4457C76.5727 75.1011 76.2934 74.8218 75.9488 74.8218Z" fill="#CCCCCC"/>
<path d="M92.6486 77.8975H82.496C82.1514 77.8975 81.8721 78.1768 81.8721 78.5214C81.8721 78.8659 82.1514 79.1453 82.496 79.1453H92.6486C92.9932 79.1453 93.2725 78.8659 93.2725 78.5214C93.2725 78.1768 92.9932 77.8975 92.6486 77.8975Z" fill="#CCCCCC"/>
<path d="M43.9444 41.3691H94.1444C94.9047 41.3691 95.6338 41.6712 96.1714 42.2087C96.7089 42.7463 97.011 43.4754 97.011 44.2357V48.4259H41.0762V44.2374C41.076 43.8606 41.15 43.4876 41.2941 43.1395C41.4381 42.7914 41.6494 42.4751 41.9158 42.2087C42.1821 41.9423 42.4984 41.7311 42.8465 41.587C43.1946 41.443 43.5677 41.3689 43.9444 41.3691Z" fill="#B3B3B3" stroke="black" stroke-width="0.5" stroke-miterlimit="10" stroke-linecap="round" stroke-linejoin="round"/>
<path d="M42.4926 52.4862C47.7552 52.4862 52.0214 48.22 52.0214 42.9575C52.0214 37.6949 47.7552 33.4287 42.4926 33.4287C37.23 33.4287 32.9639 37.6949 32.9639 42.9575C32.9639 48.22 37.23 52.4862 42.4926 52.4862Z" fill="#808080" stroke="black" stroke-width="0.5" stroke-miterlimit="10" stroke-linecap="round" stroke-linejoin="round"/>
<path d="M36.2354 43.2002C36.3232 42.8941 36.5034 42.6227 36.7513 42.4229C36.9469 42.2391 37.1324 42.0435 37.3229 41.8546C37.4179 41.747 37.5347 41.6607 37.6655 41.6017C37.7963 41.5426 37.9382 41.5121 38.0817 41.5121C38.2253 41.5121 38.3672 41.5426 38.498 41.6017C38.6288 41.6607 38.7456 41.747 38.8405 41.8546C39.4476 42.456 40.0518 43.0602 40.6532 43.6673C40.6887 43.7091 40.7209 43.7536 40.7493 43.8005C40.7844 43.7507 40.8221 43.7029 40.8623 43.6572C42.6159 41.9035 44.3691 40.1504 46.1216 38.3979C46.6173 37.9038 47.2058 37.9038 47.6999 38.3979L48.3997 39.0977C48.8718 39.5715 48.8752 40.1684 48.3997 40.6405C47.0507 41.9895 45.7017 43.3385 44.3528 44.6874L41.5115 47.5287C41.3513 47.7085 41.1322 47.8254 40.8936 47.8581C40.655 47.8909 40.4125 47.8375 40.2097 47.7074C40.1194 47.6455 40.0357 47.5743 39.9602 47.495C38.8844 46.4225 37.8136 45.3467 36.7361 44.276C36.4983 44.077 36.3261 43.8107 36.2421 43.5121L36.2354 43.2002Z" fill="white" stroke="black" stroke-width="0.5" stroke-miterlimit="10" stroke-linecap="round" stroke-linejoin="round"/>
<path d="M219.526 12.7969H131.955C131.953 12.7969 131.951 12.7969 131.949 12.7969H131.848C131.472 12.7964 131.098 12.8703 130.75 13.0143C130.402 13.1582 130.085 13.3695 129.819 13.6359C129.552 13.9023 129.341 14.2186 129.197 14.5668C129.052 14.915 128.978 15.2882 128.979 15.6651V70.433C128.979 71.4473 129.381 72.42 130.099 73.1372C130.816 73.8544 131.789 74.2574 132.803 74.2574H218.462C219.476 74.2574 220.449 73.8544 221.166 73.1372C221.883 72.42 222.286 71.4473 222.286 70.433V19.8553H222.393V15.6634C222.393 14.9032 222.091 14.1741 221.553 13.6365C221.015 13.0989 220.286 12.7969 219.526 12.7969Z" fill="#666666" stroke="black" stroke-width="0.5" stroke-miterlimit="10" stroke-linecap="round" stroke-linejoin="round"/>
<path d="M129.991 10.9399H217.562C218.323 10.9399 219.052 11.242 219.589 11.7795C220.127 12.3171 220.429 13.0462 220.429 13.8065V68.5761C220.429 69.5904 220.026 70.5631 219.309 71.2803C218.592 71.9975 217.619 72.4004 216.605 72.4004H130.945C129.931 72.4004 128.958 71.9975 128.241 71.2803C127.524 70.5631 127.121 69.5904 127.121 68.5761V13.8082C127.121 13.4313 127.195 13.0581 127.339 12.7099C127.483 12.3617 127.695 12.0453 127.961 11.7789C128.228 11.5125 128.544 11.3013 128.893 11.1573C129.241 11.0134 129.614 10.9395 129.991 10.9399Z" fill="white" stroke="black" stroke-width="0.5" stroke-miterlimit="10" stroke-linecap="round" stroke-linejoin="round"/>
<g opacity="0.2">
<path d="M134.724 47.4917H212.829" stroke="black" stroke-width="0.5" stroke-linecap="round" stroke-linejoin="round"/>
<path d="M134.724 56.083H212.829" stroke="black" stroke-width="0.5" stroke-linecap="round" stroke-linejoin="round"/>
<path d="M134.724 64.6592H212.829" stroke="black" stroke-width="0.5" stroke-linecap="round" stroke-linejoin="round"/>
</g>
<path d="M138.155 50.181C138.155 50.0683 138.177 49.9567 138.221 49.8526C138.264 49.7485 138.327 49.6538 138.407 49.5741C138.486 49.4944 138.581 49.4312 138.685 49.3881C138.789 49.345 138.901 49.3228 139.014 49.3228H142.447V64.5576H138.155V50.181Z" fill="#B3B3B3"/>
<path d="M142.877 52.3208H146.31C146.538 52.3208 146.756 52.4112 146.917 52.5722C147.078 52.7331 147.168 52.9515 147.168 53.1791V64.5508H142.877V52.3208Z" fill="#808080"/>
<path d="M150.602 53.1791C150.602 53.0664 150.624 52.9548 150.667 52.8506C150.71 52.7465 150.773 52.6519 150.853 52.5722C150.933 52.4925 151.027 52.4293 151.131 52.3861C151.236 52.343 151.347 52.3208 151.46 52.3208H154.893V64.5508H150.602V53.1791Z" fill="#B3B3B3"/>
<path d="M155.322 57.4707H158.755C158.983 57.4707 159.201 57.5611 159.362 57.7221C159.523 57.883 159.614 58.1013 159.614 58.329V64.5511H155.322V57.4707Z" fill="#808080"/>
<path d="M163.047 53.1791C163.047 52.9515 163.137 52.7331 163.298 52.5722C163.459 52.4112 163.678 52.3208 163.905 52.3208H167.338V64.5508H163.047V53.1791Z" fill="#B3B3B3"/>
<path d="M167.769 51.6768H171.205C171.433 51.6768 171.651 51.7672 171.812 51.9281C171.973 52.0891 172.063 52.3074 172.063 52.535V64.5509H167.772L167.769 51.6768Z" fill="#808080"/>
<path d="M175.493 49.5302C175.493 49.3025 175.584 49.0842 175.745 48.9233C175.905 48.7623 176.124 48.6719 176.351 48.6719H179.785V64.5509H175.493V49.5302Z" fill="#B3B3B3"/>
<path d="M180.213 45.6689H183.646C183.874 45.6689 184.092 45.7594 184.253 45.9203C184.414 46.0813 184.504 46.2996 184.504 46.5272V64.5511H180.213V45.6689Z" fill="#808080"/>
<path d="M187.938 54.2518C187.938 54.0242 188.028 53.8059 188.189 53.6449C188.35 53.484 188.568 53.3936 188.796 53.3936H192.229V64.5512H187.938V54.2518Z" fill="#B3B3B3"/>
<path d="M192.658 54.4658H196.091C196.319 54.4658 196.537 54.5562 196.698 54.7172C196.859 54.8782 196.95 55.0965 196.95 55.3241V64.551H192.658V54.4658Z" fill="#808080"/>
<path d="M200.377 53.1791C200.377 52.9515 200.467 52.7331 200.628 52.5722C200.789 52.4112 201.008 52.3208 201.235 52.3208H204.668V64.5508H200.377V53.1791Z" fill="#B3B3B3"/>
<path d="M205.098 48.6719H208.531C208.758 48.6719 208.977 48.7623 209.138 48.9233C209.299 49.0842 209.389 49.3025 209.389 49.5302V64.5509H205.098V48.6719Z" fill="#808080"/>
<path d="M201.182 32.8924C201.555 32.8924 201.857 32.5904 201.857 32.2179C201.857 31.8454 201.555 31.5435 201.182 31.5435C200.81 31.5435 200.508 31.8454 200.508 32.2179C200.508 32.5904 200.81 32.8924 201.182 32.8924Z" fill="#CCCCCC"/>
<path d="M201.182 36.265C201.555 36.265 201.857 35.963 201.857 35.5905C201.857 35.218 201.555 34.916 201.182 34.916C200.81 34.916 200.508 35.218 200.508 35.5905C200.508 35.963 200.81 36.265 201.182 36.265Z" fill="#CCCCCC"/>
<path d="M187.862 42.3352C192.518 42.3352 196.293 38.5605 196.293 33.9042C196.293 29.2478 192.518 25.4731 187.862 25.4731C183.205 25.4731 179.431 29.2478 179.431 33.9042C179.431 38.5605 183.205 42.3352 187.862 42.3352Z" fill="#B3B3B3"/>
<path fill-rule="evenodd" clip-rule="evenodd" d="M187.86 25.4731C186.183 25.4726 184.544 25.9723 183.152 26.9082C181.761 27.8442 180.68 29.1739 180.048 30.7274C187.86 33.9042 180.019 30.7004 187.86 33.9042" fill="#808080"/>
<path d="M187.861 38.9629C190.655 38.9629 192.92 36.6981 192.92 33.9043C192.92 31.1105 190.655 28.8457 187.861 28.8457C185.068 28.8457 182.803 31.1105 182.803 33.9043C182.803 36.6981 185.068 38.9629 187.861 38.9629Z" fill="white"/>
<path d="M143.143 42.3352C147.799 42.3352 151.574 38.5605 151.574 33.9042C151.574 29.2478 147.799 25.4731 143.143 25.4731C138.487 25.4731 134.712 29.2478 134.712 33.9042C134.712 38.5605 138.487 42.3352 143.143 42.3352Z" fill="#B3B3B3"/>
<path fill-rule="evenodd" clip-rule="evenodd" d="M143.141 25.4731C140.905 25.4731 138.76 26.3614 137.179 27.9425C135.598 29.5237 134.71 31.6681 134.71 33.9042C134.71 36.1402 135.598 38.2847 137.179 39.8658C138.76 41.4469 140.905 42.3352 143.141 42.3352V25.4731Z" fill="#808080"/>
<path fill-rule="evenodd" clip-rule="evenodd" d="M143.141 25.4731C140.905 25.4731 138.76 26.3614 137.179 27.9425C135.598 29.5237 134.71 31.6681 134.71 33.9042C134.707 36.0018 135.489 38.0248 136.902 39.5749L143.141 33.9042V25.4731Z" fill="#CCCCCC"/>
<path fill-rule="evenodd" clip-rule="evenodd" d="M143.141 25.4731C140.905 25.4731 138.76 26.3614 137.179 27.9425C135.598 29.5237 134.71 31.6681 134.71 33.9042H143.141V25.4731Z" fill="#666666"/>
<path fill-rule="evenodd" clip-rule="evenodd" d="M143.141 25.4732C141.942 25.4718 140.756 25.7268 139.663 26.2212C138.57 26.7156 137.596 27.4379 136.805 28.3397L143.141 33.9042V25.4732Z" fill="#999999"/>
<path fill-rule="evenodd" clip-rule="evenodd" d="M143.141 25.4731C142.163 25.4734 141.193 25.6446 140.274 25.979L143.141 33.9042V25.4731Z" fill="#4C4C4C"/>
<path d="M143.144 38.9629C145.937 38.9629 148.202 36.6981 148.202 33.9043C148.202 31.1105 145.937 28.8457 143.144 28.8457C140.35 28.8457 138.085 31.1105 138.085 33.9043C138.085 36.6981 140.35 38.9629 143.144 38.9629Z" fill="white"/>
<path d="M156.987 27.9183C157.29 27.9183 157.535 27.6729 157.535 27.3703C157.535 27.0676 157.29 26.8223 156.987 26.8223C156.685 26.8223 156.439 27.0676 156.439 27.3703C156.439 27.6729 156.685 27.9183 156.987 27.9183Z" fill="#CCCCCC"/>
<path d="M156.987 30.6546C157.29 30.6546 157.535 30.4093 157.535 30.1066C157.535 29.8039 157.29 29.5586 156.987 29.5586C156.685 29.5586 156.439 29.8039 156.439 30.1066C156.439 30.4093 156.685 30.6546 156.987 30.6546Z" fill="#CCCCCC"/>
<path d="M156.987 33.3914C157.29 33.3914 157.535 33.1461 157.535 32.8434C157.535 32.5408 157.29 32.2954 156.987 32.2954C156.685 32.2954 156.439 32.5408 156.439 32.8434C156.439 33.1461 156.685 33.3914 156.987 33.3914Z" fill="#CCCCCC"/>
<path d="M156.987 36.1283C157.29 36.1283 157.535 35.8829 157.535 35.5802C157.535 35.2776 157.29 35.0322 156.987 35.0322C156.685 35.0322 156.439 35.2776 156.439 35.5802C156.439 35.8829 156.685 36.1283 156.987 36.1283Z" fill="#CCCCCC"/>
<path d="M156.987 38.8651C157.29 38.8651 157.535 38.6197 157.535 38.3171C157.535 38.0144 157.29 37.769 156.987 37.769C156.685 37.769 156.439 38.0144 156.439 38.3171C156.439 38.6197 156.685 38.8651 156.987 38.8651Z" fill="#CCCCCC"/>
<path d="M156.987 41.6019C157.29 41.6019 157.535 41.3565 157.535 41.0539C157.535 40.7512 157.29 40.5059 156.987 40.5059C156.685 40.5059 156.439 40.7512 156.439 41.0539C156.439 41.3565 156.685 41.6019 156.987 41.6019Z" fill="#CCCCCC"/>
<path d="M166.73 26.8223H159.742C159.44 26.8223 159.194 27.0672 159.194 27.3694C159.194 27.6716 159.44 27.9166 159.742 27.9166H166.73C167.033 27.9166 167.278 27.6716 167.278 27.3694C167.278 27.0672 167.033 26.8223 166.73 26.8223Z" fill="#CCCCCC"/>
<path d="M168.76 29.5586H159.742C159.44 29.5586 159.194 29.8036 159.194 30.1058C159.194 30.408 159.44 30.6529 159.742 30.6529H168.76C169.063 30.6529 169.308 30.408 169.308 30.1058C169.308 29.8036 169.063 29.5586 168.76 29.5586Z" fill="#CCCCCC"/>
<path d="M164.405 32.2954H159.653C159.4 32.2954 159.194 32.5008 159.194 32.7541V32.9311C159.194 33.1844 159.4 33.3898 159.653 33.3898H164.405C164.658 33.3898 164.863 33.1844 164.863 32.9311V32.7541C164.863 32.5008 164.658 32.2954 164.405 32.2954Z" fill="#CCCCCC"/>
<path d="M171.488 35.0322H159.742C159.44 35.0322 159.194 35.2772 159.194 35.5794C159.194 35.8816 159.44 36.1266 159.742 36.1266H171.488C171.791 36.1266 172.036 35.8816 172.036 35.5794C172.036 35.2772 171.791 35.0322 171.488 35.0322Z" fill="#CCCCCC"/>
<path d="M168.165 37.769H159.742C159.44 37.769 159.194 38.014 159.194 38.3162C159.194 38.6184 159.44 38.8634 159.742 38.8634H168.165C168.468 38.8634 168.713 38.6184 168.713 38.3162C168.713 38.014 168.468 37.769 168.165 37.769Z" fill="#CCCCCC"/>
<path d="M166.022 40.5059H159.715C159.428 40.5059 159.194 40.7391 159.194 41.0269V41.0792C159.194 41.3669 159.428 41.6002 159.715 41.6002H166.022C166.31 41.6002 166.543 41.3669 166.543 41.0792V41.0269C166.543 40.7391 166.31 40.5059 166.022 40.5059Z" fill="#CCCCCC"/>
<path d="M212.995 31.9888H203.977C203.674 31.9888 203.429 32.2337 203.429 32.5359C203.429 32.8381 203.674 33.0831 203.977 33.0831H212.995C213.297 33.0831 213.543 32.8381 213.543 32.5359C213.543 32.2337 213.297 31.9888 212.995 31.9888Z" fill="#CCCCCC"/>
<path d="M208.639 34.7256H203.887C203.634 34.7256 203.429 34.9309 203.429 35.1842V35.3613C203.429 35.6146 203.634 35.8199 203.887 35.8199H208.639C208.892 35.8199 209.098 35.6146 209.098 35.3613V35.1842C209.098 34.9309 208.892 34.7256 208.639 34.7256Z" fill="#CCCCCC"/>
<path d="M130.097 10.9399H217.668C218.428 10.9399 219.157 11.242 219.695 11.7795C220.233 12.3171 220.535 13.0462 220.535 13.8065V17.9984H127.229V13.8082C127.228 13.4315 127.302 13.0584 127.446 12.7103C127.59 12.3622 127.802 12.0459 128.068 11.7795C128.334 11.5131 128.651 11.3019 128.999 11.1578C129.347 11.0138 129.72 10.9397 130.097 10.9399Z" fill="#B3B3B3" stroke="black" stroke-width="0.5" stroke-miterlimit="10" stroke-linecap="round" stroke-linejoin="round"/>
<path d="M129.517 22.7718C134.78 22.7718 139.046 18.5057 139.046 13.2431C139.046 7.98052 134.78 3.71436 129.517 3.71436C124.254 3.71436 119.988 7.98052 119.988 13.2431C119.988 18.5057 124.254 22.7718 129.517 22.7718Z" fill="#666666" stroke="black" stroke-width="0.5" stroke-miterlimit="10" stroke-linecap="round" stroke-linejoin="round"/>
<path d="M123.262 13.4859C123.349 13.1795 123.529 12.9079 123.778 12.7086C123.973 12.5248 124.159 12.3292 124.349 12.1403C124.444 12.0327 124.561 11.9465 124.692 11.8874C124.823 11.8283 124.965 11.7978 125.108 11.7978C125.252 11.7978 125.394 11.8283 125.524 11.8874C125.655 11.9465 125.772 12.0327 125.867 12.1403C126.472 12.744 127.076 13.3488 127.68 13.9547C127.714 13.9973 127.746 14.0418 127.776 14.0879C127.81 14.0377 127.848 13.9899 127.889 13.9446C129.64 12.1909 131.393 10.4378 133.148 8.68528C133.642 8.18954 134.232 8.18954 134.726 8.68528C134.959 8.91798 135.192 9.15237 135.426 9.38506C135.898 9.8572 135.902 10.4558 135.426 10.9279L131.379 14.9748C130.434 15.9225 129.487 16.8696 128.538 17.8161C128.378 17.9958 128.159 18.1127 127.921 18.1457C127.683 18.1788 127.441 18.1259 127.238 17.9965C127.147 17.9341 127.063 17.8629 126.987 17.784C125.912 16.7116 124.84 15.6341 123.763 14.5651C123.525 14.3657 123.354 14.0995 123.27 13.8012L123.262 13.4859Z" fill="white" stroke="black" stroke-width="0.5" stroke-miterlimit="10" stroke-linecap="round" stroke-linejoin="round"/>
<path d="M118.545 87.3573C121.142 87.3365 123.227 84.7136 123.201 81.499C123.175 78.2843 121.049 75.6953 118.452 75.7162C115.854 75.737 113.77 78.3599 113.796 81.5745C113.822 84.7891 115.948 87.3782 118.545 87.3573Z" fill="#666666" stroke="black" stroke-width="0.5" stroke-linecap="round" stroke-linejoin="round"/>
<path d="M170.918 228.19L165.412 205.916L155.267 209.826L162.273 229.14L170.918 228.19Z" fill="#E5E5E5" stroke="black" stroke-width="0.5" stroke-miterlimit="10" stroke-linecap="round" stroke-linejoin="round"/>
<path d="M161.579 239.586L160.429 224.875L165.599 224.526L166.757 221.7C166.887 221.379 167.082 221.088 167.33 220.846C167.577 220.604 167.872 220.414 168.195 220.291C168.519 220.167 168.864 220.11 169.21 220.125C169.556 220.14 169.896 220.226 170.207 220.378L172.568 222.616C172.568 222.616 180.093 224.27 188.949 226.663C195.02 228.307 198.458 230.01 198.458 230.01L200.532 230.981C200.781 231.091 200.99 231.274 201.133 231.506C201.276 231.738 201.346 232.007 201.333 232.279C201.307 232.631 201.145 232.958 200.881 233.192C200.772 233.284 200.648 233.356 200.515 233.406C199.781 233.701 196.621 234.91 193.753 235.198C189.538 235.623 184.069 236.768 178.181 236.716C174.013 236.68 171.623 236.271 170.226 236.195L170.261 238.409L161.579 239.586Z" fill="black" stroke="black" stroke-width="0.5" stroke-linecap="round" stroke-linejoin="round"/>
<path d="M190.172 235.76C190.172 235.76 190.214 232.76 191.111 230.57C192.008 228.379 192.956 227.853 192.956 227.853C192.956 227.853 201.436 230.247 201.351 232.117C201.257 234.244 196.242 234.775 194.182 235.119C192.121 235.463 190.172 235.76 190.172 235.76Z" fill="white" stroke="black" stroke-width="0.5" stroke-linecap="round" stroke-linejoin="round"/>
<path d="M173.229 225.736C173.229 225.736 173.916 224.28 174.835 223.375C175.754 222.469 177.483 222.267 177.483 222.267" stroke="white" stroke-width="0.5" stroke-linecap="round" stroke-linejoin="round"/>
<path d="M176.707 227.216C176.707 227.216 177.395 225.762 178.314 224.855C179.233 223.948 180.961 223.747 180.961 223.747" stroke="white" stroke-width="0.5" stroke-linecap="round" stroke-linejoin="round"/>
<path d="M180.142 228.612C180.142 228.612 180.83 227.159 181.749 226.251C182.668 225.344 184.396 225.144 184.396 225.144" stroke="white" stroke-width="0.5" stroke-linecap="round" stroke-linejoin="round"/>
<path d="M140.042 165.604H113.643C110.468 165.604 107.423 164.342 105.178 162.097C102.932 159.852 101.671 156.807 101.671 153.631V125.285C101.671 120.02 103.762 114.971 107.485 111.249C111.207 107.526 116.256 105.435 121.521 105.435H132.174C137.439 105.435 142.488 107.526 146.211 111.249C149.933 114.971 152.024 120.02 152.024 125.285V153.626C152.024 156.802 150.763 159.847 148.518 162.092C146.273 164.337 143.228 165.598 140.052 165.598L140.042 165.604Z" fill="#333333" stroke="black" stroke-width="0.5" stroke-linecap="round" stroke-linejoin="round"/>
<path d="M122.941 213.812H126.074V167.106H122.941V213.812Z" fill="black" stroke="black" stroke-width="0.5" stroke-miterlimit="10" stroke-linecap="round" stroke-linejoin="round"/>
<path d="M99.3665 185.794H154.418C156.771 185.794 158.679 183.887 158.679 181.533V180.791C158.679 178.438 156.771 176.53 154.418 176.53H99.3665C97.0132 176.53 95.1054 178.438 95.1054 180.791V181.533C95.1054 183.887 97.0132 185.794 99.3665 185.794Z" fill="#1A1A1A" stroke="black" stroke-width="0.5" stroke-linecap="round" stroke-linejoin="round"/>
<path d="M151.85 243.162V248.877" stroke="black" stroke-width="0.5" stroke-linecap="round" stroke-linejoin="round"/>
<path d="M124.508 242.402V248.573" stroke="black" stroke-width="0.5" stroke-linecap="round" stroke-linejoin="round"/>
<path d="M97.166 243.162V249.698" stroke="black" stroke-width="0.5" stroke-linecap="round" stroke-linejoin="round"/>
<path d="M119.901 236.164C119.661 235.767 119.535 235.311 119.535 234.847V223.459C119.532 222.8 119.785 222.165 120.24 221.689C120.696 221.213 121.318 220.931 121.976 220.904V210.666H126.856V220.904C127.514 220.932 128.136 221.213 128.591 221.689C129.046 222.166 129.299 222.8 129.296 223.459V234.847C129.297 235.319 129.167 235.782 128.92 236.185L151.853 243.162V245.169L126.861 241.521V243.071H121.981V241.609L97.1689 245.442V243.162L119.901 236.164Z" fill="black" stroke="black" stroke-width="0.5" stroke-miterlimit="10" stroke-linecap="round" stroke-linejoin="round"/>
<path d="M151.788 252.859C153.519 252.859 154.921 251.444 154.921 249.698C154.921 247.952 153.519 246.536 151.788 246.536C150.058 246.536 148.655 247.952 148.655 249.698C148.655 251.444 150.058 252.859 151.788 252.859Z" fill="white" stroke="black" stroke-width="0.5" stroke-linecap="round" stroke-linejoin="round"/>
<path d="M124.507 252.859C126.237 252.859 127.64 251.444 127.64 249.698C127.64 247.952 126.237 246.536 124.507 246.536C122.777 246.536 121.374 247.952 121.374 249.698C121.374 251.444 122.777 252.859 124.507 252.859Z" fill="white" stroke="black" stroke-width="0.5" stroke-linecap="round" stroke-linejoin="round"/>
<path d="M97.2267 252.859C98.957 252.859 100.36 251.444 100.36 249.698C100.36 247.952 98.957 246.536 97.2267 246.536C95.4964 246.536 94.0938 247.952 94.0938 249.698C94.0938 251.444 95.4964 252.859 97.2267 252.859Z" fill="white" stroke="black" stroke-width="0.5" stroke-linecap="round" stroke-linejoin="round"/>
<path d="M141.921 177.478L115.616 176.466C110.583 176.466 107.008 170.101 107.008 165.069L107.861 151.775H146.307C146.307 151.775 148.047 163.895 148.893 169.155C149.711 174.257 147.092 177.478 141.921 177.478Z" fill="#999999" stroke="black" stroke-width="0.5" stroke-linecap="round" stroke-linejoin="round"/>
<path d="M129.881 243.67L129.979 227.196L138.961 227.3L138.219 245.859L129.881 243.67Z" fill="#E5E5E5" stroke="black" stroke-width="0.5" stroke-miterlimit="10" stroke-linecap="round" stroke-linejoin="round"/>
<path d="M138.545 258.357L131.216 258.579C130.873 258.589 130.532 258.532 130.212 258.41C129.892 258.289 129.599 258.105 129.35 257.87C129.101 257.636 128.901 257.354 128.76 257.042C128.62 256.729 128.543 256.392 128.533 256.05L128.086 241.299L140.901 240.91L141.07 255.718C141.079 256.401 140.819 257.06 140.347 257.554C139.875 258.047 139.228 258.336 138.545 258.357Z" fill="black" stroke="black" stroke-width="0.5" stroke-linecap="round" stroke-linejoin="round"/>
<path d="M128.869 256.584C128.869 256.584 131.043 252.875 134.865 252.762C138.688 252.649 141.047 256.532 141.047 256.532V256.569C141.023 257.65 139.867 258.54 138.42 258.593L131.65 258.798C130.215 258.842 129.007 258.034 128.906 256.964L128.869 256.584Z" fill="white" stroke="black" stroke-width="0.5" stroke-linecap="round" stroke-linejoin="round"/>
<path d="M129.424 242.769C129.424 242.769 131.181 237.702 134.44 237.604C137.7 237.507 139.76 242.454 139.76 242.454L129.424 242.769Z" fill="black" stroke="black" stroke-width="0.5" stroke-linecap="round" stroke-linejoin="round"/>
<path d="M137.405 244.848C137.405 244.848 135.924 244.216 134.638 244.152C133.351 244.088 131.923 245.081 131.923 245.081" stroke="white" stroke-width="0.5" stroke-linecap="round" stroke-linejoin="round"/>
<path d="M137.469 246.987C137.469 246.987 135.99 246.356 134.704 246.29C133.417 246.224 131.987 247.219 131.987 247.219" stroke="white" stroke-width="0.5" stroke-linecap="round" stroke-linejoin="round"/>
<path d="M137.535 249.125C137.535 249.125 136.054 248.494 134.768 248.428C133.481 248.363 132.053 249.358 132.053 249.358" stroke="white" stroke-width="0.5" stroke-linecap="round" stroke-linejoin="round"/>
<path d="M130.811 258.709C130.811 258.709 132.657 256.96 134.925 256.891C137.193 256.822 138.994 258.513 138.994 258.513L130.811 258.709Z" fill="black" stroke="black" stroke-width="0.5" stroke-linecap="round" stroke-linejoin="round"/>
<path d="M126.566 167.079L125.182 185.548L144.479 185.481L148.61 172.473" fill="#666666"/>
<path d="M126.566 167.079L125.182 185.548L144.479 185.481L148.61 172.473" stroke="black" stroke-width="0.5" stroke-linecap="round" stroke-linejoin="round"/>
<path d="M141.248 156.601C147.434 154.905 151.119 159.107 153.051 165.224L132.985 182.445L116.782 182.373C110.808 182.346 104.945 176.313 107.171 162.696" fill="#808080"/>
<path d="M141.248 156.601C147.434 154.905 151.119 159.107 153.051 165.224L132.985 182.445L116.782 182.373C110.808 182.346 104.945 176.313 107.171 162.696" stroke="black" stroke-width="0.5" stroke-linecap="round" stroke-linejoin="round"/>
<path d="M142.669 232.807H127.313L125.18 185.548C125.121 184.245 125.327 182.942 125.785 181.721C126.244 180.499 126.945 179.383 127.847 178.439C128.748 177.496 129.832 176.745 131.032 176.232C132.232 175.719 133.523 175.455 134.828 175.455C136.127 175.455 137.413 175.717 138.609 176.225C139.805 176.734 140.885 177.479 141.786 178.415C142.687 179.351 143.39 180.459 143.853 181.673C144.315 182.887 144.528 184.182 144.478 185.481L142.669 232.807Z" fill="#808080" stroke="black" stroke-width="0.5" stroke-linecap="round" stroke-linejoin="round"/>
<path d="M174.534 99.508L174.226 97.5587C174.143 97.0356 174.196 96.4999 174.381 96.0036C174.566 95.5072 174.876 95.0671 175.281 94.7259L178.991 91.6013C179.059 91.5439 179.139 91.5016 179.224 91.4774C179.31 91.4532 179.4 91.4476 179.488 91.461C179.576 91.4744 179.661 91.5065 179.735 91.5552C179.81 91.6038 179.874 91.6678 179.922 91.743L179.935 91.7649C180.139 92.0822 180.228 92.4604 180.185 92.8353C180.142 93.2102 179.971 93.5589 179.701 93.8221C178.826 94.6652 177.667 95.8017 177.667 95.8017L178.615 97.5469L182.893 96.2148L183.23 93.9114L181.107 92.7041C180.958 92.6197 180.841 92.4897 180.771 92.3334C180.702 92.177 180.685 92.0026 180.723 91.8357C180.757 91.6821 180.827 91.5388 180.927 91.4173C181.027 91.2959 181.154 91.1997 181.299 91.1367C181.443 91.0736 181.6 91.0454 181.757 91.0544C181.914 91.0633 182.067 91.1092 182.203 91.1882L184.997 92.8087C185.314 92.9934 185.577 93.2582 185.76 93.5767C185.943 93.8951 186.038 94.256 186.037 94.623V96.4509L193.485 96.0243C193.751 96.0087 194.015 96.0639 194.252 96.1841C194.489 96.3044 194.69 96.4855 194.834 96.7089L195.087 97.1017C195.278 97.1025 195.462 97.1691 195.608 97.2902C195.755 97.4113 195.855 97.5795 195.892 97.7661C195.932 97.9765 195.898 98.1945 195.796 98.3828C195.694 98.5711 195.529 98.7179 195.33 98.7981L188.417 101.457L194.291 101.361C194.45 101.358 194.606 101.41 194.731 101.508C194.856 101.606 194.944 101.744 194.979 101.899C195.02 102.076 194.989 102.261 194.895 102.416C194.8 102.571 194.649 102.682 194.474 102.727L182.67 105.855C182.381 105.932 182.113 106.076 181.891 106.277C181.668 106.477 181.497 106.728 181.39 107.008L177.306 117.778L170.685 115.223L174.755 103.049C175.084 101.149 174.622 100.059 174.534 99.508Z" fill="#E5E5E5" stroke="black" stroke-width="0.5" stroke-linecap="round" stroke-linejoin="round"/>
<path d="M178.611 97.5469C179.227 98.4694 179.591 99.5364 179.669 100.643C179.759 101.666 179.708 102.696 179.517 103.705" stroke="black" stroke-width="0.5" stroke-linecap="round" stroke-linejoin="round"/>
<path d="M184.993 96.7827C185.715 97.6828 186.272 98.7028 186.641 99.796C187.022 101.043 187.281 102.325 187.415 103.622" stroke="black" stroke-width="0.5" stroke-linecap="round" stroke-linejoin="round"/>
<path d="M195.081 97.1016C195.081 97.1016 191.566 97.7356 189.485 98.2043C188.427 98.4312 187.382 98.7126 186.354 99.0474" stroke="black" stroke-width="0.5" stroke-linecap="round" stroke-linejoin="round"/>
<path d="M71.3817 101.486L71.6937 99.5382C71.7775 99.015 71.7249 98.479 71.5408 97.9822C71.3568 97.4853 71.0476 97.0443 70.6432 96.702L66.9419 93.5724C66.8736 93.5151 66.7939 93.4729 66.7081 93.4487C66.6223 93.4245 66.5323 93.4189 66.4441 93.4321C66.3559 93.4454 66.2716 93.4772 66.1967 93.5255C66.1217 93.5738 66.0579 93.6375 66.0094 93.7124L65.996 93.7343C65.7915 94.0514 65.703 94.4295 65.7454 94.8044C65.7878 95.1793 65.9585 95.528 66.2286 95.7915L68.2521 97.7761L67.3011 99.5197L63.0265 98.1792L62.6893 95.8758L64.8139 94.6718C64.9627 94.5879 65.0804 94.4583 65.1497 94.3022C65.2189 94.146 65.236 93.9717 65.1984 93.8051C65.1644 93.6515 65.0946 93.508 64.9948 93.3864C64.895 93.2647 64.768 93.1683 64.6239 93.1049C64.4799 93.0415 64.323 93.0129 64.1659 93.0215C64.0088 93.0301 63.8559 93.0756 63.7196 93.1543L60.9222 94.7713C60.6046 94.9554 60.3412 95.2199 60.1583 95.5381C59.9753 95.8562 59.8794 96.217 59.8801 96.584V98.4118L52.4321 97.9751C52.1677 97.9581 51.9035 98.0116 51.6665 98.1301C51.4295 98.2486 51.2282 98.4279 51.0832 98.6496L50.8286 99.0425C50.6385 99.0428 50.4545 99.109 50.3078 99.2299C50.1611 99.3507 50.0609 99.5187 50.0242 99.7052C49.9828 99.9157 50.016 100.134 50.1181 100.323C50.2203 100.511 50.3851 100.659 50.584 100.739L57.4975 103.408L51.6244 103.302C51.4655 103.299 51.3106 103.351 51.1854 103.449C51.0602 103.547 50.9723 103.685 50.9365 103.84C50.8953 104.015 50.9243 104.2 51.0172 104.355C51.1101 104.509 51.2595 104.622 51.4339 104.668L63.2373 107.814C63.527 107.891 63.7942 108.036 64.0167 108.237C64.2393 108.438 64.4108 108.689 64.5172 108.969L68.5843 119.744L75.2111 117.201L71.1642 105.02C70.8235 103.128 71.2906 102.039 71.3817 101.486Z" fill="#E5E5E5" stroke="black" stroke-width="0.5" stroke-linecap="round" stroke-linejoin="round"/>
<path d="M67.3049 99.521C66.6879 100.443 66.3218 101.509 66.2425 102.615C66.1501 103.638 66.1994 104.668 66.3892 105.677" stroke="black" stroke-width="0.5" stroke-linecap="round" stroke-linejoin="round"/>
<path d="M60.9269 98.7471C60.2048 99.6467 59.6461 100.666 59.2761 101.759C58.893 103.005 58.6321 104.285 58.4971 105.581" stroke="black" stroke-width="0.5" stroke-linecap="round" stroke-linejoin="round"/>
<path d="M50.834 99.0508C50.834 99.0508 54.3498 99.6898 56.4305 100.162C57.4875 100.389 58.5321 100.67 59.5601 101.005" stroke="black" stroke-width="0.5" stroke-linecap="round" stroke-linejoin="round"/>
<path d="M117.707 96.0273H136.583C142.162 96.0285 147.515 98.2326 151.477 102.16L166.339 118.545L172.241 106.684L183.277 110.96L174.236 134.567C172.167 139.963 165.182 141.584 161.083 137.496L160.871 137.277L147.449 122.889L147.941 155.906C147.945 156.198 147.891 156.488 147.782 156.759C147.673 157.03 147.511 157.277 147.306 157.485C147.101 157.693 146.857 157.858 146.588 157.971C146.318 158.084 146.029 158.142 145.737 158.142H108.583C107.999 158.142 107.439 157.909 107.026 157.496C106.613 157.083 106.381 156.522 106.381 155.938V122.9L86.4383 139.277C86.3591 139.343 86.2697 139.405 86.1955 139.467C82.356 142.379 76.7848 140.896 74.7293 136.538L63.9629 113.687L74.7546 108.925L83.017 120.697L104.885 101.28C108.304 97.9143 112.91 96.0278 117.707 96.0273Z" fill="white" stroke="black" stroke-width="0.5" stroke-linecap="round" stroke-linejoin="round"/>
<path d="M106.399 122.895V112.658" stroke="black" stroke-width="0.5" stroke-linecap="round" stroke-linejoin="round"/>
<path d="M147.467 122.895V113.687" stroke="black" stroke-width="0.5" stroke-linecap="round" stroke-linejoin="round"/>
<path d="M133.828 83.7553L133.699 97.245C133.683 98.8489 133.038 100.383 131.903 101.515C130.767 102.648 129.232 103.29 127.628 103.302C126.811 103.307 126.002 103.149 125.247 102.836C124.492 102.523 123.808 102.063 123.234 101.481C122.66 100.9 122.208 100.209 121.906 99.4503C121.603 98.6914 121.456 97.8797 121.472 97.0629L121.772 82.4502L133.828 83.7553Z" fill="#E5E5E5" stroke="black" stroke-width="0.5" stroke-linecap="round" stroke-linejoin="round"/>
<path d="M133.786 89.1157C134.351 88.9412 134.853 88.6053 135.23 88.1493C135.607 87.6934 135.842 87.1373 135.907 86.5493C136.206 84.4365 136.325 83.1078 136.325 83.1078C136.325 83.1078 139.787 77.926 137.443 72.2048C134.034 63.8833 127.008 65.2913 127.008 65.2913L124.122 64.9929C114.005 60.0455 108.716 67.8763 109.031 71.6281C109.537 77.6748 116.787 78.1132 116.787 78.1132L130.054 73.3666L131.088 80.4705C131.088 80.4705 132.84 78.7287 134.184 80.3019C135.584 81.9325 133.415 85.5393 133.415 85.5393L133.786 89.1157Z" fill="black" stroke="black" stroke-width="0.5" stroke-linecap="round" stroke-linejoin="round"/>
<path d="M131.095 80.467L130.623 72.2046L115.403 73.7694C115.403 73.7694 115.666 82.6473 116.209 85.8291C116.752 89.011 119.728 92.7594 124.261 91.6988C128.793 90.6382 131.033 88.785 132.884 86.3282C134.736 83.8714 135.022 80.8245 133.968 80.064C132.393 78.9309 131.095 80.467 131.095 80.467Z" fill="#E5E5E5" stroke="black" stroke-width="0.5" stroke-linecap="round" stroke-linejoin="round"/>
<path d="M126.282 77.7457L123.699 77.4658" stroke="black" stroke-width="0.5" stroke-linecap="round" stroke-linejoin="round"/>
<path d="M119.221 77.7456L116.684 78.6056" stroke="black" stroke-width="0.5" stroke-linecap="round" stroke-linejoin="round"/>
<path d="M121.077 80.0996C121.077 80.0996 120.246 82.5058 120.617 83.4939C120.988 84.4821 122.445 83.9526 122.445 83.9526" stroke="black" stroke-width="0.5" stroke-linecap="round" stroke-linejoin="round"/>
<path d="M116.682 80.4334C116.854 80.6305 117.063 80.7915 117.298 80.9072C117.533 81.023 117.788 81.0912 118.049 81.1079C118.909 81.145 119.833 80.0962 119.833 80.0962" stroke="black" stroke-width="0.5" stroke-linecap="round" stroke-linejoin="round"/>
<path d="M123.415 80.4334C123.587 80.6305 123.797 80.7915 124.031 80.9072C124.266 81.023 124.521 81.0912 124.783 81.1079C125.641 81.145 126.567 80.0962 126.567 80.0962" stroke="black" stroke-width="0.5" stroke-linecap="round" stroke-linejoin="round"/>
<path d="M123.564 87.6587C123.564 87.6587 124.384 88.1831 125.209 87.9656C126.033 87.7481 126.431 86.8662 126.431 86.8662" stroke="black" stroke-width="0.5" stroke-linecap="round" stroke-linejoin="round"/>
<path d="M166.346 118.545L163.872 123.406" stroke="black" stroke-width="0.5" stroke-linecap="round" stroke-linejoin="round"/>
<path d="M83.0166 120.697L85.7145 124.462" stroke="black" stroke-width="0.5" stroke-linecap="round" stroke-linejoin="round"/>
<path d="M138.12 173.79L154.728 221.055L171.856 215.409L155.788 164.519C155.788 164.519 152.896 156.227 144.491 156.173C136.085 156.119 115.616 162.189 115.616 162.189" fill="#808080"/>
<path d="M138.12 173.79L154.728 221.055L171.856 215.409L155.788 164.519C155.788 164.519 152.896 156.227 144.491 156.173C136.085 156.119 115.616 162.189 115.616 162.189" stroke="black" stroke-width="0.5" stroke-linecap="round" stroke-linejoin="round"/>
<path d="M133.891 87.8314C136.488 87.8054 138.567 85.1783 138.535 81.9635C138.503 78.7488 136.371 76.1638 133.774 76.1898C131.177 76.2158 129.097 78.8429 129.129 82.0576C129.162 85.2723 131.293 87.8573 133.891 87.8314Z" fill="#666666" stroke="black" stroke-width="0.5" stroke-linecap="round" stroke-linejoin="round"/>
<path d="M134.413 85.9568C136.284 85.9418 137.787 84.0506 137.768 81.7327C137.749 79.4149 136.217 77.5481 134.345 77.5631C132.473 77.5781 130.971 79.4693 130.99 81.7872C131.008 84.105 132.541 85.9718 134.413 85.9568Z" fill="#808080" stroke="black" stroke-width="0.5" stroke-linecap="round" stroke-linejoin="round"/>
<path d="M128.795 93.4054C128.165 93.7157 127.484 93.911 126.785 93.982L126.75 93.6448C128.969 93.4155 130.858 91.8945 131.928 89.4748C133.26 86.4649 134.227 81.6778 134.237 81.6289L134.562 81.6947C134.552 81.7419 133.579 86.5661 132.232 89.6097C131.449 91.3853 130.247 92.6938 128.795 93.4054Z" fill="black"/>
<path d="M126.045 92.8575L124.25 93.0193C123.742 93.065 123.368 93.5134 123.414 94.0207L123.421 94.0946C123.466 94.6019 123.915 94.9761 124.422 94.9304L126.217 94.7686C126.725 94.7229 127.099 94.2745 127.053 93.7672L127.046 93.6933C127.001 93.186 126.552 92.8117 126.045 92.8575Z" fill="#666666" stroke="black" stroke-width="0.5" stroke-linecap="round" stroke-linejoin="round"/>
<path d="M133.157 80.8972C133.322 78.4807 133.596 75.8909 131.539 71.3465C129.073 65.9031 124.25 64.9893 124.25 64.9893L127.072 65.2812C127.072 65.2812 130.805 66.0334 133.463 71.0545C135.33 74.5828 135.866 78.9046 135.628 81.5818C135.574 82.2036 135.134 83.7806 134.096 83.548C133.058 83.3154 133.111 81.5966 133.157 80.8972Z" fill="#B3B3B3" stroke="black" stroke-width="0.5" stroke-miterlimit="10" stroke-linecap="round" stroke-linejoin="round"/>
<path fill-rule="evenodd" clip-rule="evenodd" d="M220.489 12.8609C220.954 13.0002 221.325 13.2323 221.65 13.5573C222.207 14.1145 222.486 14.8573 222.347 15.6931V19.8716C222.347 19.9181 222.3 19.9645 222.254 19.9645V70.4788C222.254 71.5466 221.836 72.5216 221.093 73.2645C220.35 74.0073 219.375 74.4252 218.307 74.4252H138.032C138.357 76.1895 138.218 77.8145 137.893 79.2073C138.264 80.0895 138.497 81.0181 138.497 82.0395C138.497 84.5002 137.336 86.5895 135.618 87.5181C135.525 87.7966 135.339 88.0752 135.154 88.3073C134.782 88.7716 134.272 89.0966 133.714 89.2823L133.668 96.0145H136.407C142.072 96.0145 147.411 98.1966 151.404 102.189L166.168 118.439L171.972 106.739C171.972 106.693 172.064 106.693 172.111 106.693L173.132 107.111L174.479 103.164C174.708 101.697 174.484 100.727 174.345 100.122L174.339 100.1C174.327 100.05 174.315 100.004 174.303 99.9609C174.271 99.8432 174.247 99.7503 174.247 99.6823L173.922 97.7323C173.829 97.1752 173.875 96.6181 174.061 96.1073C174.247 95.5502 174.572 95.1323 174.989 94.7609L178.704 91.6502L178.982 91.5109H179.307C179.4 91.5109 179.493 91.5573 179.586 91.6038C179.679 91.6502 179.772 91.7431 179.818 91.8359C180.05 92.2073 180.143 92.5788 180.097 92.9966C180.05 93.4145 179.864 93.7859 179.586 94.0645C178.843 94.7608 177.868 95.7356 177.636 95.9679L178.518 97.5466L182.65 96.2466L182.975 94.1109L180.932 92.9502C180.793 92.8573 180.654 92.7181 180.561 92.5323C180.514 92.3466 180.468 92.1609 180.514 91.9752C180.561 91.7895 180.654 91.6502 180.747 91.5109C180.819 91.4019 180.949 91.3213 181.069 91.2468C181.102 91.2262 181.134 91.2061 181.164 91.1859C181.304 91.0931 181.489 91.0931 181.675 91.0931C181.861 91.0931 182.047 91.1395 182.186 91.2323L184.972 92.8573C185.297 93.0431 185.575 93.3216 185.761 93.6466C185.947 93.9716 186.039 94.3895 186.039 94.7609V96.4788L193.375 96.0609C193.654 96.0609 193.979 96.1073 194.211 96.2466C194.443 96.3859 194.675 96.5716 194.814 96.8038L195.047 97.1288C195.232 97.1752 195.418 97.2216 195.557 97.3609C195.743 97.5002 195.836 97.6859 195.882 97.9181C195.929 98.1502 195.882 98.3823 195.789 98.6145C195.697 98.8002 195.511 98.9859 195.279 99.0788L188.964 101.493L194.164 101.4C194.35 101.4 194.536 101.493 194.675 101.586C194.814 101.725 194.907 101.864 194.954 102.05C195 102.236 194.954 102.468 194.861 102.654C194.722 102.839 194.536 102.979 194.35 103.025L182.557 106.136C182.279 106.229 182 106.368 181.814 106.554C181.629 106.739 181.443 106.972 181.35 107.25L180.329 109.943L183.161 111.057C183.207 111.057 183.207 111.15 183.207 111.197L174.154 134.782C173.179 137.382 170.904 139.286 168.164 139.889C165.518 140.493 162.732 139.657 160.829 137.754L160.597 137.522L151.961 128.236V153.772C151.961 155.397 151.636 156.975 151.032 158.414C154.375 160.922 155.722 164.589 155.722 164.636L171.786 215.522C171.786 215.568 171.739 215.661 171.693 215.661L168.025 216.868L168.814 220.164H169C169.325 220.211 169.697 220.304 170.022 220.443H170.068L172.389 222.672C172.447 222.686 172.572 222.714 172.757 222.755C173.168 222.847 173.876 223.005 174.804 223.229C175.779 222.486 177.218 222.3 177.264 222.3C177.357 222.3 177.404 222.347 177.404 222.393C177.404 222.486 177.357 222.532 177.311 222.532C177.264 222.532 176.057 222.672 175.129 223.275C176.197 223.507 177.589 223.832 179.122 224.204C179.911 223.832 180.7 223.739 180.747 223.739C180.839 223.739 180.886 223.786 180.886 223.832C180.886 223.925 180.839 223.972 180.793 223.972C180.793 223.972 180.189 224.064 179.539 224.297C180.793 224.575 182.139 224.9 183.532 225.272C183.904 225.179 184.182 225.132 184.229 225.132C184.322 225.132 184.368 225.179 184.368 225.225C184.368 225.318 184.322 225.364 184.275 225.364C184.275 225.364 184.182 225.364 184.043 225.411C185.575 225.782 187.154 226.2 188.825 226.664C190.311 227.082 191.657 227.5 192.818 227.872H192.864C193.514 228.057 198.482 229.497 200.479 231.029C200.711 231.168 200.943 231.354 201.082 231.586C201.106 231.632 201.117 231.667 201.129 231.702C201.14 231.737 201.152 231.772 201.175 231.818C201.268 231.957 201.314 232.143 201.314 232.282V232.422C201.268 232.793 201.082 233.164 200.804 233.397C200.711 233.49 200.572 233.582 200.432 233.629C199.318 234.418 197.275 234.836 195.65 235.114C194.954 235.254 194.257 235.393 193.607 235.439H193.468C191.657 235.764 190.032 235.997 190.032 235.997C189.986 235.997 189.939 235.95 189.939 235.95C189.893 235.95 189.893 235.95 189.893 235.904C189.794 235.904 189.707 235.917 189.627 235.929C189.558 235.94 189.493 235.95 189.429 235.95C189.245 235.975 189.061 236 188.875 236.025C185.581 236.472 181.919 236.969 178.007 236.925C175.403 236.925 173.497 236.741 172.062 236.602C171.886 236.585 171.716 236.569 171.554 236.554C170.997 236.507 170.532 236.461 170.161 236.414L170.207 238.504C170.207 238.597 170.161 238.643 170.114 238.643L161.432 239.804C161.386 239.804 161.339 239.757 161.339 239.757C161.313 239.731 161.301 239.719 161.297 239.706C161.293 239.696 161.293 239.684 161.293 239.664L160.132 224.947C160.132 224.9 160.179 224.854 160.179 224.854C160.225 224.807 160.225 224.807 160.272 224.807H160.411L158.647 219.886L154.654 221.186H154.607C154.561 221.186 154.514 221.139 154.514 221.093L144.254 191.889L142.675 232.839C142.675 232.886 142.629 232.932 142.582 232.932H138.775L138.543 239.014L151.822 243.054L151.868 243.1C151.914 243.147 151.914 243.147 151.914 243.193V246.443C153.632 246.536 154.979 247.929 154.979 249.693C154.979 251.504 153.539 252.99 151.729 252.99C149.918 252.99 148.479 251.504 148.479 249.693C148.479 247.882 149.918 246.443 151.682 246.397V245.236L141.004 243.657L141.143 255.682C141.143 255.914 141.097 256.147 141.05 256.379C141.097 256.425 141.097 256.472 141.097 256.472V256.564C141.05 257.725 139.889 258.654 138.357 258.7L131.579 258.886H131.486C130.372 258.886 129.397 258.375 128.979 257.632C128.839 257.447 128.7 257.261 128.607 257.029C128.468 256.704 128.375 256.379 128.375 256.007L127.957 241.754L126.936 241.615V243.007C126.936 243.054 126.889 243.1 126.843 243.1H124.614V246.35C126.332 246.397 127.725 247.836 127.725 249.6C127.725 251.411 126.286 252.897 124.475 252.897C122.664 252.897 121.225 251.411 121.225 249.6C121.225 247.836 122.618 246.397 124.336 246.35V243.1H121.922C121.875 243.1 121.829 243.054 121.829 243.007V241.661L97.2681 245.468V246.35C99.0323 246.397 100.472 247.836 100.472 249.647C100.472 251.457 99.0323 252.943 97.2216 252.943C95.4109 252.943 93.9716 251.457 93.9716 249.647C93.9716 247.929 95.3181 246.49 97.0359 246.397V243.054H97.1288L119.739 236.089C119.507 235.718 119.414 235.254 119.414 234.836V223.461C119.414 222.764 119.693 222.114 120.157 221.604C120.622 221.093 121.225 220.814 121.875 220.768V210.647C121.875 210.6 121.922 210.554 121.968 210.554H122.804V185.9H99.3573C96.9431 185.9 94.9931 183.95 94.9931 181.536V180.793C94.9931 178.379 96.9431 176.429 99.3573 176.429H107.993C106.739 173.736 105.95 169.697 106.786 163.707C106.136 163.289 105.532 162.779 104.975 162.222C102.7 159.947 101.447 156.929 101.447 153.679V127.075L86.4038 139.425C86.3806 139.448 86.3573 139.46 86.3341 139.472C86.3109 139.483 86.2877 139.495 86.2645 139.518C86.2645 139.547 86.2467 139.558 86.2222 139.573C86.2071 139.582 86.1894 139.593 86.1716 139.611C84.3609 141.004 81.9931 141.468 79.7645 140.911C77.4431 140.354 75.5395 138.775 74.5181 136.639L63.7466 113.797V113.704C63.7466 113.704 63.7466 113.657 63.7931 113.657L65.6966 112.822L64.3038 109.107C64.2109 108.829 64.0252 108.597 63.8395 108.411C63.6073 108.225 63.3752 108.086 63.0966 107.993L51.3038 104.836C51.1181 104.789 50.9323 104.65 50.8395 104.464C50.7466 104.279 50.7002 104.047 50.7466 103.861C50.7931 103.675 50.8859 103.489 51.0252 103.397C51.1645 103.257 51.3502 103.211 51.5359 103.211L56.7359 103.304L50.4216 100.889C50.1895 100.797 50.0038 100.657 49.9109 100.425C49.8181 100.193 49.7716 99.9609 49.8181 99.7288C49.8645 99.4966 49.9573 99.3109 50.1431 99.1716C50.2823 99.0323 50.4681 98.9395 50.6538 98.9395L50.8859 98.6145C51.0716 98.3823 51.2573 98.1966 51.5359 98.0573C51.8145 97.9181 52.0931 97.8716 52.3716 97.8716L59.7073 98.2895V96.5716C59.7073 96.1538 59.8002 95.7823 59.9859 95.4573C60.1716 95.1323 60.4502 94.8538 60.7752 94.6681L63.5609 93.0431C63.7466 92.9502 63.8859 92.9038 64.0716 92.9038C64.2573 92.9038 64.4431 92.9038 64.5823 92.9966C64.7681 93.0895 64.9073 93.1823 65.0002 93.3216C65.0931 93.4609 65.1859 93.6002 65.2323 93.7859C65.2788 93.9716 65.2788 94.1573 65.1859 94.3431C65.1395 94.5288 65.0002 94.6681 64.8145 94.7609L62.7716 95.9216L63.0966 98.0573L67.2288 99.3573L68.1109 97.7788L66.1609 95.8752C65.8823 95.5966 65.6966 95.2252 65.6502 94.8073C65.6038 94.3895 65.6966 93.9716 65.9288 93.6466C65.9752 93.5538 66.0681 93.4609 66.1609 93.4145C66.2538 93.368 66.3466 93.3216 66.4395 93.3216C66.5788 93.2752 66.6716 93.2752 66.7645 93.3216C66.8264 93.3216 66.8883 93.3629 66.9502 93.4042C66.9812 93.4248 67.0121 93.4454 67.0431 93.4609L70.7573 96.5716C71.1752 96.9431 71.5002 97.4073 71.6859 97.9181C71.8716 98.4288 71.9181 98.9859 71.8252 99.5431L71.5002 101.493C71.5002 101.586 71.4538 101.725 71.4073 101.864C71.3992 101.9 71.3907 101.936 71.3817 101.974C71.2375 102.589 71.0057 103.576 71.2681 104.975L72.8002 109.618L74.7038 108.782C74.7502 108.782 74.7966 108.782 74.8431 108.829L83.0145 120.482L104.789 101.168C108.272 97.7323 112.822 95.8752 117.697 95.8752H121.364L121.457 91.8359C120.714 91.6966 120.018 91.3716 119.368 90.9538C117.975 90.0252 116.861 88.4931 116.35 86.8216C115.932 86.5431 115.514 86.2181 115.143 85.7538C114.214 84.6395 113.704 83.1538 113.704 81.5752C113.657 80.2288 114.029 78.9288 114.725 77.8609C112.497 77.2109 109.247 75.6323 108.922 71.6395C108.736 69.7359 110.036 66.7181 112.729 64.8609C114.864 63.3752 118.625 62.1681 124.15 64.8609H124.243L126.982 65.1395V22.5181C122.85 21.4038 119.832 17.6895 119.832 13.2323C119.832 7.89305 124.15 3.5752 129.489 3.5752C133.993 3.5752 137.754 6.68591 138.822 10.8181H217.704C218.493 10.8181 219.236 11.1431 219.793 11.7002C220.118 12.0252 220.35 12.4431 220.489 12.8609ZM129.397 234.882C129.397 235.3 129.304 235.764 129.072 236.136L129.814 236.368V232.979H129.397V234.882Z" fill="url(#paint0_linear_2340_153603)" style="mix-blend-mode:overlay"/>
<path d="M98.9859 46.0574V82.9217C98.9859 84.8252 97.4538 86.3109 95.5502 86.2645H45.9645C44.5716 86.2645 43.3645 85.4288 42.8538 84.1752C41.6466 83.7109 40.7645 82.4574 40.7645 81.0645V52.4181C36.2609 51.6288 32.8252 47.6824 32.8252 42.9467C32.8252 37.6074 37.1431 33.2895 42.4823 33.2895C47.1716 33.2895 51.1181 36.6788 51.9538 41.1824H93.7395C93.9716 41.1824 94.1573 41.1824 94.3895 41.2288C95.0859 41.3217 95.7359 41.6002 96.2466 42.1109C96.5716 42.4359 96.8038 42.8538 96.943 43.2717C97.4073 43.4109 97.7788 43.6431 98.1038 43.9681C98.6609 44.5252 98.9859 45.2681 98.9859 46.0574Z" fill="url(#paint1_linear_2340_153603)" style="mix-blend-mode:overlay"/>
<defs>
<linearGradient id="paint0_linear_2340_153603" x1="222.382" y1="130.833" x2="32.8252" y2="130.833" gradientUnits="userSpaceOnUse">
<stop stop-color="#E60050"/>
<stop offset="1" stop-color="#5D6AE8"/>
</linearGradient>
<linearGradient id="paint1_linear_2340_153603" x1="222.382" y1="130.833" x2="32.8252" y2="130.833" gradientUnits="userSpaceOnUse">
<stop stop-color="#E60050"/>
<stop offset="1" stop-color="#5D6AE8"/>
</linearGradient>
</defs>
</svg>
