<svg width="260" height="260" viewBox="0 0 260 260" fill="none" xmlns="http://www.w3.org/2000/svg">
<g clip-path="url(#clip0_2017_92915)">
<path d="M37.363 255.683H33.4813L31.0576 239.02H39.9148L37.363 255.683Z" fill="#333333" stroke="black" stroke-width="0.5" stroke-linecap="round" stroke-linejoin="round"/>
<path d="M87.3609 255.683H83.4793L81.0576 239.02H89.9148L87.3609 255.683Z" fill="#333333" stroke="black" stroke-width="0.5" stroke-linecap="round" stroke-linejoin="round"/>
<path d="M20.1613 242.477H100.809C101.688 242.477 102.399 241.765 102.399 240.887V191.703C102.399 190.824 101.688 190.113 100.809 190.113H20.1613C19.2832 190.113 18.5713 190.824 18.5713 191.703V240.887C18.5713 241.765 19.2832 242.477 20.1613 242.477Z" fill="#B3B3B3" stroke="black" stroke-width="0.5" stroke-linecap="round" stroke-linejoin="round"/>
<path d="M20.9991 239.409H99.9717V193.411H20.9991V239.409Z" fill="#CCCCCC" stroke="black" stroke-width="0.5" stroke-linecap="round" stroke-linejoin="round"/>
<path d="M44.6348 201.302V201.723C44.6348 202.636 45.3749 203.376 46.2879 203.376H74.6854C75.5983 203.376 76.3385 202.636 76.3385 201.723V201.302C76.3385 200.389 75.5983 199.649 74.6854 199.649H46.2879C45.3749 199.649 44.6348 200.389 44.6348 201.302Z" fill="#B3B3B3" stroke="black" stroke-width="0.5" stroke-linecap="round" stroke-linejoin="round"/>
<path d="M44.6348 216.525V216.946C44.6348 217.859 45.3749 218.599 46.2879 218.599H74.6854C75.5983 218.599 76.3385 217.859 76.3385 216.946V216.525C76.3385 215.612 75.5983 214.872 74.6854 214.872H46.2879C45.3749 214.872 44.6348 215.612 44.6348 216.525Z" fill="#B3B3B3" stroke="black" stroke-width="0.5" stroke-linecap="round" stroke-linejoin="round"/>
<path d="M44.6348 231.914V232.335C44.6348 233.248 45.3749 233.988 46.2879 233.988H74.6854C75.5983 233.988 76.3385 233.248 76.3385 232.335V231.914C76.3385 231.001 75.5983 230.261 74.6854 230.261H46.2879C45.3749 230.261 44.6348 231.001 44.6348 231.914Z" fill="#B3B3B3" stroke="black" stroke-width="0.5" stroke-linecap="round" stroke-linejoin="round"/>
<path d="M20.9258 208.675H100.047" stroke="black" stroke-width="0.5" stroke-linecap="round" stroke-linejoin="round"/>
<path d="M20.9258 224.075H100.047" stroke="black" stroke-width="0.5" stroke-linecap="round" stroke-linejoin="round"/>
<path d="M32.8027 138.118C33.6702 142.394 35.3705 146.458 37.8068 150.078C37.823 149.928 37.8413 149.779 37.8596 149.629C36.1903 145.747 35.3749 141.264 32.8027 138.118Z" fill="#CCCCCC" stroke="black" stroke-width="0.5" stroke-linecap="round" stroke-linejoin="round"/>
<path d="M28.3047 142.372C30.3565 147.573 33.4125 152.32 37.2981 156.341C37.2859 156.137 37.2757 155.957 37.2635 155.763C34.2867 151.237 32.2555 145.767 28.3047 142.372Z" fill="#CCCCCC" stroke="black" stroke-width="0.5" stroke-linecap="round" stroke-linejoin="round"/>
<path d="M34.8848 131.912C35.2798 136.234 36.5235 140.435 38.5448 144.275C38.5671 144.131 38.5875 143.986 38.6098 143.842C37.6196 139.763 36.6029 135.656 34.8848 131.912Z" fill="#CCCCCC" stroke="black" stroke-width="0.5" stroke-linecap="round" stroke-linejoin="round"/>
<path d="M36.3917 127.236C36.3801 131.235 37.4667 135.16 39.5332 138.584C39.5434 138.533 39.5556 138.48 39.5657 138.429C38.5084 134.698 37.4504 130.966 36.3917 127.236Z" fill="#CCCCCC" stroke="black" stroke-width="0.5" stroke-linecap="round" stroke-linejoin="round"/>
<path d="M39.0203 124.936C38.9837 127.917 39.5129 130.878 40.5799 133.661L40.6897 133.59C40.7283 133.441 40.769 133.293 40.8076 133.145C40.7019 130.314 39.8581 127.6 39.0203 124.936Z" fill="#CCCCCC" stroke="black" stroke-width="0.5" stroke-linecap="round" stroke-linejoin="round"/>
<path d="M41.08 122.1C40.93 124.441 41.2366 126.789 41.9828 129.013L42.0662 128.989C42.1129 128.846 42.1617 128.704 42.2105 128.56C42.1377 126.364 41.7571 124.189 41.08 122.1Z" fill="#CCCCCC" stroke="black" stroke-width="0.5" stroke-linecap="round" stroke-linejoin="round"/>
<path d="M43.7704 125.243C43.9738 125.103 44.0734 124.8 44.1385 124.527C44.5786 122.69 44.7017 120.792 44.5024 118.913C43.8435 120.929 43.5052 123.037 43.5 125.158C43.5854 125.062 43.7257 125.123 43.7704 125.243Z" fill="#CCCCCC" stroke="black" stroke-width="0.5" stroke-linecap="round" stroke-linejoin="round"/>
<path d="M43.9615 127.38C45.1226 127.484 46.308 126.752 46.8794 125.583C45.4768 125.803 44.1555 126.384 43.0445 127.268L43.0059 127.378C43.3007 127.264 43.6423 127.352 43.9615 127.38Z" fill="#CCCCCC" stroke="black" stroke-width="0.5" stroke-linecap="round" stroke-linejoin="round"/>
<path d="M43.8925 130.963C44.4881 130.871 45.0597 130.662 45.5741 130.348C46.0885 130.033 46.5356 129.621 46.8896 129.133C45.064 129.398 43.3167 130.052 41.7656 131.05C42.4712 130.969 43.1869 131.058 43.8925 130.963Z" fill="#CCCCCC" stroke="black" stroke-width="0.5" stroke-linecap="round" stroke-linejoin="round"/>
<path d="M41.0315 156.613C42.9733 156.353 44.8175 155.224 46.0944 153.516C43.0098 153.965 40.0572 155.07 37.4365 156.758C38.6281 156.621 39.8399 156.772 41.0315 156.613Z" fill="#CCCCCC" stroke="black" stroke-width="0.5" stroke-linecap="round" stroke-linejoin="round"/>
<path d="M43.4917 136.038C44.5567 135.941 45.5588 135.491 46.3383 134.759C44.3473 134.636 42.354 134.961 40.5047 135.709C40.5047 135.737 40.4905 135.766 40.4844 135.794C41.4674 136.035 42.4826 136.117 43.4917 136.038Z" fill="#CCCCCC" stroke="black" stroke-width="0.5" stroke-linecap="round" stroke-linejoin="round"/>
<path d="M41.737 151.461C43.106 151.338 44.3944 150.76 45.397 149.82C42.8417 149.664 40.2838 150.081 37.9103 151.04C37.9001 151.077 37.892 151.115 37.8818 151.152C39.1425 151.416 40.4418 151.597 41.737 151.461Z" fill="#CCCCCC" stroke="black" stroke-width="0.5" stroke-linecap="round" stroke-linejoin="round"/>
<path d="M39.0078 141.376H39.0101H39.0078Z" fill="#CCCCCC" stroke="black" stroke-width="0.5" stroke-linecap="round" stroke-linejoin="round"/>
<path d="M45.7083 138.22C45.8641 138.111 45.9753 137.949 46.0215 137.764C43.4893 138.161 41.1621 139.392 39.4091 141.262L39.3623 141.274C39.3633 141.288 39.3633 141.302 39.3623 141.317C41.7162 140.869 43.9074 139.8 45.7083 138.22Z" fill="#CCCCCC" stroke="black" stroke-width="0.5" stroke-linecap="round" stroke-linejoin="round"/>
<path d="M46.2915 141.939C43.3226 142.757 40.6496 144.408 38.5872 146.695L38.5201 146.748C38.5201 146.782 38.5099 146.817 38.5059 146.851C41.4135 145.948 44.3436 144.578 46.2915 141.939Z" fill="#CCCCCC" stroke="black" stroke-width="0.5" stroke-linecap="round" stroke-linejoin="round"/>
<path d="M41.7652 131.048C42.1434 129.811 42.5569 128.591 43.0056 127.388L43.0442 127.278C43.278 126.668 43.518 126.04 43.7701 125.428C43.7816 125.4 43.7875 125.371 43.7875 125.341C43.7875 125.311 43.7816 125.281 43.7701 125.253C43.7233 125.133 43.583 125.072 43.4997 125.168C43.486 125.184 43.475 125.203 43.4671 125.223C43.0157 126.325 42.5962 127.439 42.2085 128.566C42.1597 128.71 42.1109 128.852 42.0641 128.995C41.6019 130.365 41.1823 131.752 40.8055 133.155C40.7669 133.303 40.7262 133.452 40.6876 133.6C40.2646 135.198 39.8946 136.813 39.5631 138.439C39.5631 138.49 39.5408 138.543 39.5306 138.594C39.3435 139.521 39.17 140.452 39.0101 141.386C38.8745 142.199 38.739 143.021 38.6034 143.852C38.581 143.997 38.5607 144.141 38.5383 144.285C38.3336 145.68 38.1486 147.078 37.9832 148.478C37.9385 148.864 37.8938 149.253 37.8511 149.639C37.8328 149.789 37.8145 149.938 37.7982 150.088C36.9096 158.051 36.3891 166.103 36.2671 174.126C36.1898 179.082 36.4826 171.505 37.0438 162.785C37.3854 157.478 37.8002 152.14 38.4977 146.861C38.4977 146.827 38.4977 146.792 38.5119 146.758C38.7532 144.94 39.0311 143.13 39.3456 141.327C39.3465 141.313 39.3465 141.298 39.3456 141.284C39.5231 140.289 39.7129 139.297 39.9149 138.309C40.087 137.472 40.2714 136.637 40.468 135.804C40.468 135.776 40.4822 135.747 40.4883 135.719C40.8624 134.149 41.2793 132.594 41.749 131.06L41.7652 131.048Z" fill="black"/>
<path d="M27.6357 181.829C27.636 183.586 28.1416 185.306 29.0923 186.785C30.043 188.263 31.3986 189.436 32.9976 190.165H40.5942C42.1932 189.436 43.5488 188.263 44.4995 186.785C45.4502 185.306 45.9558 183.586 45.9561 181.829C45.9582 180.025 45.4253 178.261 44.425 176.76C45.6124 175.828 46.9605 173.679 46.9605 170.111C46.9605 167.349 45.3583 164.964 42.7068 163.862C41.6858 163.451 40.6104 163.191 39.5145 163.09V161.796H34.0773V173.079C32.2111 173.66 30.5794 174.823 29.4205 176.397C28.2616 177.971 27.6363 179.874 27.6357 181.829ZM42.5726 174.712C41.6699 173.976 40.6346 173.419 39.5226 173.071V164.013C40.5046 164.113 41.4677 164.35 42.3835 164.718C44.6791 165.68 45.7812 167.522 45.8402 169.759C45.9357 173.331 44.1647 174.438 42.5726 174.72V174.712Z" fill="#333333"/>
<path d="M84.0894 172.109C83.0178 171.585 81.8729 171.227 80.6937 171.046L80.9621 167.103L64.3701 167.166L66.1432 187.093C66.2175 187.924 66.6009 188.697 67.2176 189.259C67.8343 189.821 68.6394 190.132 69.4738 190.129L76.2997 190.102C77.1415 190.099 77.9509 189.777 78.5647 189.201C79.1786 188.625 79.5513 187.837 79.6079 186.998L79.6953 185.733C79.7633 185.735 79.8314 185.731 79.8987 185.721C82.3061 185.353 86.9645 183.061 87.3549 177.032C87.4972 174.985 86.3342 173.234 84.0894 172.109ZM85.0023 176.878C84.6851 181.758 80.9967 183.075 79.856 183.366L80.5351 173.356C81.4928 173.537 85.165 174.375 85.0023 176.878Z" fill="#333333" stroke="black" stroke-width="0.5" stroke-linecap="round" stroke-linejoin="round"/>
<path d="M73.0499 161.111C73.0499 161.111 65.6608 154.062 70.5408 149.792C74.5973 146.243 80.5773 152.884 77.1511 155.418C74.6766 157.248 72.1451 153.565 75.0141 152.164" stroke="black" stroke-width="0.5" stroke-linecap="round" stroke-linejoin="round"/>
<path d="M74.2033 163.99C74.2033 163.99 64.4433 157.382 65.46 149.554C66.4767 141.725 76.4684 141.03 78.636 149.786" stroke="black" stroke-width="0.5" stroke-linecap="round" stroke-linejoin="round"/>
<path d="M143.441 212.955H133.275L126.107 252.477C126.038 252.854 126.053 253.242 126.15 253.614C126.248 253.985 126.426 254.33 126.672 254.625C126.917 254.92 127.225 255.157 127.573 255.32C127.92 255.483 128.3 255.567 128.684 255.567C129.247 255.567 129.795 255.386 130.246 255.05C130.698 254.714 131.03 254.242 131.193 253.703L143.441 212.955Z" fill="black" stroke="black" stroke-width="0.5" stroke-miterlimit="10"/>
<path d="M203.786 212.955H213.953L221.118 252.477C221.187 252.854 221.173 253.242 221.075 253.614C220.978 253.985 220.8 254.33 220.554 254.625C220.308 254.92 220 255.157 219.653 255.32C219.305 255.483 218.926 255.567 218.542 255.567C217.979 255.567 217.432 255.385 216.98 255.049C216.529 254.714 216.197 254.241 216.035 253.703L203.786 212.955Z" fill="black" stroke="black" stroke-width="0.5" stroke-miterlimit="10"/>
<path d="M129.202 175.493H217.245L224.234 93.1224C224.234 90.1564 223.056 87.3119 220.958 85.2146C218.861 83.1173 216.016 81.9391 213.05 81.9391H132.392C129.426 81.9391 126.582 83.1173 124.485 85.2146C122.387 87.3119 121.209 90.1564 121.209 93.1224L129.202 175.493Z" fill="#4C4C4C" stroke="black" stroke-width="0.5" stroke-miterlimit="10"/>
<path d="M121.215 229.535H224.229V184.496H121.215V229.535Z" fill="#333333" stroke="black" stroke-width="0.5" stroke-miterlimit="10"/>
<path d="M121.215 212.955H224.229V184.523H121.215V212.955Z" fill="#4C4C4C" stroke="black" stroke-width="0.5" stroke-miterlimit="10"/>
<path d="M121.215 185.517H224.229V169.348H121.215V185.517Z" fill="#333333" stroke="black" stroke-width="0.5" stroke-miterlimit="10"/>
<path d="M121.217 229.728C122.853 229.726 124.425 229.088 125.601 227.951C126.776 226.813 127.465 225.263 127.52 223.628L129.521 166.121C129.551 165.274 129.41 164.431 129.106 163.64C128.803 162.849 128.343 162.127 127.755 161.517C127.167 160.907 126.462 160.422 125.683 160.09C124.903 159.759 124.065 159.587 123.218 159.586H119.216C118.369 159.587 117.531 159.759 116.751 160.09C115.972 160.422 115.267 160.907 114.679 161.517C114.091 162.127 113.632 162.849 113.328 163.64C113.025 164.431 112.884 165.274 112.913 166.121L114.914 223.628C114.97 225.263 115.658 226.813 116.834 227.951C118.009 229.088 119.581 229.726 121.217 229.728Z" fill="#333333" stroke="black" stroke-width="0.5" stroke-miterlimit="10"/>
<path d="M121.215 176.363C123.461 176.363 125.282 173.45 125.282 169.856C125.282 166.263 123.461 163.35 121.215 163.35C118.969 163.35 117.148 166.263 117.148 169.856C117.148 173.45 118.969 176.363 121.215 176.363Z" fill="#4C4C4C" stroke="black" stroke-width="0.5" stroke-miterlimit="10"/>
<path d="M175.562 105.658H183.82C187.819 105.658 190.53 107.285 190.53 109.284L192.03 109.788C195.332 110.894 198.331 112.753 200.792 115.218C203.252 117.682 205.106 120.685 206.207 123.989L214.34 148.409C214.931 150.182 215.155 152.056 215 153.918C214.845 155.78 214.313 157.591 213.438 159.241C212.562 160.892 211.36 162.347 209.905 163.519C208.449 164.691 206.771 165.556 204.972 166.06L184.09 175.493L147.763 172.723L140.239 161.428C138.357 158.605 137.318 155.304 137.244 151.912C137.169 148.52 138.063 145.177 139.82 142.274L155.827 115.841C156.658 114.469 157.778 113.293 159.109 112.397C160.439 111.5 161.949 110.903 163.533 110.648C163.533 108.637 165.77 106.242 169.391 106.242L175.562 105.658Z" fill="#808080" stroke="black" stroke-width="0.5" stroke-miterlimit="10"/>
<path d="M181.961 111.632L178.26 167.032H161.605L168.181 110.629L181.961 111.632Z" fill="white" stroke="black" stroke-width="0.5" stroke-miterlimit="10"/>
<path d="M184.09 112.402C184.09 112.402 185.379 112.402 188.293 111.317C189.633 110.818 190.529 109.283 190.529 109.283" stroke="black" stroke-width="0.5" stroke-miterlimit="10"/>
<path d="M163.524 110.64C163.524 110.64 164.338 112.943 167.998 112.943" stroke="black" stroke-width="0.5" stroke-miterlimit="10"/>
<path d="M193.105 136.803L198.382 151.31" stroke="black" stroke-width="0.5" stroke-miterlimit="10"/>
<path d="M179.007 162.559L200.493 150.086" stroke="black" stroke-width="0.5" stroke-miterlimit="10"/>
<path d="M181.603 95.591C181.603 95.591 183.289 93.822 183.118 92.1608C182.947 90.4996 181.229 89.6395 180.141 91.5284C178.94 93.6239 177.844 95.7786 176.86 97.9842C175.949 100.058 173.354 102.132 169.503 101.927C169.037 101.902 168.476 105.414 168.476 105.414L167.992 112.234C167.992 112.234 168.539 115.78 174.058 116.191C180.52 116.675 181.959 111.626 181.959 111.626L181.603 95.591Z" fill="#E5E5E5" stroke="black" stroke-width="0.5" stroke-miterlimit="10"/>
<path d="M160.896 85.2658L164.911 103.334C164.911 103.334 165.877 106.941 171.471 105.079C177.065 103.216 179.328 89.7452 179.328 89.7452L178.559 81.2662L160.896 85.2658Z" fill="#E5E5E5" stroke="black" stroke-width="0.5" stroke-miterlimit="10"/>
<path d="M176.027 82.8989C176.027 82.8989 177.091 87.3031 177.333 90.5605C177.581 93.8647 177.65 96.8638 175.625 97.3356L172.701 97.4616C171.766 97.5001 170.853 97.7482 170.027 98.1875C169.094 98.6877 167.65 99.7044 166.001 99.7756C165.365 99.8107 164.728 99.8012 164.094 99.7471C164.094 99.7471 164.069 106.575 169.38 107.563C174.691 108.551 177.007 106.14 178.685 103.149C179.813 101.138 180.035 95.8797 179.905 93.0696C179.881 92.539 179.994 92.0112 180.235 91.5379C180.476 91.0645 180.836 90.6619 181.279 90.3694L181.983 85.5788L176.027 82.8989Z" fill="#333333" stroke="black" stroke-width="0.5" stroke-miterlimit="10"/>
<path d="M170.031 99.5071L173.911 98.5819C173.911 98.5819 174.114 100.438 172.872 100.847C170.456 101.644 170.031 99.5071 170.031 99.5071Z" fill="white"/>
<path d="M164.919 92.8867L166.987 92.0815" stroke="black" stroke-width="0.5" stroke-linecap="round" stroke-linejoin="round"/>
<path d="M171.662 91.4227L174.612 91.2173" stroke="black" stroke-width="0.5" stroke-linecap="round" stroke-linejoin="round"/>
<path d="M169.308 91.9065C169.308 91.9065 169.058 95.538 169.493 96.2334C169.928 96.9288 171.54 96.3636 171.54 96.3636" fill="#E5E5E5"/>
<path d="M169.308 91.9065C169.308 91.9065 169.058 95.538 169.493 96.2334C169.928 96.9288 171.54 96.3636 171.54 96.3636" stroke="black" stroke-width="0.5" stroke-linecap="round" stroke-linejoin="round"/>
<path d="M166.568 95.046C167.015 95.046 167.377 94.6837 167.377 94.2368C167.377 93.7898 167.015 93.4275 166.568 93.4275C166.121 93.4275 165.759 93.7898 165.759 94.2368C165.759 94.6837 166.121 95.046 166.568 95.046Z" fill="black"/>
<path d="M173.201 93.7488C173.648 93.7488 174.01 93.3865 174.01 92.9395C174.01 92.4926 173.648 92.1302 173.201 92.1302C172.754 92.1302 172.392 92.4926 172.392 92.9395C172.392 93.3865 172.754 93.7488 173.201 93.7488Z" fill="black"/>
<path d="M175.786 83.8891C175.786 83.8891 172.408 88.2079 165.068 88.2343C157.728 88.2608 156.975 85.4995 157.138 83.4397C157.301 81.38 159.602 80.2779 159.602 80.2779C159.602 80.2779 157.996 75.9896 162.168 75.6765C166.341 75.3634 169.198 78.6817 169.198 78.6817C169.198 78.6817 173.838 74.7554 177.439 76.0384C182.553 77.8542 181.943 86.081 181.943 86.081L175.786 83.8891Z" fill="#333333" stroke="black" stroke-width="0.5" stroke-miterlimit="10"/>
<path d="M160.973 196.194C160.973 196.194 180.053 207.642 184.277 211.29C192.207 218.13 197.074 226.773 199.087 226.769C201.1 226.765 200.734 221.395 198.807 215.911C196.879 210.427 193.705 208.498 192.436 204.106C191.168 199.714 190.564 194.307 183.449 196.094C179.763 197.022 166.473 188.476 166.473 188.476L160.973 196.194Z" fill="white" stroke="black" stroke-width="0.5" stroke-miterlimit="10"/>
<path d="M192.437 204.108C192.437 204.108 190.948 197.922 188.931 196.584C186.914 195.247 182.872 196.198 182.872 196.198C182.872 196.198 182.319 201.078 184.836 203.286C187.353 205.494 192.437 204.108 192.437 204.108Z" fill="black" stroke="black" stroke-width="0.5" stroke-miterlimit="10"/>
<path d="M198.807 215.917L192.4 219.781L195.747 223.847C195.747 223.847 198.574 227.526 199.541 226.661C200.509 225.797 200.812 223.681 200.107 220.726C199.401 217.772 198.807 215.917 198.807 215.917Z" fill="black" stroke="black" stroke-width="0.5" stroke-miterlimit="10"/>
<path d="M172.684 205.641L180.993 194.996L137.286 153.087C132.709 148.702 125.328 149.169 121.176 154.104C116.973 159.104 117.848 166.566 123.071 170.287L172.684 205.641Z" fill="#B3B3B3" stroke="black" stroke-width="0.5" stroke-miterlimit="10"/>
<path d="M171.166 194.393C171.166 194.393 151.987 205.671 147.73 209.283C139.749 216.054 134.795 224.655 132.785 224.632C130.774 224.61 131.184 219.244 133.161 213.778C135.137 208.313 138.327 206.41 139.635 202.028C140.942 197.646 141.593 192.245 148.691 194.098C152.368 195.055 165.733 186.637 165.733 186.637L171.166 194.393Z" fill="white" stroke="black" stroke-width="0.5" stroke-miterlimit="10"/>
<path d="M139.633 202.028C139.633 202.028 141.176 195.855 143.205 194.527C145.235 193.199 149.267 194.193 149.267 194.193C149.267 194.193 149.777 199.073 147.233 201.267C144.69 203.461 139.633 202.028 139.633 202.028Z" fill="black" stroke="black" stroke-width="0.5" stroke-miterlimit="10"/>
<path d="M133.159 213.778L139.532 217.697L136.148 221.739C136.148 221.739 133.302 225.399 132.332 224.518C131.362 223.638 131.085 221.527 131.817 218.579C132.549 215.631 133.159 213.778 133.159 213.778Z" fill="black" stroke="black" stroke-width="0.5" stroke-miterlimit="10"/>
<path d="M147.936 184.786H190.907C192.142 184.786 193.144 183.784 193.144 182.549V153.812C193.144 152.577 192.142 151.575 190.907 151.575H147.936C146.701 151.575 145.7 152.577 145.7 153.812V182.549C145.7 183.784 146.701 184.786 147.936 184.786Z" fill="white" stroke="black" stroke-width="0.5" stroke-miterlimit="10"/>
<path d="M225.228 229.728C226.864 229.726 228.436 229.088 229.612 227.951C230.787 226.813 231.476 225.263 231.532 223.628L233.532 166.121C233.562 165.274 233.421 164.431 233.117 163.64C232.814 162.849 232.354 162.127 231.766 161.517C231.178 160.907 230.473 160.422 229.694 160.09C228.914 159.759 228.076 159.587 227.229 159.586H223.219C222.372 159.587 221.534 159.759 220.754 160.09C219.975 160.422 219.27 160.907 218.682 161.517C218.094 162.127 217.634 162.849 217.331 163.64C217.028 164.431 216.886 165.274 216.916 166.121L218.917 223.628C218.973 225.264 219.662 226.815 220.84 227.953C222.017 229.091 223.591 229.728 225.228 229.728Z" fill="#333333" stroke="black" stroke-width="0.5" stroke-miterlimit="10"/>
<path d="M225.228 176.363C227.474 176.363 229.294 173.45 229.294 169.856C229.294 166.263 227.474 163.35 225.228 163.35C222.982 163.35 221.161 166.263 221.161 169.856C221.161 173.45 222.982 176.363 225.228 176.363Z" fill="#4C4C4C" stroke="black" stroke-width="0.5" stroke-miterlimit="10"/>
<path d="M152.278 192.375L158.079 204.575L215.108 184.242C221.08 182.113 223.965 175.295 221.412 169.378C218.821 163.382 211.757 160.824 206.092 163.832L152.278 192.375Z" fill="#B3B3B3" stroke="black" stroke-width="0.5" stroke-miterlimit="10"/>
<path d="M204.801 8.35718H168.959V65.8437H204.801V8.35718Z" fill="#999999" stroke="black" stroke-width="0.5" stroke-linecap="round" stroke-linejoin="round"/>
<path d="M202.228 11.0231H171.534V63.1796H202.228V11.0231Z" fill="white" stroke="black" stroke-width="0.5" stroke-miterlimit="10" stroke-linejoin="round"/>
<path d="M193.667 27.0981H180.091V47.1026H193.667V27.0981Z" fill="#E5E5E5"/>
<path d="M159.9 8.35718H124.058V65.8437H159.9V8.35718Z" fill="#999999" stroke="black" stroke-width="0.5" stroke-linecap="round" stroke-linejoin="round"/>
<path d="M157.326 11.0231H126.632V63.1796H157.326V11.0231Z" fill="white" stroke="black" stroke-width="0.5" stroke-miterlimit="10" stroke-linejoin="round"/>
<path d="M148.765 27.0981H135.189V47.1026H148.765V27.0981Z" fill="#E5E5E5"/>
<path d="M115.235 30.0012H79.3926V65.8437H115.235V30.0012Z" fill="#999999" stroke="black" stroke-width="0.5" stroke-linecap="round" stroke-linejoin="round"/>
<path d="M112.571 32.6653H82.0586V63.1778H112.571V32.6653Z" fill="white" stroke="black" stroke-width="0.5" stroke-miterlimit="10" stroke-linejoin="round"/>
<path d="M90.3037 51.5357L82.1787 63.1429H112.357V51.5357L104.929 42.4822L94.7144 57.5715L90.3037 51.5357Z" fill="#CCCCCC"/>
<path d="M235.691 102.866V60.9073" stroke="black" stroke-width="0.5" stroke-linejoin="round"/>
<path d="M244.106 82.5142V72.3209C244.106 70.9953 243.031 69.9208 241.706 69.9208C240.38 69.9208 239.306 70.9953 239.306 72.3209V82.5142C239.306 83.8397 240.38 84.9143 241.706 84.9143C243.031 84.9143 244.106 83.8397 244.106 82.5142Z" fill="black"/>
<path d="M230.806 41.1138C230.976 40.1595 231.806 39.4644 232.775 39.4644H251.023C252.002 39.4644 252.836 40.172 252.996 41.1371L257.85 70.4005C258.052 71.6191 257.112 72.7277 255.877 72.7277H227.566C226.321 72.7277 225.379 71.6028 225.597 70.3772L230.806 41.1138Z" fill="#808080" stroke="black" stroke-width="0.5" stroke-linecap="round" stroke-linejoin="round"/>
<path d="M235.692 102.223H235.69C234.93 102.223 234.313 102.839 234.313 103.599V110.502C234.313 111.262 234.93 111.878 235.69 111.878H235.692C236.452 111.878 237.068 111.262 237.068 110.502V103.599C237.068 102.839 236.452 102.223 235.692 102.223Z" fill="black"/>
<path d="M231.446 72.7277L234.773 39.4644" stroke="black" stroke-width="0.5" stroke-linejoin="round"/>
<path d="M253.049 72.7277L249.722 39.4644" stroke="black" stroke-width="0.5" stroke-linejoin="round"/>
<path d="M238.479 72.7277L239.086 39.4644" stroke="black" stroke-width="0.5" stroke-linejoin="round"/>
<path d="M245.673 72.7277L245.065 39.4644" stroke="black" stroke-width="0.5" stroke-linejoin="round"/>
<ellipse cx="92.1603" cy="42.9464" rx="3.94643" ry="3.94643" fill="#CCCCCC"/>
<path d="M168.953 65.975H204.796C204.842 65.975 204.889 65.9286 204.889 65.8821V8.35714C204.889 8.31071 204.842 8.26428 204.796 8.26428H168.953C168.907 8.26428 168.86 8.31071 168.86 8.35714V65.8357C168.86 65.9286 168.907 65.975 168.953 65.975Z" fill="url(#paint0_linear_2017_92915)" style="mix-blend-mode:overlay"/>
<path d="M229.775 159.993C230.564 160.318 231.26 160.829 231.864 161.432C232.467 162.082 232.932 162.779 233.257 163.568C233.582 164.357 233.721 165.193 233.675 166.075L231.678 223.6C231.632 225.271 230.935 226.85 229.728 228.011C228.521 229.171 226.942 229.821 225.271 229.821C224.76 229.821 224.25 229.775 223.739 229.636H217.146L221.278 252.432C221.371 252.85 221.325 253.268 221.232 253.639C221.139 254.057 220.907 254.382 220.675 254.707C220.442 255.032 220.117 255.264 219.746 255.45C219.375 255.636 219.003 255.729 218.585 255.729C217.982 255.729 217.425 255.543 216.96 255.171C216.496 254.846 216.171 254.336 215.985 253.779L208.742 229.682H138.589L131.346 253.779C131.207 254.336 130.835 254.8 130.371 255.171C129.907 255.543 129.35 255.729 128.746 255.729C128.328 255.729 127.957 255.636 127.585 255.45C127.214 255.264 126.935 255.032 126.657 254.707C126.378 254.382 126.192 254.011 126.1 253.639C126.007 253.221 125.96 252.804 126.053 252.432L130.185 229.636H122.803C122.292 229.729 121.782 229.821 121.271 229.821C119.6 229.821 118.021 229.171 116.814 228.011C115.607 226.85 114.91 225.271 114.864 223.6L112.867 166.075C112.821 165.239 112.96 164.357 113.285 163.568C113.61 162.732 114.075 161.989 114.678 161.386C115.282 160.782 115.978 160.271 116.767 159.946C117.371 159.714 117.975 159.529 118.625 159.482C118.95 157.486 119.785 155.582 121.132 154.004C122.617 152.239 124.567 150.986 126.703 150.382L121.132 93.0892C121.132 90.0714 122.292 87.2392 124.428 85.1035C126.564 82.9678 129.396 81.8071 132.414 81.8071H157.625C158.275 80.8785 159.203 80.3214 159.482 80.1821C159.342 79.7642 158.878 78.0464 159.667 76.7928C160.178 76.0499 161.014 75.6321 162.221 75.5392C166.028 75.2607 168.814 78 169.278 78.5107C169.928 77.9535 174.153 74.7035 177.542 75.9107C180.189 76.8392 181.35 79.4857 181.814 81.8071H213.153C216.171 81.8071 219.003 82.9678 221.139 85.1035C223.275 87.2392 224.435 90.0714 224.435 93.0892L218.632 161.479L218.678 161.432C219.282 160.829 219.978 160.318 220.767 159.993C221.557 159.668 222.392 159.482 223.275 159.482H227.267C228.15 159.482 228.985 159.668 229.775 159.993Z" fill="url(#paint1_linear_2017_92915)" style="mix-blend-mode:overlay"/>
<path fill-rule="evenodd" clip-rule="evenodd" d="M77.4888 189.986H100.796C101.771 189.986 102.514 190.775 102.421 191.704V240.593C102.421 241.568 101.632 242.311 100.703 242.311H89.3745L87.3781 255.404C87.3781 255.45 87.3316 255.496 87.2852 255.496H83.3852C83.3388 255.496 83.2924 255.45 83.2924 255.404L81.3888 242.311H39.4174L37.4209 255.404C37.4209 255.45 37.3745 255.496 37.3281 255.496H33.4281C33.3816 255.496 33.3352 255.45 33.3352 255.404L31.4316 242.311H20.1495C19.1745 242.311 18.4316 241.521 18.4316 240.593V191.425C18.4316 190.45 19.2209 189.707 20.1495 189.707H32.8245C31.3852 188.964 30.1316 187.896 29.2495 186.504C28.3209 185.018 27.8102 183.3 27.8102 181.536C27.8102 179.586 28.4138 177.682 29.5745 176.104C30.7352 174.571 32.3602 173.411 34.2174 172.807V161.525H36.9102L37.3281 156.093C33.4281 152.054 30.4102 147.364 28.3674 142.118C28.3674 142.071 28.3674 142.025 28.4138 141.979C28.4602 141.932 28.5066 141.932 28.5531 141.979C31.2459 144.254 33.1031 147.596 34.8674 150.8C34.9777 150.996 35.0881 151.193 35.1987 151.391C35.9254 152.688 36.6615 154.002 37.4674 155.211C37.5596 154.334 37.6518 153.447 37.7441 152.559L37.7448 152.552L37.7471 152.53L37.7476 152.525C37.8399 151.636 37.9322 150.748 38.0245 149.871C37.9781 149.871 37.9316 149.871 37.9316 149.825C35.4709 146.157 33.7995 142.118 32.9174 137.8C32.8709 137.754 32.9174 137.661 32.9638 137.661C33.0102 137.661 33.0566 137.661 33.1031 137.707C34.8181 139.839 35.7927 142.666 36.7199 145.355L36.7245 145.368C36.778 145.522 36.8315 145.678 36.8852 145.834C37.2509 146.895 37.6256 147.983 38.0709 149.036C38.0941 148.896 38.1057 148.746 38.1174 148.595C38.129 148.444 38.1406 148.293 38.1638 148.154C38.2563 147.483 38.3489 146.8 38.4414 146.117L38.4417 146.115L38.4424 146.111C38.5352 145.426 38.6281 144.741 38.7209 144.068C38.6745 144.068 38.6281 144.068 38.6281 144.021C36.5852 140.168 35.3781 135.989 34.9602 131.625C34.9602 131.532 35.0066 131.486 35.0531 131.486C35.0995 131.439 35.1459 131.486 35.1924 131.532C36.8409 135.097 37.8481 139.131 38.7474 142.734L38.8602 143.186C38.9066 142.837 38.9647 142.501 39.0227 142.164C39.0807 141.828 39.1388 141.491 39.1852 141.143C39.1388 141.143 39.0924 141.096 39.0924 141.05C39.0924 141.004 39.1388 140.957 39.1852 140.957C39.2025 140.853 39.2199 140.748 39.2373 140.643C39.3599 139.903 39.4869 139.135 39.6495 138.404C39.6031 138.404 39.5566 138.404 39.5566 138.357C37.4674 134.921 36.3995 130.975 36.3995 126.936C36.3995 126.889 36.4459 126.843 36.4924 126.843C36.5852 126.843 36.6316 126.889 36.6316 126.936C37.1423 128.77 37.6646 130.603 38.1869 132.437C38.7093 134.271 39.2316 136.105 39.7424 137.939C39.993 136.603 40.3187 135.304 40.652 133.975L40.6521 133.974C40.6893 133.826 40.7265 133.678 40.7638 133.529H40.6709C40.6245 133.529 40.5781 133.529 40.5781 133.482C39.5102 130.65 38.9531 127.725 38.9995 124.707C38.9995 124.661 39.0459 124.614 39.0924 124.614C39.1852 124.614 39.2316 124.661 39.2316 124.707L39.2882 124.89C40.0604 127.387 40.86 129.972 40.9959 132.646C41.3209 131.393 41.6924 130.139 42.1102 128.932H42.0638C42.0174 128.932 41.9709 128.886 41.9709 128.839C41.1816 126.564 40.9031 124.243 41.0424 121.875C41.0424 121.829 41.0888 121.782 41.1352 121.782C41.2281 121.782 41.2745 121.829 41.2745 121.875C41.9245 123.918 42.2959 126.007 42.3888 128.096C42.7602 127.075 43.1316 126.054 43.5495 125.079C43.5031 125.079 43.4566 125.032 43.4566 124.986C43.4566 122.85 43.8281 120.761 44.4781 118.718C44.5245 118.671 44.5709 118.625 44.6174 118.625C44.6638 118.625 44.7102 118.671 44.7102 118.718C44.8959 120.621 44.8031 122.525 44.3388 124.382C44.2924 124.661 44.1531 124.986 43.9209 125.171H43.8745V125.264C43.6424 125.775 43.4102 126.332 43.2245 126.889C44.2924 126.054 45.5924 125.543 46.9388 125.311C46.9852 125.311 47.0316 125.311 47.0316 125.357V125.496C46.4745 126.611 45.3602 127.354 44.2459 127.354H44.0138C43.9209 127.307 43.8745 127.307 43.7816 127.307L43.7352 127.299C43.4772 127.256 43.2605 127.219 43.0852 127.307H42.9924C42.5745 128.421 42.2031 129.536 41.8316 130.696C43.3638 129.721 45.0816 129.118 46.8924 128.839C46.9121 128.839 46.9234 128.839 46.9335 128.843C46.9472 128.848 46.9585 128.859 46.9852 128.886C47.0316 128.932 47.0316 128.979 46.9852 129.025C46.6138 129.536 46.1495 129.954 45.6388 130.279C45.1281 130.604 44.5245 130.836 43.9209 130.929C43.5495 130.975 43.1781 130.975 42.8066 130.975C42.4352 130.975 42.1102 130.975 41.7852 131.021H41.7388C41.2745 132.461 40.9031 133.946 40.5316 135.432C42.3424 134.689 44.3388 134.364 46.3352 134.504C46.3816 134.504 46.4281 134.55 46.4281 134.596C46.4281 134.643 46.4281 134.689 46.3816 134.736C45.5924 135.479 44.5245 135.943 43.4566 136.036C43.2245 136.082 42.9459 136.082 42.7138 136.082C41.9709 136.082 41.1816 135.989 40.4388 135.804C40.3459 136.198 40.2647 136.604 40.1834 137.011C40.1022 137.417 40.0209 137.823 39.9281 138.218C39.8352 138.682 39.7423 139.158 39.6494 139.634C39.5566 140.11 39.4638 140.586 39.3709 141.05C41.1352 139.193 43.5031 137.986 46.0102 137.568C46.0299 137.568 46.0413 137.568 46.0514 137.571C46.065 137.576 46.0764 137.588 46.1031 137.614C46.1495 137.614 46.1495 137.661 46.1495 137.707C46.0566 137.893 45.9638 138.079 45.7781 138.218C43.9674 139.796 41.7388 140.864 39.3709 141.329H39.3245C39.0459 143.046 38.7674 144.764 38.5352 146.482C40.5781 144.207 43.2709 142.582 46.2424 141.746C46.2888 141.746 46.3352 141.746 46.3816 141.793C46.4281 141.839 46.4281 141.886 46.3816 141.932C44.1995 144.857 40.8566 146.157 38.5352 146.9H38.4888C38.3031 148.2 38.1638 149.5 38.0245 150.8C40.3459 149.871 42.8995 149.5 45.4066 149.639C45.4531 149.639 45.4995 149.686 45.4995 149.732C45.4995 149.779 45.4995 149.825 45.4531 149.871C44.4316 150.846 43.1316 151.404 41.7388 151.543C41.4138 151.589 41.1352 151.589 40.8102 151.589C39.7888 151.589 38.8138 151.45 37.9781 151.264C37.7924 153.029 37.6066 154.793 37.4674 156.557C40.1138 154.886 42.9924 153.818 46.0566 153.354C46.11 153.354 46.1327 153.354 46.1512 153.362C46.1649 153.369 46.1762 153.38 46.1959 153.4C46.2424 153.446 46.2424 153.493 46.1959 153.539C44.8959 155.304 42.9924 156.418 41.0424 156.696C40.4388 156.789 39.7888 156.789 39.1852 156.789H39.1847C38.6277 156.789 38.0243 156.789 37.4674 156.836C37.3281 158.461 37.1888 160.132 37.0959 161.757H39.5102V163.057C40.6245 163.196 41.6924 163.429 42.7138 163.846C45.3602 164.961 46.9852 167.375 46.9852 170.114C46.9852 173.689 45.6388 175.825 44.4316 176.754C45.4531 178.239 45.9638 180.004 45.9638 181.814C45.9638 183.579 45.4531 185.296 44.5245 186.782C43.6424 188.129 42.3888 189.243 40.9495 189.986H68.1102C67.7388 189.846 67.4138 189.614 67.0888 189.336C66.4388 188.779 66.0674 187.989 65.9745 187.107L64.2102 167.189C64.2102 167.166 64.2218 167.154 64.2334 167.143L64.237 167.139L64.2396 167.136C64.241 167.135 64.2423 167.134 64.2435 167.132C64.2454 167.13 64.2472 167.127 64.2489 167.125C64.2509 167.122 64.2526 167.118 64.2539 167.114C64.2556 167.109 64.2566 167.103 64.2566 167.096C64.2833 167.07 64.2947 167.058 64.3083 167.054C64.3184 167.05 64.3298 167.05 64.3495 167.05L80.9245 167.004C80.9709 167.004 81.0174 167.004 81.0174 167.05C81.0315 167.064 81.0413 167.074 81.0482 167.082C81.0543 167.089 81.058 167.095 81.0602 167.102C81.0638 167.112 81.0638 167.123 81.0638 167.143L80.7852 170.996C81.9459 171.182 83.0602 171.554 84.1281 172.064C86.4495 173.179 87.6102 174.989 87.4709 177.079C87.0531 183.161 82.3638 185.482 79.9031 185.854H79.8102L79.7174 187.014C79.6709 187.896 79.2995 188.686 78.6495 189.289C78.2781 189.568 77.9066 189.846 77.4888 189.986ZM84.8709 176.893C85.0566 174.618 81.8531 173.736 80.6459 173.504L79.9495 183.254C81.2031 182.882 84.5924 181.489 84.8709 176.893ZM42.3888 164.729C41.4602 164.357 40.4852 164.125 39.5102 164.032V173.132C40.6245 173.457 41.6924 174.014 42.5745 174.757C44.1531 174.479 45.9174 173.364 45.8245 169.789C45.7781 167.514 44.6638 165.704 42.3888 164.729Z" fill="url(#paint2_linear_2017_92915)" style="mix-blend-mode:overlay"/>
<path d="M75.121 152.146C75.1674 152.193 75.1209 152.239 75.0745 152.286C74.2852 152.657 73.8674 153.214 73.9138 154.004C73.9138 154.654 74.3317 155.35 74.9817 155.675C75.6781 156 76.4674 155.907 77.1638 155.396C78.0924 154.7 78.1852 153.771 78.0924 153.121C77.8602 151.543 76.4209 149.918 74.7031 149.268C73.2174 148.711 71.8245 148.943 70.6638 149.964C69.5959 150.893 69.0852 152.007 69.0388 153.307C68.9473 156.966 72.9998 160.939 73.1661 161.102L73.171 161.107C73.2174 161.154 73.2174 161.246 73.171 161.293C73.1245 161.339 73.1245 161.339 73.0781 161.339C73.0317 161.339 72.9852 161.293 72.9852 161.293L72.9724 161.28L72.9606 161.269C72.5722 160.887 68.67 157.053 68.7602 153.307C68.8067 151.914 69.3638 150.754 70.4781 149.779C71.6852 148.711 73.2174 148.479 74.7495 149.036C76.5138 149.686 78.046 151.45 78.2781 153.075C78.4174 154.096 78.0924 154.979 77.2567 155.582C76.4674 156.139 75.5852 156.232 74.8424 155.861C74.0995 155.489 73.6352 154.7 73.6352 153.957C73.6352 153.168 74.146 152.518 74.9817 152.1C75.0281 152.054 75.0745 152.1 75.121 152.146Z" fill="url(#paint3_linear_2017_92915)" style="mix-blend-mode:overlay"/>
<path d="M74.1459 164.079H74.1924C74.2388 164.079 74.2852 164.079 74.2852 164.032C74.3316 163.986 74.2852 163.893 74.2388 163.893C74.1459 163.846 64.5352 157.254 65.5566 149.546C66.0674 145.6 68.8531 143.696 71.3602 143.557C73.9138 143.418 77.3031 144.95 78.4638 149.779C78.4638 149.825 78.5566 149.871 78.6031 149.871C78.6495 149.871 78.6959 149.779 78.6959 149.732C77.4424 144.764 73.9602 143.186 71.3138 143.325C68.6674 143.464 65.7888 145.461 65.2781 149.5C64.3495 157.346 74.0531 164.032 74.1459 164.079Z" fill="url(#paint4_linear_2017_92915)" style="mix-blend-mode:overlay"/>
<path d="M159.9 65.975H124.057C124.01 65.975 123.964 65.9286 123.964 65.8357V8.35714C123.964 8.31071 124.01 8.26428 124.057 8.26428H159.9C159.946 8.26428 159.992 8.31071 159.992 8.35714V65.8821C159.992 65.9286 159.946 65.975 159.9 65.975Z" fill="url(#paint5_linear_2017_92915)" style="mix-blend-mode:overlay"/>
<path d="M79.3924 65.9749H115.235C115.282 65.9749 115.328 65.9285 115.328 65.8821V29.9928C115.328 29.9464 115.282 29.8999 115.235 29.8999H79.3924C79.346 29.8999 79.2995 29.9464 79.2995 29.9928V65.8356C79.2995 65.9285 79.346 65.9749 79.3924 65.9749Z" fill="url(#paint6_linear_2017_92915)" style="mix-blend-mode:overlay"/>
<path d="M252.989 40.2536L258.189 71.6393C258.235 71.9179 258.142 72.2429 258.003 72.475C257.817 72.7071 257.539 72.8464 257.214 72.8464H244.167V83.525C244.167 84.3143 243.564 84.9178 242.774 84.9178H240.778C239.989 84.9178 239.385 84.3143 239.385 83.525V72.8464H235.903V102.236C236.599 102.282 237.157 102.839 237.157 103.582V110.5C237.157 111.289 236.507 111.893 235.764 111.893C234.974 111.893 234.371 111.243 234.371 110.5V103.582C234.371 102.886 234.928 102.282 235.624 102.236V72.8464H226.339C226.06 72.8464 225.735 72.7071 225.549 72.475C225.364 72.2429 225.271 71.9643 225.317 71.6393L230.889 40.2536C230.982 39.7429 231.399 39.3714 231.91 39.3714H251.967C252.478 39.3714 252.896 39.7429 252.989 40.2536Z" fill="url(#paint7_linear_2017_92915)" style="mix-blend-mode:overlay"/>
</g>
<defs>
<linearGradient id="paint0_linear_2017_92915" x1="258.201" y1="131.611" x2="18.4316" y2="131.611" gradientUnits="userSpaceOnUse">
<stop stop-color="#E60050"/>
<stop offset="1" stop-color="#5D6AE8"/>
</linearGradient>
<linearGradient id="paint1_linear_2017_92915" x1="258.201" y1="131.611" x2="18.4316" y2="131.611" gradientUnits="userSpaceOnUse">
<stop stop-color="#E60050"/>
<stop offset="1" stop-color="#5D6AE8"/>
</linearGradient>
<linearGradient id="paint2_linear_2017_92915" x1="258.201" y1="131.611" x2="18.4316" y2="131.611" gradientUnits="userSpaceOnUse">
<stop stop-color="#E60050"/>
<stop offset="1" stop-color="#5D6AE8"/>
</linearGradient>
<linearGradient id="paint3_linear_2017_92915" x1="258.201" y1="131.611" x2="18.4316" y2="131.611" gradientUnits="userSpaceOnUse">
<stop stop-color="#E60050"/>
<stop offset="1" stop-color="#5D6AE8"/>
</linearGradient>
<linearGradient id="paint4_linear_2017_92915" x1="258.201" y1="131.611" x2="18.4316" y2="131.611" gradientUnits="userSpaceOnUse">
<stop stop-color="#E60050"/>
<stop offset="1" stop-color="#5D6AE8"/>
</linearGradient>
<linearGradient id="paint5_linear_2017_92915" x1="258.201" y1="131.611" x2="18.4316" y2="131.611" gradientUnits="userSpaceOnUse">
<stop stop-color="#E60050"/>
<stop offset="1" stop-color="#5D6AE8"/>
</linearGradient>
<linearGradient id="paint6_linear_2017_92915" x1="258.201" y1="131.611" x2="18.4316" y2="131.611" gradientUnits="userSpaceOnUse">
<stop stop-color="#E60050"/>
<stop offset="1" stop-color="#5D6AE8"/>
</linearGradient>
<linearGradient id="paint7_linear_2017_92915" x1="258.201" y1="131.611" x2="18.4316" y2="131.611" gradientUnits="userSpaceOnUse">
<stop stop-color="#E60050"/>
<stop offset="1" stop-color="#5D6AE8"/>
</linearGradient>
<clipPath id="clip0_2017_92915">
<rect width="260" height="260" fill="white"/>
</clipPath>
</defs>
</svg>
