<svg width="260" height="260" viewBox="0 0 260 260" fill="none" xmlns="http://www.w3.org/2000/svg">
<g clip-path="url(#clip0_1439_90295)">
<path d="M94.7228 87.7701C91.1245 90.984 73.6485 97.3997 58.4907 87.7701C51.8946 83.5768 45.4868 82.1901 42.9266 81.7797C42.8645 81.7663 42.8082 81.7333 42.766 81.6856C42.7238 81.6379 42.698 81.5779 42.6921 81.5144C42.6863 81.4509 42.7008 81.3872 42.7336 81.3326C42.7663 81.278 42.8157 81.2352 42.8743 81.2106L48.1126 79.2862C48.1126 79.2862 46.722 76.6325 37.7346 77.3079C30.3349 77.8635 24.4155 74.3127 22.5544 73.0382C22.5021 73.0053 22.4612 72.957 22.4374 72.8999C22.4136 72.8428 22.408 72.7797 22.4214 72.7193C22.4348 72.6589 22.4666 72.6041 22.5124 72.5625C22.5581 72.5209 22.6155 72.4946 22.6768 72.4871C24.4931 72.1876 29.2983 71.28 32.7263 69.4485C36.8488 67.2425 38.1603 64.9661 38.1603 64.9661C38.1603 64.9661 36.5172 62.4711 31.6702 61.9844C28.6809 61.7057 25.6681 61.8195 22.7082 62.3229C22.6391 62.3349 22.568 62.3264 22.5036 62.2986C22.4392 62.2708 22.3843 62.2248 22.3455 62.1662C22.3067 62.1077 22.2857 62.039 22.2852 61.9687C22.2846 61.8984 22.3044 61.8295 22.3423 61.7703C23.2265 60.388 25.6701 57.267 30.671 55.2617C37.6405 52.4672 44.126 53.7431 44.126 53.7431C44.126 53.7431 42.3336 51.3964 39.3672 50.5982C37.2641 50.0366 34.5007 50.375 32.9832 50.6401C32.9145 50.6601 32.841 50.6548 32.7759 50.6251C32.7108 50.5954 32.6585 50.5433 32.6285 50.4782C32.5985 50.4131 32.5928 50.3394 32.6124 50.2705C32.632 50.2015 32.6756 50.1419 32.7353 50.1025C35.4239 47.856 43.7496 41.632 51.8976 43.1326C60.876 44.7875 66.685 43.1326 73.8113 40.8083C88.0998 36.1478 100.285 41.9675 100.285 41.9675L94.7228 87.7701Z" fill="#999999" stroke="black" stroke-width="0.5" stroke-linecap="round" stroke-linejoin="round"/>
<path d="M146.872 88.275H69.1928C68.6253 88.2747 68.0656 88.1438 67.5569 87.8923C67.0483 87.6407 66.6044 87.2754 66.2597 86.8247C65.915 86.3739 65.6788 85.8498 65.5694 85.293C65.4599 84.7362 65.4802 84.1617 65.6286 83.614L78.6436 35.9333C78.8575 35.1516 79.3224 34.4618 79.9667 33.97C80.6109 33.4783 81.3989 33.2119 82.2094 33.2117H159.888C160.457 33.2117 161.017 33.3428 161.527 33.5947C162.036 33.8467 162.481 34.2128 162.826 34.6645C163.171 35.1162 163.407 35.6414 163.516 36.1992C163.625 36.757 163.604 37.3325 163.454 37.8808L150.438 85.5599C150.223 86.3407 149.758 87.0293 149.113 87.5199C148.469 88.0105 147.682 88.2758 146.872 88.275Z" fill="#4C4C4C" stroke="black" stroke-width="0.5" stroke-linecap="round" stroke-linejoin="round"/>
<path d="M146.874 88.275H69.1955C68.627 88.2752 68.0661 88.1441 67.5565 87.892C67.0469 87.64 66.6024 87.2737 66.2575 86.8217C65.9126 86.3698 65.6766 85.8443 65.568 85.2862C65.4594 84.7282 65.4811 84.1526 65.6313 83.6043L76.7737 42.8336H162.12L150.439 85.5534C150.225 86.3351 149.761 87.025 149.117 87.5168C148.473 88.0086 147.685 88.275 146.874 88.275Z" fill="#333333" stroke="black" stroke-width="0.5" stroke-linecap="round" stroke-linejoin="round"/>
<path d="M85.104 38.3321C85.2398 37.2361 84.5736 36.2515 83.616 36.1329C82.6584 36.0143 81.7721 36.8066 81.6364 37.9026C81.5007 38.9987 82.1669 39.9833 83.1244 40.1019C84.082 40.2205 84.9683 39.4281 85.104 38.3321Z" fill="#333333" stroke="black" stroke-width="0.5" stroke-linecap="round" stroke-linejoin="round"/>
<path d="M89.9986 38.3317C90.1343 37.2357 89.4681 36.2511 88.5105 36.1325C87.553 36.0139 86.6667 36.8063 86.5309 37.9023C86.3952 38.9983 87.0614 39.9829 88.019 40.1015C88.9765 40.2201 89.8628 39.4277 89.9986 38.3317Z" fill="#333333" stroke="black" stroke-width="0.5" stroke-linecap="round" stroke-linejoin="round"/>
<path d="M94.8931 38.3314C95.0288 37.2354 94.3626 36.2508 93.405 36.1322C92.4475 36.0136 91.5612 36.806 91.4255 37.902C91.2897 38.998 91.9559 39.9826 92.9135 40.1011C93.8711 40.2197 94.7573 39.4275 94.8931 38.3314Z" fill="#333333" stroke="black" stroke-width="0.5" stroke-linecap="round" stroke-linejoin="round"/>
<path d="M22.2857 67.2633C22.2857 67.2633 20.9783 69.254 16.5723 70.3192C12.5807 71.2826 8.36091 69.2599 6.58652 68.0549C6.54881 68.0296 6.52112 67.9925 6.50817 67.9498C6.49521 67.9071 6.49774 67.8614 6.51528 67.8203C6.53281 67.7791 6.56429 67.7451 6.60455 67.7237C6.64482 67.7023 6.69145 67.6949 6.73664 67.7028C8.14474 67.9444 10.9159 68.0477 14.0278 66.1617C19.2309 63.0127 22.2857 67.2633 22.2857 67.2633Z" fill="#999999" stroke="black" stroke-width="0.5" stroke-linecap="round" stroke-linejoin="round"/>
<path d="M117.81 42.1817C117.919 42.8162 118.052 43.4436 118.211 44.064C119.099 47.5304 120.755 51.2005 119.41 54.5154C118.332 57.1767 115.607 58.7527 112.978 59.913C111.166 60.7132 109.269 61.4189 107.288 61.5101C105.308 61.6014 104.102 60.7491 102.347 60.1135C100.863 59.574 99.3942 59.4616 97.9942 58.5929C95.1438 56.8149 93.563 53.3778 93.5223 50.0239C93.4978 47.8971 94.034 45.7996 94.9108 43.8717C95.7746 41.9682 97.0148 40.8339 96.8029 38.6468C96.6171 36.7449 95.7973 34.9555 95.548 33.0601C94.857 27.7978 99.2181 22.5941 104.521 22.3349C105.308 22.3044 106.092 22.4387 106.824 22.7293C107.629 23.0276 108.107 22.8499 108.98 22.8499C112.23 22.8499 115.457 24.7257 116.966 27.6266C118.315 30.2342 118.017 32.3528 117.66 35.0647C117.351 37.431 117.402 39.8304 117.81 42.1817Z" fill="#CCCCCC" stroke="black" stroke-width="0.5" stroke-linecap="round" stroke-linejoin="round"/>
<path d="M134.717 66.238C135.196 66.7611 135.636 67.3038 136.034 67.8107C136.995 69.0297 137.919 70.2791 138.804 71.559C139.344 68.5489 139.839 65.5616 140.25 62.5287C140.323 61.9795 140.691 60.899 140.522 60.3808C140.352 59.8625 139.512 59.2204 139.16 58.7722C138.313 57.6936 137.57 56.5373 136.941 55.3189C135.964 53.4202 134.543 51.8508 133.371 50.0646C133.064 49.6002 132.756 49.1047 132.719 48.5506C132.706 48.3697 132.74 48.153 132.903 48.0617C132.99 48.0261 133.086 48.0165 133.178 48.034C133.961 48.122 134.645 48.5686 135.281 49.0395C136.323 49.8162 137.29 50.6892 138.169 51.6471C138.064 49.7908 138.024 47.9558 137.895 46.106C137.776 44.3753 137.525 42.6445 137.445 40.9284C137.412 40.6274 137.438 40.3228 137.523 40.0321C137.568 39.888 137.653 39.7599 137.769 39.6633C137.884 39.5667 138.026 39.5057 138.175 39.4878C138.674 39.4747 138.944 40.0549 139.083 40.534C139.793 42.9949 140.458 45.4933 140.587 48.0519C140.499 45.0272 140.545 42.0019 140.724 38.976C140.722 38.7459 140.768 38.5179 140.858 38.3062C140.904 38.2013 140.98 38.1124 141.077 38.0507C141.173 37.9889 141.286 37.9571 141.4 37.9591C141.692 37.9884 141.867 38.285 141.972 38.5604C142.237 39.319 142.424 40.1026 142.53 40.8991C142.916 43.2035 143.304 45.5096 143.498 47.8368C143.633 46.2462 143.714 44.6523 143.741 43.0552C143.754 42.2751 143.754 41.4945 143.741 40.7133C143.729 40.0924 143.601 39.3932 144.005 38.8587C144.057 38.778 144.13 38.7125 144.216 38.669C144.302 38.6255 144.398 38.6055 144.494 38.611C144.581 38.6329 144.663 38.6733 144.734 38.7295C144.805 38.7857 144.863 38.8564 144.904 38.9369C145.105 39.301 145.247 39.6949 145.323 40.1038C145.644 41.4595 145.865 42.8371 145.983 44.2253C146.052 44.9929 146.171 45.7638 146.192 46.5412C146.208 47.1409 146.391 48.2703 146.154 48.8228C146.859 47.1822 147.566 45.5405 148.273 43.8978C148.426 43.5441 148.599 43.1595 148.957 42.9982C149 42.9721 149.049 42.9583 149.099 42.9583C149.149 42.9583 149.198 42.9721 149.241 42.9982C149.28 43.0374 149.307 43.0864 149.321 43.14C149.671 44.227 149.264 45.7296 149.075 46.8231C148.849 48.0141 148.717 49.2212 148.682 50.433C148.654 52.5516 148.519 54.636 147.968 56.7041C147.787 57.3837 147.527 58.0291 147.509 58.7266C147.508 59.4806 147.599 60.232 147.779 60.9642C149.021 66.7627 149.23 72.7454 148.936 78.6695C148.786 81.6779 148.495 84.7402 147.292 87.5009C146.624 89.0345 145.768 90.4491 144.091 90.9608C142.624 91.4074 140.977 91.2297 139.557 90.7082C137.334 89.8934 135.504 88.2848 133.752 86.691C131.378 84.5316 129.026 82.3054 127.222 79.6473C125.418 76.9892 124.204 73.8325 124.357 70.6268C124.489 67.8889 125.824 65.0271 128.327 63.9026C130.83 62.7781 133.02 64.3834 134.717 66.238Z" fill="#E5E5E5" stroke="black" stroke-width="0.5" stroke-linecap="round" stroke-linejoin="round"/>
<path d="M146.124 59.6197C144.883 59.1213 143.55 58.8892 142.213 58.9385" stroke="black" stroke-width="0.5" stroke-linecap="round" stroke-linejoin="round"/>
<path d="M147.41 49.6786C144.392 47.8214 140.39 48.2364 139.053 48.2857" stroke="black" stroke-width="0.5" stroke-linecap="round" stroke-linejoin="round"/>
<path d="M139.075 70.0515C138.627 73.7836 138.084 77.5026 137.445 81.2086" stroke="black" stroke-width="0.5" stroke-linecap="round" stroke-linejoin="round"/>
<path d="M73.3574 88.2751C77.8897 88.2751 82.3209 88.2066 86.5582 88.2066C87.0357 87.1522 87.549 85.9022 88.0575 84.8673C88.7059 83.5513 89.2768 82.1985 89.7671 80.8158C90.419 78.9922 90.3179 77.4309 88.7892 76.0587C87.5285 74.9315 85.9099 74.2861 84.2195 74.2366C82.0112 74.1845 79.5943 74.9602 78.6621 76.9648C76.8271 80.8989 73.3574 88.2751 73.3574 88.2751Z" fill="#E5E5E5" stroke="black" stroke-width="0.5" stroke-linecap="round" stroke-linejoin="round"/>
<path d="M125.398 56.2217C123.583 54.4421 117.576 54.416 115.167 54.2367C114.668 54.1987 114.169 54.1688 113.669 54.1471C113.661 54.0151 113.651 53.8831 113.638 53.7527C113.376 50.8192 113.1 47.9118 112.823 44.9783C112.687 43.5115 112.498 41.9568 111.512 40.8225C109.76 38.8114 106.601 38.8505 103.992 39.6279C103.608 39.729 103.241 39.8878 102.905 40.0989C102.615 40.3087 102.371 40.5748 102.187 40.8811C102.002 41.1874 101.881 41.5277 101.831 41.8818C101.715 42.5581 101.798 43.2377 101.868 43.9108C102.159 46.7074 102.219 49.5317 102.243 52.356C102.243 53.0666 102.183 53.87 102.206 54.6588C99.4353 55.001 96.6648 55.4737 93.9317 56.0164C92.7909 56.2413 91.585 56.5248 90.8174 57.3902C90.115 58.1823 89.9356 59.328 90.0562 60.3808C90.3316 62.7993 91.9614 64.8299 93.6416 66.5884C96.2263 69.2872 99.1419 71.7318 102.525 73.3191C105.909 74.9064 109.8 75.5877 113.433 74.7141C116.19 74.0508 118.671 72.5385 120.952 70.8533C122.923 69.3964 124.849 67.7096 125.809 65.4557C126.702 63.386 127.214 58.0014 125.398 56.2217Z" fill="#E5E5E5" stroke="black" stroke-width="0.5" stroke-linecap="round" stroke-linejoin="round"/>
<path d="M117.872 88.2017C120.366 88.2017 124.466 88.2017 126.622 88.2017C126.622 88.2017 126.518 87.5628 126.622 85.9967C126.686 85.0449 126.687 82.2271 126.738 81.308C126.771 80.7001 126.808 80.0743 127.064 79.5153C127.307 78.9889 127.729 78.5717 128.141 78.1659L137.804 68.6695C135.84 65.6154 133.404 62.488 130.796 59.9896C128.379 57.6819 125.936 55.9153 123.12 54.1226C119.085 59.5691 112.902 64.8413 105.719 64.8201C99.5021 64.7989 95.2681 61.1598 91.5524 56.6959C91.3731 56.4808 91.1677 56.251 90.889 56.207C90.4946 56.1549 90.1768 56.5085 89.9373 56.8263C84.9389 63.4886 80.6626 70.4573 76.3047 77.5808C80.6392 81.0618 85.6569 83.5932 91.0324 85.0107C91.8554 82.8921 93.0598 80.3399 94.2918 78.4283C94.6031 80.4165 94.9878 82.0772 95.0432 83.6629C95.11 85.5078 95.0432 86.4546 94.6846 88.1903C102.68 88.2017 109.258 88.2131 117.872 88.2017Z" fill="#999999" stroke="black" stroke-width="0.5" stroke-linecap="round" stroke-linejoin="round"/>
<path d="M115.59 42.8254C117.832 42.5282 119.36 40.1021 119.003 37.4066C118.646 34.7111 116.539 32.7668 114.296 33.064C112.054 33.3612 110.526 35.7873 110.883 38.4828C111.24 41.1784 113.348 43.1226 115.59 42.8254Z" fill="#333333" stroke="black" stroke-width="0.5" stroke-linecap="round" stroke-linejoin="round"/>
<path d="M116.814 35.3418C117.495 38.3519 117.743 41.4972 117.14 44.5415C116.537 47.5859 114.58 48.9271 111.505 48.8196C109.295 48.7446 107.297 47.5777 105.576 46.2462C103.954 45.0174 102.513 43.5662 101.296 41.9356C100.687 41.1148 100.172 40.2281 99.7608 39.2922C99.3289 38.2899 99.1725 37.1068 98.9215 36.0328C98.8881 35.9311 98.8881 35.8215 98.9215 35.7199C98.9553 35.6598 99.0021 35.6082 99.0585 35.5687C99.1149 35.5292 99.1795 35.5029 99.2474 35.4917C107.867 33.1987 108.609 27.9265 108.659 27.1492C111.021 28.0031 113.385 29.2678 115.132 31.1289C116.162 32.242 116.488 33.9076 116.814 35.3418Z" fill="#E5E5E5" stroke="black" stroke-width="0.5" stroke-linecap="round" stroke-linejoin="round"/>
<path d="M112.937 43.8994C112.606 44.0672 112.236 44.1432 111.865 44.1194C111.107 44.0754 110.519 43.5344 110.014 43.0406C111.358 42.7696 112.686 42.4186 113.989 41.9894C113.977 42.801 113.716 43.4952 112.937 43.8994Z" fill="white" stroke="black" stroke-width="0.5" stroke-linecap="round" stroke-linejoin="round"/>
<path d="M111.119 36.1631C111.538 36.7042 111.874 37.2746 112.252 37.8401C112.39 38.0308 112.5 38.2405 112.578 38.4627C112.617 38.5744 112.634 38.6928 112.628 38.8111C112.621 38.9294 112.591 39.0453 112.54 39.1521C112.346 39.5122 111.888 39.6182 111.486 39.6882C111.419 39.7086 111.348 39.7028 111.285 39.6719" stroke="black" stroke-width="0.5" stroke-linecap="round" stroke-linejoin="round"/>
<path d="M105.994 36.5705C106.59 36.1378 107.21 35.7384 107.85 35.3743" stroke="black" stroke-width="0.5" stroke-linecap="round" stroke-linejoin="round"/>
<path d="M112.16 33.963L114.409 33.7788" stroke="black" stroke-width="0.5" stroke-linecap="round" stroke-linejoin="round"/>
<path d="M108.389 38.8785C108.669 38.7906 108.757 38.2786 108.587 37.7351C108.416 37.1915 108.05 36.8222 107.771 36.9101C107.491 36.9981 107.402 37.51 107.573 38.0535C107.744 38.5971 108.109 38.9664 108.389 38.8785Z" fill="black"/>
<path d="M113.836 37.1678C114.116 37.0799 114.205 36.568 114.034 36.0244C113.863 35.4809 113.498 35.1115 113.218 35.1995C112.938 35.2874 112.849 35.7993 113.02 36.3429C113.191 36.8864 113.556 37.2558 113.836 37.1678Z" fill="black"/>
<path d="M108.233 24.4112C110.334 29.7648 103.751 34.9343 98.9512 35.5178" stroke="black" stroke-width="0.5" stroke-linecap="round" stroke-linejoin="round"/>
<path d="M98.358 43.3818C97.1885 40.6821 98.0135 37.729 100.201 36.7857C102.388 35.8424 105.109 37.2661 106.279 39.9657C107.448 42.6653 106.623 45.6185 104.436 46.5618C102.249 47.5051 99.5276 46.0814 98.358 43.3818Z" fill="#4C4C4C" stroke="black" stroke-width="0.5" stroke-linecap="round" stroke-linejoin="round"/>
<path d="M98.7074 43.3039C97.8643 41.3577 98.4592 39.2286 100.036 38.5484C101.613 37.8683 103.575 38.8946 104.419 40.8408C105.262 42.7869 104.667 44.916 103.09 45.5962C101.513 46.2763 99.5506 45.25 98.7074 43.3039Z" fill="#808080" stroke="black" stroke-width="0.5" stroke-linecap="round" stroke-linejoin="round"/>
<mask id="path-27-inside-1_1439_90295" fill="white">
<path d="M107.173 51.7271C107.78 51.9471 108.42 52.058 109.065 52.0546L109.067 51.7525C107.02 51.7654 105.147 50.5653 103.927 48.4698C102.41 45.863 101.049 41.6014 101.035 41.5588L100.745 41.6498C100.758 41.6934 102.13 45.9857 103.665 48.6214C104.551 50.1504 105.779 51.2225 107.173 51.7271Z"/>
</mask>
<path d="M107.173 51.7271C107.78 51.9471 108.42 52.058 109.065 52.0546L109.067 51.7525C107.02 51.7654 105.147 50.5653 103.927 48.4698C102.41 45.863 101.049 41.6014 101.035 41.5588L100.745 41.6498C100.758 41.6934 102.13 45.9857 103.665 48.6214C104.551 50.1504 105.779 51.2225 107.173 51.7271Z" fill="black"/>
<path d="M107.173 51.7271L107.343 51.257L107.343 51.2571L107.173 51.7271ZM109.065 52.0546L109.565 52.0568L109.563 52.552L109.068 52.5546L109.065 52.0546ZM109.067 51.7525L109.064 51.2525L109.569 51.2494L109.567 51.7547L109.067 51.7525ZM103.927 48.4698L103.495 48.7214L103.495 48.7212L103.927 48.4698ZM101.035 41.5588L100.885 41.0817L101.359 40.9331L101.511 41.4057L101.035 41.5588ZM100.745 41.6498L100.267 41.7964L100.121 41.3215L100.595 41.1727L100.745 41.6498ZM103.665 48.6214L104.097 48.3699L104.097 48.3707L103.665 48.6214ZM107.343 51.2571C107.895 51.4569 108.477 51.5577 109.063 51.5546L109.068 52.5546C108.364 52.5583 107.665 52.4372 107.003 52.1972L107.343 51.2571ZM108.565 52.0524L108.567 51.7503L109.567 51.7547L109.565 52.0568L108.565 52.0524ZM109.07 52.2525C106.807 52.2667 104.785 50.9369 103.495 48.7214L104.359 48.2182C105.509 50.1938 107.233 51.264 109.064 51.2525L109.07 52.2525ZM103.495 48.7212C102.715 47.3814 101.984 45.6332 101.45 44.2307C101.182 43.5262 100.961 42.9027 100.806 42.4525C100.729 42.2273 100.668 42.0453 100.626 41.9179C100.605 41.8542 100.589 41.8041 100.577 41.7691C100.572 41.7517 100.567 41.738 100.564 41.7282C100.561 41.7196 100.559 41.7115 100.559 41.7119L101.511 41.4057C101.528 41.4584 102.874 45.6665 104.359 48.2183L103.495 48.7212ZM101.185 42.0358L100.895 42.1269L100.595 41.1727L100.885 41.0817L101.185 42.0358ZM101.223 41.5031C101.223 41.5029 101.244 41.5699 101.286 41.6971C101.327 41.822 101.387 42.0016 101.464 42.2244C101.617 42.6701 101.836 43.2878 102.102 43.9855C102.636 45.3875 103.351 47.0884 104.097 48.3699L103.233 48.873C101.666 46.182 100.28 41.8391 100.267 41.7964L101.223 41.5031ZM104.097 48.3707C104.935 49.8148 106.077 50.7985 107.343 51.257L107.003 52.1973C105.481 51.6465 104.168 50.486 103.232 48.8722L104.097 48.3707Z" fill="black" mask="url(#path-27-inside-1_1439_90295)"/>
<path d="M109.623 50.9625L111.278 50.9329C111.744 50.9245 112.131 51.2954 112.14 51.7613L112.141 51.8291C112.15 52.295 111.779 52.6795 111.312 52.6878L109.658 52.7174C109.191 52.7258 108.805 52.3549 108.796 51.889L108.794 51.8211C108.785 51.3553 109.156 50.9708 109.623 50.9625Z" fill="#4C4C4C" stroke="black" stroke-width="0.5" stroke-linecap="round" stroke-linejoin="round"/>
<path d="M101.438 40.7896C100.385 38.7835 98.6541 34.4568 100.542 28.8808C102.429 23.3047 107.288 22.798 107.288 22.798L106.117 22.542C106.117 22.542 101.588 23.1892 99.2987 29.2407C97.0095 35.2922 98.3584 40.1068 99.5743 42.3059C99.857 42.8161 100.826 44.0013 101.635 43.4079C102.444 42.8146 101.743 41.3707 101.438 40.7896Z" fill="white"/>
<path d="M101.438 40.7896L101.66 40.6734L101.66 40.6736L101.438 40.7896ZM107.288 22.798L107.341 22.5538L108.858 22.8856L107.314 23.0466L107.288 22.798ZM106.117 22.542L106.082 22.2945C106.112 22.2903 106.142 22.2914 106.171 22.2978L106.117 22.542ZM99.5743 42.3059L99.3556 42.4271L99.3555 42.4269L99.5743 42.3059ZM101.217 40.9058C100.147 38.8679 98.3868 34.4669 100.305 28.8006L100.778 28.9609C98.9215 34.4467 100.623 38.699 101.66 40.6734L101.217 40.9058ZM100.305 28.8006C101.271 25.9467 103.003 24.3806 104.499 23.531C105.245 23.1072 105.931 22.8624 106.432 22.7234C106.683 22.6539 106.887 22.6106 107.031 22.5847C107.102 22.5717 107.159 22.563 107.198 22.5575C107.217 22.5547 107.233 22.5528 107.243 22.5515C107.249 22.5508 107.253 22.5503 107.256 22.55C107.258 22.5498 107.259 22.5497 107.26 22.5495C107.26 22.5495 107.261 22.5495 107.261 22.5494C107.261 22.5494 107.261 22.5494 107.261 22.5494C107.262 22.5494 107.262 22.5493 107.288 22.798C107.314 23.0466 107.314 23.0466 107.314 23.0466C107.314 23.0466 107.314 23.0466 107.314 23.0466C107.314 23.0466 107.314 23.0466 107.314 23.0466C107.314 23.0466 107.313 23.0467 107.312 23.0468C107.311 23.047 107.308 23.0473 107.304 23.0478C107.296 23.0487 107.284 23.0503 107.267 23.0526C107.235 23.0572 107.185 23.0649 107.12 23.0766C106.99 23.1002 106.8 23.1401 106.566 23.2052C106.097 23.3354 105.45 23.5659 104.746 23.9658C103.341 24.7635 101.7 26.2388 100.778 28.9609L100.305 28.8006ZM107.234 23.0422L106.064 22.7862L106.171 22.2978L107.341 22.5538L107.234 23.0422ZM106.117 22.542C106.153 22.7895 106.153 22.7895 106.153 22.7895C106.153 22.7895 106.153 22.7894 106.153 22.7894C106.153 22.7894 106.153 22.7894 106.153 22.7894C106.153 22.7895 106.153 22.7895 106.152 22.7896C106.151 22.7898 106.148 22.7902 106.145 22.7908C106.138 22.7919 106.126 22.7938 106.111 22.7966C106.081 22.8022 106.035 22.8114 105.974 22.8253C105.853 22.8531 105.676 22.8998 105.454 22.9746C105.01 23.1241 104.392 23.3856 103.702 23.8319C102.326 24.7225 100.657 26.3556 99.5325 29.3291L99.0649 29.1522C100.229 26.0743 101.969 24.358 103.431 23.4122C104.16 22.9402 104.817 22.6617 105.294 22.5008C105.533 22.4203 105.727 22.3692 105.862 22.338C105.93 22.3224 105.983 22.3118 106.021 22.3049C106.039 22.3015 106.054 22.299 106.064 22.2973C106.069 22.2965 106.073 22.2958 106.076 22.2954C106.078 22.2951 106.079 22.295 106.08 22.2948C106.08 22.2948 106.081 22.2947 106.081 22.2946C106.081 22.2946 106.082 22.2946 106.082 22.2946C106.082 22.2945 106.082 22.2945 106.117 22.542ZM99.5325 29.3291C97.2717 35.3057 98.6093 40.0438 99.7931 42.1849L99.3555 42.4269C98.1075 40.1697 96.7473 35.2787 99.0649 29.1522L99.5325 29.3291ZM99.793 42.1847C99.9218 42.4172 100.214 42.8112 100.558 43.0712C100.729 43.2006 100.898 43.2849 101.054 43.3114C101.2 43.3363 101.343 43.3121 101.487 43.2064L101.783 43.6095C101.523 43.8004 101.241 43.8505 100.97 43.8042C100.707 43.7594 100.464 43.6268 100.257 43.4703C99.8437 43.1585 99.5095 42.7048 99.3556 42.4271L99.793 42.1847ZM101.487 43.2064C101.764 43.0033 101.818 42.6348 101.71 42.1481C101.606 41.6754 101.368 41.1945 101.217 40.9056L101.66 40.6736C101.813 40.9658 102.078 41.4974 102.198 42.0402C102.315 42.5692 102.315 43.2192 101.783 43.6095L101.487 43.2064Z" fill="black"/>
<path d="M102.686 31.5413C103.783 31.0358 104.742 30.2718 105.48 29.3147C106.218 28.3577 106.713 27.236 106.923 26.0458" stroke="black" stroke-width="0.5" stroke-linecap="round" stroke-linejoin="round"/>
<path d="M93.0762 74.4876C94.0647 77.016 94.6838 79.6737 94.9145 82.3787" stroke="black" stroke-width="0.5" stroke-linecap="round" stroke-linejoin="round"/>
<path d="M82.0163 86.1662C82.3129 84.9977 84.8308 84.103 86.8011 83.9155C88.7715 83.7281 90.041 84.0785 90.8657 84.556C92.2248 85.3383 95.6961 88.6303 94.6792 89.6375C93.7975 90.5061 92.7561 89.4028 92.7561 89.4028C92.7561 89.4028 92.9827 90.0107 92.4302 90.335C91.7148 90.762 90.411 89.8803 90.411 89.8803C90.411 89.8803 90.455 90.6805 89.7591 90.9185C88.7519 91.2623 87.5476 89.8803 87.5476 89.8803C87.5476 89.8803 87.3308 90.41 86.7979 90.4344C85.3931 90.4964 81.6578 87.5889 82.0163 86.1662Z" fill="#E5E5E5" stroke="black" stroke-width="0.5" stroke-linecap="round" stroke-linejoin="round"/>
<path d="M88.5 85.1346C88.5 85.1346 90.1297 86.2607 91.0799 87.307C91.7015 88.0009 92.2806 88.7318 92.8139 89.4957" fill="#E5E5E5"/>
<path d="M88.5 85.1346C88.5 85.1346 90.1297 86.2607 91.0799 87.307C91.7015 88.0009 92.2806 88.7318 92.8139 89.4957" stroke="black" stroke-width="0.5" stroke-linecap="round" stroke-linejoin="round"/>
<path d="M86.248 85.7327C87.1231 86.3918 87.9538 87.1077 88.735 87.8757C89.3344 88.5091 89.8944 89.1785 90.4119 89.8803" fill="#E5E5E5"/>
<path d="M86.248 85.7327C87.1231 86.3918 87.9538 87.1077 88.735 87.8757C89.3344 88.5091 89.8944 89.1785 90.4119 89.8803" stroke="black" stroke-width="0.5" stroke-linecap="round" stroke-linejoin="round"/>
<path d="M83.6699 86.0587C83.6699 86.0587 84.9737 87.219 85.738 87.9703C86.6376 88.8536 87.552 89.882 87.552 89.882" fill="#E5E5E5"/>
<path d="M83.6699 86.0587C83.6699 86.0587 84.9737 87.219 85.738 87.9703C86.6376 88.8536 87.552 89.882 87.552 89.882" stroke="black" stroke-width="0.5" stroke-linecap="round" stroke-linejoin="round"/>
<path d="M128.143 26.9877H171.849" stroke="black" stroke-width="0.5" stroke-miterlimit="10" stroke-linecap="round" stroke-linejoin="round"/>
<path d="M150.543 24.6072H180.051" stroke="black" stroke-width="0.5" stroke-miterlimit="10" stroke-linecap="round" stroke-linejoin="round"/>
<path d="M125.121 151.88H168.828" stroke="black" stroke-width="0.5" stroke-miterlimit="10" stroke-linecap="round" stroke-linejoin="round"/>
<path d="M115.607 149.5H145.117" stroke="black" stroke-width="0.5" stroke-miterlimit="10" stroke-linecap="round" stroke-linejoin="round"/>
<path d="M14.4492 90.5948H44.571" stroke="black" stroke-width="0.5" stroke-miterlimit="10" stroke-linecap="round" stroke-linejoin="round"/>
<path d="M7.89258 88.2143H28.2299" stroke="black" stroke-width="0.5" stroke-miterlimit="10" stroke-linecap="round" stroke-linejoin="round"/>
<path d="M193.134 39.6505C193.134 39.6505 188.935 38.6788 187.274 44.624C185.613 50.5691 184.109 62.5596 191.925 67.5384C198.453 71.6952 200.602 66.6643 200.602 66.6643L193.134 39.6505Z" fill="black"/>
<path d="M190.809 40.5594C190.809 40.5594 192.68 34.2186 200.342 35.4149C208.005 36.6111 206.464 42.051 211.524 43.6737C216.585 45.2963 218.273 43.7846 220.975 47.1194C223.638 50.406 220.068 53.694 224.305 54.3263C228.542 54.9585 231.557 55.7711 234.101 57.899C236.644 60.0268 239.37 63.3121 244.273 64.6768C246.806 65.3825 249.907 64.4188 251.823 63.6289C251.919 63.5889 252.027 63.5829 252.128 63.6119C252.229 63.641 252.317 63.7033 252.377 63.7888C252.438 63.8742 252.468 63.9777 252.463 64.0825C252.457 64.1872 252.416 64.2869 252.346 64.3654C250.562 66.3703 246.952 69.7117 241.882 70.9694C236.162 72.3849 233.94 70.789 233.316 70.1541C233.309 70.1476 233.3 70.1438 233.29 70.1432C233.28 70.1426 233.271 70.1454 233.263 70.1509C233.255 70.1565 233.249 70.1647 233.246 70.174C233.244 70.1833 233.244 70.1933 233.248 70.2022C233.705 71.1379 235.591 72.6896 238.707 73.4582C240.905 74.0008 242.576 73.5437 243.99 73.1828C244.257 73.1133 244.359 73.3967 244.221 73.6426C243.105 75.6261 239.625 78.4851 235.266 76.7769C230.96 75.0875 229.03 76.9801 226.161 77.7767C222.152 78.8887 218.488 77.5882 212.491 70.0739C206.493 62.5596 200.595 70.6928 197.963 64.7343C195.332 58.7758 190.809 40.5594 190.809 40.5594Z" fill="black"/>
<path d="M198.747 228.395H190.871L186.848 177.792L187.062 124.517L210.826 127.19L198.837 179.405L198.747 228.395Z" fill="#E5E5E5" stroke="black" stroke-width="0.5" stroke-linecap="round" stroke-linejoin="round"/>
<path d="M239.96 224.237L232.504 226.767L212.436 180.141L195.521 129.62L218.884 124.517L224.308 177.816L239.96 224.237Z" fill="#E5E5E5" stroke="black" stroke-width="0.5" stroke-linecap="round" stroke-linejoin="round"/>
<path d="M182.125 238.959L176.264 241.699C175.662 241.981 175.293 243.284 175.335 243.948L176.462 245.702L183.902 245.257L199.585 238.574L202.793 235.523C202.793 234.678 202.587 233.845 202.193 233.098L199.407 227.821L199.226 220.351H190.363L190.496 228.088L182.125 238.959Z" fill="black" stroke="black" stroke-width="0.5" stroke-miterlimit="10" stroke-linecap="round" stroke-linejoin="round"/>
<path d="M175.332 244.16L175.796 248.613C175.796 248.613 177.667 249.415 182.122 249.415C186.577 249.415 188.092 248.792 188.092 248.792V244.839L194.151 241.899V248.598C194.151 248.598 198.428 248.598 200.567 248.241C202.705 247.884 202.795 246.548 202.795 246.548L203.017 236.613C203.017 235.767 202.961 234.742 202.566 233.988C202.566 233.988 188.534 244.365 175.332 244.16Z" fill="white" stroke="black" stroke-width="0.5" stroke-miterlimit="10" stroke-linecap="round" stroke-linejoin="round"/>
<path d="M225.236 234.545L220.527 238.98C220.042 239.437 220.099 240.79 220.348 241.407L221.968 242.72L228.895 239.97L241.701 228.718L243.797 224.816C243.532 224.013 243.076 223.287 242.467 222.7L238.171 218.557L235.662 211.52L227.242 214.292L229.792 221.598L225.236 234.545Z" fill="black" stroke="black" stroke-width="0.5" stroke-miterlimit="10" stroke-linecap="round" stroke-linejoin="round"/>
<path d="M220.41 241.61L222.243 245.695C222.243 245.695 224.272 245.871 228.503 244.477C232.735 243.083 233.983 242.018 233.983 242.018L232.748 238.265L237.583 233.576L239.678 239.938C239.678 239.938 243.74 238.602 245.661 237.594C247.582 236.586 247.248 235.288 247.248 235.288L244.351 225.782C244.084 224.98 243.711 224.018 243.101 223.43C243.096 223.43 233.014 237.682 220.41 241.61Z" fill="white" stroke="black" stroke-width="0.5" stroke-miterlimit="10" stroke-linecap="round" stroke-linejoin="round"/>
<path d="M186.848 112.782L186.898 165.417C193.957 163.096 195.354 161.895 202.189 164.809C218.878 171.922 224.86 165.997 233.172 164.241C235.705 163.702 238.275 163.355 240.861 163.205C243.801 163.049 246.71 162.525 249.52 161.645C252.06 160.843 254.359 159.958 253.184 159.715C243.738 157.754 234.485 146.437 227.535 135.21C222.355 126.843 211.696 113.345 211.696 113.345L186.848 112.782Z" fill="#333333" stroke="black" stroke-width="0.5" stroke-miterlimit="10" stroke-linecap="round" stroke-linejoin="round"/>
<path d="M178.17 105.183L184.757 95.0374L185.68 77.0095L177.865 78.7939L178.17 105.183Z" fill="#808080" stroke="black" stroke-width="0.5" stroke-linecap="round" stroke-linejoin="round"/>
<path d="M244.331 93.9547C250.362 99.8357 245.753 107.164 242.377 109.569L227.97 119.699L221.48 112.472L232.742 101.111L222.616 92.9469L216.712 113.456C216.743 113.964 216.644 114.472 216.424 114.931C216.203 115.39 215.869 115.786 215.453 116.079L187.103 114.838C186.666 114.818 186.252 114.64 185.937 114.337C185.622 114.034 185.429 113.626 185.393 113.191L182.558 78.306C182.386 76.1 182.99 73.9032 184.268 72.0966C185.546 70.29 187.415 68.9876 189.553 68.4152C192.429 67.656 200.666 65.9933 205.271 65.9546C221.758 65.8236 244.331 93.9547 244.331 93.9547Z" fill="#808080" stroke="black" stroke-width="0.5" stroke-linecap="round" stroke-linejoin="round"/>
<path d="M176.329 60.8515L177.532 67.0813C177.662 67.7563 177.646 68.4513 177.485 69.1196L176.195 74.5381L182.662 76.2623L184.477 69.5553L186.82 66.282C187.159 65.8679 187.375 65.3676 187.445 64.8372L188.131 59.6111C188.186 59.1847 187.546 58.7918 187.123 58.7169L185.708 61.8338L176.329 60.8515Z" fill="#E5E5E5" stroke="black" stroke-width="0.5" stroke-linecap="round" stroke-linejoin="round"/>
<path d="M191.119 50.9756L185.869 48.4786C185.374 48.243 184.782 48.4535 184.546 48.9488L178.422 61.8237C178.186 62.319 178.397 62.9115 178.892 63.1471L184.141 65.6441C184.636 65.8797 185.229 65.6692 185.464 65.1739L191.589 52.299C191.824 51.8037 191.614 51.2112 191.119 50.9756Z" fill="white" stroke="black" stroke-width="0.5" stroke-linecap="round" stroke-linejoin="round"/>
<path d="M201.602 53.8571L204.153 66.8113C204.283 67.5574 204.254 68.3226 204.068 69.0566C203.882 69.7907 203.542 70.477 203.071 71.0704C202.601 71.6637 202.01 72.1507 201.337 72.4994C200.665 72.8481 199.926 73.0505 199.17 73.0933C197.847 73.1688 196.543 72.7519 195.509 71.9229C194.475 71.094 193.784 69.9116 193.57 68.6037L191.617 56.6827L201.602 53.8571Z" fill="#E5E5E5" stroke="black" stroke-width="0.5" stroke-miterlimit="10" stroke-linecap="round" stroke-linejoin="round"/>
<path d="M201.57 53.0512L202.856 42.0604L194.004 41.495C192.767 41.4157 191.546 41.8117 190.591 42.6022C189.636 43.3926 189.019 44.5179 188.866 45.748C188.426 49.2913 187.901 53.8785 187.906 55.5292C187.914 58.3628 189.937 61.898 194.018 62.0785C197.373 62.2242 201.034 60.0482 201.911 56.9099C204.309 58.2652 205.325 54.1338 204.116 53.1207C202.812 52.03 201.57 53.0512 201.57 53.0512Z" fill="#E5E5E5" stroke="black" stroke-width="0.5" stroke-miterlimit="10" stroke-linecap="round" stroke-linejoin="round"/>
<path d="M198.491 49.8741C197.581 47.7449 195.623 48.496 195.623 48.496" stroke="black" stroke-width="0.5" stroke-linecap="round" stroke-linejoin="round"/>
<path d="M192.14 47.9788C191.264 46.5901 189.771 47.5203 189.771 47.5203" stroke="black" stroke-width="0.5" stroke-linecap="round" stroke-linejoin="round"/>
<path d="M193.424 50.3379C193.424 50.3379 191.971 52.0367 191.953 52.9616C191.936 53.8865 193.299 53.9253 193.299 53.9253" stroke="black" stroke-width="0.5" stroke-linecap="round" stroke-linejoin="round"/>
<path d="M196.151 51.7707C196.555 51.7707 196.882 51.4434 196.882 51.0396C196.882 50.6358 196.555 50.3085 196.151 50.3085C195.747 50.3085 195.42 50.6358 195.42 51.0396C195.42 51.4434 195.747 51.7707 196.151 51.7707Z" fill="black"/>
<path d="M190.946 50.6948C191.35 50.6948 191.677 50.3674 191.677 49.9637C191.677 49.5599 191.35 49.2325 190.946 49.2325C190.542 49.2325 190.215 49.5599 190.215 49.9637C190.215 50.3674 190.542 50.6948 190.946 50.6948Z" fill="black"/>
<path d="M204.497 42.1392C204.497 42.1392 208.198 48.9478 200.408 48.1124C192.883 47.3105 191.174 41.0873 191.174 41.0873L192.615 41.1127C192.615 41.1127 192.442 42.1633 194.335 43.5761C200.408 48.1058 204.497 42.1392 204.497 42.1392Z" fill="black"/>
<path d="M183.156 55.2104L178.755 56.3208C178.231 56.453 177.914 56.9848 178.046 57.5088C178.178 58.0327 178.71 58.3503 179.234 58.2181L183.635 57.1077C184.159 56.9755 184.477 56.4436 184.344 55.9197C184.212 55.3958 183.68 55.0782 183.156 55.2104Z" fill="#E5E5E5" stroke="black" stroke-width="0.5" stroke-miterlimit="10" stroke-linecap="round" stroke-linejoin="round"/>
<path d="M182.024 57.0488L177.622 58.1592C177.099 58.2913 176.781 58.8232 176.913 59.3472C177.045 59.8711 177.577 60.1887 178.101 60.0565L182.502 58.9461C183.026 58.8139 183.344 58.282 183.212 57.7581C183.079 57.2342 182.548 56.9166 182.024 57.0488Z" fill="#E5E5E5" stroke="black" stroke-width="0.5" stroke-miterlimit="10" stroke-linecap="round" stroke-linejoin="round"/>
<path d="M180.59 59.0862L177.07 59.9743C176.546 60.1065 176.228 60.6383 176.36 61.1623C176.493 61.6862 177.024 62.0038 177.548 61.8716L181.068 60.9835C181.592 60.8514 181.91 60.3195 181.778 59.7955C181.645 59.2716 181.114 58.954 180.59 59.0862Z" fill="#E5E5E5" stroke="black" stroke-width="0.5" stroke-miterlimit="10" stroke-linecap="round" stroke-linejoin="round"/>
<path d="M172.637 107.445C169.296 106.787 167.309 102.927 168.321 99.0512L175.806 70.3707L185.526 72.282L179.722 101.801C178.993 105.543 175.818 108.07 172.637 107.445Z" fill="#808080" stroke="black" stroke-width="0.5" stroke-linecap="round" stroke-linejoin="round"/>
<path d="M202.568 57.3363C203.499 57.3363 204.254 56.5817 204.254 55.6508C204.254 54.72 203.499 53.9654 202.568 53.9654C201.637 53.9654 200.883 54.72 200.883 55.6508C200.883 56.5817 201.637 57.3363 202.568 57.3363Z" fill="#808080" stroke="black" stroke-width="0.5" stroke-miterlimit="10" stroke-linecap="round" stroke-linejoin="round"/>
<path d="M242.311 163.143C214.898 162.388 205.154 123.809 205.154 123.809" stroke="black" stroke-width="0.5" stroke-miterlimit="10" stroke-linecap="round" stroke-linejoin="round"/>
<path d="M191.521 40.6249C191.521 40.6249 192.556 42.611 197.195 44.3246C201.614 45.9552 205.326 43.5934 205.326 43.5934C205.326 43.5934 206.69 40.9203 205.105 40.4137C203.52 39.9071 191.521 40.6249 191.521 40.6249Z" fill="black"/>
<path d="M192.535 56.0692L196.576 56.1881C196.576 56.1881 196.224 58.042 194.444 58.0794C192.888 58.1128 192.535 56.0692 192.535 56.0692Z" fill="white" stroke="black" stroke-width="0.5" stroke-linecap="round" stroke-linejoin="round"/>
<path d="M226.249 110.282L219.544 115.877C219.509 115.905 219.469 115.926 219.425 115.937C219.382 115.948 219.337 115.951 219.293 115.944C219.249 115.937 219.207 115.921 219.169 115.897C219.132 115.873 219.099 115.841 219.075 115.804C219.075 115.804 218.15 114.576 217.738 113.981C217.284 113.319 216.34 112.12 215.199 111.428C213.853 110.613 208.958 108.581 208.474 109.986C208.073 111.161 209.569 111.44 209.569 111.44C209.569 111.44 207.611 111.006 207.539 111.876C207.426 113.223 210.126 113.776 210.126 113.776C210.126 113.776 208.606 113.669 208.696 114.578C208.799 115.648 211.463 116.274 211.463 116.274C211.463 116.274 210.678 116.274 210.928 117.007C211.093 117.495 212.708 118.573 214.014 119.232C215.308 119.886 216.475 120.765 217.461 121.828L217.646 122.024C219.597 124.139 221.336 122.435 222.365 121.734L230.059 116.186L226.249 110.282Z" fill="#E5E5E5" stroke="black" stroke-width="0.5" stroke-linecap="round" stroke-linejoin="round"/>
<path d="M215.253 113.513C215.253 113.513 213.542 112.509 212.186 112.084C211.291 111.811 210.38 111.592 209.459 111.429" fill="#E5E5E5"/>
<path d="M215.253 113.513C215.253 113.513 213.542 112.509 212.186 112.084C211.291 111.811 210.38 111.592 209.459 111.429" stroke="black" stroke-width="0.5" stroke-linecap="round" stroke-linejoin="round"/>
<path d="M215.665 115.812C214.696 115.295 213.693 114.842 212.665 114.455C211.833 114.178 210.985 113.951 210.125 113.776" fill="#E5E5E5"/>
<path d="M215.665 115.812C214.696 115.295 213.693 114.842 212.665 114.455C211.833 114.178 210.985 113.951 210.125 113.776" stroke="black" stroke-width="0.5" stroke-linecap="round" stroke-linejoin="round"/>
<path d="M215.868 118.325C215.868 118.325 214.584 117.575 213.596 117.131C212.441 116.615 211.467 116.278 211.467 116.278" fill="#E5E5E5"/>
<path d="M215.868 118.325C215.868 118.325 214.584 117.575 213.596 117.131C212.441 116.615 211.467 116.278 211.467 116.278" stroke="black" stroke-width="0.5" stroke-linecap="round" stroke-linejoin="round"/>
<path d="M234.408 99.4294L219.719 114.248L224.347 122.245L237.053 113.315" fill="#808080"/>
<path d="M234.408 99.4294L219.719 114.248L224.347 122.245L237.053 113.315" stroke="black" stroke-width="0.5" stroke-linecap="round" stroke-linejoin="round"/>
<path d="M213.308 34.0235C213.308 34.0235 213.763 30.1113 216.159 30.8157C219.635 31.8315 214.733 40.2052 214.733 40.2052C214.733 40.2052 209.047 36.2342 209.907 34.228C210.903 31.8983 213.308 34.0235 213.308 34.0235Z" fill="#CCCCCC" stroke="black" stroke-width="0.5" stroke-linecap="round" stroke-linejoin="round"/>
<path fill-rule="evenodd" clip-rule="evenodd" d="M11.2703 249.046H7.71094L11.2484 227.105V227.1H11.2492L14.5168 206.834H18.0762L14.8086 227.1H43.0159L39.7489 206.834H43.3083L46.5752 227.1H131.231L134.498 206.834H138.059L134.791 227.1H162.894L159.626 206.834H163.186L169.991 249.046H166.432L163.425 230.395H134.26L131.253 249.046H127.693L130.7 230.395H47.1063L50.1128 249.046H46.5535L43.547 230.395H14.2773L11.2703 249.046Z" fill="#999999"/>
<path d="M7.71094 249.046L7.46412 249.006C7.45246 249.078 7.47311 249.152 7.52061 249.208C7.56811 249.264 7.63768 249.296 7.71094 249.296V249.046ZM11.2703 249.046V249.296C11.393 249.296 11.4976 249.207 11.5171 249.086L11.2703 249.046ZM11.2484 227.105L11.4952 227.145C11.4973 227.132 11.4984 227.119 11.4984 227.105H11.2484ZM11.2484 227.1V226.85C11.1103 226.85 10.9984 226.962 10.9984 227.1H11.2484ZM11.2492 227.1V227.35C11.3719 227.35 11.4765 227.261 11.496 227.14L11.2492 227.1ZM14.5168 206.834V206.584C14.3941 206.584 14.2896 206.673 14.27 206.794L14.5168 206.834ZM18.0762 206.834L18.323 206.873C18.3346 206.801 18.314 206.727 18.2665 206.672C18.219 206.616 18.1494 206.584 18.0762 206.584V206.834ZM14.8086 227.1L14.5617 227.061C14.5501 227.133 14.5707 227.207 14.6182 227.262C14.6657 227.318 14.7353 227.35 14.8086 227.35V227.1ZM43.0159 227.1V227.35C43.0892 227.35 43.1587 227.318 43.2062 227.262C43.2537 227.207 43.2744 227.133 43.2627 227.061L43.0159 227.1ZM39.7489 206.834V206.584C39.6757 206.584 39.6061 206.616 39.5586 206.672C39.5111 206.727 39.4904 206.801 39.5021 206.873L39.7489 206.834ZM43.3083 206.834L43.5551 206.794C43.5355 206.673 43.431 206.584 43.3083 206.584V206.834ZM46.5752 227.1L46.3284 227.14C46.3479 227.261 46.4525 227.35 46.5752 227.35V227.1ZM131.231 227.1V227.35C131.354 227.35 131.458 227.261 131.478 227.14L131.231 227.1ZM134.498 206.834V206.584C134.375 206.584 134.271 206.673 134.251 206.794L134.498 206.834ZM138.059 206.834L138.305 206.873C138.317 206.801 138.296 206.727 138.249 206.672C138.201 206.616 138.132 206.584 138.059 206.584V206.834ZM134.791 227.1L134.544 227.061C134.533 227.133 134.553 227.207 134.601 227.262C134.648 227.318 134.718 227.35 134.791 227.35V227.1ZM162.894 227.1V227.35C162.967 227.35 163.037 227.318 163.084 227.262C163.132 227.207 163.152 227.133 163.141 227.061L162.894 227.1ZM159.626 206.834V206.584C159.553 206.584 159.483 206.616 159.436 206.672C159.388 206.727 159.368 206.801 159.379 206.873L159.626 206.834ZM163.186 206.834L163.432 206.794C163.413 206.673 163.308 206.584 163.186 206.584V206.834ZM169.991 249.046V249.296C170.065 249.296 170.134 249.264 170.182 249.208C170.229 249.152 170.25 249.078 170.238 249.006L169.991 249.046ZM166.432 249.046L166.185 249.086C166.205 249.207 166.309 249.296 166.432 249.296V249.046ZM163.425 230.395L163.672 230.355C163.652 230.234 163.548 230.145 163.425 230.145V230.395ZM134.26 230.395V230.145C134.137 230.145 134.033 230.234 134.013 230.355L134.26 230.395ZM131.253 249.046V249.296C131.375 249.296 131.48 249.207 131.5 249.086L131.253 249.046ZM127.693 249.046L127.447 249.006C127.435 249.078 127.456 249.152 127.503 249.208C127.551 249.264 127.62 249.296 127.693 249.296V249.046ZM130.7 230.395L130.947 230.435C130.958 230.362 130.938 230.289 130.89 230.233C130.843 230.177 130.773 230.145 130.7 230.145V230.395ZM47.1063 230.395V230.145C47.0331 230.145 46.9635 230.177 46.916 230.233C46.8685 230.289 46.8479 230.362 46.8595 230.435L47.1063 230.395ZM50.1128 249.046V249.296C50.1861 249.296 50.2556 249.264 50.3031 249.208C50.3506 249.152 50.3713 249.078 50.3596 249.006L50.1128 249.046ZM46.5535 249.046L46.3067 249.086C46.3262 249.207 46.4308 249.296 46.5535 249.296V249.046ZM43.547 230.395L43.7938 230.355C43.7743 230.234 43.6697 230.145 43.547 230.145V230.395ZM14.2773 230.395V230.145C14.1546 230.145 14.0501 230.234 14.0305 230.355L14.2773 230.395ZM7.71094 249.296H11.2703V248.796H7.71094V249.296ZM11.0016 227.066L7.46412 249.006L7.95775 249.086L11.4952 227.145L11.0016 227.066ZM10.9984 227.1V227.105H11.4984V227.1H10.9984ZM11.2492 226.85H11.2484V227.35H11.2492V226.85ZM14.27 206.794L11.0024 227.061L11.496 227.14L14.7637 206.873L14.27 206.794ZM18.0762 206.584H14.5168V207.084H18.0762V206.584ZM15.0554 227.14L18.323 206.873L17.8294 206.794L14.5617 227.061L15.0554 227.14ZM43.0159 226.85H14.8086V227.35H43.0159V226.85ZM39.5021 206.873L42.7691 227.14L43.2627 227.061L39.9957 206.794L39.5021 206.873ZM43.3083 206.584H39.7489V207.084H43.3083V206.584ZM46.822 227.061L43.5551 206.794L43.0614 206.873L46.3284 227.14L46.822 227.061ZM131.231 226.85H46.5752V227.35H131.231V226.85ZM134.251 206.794L130.984 227.061L131.478 227.14L134.745 206.873L134.251 206.794ZM138.059 206.584H134.498V207.084H138.059V206.584ZM135.038 227.14L138.305 206.873L137.812 206.794L134.544 227.061L135.038 227.14ZM162.894 226.85H134.791V227.35H162.894V226.85ZM159.379 206.873L162.647 227.14L163.141 227.061L159.873 206.794L159.379 206.873ZM163.186 206.584H159.626V207.084H163.186V206.584ZM170.238 249.006L163.432 206.794L162.939 206.873L169.745 249.086L170.238 249.006ZM166.432 249.296H169.991V248.796H166.432V249.296ZM163.178 230.435L166.185 249.086L166.679 249.006L163.672 230.355L163.178 230.435ZM134.26 230.645H163.425V230.145H134.26V230.645ZM131.5 249.086L134.507 230.435L134.013 230.355L131.006 249.006L131.5 249.086ZM127.693 249.296H131.253V248.796H127.693V249.296ZM130.453 230.355L127.447 249.006L127.94 249.086L130.947 230.435L130.453 230.355ZM47.1063 230.645H130.7V230.145H47.1063V230.645ZM50.3596 249.006L47.3531 230.355L46.8595 230.435L49.866 249.086L50.3596 249.006ZM46.5535 249.296H50.1128V248.796H46.5535V249.296ZM43.3002 230.435L46.3067 249.086L46.8003 249.006L43.7938 230.355L43.3002 230.435ZM14.2773 230.645H43.547V230.145H14.2773V230.645ZM11.5171 249.086L14.5242 230.435L14.0305 230.355L11.0235 249.006L11.5171 249.086Z" fill="black"/>
<path d="M173.178 202.429H6.03516V207.071H173.178V202.429Z" fill="#E5E5E5" stroke="black" stroke-width="0.5" stroke-linecap="round" stroke-linejoin="round"/>
<path d="M53.2577 202.429H49.6777L54.0885 175.5H57.6684L53.2577 202.429Z" fill="#999999" stroke="black" stroke-width="0.5" stroke-miterlimit="10" stroke-linecap="round" stroke-linejoin="round"/>
<path d="M158.65 202.429H155.07L159.383 175.732H162.963L158.65 202.429Z" fill="#999999" stroke="black" stroke-width="0.5" stroke-miterlimit="10" stroke-linecap="round" stroke-linejoin="round"/>
<path d="M173.894 194.006H39.4629L40.9291 187.36H175.359L173.894 194.006Z" fill="#E5E5E5" stroke="black" stroke-width="0.5" stroke-linecap="round" stroke-linejoin="round"/>
<path d="M175.989 182.07H41.5586L43.0248 175.426H177.455L175.989 182.07Z" fill="#E5E5E5" stroke="black" stroke-width="0.5" stroke-linecap="round" stroke-linejoin="round"/>
<path d="M98.5669 179.315C98.5669 179.315 98.2876 187.402 93.4605 185.026C91.3373 183.983 89.3694 183.729 88.0354 183.867C86.4743 184.027 86.0977 184.778 86.0977 185.471C86.0977 186.417 87.0051 187.011 87.8361 187.101C89.5154 187.279 92.0477 187.17 93.654 189.023C96.2408 192.008 98.881 193.06 101.759 192.891C105.902 192.649 109.972 186.967 109.972 186.967L98.5669 179.315Z" fill="#666666" stroke="black" stroke-width="0.5" stroke-miterlimit="10" stroke-linecap="round" stroke-linejoin="round"/>
<path d="M140.409 180.739C140.409 180.739 142.395 187.016 138.931 190.386C135.467 193.756 135.06 194.023 135.06 194.023L135.374 194.787C135.662 195.486 135.709 196.261 135.508 196.989C135.307 197.718 134.87 198.36 134.265 198.813L129.966 202.04C129.787 202.173 129.567 202.24 129.345 202.228C129.122 202.216 128.911 202.127 128.748 201.975C128.655 201.889 128.581 201.786 128.529 201.671C128.477 201.557 128.448 201.433 128.444 201.307C128.44 201.181 128.462 201.056 128.506 200.938C128.551 200.821 128.619 200.713 128.706 200.622L132.337 196.81C132.337 196.81 127.641 194.568 126.956 189.709C126.271 184.851 129.318 180.175 129.318 180.175L140.409 180.739Z" fill="#666666" stroke="black" stroke-width="0.5" stroke-linecap="round" stroke-linejoin="round"/>
<path d="M143.465 174.107L157.858 175.268C157.858 175.268 152.999 177.883 149.733 177.589C147.127 177.358 145.786 178.286 145.786 178.286L143.465 174.107Z" fill="#4C4C4C" stroke="black" stroke-width="0.5" stroke-linecap="round" stroke-linejoin="round"/>
<path d="M150.988 184.584C150.988 177.515 143.571 171.914 135.995 172.228C132.302 172.381 122.131 174.321 113.908 174.361C108.326 174.391 102.936 172.322 98.807 168.564L98.0525 167.877C93.798 164.13 90.51 162.073 85.5021 162.146C79.6621 162.23 66.6111 162.262 66.6111 162.262C64.9503 167.979 73.1951 171.058 76.563 171.828C81.1212 172.871 86.0595 174.592 86.8244 174.894C90.5886 176.387 93.8882 178.854 96.3847 182.042L110.368 198.04C110.368 198.04 108.691 199.217 107.535 199.946C107.082 200.232 106.715 200.652 106.789 201.182C106.811 201.342 106.866 201.496 106.951 201.634C107.037 201.771 107.15 201.889 107.284 201.98C107.419 202.07 107.57 202.131 107.73 202.159C107.889 202.187 108.053 202.181 108.21 202.142C108.21 202.142 112.878 200.312 114.346 199.624C116.162 198.775 115.498 196.767 114.881 195.84L114.244 194.517C114.244 194.517 121.198 186.323 129.658 185.627C138.119 184.932 139.24 185.512 139.24 185.512C139.24 185.512 134.256 187.598 136.226 192.775C137.466 196.034 138.93 197.101 138.93 197.101L135.015 200.088C134.775 200.22 134.591 200.436 134.5 200.694C134.408 200.953 134.415 201.236 134.519 201.49C134.575 201.627 134.658 201.751 134.763 201.855C134.868 201.96 134.993 202.042 135.13 202.098C135.267 202.154 135.413 202.182 135.561 202.18C135.709 202.179 135.855 202.148 135.991 202.089C135.991 202.089 139.547 200.514 140.694 199.898C143.282 198.507 143.862 196.692 142.973 195.301C142.973 195.298 150.983 192.72 150.988 184.584Z" fill="#808080" stroke="black" stroke-width="0.5" stroke-miterlimit="10" stroke-linecap="round" stroke-linejoin="round"/>
<path d="M75.3667 170.497C75.3667 170.497 74.581 172.534 76.134 173.804C77.687 175.074 78.5342 174.162 79.0372 175.387C79.5402 176.612 80.6342 178.632 83.1005 177.728C85.5668 176.824 84.475 174.344 83.7959 173.777C82.6508 172.829 81.0642 173.302 80.5855 172.229C80.1069 171.156 80.1301 170.352 80.1301 170.352C79.3119 170.717 78.4225 170.894 77.5271 170.87C76.7923 170.855 76.0641 170.729 75.3667 170.497Z" fill="#B3B3B3" stroke="black" stroke-width="0.5" stroke-linecap="round" stroke-linejoin="round"/>
<path d="M78.0633 170.859C78.0633 170.859 77.5592 173.09 80.4311 173.693C82.6192 174.156 82.8533 175.607 82.8533 175.607" stroke="black" stroke-width="0.5" stroke-linecap="round" stroke-linejoin="round"/>
<path d="M83.8732 166.698C84.5452 166.698 85.0901 166.153 85.0901 165.481C85.0901 164.809 84.5452 164.264 83.8732 164.264C83.2011 164.264 82.6562 164.809 82.6562 165.481C82.6562 166.153 83.2011 166.698 83.8732 166.698Z" fill="black" stroke="black" stroke-width="0.5" stroke-linecap="round" stroke-linejoin="round"/>
<path d="M107.238 173.374C107.238 173.374 100.569 180.357 109.26 181.371C115.827 182.137 118.969 179.45 121.055 178.944C123.142 178.437 130.127 185.906 137.797 181.184C140.604 179.456 139.856 174.437 135.459 174.384C137.694 173.303 136.966 172.218 136.966 172.218C136.966 172.218 136.282 172.025 131.967 172.64C126.404 173.432 119.639 174.209 116.182 174.308C109.853 174.489 107.238 173.374 107.238 173.374Z" fill="#4C4C4C" stroke="black" stroke-width="0.5" stroke-linecap="round" stroke-linejoin="round"/>
<path d="M66.6105 162.256H69.6238C69.6238 162.256 70.0109 163.955 69.0061 164.728C68.0012 165.501 66.7275 165.481 66.7275 165.481C66.7275 165.481 66.3926 164.632 66.3926 163.868C66.3955 163.324 66.4687 162.782 66.6105 162.256Z" fill="black" stroke="black" stroke-width="0.5" stroke-linecap="round" stroke-linejoin="round"/>
<path d="M102.699 171.508C103.057 171.098 103.014 170.475 102.604 170.118C102.194 169.76 101.572 169.803 101.214 170.213L93.3424 179.243C92.9849 179.653 93.0276 180.275 93.4377 180.633C93.8478 180.99 94.4701 180.947 94.8276 180.537L102.699 171.508Z" fill="#E5E5E5" stroke="black" stroke-width="0.5" stroke-linecap="round" stroke-linejoin="round"/>
<path d="M91.8529 161.561H124.092C124.326 161.561 124.556 161.617 124.764 161.724C124.971 161.832 125.15 161.987 125.285 162.178C126.458 163.825 128.704 168.321 120.079 170.291C109.417 172.725 92.4961 168.359 89.9151 164.683C88.4814 162.642 90.9095 161.561 91.8529 161.561Z" fill="#4C4C4C" stroke="black" stroke-width="0.5" stroke-linecap="round" stroke-linejoin="round"/>
<path d="M82.8536 168.962C82.8536 168.962 79.9562 170.816 78.0636 170.859C76.1711 170.902 75.3633 170.497 75.3633 170.497" stroke="black" stroke-width="0.5" stroke-linecap="round" stroke-linejoin="round"/>
<path d="M22.472 62.4C22.5648 62.4465 22.6577 62.4465 22.7505 62.4465C25.722 61.9358 28.6934 61.8429 31.6648 62.1215C35.9827 62.5393 37.747 64.6286 38.0255 65C37.7934 65.3715 36.3541 67.4143 32.6863 69.3643C29.3434 71.175 24.5613 72.0572 22.6577 72.3822C22.5648 72.3822 22.472 72.4286 22.4255 72.475C22.3791 72.5215 22.3327 72.6143 22.2863 72.7072V72.9393C22.3327 73.0322 22.3791 73.0786 22.4255 73.125C24.097 74.2857 30.1791 78 37.7005 77.3965C45.4077 76.8393 47.497 78.6965 47.8684 79.2072L42.7613 81.0643C42.6684 81.1108 42.622 81.1572 42.5755 81.25C42.5291 81.3429 42.5291 81.4357 42.5291 81.4822C42.5291 81.575 42.5756 81.6679 42.622 81.7143C42.6684 81.7607 42.7613 81.8072 42.8541 81.8536C45.3148 82.225 51.7684 83.6179 58.3613 87.8429C64.6291 91.8358 71.1291 92.95 76.3755 92.95C78.0005 92.95 79.5327 92.8572 80.8791 92.6715C83.7113 92.3465 86.4041 91.6965 88.6791 90.9072C88.9113 91 89.1434 91.0465 89.3291 91.0465C89.4684 91.0465 89.5613 91.0465 89.7005 91C90.1184 90.8607 90.3041 90.5357 90.397 90.2572C90.4434 90.234 90.4782 90.2224 90.513 90.2107C90.5479 90.1991 90.5827 90.1875 90.6291 90.1643C91.0934 90.3965 91.8827 90.7215 92.3934 90.3965C92.7184 90.2108 92.8113 89.9322 92.8113 89.6536C93.0434 89.8393 93.4148 90.025 93.7863 90.025C94.1113 90.025 94.3898 89.8857 94.6684 89.6536C94.8541 89.4679 94.9006 89.2357 94.8541 88.9572C94.8509 88.9442 94.8476 88.9309 94.8443 88.9174L94.8313 88.8634C94.7914 88.6973 94.7462 88.5091 94.6684 88.3536H135.433C136.686 89.375 137.986 90.2572 139.426 90.7679C140.354 91.0929 141.283 91.2786 142.211 91.2786C142.861 91.2786 143.465 91.1857 144.022 91C145.461 90.5822 146.297 89.4679 146.901 88.3072C147.69 88.2607 148.479 88.0286 149.083 87.5179C149.733 87.0072 150.243 86.3108 150.429 85.475L151.543 81.4357L162.129 42.7607V42.7143L163.476 37.7929C163.615 37.2358 163.661 36.6322 163.522 36.075C163.429 35.5179 163.151 34.9608 162.826 34.4965C162.501 34.0322 161.99 33.6608 161.479 33.3822C160.968 33.1036 160.365 32.9643 159.808 32.9643H117.929C118.115 31.1072 118.022 29.3893 117.001 27.4393C115.515 24.5608 112.265 22.6108 108.922 22.6108C108.643 22.6108 108.458 22.6108 108.226 22.6572H107.715L107.251 22.5643L106.508 22.425C105.858 22.1929 105.161 22.1 104.465 22.1C101.911 22.2393 99.4041 23.4929 97.6398 25.6286C95.8755 27.7643 95.0398 30.4108 95.3648 32.9643H82.1327C81.297 32.9643 80.4613 33.2429 79.8113 33.7536C79.1613 34.2643 78.6506 34.9607 78.4648 35.7965L77.4434 39.6036C76.2363 39.8822 74.9827 40.2072 73.7291 40.5786C66.2077 43.0393 60.6363 44.525 51.8613 42.9C43.597 41.3679 35.0077 47.8679 32.5934 49.8643C32.5005 49.9108 32.4541 50.0036 32.4077 50.0965C32.3767 50.1584 32.3871 50.2203 32.3974 50.2822C32.4025 50.3131 32.4077 50.3441 32.4077 50.375C32.4541 50.4679 32.5005 50.5608 32.5934 50.5608C32.6863 50.6072 32.7791 50.6072 32.872 50.6072C34.3577 50.3286 37.097 50.0036 39.1863 50.5608C41.5077 51.2108 43.1327 52.8357 43.6898 53.4393C42.297 53.2536 36.5398 52.6036 30.5041 55.0179C25.397 57.0608 22.9363 60.2643 22.1005 61.5643C22.0541 61.6572 22.0077 61.75 22.0077 61.8429C22.0077 61.9358 22.0541 62.0286 22.1005 62.1215C22.2863 62.3072 22.3791 62.3536 22.472 62.4Z" fill="url(#paint0_linear_1439_90295)" style="mix-blend-mode:overlay"/>
<path d="M6.50068 68.1571C6.52927 68.1743 6.56894 68.199 6.61917 68.2303C7.38462 68.7072 10.6001 70.7107 14.3471 70.7107C15.09 70.7107 15.8328 70.6178 16.5757 70.4321C20.6884 69.4364 22.0966 67.6737 22.3433 67.3648C22.3611 67.3425 22.373 67.3276 22.3793 67.3214C22.4257 67.275 22.4257 67.2285 22.3793 67.1821C22.3777 67.1805 22.3728 67.1743 22.3644 67.1638L22.3641 67.1634C22.119 66.8541 19.0438 62.9732 13.9757 66.0678C10.865 67.925 8.12568 67.8321 6.77926 67.6C6.6864 67.6 6.63997 67.6 6.59354 67.6464L6.45425 67.7857C6.40783 67.8321 6.40783 67.925 6.45425 67.9714C6.40783 68.0642 6.45426 68.1107 6.50068 68.1571Z" fill="url(#paint1_linear_1439_90295)" style="mix-blend-mode:overlay"/>
<path d="M171.833 27.1143H128.143C128.097 27.1143 128.051 27.0678 128.051 27.0214C128.051 26.975 128.097 26.9286 128.143 26.9286H171.833C171.879 26.9286 171.926 26.975 171.926 27.0214C171.926 27.0678 171.879 27.1143 171.833 27.1143Z" fill="url(#paint2_linear_1439_90295)" style="mix-blend-mode:overlay"/>
<path d="M150.522 24.7H180.051C180.097 24.7 180.143 24.6536 180.143 24.6072C180.143 24.5607 180.097 24.5143 180.051 24.5143H150.522C150.476 24.5143 150.429 24.5607 150.429 24.6072C150.429 24.6536 150.476 24.7 150.522 24.7Z" fill="url(#paint3_linear_1439_90295)" style="mix-blend-mode:overlay"/>
<path d="M168.815 152.007H125.126C125.079 152.007 125.033 151.961 125.033 151.914C125.033 151.868 125.079 151.821 125.126 151.821H168.815C168.861 151.821 168.908 151.868 168.908 151.914C168.908 151.961 168.861 152.007 168.815 152.007Z" fill="url(#paint4_linear_1439_90295)" style="mix-blend-mode:overlay"/>
<path d="M145.229 149.5C145.229 149.454 145.183 149.407 145.136 149.407H115.608C115.561 149.407 115.515 149.454 115.515 149.5C115.515 149.546 115.561 149.593 115.608 149.593H145.136C145.183 149.639 145.229 149.546 145.229 149.5Z" fill="url(#paint5_linear_1439_90295)" style="mix-blend-mode:overlay"/>
<path d="M44.572 90.7214H14.4398C14.3934 90.7214 14.347 90.675 14.347 90.6286C14.347 90.5821 14.3934 90.5357 14.4398 90.5357H44.572C44.6184 90.5357 44.6648 90.5821 44.6648 90.6286C44.6648 90.675 44.6184 90.7214 44.572 90.7214Z" fill="url(#paint6_linear_1439_90295)" style="mix-blend-mode:overlay"/>
<path d="M28.3684 88.2143C28.3684 88.1679 28.3219 88.1214 28.2755 88.1214H7.89336C7.84693 88.1214 7.8005 88.1679 7.8005 88.2143C7.8005 88.2607 7.84693 88.3072 7.89336 88.3072H28.2291C28.2755 88.3072 28.3684 88.2607 28.3684 88.2143Z" fill="url(#paint7_linear_1439_90295)" style="mix-blend-mode:overlay"/>
<path fill-rule="evenodd" clip-rule="evenodd" d="M253.222 159.621C253.315 159.621 253.64 159.668 253.64 159.9C253.64 160.086 253.64 160.457 249.554 161.757C247.233 162.5 244.818 162.964 242.404 163.196C242.404 163.196 242.358 163.243 242.311 163.243H241.986C241.615 163.289 241.243 163.336 240.872 163.336C238.318 163.475 235.718 163.8 233.211 164.357C231.325 164.771 229.622 165.367 227.784 166.011L227.733 166.029C226.293 166.539 224.854 167.004 223.368 167.421L224.436 177.821L236.09 211.946L238.411 218.4L242.683 222.532C242.915 222.764 243.101 222.996 243.286 223.275C243.936 223.879 244.308 224.854 244.586 225.689L247.465 235.207C247.511 235.3 247.836 236.646 245.84 237.668C243.936 238.689 239.897 240.036 239.851 240.036C239.804 240.036 239.711 239.989 239.711 239.943L237.668 233.768L233.026 238.271L234.233 241.939C234.233 241.986 234.233 242.032 234.186 242.079C234.14 242.125 232.886 243.146 228.661 244.539C225.272 245.654 223.322 245.793 222.626 245.793H222.347C222.301 245.793 222.254 245.793 222.254 245.746L220.443 241.661V241.568H220.49L220.443 241.521C220.397 241.521 220.397 241.475 220.397 241.475C220.118 240.871 220.026 239.432 220.583 238.921L225.272 234.511L229.822 221.65L227.733 215.707L212.458 180.236L208.047 167.05C206.283 166.539 204.426 165.889 202.383 165.007L199.04 179.493L198.947 220.304H199.272C199.318 220.304 199.365 220.35 199.365 220.396L199.551 227.825L202.336 233.071C202.499 233.316 202.591 233.596 202.673 233.849L202.69 233.898C202.696 233.917 202.702 233.935 202.708 233.954C203.126 234.743 203.172 235.811 203.172 236.646L202.94 246.582C202.94 246.629 202.801 248.021 200.618 248.393C198.483 248.764 194.211 248.764 194.165 248.764C194.118 248.764 194.072 248.718 194.072 248.671V242.171L188.268 245.004V248.904C188.268 248.95 188.222 248.996 188.176 248.996C188.083 249.043 186.551 249.646 182.14 249.646C177.729 249.646 175.872 248.904 175.779 248.857C175.733 248.857 175.686 248.811 175.686 248.764L175.222 244.307C175.222 244.284 175.234 244.272 175.245 244.261C175.257 244.249 175.268 244.237 175.268 244.214H175.315L175.268 244.168V244.121C175.222 243.471 175.547 242.079 176.243 241.754L182.093 239.014L190.404 228.196L190.311 222.625L186.783 177.961L186.829 165.518L186.783 115.05C186.458 115.004 186.133 114.818 185.901 114.586C185.576 114.261 185.39 113.843 185.343 113.379L183.997 96.7107L179.168 104.139C178.565 105.254 177.776 106.182 176.801 106.832C175.826 107.482 174.711 107.807 173.643 107.807C173.318 107.807 172.993 107.761 172.668 107.714C171.229 107.436 169.929 106.507 169.093 105.161C168.026 103.443 167.701 101.261 168.258 99.1714L175.733 70.4786C175.733 70.4321 175.826 70.3857 175.872 70.3857L177.079 70.6179L177.404 69.225C177.543 68.575 177.59 67.8786 177.451 67.2286L176.336 61.4714C176.336 61.417 176.32 61.3786 176.307 61.3467C176.298 61.3242 176.29 61.3049 176.29 61.2857C176.243 61.1928 176.243 61.1 176.243 61.0071V60.9143C176.243 60.7286 176.29 60.5893 176.383 60.45C176.522 60.1714 176.754 60.0321 177.033 59.9393H177.079C176.94 59.8 176.847 59.6607 176.801 59.475C176.754 59.1964 176.801 58.8714 176.94 58.6393C177.079 58.3607 177.311 58.2214 177.59 58.1286L178.101 57.9893C178.008 57.8964 177.961 57.7571 177.915 57.6178C177.776 57.0143 178.101 56.4107 178.704 56.2714L181.258 55.6214L184.415 48.9357C184.693 48.3786 185.343 48.1464 185.901 48.425L186.365 48.6571C186.597 47.1714 186.922 45.7786 187.247 44.6643C188.176 41.4607 189.801 40.2536 191.101 39.8357C191.89 38.1643 194.351 34.4964 200.34 35.425C204.691 36.1106 206.076 38.1589 207.388 40.0986C208.387 41.5743 209.343 42.9872 211.529 43.6893C213.383 44.2845 214.788 44.4561 215.957 44.5989C217.979 44.8459 219.294 45.0065 221.001 47.125C222.209 48.6038 222.155 50.0734 222.111 51.303C222.056 52.8142 222.014 53.963 224.343 54.3214C228.568 54.9714 231.586 55.7607 234.14 57.8964C234.664 58.3347 235.194 58.822 235.748 59.3312C237.893 61.3031 240.396 63.6049 244.308 64.675C246.861 65.3714 249.972 64.3964 251.876 63.6071C251.889 63.6071 251.901 63.6067 251.913 63.606C251.949 63.604 251.981 63.5996 252.011 63.5955C252.082 63.5857 252.141 63.5775 252.201 63.6071C252.293 63.6536 252.386 63.7 252.433 63.7928C252.479 63.8857 252.526 63.9786 252.526 64.0714C252.526 64.1643 252.479 64.2571 252.433 64.35C250.668 66.3464 247.047 69.6893 241.986 70.9428C236.276 72.3357 234.047 70.7571 233.443 70.1071H233.351V70.1536C233.815 71.0821 235.718 72.6143 238.829 73.4036C241.023 73.952 242.677 73.5106 244.057 73.1424L244.122 73.125C244.401 73.0786 244.493 73.3571 244.354 73.5893C243.24 75.5857 239.758 78.4643 235.393 76.7464C232.119 75.4731 230.226 76.2488 228.23 77.0665L228.104 77.1179C229.121 77.9581 230.096 78.8404 231.029 79.6847L231.168 79.8107C238.736 86.6821 244.354 93.6464 244.54 93.8786C246.676 95.9678 247.697 98.4286 247.465 101.121C247.186 104.789 244.726 108.132 242.543 109.664L237.204 113.425L224.483 122.339H224.39C224.343 122.339 224.297 122.339 224.297 122.293L223.554 121.039L222.486 121.829C222.417 121.875 222.359 121.921 222.301 121.968C222.243 122.014 222.184 122.061 222.115 122.107L222.097 122.12C221.449 122.583 220.62 123.175 219.654 123.175C219.608 123.175 219.55 123.163 219.492 123.152C219.434 123.14 219.376 123.129 219.329 123.129C222.254 127.121 225.458 131.625 227.64 135.154C233.861 145.182 243.333 157.579 253.222 159.621ZM183.997 71.8714L184.276 71.9178C185.529 70.1536 187.433 68.8536 189.522 68.2964C189.68 68.26 189.86 68.2173 190.059 68.1698L190.06 68.1696L190.061 68.1694L190.063 68.169C190.627 68.0351 191.347 67.864 192.168 67.6928C192.122 67.6696 192.087 67.6464 192.052 67.6232C192.041 67.6158 192.03 67.6084 192.019 67.601C192.012 67.5967 192.005 67.5924 191.998 67.588C191.979 67.5765 191.959 67.565 191.936 67.5536C190.079 66.3464 188.733 64.7678 187.804 62.9571L187.572 64.8607C187.479 65.4178 187.293 65.9286 186.922 66.3464L184.601 69.5964L183.997 71.8714ZM219.654 114.168L221.418 112.404L232.515 101.121L222.626 93.1357L216.961 112.868C217.333 113.286 217.658 113.704 217.797 113.936C218.215 114.493 219.143 115.746 219.143 115.746C219.143 115.746 219.143 115.793 219.19 115.793C219.216 115.819 219.228 115.831 219.242 115.836C219.247 115.838 219.253 115.839 219.26 115.839C219.266 115.839 219.274 115.839 219.283 115.839H219.376C219.422 115.839 219.468 115.793 219.468 115.793L220.165 115.236L219.654 114.307C219.608 114.261 219.608 114.214 219.654 114.168Z" fill="url(#paint8_linear_1439_90295)" style="mix-blend-mode:overlay"/>
<path d="M214.686 40.3H214.779C214.791 40.3 214.799 40.2971 214.806 40.2929C214.814 40.2885 214.82 40.2826 214.826 40.2768C214.837 40.2651 214.849 40.2535 214.872 40.2535C215.011 40.0214 218.354 34.2178 217.379 31.7107C217.193 31.2 216.775 30.8285 216.218 30.6893C215.661 30.5035 215.15 30.5964 214.686 30.875C213.665 31.525 213.34 33.1964 213.247 33.8C212.875 33.5214 211.9 32.8714 211.018 33.0571C210.508 33.15 210.09 33.5678 209.858 34.1714C208.993 36.1167 213.723 39.5915 214.567 40.2111C214.629 40.257 214.67 40.2872 214.686 40.3Z" fill="url(#paint9_linear_1439_90295)" style="mix-blend-mode:overlay"/>
<path fill-rule="evenodd" clip-rule="evenodd" d="M175.361 187.246C175.408 187.246 175.454 187.246 175.454 187.293C175.454 187.293 175.501 187.339 175.501 187.479L174.015 194.118C174.015 194.164 173.968 194.211 173.922 194.211H160.133L158.786 202.382H173.179C173.226 202.382 173.272 202.429 173.272 202.475V207.118C173.272 207.164 173.226 207.211 173.179 207.211H163.429L170.161 249.043C170.161 249.066 170.15 249.078 170.138 249.089C170.126 249.101 170.115 249.113 170.115 249.136C170.068 249.182 170.068 249.182 170.022 249.182H166.447C166.401 249.182 166.354 249.136 166.354 249.089L163.383 230.518H134.411L131.44 249.089C131.44 249.136 131.393 249.182 131.347 249.182H127.772C127.726 249.182 127.679 249.182 127.679 249.136C127.652 249.109 127.641 249.098 127.636 249.084C127.633 249.074 127.633 249.063 127.633 249.043L130.604 230.518H47.2648L50.2362 249.043C50.2362 249.066 50.2246 249.078 50.213 249.089C50.2014 249.101 50.1898 249.113 50.1898 249.136C50.1434 249.182 50.1434 249.182 50.0969 249.182H46.5219C46.4755 249.182 46.4291 249.136 46.4291 249.089L43.4576 230.518H14.3934L11.4219 249.089C11.4219 249.136 11.3755 249.182 11.3291 249.182H7.75407C7.70765 249.182 7.66122 249.182 7.66122 249.136C7.61479 249.089 7.61479 249.089 7.61479 249.043L14.3469 207.164H6.03622C5.98979 207.164 5.94336 207.118 5.94336 207.071V202.429C5.94336 202.382 5.98979 202.336 6.03622 202.336H49.5862L50.9326 194.164H39.4648C39.4184 194.164 39.3719 194.164 39.3719 194.118V194.025L40.8576 187.386C40.8576 187.339 40.9041 187.293 40.9505 187.293H52.0469L52.8826 182.232H41.5541C41.5076 182.232 41.4612 182.232 41.4612 182.186V182.093L42.9469 175.454C42.9469 175.407 42.9934 175.361 43.0398 175.361H78.8826C78.6555 174.906 78.3839 174.852 77.9373 174.763L77.9076 174.757C77.8844 174.753 77.8608 174.748 77.8368 174.743C77.3824 174.654 76.8002 174.539 76.0505 173.921C75.1684 173.225 74.9826 172.25 75.0291 171.554C72.2434 170.718 68.4826 169 66.9505 166.354C66.9149 166.282 66.8793 166.214 66.8445 166.148C66.7431 165.953 66.6482 165.772 66.5791 165.564C66.5791 165.564 66.5326 165.518 66.5326 165.471C66.5094 165.355 66.4746 165.239 66.4398 165.123C66.405 165.007 66.3701 164.891 66.3469 164.775C66.3005 164.496 66.2541 164.171 66.2541 163.893V163.846C66.2541 163.429 66.3005 163.011 66.3934 162.546C66.3934 162.454 66.3934 162.361 66.4398 162.268C66.4398 162.221 66.4862 162.175 66.5326 162.175H68.5291C72.4291 162.175 81.0184 162.129 85.4291 162.082C86.9612 162.082 88.3076 162.221 89.6076 162.593C90.1648 161.85 91.1862 161.479 91.7898 161.479H124.011C124.29 161.479 124.522 161.571 124.754 161.664C124.986 161.804 125.172 161.989 125.311 162.175C125.961 163.057 126.983 164.868 126.286 166.632C125.636 168.35 123.547 169.65 120.065 170.439C117.929 170.904 115.515 171.136 113.008 171.136C109.618 171.136 105.997 170.718 102.701 170.068C103.072 170.439 103.165 170.996 102.933 171.414C104.883 172.529 106.972 173.318 109.201 173.782C110.593 174.014 112.868 174.293 116.072 174.2C117.15 174.157 118.228 174.074 119.343 173.988L119.601 173.968C121.272 173.829 123.176 173.643 125.126 173.411C126.113 173.298 127.083 173.168 128.026 173.042C128.635 172.96 129.232 172.88 129.815 172.807C130.511 172.714 131.161 172.621 131.765 172.529H131.904C135.927 171.966 136.806 172.089 136.945 172.108C136.955 172.11 136.962 172.111 136.965 172.111C139.472 172.204 141.933 172.854 144.115 174.061L157.858 175.175C157.904 175.175 157.951 175.221 157.951 175.268V175.314H177.451C177.497 175.314 177.543 175.314 177.543 175.361V175.454L176.058 182.093C176.058 182.139 176.011 182.186 175.965 182.186H162.036L161.201 187.246H175.361ZM43.4576 207.211L46.6612 226.989H131.115L134.318 207.211H43.4576ZM42.9005 226.989L39.6969 207.211H18.1541L14.9505 226.989H42.9005ZM138.126 207.211L134.922 226.989H162.779L159.576 207.211H138.126ZM97.5005 183.486L96.3398 182.186H56.7362L55.9005 187.246H88.1684C88.0291 187.2 87.9362 187.2 87.8434 187.2C86.9148 187.107 85.9862 186.457 85.9862 185.436C85.9862 184.739 86.3576 183.904 88.0291 183.718C88.7719 183.625 90.8612 183.579 93.5076 184.879C94.5755 185.436 95.5041 185.482 96.2469 185.018C96.7577 184.693 97.1755 184.136 97.5005 183.486ZM126.797 187.246C126.843 186.875 126.89 186.55 126.936 186.225C125.961 186.504 125.033 186.829 124.15 187.246H126.797ZM150.847 182.186C151.033 182.975 151.126 183.811 151.126 184.6C151.126 185.529 150.986 186.411 150.847 187.246H157.44L158.276 182.186H150.847ZM86.7755 174.989C86.5434 174.896 85.6148 174.571 84.2219 174.107C84.4541 174.432 84.6398 174.85 84.6862 175.314H87.4719C87.2398 175.175 87.0076 175.082 86.7755 174.989ZM130.001 202.15C129.908 202.243 129.768 202.289 129.629 202.336H135.526H154.933L156.279 194.164H145.601C144.44 194.861 143.511 195.279 143.093 195.418C143.418 196.021 143.511 196.625 143.326 197.275C143.047 198.296 142.118 199.271 140.679 200.061C139.565 200.664 136.036 202.243 135.99 202.243C135.851 202.289 135.711 202.336 135.526 202.336C135.386 202.336 135.201 202.289 135.061 202.243C134.876 202.15 134.783 202.104 134.643 201.964C134.504 201.825 134.411 201.686 134.365 201.546C134.272 201.268 134.272 200.943 134.365 200.664C134.458 200.386 134.643 200.154 134.922 200.014L138.683 197.136C138.671 197.125 138.659 197.112 138.646 197.099C138.333 196.788 137.487 195.947 136.64 194.164H135.201L135.479 194.768C135.758 195.464 135.804 196.3 135.618 197.043C135.386 197.832 134.922 198.482 134.318 198.946L130.001 202.15ZM101.076 170.207L101.122 170.114C101.261 169.975 101.401 169.882 101.586 169.836C101.331 169.766 101.076 169.708 100.82 169.65C100.565 169.592 100.309 169.534 100.054 169.464C100.217 169.58 100.391 169.708 100.565 169.836C100.739 169.963 100.913 170.091 101.076 170.207ZM106.786 194.118H54.7398L53.3934 202.289H129.118C128.933 202.289 128.793 202.196 128.654 202.057C128.561 201.964 128.468 201.871 128.422 201.732C128.376 201.593 128.329 201.454 128.329 201.314C128.329 201.175 128.376 201.036 128.422 200.896C128.468 200.757 128.561 200.618 128.654 200.525L132.183 196.811C132.164 196.8 132.145 196.788 132.123 196.775C131.599 196.462 130.135 195.588 128.886 194.071H114.772C114.586 194.257 114.447 194.396 114.401 194.489L115.004 195.743C115.422 196.393 115.84 197.461 115.561 198.389C115.422 198.946 115.004 199.411 114.401 199.689C112.961 200.339 108.318 202.196 108.272 202.196C108.086 202.289 107.901 202.289 107.715 202.243C107.529 202.243 107.343 202.15 107.204 202.057C107.065 201.964 106.926 201.825 106.833 201.686C106.74 201.5 106.693 201.361 106.647 201.175C106.554 200.664 106.833 200.2 107.436 199.829C108.411 199.225 109.804 198.296 110.176 198.018L106.786 194.118Z" fill="url(#paint10_linear_1439_90295)" style="mix-blend-mode:overlay"/>
</g>
<defs>
<linearGradient id="paint0_linear_1439_90295" x1="5.94336" y1="135.873" x2="253.64" y2="135.873" gradientUnits="userSpaceOnUse">
<stop stop-color="#5D6AE8"/>
<stop offset="1" stop-color="#00D2FE"/>
</linearGradient>
<linearGradient id="paint1_linear_1439_90295" x1="5.94336" y1="135.873" x2="253.64" y2="135.873" gradientUnits="userSpaceOnUse">
<stop stop-color="#5D6AE8"/>
<stop offset="1" stop-color="#00D2FE"/>
</linearGradient>
<linearGradient id="paint2_linear_1439_90295" x1="5.94336" y1="135.873" x2="253.64" y2="135.873" gradientUnits="userSpaceOnUse">
<stop stop-color="#5D6AE8"/>
<stop offset="1" stop-color="#00D2FE"/>
</linearGradient>
<linearGradient id="paint3_linear_1439_90295" x1="5.94336" y1="135.873" x2="253.64" y2="135.873" gradientUnits="userSpaceOnUse">
<stop stop-color="#5D6AE8"/>
<stop offset="1" stop-color="#00D2FE"/>
</linearGradient>
<linearGradient id="paint4_linear_1439_90295" x1="5.94336" y1="135.873" x2="253.64" y2="135.873" gradientUnits="userSpaceOnUse">
<stop stop-color="#5D6AE8"/>
<stop offset="1" stop-color="#00D2FE"/>
</linearGradient>
<linearGradient id="paint5_linear_1439_90295" x1="5.94336" y1="135.873" x2="253.64" y2="135.873" gradientUnits="userSpaceOnUse">
<stop stop-color="#5D6AE8"/>
<stop offset="1" stop-color="#00D2FE"/>
</linearGradient>
<linearGradient id="paint6_linear_1439_90295" x1="5.94336" y1="135.873" x2="253.64" y2="135.873" gradientUnits="userSpaceOnUse">
<stop stop-color="#5D6AE8"/>
<stop offset="1" stop-color="#00D2FE"/>
</linearGradient>
<linearGradient id="paint7_linear_1439_90295" x1="5.94336" y1="135.873" x2="253.64" y2="135.873" gradientUnits="userSpaceOnUse">
<stop stop-color="#5D6AE8"/>
<stop offset="1" stop-color="#00D2FE"/>
</linearGradient>
<linearGradient id="paint8_linear_1439_90295" x1="5.94336" y1="135.873" x2="253.64" y2="135.873" gradientUnits="userSpaceOnUse">
<stop stop-color="#5D6AE8"/>
<stop offset="1" stop-color="#00D2FE"/>
</linearGradient>
<linearGradient id="paint9_linear_1439_90295" x1="5.94336" y1="135.873" x2="253.64" y2="135.873" gradientUnits="userSpaceOnUse">
<stop stop-color="#5D6AE8"/>
<stop offset="1" stop-color="#00D2FE"/>
</linearGradient>
<linearGradient id="paint10_linear_1439_90295" x1="5.94336" y1="135.873" x2="253.64" y2="135.873" gradientUnits="userSpaceOnUse">
<stop stop-color="#5D6AE8"/>
<stop offset="1" stop-color="#00D2FE"/>
</linearGradient>
<clipPath id="clip0_1439_90295">
<rect width="260" height="260" fill="white"/>
</clipPath>
</defs>
</svg>
