<svg width="260" height="260" viewBox="0 0 260 260" fill="none" xmlns="http://www.w3.org/2000/svg">
<path d="M78.1995 21.9819H59.5488V65.8444H78.1995V21.9819Z" fill="#666666" stroke="#1E1E1C" stroke-width="0.0326318" stroke-linecap="round" stroke-linejoin="round"/>
<path d="M51.4102 23.155H86.341L67.8145 3.87695L51.4102 23.155Z" fill="#666666" stroke="#1E1E1C" stroke-width="0.0326318" stroke-linecap="round" stroke-linejoin="round"/>
<path d="M55.729 46.5109C55.2626 45.3295 49.0982 28.8983 49.0982 28.8983L43.7526 32.9807L37.3642 16.5273L32.427 19.218L28.1379 7.05475C28.1379 7.05475 32.4406 5.6024 31.9296 5.41931C31.4187 5.23621 24.194 2.28076 24.194 2.28076L21.2324 9.84814L24.8695 8.0939L30.0777 25.307L36.163 21.514L41.9168 38.8074L47.0149 35.064L52.3913 50.2445L55.729 46.5109Z" fill="#C7C6C6" stroke="#1E1E1C" stroke-width="0.12371" stroke-linecap="round" stroke-linejoin="round"/>
<path d="M22.1553 86.603C16.7677 86.7379 12.0284 82.9449 11.103 77.6353C10.623 74.8778 11.604 71.2023 14.9034 69.6758C23.0212 65.9261 24.9066 67.2189 24.9066 67.2189C24.9066 67.2189 12.6816 55.7868 21.1099 48.5609C29.5383 41.335 43.0339 45.3036 43.0339 45.3036C43.0339 45.3036 43.9134 37.5841 49.1872 36.702C54.461 35.82 63.0625 42.8529 63.0625 42.8529C63.0625 42.8529 86.6603 30.0922 97.026 44.1952C107.392 58.2981 98.1282 65.4869 98.1282 65.4869C98.1282 65.4869 114.211 64.0321 114.449 73.5281C114.604 79.606 111.532 82.2732 107.385 83.5659C105.242 84.2262 103.017 84.5859 100.774 84.6348L22.1553 86.603Z" fill="white"/>
<path d="M72.5309 61.4416L66.771 73.1743L41.4277 50.0986L35.1691 59.0491L16.917 41.3474L21.9124 35.7705C20.8633 35.8942 6.20117 36.7181 6.20117 36.7181L7.97519 51.958L12.4065 46.2438L36.3593 71.6725L41.8099 62.8123L69.0497 87.4542L74.2554 73.9834L72.5309 61.4416Z" fill="#C2C2C2" stroke="#1E1E1C" stroke-width="0.0383502" stroke-linecap="round" stroke-linejoin="round"/>
<path d="M70.5825 91.083C83.2346 91.083 93.4912 80.8264 93.4912 68.1743C93.4912 55.5222 83.2346 45.2656 70.5825 45.2656C57.9304 45.2656 47.6738 55.5222 47.6738 68.1743C47.6738 80.8264 57.9304 91.083 70.5825 91.083Z" fill="#C8C8C8" stroke="#010101" stroke-width="0.122473" stroke-miterlimit="10"/>
<path d="M70.583 87.454C81.2312 87.454 89.8632 78.822 89.8632 68.1738C89.8632 57.5256 81.2312 48.8936 70.583 48.8936C59.9348 48.8936 51.3027 57.5256 51.3027 68.1738C51.3027 78.822 59.9348 87.454 70.583 87.454Z" fill="#5B5B5B" stroke="#1E1E1C" stroke-width="0.0717519" stroke-linecap="round" stroke-linejoin="round"/>
<path d="M62.7223 70.5037C64.0887 70.5037 65.1965 69.4607 65.1965 68.1742C65.1965 66.8877 64.0887 65.8447 62.7223 65.8447C61.3558 65.8447 60.248 66.8877 60.248 68.1742C60.248 69.4607 61.3558 70.5037 62.7223 70.5037Z" fill="#1E1E1C"/>
<path d="M78.441 70.5037C79.8075 70.5037 80.9152 69.4607 80.9152 68.1742C80.9152 66.8877 79.8075 65.8447 78.441 65.8447C77.0745 65.8447 75.9668 66.8877 75.9668 68.1742C75.9668 69.4607 77.0745 70.5037 78.441 70.5037Z" fill="#1E1E1C"/>
<path d="M146.021 102.718C146.021 102.718 146.771 96.6473 153.954 96.5879C161.136 96.5285 160.543 101.727 165.408 102.448C170.274 103.169 171.587 101.536 174.556 104.18C177.483 106.778 174.717 110.321 178.681 110.262C182.645 110.202 185.522 110.49 188.165 112.052C190.807 113.613 193.79 116.203 198.475 116.713C200.893 116.975 203.581 115.629 205.211 114.62C205.293 114.569 205.391 114.548 205.487 114.56C205.583 114.571 205.673 114.615 205.741 114.684C205.81 114.753 205.853 114.843 205.863 114.939C205.874 115.035 205.852 115.133 205.801 115.215C204.472 117.318 201.679 120.912 197.238 122.819C192.225 124.971 189.956 123.847 189.29 123.361C189.283 123.356 189.274 123.353 189.264 123.354C189.255 123.355 189.247 123.359 189.24 123.365C189.233 123.372 189.229 123.38 189.228 123.39C189.227 123.399 189.23 123.408 189.235 123.416C189.793 124.196 191.75 125.334 194.71 125.568C196.8 125.733 198.257 125.065 199.494 124.523C199.733 124.419 199.865 124.663 199.775 124.908C199.054 126.887 196.311 130.022 192.071 129.114C187.884 128.218 186.405 130.237 183.907 131.395C180.413 133.014 176.869 132.377 170.263 126.416C163.656 120.454 159.5 128.766 156.193 123.724C152.886 118.681 146.021 102.718 146.021 102.718Z" fill="#1E1E1C"/>
<path d="M158.295 119.182C158.295 119.182 174.594 137.142 192.243 144.895C209.893 152.648 232.985 151.493 232.985 151.493C232.985 151.493 226.552 156.771 217.645 157.266C208.738 157.761 203.625 160.73 205.438 168.483C207.252 176.236 217.963 189.941 203.294 192.895C188.626 195.849 166.315 185.391 158.923 177.225C151.532 169.058 158.295 119.182 158.295 119.182Z" fill="#52529F" stroke="#1E1E1C" stroke-width="0.048247" stroke-linecap="round" stroke-linejoin="round"/>
<path d="M122.036 113.64L106.209 99.6162L109.485 94.2954L121.777 106.994L122.036 113.64Z" fill="#F08178" stroke="#1E1E1C" stroke-width="0.112576" stroke-linecap="round" stroke-linejoin="round"/>
<path d="M149.016 100.731C149.016 100.731 145.13 99.8315 143.591 105.334C142.052 110.837 140.662 121.935 147.898 126.543C153.938 130.39 155.929 125.734 155.929 125.734L149.016 100.731Z" fill="#1E1E1C"/>
<path d="M150.702 133.134C149.644 132.824 129.02 122.875 129.02 122.875L116.867 111.765L119.935 104.443L132.168 114.474L150.33 121.232L150.702 133.134Z" fill="#BCADD5" stroke="#1E1E1C" stroke-width="0.12371" stroke-linecap="round" stroke-linejoin="round"/>
<path d="M155.474 112.978L156.63 120.876C156.708 121.415 156.672 121.965 156.523 122.489C156.374 123.014 156.116 123.501 155.765 123.918C155.415 124.336 154.98 124.674 154.489 124.912C153.999 125.149 153.463 125.28 152.918 125.296C151.965 125.323 151.036 124.998 150.309 124.381C149.582 123.764 149.109 122.9 148.981 121.956L147.816 113.337L155.474 112.978Z" fill="#F08378" stroke="#1E1E1C" stroke-width="0.101442" stroke-miterlimit="10"/>
<path d="M155.548 106.087C154.583 104.621 152.54 103.86 152.54 103.86L149.958 100.676C149.384 100.618 147.193 101.316 146.765 103.195C146.17 105.801 145.433 109.18 145.311 110.41C145.104 112.521 146.341 115.414 149.394 115.529C152.447 115.644 154.35 115.034 155.793 113.619C157.049 112.382 157.246 111.279 157.402 110.441C157.408 110.446 156.711 107.854 155.548 106.087Z" fill="#F08378" stroke="#1E1E1C" stroke-width="0.101442" stroke-miterlimit="10"/>
<path d="M152.259 107.456L150.408 106.3" stroke="#1E1E1C" stroke-width="0.207833" stroke-linecap="round" stroke-linejoin="round"/>
<path d="M148.049 105.219L146.395 105.026" stroke="#1E1E1C" stroke-width="0.207833" stroke-linecap="round" stroke-linejoin="round"/>
<path d="M148.42 107.315C148.42 107.315 147.365 108.614 147.371 109.307C147.377 109.999 148.397 110.003 148.397 110.003" stroke="#1E1E1C" stroke-width="0.207833" stroke-linecap="round" stroke-linejoin="round"/>
<path d="M150.592 108.839C150.894 108.839 151.139 108.594 151.139 108.292C151.139 107.99 150.894 107.745 150.592 107.745C150.29 107.745 150.045 107.99 150.045 108.292C150.045 108.594 150.29 108.839 150.592 108.839Z" fill="#1E1E1C"/>
<path d="M146.906 107.336C147.208 107.336 147.453 107.091 147.453 106.789C147.453 106.487 147.208 106.242 146.906 106.242C146.604 106.242 146.359 106.487 146.359 106.789C146.359 107.091 146.604 107.336 146.906 107.336Z" fill="#1E1E1C"/>
<path d="M148.512 112.551C148.84 112.661 149.197 112.653 149.52 112.529C150.015 112.315 150.38 111.67 150.38 111.67" stroke="#1E1E1C" stroke-width="0.207833" stroke-linecap="round" stroke-linejoin="round"/>
<path d="M159.748 111.319C155.344 111.234 157.936 106.204 153.335 104.435C149.014 102.773 148.915 99.642 149.676 98.6523" fill="#1E1E1C"/>
<path d="M159.122 110.741C159.413 108.562 158.222 106.606 156.462 106.37C154.702 106.135 153.039 107.711 152.748 109.889C152.457 112.068 153.648 114.025 155.408 114.26C157.168 114.495 158.83 112.919 159.122 110.741Z" fill="#52529F" stroke="#1E1E1C" stroke-width="0.048247" stroke-linecap="round" stroke-linejoin="round"/>
<path d="M158.855 110.754C159.065 109.182 158.206 107.771 156.937 107.602C155.668 107.432 154.469 108.568 154.259 110.14C154.049 111.711 154.908 113.122 156.177 113.291C157.446 113.461 158.645 112.325 158.855 110.754Z" fill="#BCADD5" stroke="#1E1E1C" stroke-width="0.0754633" stroke-linecap="round" stroke-linejoin="round"/>
<path d="M152.121 117.293C151.66 117.432 151.179 117.488 150.699 117.459L150.714 117.232C152.236 117.325 153.683 116.511 154.673 114.998C155.91 113.116 157.094 109.995 157.106 109.963L157.319 110.043C157.307 110.075 156.112 113.22 154.863 115.123C154.137 116.226 153.18 116.975 152.121 117.293Z" fill="#1E1E1C"/>
<path d="M150.319 116.613L149.09 116.522C148.743 116.496 148.44 116.757 148.414 117.104L148.411 117.154C148.385 117.501 148.645 117.804 148.993 117.83L150.222 117.921C150.569 117.947 150.872 117.686 150.898 117.338L150.901 117.289C150.927 116.942 150.666 116.639 150.319 116.613Z" fill="#BCADD5" stroke="#1E1E1C" stroke-width="0.0754633" stroke-linecap="round" stroke-linejoin="round"/>
<path d="M156.43 109.468C156.776 107.812 157.074 106.821 156.128 103.465C154.909 99.1424 149.488 98.3197 149.488 98.3197L150.861 98.2925C150.861 98.2925 155.981 98.9717 157.461 103.554C158.319 106.209 158.499 108.353 158.074 110.181C157.975 110.605 157.52 111.654 156.819 111.392C156.119 111.13 156.328 109.948 156.43 109.468Z" fill="#C5452B" stroke="#1E1E1C" stroke-width="0.0754633" stroke-linecap="round" stroke-linejoin="round"/>
<path d="M203.089 231.913L196.146 222.687L190.611 226.852L197.553 236.078L203.089 231.913Z" fill="#F08178" stroke="#1E1E1C" stroke-width="0.112576" stroke-linecap="round" stroke-linejoin="round"/>
<path d="M156.387 172.854L177.274 208.482L192.985 231.245L201.582 224.171L186.676 201.348C186.676 201.348 172.944 161.472 172.326 161.596C171.707 161.72 156.387 172.854 156.387 172.854Z" fill="#EFA360" stroke="#1E1E1C" stroke-width="0.12371" stroke-miterlimit="10"/>
<path d="M182.3 195.629H170.754V202.557H182.3V195.629Z" fill="#F08178" stroke="#1E1E1C" stroke-width="0.112576" stroke-linecap="round" stroke-linejoin="round"/>
<path d="M176.613 195.106V205.907L144.325 205.683C137.872 205.383 134.07 198.31 137.382 192.763L157.935 158.339L168.41 154.875L172.086 159.398C174.194 161.991 175.233 165.291 174.992 168.623C174.751 171.956 173.249 175.072 170.791 177.336L152.408 193.761L176.613 195.106Z" fill="#EFA360" stroke="#1E1E1C" stroke-width="0.12371" stroke-miterlimit="10"/>
<path d="M206.932 231.281C206.63 230.82 206.22 230.441 205.737 230.176L200.94 227.949C200.321 227.754 200.137 228.209 199.81 228.826L198.266 231.975C198.094 232.301 197.804 232.55 197.456 232.671L196.242 233.1C196.036 233.173 195.848 233.29 195.693 233.444C195.538 233.599 195.419 233.786 195.346 233.992C195.273 234.199 195.247 234.419 195.271 234.636C195.294 234.854 195.366 235.063 195.481 235.249L195.976 236.056C196.138 236.318 193.714 251.011 193.714 251.011C193.651 251.861 194.233 252.555 195.082 252.478C195.646 252.428 196.519 252.091 197.08 250.994L206.993 232.611C207.104 232.404 207.157 232.171 207.146 231.937C207.135 231.703 207.061 231.476 206.932 231.281Z" fill="#8D8D8E" stroke="#1E1E1C" stroke-width="0.12371" stroke-miterlimit="10"/>
<path d="M194.571 245.67C194.277 245.617 194.117 245.26 194.183 244.97C194.248 244.679 194.472 244.45 194.71 244.268C195.301 243.817 196.013 243.551 196.756 243.503C196.907 243.478 197.062 243.512 197.189 243.599C197.249 243.665 197.287 243.748 197.298 243.837C197.308 243.926 197.29 244.016 197.247 244.094C197.155 244.248 197.028 244.378 196.876 244.474C196.52 244.721 196.148 244.944 195.762 245.142C195.433 245.321 194.967 245.742 194.571 245.67Z" fill="white" stroke="#1E1E1C" stroke-width="0.12371" stroke-miterlimit="10"/>
<path d="M194.804 243.129C194.596 243.005 194.556 242.709 194.642 242.487C194.751 242.27 194.917 242.087 195.122 241.957C195.777 241.471 196.51 241.097 197.289 240.852C197.546 240.772 197.873 240.729 198.043 240.934C198.098 241.019 198.126 241.119 198.122 241.22C198.118 241.321 198.083 241.418 198.02 241.498C197.892 241.654 197.732 241.781 197.551 241.869C197.019 242.184 196.49 242.502 195.956 242.811C195.657 242.99 195.145 243.309 194.804 243.129Z" fill="white" stroke="#1E1E1C" stroke-width="0.12371" stroke-miterlimit="10"/>
<path d="M195.748 239.458C196.215 239.18 196.718 238.968 197.244 238.827C197.476 238.762 197.669 238.704 197.915 238.764C197.991 238.781 198.061 238.815 198.12 238.865C198.18 238.914 198.226 238.977 198.257 239.048C198.279 239.129 198.279 239.215 198.257 239.297C198.235 239.378 198.193 239.453 198.133 239.513C198.014 239.633 197.874 239.729 197.72 239.797C197.067 240.136 196.305 240.385 195.69 240.787C195.496 240.911 195.283 241.172 195.016 241.026C194.82 240.919 194.837 240.678 194.892 240.49C194.996 240.056 195.331 239.719 195.748 239.458Z" fill="white" stroke="#1E1E1C" stroke-width="0.12371" stroke-miterlimit="10"/>
<path d="M194.096 252.1C194.754 252.329 195.828 251.166 196.287 250.508C197.377 248.941 197.864 247.616 198.481 245.956C199.781 242.461 200.32 238.835 201.739 235.451C202.802 232.913 203.18 231.779 205.23 229.941L205.848 230.24C206.255 230.482 206.606 230.809 206.875 231.2C207.024 231.416 207.11 231.669 207.124 231.931C207.138 232.193 207.079 232.453 206.954 232.684C204.4 237.509 199.301 246.911 196.966 251.194C196.522 252.01 195.209 252.802 194.388 252.37L194.096 252.1Z" fill="#1E1E1C"/>
<path d="M187.856 194.76C187.351 194.536 186.799 194.439 186.248 194.477L181.01 195.203C180.383 195.376 180.477 195.857 180.536 196.553L180.942 200.035C180.973 200.403 180.864 200.769 180.636 201.059L179.841 202.079C179.706 202.251 179.612 202.452 179.565 202.666C179.518 202.879 179.52 203.101 179.57 203.314C179.62 203.527 179.718 203.726 179.855 203.896C179.993 204.067 180.166 204.204 180.364 204.298L181.22 204.706C181.498 204.839 187.406 218.507 187.406 218.507C187.813 219.256 188.677 219.524 189.35 219.002C189.798 218.655 190.35 217.898 190.229 216.673L188.62 195.85C188.604 195.616 188.524 195.391 188.389 195.199C188.254 195.007 188.07 194.856 187.856 194.76Z" fill="#8D8D8E" stroke="#1E1E1C" stroke-width="0.12371" stroke-miterlimit="10"/>
<path d="M185.248 213.554C184.972 213.668 184.644 213.455 184.542 213.176C184.439 212.896 184.506 212.582 184.606 212.3C184.859 211.6 185.314 210.991 185.912 210.549C186.026 210.445 186.176 210.39 186.329 210.396C186.416 210.418 186.494 210.468 186.551 210.538C186.609 210.607 186.642 210.693 186.647 210.783C186.653 210.963 186.616 211.142 186.538 211.305C186.374 211.705 186.182 212.094 185.966 212.468C185.784 212.788 185.619 213.395 185.248 213.554Z" fill="white" stroke="#1E1E1C" stroke-width="0.12371" stroke-miterlimit="10"/>
<path d="M184.068 211.287C183.821 211.296 183.627 211.071 183.583 210.834C183.558 210.593 183.599 210.349 183.701 210.129C183.989 209.365 184.404 208.654 184.927 208.026C185.099 207.819 185.349 207.603 185.604 207.687C185.696 207.728 185.774 207.797 185.825 207.884C185.877 207.971 185.9 208.072 185.891 208.173C185.868 208.375 185.804 208.569 185.7 208.744C185.422 209.295 185.148 209.85 184.868 210.399C184.71 210.709 184.453 211.254 184.068 211.287Z" fill="white" stroke="#1E1E1C" stroke-width="0.12371" stroke-miterlimit="10"/>
<path d="M182.87 207.693C183.112 207.206 183.42 206.755 183.786 206.352C183.946 206.172 184.075 206.015 184.317 205.937C184.39 205.909 184.468 205.9 184.544 205.909C184.621 205.918 184.695 205.946 184.759 205.99C184.821 206.046 184.868 206.118 184.894 206.198C184.92 206.278 184.925 206.364 184.908 206.446C184.872 206.611 184.807 206.768 184.714 206.909C184.343 207.547 183.848 208.168 183.539 208.835C183.444 209.047 183.405 209.38 183.102 209.402C182.88 209.418 182.763 209.205 182.704 209.021C182.567 208.599 182.667 208.134 182.87 207.693Z" fill="white" stroke="#1E1E1C" stroke-width="0.12371" stroke-miterlimit="10"/>
<path d="M188.325 219.214C189.003 219.05 189.277 217.491 189.306 216.689C189.376 214.782 189.068 213.404 188.688 211.673C187.89 208.031 186.381 204.691 185.742 201.077C185.264 198.367 184.968 197.209 185.696 194.554L186.384 194.467C186.858 194.449 187.33 194.534 187.767 194.715C188.008 194.817 188.216 194.983 188.369 195.195C188.521 195.407 188.613 195.657 188.633 195.917C189.095 201.36 189.893 212.018 190.249 216.888C190.317 217.815 189.643 219.193 188.717 219.272L188.325 219.214Z" fill="#1E1E1C"/>
<path d="M156.285 117.349C156.202 117.02 143.543 125.095 144.444 143.487C145.141 157.617 146.548 165.471 147.166 168.352C147.201 168.515 147.269 168.668 147.367 168.802C147.466 168.935 147.591 169.047 147.735 169.129C147.88 169.21 148.04 169.261 148.205 169.276C148.37 169.292 148.537 169.272 148.694 169.218C148.694 169.218 164.166 169.283 175.671 159.989C175.671 159.989 168.413 152.979 166.846 147.536C165.278 142.092 165.476 133.287 164.785 128.567C164.148 124.22 161.009 121.657 161.009 121.657L156.285 117.349Z" fill="#BCADD5" stroke="#1E1E1C" stroke-width="0.12371" stroke-linecap="round" stroke-linejoin="round"/>
<path d="M125.771 139.617C138.143 153.603 120.738 169.281 151.824 176.235C185.135 183.683 190.071 159.567 207.466 169.608C217.759 175.546 217.487 193.656 229.001 202.695C254.707 222.876 261.362 150.477 221.058 134.415" stroke="#1E1E1C" stroke-width="1.56493" stroke-linecap="round" stroke-linejoin="round"/>
<path d="M123.922 135.141L120.697 137.894C119.976 138.508 119.891 139.591 120.506 140.311L125.3 145.929C125.915 146.649 126.997 146.735 127.718 146.12L130.943 143.367C131.663 142.752 131.749 141.67 131.134 140.949L126.34 135.332C125.725 134.611 124.643 134.526 123.922 135.141Z" fill="#1E1E1C"/>
<path d="M83.1213 102.796C82.3672 101.913 81.0398 101.808 80.1563 102.562C79.2728 103.316 79.1679 104.643 79.9219 105.527L89.5592 116.819C90.3132 117.702 91.6407 117.807 92.5241 117.053C93.4076 116.299 93.5125 114.972 92.7585 114.088L83.1213 102.796Z" fill="#8D8D8E" stroke="#1E1E1C" stroke-width="0.12371" stroke-miterlimit="10"/>
<path d="M98.3634 89.7866C97.6094 88.9031 96.282 88.7982 95.3985 89.5522C94.515 90.3062 94.4101 91.6337 95.1641 92.5171L104.801 103.809C105.555 104.692 106.883 104.797 107.766 104.043C108.65 103.289 108.755 101.962 108.001 101.078L98.3634 89.7866Z" fill="#8D8D8E" stroke="#1E1E1C" stroke-width="0.12371" stroke-miterlimit="10"/>
<path d="M86.6367 118.605L110.224 98.474L126.459 117.496C128.997 120.471 130.249 124.332 129.941 128.23C129.632 132.128 127.788 135.743 124.814 138.282L123.658 139.269C122.185 140.526 120.479 141.481 118.637 142.078C116.795 142.676 114.854 142.905 112.923 142.752C110.993 142.6 109.112 142.069 107.387 141.189C105.662 140.309 104.127 139.098 102.87 137.626L86.6367 118.605Z" fill="#8F1A1D" stroke="#010101" stroke-width="0.122473" stroke-miterlimit="10"/>
<path d="M99.6083 107.536L97.2559 109.544L109.57 123.972L111.922 121.964L99.6083 107.536Z" fill="#BCADD5" stroke="#1E1E1C" stroke-width="0.12371" stroke-linecap="round" stroke-linejoin="round"/>
<path d="M124.261 115.988L101.728 135.219C99.9971 136.697 99.7915 139.298 101.269 141.029L101.54 141.347C103.018 143.078 105.619 143.284 107.35 141.806L129.883 122.575C131.614 121.098 131.819 118.497 130.342 116.766L130.07 116.448C128.593 114.716 125.992 114.511 124.261 115.988Z" fill="#BCADD5" stroke="#1E1E1C" stroke-width="0.110102" stroke-linecap="round" stroke-linejoin="round"/>
<path d="M134.768 164.496L132.876 160.423C132.234 159.04 130.591 158.439 129.207 159.082L127.143 160.04C125.759 160.683 125.158 162.325 125.801 163.709L127.692 167.782C128.335 169.166 129.978 169.767 131.361 169.124L133.426 168.165C134.81 167.523 135.41 165.88 134.768 164.496Z" fill="#F08178" stroke="#1E1E1C" stroke-width="0.0989682" stroke-linecap="round" stroke-linejoin="round"/>
<path d="M173.768 140.606C173.768 140.606 181.675 148.029 190.258 151.987" stroke="#1E1E1C" stroke-width="0.12371" stroke-linecap="round" stroke-linejoin="round"/>
<path d="M178.406 147.913C178.406 147.913 186.314 155.335 194.897 159.294" stroke="#1E1E1C" stroke-width="0.12371" stroke-linecap="round" stroke-linejoin="round"/>
<path d="M155.294 126.356C155.294 126.356 158.445 120.871 163.852 124.393C169.26 127.915 164.695 136.404 164.695 136.404L156.786 153.57L136.171 164.565L132.336 158.301L149.594 147.101L155.294 126.356Z" fill="#BCADD5" stroke="#1E1E1C" stroke-width="0.113813" stroke-linecap="round" stroke-linejoin="round"/>
<path d="M207.969 238.031L222.847 259.429" stroke="#1E1E1C" stroke-width="0.0804117" stroke-linecap="round" stroke-linejoin="round"/>
<path d="M211.912 248.777L218.759 258.626" stroke="#1E1E1C" stroke-width="0.0371131" stroke-linecap="round" stroke-linejoin="round"/>
<path d="M176.396 84.6704C176.396 84.6704 171.684 84.6852 171.63 81.8584C171.575 79.0317 173.789 77.7203 175.109 77.2391C177.416 76.4004 180.706 76.4783 180.706 76.4783C180.706 76.4783 181.684 71.588 185.597 69.9031C189.51 68.2182 193.259 69.9031 193.259 69.9031C193.259 69.9031 197.553 65.9901 202.934 68.3814C208.314 70.7728 208.314 74.4136 208.314 74.4136C208.314 74.4136 212.227 72.2944 215.379 73.9793C218.531 75.6643 218.749 78.2177 218.749 78.2177C218.749 78.2177 226.575 77.729 229.727 80.2836C232.879 82.8382 231.289 84.637 229.656 84.6679C228.062 84.6963 176.396 84.6704 176.396 84.6704Z" fill="#609BAA" stroke="#1D1D1B" stroke-width="0.163298" stroke-linecap="round" stroke-linejoin="round"/>
<path d="M191.194 82.8373C191.194 82.8373 188.985 79.7532 191.106 77.1763C193.456 74.3149 197.716 76.1371 197.716 76.1371C197.716 76.1371 198.21 74.4237 200.378 74.034C202.131 73.7186 203.53 74.9 203.53 74.9" stroke="#1D1D1B" stroke-width="0.163298" stroke-linecap="round" stroke-linejoin="round"/>
<path d="M106.223 182.711C106.223 182.711 111.362 182.727 111.419 179.646C111.476 176.564 109.069 175.131 107.626 174.607C105.11 173.691 101.521 173.778 101.521 173.778C101.521 173.778 100.455 168.444 96.1879 166.603C91.9211 164.762 87.83 166.603 87.83 166.603C87.83 166.603 83.1488 162.335 77.2812 164.943C71.4137 167.55 71.4137 171.522 71.4137 171.522C71.4137 171.522 67.1469 169.211 63.709 171.048C60.2711 172.885 60.0348 175.671 60.0348 175.671C60.0348 175.671 51.4988 175.138 48.0621 177.922C44.6255 180.707 46.3574 182.672 48.1388 182.704C49.8794 182.74 106.223 182.711 106.223 182.711Z" fill="#609BAA" stroke="#1D1D1B" stroke-width="0.178143" stroke-linecap="round" stroke-linejoin="round"/>
<path d="M90.0863 180.712C90.0863 180.712 92.4949 177.348 90.1828 174.539C87.6146 171.418 82.9742 173.406 82.9742 173.406C82.9742 173.406 82.4385 171.535 80.0707 171.111C78.1594 170.767 76.6328 172.05 76.6328 172.05" stroke="#1D1D1B" stroke-width="0.178143" stroke-linecap="round" stroke-linejoin="round"/>
</svg>
