<svg width="260" height="260" viewBox="0 0 260 260" fill="none" xmlns="http://www.w3.org/2000/svg">
<g clip-path="url(#clip0_2150_135167)">
<g clip-path="url(#clip1_2150_135167)">
<path d="M37.364 255.683H33.4823L31.0586 239.02H39.9158L37.364 255.683Z" fill="#333333" stroke="black" stroke-width="0.5" stroke-linecap="round" stroke-linejoin="round"/>
<path d="M87.3619 255.683H83.4803L81.0586 239.02H89.9158L87.3619 255.683Z" fill="#333333" stroke="black" stroke-width="0.5" stroke-linecap="round" stroke-linejoin="round"/>
<path d="M20.1623 242.477H100.81C101.688 242.477 102.4 241.765 102.4 240.886V191.702C102.4 190.824 101.688 190.112 100.81 190.112H20.1623C19.2841 190.112 18.5722 190.824 18.5722 191.702V240.886C18.5722 241.765 19.2841 242.477 20.1623 242.477Z" fill="#B3B3B3" stroke="black" stroke-width="0.5" stroke-linecap="round" stroke-linejoin="round"/>
<path d="M21.0001 239.408H99.9727V193.41H21.0001V239.408Z" fill="#CCCCCC" stroke="black" stroke-width="0.5" stroke-linecap="round" stroke-linejoin="round"/>
<path d="M44.6348 201.301V201.722C44.6348 202.635 45.3749 203.375 46.2879 203.375H74.6854C75.5983 203.375 76.3385 202.635 76.3385 201.722V201.301C76.3385 200.388 75.5983 199.648 74.6854 199.648H46.2879C45.3749 199.648 44.6348 200.388 44.6348 201.301Z" fill="#B3B3B3" stroke="black" stroke-width="0.5" stroke-linecap="round" stroke-linejoin="round"/>
<path d="M44.6348 216.525V216.946C44.6348 217.859 45.3749 218.599 46.2879 218.599H74.6854C75.5983 218.599 76.3385 217.859 76.3385 216.946V216.525C76.3385 215.612 75.5983 214.872 74.6854 214.872H46.2879C45.3749 214.872 44.6348 215.612 44.6348 216.525Z" fill="#B3B3B3" stroke="black" stroke-width="0.5" stroke-linecap="round" stroke-linejoin="round"/>
<path d="M44.6348 231.913V232.334C44.6348 233.247 45.3749 233.987 46.2879 233.987H74.6854C75.5983 233.987 76.3385 233.247 76.3385 232.334V231.913C76.3385 231 75.5983 230.26 74.6854 230.26H46.2879C45.3749 230.26 44.6348 231 44.6348 231.913Z" fill="#B3B3B3" stroke="black" stroke-width="0.5" stroke-linecap="round" stroke-linejoin="round"/>
<path d="M20.9277 208.674H100.049" stroke="black" stroke-width="0.5" stroke-linecap="round" stroke-linejoin="round"/>
<path d="M20.9277 224.075H100.049" stroke="black" stroke-width="0.5" stroke-linecap="round" stroke-linejoin="round"/>
<path d="M32.8027 138.118C33.6702 142.394 35.3705 146.458 37.8068 150.078C37.823 149.927 37.8413 149.779 37.8596 149.628C36.1903 145.747 35.3749 141.263 32.8027 138.118Z" fill="#CCCCCC" stroke="black" stroke-width="0.5" stroke-linecap="round" stroke-linejoin="round"/>
<path d="M28.3066 142.372C30.3585 147.573 33.4144 152.32 37.3001 156.341C37.2879 156.137 37.2777 155.956 37.2655 155.763C34.2887 151.237 32.2574 145.767 28.3066 142.372Z" fill="#CCCCCC" stroke="black" stroke-width="0.5" stroke-linecap="round" stroke-linejoin="round"/>
<path d="M34.8848 131.912C35.2798 136.234 36.5235 140.435 38.5448 144.275C38.5671 144.13 38.5875 143.986 38.6098 143.842C37.6196 139.763 36.6029 135.655 34.8848 131.912Z" fill="#CCCCCC" stroke="black" stroke-width="0.5" stroke-linecap="round" stroke-linejoin="round"/>
<path d="M36.3927 127.235C36.3811 131.234 37.4677 135.16 39.5342 138.583C39.5443 138.533 39.5565 138.48 39.5667 138.429C38.5094 134.697 37.4514 130.966 36.3927 127.235Z" fill="#CCCCCC" stroke="black" stroke-width="0.5" stroke-linecap="round" stroke-linejoin="round"/>
<path d="M39.0213 124.936C38.9847 127.916 39.5139 130.877 40.5809 133.661L40.6907 133.589C40.7293 133.441 40.77 133.293 40.8086 133.144C40.7029 130.314 39.859 127.599 39.0213 124.936Z" fill="#CCCCCC" stroke="black" stroke-width="0.5" stroke-linecap="round" stroke-linejoin="round"/>
<path d="M41.082 122.1C40.9319 124.441 41.2386 126.789 41.9848 129.013L42.0681 128.989C42.1149 128.846 42.1637 128.704 42.2125 128.56C42.1396 126.364 41.7591 124.189 41.082 122.1Z" fill="#CCCCCC" stroke="black" stroke-width="0.5" stroke-linecap="round" stroke-linejoin="round"/>
<path d="M43.7704 125.243C43.9738 125.103 44.0734 124.8 44.1385 124.527C44.5786 122.69 44.7017 120.792 44.5024 118.913C43.8435 120.929 43.5052 123.036 43.5 125.157C43.5854 125.062 43.7257 125.123 43.7704 125.243Z" fill="#CCCCCC" stroke="black" stroke-width="0.5" stroke-linecap="round" stroke-linejoin="round"/>
<path d="M43.9615 127.38C45.1226 127.484 46.308 126.752 46.8794 125.583C45.4768 125.803 44.1555 126.384 43.0445 127.268L43.0059 127.378C43.3007 127.264 43.6423 127.352 43.9615 127.38Z" fill="#CCCCCC" stroke="black" stroke-width="0.5" stroke-linecap="round" stroke-linejoin="round"/>
<path d="M43.8925 130.963C44.4881 130.871 45.0597 130.662 45.5741 130.348C46.0885 130.033 46.5356 129.621 46.8896 129.133C45.064 129.398 43.3167 130.052 41.7656 131.05C42.4712 130.969 43.1869 131.058 43.8925 130.963Z" fill="#CCCCCC" stroke="black" stroke-width="0.5" stroke-linecap="round" stroke-linejoin="round"/>
<path d="M41.0324 156.613C42.9743 156.353 44.8185 155.224 46.0954 153.516C43.0107 153.964 40.0582 155.07 37.4375 156.757C38.629 156.621 39.8409 156.771 41.0324 156.613Z" fill="#CCCCCC" stroke="black" stroke-width="0.5" stroke-linecap="round" stroke-linejoin="round"/>
<path d="M43.4936 136.038C44.5587 135.941 45.5608 135.491 46.3403 134.759C44.3493 134.636 42.356 134.96 40.5067 135.708C40.5067 135.737 40.4924 135.765 40.4863 135.794C41.4694 136.035 42.4846 136.117 43.4936 136.038Z" fill="#CCCCCC" stroke="black" stroke-width="0.5" stroke-linecap="round" stroke-linejoin="round"/>
<path d="M41.738 151.46C43.107 151.337 44.3954 150.76 45.398 149.82C42.8427 149.663 40.2848 150.08 37.9113 151.04C37.9011 151.076 37.893 151.115 37.8828 151.151C39.1435 151.416 40.4428 151.597 41.738 151.46Z" fill="#CCCCCC" stroke="black" stroke-width="0.5" stroke-linecap="round" stroke-linejoin="round"/>
<path d="M39.0098 141.375H39.012H39.0098Z" fill="#CCCCCC" stroke="black" stroke-width="0.5" stroke-linecap="round" stroke-linejoin="round"/>
<path d="M45.7093 138.22C45.8651 138.11 45.9762 137.949 46.0224 137.764C43.4903 138.161 41.1631 139.392 39.41 141.261L39.3633 141.274C39.3642 141.288 39.3642 141.302 39.3633 141.316C41.7171 140.869 43.9083 139.8 45.7093 138.22Z" fill="#CCCCCC" stroke="black" stroke-width="0.5" stroke-linecap="round" stroke-linejoin="round"/>
<path d="M46.2934 141.938C43.3246 142.757 40.6516 144.407 38.5891 146.694L38.522 146.747C38.522 146.782 38.5119 146.816 38.5078 146.851C41.4155 145.948 44.3455 144.578 46.2934 141.938Z" fill="#CCCCCC" stroke="black" stroke-width="0.5" stroke-linecap="round" stroke-linejoin="round"/>
<path d="M41.7662 131.048C42.1444 129.81 42.5578 128.59 43.0065 127.388L43.0452 127.278C43.279 126.668 43.5189 126.04 43.7711 125.428C43.7826 125.4 43.7885 125.37 43.7885 125.34C43.7885 125.31 43.7826 125.281 43.7711 125.253C43.7243 125.133 43.584 125.072 43.5006 125.168C43.487 125.184 43.476 125.203 43.4681 125.223C43.0167 126.325 42.5972 127.439 42.2095 128.565C42.1607 128.71 42.1119 128.852 42.0651 128.994C41.6029 130.365 41.1833 131.752 40.8065 133.155C40.7678 133.303 40.7272 133.451 40.6885 133.6C40.2656 135.198 39.8955 136.813 39.5641 138.439C39.5641 138.49 39.5417 138.543 39.5316 138.594C39.3445 139.521 39.171 140.451 39.011 141.385C38.8755 142.199 38.7399 143.021 38.6044 143.852C38.582 143.996 38.5617 144.141 38.5393 144.285C38.3346 145.68 38.1496 147.077 37.9842 148.478C37.9395 148.864 37.8947 149.252 37.852 149.639C37.8337 149.789 37.8154 149.938 37.7992 150.088C36.9106 158.051 36.3901 166.103 36.2681 174.126C36.1908 179.081 36.4836 171.505 37.0448 162.784C37.3864 157.477 37.8012 152.14 38.4986 146.861C38.4986 146.827 38.4986 146.792 38.5129 146.758C38.7542 144.94 39.0321 143.129 39.3465 141.327C39.3475 141.312 39.3475 141.298 39.3465 141.284C39.5241 140.289 39.7139 139.297 39.9159 138.309C40.088 137.471 40.2724 136.636 40.4689 135.804C40.4689 135.776 40.4832 135.747 40.4893 135.719C40.8634 134.149 41.2802 132.593 41.7499 131.06L41.7662 131.048Z" fill="black"/>
<path d="M27.6367 181.828C27.637 183.586 28.1426 185.306 29.0933 186.784C30.044 188.262 31.3996 189.436 32.9986 190.165H40.5951C42.1942 189.436 43.5498 188.262 44.5005 186.784C45.4511 185.306 45.9567 183.586 45.957 181.828C45.9591 180.024 45.4263 178.26 44.4259 176.759C45.6134 175.828 46.9615 173.679 46.9615 170.11C46.9615 167.349 45.3592 164.964 42.7078 163.862C41.6868 163.451 40.6114 163.19 39.5154 163.089V161.796H34.0783V173.079C32.212 173.66 30.5803 174.822 29.4215 176.396C28.2626 177.97 27.6373 179.874 27.6367 181.828ZM42.5736 174.712C41.6709 173.975 40.6356 173.418 39.5236 173.071V164.012C40.5056 164.112 41.4687 164.35 42.3845 164.718C44.6801 165.68 45.7822 167.522 45.8411 169.758C45.9367 173.331 44.1657 174.437 42.5736 174.72V174.712Z" fill="#333333"/>
<path d="M84.0903 172.109C83.0188 171.585 81.8738 171.226 80.6947 171.046L80.9631 167.103L64.3711 167.166L66.1442 187.093C66.2185 187.924 66.6019 188.697 67.2186 189.259C67.8352 189.821 68.6403 190.131 69.4748 190.128L76.3006 190.102C77.1425 190.099 77.9519 189.777 78.5657 189.201C79.1796 188.624 79.5523 187.837 79.6089 186.997L79.6963 185.732C79.7643 185.735 79.8324 185.731 79.8996 185.72C82.3071 185.352 86.9655 183.061 87.3559 177.032C87.4982 174.984 86.3351 173.234 84.0903 172.109ZM85.0033 176.877C84.6861 181.757 80.9976 183.075 79.8569 183.366L80.5361 173.356C81.4938 173.536 85.166 174.374 85.0033 176.877Z" fill="#333333" stroke="black" stroke-width="0.5" stroke-linecap="round" stroke-linejoin="round"/>
<path d="M73.0509 161.111C73.0509 161.111 65.6618 154.061 70.5418 149.791C74.5983 146.243 80.5783 152.884 77.1521 155.418C74.6776 157.248 72.1461 153.565 75.0151 152.164" stroke="black" stroke-width="0.5" stroke-linecap="round" stroke-linejoin="round"/>
<path d="M74.2043 163.99C74.2043 163.99 64.4443 157.382 65.461 149.553C66.4776 141.725 76.4694 141.03 78.6369 149.785" stroke="black" stroke-width="0.5" stroke-linecap="round" stroke-linejoin="round"/>
<path d="M143.441 212.955H133.275L126.107 252.476C126.038 252.854 126.053 253.242 126.15 253.614C126.248 253.985 126.426 254.33 126.672 254.625C126.917 254.92 127.225 255.157 127.573 255.32C127.92 255.483 128.3 255.567 128.684 255.567C129.247 255.567 129.795 255.386 130.246 255.05C130.698 254.714 131.03 254.242 131.193 253.703L143.441 212.955Z" fill="black" stroke="black" stroke-width="0.5" stroke-miterlimit="10"/>
<path d="M203.787 212.955H213.954L221.119 252.476C221.188 252.854 221.174 253.242 221.076 253.614C220.979 253.985 220.801 254.33 220.555 254.625C220.309 254.92 220.001 255.157 219.654 255.32C219.306 255.483 218.927 255.567 218.543 255.567C217.98 255.567 217.433 255.385 216.981 255.049C216.53 254.713 216.198 254.241 216.036 253.703L203.787 212.955Z" fill="black" stroke="black" stroke-width="0.5" stroke-miterlimit="10"/>
<path d="M129.204 175.493H217.247L224.236 93.1223C224.236 90.1563 223.058 87.3118 220.96 85.2145C218.863 83.1172 216.018 81.939 213.052 81.939H132.394C129.428 81.939 126.584 83.1172 124.486 85.2145C122.389 87.3118 121.211 90.1563 121.211 93.1223L129.204 175.493Z" fill="#4C4C4C" stroke="black" stroke-width="0.5" stroke-miterlimit="10"/>
<path d="M121.216 229.534H224.23V184.496H121.216V229.534Z" fill="#333333" stroke="black" stroke-width="0.5" stroke-miterlimit="10"/>
<path d="M121.216 212.955H224.23V184.523H121.216V212.955Z" fill="#4C4C4C" stroke="black" stroke-width="0.5" stroke-miterlimit="10"/>
<path d="M121.216 185.517H224.23V169.348H121.216V185.517Z" fill="#333333" stroke="black" stroke-width="0.5" stroke-miterlimit="10"/>
<path d="M121.218 229.727C122.854 229.725 124.426 229.088 125.602 227.95C126.777 226.812 127.466 225.262 127.521 223.627L129.522 166.121C129.552 165.274 129.411 164.43 129.107 163.639C128.804 162.848 128.344 162.126 127.756 161.517C127.168 160.907 126.463 160.422 125.684 160.09C124.904 159.758 124.066 159.587 123.219 159.585H119.217C118.37 159.587 117.532 159.758 116.752 160.09C115.973 160.422 115.268 160.907 114.68 161.517C114.092 162.126 113.632 162.848 113.329 163.639C113.026 164.43 112.885 165.274 112.914 166.121L114.915 223.627C114.971 225.262 115.659 226.812 116.835 227.95C118.01 229.088 119.582 229.725 121.218 229.727Z" fill="#333333" stroke="black" stroke-width="0.5" stroke-miterlimit="10"/>
<path d="M121.215 176.362C123.461 176.362 125.282 173.449 125.282 169.856C125.282 166.262 123.461 163.349 121.215 163.349C118.969 163.349 117.148 166.262 117.148 169.856C117.148 173.449 118.969 176.362 121.215 176.362Z" fill="#4C4C4C" stroke="black" stroke-width="0.5" stroke-miterlimit="10"/>
<path d="M175.563 105.658H183.821C187.82 105.658 190.531 107.284 190.531 109.283L192.031 109.787C195.333 110.894 198.332 112.753 200.792 115.218C203.253 117.682 205.107 120.685 206.208 123.988L214.341 148.408C214.932 150.181 215.156 152.055 215.001 153.917C214.846 155.779 214.314 157.591 213.439 159.241C212.563 160.891 211.361 162.347 209.906 163.519C208.45 164.691 206.772 165.556 204.973 166.06L184.091 175.492L147.763 172.723L140.24 161.428C138.358 158.605 137.319 155.304 137.245 151.912C137.17 148.52 138.064 145.177 139.821 142.274L155.828 115.841C156.659 114.468 157.779 113.293 159.11 112.396C160.44 111.5 161.95 110.903 163.534 110.648C163.534 108.637 165.771 106.241 169.392 106.241L175.563 105.658Z" fill="#808080" stroke="black" stroke-width="0.5" stroke-miterlimit="10"/>
<path d="M181.961 111.631L178.26 167.031H161.605L168.181 110.629L181.961 111.631Z" fill="white" stroke="black" stroke-width="0.5" stroke-miterlimit="10"/>
<path d="M184.09 112.402C184.09 112.402 185.379 112.402 188.293 111.317C189.633 110.818 190.529 109.283 190.529 109.283" stroke="black" stroke-width="0.5" stroke-miterlimit="10"/>
<path d="M163.525 110.639C163.525 110.639 164.339 112.943 167.999 112.943" stroke="black" stroke-width="0.5" stroke-miterlimit="10"/>
<path d="M193.107 136.802L198.384 151.31" stroke="black" stroke-width="0.5" stroke-miterlimit="10"/>
<path d="M179.008 162.558L200.494 150.086" stroke="black" stroke-width="0.5" stroke-miterlimit="10"/>
<path d="M181.603 95.5905C181.603 95.5905 183.289 93.8215 183.118 92.1603C182.947 90.4991 181.229 89.639 180.141 91.5279C178.94 93.6234 177.844 95.7781 176.86 97.9838C175.949 100.058 173.354 102.132 169.503 101.926C169.037 101.902 168.476 105.414 168.476 105.414L167.992 112.233C167.992 112.233 168.539 115.779 174.058 116.19C180.52 116.674 181.959 111.625 181.959 111.625L181.603 95.5905Z" fill="#E5E5E5" stroke="black" stroke-width="0.5" stroke-miterlimit="10"/>
<path d="M160.896 85.2652L164.912 103.333C164.912 103.333 165.878 106.941 171.472 105.078C177.066 103.215 179.329 89.7446 179.329 89.7446L178.56 81.2656L160.896 85.2652Z" fill="#E5E5E5" stroke="black" stroke-width="0.5" stroke-miterlimit="10"/>
<path d="M176.029 82.8984C176.029 82.8984 177.093 87.3026 177.335 90.56C177.583 93.8642 177.652 96.8634 175.627 97.3351L172.703 97.4612C171.768 97.4996 170.855 97.7477 170.029 98.187C169.096 98.6872 167.652 99.7039 166.003 99.7751C165.367 99.8102 164.73 99.8007 164.096 99.7466C164.096 99.7466 164.071 106.575 169.382 107.563C174.693 108.551 177.009 106.139 178.687 103.148C179.815 101.137 180.037 95.8792 179.907 93.0691C179.882 92.5385 179.996 92.0107 180.237 91.5374C180.478 91.064 180.838 90.6614 181.281 90.3689L181.985 85.5784L176.029 82.8984Z" fill="#333333" stroke="black" stroke-width="0.5" stroke-miterlimit="10"/>
<path d="M170.033 99.5067L173.913 98.5815C173.913 98.5815 174.116 100.438 172.874 100.847C170.458 101.644 170.033 99.5067 170.033 99.5067Z" fill="white"/>
<path d="M164.92 92.8863L166.988 92.0811" stroke="black" stroke-width="0.5" stroke-linecap="round" stroke-linejoin="round"/>
<path d="M171.662 91.4222L174.612 91.2168" stroke="black" stroke-width="0.5" stroke-linecap="round" stroke-linejoin="round"/>
<path d="M169.308 91.9062C169.308 91.9062 169.058 95.5378 169.493 96.2332C169.928 96.9286 171.54 96.3633 171.54 96.3633" fill="#E5E5E5"/>
<path d="M169.308 91.9062C169.308 91.9062 169.058 95.5378 169.493 96.2332C169.928 96.9286 171.54 96.3633 171.54 96.3633" stroke="black" stroke-width="0.5" stroke-linecap="round" stroke-linejoin="round"/>
<path d="M166.569 95.0458C167.016 95.0458 167.378 94.6835 167.378 94.2365C167.378 93.7896 167.016 93.4272 166.569 93.4272C166.122 93.4272 165.76 93.7896 165.76 94.2365C165.76 94.6835 166.122 95.0458 166.569 95.0458Z" fill="black"/>
<path d="M173.202 93.7484C173.649 93.7484 174.011 93.3861 174.011 92.9392C174.011 92.4922 173.649 92.1299 173.202 92.1299C172.755 92.1299 172.393 92.4922 172.393 92.9392C172.393 93.3861 172.755 93.7484 173.202 93.7484Z" fill="black"/>
<path d="M175.788 83.8887C175.788 83.8887 172.41 88.2075 165.07 88.234C157.73 88.2604 156.977 85.4991 157.14 83.4394C157.303 81.3796 159.604 80.2775 159.604 80.2775C159.604 80.2775 157.998 75.9893 162.17 75.6761C166.343 75.363 169.2 78.6814 169.2 78.6814C169.2 78.6814 173.84 74.755 177.441 76.038C182.554 77.8538 181.944 86.0807 181.944 86.0807L175.788 83.8887Z" fill="#333333" stroke="black" stroke-width="0.5" stroke-miterlimit="10"/>
<path d="M160.975 196.194C160.975 196.194 180.055 207.641 184.279 211.289C192.209 218.129 197.076 226.773 199.089 226.769C201.102 226.765 200.736 221.395 198.809 215.911C196.881 210.427 193.707 208.497 192.438 204.105C191.17 199.713 190.566 194.307 183.451 196.094C179.765 197.021 166.475 188.475 166.475 188.475L160.975 196.194Z" fill="white" stroke="black" stroke-width="0.5" stroke-miterlimit="10"/>
<path d="M192.437 204.107C192.437 204.107 190.948 197.922 188.931 196.584C186.914 195.246 182.872 196.198 182.872 196.198C182.872 196.198 182.319 201.078 184.836 203.286C187.353 205.494 192.437 204.107 192.437 204.107Z" fill="black" stroke="black" stroke-width="0.5" stroke-miterlimit="10"/>
<path d="M198.807 215.917L192.4 219.78L195.747 223.847C195.747 223.847 198.574 227.525 199.541 226.661C200.509 225.797 200.812 223.68 200.107 220.726C199.401 217.771 198.807 215.917 198.807 215.917Z" fill="black" stroke="black" stroke-width="0.5" stroke-miterlimit="10"/>
<path d="M172.685 205.641L180.994 194.996L137.287 153.087C132.71 148.701 125.329 149.169 121.177 154.104C116.974 159.104 117.849 166.566 123.072 170.287L172.685 205.641Z" fill="#B3B3B3" stroke="black" stroke-width="0.5" stroke-miterlimit="10"/>
<path d="M171.168 194.392C171.168 194.392 151.989 205.671 147.731 209.282C139.751 216.053 134.797 224.654 132.786 224.632C130.776 224.61 131.186 219.244 133.163 213.778C135.139 208.313 138.329 206.409 139.637 202.027C140.944 197.646 141.595 192.245 148.693 194.098C152.369 195.055 165.735 186.637 165.735 186.637L171.168 194.392Z" fill="white" stroke="black" stroke-width="0.5" stroke-miterlimit="10"/>
<path d="M139.635 202.027C139.635 202.027 141.178 195.854 143.207 194.526C145.237 193.199 149.269 194.193 149.269 194.193C149.269 194.193 149.779 199.073 147.235 201.267C144.692 203.461 139.635 202.027 139.635 202.027Z" fill="black" stroke="black" stroke-width="0.5" stroke-miterlimit="10"/>
<path d="M133.159 213.778L139.532 217.696L136.148 221.738C136.148 221.738 133.302 225.398 132.332 224.518C131.362 223.637 131.085 221.527 131.817 218.579C132.549 215.63 133.159 213.778 133.159 213.778Z" fill="black" stroke="black" stroke-width="0.5" stroke-miterlimit="10"/>
<path d="M147.937 184.786H190.908C192.143 184.786 193.145 183.784 193.145 182.549V153.812C193.145 152.577 192.143 151.575 190.908 151.575H147.937C146.702 151.575 145.701 152.577 145.701 153.812V182.549C145.701 183.784 146.702 184.786 147.937 184.786Z" fill="white" stroke="black" stroke-width="0.5" stroke-miterlimit="10"/>
<path d="M225.228 229.727C226.864 229.725 228.436 229.088 229.612 227.95C230.787 226.812 231.476 225.262 231.532 223.627L233.532 166.121C233.562 165.274 233.421 164.43 233.117 163.639C232.814 162.848 232.354 162.126 231.766 161.517C231.178 160.907 230.473 160.422 229.694 160.09C228.914 159.758 228.076 159.587 227.229 159.585H223.219C222.372 159.587 221.534 159.758 220.754 160.09C219.975 160.422 219.27 160.907 218.682 161.517C218.094 162.126 217.634 162.848 217.331 163.639C217.028 164.43 216.886 165.274 216.916 166.121L218.917 223.627C218.973 225.264 219.662 226.815 220.84 227.953C222.017 229.091 223.591 229.727 225.228 229.727Z" fill="#333333" stroke="black" stroke-width="0.5" stroke-miterlimit="10"/>
<path d="M225.229 176.362C227.475 176.362 229.295 173.449 229.295 169.856C229.295 166.262 227.475 163.349 225.229 163.349C222.983 163.349 221.162 166.262 221.162 169.856C221.162 173.449 222.983 176.362 225.229 176.362Z" fill="#4C4C4C" stroke="black" stroke-width="0.5" stroke-miterlimit="10"/>
<path d="M152.279 192.375L158.08 204.575L215.109 184.242C221.081 182.113 223.966 175.295 221.413 169.378C218.822 163.382 211.758 160.824 206.093 163.831L152.279 192.375Z" fill="#B3B3B3" stroke="black" stroke-width="0.5" stroke-miterlimit="10"/>
<path d="M204.803 8.35693H168.961V65.8434H204.803V8.35693Z" fill="#999999" stroke="black" stroke-width="0.5" stroke-linecap="round" stroke-linejoin="round"/>
<path d="M202.229 11.0229H171.535V63.1795H202.229V11.0229Z" fill="white" stroke="black" stroke-width="0.5" stroke-miterlimit="10" stroke-linejoin="round"/>
<path d="M193.67 27.0981H180.094V47.1026H193.67V27.0981Z" fill="#E5E5E5"/>
<path d="M159.901 8.35693H124.059V65.8434H159.901V8.35693Z" fill="#999999" stroke="black" stroke-width="0.5" stroke-linecap="round" stroke-linejoin="round"/>
<path d="M157.329 11.0229H126.635V63.1795H157.329V11.0229Z" fill="white" stroke="black" stroke-width="0.5" stroke-miterlimit="10" stroke-linejoin="round"/>
<path d="M148.767 27.0981H135.191V47.1026H148.767V27.0981Z" fill="#E5E5E5"/>
<path d="M115.237 30.001H79.3945V65.8434H115.237V30.001Z" fill="#999999" stroke="black" stroke-width="0.5" stroke-linecap="round" stroke-linejoin="round"/>
<path d="M112.573 32.665H82.0605V63.1775H112.573V32.665Z" fill="white" stroke="black" stroke-width="0.5" stroke-miterlimit="10" stroke-linejoin="round"/>
<path d="M90.3047 51.5355L82.1797 63.1426H112.358V51.5355L104.93 42.4819L94.7154 57.5712L90.3047 51.5355Z" fill="#CCCCCC"/>
<path d="M235.693 102.866V60.9067" stroke="black" stroke-width="0.5" stroke-linejoin="round"/>
<path d="M244.107 82.5138V72.3205C244.107 70.995 243.032 69.9204 241.707 69.9204C240.381 69.9204 239.307 70.995 239.307 72.3205V82.5138C239.307 83.8394 240.381 84.9139 241.707 84.9139C243.032 84.9139 244.107 83.8394 244.107 82.5138Z" fill="black"/>
<path d="M230.807 41.1134C230.977 40.159 231.807 39.4639 232.776 39.4639H251.024C252.003 39.4639 252.837 40.1715 252.997 41.1366L257.851 70.4C258.053 71.6186 257.113 72.7272 255.878 72.7272H227.567C226.322 72.7272 225.38 71.6023 225.598 70.3767L230.807 41.1134Z" fill="#808080" stroke="black" stroke-width="0.5" stroke-linecap="round" stroke-linejoin="round"/>
<path d="M235.693 102.223H235.691C234.931 102.223 234.314 102.839 234.314 103.599V110.502C234.314 111.262 234.931 111.878 235.691 111.878H235.693C236.453 111.878 237.069 111.262 237.069 110.502V103.599C237.069 102.839 236.453 102.223 235.693 102.223Z" fill="black"/>
<path d="M231.447 72.7272L234.774 39.4639" stroke="black" stroke-width="0.5" stroke-linejoin="round"/>
<path d="M253.05 72.7272L249.723 39.4639" stroke="black" stroke-width="0.5" stroke-linejoin="round"/>
<path d="M238.479 72.7272L239.086 39.4639" stroke="black" stroke-width="0.5" stroke-linejoin="round"/>
<path d="M245.674 72.7272L245.066 39.4639" stroke="black" stroke-width="0.5" stroke-linejoin="round"/>
<ellipse cx="92.1632" cy="42.9464" rx="3.94643" ry="3.94643" fill="#CCCCCC"/>
<path d="M168.953 65.9749H204.796C204.842 65.9749 204.889 65.9284 204.889 65.882V8.35702C204.889 8.31059 204.842 8.26416 204.796 8.26416H168.953C168.907 8.26416 168.86 8.31059 168.86 8.35702V65.8356C168.86 65.9284 168.907 65.9749 168.953 65.9749Z" fill="url(#paint0_linear_2150_135167)" style="mix-blend-mode:overlay"/>
<path d="M229.775 159.993C230.564 160.318 231.26 160.828 231.864 161.432C232.467 162.082 232.932 162.778 233.257 163.568C233.582 164.357 233.721 165.193 233.675 166.075L231.678 223.6C231.632 225.271 230.935 226.85 229.728 228.011C228.521 229.171 226.942 229.821 225.271 229.821C224.76 229.821 224.25 229.775 223.739 229.636H217.146L221.278 252.432C221.371 252.85 221.325 253.268 221.232 253.639C221.139 254.057 220.907 254.382 220.675 254.707C220.442 255.032 220.117 255.264 219.746 255.45C219.375 255.636 219.003 255.728 218.585 255.728C217.982 255.728 217.425 255.543 216.96 255.171C216.496 254.846 216.171 254.336 215.985 253.778L208.742 229.682H138.589L131.346 253.778C131.207 254.336 130.835 254.8 130.371 255.171C129.907 255.543 129.35 255.728 128.746 255.728C128.328 255.728 127.957 255.636 127.585 255.45C127.214 255.264 126.935 255.032 126.657 254.707C126.378 254.382 126.192 254.011 126.1 253.639C126.007 253.221 125.96 252.803 126.053 252.432L130.185 229.636H122.803C122.292 229.728 121.782 229.821 121.271 229.821C119.6 229.821 118.021 229.171 116.814 228.011C115.607 226.85 114.91 225.271 114.864 223.6L112.867 166.075C112.821 165.239 112.96 164.357 113.285 163.568C113.61 162.732 114.075 161.989 114.678 161.386C115.282 160.782 115.978 160.271 116.767 159.946C117.371 159.714 117.975 159.528 118.625 159.482C118.95 157.486 119.785 155.582 121.132 154.003C122.617 152.239 124.567 150.986 126.703 150.382L121.132 93.0891C121.132 90.0713 122.292 87.2391 124.428 85.1034C126.564 82.9677 129.396 81.807 132.414 81.807H157.625C158.275 80.8784 159.203 80.3213 159.482 80.182C159.342 79.7641 158.878 78.0462 159.667 76.7927C160.178 76.0498 161.014 75.632 162.221 75.5391C166.028 75.2605 168.814 77.9998 169.278 78.5105C169.928 77.9534 174.153 74.7034 177.542 75.9105C180.189 76.8391 181.35 79.4855 181.814 81.807H213.153C216.171 81.807 219.003 82.9677 221.139 85.1034C223.275 87.2391 224.435 90.0713 224.435 93.0891L218.632 161.478L218.678 161.432C219.282 160.828 219.978 160.318 220.767 159.993C221.557 159.668 222.392 159.482 223.275 159.482H227.267C228.15 159.482 228.985 159.668 229.775 159.993Z" fill="url(#paint1_linear_2150_135167)" style="mix-blend-mode:overlay"/>
<path fill-rule="evenodd" clip-rule="evenodd" d="M77.4888 189.986H100.796C101.771 189.986 102.514 190.775 102.421 191.703V240.593C102.421 241.568 101.632 242.311 100.703 242.311H89.3745L87.3781 255.403C87.3781 255.45 87.3316 255.496 87.2852 255.496H83.3852C83.3388 255.496 83.2924 255.45 83.2924 255.403L81.3888 242.311H39.4174L37.4209 255.403C37.4209 255.45 37.3745 255.496 37.3281 255.496H33.4281C33.3816 255.496 33.3352 255.45 33.3352 255.403L31.4316 242.311H20.1495C19.1745 242.311 18.4316 241.521 18.4316 240.593V191.425C18.4316 190.45 19.2209 189.707 20.1495 189.707H32.8245C31.3852 188.964 30.1316 187.896 29.2495 186.503C28.3209 185.018 27.8102 183.3 27.8102 181.536C27.8102 179.586 28.4138 177.682 29.5745 176.103C30.7352 174.571 32.3602 173.411 34.2174 172.807V161.525H36.9102L37.3281 156.093C33.4281 152.053 30.4102 147.364 28.3674 142.118C28.3674 142.071 28.3674 142.025 28.4138 141.978C28.4602 141.932 28.5066 141.932 28.5531 141.978C31.2459 144.253 33.1031 147.596 34.8674 150.8C34.9777 150.996 35.0881 151.193 35.1987 151.391C35.9254 152.688 36.6615 154.002 37.4674 155.211C37.5596 154.334 37.6518 153.446 37.7441 152.559L37.7448 152.552L37.7471 152.53L37.7476 152.525C37.8399 151.636 37.9322 150.748 38.0245 149.871C37.9781 149.871 37.9316 149.871 37.9316 149.825C35.4709 146.157 33.7995 142.118 32.9174 137.8C32.8709 137.753 32.9174 137.661 32.9638 137.661C33.0102 137.661 33.0566 137.661 33.1031 137.707C34.8181 139.839 35.7927 142.666 36.7199 145.355L36.7245 145.368C36.778 145.522 36.8315 145.678 36.8852 145.834C37.2509 146.895 37.6256 147.983 38.0709 149.036C38.0941 148.896 38.1057 148.745 38.1174 148.595C38.129 148.444 38.1406 148.293 38.1638 148.153C38.2563 147.482 38.3489 146.8 38.4414 146.117L38.4417 146.115L38.4424 146.111C38.5352 145.426 38.6281 144.741 38.7209 144.068C38.6745 144.068 38.6281 144.068 38.6281 144.021C36.5852 140.168 35.3781 135.989 34.9602 131.625C34.9602 131.532 35.0066 131.486 35.0531 131.486C35.0995 131.439 35.1459 131.486 35.1924 131.532C36.8409 135.096 37.8481 139.131 38.7474 142.734L38.8602 143.186C38.9066 142.837 38.9647 142.501 39.0227 142.164C39.0807 141.828 39.1388 141.491 39.1852 141.143C39.1388 141.143 39.0924 141.096 39.0924 141.05C39.0924 141.003 39.1388 140.957 39.1852 140.957C39.2025 140.853 39.2199 140.748 39.2373 140.643C39.3599 139.903 39.4869 139.135 39.6495 138.403C39.6031 138.403 39.5566 138.403 39.5566 138.357C37.4674 134.921 36.3995 130.975 36.3995 126.936C36.3995 126.889 36.4459 126.843 36.4924 126.843C36.5852 126.843 36.6316 126.889 36.6316 126.936C37.1423 128.769 37.6646 130.603 38.1869 132.437C38.7093 134.271 39.2316 136.105 39.7424 137.939C39.993 136.603 40.3187 135.304 40.652 133.975L40.6521 133.974C40.6893 133.826 40.7265 133.677 40.7638 133.528H40.6709C40.6245 133.528 40.5781 133.528 40.5781 133.482C39.5102 130.65 38.9531 127.725 38.9995 124.707C38.9995 124.661 39.0459 124.614 39.0924 124.614C39.1852 124.614 39.2316 124.661 39.2316 124.707L39.2882 124.89C40.0604 127.387 40.86 129.972 40.9959 132.646C41.3209 131.393 41.6924 130.139 42.1102 128.932H42.0638C42.0174 128.932 41.9709 128.886 41.9709 128.839C41.1816 126.564 40.9031 124.243 41.0424 121.875C41.0424 121.828 41.0888 121.782 41.1352 121.782C41.2281 121.782 41.2745 121.828 41.2745 121.875C41.9245 123.918 42.2959 126.007 42.3888 128.096C42.7602 127.075 43.1316 126.053 43.5495 125.078C43.5031 125.078 43.4566 125.032 43.4566 124.986C43.4566 122.85 43.8281 120.761 44.4781 118.718C44.5245 118.671 44.5709 118.625 44.6174 118.625C44.6638 118.625 44.7102 118.671 44.7102 118.718C44.8959 120.621 44.8031 122.525 44.3388 124.382C44.2924 124.661 44.1531 124.986 43.9209 125.171H43.8745V125.264C43.6424 125.775 43.4102 126.332 43.2245 126.889C44.2924 126.053 45.5924 125.543 46.9388 125.311C46.9852 125.311 47.0316 125.311 47.0316 125.357V125.496C46.4745 126.611 45.3602 127.353 44.2459 127.353H44.0138C43.9209 127.307 43.8745 127.307 43.7816 127.307L43.7352 127.299C43.4772 127.256 43.2605 127.219 43.0852 127.307H42.9924C42.5745 128.421 42.2031 129.536 41.8316 130.696C43.3638 129.721 45.0816 129.118 46.8924 128.839C46.9121 128.839 46.9234 128.839 46.9335 128.843C46.9472 128.848 46.9585 128.859 46.9852 128.886C47.0316 128.932 47.0316 128.978 46.9852 129.025C46.6138 129.536 46.1495 129.953 45.6388 130.278C45.1281 130.603 44.5245 130.836 43.9209 130.928C43.5495 130.975 43.1781 130.975 42.8066 130.975C42.4352 130.975 42.1102 130.975 41.7852 131.021H41.7388C41.2745 132.461 40.9031 133.946 40.5316 135.432C42.3424 134.689 44.3388 134.364 46.3352 134.503C46.3816 134.503 46.4281 134.55 46.4281 134.596C46.4281 134.643 46.4281 134.689 46.3816 134.736C45.5924 135.478 44.5245 135.943 43.4566 136.036C43.2245 136.082 42.9459 136.082 42.7138 136.082C41.9709 136.082 41.1816 135.989 40.4388 135.803C40.3459 136.198 40.2647 136.604 40.1834 137.011C40.1022 137.417 40.0209 137.823 39.9281 138.218C39.8352 138.682 39.7423 139.158 39.6494 139.634C39.5566 140.11 39.4638 140.586 39.3709 141.05C41.1352 139.193 43.5031 137.986 46.0102 137.568C46.0299 137.568 46.0413 137.568 46.0514 137.571C46.065 137.576 46.0764 137.587 46.1031 137.614C46.1495 137.614 46.1495 137.661 46.1495 137.707C46.0566 137.893 45.9638 138.078 45.7781 138.218C43.9674 139.796 41.7388 140.864 39.3709 141.328H39.3245C39.0459 143.046 38.7674 144.764 38.5352 146.482C40.5781 144.207 43.2709 142.582 46.2424 141.746C46.2888 141.746 46.3352 141.746 46.3816 141.793C46.4281 141.839 46.4281 141.886 46.3816 141.932C44.1995 144.857 40.8566 146.157 38.5352 146.9H38.4888C38.3031 148.2 38.1638 149.5 38.0245 150.8C40.3459 149.871 42.8995 149.5 45.4066 149.639C45.4531 149.639 45.4995 149.686 45.4995 149.732C45.4995 149.778 45.4995 149.825 45.4531 149.871C44.4316 150.846 43.1316 151.403 41.7388 151.543C41.4138 151.589 41.1352 151.589 40.8102 151.589C39.7888 151.589 38.8138 151.45 37.9781 151.264C37.7924 153.028 37.6066 154.793 37.4674 156.557C40.1138 154.886 42.9924 153.818 46.0566 153.353C46.11 153.353 46.1327 153.353 46.1512 153.362C46.1649 153.369 46.1762 153.38 46.1959 153.4C46.2424 153.446 46.2424 153.493 46.1959 153.539C44.8959 155.303 42.9924 156.418 41.0424 156.696C40.4388 156.789 39.7888 156.789 39.1852 156.789H39.1847C38.6277 156.789 38.0243 156.789 37.4674 156.836C37.3281 158.461 37.1888 160.132 37.0959 161.757H39.5102V163.057C40.6245 163.196 41.6924 163.428 42.7138 163.846C45.3602 164.961 46.9852 167.375 46.9852 170.114C46.9852 173.689 45.6388 175.825 44.4316 176.753C45.4531 178.239 45.9638 180.003 45.9638 181.814C45.9638 183.578 45.4531 185.296 44.5245 186.782C43.6424 188.128 42.3888 189.243 40.9495 189.986H68.1102C67.7388 189.846 67.4138 189.614 67.0888 189.336C66.4388 188.778 66.0674 187.989 65.9745 187.107L64.2102 167.189C64.2102 167.166 64.2218 167.154 64.2334 167.143L64.237 167.139L64.2396 167.136C64.241 167.135 64.2423 167.133 64.2435 167.132C64.2454 167.13 64.2472 167.127 64.2489 167.125C64.2509 167.121 64.2526 167.118 64.2539 167.114C64.2556 167.109 64.2566 167.103 64.2566 167.096C64.2833 167.07 64.2947 167.058 64.3083 167.053C64.3184 167.05 64.3298 167.05 64.3495 167.05L80.9245 167.003C80.9709 167.003 81.0174 167.003 81.0174 167.05C81.0315 167.064 81.0413 167.074 81.0482 167.082C81.0543 167.089 81.058 167.095 81.0602 167.102C81.0638 167.112 81.0638 167.123 81.0638 167.143L80.7852 170.996C81.9459 171.182 83.0602 171.553 84.1281 172.064C86.4495 173.178 87.6102 174.989 87.4709 177.078C87.0531 183.161 82.3638 185.482 79.9031 185.853H79.8102L79.7174 187.014C79.6709 187.896 79.2995 188.686 78.6495 189.289C78.2781 189.568 77.9066 189.846 77.4888 189.986ZM84.8709 176.893C85.0566 174.618 81.8531 173.736 80.6459 173.503L79.9495 183.253C81.2031 182.882 84.5924 181.489 84.8709 176.893ZM42.3888 164.728C41.4602 164.357 40.4852 164.125 39.5102 164.032V173.132C40.6245 173.457 41.6924 174.014 42.5745 174.757C44.1531 174.478 45.9174 173.364 45.8245 169.789C45.7781 167.514 44.6638 165.703 42.3888 164.728Z" fill="url(#paint2_linear_2150_135167)" style="mix-blend-mode:overlay"/>
<path d="M75.121 152.146C75.1674 152.193 75.1209 152.239 75.0745 152.286C74.2852 152.657 73.8674 153.214 73.9138 154.003C73.9138 154.653 74.3317 155.35 74.9817 155.675C75.6781 156 76.4674 155.907 77.1638 155.396C78.0924 154.7 78.1852 153.771 78.0924 153.121C77.8602 151.543 76.4209 149.918 74.7031 149.268C73.2174 148.711 71.8245 148.943 70.6638 149.964C69.5959 150.893 69.0852 152.007 69.0388 153.307C68.9473 156.965 72.9998 160.939 73.1661 161.102L73.171 161.107C73.2174 161.153 73.2174 161.246 73.171 161.293C73.1245 161.339 73.1245 161.339 73.0781 161.339C73.0317 161.339 72.9852 161.293 72.9852 161.293L72.9724 161.28L72.9606 161.269C72.5722 160.887 68.67 157.053 68.7602 153.307C68.8067 151.914 69.3638 150.753 70.4781 149.778C71.6852 148.711 73.2174 148.478 74.7495 149.036C76.5138 149.686 78.046 151.45 78.2781 153.075C78.4174 154.096 78.0924 154.978 77.2567 155.582C76.4674 156.139 75.5852 156.232 74.8424 155.861C74.0995 155.489 73.6352 154.7 73.6352 153.957C73.6352 153.168 74.146 152.518 74.9817 152.1C75.0281 152.053 75.0745 152.1 75.121 152.146Z" fill="url(#paint3_linear_2150_135167)" style="mix-blend-mode:overlay"/>
<path d="M74.1459 164.078H74.1924C74.2388 164.078 74.2852 164.078 74.2852 164.032C74.3316 163.986 74.2852 163.893 74.2388 163.893C74.1459 163.846 64.5352 157.253 65.5566 149.546C66.0674 145.6 68.8531 143.696 71.3602 143.557C73.9138 143.418 77.3031 144.95 78.4638 149.778C78.4638 149.825 78.5566 149.871 78.6031 149.871C78.6495 149.871 78.6959 149.778 78.6959 149.732C77.4424 144.764 73.9602 143.186 71.3138 143.325C68.6674 143.464 65.7888 145.461 65.2781 149.5C64.3495 157.346 74.0531 164.032 74.1459 164.078Z" fill="url(#paint4_linear_2150_135167)" style="mix-blend-mode:overlay"/>
<path d="M159.9 65.9749H124.057C124.01 65.9749 123.964 65.9284 123.964 65.8356V8.35702C123.964 8.31059 124.01 8.26416 124.057 8.26416H159.9C159.946 8.26416 159.992 8.31059 159.992 8.35702V65.882C159.992 65.9284 159.946 65.9749 159.9 65.9749Z" fill="url(#paint5_linear_2150_135167)" style="mix-blend-mode:overlay"/>
<path d="M79.3924 65.9748H115.235C115.282 65.9748 115.328 65.9284 115.328 65.8819V29.9927C115.328 29.9462 115.282 29.8998 115.235 29.8998H79.3924C79.346 29.8998 79.2995 29.9462 79.2995 29.9927V65.8355C79.2995 65.9284 79.346 65.9748 79.3924 65.9748Z" fill="url(#paint6_linear_2150_135167)" style="mix-blend-mode:overlay"/>
<path d="M252.989 40.2534L258.189 71.6392C258.235 71.9177 258.142 72.2427 258.003 72.4749C257.817 72.707 257.539 72.8463 257.214 72.8463H244.167V83.5249C244.167 84.3142 243.564 84.9177 242.774 84.9177H240.778C239.989 84.9177 239.385 84.3142 239.385 83.5249V72.8463H235.903V102.236C236.599 102.282 237.157 102.839 237.157 103.582V110.5C237.157 111.289 236.507 111.893 235.764 111.893C234.974 111.893 234.371 111.243 234.371 110.5V103.582C234.371 102.886 234.928 102.282 235.624 102.236V72.8463H226.339C226.06 72.8463 225.735 72.707 225.549 72.4749C225.364 72.2427 225.271 71.9642 225.317 71.6392L230.889 40.2534C230.982 39.7427 231.399 39.3713 231.91 39.3713H251.967C252.478 39.3713 252.896 39.7427 252.989 40.2534Z" fill="url(#paint7_linear_2150_135167)" style="mix-blend-mode:overlay"/>
</g>
</g>
<defs>
<linearGradient id="paint0_linear_2150_135167" x1="18.4316" y1="131.996" x2="258.201" y2="131.996" gradientUnits="userSpaceOnUse">
<stop stop-color="#5D6AE8"/>
<stop offset="1" stop-color="#00D2FE"/>
</linearGradient>
<linearGradient id="paint1_linear_2150_135167" x1="18.4316" y1="131.996" x2="258.201" y2="131.996" gradientUnits="userSpaceOnUse">
<stop stop-color="#5D6AE8"/>
<stop offset="1" stop-color="#00D2FE"/>
</linearGradient>
<linearGradient id="paint2_linear_2150_135167" x1="18.4316" y1="131.996" x2="258.201" y2="131.996" gradientUnits="userSpaceOnUse">
<stop stop-color="#5D6AE8"/>
<stop offset="1" stop-color="#00D2FE"/>
</linearGradient>
<linearGradient id="paint3_linear_2150_135167" x1="18.4316" y1="131.996" x2="258.201" y2="131.996" gradientUnits="userSpaceOnUse">
<stop stop-color="#5D6AE8"/>
<stop offset="1" stop-color="#00D2FE"/>
</linearGradient>
<linearGradient id="paint4_linear_2150_135167" x1="18.4316" y1="131.996" x2="258.201" y2="131.996" gradientUnits="userSpaceOnUse">
<stop stop-color="#5D6AE8"/>
<stop offset="1" stop-color="#00D2FE"/>
</linearGradient>
<linearGradient id="paint5_linear_2150_135167" x1="18.4316" y1="131.996" x2="258.201" y2="131.996" gradientUnits="userSpaceOnUse">
<stop stop-color="#5D6AE8"/>
<stop offset="1" stop-color="#00D2FE"/>
</linearGradient>
<linearGradient id="paint6_linear_2150_135167" x1="18.4316" y1="131.996" x2="258.201" y2="131.996" gradientUnits="userSpaceOnUse">
<stop stop-color="#5D6AE8"/>
<stop offset="1" stop-color="#00D2FE"/>
</linearGradient>
<linearGradient id="paint7_linear_2150_135167" x1="18.4316" y1="131.996" x2="258.201" y2="131.996" gradientUnits="userSpaceOnUse">
<stop stop-color="#5D6AE8"/>
<stop offset="1" stop-color="#00D2FE"/>
</linearGradient>
<clipPath id="clip0_2150_135167">
<rect width="260" height="260" fill="white"/>
</clipPath>
<clipPath id="clip1_2150_135167">
<rect width="260" height="260" fill="white"/>
</clipPath>
</defs>
</svg>
