<svg width="260" height="260" viewBox="0 0 260 260" fill="none" xmlns="http://www.w3.org/2000/svg">
<g clip-path="url(#clip0_2567_273970)">
<path d="M94.7247 87.7701C91.1264 90.984 73.6504 97.3997 58.4926 87.7701C51.8965 83.5768 45.4887 82.1901 42.9286 81.7797C42.8664 81.7663 42.8101 81.7333 42.768 81.6856C42.7258 81.6379 42.6999 81.5779 42.6941 81.5144C42.6882 81.4509 42.7027 81.3872 42.7355 81.3326C42.7683 81.278 42.8176 81.2352 42.8763 81.2106L48.1146 79.2862C48.1146 79.2862 46.7239 76.6325 37.7365 77.3079C30.3369 77.8635 24.4174 74.3127 22.5563 73.0382C22.504 73.0053 22.4631 72.957 22.4393 72.8999C22.4155 72.8428 22.4099 72.7797 22.4234 72.7193C22.4368 72.6589 22.4686 72.6041 22.5143 72.5625C22.56 72.5209 22.6175 72.4946 22.6788 72.4871C24.4951 72.1876 29.3003 71.28 32.7283 69.4485C36.8508 67.2425 38.1622 64.9661 38.1622 64.9661C38.1622 64.9661 36.5192 62.4711 31.6722 61.9844C28.6829 61.7057 25.6701 61.8195 22.7101 62.3229C22.641 62.3349 22.57 62.3264 22.5056 62.2986C22.4412 62.2708 22.3862 62.2248 22.3474 62.1662C22.3086 62.1077 22.2877 62.039 22.2871 61.9687C22.2865 61.8984 22.3064 61.8295 22.3442 61.7703C23.2285 60.388 25.6721 57.267 30.6729 55.2617C37.6424 52.4672 44.1279 53.7431 44.1279 53.7431C44.1279 53.7431 42.3356 51.3964 39.3691 50.5982C37.266 50.0366 34.5027 50.375 32.9851 50.6401C32.9165 50.6601 32.8429 50.6548 32.7778 50.6251C32.7128 50.5954 32.6605 50.5433 32.6305 50.4782C32.6004 50.4131 32.5948 50.3394 32.6143 50.2705C32.6339 50.2015 32.6775 50.1419 32.7372 50.1025C35.4258 47.856 43.7515 41.632 51.8995 43.1326C60.878 44.7875 66.6869 43.1326 73.8133 40.8083C88.1018 36.1478 100.287 41.9675 100.287 41.9675L94.7247 87.7701Z" fill="#999999" stroke="black" stroke-width="0.5" stroke-linecap="round" stroke-linejoin="round"/>
<path d="M146.874 88.2743H69.1947C68.6273 88.274 68.0675 88.143 67.5589 87.8915C67.0502 87.64 66.6063 87.2747 66.2616 86.8239C65.9169 86.3732 65.6808 85.8491 65.5713 85.2923C65.4619 84.7355 65.4822 84.161 65.6306 83.6133L78.6455 35.9326C78.8595 35.1508 79.3244 34.461 79.9686 33.9693C80.6129 33.4776 81.4008 33.2111 82.2113 33.2109H159.89C160.459 33.2109 161.019 33.342 161.529 33.594C162.038 33.846 162.483 34.212 162.828 34.6637C163.173 35.1155 163.409 35.6406 163.518 36.1985C163.627 36.7563 163.606 37.3318 163.456 37.8801L150.44 85.5592C150.225 86.34 149.76 87.0286 149.115 87.5192C148.471 88.0097 147.684 88.275 146.874 88.2743Z" fill="#4C4C4C" stroke="black" stroke-width="0.5" stroke-linecap="round" stroke-linejoin="round"/>
<path d="M146.875 88.2735H69.1965C68.628 88.2737 68.0671 88.1426 67.5575 87.8905C67.0479 87.6384 66.6034 87.2722 66.2585 86.8202C65.9136 86.3682 65.6776 85.8428 65.569 85.2847C65.4604 84.7267 65.4821 84.1511 65.6323 83.6027L76.7747 42.832H162.121L150.44 85.5519C150.226 86.3336 149.762 87.0235 149.118 87.5153C148.474 88.0071 147.686 88.2735 146.875 88.2735Z" fill="#333333" stroke="black" stroke-width="0.5" stroke-linecap="round" stroke-linejoin="round"/>
<path d="M85.104 38.3317C85.2398 37.2357 84.5736 36.251 83.616 36.1324C82.6584 36.0138 81.7721 36.8062 81.6364 37.9022C81.5007 38.9982 82.1669 39.9829 83.1244 40.1014C84.082 40.22 84.9683 39.4277 85.104 38.3317Z" fill="#333333" stroke="black" stroke-width="0.5" stroke-linecap="round" stroke-linejoin="round"/>
<path d="M90.0005 38.3317C90.1363 37.2357 89.47 36.251 88.5125 36.1324C87.5549 36.0138 86.6686 36.8062 86.5329 37.9022C86.3971 38.9982 87.0634 39.9829 88.0209 40.1014C88.9785 40.22 89.8648 39.4277 90.0005 38.3317Z" fill="#333333" stroke="black" stroke-width="0.5" stroke-linecap="round" stroke-linejoin="round"/>
<path d="M94.895 38.3298C95.0308 37.2338 94.3646 36.2492 93.407 36.1306C92.4494 36.012 91.5631 36.8043 91.4274 37.9003C91.2917 38.9963 91.9579 39.9809 92.9155 40.0995C93.873 40.2181 94.7593 39.4258 94.895 38.3298Z" fill="#333333" stroke="black" stroke-width="0.5" stroke-linecap="round" stroke-linejoin="round"/>
<path d="M22.2867 67.2633C22.2867 67.2633 20.9792 69.254 16.5733 70.3192C12.5817 71.2826 8.36188 69.2599 6.5875 68.0549C6.54978 68.0296 6.5221 67.9925 6.50914 67.9498C6.49618 67.9071 6.49872 67.8614 6.51625 67.8203C6.53378 67.7791 6.56526 67.7451 6.60553 67.7237C6.6458 67.7023 6.69243 67.6949 6.73762 67.7028C8.14571 67.9444 10.9169 68.0477 14.0288 66.1617C19.2318 63.0127 22.2867 67.2633 22.2867 67.2633Z" fill="#999999" stroke="black" stroke-width="0.5" stroke-linecap="round" stroke-linejoin="round"/>
<path d="M117.81 42.1811C117.919 42.8156 118.052 43.443 118.211 44.0634C119.099 47.5298 120.755 51.1999 119.41 54.5148C118.332 57.1761 115.607 58.752 112.978 59.9124C111.166 60.7126 109.269 61.4183 107.288 61.5095C105.308 61.6008 104.102 60.7485 102.347 60.1129C100.863 59.5734 99.3942 59.461 97.9942 58.5923C95.1438 56.8143 93.563 53.3772 93.5223 50.0233C93.4978 47.8965 94.034 45.799 94.9108 43.8711C95.7746 41.9676 97.0148 40.8333 96.8029 38.6462C96.6171 36.7443 95.7973 34.9549 95.548 33.0595C94.857 27.7971 99.2181 22.5935 104.521 22.3343C105.308 22.3038 106.092 22.4381 106.824 22.7287C107.629 23.027 108.107 22.8493 108.98 22.8493C112.23 22.8493 115.457 24.7251 116.966 27.626C118.315 30.2336 118.017 32.3522 117.66 35.0641C117.351 37.4304 117.402 39.8298 117.81 42.1811Z" fill="#CCCCCC" stroke="black" stroke-width="0.5" stroke-linecap="round" stroke-linejoin="round"/>
<path d="M134.717 66.238C135.196 66.7611 135.636 67.3038 136.034 67.8107C136.995 69.0297 137.919 70.2791 138.804 71.559C139.344 68.5489 139.839 65.5616 140.25 62.5287C140.323 61.9795 140.691 60.899 140.522 60.3808C140.352 59.8625 139.512 59.2204 139.16 58.7722C138.313 57.6936 137.57 56.5373 136.941 55.3189C135.964 53.4202 134.543 51.8508 133.371 50.0646C133.064 49.6002 132.756 49.1047 132.719 48.5506C132.706 48.3697 132.74 48.153 132.903 48.0617C132.99 48.0261 133.086 48.0165 133.178 48.034C133.961 48.122 134.645 48.5686 135.281 49.0395C136.323 49.8162 137.29 50.6892 138.169 51.6471C138.064 49.7908 138.024 47.9558 137.895 46.106C137.776 44.3753 137.525 42.6445 137.445 40.9284C137.412 40.6274 137.438 40.3228 137.523 40.0321C137.568 39.888 137.653 39.7599 137.769 39.6633C137.884 39.5667 138.026 39.5057 138.175 39.4878C138.674 39.4747 138.944 40.0549 139.083 40.534C139.793 42.9949 140.458 45.4933 140.587 48.0519C140.499 45.0272 140.545 42.0019 140.724 38.976C140.722 38.7459 140.768 38.5179 140.858 38.3062C140.904 38.2013 140.98 38.1124 141.077 38.0507C141.173 37.9889 141.286 37.9571 141.4 37.9591C141.692 37.9884 141.867 38.285 141.972 38.5604C142.237 39.319 142.424 40.1026 142.53 40.8991C142.916 43.2035 143.304 45.5096 143.498 47.8368C143.633 46.2462 143.714 44.6523 143.741 43.0552C143.754 42.2751 143.754 41.4945 143.741 40.7133C143.729 40.0924 143.601 39.3932 144.005 38.8587C144.057 38.778 144.13 38.7125 144.216 38.669C144.302 38.6255 144.398 38.6055 144.494 38.611C144.581 38.6329 144.663 38.6733 144.734 38.7295C144.805 38.7857 144.863 38.8564 144.904 38.9369C145.105 39.301 145.247 39.6949 145.323 40.1038C145.644 41.4595 145.865 42.8371 145.983 44.2253C146.052 44.9929 146.171 45.7638 146.192 46.5412C146.208 47.1409 146.391 48.2703 146.154 48.8228C146.859 47.1822 147.566 45.5405 148.273 43.8978C148.426 43.5441 148.599 43.1595 148.957 42.9982C149 42.9721 149.049 42.9583 149.099 42.9583C149.149 42.9583 149.198 42.9721 149.241 42.9982C149.28 43.0374 149.307 43.0864 149.321 43.14C149.671 44.227 149.264 45.7296 149.075 46.8231C148.849 48.0141 148.717 49.2212 148.682 50.433C148.654 52.5516 148.519 54.636 147.968 56.7041C147.787 57.3837 147.527 58.0291 147.509 58.7266C147.508 59.4806 147.599 60.232 147.779 60.9642C149.021 66.7627 149.23 72.7454 148.936 78.6695C148.786 81.6779 148.495 84.7402 147.292 87.5009C146.624 89.0345 145.768 90.4491 144.091 90.9608C142.624 91.4074 140.977 91.2297 139.557 90.7082C137.334 89.8934 135.504 88.2848 133.752 86.691C131.378 84.5316 129.026 82.3054 127.222 79.6473C125.418 76.9892 124.204 73.8325 124.357 70.6268C124.489 67.8889 125.824 65.0271 128.327 63.9026C130.83 62.7781 133.02 64.3834 134.717 66.238Z" fill="#E5E5E5" stroke="black" stroke-width="0.5" stroke-linecap="round" stroke-linejoin="round"/>
<path d="M146.125 59.6194C144.883 59.1209 143.551 58.8888 142.214 58.9381" stroke="black" stroke-width="0.5" stroke-linecap="round" stroke-linejoin="round"/>
<path d="M147.412 49.6773C144.394 47.8201 140.392 48.2351 139.055 48.2844" stroke="black" stroke-width="0.5" stroke-linecap="round" stroke-linejoin="round"/>
<path d="M139.075 70.0508C138.627 73.7828 138.084 77.5019 137.445 81.2078" stroke="black" stroke-width="0.5" stroke-linecap="round" stroke-linejoin="round"/>
<path d="M73.3584 88.2752C77.8907 88.2752 82.3219 88.2068 86.5591 88.2068C87.0366 87.1524 87.55 85.9024 88.0584 84.8675C88.7069 83.5515 89.2777 82.1987 89.768 80.816C90.4199 78.9924 90.3189 77.4311 88.7902 76.0589C87.5295 74.9316 85.9109 74.2863 84.2205 74.2368C82.0122 74.1847 79.5953 74.9604 78.6631 76.965C76.828 80.8991 73.3584 88.2752 73.3584 88.2752Z" fill="#E5E5E5" stroke="black" stroke-width="0.5" stroke-linecap="round" stroke-linejoin="round"/>
<path d="M125.4 56.2215C123.585 54.4418 117.578 54.4157 115.169 54.2365C114.67 54.1984 114.171 54.1686 113.671 54.1468C113.663 54.0148 113.653 53.8828 113.64 53.7524C113.378 50.8189 113.102 47.9115 112.825 44.978C112.688 43.5113 112.499 41.9565 111.513 40.8222C109.762 38.8112 106.603 38.8503 103.994 39.6277C103.61 39.7287 103.243 39.8875 102.907 40.0986C102.617 40.3085 102.373 40.5745 102.189 40.8808C102.004 41.1871 101.883 41.5275 101.833 41.8816C101.717 42.5579 101.8 43.2375 101.87 43.9106C102.16 46.7072 102.221 49.5315 102.245 52.3558C102.245 53.0663 102.185 53.8698 102.208 54.6586C99.4373 55.0008 96.6667 55.4734 93.9337 56.0161C92.7929 56.241 91.5869 56.5246 90.8193 57.39C90.1169 58.182 89.9376 59.3277 90.0582 60.3805C90.3336 62.799 91.9633 64.8296 93.6436 66.5881C96.2283 69.2869 99.1439 71.7315 102.527 73.3189C105.91 74.9062 109.802 75.5874 113.435 74.7139C116.192 74.0506 118.673 72.5382 120.954 70.8531C122.925 69.3961 124.851 67.7094 125.811 65.4555C126.704 63.3857 127.216 58.0011 125.4 56.2215Z" fill="#E5E5E5" stroke="black" stroke-width="0.5" stroke-linecap="round" stroke-linejoin="round"/>
<path d="M117.872 88.2002C120.366 88.2002 124.466 88.2002 126.622 88.2002C126.622 88.2002 126.518 87.5613 126.622 85.9952C126.686 85.0434 126.687 82.2256 126.738 81.3065C126.771 80.6986 126.808 80.0728 127.064 79.5138C127.307 78.9874 127.729 78.5702 128.141 78.1644L137.804 68.668C135.84 65.6139 133.404 62.4864 130.796 59.9881C128.379 57.6804 125.936 55.9138 123.12 54.1211C119.085 59.5676 112.902 64.8398 105.719 64.8186C99.5021 64.7974 95.2681 61.1582 91.5524 56.6944C91.3731 56.4793 91.1677 56.2495 90.889 56.2055C90.4946 56.1534 90.1768 56.507 89.9373 56.8248C84.9389 63.4871 80.6626 70.4558 76.3047 77.5793C80.6392 81.0603 85.6569 83.5916 91.0324 85.0092C91.8554 82.8905 93.0598 80.3384 94.2918 78.4267C94.6031 80.415 94.9878 82.0757 95.0432 83.6614C95.11 85.5062 95.0432 86.4531 94.6846 88.1888C102.68 88.2002 109.258 88.2116 117.872 88.2002Z" fill="#999999" stroke="black" stroke-width="0.5" stroke-linecap="round" stroke-linejoin="round"/>
<path d="M115.591 42.8249C117.833 42.5277 119.361 40.1016 119.004 37.406C118.647 34.7105 116.54 32.7663 114.297 33.0635C112.055 33.3606 110.527 35.7867 110.884 38.4823C111.241 41.1778 113.349 43.122 115.591 42.8249Z" fill="#333333" stroke="black" stroke-width="0.5" stroke-linecap="round" stroke-linejoin="round"/>
<path d="M116.815 35.341C117.496 38.3511 117.744 41.4965 117.141 44.5408C116.538 47.5851 114.581 48.9264 111.506 48.8188C109.296 48.7439 107.298 47.577 105.577 46.2455C103.955 45.0166 102.514 43.5655 101.297 41.9349C100.688 41.1141 100.173 40.2274 99.7618 39.2915C99.3299 38.2892 99.1734 37.106 98.9225 36.032C98.8891 35.9304 98.8891 35.8208 98.9225 35.7191C98.9562 35.6591 99.0031 35.6074 99.0595 35.568C99.1159 35.5285 99.1805 35.5022 99.2484 35.491C107.868 33.198 108.61 27.9258 108.66 27.1484C111.022 28.0024 113.386 29.2671 115.133 31.1282C116.163 32.2413 116.489 33.9069 116.815 35.341Z" fill="#E5E5E5" stroke="black" stroke-width="0.5" stroke-linecap="round" stroke-linejoin="round"/>
<path d="M112.939 43.8983C112.608 44.0661 112.238 44.1421 111.867 44.1183C111.109 44.0743 110.521 43.5333 110.016 43.0395C111.36 42.7685 112.688 42.4175 113.991 41.9883C113.979 42.7999 113.718 43.4941 112.939 43.8983Z" fill="white" stroke="black" stroke-width="0.5" stroke-linecap="round" stroke-linejoin="round"/>
<path d="M111.12 36.1621C111.539 36.7032 111.875 37.2736 112.253 37.8391C112.391 38.0297 112.501 38.2395 112.579 38.4616C112.618 38.5734 112.635 38.6918 112.629 38.8101C112.622 38.9284 112.592 39.0442 112.541 39.151C112.347 39.5112 111.889 39.6171 111.487 39.6872C111.42 39.7076 111.349 39.7017 111.286 39.6709" stroke="black" stroke-width="0.5" stroke-linecap="round" stroke-linejoin="round"/>
<path d="M105.994 36.5693C106.59 36.1365 107.21 35.7371 107.85 35.373" stroke="black" stroke-width="0.5" stroke-linecap="round" stroke-linejoin="round"/>
<path d="M112.16 33.9615L114.409 33.7773" stroke="black" stroke-width="0.5" stroke-linecap="round" stroke-linejoin="round"/>
<path d="M108.389 38.8775C108.669 38.7896 108.757 38.2776 108.587 37.7341C108.416 37.1905 108.05 36.8212 107.771 36.9091C107.491 36.9971 107.402 37.509 107.573 38.0525C107.744 38.5961 108.109 38.9655 108.389 38.8775Z" fill="black"/>
<path d="M113.837 37.1666C114.117 37.0786 114.206 36.5667 114.035 36.0231C113.864 35.4796 113.499 35.1102 113.219 35.1982C112.939 35.2861 112.85 35.7981 113.021 36.3416C113.192 36.8852 113.557 37.2545 113.837 37.1666Z" fill="black"/>
<path d="M108.234 24.4102C110.335 29.7638 103.752 34.9333 98.9521 35.5167" stroke="black" stroke-width="0.5" stroke-linecap="round" stroke-linejoin="round"/>
<path d="M98.36 43.3814C97.1904 40.6818 98.0154 37.7287 100.203 36.7854C102.39 35.8421 105.111 37.2658 106.281 39.9654C107.45 42.665 106.625 45.6182 104.438 46.5615C102.251 47.5048 99.5296 46.0811 98.36 43.3814Z" fill="#4C4C4C" stroke="black" stroke-width="0.5" stroke-linecap="round" stroke-linejoin="round"/>
<path d="M98.7094 43.3025C97.8662 41.3563 98.4612 39.2272 100.038 38.5471C101.615 37.8669 103.577 38.8932 104.421 40.8394C105.264 42.7856 104.669 44.9147 103.092 45.5948C101.515 46.275 99.5525 45.2487 98.7094 43.3025Z" fill="#808080" stroke="black" stroke-width="0.5" stroke-linecap="round" stroke-linejoin="round"/>
<mask id="path-27-inside-1_2567_273970" fill="white">
<path d="M107.176 51.7264C107.783 51.9464 108.423 52.0572 109.068 52.0539L109.07 51.7518C107.023 51.7646 105.15 50.5646 103.93 48.469C102.413 45.8623 101.052 41.6007 101.038 41.5581L100.748 41.6491C100.761 41.6927 102.133 45.985 103.668 48.6207C104.554 50.1497 105.782 51.2218 107.176 51.7264Z"/>
</mask>
<path d="M107.176 51.7264C107.783 51.9464 108.423 52.0572 109.068 52.0539L109.07 51.7518C107.023 51.7646 105.15 50.5646 103.93 48.469C102.413 45.8623 101.052 41.6007 101.038 41.5581L100.748 41.6491C100.761 41.6927 102.133 45.985 103.668 48.6207C104.554 50.1497 105.782 51.2218 107.176 51.7264Z" fill="black"/>
<path d="M107.176 51.7264L107.346 51.2562L107.346 51.2563L107.176 51.7264ZM109.068 52.0539L109.568 52.0561L109.566 52.5513L109.071 52.5539L109.068 52.0539ZM109.07 51.7518L109.067 51.2518L109.572 51.2486L109.57 51.754L109.07 51.7518ZM103.93 48.469L103.498 48.7206L103.498 48.7205L103.93 48.469ZM101.038 41.5581L100.888 41.081L101.362 40.9324L101.514 41.4049L101.038 41.5581ZM100.748 41.6491L100.27 41.7957L100.124 41.3207L100.598 41.172L100.748 41.6491ZM103.668 48.6207L104.1 48.3692L104.1 48.37L103.668 48.6207ZM107.346 51.2563C107.898 51.4562 108.48 51.5569 109.066 51.5539L109.071 52.5539C108.367 52.5575 107.668 52.4365 107.005 52.1964L107.346 51.2563ZM108.568 52.0517L108.57 51.7496L109.57 51.754L109.568 52.0561L108.568 52.0517ZM109.073 52.2518C106.81 52.266 104.788 50.9361 103.498 48.7206L104.362 48.2175C105.512 50.1931 107.236 51.2633 109.067 51.2518L109.073 52.2518ZM103.498 48.7205C102.718 47.3807 101.987 45.6325 101.453 44.2299C101.185 43.5254 100.964 42.902 100.809 42.4518C100.732 42.2266 100.671 42.0445 100.629 41.9171C100.608 41.8534 100.592 41.8034 100.58 41.7684C100.575 41.7509 100.57 41.7372 100.567 41.7275C100.564 41.7188 100.562 41.7108 100.562 41.7112L101.514 41.4049C101.531 41.4576 102.877 45.6658 104.362 48.2176L103.498 48.7205ZM101.187 42.0351L100.897 42.1261L100.598 41.172L100.888 41.081L101.187 42.0351ZM101.226 41.5024C101.226 41.5021 101.247 41.5692 101.289 41.6964C101.33 41.8213 101.39 42.0009 101.467 42.2237C101.62 42.6694 101.839 43.287 102.105 43.9848C102.639 45.3867 103.354 47.0877 104.1 48.3692L103.236 48.8723C101.669 46.1813 100.283 41.8384 100.27 41.7957L101.226 41.5024ZM104.1 48.37C104.937 49.8141 106.079 50.7978 107.346 51.2562L107.006 52.1965C105.484 51.6457 104.171 50.4853 103.235 48.8715L104.1 48.37Z" fill="black" mask="url(#path-27-inside-1_2567_273970)"/>
<path d="M109.626 50.9607L111.28 50.9311C111.747 50.9228 112.133 51.2937 112.143 51.7596L112.144 51.8274C112.153 52.2933 111.782 52.6778 111.315 52.6861L109.661 52.7157C109.194 52.7241 108.808 52.3532 108.799 51.8873L108.797 51.8194C108.788 51.3535 109.159 50.9691 109.626 50.9607Z" fill="#4C4C4C" stroke="black" stroke-width="0.5" stroke-linecap="round" stroke-linejoin="round"/>
<path d="M101.439 40.7895C100.386 38.7834 98.6551 34.4567 100.543 28.8807C102.43 23.3047 107.289 22.7979 107.289 22.7979L106.118 22.542C106.118 22.542 101.589 23.1891 99.2997 29.2406C97.0105 35.2921 98.3594 40.1067 99.5753 42.3058C99.858 42.8161 100.827 44.0012 101.636 43.4079C102.445 42.8145 101.744 41.3706 101.439 40.7895Z" fill="white"/>
<path d="M101.439 40.7895L101.661 40.6733L101.661 40.6736L101.439 40.7895ZM107.289 22.7979L107.342 22.5537L108.859 22.8855L107.315 23.0466L107.289 22.7979ZM106.118 22.542L106.083 22.2945C106.113 22.2902 106.143 22.2913 106.172 22.2977L106.118 22.542ZM99.5753 42.3058L99.3566 42.427L99.3565 42.4268L99.5753 42.3058ZM101.218 40.9058C100.148 38.8678 98.3877 34.4668 100.306 28.8006L100.779 28.9609C98.9224 34.4467 100.624 38.699 101.661 40.6733L101.218 40.9058ZM100.306 28.8006C101.272 25.9466 103.004 24.3806 104.5 23.5309C105.246 23.1071 105.932 22.8624 106.433 22.7233C106.684 22.6538 106.888 22.6106 107.032 22.5846C107.103 22.5716 107.16 22.5629 107.199 22.5574C107.218 22.5547 107.234 22.5527 107.244 22.5514C107.25 22.5507 107.254 22.5502 107.257 22.5499C107.259 22.5497 107.26 22.5496 107.261 22.5495C107.261 22.5494 107.262 22.5494 107.262 22.5494C107.262 22.5493 107.262 22.5493 107.262 22.5493C107.263 22.5493 107.263 22.5493 107.289 22.7979C107.315 23.0466 107.315 23.0466 107.315 23.0466C107.315 23.0466 107.315 23.0465 107.315 23.0465C107.315 23.0465 107.315 23.0465 107.315 23.0466C107.315 23.0466 107.314 23.0466 107.313 23.0467C107.312 23.0469 107.309 23.0472 107.305 23.0477C107.297 23.0487 107.285 23.0502 107.268 23.0525C107.235 23.0572 107.186 23.0648 107.121 23.0766C106.991 23.1001 106.801 23.14 106.567 23.2051C106.098 23.3354 105.451 23.5658 104.747 23.9657C103.342 24.7634 101.701 26.2388 100.779 28.9609L100.306 28.8006ZM107.235 23.0422L106.065 22.7862L106.172 22.2977L107.342 22.5537L107.235 23.0422ZM106.118 22.542C106.154 22.7894 106.154 22.7894 106.154 22.7894C106.154 22.7894 106.154 22.7894 106.154 22.7894C106.154 22.7894 106.154 22.7894 106.154 22.7894C106.154 22.7894 106.154 22.7895 106.153 22.7896C106.151 22.7898 106.149 22.7902 106.146 22.7907C106.139 22.7919 106.127 22.7938 106.112 22.7966C106.082 22.8021 106.036 22.8113 105.975 22.8252C105.854 22.853 105.677 22.8998 105.455 22.9745C105.011 23.1241 104.393 23.3856 103.703 23.8318C102.327 24.7225 100.658 26.3555 99.5335 29.3291L99.0658 29.1522C100.23 26.0742 101.97 24.3579 103.432 23.4121C104.161 22.9401 104.818 22.6616 105.295 22.5007C105.534 22.4203 105.728 22.3692 105.863 22.3379C105.931 22.3223 105.984 22.3117 106.022 22.3048C106.04 22.3014 106.055 22.2989 106.065 22.2973C106.07 22.2964 106.074 22.2958 106.077 22.2953C106.079 22.2951 106.08 22.2949 106.081 22.2948C106.081 22.2947 106.082 22.2946 106.082 22.2946C106.082 22.2946 106.083 22.2945 106.083 22.2945C106.083 22.2945 106.083 22.2945 106.118 22.542ZM99.5335 29.3291C97.2727 35.3056 98.6102 40.0438 99.7941 42.1849L99.3565 42.4268C98.1085 40.1697 96.7483 35.2787 99.0658 29.1522L99.5335 29.3291ZM99.794 42.1847C99.9228 42.4171 100.215 42.8112 100.559 43.0711C100.73 43.2005 100.899 43.2848 101.055 43.3113C101.201 43.3363 101.344 43.3121 101.488 43.2063L101.784 43.6094C101.524 43.8003 101.242 43.8505 100.971 43.8042C100.708 43.7594 100.465 43.6267 100.258 43.4702C99.8447 43.1584 99.5105 42.7048 99.3566 42.427L99.794 42.1847ZM101.488 43.2063C101.765 43.0033 101.819 42.6347 101.711 42.1481C101.607 41.6753 101.369 41.1945 101.218 40.9055L101.661 40.6736C101.814 40.9657 102.079 41.4973 102.199 42.0402C102.316 42.5691 102.316 43.2191 101.784 43.6094L101.488 43.2063Z" fill="black"/>
<path d="M102.687 31.5403C103.784 31.0349 104.743 30.2709 105.481 29.3138C106.219 28.3568 106.714 27.2351 106.924 26.0449" stroke="black" stroke-width="0.5" stroke-linecap="round" stroke-linejoin="round"/>
<path d="M93.0771 74.4863C94.0657 77.0148 94.6848 79.6724 94.9154 82.3774" stroke="black" stroke-width="0.5" stroke-linecap="round" stroke-linejoin="round"/>
<path d="M82.0183 86.1653C82.3149 84.9968 84.8328 84.1021 86.8031 83.9147C88.7734 83.7273 90.043 84.0777 90.8676 84.5552C92.2268 85.3374 95.6981 88.6295 94.6811 89.6366C93.7995 90.5053 92.7581 89.402 92.7581 89.402C92.7581 89.402 92.9846 90.0098 92.4322 90.3342C91.7167 90.7611 90.4129 89.8795 90.4129 89.8795C90.4129 89.8795 90.4569 90.6797 89.761 90.9176C88.7539 91.2615 87.5495 89.8795 87.5495 89.8795C87.5495 89.8795 87.3328 90.4091 86.7998 90.4336C85.395 90.4955 81.6597 87.5881 82.0183 86.1653Z" fill="#E5E5E5" stroke="black" stroke-width="0.5" stroke-linecap="round" stroke-linejoin="round"/>
<path d="M88.502 85.1348C88.502 85.1348 90.1317 86.2609 91.0818 87.3072C91.7035 88.0011 92.2826 88.732 92.8159 89.4959" fill="#E5E5E5"/>
<path d="M88.502 85.1348C88.502 85.1348 90.1317 86.2609 91.0818 87.3072C91.7035 88.0011 92.2826 88.732 92.8159 89.4959" stroke="black" stroke-width="0.5" stroke-linecap="round" stroke-linejoin="round"/>
<path d="M86.249 85.7324C87.1241 86.3915 87.9548 87.1074 88.7359 87.8755C89.3353 88.5088 89.8954 89.1783 90.4129 89.8801" fill="#E5E5E5"/>
<path d="M86.249 85.7324C87.1241 86.3915 87.9548 87.1074 88.7359 87.8755C89.3353 88.5088 89.8954 89.1783 90.4129 89.8801" stroke="black" stroke-width="0.5" stroke-linecap="round" stroke-linejoin="round"/>
<path d="M83.6709 86.0586C83.6709 86.0586 84.9747 87.219 85.739 87.9703C86.6386 88.8536 87.5529 89.8819 87.5529 89.8819" fill="#E5E5E5"/>
<path d="M83.6709 86.0586C83.6709 86.0586 84.9747 87.219 85.739 87.9703C86.6386 88.8536 87.5529 89.8819 87.5529 89.8819" stroke="black" stroke-width="0.5" stroke-linecap="round" stroke-linejoin="round"/>
<path d="M128.144 26.9863H171.85" stroke="black" stroke-width="0.5" stroke-miterlimit="10" stroke-linecap="round" stroke-linejoin="round"/>
<path d="M150.543 24.6055H180.051" stroke="black" stroke-width="0.5" stroke-miterlimit="10" stroke-linecap="round" stroke-linejoin="round"/>
<path d="M125.121 151.881H168.828" stroke="black" stroke-width="0.5" stroke-miterlimit="10" stroke-linecap="round" stroke-linejoin="round"/>
<path d="M115.607 149.5H145.117" stroke="black" stroke-width="0.5" stroke-miterlimit="10" stroke-linecap="round" stroke-linejoin="round"/>
<path d="M14.4502 90.5938H44.572" stroke="black" stroke-width="0.5" stroke-miterlimit="10" stroke-linecap="round" stroke-linejoin="round"/>
<path d="M7.89355 88.2129H28.2308" stroke="black" stroke-width="0.5" stroke-miterlimit="10" stroke-linecap="round" stroke-linejoin="round"/>
<path d="M193.134 39.6508C193.134 39.6508 188.936 38.6791 187.275 44.6242C185.613 50.5694 184.11 62.5599 191.926 67.5387C198.454 71.6955 200.603 66.6646 200.603 66.6646L193.134 39.6508Z" fill="black"/>
<path d="M190.809 40.5584C190.809 40.5584 192.68 34.2177 200.342 35.4139C208.005 36.6101 206.464 42.0501 211.524 43.6727C216.585 45.2953 218.273 43.7836 220.975 47.1184C223.638 50.4051 220.068 53.6931 224.305 54.3253C228.542 54.9575 231.557 55.7701 234.101 57.898C236.644 60.0258 239.37 63.3112 244.273 64.6758C246.806 65.3815 249.907 64.4179 251.823 63.6279C251.919 63.5879 252.027 63.5819 252.128 63.611C252.229 63.64 252.317 63.7023 252.377 63.7878C252.438 63.8732 252.468 63.9768 252.463 64.0815C252.457 64.1862 252.416 64.2859 252.346 64.3644C250.562 66.3693 246.952 69.7107 241.882 70.9685C236.162 72.3839 233.94 70.788 233.316 70.1532C233.309 70.1467 233.3 70.1428 233.29 70.1422C233.28 70.1416 233.271 70.1444 233.263 70.15C233.255 70.1556 233.249 70.1637 233.246 70.173C233.244 70.1823 233.244 70.1923 233.248 70.2013C233.705 71.1369 235.591 72.6887 238.707 73.4572C240.905 73.9999 242.576 73.5427 243.99 73.1819C244.257 73.1124 244.359 73.3957 244.221 73.6416C243.105 75.6251 239.625 78.4841 235.266 76.7759C230.96 75.0865 229.03 76.9791 226.161 77.7757C222.152 78.8878 218.488 77.5873 212.491 70.073C206.493 62.5587 200.595 70.6918 197.963 64.7333C195.332 58.7748 190.809 40.5584 190.809 40.5584Z" fill="black"/>
<path d="M198.748 228.396H190.872L186.849 177.793L187.062 124.518L210.827 127.191L198.838 179.406L198.748 228.396Z" fill="#E5E5E5" stroke="black" stroke-width="0.5" stroke-linecap="round" stroke-linejoin="round"/>
<path d="M239.962 224.238L232.505 226.768L212.438 180.141L195.523 129.621L218.886 124.518L224.31 177.817L239.962 224.238Z" fill="#E5E5E5" stroke="black" stroke-width="0.5" stroke-linecap="round" stroke-linejoin="round"/>
<path d="M182.126 238.958L176.265 241.698C175.662 241.98 175.294 243.283 175.336 243.947L176.463 245.701L183.903 245.256L199.586 238.573L202.794 235.523C202.794 234.677 202.588 233.844 202.194 233.097L199.408 227.82L199.227 220.35H190.364L190.497 228.087L182.126 238.958Z" fill="black" stroke="black" stroke-width="0.5" stroke-miterlimit="10" stroke-linecap="round" stroke-linejoin="round"/>
<path d="M175.333 244.161L175.797 248.613C175.797 248.613 177.668 249.415 182.123 249.415C186.578 249.415 188.093 248.792 188.093 248.792V244.84L194.152 241.9V248.599C194.152 248.599 198.429 248.599 200.568 248.242C202.706 247.885 202.796 246.548 202.796 246.548L203.018 236.613C203.018 235.767 202.962 234.742 202.567 233.988C202.567 233.988 188.534 244.366 175.333 244.161Z" fill="white" stroke="black" stroke-width="0.5" stroke-miterlimit="10" stroke-linecap="round" stroke-linejoin="round"/>
<path d="M225.236 234.545L220.527 238.98C220.042 239.437 220.099 240.789 220.348 241.407L221.968 242.719L228.895 239.97L241.701 228.717L243.797 224.816C243.532 224.013 243.076 223.286 242.467 222.7L238.171 218.557L235.662 211.52L227.242 214.292L229.792 221.597L225.236 234.545Z" fill="black" stroke="black" stroke-width="0.5" stroke-miterlimit="10" stroke-linecap="round" stroke-linejoin="round"/>
<path d="M220.41 241.61L222.243 245.695C222.243 245.695 224.272 245.871 228.503 244.477C232.735 243.083 233.983 242.018 233.983 242.018L232.748 238.264L237.583 233.576L239.678 239.938C239.678 239.938 243.74 238.601 245.661 237.593C247.582 236.586 247.248 235.288 247.248 235.288L244.351 225.782C244.084 224.98 243.711 224.018 243.101 223.43C243.096 223.43 233.014 237.682 220.41 241.61Z" fill="white" stroke="black" stroke-width="0.5" stroke-miterlimit="10" stroke-linecap="round" stroke-linejoin="round"/>
<path d="M186.849 112.781L186.899 165.416C193.958 163.096 195.355 161.894 202.19 164.808C218.879 171.921 224.861 165.996 233.173 164.24C235.706 163.701 238.276 163.355 240.862 163.204C243.802 163.048 246.711 162.524 249.521 161.644C252.061 160.842 254.36 159.957 253.185 159.714C243.739 157.753 234.486 146.437 227.536 135.209C222.356 126.842 211.697 113.344 211.697 113.344L186.849 112.781Z" fill="#333333" stroke="black" stroke-width="0.5" stroke-miterlimit="10" stroke-linecap="round" stroke-linejoin="round"/>
<path d="M178.17 105.184L184.757 95.0377L185.68 77.0098L177.865 78.7941L178.17 105.184Z" fill="#808080" stroke="black" stroke-width="0.5" stroke-linecap="round" stroke-linejoin="round"/>
<path d="M244.332 93.9538C250.363 99.8347 245.754 107.163 242.378 109.568L227.971 119.698L221.481 112.471L232.743 101.11L222.617 92.946L216.713 113.455C216.744 113.963 216.645 114.471 216.425 114.93C216.204 115.389 215.87 115.785 215.454 116.078L187.104 114.837C186.667 114.817 186.253 114.639 185.938 114.336C185.623 114.033 185.43 113.625 185.394 113.19L182.559 78.305C182.386 76.099 182.991 73.9022 184.269 72.0956C185.547 70.289 187.416 68.9866 189.554 68.4142C192.43 67.6551 200.667 65.9923 205.272 65.9536C221.759 65.8226 244.332 93.9538 244.332 93.9538Z" fill="#808080" stroke="black" stroke-width="0.5" stroke-linecap="round" stroke-linejoin="round"/>
<path d="M176.33 60.8513L177.533 67.0812C177.663 67.7561 177.647 68.4512 177.486 69.1195L176.196 74.538L182.663 76.2622L184.478 69.5552L186.821 66.2819C187.16 65.8678 187.376 65.3674 187.446 64.837L188.132 59.611C188.187 59.1846 187.547 58.7916 187.124 58.7168L185.709 61.8337L176.33 60.8513Z" fill="#E5E5E5" stroke="black" stroke-width="0.5" stroke-linecap="round" stroke-linejoin="round"/>
<path d="M191.119 50.9744L185.869 48.4774C185.374 48.2418 184.782 48.4523 184.546 48.9476L178.422 61.8225C178.186 62.3178 178.397 62.9103 178.892 63.1459L184.141 65.6429C184.636 65.8785 185.229 65.668 185.464 65.1727L191.589 52.2978C191.824 51.8025 191.614 51.21 191.119 50.9744Z" fill="white" stroke="black" stroke-width="0.5" stroke-linecap="round" stroke-linejoin="round"/>
<path d="M201.603 53.8574L204.155 66.8116C204.285 67.5577 204.256 68.3229 204.07 69.057C203.884 69.791 203.544 70.4773 203.073 71.0707C202.603 71.664 202.012 72.1511 201.339 72.4997C200.667 72.8484 199.928 73.0508 199.172 73.0936C197.849 73.1691 196.545 72.7522 195.511 71.9232C194.477 71.0943 193.786 69.9119 193.572 68.604L191.619 56.683L201.603 53.8574Z" fill="#E5E5E5" stroke="black" stroke-width="0.5" stroke-miterlimit="10" stroke-linecap="round" stroke-linejoin="round"/>
<path d="M201.571 53.0505L202.857 42.0597L194.005 41.4944C192.768 41.415 191.547 41.811 190.592 42.6015C189.637 43.392 189.02 44.5172 188.867 45.7474C188.427 49.2907 187.902 53.8778 187.907 55.5285C187.915 58.3621 189.938 61.8974 194.019 62.0778C197.374 62.2235 201.035 60.0475 201.912 56.9092C204.31 58.2645 205.326 54.1331 204.117 53.12C202.813 52.0293 201.571 53.0505 201.571 53.0505Z" fill="#E5E5E5" stroke="black" stroke-width="0.5" stroke-miterlimit="10" stroke-linecap="round" stroke-linejoin="round"/>
<path d="M198.493 49.8738C197.583 47.7446 195.625 48.4957 195.625 48.4957" stroke="black" stroke-width="0.5" stroke-linecap="round" stroke-linejoin="round"/>
<path d="M192.141 47.9783C191.265 46.5896 189.772 47.5199 189.772 47.5199" stroke="black" stroke-width="0.5" stroke-linecap="round" stroke-linejoin="round"/>
<path d="M193.425 50.3379C193.425 50.3379 191.972 52.0367 191.954 52.9616C191.937 53.8865 193.3 53.9253 193.3 53.9253" stroke="black" stroke-width="0.5" stroke-linecap="round" stroke-linejoin="round"/>
<path d="M196.151 51.7708C196.555 51.7708 196.882 51.4435 196.882 51.0397C196.882 50.6359 196.555 50.3086 196.151 50.3086C195.747 50.3086 195.42 50.6359 195.42 51.0397C195.42 51.4435 195.747 51.7708 196.151 51.7708Z" fill="black"/>
<path d="M190.947 50.6946C191.351 50.6946 191.678 50.3673 191.678 49.9635C191.678 49.5598 191.351 49.2324 190.947 49.2324C190.543 49.2324 190.216 49.5598 190.216 49.9635C190.216 50.3673 190.543 50.6946 190.947 50.6946Z" fill="black"/>
<path d="M204.498 42.1398C204.498 42.1398 208.199 48.9484 200.409 48.113C192.884 47.311 191.175 41.0879 191.175 41.0879L192.616 41.1133C192.616 41.1133 192.443 42.1638 194.336 43.5766C200.409 48.1063 204.498 42.1398 204.498 42.1398Z" fill="black"/>
<path d="M183.157 55.2108L178.756 56.3212C178.232 56.4534 177.915 56.9853 178.047 57.5092C178.179 58.0331 178.711 58.3507 179.235 58.2185L183.636 57.1081C184.16 56.9759 184.478 56.4441 184.345 55.9201C184.213 55.3962 183.681 55.0786 183.157 55.2108Z" fill="#E5E5E5" stroke="black" stroke-width="0.5" stroke-miterlimit="10" stroke-linecap="round" stroke-linejoin="round"/>
<path d="M182.026 57.0487L177.624 58.1591C177.1 58.2913 176.783 58.8232 176.915 59.3471C177.047 59.871 177.579 60.1886 178.103 60.0564L182.504 58.946C183.028 58.8138 183.346 58.2819 183.214 57.758C183.081 57.2341 182.549 56.9165 182.026 57.0487Z" fill="#E5E5E5" stroke="black" stroke-width="0.5" stroke-miterlimit="10" stroke-linecap="round" stroke-linejoin="round"/>
<path d="M180.591 59.0855L177.071 59.9736C176.547 60.1057 176.229 60.6376 176.361 61.1615C176.494 61.6855 177.025 62.003 177.549 61.8709L181.069 60.9828C181.593 60.8506 181.911 60.3187 181.779 59.7948C181.646 59.2709 181.115 58.9533 180.591 59.0855Z" fill="#E5E5E5" stroke="black" stroke-width="0.5" stroke-miterlimit="10" stroke-linecap="round" stroke-linejoin="round"/>
<path d="M172.638 107.445C169.297 106.788 167.31 102.928 168.322 99.0516L175.807 70.3711L185.527 72.2824L179.723 101.801C178.994 105.543 175.819 108.071 172.638 107.445Z" fill="#808080" stroke="black" stroke-width="0.5" stroke-linecap="round" stroke-linejoin="round"/>
<path d="M202.569 57.3357C203.5 57.3357 204.255 56.5811 204.255 55.6503C204.255 54.7194 203.5 53.9648 202.569 53.9648C201.638 53.9648 200.884 54.7194 200.884 55.6503C200.884 56.5811 201.638 57.3357 202.569 57.3357Z" fill="#808080" stroke="black" stroke-width="0.5" stroke-miterlimit="10" stroke-linecap="round" stroke-linejoin="round"/>
<path d="M242.311 163.143C214.898 162.388 205.154 123.809 205.154 123.809" stroke="black" stroke-width="0.5" stroke-miterlimit="10" stroke-linecap="round" stroke-linejoin="round"/>
<path d="M191.522 40.6246C191.522 40.6246 192.557 42.6107 197.196 44.3242C201.615 45.9549 205.327 43.5931 205.327 43.5931C205.327 43.5931 206.691 40.92 205.106 40.4134C203.521 39.9068 191.522 40.6246 191.522 40.6246Z" fill="black"/>
<path d="M192.537 56.0684L196.578 56.1873C196.578 56.1873 196.226 58.0412 194.446 58.0786C192.89 58.112 192.537 56.0684 192.537 56.0684Z" fill="white" stroke="black" stroke-width="0.5" stroke-linecap="round" stroke-linejoin="round"/>
<path d="M226.251 110.283L219.546 115.878C219.511 115.906 219.471 115.926 219.427 115.937C219.384 115.949 219.339 115.951 219.295 115.944C219.251 115.937 219.209 115.921 219.171 115.897C219.134 115.873 219.101 115.841 219.077 115.804C219.077 115.804 218.152 114.576 217.74 113.981C217.286 113.319 216.342 112.121 215.201 111.428C213.855 110.613 208.96 108.581 208.476 109.986C208.075 111.161 209.571 111.44 209.571 111.44C209.571 111.44 207.613 111.006 207.541 111.876C207.428 113.223 210.128 113.777 210.128 113.777C210.128 113.777 208.608 113.67 208.698 114.579C208.801 115.648 211.465 116.275 211.465 116.275C211.465 116.275 210.68 116.275 210.93 117.007C211.095 117.495 212.71 118.574 214.016 119.233C215.31 119.887 216.477 120.765 217.463 121.828L217.648 122.025C219.599 124.139 221.338 122.435 222.367 121.735L230.061 116.186L226.251 110.283Z" fill="#E5E5E5" stroke="black" stroke-width="0.5" stroke-linecap="round" stroke-linejoin="round"/>
<path d="M215.255 113.513C215.255 113.513 213.544 112.51 212.188 112.085C211.293 111.811 210.382 111.592 209.461 111.43" fill="#E5E5E5"/>
<path d="M215.255 113.513C215.255 113.513 213.544 112.51 212.188 112.085C211.293 111.811 210.382 111.592 209.461 111.43" stroke="black" stroke-width="0.5" stroke-linecap="round" stroke-linejoin="round"/>
<path d="M215.667 115.811C214.698 115.294 213.695 114.841 212.666 114.454C211.835 114.177 210.986 113.95 210.127 113.775" fill="#E5E5E5"/>
<path d="M215.667 115.811C214.698 115.294 213.695 114.841 212.666 114.454C211.835 114.177 210.986 113.95 210.127 113.775" stroke="black" stroke-width="0.5" stroke-linecap="round" stroke-linejoin="round"/>
<path d="M215.87 118.324C215.87 118.324 214.586 117.574 213.598 117.13C212.443 116.614 211.469 116.277 211.469 116.277" fill="#E5E5E5"/>
<path d="M215.87 118.324C215.87 118.324 214.586 117.574 213.598 117.13C212.443 116.614 211.469 116.277 211.469 116.277" stroke="black" stroke-width="0.5" stroke-linecap="round" stroke-linejoin="round"/>
<path d="M234.41 99.4297L219.721 114.248L224.349 122.245L237.055 113.316" fill="#808080"/>
<path d="M234.41 99.4297L219.721 114.248L224.349 122.245L237.055 113.316" stroke="black" stroke-width="0.5" stroke-linecap="round" stroke-linejoin="round"/>
<path d="M213.308 34.0231C213.308 34.0231 213.763 30.1109 216.159 30.8153C219.635 31.8311 214.733 40.2049 214.733 40.2049C214.733 40.2049 209.047 36.2339 209.907 34.2276C210.903 31.898 213.308 34.0231 213.308 34.0231Z" fill="#CCCCCC" stroke="black" stroke-width="0.5" stroke-linecap="round" stroke-linejoin="round"/>
<path fill-rule="evenodd" clip-rule="evenodd" d="M11.2703 249.046H7.71094L11.2484 227.106V227.101H11.2492L14.5168 206.834H18.0762L14.8086 227.101H43.0159L39.7489 206.834H43.3083L46.5752 227.101H131.231L134.498 206.834H138.059L134.791 227.101H162.894L159.626 206.834H163.186L169.991 249.046H166.432L163.425 230.395H134.26L131.253 249.046H127.693L130.7 230.395H47.1063L50.1128 249.046H46.5535L43.547 230.395H14.2773L11.2703 249.046Z" fill="#999999"/>
<path d="M7.71094 249.046L7.46412 249.006C7.45246 249.079 7.47311 249.152 7.52061 249.208C7.56811 249.264 7.63768 249.296 7.71094 249.296V249.046ZM11.2703 249.046V249.296C11.393 249.296 11.4976 249.207 11.5171 249.086L11.2703 249.046ZM11.2484 227.106L11.4952 227.146C11.4973 227.132 11.4984 227.119 11.4984 227.106H11.2484ZM11.2484 227.101V226.851C11.1103 226.851 10.9984 226.963 10.9984 227.101H11.2484ZM11.2492 227.101V227.351C11.3719 227.351 11.4765 227.262 11.496 227.14L11.2492 227.101ZM14.5168 206.834V206.584C14.3941 206.584 14.2896 206.673 14.27 206.794L14.5168 206.834ZM18.0762 206.834L18.323 206.874C18.3346 206.801 18.314 206.728 18.2665 206.672C18.219 206.616 18.1494 206.584 18.0762 206.584V206.834ZM14.8086 227.101L14.5617 227.061C14.5501 227.133 14.5707 227.207 14.6182 227.263C14.6657 227.319 14.7353 227.351 14.8086 227.351V227.101ZM43.0159 227.101V227.351C43.0892 227.351 43.1587 227.319 43.2062 227.263C43.2537 227.207 43.2744 227.133 43.2627 227.061L43.0159 227.101ZM39.7489 206.834V206.584C39.6757 206.584 39.6061 206.616 39.5586 206.672C39.5111 206.728 39.4904 206.801 39.5021 206.874L39.7489 206.834ZM43.3083 206.834L43.5551 206.794C43.5355 206.673 43.431 206.584 43.3083 206.584V206.834ZM46.5752 227.101L46.3284 227.14C46.3479 227.262 46.4525 227.351 46.5752 227.351V227.101ZM131.231 227.101V227.351C131.354 227.351 131.458 227.262 131.478 227.14L131.231 227.101ZM134.498 206.834V206.584C134.375 206.584 134.271 206.673 134.251 206.794L134.498 206.834ZM138.059 206.834L138.305 206.874C138.317 206.801 138.296 206.728 138.249 206.672C138.201 206.616 138.132 206.584 138.059 206.584V206.834ZM134.791 227.101L134.544 227.061C134.533 227.133 134.553 227.207 134.601 227.263C134.648 227.319 134.718 227.351 134.791 227.351V227.101ZM162.894 227.101V227.351C162.967 227.351 163.037 227.319 163.084 227.263C163.132 227.207 163.152 227.133 163.141 227.061L162.894 227.101ZM159.626 206.834V206.584C159.553 206.584 159.483 206.616 159.436 206.672C159.388 206.728 159.368 206.801 159.379 206.874L159.626 206.834ZM163.186 206.834L163.432 206.794C163.413 206.673 163.308 206.584 163.186 206.584V206.834ZM169.991 249.046V249.296C170.065 249.296 170.134 249.264 170.182 249.208C170.229 249.152 170.25 249.079 170.238 249.006L169.991 249.046ZM166.432 249.046L166.185 249.086C166.205 249.207 166.309 249.296 166.432 249.296V249.046ZM163.425 230.395L163.672 230.356C163.652 230.234 163.548 230.145 163.425 230.145V230.395ZM134.26 230.395V230.145C134.137 230.145 134.033 230.234 134.013 230.356L134.26 230.395ZM131.253 249.046V249.296C131.375 249.296 131.48 249.207 131.5 249.086L131.253 249.046ZM127.693 249.046L127.447 249.006C127.435 249.079 127.456 249.152 127.503 249.208C127.551 249.264 127.62 249.296 127.693 249.296V249.046ZM130.7 230.395L130.947 230.435C130.958 230.363 130.938 230.289 130.89 230.233C130.843 230.177 130.773 230.145 130.7 230.145V230.395ZM47.1063 230.395V230.145C47.0331 230.145 46.9635 230.177 46.916 230.233C46.8685 230.289 46.8479 230.363 46.8595 230.435L47.1063 230.395ZM50.1128 249.046V249.296C50.1861 249.296 50.2556 249.264 50.3031 249.208C50.3506 249.152 50.3713 249.079 50.3596 249.006L50.1128 249.046ZM46.5535 249.046L46.3067 249.086C46.3262 249.207 46.4308 249.296 46.5535 249.296V249.046ZM43.547 230.395L43.7938 230.356C43.7743 230.234 43.6697 230.145 43.547 230.145V230.395ZM14.2773 230.395V230.145C14.1546 230.145 14.0501 230.234 14.0305 230.356L14.2773 230.395ZM7.71094 249.296H11.2703V248.796H7.71094V249.296ZM11.0016 227.066L7.46412 249.006L7.95775 249.086L11.4952 227.146L11.0016 227.066ZM10.9984 227.101V227.106H11.4984V227.101H10.9984ZM11.2492 226.851H11.2484V227.351H11.2492V226.851ZM14.27 206.794L11.0024 227.061L11.496 227.14L14.7637 206.874L14.27 206.794ZM18.0762 206.584H14.5168V207.084H18.0762V206.584ZM15.0554 227.14L18.323 206.874L17.8294 206.794L14.5617 227.061L15.0554 227.14ZM43.0159 226.851H14.8086V227.351H43.0159V226.851ZM39.5021 206.874L42.7691 227.14L43.2627 227.061L39.9957 206.794L39.5021 206.874ZM43.3083 206.584H39.7489V207.084H43.3083V206.584ZM46.822 227.061L43.5551 206.794L43.0614 206.874L46.3284 227.14L46.822 227.061ZM131.231 226.851H46.5752V227.351H131.231V226.851ZM134.251 206.794L130.984 227.061L131.478 227.14L134.745 206.874L134.251 206.794ZM138.059 206.584H134.498V207.084H138.059V206.584ZM135.038 227.14L138.305 206.874L137.812 206.794L134.544 227.061L135.038 227.14ZM162.894 226.851H134.791V227.351H162.894V226.851ZM159.379 206.874L162.647 227.14L163.141 227.061L159.873 206.794L159.379 206.874ZM163.186 206.584H159.626V207.084H163.186V206.584ZM170.238 249.006L163.432 206.794L162.939 206.874L169.745 249.086L170.238 249.006ZM166.432 249.296H169.991V248.796H166.432V249.296ZM163.178 230.435L166.185 249.086L166.679 249.006L163.672 230.356L163.178 230.435ZM134.26 230.645H163.425V230.145H134.26V230.645ZM131.5 249.086L134.507 230.435L134.013 230.356L131.006 249.006L131.5 249.086ZM127.693 249.296H131.253V248.796H127.693V249.296ZM130.453 230.356L127.447 249.006L127.94 249.086L130.947 230.435L130.453 230.356ZM47.1063 230.645H130.7V230.145H47.1063V230.645ZM50.3596 249.006L47.3531 230.356L46.8595 230.435L49.866 249.086L50.3596 249.006ZM46.5535 249.296H50.1128V248.796H46.5535V249.296ZM43.3002 230.435L46.3067 249.086L46.8003 249.006L43.7938 230.356L43.3002 230.435ZM14.2773 230.645H43.547V230.145H14.2773V230.645ZM11.5171 249.086L14.5242 230.435L14.0305 230.356L11.0235 249.006L11.5171 249.086Z" fill="black"/>
<path d="M173.179 202.428H6.03613V207.071H173.179V202.428Z" fill="#E5E5E5" stroke="black" stroke-width="0.5" stroke-linecap="round" stroke-linejoin="round"/>
<path d="M53.2587 202.429H49.6787L54.0894 175.5H57.6694L53.2587 202.429Z" fill="#999999" stroke="black" stroke-width="0.5" stroke-miterlimit="10" stroke-linecap="round" stroke-linejoin="round"/>
<path d="M158.652 202.429H155.072L159.385 175.732H162.965L158.652 202.429Z" fill="#999999" stroke="black" stroke-width="0.5" stroke-miterlimit="10" stroke-linecap="round" stroke-linejoin="round"/>
<path d="M173.896 194.005H39.4648L40.9311 187.359H175.361L173.896 194.005Z" fill="#E5E5E5" stroke="black" stroke-width="0.5" stroke-linecap="round" stroke-linejoin="round"/>
<path d="M175.989 182.07H41.5586L43.0248 175.426H177.455L175.989 182.07Z" fill="#E5E5E5" stroke="black" stroke-width="0.5" stroke-linecap="round" stroke-linejoin="round"/>
<path d="M98.5669 179.314C98.5669 179.314 98.2876 187.402 93.4605 185.026C91.3373 183.983 89.3694 183.729 88.0354 183.867C86.4743 184.027 86.0977 184.778 86.0977 185.471C86.0977 186.417 87.0051 187.011 87.8361 187.1C89.5154 187.279 92.0477 187.17 93.654 189.023C96.2408 192.007 98.881 193.06 101.759 192.891C105.902 192.648 109.972 186.967 109.972 186.967L98.5669 179.314Z" fill="#666666" stroke="black" stroke-width="0.5" stroke-miterlimit="10" stroke-linecap="round" stroke-linejoin="round"/>
<path d="M140.41 180.738C140.41 180.738 142.396 187.015 138.932 190.385C135.468 193.756 135.061 194.022 135.061 194.022L135.375 194.786C135.663 195.485 135.71 196.26 135.509 196.989C135.308 197.717 134.871 198.359 134.266 198.812L129.967 202.039C129.788 202.173 129.568 202.239 129.346 202.228C129.123 202.216 128.912 202.126 128.749 201.974C128.656 201.888 128.582 201.785 128.53 201.67C128.478 201.556 128.449 201.432 128.445 201.306C128.441 201.181 128.463 201.055 128.507 200.938C128.552 200.82 128.62 200.713 128.707 200.621L132.338 196.81C132.338 196.81 127.642 194.567 126.957 189.709C126.272 184.85 129.319 180.174 129.319 180.174L140.41 180.738Z" fill="#666666" stroke="black" stroke-width="0.5" stroke-linecap="round" stroke-linejoin="round"/>
<path d="M143.465 174.107L157.858 175.268C157.858 175.268 152.999 177.883 149.733 177.59C147.127 177.358 145.786 178.286 145.786 178.286L143.465 174.107Z" fill="#4C4C4C" stroke="black" stroke-width="0.5" stroke-linecap="round" stroke-linejoin="round"/>
<path d="M150.989 184.585C150.989 177.515 143.572 171.914 135.995 172.228C132.303 172.381 122.132 174.321 113.909 174.362C108.327 174.391 102.937 172.322 98.8079 168.565L98.0535 167.877C93.7989 164.131 90.511 162.073 85.5031 162.146C79.6631 162.231 66.612 162.262 66.612 162.262C64.9512 167.979 73.196 171.059 76.564 171.828C81.1222 172.871 86.0605 174.592 86.8254 174.895C90.5896 176.387 93.8891 178.854 96.3857 182.042L110.369 198.041C110.369 198.041 108.692 199.218 107.536 199.947C107.083 200.232 106.716 200.653 106.79 201.183C106.812 201.343 106.867 201.497 106.952 201.634C107.038 201.772 107.151 201.89 107.285 201.98C107.42 202.071 107.571 202.132 107.731 202.16C107.89 202.188 108.054 202.182 108.211 202.142C108.211 202.142 112.879 200.312 114.347 199.625C116.163 198.775 115.499 196.768 114.882 195.841L114.245 194.517C114.245 194.517 121.199 186.323 129.659 185.628C138.12 184.933 139.241 185.512 139.241 185.512C139.241 185.512 134.257 187.598 136.227 192.775C137.467 196.034 138.931 197.102 138.931 197.102L135.016 200.088C134.776 200.22 134.592 200.436 134.5 200.695C134.409 200.954 134.416 201.237 134.52 201.491C134.576 201.628 134.659 201.752 134.764 201.856C134.869 201.96 134.994 202.043 135.131 202.099C135.268 202.154 135.414 202.182 135.562 202.181C135.71 202.179 135.856 202.148 135.992 202.09C135.992 202.09 139.548 200.515 140.695 199.898C143.283 198.508 143.863 196.693 142.974 195.302C142.974 195.298 150.984 192.721 150.989 184.585Z" fill="#808080" stroke="black" stroke-width="0.5" stroke-miterlimit="10" stroke-linecap="round" stroke-linejoin="round"/>
<path d="M75.3677 170.496C75.3677 170.496 74.582 172.533 76.135 173.803C77.688 175.073 78.5352 174.161 79.0381 175.386C79.5411 176.611 80.6352 178.631 83.1015 177.727C85.5677 176.823 84.476 174.343 83.7968 173.776C82.6518 172.828 81.0651 173.301 80.5865 172.228C80.1078 171.155 80.1311 170.352 80.1311 170.352C79.3129 170.716 78.4235 170.893 77.528 170.87C76.7933 170.854 76.0651 170.728 75.3677 170.496Z" fill="#B3B3B3" stroke="black" stroke-width="0.5" stroke-linecap="round" stroke-linejoin="round"/>
<path d="M78.0633 170.859C78.0633 170.859 77.5592 173.09 80.4311 173.693C82.6192 174.157 82.8533 175.608 82.8533 175.608" stroke="black" stroke-width="0.5" stroke-linecap="round" stroke-linejoin="round"/>
<path d="M83.8751 166.697C84.5472 166.697 85.092 166.153 85.092 165.481C85.092 164.809 84.5472 164.264 83.8751 164.264C83.203 164.264 82.6582 164.809 82.6582 165.481C82.6582 166.153 83.203 166.697 83.8751 166.697Z" fill="black" stroke="black" stroke-width="0.5" stroke-linecap="round" stroke-linejoin="round"/>
<path d="M107.239 173.374C107.239 173.374 100.57 180.357 109.261 181.371C115.828 182.137 118.97 179.45 121.056 178.944C123.143 178.437 130.128 185.906 137.798 181.184C140.605 179.456 139.857 174.437 135.46 174.384C137.694 173.303 136.967 172.218 136.967 172.218C136.967 172.218 136.283 172.025 131.968 172.64C126.405 173.432 119.64 174.209 116.183 174.308C109.854 174.489 107.239 173.374 107.239 173.374Z" fill="#4C4C4C" stroke="black" stroke-width="0.5" stroke-linecap="round" stroke-linejoin="round"/>
<path d="M66.6125 162.256H69.6258C69.6258 162.256 70.0128 163.955 69.008 164.728C68.0032 165.501 66.7295 165.481 66.7295 165.481C66.7295 165.481 66.3945 164.632 66.3945 163.868C66.3974 163.323 66.4707 162.782 66.6125 162.256Z" fill="black" stroke="black" stroke-width="0.5" stroke-linecap="round" stroke-linejoin="round"/>
<path d="M102.701 171.508C103.059 171.098 103.016 170.476 102.606 170.118C102.196 169.761 101.573 169.803 101.216 170.213L93.3444 179.243C92.9869 179.653 93.0295 180.275 93.4396 180.633C93.8497 180.99 94.472 180.948 94.8295 180.538L102.701 171.508Z" fill="#E5E5E5" stroke="black" stroke-width="0.5" stroke-linecap="round" stroke-linejoin="round"/>
<path d="M91.8529 161.561H124.092C124.326 161.561 124.556 161.617 124.764 161.724C124.971 161.832 125.15 161.987 125.285 162.178C126.458 163.825 128.704 168.321 120.079 170.291C109.417 172.725 92.4961 168.359 89.9151 164.683C88.4814 162.642 90.9095 161.561 91.8529 161.561Z" fill="#4C4C4C" stroke="black" stroke-width="0.5" stroke-linecap="round" stroke-linejoin="round"/>
<path d="M82.8536 168.961C82.8536 168.961 79.9562 170.815 78.0636 170.858C76.1711 170.901 75.3633 170.497 75.3633 170.497" stroke="black" stroke-width="0.5" stroke-linecap="round" stroke-linejoin="round"/>
<path d="M22.471 62.3996C22.5639 62.446 22.6567 62.446 22.7496 62.446C25.721 61.9353 28.6924 61.8425 31.6639 62.121C35.9817 62.5389 37.746 64.6282 38.0246 64.9996C37.7924 65.371 36.3531 67.4139 32.6853 69.3639C29.3424 71.1746 24.5603 72.0567 22.6567 72.3817C22.5639 72.3817 22.471 72.4282 22.4246 72.4746C22.3781 72.521 22.3317 72.6139 22.2853 72.7067V72.9389C22.3317 73.0318 22.3781 73.0782 22.4246 73.1246C24.096 74.2853 30.1781 77.9996 37.6996 77.396C45.4067 76.8389 47.496 78.696 47.8674 79.2067L42.7603 81.0639C42.6674 81.1103 42.621 81.1567 42.5746 81.2496C42.5281 81.3425 42.5281 81.4353 42.5281 81.4817C42.5281 81.5746 42.5746 81.6675 42.621 81.7139C42.6674 81.7603 42.7603 81.8068 42.8531 81.8532C45.3139 82.2246 51.7674 83.6175 58.3603 87.8425C64.6281 91.8353 71.1281 92.9496 76.3746 92.9496C77.9996 92.9496 79.5317 92.8568 80.8781 92.671C83.7103 92.346 86.4032 91.696 88.6781 90.9068C88.9103 90.9996 89.1424 91.046 89.3281 91.046C89.4674 91.046 89.5603 91.046 89.6996 90.9996C90.1174 90.8603 90.3031 90.5353 90.396 90.2567C90.4424 90.2335 90.4772 90.2219 90.5121 90.2103C90.5469 90.1987 90.5817 90.1871 90.6281 90.1639C91.0924 90.396 91.8817 90.721 92.3924 90.396C92.7174 90.2103 92.8103 89.9318 92.8103 89.6532C93.0424 89.8389 93.4139 90.0246 93.7853 90.0246C94.1103 90.0246 94.3889 89.8853 94.6674 89.6532C94.8531 89.4675 94.8996 89.2353 94.8531 88.9567C94.8499 88.9437 94.8466 88.9305 94.8434 88.917L94.8303 88.863C94.7904 88.6969 94.7452 88.5087 94.6674 88.3532H135.432C136.685 89.3746 137.985 90.2567 139.425 90.7675C140.353 91.0925 141.282 91.2782 142.21 91.2782C142.86 91.2782 143.464 91.1853 144.021 90.9996C145.46 90.5817 146.296 89.4675 146.9 88.3068C147.689 88.2603 148.478 88.0282 149.082 87.5175C149.732 87.0067 150.242 86.3103 150.428 85.4746L151.542 81.4353L162.128 42.7603V42.7139L163.475 37.7925C163.614 37.2353 163.66 36.6318 163.521 36.0746C163.428 35.5175 163.15 34.9603 162.825 34.496C162.5 34.0318 161.989 33.6603 161.478 33.3818C160.967 33.1032 160.364 32.9639 159.807 32.9639H117.928C118.114 31.1068 118.021 29.3889 117 27.4389C115.514 24.5603 112.264 22.6103 108.921 22.6103C108.642 22.6103 108.457 22.6103 108.225 22.6568H107.714L107.25 22.5639L106.507 22.4246C105.857 22.1925 105.16 22.0996 104.464 22.0996C101.91 22.2389 99.4031 23.4925 97.6389 25.6282C95.8746 27.7639 95.0389 30.4103 95.3639 32.9639H82.1317C81.296 32.9639 80.4603 33.2425 79.8103 33.7532C79.1603 34.2639 78.6496 34.9603 78.4639 35.796L77.4424 39.6032C76.2353 39.8818 74.9817 40.2068 73.7281 40.5782C66.2067 43.0389 60.6353 44.5246 51.8603 42.8996C43.596 41.3675 35.0067 47.8675 32.5924 49.8639C32.4996 49.9103 32.4531 50.0032 32.4067 50.096C32.3758 50.1579 32.3861 50.2199 32.3964 50.2818C32.4016 50.3127 32.4067 50.3437 32.4067 50.3746C32.4531 50.4675 32.4996 50.5603 32.5924 50.5603C32.6853 50.6068 32.7781 50.6068 32.871 50.6068C34.3567 50.3282 37.096 50.0032 39.1853 50.5603C41.5067 51.2103 43.1317 52.8353 43.6889 53.4389C42.296 53.2532 36.5389 52.6032 30.5031 55.0175C25.396 57.0603 22.9353 60.2639 22.0996 61.5639C22.0531 61.6568 22.0067 61.7496 22.0067 61.8425C22.0067 61.9353 22.0531 62.0282 22.0996 62.121C22.2853 62.3068 22.3781 62.3532 22.471 62.3996Z" fill="url(#paint0_linear_2567_273970)" style="mix-blend-mode:overlay"/>
<path d="M6.49971 68.1567C6.52829 68.1738 6.56797 68.1985 6.61819 68.2298C7.38364 68.7068 10.5991 70.7102 14.3461 70.7102C15.089 70.7102 15.8319 70.6174 16.5747 70.4317C20.6875 69.436 22.0956 67.6733 22.3423 67.3644C22.3602 67.3421 22.372 67.3272 22.3783 67.321C22.4247 67.2745 22.4247 67.2281 22.3783 67.1817C22.3767 67.1801 22.3718 67.1739 22.3635 67.1634L22.3631 67.163C22.118 66.8537 19.0428 62.9727 13.9747 66.0674C10.864 67.9245 8.12471 67.8317 6.77828 67.5995C6.68542 67.5995 6.63899 67.5995 6.59256 67.646L6.45328 67.7852C6.40685 67.8317 6.40685 67.9245 6.45328 67.971C6.40685 68.0638 6.45328 68.1102 6.49971 68.1567Z" fill="url(#paint1_linear_2567_273970)" style="mix-blend-mode:overlay"/>
<path d="M171.832 27.1139H128.142C128.096 27.1139 128.05 27.0674 128.05 27.021C128.05 26.9746 128.096 26.9281 128.142 26.9281H171.832C171.878 26.9281 171.925 26.9746 171.925 27.021C171.925 27.0674 171.878 27.1139 171.832 27.1139Z" fill="url(#paint2_linear_2567_273970)" style="mix-blend-mode:overlay"/>
<path d="M150.521 24.6996H180.05C180.096 24.6996 180.142 24.6532 180.142 24.6067C180.142 24.5603 180.096 24.5139 180.05 24.5139H150.521C150.475 24.5139 150.428 24.5603 150.428 24.6067C150.428 24.6532 150.475 24.6996 150.521 24.6996Z" fill="url(#paint3_linear_2567_273970)" style="mix-blend-mode:overlay"/>
<path d="M168.814 152.007H125.125C125.078 152.007 125.032 151.96 125.032 151.914C125.032 151.867 125.078 151.821 125.125 151.821H168.814C168.86 151.821 168.907 151.867 168.907 151.914C168.907 151.96 168.86 152.007 168.814 152.007Z" fill="url(#paint4_linear_2567_273970)" style="mix-blend-mode:overlay"/>
<path d="M145.228 149.5C145.228 149.453 145.182 149.407 145.135 149.407H115.607C115.56 149.407 115.514 149.453 115.514 149.5C115.514 149.546 115.56 149.592 115.607 149.592H145.135C145.182 149.639 145.228 149.546 145.228 149.5Z" fill="url(#paint5_linear_2567_273970)" style="mix-blend-mode:overlay"/>
<path d="M44.571 90.721H14.4389C14.3924 90.721 14.346 90.6746 14.346 90.6281C14.346 90.5817 14.3924 90.5353 14.4389 90.5353H44.571C44.6174 90.5353 44.6639 90.5817 44.6639 90.6281C44.6639 90.6746 44.6174 90.721 44.571 90.721Z" fill="url(#paint6_linear_2567_273970)" style="mix-blend-mode:overlay"/>
<path d="M28.3674 88.2139C28.3674 88.1674 28.321 88.121 28.2745 88.121H7.89238C7.84595 88.121 7.79953 88.1674 7.79953 88.2139C7.79953 88.2603 7.84595 88.3067 7.89238 88.3067H28.2281C28.2745 88.3067 28.3674 88.2603 28.3674 88.2139Z" fill="url(#paint7_linear_2567_273970)" style="mix-blend-mode:overlay"/>
<path fill-rule="evenodd" clip-rule="evenodd" d="M253.221 159.621C253.314 159.621 253.639 159.667 253.639 159.9C253.639 160.085 253.639 160.457 249.553 161.757C247.232 162.5 244.817 162.964 242.403 163.196C242.403 163.196 242.357 163.242 242.31 163.242H241.985C241.614 163.289 241.242 163.335 240.871 163.335C238.317 163.475 235.717 163.8 233.21 164.357C231.324 164.771 229.621 165.367 227.783 166.01L227.732 166.028C226.292 166.539 224.853 167.003 223.367 167.421L224.435 177.821L236.089 211.946L238.41 218.4L242.682 222.532C242.914 222.764 243.1 222.996 243.285 223.275C243.935 223.878 244.307 224.853 244.585 225.689L247.464 235.207C247.51 235.3 247.835 236.646 245.839 237.667C243.935 238.689 239.896 240.035 239.85 240.035C239.803 240.035 239.71 239.989 239.71 239.942L237.667 233.767L233.025 238.271L234.232 241.939C234.232 241.985 234.232 242.032 234.185 242.078C234.139 242.125 232.885 243.146 228.66 244.539C225.271 245.653 223.321 245.792 222.625 245.792H222.346C222.3 245.792 222.253 245.792 222.253 245.746L220.442 241.66V241.567H220.489L220.442 241.521C220.396 241.521 220.396 241.475 220.396 241.475C220.117 240.871 220.025 239.432 220.582 238.921L225.271 234.51L229.821 221.65L227.732 215.707L212.457 180.235L208.046 167.05C206.282 166.539 204.425 165.889 202.382 165.007L199.039 179.492L198.946 220.303H199.271C199.318 220.303 199.364 220.35 199.364 220.396L199.55 227.825L202.335 233.071C202.498 233.315 202.59 233.595 202.672 233.848L202.689 233.898C202.695 233.917 202.701 233.935 202.707 233.953C203.125 234.742 203.171 235.81 203.171 236.646L202.939 246.582C202.939 246.628 202.8 248.021 200.617 248.392C198.482 248.764 194.21 248.764 194.164 248.764C194.117 248.764 194.071 248.717 194.071 248.671V242.171L188.268 245.003V248.903C188.268 248.95 188.221 248.996 188.175 248.996C188.082 249.042 186.55 249.646 182.139 249.646C177.728 249.646 175.871 248.903 175.778 248.857C175.732 248.857 175.685 248.81 175.685 248.764L175.221 244.307C175.221 244.283 175.233 244.272 175.244 244.26C175.256 244.249 175.267 244.237 175.267 244.214H175.314L175.267 244.167V244.121C175.221 243.471 175.546 242.078 176.242 241.753L182.092 239.014L190.403 228.196L190.31 222.625L186.782 177.96L186.828 165.517L186.782 115.05C186.457 115.003 186.132 114.817 185.9 114.585C185.575 114.26 185.389 113.842 185.342 113.378L183.996 96.7103L179.167 104.139C178.564 105.253 177.775 106.182 176.8 106.832C175.825 107.482 174.71 107.807 173.642 107.807C173.317 107.807 172.992 107.76 172.667 107.714C171.228 107.435 169.928 106.507 169.092 105.16C168.025 103.442 167.7 101.26 168.257 99.171L175.732 70.4781C175.732 70.4317 175.825 70.3853 175.871 70.3853L177.078 70.6174L177.403 69.2246C177.542 68.5746 177.589 67.8781 177.45 67.2281L176.335 61.471C176.335 61.4166 176.319 61.3781 176.306 61.3463C176.297 61.3237 176.289 61.3045 176.289 61.2853C176.242 61.1924 176.242 61.0996 176.242 61.0067V60.9138C176.242 60.7281 176.289 60.5888 176.382 60.4496C176.521 60.171 176.753 60.0317 177.032 59.9389H177.078C176.939 59.7996 176.846 59.6603 176.8 59.4746C176.753 59.196 176.8 58.871 176.939 58.6389C177.078 58.3603 177.31 58.221 177.589 58.1281L178.1 57.9888C178.007 57.896 177.96 57.7567 177.914 57.6174C177.775 57.0138 178.1 56.4103 178.703 56.271L181.257 55.621L184.414 48.9353C184.692 48.3781 185.342 48.146 185.9 48.4246L186.364 48.6567C186.596 47.171 186.921 45.7781 187.246 44.6638C188.175 41.4603 189.8 40.2531 191.1 39.8353C191.889 38.1639 194.35 34.496 200.339 35.4246C204.69 36.1101 206.075 38.1584 207.387 40.0981C208.386 41.5739 209.342 42.9867 211.528 43.6888C213.382 44.2841 214.787 44.4557 215.956 44.5985C217.978 44.8455 219.293 45.0061 221 47.1246C222.208 48.6034 222.154 50.0729 222.11 51.3025C222.055 52.8138 222.013 53.9626 224.342 54.321C228.568 54.971 231.585 55.7603 234.139 57.896C234.663 58.3343 235.193 58.8215 235.747 59.3308C237.892 61.3027 240.395 63.6045 244.307 64.6746C246.86 65.371 249.971 64.396 251.875 63.6067C251.888 63.6067 251.9 63.6063 251.912 63.6056C251.948 63.6036 251.98 63.5992 252.01 63.595C252.081 63.5852 252.14 63.5771 252.2 63.6067C252.292 63.6531 252.385 63.6996 252.432 63.7924C252.478 63.8853 252.525 63.9781 252.525 64.071C252.525 64.1638 252.478 64.2567 252.432 64.3496C250.667 66.346 247.046 69.6889 241.985 70.9424C236.275 72.3353 234.046 70.7567 233.442 70.1067H233.35V70.1531C233.814 71.0817 235.717 72.6139 238.828 73.4031C241.022 73.9516 242.676 73.5102 244.056 73.142L244.121 73.1246C244.4 73.0781 244.492 73.3567 244.353 73.5888C243.239 75.5853 239.757 78.4638 235.392 76.746C232.118 75.4726 230.225 76.2483 228.229 77.066L228.103 77.1174C229.12 77.9576 230.095 78.84 231.028 79.6842L231.167 79.8103C238.735 86.6817 244.353 93.646 244.539 93.8781C246.675 95.9674 247.696 98.4281 247.464 101.121C247.185 104.789 244.725 108.132 242.542 109.664L237.203 113.425L224.482 122.339H224.389C224.342 122.339 224.296 122.339 224.296 122.292L223.553 121.039L222.485 121.828C222.416 121.875 222.358 121.921 222.3 121.967C222.242 122.014 222.183 122.06 222.114 122.107L222.096 122.12C221.448 122.582 220.619 123.175 219.653 123.175C219.607 123.175 219.549 123.163 219.491 123.151C219.433 123.14 219.375 123.128 219.328 123.128C222.253 127.121 225.457 131.625 227.639 135.153C233.86 145.182 243.332 157.578 253.221 159.621ZM183.996 71.871L184.275 71.9174C185.528 70.1531 187.432 68.8531 189.521 68.296C189.679 68.2596 189.859 68.2168 190.059 68.1694L190.059 68.1692L190.06 68.169L190.062 68.1686C190.626 68.0347 191.346 67.8636 192.167 67.6924C192.121 67.6692 192.086 67.646 192.051 67.6228C192.04 67.6154 192.029 67.608 192.018 67.6006C192.011 67.5963 192.004 67.5919 191.997 67.5876C191.978 67.5761 191.958 67.5646 191.935 67.5531C190.078 66.346 188.732 64.7674 187.803 62.9567L187.571 64.8603C187.478 65.4174 187.292 65.9281 186.921 66.346L184.6 69.596L183.996 71.871ZM219.653 114.167L221.417 112.403L232.514 101.121L222.625 93.1353L216.96 112.867C217.332 113.285 217.657 113.703 217.796 113.935C218.214 114.492 219.143 115.746 219.143 115.746C219.143 115.746 219.143 115.792 219.189 115.792C219.215 115.819 219.227 115.83 219.241 115.835C219.246 115.837 219.252 115.838 219.259 115.839C219.265 115.839 219.273 115.839 219.282 115.839H219.375C219.421 115.839 219.467 115.792 219.467 115.792L220.164 115.235L219.653 114.307C219.607 114.26 219.607 114.214 219.653 114.167Z" fill="url(#paint8_linear_2567_273970)" style="mix-blend-mode:overlay"/>
<path d="M214.685 40.2995H214.778C214.79 40.2995 214.798 40.2967 214.805 40.2924C214.813 40.2881 214.819 40.2822 214.825 40.2763C214.836 40.2647 214.848 40.2531 214.871 40.2531C215.01 40.021 218.353 34.2174 217.378 31.7103C217.192 31.1995 216.775 30.8281 216.217 30.6888C215.66 30.5031 215.15 30.596 214.685 30.8745C213.664 31.5245 213.339 33.196 213.246 33.7995C212.875 33.521 211.9 32.871 211.017 33.0567C210.507 33.1495 210.089 33.5674 209.857 34.171C208.992 36.1163 213.722 39.5911 214.566 40.2107C214.628 40.2565 214.669 40.2867 214.685 40.2995Z" fill="url(#paint9_linear_2567_273970)" style="mix-blend-mode:overlay"/>
<path fill-rule="evenodd" clip-rule="evenodd" d="M175.36 187.246C175.407 187.246 175.453 187.246 175.453 187.292C175.453 187.292 175.5 187.339 175.5 187.478L174.014 194.117C174.014 194.164 173.967 194.21 173.921 194.21H160.132L158.785 202.382H173.178C173.225 202.382 173.271 202.428 173.271 202.475V207.117C173.271 207.164 173.225 207.21 173.178 207.21H163.428L170.16 249.042C170.16 249.066 170.149 249.077 170.137 249.089C170.125 249.1 170.114 249.112 170.114 249.135C170.067 249.182 170.067 249.182 170.021 249.182H166.446C166.4 249.182 166.353 249.135 166.353 249.089L163.382 230.517H134.41L131.439 249.089C131.439 249.135 131.392 249.182 131.346 249.182H127.771C127.725 249.182 127.678 249.182 127.678 249.135C127.651 249.109 127.64 249.097 127.635 249.084C127.632 249.074 127.632 249.062 127.632 249.042L130.603 230.517H47.2638L50.2352 249.042C50.2352 249.066 50.2236 249.077 50.212 249.089C50.2004 249.1 50.1888 249.112 50.1888 249.135C50.1424 249.182 50.1424 249.182 50.096 249.182H46.521C46.4745 249.182 46.4281 249.135 46.4281 249.089L43.4567 230.517H14.3924L11.421 249.089C11.421 249.135 11.3745 249.182 11.3281 249.182H7.7531C7.70667 249.182 7.66024 249.182 7.66024 249.135C7.61381 249.089 7.61381 249.089 7.61381 249.042L14.346 207.164H6.03524C5.98881 207.164 5.94238 207.117 5.94238 207.071V202.428C5.94238 202.382 5.98881 202.335 6.03524 202.335H49.5852L50.9317 194.164H39.4638C39.4174 194.164 39.371 194.164 39.371 194.117V194.025L40.8567 187.385C40.8567 187.339 40.9031 187.292 40.9495 187.292H52.046L52.8817 182.232H41.5531C41.5067 182.232 41.4602 182.232 41.4602 182.185V182.092L42.946 175.453C42.946 175.407 42.9924 175.36 43.0388 175.36H78.8817C78.6545 174.906 78.3829 174.852 77.9363 174.763L77.9067 174.757C77.8834 174.752 77.8598 174.747 77.8358 174.743C77.3814 174.653 76.7993 174.538 76.0495 173.921C75.1674 173.225 74.9817 172.25 75.0281 171.553C72.2424 170.717 68.4817 169 66.9495 166.353C66.9139 166.282 66.8784 166.214 66.8435 166.147C66.7421 165.953 66.6472 165.771 66.5781 165.564C66.5781 165.564 66.5317 165.517 66.5317 165.471C66.5085 165.355 66.4736 165.239 66.4388 165.123C66.404 165.007 66.3692 164.891 66.346 164.775C66.2995 164.496 66.2531 164.171 66.2531 163.892V163.846C66.2531 163.428 66.2995 163.01 66.3924 162.546C66.3924 162.453 66.3924 162.36 66.4388 162.267C66.4388 162.221 66.4852 162.175 66.5317 162.175H68.5281C72.4281 162.175 81.0174 162.128 85.4281 162.082C86.9602 162.082 88.3067 162.221 89.6067 162.592C90.1638 161.85 91.1852 161.478 91.7888 161.478H124.01C124.289 161.478 124.521 161.571 124.753 161.664C124.985 161.803 125.171 161.989 125.31 162.175C125.96 163.057 126.982 164.867 126.285 166.632C125.635 168.35 123.546 169.65 120.064 170.439C117.928 170.903 115.514 171.135 113.007 171.135C109.617 171.135 105.996 170.717 102.7 170.067C103.071 170.439 103.164 170.996 102.932 171.414C104.882 172.528 106.971 173.317 109.2 173.782C110.592 174.014 112.867 174.292 116.071 174.2C117.149 174.156 118.227 174.073 119.342 173.987L119.6 173.967C121.271 173.828 123.175 173.642 125.125 173.41C126.112 173.297 127.082 173.167 128.025 173.041C128.634 172.96 129.231 172.88 129.814 172.807C130.51 172.714 131.16 172.621 131.764 172.528H131.903C135.926 171.966 136.805 172.089 136.944 172.108C136.954 172.109 136.961 172.11 136.964 172.11C139.471 172.203 141.932 172.853 144.114 174.06L157.857 175.175C157.903 175.175 157.95 175.221 157.95 175.267V175.314H177.45C177.496 175.314 177.542 175.314 177.542 175.36V175.453L176.057 182.092C176.057 182.139 176.01 182.185 175.964 182.185H162.035L161.2 187.246H175.36ZM43.4567 207.21L46.6602 226.989H131.114L134.317 207.21H43.4567ZM42.8995 226.989L39.696 207.21H18.1531L14.9495 226.989H42.8995ZM138.125 207.21L134.921 226.989H162.778L159.575 207.21H138.125ZM97.4995 183.485L96.3388 182.185H56.7352L55.8995 187.246H88.1674C88.0281 187.2 87.9352 187.2 87.8424 187.2C86.9138 187.107 85.9852 186.457 85.9852 185.435C85.9852 184.739 86.3567 183.903 88.0281 183.717C88.771 183.625 90.8602 183.578 93.5067 184.878C94.5745 185.435 95.5031 185.482 96.246 185.017C96.7567 184.692 97.1745 184.135 97.4995 183.485ZM126.796 187.246C126.842 186.875 126.889 186.55 126.935 186.225C125.96 186.503 125.032 186.828 124.15 187.246H126.796ZM150.846 182.185C151.032 182.975 151.125 183.81 151.125 184.6C151.125 185.528 150.985 186.41 150.846 187.246H157.439L158.275 182.185H150.846ZM86.7745 174.989C86.5424 174.896 85.6138 174.571 84.221 174.107C84.4531 174.432 84.6388 174.85 84.6852 175.314H87.471C87.2388 175.175 87.0067 175.082 86.7745 174.989ZM130 202.15C129.907 202.242 129.767 202.289 129.628 202.335H135.525H154.932L156.278 194.164H145.6C144.439 194.86 143.51 195.278 143.092 195.417C143.417 196.021 143.51 196.625 143.325 197.275C143.046 198.296 142.117 199.271 140.678 200.06C139.564 200.664 136.035 202.242 135.989 202.242C135.85 202.289 135.71 202.335 135.525 202.335C135.385 202.335 135.2 202.289 135.06 202.242C134.875 202.15 134.782 202.103 134.642 201.964C134.503 201.825 134.41 201.685 134.364 201.546C134.271 201.267 134.271 200.942 134.364 200.664C134.457 200.385 134.642 200.153 134.921 200.014L138.682 197.135C138.671 197.124 138.658 197.112 138.645 197.099C138.332 196.788 137.486 195.946 136.639 194.164H135.2L135.478 194.767C135.757 195.464 135.803 196.3 135.617 197.042C135.385 197.832 134.921 198.482 134.317 198.946L130 202.15ZM101.075 170.207L101.121 170.114C101.26 169.975 101.4 169.882 101.585 169.835C101.33 169.766 101.075 169.708 100.819 169.65C100.564 169.592 100.308 169.534 100.053 169.464C100.216 169.58 100.39 169.708 100.564 169.835C100.738 169.963 100.912 170.091 101.075 170.207ZM106.785 194.117H54.7388L53.3924 202.289H129.117C128.932 202.289 128.792 202.196 128.653 202.057C128.56 201.964 128.467 201.871 128.421 201.732C128.375 201.592 128.328 201.453 128.328 201.314C128.328 201.175 128.375 201.035 128.421 200.896C128.467 200.757 128.56 200.617 128.653 200.525L132.182 196.81C132.163 196.799 132.144 196.788 132.122 196.775C131.598 196.461 130.134 195.588 128.885 194.071H114.771C114.585 194.257 114.446 194.396 114.4 194.489L115.003 195.742C115.421 196.392 115.839 197.46 115.56 198.389C115.421 198.946 115.003 199.41 114.4 199.689C112.96 200.339 108.317 202.196 108.271 202.196C108.085 202.289 107.9 202.289 107.714 202.242C107.528 202.242 107.342 202.15 107.203 202.057C107.064 201.964 106.925 201.825 106.832 201.685C106.739 201.5 106.692 201.36 106.646 201.175C106.553 200.664 106.832 200.2 107.435 199.828C108.41 199.225 109.803 198.296 110.175 198.017L106.785 194.117Z" fill="url(#paint10_linear_2567_273970)" style="mix-blend-mode:overlay"/>
</g>
<defs>
<linearGradient id="paint0_linear_2567_273970" x1="5.94238" y1="22.0996" x2="253.639" y2="22.0996" gradientUnits="userSpaceOnUse">
<stop stop-color="#F38478"/>
<stop offset="1" stop-color="#5D6AE8"/>
</linearGradient>
<linearGradient id="paint1_linear_2567_273970" x1="5.94238" y1="22.0996" x2="253.639" y2="22.0996" gradientUnits="userSpaceOnUse">
<stop stop-color="#F38478"/>
<stop offset="1" stop-color="#5D6AE8"/>
</linearGradient>
<linearGradient id="paint2_linear_2567_273970" x1="5.94238" y1="22.0996" x2="253.639" y2="22.0996" gradientUnits="userSpaceOnUse">
<stop stop-color="#F38478"/>
<stop offset="1" stop-color="#5D6AE8"/>
</linearGradient>
<linearGradient id="paint3_linear_2567_273970" x1="5.94238" y1="22.0996" x2="253.639" y2="22.0996" gradientUnits="userSpaceOnUse">
<stop stop-color="#F38478"/>
<stop offset="1" stop-color="#5D6AE8"/>
</linearGradient>
<linearGradient id="paint4_linear_2567_273970" x1="5.94238" y1="22.0996" x2="253.639" y2="22.0996" gradientUnits="userSpaceOnUse">
<stop stop-color="#F38478"/>
<stop offset="1" stop-color="#5D6AE8"/>
</linearGradient>
<linearGradient id="paint5_linear_2567_273970" x1="5.94238" y1="22.0996" x2="253.639" y2="22.0996" gradientUnits="userSpaceOnUse">
<stop stop-color="#F38478"/>
<stop offset="1" stop-color="#5D6AE8"/>
</linearGradient>
<linearGradient id="paint6_linear_2567_273970" x1="5.94238" y1="22.0996" x2="253.639" y2="22.0996" gradientUnits="userSpaceOnUse">
<stop stop-color="#F38478"/>
<stop offset="1" stop-color="#5D6AE8"/>
</linearGradient>
<linearGradient id="paint7_linear_2567_273970" x1="5.94238" y1="22.0996" x2="253.639" y2="22.0996" gradientUnits="userSpaceOnUse">
<stop stop-color="#F38478"/>
<stop offset="1" stop-color="#5D6AE8"/>
</linearGradient>
<linearGradient id="paint8_linear_2567_273970" x1="5.94238" y1="22.0996" x2="253.639" y2="22.0996" gradientUnits="userSpaceOnUse">
<stop stop-color="#F38478"/>
<stop offset="1" stop-color="#5D6AE8"/>
</linearGradient>
<linearGradient id="paint9_linear_2567_273970" x1="5.94238" y1="22.0996" x2="253.639" y2="22.0996" gradientUnits="userSpaceOnUse">
<stop stop-color="#F38478"/>
<stop offset="1" stop-color="#5D6AE8"/>
</linearGradient>
<linearGradient id="paint10_linear_2567_273970" x1="5.94238" y1="22.0996" x2="253.639" y2="22.0996" gradientUnits="userSpaceOnUse">
<stop stop-color="#F38478"/>
<stop offset="1" stop-color="#5D6AE8"/>
</linearGradient>
<clipPath id="clip0_2567_273970">
<rect width="260" height="260" fill="white"/>
</clipPath>
</defs>
</svg>
