<svg width="260" height="260" viewBox="0 0 260 260" fill="none" xmlns="http://www.w3.org/2000/svg">
<g clip-path="url(#clip0_2567_274042)">
<path d="M108.32 79.337L92.8228 59.4787C92.8228 59.4787 93.1125 55.5357 90.92 50.8608C88.7274 46.186 87.931 45.6577 87.4162 45.9286C86.9014 46.1994 87.9553 52.2906 87.9553 52.2906C87.9553 52.2906 85.5296 50.4363 84.1402 49.0146C82.7508 47.5929 78.8064 43.5218 78.1393 44.0136C77.5652 44.4368 78.8131 45.996 80.3575 48.2519C81.3183 49.652 82.232 50.8042 82.232 50.8042C82.232 50.8042 75.8416 45.6698 74.8889 45.5661C73.9361 45.4623 73.9361 46.6145 73.9361 46.6145C73.9361 46.6145 72.8149 47.0539 73.1357 48.1171C73.4564 49.1804 79.3185 54.8551 79.3185 54.8551C79.3185 54.8551 73.1896 51.1654 72.6802 52.0939C72.1708 53.0224 86.6009 63.2507 86.6009 63.2507L102.679 89.7109C103.81 91.5275 108.32 79.337 108.32 79.337Z" fill="#E5E5E5" stroke="black" stroke-width="0.5" stroke-linecap="round" stroke-linejoin="round"/>
<path d="M88.2397 59.6844C88.2397 59.6844 87.0026 58.035 87.1441 56.5566C87.2856 55.0783 88.2222 53.4922 88.2222 53.4922" stroke="black" stroke-width="0.5" stroke-linecap="round" stroke-linejoin="round"/>
<path d="M79.709 56.276C79.709 56.276 79.9596 54.4392 81.0903 52.9245C81.7371 52.0403 82.5405 51.2821 83.4607 50.6875" stroke="black" stroke-width="0.5" stroke-linecap="round" stroke-linejoin="round"/>
<path d="M73.9404 46.6133L81.0908 52.9241" stroke="black" stroke-width="0.5" stroke-linecap="round" stroke-linejoin="round"/>
<path d="M144.555 221.008H153.867L159.231 182.935L144.555 179.432V221.008Z" fill="#E5E5E5" stroke="black" stroke-width="0.5" stroke-linecap="round" stroke-linejoin="round"/>
<path d="M122.824 217.076L131.417 213.881L126.75 168.684L114.464 175.792L122.824 217.076Z" fill="#E5E5E5" stroke="black" stroke-width="0.5" stroke-linecap="round" stroke-linejoin="round"/>
<path d="M160.579 97.4004H127.081L112.176 144.792C110.751 149.319 110.36 154.108 111.03 158.807L118.038 207.925L133.683 202.757L127.762 154.5L141.014 119.192L143.276 209.804L159.234 210.487L160.579 97.4004Z" fill="#333333" stroke="black" stroke-width="0.5" stroke-linecap="round" stroke-linejoin="round"/>
<path d="M122.941 206.306L115.707 158.028C115.244 153.897 115.675 149.714 116.971 145.764L132.847 97.4043" stroke="black" stroke-width="0.5" stroke-miterlimit="10" stroke-linecap="round" stroke-linejoin="round"/>
<path d="M148.02 209.804V97.7559" stroke="black" stroke-width="0.5" stroke-miterlimit="10" stroke-linecap="round" stroke-linejoin="round"/>
<path d="M163.623 51.2754L181.125 86.2794L171.147 89.1417L159.657 77.7329L163.623 51.2754Z" fill="#4C4C4C" stroke="black" stroke-width="0.5" stroke-miterlimit="10" stroke-linecap="round" stroke-linejoin="round"/>
<path d="M121.631 50.8535L106.749 75.3799L100.088 67.0154L92.4443 76.0995L100.239 89.5041C102.903 94.086 109.311 94.625 112.704 90.5553L131.521 67.9829L121.631 50.8535Z" fill="#4C4C4C" stroke="black" stroke-width="0.5" stroke-miterlimit="10" stroke-linecap="round" stroke-linejoin="round"/>
<path d="M159.232 48.828L144.427 46.5371L139.344 47.0964L124.22 49.301L130.429 97.7555H155.2L159.232 48.828Z" fill="#4C4C4C" stroke="black" stroke-width="0.5" stroke-miterlimit="10" stroke-linecap="round" stroke-linejoin="round"/>
<path d="M151.433 47.4551L165.717 49.9711L161.045 86.8954L167.244 107.558L157.183 117.89L149.063 89.8601L151.433 47.4551Z" fill="#B3B3B3" stroke="black" stroke-width="0.5" stroke-miterlimit="10" stroke-linecap="round" stroke-linejoin="round"/>
<path d="M134.481 47.4551L120.196 49.9711L124.867 86.8954L118.668 107.558L128.731 117.89L136.85 89.8601L134.481 47.4551Z" fill="#B3B3B3" stroke="black" stroke-width="0.5" stroke-miterlimit="10" stroke-linecap="round" stroke-linejoin="round"/>
<path d="M139.128 38.7291L138.51 45.4469C138.466 45.9125 138.273 46.3514 137.959 46.6975C137.645 47.0436 137.226 47.2782 136.767 47.3659L136.066 47.5007C136.066 47.5007 137.329 65.9629 142.577 65.9346C147.698 65.9022 150.302 47.4724 150.302 47.4724C150.302 47.4724 148.521 45.8714 148.416 42.621C148.311 39.3706 148.986 31.8105 148.986 31.8105L139.128 38.7291Z" fill="#E5E5E5" stroke="black" stroke-width="0.5" stroke-miterlimit="10" stroke-linecap="round" stroke-linejoin="round"/>
<path d="M148.007 16.7879C144.165 14.4862 136.435 13.5901 134.036 17.327C132.407 19.8659 132.845 26.011 132.924 28.9609C132.985 31.1925 133.095 34.4982 134.643 37.2419C136.274 40.1352 139.79 40.2282 142.616 39.5126C145.945 38.669 148.906 36.6422 149.399 33.2732C154.431 32.4808 152.048 19.2082 148.007 16.7879Z" fill="#E5E5E5" stroke="black" stroke-width="0.5" stroke-linecap="round" stroke-linejoin="round"/>
<path d="M135.272 29.4642C135.708 29.4642 136.062 29.1106 136.062 28.6745C136.062 28.2383 135.708 27.8848 135.272 27.8848C134.836 27.8848 134.482 28.2383 134.482 28.6745C134.482 29.1106 134.836 29.4642 135.272 29.4642Z" fill="black"/>
<path d="M141.361 29.4642C141.797 29.4642 142.151 29.1106 142.151 28.6745C142.151 28.2383 141.797 27.8848 141.361 27.8848C140.925 27.8848 140.571 28.2383 140.571 28.6745C140.571 29.1106 140.925 29.4642 141.361 29.4642Z" fill="black"/>
<path d="M137.984 27.7988C137.606 28.5496 137.323 29.3445 137.141 30.1652C137.059 30.5331 137.007 30.9616 137.257 31.2433C137.359 31.3539 137.485 31.4389 137.626 31.4912C138.014 31.6476 138.446 31.6557 138.839 31.5141" stroke="black" stroke-width="0.5" stroke-linecap="round" stroke-linejoin="round"/>
<path d="M133.824 27.112C134.45 26.6065 135.122 26.1615 135.832 25.7832" stroke="black" stroke-width="0.5" stroke-linecap="round" stroke-linejoin="round"/>
<path d="M140.408 26.0645L142.815 26.7975" stroke="black" stroke-width="0.5" stroke-linecap="round" stroke-linejoin="round"/>
<path d="M137.324 34.2714C137.324 34.2714 138.171 35.5732 139.495 35.2861C141.186 34.9196 141.36 33.002 141.36 33.002C141.36 33.002 140.013 33.9924 139.339 34.1784C138.684 34.3702 137.994 34.4021 137.324 34.2714Z" fill="white" stroke="black" stroke-width="0.5" stroke-linecap="round" stroke-linejoin="round"/>
<path d="M157.531 22.8978C156.965 19.9547 156.992 17.7163 154.952 15.4779C154.069 14.5103 153.031 13.6182 151.816 13.0994C150.94 12.7261 150.077 12.3919 149.14 12.8002C148.981 12.8879 148.808 12.9464 148.629 12.9727C148.456 12.9808 148.09 13.1479 147.92 13.0927C145.09 12.1278 142.655 11.7814 140.171 12.3272C137.436 12.9296 135.735 13.9443 133.912 15.5884C130.529 18.6434 131.253 25.0095 132.925 28.962C132.925 28.962 132.697 22.7159 133.319 19.2148C136.045 21.5529 140.364 23.2024 143.872 23.294C144.601 23.3142 145.372 23.325 145.991 23.7091C146.438 23.9853 146.754 24.4273 147.02 24.8801C147.555 25.8278 147.939 26.8537 148.157 27.9203C148.427 27.3085 149.261 27.0943 149.878 27.353C150.495 27.6117 150.905 28.2208 151.114 28.8569C151.592 30.315 150.794 32.5952 149.401 33.269C149.355 33.2919 149.255 34.5438 148.699 35.3739L148.595 37.7323C148.595 37.7323 153.192 33.8484 154.029 32.9968C156.28 30.7099 158.137 26.0553 157.531 22.8978Z" fill="#1A1A1A" stroke="black" stroke-width="0.5" stroke-linecap="round" stroke-linejoin="round"/>
<path d="M154.135 11.933C159.198 13.9099 162.787 19.3057 161.298 24.8187C161.055 25.7136 160.704 26.5801 160.547 27.4937C160.319 28.8319 160.7 29.9477 161.574 30.9598C162.03 31.488 162.624 31.8815 163.098 32.3923C163.522 32.8476 163.843 33.3881 164.041 33.9776C164.239 34.5671 164.309 35.1921 164.245 35.8107C164.182 36.4293 163.988 37.0273 163.675 37.5647C163.362 38.1021 162.938 38.5665 162.431 38.9268C161.728 39.4268 160.807 39.8028 160.557 40.6288C160.325 41.3902 160.782 42.1691 161.166 42.8672C161.612 43.6758 162.838 44.1366 162.724 45.0584C162.625 45.8508 161.376 45.8966 161.046 46.945C160.757 47.8668 162.19 49.3478 162.19 49.3478L154.847 48.0555C153.728 47.8574 151.703 47.0946 151.463 45.0584C151.328 43.9089 152.878 41.742 152.452 40.6558C151.913 39.2947 149.275 37.7679 149.715 36.3731C150.435 34.0983 151.332 34.9487 152.102 32.7481C152.582 31.3748 152.309 29.8938 152.189 28.4856C152.055 26.9763 152.107 25.855 152.979 24.5775C153.518 23.777 154.04 22.9254 154.204 21.9726C154.581 19.7922 153.494 17.4676 152.068 15.8491C150.427 13.9867 148.098 13.0191 145.734 12.4572C145.994 12.5192 146.947 11.906 147.236 11.7995C147.826 11.5803 148.431 11.4002 149.045 11.2605C150.103 11.0193 151.358 11.1864 152.414 11.4195C153 11.5461 153.576 11.7178 154.135 11.933Z" fill="black" stroke="black" stroke-width="0.5" stroke-miterlimit="10" stroke-linecap="round" stroke-linejoin="round"/>
<path d="M149.064 34.1545C150.359 34.1545 151.408 33.1047 151.408 31.8097C151.408 30.5147 150.359 29.4648 149.064 29.4648C147.769 29.4648 146.719 30.5147 146.719 31.8097C146.719 33.1047 147.769 34.1545 149.064 34.1545Z" fill="#B3B3B3" stroke="black" stroke-width="0.5" stroke-miterlimit="10" stroke-linecap="round" stroke-linejoin="round"/>
<path d="M171.577 87.3712C171.577 87.3712 173.733 84.3485 176.069 84.2717C178.404 84.1949 181.19 84.3782 181.459 88.2404C181.729 92.1026 179.064 93.5715 176.519 94.0499C174.567 94.4421 172.545 94.2839 170.678 93.5931C169.271 93.0918 168.193 90.9963 168.193 90.9963L171.577 87.3712Z" fill="#4C4C4C" stroke="black" stroke-width="0.5" stroke-miterlimit="10" stroke-linecap="round" stroke-linejoin="round"/>
<path d="M172.818 87.6585H174.143C175.002 87.6583 175.828 87.9881 176.452 88.5796C177.075 89.1712 177.447 89.9794 177.492 90.8374C177.51 91.1991 177.454 91.5608 177.326 91.8996C177.198 92.2384 177.001 92.5471 176.748 92.806C176.495 93.0649 176.191 93.2686 175.855 93.4041C175.519 93.5396 175.158 93.604 174.796 93.5933L172.268 93.5192C170.83 93.4764 169.437 93.012 168.261 92.1837C165.97 90.5666 162.032 87.8579 158.962 86.0858C156.806 84.8433 155.782 84.3339 154.86 83.78C154.051 83.2895 152.779 82.5672 153.039 82.039C153.325 81.4622 154.286 81.7223 154.286 81.7223C154.546 81.2492 155.338 80.9757 155.918 81.26L157.241 81.9082C157.431 81.7064 157.684 81.577 157.959 81.5424C158.233 81.5077 158.511 81.5699 158.745 81.7182L162.675 84.1439L169.232 83.8865L172.818 87.6585Z" fill="#E5E5E5" stroke="black" stroke-width="0.5" stroke-linecap="round" stroke-linejoin="round"/>
<path d="M167.174 87.3922C167.174 87.3922 163.761 86.5365 160.886 86.1322C158.93 85.8627 156.807 85.9422 155.65 86.0244C155.538 86.0333 155.426 86.0191 155.32 85.9824C155.215 85.9458 155.118 85.8877 155.036 85.8117C154.954 85.7357 154.888 85.6435 154.843 85.5409C154.799 85.4384 154.776 85.3276 154.776 85.2158C154.778 85.0057 154.861 84.8044 155.008 84.6538C155.154 84.5032 155.353 84.4149 155.563 84.4072L166.366 84.0312" fill="#E5E5E5"/>
<path d="M167.174 87.3922C167.174 87.3922 163.761 86.5365 160.886 86.1322C158.93 85.8627 156.807 85.9422 155.65 86.0244C155.538 86.0333 155.426 86.0191 155.32 85.9824C155.215 85.9458 155.118 85.8877 155.036 85.8117C154.954 85.7357 154.888 85.6435 154.843 85.5409C154.799 85.4384 154.776 85.3276 154.776 85.2158V85.2158C154.778 85.0057 154.861 84.8044 155.008 84.6538C155.154 84.5032 155.353 84.4149 155.563 84.4072L166.366 84.0312" stroke="black" stroke-width="0.5" stroke-linecap="round" stroke-linejoin="round"/>
<path d="M169.718 86.1016L164.712 83.0372C164.134 82.6828 163.865 81.8365 164.342 81.3554C164.498 81.1987 164.698 81.0943 164.915 81.0566C165.133 81.0189 165.356 81.0499 165.555 81.1452C165.555 81.1452 168.504 82.552 169.442 83.0574C170.342 83.5671 171.16 84.21 171.867 84.9643C172.45 85.6381 172.84 86.514 172.811 88.243" fill="#E5E5E5"/>
<path d="M169.718 86.1016L164.712 83.0372C164.134 82.6828 163.865 81.8365 164.342 81.3554C164.498 81.1987 164.698 81.0943 164.915 81.0566C165.133 81.0189 165.356 81.0499 165.555 81.1452C165.555 81.1452 168.504 82.552 169.442 83.0574C170.342 83.5671 171.16 84.21 171.867 84.9643C172.45 85.6381 172.84 86.514 172.811 88.243" stroke="black" stroke-width="0.5" stroke-linecap="round" stroke-linejoin="round"/>
<path d="M157.248 81.9102L161.051 84.2065" stroke="black" stroke-width="0.5" stroke-linecap="round" stroke-linejoin="round"/>
<path d="M154.292 81.7246L159.099 84.2743" stroke="black" stroke-width="0.5" stroke-linecap="round" stroke-linejoin="round"/>
<path d="M117.918 234.89L112.186 239.918C111.596 240.435 111.608 242.031 111.875 242.77L113.728 244.387L122.001 241.435L137.551 228.713L140.181 224.206C139.902 223.249 139.393 222.374 138.699 221.658L133.813 216.603L132.196 207.904L121.114 211.125L122.611 220.601L117.918 234.89Z" fill="black" stroke="black" stroke-width="0.5" stroke-miterlimit="10" stroke-linecap="round" stroke-linejoin="round"/>
<path d="M111.941 243.011L113.928 247.897C113.928 247.897 116.309 248.189 121.35 246.724C126.392 245.259 127.901 244.055 127.901 244.055L126.602 239.584L132.492 234.264L134.694 241.844C134.694 241.844 139.535 240.437 141.837 239.331C144.138 238.224 143.8 236.683 143.8 236.683L140.786 225.363C140.508 224.406 140.105 223.258 139.412 222.541C139.415 222.544 126.948 238.901 111.941 243.011Z" fill="white" stroke="black" stroke-width="0.5" stroke-miterlimit="10" stroke-linecap="round" stroke-linejoin="round"/>
<path d="M133.138 236.069L126.038 238.846C125.307 239.132 124.774 240.636 124.774 241.421L125.967 243.568L134.751 243.608L153.701 236.934L157.708 233.59C157.773 232.596 157.593 231.601 157.186 230.692L154.311 224.276L155.753 215.547L144.236 214.805L142.421 224.224L133.138 236.069Z" fill="black" stroke="black" stroke-width="0.5" stroke-miterlimit="10" stroke-linecap="round" stroke-linejoin="round"/>
<path d="M124.754 241.67L124.96 246.941C124.96 246.941 127.1 248.026 132.34 248.364C137.579 248.702 139.408 248.084 139.408 248.084L139.707 243.437L147.057 240.437L146.549 248.315C146.549 248.315 151.578 248.64 154.12 248.383C156.661 248.125 156.869 246.561 156.869 246.561L157.883 234.893C157.948 233.899 157.959 232.682 157.552 231.773C157.552 231.773 140.263 242.911 124.754 241.67Z" fill="white" stroke="black" stroke-width="0.5" stroke-miterlimit="10" stroke-linecap="round" stroke-linejoin="round"/>
<path d="M199.169 52.9077C208.138 52.9077 215.409 45.6368 215.409 36.6677C215.409 27.6986 208.138 20.4277 199.169 20.4277C190.2 20.4277 182.929 27.6986 182.929 36.6677C182.929 45.6368 190.2 52.9077 199.169 52.9077Z" fill="#CCCCCC"/>
<path d="M199.168 50.9813C207.073 50.9813 213.481 44.5732 213.481 36.6684C213.481 28.7636 207.073 22.3555 199.168 22.3555C191.264 22.3555 184.855 28.7636 184.855 36.6684C184.855 44.5732 191.264 50.9813 199.168 50.9813Z" fill="white"/>
<path d="M191.405 29.5059L199.127 36.7694L210.959 33.1093" stroke="#999999" stroke-width="0.5" stroke-linecap="round" stroke-linejoin="round"/>
<path d="M207.935 136.132C207.859 136.183 207.769 136.21 207.677 136.209C207.586 136.209 207.496 136.181 207.42 136.129C207.344 136.078 207.286 136.004 207.252 135.919C207.218 135.834 207.21 135.74 207.229 135.651C207.949 132.43 209.123 129.328 210.715 126.437C212.807 122.664 215.73 119.624 217.286 118.149C217.358 118.081 217.45 118.038 217.549 118.027C217.647 118.015 217.746 118.035 217.832 118.085C217.918 118.134 217.986 118.21 218.025 118.3C218.065 118.391 218.074 118.492 218.052 118.589C217.475 121.055 216.098 126.23 213.998 129.748C212.464 132.291 210.395 134.469 207.935 136.132Z" fill="#4C4C4C"/>
<path d="M214.045 168.039C214.081 168.089 214.131 168.128 214.189 168.15C214.248 168.171 214.311 168.175 214.372 168.161C214.432 168.146 214.487 168.114 214.529 168.068C214.571 168.023 214.598 167.965 214.608 167.904C214.918 165.684 214.913 163.432 214.59 161.214C214.163 158.313 213.03 155.689 212.392 154.378C212.363 154.317 212.315 154.268 212.255 154.237C212.196 154.205 212.127 154.194 212.061 154.205C211.994 154.216 211.933 154.248 211.886 154.296C211.839 154.345 211.809 154.407 211.801 154.474C211.578 156.18 211.219 159.797 211.713 162.536C212.082 164.518 212.877 166.396 214.045 168.039Z" fill="black"/>
<path d="M210.611 172.823C210.647 172.874 210.698 172.913 210.756 172.934C210.814 172.956 210.877 172.96 210.938 172.946C210.998 172.931 211.053 172.899 211.095 172.853C211.137 172.807 211.165 172.75 211.174 172.689C211.485 170.469 211.479 168.217 211.157 165.999C210.73 163.099 209.596 160.474 208.959 159.163C208.929 159.102 208.881 159.053 208.821 159.021C208.762 158.99 208.693 158.98 208.627 158.99C208.56 159.001 208.499 159.033 208.452 159.082C208.405 159.131 208.376 159.193 208.367 159.26C208.145 160.964 207.785 164.583 208.28 167.321C208.648 169.303 209.444 171.18 210.611 172.823Z" fill="black"/>
<path d="M207.793 177.328C207.835 177.372 207.889 177.403 207.949 177.416C208.008 177.43 208.07 177.426 208.127 177.404C208.185 177.383 208.234 177.346 208.271 177.297C208.307 177.248 208.328 177.19 208.332 177.129C208.394 174.889 208.137 172.652 207.57 170.484C206.823 167.654 205.403 165.164 204.625 163.935C204.589 163.878 204.535 163.834 204.472 163.81C204.41 163.786 204.341 163.783 204.276 163.801C204.211 163.819 204.154 163.857 204.113 163.911C204.072 163.964 204.049 164.029 204.048 164.096C204.017 165.816 204.061 169.45 204.856 172.117C205.446 174.047 206.448 175.825 207.793 177.328Z" fill="black"/>
<path d="M205.678 181.862C205.725 181.903 205.782 181.929 205.844 181.937C205.906 181.945 205.968 181.934 206.024 181.906C206.079 181.878 206.125 181.835 206.156 181.78C206.186 181.726 206.2 181.664 206.195 181.602C205.999 179.37 205.486 177.177 204.672 175.089C203.604 172.359 201.907 170.055 200.991 168.924C200.948 168.872 200.891 168.835 200.826 168.818C200.761 168.802 200.692 168.806 200.63 168.832C200.568 168.857 200.516 168.902 200.481 168.959C200.446 169.017 200.431 169.084 200.437 169.15C200.604 170.862 201.069 174.468 202.167 177.024C202.972 178.873 204.17 180.524 205.678 181.862Z" fill="black"/>
<path d="M214.531 168.313C214.473 168.29 214.424 168.25 214.389 168.198C214.354 168.147 214.336 168.086 214.336 168.024C214.336 167.961 214.354 167.901 214.389 167.849C214.424 167.797 214.473 167.757 214.531 167.734C216.619 166.919 218.811 166.404 221.043 166.204C223.964 165.951 226.784 166.447 228.203 166.765C228.268 166.78 228.327 166.815 228.371 166.866C228.415 166.917 228.441 166.981 228.446 167.048C228.451 167.114 228.434 167.181 228.398 167.238C228.362 167.294 228.308 167.338 228.246 167.362C226.638 167.972 223.202 169.158 220.43 169.309C218.414 169.409 216.402 169.07 214.531 168.313Z" fill="black"/>
<path d="M217.311 165.212C217.246 165.23 217.176 165.227 217.112 165.204C217.048 165.182 216.992 165.141 216.952 165.086C216.911 165.032 216.888 164.966 216.885 164.898C216.882 164.83 216.9 164.763 216.935 164.705C218.224 162.63 219.8 160.748 221.617 159.116C223.998 156.985 226.782 155.576 228.228 154.925C228.295 154.894 228.37 154.887 228.442 154.903C228.514 154.918 228.578 154.957 228.626 155.013C228.674 155.068 228.703 155.138 228.708 155.211C228.714 155.284 228.695 155.357 228.656 155.419C227.652 157.001 225.429 160.281 223.103 162.23C221.412 163.633 219.436 164.651 217.311 165.212Z" fill="black"/>
<path d="M211.005 173.073C210.95 173.043 210.905 172.998 210.876 172.943C210.847 172.888 210.835 172.825 210.842 172.763C210.849 172.701 210.874 172.642 210.914 172.595C210.955 172.547 211.008 172.513 211.068 172.496C213.229 171.903 215.463 171.62 217.704 171.655C220.636 171.708 223.388 172.495 224.767 172.96C224.83 172.981 224.885 173.023 224.924 173.078C224.962 173.133 224.981 173.199 224.979 173.266C224.977 173.333 224.953 173.398 224.911 173.451C224.869 173.503 224.811 173.541 224.747 173.558C223.084 173.997 219.542 174.818 216.763 174.678C214.75 174.568 212.785 174.02 211.005 173.073Z" fill="black"/>
<path d="M208.323 177.855C208.264 177.833 208.214 177.795 208.178 177.744C208.141 177.693 208.121 177.633 208.119 177.571C208.118 177.508 208.134 177.447 208.168 177.394C208.201 177.342 208.249 177.3 208.307 177.275C210.367 176.394 212.542 175.81 214.767 175.54C217.678 175.193 220.512 175.599 221.94 175.871C222.006 175.884 222.067 175.917 222.112 175.967C222.157 176.016 222.186 176.079 222.193 176.146C222.2 176.213 222.185 176.28 222.151 176.338C222.116 176.396 222.064 176.441 222.002 176.467C220.415 177.129 217.016 178.424 214.245 178.663C212.236 178.827 210.215 178.551 208.323 177.855Z" fill="black"/>
<path d="M206.115 182.006C206.06 181.978 206.015 181.933 205.985 181.879C205.955 181.824 205.942 181.762 205.948 181.7C205.953 181.638 205.977 181.58 206.016 181.531C206.056 181.483 206.108 181.448 206.168 181.43C208.316 180.791 210.544 180.462 212.785 180.451C215.717 180.442 218.484 181.172 219.872 181.608C219.936 181.627 219.992 181.667 220.032 181.722C220.072 181.776 220.093 181.842 220.092 181.91C220.092 181.977 220.069 182.043 220.028 182.096C219.987 182.15 219.93 182.189 219.865 182.207C218.211 182.68 214.687 183.574 211.906 183.493C209.891 183.423 207.915 182.916 206.115 182.006Z" fill="black"/>
<path d="M219.999 162.381C219.999 162.381 213.959 166.406 206.837 179.789C199.715 193.172 196.962 201.723 195.248 212.019C193.534 222.314 194.636 224.844 194.636 224.844" stroke="black" stroke-width="0.5" stroke-miterlimit="10" stroke-linecap="round" stroke-linejoin="round"/>
<path d="M186.691 161.35C186.645 161.392 186.588 161.42 186.527 161.43C186.465 161.44 186.402 161.432 186.346 161.406C186.289 161.38 186.241 161.338 186.209 161.285C186.176 161.232 186.16 161.171 186.162 161.108C186.279 158.871 186.712 156.661 187.449 154.544C188.42 151.778 190.031 149.413 190.906 148.25C190.946 148.196 191.003 148.157 191.067 148.138C191.132 148.119 191.2 148.121 191.263 148.144C191.326 148.167 191.38 148.21 191.417 148.266C191.454 148.322 191.472 148.389 191.468 148.456C191.363 150.173 191.029 153.792 190.023 156.388C189.285 158.264 188.148 159.957 186.691 161.35Z" fill="#999999" stroke="black" stroke-width="0.5" stroke-miterlimit="10" stroke-linecap="round" stroke-linejoin="round"/>
<path d="M189.152 166.699C189.107 166.742 189.05 166.77 188.989 166.781C188.927 166.791 188.864 166.782 188.808 166.756C188.751 166.73 188.703 166.688 188.671 166.635C188.638 166.582 188.623 166.52 188.625 166.458C188.741 164.22 189.174 162.01 189.912 159.894C190.883 157.127 192.494 154.762 193.369 153.599C193.409 153.546 193.466 153.506 193.531 153.487C193.595 153.468 193.664 153.471 193.727 153.494C193.79 153.517 193.844 153.56 193.881 153.617C193.918 153.673 193.935 153.74 193.931 153.807C193.824 155.524 193.492 159.143 192.485 161.738C191.748 163.614 190.611 165.307 189.152 166.699Z" fill="#999999" stroke="black" stroke-width="0.5" stroke-miterlimit="10" stroke-linecap="round" stroke-linejoin="round"/>
<path d="M191.069 171.656C191.02 171.694 190.96 171.715 190.898 171.719C190.836 171.722 190.774 171.707 190.72 171.675C190.667 171.643 190.624 171.596 190.598 171.539C190.571 171.483 190.562 171.42 190.572 171.358C190.937 169.147 191.613 166.999 192.581 164.977C193.854 162.336 195.719 160.165 196.717 159.107C196.763 159.056 196.824 159.022 196.891 159.009C196.959 158.997 197.028 159.006 197.089 159.037C197.15 159.068 197.2 159.117 197.23 159.179C197.26 159.24 197.269 159.31 197.256 159.377C196.96 161.071 196.225 164.632 194.937 167.099C193.994 168.881 192.675 170.436 191.069 171.656Z" fill="#999999" stroke="black" stroke-width="0.5" stroke-miterlimit="10" stroke-linecap="round" stroke-linejoin="round"/>
<path d="M192.279 176.509C192.225 176.541 192.163 176.556 192.101 176.552C192.038 176.548 191.979 176.526 191.929 176.488C191.88 176.45 191.843 176.397 191.823 176.338C191.804 176.279 191.802 176.215 191.819 176.155C192.436 174.001 193.356 171.946 194.551 170.05C196.12 167.572 198.223 165.632 199.336 164.695C199.388 164.651 199.452 164.626 199.519 164.622C199.587 164.618 199.653 164.635 199.71 164.672C199.766 164.709 199.809 164.763 199.832 164.827C199.855 164.89 199.857 164.959 199.838 165.024C199.348 166.672 198.208 170.125 196.644 172.426C195.502 174.088 194.013 175.481 192.279 176.509Z" fill="#999999" stroke="black" stroke-width="0.5" stroke-miterlimit="10" stroke-linecap="round" stroke-linejoin="round"/>
<path d="M186.155 161.524C186.217 161.512 186.273 161.482 186.317 161.437C186.361 161.393 186.39 161.337 186.402 161.275C186.413 161.214 186.406 161.151 186.382 161.093C186.357 161.036 186.316 160.987 186.263 160.954C184.368 159.757 182.313 158.836 180.16 158.217C177.341 157.408 174.478 157.364 173.018 157.408C172.95 157.41 172.886 157.434 172.833 157.476C172.781 157.517 172.743 157.575 172.726 157.64C172.708 157.705 172.712 157.773 172.737 157.836C172.761 157.898 172.806 157.951 172.863 157.986C174.325 158.891 177.474 160.707 180.173 161.384C182.134 161.864 184.175 161.912 186.155 161.524Z" fill="#999999" stroke="black" stroke-width="0.5" stroke-miterlimit="10" stroke-linecap="round" stroke-linejoin="round"/>
<path d="M188.719 166.867C188.778 166.849 188.831 166.813 188.87 166.764C188.909 166.716 188.933 166.656 188.938 166.594C188.943 166.532 188.929 166.47 188.899 166.416C188.868 166.361 188.822 166.317 188.766 166.289C186.757 165.297 184.617 164.595 182.411 164.205C179.523 163.698 176.671 163.949 175.229 164.143C175.163 164.151 175.101 164.182 175.052 164.229C175.004 164.276 174.973 164.337 174.962 164.403C174.951 164.47 174.962 164.538 174.994 164.597C175.025 164.657 175.074 164.705 175.135 164.734C176.685 165.482 180.005 166.959 182.761 167.35C184.759 167.624 186.792 167.459 188.719 166.867Z" fill="#999999" stroke="black" stroke-width="0.5" stroke-miterlimit="10" stroke-linecap="round" stroke-linejoin="round"/>
<path d="M190.443 172.074C190.505 172.064 190.562 172.036 190.607 171.993C190.652 171.95 190.683 171.894 190.697 171.834C190.71 171.773 190.705 171.709 190.682 171.651C190.66 171.593 190.62 171.544 190.569 171.508C188.713 170.251 186.689 169.264 184.556 168.577C181.763 167.684 178.905 167.544 177.45 167.541C177.383 167.541 177.317 167.563 177.263 167.602C177.209 167.642 177.17 167.699 177.15 167.763C177.131 167.827 177.132 167.896 177.155 167.959C177.178 168.022 177.22 168.076 177.276 168.114C178.71 169.064 181.798 170.98 184.476 171.743C186.418 172.285 188.454 172.398 190.443 172.074Z" fill="#999999" stroke="black" stroke-width="0.5" stroke-miterlimit="10" stroke-linecap="round" stroke-linejoin="round"/>
<path d="M191.822 176.566C191.882 176.549 191.935 176.514 191.975 176.466C192.015 176.418 192.04 176.36 192.046 176.298C192.053 176.236 192.04 176.173 192.011 176.118C191.982 176.063 191.937 176.018 191.881 175.989C189.893 174.956 187.768 174.209 185.571 173.772C182.693 173.208 179.838 173.399 178.392 173.564C178.325 173.571 178.263 173.6 178.214 173.646C178.165 173.692 178.132 173.752 178.12 173.819C178.108 173.885 178.118 173.953 178.148 174.013C178.177 174.073 178.226 174.122 178.285 174.152C179.819 174.931 183.109 176.478 185.856 176.926C187.847 177.241 189.883 177.118 191.822 176.566Z" fill="#999999" stroke="black" stroke-width="0.5" stroke-miterlimit="10" stroke-linecap="round" stroke-linejoin="round"/>
<path d="M181.919 154.662C181.919 154.662 187.084 159.761 191.537 174.252C195.989 188.743 197.062 197.663 196.792 208.096" stroke="black" stroke-width="0.5" stroke-miterlimit="10" stroke-linecap="round" stroke-linejoin="round"/>
<path d="M184.21 186.809C184.177 186.838 184.135 186.856 184.092 186.862C184.048 186.867 184.004 186.859 183.964 186.839C183.925 186.819 183.893 186.788 183.871 186.75C183.85 186.711 183.841 186.667 183.845 186.623C183.994 185.044 184.368 183.493 184.954 182.018C185.724 180.09 186.936 178.466 187.59 177.67C187.62 177.633 187.661 177.608 187.707 177.596C187.753 177.585 187.802 177.589 187.846 177.607C187.89 177.625 187.926 177.657 187.951 177.698C187.975 177.738 187.986 177.786 187.982 177.833C187.847 179.046 187.509 181.595 186.719 183.401C186.139 184.706 185.283 185.868 184.21 186.809Z" fill="#999999" stroke="black" stroke-width="0.5" stroke-miterlimit="10" stroke-linecap="round" stroke-linejoin="round"/>
<path d="M185.786 190.67C185.753 190.698 185.712 190.717 185.668 190.722C185.624 190.727 185.579 190.719 185.54 190.699C185.501 190.679 185.468 190.648 185.447 190.609C185.425 190.57 185.416 190.526 185.42 190.482C185.57 188.903 185.944 187.352 186.529 185.878C187.3 183.95 188.512 182.325 189.166 181.53C189.196 181.493 189.237 181.467 189.284 181.456C189.33 181.444 189.378 181.448 189.422 181.466C189.466 181.485 189.503 181.517 189.527 181.557C189.551 181.598 189.562 181.646 189.557 181.693C189.43 182.906 189.084 185.454 188.294 187.26C187.715 188.565 186.86 189.728 185.786 190.67Z" fill="#999999" stroke="black" stroke-width="0.5" stroke-miterlimit="10" stroke-linecap="round" stroke-linejoin="round"/>
<path d="M186.991 194.236C186.955 194.261 186.912 194.274 186.868 194.275C186.824 194.275 186.78 194.263 186.744 194.238C186.707 194.214 186.678 194.179 186.661 194.138C186.644 194.097 186.64 194.053 186.649 194.009C186.974 192.458 187.519 190.96 188.266 189.562C189.246 187.732 190.631 186.252 191.366 185.534C191.4 185.501 191.444 185.479 191.491 185.473C191.538 185.466 191.586 185.475 191.628 185.499C191.67 185.522 191.703 185.558 191.722 185.601C191.742 185.645 191.747 185.694 191.736 185.74C191.476 186.929 190.848 189.426 189.862 191.131C189.141 192.362 188.162 193.421 186.991 194.236Z" fill="#999999" stroke="black" stroke-width="0.5" stroke-miterlimit="10" stroke-linecap="round" stroke-linejoin="round"/>
<path d="M187.699 197.706C187.66 197.727 187.615 197.736 187.57 197.732C187.526 197.727 187.483 197.709 187.449 197.68C187.415 197.65 187.391 197.611 187.379 197.568C187.368 197.524 187.37 197.478 187.385 197.436C187.886 195.93 188.599 194.504 189.503 193.199C190.687 191.494 192.234 190.185 193.051 189.561C193.089 189.532 193.135 189.516 193.182 189.516C193.23 189.515 193.276 189.53 193.315 189.557C193.353 189.585 193.382 189.624 193.397 189.67C193.411 189.715 193.411 189.764 193.396 189.809C193 190.959 192.087 193.368 190.911 194.948C190.053 196.09 188.957 197.03 187.699 197.706Z" fill="#999999" stroke="black" stroke-width="0.5" stroke-miterlimit="10" stroke-linecap="round" stroke-linejoin="round"/>
<path d="M183.823 186.919C183.868 186.913 183.91 186.894 183.944 186.863C183.977 186.833 184.001 186.793 184.011 186.749C184.021 186.705 184.017 186.659 184 186.617C183.983 186.575 183.954 186.539 183.916 186.514C182.612 185.61 181.186 184.896 179.681 184.392C177.711 183.738 175.688 183.617 174.658 183.604C174.61 183.603 174.564 183.617 174.525 183.645C174.486 183.673 174.457 183.712 174.443 183.758C174.429 183.803 174.429 183.852 174.445 183.897C174.461 183.942 174.491 183.981 174.53 184.008C175.538 184.691 177.711 186.072 179.6 186.633C180.97 187.033 182.411 187.131 183.823 186.919Z" fill="#999999" stroke="black" stroke-width="0.5" stroke-miterlimit="10" stroke-linecap="round" stroke-linejoin="round"/>
<path d="M185.473 190.776C185.515 190.764 185.553 190.74 185.581 190.707C185.61 190.674 185.628 190.634 185.633 190.591C185.639 190.547 185.631 190.503 185.612 190.464C185.593 190.426 185.562 190.393 185.525 190.371C184.133 189.608 182.64 189.047 181.091 188.703C179.069 188.258 177.039 188.349 176.013 188.442C175.966 188.446 175.921 188.466 175.886 188.498C175.851 188.53 175.826 188.572 175.817 188.618C175.807 188.665 175.813 188.713 175.833 188.756C175.853 188.8 175.887 188.835 175.928 188.858C177.006 189.433 179.307 190.58 181.243 190.94C182.648 191.193 184.092 191.137 185.473 190.776Z" fill="#999999" stroke="black" stroke-width="0.5" stroke-miterlimit="10" stroke-linecap="round" stroke-linejoin="round"/>
<path d="M186.536 194.51C186.58 194.505 186.621 194.486 186.654 194.457C186.687 194.428 186.711 194.39 186.723 194.347C186.734 194.305 186.732 194.26 186.718 194.218C186.704 194.176 186.678 194.14 186.642 194.113C185.368 193.168 183.965 192.409 182.477 191.858C180.53 191.141 178.511 190.955 177.481 190.908C177.434 190.907 177.386 190.921 177.347 190.948C177.308 190.975 177.279 191.015 177.263 191.06C177.248 191.106 177.248 191.155 177.263 191.2C177.278 191.246 177.307 191.285 177.347 191.313C178.332 192.028 180.46 193.477 182.333 194.097C183.687 194.537 185.121 194.678 186.536 194.51Z" fill="#999999" stroke="black" stroke-width="0.5" stroke-miterlimit="10" stroke-linecap="round" stroke-linejoin="round"/>
<path d="M187.375 197.732C187.417 197.721 187.455 197.697 187.484 197.665C187.512 197.632 187.531 197.592 187.538 197.549C187.544 197.506 187.537 197.462 187.519 197.423C187.501 197.383 187.471 197.35 187.434 197.327C186.06 196.533 184.579 195.938 183.037 195.561C181.015 195.073 178.994 195.121 177.964 195.194C177.917 195.197 177.871 195.216 177.835 195.247C177.799 195.278 177.774 195.32 177.763 195.366C177.753 195.413 177.758 195.462 177.777 195.505C177.797 195.549 177.83 195.585 177.871 195.608C178.932 196.205 181.214 197.399 183.143 197.799C184.542 198.084 185.986 198.061 187.375 197.732Z" fill="#999999" stroke="black" stroke-width="0.5" stroke-miterlimit="10" stroke-linecap="round" stroke-linejoin="round"/>
<path d="M181.032 181.936C181.032 181.936 189.154 194.873 190.996 211.086" stroke="black" stroke-width="0.5" stroke-miterlimit="10" stroke-linecap="round" stroke-linejoin="round"/>
<path d="M203.525 142.996C203.594 143.044 203.676 143.071 203.76 143.073C203.844 143.075 203.927 143.051 203.997 143.005C204.068 142.96 204.124 142.894 204.157 142.817C204.19 142.739 204.199 142.654 204.183 142.571C203.595 139.601 202.587 136.73 201.19 134.043C199.354 130.533 196.743 127.684 195.344 126.3C195.28 126.236 195.196 126.193 195.106 126.18C195.016 126.167 194.924 126.183 194.844 126.227C194.764 126.27 194.7 126.338 194.662 126.421C194.624 126.504 194.613 126.596 194.632 126.685C195.108 128.96 196.258 133.736 198.108 137.009C199.458 139.374 201.306 141.417 203.525 142.996Z" fill="#4C4C4C"/>
<path d="M201.273 150.629C201.342 150.677 201.423 150.704 201.508 150.705C201.592 150.707 201.674 150.683 201.745 150.637C201.815 150.592 201.871 150.526 201.904 150.449C201.937 150.371 201.946 150.286 201.93 150.203C201.34 147.234 200.331 144.363 198.933 141.677C197.098 138.167 194.486 135.318 193.087 133.932C193.023 133.869 192.939 133.827 192.849 133.815C192.76 133.802 192.668 133.819 192.588 133.862C192.509 133.905 192.445 133.973 192.407 134.055C192.368 134.138 192.358 134.23 192.376 134.319C192.852 136.593 194.001 141.368 195.851 144.643C197.203 147.008 199.053 149.051 201.273 150.629Z" fill="#4C4C4C"/>
<path d="M199.675 157.63C199.749 157.67 199.833 157.688 199.917 157.68C200.001 157.672 200.08 157.64 200.146 157.587C200.211 157.533 200.259 157.462 200.283 157.381C200.308 157.3 200.307 157.214 200.283 157.134C199.365 154.248 198.042 151.508 196.354 148.994C194.14 145.709 191.224 143.17 189.682 141.949C189.611 141.892 189.524 141.86 189.433 141.858C189.342 141.855 189.253 141.881 189.179 141.933C189.104 141.985 189.048 142.06 189.02 142.146C188.991 142.232 188.991 142.325 189.019 142.411C189.744 144.619 191.419 149.237 193.621 152.285C195.227 154.485 197.293 156.309 199.675 157.63Z" fill="#4C4C4C"/>
<path d="M199 164.352C199.078 164.382 199.163 164.388 199.244 164.369C199.324 164.351 199.398 164.309 199.456 164.25C199.513 164.19 199.552 164.114 199.567 164.033C199.581 163.951 199.572 163.867 199.539 163.79C198.295 161.03 196.665 158.46 194.699 156.158C192.12 153.151 188.93 150.965 187.259 149.929C187.181 149.881 187.09 149.859 186.999 149.867C186.908 149.875 186.823 149.912 186.754 149.972C186.686 150.033 186.639 150.114 186.621 150.203C186.603 150.292 186.614 150.385 186.652 150.468C187.628 152.577 189.825 156.972 192.363 159.745C194.215 161.745 196.48 163.317 199 164.352Z" fill="#4C4C4C"/>
<path d="M204.274 143.126C204.19 143.122 204.109 143.092 204.042 143.042C203.975 142.991 203.924 142.922 203.897 142.842C203.87 142.762 203.867 142.677 203.888 142.595C203.91 142.514 203.956 142.441 204.019 142.386C206.319 140.416 208.887 138.782 211.647 137.535C215.261 135.918 219.078 135.29 221.03 135.063C221.12 135.053 221.212 135.072 221.29 135.118C221.369 135.163 221.431 135.233 221.467 135.316C221.503 135.4 221.511 135.492 221.49 135.581C221.469 135.669 221.42 135.749 221.351 135.807C219.571 137.302 215.714 140.343 212.236 141.772C209.712 142.796 206.995 143.258 204.274 143.126Z" fill="#4C4C4C"/>
<path d="M201.886 150.77C201.803 150.756 201.725 150.718 201.664 150.661C201.603 150.603 201.56 150.529 201.541 150.447C201.522 150.365 201.528 150.279 201.558 150.2C201.589 150.122 201.642 150.054 201.71 150.006C204.204 148.287 206.928 146.932 209.803 145.98C213.565 144.743 217.426 144.524 219.392 144.498C219.483 144.497 219.572 144.525 219.646 144.578C219.72 144.631 219.774 144.707 219.801 144.794C219.829 144.881 219.827 144.974 219.797 145.06C219.766 145.146 219.709 145.22 219.634 145.27C217.706 146.569 213.553 149.192 209.946 150.256C207.328 151.01 204.578 151.185 201.886 150.77Z" fill="#4C4C4C"/>
<path d="M200.591 158.065C200.506 158.063 200.425 158.036 200.356 157.987C200.288 157.938 200.235 157.87 200.205 157.792C200.175 157.713 200.17 157.627 200.189 157.545C200.208 157.463 200.251 157.389 200.313 157.332C202.55 155.291 205.065 153.578 207.783 152.243C211.343 150.506 215.138 149.764 217.081 149.475C217.171 149.462 217.263 149.478 217.343 149.521C217.423 149.564 217.487 149.631 217.526 149.714C217.565 149.796 217.576 149.888 217.558 149.978C217.54 150.067 217.494 150.148 217.426 150.208C215.694 151.758 211.936 154.925 208.505 156.46C206.014 157.562 203.314 158.11 200.591 158.065Z" fill="#4C4C4C"/>
<path d="M199.622 164.341C199.539 164.329 199.461 164.293 199.398 164.237C199.336 164.181 199.291 164.107 199.271 164.026C199.25 163.944 199.254 163.859 199.283 163.779C199.312 163.7 199.363 163.632 199.431 163.582C201.888 161.813 204.584 160.401 207.439 159.39C211.175 158.074 215.031 157.772 216.996 157.713C217.087 157.71 217.176 157.736 217.251 157.788C217.326 157.84 217.382 157.914 217.411 158C217.44 158.087 217.44 158.18 217.412 158.266C217.383 158.353 217.328 158.428 217.253 158.48C215.354 159.819 211.256 162.523 207.67 163.661C205.069 164.469 202.323 164.701 199.622 164.341Z" fill="#4C4C4C"/>
<path d="M209.777 132.883C209.777 132.883 204.886 138.246 201.203 152.953C197.52 167.659 197.28 214.747 194.638 224.843" stroke="#4C4C4C" stroke-width="0.5" stroke-miterlimit="10" stroke-linecap="round" stroke-linejoin="round"/>
<path d="M175.84 199.738V200.09C175.84 204.195 176.653 208.26 178.231 212.05C179.81 215.84 182.123 219.28 185.037 222.172C187.045 224.165 189.752 225.295 192.581 225.322C195.409 225.349 198.137 224.271 200.183 222.317L200.268 222.237C203.31 219.332 205.731 215.84 207.385 211.974C209.04 208.107 209.892 203.944 209.892 199.738H175.84Z" fill="#E5E5E5" stroke="black" stroke-width="0.5" stroke-linecap="round" stroke-linejoin="round"/>
<path d="M177.144 208.475H175.84V248.397H177.144V208.475Z" fill="black"/>
<path d="M193.517 208.475H192.213V248.397H193.517V208.475Z" fill="black"/>
<path d="M209.89 208.475H208.586V248.397H209.89V208.475Z" fill="black"/>
<path d="M192.866 239.58C201.908 239.58 209.239 237.944 209.239 235.927C209.239 233.909 201.908 232.273 192.866 232.273C183.823 232.273 176.492 233.909 176.492 235.927C176.492 237.944 183.823 239.58 192.866 239.58Z" stroke="black" stroke-width="0.5" stroke-miterlimit="10" stroke-linecap="round" stroke-linejoin="round"/>
<path d="M209.24 212.525C209.24 214.547 201.909 216.179 192.866 216.179C183.822 216.179 176.492 214.543 176.492 212.525" stroke="black" stroke-width="0.5" stroke-miterlimit="10" stroke-linecap="round" stroke-linejoin="round"/>
<path d="M184.017 157.953C184.078 157.983 184.147 157.993 184.214 157.983C184.281 157.973 184.344 157.943 184.394 157.897C184.444 157.851 184.479 157.791 184.495 157.725C184.511 157.659 184.507 157.59 184.483 157.526C183.612 155.244 182.422 153.097 180.948 151.149C179.014 148.605 176.55 146.693 175.253 145.78C175.193 145.738 175.121 145.715 175.047 145.717C174.973 145.719 174.902 145.744 174.844 145.79C174.786 145.835 174.745 145.898 174.725 145.97C174.706 146.041 174.711 146.116 174.738 146.185C175.424 147.93 176.983 151.575 178.897 153.925C180.291 155.624 182.038 156.998 184.017 157.953Z" fill="#999999" stroke="black" stroke-width="0.5" stroke-miterlimit="10" stroke-linecap="round" stroke-linejoin="round"/>
<path d="M182.417 184.326C182.459 184.349 182.508 184.359 182.555 184.354C182.603 184.349 182.649 184.33 182.686 184.299C182.723 184.268 182.75 184.227 182.763 184.181C182.776 184.134 182.775 184.085 182.76 184.039C182.214 182.398 181.436 180.844 180.452 179.421C179.161 177.563 177.475 176.134 176.586 175.45C176.545 175.418 176.495 175.401 176.443 175.4C176.391 175.4 176.341 175.416 176.299 175.446C176.257 175.476 176.225 175.519 176.21 175.568C176.194 175.617 176.194 175.67 176.211 175.719C176.642 176.974 177.636 179.599 178.917 181.321C179.852 182.565 181.046 183.591 182.417 184.326Z" fill="#999999" stroke="black" stroke-width="0.5" stroke-miterlimit="10" stroke-linecap="round" stroke-linejoin="round"/>
<path d="M53.7698 215.843L52 214.477V184.787L53.7915 186.155L53.7698 215.843Z" fill="#1A1A1A" stroke="black" stroke-width="0.5" stroke-miterlimit="10" stroke-linejoin="round"/>
<path d="M52 184.787L53.7928 186.155L74.2939 186.317L72.5011 184.948L52 184.787Z" fill="#808080" stroke="black" stroke-width="0.5" stroke-linecap="round" stroke-linejoin="round"/>
<path d="M53.7912 186.154L74.2936 186.316V193.451H61.3507V197.414H72.3451V204.339H61.2638V208.785H74.3575V216.006L53.7695 215.843L53.7912 186.154Z" fill="#999999" stroke="black" stroke-width="0.5" stroke-linecap="round" stroke-linejoin="round"/>
<path d="M60.7625 19.9648L58.3581 36.5101H58.2304L55.5309 19.9648H48.4516L45.9169 36.5101H45.7892L43.22 19.9648H35.75L40.9854 49.153L42.7731 50.5205L48.873 49.153L51.7653 31.3768H51.893L52.3693 34.2997L54.7839 49.153L56.5716 50.5205L62.6728 49.153L62.6818 49.1095L67.9095 19.9648H60.7625Z" fill="#1A1A1A" stroke="black" stroke-width="0.5" stroke-miterlimit="10" stroke-linejoin="round"/>
<path d="M62.5552 21.334L60.1507 37.8805H60.023L57.3262 21.334H50.2443L47.7096 37.8805H47.5819L45.014 21.334H37.5439L42.773 50.5221H50.6657L53.5579 32.7472H53.6856L54.1645 35.6701L55.3278 42.8273L55.6713 44.9342L56.5792 50.5221H64.4744L64.4821 50.4799L69.7047 21.334H62.5552Z" fill="#B3B3B3" stroke="black" stroke-width="0.5" stroke-linejoin="round"/>
<path d="M35.75 19.9668L37.5428 21.3344H45.0141L43.22 19.9668H35.75Z" fill="#808080" stroke="black" stroke-width="0.5" stroke-linecap="round" stroke-linejoin="round"/>
<path d="M60.7334 19.9668L62.5262 21.3344H69.7026L67.9098 19.9668H60.7334Z" fill="#808080" stroke="black" stroke-width="0.5" stroke-linecap="round" stroke-linejoin="round"/>
<path d="M48.4658 19.9668L50.2586 21.3344H57.3239L55.5311 19.9668H48.4658Z" fill="#808080" stroke="black" stroke-width="0.5" stroke-linecap="round" stroke-linejoin="round"/>
<path d="M51.4485 99.7724L49.6787 98.4048V68.7148L51.4702 70.0837L51.4485 99.7724Z" fill="#1A1A1A" stroke="black" stroke-width="0.5" stroke-linecap="round" stroke-linejoin="round"/>
<path d="M49.6787 68.7148L51.4702 70.0837H59.7052L57.9124 68.7148H49.6787Z" fill="#808080" stroke="black" stroke-width="0.5" stroke-linecap="round" stroke-linejoin="round"/>
<path d="M55.6641 91.498L57.4556 92.8656H72.3842L70.5914 91.498H55.6641Z" fill="#808080" stroke="black" stroke-width="0.5" stroke-linecap="round" stroke-linejoin="round"/>
<path d="M51.4746 70.084H59.7095V92.8874H72.3882V99.7726H51.4746V70.084Z" fill="#B3B3B3" stroke="black" stroke-width="0.5" stroke-linejoin="round"/>
<path d="M32.8772 78.8798L31.1074 77.5122V47.8223L32.899 49.1911L32.8772 78.8798Z" fill="#1A1A1A" stroke="black" stroke-width="0.5" stroke-miterlimit="10" stroke-linejoin="round"/>
<path d="M31.1074 47.8223L32.9002 49.1911L53.4014 49.352L51.6086 47.9844L31.1074 47.8223Z" fill="#808080" stroke="black" stroke-width="0.5" stroke-linecap="round" stroke-linejoin="round"/>
<path d="M32.8996 49.1914L53.4021 49.3523V56.4865H40.4591V60.4501H51.4547V67.3762H40.3735V71.8212H53.4672V79.0422L32.8779 78.8801L32.8996 49.1914Z" fill="#808080" stroke="black" stroke-width="0.5" stroke-linecap="round" stroke-linejoin="round"/>
<path d="M59.949 117.787C58.741 123.39 54.5156 127.473 46.9932 127.473C37.4686 127.473 32.9648 120.732 32.9648 112.187C32.9648 103.952 37.6116 96.5723 47.3048 96.5723C55.3035 96.5723 59.1802 101.268 59.9158 106.288H53.42C52.793 103.973 51.1815 101.666 47.0979 101.666C41.7412 101.666 39.6726 106.484 39.6726 111.95C39.6726 117.029 41.4679 122.379 47.2716 122.379C51.511 122.379 52.8492 119.539 53.4149 117.782L59.949 117.787Z" fill="#4C4C4C" stroke="black" stroke-width="0.5" stroke-linejoin="round"/>
<path d="M61.2673 118.582C60.0593 124.185 55.834 128.266 48.3116 128.266C38.7869 128.266 34.2832 121.525 34.2832 112.98C34.2832 104.745 38.93 97.3672 48.6231 97.3672C56.6218 97.3672 60.4986 102.062 61.2341 107.083H54.7384C54.1114 104.763 52.4999 102.465 48.4137 102.465C43.057 102.465 40.9884 107.283 40.9884 112.749C40.9884 117.827 42.7837 123.178 48.5887 123.178C52.8268 123.178 54.165 120.338 54.7307 118.581L61.2673 118.582Z" stroke="#808080" stroke-width="0.5" stroke-linejoin="round"/>
<path d="M74.1961 138.907C74.1961 147.302 69.0924 154.529 59.1734 154.529C49.588 154.529 44.5713 147.65 44.5713 139.015C44.5713 130.237 50.1125 123.5 59.6005 123.5C68.5355 123.491 74.1961 129.674 74.1961 138.907ZM52.4244 139.015C52.4244 144.903 55.4891 148.832 59.6005 148.592C65.066 148.272 66.6622 143.676 66.6622 138.907C66.6622 134.139 64.3745 129.438 58.6814 129.438C53.1649 129.438 52.4244 133.142 52.4244 139.015Z" fill="#1A1A1A" stroke="black" stroke-width="0.5" stroke-linecap="round" stroke-linejoin="round"/>
<path d="M75.014 139.58C75.014 147.94 69.9944 155.138 60.2386 155.138C50.811 155.138 45.877 148.287 45.877 139.687C45.877 130.945 51.3269 124.236 60.6587 124.236C69.4466 124.227 75.014 130.385 75.014 139.58ZM52.5847 139.552C52.5847 145.416 55.159 149.853 60.4838 149.853C66.2606 149.853 68.3063 145.015 68.3063 139.662C68.3063 133.979 65.9784 129.513 60.3791 129.513C54.9534 129.513 52.5847 133.704 52.5847 139.552Z" fill="#B3B3B3" stroke="black" stroke-width="0.5" stroke-linecap="round" stroke-linejoin="round"/>
<path d="M53.3087 151.357L51.1788 161.639L51.0601 162.214L50.5953 164.468L50.4778 165.035L49.7627 168.482H49.6248L48.261 161.97L48.1972 161.671L46.0392 151.359H35.2861V181.047H42.2812V170.345C42.2812 165.858 41.6618 160.982 41.6618 160.982H41.7985L45.1951 176.432L45.2628 176.74L46.209 181.045H52.171L53.0929 176.812L53.2321 176.173L53.651 174.251L53.8987 173.114L55.6864 164.927L55.8026 164.391L56.1857 162.615L56.5202 161.082L56.5496 160.955H56.6875C56.6875 160.955 56.6811 161.01 56.6709 161.113C56.6428 161.369 56.5866 161.921 56.5189 162.677C56.4832 163.078 56.4449 163.535 56.4066 164.037C56.3683 164.539 56.3325 165.051 56.298 165.605C56.2699 166.061 56.2431 166.535 56.2214 167.02C56.1997 167.505 56.178 168.007 56.164 168.51C56.1499 169.013 56.1397 169.504 56.1371 169.999C56.1371 170.121 56.1371 170.241 56.1371 170.361V181.063H63.6838V151.374L53.3087 151.357Z" fill="#666666" stroke="black" stroke-width="0.5" stroke-linejoin="round"/>
<path d="M54.7045 152.961L52.5746 163.243L52.4558 163.817L51.9884 166.076L51.871 166.645L51.1546 170.092H51.018L49.6542 163.58L49.5904 163.281L47.4323 152.969H36.6768V182.657H43.6718V171.95C43.6718 167.463 43.0512 162.586 43.0512 162.586H43.1891L46.5857 178.037L46.6534 178.345L47.5996 182.65H53.5616L54.4836 178.417L54.6227 177.778L55.0416 175.856L55.2893 174.719L57.0706 166.532L57.1881 165.996L57.5712 164.22L57.9057 162.687L57.9351 162.553H58.073C58.073 162.553 58.0666 162.608 58.0551 162.712C58.0283 162.967 57.9721 163.52 57.9045 164.276C57.8687 164.677 57.8304 165.134 57.7908 165.636C57.7512 166.138 57.718 166.65 57.6836 167.204C57.6555 167.66 57.6286 168.133 57.6069 168.619C57.5852 169.104 57.5635 169.606 57.5495 170.109C57.5354 170.612 57.5252 171.102 57.5227 171.598C57.5227 171.725 57.5227 171.839 57.5227 171.959V182.661H65.0693V152.972L54.7045 152.961Z" stroke="#808080" stroke-width="0.5" stroke-linejoin="round"/>
<path fill-rule="evenodd" clip-rule="evenodd" d="M176.522 94.1565C178.983 93.6922 181.861 92.2994 181.536 88.2137C181.49 87.4708 181.35 86.8672 181.118 86.3565C181.142 86.3565 181.153 86.3449 181.165 86.3333C181.176 86.3217 181.188 86.3101 181.211 86.3101V86.2172L165.286 54.3208L165.843 49.9565C165.843 49.9101 165.797 49.8172 165.75 49.8172L162.268 49.2137C162.083 49.028 160.922 47.728 161.154 46.9387C161.273 46.5009 161.597 46.2678 161.922 46.0347C161.95 46.0141 161.979 45.9934 162.008 45.9726C162.033 45.9543 162.058 45.9359 162.083 45.9172C162.454 45.6851 162.779 45.453 162.872 44.9887C162.965 44.3851 162.5 43.9208 162.036 43.503C161.758 43.2708 161.479 42.9922 161.293 42.7137L161.247 42.6208C160.875 41.9708 160.504 41.228 160.69 40.578C160.875 39.9744 161.433 39.603 161.99 39.278C162.132 39.207 162.274 39.109 162.395 39.0252C162.432 38.9994 162.468 38.9749 162.5 38.953C163.011 38.5815 163.475 38.1172 163.8 37.5601C164.125 37.003 164.311 36.3994 164.404 35.7494C164.45 35.0994 164.404 34.4958 164.172 33.8458C163.986 33.2422 163.661 32.6851 163.197 32.2208C162.965 31.9887 162.733 31.7565 162.454 31.5708C162.175 31.3387 161.897 31.1065 161.665 30.828C160.783 29.8065 160.458 28.6922 160.643 27.4387C160.736 26.8815 160.922 26.278 161.108 25.7208L161.386 24.7458C162.825 19.4994 159.715 13.8815 154.143 11.6994C153.642 11.4903 153.102 11.3565 152.593 11.2303L152.425 11.1887C151.033 10.8637 149.918 10.8172 148.99 11.0494C148.386 11.1887 147.736 11.3744 147.179 11.6065L146.715 11.8387C146.658 11.8671 146.59 11.9031 146.516 11.9422C146.226 12.095 145.851 12.2935 145.74 12.2565C143.65 11.7922 141.886 11.7458 140.122 12.1172C137.197 12.7672 135.479 13.8815 133.808 15.4137C130.233 18.6172 131.254 25.2101 132.786 28.878C132.833 30.9672 132.925 34.403 134.504 37.1887C135.525 38.9994 137.243 39.6958 138.868 39.8351L138.358 45.3137C138.311 45.7315 138.125 46.1494 137.847 46.4744C137.568 46.7994 137.15 47.0315 136.733 47.1244L136.036 47.2637C135.99 47.2637 135.943 47.3101 135.943 47.3565L134.597 47.5422V47.3101C134.597 47.2637 134.597 47.2637 134.55 47.2172C134.527 47.2172 134.516 47.2056 134.504 47.194C134.492 47.1824 134.481 47.1708 134.458 47.1708L120.158 49.678C120.111 49.678 120.065 49.7244 120.065 49.8172L120.39 52.4637L106.693 75.028L100.147 66.8101C100.147 66.7637 100.1 66.7637 100.054 66.7637C100.008 66.7637 100.008 66.7637 99.9612 66.8101L99.3576 67.553L92.9505 59.428C92.9505 59.4067 92.9508 59.3785 92.9511 59.3436C92.9586 58.6144 92.9964 54.957 91.0469 50.7922C89.0969 46.6137 88.3076 45.9172 87.8433 45.778C87.6576 45.7315 87.5183 45.7315 87.379 45.8244C86.8683 46.103 87.4719 50.0494 87.7969 51.9994C87.1469 51.4887 85.3362 50.0494 84.2219 48.9351L84.129 48.7958C80.3683 44.9422 78.604 43.503 78.0933 43.9208C77.5362 44.3387 78.279 45.453 79.579 47.3101C79.8112 47.6351 80.0433 47.9601 80.2755 48.3315C80.7398 49.028 81.204 49.678 81.5755 50.1422C79.8576 48.7958 75.679 45.5458 74.9362 45.453C74.6576 45.4065 74.4255 45.4994 74.2398 45.6387C73.9612 45.9172 73.8683 46.3351 73.8683 46.5208C73.8582 46.5269 73.8468 46.5336 73.8344 46.5409C73.5614 46.7017 72.7682 47.169 73.079 48.1458C73.3576 49.0279 77.0713 52.7416 78.6036 54.274L78.604 54.2744C77.0719 53.3922 73.7755 51.5815 72.8933 51.8601C72.7541 51.9065 72.7076 51.953 72.6612 52.0458L72.6599 52.0484C72.5659 52.2359 72.3228 52.7209 79.4398 58.128C82.829 60.6815 86.2648 63.1422 86.5898 63.328L93.5076 74.7494L92.4398 76.0494C92.3933 76.0958 92.3933 76.1422 92.4398 76.1887L100.24 89.6065C101.54 91.8351 103.722 93.228 106.275 93.4137C106.392 93.4137 106.508 93.4253 106.624 93.4369C106.74 93.4485 106.856 93.4601 106.972 93.4601C109.293 93.4601 111.383 92.4851 112.915 90.6744L123.686 77.7208L124.847 86.9137L118.672 107.574C118.672 107.621 118.672 107.667 118.718 107.667L122.618 111.66L112.218 144.764C110.779 149.267 110.408 154.142 111.058 158.832L117.929 207.953C117.929 207.958 117.93 207.963 117.931 207.967C117.932 207.971 117.933 207.975 117.935 207.979C117.938 207.983 117.941 207.987 117.944 207.991C117.947 207.994 117.949 207.997 117.952 207.999C117.964 208.011 117.975 208.023 117.975 208.046H118.068L120.715 207.164L121.458 210.878L121.086 210.971C121.04 210.971 120.993 211.064 120.993 211.11L122.479 220.582L117.79 234.835L112.079 239.849C111.429 240.453 111.475 242.124 111.754 242.821C111.754 242.821 111.754 242.867 111.8 242.867L111.893 242.914C111.893 242.914 111.847 242.914 111.847 242.96V243.053L113.843 247.928C113.843 247.957 113.861 247.968 113.886 247.983C113.901 247.992 113.918 248.003 113.936 248.021C113.941 248.021 113.948 248.021 113.956 248.022C113.968 248.024 113.983 248.026 114.001 248.029L114.002 248.029C114.092 248.042 114.265 248.067 114.54 248.067C115.561 248.067 117.79 247.928 121.411 246.86C122.804 246.442 123.918 246.071 124.847 245.746L124.893 246.999C124.893 247.046 124.94 247.092 124.94 247.092C125.033 247.139 127.168 248.207 132.368 248.532C137.163 248.831 139.116 248.341 139.427 248.263C139.454 248.257 139.468 248.253 139.472 248.253C139.518 248.253 139.565 248.207 139.565 248.16L139.843 243.564L146.947 240.685L146.436 248.392C146.436 248.439 146.436 248.439 146.483 248.485C146.494 248.497 146.503 248.506 146.51 248.512C146.516 248.517 146.521 248.521 146.525 248.524C146.532 248.528 146.539 248.53 146.547 248.531C146.554 248.532 146.563 248.532 146.575 248.532C146.581 248.532 146.624 248.534 146.699 248.539C147.242 248.574 149.47 248.717 151.59 248.717C152.565 248.717 153.447 248.671 154.19 248.624C156.79 248.346 157.022 246.767 157.022 246.674L158.043 235.021C158.09 234.046 158.136 232.792 157.718 231.864C157.625 231.492 157.533 231.121 157.347 230.796L154.468 224.389L155.908 215.707C155.908 215.66 155.908 215.66 155.861 215.614C155.861 215.567 155.815 215.567 155.768 215.567L154.793 215.521L155.49 210.599L159.25 210.739C159.27 210.739 159.282 210.739 159.292 210.735C159.297 210.733 159.301 210.731 159.307 210.727C159.311 210.723 159.316 210.719 159.322 210.713C159.328 210.708 159.335 210.701 159.343 210.692C159.343 210.692 159.39 210.646 159.39 210.599L160.55 114.771L167.375 107.76C167.422 107.714 167.422 107.667 167.422 107.667L161.479 87.8422C164.033 89.4672 166.679 91.278 168.258 92.3922C168.722 92.7172 169.186 92.9958 169.697 93.1815C170.022 93.4601 170.347 93.6922 170.718 93.8315C171.925 94.2958 173.225 94.528 174.479 94.528C174.829 94.4529 175.193 94.3914 175.562 94.3288L175.563 94.3287C175.879 94.2751 176.201 94.2207 176.522 94.1565ZM129.025 237.574L132.415 234.51L132.879 236.089L129.025 237.574ZM144.44 214.685H144.254C144.208 214.685 144.161 214.732 144.115 214.778L142.304 224.157L141.004 225.782L140.865 225.317C140.586 224.389 140.168 223.182 139.472 222.439C139.442 222.397 139.414 222.357 139.385 222.317C139.191 222.043 139.019 221.8 138.775 221.557L133.9 216.542L132.275 207.86C132.275 207.837 132.264 207.825 132.252 207.814C132.25 207.811 132.247 207.808 132.245 207.806C132.242 207.803 132.239 207.8 132.237 207.796C132.232 207.789 132.229 207.78 132.229 207.767H132.136L130.929 208.139L130.511 203.914L133.715 202.846C133.761 202.846 133.808 202.799 133.808 202.707L127.911 154.467L140.958 119.739L143.186 209.764C143.186 209.81 143.233 209.857 143.279 209.857L144.44 209.903V214.685ZM151.417 47.3582C151.414 47.3586 151.412 47.3593 151.409 47.3601C151.396 47.3649 151.384 47.3763 151.358 47.403C151.311 47.403 151.311 47.4494 151.311 47.4958V47.5422L150.336 47.403C150.058 47.1244 148.618 45.5458 148.525 42.6672C148.479 41.4601 148.572 39.6494 148.665 37.8851C148.711 37.8387 149.083 37.5137 149.593 37.0958C149.764 37.7372 150.329 38.3392 150.925 38.9744L150.959 39.0109C150.999 39.0533 151.039 39.0959 151.079 39.1387C151.151 39.2175 151.224 39.2963 151.297 39.3749C151.741 39.8524 152.18 40.3252 152.379 40.7637C152.591 41.2719 152.3 42.0506 152.001 42.853L152 42.855C151.972 42.9316 151.943 43.0083 151.915 43.0851C151.865 43.2257 151.814 43.3634 151.764 43.4978L151.762 43.5022L151.762 43.5043C151.532 44.122 151.328 44.6717 151.404 45.128C151.59 46.5208 152.518 47.3101 153.4 47.728L151.45 47.3565C151.44 47.3565 151.431 47.3565 151.424 47.3571C151.421 47.3574 151.419 47.3577 151.417 47.3582ZM162.686 84.0351L161.572 83.3387L161.99 80.228L163.986 82.2244C164.079 82.5958 164.311 82.9208 164.636 83.153L165.379 83.6172L165.704 83.9422L162.686 84.0351Z" fill="url(#paint0_linear_2567_274042)" style="mix-blend-mode:overlay"/>
<path d="M199.179 52.9279C208.14 52.9279 215.429 45.6386 215.429 36.6779C215.429 27.7172 208.14 20.4279 199.179 20.4279C190.218 20.4279 182.929 27.7172 182.929 36.6779C182.929 45.6386 190.218 52.9279 199.179 52.9279Z" fill="url(#paint1_linear_2567_274042)" style="mix-blend-mode:overlay"/>
<path fill-rule="evenodd" clip-rule="evenodd" d="M217.153 165.201C217.133 165.196 217.115 165.192 217.1 165.192C216.451 165.842 215.754 166.631 215.104 167.606C217.054 166.864 219.097 166.399 221.186 166.214C224.111 165.935 226.897 166.446 228.336 166.771C228.429 166.771 228.475 166.817 228.522 166.864C228.568 166.91 228.615 167.003 228.615 167.049C228.615 167.096 228.615 167.189 228.568 167.235C228.537 167.297 228.506 167.318 228.475 167.338C228.466 167.345 228.456 167.351 228.446 167.359C228.44 167.364 228.435 167.369 228.429 167.374C226.85 167.978 223.415 169.185 220.629 169.324C218.633 169.464 216.59 169.092 214.733 168.349L214.64 168.256C213.711 169.417 212.69 170.81 211.576 172.435C213.665 171.924 215.8 171.646 217.936 171.692C220.861 171.739 223.6 172.528 224.993 172.992L225.133 173.131C225.179 173.178 225.179 173.271 225.179 173.317C225.179 173.364 225.179 173.456 225.133 173.503C225.086 173.549 224.993 173.596 224.947 173.596C223.275 174.014 219.747 174.849 216.961 174.71C214.965 174.571 212.968 174.014 211.204 173.085L211.158 173.039C210.322 174.292 209.44 175.731 208.558 177.264C210.6 176.381 212.783 175.824 214.965 175.546C217.89 175.174 220.722 175.592 222.161 175.871C222.254 175.871 222.3 175.917 222.347 175.964C222.393 176.01 222.44 176.103 222.44 176.149C222.44 176.196 222.44 176.289 222.393 176.335L222.254 176.474C220.676 177.124 217.286 178.424 214.5 178.656C212.458 178.842 210.461 178.564 208.558 177.867C208.511 177.867 208.465 177.821 208.418 177.774C208.41 177.766 208.403 177.759 208.397 177.753C208.391 177.747 208.387 177.742 208.383 177.737C208.38 177.732 208.377 177.727 208.375 177.723C208.374 177.719 208.373 177.715 208.373 177.711C208.373 177.709 208.372 177.707 208.372 177.704C208.372 177.698 208.372 177.691 208.372 177.681C208.119 178.103 207.883 178.542 207.643 178.987L207.643 178.988L207.642 178.99C207.486 179.279 207.329 179.572 207.165 179.864C206.886 180.374 206.608 180.885 206.375 181.349V181.442C208.511 180.792 210.74 180.467 212.968 180.467C215.94 180.467 218.679 181.21 220.072 181.628C220.118 181.628 220.165 181.674 220.211 181.721C220.258 181.767 220.258 181.86 220.258 181.906C220.258 181.953 220.258 182.046 220.211 182.092C220.165 182.139 220.072 182.185 220.025 182.185C218.4 182.649 214.872 183.578 212.086 183.485C210.043 183.439 208.093 182.928 206.283 181.999C206.254 181.999 206.243 181.982 206.228 181.957C206.218 181.942 206.208 181.924 206.19 181.906C206.143 181.953 206.051 181.953 206.004 181.953C202.383 188.917 200.061 194.535 198.436 199.642H210.043C210.09 199.642 210.136 199.689 210.136 199.735C210.136 202.706 209.718 205.631 208.883 208.464H209.997V248.392H208.697V237.11C206.654 238.596 200.758 239.664 193.608 239.71V248.392H192.308V239.292L192.215 239.292V232.421C185.065 232.467 178.936 233.628 177.125 235.067V236.831C177.155 236.855 177.186 236.879 177.218 236.902V248.021H175.918V208.092H176.94C176.15 205.353 175.779 202.567 175.779 199.689V199.317C175.779 199.271 175.826 199.224 175.872 199.224H188.547C188.436 198.835 188.308 198.446 188.184 198.067C188.1 197.813 188.018 197.563 187.943 197.321C187.908 197.338 187.879 197.349 187.855 197.359C187.815 197.374 187.786 197.385 187.758 197.414C187.665 197.46 187.618 197.46 187.572 197.46H187.525C187.479 197.414 187.479 197.414 187.433 197.414C187.433 197.46 187.386 197.46 187.386 197.46C186.643 197.646 185.9 197.739 185.111 197.739C184.415 197.739 183.765 197.692 183.115 197.553C181.211 197.181 178.983 196.021 177.822 195.371C177.791 195.371 177.76 195.329 177.729 195.288C177.725 195.283 177.721 195.278 177.717 195.273C177.706 195.257 177.694 195.243 177.683 195.231V194.999C177.683 194.906 177.729 194.86 177.775 194.814C177.822 194.767 177.868 194.721 177.961 194.721C178.983 194.628 181.025 194.581 183.068 195.092C184.6 195.464 186.04 196.067 187.386 196.81C187.403 196.758 187.427 196.7 187.453 196.638C187.495 196.533 187.543 196.416 187.572 196.299C187.453 195.983 187.343 195.667 187.234 195.355L187.234 195.354C187.087 194.932 186.943 194.517 186.783 194.117C186.783 194.164 186.783 194.164 186.736 194.21C186.69 194.256 186.597 194.303 186.55 194.303C186.179 194.349 185.761 194.349 185.39 194.349C184.322 194.349 183.254 194.21 182.279 193.885C180.422 193.281 178.333 191.889 177.265 191.099C177.172 191.053 177.125 191.006 177.125 190.914C177.079 190.821 177.079 190.728 177.125 190.681C177.172 190.589 177.218 190.542 177.265 190.496C177.311 190.449 177.358 190.449 177.451 190.449C178.472 190.496 180.515 190.681 182.465 191.424C183.904 191.981 185.251 192.724 186.504 193.606V193.56C186.242 192.841 185.958 192.144 185.683 191.471L185.681 191.466C185.566 191.185 185.453 190.908 185.343 190.635C184.554 190.821 183.718 190.914 182.929 190.914C182.326 190.914 181.722 190.867 181.165 190.774C179.261 190.403 176.986 189.335 175.826 188.685C175.779 188.685 175.733 188.592 175.686 188.546C175.64 188.453 175.64 188.406 175.64 188.314C175.64 188.221 175.686 188.174 175.733 188.128C175.779 188.081 175.826 188.035 175.918 188.035C176.94 187.942 178.983 187.849 181.025 188.314C182.372 188.639 183.672 189.103 184.879 189.706C184.439 188.695 184 187.767 183.599 186.922L183.599 186.921L183.598 186.92L183.533 186.781L183.532 186.782C183.114 186.828 182.697 186.874 182.279 186.874C181.35 186.874 180.422 186.735 179.493 186.456C177.636 185.899 175.501 184.553 174.386 183.81C174.328 183.781 174.306 183.733 174.287 183.691C174.275 183.665 174.264 183.642 174.247 183.624V183.392C174.293 183.299 174.34 183.253 174.386 183.207C174.433 183.16 174.479 183.16 174.572 183.16C175.593 183.16 177.636 183.299 179.633 183.949C180.793 184.367 181.908 184.878 182.929 185.481C182.65 184.924 182.418 184.46 182.186 184.042C180.84 183.346 179.633 182.278 178.704 181.071C177.404 179.399 176.429 176.846 175.965 175.453C175.965 175.42 175.959 175.393 175.954 175.368C175.944 175.321 175.935 175.281 175.965 175.221C176.011 175.128 176.058 175.081 176.104 175.035C176.123 175.035 176.143 175.027 176.165 175.018C176.197 175.005 176.235 174.989 176.29 174.989C176.383 174.989 176.476 175.035 176.522 175.081C177.404 175.778 179.122 177.217 180.422 179.074C181.397 180.514 182.186 182.046 182.743 183.717V183.949C182.743 184.042 182.697 184.089 182.65 184.135C182.604 184.181 182.511 184.228 182.465 184.228C182.743 184.692 183.022 185.203 183.3 185.806C183.37 185.853 183.428 185.888 183.486 185.922C183.518 185.941 183.549 185.96 183.582 185.981C183.61 185.998 183.64 186.017 183.672 186.039C183.858 184.553 184.183 183.114 184.74 181.721C185.529 179.771 186.736 178.146 187.386 177.356C187.433 177.31 187.479 177.264 187.572 177.264C187.665 177.217 187.758 177.217 187.804 177.264L187.943 177.403C187.99 177.449 187.99 177.496 187.99 177.589C187.758 179.956 187.293 181.906 186.736 183.206C186.133 184.506 185.251 185.714 184.183 186.642C184.136 186.689 184.043 186.735 183.997 186.735H183.904C183.904 186.735 183.858 186.781 183.811 186.781C184.142 187.443 184.473 188.175 184.82 188.944L184.821 188.946C184.961 189.256 185.104 189.572 185.25 189.892H185.297C185.436 188.406 185.808 186.967 186.365 185.574C187.154 183.624 188.361 181.999 189.011 181.21C189.058 181.164 189.104 181.117 189.197 181.117C189.29 181.071 189.383 181.071 189.429 181.117L189.568 181.256C189.615 181.303 189.615 181.349 189.615 181.442C189.475 182.789 189.15 185.249 188.361 187.06C187.758 188.36 186.922 189.521 185.808 190.496C185.761 190.542 185.668 190.589 185.622 190.589H185.529C185.806 191.177 186.057 191.818 186.321 192.49L186.321 192.491C186.378 192.636 186.436 192.783 186.495 192.931C186.528 193.017 186.562 193.102 186.597 193.189C186.922 191.796 187.433 190.496 188.083 189.242C189.058 187.431 190.451 185.946 191.193 185.203C191.24 185.156 191.286 185.11 191.379 185.11C191.472 185.11 191.565 185.11 191.611 185.156C191.642 185.156 191.673 185.198 191.704 185.239C191.72 185.26 191.735 185.28 191.75 185.296V185.528C191.472 186.828 190.822 189.242 189.847 190.96C189.104 192.214 188.083 193.281 186.922 194.117C186.922 194.164 186.875 194.164 186.875 194.164L187.572 196.114C188.036 194.999 188.593 193.931 189.29 192.956C190.497 191.239 192.029 189.892 192.865 189.289C192.874 189.289 192.884 189.287 192.894 189.284C192.904 189.28 192.914 189.276 192.926 189.271C192.958 189.258 192.996 189.242 193.05 189.242C193.097 189.242 193.19 189.242 193.236 189.289C193.329 189.335 193.375 189.428 193.375 189.474C193.422 189.567 193.422 189.66 193.375 189.706C192.958 190.96 192.029 193.281 190.868 194.86C190.079 195.928 189.104 196.81 187.99 197.46C188.037 197.6 188.083 197.739 188.13 197.876C188.314 198.42 188.492 198.947 188.64 199.503H196.44C196.022 193.142 194.815 186.131 192.029 176.567H191.983C191.959 176.567 191.936 176.556 191.913 176.544C191.89 176.532 191.867 176.521 191.843 176.521C191.82 176.521 191.809 176.532 191.797 176.544C191.79 176.551 191.784 176.557 191.775 176.562C191.768 176.565 191.76 176.567 191.75 176.567C190.497 176.892 189.197 177.078 187.897 177.078C187.154 177.078 186.411 176.985 185.715 176.892C182.975 176.428 179.772 174.942 178.1 174.106C178.008 174.06 177.961 174.014 177.915 173.921C177.868 173.828 177.868 173.735 177.868 173.642C177.915 173.549 177.961 173.456 178.008 173.41C178.054 173.364 178.147 173.317 178.24 173.317C179.679 173.178 182.558 172.992 185.436 173.549C187.618 174.014 189.708 174.71 191.658 175.731C191.658 175.708 191.669 175.685 191.681 175.662C191.692 175.639 191.704 175.615 191.704 175.592L191.286 174.199C191.131 173.673 190.977 173.188 190.822 172.703C190.745 172.461 190.667 172.218 190.59 171.971V172.017C190.543 172.064 190.451 172.11 190.358 172.11C189.615 172.249 188.872 172.296 188.129 172.296C186.876 172.296 185.576 172.11 184.368 171.785C181.722 171.042 178.704 169.185 177.125 168.164C177.033 168.071 176.986 168.024 176.94 167.931C176.893 167.839 176.893 167.746 176.94 167.653C176.94 167.56 176.986 167.467 177.079 167.421C177.172 167.374 177.265 167.328 177.358 167.328C178.843 167.328 181.676 167.467 184.508 168.349C186.597 169.046 188.547 169.974 190.358 171.181C190.297 171.009 190.236 170.837 190.176 170.667C189.688 169.28 189.229 167.975 188.733 166.817C188.733 166.84 188.733 166.852 188.727 166.858C188.721 166.864 188.709 166.864 188.686 166.864C187.34 167.281 185.947 167.467 184.554 167.467C183.904 167.467 183.254 167.421 182.65 167.328C179.911 166.91 176.661 165.517 174.99 164.681C174.897 164.635 174.85 164.589 174.804 164.496C174.758 164.403 174.758 164.31 174.758 164.217C174.804 164.124 174.851 164.031 174.897 163.985C174.943 163.892 175.036 163.846 175.129 163.846C176.568 163.614 179.447 163.381 182.326 163.892C184.415 164.264 186.411 164.914 188.315 165.796C187.572 164.124 186.876 162.639 186.225 161.385C186.179 161.431 186.133 161.478 186.086 161.478C185.204 161.664 184.275 161.756 183.393 161.756C182.279 161.756 181.118 161.617 180.05 161.339C177.404 160.689 174.293 158.924 172.715 157.949C172.622 157.903 172.529 157.856 172.529 157.764C172.529 157.747 172.528 157.731 172.525 157.714C172.524 157.7 172.521 157.685 172.519 157.671C172.508 157.609 172.498 157.547 172.529 157.485C172.529 157.392 172.576 157.299 172.668 157.253C172.715 157.206 172.808 157.16 172.9 157.16C174.386 157.16 177.265 157.206 180.097 157.996C182.047 158.553 183.904 159.389 185.668 160.41C185.158 159.481 184.693 158.646 184.229 157.949C184.183 157.996 184.183 157.996 184.136 157.996H184.09C184.043 157.996 183.951 157.996 183.904 157.949C181.908 157.021 180.143 155.628 178.75 153.91C176.847 151.589 175.315 148.06 174.572 146.156C174.572 146.126 174.567 146.095 174.562 146.064C174.551 146.002 174.541 145.94 174.572 145.878C174.572 145.785 174.618 145.692 174.711 145.646C174.804 145.599 174.897 145.553 174.99 145.553C175.083 145.553 175.176 145.599 175.268 145.646C176.568 146.574 179.029 148.478 180.979 151.031C182.418 152.981 183.625 155.164 184.508 157.439V157.717C184.508 157.81 184.461 157.856 184.415 157.903L184.502 158.042L184.502 158.043C184.948 158.756 185.471 159.591 185.993 160.549C186.133 158.506 186.55 156.417 187.247 154.467C187.288 154.365 187.328 154.261 187.369 154.156L187.37 154.155L187.37 154.155C187.517 153.78 187.669 153.39 187.85 153.028C187.526 152.407 187.238 151.806 186.988 151.283L186.987 151.281L186.987 151.28C186.845 150.982 186.715 150.71 186.597 150.474C186.551 150.381 186.55 150.289 186.55 150.196C186.597 150.103 186.643 150.01 186.69 149.964C186.736 149.917 186.829 149.871 186.922 149.871C187.015 149.824 187.108 149.871 187.201 149.917C187.665 150.196 188.222 150.567 188.872 151.031C189.568 149.778 190.265 148.803 190.729 148.153C190.775 148.106 190.868 148.06 190.961 148.014H191.147C190.172 145.831 189.383 143.696 188.965 142.396C188.918 142.303 188.918 142.21 188.965 142.117C188.965 142.024 189.011 141.931 189.104 141.885C189.15 141.839 189.243 141.792 189.336 141.792C189.404 141.792 189.447 141.817 189.502 141.849C189.522 141.86 189.543 141.873 189.568 141.885C191.1 143.139 194.025 145.646 196.254 148.942C197.926 151.449 199.225 154.142 200.154 157.021C200.433 155.442 200.711 154.003 200.99 152.842C201.083 152.471 201.187 152.1 201.291 151.729L201.292 151.728C201.396 151.357 201.5 150.985 201.593 150.614C201.501 150.66 201.454 150.66 201.408 150.66C201.315 150.66 201.222 150.614 201.175 150.567C198.947 148.989 197.09 146.946 195.743 144.578C193.886 141.328 192.725 136.546 192.261 134.271C192.261 134.178 192.261 134.085 192.308 133.992C192.354 133.899 192.4 133.853 192.493 133.806C192.586 133.76 192.679 133.76 192.772 133.76C192.865 133.806 192.958 133.853 193.004 133.899C194.397 135.292 196.997 138.124 198.854 141.653C200.201 144.253 201.176 146.992 201.779 149.871C201.779 149.848 201.79 149.837 201.801 149.831C201.813 149.824 201.826 149.824 201.826 149.824C202.568 147.224 203.358 144.996 204.1 143.046C204.054 143.046 204.008 143.046 203.961 142.999L203.915 142.953C203.868 142.999 203.775 142.999 203.683 142.999C203.59 142.999 203.497 142.953 203.451 142.906C201.222 141.328 199.365 139.285 198.018 136.917C196.161 133.667 195 128.885 194.536 126.61C194.536 126.517 194.536 126.424 194.583 126.331C194.629 126.239 194.676 126.192 194.768 126.146C194.861 126.099 194.954 126.099 195.047 126.099C195.14 126.146 195.233 126.192 195.279 126.239C196.672 127.631 199.272 130.464 201.129 133.992C202.476 136.592 203.451 139.378 204.054 142.256C204.147 142.187 204.24 142.106 204.333 142.024C204.426 141.943 204.518 141.862 204.611 141.792C205.633 139.378 206.608 137.474 207.397 136.081H207.35C207.258 135.989 207.211 135.942 207.165 135.849V135.571C207.861 132.367 209.068 129.256 210.647 126.378C212.783 122.571 215.661 119.553 217.24 118.067C217.333 117.974 217.426 117.928 217.518 117.928C217.611 117.881 217.704 117.928 217.797 117.974C217.89 118.021 217.936 118.114 217.983 118.206C218.029 118.299 218.029 118.392 218.029 118.485C217.472 120.946 216.079 126.099 213.99 129.628C212.458 132.181 210.368 134.364 207.908 136.035C207.815 136.081 207.722 136.128 207.629 136.128C206.886 137.474 205.958 139.239 205.029 141.467C207.072 139.889 209.254 138.542 211.622 137.474C215.243 135.849 219.051 135.246 221 135.014C221.093 135.014 221.186 135.014 221.279 135.06C221.372 135.106 221.418 135.153 221.465 135.246C221.511 135.339 221.511 135.431 221.511 135.524C221.511 135.617 221.418 135.71 221.372 135.756C219.608 137.242 215.754 140.26 212.272 141.699C209.811 142.674 207.165 143.139 204.472 143.046C203.775 144.949 203.033 147.085 202.29 149.592C204.658 148.014 207.211 146.76 209.904 145.878C213.711 144.624 217.565 144.439 219.515 144.392C219.583 144.392 219.626 144.417 219.681 144.449C219.701 144.46 219.722 144.473 219.747 144.485C219.793 144.531 219.84 144.624 219.886 144.717C219.933 144.81 219.933 144.903 219.886 144.996C219.84 145.089 219.793 145.181 219.701 145.228C217.751 146.528 213.618 149.128 209.997 150.196C207.397 150.939 204.658 151.124 201.965 150.706C201.733 151.449 201.547 152.191 201.362 152.934L201.361 152.935C201.08 153.939 200.869 155.151 200.636 156.481C200.6 156.689 200.563 156.9 200.525 157.114C202.708 155.164 205.168 153.492 207.815 152.192C211.343 150.428 215.15 149.685 217.1 149.406C217.193 149.406 217.286 149.406 217.379 149.453C217.472 149.499 217.518 149.546 217.565 149.639C217.611 149.731 217.611 149.824 217.611 149.917C217.565 150.01 217.518 150.103 217.472 150.149C216.404 151.124 214.5 152.749 212.365 154.189C212.411 154.189 212.458 154.235 212.458 154.281L212.511 154.395L212.511 154.396C212.885 155.189 213.454 156.396 213.897 157.856C214.933 157.741 215.874 157.69 216.615 157.649L216.616 157.649C216.771 157.64 216.917 157.632 217.054 157.624C217.1 157.624 217.193 157.671 217.286 157.717C217.309 157.764 217.333 157.798 217.356 157.833C217.379 157.868 217.402 157.903 217.425 157.949C217.472 158.042 217.472 158.135 217.425 158.228C217.425 158.321 217.379 158.414 217.286 158.46C217.219 158.505 217.15 158.551 217.078 158.6C216.963 158.678 216.841 158.761 216.713 158.848C216.091 159.273 215.325 159.795 214.454 160.317C214.477 160.456 214.5 160.607 214.524 160.758L214.524 160.759C214.547 160.91 214.57 161.06 214.593 161.199C214.872 163.289 214.918 165.424 214.64 167.56C215.419 166.607 216.158 165.816 216.782 165.149L216.915 165.006C216.868 164.96 216.868 164.914 216.868 164.867C216.868 164.821 216.868 164.728 216.915 164.681C218.215 162.639 219.793 160.735 221.604 159.11C223.972 156.974 226.758 155.581 228.197 154.931H228.429C228.522 154.931 228.568 154.978 228.615 155.024C228.661 155.071 228.708 155.117 228.708 155.21C228.708 155.256 228.708 155.349 228.661 155.396C227.64 156.974 225.411 160.271 223.09 162.221C221.372 163.614 219.422 164.635 217.286 165.192C217.254 165.225 217.199 165.212 217.153 165.201ZM178.1 212.085C177.729 211.203 177.404 210.321 177.125 209.392H177.079V213.385C177.543 213.756 178.24 214.081 179.168 214.406C178.797 213.664 178.426 212.874 178.1 212.085ZM177.125 234.742C179.168 233.256 185.065 232.189 192.215 232.142H192.168V225.364C189.429 225.271 186.875 224.156 184.925 222.206C182.697 219.978 180.84 217.471 179.354 214.685C178.379 214.36 177.636 214.035 177.125 213.664V234.742ZM200.572 158.089C200.479 158.089 200.386 158.042 200.34 157.996C200.108 159.621 199.875 161.478 199.643 163.428C202.058 161.71 204.658 160.364 207.443 159.389C207.629 159.342 207.803 159.284 207.977 159.226C208.151 159.168 208.326 159.11 208.511 159.064C208.534 159.064 208.558 159.052 208.581 159.04C208.604 159.029 208.627 159.017 208.65 159.017H208.697C209.519 158.729 210.377 158.551 211.176 158.385L211.179 158.384C211.282 158.363 211.383 158.342 211.483 158.321C211.529 156.835 211.668 155.489 211.761 154.606C210.647 155.349 209.533 155.999 208.465 156.464C206.004 157.578 203.311 158.135 200.572 158.089ZM193.608 152.285C192.865 151.217 192.168 150.01 191.565 148.756C191.552 148.894 191.54 149.038 191.527 149.189C191.443 150.164 191.335 151.41 191.054 152.656C191.179 152.761 191.307 152.865 191.436 152.971C191.88 153.334 192.34 153.71 192.772 154.142C192.882 154.004 192.976 153.866 193.064 153.738C193.123 153.65 193.18 153.567 193.236 153.492C193.283 153.446 193.376 153.399 193.468 153.353C193.561 153.306 193.654 153.306 193.747 153.353C193.84 153.399 193.933 153.446 193.979 153.539C194.025 153.631 194.025 153.724 194.025 153.817C193.979 154.235 193.933 154.746 193.886 155.303C194.165 155.581 194.443 155.86 194.675 156.139C195.418 157.021 196.115 157.903 196.765 158.878H196.811C196.904 158.878 196.997 158.878 197.09 158.924C197.183 158.971 197.229 159.017 197.275 159.11C197.322 159.203 197.322 159.296 197.322 159.389C197.322 159.435 197.31 159.481 197.299 159.528C197.292 159.553 197.286 159.578 197.282 159.603C197.278 159.624 197.275 159.646 197.275 159.667C198.065 160.921 198.761 162.174 199.365 163.521C199.597 161.385 199.876 159.389 200.154 157.578V157.531L200.108 157.578C200.061 157.624 199.968 157.671 199.875 157.671C199.783 157.671 199.736 157.671 199.643 157.624C197.275 156.324 195.233 154.467 193.608 152.285ZM186.55 161.571C187.201 162.778 187.85 164.171 188.547 165.749C188.733 163.753 189.15 161.756 189.754 159.899C190.033 159.11 190.358 158.414 190.682 157.718C190.566 157.555 190.45 157.381 190.334 157.206L190.334 157.206C190.218 157.032 190.102 156.858 189.986 156.696C189.243 158.506 188.129 160.131 186.736 161.478C186.69 161.524 186.643 161.571 186.55 161.571ZM189.566 168.215L189.566 168.217L189.567 168.219C189.884 169.057 190.214 169.927 190.543 170.856C190.915 168.814 191.565 166.817 192.493 164.914C193.051 163.706 193.747 162.592 194.443 161.664L193.05 160.41C192.911 160.874 192.772 161.339 192.586 161.756C191.843 163.66 190.683 165.378 189.243 166.771C189.197 166.817 189.15 166.864 189.058 166.864C189.222 167.307 189.392 167.756 189.566 168.215ZM191.82 174.733C191.878 174.907 191.936 175.081 191.983 175.267C192.586 173.41 193.422 171.646 194.35 169.974C195.929 167.467 198.065 165.517 199.179 164.589C199.179 164.542 199.225 164.542 199.225 164.542C199.272 164.496 199.272 164.403 199.272 164.31C199.244 164.338 199.233 164.349 199.219 164.353C199.209 164.356 199.198 164.356 199.179 164.356C199.086 164.403 199.04 164.403 198.947 164.356C198.111 163.985 197.275 163.567 196.486 163.103C196.115 164.496 195.604 165.935 195 167.142C194.072 168.906 192.725 170.531 191.1 171.739C191.054 171.785 190.961 171.831 190.868 171.831C191.147 172.574 191.425 173.364 191.658 174.199C191.704 174.385 191.762 174.559 191.82 174.733ZM196.718 172.528C195.604 174.153 194.072 175.592 192.354 176.614C195.186 186.178 196.393 193.235 196.718 199.642H196.858C196.997 197.831 197.09 196.021 197.183 194.164C197.236 193.239 197.29 192.308 197.344 191.372L197.346 191.343L197.346 191.342C197.805 183.398 198.283 175.114 198.947 167.978C198.39 169.51 197.601 171.228 196.718 172.528ZM193.515 239.478C200.665 239.431 206.793 238.317 208.604 236.831V235.067C206.793 233.628 200.665 232.467 193.515 232.421V239.478ZM208.604 209.067C208.279 210.089 207.908 211.064 207.49 212.039C207.118 212.874 206.747 213.664 206.329 214.499C207.35 214.174 208.14 213.803 208.604 213.431V209.067ZM200.34 222.299L200.247 222.392C198.39 224.156 196.022 225.224 193.515 225.364V232.142C200.711 232.189 206.561 233.256 208.604 234.742V213.664C208.047 214.081 207.211 214.453 206.143 214.778C204.611 217.564 202.661 220.071 200.34 222.299ZM206.445 180.305C206.55 180.107 206.654 179.91 206.747 179.724L206.747 179.724C207.165 178.935 207.583 178.145 207.954 177.356H207.908C207.861 177.356 207.815 177.31 207.768 177.264C206.422 175.778 205.447 174.014 204.843 172.064C204.054 169.556 204.008 166.167 204.008 164.356C202.568 164.542 201.083 164.496 199.597 164.31H199.55V164.496C199.643 164.496 199.736 164.496 199.783 164.542C199.875 164.635 199.922 164.681 199.968 164.774C200.015 164.867 200.015 164.96 199.968 165.053C199.829 165.61 199.597 166.306 199.318 167.096C198.529 175.267 197.972 185.064 197.461 194.164C197.322 195.974 197.229 197.784 197.136 199.594L197.136 199.596H198.065C199.69 194.489 202.058 188.824 205.679 181.814C204.193 180.514 202.986 178.842 202.197 177.031C201.129 174.478 200.665 170.856 200.479 169.139C200.479 169.092 200.479 168.999 200.525 168.953L200.665 168.814H200.85C200.943 168.814 200.99 168.86 201.036 168.906C201.918 170.067 203.636 172.342 204.704 175.081C205.4 176.939 205.911 178.889 206.143 180.885C206.236 180.699 206.341 180.502 206.445 180.305ZM207.583 170.485C208.093 172.574 208.372 174.71 208.326 176.846C209.161 175.406 209.951 174.106 210.74 172.899C210.693 172.899 210.647 172.853 210.6 172.806C209.44 171.181 208.65 169.324 208.279 167.328C208.093 166.121 208 164.821 208.047 163.521C207.986 163.541 207.935 163.561 207.884 163.581L207.861 163.59C207.803 163.614 207.745 163.637 207.675 163.66C206.747 163.939 205.818 164.171 204.843 164.31C205.679 165.61 206.886 167.931 207.583 170.485ZM211.158 165.981C211.483 168.071 211.483 170.16 211.25 172.203C212.272 170.624 213.293 169.278 214.175 168.164C214.129 168.164 214.083 168.117 214.036 168.071C212.875 166.399 212.086 164.542 211.715 162.546C211.704 162.493 211.696 162.442 211.689 162.393C211.682 162.342 211.676 162.293 211.671 162.245C211.658 162.14 211.647 162.041 211.622 161.942C211.204 162.174 210.74 162.406 210.322 162.592C210.693 163.614 210.972 164.774 211.158 165.981Z" fill="url(#paint2_linear_2567_274042)" style="mix-blend-mode:overlay"/>
<path d="M177.218 236.902C179.138 238.309 185.182 239.432 192.215 239.478V239.292C185.061 239.237 179.252 238.171 177.218 236.692V236.902Z" fill="url(#paint3_linear_2567_274042)" style="mix-blend-mode:overlay"/>
<path d="M74.3789 208.649H61.3789V204.424H72.3361C72.3825 204.424 72.4289 204.378 72.4289 204.331V197.414C72.4289 197.367 72.3825 197.321 72.3361 197.321H61.4718V193.607H74.2861C74.3325 193.607 74.3789 193.56 74.3789 193.514V186.317L72.5682 184.971L72.5218 184.924L52.0004 184.785H51.9539C51.9539 184.785 51.9075 184.785 51.9075 184.831V214.499C51.9075 214.546 51.9075 214.592 51.9539 214.592L53.7182 215.939H53.7646L74.3325 216.124C74.3522 216.124 74.3636 216.124 74.3737 216.121C74.38 216.119 74.3859 216.115 74.3931 216.109C74.4013 216.102 74.4111 216.092 74.4254 216.078C74.4254 216.078 74.4718 216.032 74.4718 215.985V208.742C74.4718 208.742 74.4254 208.649 74.3789 208.649Z" fill="url(#paint4_linear_2567_274042)" style="mix-blend-mode:overlay"/>
<path fill-rule="evenodd" clip-rule="evenodd" d="M59.6146 123.36C63.5146 123.36 66.8575 124.521 69.4111 126.749C69.9218 127.167 70.4325 127.585 70.6646 128.049C73.4504 130.835 74.9361 134.828 74.9361 139.61C74.9361 146.017 71.8254 152.471 65.0004 154.56V182.649C65.0004 182.696 64.9539 182.742 64.9075 182.742H57.3396C57.2932 182.742 57.2468 182.696 57.2468 182.649V181.164H55.9932C55.9468 181.164 55.9004 181.117 55.9004 181.071V171.785L53.5325 182.556C53.5325 182.603 53.4861 182.649 53.4396 182.649H47.4968C47.4504 182.649 47.4039 182.603 47.4039 182.556L47.0789 181.024H46.1504C46.1039 181.024 46.0575 180.978 46.0575 180.931L43.7361 170.346V182.556C43.7361 182.603 43.6896 182.649 43.6432 182.649H36.6325C36.5861 182.649 36.5396 182.603 36.5396 182.556V181.071H35.2861C35.2396 181.071 35.1932 181.024 35.1932 180.978V151.31C35.1932 151.264 35.2396 151.217 35.2861 151.217H45.9646C46.0111 151.217 46.0575 151.264 46.0575 151.31L46.3825 152.842H47.3575C47.4039 152.842 47.4504 152.889 47.4504 152.935L50.1432 165.703L52.6968 153.399C52.6504 153.376 52.6155 153.353 52.5807 153.33C52.5459 153.306 52.5111 153.283 52.4646 153.26C47.4039 150.939 44.3861 145.831 44.3861 138.96C44.3861 134.689 45.6861 131.021 47.9611 128.328C44.8039 128.281 42.0646 127.492 39.8825 125.96C38.4896 125.264 37.2825 124.289 36.2611 123.081C33.9861 120.389 32.7789 116.628 32.7789 112.171C32.7789 107.899 34.0789 103.999 36.3539 101.214C38.9539 98.0565 42.7146 96.4314 47.2646 96.4314C48.0539 96.4314 48.8432 96.4779 49.5396 96.5707V79.0207L32.8718 78.8815H32.8254L31.0611 77.535C31.0146 77.535 31.0146 77.4886 31.0146 77.4422V47.7279L31.0611 47.6815H31.1075L40.6718 47.8672L35.7039 20.0565V20.01C35.7039 19.9636 35.7504 19.9636 35.7504 19.9636H43.3646C43.4111 19.9636 43.4575 20.01 43.4575 20.01L45.2218 21.3565C45.2682 21.3565 45.2682 21.4029 45.2682 21.4029L46.7539 31.1065L48.4718 20.01C48.4718 19.9636 48.5182 19.9172 48.5646 19.9172H55.6218C55.6682 19.9172 55.7146 19.9636 55.7146 19.9636L57.4789 21.31C57.5254 21.31 57.5254 21.3565 57.5254 21.3565V21.4029L59.1039 31.1529L60.7289 20.1029V20.01C60.7289 19.9636 60.7754 19.9172 60.8218 19.9172H68.0182L69.8289 21.2636V21.3565L64.5825 50.5136C64.5825 50.56 64.5361 50.6065 64.4896 50.6065H56.5504L54.7396 49.26C54.7129 49.2333 54.7016 49.222 54.6968 49.2083C54.6932 49.1982 54.6932 49.1869 54.6932 49.1672L52.8825 37.885L51.2575 47.8672H51.6289L51.6754 47.9136L53.4861 49.26V56.4565C53.4861 56.5029 53.4396 56.5493 53.3932 56.5493H40.5789V60.2636H51.4432C51.4896 60.2636 51.5361 60.31 51.5361 60.3565V67.2743C51.5361 67.3207 51.4896 67.3672 51.4432 67.3672H40.4861V71.5922H49.5861V68.6207L49.6325 68.5743H57.8039C57.8504 68.5743 57.8968 68.6207 57.8968 68.6207L59.7075 69.9672C59.7539 69.9672 59.7539 70.0136 59.7539 70.0136V91.3707H70.5254C70.5718 91.3707 70.6182 91.4172 70.6182 91.4172L72.4289 92.7636C72.4556 92.7903 72.467 92.8017 72.4718 92.8153C72.4754 92.8254 72.4754 92.8367 72.4754 92.8565V99.7743C72.4754 99.8207 72.4289 99.8672 72.3825 99.8672H57.2468C59.6611 101.771 60.9611 104.464 61.3325 107.064C61.3325 107.087 61.3209 107.098 61.3093 107.11C61.2977 107.122 61.2861 107.133 61.2861 107.156C61.2594 107.183 61.248 107.195 61.2344 107.199C61.2243 107.203 61.2129 107.203 61.1932 107.203H54.6932C54.6468 107.203 54.6004 107.156 54.6004 107.11C54.5539 106.878 54.4611 106.646 54.3682 106.414H53.3932C53.3468 106.414 53.3004 106.367 53.3004 106.321C52.9289 104.928 52.2789 103.86 51.3968 103.117C50.5611 102.746 49.5396 102.56 48.4254 102.56C43.8754 102.56 41.1361 106.367 41.1361 112.728C41.1361 114.956 41.5539 119.414 44.3396 121.642C45.1754 122.014 46.1504 122.246 47.3111 122.246C50.3754 122.246 52.3718 120.76 53.3468 117.742C53.3468 117.696 53.3932 117.649 53.4396 117.649H59.9861C60.0325 117.649 60.0789 117.649 60.0789 117.696V117.789C60.0557 117.905 60.0209 118.009 59.9861 118.114C59.9513 118.218 59.9164 118.323 59.8932 118.439H61.2861C61.3325 118.439 61.3789 118.439 61.3789 118.485V118.578C61.0075 120.389 60.3111 122.014 59.3361 123.36H59.6146ZM61.1004 106.924C60.6825 104.371 59.3361 101.724 56.8289 99.8672C58.6861 101.724 59.7075 104.046 60.0325 106.228C60.0325 106.251 60.0209 106.263 60.0093 106.274C59.9977 106.286 59.9861 106.298 59.9861 106.321C59.9594 106.347 59.948 106.359 59.9344 106.364C59.9243 106.367 59.9129 106.367 59.8932 106.367H54.6468C54.7396 106.553 54.7861 106.739 54.8325 106.924H61.1004ZM47.0789 101.771C42.5289 101.771 39.7896 105.578 39.7896 111.939C39.7896 114.306 40.2075 119.089 43.4575 121.178C41.1825 118.764 40.8575 114.817 40.8575 112.728C40.8575 106.228 43.6432 102.328 48.3789 102.328C49.2146 102.328 49.9575 102.421 50.6539 102.606C49.6789 102.049 48.5182 101.771 47.0789 101.771ZM41.8325 126.796C43.6896 127.678 45.8254 128.142 48.1932 128.142C48.3158 128.02 48.4254 127.897 48.5288 127.781C48.6214 127.678 48.7091 127.58 48.7968 127.492C48.1932 127.539 47.5896 127.585 46.9396 127.585C45.0825 127.585 43.3646 127.306 41.8325 126.796ZM36.7718 182.556H43.4575V172.017C43.4575 171.089 43.4575 170.16 43.4111 169.278L41.8325 161.989C42.0182 163.614 42.3432 167.142 42.3432 170.392V181.071C42.3432 181.117 42.2968 181.164 42.2504 181.164H36.7718V182.556ZM61.1468 118.717H59.8468C59.2896 120.574 58.4539 122.199 57.2932 123.546C57.8504 123.453 58.4539 123.406 59.0575 123.406C60.0325 122.106 60.7289 120.528 61.1468 118.717ZM47.3575 153.074H46.5218L49.7254 168.21L50.1432 166.26L47.3575 153.074ZM56.3182 164.031C56.3182 163.521 56.3646 163.103 56.4111 162.685C56.4111 162.314 56.4575 162.035 56.5039 161.803L52.3254 181.071C52.3254 181.117 52.2789 181.164 52.2325 181.164H47.4504L47.7289 182.556H53.4861L56.0396 170.81V170.021C56.0396 169.765 56.0513 169.522 56.0629 169.278C56.0745 169.034 56.0861 168.79 56.0861 168.535C56.0861 168.274 56.0982 168.012 56.1101 167.757C56.1214 167.514 56.1325 167.276 56.1325 167.049C56.1551 166.8 56.1667 166.562 56.1781 166.33C56.19 166.086 56.2016 165.848 56.2254 165.61C56.2254 165.053 56.2718 164.542 56.3182 164.031ZM57.6182 182.556H64.9075V154.699C64.5361 154.792 64.1646 154.885 63.7468 154.978V181.117C63.7468 181.164 63.7004 181.21 63.6539 181.21H57.6182V182.556ZM55.3432 146.899C56.5504 148.014 58.0361 148.571 59.6146 148.478C65.3254 148.153 66.5325 143.092 66.5325 138.867C66.5325 134.735 64.7682 130.324 59.9861 129.628C55.2968 129.814 52.6968 133.296 52.6968 139.517C52.6968 140.539 52.7896 141.514 52.9289 142.396C53.3932 144.253 54.2289 145.831 55.3432 146.899Z" fill="url(#paint5_linear_2567_274042)" style="mix-blend-mode:overlay"/>
</g>
<defs>
<linearGradient id="paint0_linear_2567_274042" x1="31.0146" y1="10.9043" x2="228.708" y2="10.9043" gradientUnits="userSpaceOnUse">
<stop stop-color="#F38478"/>
<stop offset="1" stop-color="#5D6AE8"/>
</linearGradient>
<linearGradient id="paint1_linear_2567_274042" x1="31.0146" y1="10.9043" x2="228.708" y2="10.9043" gradientUnits="userSpaceOnUse">
<stop stop-color="#F38478"/>
<stop offset="1" stop-color="#5D6AE8"/>
</linearGradient>
<linearGradient id="paint2_linear_2567_274042" x1="31.0146" y1="10.9043" x2="228.708" y2="10.9043" gradientUnits="userSpaceOnUse">
<stop stop-color="#F38478"/>
<stop offset="1" stop-color="#5D6AE8"/>
</linearGradient>
<linearGradient id="paint3_linear_2567_274042" x1="31.0146" y1="10.9043" x2="228.708" y2="10.9043" gradientUnits="userSpaceOnUse">
<stop stop-color="#F38478"/>
<stop offset="1" stop-color="#5D6AE8"/>
</linearGradient>
<linearGradient id="paint4_linear_2567_274042" x1="31.0146" y1="10.9043" x2="228.708" y2="10.9043" gradientUnits="userSpaceOnUse">
<stop stop-color="#F38478"/>
<stop offset="1" stop-color="#5D6AE8"/>
</linearGradient>
<linearGradient id="paint5_linear_2567_274042" x1="31.0146" y1="10.9043" x2="228.708" y2="10.9043" gradientUnits="userSpaceOnUse">
<stop stop-color="#F38478"/>
<stop offset="1" stop-color="#5D6AE8"/>
</linearGradient>
<clipPath id="clip0_2567_274042">
<rect width="260" height="260" fill="white"/>
</clipPath>
</defs>
</svg>
