<svg width="260" height="260" viewBox="0 0 260 260" fill="none" xmlns="http://www.w3.org/2000/svg">
<path d="M89.7542 106.77L71.293 113.514L73.9392 118.197L92.8339 113.579L89.7542 106.77Z" fill="#E5E5E5" stroke="black" stroke-width="0.5" stroke-miterlimit="10" stroke-linecap="round" stroke-linejoin="round"/>
<path d="M196.747 151.336C197.214 150.855 197.527 150.247 197.647 149.588C197.767 148.929 197.688 148.249 197.421 147.635C196.496 145.447 194.813 145.53 192.962 145.447C191.11 145.364 186.147 146.624 181.858 146.373C177.569 146.121 172.184 143.933 166.21 143.513C160.236 143.092 112.115 142.418 112.115 142.418V159.916H193.906C194.368 159.917 194.814 159.75 195.162 159.447C195.51 159.144 195.736 158.725 195.799 158.267L196.747 151.336Z" fill="#808080" stroke="black" stroke-width="0.5" stroke-miterlimit="10" stroke-linecap="round" stroke-linejoin="round"/>
<path d="M182.632 248.334C197.616 248.334 209.763 236.188 209.763 221.204C209.763 206.22 197.616 194.073 182.632 194.073C167.649 194.073 155.502 206.22 155.502 221.204C155.502 236.188 167.649 248.334 182.632 248.334Z" fill="#666666" stroke="black" stroke-width="0.5" stroke-miterlimit="10" stroke-linecap="round" stroke-linejoin="round"/>
<path d="M182.634 239.816C192.914 239.816 201.247 231.483 201.247 221.203C201.247 210.924 192.914 202.591 182.634 202.591C172.355 202.591 164.021 210.924 164.021 221.203C164.021 231.483 172.355 239.816 182.634 239.816Z" fill="#999999" stroke="black" stroke-width="0.5" stroke-miterlimit="10" stroke-linecap="round" stroke-linejoin="round"/>
<path d="M182.633 233.78C189.579 233.78 195.209 228.149 195.209 221.204C195.209 214.258 189.579 208.627 182.633 208.627C175.687 208.627 170.057 214.258 170.057 221.204C170.057 228.149 175.687 233.78 182.633 233.78Z" fill="black" stroke="black" stroke-width="0.5" stroke-miterlimit="10" stroke-linecap="round" stroke-linejoin="round"/>
<path d="M189.722 159.581H120.949L127.511 203.369C127.511 203.369 110.348 205.892 101.514 205.514C92.6804 205.135 82.5554 204.151 79.9054 202.51C77.2554 200.868 72.9604 195.014 68.3267 187.342C63.4469 179.267 63.621 177.626 63.3693 175.985C63.1175 174.344 64.2457 167.321 66.0969 160.17C67.9481 153.018 72.491 143.259 74.9309 138.716C77.3708 134.173 80.6512 127.864 79.7256 121.638C78.7999 115.413 74.8457 111.964 71.06 110.535C67.2742 109.106 60.1249 109.609 60.1249 109.609V126.938L65.4912 127.084C65.9157 127.096 66.3303 127.215 66.696 127.431C67.0617 127.647 67.3665 127.952 67.5816 128.318C67.7966 128.684 67.915 129.099 67.9255 129.524C67.936 129.948 67.8382 130.369 67.6414 130.745L51.5426 161.516L47.842 163.955L44.2456 174.113L16.7402 190.893L57.6925 217.204H162.348V214.516L159.234 210.142H223.423C223.423 210.142 222.162 202.15 220.311 197.942C218.46 193.734 217.282 191.97 217.282 191.97L215.683 178.51L206.851 177.584C206.851 177.584 202.476 173.293 199.531 171.022C196.586 168.75 193.137 166.479 193.137 166.479C193.137 166.479 192.819 163.575 192.094 162.203C190.943 160.043 189.722 159.581 189.722 159.581Z" fill="#B3B3B3" stroke="black" stroke-width="0.5" stroke-miterlimit="10" stroke-linecap="round" stroke-linejoin="round"/>
<path d="M219.884 210.142C219.884 210.142 212.481 185.239 194.056 175.733C175.631 166.227 150.861 169.566 146.356 185.156C141.056 203.496 159.227 210.142 159.227 210.142H219.884Z" fill="#B3B3B3" stroke="black" stroke-width="0.5" stroke-miterlimit="10" stroke-linecap="round" stroke-linejoin="round"/>
<path d="M60.1223 127.024C60.9827 127.024 61.6801 123.125 61.6801 118.316C61.6801 113.507 60.9827 109.609 60.1223 109.609C59.2619 109.609 58.5645 113.507 58.5645 118.316C58.5645 123.125 59.2619 127.024 60.1223 127.024Z" fill="#4C4C4C" stroke="black" stroke-width="0.5" stroke-miterlimit="10" stroke-linecap="round" stroke-linejoin="round"/>
<path d="M30.0622 248.334C45.046 248.334 57.1927 236.188 57.1927 221.204C57.1927 206.22 45.046 194.073 30.0622 194.073C15.0784 194.073 2.93164 206.22 2.93164 221.204C2.93164 236.188 15.0784 248.334 30.0622 248.334Z" fill="#666666" stroke="black" stroke-width="0.5" stroke-miterlimit="10" stroke-linecap="round" stroke-linejoin="round"/>
<path d="M30.0618 239.816C40.3413 239.816 48.6744 231.483 48.6744 221.203C48.6744 210.924 40.3413 202.591 30.0618 202.591C19.7824 202.591 11.4492 210.924 11.4492 221.203C11.4492 231.483 19.7824 239.816 30.0618 239.816Z" fill="#999999" stroke="black" stroke-width="0.5" stroke-miterlimit="10" stroke-linecap="round" stroke-linejoin="round"/>
<path d="M30.0626 233.78C37.0082 233.78 42.6388 228.149 42.6388 221.204C42.6388 214.258 37.0082 208.627 30.0626 208.627C23.1169 208.627 17.4863 214.258 17.4863 221.204C17.4863 228.149 23.1169 233.78 30.0626 233.78Z" fill="black" stroke="black" stroke-width="0.5" stroke-miterlimit="10" stroke-linecap="round" stroke-linejoin="round"/>
<path d="M65.1719 221.499C65.1719 221.499 65.3404 202.065 54.4885 191.802C43.6367 181.538 32.5312 182.968 25.6317 184.062C18.7322 185.156 10.5739 190.539 6.70298 194.913C5.13379 196.689 3.97725 198.022 3.15953 198.977C3.03996 199.118 2.96655 199.291 2.94926 199.475C2.93198 199.658 2.97166 199.842 3.06295 200.002C3.15423 200.162 3.29264 200.29 3.45931 200.369C3.62599 200.447 3.81279 200.472 3.99427 200.441C8.55042 199.649 18.7038 198.673 29.2509 202.901C40.7747 207.528 40.4397 211.145 49.357 217.202C56.8603 222.298 65.1719 221.499 65.1719 221.499Z" fill="#B3B3B3" stroke="black" stroke-width="0.5" stroke-miterlimit="10" stroke-linecap="round" stroke-linejoin="round"/>
<path d="M215.676 178.51L217.275 191.97L221.142 189.609C221.449 189.422 221.68 189.132 221.795 188.791C221.909 188.45 221.899 188.08 221.767 187.745L218.81 180.276C218.604 179.753 218.246 179.305 217.782 178.99C217.318 178.674 216.769 178.505 216.208 178.506L215.676 178.51Z" fill="#4C4C4C" stroke="black" stroke-width="0.5" stroke-miterlimit="10" stroke-linecap="round" stroke-linejoin="round"/>
<path d="M76.9475 124.046C78.2982 124.046 79.3931 122.794 79.3931 121.25C79.3931 119.706 78.2982 118.455 76.9475 118.455C75.5969 118.455 74.502 119.706 74.502 121.25C74.502 122.794 75.5969 124.046 76.9475 124.046Z" fill="#999999" stroke="black" stroke-width="0.5" stroke-linecap="round" stroke-linejoin="round"/>
<path d="M83.1648 118.19L77.3916 118.975C76.3486 119.043 75.5195 120.03 75.5195 121.247C75.5195 122.502 76.4092 123.518 77.507 123.518C77.6625 123.518 77.8171 123.497 77.967 123.456L83.1648 122.736V118.19Z" fill="#999999" stroke="black" stroke-width="0.5" stroke-linecap="round" stroke-linejoin="round"/>
<path d="M83.1653 122.74C84.2629 122.74 85.1528 121.723 85.1528 120.469C85.1528 119.214 84.2629 118.197 83.1653 118.197C82.0676 118.197 81.1777 119.214 81.1777 120.469C81.1777 121.723 82.0676 122.74 83.1653 122.74Z" fill="#999999" stroke="black" stroke-width="0.5" stroke-linecap="round" stroke-linejoin="round"/>
<path d="M163.895 73.3437C163.895 73.3437 158.425 73.3588 158.361 70.0785C158.296 66.7981 160.867 65.2725 162.4 64.716C165.078 63.7412 168.898 63.832 168.898 63.832C168.898 63.832 170.034 58.1534 174.577 56.1981C179.12 54.2427 183.473 56.1981 183.473 56.1981C183.473 56.1981 188.457 51.6552 194.704 54.4301C200.95 57.2051 200.95 61.4338 200.95 61.4338C200.95 61.4338 205.493 58.973 209.154 60.9302C212.815 62.8875 213.065 65.8517 213.065 65.8517C213.065 65.8517 222.15 65.2839 225.811 68.2481C229.472 71.2123 227.625 73.3039 225.73 73.3399C223.879 73.374 163.895 73.3437 163.895 73.3437Z" fill="#CCCCCC" stroke="black" stroke-width="0.5" stroke-linecap="round" stroke-linejoin="round"/>
<path d="M181.074 71.2143C181.074 71.2143 178.511 67.6349 180.972 64.6423C183.707 61.3203 188.646 63.4365 188.646 63.4365C188.646 63.4365 189.214 61.4452 191.739 60.9928C193.772 60.6275 195.398 61.9922 195.398 61.9922" fill="#CCCCCC"/>
<path d="M181.074 71.2143C181.074 71.2143 178.511 67.6349 180.972 64.6423C183.707 61.3203 188.646 63.4365 188.646 63.4365C188.646 63.4365 189.214 61.4452 191.739 60.9928C193.772 60.6275 195.398 61.9922 195.398 61.9922" stroke="black" stroke-width="0.5" stroke-linecap="round" stroke-linejoin="round"/>
<path d="M95.0811 40.1787C95.0811 40.1787 102.955 40.2033 103.046 35.4806C103.137 30.7579 99.4404 28.5641 97.2352 27.7615C93.3794 26.3589 87.8806 26.4895 87.8806 26.4895C87.8806 26.4895 86.2452 18.3179 79.7072 15.5014C73.1693 12.6848 66.9038 15.5014 66.9038 15.5014C66.9038 15.5014 59.728 8.96338 50.7387 12.9592C41.7495 16.9551 41.7476 23.0388 41.7476 23.0388C41.7476 23.0388 35.2096 19.4972 29.9417 22.3138C24.6738 25.1304 24.3123 29.3969 24.3123 29.3969C24.3123 29.3969 11.2345 28.5792 5.9685 32.8476C0.702527 37.1161 3.35631 40.1238 6.08583 40.173C8.7491 40.2223 95.0811 40.1787 95.0811 40.1787Z" fill="#CCCCCC" stroke="black" stroke-width="0.5" stroke-linecap="round" stroke-linejoin="round"/>
<path d="M70.3535 37.1159C70.3535 37.1159 74.0428 31.9616 70.5012 27.6516C66.5659 22.8702 59.4563 25.9158 59.4563 25.9158C59.4563 25.9158 58.6347 23.0519 55.0061 22.3988C52.0778 21.8745 49.7383 23.8374 49.7383 23.8374" fill="#CCCCCC"/>
<path d="M70.3535 37.1159C70.3535 37.1159 74.0428 31.9616 70.5012 27.6516C66.5659 22.8702 59.4563 25.9158 59.4563 25.9158C59.4563 25.9158 58.6347 23.0519 55.0061 22.3988C52.0778 21.8745 49.7383 23.8374 49.7383 23.8374" stroke="black" stroke-width="0.5" stroke-linecap="round" stroke-linejoin="round"/>
<path d="M120.908 52.5129C124.194 52.5129 126.858 49.8493 126.858 46.5636C126.858 43.2779 124.194 40.6143 120.908 40.6143C117.623 40.6143 114.959 43.2779 114.959 46.5636C114.959 49.8493 117.623 52.5129 120.908 52.5129Z" fill="#999999" stroke="black" stroke-width="0.5" stroke-linecap="round" stroke-linejoin="round"/>
<path d="M112.809 77.3664C109.195 75.36 104.187 72.1459 102.341 64.7296C100.496 57.3133 104.192 51.9035 109.678 49.7096C115.164 47.5158 123.831 47.671 128.026 56.6035C129.845 60.4763 130.965 63.8645 133.03 65.6003C134.244 66.6187 135.654 67.3304 136.585 67.2452C136.69 67.2359 136.794 67.2549 136.889 67.3002C136.983 67.3455 137.064 67.4154 137.122 67.5025C137.18 67.5897 137.214 67.6909 137.219 67.7955C137.225 67.9001 137.202 68.0043 137.153 68.097C136.191 69.9085 134.249 73.4122 128.76 76.9291C123.568 80.2549 124.586 79.2877 124.586 79.2877C124.586 79.2877 117.982 80.2417 112.809 77.3664Z" fill="#999999" stroke="black" stroke-width="0.5" stroke-linecap="round" stroke-linejoin="round"/>
<path d="M116.139 77.4932L96.775 102.57L79.5195 109.526L83.1652 117.215L102.967 111.875C104.38 111.493 105.658 110.721 106.654 109.647L117.881 97.5198L116.139 77.4932Z" fill="#4C4C4C" stroke="black" stroke-width="0.5" stroke-linecap="round" stroke-linejoin="round"/>
<path d="M119.014 193.653L110.859 194.073L104.234 174.705L115.787 173.352L119.014 193.653Z" fill="#E5E5E5" stroke="black" stroke-width="0.5" stroke-linecap="round" stroke-linejoin="round"/>
<path d="M101.561 205.688C96.7041 205.756 88.6897 204.63 88.6897 204.63C86.6946 204.41 85.6005 203.044 85.6951 201.297C85.7376 200.494 86.0493 199.729 86.5799 199.125C87.1105 198.522 87.8291 198.114 88.6196 197.969L92.3542 197.284C94.6375 196.865 96.8293 196.048 98.8297 194.87L105.298 191.062L106.161 188.968C106.226 188.812 106.325 188.672 106.452 188.559C106.578 188.446 106.729 188.364 106.892 188.318C107.055 188.272 107.226 188.263 107.393 188.293C107.56 188.323 107.718 188.39 107.855 188.489V188.489C107.855 188.489 108.126 185.915 110.477 186.5C112.292 186.952 111.26 188.353 112.33 189.794C112.347 189.814 114.153 191.95 117.537 191.974C120.342 191.997 119.871 193.911 119.808 196.303L119.619 204.496C119.591 205.474 107.302 205.609 101.561 205.688Z" fill="#4C4C4C" stroke="black" stroke-width="0.5" stroke-linecap="round" stroke-linejoin="round"/>
<path d="M85.7246 200.948C85.7246 200.948 90.1994 204.314 103.707 202.428C111.958 201.278 119.666 203.422 119.666 203.422" stroke="black" stroke-width="0.5" stroke-linecap="round" stroke-linejoin="round"/>
<path d="M109.511 188.352L108.974 188.068C108.734 187.941 108.436 188.033 108.309 188.273L106.505 191.686C106.378 191.926 106.47 192.224 106.711 192.351L107.248 192.635C107.488 192.762 107.786 192.67 107.913 192.43L109.716 189.017C109.844 188.777 109.752 188.479 109.511 188.352Z" stroke="black" stroke-width="0.5" stroke-linecap="round" stroke-linejoin="round"/>
<path d="M108.001 188.658L107.163 188.215C106.869 188.06 106.505 188.172 106.35 188.466L105.477 190.117C105.321 190.411 105.434 190.776 105.727 190.931L106.566 191.374C106.86 191.529 107.224 191.417 107.379 191.123L108.252 189.472C108.408 189.178 108.295 188.813 108.001 188.658Z" fill="#1A1A1A" stroke="black" stroke-width="0.5" stroke-linecap="round" stroke-linejoin="round"/>
<path d="M109.86 189.352L115.971 192.582C116.137 192.67 116.262 192.82 116.317 192.999C116.372 193.179 116.354 193.373 116.266 193.539V193.539C115.973 194.093 115.472 194.509 114.873 194.693C114.274 194.878 113.626 194.817 113.071 194.524L108.432 192.072C108.266 191.985 108.142 191.834 108.087 191.655C108.031 191.476 108.05 191.282 108.137 191.116L108.911 189.651C108.998 189.487 109.147 189.363 109.324 189.307C109.502 189.251 109.694 189.267 109.86 189.352Z" fill="#1A1A1A" stroke="black" stroke-width="0.5" stroke-linecap="round" stroke-linejoin="round"/>
<path d="M89.3203 197.84C89.3203 197.84 89.8882 199.258 95.387 199.75C98.1449 199.996 98.8964 199.248 99.0175 198.194C99.1386 197.14 97.7796 195.442 97.7796 195.442L99.6251 194.397C99.6251 194.397 100.731 196.543 101.505 197.511C104.533 201.296 106.845 202.137 106.845 202.137" stroke="black" stroke-width="0.5" stroke-linecap="round" stroke-linejoin="round"/>
<path d="M113.567 202.298C113.567 202.298 113.08 200.53 114.74 199.648C116.4 198.766 118.147 199.284 117.93 197.884C117.65 196.133 112.963 195.234 111.36 194.477C109.088 193.409 108.604 192.19 108.604 192.19" stroke="black" stroke-width="0.5" stroke-linecap="round" stroke-linejoin="round"/>
<path d="M135.344 194.796L127.28 197.242L117.246 176.744L128.183 174.472L135.344 194.796Z" fill="#E5E5E5" stroke="black" stroke-width="0.5" stroke-linecap="round" stroke-linejoin="round"/>
<path d="M137.47 206.428L109.418 214.334C109.017 214.447 108.598 214.48 108.185 214.431C107.772 214.383 107.372 214.253 107.009 214.049C106.646 213.846 106.327 213.573 106.07 213.246C105.812 212.919 105.622 212.545 105.509 212.144V212.144C105.291 211.37 105.34 210.545 105.649 209.802C105.959 209.059 106.509 208.443 107.212 208.052L110.525 206.199C112.552 205.067 114.364 203.587 115.878 201.826L120.773 196.136L120.917 193.876C120.927 193.707 120.976 193.542 121.059 193.395C121.143 193.247 121.258 193.121 121.398 193.024C121.537 192.928 121.697 192.865 121.864 192.839C122.032 192.814 122.203 192.827 122.365 192.877V192.877C122.365 192.877 121.797 190.354 124.205 190.149C126.069 189.992 125.545 191.65 127.021 192.668C127.044 192.684 129.442 194.122 132.655 193.047C135.316 192.163 135.494 194.128 136.206 196.413L138.666 204.23C138.737 204.453 138.762 204.688 138.739 204.92C138.717 205.153 138.648 205.378 138.536 205.584C138.424 205.789 138.272 205.969 138.089 206.114C137.906 206.259 137.695 206.366 137.47 206.428V206.428Z" fill="#4C4C4C" stroke="black" stroke-width="0.5" stroke-linecap="round" stroke-linejoin="round"/>
<path d="M105.428 211.804C105.428 211.804 110.749 213.545 122.937 207.405C130.376 203.657 138.362 203.201 138.362 203.201" stroke="black" stroke-width="0.5" stroke-linecap="round" stroke-linejoin="round"/>
<path d="M123.889 192.277L123.289 192.182C123.02 192.139 122.768 192.322 122.725 192.591L122.118 196.402C122.075 196.67 122.258 196.923 122.527 196.965L123.127 197.061C123.395 197.104 123.648 196.921 123.69 196.652L124.297 192.841C124.34 192.572 124.157 192.32 123.889 192.277Z" stroke="black" stroke-width="0.5" stroke-linecap="round" stroke-linejoin="round"/>
<path d="M122.56 193.052L121.624 192.903C121.295 192.851 120.987 193.075 120.935 193.403L120.641 195.248C120.588 195.576 120.812 195.885 121.14 195.937L122.077 196.086C122.405 196.139 122.714 195.915 122.766 195.587L123.06 193.742C123.112 193.413 122.889 193.105 122.56 193.052Z" fill="#1A1A1A" stroke="black" stroke-width="0.5" stroke-linecap="round" stroke-linejoin="round"/>
<path d="M122.695 191.792L129.531 192.897C129.717 192.927 129.883 193.03 129.994 193.182C130.104 193.335 130.149 193.525 130.119 193.711V193.711C130.018 194.332 129.676 194.887 129.166 195.255C128.656 195.623 128.021 195.774 127.4 195.673L122.205 194.834C122.02 194.804 121.853 194.701 121.743 194.549C121.633 194.396 121.588 194.206 121.618 194.02L121.883 192.38C121.913 192.194 122.015 192.028 122.167 191.918C122.32 191.808 122.509 191.763 122.695 191.792V191.792Z" fill="#1A1A1A" stroke="black" stroke-width="0.5" stroke-linecap="round" stroke-linejoin="round"/>
<path d="M107.834 207.7C107.834 207.7 108.826 208.862 114.192 207.554C116.882 206.897 117.353 205.947 117.128 204.904C116.903 203.861 115.069 202.699 115.069 202.699L116.479 201.115C116.479 201.115 118.216 202.79 119.263 203.456C123.34 206.059 125.809 206.106 125.809 206.106" stroke="black" stroke-width="0.5" stroke-linecap="round" stroke-linejoin="round"/>
<path d="M132.225 204.104C132.225 204.104 131.197 202.589 132.485 201.221C133.772 199.852 135.6 199.775 134.936 198.522C134.105 196.956 129.376 197.605 127.616 197.407C125.127 197.127 124.27 196.131 124.27 196.131" stroke="black" stroke-width="0.5" stroke-linecap="round" stroke-linejoin="round"/>
<path d="M139.71 124.046C139.71 124.046 145.856 130.512 144.589 141.292C143.791 148.097 134.533 147.34 131.419 147.088L105.176 144.942L121.265 182.084C121.265 182.084 113.38 184.312 108.657 185.131C103.934 185.951 102 184.102 102 184.102L85.6113 142.339C85.1786 141.254 84.9953 140.086 85.0747 138.921C85.1541 137.756 85.4943 136.624 86.0702 135.608C86.646 134.592 87.4428 133.718 88.4016 133.051C89.3605 132.385 90.4569 131.942 91.6098 131.756L117.588 127.58L139.71 124.046Z" fill="white" stroke="black" stroke-width="0.5" stroke-miterlimit="10" stroke-linecap="round" stroke-linejoin="round"/>
<path d="M150.605 121.976C150.605 121.976 155.508 126.255 156.265 135.353C156.967 143.799 149.153 147.656 143.096 147.845C139.975 147.942 116.821 147.635 116.821 147.635L134.2 186.083C134.256 186.208 134.285 186.343 134.284 186.48C134.283 186.617 134.252 186.752 134.194 186.875C134.136 186.999 134.052 187.109 133.947 187.197C133.842 187.285 133.72 187.349 133.588 187.386C131.273 188.02 125.71 189.502 122.042 190.14C117.31 190.959 115.385 189.11 115.385 189.11L96.9479 142.877C96.5152 141.79 96.3324 140.621 96.4131 139.454C96.4937 138.288 96.8358 137.155 97.4138 136.138C97.9919 135.122 98.7912 134.249 99.7525 133.583C100.714 132.918 101.813 132.477 102.967 132.294L132.752 126.267L150.605 121.976Z" fill="white" stroke="black" stroke-width="0.5" stroke-miterlimit="10" stroke-linecap="round" stroke-linejoin="round"/>
<path d="M145.153 98.0118C146.255 103.776 147.955 112.75 147.955 112.75C148.221 113.804 149.868 122 154.652 123.77C154.652 123.77 152.492 131.304 133.253 127.465C124.973 125.812 116.313 127.785 116.313 127.785L113.826 95.5265C113.478 88.6629 113.574 83.4651 113.826 81.7085C114.962 73.8399 127.926 73.0373 136.904 75.6513C143.455 77.5594 143.756 90.694 145.153 98.0118Z" fill="#4C4C4C" stroke="black" stroke-width="0.5" stroke-linecap="round" stroke-linejoin="round"/>
<path d="M119.653 61.6707L127.105 74.4646C127.27 75.2217 125.678 78.8731 123.42 80.2757C121.112 81.7105 119.167 80.323 118.071 78.7179L111.635 68.097L119.653 61.6707Z" fill="#E5E5E5" stroke="black" stroke-width="0.5" stroke-miterlimit="10" stroke-linecap="round" stroke-linejoin="round"/>
<path d="M117.974 61.4527C117.971 61.4614 117.965 61.4689 117.958 61.4742C117.95 61.4795 117.941 61.4823 117.932 61.4823C117.923 61.4823 117.914 61.4795 117.906 61.4742C117.898 61.4689 117.892 61.4614 117.889 61.4527C117.768 61.0457 117.492 60.052 117.265 59.1983C116.684 57.0026 115.582 55.7419 113.235 56.4101L104.124 59.1794C103.982 63.8548 105.991 68.8444 107.603 71.1764C109.784 74.328 112.368 75.8726 116.066 74.1293C119.104 72.6983 121.395 68.2917 120.712 65.1041C122.116 64.7558 122.461 60.6217 121.028 59.963C119.324 59.1718 118.222 60.989 117.974 61.4527Z" fill="#E5E5E5" stroke="black" stroke-width="0.5" stroke-miterlimit="10" stroke-linecap="round" stroke-linejoin="round"/>
<path d="M123.438 62.7135L117.498 73.8038C117.467 73.8607 117.419 73.907 117.362 73.9371C117.305 73.9672 117.24 73.9797 117.175 73.973C117.111 73.9664 117.05 73.9408 117 73.8996C116.95 73.8584 116.913 73.8034 116.894 73.7414L115.484 68.96C115.281 68.2644 115.359 67.5171 115.7 66.8778L121.549 55.9578C121.579 55.9004 121.627 55.8535 121.684 55.823C121.742 55.7924 121.807 55.7797 121.872 55.7864C121.937 55.7931 121.999 55.8189 122.049 55.8605C122.099 55.9022 122.136 55.9578 122.154 56.0203L123.616 60.9815C123.786 61.5598 123.722 62.1819 123.438 62.7135V62.7135Z" fill="black" stroke="black" stroke-width="0.5" stroke-linecap="round" stroke-linejoin="round"/>
<path d="M120.398 64.6045L120.159 62.5394C120.093 61.9564 120.504 61.133 121.091 61.1141C121.21 61.1097 121.328 61.1502 121.419 61.2275C121.511 61.3048 121.571 61.4135 121.587 61.5324L122.224 66.2097L120.398 64.6045Z" fill="#E5E5E5" stroke="black" stroke-width="0.5" stroke-miterlimit="10" stroke-linecap="round" stroke-linejoin="round"/>
<path d="M119.722 91.1596L118.208 81.7198C118.208 81.7198 116.837 79.613 116.949 77.8546C117.036 76.4955 117.6 73.2662 117.854 71.8636C117.935 71.4182 117.947 70.9631 117.89 70.514L117.67 68.7707L115.539 66.7339C115.336 66.5407 115.211 66.2801 115.188 66.0012C115.164 65.7222 115.243 65.4443 115.41 65.2196V65.2196C115.427 65.1967 115.448 65.1773 115.473 65.1626C115.497 65.1479 115.524 65.1381 115.552 65.1339C115.58 65.1297 115.609 65.131 115.637 65.138C115.664 65.1449 115.69 65.1572 115.713 65.1742L119.484 67.9454L119.2 67.0482L115.88 64.8789C115.772 64.809 115.681 64.7174 115.611 64.6101C115.541 64.5028 115.495 64.382 115.475 64.2557C115.454 64.1293 115.461 64.0001 115.493 63.8763C115.526 63.7525 115.584 63.6369 115.664 63.5369V63.5369C115.753 63.4238 115.88 63.3462 116.021 63.3177C116.163 63.2893 116.31 63.312 116.436 63.3817L117.888 64.1767L117.097 63.5653C116.987 63.4811 116.897 63.375 116.831 63.2537C116.765 63.1324 116.725 62.9986 116.713 62.861C116.702 62.7234 116.72 62.585 116.765 62.4546C116.811 62.3242 116.883 62.2048 116.977 62.104V62.104C117.076 61.9983 117.208 61.9295 117.351 61.9089C117.494 61.8882 117.64 61.917 117.765 61.9904L121.963 64.4701C122.176 64.5959 122.36 64.7645 122.504 64.9652C122.648 65.1659 122.749 65.3944 122.8 65.6361L123.794 70.3474C123.872 70.7214 123.878 71.1068 123.813 71.4832L122.832 77.0785C122.68 77.9484 122.73 78.8416 122.98 79.6888L125.969 88.3581C127.413 92.123 124.996 94.9832 124.996 94.9832C121.878 96.3782 120.11 94.5421 119.722 91.1596Z" fill="#E5E5E5" stroke="black" stroke-width="0.5" stroke-linecap="round" stroke-linejoin="round"/>
<path d="M119.338 67.5063L120.487 71.3962" stroke="black" stroke-width="0.5" stroke-linecap="round" stroke-linejoin="round"/>
<path d="M117.883 64.1787L120.794 65.8823C120.952 65.9763 121.089 66.1029 121.195 66.2537C121.3 66.4044 121.373 66.5759 121.407 66.7568L122.248 70.3968" stroke="black" stroke-width="0.5" stroke-linecap="round" stroke-linejoin="round"/>
<path d="M136.469 75.7176C133.079 75.4469 130.072 78.4585 129.75 82.4468L128.716 93.3535L125.629 84.8867L116.611 87.8888L124.609 117.944C125.691 122.006 129.498 124.503 132.89 123.373C135.754 122.426 137.859 118.712 138.417 112.613L141.959 83.9535C142.557 79.7911 140.028 76.0053 136.469 75.7176Z" fill="#4C4C4C" stroke="black" stroke-width="0.5" stroke-linecap="round" stroke-linejoin="round"/>
<path d="M128.711 93.3552L134.125 107.54" stroke="black" stroke-width="0.5" stroke-linecap="round" stroke-linejoin="round"/>
<path d="M111.283 70.9873L113.998 68.7158C113.998 68.7158 114.887 70.109 114.066 70.9229C112.466 72.5167 111.283 70.9873 111.283 70.9873Z" fill="white" stroke="black" stroke-width="0.5" stroke-miterlimit="10" stroke-linecap="round" stroke-linejoin="round"/>
<path d="M106.004 65.7744L106.924 64.4778" stroke="black" stroke-width="0.5" stroke-linecap="round" stroke-linejoin="round"/>
<path d="M110.805 62.9746L113.379 62.4768" stroke="black" stroke-width="0.5" stroke-linecap="round" stroke-linejoin="round"/>
<path d="M108.984 64.4417C108.984 64.4417 109.518 67.6255 110.037 68.1346C110.555 68.6438 111.829 67.8261 111.829 67.8261" fill="#E5E5E5"/>
<path d="M108.984 64.4417C108.984 64.4417 109.518 67.6255 110.037 68.1346C110.555 68.6438 111.829 67.8261 111.829 67.8261" stroke="black" stroke-width="0.5" stroke-linecap="round" stroke-linejoin="round"/>
<path d="M107.495 67.1997C107.891 67.1997 108.212 66.8785 108.212 66.4823C108.212 66.0861 107.891 65.7649 107.495 65.7649C107.099 65.7649 106.777 66.0861 106.777 66.4823C106.777 66.8785 107.099 67.1997 107.495 67.1997Z" fill="black"/>
<path d="M112.553 65.248C112.95 65.248 113.271 64.9268 113.271 64.5306C113.271 64.1344 112.95 63.8132 112.553 63.8132C112.157 63.8132 111.836 64.1344 111.836 64.5306C111.836 64.9268 112.157 65.248 112.553 65.248Z" fill="black"/>
<path d="M198.68 163.956H246.505" stroke="black" stroke-width="0.5" stroke-linecap="round" stroke-linejoin="round"/>
<path d="M220.188 166.674H257.066" stroke="black" stroke-width="0.5" stroke-linecap="round" stroke-linejoin="round"/>
<path d="M5.47461 55.1118H71.5018" stroke="black" stroke-width="0.5" stroke-linecap="round" stroke-linejoin="round"/>
<path d="M45.1836 57.8281H82.0624" stroke="black" stroke-width="0.5" stroke-linecap="round" stroke-linejoin="round"/>
<path d="M175.221 103.965C175.221 103.965 185.017 107.764 189.014 109.411C193.012 111.057 193.345 111.154 193.584 112.265C193.822 113.376 193.962 117.062 189.798 118.264C185.634 119.466 174.95 114.981 172.06 113.195C169.17 111.408 165.514 107.864 165.221 105.171C164.928 102.477 166.574 100.628 169.575 101.705C172.575 102.782 175.221 103.965 175.221 103.965Z" fill="#1A1A1A" stroke="black" stroke-width="0.5" stroke-miterlimit="10" stroke-linecap="round" stroke-linejoin="round"/>
<path d="M191.899 138.769C191.899 138.769 193.383 141.703 196.158 141.357C198.933 141.01 199.092 139.496 199.251 138.769C199.327 138.189 199.345 137.602 199.304 137.018C199.304 136.975 199.318 136.934 199.345 136.9C199.372 136.866 199.409 136.843 199.451 136.833C199.492 136.823 199.536 136.828 199.575 136.847C199.614 136.865 199.645 136.896 199.664 136.935C200.286 138.355 201.167 141.321 198.84 143.344C195.685 146.089 191.615 143.596 191.615 143.596L191.899 138.769Z" fill="#1A1A1A" stroke="black" stroke-width="0.5" stroke-miterlimit="10" stroke-linecap="round" stroke-linejoin="round"/>
<path d="M179.249 135.867C179.249 135.867 177.009 137.698 177.293 140.694C177.577 143.69 178.259 144.228 178.259 144.228C178.259 144.228 175.242 144.385 175.274 145.048C175.306 145.71 176.398 145.882 177.608 146.057C178.817 146.231 182.813 146.057 182.813 146.057L182.404 135.867H179.249Z" fill="#1A1A1A" stroke="black" stroke-width="0.5" stroke-miterlimit="10" stroke-linecap="round" stroke-linejoin="round"/>
<path d="M164.896 123.312V141.987C164.896 141.987 162.75 142.398 162.625 143.155C162.5 143.912 165.721 143.944 166.473 143.974C167.224 144.005 169.185 143.974 169.185 143.974L169.818 125.748L164.896 123.312Z" fill="white" stroke="black" stroke-width="0.5" stroke-miterlimit="10" stroke-linecap="round" stroke-linejoin="round"/>
<path d="M151.146 101.462C151.149 101.355 151.172 101.25 151.216 101.152C151.26 101.054 151.323 100.966 151.402 100.893C151.48 100.82 151.573 100.764 151.674 100.728C151.775 100.692 151.882 100.676 151.989 100.682C154.071 100.802 159.814 101.133 162.036 101.269C164.769 101.438 170.7 102.026 170.7 102.026C170.7 102.026 174.065 115.15 176.632 118.305C179.199 121.461 181.133 122.717 185.464 125.748C189.795 128.778 192.574 131.555 192.994 133.575C193.414 135.595 193.414 139.715 192.994 141.567C192.574 143.418 191.995 145.509 191.995 145.509C191.995 145.509 187.87 146.191 185.411 146.373C183.853 146.488 178.146 146.594 178.052 145.867C177.957 145.14 180.07 144.512 180.07 144.512C180.07 144.512 178.871 143.155 178.934 141.892C178.956 141.185 179.117 140.488 179.407 139.842C179.407 139.842 177.578 139.307 176.316 138.265C175.12 137.277 173.728 135.394 173.728 135.394C173.728 135.394 173.098 142.271 172.909 143.312C172.719 144.353 172.53 145.615 172.089 145.742C171.648 145.869 169.28 145.867 168.114 145.648C166.948 145.428 166.284 145.332 166.378 144.607C166.473 143.882 168.461 143.849 168.461 143.849V131.83C168.461 131.83 162.983 126.844 161.93 120.408C161.443 117.283 161.284 114.115 161.453 110.957C161.461 110.814 161.416 110.672 161.328 110.559C161.241 110.445 161.115 110.367 160.974 110.338C159.568 110.045 155.646 109.115 153.948 107.601C151.425 105.345 151.116 102.753 151.146 101.462Z" fill="white" stroke="black" stroke-width="0.5" stroke-miterlimit="10" stroke-linecap="round" stroke-linejoin="round"/>
<path d="M153.73 100.775C153.773 101.156 153.74 101.541 153.632 101.908C153.525 102.275 153.345 102.617 153.103 102.914C152.276 103.965 151.483 103.861 151.483 103.861C151.483 103.861 151.235 103.482 151.144 102.611C151.084 102.215 151.072 101.813 151.108 101.413C151.157 101.012 151.449 100.639 151.852 100.656L153.73 100.775Z" fill="black" stroke="black" stroke-width="0.5" stroke-linecap="round" stroke-linejoin="round"/>
<path d="M179.753 121.546C179.753 121.546 184.09 124.824 185.947 126.089C187.931 127.448 189.756 129.027 191.387 130.794C191.387 130.794 191.616 135.205 186.127 134.669C180.637 134.133 180.891 130.978 181.237 129.778C181.584 128.578 181.553 127.255 181.27 126.876C180.986 126.497 179.702 125.415 179.471 124.037C179.303 123.037 179.753 121.546 179.753 121.546Z" fill="#4C4C4C" stroke="black" stroke-width="0.5" stroke-miterlimit="10" stroke-linecap="round" stroke-linejoin="round"/>
<path d="M161.078 112.308C161.088 112.261 161.107 112.216 161.134 112.175C161.162 112.135 161.197 112.101 161.238 112.075C161.279 112.048 161.325 112.03 161.372 112.022C161.42 112.013 161.469 112.014 161.517 112.025C162.013 112.136 163.109 112.301 165.267 112.301C168.032 112.301 172.236 111.284 173.461 110.976C173.555 110.952 173.655 110.966 173.739 111.015C173.822 111.064 173.883 111.145 173.908 111.239L174.256 112.502C174.283 112.595 174.291 112.692 174.28 112.788C174.269 112.885 174.24 112.978 174.193 113.063C174.146 113.147 174.082 113.222 174.007 113.282C173.931 113.343 173.844 113.387 173.751 113.414C172.236 113.827 168.655 114.758 167.146 114.828C164.339 114.96 162.321 114.497 161.352 114.203C161.173 114.144 161.023 114.021 160.93 113.857C160.838 113.693 160.809 113.501 160.851 113.317L161.078 112.308Z" fill="#CCCCCC" stroke="black" stroke-width="0.5" stroke-miterlimit="10" stroke-linecap="round" stroke-linejoin="round"/>
<path d="M177.304 103.187C177.304 103.187 187.321 106.35 191.415 107.73C195.51 109.11 195.85 109.193 196.161 110.287C196.471 111.381 196.846 115.05 192.754 116.517C188.661 117.984 177.726 114.19 174.728 112.594C171.729 110.999 167.855 107.694 167.389 105.023C166.923 102.352 168.449 100.401 171.512 101.285C174.574 102.169 177.304 103.187 177.304 103.187Z" fill="#4C4C4C" stroke="black" stroke-width="0.5" stroke-miterlimit="10" stroke-linecap="round" stroke-linejoin="round"/>
<path d="M162.436 103.88C162.436 103.88 162.519 104.739 163.234 104.907C163.749 105.003 164.276 105.003 164.79 104.907" stroke="black" stroke-width="0.5" stroke-linecap="round" stroke-linejoin="round"/>
<path d="M181.995 87.9965C181.995 87.9965 184.372 82.3179 187.673 84.4001C192.451 87.4286 181.463 97.8811 181.463 97.8811C181.463 97.8811 174.648 89.454 176.804 86.8135C179.303 83.7622 181.995 87.9965 181.995 87.9965Z" fill="#B3B3B3" stroke="black" stroke-width="0.5" stroke-linecap="round" stroke-linejoin="round"/>
<path d="M6.08192 40.3C6.28125 40.3 6.93661 40.302 7.97936 40.3051L7.98142 40.3051L7.98874 40.3051C12.0524 40.3171 21.9701 40.3464 33.7069 40.3464H95.0855C95.2248 40.3464 103.071 40.3 103.164 35.5179C103.257 30.4107 99.0784 28.3214 97.2676 27.6714C93.6926 26.3714 88.7248 26.3714 87.9819 26.3714C87.7498 25.4429 85.8926 18.0607 79.7641 15.4143C73.6355 12.7679 67.6462 15.0893 66.9498 15.3679C66.2534 14.7643 59.2426 9.05359 50.6998 12.8607C42.6212 16.4357 41.7391 21.8214 41.6462 22.8429C40.6248 22.3322 34.6819 19.6393 29.8998 22.1929C25.1176 24.7464 24.3283 28.5536 24.2355 29.25L24.1804 29.248C22.6653 29.1909 10.8451 28.7461 5.94263 32.7322C2.64621 35.3786 2.69263 37.3286 3.01763 38.2572C3.38906 39.4643 4.64263 40.2536 6.08192 40.3Z" fill="url(#paint0_linear_3102_207709)" style="mix-blend-mode:overlay"/>
<path fill-rule="evenodd" clip-rule="evenodd" d="M221.186 189.707L217.425 191.982L217.457 192.036C217.782 192.575 218.876 194.393 220.489 198.157C222.3 202.336 223.6 210.275 223.6 210.368C223.6 210.391 223.588 210.403 223.577 210.414C223.565 210.426 223.553 210.438 223.553 210.461C223.527 210.487 223.515 210.499 223.502 210.504C223.492 210.507 223.48 210.507 223.461 210.507H207.628C209.114 213.85 209.95 217.564 209.95 221.464C209.95 236.507 197.739 248.718 182.696 248.718C167.653 248.718 155.443 236.507 155.443 221.464C155.443 220.118 155.536 218.818 155.721 217.564H65.0927C65.3249 220.072 65.3249 221.697 65.3249 221.743C65.3249 221.789 65.2785 221.836 65.232 221.836C65.2292 221.836 65.2249 221.836 65.2193 221.836L65.2106 221.837C65.2036 221.837 65.195 221.838 65.185 221.839L65.1791 221.839L65.177 221.839L65.1691 221.84L65.1648 221.84L65.1624 221.84C65.0083 221.852 64.6137 221.882 63.9785 221.882C62.5856 221.882 60.1713 221.743 57.3392 221.047V221.418C57.3392 236.461 45.1285 248.672 30.0856 248.672C15.0427 248.672 2.83203 236.461 2.83203 221.418C2.83203 212.782 6.87132 205.075 13.1856 200.061C9.42489 200.014 6.26775 200.386 4.03917 200.757C3.85346 200.804 3.62132 200.757 3.4356 200.664C3.24989 200.572 3.06417 200.432 2.97132 200.247C2.87846 200.061 2.83203 199.829 2.83203 199.643C2.83203 199.457 2.92489 199.225 3.06417 199.086C3.85727 198.094 4.85358 196.968 5.99524 195.676C6.19027 195.456 6.38953 195.23 6.59275 195C10.5856 190.497 18.757 185.157 25.582 184.089C26.5106 183.95 27.4856 183.811 28.5999 183.672L44.107 174.2L47.682 164.079L47.7285 164.032L51.3963 161.618L67.4606 130.882C67.6463 130.511 67.7392 130.139 67.7392 129.722C67.7392 129.304 67.5999 128.932 67.4142 128.561C67.2285 128.236 66.9035 127.911 66.5785 127.725C66.207 127.539 65.8356 127.4 65.4177 127.4L60.3106 127.261C60.3037 127.264 60.2971 127.268 60.2907 127.271C60.2835 127.275 60.2766 127.279 60.2699 127.283C60.261 127.288 60.2524 127.292 60.2442 127.297C60.1895 127.329 60.1464 127.354 60.0785 127.354C59.0106 127.354 58.407 122.804 58.407 118.532C58.407 114.261 59.0106 109.711 60.0785 109.711C60.0835 109.711 60.1091 109.709 60.1536 109.707C60.9337 109.661 67.5244 109.278 71.082 110.639C71.8713 110.918 73.0785 111.522 74.3785 112.45L79.7177 110.5L79.3927 109.757V109.664C79.3927 109.664 79.3927 109.618 79.4392 109.618L96.6642 102.654L114.307 79.8108C114.493 79.4394 114.725 79.0679 115.003 78.6965C114.214 78.4179 113.425 78.093 112.682 77.6751C108.457 75.3072 103.907 71.9644 102.143 64.9537C100.471 58.2215 103.396 52.2787 109.571 49.8179C111.057 49.2144 113.007 48.7501 115.096 48.6572C114.864 48.0537 114.771 47.4037 114.771 46.7537C114.771 43.4108 117.511 40.6715 120.853 40.6715C124.196 40.6715 126.936 43.4108 126.936 46.7537C126.936 48.7501 125.914 50.5608 124.382 51.6751C125.775 52.9287 127.075 54.5537 128.096 56.7358C128.354 57.2514 128.594 57.7847 128.828 58.3029C128.972 58.6246 129.115 58.9406 129.257 59.2429C130.464 61.9822 131.532 64.3501 133.111 65.6965C134.364 66.7644 135.757 67.4144 136.593 67.3215C136.732 67.2751 136.871 67.3215 136.964 67.3679C137.057 67.4144 137.15 67.5072 137.243 67.6C137.336 67.7393 137.382 67.8322 137.382 67.9715C137.382 68.1108 137.336 68.2501 137.289 68.343C136.639 69.5965 135.293 72.0572 132.182 74.7501C133.9 74.9822 135.525 75.3537 136.964 75.7715C137.289 75.8644 137.614 76.0036 137.939 76.1428C138.914 76.5142 139.843 77.1644 140.539 78.0465C141.328 79.068 141.886 80.2751 142.071 81.6215C143.341 85.0216 143.946 89.2626 144.493 93.0913L144.532 93.3679C144.764 95.0858 144.996 96.7572 145.275 98.1965C146.343 103.954 148.061 112.914 148.061 112.914C148.061 113.007 148.061 113.1 148.107 113.193C149.871 120.668 152.611 123.129 154.653 123.872C154.746 123.872 154.746 123.964 154.746 124.011C154.746 124.057 154.514 124.847 153.493 125.822C154.746 128.05 156 131.254 156.371 135.525C156.65 138.497 155.861 141.05 154.096 143.186C155.312 143.22 156.477 143.248 157.573 143.274H157.574C159.45 143.319 161.123 143.359 162.5 143.418V143.325C162.639 142.582 164.311 142.164 164.775 142.072V127.725C163.475 125.775 162.268 123.268 161.803 120.575C161.525 118.532 161.339 116.489 161.293 114.447C161.107 114.4 160.921 114.261 160.828 114.075C160.736 113.889 160.689 113.704 160.736 113.472L160.968 112.45L160.973 112.44L160.978 112.428C160.982 112.42 160.985 112.413 160.988 112.406C160.995 112.39 161.001 112.375 161.006 112.361C161.021 112.322 161.032 112.293 161.061 112.264L161.2 112.125C161.223 112.125 161.246 112.113 161.27 112.102L161.28 112.097L161.288 112.093L161.292 112.091C161.307 112.084 161.323 112.079 161.339 112.079C161.339 111.916 161.351 111.754 161.362 111.591C161.374 111.429 161.386 111.266 161.386 111.104C161.386 110.964 161.386 110.872 161.293 110.779C161.246 110.686 161.107 110.593 161.014 110.593C159.482 110.268 155.675 109.339 153.957 107.807C152.564 106.554 151.821 105.207 151.45 104.047C151.403 104 151.171 103.629 151.078 102.747C150.986 102.375 150.986 101.957 151.032 101.539C151.125 101.075 151.403 100.657 151.914 100.657L153.771 100.797C154.772 100.852 156.008 100.922 157.246 100.993L157.266 100.994C159.123 101.1 160.979 101.205 162.036 101.261C162.899 101.294 164.072 101.399 165.281 101.506C165.762 101.549 166.249 101.593 166.725 101.632C167.143 101.447 167.793 101.307 168.582 101.447C169.186 101.122 170.161 100.889 171.553 101.307C174.571 102.189 177.264 103.164 177.357 103.211C177.442 103.245 178.809 103.681 180.708 104.288C184.006 105.341 188.908 106.906 191.471 107.761L191.843 107.9C195.603 109.154 195.975 109.293 196.3 110.407L196.302 110.417C196.378 110.712 197.49 115.073 192.818 116.768C192.795 116.768 192.771 116.78 192.748 116.791C192.725 116.803 192.702 116.814 192.678 116.814C192.075 117.511 191.193 118.161 189.846 118.532C189.336 118.672 188.778 118.718 188.128 118.718C184.461 118.718 178.611 116.629 174.896 114.911C175.5 116.397 176.103 117.65 176.707 118.347C177.821 119.693 178.796 120.668 179.864 121.597C179.958 121.664 180.267 121.895 180.706 122.223L180.709 122.226L180.71 122.227L180.711 122.227L180.715 122.23L180.716 122.231C181.792 123.036 183.637 124.418 185.018 125.404L185.528 125.775C185.575 125.822 185.633 125.856 185.691 125.891C185.749 125.926 185.807 125.961 185.853 126.007C185.866 126.02 185.879 126.029 185.892 126.037L185.898 126.04L185.904 126.044C185.91 126.047 185.917 126.05 185.923 126.054C185.946 126.065 185.97 126.077 185.993 126.1C186.012 126.11 186.029 126.119 186.044 126.128C186.055 126.135 186.066 126.141 186.076 126.148C186.087 126.155 186.098 126.162 186.108 126.169C186.143 126.193 186.178 126.216 186.225 126.239C186.251 126.266 186.278 126.288 186.304 126.309C186.324 126.325 186.344 126.34 186.364 126.355L186.364 126.356C186.411 126.39 186.457 126.425 186.503 126.472C187.014 126.843 187.571 127.261 188.082 127.679C188.198 127.772 188.303 127.864 188.407 127.957C188.511 128.05 188.616 128.143 188.732 128.236C188.778 128.236 188.825 128.282 188.871 128.329C189.893 129.211 190.775 130 191.425 130.789C192.307 131.857 192.864 132.786 193.05 133.622C193.375 135.293 193.468 138.311 193.236 140.4C193.932 141.004 194.861 141.468 196.068 141.329C198.621 141.004 198.9 139.75 199.039 138.961L199.086 138.822C199.132 138.264 199.178 137.661 199.132 137.104C199.132 137.057 199.132 136.964 199.178 136.918C199.225 136.872 199.318 136.825 199.364 136.825C199.411 136.779 199.503 136.779 199.55 136.825L199.689 136.964C200.386 138.543 201.221 141.468 198.853 143.511C197.739 144.486 196.486 144.811 195.325 144.811C194.164 144.811 193.143 144.486 192.446 144.207C192.377 144.486 192.307 144.73 192.249 144.933C192.191 145.136 192.145 145.298 192.121 145.414C192.4 145.368 192.678 145.368 192.911 145.368H193.282C195 145.414 196.625 145.461 197.507 147.597C197.786 148.2 197.878 148.897 197.739 149.593C197.646 150.243 197.321 150.847 196.857 151.357L195.928 158.229C195.836 158.693 195.603 159.157 195.232 159.482C194.861 159.807 194.396 159.993 193.886 159.993H190.589C191.007 160.411 191.611 161.061 192.168 162.129C192.864 163.429 193.189 165.982 193.236 166.4L193.237 166.401C193.659 166.683 196.86 168.816 199.596 170.904C202.382 173.039 206.514 177.079 206.886 177.45L215.661 178.379H216.171C216.728 178.379 217.332 178.564 217.796 178.889C218.261 179.214 218.632 179.679 218.864 180.236L221.836 187.711C221.975 188.036 222.021 188.454 221.882 188.825C221.743 189.197 221.511 189.522 221.186 189.707ZM83.1535 122.897L79.9963 123.314C80.1818 129.156 77.1269 134.858 75.0378 138.758L75.0285 138.775C72.4749 143.511 68.0177 153.168 66.207 160.225C64.3035 167.607 63.2356 174.432 63.4677 176.011C63.4677 176.08 63.4793 176.162 63.4909 176.243C63.5025 176.324 63.5142 176.405 63.5142 176.475C63.6999 177.961 63.9785 180.004 68.3892 187.339C73.357 195.557 77.4892 200.943 79.9499 202.475C81.1106 203.172 83.6642 203.775 86.9606 204.239C86.032 203.636 85.5213 202.614 85.5677 201.361C85.5677 201.284 85.5818 201.222 85.5945 201.165C85.6048 201.119 85.6142 201.078 85.6142 201.036C85.6142 201.036 85.5677 200.989 85.6142 200.943C85.707 200.293 85.9856 199.643 86.4499 199.132C86.9606 198.482 87.7499 198.064 88.5392 197.925L92.2535 197.229C94.1106 196.904 95.9213 196.3 97.6392 195.418L99.4963 194.397L105.114 191.1L105.253 190.775V190.729C105.207 190.543 105.207 190.357 105.3 190.172L106.182 188.5C106.275 188.314 106.414 188.175 106.6 188.129C106.786 188.082 106.971 188.082 107.157 188.175L107.25 188.222H107.343C107.482 188.268 107.621 188.314 107.714 188.361C107.761 188.082 107.9 187.525 108.271 187.061L107.714 185.436C107.203 185.482 106.693 185.529 106.275 185.529C103.257 185.529 101.911 184.322 101.864 184.275C101.818 184.275 101.818 184.229 101.818 184.229L85.4285 142.443C84.9642 141.329 84.7785 140.122 84.8713 138.961C84.9642 137.8 85.2892 136.639 85.8927 135.618C86.4963 134.597 87.2856 133.668 88.2606 133.018C89.2356 132.368 90.3499 131.904 91.5106 131.718L116.118 127.772L114.121 101.772L106.693 109.804C105.671 110.918 104.371 111.707 102.932 112.079L83.1535 117.418H83.107C83.0606 117.418 83.0142 117.418 83.0142 117.372L82.5035 116.304L78.4642 117.279C78.6963 117.743 78.882 118.207 79.0677 118.718L82.6892 118.207H82.7356L83.107 118.161H83.1535C84.3142 118.161 85.2427 119.229 85.2427 120.529C85.2427 121.829 84.3142 122.897 83.1535 122.897ZM122.618 190.822C122.85 190.497 123.221 190.264 123.686 190.125V190.032C123.128 190.125 122.618 190.218 122.153 190.311C121.318 190.497 120.528 190.543 119.832 190.543C119.414 190.543 119.043 190.543 118.718 190.497L118.996 192.168C119.228 192.261 119.414 192.4 119.553 192.539C120.152 193.184 120.111 194.286 120.065 195.527L120.064 195.557C120.018 195.836 120.018 196.114 120.018 196.393V197.043L120.761 196.161V195.882L120.714 195.836C120.575 195.65 120.528 195.464 120.575 195.279L120.853 193.422C120.853 193.236 120.993 193.05 121.132 192.957C121.271 192.818 121.457 192.818 121.643 192.818H121.736L121.782 192.4C121.828 192.168 121.921 191.982 122.107 191.843C122.153 191.797 122.2 191.75 122.246 191.75C122.293 191.425 122.386 191.1 122.618 190.822ZM178.007 144.161C177.775 143.789 177.357 142.907 177.171 140.725C177.125 140.122 177.171 139.564 177.218 139.1C176.893 138.914 176.521 138.682 176.196 138.404C175.268 137.614 174.2 136.314 173.782 135.757C173.745 136.113 173.686 136.749 173.614 137.509L173.613 137.521L173.612 137.531L173.612 137.533L173.612 137.534C173.414 139.645 173.129 142.691 172.993 143.372L172.946 143.604C172.853 143.929 172.807 144.207 172.761 144.486C173.596 144.671 174.386 144.857 175.128 145.043C175.221 144.439 177.125 144.207 178.007 144.161Z" fill="url(#paint1_linear_3102_207709)" style="mix-blend-mode:overlay"/>
<path d="M163.893 73.4501C163.893 73.4501 158.321 73.45 158.228 70.0608C158.182 66.4858 161.107 65.0465 162.361 64.5822C164.821 63.7001 168.211 63.7 168.814 63.7C168.953 62.9572 170.3 57.8965 174.525 56.0858C178.75 54.2286 182.882 55.8072 183.439 56.0393C183.996 55.575 188.825 51.7215 194.721 54.3215C200.246 56.7358 200.943 60.4036 201.036 61.2393C201.871 60.8215 205.911 59.0572 209.207 60.8215C212.457 62.5858 213.061 65.1858 213.153 65.7429C214.221 65.65 222.393 65.3251 225.875 68.1572C228.15 70.0143 228.15 71.4072 227.918 72.0572C227.639 72.8465 226.757 73.4501 225.736 73.4501H163.893Z" fill="url(#paint2_linear_3102_207709)" style="mix-blend-mode:overlay"/>
<path d="M198.668 164.032C198.621 164.032 198.575 163.986 198.575 163.939C198.575 163.893 198.621 163.846 198.668 163.846H246.489C246.536 163.846 246.582 163.893 246.582 163.939C246.582 163.986 246.536 164.032 246.489 164.032H198.668Z" fill="url(#paint3_linear_3102_207709)" style="mix-blend-mode:overlay"/>
<path d="M257.075 166.539H220.211C220.164 166.539 220.118 166.586 220.118 166.632C220.118 166.679 220.164 166.725 220.211 166.725H257.075C257.121 166.725 257.168 166.679 257.168 166.632C257.168 166.586 257.121 166.539 257.075 166.539Z" fill="url(#paint4_linear_3102_207709)" style="mix-blend-mode:overlay"/>
<path d="M71.5463 55.0179C71.5928 55.0179 71.6392 55.0643 71.6392 55.1108C71.6392 55.1572 71.5463 55.25 71.4999 55.2036H5.47846C5.43203 55.2036 5.3856 55.1572 5.3856 55.1108C5.3856 55.0643 5.43203 55.0179 5.47846 55.0179H71.5463Z" fill="url(#paint5_linear_3102_207709)" style="mix-blend-mode:overlay"/>
<path d="M45.1749 57.9429H82.0392C82.0856 57.9429 82.132 57.8964 82.132 57.85C82.132 57.8036 82.0856 57.7571 82.0392 57.7571H45.1749C45.1285 57.7571 45.082 57.8036 45.082 57.85C45.082 57.8964 45.1285 57.9429 45.1749 57.9429Z" fill="url(#paint6_linear_3102_207709)" style="mix-blend-mode:overlay"/>
<path d="M185.436 83.9429C186.225 83.7108 187.014 83.8501 187.757 84.3143C188.453 84.7786 188.871 85.4286 188.964 86.3108C189.367 90.2915 182.401 97.116 181.6 97.9014C181.569 97.9313 181.547 97.9524 181.536 97.9643C181.489 98.0108 181.489 98.0108 181.443 98.0108C181.396 98.0108 181.35 98.0108 181.35 97.9643C181.337 97.9474 181.311 97.9143 181.274 97.8662C180.493 96.8597 174.624 89.2988 176.707 86.7286C177.357 85.8929 178.1 85.5215 178.889 85.5679C180.375 85.6608 181.582 87.2393 181.953 87.7501C182.325 87.0072 183.578 84.5465 185.436 83.9429Z" fill="url(#paint7_linear_3102_207709)" style="mix-blend-mode:overlay"/>
<defs>
<linearGradient id="paint0_linear_3102_207709" x1="257.168" y1="129.77" x2="2.83203" y2="129.77" gradientUnits="userSpaceOnUse">
<stop stop-color="#E60050"/>
<stop offset="1" stop-color="#5D6AE8"/>
</linearGradient>
<linearGradient id="paint1_linear_3102_207709" x1="257.168" y1="129.77" x2="2.83203" y2="129.77" gradientUnits="userSpaceOnUse">
<stop stop-color="#E60050"/>
<stop offset="1" stop-color="#5D6AE8"/>
</linearGradient>
<linearGradient id="paint2_linear_3102_207709" x1="257.168" y1="129.77" x2="2.83203" y2="129.77" gradientUnits="userSpaceOnUse">
<stop stop-color="#E60050"/>
<stop offset="1" stop-color="#5D6AE8"/>
</linearGradient>
<linearGradient id="paint3_linear_3102_207709" x1="257.168" y1="129.77" x2="2.83203" y2="129.77" gradientUnits="userSpaceOnUse">
<stop stop-color="#E60050"/>
<stop offset="1" stop-color="#5D6AE8"/>
</linearGradient>
<linearGradient id="paint4_linear_3102_207709" x1="257.168" y1="129.77" x2="2.83203" y2="129.77" gradientUnits="userSpaceOnUse">
<stop stop-color="#E60050"/>
<stop offset="1" stop-color="#5D6AE8"/>
</linearGradient>
<linearGradient id="paint5_linear_3102_207709" x1="257.168" y1="129.77" x2="2.83203" y2="129.77" gradientUnits="userSpaceOnUse">
<stop stop-color="#E60050"/>
<stop offset="1" stop-color="#5D6AE8"/>
</linearGradient>
<linearGradient id="paint6_linear_3102_207709" x1="257.168" y1="129.77" x2="2.83203" y2="129.77" gradientUnits="userSpaceOnUse">
<stop stop-color="#E60050"/>
<stop offset="1" stop-color="#5D6AE8"/>
</linearGradient>
<linearGradient id="paint7_linear_3102_207709" x1="257.168" y1="129.77" x2="2.83203" y2="129.77" gradientUnits="userSpaceOnUse">
<stop stop-color="#E60050"/>
<stop offset="1" stop-color="#5D6AE8"/>
</linearGradient>
</defs>
</svg>
