<svg width="260" height="260" viewBox="0 0 260 260" fill="none" xmlns="http://www.w3.org/2000/svg">
<g clip-path="url(#clip0_2628_272419)">
<path d="M210.732 44.0732H206.555V56.3359H210.732V44.0732Z" fill="#333333" stroke="black" stroke-width="0.232143" stroke-miterlimit="10" stroke-linecap="round" stroke-linejoin="round"/>
<path d="M217.876 39.8628H213.699V56.3359H217.876V39.8628Z" fill="#333333" stroke="black" stroke-width="0.232143" stroke-miterlimit="10" stroke-linecap="round" stroke-linejoin="round"/>
<path d="M254.131 11.6072H204.139C203.078 11.6072 202.219 12.4668 202.219 13.5271V55.6846C202.219 56.7449 203.078 57.6045 204.139 57.6045H254.131C255.192 57.6045 256.051 56.7449 256.051 55.6846V13.5271C256.051 12.4668 255.192 11.6072 254.131 11.6072Z" fill="white" stroke="black" stroke-width="0.232143" stroke-linecap="round" stroke-linejoin="round"/>
<path d="M204.137 11.6072H254.131C254.64 11.607 255.128 11.8088 255.488 12.1683C255.848 12.5278 256.051 13.0156 256.051 13.5244V18.0233H202.215V13.5244C202.215 13.2723 202.265 13.0227 202.362 12.7899C202.459 12.5571 202.601 12.3456 202.779 12.1676C202.958 11.9896 203.169 11.8485 203.402 11.7523C203.636 11.6561 203.885 11.6068 204.137 11.6072Z" fill="#CCCCCC" stroke="black" stroke-width="0.232143" stroke-miterlimit="10" stroke-linecap="round" stroke-linejoin="round"/>
<path d="M205.747 16.0234C206.414 16.0234 206.955 15.4825 206.955 14.8152C206.955 14.148 206.414 13.6071 205.747 13.6071C205.08 13.6071 204.539 14.148 204.539 14.8152C204.539 15.4825 205.08 16.0234 205.747 16.0234Z" fill="white" stroke="black" stroke-width="0.232143" stroke-linecap="round" stroke-linejoin="round"/>
<path d="M209.841 16.0234C210.508 16.0234 211.049 15.4825 211.049 14.8152C211.049 14.148 210.508 13.6071 209.841 13.6071C209.174 13.6071 208.633 14.148 208.633 14.8152C208.633 15.4825 209.174 16.0234 209.841 16.0234Z" fill="white" stroke="black" stroke-width="0.232143" stroke-linecap="round" stroke-linejoin="round"/>
<path d="M213.931 16.0234C214.598 16.0234 215.139 15.4825 215.139 14.8152C215.139 14.148 214.598 13.6071 213.931 13.6071C213.264 13.6071 212.723 14.148 212.723 14.8152C212.723 15.4825 213.264 16.0234 213.931 16.0234Z" fill="white" stroke="black" stroke-width="0.232143" stroke-linecap="round" stroke-linejoin="round"/>
<path d="M221.075 40.832H216.898V53.0948H221.075V40.832Z" fill="#B3B3B3" stroke="black" stroke-width="0.232143" stroke-miterlimit="10" stroke-linecap="round" stroke-linejoin="round"/>
<path d="M228.22 23.8564H224.043V53.0948H228.22V23.8564Z" fill="#B3B3B3" stroke="black" stroke-width="0.232143" stroke-miterlimit="10" stroke-linecap="round" stroke-linejoin="round"/>
<path d="M235.36 29.6218H231.184V53.0942H235.36V29.6218Z" fill="#B3B3B3" stroke="black" stroke-width="0.232143" stroke-miterlimit="10" stroke-linecap="round" stroke-linejoin="round"/>
<path d="M242.505 36.6216H238.328V53.0948H242.505V36.6216Z" fill="#B3B3B3" stroke="black" stroke-width="0.232143" stroke-miterlimit="10" stroke-linecap="round" stroke-linejoin="round"/>
<path d="M249.65 24.5627H245.473V53.0948H249.65V24.5627Z" fill="#B3B3B3" stroke="black" stroke-width="0.232143" stroke-miterlimit="10" stroke-linecap="round" stroke-linejoin="round"/>
<path d="M198.25 53.0948H253.966" stroke="black" stroke-width="0.232143" stroke-linecap="round" stroke-linejoin="round"/>
<path d="M249.025 199.688H51.7618L15.7109 174.63H212.974L249.025 199.688Z" fill="white" stroke="black" stroke-width="0.232143" stroke-linecap="round" stroke-linejoin="round"/>
<path d="M249.023 199.688H51.5781V226.415H249.023V199.688Z" fill="#808080" stroke="black" stroke-width="0.232143" stroke-linecap="round" stroke-linejoin="round"/>
<path d="M51.5803 226.416L15.7109 201.358V174.63L51.5803 199.688V226.416Z" fill="#B3B3B3" stroke="black" stroke-width="0.232143" stroke-linecap="round" stroke-linejoin="round"/>
<path d="M148.964 156.652H109.777V184.595H148.964V156.652Z" fill="#B3B3B3" stroke="black" stroke-width="0.232143" stroke-linecap="round" stroke-linejoin="round"/>
<path d="M214.2 49.359H44.5411C42.5466 49.359 40.9297 50.976 40.9297 52.9707V158.44C40.9297 160.434 42.5466 162.051 44.5411 162.051H214.2C216.195 162.051 217.812 160.434 217.812 158.44V52.9707C217.812 50.976 216.195 49.359 214.2 49.359Z" fill="#E5E5E5" stroke="black" stroke-width="0.232143" stroke-linecap="round" stroke-linejoin="round"/>
<path d="M214.2 27.3163H44.5411C42.5466 27.3163 40.9297 28.9334 40.9297 30.9281V136.397C40.9297 138.392 42.5466 140.009 44.5411 140.009H214.2C216.195 140.009 217.812 138.392 217.812 136.397V30.9281C217.812 28.9334 216.195 27.3163 214.2 27.3163Z" fill="#808080" stroke="black" stroke-width="0.232143" stroke-linecap="round" stroke-linejoin="round"/>
<path d="M213.432 32.2716H45.3086V135.054H213.432V32.2716Z" fill="#E5E5E5" stroke="black" stroke-width="0.232143" stroke-miterlimit="10" stroke-linecap="round" stroke-linejoin="round"/>
<path d="M58.9779 44.2056C58.9779 43.5536 58.4494 43.0251 57.7975 43.0251C57.1456 43.0251 56.6172 43.5536 56.6172 44.2056V55.2405C56.6172 55.8924 57.1456 56.4209 57.7975 56.4209C58.4494 56.4209 58.9779 55.8924 58.9779 55.2405V44.2056Z" fill="#808080"/>
<path d="M67.0247 47.0635C67.0247 46.4116 66.4963 45.8831 65.8444 45.8831C65.1925 45.8831 64.6641 46.4116 64.6641 47.0635V52.3825C64.6641 53.0344 65.1925 53.5629 65.8444 53.5629C66.4963 53.5629 67.0247 53.0344 67.0247 52.3825V47.0635Z" fill="#808080"/>
<path d="M70.8646 49.723C70.8646 49.071 70.3361 48.5425 69.6842 48.5425C69.0324 48.5425 68.5039 49.071 68.5039 49.723C68.5039 50.3749 69.0324 50.9034 69.6842 50.9034C70.3361 50.9034 70.8646 50.3749 70.8646 49.723Z" fill="#808080"/>
<path d="M63.3142 41.6598C63.3142 40.847 62.6553 40.1882 61.8426 40.1882C61.0299 40.1882 60.3711 40.847 60.3711 41.6598V57.7862C60.3711 58.599 61.0299 59.2578 61.8426 59.2578C62.6553 59.2578 63.3142 58.599 63.3142 57.7862V41.6598Z" fill="#808080"/>
<path d="M129.372 154.85C131.65 154.85 133.497 153.003 133.497 150.725C133.497 148.446 131.65 146.599 129.372 146.599C127.093 146.599 125.246 148.446 125.246 150.725C125.246 153.003 127.093 154.85 129.372 154.85Z" fill="#E5E5E5" stroke="black" stroke-width="0.232143" stroke-linecap="round" stroke-linejoin="round"/>
<path d="M96.0156 184.677L109.779 181.073H148.972L162.728 184.677H96.0156Z" fill="#E5E5E5" stroke="black" stroke-width="0.232143" stroke-linecap="round" stroke-linejoin="round"/>
<path d="M162.218 184.595H96.5203C95.6893 184.595 95.0156 185.268 95.0156 186.099C95.0156 186.93 95.6893 187.604 96.5203 187.604H162.218C163.049 187.604 163.723 186.93 163.723 186.099C163.723 185.268 163.049 184.595 162.218 184.595Z" fill="white" stroke="black" stroke-width="0.232143" stroke-linecap="round" stroke-linejoin="round"/>
<path d="M204.534 39.6346H83.7736C82.4769 39.6346 81.4258 40.6858 81.4258 41.9826V65.6405C81.4258 66.9373 82.4769 67.9885 83.7736 67.9885H204.534C205.831 67.9885 206.882 66.9373 206.882 65.6405V41.9826C206.882 40.6858 205.831 39.6346 204.534 39.6346Z" fill="white"/>
<path d="M204.534 94.3785H83.7736C82.4769 94.3785 81.4258 95.4297 81.4258 96.7265V129.537C81.4258 130.833 82.4769 131.885 83.7736 131.885H204.534C205.831 131.885 206.882 130.833 206.882 129.537V96.7265C206.882 95.4297 205.831 94.3785 204.534 94.3785Z" fill="white"/>
<path d="M108.209 69.9335H83.7736C82.4769 69.9335 81.4258 70.9848 81.4258 72.2815V89.9913C81.4258 91.2881 82.4769 92.3393 83.7736 92.3393H108.209C109.505 92.3393 110.556 91.2881 110.556 89.9913V72.2815C110.556 70.9848 109.505 69.9335 108.209 69.9335Z" fill="white"/>
<path d="M139.353 69.9335H114.918C113.621 69.9335 112.57 70.9848 112.57 72.2815V89.9913C112.57 91.2881 113.621 92.3393 114.918 92.3393H139.353C140.65 92.3393 141.701 91.2881 141.701 89.9913V72.2815C141.701 70.9848 140.65 69.9335 139.353 69.9335Z" fill="white"/>
<path d="M204.655 69.9335H146.383C145.086 69.9335 144.035 70.9848 144.035 72.2815V89.9913C144.035 91.2881 145.086 92.3393 146.383 92.3393H204.655C205.952 92.3393 207.003 91.2881 207.003 89.9913V72.2815C207.003 70.9848 205.952 69.9335 204.655 69.9335Z" fill="white"/>
<path fill-rule="evenodd" clip-rule="evenodd" d="M95.993 74.9065C92.5531 74.9065 89.7643 77.6953 89.7643 81.1357C89.7643 84.5762 92.5531 87.365 95.993 87.365C99.4329 87.365 102.222 84.5762 102.222 81.1357C102.222 77.6953 99.4329 74.9065 95.993 74.9065ZM86.1953 81.1357C86.1953 75.7244 90.5818 71.3375 95.993 71.3375C101.404 71.3375 105.791 75.7244 105.791 81.1357C105.791 86.547 101.404 90.934 95.993 90.934C90.5818 90.934 86.1953 86.547 86.1953 81.1357Z" fill="#E5E5E5"/>
<path fill-rule="evenodd" clip-rule="evenodd" d="M95.9931 71.3375C98.2988 71.3375 100.531 72.1507 102.296 73.634C104.061 75.1173 105.247 77.1756 105.644 79.4469C106.041 81.7181 105.625 84.0567 104.468 86.0513C103.312 88.046 101.489 89.5687 99.3201 90.3517C97.1514 91.1347 94.7761 91.1278 92.6121 90.3321C90.448 89.5364 88.6339 88.003 87.4889 86.0017C86.3439 84.0003 85.9413 81.6593 86.352 79.3904C86.7627 77.1216 87.9603 75.0702 89.7342 73.5972L92.0142 76.343C90.8865 77.2794 90.125 78.5836 89.8639 80.0261C89.6028 81.4686 89.8588 82.957 90.5867 84.2293C91.3147 85.5017 92.468 86.4765 93.8437 86.9824C95.2194 87.4882 96.7294 87.4926 98.1081 86.9948C99.4867 86.4971 100.646 85.529 101.381 84.2609C102.116 82.9928 102.381 81.506 102.128 80.062C101.876 78.618 101.122 77.3094 99.9998 76.3664C98.8776 75.4234 97.4588 74.9065 95.9931 74.9065L95.9931 71.3375Z" fill="#333333"/>
<path fill-rule="evenodd" clip-rule="evenodd" d="M95.996 71.3395C98.2045 71.3402 100.348 72.087 102.079 73.4589C103.81 74.8307 105.026 76.7471 105.531 78.8972C106.036 81.0472 105.8 83.3049 104.861 85.3039C103.922 87.3028 102.335 88.926 100.358 89.91C98.3808 90.8939 96.1291 91.181 93.9683 90.7246C91.8075 90.2681 89.8642 89.095 88.4538 87.3956C87.0433 85.6961 86.2484 83.5699 86.1979 81.3619C86.1474 79.1539 86.8443 76.9936 88.1755 75.2314L91.0232 77.3827C90.1769 78.503 89.7338 79.8765 89.7659 81.2803C89.798 82.6841 90.3035 84.0358 91.2002 85.1163C92.0968 86.1967 93.3322 86.9425 94.7059 87.2326C96.0795 87.5228 97.5109 87.3403 98.7679 86.7148C100.025 86.0892 101.034 85.0573 101.631 83.7865C102.228 82.5156 102.378 81.0802 102.057 79.7133C101.736 78.3463 100.962 77.128 99.8618 76.2558C98.7615 75.3837 97.3988 74.909 95.9949 74.9085L95.996 71.3395Z" fill="#666666"/>
<path fill-rule="evenodd" clip-rule="evenodd" d="M95.9949 71.3395C98.0272 71.3398 100.009 71.972 101.666 73.1485C103.323 74.3251 104.573 75.9878 105.244 77.9064C105.914 79.8249 105.971 81.9045 105.407 83.857C104.844 85.8095 103.687 87.5384 102.097 88.8043C100.507 90.0702 98.5629 90.8105 96.5338 90.9225C94.5046 91.0345 92.4908 90.5128 90.7713 89.4296C89.0518 88.3464 87.7116 86.7553 86.9364 84.8767C86.1611 82.9981 85.9891 80.9249 86.4441 78.9442L89.9225 79.7434C89.6332 81.0027 89.7425 82.3208 90.2355 83.5152C90.7284 84.7096 91.5804 85.7212 92.6736 86.4098C93.7668 87.0985 95.047 87.4301 96.337 87.3589C97.627 87.2877 98.863 86.8171 99.8737 86.0123C100.884 85.2075 101.62 84.1083 101.978 82.8669C102.337 81.6255 102.301 80.3033 101.874 79.0835C101.448 77.8637 100.653 76.8066 99.5999 76.0586C98.5464 75.3106 97.2864 74.9087 95.9945 74.9085L95.9949 71.3395Z" fill="#999999"/>
<path fill-rule="evenodd" clip-rule="evenodd" d="M95.9926 71.3395C97.7252 71.3393 99.427 71.7986 100.924 72.6705C102.422 73.5424 103.661 74.7958 104.516 76.3028C105.371 77.8099 105.811 79.5167 105.792 81.2493C105.772 82.9819 105.293 84.6783 104.404 86.1657C103.516 87.653 102.248 88.878 100.731 89.7158C99.2148 90.5537 97.5031 90.9743 95.7709 90.9349C94.0387 90.8955 92.3479 90.3974 90.8709 89.4914C89.394 88.5855 88.1836 87.3041 87.3633 85.7779L90.5069 84.0882C91.0285 85.0585 91.798 85.8732 92.737 86.4492C93.676 87.0251 94.7509 87.3417 95.8521 87.3668C96.9534 87.3919 98.0415 87.1245 99.0057 86.5918C99.9699 86.0592 100.776 85.2804 101.341 84.3347C101.906 83.3891 102.21 82.3105 102.223 81.2089C102.235 80.1073 101.955 79.0221 101.412 78.064C100.868 77.1058 100.08 76.309 99.1283 75.7547C98.1764 75.2003 97.0945 74.9084 95.993 74.9085L95.9926 71.3395Z" fill="#CCCCCC"/>
<path fill-rule="evenodd" clip-rule="evenodd" d="M95.9974 71.3395C98.4873 71.3432 100.882 72.2947 102.696 74.0007C104.509 75.7067 105.606 78.0391 105.762 80.5242C105.917 83.0092 105.121 85.4604 103.535 87.3797C101.949 89.2991 99.6919 90.5425 97.222 90.8574L96.7707 87.317C98.3408 87.1169 99.7758 86.3264 100.784 85.1062C101.793 83.886 102.299 82.3276 102.2 80.7477C102.1 79.1677 101.404 77.6849 100.251 76.6003C99.0976 75.5157 97.575 74.9108 95.9922 74.9085L95.9974 71.3395Z" fill="#999999"/>
<path fill-rule="evenodd" clip-rule="evenodd" d="M127.134 74.9858C123.773 74.9858 121.047 77.7113 121.047 81.0738C121.047 84.4363 123.773 87.1619 127.134 87.1619C130.496 87.1619 133.222 84.4363 133.222 81.0738C133.222 77.7113 130.496 74.9858 127.134 74.9858ZM117.121 81.0738C117.121 75.5434 121.604 71.0599 127.134 71.0599C132.665 71.0599 137.148 75.5434 137.148 81.0738C137.148 86.6042 132.665 91.0878 127.134 91.0878C121.604 91.0878 117.121 86.6042 117.121 81.0738Z" fill="#CCCCCC"/>
<path fill-rule="evenodd" clip-rule="evenodd" d="M121.781 72.6122C123.383 71.5981 125.24 71.0598 127.136 71.0599L127.136 74.9858C125.984 74.9857 124.855 75.313 123.881 75.9295C122.907 76.546 122.127 77.4263 121.634 78.4682L118.086 76.7879C118.898 75.0742 120.179 73.6262 121.781 72.6122Z" fill="#666666"/>
<path d="M74.0592 69.9105H51.8339C50.7369 69.9105 49.8477 70.7998 49.8477 71.8969V71.8975C49.8477 72.9946 50.7369 73.8839 51.8339 73.8839H74.0592C75.1562 73.8839 76.0454 72.9946 76.0454 71.8975V71.8969C76.0454 70.7998 75.1562 69.9105 74.0592 69.9105Z" fill="white"/>
<path d="M63.6244 76.6125H51.8339C50.7369 76.6125 49.8477 77.5018 49.8477 78.5988V78.5995C49.8477 79.6965 50.7369 80.5858 51.8339 80.5858H63.6244C64.7213 80.5858 65.6106 79.6965 65.6106 78.5995V78.5988C65.6106 77.5018 64.7213 76.6125 63.6244 76.6125Z" fill="white"/>
<path d="M69.8017 83.6612H51.8339C50.7369 83.6612 49.8477 84.5505 49.8477 85.6475V85.6482C49.8477 86.7452 50.7369 87.6345 51.8339 87.6345H69.8017C70.8987 87.6345 71.7879 86.7452 71.7879 85.6482V85.6475C71.7879 84.5505 70.8987 83.6612 69.8017 83.6612Z" fill="white"/>
<path d="M75.0933 92.3393H52.0187C50.6989 92.3393 49.6289 93.4093 49.6289 94.7293V95.9381C49.6289 97.2581 50.6989 98.3281 52.0187 98.3281H75.0933C76.4131 98.3281 77.4831 97.2581 77.4831 95.9381V94.7293C77.4831 93.4093 76.4131 92.3393 75.0933 92.3393Z" fill="#B3B3B3"/>
<path d="M90.4961 104.815C90.4963 104.21 90.7364 103.631 91.1638 103.204C91.5911 102.776 92.1706 102.536 92.7748 102.536H104.166C104.77 102.536 105.349 102.776 105.777 103.204C106.204 103.631 106.444 104.21 106.444 104.815V127.456H90.4961V104.815Z" fill="#999999"/>
<path d="M108.723 109.941C108.723 109.337 108.963 108.757 109.39 108.33C109.818 107.903 110.397 107.663 111.001 107.662H122.392C122.997 107.663 123.576 107.903 124.003 108.33C124.43 108.758 124.67 109.337 124.67 109.941V127.456H108.723V109.941Z" fill="#999999"/>
<path d="M126.945 113.074C126.945 112.469 127.186 111.89 127.613 111.463C128.04 111.035 128.62 110.795 129.224 110.795H140.615C141.219 110.795 141.799 111.035 142.226 111.463C142.653 111.89 142.893 112.469 142.893 113.074V127.456H126.945V113.074Z" fill="#999999"/>
<path d="M145.176 120.479C145.176 120.179 145.235 119.883 145.349 119.607C145.464 119.33 145.632 119.079 145.843 118.867C146.055 118.656 146.306 118.488 146.583 118.374C146.859 118.259 147.155 118.2 147.455 118.2H158.846C159.145 118.2 159.441 118.259 159.717 118.374C159.994 118.488 160.245 118.656 160.457 118.867C160.668 119.079 160.836 119.33 160.95 119.607C161.065 119.883 161.124 120.179 161.124 120.479V127.454H145.176V120.479Z" fill="#999999"/>
<path d="M163.398 125.036C163.398 124.431 163.639 123.852 164.066 123.424C164.493 122.997 165.073 122.757 165.677 122.757H177.068C177.367 122.757 177.664 122.816 177.94 122.93C178.217 123.045 178.468 123.213 178.679 123.424C178.891 123.636 179.059 123.887 179.173 124.164C179.287 124.44 179.346 124.736 179.346 125.036V127.456H163.398V125.036Z" fill="#999999"/>
<path d="M181.629 127.314C181.629 127.015 181.688 126.718 181.802 126.442C181.917 126.165 182.085 125.914 182.296 125.703C182.508 125.491 182.759 125.323 183.036 125.209C183.312 125.094 183.608 125.036 183.908 125.036H195.299C195.598 125.036 195.894 125.094 196.171 125.209C196.447 125.323 196.698 125.491 196.91 125.703C197.121 125.914 197.289 126.166 197.403 126.442C197.518 126.718 197.577 127.015 197.577 127.314V127.456H181.629V127.314Z" fill="#999999"/>
<path d="M149.395 73.0508C149.395 72.8786 149.463 72.7134 149.585 72.5916C149.707 72.4698 149.872 72.4014 150.044 72.4014H154.595C154.767 72.4014 154.932 72.4698 155.054 72.5916C155.176 72.7134 155.244 72.8786 155.244 73.0508V89.7901H149.395V73.0508Z" fill="#B3B3B3"/>
<path d="M158.492 73.9448C158.492 73.7724 158.561 73.607 158.683 73.4851C158.805 73.3632 158.97 73.2947 159.142 73.2947H163.692C163.865 73.2947 164.03 73.3632 164.152 73.4851C164.274 73.607 164.342 73.7724 164.342 73.9448V89.8714H158.492V73.9448Z" fill="#B3B3B3"/>
<path d="M167.594 77.1956C167.594 77.0231 167.662 76.8577 167.784 76.7358C167.906 76.6139 168.071 76.5454 168.244 76.5454H172.794C172.966 76.5454 173.132 76.6139 173.254 76.7358C173.375 76.8577 173.444 77.0231 173.444 77.1956V89.8714H167.594V77.1956Z" fill="#B3B3B3"/>
<path d="M176.691 78.739C176.691 78.5666 176.76 78.4012 176.882 78.2793C177.004 78.1573 177.169 78.0889 177.342 78.0889H181.892C182.064 78.0889 182.229 78.1573 182.351 78.2793C182.473 78.4012 182.542 78.5666 182.542 78.739V89.7902H176.691V78.739Z" fill="#B3B3B3"/>
<path d="M185.793 79.7142C185.793 79.5418 185.861 79.3765 185.983 79.2545C186.105 79.1326 186.271 79.0641 186.443 79.0641H190.993C191.166 79.0641 191.331 79.1326 191.453 79.2545C191.575 79.3765 191.643 79.5418 191.643 79.7142V89.7902H185.793V79.7142Z" fill="#B3B3B3"/>
<path d="M194.895 80.5269C194.894 80.4415 194.911 80.357 194.944 80.2781C194.976 80.1992 195.024 80.1276 195.085 80.0672C195.145 80.0068 195.216 79.9589 195.295 79.9262C195.374 79.8935 195.459 79.8767 195.544 79.8767H200.095C200.18 79.8767 200.265 79.8935 200.343 79.9262C200.422 79.9589 200.494 80.0068 200.554 80.0672C200.614 80.1276 200.662 80.1992 200.695 80.2781C200.727 80.357 200.744 80.4415 200.744 80.5269V89.7901H194.895V80.5269Z" fill="#B3B3B3"/>
<path d="M84.3398 61.2811L92.6869 61.0658L101.034 61.1735H109.382L117.729 61.0658L126.076 61.1735L134.669 60.6669L143.016 61.2811H159.711L168.059 61.1735L176.406 61.0658L184.753 60.5443L193.101 60.7901L201.448 61.4037" stroke="#CCCCCC" stroke-width="0.928571" stroke-linecap="round" stroke-linejoin="round"/>
<path d="M84.3398 60.2991L92.6869 57.2909L101.034 54.2832L109.382 55.3885L117.729 55.2652L126.076 54.0381L134.669 56.6156L143.016 47.286L151.364 53.3012L159.711 51.3372L168.059 50.8463L176.406 52.6877L184.753 51.9508L193.101 48.3906L201.448 46.9792" stroke="#808080" stroke-width="0.928571" stroke-linecap="round" stroke-linejoin="round"/>
<path d="M84.3398 127.622H203.703" stroke="black" stroke-width="0.232143" stroke-linecap="round" stroke-linejoin="round"/>
<path d="M216.94 165.2L210.445 167.368L216.21 184.638L222.705 182.47L216.94 165.2Z" fill="#E5E5E5" stroke="black" stroke-width="0.232143" stroke-linecap="round" stroke-linejoin="round"/>
<path d="M199.687 109.531L198.651 146.518C198.618 148.752 198.962 150.974 199.666 153.094L211.541 180.012L222.197 175.99L212.005 149.25L214.626 109.529" fill="#CCCCCC"/>
<path d="M199.687 109.531L198.651 146.518C198.618 148.752 198.962 150.974 199.666 153.094L211.541 180.012L222.197 175.99L212.005 149.25L214.626 109.529" stroke="black" stroke-width="0.232143" stroke-miterlimit="10" stroke-linecap="round" stroke-linejoin="round"/>
<path d="M221.613 180.333C221.659 180.222 221.731 180.124 221.823 180.047C221.915 179.97 222.024 179.916 222.142 179.89C222.259 179.864 222.381 179.868 222.497 179.899C222.613 179.931 222.719 179.99 222.807 180.071C223.504 180.713 224.446 181.789 224.892 183.217C225.646 185.634 226.193 189.269 226.193 189.269L200.64 194.761L200.078 192.143C200.006 191.809 200.001 191.465 200.062 191.13C200.123 190.795 200.25 190.475 200.435 190.189C200.62 189.902 200.859 189.655 201.14 189.462C201.42 189.268 201.736 189.131 202.069 189.06L203.225 188.811C204.962 188.438 206.56 187.588 207.842 186.358L214.37 180.084L214.493 180.164C214.689 180.29 214.835 180.481 214.906 180.703C214.977 180.926 214.969 181.166 214.883 181.383C214.883 181.383 217.43 183.414 219.224 183.029C220.385 182.778 221.19 181.328 221.613 180.333Z" fill="#B3B3B3" stroke="black" stroke-width="0.232143" stroke-linecap="round" stroke-linejoin="round"/>
<path d="M225.861 187.697L200.309 193.189L200.646 194.758L226.198 189.266L225.861 187.697Z" fill="black" stroke="black" stroke-width="0.232143" stroke-miterlimit="10" stroke-linecap="round" stroke-linejoin="round"/>
<path d="M207.757 185.249L207.757 185.249C207.522 185.462 207.504 185.824 207.716 186.059L208.703 187.15C208.916 187.385 209.278 187.403 209.513 187.191L209.513 187.19C209.748 186.978 209.766 186.616 209.554 186.381L208.567 185.289C208.354 185.055 207.992 185.037 207.757 185.249Z" fill="white" stroke="black" stroke-width="0.232143" stroke-miterlimit="10" stroke-linecap="round" stroke-linejoin="round"/>
<path d="M209.132 184.015L209.132 184.015C208.897 184.228 208.879 184.59 209.091 184.825L210.078 185.916C210.291 186.151 210.653 186.169 210.888 185.957L210.888 185.956C211.123 185.744 211.141 185.382 210.929 185.147L209.942 184.055C209.729 183.821 209.367 183.803 209.132 184.015Z" fill="white" stroke="black" stroke-width="0.232143" stroke-miterlimit="10" stroke-linecap="round" stroke-linejoin="round"/>
<path d="M210.285 182.829L210.284 182.829C210.05 183.041 210.031 183.404 210.244 183.638L211.231 184.73C211.443 184.964 211.805 184.983 212.04 184.77L212.041 184.77C212.275 184.558 212.293 184.195 212.081 183.961L211.094 182.869C210.882 182.635 210.519 182.616 210.285 182.829Z" fill="white" stroke="black" stroke-width="0.232143" stroke-miterlimit="10" stroke-linecap="round" stroke-linejoin="round"/>
<path d="M211.437 181.643L211.437 181.643C211.202 181.856 211.184 182.218 211.396 182.453L212.383 183.544C212.595 183.779 212.958 183.797 213.192 183.585L213.193 183.584C213.428 183.372 213.446 183.01 213.233 182.775L212.246 181.684C212.034 181.449 211.672 181.431 211.437 181.643Z" fill="white" stroke="black" stroke-width="0.232143" stroke-miterlimit="10" stroke-linecap="round" stroke-linejoin="round"/>
<path d="M212.589 180.457L212.589 180.458C212.354 180.67 212.336 181.033 212.548 181.267L213.535 182.359C213.748 182.593 214.11 182.611 214.345 182.399L214.345 182.399C214.58 182.186 214.598 181.824 214.386 181.589L213.399 180.498C213.186 180.263 212.824 180.245 212.589 180.457Z" fill="white" stroke="black" stroke-width="0.232143" stroke-miterlimit="10" stroke-linecap="round" stroke-linejoin="round"/>
<path d="M216.046 169.985H209.199V188.191H216.046V169.985Z" fill="#E5E5E5" stroke="black" stroke-width="0.232143" stroke-linecap="round" stroke-linejoin="round"/>
<path d="M202.039 104.02L207 180.832L219.46 179.929L220.348 103.909L202.039 104.02Z" fill="#CCCCCC" stroke="black" stroke-width="0.232143" stroke-miterlimit="10" stroke-linecap="round" stroke-linejoin="round"/>
<path d="M168.313 76.1635L153.895 73.3502C153.895 73.3502 147.756 71.5799 147.461 72.1637C147.167 72.7475 152.282 74.6627 152.282 74.6627C152.282 74.6627 151.843 74.8083 151.988 75.2472C152.133 75.686 152.864 75.8343 152.864 75.8343C152.864 75.8343 152.425 75.9799 152.424 76.2725C152.423 76.5651 153.445 77.2985 153.445 77.2985C153.445 77.2985 152.903 77.6453 153.027 77.908C153.151 78.1708 155.489 79.0593 157.097 79.5002C158.704 79.9411 166.983 80.5946 166.983 80.5946L168.313 76.1635Z" fill="#E5E5E5" stroke="black" stroke-width="0.232143" stroke-linecap="round" stroke-linejoin="round"/>
<path d="M157.696 74.6762C157.696 74.6762 153.603 73.4958 153.602 74.0809C153.6 74.6661 156.668 76.2827 156.668 76.2827C156.96 76.7576 157.302 77.1998 157.688 77.6019C158.272 78.1884 159.295 78.3374 159.295 78.3374" fill="#E5E5E5"/>
<path d="M157.696 74.6762C157.696 74.6762 153.603 73.4958 153.602 74.0809C153.6 74.6661 156.668 76.2827 156.668 76.2827C156.96 76.7576 157.302 77.1998 157.688 77.6019C158.272 78.1884 159.295 78.3374 159.295 78.3374" stroke="black" stroke-width="0.232143" stroke-linecap="round" stroke-linejoin="round"/>
<path d="M217.979 64.8658L207.618 62.4954L206.313 63.5329C205.428 63.7219 203.985 63.7131 200.151 64.7967C198.262 65.331 196.264 66.1674 194.808 67.5056L185.498 74.8394L163.142 74.8333L161.664 81.1872C161.664 81.1872 177.212 84.8748 183.795 87.0527C184.648 87.335 185.549 87.4458 186.445 87.3789C187.341 87.3119 188.216 87.0685 189.018 86.6627L194.664 84.3689L194.201 110.036C194.174 110.467 194.237 110.899 194.386 111.304C194.534 111.709 194.766 112.079 195.065 112.39C195.364 112.702 195.725 112.947 196.124 113.111C196.523 113.276 196.952 113.355 197.384 113.345L220.166 112.845C220.972 112.826 221.739 112.497 222.307 111.925C222.876 111.353 223.2 110.583 223.213 109.777L223.264 70.9941C223.716 69.8726 222.017 65.973 217.979 64.8658Z" fill="#4C4C4C" stroke="black" stroke-width="0.232143" stroke-linecap="round" stroke-linejoin="round"/>
<path d="M211.203 78.1819L198.853 73.7644C198.089 73.491 197.247 73.8891 196.974 74.6537L190.502 92.7504C190.228 93.515 190.626 94.3565 191.391 94.6299L203.741 99.0474C204.506 99.3209 205.347 98.9228 205.621 98.1582L212.093 80.0615C212.366 79.2969 211.968 78.4554 211.203 78.1819Z" fill="white" stroke="black" stroke-width="0.232143" stroke-linecap="round" stroke-linejoin="round"/>
<path d="M201.285 88.6083C202.5 88.6083 203.485 87.6235 203.485 86.4087C203.485 85.1938 202.5 84.209 201.285 84.209C200.071 84.209 199.086 85.1938 199.086 86.4087C199.086 87.6235 200.071 88.6083 201.285 88.6083Z" fill="white" stroke="black" stroke-width="0.232143" stroke-linecap="round" stroke-linejoin="round"/>
<path d="M209.489 54.6564L210.742 63.0772C210.892 64.0793 210.641 65.1 210.044 65.919C209.448 66.738 208.554 67.2896 207.554 67.4549C207.045 67.5392 206.524 67.5207 206.023 67.4003C205.521 67.28 205.048 67.0603 204.633 66.7542C204.218 66.4481 203.868 66.0619 203.604 65.6183C203.341 65.1747 203.169 64.6828 203.099 64.1716L201.84 55.0289L209.489 54.6564Z" fill="#E5E5E5" stroke="black" stroke-width="0.232143" stroke-linecap="round" stroke-linejoin="round"/>
<path d="M209.996 58.0033C209.996 58.0033 211.088 57.54 211.065 56.1937C211.042 54.8473 210.986 54.0069 210.986 54.0069C210.986 54.0069 212.254 50.1466 210.633 46.5966C209.013 43.0465 205.814 43.5666 205.814 43.5666C205.814 43.5666 203.123 41.4143 198.577 43.6926C194.03 45.9708 192.265 47.2399 192.833 49.548C193.75 53.2667 198.319 52.8238 198.319 52.8238L206.145 47.8L207.461 52.8793C207.461 52.8793 208.38 51.619 209.373 52.4621C210.407 53.3426 209.412 55.8036 209.412 55.8036L209.996 58.0033Z" fill="black" stroke="black" stroke-width="0.232143" stroke-linecap="round" stroke-linejoin="round"/>
<path d="M207.461 52.8773L206.35 47.7723L197.016 50.253C197.016 50.253 198.058 55.7617 198.712 57.6925C199.365 59.6233 201.591 61.6645 204.312 60.5558C207.033 59.4472 208.245 58.069 209.156 56.3569C210.068 54.6449 209.945 52.7134 209.212 52.3443C208.119 51.7903 207.461 52.8773 207.461 52.8773Z" fill="#E5E5E5" stroke="black" stroke-width="0.232143" stroke-linecap="round" stroke-linejoin="round"/>
<path d="M204.192 52.1716L202.555 52.0809" stroke="black" stroke-width="0.232143" stroke-linecap="round" stroke-linejoin="round"/>
<path d="M199.562 52.7006L198.422 53.9507" stroke="black" stroke-width="0.232143" stroke-linecap="round" stroke-linejoin="round"/>
<path d="M201.178 53.6385C201.178 53.6385 200.897 55.2212 201.226 55.8003C201.556 56.3793 202.412 55.9059 202.412 55.9059" stroke="black" stroke-width="0.232143" stroke-linecap="round" stroke-linejoin="round"/>
<path d="M203.459 53.9704C203.749 53.9704 203.985 53.7351 203.985 53.4448C203.985 53.1546 203.749 52.9193 203.459 52.9193C203.169 52.9193 202.934 53.1546 202.934 53.4448C202.934 53.7351 203.169 53.9704 203.459 53.9704Z" fill="black"/>
<path d="M199.627 54.9889C199.917 54.9889 200.153 54.7536 200.153 54.4634C200.153 54.1732 199.917 53.9379 199.627 53.9379C199.337 53.9379 199.102 54.1732 199.102 54.4634C199.102 54.7536 199.337 54.9889 199.627 54.9889Z" fill="black"/>
<path d="M203.704 56.4044L201.266 57.7947C201.266 57.7947 201.954 58.7984 203.039 58.2641C204.123 57.7297 203.704 56.4044 203.704 56.4044Z" fill="white" stroke="black" stroke-width="0.232143" stroke-miterlimit="10" stroke-linecap="round" stroke-linejoin="round"/>
<path d="M209.244 88.3436L198.48 84.4292C197.772 84.1454 197.394 83.8271 197.116 83.3734C196.499 82.365 195.245 82.6792 194.885 82.7998C194.583 82.9 193.906 83.1607 193.722 83.3537L195.245 83.7696L193.36 83.2548C193.222 83.2182 193.074 83.2351 192.948 83.3021C192.821 83.3691 192.724 83.4814 192.676 83.6165C192.626 83.7561 192.633 83.9097 192.694 84.0446C192.755 84.1796 192.867 84.2855 193.005 84.3398L195.193 84.9818L193.182 84.4156C192.288 84.1386 191.992 85.1437 192.469 85.4931L194.764 86.1562L192.736 85.594C191.965 85.2554 191.265 86.4271 192.424 86.7853L194.538 87.3948L192.311 86.7399C191.954 86.6525 191.412 87.5187 192.147 87.858L208.481 93.3437L209.244 88.3436Z" fill="#E5E5E5" stroke="black" stroke-width="0.232143" stroke-linecap="round" stroke-linejoin="round"/>
<path d="M223.119 69.4486L229.746 89.4271C232.193 96.3126 226.866 101.257 221.749 99.2397L203.59 92.8208L205.231 86.4222L219.75 88.7662L216.551 80.1876" fill="#4C4C4C"/>
<path d="M223.119 69.4486L229.746 89.4271C232.193 96.3126 226.866 101.257 221.749 99.2397L203.59 92.8208L205.231 86.4222L219.75 88.7662L216.551 80.1876" stroke="black" stroke-width="0.232143" stroke-linecap="round" stroke-linejoin="round"/>
<path d="M215.965 185.3C216.034 185.202 216.125 185.121 216.231 185.065C216.337 185.009 216.456 184.979 216.576 184.979C216.696 184.978 216.814 185.007 216.921 185.062C217.028 185.117 217.119 185.197 217.188 185.296C217.735 186.07 218.43 187.319 218.565 188.809C218.795 191.331 218.565 194.999 218.565 194.999H192.43V192.321C192.43 191.632 192.703 190.972 193.19 190.486C193.676 189.999 194.336 189.726 195.025 189.726H196.207C197.983 189.726 199.725 189.231 201.236 188.297L208.937 183.535L209.04 183.639C209.205 183.803 209.307 184.02 209.33 184.252C209.353 184.484 209.295 184.717 209.166 184.911C209.166 184.911 211.229 187.433 213.063 187.433C214.251 187.433 215.344 186.182 215.965 185.3Z" fill="#B3B3B3" stroke="black" stroke-width="0.232143" stroke-linecap="round" stroke-linejoin="round"/>
<path d="M218.569 193.394H192.434V194.999H218.569V193.394Z" fill="black" stroke="black" stroke-width="0.232143" stroke-miterlimit="10" stroke-linecap="round" stroke-linejoin="round"/>
<path d="M201.383 187.198L201.383 187.198C201.109 187.356 201.015 187.707 201.173 187.981L201.909 189.255C202.067 189.529 202.418 189.623 202.692 189.465L202.692 189.464C202.966 189.306 203.06 188.956 202.902 188.682L202.166 187.407C202.008 187.133 201.657 187.039 201.383 187.198Z" fill="white" stroke="black" stroke-width="0.232143" stroke-miterlimit="10" stroke-linecap="round" stroke-linejoin="round"/>
<path d="M202.989 186.281L202.988 186.281C202.714 186.439 202.62 186.79 202.779 187.064L203.514 188.338C203.673 188.612 204.023 188.706 204.297 188.548L204.298 188.548C204.572 188.389 204.665 188.039 204.507 187.765L203.772 186.491C203.613 186.216 203.263 186.123 202.989 186.281Z" fill="white" stroke="black" stroke-width="0.232143" stroke-miterlimit="10" stroke-linecap="round" stroke-linejoin="round"/>
<path d="M204.364 185.364L204.363 185.364C204.089 185.522 203.995 185.873 204.154 186.147L204.889 187.421C205.048 187.695 205.398 187.789 205.672 187.631L205.673 187.631C205.947 187.472 206.04 187.122 205.882 186.848L205.147 185.573C204.988 185.299 204.638 185.205 204.364 185.364Z" fill="white" stroke="black" stroke-width="0.232143" stroke-miterlimit="10" stroke-linecap="round" stroke-linejoin="round"/>
<path d="M205.739 184.446L205.738 184.446C205.464 184.605 205.37 184.955 205.529 185.229L206.264 186.504C206.423 186.778 206.773 186.871 207.047 186.713L207.048 186.713C207.322 186.555 207.415 186.204 207.257 185.93L206.522 184.656C206.363 184.382 206.013 184.288 205.739 184.446Z" fill="white" stroke="black" stroke-width="0.232143" stroke-miterlimit="10" stroke-linecap="round" stroke-linejoin="round"/>
<path d="M207.114 183.529L207.113 183.529C206.839 183.688 206.745 184.038 206.904 184.312L207.639 185.587C207.798 185.861 208.148 185.954 208.422 185.796L208.423 185.796C208.697 185.638 208.79 185.287 208.632 185.013L207.897 183.739C207.738 183.465 207.388 183.371 207.114 183.529Z" fill="white" stroke="black" stroke-width="0.232143" stroke-miterlimit="10" stroke-linecap="round" stroke-linejoin="round"/>
<path d="M53.3033 52.0001H3.31046C2.25016 52.0001 1.39062 52.8597 1.39062 53.92V113.072C1.39062 114.132 2.25016 114.992 3.31046 114.992H53.3033C54.3636 114.992 55.2231 114.132 55.2231 113.072V53.92C55.2231 52.8597 54.3636 52.0001 53.3033 52.0001Z" fill="white" stroke="black" stroke-width="0.232143" stroke-linecap="round" stroke-linejoin="round"/>
<path d="M3.30775 52.0001H53.304C53.8131 52.0001 54.3015 52.2023 54.6615 52.5624C55.0215 52.9225 55.2238 53.4108 55.2238 53.92V58.4155H1.39063V53.92C1.39062 53.4113 1.59252 52.9233 1.95197 52.5634C2.31143 52.2034 2.79905 52.0008 3.30775 52.0001Z" fill="#B3B3B3" stroke="black" stroke-width="0.232143" stroke-miterlimit="10" stroke-linecap="round" stroke-linejoin="round"/>
<path d="M17.2403 90.7421H14.0497C13.5368 90.7421 13.1211 91.1579 13.1211 91.6707V105.561H18.1689V91.6707C18.1689 91.1579 17.7531 90.7421 17.2403 90.7421Z" fill="#E5E5E5" stroke="black" stroke-width="0.232143" stroke-miterlimit="10" stroke-linecap="round" stroke-linejoin="round"/>
<path d="M25.3301 81.9489H22.1395C21.6267 81.9489 21.2109 82.3646 21.2109 82.8774V105.561H26.2587V82.8774C26.2587 82.3646 25.843 81.9489 25.3301 81.9489Z" fill="#E5E5E5" stroke="black" stroke-width="0.232143" stroke-miterlimit="10" stroke-linecap="round" stroke-linejoin="round"/>
<path d="M33.9044 77.1723H30.7137C30.2009 77.1723 29.7852 77.588 29.7852 78.1009V105.561H34.8329V78.1009C34.8329 77.588 34.4172 77.1723 33.9044 77.1723Z" fill="#B3B3B3" stroke="black" stroke-width="0.232143" stroke-miterlimit="10" stroke-linecap="round" stroke-linejoin="round"/>
<path d="M42.4786 71.9609H39.2879C38.7751 71.9609 38.3594 72.3767 38.3594 72.8895V105.56H43.4071V72.8895C43.4071 72.3767 42.9914 71.9609 42.4786 71.9609Z" fill="#666666" stroke="black" stroke-width="0.232143" stroke-linecap="round" stroke-linejoin="round"/>
<path d="M11.6562 81.9489C11.6562 81.9489 20.1211 80.9175 28.3192 75.272C36.5172 69.6265 41.6706 62.0821 41.6706 62.0821L35.429 64.3623" stroke="black" stroke-width="0.232143" stroke-linecap="round" stroke-linejoin="round"/>
<path d="M42.106 68.6499L41.6719 62.0821" stroke="black" stroke-width="0.232143" stroke-linecap="round" stroke-linejoin="round"/>
<path d="M7.40625 105.56H47.2081" stroke="black" stroke-width="0.232143" stroke-linecap="round" stroke-linejoin="round"/>
<path d="M4.91514 56.4163C5.58236 56.4163 6.12324 55.8754 6.12324 55.2081C6.12324 54.5409 5.58236 53.9999 4.91514 53.9999C4.24792 53.9999 3.70703 54.5409 3.70703 55.2081C3.70703 55.8754 4.24792 56.4163 4.91514 56.4163Z" fill="white" stroke="black" stroke-width="0.232143" stroke-linecap="round" stroke-linejoin="round"/>
<path d="M9.00889 56.4163C9.67611 56.4163 10.217 55.8754 10.217 55.2081C10.217 54.5409 9.67611 53.9999 9.00889 53.9999C8.34167 53.9999 7.80078 54.5409 7.80078 55.2081C7.80078 55.8754 8.34167 56.4163 9.00889 56.4163Z" fill="white" stroke="black" stroke-width="0.232143" stroke-linecap="round" stroke-linejoin="round"/>
<path d="M13.1026 56.4163C13.7699 56.4163 14.3107 55.8754 14.3107 55.2081C14.3107 54.5409 13.7699 53.9999 13.1026 53.9999C12.4354 53.9999 11.8945 54.5409 11.8945 55.2081C11.8945 55.8754 12.4354 56.4163 13.1026 56.4163Z" fill="white" stroke="black" stroke-width="0.232143" stroke-linecap="round" stroke-linejoin="round"/>
<path d="M61.2683 117.272C63.2157 117.272 64.7944 115.694 64.7944 113.746C64.7944 111.799 63.2157 110.22 61.2683 110.22C59.3209 110.22 57.7422 111.799 57.7422 113.746C57.7422 115.694 59.3209 117.272 61.2683 117.272Z" fill="#333333" stroke="black" stroke-width="0.232143" stroke-linecap="round" stroke-linejoin="round"/>
<path d="M79.6152 140.476L90.7773 147.63L98.8914 133.509C98.8914 133.509 98.3496 131.011 99.3255 127.82C100.301 124.63 100.766 124.219 101.119 124.346C101.471 124.472 101.352 128.467 101.352 128.467C101.352 128.467 102.74 127.059 103.496 126.023C104.253 124.988 106.408 122.022 106.882 122.276C107.289 122.495 106.634 123.607 105.848 125.188C105.36 126.172 104.88 126.992 104.88 126.992C104.88 126.992 108.504 123.125 109.104 122.971C109.704 122.818 109.809 123.556 109.809 123.556C109.809 123.556 110.567 123.735 110.458 124.445C110.35 125.155 107.112 129.318 107.112 129.318C107.112 129.318 110.702 126.398 111.108 126.948C111.514 127.497 103.211 135.354 103.211 135.354L94.6183 155.038C94.3503 155.652 93.8645 156.145 93.2547 156.423C92.6448 156.7 91.9539 156.742 91.315 156.54L74.6758 151.287L79.6152 140.476Z" fill="#CCCCCC" stroke="black" stroke-width="0.232143" stroke-linecap="round" stroke-linejoin="round"/>
<path d="M101.848 133.226C101.848 133.226 102.489 132.057 102.265 131.126C102.04 130.195 101.297 129.262 101.297 129.262" stroke="black" stroke-width="0.232143" stroke-linecap="round" stroke-linejoin="round"/>
<path d="M106.995 130.268C106.995 130.268 106.668 129.117 105.806 128.248C104.944 127.379 104.086 127.029 104.086 127.029" stroke="black" stroke-width="0.232143" stroke-linecap="round" stroke-linejoin="round"/>
<path d="M109.812 123.557L105.809 128.247" stroke="black" stroke-width="0.232143" stroke-linecap="round" stroke-linejoin="round"/>
<path d="M84.9406 199.771L83.6797 229.554L88.7295 230.226L95.6707 201.056L84.9406 199.771Z" fill="#CCCCCC" stroke="black" stroke-width="0.232143" stroke-miterlimit="10" stroke-linecap="round" stroke-linejoin="round"/>
<path d="M68.2196 137.158C68.2196 137.158 78.3551 129.994 72.4859 118.918C69.5645 113.401 64.7436 113.13 60.5518 115.789C56.6119 118.29 57.883 126.549 50.7007 128.236C43.5185 129.924 31.3541 130.272 28.9203 145.565C26.4865 160.857 40.3127 168.44 47.6866 167.817C55.0605 167.195 66.098 139.463 66.098 139.463L68.2196 137.158Z" fill="#333333" stroke="black" stroke-width="0.232143" stroke-linecap="round" stroke-linejoin="round"/>
<path d="M82.4492 204.145L92.9037 232.06L97.8153 230.71L91.2242 202.013L82.4492 204.145Z" fill="#CCCCCC" stroke="black" stroke-width="0.232143" stroke-miterlimit="10" stroke-linecap="round" stroke-linejoin="round"/>
<path d="M55.4004 167.392C55.4004 167.392 51.0184 174.082 49.1026 180.682C47.4773 186.262 52.9524 193.469 58.764 193.469H74.378C74.6101 193.468 74.8364 193.541 75.0253 193.676C75.2141 193.811 75.356 194.001 75.431 194.221L80.9745 210.56C81.0096 210.662 81.0647 210.757 81.1366 210.837C81.2085 210.918 81.2958 210.983 81.3933 211.03C81.4909 211.077 81.5967 211.103 81.7047 211.108C81.8127 211.113 81.9206 211.097 82.0221 211.06L93.3102 207.825L92.7684 204.814L95.7189 205.137L99.0758 185.814C99.6514 181.299 98.0708 178.229 94.0077 177.281L77.1017 173.105C75.3626 172.45 74.5757 171.632 74.7816 170.17L75.173 167.394L55.4004 167.392Z" fill="#1A1A1A" stroke="black" stroke-width="0.232143" stroke-miterlimit="10" stroke-linecap="round" stroke-linejoin="round"/>
<path d="M63.3242 171.469L83.9311 175.495C85.2271 175.854 86.3939 176.574 87.295 177.573C88.196 178.571 88.794 179.805 89.0188 181.131L92.9018 205.676" stroke="black" stroke-width="0.232143" stroke-linecap="round" stroke-linejoin="round"/>
<path d="M80.3833 156.461L87.4728 144.165C87.676 143.809 87.5785 143.381 87.2521 143.222L69.2178 134.417C69.1907 134.405 69.1704 134.379 69.1413 134.372C66.117 133.661 64.8466 133.715 63.4089 135.681C61.9699 137.65 62.1954 140.267 63.9073 141.546C63.9265 141.56 63.9446 141.576 63.9615 141.593L79.3242 156.695C79.6235 156.988 80.1456 156.873 80.3833 156.461Z" fill="#808080" stroke="black" stroke-width="0.232143" stroke-miterlimit="10" stroke-linecap="round" stroke-linejoin="round"/>
<path d="M67.9426 134.193L63.3242 133.009L58.2987 133.813C56.2378 134.309 54.4366 135.557 53.2486 137.312C52.0607 139.068 51.5719 141.204 51.8783 143.301L55.3997 167.392H75.1675L75.8366 158.092C76.3411 149.931 73.8152 136.698 67.9426 134.193Z" fill="#808080" stroke="black" stroke-width="0.232143" stroke-miterlimit="10" stroke-linecap="round" stroke-linejoin="round"/>
<path d="M62.441 126.09L61.2119 133.113C61.1279 133.593 61.1463 134.085 61.2661 134.557C61.3859 135.029 61.6043 135.47 61.9068 135.852C62.2094 136.233 62.5894 136.546 63.0217 136.771C63.454 136.995 63.9289 137.125 64.415 137.152C65.2654 137.2 66.1034 136.932 66.7679 136.399C67.4323 135.866 67.876 135.106 68.0136 134.266L69.2698 126.6L62.441 126.09Z" fill="#CCCCCC" stroke="black" stroke-width="0.232143" stroke-miterlimit="10" stroke-linecap="round" stroke-linejoin="round"/>
<path d="M62.2007 123.678L61.4023 118.692L70.6758 117.637C70.6758 117.637 71.6773 122.961 71.7694 124.929C71.8615 126.896 70.5776 129.518 67.7388 129.478C64.9 129.438 63.3222 128.626 61.9001 127.403C60.478 126.181 59.9078 124.402 60.4367 123.814C61.2229 122.931 62.2007 123.678 62.2007 123.678Z" fill="#CCCCCC" stroke="black" stroke-width="0.232143" stroke-miterlimit="10" stroke-linecap="round" stroke-linejoin="round"/>
<path d="M64.5234 119.801L66.0959 119.604" stroke="black" stroke-width="0.232143" stroke-linecap="round" stroke-linejoin="round"/>
<path d="M68.8633 119.153L70.4892 119.325" stroke="black" stroke-width="0.232143" stroke-linecap="round" stroke-linejoin="round"/>
<path d="M68.0967 121.643C68.0967 121.643 68.9093 122.968 68.8145 123.607C68.7197 124.246 67.7852 124.12 67.7852 124.12" stroke="black" stroke-width="0.232143" stroke-linecap="round" stroke-linejoin="round"/>
<path d="M66.5782 122.603C66.8587 122.603 67.0861 122.376 67.0861 122.095C67.0861 121.815 66.8587 121.587 66.5782 121.587C66.2977 121.587 66.0703 121.815 66.0703 122.095C66.0703 122.376 66.2977 122.603 66.5782 122.603Z" fill="black"/>
<path d="M70.6134 122.194C70.8939 122.194 71.1213 121.967 71.1213 121.687C71.1213 121.406 70.8939 121.179 70.6134 121.179C70.3329 121.179 70.1055 121.406 70.1055 121.687C70.1055 121.967 70.3329 122.194 70.6134 122.194Z" fill="black"/>
<path d="M66.7188 124.847L69.4004 125.239C69.4004 125.239 69.135 126.385 67.9702 126.287C66.8054 126.188 66.7188 124.847 66.7188 124.847Z" fill="white" stroke="black" stroke-width="0.232143" stroke-miterlimit="10" stroke-linecap="round" stroke-linejoin="round"/>
<path d="M70.572 123.5C71.5977 123.5 72.4291 122.669 72.4291 121.643C72.4291 120.617 71.5977 119.786 70.572 119.786C69.5463 119.786 68.7148 120.617 68.7148 121.643C68.7148 122.669 69.5463 123.5 70.572 123.5Z" stroke="black" stroke-width="0.348214" stroke-linecap="round" stroke-linejoin="round"/>
<path d="M65.5741 124.188C66.6613 124.188 67.5426 123.306 67.5426 122.219C67.5426 121.131 66.6613 120.25 65.5741 120.25C64.4868 120.25 63.6055 121.131 63.6055 122.219C63.6055 123.306 64.4868 124.188 65.5741 124.188Z" stroke="black" stroke-width="0.348214" stroke-linecap="round" stroke-linejoin="round"/>
<path d="M91.7734 239.482L91.8161 230.18L95.0822 230.23L95.9571 228.514C96.0562 228.32 96.194 228.148 96.3619 228.009C96.5299 227.87 96.7245 227.767 96.9338 227.706C97.1431 227.645 97.3627 227.627 97.579 227.654C97.7954 227.681 98.0039 227.752 98.1918 227.863L99.5577 229.391C99.5577 229.391 104.2 230.822 109.638 232.79C113.362 234.137 115.438 235.387 115.438 235.387L116.69 236.105C116.815 236.17 116.921 236.267 116.999 236.385C117.076 236.503 117.122 236.639 117.133 236.779C117.143 236.92 117.118 237.061 117.059 237.189C117 237.318 116.909 237.429 116.795 237.512C116.722 237.564 116.64 237.603 116.554 237.628C116.08 237.774 114.029 238.373 112.212 238.403C109.544 238.449 106.05 238.885 102.35 238.547C99.7331 238.308 98.2535 237.926 97.3799 237.805L97.2864 239.199L91.7734 239.482Z" fill="black" stroke="black" stroke-width="0.232143" stroke-linecap="round" stroke-linejoin="round"/>
<path d="M109.934 238.567C109.934 238.567 110.115 236.685 110.794 235.355C111.472 234.025 112.094 233.745 112.094 233.745C112.094 233.745 117.296 235.69 117.146 236.86C116.976 238.191 113.798 238.264 112.486 238.372C111.174 238.481 109.934 238.567 109.934 238.567Z" fill="white" stroke="black" stroke-width="0.232143" stroke-linecap="round" stroke-linejoin="round"/>
<path d="M99.8164 231.388C99.8164 231.388 100.324 230.507 100.949 229.991C101.573 229.474 102.669 229.432 102.669 229.432" stroke="white" stroke-width="0.232143" stroke-linecap="round" stroke-linejoin="round"/>
<path d="M101.922 232.499C101.922 232.499 102.429 231.619 103.053 231.102C103.678 230.585 104.774 230.543 104.774 230.543" stroke="white" stroke-width="0.232143" stroke-linecap="round" stroke-linejoin="round"/>
<path d="M104.008 233.555C104.008 233.555 104.516 232.675 105.139 232.158C105.763 231.641 106.861 231.599 106.861 231.599" stroke="white" stroke-width="0.232143" stroke-linecap="round" stroke-linejoin="round"/>
<path d="M79.5828 168.22L69.8008 177.325C69.8008 177.325 75.5427 181.109 78.0029 183.753C80.4631 186.397 82.9369 192.236 82.9369 192.236L93.8837 184.515C93.8837 184.515 91.4329 178.038 88.5508 174.677C85.6687 171.315 79.5828 168.22 79.5828 168.22Z" fill="white" stroke="black" stroke-width="0.232143" stroke-miterlimit="10" stroke-linecap="round" stroke-linejoin="round"/>
<path d="M82.182 171.476L75.0898 177.706" stroke="black" stroke-width="0.232143" stroke-miterlimit="10" stroke-linecap="round" stroke-linejoin="round"/>
<path d="M84.4281 173.026L77.4219 179.547" stroke="black" stroke-width="0.232143" stroke-miterlimit="10" stroke-linecap="round" stroke-linejoin="round"/>
<path d="M86.456 175.208L79.3672 181.374" stroke="black" stroke-width="0.232143" stroke-miterlimit="10" stroke-linecap="round" stroke-linejoin="round"/>
<path d="M88.1316 177.536L81.1836 183.324" stroke="black" stroke-width="0.232143" stroke-miterlimit="10" stroke-linecap="round" stroke-linejoin="round"/>
<path d="M89.8818 180.41L82.8438 186.035" stroke="black" stroke-width="0.232143" stroke-miterlimit="10" stroke-linecap="round" stroke-linejoin="round"/>
<path d="M91.432 183.405L84.3086 188.739" stroke="black" stroke-width="0.232143" stroke-miterlimit="10" stroke-linecap="round" stroke-linejoin="round"/>
<path d="M79.168 235.819L83.267 227.469L86.183 228.94L87.7188 227.778C87.8929 227.647 88.092 227.552 88.304 227.5C88.5159 227.449 88.7361 227.441 88.9512 227.477C89.1663 227.514 89.3716 227.594 89.5546 227.713C89.7375 227.832 89.8943 227.987 90.0152 228.168L90.5773 230.14C90.5773 230.14 94.1291 233.454 98.1618 237.599C100.923 240.436 102.247 242.467 102.247 242.467L103.059 243.66C103.143 243.774 103.197 243.907 103.215 244.047C103.233 244.187 103.215 244.329 103.163 244.46C103.111 244.591 103.026 244.707 102.917 244.796C102.808 244.886 102.678 244.946 102.539 244.971C102.451 244.986 102.36 244.986 102.272 244.971C101.779 244.895 99.676 244.536 98.0277 243.772C95.6061 242.649 92.2716 241.515 89.0888 239.597C86.8385 238.242 85.6737 237.249 84.941 236.76L84.2469 237.973L79.168 235.819Z" fill="black" stroke="black" stroke-width="0.232143" stroke-linecap="round" stroke-linejoin="round"/>
<path d="M95.9023 242.925C95.9023 242.925 96.8877 241.311 98.0782 240.411C99.2687 239.511 99.9513 239.531 99.9513 239.531C99.9513 239.531 103.783 243.553 103.134 244.542C102.4 245.666 99.5091 244.343 98.2813 243.869C97.0536 243.394 95.9023 242.925 95.9023 242.925Z" fill="white" stroke="black" stroke-width="0.232143" stroke-linecap="round" stroke-linejoin="round"/>
<path d="M89.9375 232.049C89.9375 232.049 90.7772 231.481 91.5628 231.286C92.3483 231.091 93.3546 231.535 93.3546 231.535" stroke="white" stroke-width="0.232143" stroke-linecap="round" stroke-linejoin="round"/>
<path d="M91.3438 233.967C91.3438 233.967 92.1835 233.399 92.969 233.204C93.7545 233.009 94.7608 233.453 94.7608 233.453" stroke="white" stroke-width="0.232143" stroke-linecap="round" stroke-linejoin="round"/>
<path d="M92.7578 235.828C92.7578 235.828 93.5975 235.26 94.3831 235.065C95.1686 234.87 96.1749 235.314 96.1749 235.314" stroke="white" stroke-width="0.232143" stroke-linecap="round" stroke-linejoin="round"/>
<path d="M55.5526 157.192L53.8407 164.564L71.9548 169.609L76.962 169.51L80.1786 170.973C80.1786 170.973 81.2574 173.87 80.7129 174.138C80.1685 174.406 79.5739 173.54 79.5739 173.54C79.5739 173.54 79.0619 175.057 78.6258 174.823C78.1897 174.589 78.141 174.396 78.141 174.396C78.141 174.396 77.6324 175.369 77.3114 175.3C76.9904 175.231 76.7371 174.915 76.7371 174.915C76.7371 174.915 76.0769 176.03 75.6469 175.722C75.2169 175.414 75.5114 174.559 75.5114 174.559L71.5743 173.906L48.6324 170.541C47.876 170.43 47.152 170.158 46.5091 169.744C45.8663 169.33 45.3194 168.783 44.9052 168.141C44.4911 167.498 44.2192 166.774 44.1079 166.018C43.9966 165.261 44.0484 164.49 44.2598 163.755L46.6936 155.299L55.5526 157.192Z" fill="#CCCCCC" stroke="black" stroke-width="0.232143" stroke-miterlimit="10" stroke-linecap="round" stroke-linejoin="round"/>
<path d="M77.2656 169.653C77.2656 169.653 79.7035 171.186 79.8437 171.906C79.9839 172.626 79.4083 173.975 79.4083 173.975" stroke="black" stroke-width="0.232143" stroke-miterlimit="10" stroke-linecap="round" stroke-linejoin="round"/>
<path d="M76.7227 171.116C76.7227 171.116 78.7454 171.865 78.7319 172.601C78.7183 173.338 77.9592 174.689 77.9592 174.689" stroke="black" stroke-width="0.232143" stroke-miterlimit="10" stroke-linecap="round" stroke-linejoin="round"/>
<path d="M75.7617 172.998C75.7617 172.998 77.0531 173.429 77.1161 174.009C77.1743 174.543 76.078 175.687 76.078 175.687" stroke="black" stroke-width="0.232143" stroke-miterlimit="10" stroke-linecap="round" stroke-linejoin="round"/>
<path d="M43.2535 157.404L56.3795 159.698C56.5573 159.728 56.7396 159.688 56.8891 159.587C57.0386 159.486 57.1438 159.332 57.1833 159.156L61.4252 140.646C61.4293 140.627 61.4333 140.608 61.436 140.588C61.7746 138.338 61.3006 135.662 59.0259 134.728C56.7458 133.79 53.9998 134.896 52.2886 137.944L42.7605 156.39C42.7092 156.487 42.6816 156.595 42.6798 156.705C42.678 156.815 42.7021 156.923 42.7501 157.022C42.7981 157.121 42.8687 157.207 42.9562 157.273C43.0436 157.339 43.1455 157.384 43.2535 157.404Z" fill="#808080" stroke="black" stroke-width="0.232143" stroke-miterlimit="10" stroke-linecap="round" stroke-linejoin="round"/>
<circle cx="60.7206" cy="125.487" r="1.4276" fill="#CCCCCC" stroke="black" stroke-width="0.232143" stroke-linecap="round" stroke-linejoin="round"/>
<path d="M256.193 13.5107C256.193 12.9535 255.961 12.4428 255.589 12.0714C255.311 11.7928 254.986 11.6071 254.614 11.5143C254.614 11.5143 254.614 11.5143 254.568 11.5143C254.428 11.4678 254.289 11.4678 254.15 11.4678H204.146C204.007 11.4678 203.868 11.4678 203.728 11.5143H203.682C203.589 11.5607 203.45 11.5607 203.357 11.6071C203.125 11.7 202.893 11.8393 202.707 12.025C202.521 12.2107 202.382 12.4428 202.243 12.675C202.15 12.9071 202.103 13.1857 202.103 13.4643V17.9678V27.1143H44.5249C42.482 27.1143 40.8106 28.7857 40.8106 30.8285V51.7678H3.29632C3.15703 51.7678 3.01775 51.7678 2.87846 51.8143H2.83203C2.73917 51.8607 2.59989 51.8607 2.50703 51.9071C2.27489 52 2.04275 52.1393 1.85703 52.325C1.67132 52.5107 1.53203 52.6964 1.43917 52.9286C1.43917 52.9286 1.43917 52.975 1.39275 52.975C1.34632 53.0678 1.34632 53.1607 1.29989 53.3C1.29989 53.3464 1.29989 53.3464 1.25346 53.3928C1.20703 53.5321 1.20703 53.6714 1.20703 53.8107V58.3143V112.961C1.20703 114.075 2.1356 115.004 3.24989 115.004H40.7642V130.464C35.3785 132.368 30.2249 136.175 28.7392 145.554C27.4856 153.4 30.5499 158.646 33.3356 161.618C36.6785 165.239 40.9499 167.143 44.4785 167.746C44.5713 167.886 44.6177 168.025 44.7106 168.164C45.1285 168.814 45.6856 169.371 46.3356 169.789C46.9856 170.207 47.7285 170.486 48.5177 170.625L52.882 171.275C52.3713 172.25 51.8142 173.318 51.257 174.479H15.6927H15.6463C15.6463 174.479 15.6463 174.479 15.5999 174.525V201.268C15.5999 201.314 15.5999 201.361 15.6463 201.361L51.5356 226.432H51.582H83.7106L83.6642 227.454L83.3392 227.268C83.2927 227.268 83.2927 227.268 83.2463 227.268C83.1999 227.268 83.1999 227.314 83.1999 227.314L79.1142 235.671C79.1142 235.718 79.1142 235.718 79.1142 235.764C79.1142 235.811 79.1606 235.811 79.1606 235.811L84.2213 237.946C84.2677 237.946 84.3606 237.946 84.3606 237.9L85.0106 236.786C85.1963 236.925 85.4285 237.064 85.6606 237.25C86.4035 237.807 87.4713 238.596 89.0499 239.525C91.2785 240.871 93.5535 241.8 95.5963 242.682C95.6892 242.729 95.7356 242.729 95.8285 242.775C95.8285 242.775 95.8285 242.775 95.8285 242.821C95.8285 242.868 95.8749 242.868 95.8749 242.914C95.8749 242.914 96.8499 243.332 97.9642 243.75C97.9642 243.75 97.9642 243.75 98.0106 243.75C98.382 243.936 98.7535 244.075 99.1713 244.214C100.1 244.586 101.214 245.004 102.096 245.004C102.143 245.004 102.236 245.004 102.282 245.004C102.328 245.004 102.375 245.004 102.421 245.004C102.468 245.004 102.514 245.004 102.561 245.004C102.7 244.957 102.886 244.911 102.978 244.818C103.071 244.771 103.118 244.679 103.164 244.586L103.211 244.539C103.211 244.493 103.211 244.493 103.257 244.446C103.257 244.446 103.257 244.446 103.257 244.4C103.257 244.354 103.303 244.307 103.303 244.261C103.303 244.168 103.35 244.029 103.303 243.936C103.303 243.796 103.211 243.611 103.118 243.518V243.471C102.468 241.986 100.332 239.664 100.007 239.339C99.682 238.968 99.3106 238.55 98.8927 238.086C99.7285 238.225 100.843 238.411 102.328 238.55C104.928 238.782 107.389 238.643 109.571 238.504C109.664 238.504 109.757 238.504 109.85 238.504C109.85 238.504 109.85 238.504 109.85 238.55C109.85 238.55 109.896 238.596 109.943 238.596C109.943 238.596 110.918 238.55 112.078 238.457C112.125 238.457 112.171 238.457 112.218 238.457C112.682 238.457 113.1 238.411 113.564 238.364C114.586 238.271 115.839 238.132 116.582 237.668C116.675 237.621 116.768 237.621 116.861 237.529C117 237.436 117.093 237.296 117.139 237.157C117.186 237.064 117.186 236.971 117.232 236.879C117.232 236.832 117.232 236.832 117.278 236.786C117.278 236.693 117.278 236.6 117.232 236.461C117.186 236.368 117.186 236.275 117.139 236.229C117.046 236.089 116.953 235.996 116.814 235.904C115.607 234.836 112.589 233.675 112.171 233.536C112.171 233.536 112.171 233.536 112.125 233.536C111.428 233.211 110.593 232.886 109.711 232.561C108.736 232.236 107.807 231.864 106.925 231.586C106.971 231.586 107.018 231.539 107.018 231.493C107.018 231.446 106.971 231.4 106.878 231.4C106.878 231.4 106.693 231.4 106.461 231.446C105.671 231.168 104.882 230.889 104.186 230.657C104.557 230.564 104.836 230.564 104.836 230.564C104.882 230.564 104.928 230.518 104.928 230.425C104.928 230.379 104.882 230.332 104.789 230.332C104.743 230.332 104.278 230.379 103.768 230.518C102.886 230.239 102.05 229.961 101.446 229.729C102.003 229.45 102.7 229.404 102.7 229.404C102.746 229.404 102.793 229.357 102.793 229.264C102.793 229.218 102.746 229.171 102.653 229.171C102.607 229.171 101.725 229.218 101.075 229.589C100.239 229.311 99.7285 229.171 99.5892 229.125L98.2427 227.639C98.2427 227.639 98.2427 227.639 98.1963 227.639C98.0106 227.5 97.7785 227.454 97.5463 227.407C97.407 227.407 97.2677 227.407 97.1749 227.407L96.9427 226.386H248.996C249.043 226.386 249.089 226.339 249.089 226.293V199.55V199.504L224.853 182.65C224.343 181.443 223.553 180.468 222.903 179.911C222.811 179.818 222.671 179.771 222.532 179.725C222.393 179.679 222.253 179.679 222.114 179.725C222.068 179.725 222.021 179.771 221.928 179.771L220.861 176.568L222.207 176.057C222.253 176.057 222.253 176.011 222.253 176.011C222.253 175.964 222.253 175.964 222.253 175.918L219.653 169.093L220.303 112.914C221.093 112.868 221.789 112.543 222.346 111.986C222.95 111.382 223.275 110.593 223.275 109.757V99.7285C223.507 99.775 223.786 99.775 224.018 99.775C225.596 99.775 227.128 99.1714 228.289 98.0571C230.425 96.0143 230.982 92.7643 229.775 89.375L223.136 69.4107C223.043 69.225 222.996 68.9928 222.857 68.8071C222.486 68.0643 221.093 65.65 217.936 64.7678H217.843V57.7571H254.057C255.171 57.7571 256.1 56.8285 256.1 55.7143V18.0143V13.5107H256.193ZM75.307 167.421L75.6785 162.175H109.664V174.525H88.5856C85.707 171.229 79.7177 168.164 79.6713 168.118C79.6249 168.118 79.5785 168.118 79.532 168.118L77.8142 169.743L77.0713 169.418H77.0249L75.0749 169.464L75.307 167.421ZM149.082 162.175H203.543L206.05 167.839L206.468 174.525H149.082V162.175ZM54.507 162.221L54.8785 164.775L53.9499 164.543L54.507 162.221ZM91.8356 230.054C91.7892 230.054 91.7892 230.054 91.7427 230.1C91.7427 230.1 91.6963 230.146 91.6963 230.193V231.075C91.1392 230.564 90.7677 230.193 90.6749 230.1L90.1177 228.15C90.1177 228.15 90.1177 228.15 90.1177 228.104C89.9785 227.918 89.8392 227.732 89.607 227.593C89.5606 227.546 89.5142 227.546 89.4677 227.546L89.6999 226.525H90.6749L92.0213 230.054H91.8356Z" fill="url(#paint0_linear_2628_272419)" style="mix-blend-mode:overlay"/>
</g>
<defs>
<linearGradient id="paint0_linear_2628_272419" x1="256.193" y1="127.872" x2="1.20703" y2="127.872" gradientUnits="userSpaceOnUse">
<stop stop-color="#E60050"/>
<stop offset="1" stop-color="#5D6AE8"/>
</linearGradient>
<clipPath id="clip0_2628_272419">
<rect width="260" height="260" fill="white"/>
</clipPath>
</defs>
</svg>
