<svg width="260" height="260" viewBox="0 0 260 260" fill="none" xmlns="http://www.w3.org/2000/svg">
<g clip-path="url(#clip0_2340_153015)">
<path d="M214.006 4.17871H108.09C106.642 4.17871 105.469 5.35208 105.469 6.79951V76.7503C105.469 78.1977 106.642 79.3711 108.09 79.3711H214.006C215.453 79.3711 216.627 78.1977 216.627 76.7503V6.79951C216.627 5.35208 215.453 4.17871 214.006 4.17871Z" fill="#E5E5E5" stroke="black" stroke-width="0.5" stroke-linecap="round" stroke-linejoin="round"/>
<path d="M108.089 4.17871H214.005C214.7 4.17871 215.367 4.45483 215.858 4.94632C216.35 5.43782 216.626 6.10443 216.626 6.79951V9.94261H105.469V6.79951C105.469 6.10459 105.745 5.43812 106.236 4.94665C106.727 4.45518 107.394 4.17896 108.089 4.17871Z" fill="#CCCCCC" stroke="black" stroke-width="0.5" stroke-miterlimit="10" stroke-linecap="round" stroke-linejoin="round"/>
<path d="M108.635 8.14471C109.235 8.14471 109.72 7.65881 109.72 7.05942C109.72 6.46002 109.235 5.97412 108.635 5.97412C108.036 5.97412 107.55 6.46002 107.55 7.05942C107.55 7.65881 108.036 8.14471 108.635 8.14471Z" fill="white" stroke="black" stroke-width="0.5" stroke-linecap="round" stroke-linejoin="round"/>
<path d="M112.311 8.14471C112.91 8.14471 113.396 7.65881 113.396 7.05942C113.396 6.46002 112.91 5.97412 112.311 5.97412C111.711 5.97412 111.226 6.46002 111.226 7.05942C111.226 7.65881 111.711 8.14471 112.311 8.14471Z" fill="white" stroke="black" stroke-width="0.5" stroke-linecap="round" stroke-linejoin="round"/>
<path d="M115.986 8.14471C116.585 8.14471 117.071 7.65881 117.071 7.05942C117.071 6.46002 116.585 5.97412 115.986 5.97412C115.386 5.97412 114.9 6.46002 114.9 7.05942C114.9 7.65881 115.386 8.14471 115.986 8.14471Z" fill="white" stroke="black" stroke-width="0.5" stroke-linecap="round" stroke-linejoin="round"/>
<path d="M211.796 13.6572H110.3C109.432 13.6572 108.728 14.3612 108.728 15.2297V37.4653C108.728 38.3338 109.432 39.0378 110.3 39.0378H211.796C212.665 39.0378 213.369 38.3338 213.369 37.4653V15.2297C213.369 14.3612 212.665 13.6572 211.796 13.6572Z" fill="white"/>
<path d="M140.298 42.4062H110.3C109.432 42.4062 108.728 43.1103 108.728 43.9787V73.9769C108.728 74.8454 109.432 75.5494 110.3 75.5494H140.298C141.167 75.5494 141.871 74.8454 141.871 73.9769V43.9787C141.871 43.1103 141.167 42.4062 140.298 42.4062Z" fill="white"/>
<path d="M211.651 42.4062H147.153C146.284 42.4062 145.58 43.1103 145.58 43.9787V73.9769C145.58 74.8454 146.284 75.5494 147.153 75.5494H211.651C212.519 75.5494 213.223 74.8454 213.223 73.9769V43.9787C213.223 43.1103 212.519 42.4062 211.651 42.4062Z" fill="white"/>
<path d="M125.296 71.392C118.449 71.392 112.878 65.8213 112.878 58.974C112.878 52.1266 118.455 46.5605 125.296 46.5605C132.137 46.5605 137.713 52.1312 137.713 58.9777C137.713 65.8241 132.146 71.392 125.296 71.392ZM125.296 51.2872C123.775 51.287 122.289 51.7378 121.025 52.5824C119.76 53.4271 118.775 54.6277 118.193 56.0325C117.611 57.4373 117.458 58.9831 117.755 60.4745C118.052 61.9658 118.784 63.3357 119.859 64.4109C120.934 65.4861 122.304 66.2183 123.795 66.5149C125.287 66.8115 126.833 66.6592 128.237 66.0772C129.642 65.4952 130.843 64.5097 131.687 63.2454C132.532 61.981 132.983 60.4945 132.983 58.974C132.979 56.9367 132.168 54.9839 130.727 53.5437C129.286 52.1035 127.333 51.2934 125.296 51.2909V51.2872Z" fill="#B3B3B3"/>
<path d="M125.296 71.392C118.449 71.392 112.878 65.8213 112.878 58.974C112.876 57.1499 113.277 55.3478 114.052 53.6966C114.827 52.0453 115.957 50.5856 117.361 49.4217L120.385 53.0594C118.992 54.2138 118.051 55.8225 117.727 57.6025C117.403 59.3825 117.718 61.2196 118.615 62.7907C119.512 64.3618 120.934 65.5661 122.632 66.1919C124.33 66.8176 126.193 66.8245 127.896 66.2115C129.598 65.5985 131.029 64.4048 131.938 62.8405C132.847 61.2762 133.175 59.4414 132.864 57.6591C132.554 55.8767 131.625 54.261 130.24 53.0962C128.856 51.9314 127.105 51.2921 125.296 51.2909V46.5605C132.143 46.5605 137.713 52.1312 137.713 58.9777C137.713 65.8241 132.146 71.392 125.296 71.392Z" fill="#E5E5E5"/>
<path d="M125.296 71.392C118.449 71.392 112.878 65.8213 112.878 58.974C112.87 56.2723 113.751 53.6431 115.385 51.4915L119.159 54.3444C118.148 55.6756 117.603 57.3025 117.608 58.974C117.607 60.4946 118.058 61.9814 118.902 63.2463C119.746 64.5111 120.946 65.4972 122.351 66.0797C123.756 66.6623 125.301 66.8152 126.793 66.5191C128.285 66.223 129.655 65.4912 130.73 64.4162C131.806 63.3413 132.539 61.9715 132.836 60.4801C133.133 58.9887 132.981 57.4427 132.399 56.0377C131.817 54.6327 130.832 53.4318 129.568 52.5869C128.303 51.7419 126.817 51.2909 125.296 51.2909V46.5605C132.143 46.5605 137.713 52.1312 137.713 58.9777C137.713 65.8241 132.146 71.392 125.296 71.392Z" fill="#4C4C4C"/>
<path d="M125.296 71.392C118.449 71.392 112.878 65.8213 112.878 58.974C112.878 58.0408 112.982 57.1105 113.189 56.2006L117.808 57.2564C117.451 58.8107 117.585 60.4378 118.194 61.9122C118.802 63.3866 119.854 64.6353 121.203 65.4853C122.553 66.3353 124.134 66.7445 125.726 66.6563C127.319 66.5682 128.844 65.9869 130.092 64.9931C131.339 63.9992 132.247 62.642 132.689 61.1095C133.131 59.577 133.085 57.945 132.558 56.4396C132.031 54.9341 131.049 53.6298 129.748 52.7074C128.447 51.7849 126.891 51.2899 125.296 51.2909V46.5605C132.143 46.5605 137.713 52.1312 137.713 58.9777C137.713 65.8241 132.146 71.392 125.296 71.392Z" fill="#808080"/>
<path d="M125.297 71.392C123.054 71.3933 120.852 70.7867 118.927 69.6366C117.001 68.4866 115.423 66.8361 114.36 64.8608L118.52 62.6154C119.163 63.813 120.113 64.8187 121.271 65.53C122.429 66.2413 123.756 66.6326 125.115 66.6642C126.474 66.6958 127.817 66.3664 129.007 65.7097C130.197 65.053 131.192 64.0924 131.89 62.9259C132.588 61.7594 132.964 60.4287 132.981 59.0694C132.997 57.7101 132.652 56.3709 131.982 55.1882C131.311 54.0056 130.34 53.0217 129.165 52.3371C127.991 51.6525 126.656 51.2915 125.297 51.2909V46.5605C132.144 46.5605 137.714 52.1312 137.714 58.9777C137.714 65.8241 132.147 71.392 125.297 71.392Z" fill="#B3B3B3"/>
<path d="M126.847 71.2996L126.262 66.6062C128.203 66.3621 129.978 65.3872 131.225 63.8801C132.472 62.373 133.098 60.447 132.975 58.4946C132.852 56.5422 131.989 54.7102 130.562 53.3718C129.136 52.0334 127.252 51.2892 125.296 51.2909V46.5605C132.143 46.5605 137.713 52.1312 137.713 58.9777C137.716 65.2297 133.044 70.5277 126.847 71.2996Z" fill="#4C4C4C"/>
<path d="M149.062 48.7858C149.062 48.3236 149.406 47.9492 149.83 47.9492H155.202C155.625 47.9492 155.969 48.3236 155.969 48.7858V70.3337H149.062V48.7858Z" fill="#808080"/>
<path d="M159.806 49.937C159.806 49.4748 160.15 49.105 160.573 49.105H165.945C166.368 49.105 166.712 49.4748 166.712 49.937V70.4384H159.806V49.937Z" fill="#808080"/>
<path d="M170.549 54.1211C170.549 53.6588 170.893 53.2891 171.316 53.2891H176.687C177.111 53.2891 177.455 53.6588 177.455 54.1211V70.4384H170.549V54.1211Z" fill="#808080"/>
<path d="M181.292 56.1085C181.292 55.6463 181.635 55.271 182.059 55.271H187.43C187.855 55.271 188.198 55.6463 188.198 56.1085V70.3339H181.292V56.1085Z" fill="#808080"/>
<path d="M192.034 57.3628C192.034 56.9005 192.377 56.5308 192.801 56.5308H198.173C198.597 56.5308 198.94 56.9061 198.94 57.3628V70.3336H192.034V57.3628Z" fill="#808080"/>
<path d="M202.777 58.4091C202.777 57.9469 203.12 57.5771 203.545 57.5771H208.916C209.34 57.5771 209.683 57.9469 209.683 58.4091V70.3345H202.777V58.4091Z" fill="#808080"/>
<path fill-rule="evenodd" clip-rule="evenodd" d="M195.859 30.73C195.867 30.7295 195.874 30.7294 195.882 30.7296L202.961 30.9487C202.965 30.9488 202.968 30.949 202.972 30.9493L210.051 31.4965C210.179 31.5064 210.274 31.6181 210.265 31.7459C210.255 31.8737 210.143 31.9693 210.015 31.9594L202.941 31.4126L195.878 31.194L188.81 31.6555C188.806 31.6558 188.802 31.6559 188.798 31.656L174.639 31.8409L174.636 31.8409H160.477C160.471 31.8409 160.466 31.8407 160.46 31.8402L153.396 31.2942L146.125 31.7452C146.119 31.7456 146.113 31.7457 146.108 31.7456L139.031 31.6532L131.955 31.7456L131.952 31.7457H124.872L117.798 31.6533L110.723 31.8445C110.595 31.848 110.488 31.7469 110.484 31.6187C110.481 31.4906 110.582 31.3838 110.71 31.3804L117.79 31.189C117.793 31.1889 117.796 31.1889 117.799 31.189L124.877 31.2814H131.952L139.034 31.1889L146.105 31.2813L153.384 30.8298C153.394 30.8291 153.405 30.8292 153.416 30.83L160.486 31.3766H174.636L188.786 31.1918L195.859 30.73Z" fill="#808080"/>
<path fill-rule="evenodd" clip-rule="evenodd" d="M210.263 18.8097C210.285 18.9359 210.201 19.0565 210.075 19.0789L203.024 20.333L195.97 23.4967C195.947 23.5072 195.922 23.5137 195.897 23.516L188.817 24.1724C188.793 24.1747 188.768 24.173 188.744 24.1674L181.697 22.5332L174.673 22.968L167.614 24.7194C167.546 24.7363 167.474 24.7215 167.418 24.6791L160.513 19.4498L153.576 27.6027C153.515 27.6738 153.418 27.7018 153.329 27.6737L146.093 25.39L139.067 26.4771C139.056 26.4788 139.046 26.4797 139.035 26.4799L131.956 26.5889C131.944 26.5891 131.932 26.5884 131.92 26.5868L124.902 25.6131L110.799 30.9539C110.679 30.9993 110.545 30.9389 110.499 30.819C110.454 30.6991 110.514 30.5651 110.634 30.5197L124.793 25.158C124.829 25.1442 124.869 25.1398 124.907 25.1451L131.966 26.1244L139.012 26.0159L146.075 24.9229C146.111 24.9174 146.147 24.9202 146.181 24.9309L153.322 27.1846L160.302 18.9819C160.381 18.8881 160.52 18.8729 160.619 18.9472L167.61 24.2421L174.581 22.5123C174.595 22.5089 174.609 22.5068 174.623 22.5059L181.702 22.0677C181.725 22.0664 181.747 22.0682 181.769 22.0733L188.812 23.7066L195.816 23.0573L202.86 19.8976C202.877 19.8898 202.895 19.8842 202.914 19.8809L209.993 18.6218C210.12 18.5993 210.24 18.6835 210.263 18.8097Z" fill="#4C4C4C"/>
<path d="M148.188 121.42C148.188 121.42 128.024 103.072 145.554 91.4647C145.811 91.1539 146.199 90.6122 146.482 90.304C149.5 85.4289 160.102 87.1818 164.932 91.7144C173.417 99.6766 169.539 107.25 179.915 109.942C190.959 112.807 205.984 116.598 207.332 140.507C208.68 164.417 186.224 173.914 174.977 171.801C163.729 169.687 151.096 125.301 151.096 125.301L148.188 121.42Z" fill="#B3B3B3" stroke="black" stroke-width="0.5" stroke-linecap="round" stroke-linejoin="round"/>
<path d="M151.117 104.728C150.666 101.762 148.354 99.6569 145.954 100.026C143.553 100.395 141.973 103.099 142.424 106.064C142.875 109.03 145.186 111.135 147.587 110.766C149.988 110.397 151.568 107.694 151.117 104.728Z" fill="#4C4C4C" stroke="black" stroke-width="0.5" stroke-linecap="round" stroke-linejoin="round"/>
<path d="M79.1658 209.359H158.304V177.951H79.1658V209.359Z" fill="#1A1A1A" stroke="black" stroke-width="0.5" stroke-miterlimit="10" stroke-linecap="round" stroke-linejoin="round"/>
<path d="M183.592 254.957C183.891 254.957 184.187 254.892 184.458 254.765C184.73 254.638 184.97 254.453 185.162 254.224C185.355 253.994 185.494 253.725 185.571 253.435C185.649 253.146 185.661 252.843 185.609 252.548L179.629 219.039H170.631L181.639 253.531C181.771 253.945 182.032 254.306 182.383 254.563C182.734 254.819 183.157 254.957 183.592 254.957Z" fill="black" stroke="black" stroke-width="0.5" stroke-miterlimit="10" stroke-linecap="round" stroke-linejoin="round"/>
<path d="M151.297 254.957C151.596 254.957 151.892 254.892 152.164 254.765C152.435 254.638 152.676 254.454 152.868 254.224C153.06 253.994 153.2 253.725 153.277 253.436C153.354 253.146 153.367 252.843 153.314 252.548L147.335 219.039H138.337L149.344 253.531C149.477 253.945 149.737 254.306 150.088 254.563C150.439 254.819 150.862 254.957 151.297 254.957Z" fill="black" stroke="black" stroke-width="0.5" stroke-miterlimit="10" stroke-linecap="round" stroke-linejoin="round"/>
<path d="M123.007 254.957C122.707 254.957 122.412 254.892 122.14 254.765C121.869 254.638 121.628 254.453 121.436 254.224C121.244 253.994 121.104 253.725 121.027 253.435C120.95 253.146 120.937 252.843 120.99 252.548L126.969 219.039H135.968L124.959 253.531C124.827 253.945 124.567 254.306 124.216 254.563C123.865 254.819 123.442 254.957 123.007 254.957Z" fill="black" stroke="black" stroke-width="0.5" stroke-miterlimit="10" stroke-linecap="round" stroke-linejoin="round"/>
<path d="M47.4495 254.957C47.1499 254.957 46.8539 254.892 46.5825 254.765C46.311 254.638 46.0706 254.454 45.8783 254.224C45.6859 253.994 45.5463 253.725 45.4693 253.436C45.3922 253.146 45.3796 252.843 45.4324 252.548L51.4117 219.039H60.4093L49.3991 253.531C49.267 253.945 49.0071 254.305 48.6567 254.562C48.3063 254.818 47.8836 254.957 47.4495 254.957Z" fill="black" stroke="black" stroke-width="0.5" stroke-miterlimit="10" stroke-linecap="round" stroke-linejoin="round"/>
<path d="M128.081 143.684H189.202C189.935 143.684 190.659 143.852 191.316 144.176C191.974 144.501 192.548 144.972 192.994 145.554C193.441 146.135 193.747 146.812 193.89 147.531C194.034 148.25 194.009 148.993 193.82 149.701L179.768 202.175C179.496 203.192 178.896 204.09 178.061 204.731C177.226 205.371 176.203 205.719 175.15 205.718H114.031C113.297 205.719 112.574 205.551 111.915 205.227C111.257 204.903 110.683 204.432 110.236 203.85C109.789 203.269 109.482 202.592 109.338 201.873C109.195 201.153 109.219 200.411 109.409 199.702L123.46 147.228C123.732 146.211 124.333 145.312 125.169 144.671C126.004 144.03 127.028 143.683 128.081 143.684Z" fill="#1A1A1A" stroke="black" stroke-width="0.5" stroke-miterlimit="10" stroke-linecap="round" stroke-linejoin="round"/>
<path d="M186.308 199.859L196.746 152.545C197.611 148.622 195.133 144.742 191.211 143.876C187.289 143.011 183.408 145.489 182.543 149.412L172.106 196.726C171.24 200.648 173.718 204.529 177.64 205.394C181.562 206.26 185.443 203.781 186.308 199.859Z" fill="#666666" stroke="black" stroke-width="0.5" stroke-miterlimit="10" stroke-linecap="round" stroke-linejoin="round"/>
<path d="M104.447 126.443L122.816 143.684L135.968 130.359L147.523 141.232C147.523 141.232 123.71 161.755 122.817 159.911C121.924 158.068 95.7969 125.287 95.7969 125.287L103.405 117.919L104.447 126.443Z" fill="#E5E5E5" stroke="black" stroke-width="0.5" stroke-miterlimit="10" stroke-linecap="round" stroke-linejoin="round"/>
<path d="M127.737 219.982H180.368C184.385 219.982 187.641 216.727 187.641 212.71C187.641 208.694 184.385 205.438 180.368 205.438H127.737C123.72 205.438 120.464 208.694 120.464 212.71C120.464 216.727 123.72 219.982 127.737 219.982Z" fill="#333333" stroke="black" stroke-width="0.5" stroke-miterlimit="10" stroke-linecap="round" stroke-linejoin="round"/>
<path d="M52.6516 219.982H147.478C151.484 219.982 154.73 216.735 154.73 212.73V212.69C154.73 208.685 151.484 205.438 147.478 205.438H52.6516C48.6463 205.438 45.3994 208.685 45.3994 212.69V212.73C45.3994 216.735 48.6463 219.982 52.6516 219.982Z" fill="#666666" stroke="black" stroke-width="0.5" stroke-miterlimit="10" stroke-linecap="round" stroke-linejoin="round"/>
<path d="M86.1845 157.818H41.7364C41.2032 157.818 40.6772 157.941 40.199 158.177C39.7208 158.413 39.3032 158.755 38.9786 159.178C38.6539 159.601 38.4309 160.093 38.3268 160.616C38.2226 161.139 38.2401 161.679 38.3779 162.194L48.5958 200.352C48.7941 201.091 49.2307 201.744 49.8379 202.21C50.4451 202.676 51.189 202.928 51.9543 202.928H96.4024C96.9356 202.928 97.4616 202.806 97.9397 202.57C98.4179 202.334 98.8355 201.992 99.16 201.569C99.4846 201.146 99.7075 200.654 99.8116 200.131C99.9156 199.608 99.8979 199.068 99.76 198.553L89.5421 160.393C89.3438 159.654 88.9072 159.001 88.3002 158.536C87.6931 158.07 86.9495 157.818 86.1845 157.818Z" fill="#666666" stroke="black" stroke-width="0.5" stroke-miterlimit="10" stroke-linecap="round" stroke-linejoin="round"/>
<path d="M86.8701 160.324H42.4219C41.8888 160.324 41.3627 160.446 40.8845 160.682C40.4063 160.918 39.9888 161.261 39.6641 161.684C39.3395 162.106 39.1165 162.598 39.0123 163.121C38.9081 163.644 38.9256 164.184 39.0634 164.699L49.2813 202.86C49.4794 203.599 49.9159 204.253 50.5231 204.719C51.1304 205.184 51.8744 205.437 52.6398 205.437H97.088C97.6211 205.437 98.1471 205.314 98.6253 205.078C99.1035 204.842 99.521 204.5 99.8456 204.077C100.17 203.654 100.393 203.162 100.497 202.639C100.601 202.116 100.583 201.576 100.446 201.061L90.2277 162.901C90.0298 162.162 89.5935 161.508 88.9864 161.042C88.3793 160.576 87.6354 160.324 86.8701 160.324Z" fill="#666666" stroke="black" stroke-width="0.5" stroke-miterlimit="10" stroke-linecap="round" stroke-linejoin="round"/>
<path d="M126.507 135.632L140.118 146.355C140.118 146.355 157.128 126.949 152.713 119.257C148.298 111.565 126.507 135.632 126.507 135.632Z" fill="white" stroke="black" stroke-width="0.5" stroke-miterlimit="10" stroke-linecap="round" stroke-linejoin="round"/>
<path d="M150.117 117.608L156.916 116.776L172.657 122.005C174.99 122.799 176.758 128.299 175.051 134.375L160.294 165.904L147 161.696L133.688 156.704C134.859 147.448 141.288 120.099 150.117 117.608Z" fill="white" stroke="black" stroke-width="0.5" stroke-miterlimit="10" stroke-linecap="round" stroke-linejoin="round"/>
<path d="M160.259 108.687L163.095 118.53C163.289 119.203 163.338 119.909 163.24 120.601C163.142 121.294 162.897 121.958 162.524 122.55C162.15 123.141 161.656 123.647 161.072 124.034C160.489 124.421 159.831 124.68 159.14 124.794C157.933 124.993 156.694 124.739 155.663 124.08C154.632 123.421 153.881 122.404 153.555 121.224L150.581 110.467L160.259 108.687Z" fill="#E5E5E5" stroke="black" stroke-width="0.5" stroke-miterlimit="10" stroke-linecap="round" stroke-linejoin="round"/>
<path d="M161.106 102.376L160.41 96.572C160.41 96.572 152.088 99.0427 146.733 92.7407C143.674 94.071 144.415 98.2948 144.415 98.2948C144.415 98.2948 145.438 106.615 146.226 109.552C147.013 112.489 150.136 115.754 154.301 114.359C158.465 112.964 160.402 111.031 161.931 108.562C163.46 106.092 164.485 102.998 163.428 102.376C161.854 101.452 161.106 102.376 161.106 102.376Z" fill="#E5E5E5" stroke="black" stroke-width="0.5" stroke-miterlimit="10" stroke-linecap="round" stroke-linejoin="round"/>
<path d="M154.5 98.5957L152.091 99.0413" stroke="black" stroke-width="0.5" stroke-linecap="round" stroke-linejoin="round"/>
<path d="M147.805 99.6768L145.489 100.692" stroke="black" stroke-width="0.5" stroke-linecap="round" stroke-linejoin="round"/>
<path d="M150.138 102.688C150.138 102.688 149.567 105.021 150.003 105.916C150.438 106.811 151.759 106.187 151.759 106.187" stroke="black" stroke-width="0.5" stroke-linecap="round" stroke-linejoin="round"/>
<path d="M152.549 103.724C152.983 103.724 153.334 103.373 153.334 102.94C153.334 102.506 152.983 102.155 152.549 102.155C152.116 102.155 151.765 102.506 151.765 102.94C151.765 103.373 152.116 103.724 152.549 103.724Z" fill="black"/>
<path d="M146.736 104.873C147.169 104.873 147.521 104.522 147.521 104.088C147.521 103.655 147.169 103.303 146.736 103.303C146.303 103.303 145.951 103.655 145.951 104.088C145.951 104.522 146.303 104.873 146.736 104.873Z" fill="black"/>
<path d="M153.634 107.057L149.867 108.894C149.867 108.894 150.792 110.457 152.466 109.765C154.14 109.074 153.634 107.057 153.634 107.057Z" fill="white" stroke="black" stroke-width="0.5" stroke-miterlimit="10" stroke-linecap="round" stroke-linejoin="round"/>
<path fill-rule="evenodd" clip-rule="evenodd" d="M146.368 101.37C144.802 101.37 143.533 102.639 143.533 104.205C143.533 105.771 144.802 107.041 146.368 107.041C147.934 107.041 149.204 105.771 149.204 104.205C149.204 102.639 147.934 101.37 146.368 101.37ZM143.115 104.205C143.115 102.409 144.572 100.952 146.368 100.952C148.165 100.952 149.621 102.409 149.621 104.205C149.621 106.002 148.165 107.458 146.368 107.458C144.572 107.458 143.115 106.002 143.115 104.205Z" fill="black"/>
<path fill-rule="evenodd" clip-rule="evenodd" d="M153.633 100.212C152.067 100.212 150.798 101.481 150.798 103.047C150.798 104.613 152.067 105.882 153.633 105.882C155.199 105.882 156.468 104.613 156.468 103.047C156.468 101.481 155.199 100.212 153.633 100.212ZM150.38 103.047C150.38 101.25 151.836 99.7939 153.633 99.7939C155.43 99.7939 156.886 101.25 156.886 103.047C156.886 104.844 155.43 106.3 153.633 106.3C151.836 106.3 150.38 104.844 150.38 103.047Z" fill="black"/>
<path d="M91.8683 164.083C91.8683 164.083 78.0016 194.343 77.9831 196.453C77.9767 197.449 78.3363 198.764 78.7227 199.874C78.8228 200.168 78.8629 200.479 78.8404 200.789C78.818 201.098 78.7335 201.401 78.592 201.677C78.4505 201.954 78.2548 202.199 78.0167 202.398C77.7786 202.598 77.5028 202.747 77.2057 202.838L60.011 208.12C59.4998 208.277 58.9482 208.237 58.4648 208.008C57.9814 207.779 57.6011 207.378 57.3986 206.883C57.2205 206.449 57.1898 205.968 57.3114 205.515C57.433 205.062 57.7001 204.661 58.0716 204.375L70.8289 194.516L77.7289 159.801L91.8683 164.083Z" fill="#E5E5E5" stroke="black" stroke-width="0.5" stroke-linecap="round" stroke-linejoin="round"/>
<path d="M81.5572 202.679C81.6023 202.85 81.6132 203.028 81.5893 203.203C81.5654 203.378 81.5072 203.546 81.4179 203.699C81.3287 203.851 81.2102 203.985 81.0693 204.091C80.9283 204.198 80.7677 204.275 80.5967 204.32C77.6607 205.079 70.5869 206.894 68.0243 207.41C64.8932 208.04 59.0775 209.068 55.3733 209.166C47.9778 209.371 50.9304 207.771 57.4995 203.085C64.5521 198.057 68.9173 195.932 68.9173 195.932L71.4928 204.475L80.6522 202.143C80.8431 202.096 81.0451 202.125 81.2145 202.226C81.3838 202.326 81.507 202.488 81.5572 202.679Z" fill="#B3B3B3" stroke="black" stroke-width="0.5" stroke-linecap="round" stroke-linejoin="round"/>
<path d="M54.3916 207.358C54.3916 207.358 57.5347 207.599 62.9298 206.492C68.7408 205.301 71.7462 204.409 71.7462 204.409" stroke="black" stroke-width="0.5" stroke-linecap="round" stroke-linejoin="round"/>
<path d="M68.0787 198.683C68.0787 198.683 67.9743 199.718 68.5483 201.641C69.1224 203.564 69.6983 204.962 69.6983 204.962" stroke="black" stroke-width="0.5" stroke-linecap="round" stroke-linejoin="round"/>
<path d="M65.8274 199.57C65.8274 199.57 65.7119 200.562 66.2638 202.394C66.8157 204.225 67.3731 205.56 67.3731 205.56" stroke="black" stroke-width="0.5" stroke-linecap="round" stroke-linejoin="round"/>
<path d="M63.4281 200.629C63.4281 200.629 63.2858 201.516 63.7813 203.131C64.0709 204.078 64.4104 205.008 64.7982 205.919" stroke="black" stroke-width="0.5" stroke-linecap="round" stroke-linejoin="round"/>
<path d="M60.9624 201.655C60.9624 201.655 60.8024 202.477 61.2637 203.959C61.5326 204.829 61.8508 205.683 62.2168 206.517" stroke="black" stroke-width="0.5" stroke-linecap="round" stroke-linejoin="round"/>
<path d="M58.4355 203.095C58.4355 203.095 58.2331 203.752 58.6075 204.897C58.8253 205.571 59.0926 206.227 59.4071 206.861" stroke="black" stroke-width="0.5" stroke-linecap="round" stroke-linejoin="round"/>
<path d="M55.8125 204.519L56.5419 207.345" stroke="black" stroke-width="0.5" stroke-linecap="round" stroke-linejoin="round"/>
<path d="M95.8547 142.722L114.954 177.951L138.5 183.005C138.5 183.005 138.47 206.149 118.902 205.894C93.2644 205.559 89.4437 168.09 89.4437 168.09L85.8689 179.43L72.0596 175.115L80.1272 144.608C82.099 137.146 92.1773 135.94 95.8547 142.722Z" fill="#333333" stroke="black" stroke-width="0.5" stroke-linecap="round" stroke-linejoin="round"/>
<path d="M102.961 164.083C102.961 164.083 87.7136 196.808 87.4667 198.906C87.3503 199.895 87.5592 201.242 87.8217 202.387C87.889 202.69 87.8947 203.004 87.8383 203.31C87.782 203.615 87.6648 203.906 87.4937 204.165C87.3226 204.425 87.1011 204.647 86.8424 204.819C86.5836 204.991 86.293 205.109 85.9876 205.167L68.3123 208.524C67.7873 208.624 67.2442 208.523 66.7895 208.243C66.3347 207.962 66.0012 207.522 65.8542 207.008C65.7251 206.557 65.7476 206.076 65.9183 205.639C66.089 205.202 66.3984 204.833 66.799 204.589L80.5648 196.192L90.7587 153.562L102.961 164.083Z" fill="#E5E5E5" stroke="black" stroke-width="0.5" stroke-linecap="round" stroke-linejoin="round"/>
<path d="M88.965 204.512C89.0109 204.683 89.0227 204.861 88.9998 205.036C88.9768 205.211 88.9195 205.38 88.8311 205.533C88.7428 205.686 88.6251 205.82 88.4848 205.927C88.3445 206.034 88.1844 206.113 88.0137 206.159C85.0814 206.935 78.0186 208.79 75.4561 209.321C72.3287 209.968 66.5186 211.03 62.8152 211.153C55.4197 211.4 58.365 209.784 64.91 205.06C71.9358 199.992 76.2871 197.841 76.2871 197.841L78.9079 206.366L88.0535 203.982C88.2445 203.933 88.4475 203.96 88.6182 204.06C88.7889 204.159 88.9135 204.321 88.965 204.512Z" fill="#CCCCCC" stroke="black" stroke-width="0.5" stroke-linecap="round" stroke-linejoin="round"/>
<path d="M61.8291 209.341C61.8291 209.341 64.9722 209.565 70.3617 208.427C76.1663 207.203 79.167 206.293 79.167 206.293" stroke="black" stroke-width="0.5" stroke-linecap="round" stroke-linejoin="round"/>
<path d="M75.4624 200.588C75.4624 200.588 75.3635 201.624 75.9486 203.541C76.5338 205.459 77.118 206.857 77.118 206.857" stroke="black" stroke-width="0.5" stroke-linecap="round" stroke-linejoin="round"/>
<path d="M73.2177 201.488C73.2177 201.488 73.1077 202.481 73.6697 204.31C74.2318 206.138 74.7976 207.469 74.7976 207.469" stroke="black" stroke-width="0.5" stroke-linecap="round" stroke-linejoin="round"/>
<path d="M70.8237 202.562C70.8237 202.562 70.6859 203.449 71.1935 205.058C71.4869 206.002 71.8301 206.931 72.2214 207.839" stroke="black" stroke-width="0.5" stroke-linecap="round" stroke-linejoin="round"/>
<path d="M68.3634 203.601C68.3634 203.601 68.2081 204.424 68.6787 205.904C68.9522 206.772 69.2751 207.624 69.6456 208.456" stroke="black" stroke-width="0.5" stroke-linecap="round" stroke-linejoin="round"/>
<path d="M65.8454 205.056C65.8454 205.056 65.6467 205.714 66.0303 206.856C66.2526 207.529 66.5236 208.184 66.841 208.816" stroke="black" stroke-width="0.5" stroke-linecap="round" stroke-linejoin="round"/>
<path d="M63.2305 206.494L63.9756 209.316" stroke="black" stroke-width="0.5" stroke-linecap="round" stroke-linejoin="round"/>
<path d="M107.311 143.192L125.278 169.038L133.389 156.751L162.971 167.737C162.971 167.737 156.978 205.932 124.565 205.894C104.991 205.872 100.563 172.836 100.563 172.836L97.2266 180.786L82.6592 175.115L90.7268 144.608C92.6996 137.146 102.751 135.796 107.311 143.192Z" fill="#333333" stroke="black" stroke-width="0.5" stroke-linecap="round" stroke-linejoin="round"/>
<path d="M126.5 163.852L152.903 171.428L153.711 168.615L127.307 161.039L126.5 163.852Z" fill="#B3B3B3" stroke="black" stroke-width="0.5" stroke-linecap="round" stroke-linejoin="round"/>
<path d="M96.0625 132.848L127.01 141.73L133.661 165.893L102.714 157.01L96.0625 132.848Z" fill="#CCCCCC" stroke="black" stroke-width="0.5" stroke-linecap="round" stroke-linejoin="round"/>
<path d="M131.93 165.395L133.66 165.892L127.01 141.729L125.278 141.233L131.93 165.395Z" fill="#B3B3B3" stroke="black" stroke-width="0.5" stroke-linecap="round" stroke-linejoin="round"/>
<path d="M150.527 167.737H188.364C188.743 167.737 189.117 167.822 189.458 167.987C189.799 168.151 190.099 168.391 190.335 168.687C190.571 168.984 190.737 169.33 190.821 169.699C190.904 170.069 190.903 170.452 190.818 170.822L183.309 203.351C183.181 203.906 182.869 204.401 182.423 204.756C181.977 205.111 181.424 205.304 180.855 205.303H143.018C142.639 205.304 142.265 205.218 141.924 205.054C141.582 204.889 141.283 204.65 141.047 204.353C140.811 204.057 140.645 203.711 140.561 203.341C140.477 202.971 140.478 202.588 140.564 202.219L148.073 169.688C148.201 169.133 148.513 168.638 148.959 168.284C149.405 167.93 149.958 167.737 150.527 167.737Z" fill="#666666" stroke="black" stroke-width="0.5" stroke-miterlimit="10" stroke-linecap="round" stroke-linejoin="round"/>
<path d="M152.888 167.737H190.725C191.104 167.737 191.478 167.822 191.819 167.987C192.16 168.152 192.46 168.391 192.696 168.688C192.932 168.984 193.098 169.33 193.182 169.699C193.265 170.069 193.265 170.453 193.18 170.822L185.67 203.351C185.542 203.906 185.23 204.401 184.784 204.756C184.338 205.111 183.786 205.304 183.216 205.303H145.378C145 205.303 144.626 205.218 144.284 205.053C143.943 204.889 143.643 204.649 143.408 204.353C143.172 204.056 143.006 203.71 142.922 203.341C142.839 202.971 142.84 202.588 142.925 202.219L150.434 169.688C150.562 169.134 150.874 168.638 151.32 168.284C151.766 167.93 152.318 167.737 152.888 167.737Z" fill="#666666" stroke="black" stroke-width="0.5" stroke-miterlimit="10" stroke-linecap="round" stroke-linejoin="round"/>
<path d="M167.347 140.115L166.206 161.516L144.606 161.156L139.44 158.273L135.28 158.012C135.28 158.012 132.547 160.432 132.969 161.014C133.391 161.597 134.487 161.027 134.487 161.027C134.487 161.027 134.178 162.892 134.764 162.888C135.35 162.884 135.504 162.712 135.504 162.712C135.504 162.712 135.493 164.007 135.865 164.116C136.238 164.225 136.678 164.033 136.678 164.033C136.678 164.033 136.746 165.562 137.366 165.481C137.985 165.4 138.156 164.345 138.156 164.345L142.621 165.852L170.919 172.804C175.596 173.183 178.661 170.713 179.594 164.724L179.922 142.583L167.347 140.115Z" fill="#E5E5E5" stroke="black" stroke-width="0.5" stroke-miterlimit="10" stroke-linecap="round" stroke-linejoin="round"/>
<path d="M139.051 158.256C139.051 158.256 135.66 158.5 135.113 159.171C134.566 159.842 134.418 161.569 134.418 161.569" stroke="black" stroke-width="0.5" stroke-miterlimit="10" stroke-linecap="round" stroke-linejoin="round"/>
<path d="M138.804 160.08C138.804 160.08 136.28 159.737 135.885 160.513C135.489 161.289 135.531 163.118 135.531 163.118" stroke="black" stroke-width="0.5" stroke-miterlimit="10" stroke-linecap="round" stroke-linejoin="round"/>
<path d="M138.761 162.575C138.761 162.575 137.175 162.306 136.787 162.874C136.429 163.399 136.936 165.2 136.936 165.2" stroke="black" stroke-width="0.5" stroke-miterlimit="10" stroke-linecap="round" stroke-linejoin="round"/>
<path d="M132.986 180.786L123.4 166.226L105.79 141.233C105.79 141.233 102 136.498 96.5636 138.612C91.127 140.727 90.8866 143.998 89.7098 148.45L85.8271 163.129" fill="#333333"/>
<path d="M132.986 180.786L123.4 166.226L105.79 141.233C105.79 141.233 102 136.498 96.5636 138.612C91.127 140.727 90.8866 143.998 89.7098 148.45L85.8271 163.129" stroke="black" stroke-width="0.5" stroke-linecap="round" stroke-linejoin="round"/>
<path d="M103.894 164.082L97.9102 179.164" stroke="black" stroke-width="0.5" stroke-linecap="round" stroke-linejoin="round"/>
<path d="M164.389 151.656L181.638 149.986C181.638 149.986 180.5 124.206 171.992 121.704C163.483 119.201 164.389 151.656 164.389 151.656Z" fill="white" stroke="black" stroke-width="0.5" stroke-miterlimit="10" stroke-linecap="round" stroke-linejoin="round"/>
<path d="M197.72 218.995C197.72 218.995 185.956 211.643 188.81 196.557C191.663 181.471 200.735 175.732 200.735 175.732C200.735 175.732 205.639 186.61 201.756 199.975C197.874 213.34 197.72 218.995 197.72 218.995Z" fill="#4C4C4C" stroke="black" stroke-width="0.5" stroke-linecap="round" stroke-linejoin="round"/>
<path d="M214.059 221.452C214.059 221.452 211.149 225.496 210.034 230.093C208.919 234.691 208.641 237.478 208.641 237.478" stroke="black" stroke-width="0.5" stroke-linecap="round" stroke-linejoin="round"/>
<path d="M214.059 221.452C214.059 221.452 212.841 208.461 225.747 201.984C238.653 195.506 248.124 199.016 248.124 199.016C248.124 199.016 242.791 208.891 230.583 213.617C218.376 218.343 214.059 221.452 214.059 221.452Z" fill="black" stroke="black" stroke-width="0.5" stroke-linecap="round" stroke-linejoin="round"/>
<path d="M254.476 218.728C254.476 218.728 237.758 224.8 226.195 224.103C214.632 223.406 205.857 221.132 205.857 221.132L210.734 213.674C210.734 213.674 223.55 209.058 234.695 211.565C245.841 214.072 254.476 218.728 254.476 218.728Z" fill="#4C4C4C" stroke="black" stroke-width="0.5" stroke-linecap="round" stroke-linejoin="round"/>
<path d="M202.898 213.674C202.898 213.674 197.768 198.537 211.315 187.162C224.863 175.788 237.144 177.289 237.144 177.289C237.144 177.289 233.584 190.569 220.374 199.661C207.164 208.753 202.898 213.674 202.898 213.674Z" fill="#4C4C4C" stroke="black" stroke-width="0.5" stroke-linecap="round" stroke-linejoin="round"/>
<path d="M202.898 213.674C202.898 213.674 197.768 198.537 211.315 187.162C224.863 175.788 237.144 177.289 237.144 177.289C237.144 177.289 222.601 185.916 214.288 195.518C203.794 207.641 202.898 213.674 202.898 213.674Z" fill="black" stroke="black" stroke-width="0.5" stroke-linecap="round" stroke-linejoin="round"/>
<path d="M206.412 233.019C206.412 233.019 203.731 227.726 203.609 222.153C203.487 216.581 204.462 213.674 204.462 213.674L214.908 214.784L206.412 233.019Z" fill="black" stroke="black" stroke-width="0.5" stroke-linecap="round" stroke-linejoin="round"/>
<path d="M226.893 222.71C226.893 222.71 220.902 217.922 218.116 217.182C215.33 216.441 204.463 213.675 204.463 213.675L209.289 212.906C211.728 212.518 213.938 211.245 215.498 209.331L218.116 206.117C218.116 206.117 222.155 208.083 224.802 212.54C227.45 216.998 226.893 222.71 226.893 222.71Z" fill="#B3B3B3" stroke="black" stroke-width="0.5" stroke-linecap="round" stroke-linejoin="round"/>
<path d="M203.614 211.336C203.614 211.336 201.338 215.769 200.918 220.481C200.498 225.193 202.929 234.412 202.929 234.412" stroke="black" stroke-width="0.5" stroke-linecap="round" stroke-linejoin="round"/>
<path d="M206.412 234.412C206.412 234.412 203.208 233.019 202.511 228.282C201.814 223.545 201.815 220.074 201.815 220.074C201.815 220.074 188.419 217.301 188.43 218.194C188.441 219.087 196.235 227.586 198.398 229.397C200.561 231.208 206.412 234.412 206.412 234.412Z" fill="#4C4C4C" stroke="black" stroke-width="0.5" stroke-linecap="round" stroke-linejoin="round"/>
<path d="M201.815 220.074L195.305 217.797C192.787 216.917 190.425 215.644 188.305 214.026L183.982 210.729C183.982 210.729 178.266 216.403 177.434 224.85C176.602 233.297 177.434 235.247 177.434 235.247C177.434 235.247 187.186 226.712 191.505 224.85C195.824 222.988 201.815 220.074 201.815 220.074Z" fill="#B3B3B3" stroke="black" stroke-width="0.5" stroke-linecap="round" stroke-linejoin="round"/>
<path d="M221.052 230.66V231.002C221.051 235.003 220.259 238.964 218.72 242.657C217.18 246.35 214.926 249.701 212.085 252.519C210.128 254.46 207.491 255.561 204.735 255.588C201.979 255.614 199.321 254.564 197.328 252.66L197.246 252.581C194.282 249.751 191.922 246.349 190.31 242.582C188.699 238.814 187.867 234.758 187.867 230.66H221.047H221.052Z" fill="#E5E5E5" stroke="black" stroke-width="0.5" stroke-linecap="round" stroke-linejoin="round"/>
<path d="M63.6899 131.244C63.6899 131.244 61.9334 131.969 57.9121 131.06C55.7461 130.568 49.3379 127.205 49.3379 127.205C49.3379 127.205 53.0699 130.81 56.1002 132.083C59.798 133.634 62.5288 133.523 62.5288 133.523L63.6899 131.244Z" fill="#666666" stroke="black" stroke-width="0.5" stroke-linecap="round" stroke-linejoin="round"/>
<path d="M69.0509 132.089C63.4229 132.823 59.8157 136.712 60.7207 141.927C61.7626 147.936 58.6278 149.375 58.6278 149.375C57.1995 149.467 59.335 157.103 59.335 157.103C59.628 158.755 62.3662 160.098 62.9514 159.085C63.4136 158.281 61.5814 156.241 61.1783 156.103L61.2144 151.091C61.2144 151.091 64.4934 150.895 68.7689 144.212C69.7507 142.678 71.436 139.072 71.436 139.072C71.436 139.072 71.7956 131.732 69.0509 132.089Z" fill="#666666" stroke="black" stroke-width="0.5" stroke-linecap="round" stroke-linejoin="round"/>
<path d="M103.405 138.538C103.415 138.019 101.984 137.56 100.817 137.419C99.8186 137.299 99.1151 137.345 97.3541 137.541C96.5221 137.634 95.4238 137.079 94.9006 135.809C94.3321 134.422 94.1934 134.445 94.8081 133.083L96.1283 130.831C97.5644 128.16 99.6852 125.919 102.273 124.337C102.799 124.016 106.223 122.119 109.455 120.765C111.843 119.768 117.536 116.443 115.58 112.435C115.58 112.435 105.944 114.077 101.621 114.759C97.9161 115.344 95.7511 117.282 93.0896 120.59L92.62 121.193C90.0528 124.495 83.5734 127.443 78.2079 128.397C72.1436 129.475 68.6862 130.047 65.9452 130.404C60.3162 131.138 56.013 137.491 56.918 142.709C57.9589 148.718 54.8251 150.156 54.8251 150.156C53.3968 150.248 55.5323 157.884 55.5323 157.884C55.8244 159.536 58.5635 160.88 59.1478 159.866C59.61 159.062 57.7787 157.023 57.3756 156.885L57.4116 151.873C57.4116 151.873 60.6907 151.677 64.9662 144.994C65.947 143.46 67.6323 139.853 67.6323 139.853C67.6323 139.853 70.4981 138.595 72.836 139.401C77.2604 140.926 82.6591 142.174 88.7743 138.069C89.7912 139.32 90.3172 140.019 92.0718 141.614C93.0887 142.539 95.0143 142.153 96.6866 141.219C98.2905 140.324 100.199 139.698 101.463 139.586C102.093 139.53 103.393 139.247 103.405 138.538Z" fill="white" stroke="black" stroke-width="0.5" stroke-miterlimit="10" stroke-linecap="round" stroke-linejoin="round"/>
<path d="M103.249 117.929C103.753 117.929 104.161 117.521 104.161 117.017C104.161 116.514 103.753 116.106 103.249 116.106C102.746 116.106 102.338 116.514 102.338 117.017C102.338 117.521 102.746 117.929 103.249 117.929Z" fill="black" stroke="black" stroke-width="0.5" stroke-linecap="round" stroke-linejoin="round"/>
<path d="M84.8136 132.187C82.0467 133.358 80.8875 131.717 77.7203 132.772C76.195 133.281 73.6287 138.91 67.1475 137.04C64.7753 136.355 64.3085 132.583 67.471 131.664C65.6425 131.331 65.9457 130.404 65.9457 130.404C65.9457 130.404 66.4005 130.127 69.6379 129.706C73.8099 129.163 78.8491 128.368 81.3645 127.746C85.9728 126.607 87.4723 131.062 84.8136 132.187Z" fill="#666666" stroke="black" stroke-width="0.5" stroke-linecap="round" stroke-linejoin="round"/>
<path d="M115.58 112.438L113.356 112.822C113.356 112.822 113.287 114.126 114.127 114.568C114.966 115.01 115.905 114.834 115.905 114.834C115.905 114.834 116.044 114.163 115.947 113.6C115.875 113.199 115.752 112.808 115.58 112.438Z" fill="black" stroke="black" stroke-width="0.5" stroke-linecap="round" stroke-linejoin="round"/>
<path d="M96.7193 130.137C97.0074 130.425 97.4745 130.425 97.7625 130.137C98.0506 129.849 98.0506 129.382 97.7625 129.094L91.4179 122.749C91.1298 122.461 90.6627 122.461 90.3746 122.749C90.0866 123.037 90.0865 123.504 90.3746 123.792L96.7193 130.137Z" fill="#4C4C4C" stroke="black" stroke-width="0.5" stroke-linecap="round" stroke-linejoin="round"/>
<path d="M104.447 119.456C104.447 119.456 106.822 120.458 108.225 120.246C109.629 120.033 110.172 119.634 110.172 119.634" stroke="black" stroke-width="0.5" stroke-linecap="round" stroke-linejoin="round"/>
<path d="M94.994 120.757L93.7922 145.545C93.7839 145.724 93.8187 145.904 93.8938 146.067C93.9689 146.231 94.0821 146.375 94.2239 146.486C95.4498 147.449 98.8314 149.343 100.668 142.788C102.938 134.68 100.206 121.508 97.4697 119.386C95.9536 118.21 95.0291 120.035 94.994 120.757Z" fill="#666666" stroke="black" stroke-width="0.5" stroke-linecap="round" stroke-linejoin="round"/>
<path d="M246.978 55.4409H203.878C202.43 55.4409 201.257 56.6143 201.257 58.0617V109.383C201.257 110.831 202.43 112.004 203.878 112.004H246.978C248.425 112.004 249.599 110.831 249.599 109.383V58.0617C249.599 56.6143 248.425 55.4409 246.978 55.4409Z" fill="white" stroke="black" stroke-width="0.5" stroke-linecap="round" stroke-linejoin="round"/>
<path d="M203.878 55.439H246.979C247.674 55.4399 248.34 55.7167 248.83 56.2085C249.321 56.7003 249.596 57.3669 249.596 58.0616V61.2047H201.257V58.0616C201.257 57.7173 201.324 57.3763 201.456 57.0581C201.587 56.7399 201.78 56.4508 202.024 56.2072C202.267 55.9637 202.556 55.7705 202.874 55.6386C203.192 55.5068 203.533 55.439 203.878 55.439Z" fill="#CCCCCC" stroke="black" stroke-width="0.5" stroke-miterlimit="10" stroke-linecap="round" stroke-linejoin="round"/>
<path d="M216.326 90.2285H211.793V103.535H216.326V90.2285Z" fill="#E5E5E5" stroke="black" stroke-width="0.5" stroke-miterlimit="10" stroke-linecap="round" stroke-linejoin="round"/>
<path d="M223.587 82.333H219.055V103.535H223.587V82.333Z" fill="#E5E5E5" stroke="black" stroke-width="0.5" stroke-miterlimit="10" stroke-linecap="round" stroke-linejoin="round"/>
<path d="M231.288 78.0435H226.756V103.535H231.288V78.0435Z" fill="#999999" stroke="black" stroke-width="0.5" stroke-miterlimit="10" stroke-linecap="round" stroke-linejoin="round"/>
<path d="M238.989 73.3638H234.456V103.534H238.989V73.3638Z" fill="#4C4C4C" stroke="black" stroke-width="0.5" stroke-linecap="round" stroke-linejoin="round"/>
<path d="M210.477 82.3331C210.477 82.3331 218.08 81.4087 225.44 76.3381C232.799 71.2675 237.431 64.4941 237.431 64.4941L231.827 66.5409" stroke="black" stroke-width="0.5" stroke-linecap="round" stroke-linejoin="round"/>
<path d="M237.82 70.3912L237.43 64.4941" stroke="black" stroke-width="0.5" stroke-linecap="round" stroke-linejoin="round"/>
<path d="M206.658 103.535H242.401" stroke="black" stroke-width="0.5" stroke-linecap="round" stroke-linejoin="round"/>
<path d="M204.423 59.4069C205.023 59.4069 205.508 58.921 205.508 58.3216C205.508 57.7222 205.023 57.2363 204.423 57.2363C203.824 57.2363 203.338 57.7222 203.338 58.3216C203.338 58.921 203.824 59.4069 204.423 59.4069Z" fill="white" stroke="black" stroke-width="0.5" stroke-linecap="round" stroke-linejoin="round"/>
<path d="M208.099 59.4069C208.698 59.4069 209.184 58.921 209.184 58.3216C209.184 57.7222 208.698 57.2363 208.099 57.2363C207.5 57.2363 207.014 57.7222 207.014 58.3216C207.014 58.921 207.5 59.4069 208.099 59.4069Z" fill="white" stroke="black" stroke-width="0.5" stroke-linecap="round" stroke-linejoin="round"/>
<path d="M211.775 59.4069C212.374 59.4069 212.86 58.921 212.86 58.3216C212.86 57.7222 212.374 57.2363 211.775 57.2363C211.175 57.2363 210.689 57.7222 210.689 58.3216C210.689 58.921 211.175 59.4069 211.775 59.4069Z" fill="white" stroke="black" stroke-width="0.5" stroke-linecap="round" stroke-linejoin="round"/>
<path d="M88.0968 73.8457H24.0539C20.0907 73.8457 16.8779 77.0585 16.8779 81.0217V102.236C16.8779 106.199 20.0907 109.412 24.0539 109.412H88.0968C92.06 109.412 95.2728 106.199 95.2728 102.236V81.0217C95.2728 77.0585 92.06 73.8457 88.0968 73.8457Z" fill="#B3B3B3"/>
<path d="M87.4697 71.5H20.0755C17.0378 71.5 14.5752 73.9626 14.5752 77.0003V101.566C14.5752 104.603 17.0378 107.066 20.0755 107.066H87.4697C90.5075 107.066 92.97 104.603 92.97 101.566V77.0003C92.97 73.9626 90.5075 71.5 87.4697 71.5Z" fill="white" stroke="black" stroke-width="0.5" stroke-miterlimit="10" stroke-linecap="round" stroke-linejoin="round"/>
<path d="M43.284 94.5462C43.2092 94.5462 43.1352 94.5315 43.0662 94.5028C42.9971 94.4742 42.9344 94.4322 42.8815 94.3793C42.8287 94.3264 42.7868 94.2636 42.7583 94.1945C42.7298 94.1254 42.7151 94.0514 42.7153 93.9766V84.8701C42.7123 84.7935 42.7249 84.7171 42.7522 84.6455C42.7795 84.5739 42.8209 84.5086 42.8741 84.4534C42.9272 84.3982 42.9909 84.3543 43.0614 84.3243C43.132 84.2943 43.2078 84.2788 43.2844 84.2788C43.361 84.2788 43.4369 84.2943 43.5074 84.3243C43.5779 84.3543 43.6416 84.3982 43.6948 84.4534C43.7479 84.5086 43.7894 84.5739 43.8167 84.6455C43.8439 84.7171 43.8565 84.7935 43.8536 84.8701V93.9766C43.8536 94.1277 43.7936 94.2726 43.6868 94.3794C43.5799 94.4862 43.4351 94.5462 43.284 94.5462Z" fill="#4C4C4C"/>
<path d="M45.5627 91.6993C45.4117 91.6993 45.2668 91.6393 45.16 91.5325C45.0532 91.4257 44.9932 91.2808 44.9932 91.1297V87.7131C44.9932 87.5621 45.0532 87.4172 45.16 87.3104C45.2668 87.2036 45.4117 87.1436 45.5627 87.1436C45.7138 87.1436 45.8587 87.2036 45.9655 87.3104C46.0723 87.4172 46.1323 87.5621 46.1323 87.7131V91.1297C46.1323 91.2808 46.0723 91.4257 45.9655 91.5325C45.8587 91.6393 45.7138 91.6993 45.5627 91.6993Z" fill="#4C4C4C"/>
<path d="M47.8401 93.4069C47.6892 93.4069 47.5444 93.347 47.4376 93.2404C47.3308 93.1338 47.2707 92.9891 47.2705 92.8382V86.0041C47.2705 85.9293 47.2852 85.8553 47.3139 85.7862C47.3425 85.7171 47.3844 85.6543 47.4373 85.6014C47.4902 85.5485 47.553 85.5065 47.6221 85.4779C47.6912 85.4493 47.7653 85.4346 47.8401 85.4346C47.9149 85.4346 47.9889 85.4493 48.058 85.4779C48.1272 85.5065 48.1899 85.5485 48.2428 85.6014C48.2957 85.6543 48.3377 85.7171 48.3663 85.7862C48.3949 85.8553 48.4097 85.9293 48.4097 86.0041V92.8382C48.4094 92.9891 48.3493 93.1338 48.2425 93.2404C48.1357 93.347 47.991 93.4069 47.8401 93.4069Z" fill="#4C4C4C"/>
<path d="M50.1184 98.5326C49.9673 98.5326 49.8225 98.4726 49.7156 98.3658C49.6088 98.259 49.5488 98.1141 49.5488 97.963V80.8767C49.5488 80.7256 49.6088 80.5808 49.7156 80.474C49.8225 80.3671 49.9673 80.3071 50.1184 80.3071C50.2695 80.3071 50.4143 80.3671 50.5211 80.474C50.628 80.5808 50.688 80.7256 50.688 80.8767V97.9597C50.6884 98.0348 50.674 98.1092 50.6456 98.1787C50.6171 98.2482 50.5753 98.3114 50.5223 98.3646C50.4694 98.4179 50.4064 98.4601 50.3371 98.4889C50.2678 98.5178 50.1935 98.5326 50.1184 98.5326Z" fill="#4C4C4C"/>
<path d="M52.3957 96.2551C52.2447 96.2551 52.0998 96.1951 51.993 96.0883C51.8862 95.9815 51.8262 95.8366 51.8262 95.6856V83.1575C51.8262 83.0064 51.8862 82.8615 51.993 82.7547C52.0998 82.6479 52.2447 82.5879 52.3957 82.5879C52.5468 82.5879 52.6917 82.6479 52.7985 82.7547C52.9053 82.8615 52.9653 83.0064 52.9653 83.1575V95.6856C52.9653 95.8366 52.9053 95.9815 52.7985 96.0883C52.6917 96.1951 52.5468 96.2551 52.3957 96.2551Z" fill="#4C4C4C"/>
<path d="M54.6735 95.6856C54.5224 95.6856 54.3776 95.6256 54.2708 95.5188C54.1639 95.4119 54.1039 95.2671 54.1039 95.116V84.8662C54.101 84.7896 54.1136 84.7132 54.1409 84.6416C54.1681 84.57 54.2096 84.5047 54.2627 84.4495C54.3159 84.3943 54.3796 84.3504 54.4501 84.3204C54.5206 84.2904 54.5965 84.2749 54.6731 84.2749C54.7497 84.2749 54.8256 84.2904 54.8961 84.3204C54.9666 84.3504 55.0303 84.3943 55.0834 84.4495C55.1366 84.5047 55.178 84.57 55.2053 84.6416C55.2326 84.7132 55.2452 84.7896 55.2422 84.8662V95.116C55.2422 95.2669 55.1824 95.4117 55.0757 95.5185C54.9691 95.6252 54.8244 95.6854 54.6735 95.6856Z" fill="#4C4C4C"/>
<path d="M56.9514 100.811C56.8766 100.811 56.8025 100.796 56.7334 100.767C56.6643 100.739 56.6016 100.697 56.5487 100.644C56.4958 100.591 56.4538 100.528 56.4252 100.459C56.3966 100.39 56.3818 100.316 56.3818 100.241V78.6013C56.3818 78.4503 56.4418 78.3054 56.5487 78.1986C56.6555 78.0917 56.8003 78.0317 56.9514 78.0317C57.1025 78.0317 57.2473 78.0917 57.3542 78.1986C57.461 78.3054 57.521 78.4503 57.521 78.6013V100.241C57.521 100.316 57.5062 100.39 57.4776 100.459C57.449 100.528 57.407 100.591 57.3542 100.644C57.3013 100.697 57.2385 100.739 57.1694 100.767C57.1003 100.796 57.0262 100.811 56.9514 100.811Z" fill="#4C4C4C"/>
<path d="M59.2288 92.8384C59.0777 92.8384 58.9328 92.7784 58.826 92.6716C58.7192 92.5648 58.6592 92.4199 58.6592 92.2689V86.574C58.6592 86.4229 58.7192 86.278 58.826 86.1712C58.9328 86.0644 59.0777 86.0044 59.2288 86.0044C59.3798 86.0044 59.5247 86.0644 59.6315 86.1712C59.7383 86.278 59.7983 86.4229 59.7983 86.574V92.2689C59.7983 92.4199 59.7383 92.5648 59.6315 92.6716C59.5247 92.7784 59.3798 92.8384 59.2288 92.8384Z" fill="#4C4C4C"/>
<path d="M61.5071 90.5626C61.356 90.5626 61.2111 90.5026 61.1043 90.3958C60.9975 90.289 60.9375 90.1441 60.9375 89.993V88.8547C60.9375 88.7037 60.9975 88.5588 61.1043 88.452C61.2111 88.3452 61.356 88.2852 61.5071 88.2852C61.6581 88.2852 61.803 88.3452 61.9098 88.452C62.0166 88.5588 62.0766 88.7037 62.0766 88.8547V89.993C62.0766 90.1441 62.0166 90.289 61.9098 90.3958C61.803 90.5026 61.6581 90.5626 61.5071 90.5626Z" fill="#4C4C4C"/>
<path d="M63.7844 90.5626C63.6334 90.5626 63.4885 90.5026 63.3817 90.3958C63.2748 90.289 63.2148 90.1441 63.2148 89.993V88.8547C63.2148 88.7037 63.2748 88.5588 63.3817 88.452C63.4885 88.3452 63.6334 88.2852 63.7844 88.2852C63.9355 88.2852 64.0803 88.3452 64.1872 88.452C64.294 88.5588 64.354 88.7037 64.354 88.8547V89.993C64.354 90.1441 64.294 90.289 64.1872 90.3958C64.0803 90.5026 63.9355 90.5626 63.7844 90.5626Z" fill="#4C4C4C"/>
<path d="M66.0632 91.699C65.9121 91.699 65.7672 91.639 65.6604 91.5322C65.5536 91.4254 65.4936 91.2805 65.4936 91.1295V87.7129C65.4907 87.6363 65.5032 87.5599 65.5305 87.4883C65.5578 87.4167 65.5992 87.3514 65.6524 87.2962C65.7055 87.241 65.7693 87.197 65.8398 87.167C65.9103 87.137 65.9861 87.1216 66.0627 87.1216C66.1394 87.1216 66.2152 87.137 66.2857 87.167C66.3562 87.197 66.4199 87.241 66.4731 87.2962C66.5262 87.3514 66.5677 87.4167 66.595 87.4883C66.6223 87.5599 66.6348 87.6363 66.6319 87.7129V91.1295C66.632 91.2042 66.6174 91.2783 66.5888 91.3474C66.5603 91.4165 66.5184 91.4793 66.4656 91.5322C66.4128 91.5851 66.35 91.627 66.281 91.6557C66.2119 91.6843 66.1379 91.699 66.0632 91.699Z" fill="#4C4C4C"/>
<path d="M68.3401 94.5465C68.2653 94.5465 68.1912 94.5317 68.1221 94.5031C68.053 94.4745 67.9902 94.4325 67.9373 94.3796C67.8844 94.3267 67.8425 94.264 67.8139 94.1949C67.7852 94.1257 67.7705 94.0517 67.7705 93.9769V84.8704C67.7705 84.7193 67.8305 84.5744 67.9373 84.4676C68.0441 84.3608 68.189 84.3008 68.3401 84.3008C68.4911 84.3008 68.636 84.3608 68.7428 84.4676C68.8497 84.5744 68.9097 84.7193 68.9097 84.8704V93.9769C68.9097 94.128 68.8497 94.2728 68.7428 94.3796C68.636 94.4865 68.4911 94.5465 68.3401 94.5465Z" fill="#4C4C4C"/>
<path d="M70.618 92.8382C70.4671 92.838 70.3224 92.7778 70.2158 92.6711C70.1091 92.5643 70.0492 92.4195 70.0492 92.2686V86.5737C70.0463 86.4971 70.0589 86.4208 70.0862 86.3492C70.1135 86.2776 70.1549 86.2122 70.2081 86.157C70.2612 86.1018 70.3249 86.0579 70.3954 86.0279C70.4659 85.9979 70.5418 85.9824 70.6184 85.9824C70.695 85.9824 70.7709 85.9979 70.8414 86.0279C70.9119 86.0579 70.9756 86.1018 71.0288 86.157C71.0819 86.2122 71.1233 86.2776 71.1506 86.3492C71.1779 86.4208 71.1905 86.4971 71.1876 86.5737V92.2686C71.1876 92.4197 71.1276 92.5645 71.0207 92.6713C70.9139 92.7782 70.769 92.8382 70.618 92.8382Z" fill="#4C4C4C"/>
<path d="M72.8957 95.6853C72.7447 95.6853 72.5998 95.6253 72.493 95.5185C72.3862 95.4117 72.3262 95.2668 72.3262 95.1158V83.7268C72.3262 83.5757 72.3862 83.4309 72.493 83.324C72.5998 83.2172 72.7447 83.1572 72.8957 83.1572C73.0468 83.1572 73.1917 83.2172 73.2985 83.324C73.4053 83.4309 73.4653 83.5757 73.4653 83.7268V95.1158C73.4653 95.2668 73.4053 95.4117 73.2985 95.5185C73.1917 95.6253 73.0468 95.6853 72.8957 95.6853Z" fill="#4C4C4C"/>
<path d="M75.1731 93.9767C75.022 93.9767 74.8772 93.9167 74.7703 93.8099C74.6635 93.7031 74.6035 93.5582 74.6035 93.4072V85.4348C74.6035 85.2837 74.6635 85.1389 74.7703 85.0321C74.8772 84.9252 75.022 84.8652 75.1731 84.8652C75.3241 84.8652 75.469 84.9252 75.5758 85.0321C75.6826 85.1389 75.7427 85.2837 75.7427 85.4348V93.4072C75.7427 93.5582 75.6826 93.7031 75.5758 93.8099C75.469 93.9167 75.3241 93.9767 75.1731 93.9767Z" fill="#4C4C4C"/>
<path d="M77.4514 97.9628C77.3766 97.9628 77.3026 97.948 77.2334 97.9194C77.1643 97.8908 77.1016 97.8488 77.0487 97.7959C76.9958 97.7431 76.9538 97.6803 76.9252 97.6112C76.8966 97.5421 76.8818 97.468 76.8818 97.3932V81.4485C76.8818 81.2974 76.9418 81.1525 77.0487 81.0457C77.1555 80.9389 77.3003 80.8789 77.4514 80.8789C77.6025 80.8789 77.7473 80.9389 77.8542 81.0457C77.961 81.1525 78.021 81.2974 78.021 81.4485V97.3932C78.021 97.5443 77.961 97.6891 77.8542 97.7959C77.7473 97.9028 77.6025 97.9628 77.4514 97.9628Z" fill="#4C4C4C"/>
<path d="M79.7297 94.5465C79.5787 94.5465 79.4338 94.4865 79.327 94.3796C79.2202 94.2728 79.1602 94.128 79.1602 93.9769V84.8704C79.1602 84.7193 79.2202 84.5744 79.327 84.4676C79.4338 84.3608 79.5787 84.3008 79.7297 84.3008C79.8808 84.3008 80.0257 84.3608 80.1325 84.4676C80.2393 84.5744 80.2993 84.7193 80.2993 84.8704V93.9769C80.2993 94.128 80.2393 94.2728 80.1325 94.3796C80.0257 94.4865 79.8808 94.5465 79.7297 94.5465Z" fill="#4C4C4C"/>
<path d="M82.0075 90.5624C81.8564 90.5624 81.7116 90.5023 81.6047 90.3955C81.4979 90.2887 81.4379 90.1438 81.4379 89.9928V88.8545C81.435 88.7779 81.4476 88.7015 81.4748 88.6299C81.5021 88.5583 81.5436 88.493 81.5967 88.4378C81.6499 88.3825 81.7136 88.3386 81.7841 88.3086C81.8546 88.2786 81.9304 88.2632 82.0071 88.2632C82.0837 88.2632 82.1595 88.2786 82.23 88.3086C82.3006 88.3386 82.3643 88.3825 82.4174 88.4378C82.4706 88.493 82.512 88.5583 82.5393 88.6299C82.5666 88.7015 82.5792 88.7779 82.5762 88.8545V89.9928C82.5763 90.0675 82.5617 90.1416 82.5332 90.2107C82.5046 90.2798 82.4628 90.3426 82.4099 90.3955C82.3571 90.4484 82.2944 90.4903 82.2253 90.519C82.1563 90.5476 82.0822 90.5624 82.0075 90.5624Z" fill="#4C4C4C"/>
<path d="M84.2854 92.8384C84.1343 92.8384 83.9895 92.7784 83.8826 92.6716C83.7758 92.5648 83.7158 92.4199 83.7158 92.2689V86.574C83.7158 86.4229 83.7758 86.278 83.8826 86.1712C83.9895 86.0644 84.1343 86.0044 84.2854 86.0044C84.4365 86.0044 84.5813 86.0644 84.6881 86.1712C84.795 86.278 84.855 86.4229 84.855 86.574V92.2689C84.855 92.4199 84.795 92.5648 84.6881 92.6716C84.5813 92.7784 84.4365 92.8384 84.2854 92.8384Z" fill="#4C4C4C"/>
<path d="M41.0061 91.1295C40.855 91.1295 40.7102 91.0695 40.6033 90.9627C40.4965 90.8559 40.4365 90.711 40.4365 90.5599V88.2825C40.4365 88.1314 40.4965 87.9865 40.6033 87.8797C40.7102 87.7729 40.855 87.7129 41.0061 87.7129C41.1572 87.7129 41.302 87.7729 41.4088 87.8797C41.5157 87.9865 41.5757 88.1314 41.5757 88.2825V90.5624C41.575 90.713 41.5147 90.8573 41.408 90.9636C41.3012 91.0698 41.1567 91.1295 41.0061 91.1295Z" fill="#4C4C4C"/>
<path d="M38.7292 90.5624C38.5781 90.5624 38.4332 90.5023 38.3264 90.3955C38.2196 90.2887 38.1596 90.1438 38.1596 89.9928V88.8545C38.1567 88.7779 38.1692 88.7015 38.1965 88.6299C38.2238 88.5583 38.2653 88.493 38.3184 88.4378C38.3715 88.3825 38.4353 88.3386 38.5058 88.3086C38.5763 88.2786 38.6521 88.2632 38.7288 88.2632C38.8054 88.2632 38.8812 88.2786 38.9517 88.3086C39.0222 88.3386 39.086 88.3825 39.1391 88.4378C39.1922 88.493 39.2337 88.5583 39.261 88.6299C39.2883 88.7015 39.3008 88.7779 39.2979 88.8545V89.9928C39.2979 90.1437 39.238 90.2884 39.1314 90.3952C39.0247 90.502 38.8801 90.5621 38.7292 90.5624Z" fill="#4C4C4C"/>
<path d="M26.7702 95.6857C25.5312 95.6858 24.3199 95.3186 23.2896 94.6303C22.2593 93.9421 21.4562 92.9638 20.982 91.8191C20.5077 90.6744 20.3835 89.4148 20.6252 88.1996C20.8668 86.9843 21.4633 85.868 22.3394 84.9919C23.2155 84.1157 24.3317 83.519 25.5469 83.2772C26.7621 83.0354 28.0217 83.1594 29.1665 83.6335C30.3112 84.1076 31.2896 84.9106 31.978 85.9408C32.6664 86.971 33.0338 88.1822 33.0338 89.4212C33.0321 91.082 32.3716 92.6742 31.1974 93.8486C30.0231 95.023 28.4309 95.6837 26.7702 95.6857ZM26.7702 84.2967C25.7564 84.2966 24.7654 84.597 23.9224 85.1601C23.0794 85.7233 22.4224 86.5237 22.0343 87.4603C21.6463 88.3968 21.5447 89.4274 21.7425 90.4217C21.9402 91.416 22.4284 92.3293 23.1452 93.0462C23.862 93.763 24.7754 94.2512 25.7697 94.4489C26.7639 94.6467 27.7945 94.5451 28.7311 94.1571C29.6677 93.769 30.4681 93.112 31.0312 92.269C31.5944 91.426 31.8948 90.435 31.8947 89.4212C31.8925 88.0628 31.3519 86.7606 30.3913 85.8001C29.4308 84.8395 28.1286 84.2989 26.7702 84.2967Z" fill="#4C4C4C"/>
<path d="M25.6311 92.2686C25.4801 92.2684 25.3354 92.2083 25.2286 92.1015C25.1218 91.9947 25.0617 91.85 25.0615 91.699V87.1457C25.0614 87.0427 25.0892 86.9415 25.1422 86.853C25.1951 86.7645 25.271 86.6921 25.3619 86.6435C25.4528 86.5948 25.5552 86.5718 25.6582 86.5769C25.7612 86.5819 25.8608 86.6149 25.9465 86.6722L29.3631 88.9497C29.4413 89.0015 29.5055 89.072 29.5499 89.1547C29.5943 89.2374 29.6175 89.3298 29.6175 89.4236C29.6175 89.5175 29.5943 89.6099 29.5499 89.6926C29.5055 89.7753 29.4413 89.8457 29.3631 89.8976L25.9465 92.175C25.8529 92.2367 25.7432 92.2693 25.6311 92.2686ZM26.2007 88.2071V90.6344L28.022 89.4207L26.2007 88.2071Z" fill="#4C4C4C"/>
<path d="M165.875 102.581C165.247 99.6473 162.813 97.6851 160.439 98.1979C158.064 98.7107 156.649 101.504 157.278 104.438C157.906 107.371 160.341 109.333 162.715 108.821C165.089 108.308 166.504 105.514 165.875 102.581Z" fill="#4C4C4C" stroke="black" stroke-width="0.5" stroke-linecap="round" stroke-linejoin="round"/>
<path d="M165.539 102.723C165.086 100.608 163.331 99.1939 161.619 99.5637C159.907 99.9334 158.887 101.947 159.34 104.062C159.793 106.177 161.548 107.591 163.26 107.222C164.972 106.852 165.992 104.838 165.539 102.723Z" fill="#808080" stroke="black" stroke-width="0.5" stroke-linecap="round" stroke-linejoin="round"/>
<mask id="path-142-inside-1_2340_153015" fill="white">
<path d="M159.673 114.884C159.138 115.267 158.539 115.551 157.904 115.725L157.82 115.429C159.834 114.88 161.344 113.188 161.967 110.795C162.742 107.819 162.911 103.26 162.912 103.215L163.222 103.225C163.221 103.271 163.051 107.863 162.267 110.872C161.815 112.617 160.904 114.006 159.673 114.884Z"/>
</mask>
<path d="M159.673 114.884C159.138 115.267 158.539 115.551 157.904 115.725L157.82 115.429C159.834 114.88 161.344 113.188 161.967 110.795C162.742 107.819 162.911 103.26 162.912 103.215L163.222 103.225C163.221 103.271 163.051 107.863 162.267 110.872C161.815 112.617 160.904 114.006 159.673 114.884Z" fill="black"/>
<path d="M159.673 114.884L159.383 114.477L159.382 114.478L159.673 114.884ZM157.904 115.725L157.423 115.862L157.559 116.338L158.036 116.207L157.904 115.725ZM157.82 115.429L157.689 114.946L157.201 115.079L157.339 115.565L157.82 115.429ZM161.967 110.795L162.451 110.921L162.451 110.921L161.967 110.795ZM162.912 103.215L162.928 102.715L162.432 102.699L162.413 103.195L162.912 103.215ZM163.222 103.225L163.722 103.237L163.735 102.741L163.238 102.725L163.222 103.225ZM162.267 110.872L161.783 110.746L161.782 110.747L162.267 110.872ZM159.382 114.478C158.895 114.826 158.35 115.085 157.772 115.243L158.036 116.207C158.728 116.018 159.38 115.708 159.964 115.291L159.382 114.478ZM158.385 115.588L158.301 115.292L157.339 115.565L157.423 115.862L158.385 115.588ZM157.952 115.911C160.174 115.306 161.793 113.448 162.451 110.921L161.484 110.669C160.895 112.927 159.494 114.454 157.689 114.946L157.952 115.911ZM162.451 110.921C162.849 109.392 163.088 107.475 163.228 105.952C163.298 105.186 163.344 104.514 163.372 104.029C163.386 103.787 163.396 103.591 163.402 103.455C163.406 103.386 163.408 103.333 163.41 103.295C163.41 103.277 163.411 103.262 163.411 103.252C163.412 103.242 163.412 103.234 163.412 103.234L162.413 103.195C162.411 103.251 162.242 107.755 161.484 110.669L162.451 110.921ZM162.896 103.714L163.206 103.724L163.238 102.725L162.928 102.715L162.896 103.714ZM162.722 103.212C162.722 103.212 162.72 103.284 162.713 103.42C162.707 103.554 162.697 103.747 162.683 103.987C162.655 104.466 162.61 105.133 162.54 105.892C162.4 107.415 162.164 109.282 161.783 110.746L162.75 110.998C163.551 107.927 163.721 103.283 163.722 103.237L162.722 103.212ZM161.782 110.747C161.356 112.397 160.503 113.678 159.383 114.477L159.963 115.291C161.305 114.335 162.275 112.837 162.751 110.997L161.782 110.747Z" fill="black" mask="url(#path-142-inside-1_2340_153015)"/>
<path d="M157.057 114.805L155.424 115.23C154.963 115.35 154.686 115.82 154.805 116.28L154.822 116.347C154.941 116.807 155.411 117.083 155.871 116.963L157.504 116.538C157.965 116.418 158.243 115.948 158.124 115.488L158.107 115.421C157.988 114.961 157.518 114.685 157.057 114.805Z" fill="#4C4C4C" stroke="black" stroke-width="0.5" stroke-linecap="round" stroke-linejoin="round"/>
<path d="M161.783 102.254C161.468 99.9649 160.342 95.3485 155.473 91.8389C150.603 88.3292 145.553 91.4012 145.553 91.4012L146.482 90.3036C146.482 90.3036 151.233 87.735 156.717 91.4013C162.202 95.0676 163.935 99.8625 164.228 102.408C164.296 102.999 164.193 104.557 163.171 104.543C162.148 104.53 161.874 102.916 161.783 102.254Z" fill="white"/>
<path d="M161.783 102.254L161.535 102.288L161.535 102.288L161.783 102.254ZM145.553 91.4012L145.363 91.2398L144.369 92.4147L145.683 91.6148L145.553 91.4012ZM146.482 90.3036L146.363 90.0837C146.336 90.0985 146.311 90.1183 146.291 90.1421L146.482 90.3036ZM164.228 102.408L164.477 102.379L164.477 102.379L164.228 102.408ZM162.03 102.22C161.711 99.8953 160.566 95.2014 155.619 91.6361L155.326 92.0417C160.119 95.4956 161.226 100.034 161.535 102.288L162.03 102.22ZM155.619 91.6361C153.115 89.8319 150.562 89.72 148.643 90.0577C147.685 90.2264 146.883 90.5072 146.321 90.7459C146.039 90.8654 145.817 90.9746 145.664 91.0545C145.588 91.0945 145.529 91.1272 145.488 91.1501C145.468 91.1616 145.452 91.1707 145.441 91.177C145.436 91.1802 145.432 91.1827 145.429 91.1845C145.427 91.1854 145.426 91.1861 145.425 91.1866C145.425 91.1869 145.424 91.1871 145.424 91.1873C145.424 91.1874 145.424 91.1875 145.424 91.1875C145.424 91.1876 145.423 91.1877 145.553 91.4012C145.683 91.6148 145.683 91.6149 145.683 91.6149C145.683 91.6149 145.683 91.6149 145.683 91.6149C145.683 91.6149 145.683 91.6148 145.683 91.6147C145.684 91.6145 145.684 91.6141 145.685 91.6136C145.687 91.6124 145.69 91.6106 145.695 91.608C145.703 91.603 145.717 91.5952 145.735 91.5851C145.77 91.5648 145.825 91.5348 145.896 91.4977C146.038 91.4233 146.248 91.3199 146.516 91.2062C147.052 90.9787 147.817 90.7108 148.73 90.5502C150.553 90.2293 152.96 90.3362 155.326 92.0417L155.619 91.6361ZM145.744 91.5627L146.673 90.4651L146.291 90.1421L145.363 91.2398L145.744 91.5627ZM146.482 90.3036C146.601 90.5235 146.601 90.5236 146.601 90.5236C146.601 90.5236 146.601 90.5236 146.601 90.5236C146.601 90.5236 146.601 90.5236 146.601 90.5235C146.601 90.5234 146.602 90.5231 146.603 90.5227C146.604 90.5218 146.607 90.5203 146.611 90.5183C146.619 90.5142 146.631 90.5079 146.648 90.4996C146.681 90.4831 146.732 90.4586 146.799 90.4285C146.934 90.3682 147.134 90.2849 147.392 90.1958C147.908 90.0175 148.654 89.8161 149.567 89.7264C151.392 89.5473 153.891 89.8126 156.578 91.6091L156.856 91.1934C154.059 89.3237 151.441 89.0401 149.518 89.2288C148.559 89.3229 147.774 89.5345 147.228 89.7232C146.955 89.8176 146.741 89.9065 146.595 89.9723C146.521 90.0052 146.465 90.0324 146.426 90.0517C146.406 90.0613 146.391 90.069 146.381 90.0744C146.375 90.0771 146.371 90.0793 146.368 90.0808C146.367 90.0816 146.366 90.0822 146.365 90.0827C146.364 90.083 146.364 90.0832 146.364 90.0833C146.364 90.0834 146.363 90.0835 146.363 90.0835C146.363 90.0836 146.363 90.0837 146.482 90.3036ZM156.578 91.6091C161.996 95.2309 163.694 99.957 163.98 102.437L164.477 102.379C164.175 99.768 162.408 94.9043 156.856 91.1934L156.578 91.6091ZM163.98 102.436C164.011 102.706 164.002 103.207 163.87 103.627C163.804 103.837 163.714 104.007 163.6 104.122C163.492 104.231 163.358 104.296 163.174 104.293L163.167 104.793C163.495 104.797 163.757 104.673 163.954 104.474C164.145 104.282 164.268 104.029 164.347 103.777C164.505 103.274 164.513 102.701 164.477 102.379L163.98 102.436ZM163.174 104.293C162.821 104.289 162.557 104.012 162.358 103.544C162.164 103.089 162.076 102.549 162.03 102.219L161.535 102.288C161.581 102.621 161.676 103.219 161.898 103.74C162.114 104.248 162.498 104.784 163.167 104.793L163.174 104.293Z" fill="black"/>
<path d="M108.086 79.4859H201.129V109.386C201.129 110.918 202.336 112.125 203.868 112.125H247C248.486 112.125 249.739 110.918 249.739 109.386V58.0823C249.739 57.7109 249.693 57.3859 249.554 57.1073V57.0609C249.554 57.0377 249.542 57.0145 249.53 56.9913C249.519 56.968 249.507 56.9448 249.507 56.9216C249.507 56.8984 249.496 56.8752 249.484 56.852C249.477 56.8382 249.47 56.8244 249.466 56.8106C249.463 56.8011 249.461 56.7917 249.461 56.7823C249.461 56.7359 249.414 56.7359 249.414 56.7359C249.391 56.7127 249.38 56.6895 249.368 56.6663C249.356 56.643 249.345 56.6198 249.322 56.5966C249.229 56.4573 249.136 56.318 248.997 56.2252C248.486 55.7145 247.789 55.4359 247.046 55.4359H216.822V6.77875C216.822 6.59304 216.822 6.45375 216.775 6.31447V6.26804C216.775 6.22161 216.775 6.17518 216.729 6.12875C216.729 6.08232 216.729 6.0359 216.682 5.98947C216.682 5.98947 216.682 5.94304 216.636 5.94304C216.636 5.91982 216.624 5.885 216.613 5.85018C216.601 5.81536 216.589 5.78054 216.589 5.75732C216.45 5.43232 216.264 5.15375 216.032 4.92161L215.847 4.7359C215.823 4.7359 215.812 4.72429 215.8 4.71268C215.788 4.70107 215.777 4.68947 215.754 4.68947C215.707 4.64304 215.661 4.59661 215.614 4.59661C215.243 4.36447 214.825 4.17875 214.361 4.13232H107.761C107.668 4.13232 107.622 4.13232 107.529 4.17875C107.018 4.27161 106.554 4.55018 106.136 4.92161C105.764 5.29304 105.486 5.80375 105.393 6.31447C105.393 6.3609 105.381 6.39572 105.37 6.43054C105.358 6.46536 105.347 6.50018 105.347 6.54661V76.8395C105.347 78.2788 106.6 79.4859 108.086 79.4859Z" fill="url(#paint0_linear_2340_153015)" style="mix-blend-mode:overlay"/>
<path fill-rule="evenodd" clip-rule="evenodd" d="M254.522 218.632L254.498 218.62C253.995 218.357 245.703 214.018 235.207 211.575C244.122 206.561 248.207 199.179 248.254 199.086V198.993C248.254 198.947 248.207 198.947 248.207 198.947C248.114 198.9 238.55 195.511 225.736 201.918C223.043 203.265 220.954 204.936 219.329 206.7C218.679 206.282 218.214 206.05 218.214 206.05C218.168 206.004 218.122 206.05 218.075 206.097L215.475 209.3C213.943 211.204 211.761 212.457 209.347 212.829L204.518 213.618H204.472V213.665C204.472 213.668 204.465 213.691 204.454 213.732C204.321 214.2 203.508 217.082 203.636 222.161C203.729 225.365 204.611 228.475 205.4 230.565H203.404C203.125 229.915 202.939 229.172 202.8 228.29C202.104 223.6 202.104 220.118 202.104 220.118C202.104 220.095 202.104 220.083 202.098 220.078C202.094 220.074 202.089 220.073 202.08 220.072C202.074 220.072 202.067 220.072 202.057 220.072L202.011 220.025L201.268 219.747C201.593 217.425 202.289 215.197 202.893 213.618C202.893 213.665 202.939 213.711 202.939 213.711C202.939 213.711 202.939 213.757 202.986 213.757H203.032C203.043 213.757 203.052 213.757 203.059 213.757C203.064 213.756 203.069 213.756 203.073 213.754C203.087 213.749 203.098 213.738 203.125 213.711C203.126 213.71 203.131 213.704 203.14 213.695C203.429 213.377 207.91 208.44 220.582 199.736C233.383 190.93 237.174 178.041 237.381 177.34C237.386 177.324 237.388 177.314 237.389 177.311V177.218C237.389 177.218 237.343 177.172 237.297 177.172C237.293 177.172 237.278 177.171 237.253 177.168L237.253 177.168C236.427 177.101 224.411 176.112 211.389 187.061C204.379 192.957 202.429 199.875 202.057 204.657C201.732 208.79 202.475 212.04 202.8 213.2C202.197 214.779 201.361 217.1 201.036 219.607L198.018 218.54C198.157 217.007 198.761 211.157 202.011 199.968C205.864 186.736 201.036 175.732 200.989 175.64C200.989 175.593 200.943 175.593 200.897 175.593H200.804C200.711 175.64 191.657 181.536 188.825 196.486C186.597 208.232 193.282 215.336 196.347 217.936L195.464 217.611C192.957 216.729 190.589 215.475 188.5 213.85L187.85 213.34C187.897 213.107 187.897 212.875 187.897 212.597C187.897 208.929 185.204 205.865 181.629 205.307H183.347C183.95 205.307 184.507 205.122 184.972 204.75C185.436 204.379 185.761 203.868 185.9 203.265L193.422 170.718C193.514 170.347 193.514 169.929 193.422 169.557C193.375 169.418 193.329 169.279 193.282 169.186L193.654 167.515C195.139 166.586 196.579 165.565 197.972 164.357C202.707 160.179 208.232 152.657 207.536 140.4C206.192 116.588 191.213 112.653 180.262 109.776L180.189 109.757L180.05 109.711C174.226 108.186 172.958 105.142 171.343 101.266L171.322 101.215L171.27 101.089C170.075 98.194 168.716 94.8976 165.1 91.511C161.897 88.4931 156.093 86.6824 151.636 87.2396C149.222 87.5646 147.457 88.5396 146.482 90.0717C146.389 90.1646 146.297 90.2574 146.204 90.3967L145.554 91.186L145.414 91.3253C141.05 94.2503 138.682 97.8253 138.404 102.05C137.893 108.69 142.722 115.329 145.786 118.857C137.939 122.897 127.075 134.829 126.518 135.479C126.518 135.502 126.506 135.514 126.495 135.525C126.483 135.537 126.472 135.548 126.472 135.572C126.472 135.618 126.472 135.618 126.518 135.665L128.793 137.475L125.264 141.05L118.068 139.007L104.604 126.379L104.232 123.407C105.625 122.665 107.575 121.69 109.525 120.854C111.429 120.065 114.911 118.022 115.839 115.468C115.917 115.313 115.962 115.125 116.002 114.958C116.01 114.926 116.018 114.895 116.025 114.865V114.632C116.025 114.586 116.025 114.493 116.072 114.4V114.261C116.072 114.029 116.072 113.797 116.025 113.565C115.979 113.193 115.839 112.775 115.654 112.404C115.654 112.357 115.561 112.311 115.514 112.357C115.486 112.357 114.535 112.519 113.111 112.762L113.108 112.762L113.107 112.762C109.953 113.299 104.48 114.231 101.539 114.679C97.8251 115.282 95.643 117.186 92.9501 120.575L92.4859 121.179C92.1144 121.643 91.6966 122.107 91.1859 122.525C90.8609 122.386 90.4894 122.432 90.2573 122.711C90.0716 122.897 89.9787 123.222 90.0251 123.454C86.7751 125.822 81.993 127.632 78.2323 128.282C75.6323 128.747 72.3358 129.257 69.5966 129.582C66.874 129.934 66.1035 130.202 65.9101 130.269L65.9083 130.27C65.898 130.273 65.8894 130.276 65.8823 130.279C64.8144 130.418 63.7466 130.79 62.7716 131.3C61.8894 131.44 60.3109 131.44 57.943 130.929C55.8073 130.465 49.4466 127.122 49.4001 127.075C49.3537 127.029 49.3073 127.075 49.2609 127.122C49.2144 127.168 49.2144 127.215 49.2609 127.261C49.3073 127.307 53.0216 130.882 56.0394 132.182C57.5716 132.832 58.9644 133.204 60.0323 133.39C59.6609 133.761 59.2894 134.225 58.9644 134.643C57.1537 137.104 56.318 140.122 56.7823 142.722C57.7482 148.287 55.0689 149.888 54.793 150.053L54.7859 150.057C54.6466 150.057 54.5073 150.15 54.4609 150.29C53.718 151.357 55.0644 156.604 55.3894 157.718H41.7394C41.1823 157.718 40.6251 157.857 40.1609 158.09C39.6501 158.322 39.2323 158.693 38.9073 159.111C38.5823 159.529 38.3501 160.04 38.2109 160.597C38.118 161.154 38.118 161.711 38.2573 162.222L48.4716 200.386C48.4716 200.409 48.4832 200.432 48.4948 200.456C48.5064 200.479 48.518 200.502 48.518 200.525L49.168 202.893C49.3537 203.636 49.818 204.332 50.468 204.797C50.8394 205.075 51.2109 205.261 51.6751 205.4C48.1001 205.911 45.3144 208.975 45.3144 212.69V212.736C45.3144 216.265 47.8216 219.236 51.1644 219.932L45.3608 252.525C45.3144 252.85 45.3144 253.175 45.4073 253.454C45.5001 253.779 45.6394 254.057 45.8251 254.29C46.0109 254.522 46.2894 254.707 46.568 254.847C46.8466 254.986 47.1716 255.032 47.4966 255.032C47.9609 255.032 48.3787 254.893 48.7501 254.615C49.1216 254.336 49.4001 253.965 49.5394 253.547L60.218 220.072H126.704L120.9 252.479C120.854 252.804 120.854 253.129 120.947 253.407C121.039 253.732 121.179 254.011 121.364 254.243C121.55 254.475 121.829 254.661 122.107 254.8C122.386 254.94 122.711 254.986 123.036 254.986C123.5 254.986 123.918 254.847 124.336 254.568C124.707 254.29 124.986 253.918 125.125 253.5L135.804 220.025H138.589L149.268 253.5C149.407 253.918 149.686 254.336 150.057 254.568C150.429 254.847 150.893 254.986 151.357 254.986C151.682 254.986 152.007 254.893 152.286 254.8C152.564 254.661 152.843 254.475 153.029 254.243C153.214 254.011 153.4 253.732 153.447 253.407C153.539 253.082 153.539 252.804 153.493 252.479L147.643 220.118H170.857L181.536 253.593C181.675 254.011 181.954 254.429 182.325 254.661C182.697 254.94 183.161 255.079 183.625 255.079C183.95 255.079 184.275 254.986 184.554 254.893C184.832 254.754 185.111 254.568 185.297 254.336C185.482 254.104 185.668 253.825 185.714 253.5C185.807 253.175 185.807 252.897 185.761 252.572L182.047 231.632C185.204 229.079 189.243 226.015 191.611 224.993C192.122 224.761 192.679 224.529 193.236 224.297C195.325 226.572 197.507 228.8 198.389 229.543C198.761 229.868 199.272 230.24 199.829 230.611H187.943C187.923 230.611 187.912 230.611 187.902 230.615C187.888 230.619 187.877 230.631 187.85 230.657C187.833 230.674 187.822 230.685 187.815 230.694C187.813 230.697 187.812 230.7 187.81 230.702C187.804 230.714 187.804 230.726 187.804 230.75C187.804 234.882 188.639 238.922 190.264 242.729C191.889 246.536 194.211 249.925 197.229 252.757L197.322 252.85C199.318 254.754 201.964 255.822 204.704 255.822H204.797C207.582 255.775 210.229 254.707 212.225 252.711C215.104 249.879 217.332 246.536 218.864 242.822C220.397 239.107 221.186 235.161 221.186 231.122V230.797C221.186 230.75 221.139 230.704 221.047 230.704H210.043C210.066 230.634 210.078 230.565 210.089 230.495C210.101 230.425 210.113 230.356 210.136 230.286C210.879 227.268 212.411 224.482 213.339 222.904C216.822 223.461 221.232 224.065 226.2 224.343C226.804 224.39 227.453 224.39 228.103 224.39H228.104C239.142 224.39 253.618 219.277 254.482 218.971L254.484 218.971C254.505 218.963 254.518 218.959 254.522 218.957C254.568 218.957 254.614 218.911 254.614 218.865C254.614 218.679 254.568 218.632 254.522 218.632ZM101.586 134.318C101.586 133.761 101.539 133.204 101.493 132.647C101.614 132.8 101.737 132.959 101.863 133.121L101.865 133.123C102.271 133.647 102.704 134.205 103.164 134.736L101.586 134.318ZM79.9966 144.579L76.5144 157.718H62.7251C62.3073 156.975 61.6109 156.232 61.2394 156.047L61.2859 151.218C61.8894 151.125 64.9537 150.382 68.8073 144.3C69.6894 142.954 71.0823 139.982 71.4073 139.286C71.8716 139.332 72.2894 139.379 72.7537 139.518C75.6787 140.54 78.743 141.282 82.0394 140.818C81.1109 141.84 80.4144 143.14 79.9966 144.579ZM57.5251 151.961C57.618 151.961 57.8501 151.915 58.0823 151.822C58.3373 153.862 59.0204 156.447 59.1696 157.012C59.1834 157.064 59.1926 157.099 59.1966 157.115C59.243 157.3 59.2894 157.486 59.3823 157.672H58.3609C58.0359 157.254 57.6644 156.882 57.4323 156.79L57.5251 151.961ZM209.875 230.164L209.875 230.164C209.84 230.298 209.811 230.408 209.811 230.518H207.675L211.436 222.393C211.946 222.486 212.502 222.579 213.058 222.671L213.061 222.672C212.132 224.297 210.647 227.082 209.904 230.054C209.894 230.092 209.884 230.129 209.875 230.164Z" fill="url(#paint1_linear_2340_153015)" style="mix-blend-mode:overlay"/>
<path d="M95.2716 81.0181V102.236C95.2716 106.182 92.068 109.432 88.0287 109.386H24.0037C21.868 109.386 19.9645 108.457 18.6645 106.972C16.2502 106.368 14.4395 104.139 14.4395 101.539V76.9788C14.4395 73.8681 16.9466 71.3609 20.0573 71.3609H87.4716C90.1645 71.3609 92.393 73.2181 92.9502 75.7252C94.3895 77.0252 95.2716 78.9288 95.2716 81.0181Z" fill="url(#paint2_linear_2340_153015)" style="mix-blend-mode:overlay"/>
</g>
<defs>
<linearGradient id="paint0_linear_2340_153015" x1="254.614" y1="129.585" x2="14.4395" y2="129.585" gradientUnits="userSpaceOnUse">
<stop stop-color="#E60050"/>
<stop offset="1" stop-color="#5D6AE8"/>
</linearGradient>
<linearGradient id="paint1_linear_2340_153015" x1="254.614" y1="129.585" x2="14.4395" y2="129.585" gradientUnits="userSpaceOnUse">
<stop stop-color="#E60050"/>
<stop offset="1" stop-color="#5D6AE8"/>
</linearGradient>
<linearGradient id="paint2_linear_2340_153015" x1="254.614" y1="129.585" x2="14.4395" y2="129.585" gradientUnits="userSpaceOnUse">
<stop stop-color="#E60050"/>
<stop offset="1" stop-color="#5D6AE8"/>
</linearGradient>
<clipPath id="clip0_2340_153015">
<rect width="260" height="260" fill="white"/>
</clipPath>
</defs>
</svg>
