<svg width="260" height="260" viewBox="0 0 260 260" fill="none" xmlns="http://www.w3.org/2000/svg">
<path d="M180.669 7.91943H87.3511C78.9668 7.91943 72.1699 14.7163 72.1699 23.1006V64.2766C72.1699 72.6609 78.9668 79.4578 87.3511 79.4578H180.669C189.054 79.4578 195.851 72.6609 195.851 64.2766V23.1006C195.851 14.7163 189.054 7.91943 180.669 7.91943Z" fill="#E5E5E5"/>
<path d="M189.88 12.1094H78.1408C77.2486 12.1094 76.5254 12.8326 76.5254 13.7248V45.4148C76.5254 46.3069 77.2486 47.0301 78.1408 47.0301H189.88C190.773 47.0301 191.496 46.3069 191.496 45.4148V13.7248C191.496 12.8326 190.773 12.1094 189.88 12.1094Z" fill="white"/>
<path d="M189.647 49.436H167.263C166.249 49.436 165.428 50.2576 165.428 51.271V73.6553C165.428 74.6688 166.249 75.4903 167.263 75.4903H189.647C190.66 75.4903 191.482 74.6688 191.482 73.6553V51.271C191.482 50.2576 190.66 49.436 189.647 49.436Z" fill="white"/>
<path fill-rule="evenodd" clip-rule="evenodd" d="M145.367 24.3258C145.119 24.3259 144.882 24.4242 144.708 24.5991C144.533 24.774 144.435 25.0111 144.435 25.2583V43.7683C144.435 44.0155 144.533 44.2525 144.708 44.4273C144.882 44.602 145.12 44.7002 145.367 44.7002H145.833C146.08 44.7002 146.317 44.602 146.492 44.4273C146.667 44.2525 146.765 44.0155 146.765 43.7683V25.2565C146.765 25.0093 146.667 24.7722 146.492 24.5973C146.317 24.4224 146.08 24.3241 145.833 24.324L145.367 24.3258ZM141.173 30.7197C141.173 30.4726 141.271 30.2355 141.446 30.0607C141.62 29.886 141.857 29.7878 142.105 29.7878H142.571C142.818 29.7878 143.055 29.886 143.23 30.0607C143.405 30.2355 143.503 30.4726 143.503 30.7197V43.7689C143.503 44.0161 143.405 44.2531 143.23 44.4279C143.055 44.6027 142.818 44.7008 142.571 44.7008H142.105C141.857 44.7008 141.62 44.6027 141.446 44.4279C141.271 44.2531 141.173 44.0161 141.173 43.7689V30.7197ZM138.842 26.0594C138.595 26.0594 138.358 26.1576 138.183 26.3323C138.009 26.5071 137.91 26.7442 137.91 26.9913V43.7689C137.91 43.8913 137.934 44.0125 137.981 44.1256C138.028 44.2387 138.097 44.3415 138.183 44.4281C138.27 44.5146 138.373 44.5833 138.486 44.6301C138.599 44.6769 138.72 44.7009 138.842 44.7008H139.308C139.431 44.7009 139.552 44.6769 139.665 44.6301C139.778 44.5833 139.881 44.5146 139.967 44.4281C140.054 44.3415 140.123 44.2388 140.17 44.1257C140.217 44.0126 140.241 43.8913 140.241 43.7689V26.9907C140.241 26.7435 140.142 26.5065 139.967 26.3317C139.792 26.1569 139.555 26.0588 139.308 26.0588L138.842 26.0594ZM134.648 24.6611C134.648 24.5388 134.672 24.4176 134.719 24.3045C134.766 24.1914 134.834 24.0887 134.921 24.0022C135.007 23.9156 135.11 23.847 135.223 23.8001C135.336 23.7533 135.457 23.7292 135.58 23.7292H136.046C136.168 23.7292 136.29 23.7533 136.403 23.8001C136.516 23.847 136.618 23.9156 136.705 24.0022C136.791 24.0887 136.86 24.1914 136.907 24.3045C136.954 24.4176 136.978 24.5388 136.978 24.6611V43.7689C136.978 44.0161 136.88 44.2531 136.705 44.4279C136.53 44.6027 136.293 44.7008 136.046 44.7008H135.58C135.333 44.7008 135.095 44.6027 134.921 44.4279C134.746 44.2531 134.648 44.0161 134.648 43.7689V24.6611ZM125.793 17.8268C125.546 17.8268 125.309 17.925 125.134 18.0998C124.959 18.2745 124.861 18.5116 124.861 18.7588V43.7683C124.861 43.8907 124.885 44.012 124.932 44.1251C124.979 44.2382 125.047 44.3409 125.134 44.4275C125.221 44.514 125.323 44.5827 125.436 44.6295C125.55 44.6763 125.671 44.7003 125.793 44.7002H126.259C126.381 44.7003 126.503 44.6763 126.616 44.6295C126.729 44.5827 126.832 44.514 126.918 44.4275C127.005 44.3409 127.074 44.2382 127.121 44.1251C127.167 44.012 127.192 43.8907 127.192 43.7683V18.7588C127.191 18.5116 127.093 18.2745 126.918 18.0998C126.743 17.925 126.506 17.8268 126.259 17.8268H125.793ZM119.268 23.2623C119.021 23.2629 118.785 23.3615 118.611 23.5363C118.436 23.7111 118.338 23.948 118.338 24.1949V43.7683C118.338 44.0155 118.436 44.2525 118.611 44.4273C118.786 44.602 119.023 44.7002 119.27 44.7002H119.737C119.984 44.7002 120.221 44.602 120.395 44.4273C120.57 44.2525 120.668 44.0155 120.668 43.7683V24.1949C120.668 23.9476 120.57 23.7105 120.396 23.5357C120.221 23.3608 119.984 23.2625 119.737 23.2623H119.268ZM108.549 36.7777C108.549 36.5306 108.648 36.2935 108.822 36.1187C108.997 35.944 109.234 35.8458 109.481 35.8458H109.948C110.195 35.8458 110.432 35.944 110.607 36.1187C110.781 36.2935 110.88 36.5306 110.88 36.7777V43.7683C110.88 44.0155 110.781 44.2525 110.607 44.4273C110.432 44.602 110.195 44.7002 109.948 44.7002H109.481C109.234 44.7002 108.997 44.602 108.822 44.4273C108.648 44.2525 108.549 44.0155 108.549 43.7683V36.7777ZM106.219 37.7097C105.972 37.7097 105.735 37.8079 105.56 37.9827C105.385 38.1574 105.287 38.3945 105.287 38.6416V43.7689C105.287 43.8913 105.311 44.0125 105.358 44.1255C105.405 44.2386 105.474 44.3413 105.56 44.4279C105.647 44.5144 105.75 44.5831 105.863 44.6299C105.976 44.6767 106.097 44.7008 106.219 44.7008H106.686C106.808 44.7008 106.929 44.6767 107.042 44.6299C107.155 44.5831 107.258 44.5144 107.345 44.4279C107.431 44.3413 107.5 44.2386 107.547 44.1255C107.593 44.0125 107.618 43.8913 107.618 43.7689V38.6416C107.618 38.3945 107.519 38.1574 107.345 37.9827C107.17 37.8079 106.933 37.7097 106.686 37.7097H106.219ZM88.976 40.0399C88.976 39.7927 89.0742 39.5557 89.249 39.3809C89.4238 39.2061 89.6608 39.1079 89.908 39.1079H90.3743C90.6214 39.1079 90.8585 39.2061 91.0333 39.3809C91.208 39.5557 91.3062 39.7927 91.3062 40.0399V43.7683C91.3062 44.0155 91.208 44.2525 91.0333 44.4273C90.8585 44.602 90.6214 44.7002 90.3743 44.7002H89.908C89.6608 44.7002 89.4238 44.602 89.249 44.4273C89.0742 44.2525 88.976 44.0155 88.976 43.7683V40.0399ZM86.6459 40.0399C86.3985 40.0399 86.1613 40.1381 85.9864 40.313C85.8115 40.4879 85.7133 40.7251 85.7133 40.9724V43.7683C85.7133 43.8907 85.7374 44.012 85.7843 44.1251C85.8312 44.2382 85.8999 44.3409 85.9865 44.4275C86.0731 44.514 86.1759 44.5827 86.289 44.6295C86.4022 44.6763 86.5234 44.7003 86.6459 44.7002H87.1115C87.2339 44.7003 87.3552 44.6763 87.4683 44.6295C87.5814 44.5826 87.6841 44.514 87.7707 44.4275C87.8572 44.3409 87.9259 44.2381 87.9727 44.125C88.0195 44.0119 88.0436 43.8907 88.0435 43.7683V40.9724C88.0436 40.85 88.0195 40.7287 87.9727 40.6156C87.9259 40.5025 87.8573 40.3997 87.7707 40.313C87.6842 40.2264 87.5814 40.1577 87.4683 40.1109C87.3552 40.064 87.234 40.0399 87.1115 40.0399H86.6459ZM83.3831 41.6685C83.1359 41.6687 82.8988 41.767 82.7241 41.9419C82.5493 42.1167 82.4512 42.3539 82.4512 42.6011V43.7659C82.4512 44.013 82.5493 44.2501 82.7241 44.4249C82.8989 44.5996 83.1359 44.6978 83.3831 44.6978H83.8494C84.0966 44.6978 84.3336 44.5996 84.5084 44.4249C84.6832 44.2501 84.7813 44.013 84.7813 43.7659V42.6011C84.7813 42.3539 84.6832 42.1167 84.5084 41.9419C84.3337 41.767 84.0966 41.6687 83.8494 41.6685H83.3831ZM93.1701 39.5718C92.9229 39.5718 92.6859 39.67 92.5111 39.8447C92.3363 40.0195 92.2382 40.2566 92.2382 40.5037V43.7659C92.2382 44.013 92.3363 44.2501 92.5111 44.4249C92.6859 44.5996 92.9229 44.6978 93.1701 44.6978H93.6364C93.8836 44.6978 94.1206 44.5996 94.2954 44.4249C94.4702 44.2501 94.5684 44.013 94.5684 43.7659V40.5037C94.5684 40.2566 94.4702 40.0195 94.2954 39.8447C94.1206 39.67 93.8836 39.5718 93.6364 39.5718H93.1701ZM95.5003 40.7366C95.5003 40.4894 95.5985 40.2524 95.7733 40.0776C95.948 39.9028 96.1851 39.8046 96.4323 39.8046H96.8985C97.1457 39.8046 97.3827 39.9028 97.5575 40.0776C97.7323 40.2524 97.8305 40.4894 97.8305 40.7366V43.7659C97.8305 44.013 97.7323 44.2501 97.5575 44.4249C97.3827 44.5996 97.1457 44.6978 96.8985 44.6978H96.4323C96.1851 44.6978 95.948 44.5996 95.7733 44.4249C95.5985 44.2501 95.5003 44.013 95.5003 43.7659V40.7366ZM99.695 39.1079C99.4478 39.1079 99.2107 39.2061 99.0358 39.3808C98.8609 39.5556 98.7626 39.7926 98.7625 40.0399V43.7683C98.7625 43.8907 98.7866 44.012 98.8334 44.1251C98.8803 44.2382 98.949 44.3409 99.0356 44.4275C99.1222 44.514 99.225 44.5827 99.3382 44.6295C99.4513 44.6763 99.5726 44.7003 99.695 44.7002H100.161C100.283 44.7003 100.404 44.6763 100.517 44.6295C100.631 44.5826 100.733 44.514 100.82 44.4275C100.906 44.3409 100.975 44.2381 101.022 44.125C101.069 44.0119 101.093 43.8907 101.093 43.7683V40.0399C101.093 39.7927 100.994 39.5557 100.82 39.3809C100.645 39.2061 100.408 39.1079 100.161 39.1079H99.695ZM102.025 40.2733C102.025 40.0261 102.123 39.789 102.298 39.6141C102.473 39.4392 102.71 39.3409 102.957 39.3408H103.423C103.671 39.3409 103.908 39.4392 104.082 39.6141C104.257 39.789 104.355 40.0261 104.355 40.2733V43.7683C104.355 44.0155 104.257 44.2525 104.082 44.4273C103.908 44.602 103.671 44.7002 103.423 44.7002H102.957C102.709 44.7002 102.472 44.602 102.298 44.4273C102.123 44.2525 102.025 44.0155 102.025 43.7683L102.025 40.2733ZM112.744 37.9431C112.622 37.943 112.5 37.9671 112.387 38.0139C112.274 38.0607 112.171 38.1293 112.085 38.2159C111.998 38.3024 111.929 38.4052 111.883 38.5183C111.836 38.6314 111.812 38.7526 111.812 38.8751V43.7683C111.812 43.8907 111.836 44.012 111.883 44.1251C111.929 44.2382 111.998 44.3409 112.085 44.4275C112.171 44.514 112.274 44.5827 112.387 44.6295C112.5 44.6763 112.622 44.7003 112.744 44.7002H113.211C113.333 44.7003 113.455 44.6763 113.568 44.6295C113.681 44.5827 113.784 44.514 113.87 44.4275C113.957 44.3409 114.026 44.2382 114.073 44.1251C114.119 44.012 114.144 43.8907 114.144 43.7683V38.8751C114.144 38.7526 114.119 38.6314 114.073 38.5183C114.026 38.4052 113.957 38.3024 113.87 38.2159C113.784 38.1293 113.681 38.0607 113.568 38.0139C113.455 37.9671 113.333 37.943 113.211 37.9431H112.744ZM166.359 37.9431C166.112 37.9431 165.875 38.0413 165.7 38.2161C165.526 38.3909 165.427 38.6279 165.427 38.8751V43.7683C165.427 44.0155 165.526 44.2525 165.7 44.4273C165.875 44.602 166.112 44.7002 166.359 44.7002H166.826C167.073 44.7002 167.31 44.602 167.485 44.4273C167.659 44.2525 167.758 44.0155 167.758 43.7683V38.8751C167.758 38.6279 167.659 38.3909 167.485 38.2161C167.31 38.0413 167.073 37.9431 166.826 37.9431H166.359ZM115.074 43.3026C115.074 43.0554 115.172 42.8183 115.347 42.6434C115.522 42.4685 115.759 42.3702 116.006 42.3701H116.473C116.72 42.3702 116.957 42.4685 117.132 42.6434C117.306 42.8183 117.405 43.0554 117.405 43.3026V43.7683C117.405 44.0155 117.306 44.2525 117.132 44.4273C116.957 44.602 116.72 44.7002 116.473 44.7002H116.006C115.759 44.7002 115.522 44.602 115.347 44.4273C115.173 44.2525 115.074 44.0155 115.074 43.7683V43.3026ZM157.742 43.3026C157.742 43.1802 157.766 43.0589 157.813 42.9458C157.86 42.8326 157.928 42.7298 158.015 42.6432C158.101 42.5566 158.204 42.4879 158.317 42.441C158.43 42.3942 158.552 42.3701 158.674 42.3701H159.14C159.387 42.3701 159.624 42.4683 159.799 42.6432C159.974 42.8181 160.072 43.0553 160.072 43.3026V43.7683C160.072 43.8907 160.048 44.012 160.001 44.1251C159.954 44.2382 159.886 44.3409 159.799 44.4275C159.712 44.514 159.61 44.5827 159.497 44.6295C159.383 44.6763 159.262 44.7003 159.14 44.7002H158.674C158.552 44.7003 158.43 44.6763 158.317 44.6295C158.204 44.5826 158.101 44.514 158.015 44.4275C157.928 44.3409 157.86 44.2381 157.813 44.125C157.766 44.0119 157.742 43.8907 157.742 43.7683V43.3026ZM161.445 43.3026C161.445 43.0554 161.543 42.8183 161.718 42.6434C161.893 42.4685 162.13 42.3702 162.377 42.3701H162.843C163.091 42.3702 163.328 42.4685 163.502 42.6434C163.677 42.8183 163.775 43.0554 163.775 43.3026V43.7683C163.775 44.0155 163.677 44.2525 163.502 44.4273C163.328 44.602 163.091 44.7002 162.843 44.7002H162.377C162.13 44.7002 161.893 44.602 161.718 44.4273C161.543 44.2525 161.445 44.0155 161.445 43.7683V43.3026ZM121.599 15.8061C121.599 15.5589 121.697 15.3218 121.872 15.1469C122.046 14.972 122.283 14.8737 122.531 14.8735H122.997C123.244 14.8737 123.481 14.972 123.656 15.1469C123.831 15.3218 123.929 15.5589 123.929 15.8061V43.7683C123.929 44.0155 123.831 44.2525 123.656 44.4273C123.481 44.602 123.244 44.7002 122.997 44.7002H122.531C122.283 44.7002 122.046 44.602 121.872 44.4273C121.697 44.2525 121.599 44.0155 121.599 43.7683V15.8061ZM128.123 27.457C128.123 27.2098 128.222 26.9728 128.396 26.798C128.571 26.6232 128.808 26.5251 129.055 26.5251H129.522C129.769 26.5251 130.006 26.6232 130.181 26.798C130.355 26.9728 130.454 27.2098 130.454 27.457V43.7683C130.454 44.0155 130.355 44.2525 130.181 44.4273C130.006 44.602 129.769 44.7002 129.522 44.7002H129.055C128.808 44.7002 128.571 44.602 128.396 44.4273C128.222 44.2525 128.123 44.0155 128.123 43.7683V27.457ZM132.318 26.5251C132.07 26.5251 131.833 26.6232 131.659 26.798C131.484 26.9728 131.386 27.2098 131.386 27.457V43.7683C131.386 44.0155 131.484 44.2525 131.659 44.4273C131.833 44.602 132.07 44.7002 132.318 44.7002H132.784C133.031 44.7002 133.268 44.602 133.443 44.4273C133.618 44.2525 133.716 44.0155 133.716 43.7683V27.457C133.716 27.2098 133.618 26.9728 133.443 26.798C133.268 26.6232 133.031 26.5251 132.784 26.5251H132.318ZM147.699 34.6804C147.699 34.4332 147.797 34.1962 147.972 34.0214C148.147 33.8466 148.384 33.7484 148.631 33.7484H149.098C149.345 33.7484 149.582 33.8466 149.757 34.0214C149.931 34.1962 150.029 34.4332 150.029 34.6804V43.7683C150.029 44.0155 149.931 44.2525 149.757 44.4273C149.582 44.602 149.345 44.7002 149.098 44.7002H148.631C148.384 44.7002 148.147 44.602 147.972 44.4273C147.797 44.2525 147.699 44.0155 147.699 43.7683V34.6804ZM151.894 31.1854C151.647 31.1854 151.41 31.2836 151.235 31.4584C151.06 31.6332 150.962 31.8702 150.962 32.1174V43.7683C150.962 43.8907 150.986 44.0119 151.033 44.125C151.08 44.2381 151.148 44.3409 151.235 44.4275C151.321 44.514 151.424 44.5826 151.537 44.6295C151.65 44.6763 151.772 44.7003 151.894 44.7002H152.359C152.481 44.7003 152.603 44.6763 152.716 44.6295C152.829 44.5827 152.932 44.514 153.018 44.4275C153.105 44.3409 153.174 44.2382 153.221 44.1251C153.267 44.012 153.292 43.8907 153.292 43.7683V32.1174C153.291 31.8701 153.193 31.6331 153.018 31.4583C152.843 31.2836 152.606 31.1854 152.359 31.1854H151.894ZM154.224 28.1561C154.224 27.9089 154.322 27.6719 154.497 27.4971C154.672 27.3224 154.909 27.2242 155.156 27.2242H155.622C155.87 27.2242 156.107 27.3224 156.281 27.4971C156.456 27.6719 156.554 27.9089 156.554 28.1561V43.7683C156.554 44.0155 156.456 44.2525 156.281 44.4273C156.107 44.602 155.87 44.7002 155.622 44.7002H155.156C154.909 44.7002 154.672 44.602 154.497 44.4273C154.322 44.2525 154.224 44.0155 154.224 43.7683V28.1561ZM171.111 34.4476C170.864 34.4476 170.627 34.5457 170.452 34.7205C170.277 34.8953 170.179 35.1323 170.179 35.3795V43.7683C170.179 43.8907 170.203 44.0119 170.25 44.125C170.297 44.2381 170.365 44.3409 170.452 44.4275C170.538 44.514 170.641 44.5826 170.754 44.6295C170.867 44.6763 170.988 44.7003 171.111 44.7002H171.577C171.699 44.7003 171.82 44.6763 171.933 44.6295C172.047 44.5827 172.149 44.514 172.236 44.4275C172.323 44.3409 172.391 44.2382 172.438 44.1251C172.485 44.012 172.509 43.8907 172.509 43.7683V35.3795C172.509 35.1323 172.411 34.8952 172.236 34.7205C172.061 34.5457 171.824 34.4476 171.577 34.4476H171.111ZM173.588 30.02C173.588 29.7729 173.686 29.5358 173.861 29.361C174.035 29.1863 174.272 29.0881 174.52 29.0881H174.986C175.233 29.0881 175.47 29.1863 175.645 29.361C175.82 29.5358 175.918 29.7729 175.918 30.02V43.7683C175.918 44.0155 175.82 44.2525 175.645 44.4273C175.47 44.602 175.233 44.7002 174.986 44.7002H174.52C174.272 44.7002 174.035 44.602 173.861 44.4273C173.686 44.2525 173.588 44.0155 173.588 43.7683V30.02ZM177.782 29.7872C177.535 29.7872 177.298 29.8854 177.123 30.0601C176.948 30.2349 176.85 30.4719 176.85 30.7191V43.7683C176.85 43.8907 176.874 44.012 176.921 44.1251C176.968 44.2382 177.036 44.3409 177.123 44.4275C177.21 44.514 177.312 44.5827 177.426 44.6295C177.539 44.6763 177.66 44.7003 177.782 44.7002H178.248C178.37 44.7003 178.492 44.6763 178.605 44.6295C178.718 44.5826 178.821 44.514 178.907 44.4275C178.994 44.3409 179.062 44.2381 179.109 44.125C179.156 44.0119 179.18 43.8907 179.18 43.7683V30.7191C179.18 30.472 179.082 30.2349 178.907 30.0602C178.732 29.8854 178.495 29.7872 178.248 29.7872H177.782ZM180.113 28.6182C180.113 28.371 180.211 28.134 180.385 27.9592C180.56 27.7844 180.797 27.6862 181.044 27.6862H181.511C181.758 27.6862 181.995 27.7844 182.17 27.9592C182.345 28.134 182.443 28.371 182.443 28.6182V43.7683C182.443 44.0155 182.345 44.2525 182.17 44.4273C181.995 44.602 181.758 44.7002 181.511 44.7002H181.044C180.797 44.7002 180.56 44.602 180.385 44.4273C180.211 44.2525 180.113 44.0155 180.113 43.7683V28.6182ZM184.307 33.2822C184.059 33.2823 183.822 33.3806 183.648 33.5555C183.473 33.7304 183.375 33.9675 183.375 34.2147V43.7683C183.375 44.0155 183.473 44.2525 183.648 44.4273C183.822 44.602 184.059 44.7002 184.307 44.7002H184.773C185.02 44.7002 185.257 44.602 185.432 44.4273C185.607 44.2525 185.705 44.0155 185.705 43.7683V34.2147C185.705 33.9675 185.607 33.7304 185.432 33.5555C185.257 33.3806 185.02 33.2823 184.773 33.2822H184.307Z" fill="#808080"/>
<path d="M83.6152 14.1753L86.8774 30.9522L90.1395 22.3306L93.4017 37.7124L96.6644 34.6831L99.9265 33.5183L103.189 33.7511L106.451 34.6831L109.711 30.0221L112.973 32.3523L116.235 35.615L119.498 39.5763L122.76 38.178L126.022 35.8479L129.285 37.9452L132.547 39.3428L135.809 37.7142L139.072 38.1805L142.334 39.5787L145.596 42.1417L148.859 40.2766L152.121 37.0139L155.383 41.4414L158.646 42.8396L161.908 41.9077L165.17 41.4414L168.433 40.5094L171.695 42.6068L185.021 39.5775" stroke="#333333" stroke-width="1.28888" stroke-linecap="round" stroke-linejoin="round"/>
<path d="M83.6151 14.8738C84.0012 14.8738 84.3142 14.5608 84.3142 14.1747C84.3142 13.7886 84.0012 13.4756 83.6151 13.4756C83.229 13.4756 82.916 13.7886 82.916 14.1747C82.916 14.5608 83.229 14.8738 83.6151 14.8738Z" fill="white" stroke="#333333" stroke-width="1.28888"/>
<path d="M86.8788 31.6512C87.2649 31.6512 87.5779 31.3382 87.5779 30.952C87.5779 30.5659 87.2649 30.2529 86.8788 30.2529C86.4927 30.2529 86.1797 30.5659 86.1797 30.952C86.1797 31.3382 86.4927 31.6512 86.8788 31.6512Z" fill="white" stroke="#333333" stroke-width="1.28888"/>
<path d="M90.1405 23.0296C90.5266 23.0296 90.8396 22.7166 90.8396 22.3305C90.8396 21.9444 90.5266 21.6313 90.1405 21.6313C89.7544 21.6313 89.4414 21.9444 89.4414 22.3305C89.4414 22.7166 89.7544 23.0296 90.1405 23.0296Z" fill="white" stroke="#333333" stroke-width="1.28888"/>
<path d="M93.4022 38.409C93.7884 38.409 94.1014 38.096 94.1014 37.7099C94.1014 37.3237 93.7884 37.0107 93.4022 37.0107C93.0161 37.0107 92.7031 37.3237 92.7031 37.7099C92.7031 38.096 93.0161 38.409 93.4022 38.409Z" fill="white" stroke="#333333" stroke-width="1.28888"/>
<path d="M96.664 35.3797C97.0501 35.3797 97.3631 35.0667 97.3631 34.6806C97.3631 34.2945 97.0501 33.9814 96.664 33.9814C96.2778 33.9814 95.9648 34.2945 95.9648 34.6806C95.9648 35.0667 96.2778 35.3797 96.664 35.3797Z" fill="white" stroke="#333333" stroke-width="1.28888"/>
<path d="M99.9276 34.2146C100.314 34.2146 100.627 33.9016 100.627 33.5155C100.627 33.1294 100.314 32.8164 99.9276 32.8164C99.5415 32.8164 99.2285 33.1294 99.2285 33.5155C99.2285 33.9016 99.5415 34.2146 99.9276 34.2146Z" fill="white" stroke="#333333" stroke-width="1.28888"/>
<path d="M103.189 34.448C103.575 34.448 103.888 34.135 103.888 33.7489C103.888 33.3628 103.575 33.0498 103.189 33.0498C102.803 33.0498 102.49 33.3628 102.49 33.7489C102.49 34.135 102.803 34.448 103.189 34.448Z" fill="white" stroke="#333333" stroke-width="1.28888"/>
<path d="M106.451 35.3797C106.837 35.3797 107.15 35.0667 107.15 34.6806C107.15 34.2945 106.837 33.9814 106.451 33.9814C106.065 33.9814 105.752 34.2945 105.752 34.6806C105.752 35.0667 106.065 35.3797 106.451 35.3797Z" fill="white" stroke="#333333" stroke-width="1.28888"/>
<path d="M109.715 30.7195C110.101 30.7195 110.414 30.4065 110.414 30.0204C110.414 29.6343 110.101 29.3213 109.715 29.3213C109.329 29.3213 109.016 29.6343 109.016 30.0204C109.016 30.4065 109.329 30.7195 109.715 30.7195Z" fill="white" stroke="#333333" stroke-width="1.28888"/>
<path d="M112.976 33.0496C113.363 33.0496 113.676 32.7366 113.676 32.3505C113.676 31.9644 113.363 31.6514 112.976 31.6514C112.59 31.6514 112.277 31.9644 112.277 32.3505C112.277 32.7366 112.59 33.0496 112.976 33.0496Z" fill="white" stroke="#333333" stroke-width="1.28888"/>
<path d="M116.238 36.3113C116.624 36.3113 116.937 35.9983 116.937 35.6122C116.937 35.2261 116.624 34.9131 116.238 34.9131C115.852 34.9131 115.539 35.2261 115.539 35.6122C115.539 35.9983 115.852 36.3113 116.238 36.3113Z" fill="white" stroke="#333333" stroke-width="1.28888"/>
<path d="M119.502 40.2732C119.888 40.2732 120.201 39.9602 120.201 39.5741C120.201 39.188 119.888 38.875 119.502 38.875C119.116 38.875 118.803 39.188 118.803 39.5741C118.803 39.9602 119.116 40.2732 119.502 40.2732Z" fill="white" stroke="#333333" stroke-width="1.28888"/>
<path d="M122.764 38.8753C123.15 38.8753 123.463 38.5623 123.463 38.1762C123.463 37.7901 123.15 37.4771 122.764 37.4771C122.377 37.4771 122.064 37.7901 122.064 38.1762C122.064 38.5623 122.377 38.8753 122.764 38.8753Z" fill="white" stroke="#333333" stroke-width="1.28888"/>
<path d="M126.025 36.5447C126.411 36.5447 126.724 36.2317 126.724 35.8456C126.724 35.4595 126.411 35.1465 126.025 35.1465C125.639 35.1465 125.326 35.4595 125.326 35.8456C125.326 36.2317 125.639 36.5447 126.025 36.5447Z" fill="white" stroke="#333333" stroke-width="1.28888"/>
<path d="M129.289 38.6419C129.675 38.6419 129.988 38.3289 129.988 37.9428C129.988 37.5567 129.675 37.2437 129.289 37.2437C128.903 37.2437 128.59 37.5567 128.59 37.9428C128.59 38.3289 128.903 38.6419 129.289 38.6419Z" fill="white" stroke="#333333" stroke-width="1.28888"/>
<path d="M132.551 40.0398C132.937 40.0398 133.25 39.7268 133.25 39.3407C133.25 38.9546 132.937 38.6416 132.551 38.6416C132.165 38.6416 131.852 38.9546 131.852 39.3407C131.852 39.7268 132.165 40.0398 132.551 40.0398Z" fill="white" stroke="#333333" stroke-width="1.28888"/>
<path d="M135.812 38.409C136.199 38.409 136.512 38.096 136.512 37.7099C136.512 37.3237 136.199 37.0107 135.812 37.0107C135.426 37.0107 135.113 37.3237 135.113 37.7099C135.113 38.096 135.426 38.409 135.812 38.409Z" fill="white" stroke="#333333" stroke-width="1.28888"/>
<path d="M139.074 38.8753C139.46 38.8753 139.773 38.5623 139.773 38.1762C139.773 37.7901 139.46 37.4771 139.074 37.4771C138.688 37.4771 138.375 37.7901 138.375 38.1762C138.375 38.5623 138.688 38.8753 139.074 38.8753Z" fill="white" stroke="#333333" stroke-width="1.28888"/>
<path d="M142.338 40.2732C142.724 40.2732 143.037 39.9602 143.037 39.5741C143.037 39.188 142.724 38.875 142.338 38.875C141.952 38.875 141.639 39.188 141.639 39.5741C141.639 39.9602 141.952 40.2732 142.338 40.2732Z" fill="white" stroke="#333333" stroke-width="1.28888"/>
<path d="M145.6 42.8367C145.986 42.8367 146.299 42.5237 146.299 42.1376C146.299 41.7515 145.986 41.4385 145.6 41.4385C145.213 41.4385 144.9 41.7515 144.9 42.1376C144.9 42.5237 145.213 42.8367 145.6 42.8367Z" fill="white" stroke="#333333" stroke-width="1.28888"/>
<path d="M148.861 40.972C149.247 40.972 149.56 40.659 149.56 40.2728C149.56 39.8867 149.247 39.5737 148.861 39.5737C148.475 39.5737 148.162 39.8867 148.162 40.2728C148.162 40.659 148.475 40.972 148.861 40.972Z" fill="white" stroke="#333333" stroke-width="1.28888"/>
<path d="M152.123 37.7098C152.509 37.7098 152.822 37.3968 152.822 37.0106C152.822 36.6245 152.509 36.3115 152.123 36.3115C151.737 36.3115 151.424 36.6245 151.424 37.0106C151.424 37.3968 151.737 37.7098 152.123 37.7098Z" fill="white" stroke="#333333" stroke-width="1.28888"/>
<path d="M155.387 42.1375C155.773 42.1375 156.086 41.8245 156.086 41.4384C156.086 41.0523 155.773 40.7393 155.387 40.7393C155.001 40.7393 154.688 41.0523 154.688 41.4384C154.688 41.8245 155.001 42.1375 155.387 42.1375Z" fill="white" stroke="#333333" stroke-width="1.28888"/>
<path d="M158.648 43.5354C159.034 43.5354 159.347 43.2224 159.347 42.8363C159.347 42.4502 159.034 42.1372 158.648 42.1372C158.262 42.1372 157.949 42.4502 157.949 42.8363C157.949 43.2224 158.262 43.5354 158.648 43.5354Z" fill="white" stroke="#333333" stroke-width="1.28888"/>
<path d="M161.912 42.6038C162.298 42.6038 162.611 42.2908 162.611 41.9047C162.611 41.5186 162.298 41.2056 161.912 41.2056C161.526 41.2056 161.213 41.5186 161.213 41.9047C161.213 42.2908 161.526 42.6038 161.912 42.6038Z" fill="white" stroke="#333333" stroke-width="1.28888"/>
<path d="M165.174 42.1375C165.56 42.1375 165.873 41.8245 165.873 41.4384C165.873 41.0523 165.56 40.7393 165.174 40.7393C164.788 40.7393 164.475 41.0523 164.475 41.4384C164.475 41.8245 164.788 42.1375 165.174 42.1375Z" fill="white" stroke="#333333" stroke-width="1.28888"/>
<path d="M168.435 41.2054C168.822 41.2054 169.135 40.8924 169.135 40.5062C169.135 40.1201 168.822 39.8071 168.435 39.8071C168.049 39.8071 167.736 40.1201 167.736 40.5062C167.736 40.8924 168.049 41.2054 168.435 41.2054Z" fill="white" stroke="#333333" stroke-width="1.28888"/>
<path d="M178.012 41.7591C178.398 41.7591 178.711 41.4461 178.711 41.06C178.711 40.6739 178.398 40.3608 178.012 40.3608C177.626 40.3608 177.312 40.6739 177.312 41.06C177.312 41.4461 177.626 41.7591 178.012 41.7591Z" fill="white" stroke="#333333" stroke-width="1.28888"/>
<path d="M174.75 42.6038C175.136 42.6038 175.449 42.2908 175.449 41.9047C175.449 41.5186 175.136 41.2056 174.75 41.2056C174.364 41.2056 174.051 41.5186 174.051 41.9047C174.051 42.2908 174.364 42.6038 174.75 42.6038Z" fill="white" stroke="#333333" stroke-width="1.28888"/>
<path d="M171.697 43.302C172.083 43.302 172.396 42.989 172.396 42.6029C172.396 42.2168 172.083 41.9038 171.697 41.9038C171.311 41.9038 170.998 42.2168 170.998 42.6029C170.998 42.989 171.311 43.302 171.697 43.302Z" fill="white" stroke="#333333" stroke-width="1.28888"/>
<path fill-rule="evenodd" clip-rule="evenodd" d="M178.455 56.4424C177.254 56.4422 176.08 56.7983 175.081 57.4655C174.082 58.1327 173.304 59.0811 172.844 60.1907C172.384 61.3003 172.264 62.5214 172.498 63.6994C172.733 64.8774 173.311 65.9594 174.16 66.8087C175.01 67.658 176.092 68.2363 177.27 68.4706C178.448 68.7049 179.669 68.5846 180.778 68.1249C181.888 67.6652 182.836 66.8868 183.504 65.8881C184.171 64.8894 184.527 63.7153 184.527 62.5142C184.527 61.7168 184.37 60.9272 184.065 60.1905C183.76 59.4538 183.312 58.7844 182.748 58.2206C182.185 57.6567 181.515 57.2095 180.779 56.9044C180.042 56.5993 179.252 56.4423 178.455 56.4424V56.4424ZM168.904 62.5166C168.905 60.6278 169.465 58.7814 170.514 57.211C171.564 55.6405 173.056 54.4166 174.801 53.6939C176.546 52.9713 178.466 52.7823 180.319 53.1509C182.171 53.5196 183.873 54.4293 185.209 55.765C186.544 57.1007 187.454 58.8025 187.822 60.6551C188.19 62.5077 188.001 64.4279 187.278 66.173C186.555 67.918 185.331 69.4095 183.761 70.4589C182.19 71.5083 180.344 72.0684 178.455 72.0684C177.201 72.0683 175.959 71.8212 174.8 71.3411C173.641 70.8611 172.588 70.1575 171.701 69.2705C170.814 68.3835 170.111 67.3306 169.631 66.1717C169.151 65.0129 168.904 63.7709 168.904 62.5166V62.5166Z" fill="#4C4C4C"/>
<path fill-rule="evenodd" clip-rule="evenodd" d="M178.455 52.9653C180.703 52.9653 182.879 53.758 184.6 55.2038C186.32 56.6497 187.476 58.6561 187.864 60.8701C188.251 63.0841 187.845 65.3638 186.718 67.3081C185.59 69.2524 183.813 70.7368 181.699 71.5C179.585 72.2633 177.269 72.2566 175.16 71.481C173.05 70.7055 171.282 69.2108 170.165 67.26C169.049 65.3091 168.657 63.0271 169.057 60.8154C169.457 58.6037 170.625 56.6041 172.354 55.1682L174.576 57.8453C173.477 58.7579 172.736 60.0288 172.481 61.4343C172.227 62.8399 172.477 64.2901 173.186 65.5298C173.896 66.7695 175.02 67.7192 176.36 68.212C177.701 68.7048 179.173 68.7091 180.516 68.224C181.86 67.7389 182.989 66.7956 183.706 65.56C184.422 64.3244 184.68 62.8757 184.434 61.4687C184.188 60.0617 183.453 58.7866 182.36 57.8676C181.266 56.9487 179.884 56.4448 178.455 56.4446V52.9653Z" fill="#808080"/>
<path fill-rule="evenodd" clip-rule="evenodd" d="M178.457 52.9678C180.61 52.9682 182.7 53.6961 184.387 55.0332C186.075 56.3703 187.261 58.2383 187.753 60.3342C188.246 62.4301 188.016 64.6308 187.1 66.5795C186.185 68.5282 184.638 70.1105 182.711 71.0697C180.783 72.0289 178.588 72.3088 176.482 71.864C174.375 71.4191 172.481 70.2756 171.106 68.619C169.731 66.9624 168.956 64.8898 168.907 62.7374C168.858 60.585 169.537 58.4791 170.835 56.7613L173.61 58.8581C172.785 59.9501 172.354 61.2886 172.385 62.6565C172.417 64.0244 172.91 65.3415 173.784 66.3942C174.658 67.4468 175.862 68.1733 177.201 68.4558C178.54 68.7383 179.935 68.5602 181.16 67.9504C182.385 67.3406 183.368 66.3349 183.949 65.0964C184.531 63.8579 184.677 62.4592 184.364 61.1272C184.051 59.7952 183.297 58.608 182.225 57.7582C181.153 56.9083 179.825 56.4457 178.456 56.4453L178.457 52.9678Z" fill="#B3B3B3"/>
<path fill-rule="evenodd" clip-rule="evenodd" d="M178.455 52.9678C180.436 52.968 182.368 53.5843 183.984 54.7311C185.599 55.878 186.818 57.4988 187.471 59.369C188.125 61.2392 188.181 63.2663 187.631 65.1696C187.081 67.0729 185.953 68.7582 184.404 69.9921C182.854 71.2261 180.959 71.9476 178.981 72.0568C177.003 72.166 175.039 71.6574 173.363 70.6015C171.687 69.5457 170.381 67.9947 169.625 66.1635C168.869 64.3322 168.701 62.3113 169.145 60.3806L172.536 61.1599C172.254 62.3874 172.36 63.6721 172.841 64.8362C173.322 66.0003 174.152 66.9862 175.218 67.6573C176.284 68.3285 177.532 68.6517 178.789 68.5821C180.047 68.5126 181.251 68.0538 182.237 67.2693C183.222 66.4848 183.939 65.4134 184.288 64.2034C184.638 62.9934 184.602 61.7047 184.187 60.5158C183.771 59.3269 182.996 58.2965 181.969 57.5675C180.942 56.8384 179.714 56.4466 178.455 56.4465L178.455 52.9678Z" fill="#808080"/>
<path fill-rule="evenodd" clip-rule="evenodd" d="M178.453 52.9678C180.142 52.9676 181.801 53.4153 183.261 54.2652C184.72 55.1151 185.929 56.3369 186.762 57.8059C187.596 59.275 188.025 60.9388 188.006 62.6277C187.986 64.3167 187.52 65.9703 186.653 67.4201C185.787 68.8699 184.551 70.064 183.073 70.8806C181.594 71.6973 179.926 72.1073 178.237 72.0688C176.548 72.0304 174.9 71.5448 173.46 70.6617C172.021 69.7786 170.841 68.5295 170.041 67.0418L173.106 65.395C173.615 66.3404 174.365 67.1341 175.28 67.6951C176.195 68.2561 177.243 68.5644 178.316 68.5886C179.389 68.6129 180.45 68.3521 181.389 67.8329C182.329 67.3137 183.114 66.5547 183.665 65.6332C184.216 64.7117 184.512 63.6607 184.525 62.5872C184.537 61.5138 184.264 60.4563 183.734 59.5225C183.205 58.5887 182.437 57.8121 181.509 57.2717C180.582 56.7314 179.527 56.4466 178.454 56.4465L178.453 52.9678Z" fill="#B3B3B3"/>
<path fill-rule="evenodd" clip-rule="evenodd" d="M178.456 52.9678C180.883 52.971 183.218 53.8984 184.987 55.5613C186.755 57.2242 187.823 59.498 187.976 61.9205C188.128 64.3431 187.352 66.7326 185.805 68.6036C184.259 70.4746 182.058 71.6867 179.65 71.9935L179.211 68.5425C180.741 68.3472 182.14 67.5765 183.123 66.387C184.106 65.1975 184.599 63.6784 184.502 62.1384C184.406 60.5984 183.726 59.1529 182.602 58.0957C181.478 57.0385 179.994 56.4488 178.451 56.4465L178.456 52.9678Z" fill="#CCCCCC"/>
<path d="M161.466 49.5225H78.13C77.9172 49.5224 77.7065 49.5642 77.5099 49.6456C77.3132 49.727 77.1346 49.8464 76.9841 49.9968C76.8337 50.1473 76.7143 50.3259 76.6329 50.5226C76.5515 50.7192 76.5097 50.9299 76.5098 51.1427V73.7846C76.5097 73.9973 76.5515 74.208 76.6329 74.4046C76.7143 74.6012 76.8337 74.7798 76.9842 74.9302C77.1346 75.0806 77.3133 75.1999 77.5099 75.2812C77.7065 75.3626 77.9172 75.4043 78.13 75.4042H161.466C161.679 75.4043 161.89 75.3624 162.086 75.2811C162.283 75.1997 162.462 75.0804 162.612 74.93C162.763 74.7796 162.882 74.6011 162.963 74.4045C163.045 74.208 163.087 73.9973 163.087 73.7846V51.1427C163.087 50.713 162.916 50.3009 162.612 49.997C162.308 49.6932 161.896 49.5225 161.466 49.5225V49.5225Z" fill="white"/>
<path d="M82.7676 68.6271C82.7679 68.2101 82.9338 67.8103 83.2288 67.5155C83.5237 67.2208 83.9237 67.0552 84.3407 67.0552H92.2011C92.6181 67.0552 93.018 67.2208 93.3129 67.5156C93.6078 67.8103 93.7735 68.2102 93.7737 68.6271V72.3417H82.7676V68.6271Z" fill="#E5E5E5"/>
<path d="M95.3438 66.0654C95.3441 65.6482 95.5099 65.2483 95.8049 64.9533C96.0998 64.6584 96.4998 64.4925 96.9169 64.4922H104.777C105.194 64.4925 105.594 64.6584 105.889 64.9534C106.184 65.2484 106.349 65.6483 106.349 66.0654V72.3423H95.3438V66.0654Z" fill="#E5E5E5"/>
<path d="M107.922 62.4236C107.922 62.0066 108.088 61.6068 108.383 61.312C108.678 61.0172 109.078 60.8514 109.495 60.8511H117.355C117.772 60.8512 118.172 61.017 118.467 61.3119C118.762 61.6068 118.927 62.0067 118.927 62.4236V72.3488H107.922V62.4236Z" fill="#CCCCCC"/>
<path d="M120.5 65.4235C120.5 65.217 120.541 65.0126 120.62 64.8218C120.699 64.6311 120.815 64.4577 120.961 64.3118C121.107 64.1658 121.28 64.05 121.471 63.971C121.662 63.8921 121.866 63.8515 122.073 63.8516H129.933C130.139 63.8513 130.344 63.8919 130.535 63.9708C130.725 64.0498 130.899 64.1657 131.045 64.3118C131.339 64.6068 131.505 65.0066 131.505 65.4235V72.3423H120.5V65.4235Z" fill="#CCCCCC"/>
<path d="M133.076 59.3377C133.076 58.9206 133.242 58.5206 133.537 58.2257C133.832 57.9308 134.232 57.7651 134.649 57.7651H142.509C142.716 57.7649 142.92 57.8054 143.111 57.8844C143.302 57.9634 143.475 58.0793 143.621 58.2254C143.916 58.5205 144.081 58.9205 144.082 59.3377V72.3434H133.076V59.3377Z" fill="#B3B3B3"/>
<path d="M145.656 55.4909C145.656 55.2845 145.697 55.08 145.776 54.8893C145.855 54.6985 145.971 54.5252 146.116 54.3792C146.263 54.2332 146.436 54.1173 146.627 54.0384C146.818 53.9594 147.022 53.9188 147.229 53.9189H155.089C155.296 53.9185 155.5 53.9588 155.691 54.0376C155.882 54.1165 156.056 54.2322 156.202 54.3783C156.348 54.5244 156.464 54.6978 156.542 54.8888C156.621 55.0797 156.662 55.2843 156.661 55.4909V72.342H145.656V55.4909Z" fill="#B3B3B3"/>
<path d="M78.5215 72.4634H160.892" stroke="#808080" stroke-width="0.68029" stroke-linecap="round" stroke-linejoin="round"/>
<path d="M210.531 139.189L209.572 186.787L214.147 248.689H221.825L226.099 197.783L228.489 142.428L216.41 136.376L210.531 139.189Z" fill="#9C9B9B" stroke="#1E1E1C" stroke-width="0.440729" stroke-miterlimit="10"/>
<path d="M218.07 141.522L223.879 185.88L228.454 247.781H236.133L240.406 196.877L242.797 141.522L225.91 136.726L218.07 141.522Z" fill="#9C9B9B" stroke="#1E1E1C" stroke-width="0.440729" stroke-miterlimit="10"/>
<path d="M35.1385 245.867H44.2344V232.886H35.1385V245.867Z" fill="#F08378" stroke="#010101" stroke-width="0.395594" stroke-miterlimit="10"/>
<path d="M56.5334 245.868H65.6293L64.3029 232.887H55.207L56.5334 245.868Z" fill="#F08378" stroke="#010101" stroke-width="0.395594" stroke-miterlimit="10"/>
<path d="M61.7309 129.277H33.6099L30.416 235.161H50.8661L51.1644 181.992L52.3848 235.161L72.1248 234.593L61.7309 129.277Z" fill="white" stroke="#010101" stroke-width="0.395594" stroke-linecap="round" stroke-linejoin="round"/>
<path d="M51.2701 128.686L51.1641 181.993" stroke="#010101" stroke-width="0.395594" stroke-linecap="round" stroke-linejoin="round"/>
<path d="M33.0469 147.964C33.9899 147.964 34.8959 147.597 35.5736 146.941C36.2514 146.286 36.6479 145.392 36.6796 144.45L37.1788 129.277L33.6953 235.164" stroke="#010101" stroke-width="0.395594" stroke-linecap="round" stroke-linejoin="round"/>
<path d="M56.7534 242.303C56.6677 242.182 56.554 242.082 56.4219 242.014C56.2897 241.945 56.143 241.909 55.994 241.909C55.8451 241.909 55.6984 241.945 55.5662 242.014C55.4341 242.082 55.3204 242.182 55.2347 242.303C54.5568 243.264 53.6939 244.814 53.525 246.663C53.2402 249.794 53.525 254.348 53.525 254.348H85.9702V251.02C85.9702 250.597 85.8869 250.178 85.7251 249.787C85.5632 249.396 85.3259 249.041 85.0268 248.742C84.7277 248.443 84.3727 248.206 83.9819 248.044C83.5911 247.882 83.1723 247.799 82.7493 247.799H81.2812C79.0757 247.798 76.9139 247.184 75.0376 246.025L65.4782 240.114L65.355 240.238C65.1505 240.442 65.0232 240.711 64.9947 240.999C64.9662 241.287 65.0382 241.576 65.1984 241.817V241.817C65.1984 241.817 62.6382 244.948 60.3602 244.948C58.881 244.944 57.525 243.391 56.7534 242.303Z" fill="#BCADD5" stroke="#010101" stroke-width="0.395594" stroke-linecap="round" stroke-linejoin="round"/>
<path d="M53.5255 254.337H85.9707V252.345H53.5255V254.337Z" fill="#010101" stroke="#010101" stroke-width="0.395594" stroke-miterlimit="10"/>
<path d="M73.0178 247.34L73.4534 247.591C73.6733 247.718 73.9545 247.643 74.0815 247.423L75.2463 245.405C75.3733 245.186 75.298 244.904 75.078 244.777L74.6425 244.526C74.4226 244.399 74.1414 244.474 74.0144 244.694L72.8495 246.712C72.7226 246.932 72.7979 247.213 73.0178 247.34Z" fill="white" stroke="#010101" stroke-width="0.395594" stroke-miterlimit="10"/>
<path d="M71.0256 246.203L71.4612 246.454C71.6811 246.581 71.9623 246.506 72.0893 246.286L73.2541 244.268C73.3811 244.048 73.3058 243.767 73.0859 243.64L72.6503 243.389C72.4304 243.262 72.1492 243.337 72.0222 243.557L70.8573 245.575C70.7304 245.795 70.8057 246.076 71.0256 246.203Z" fill="white" stroke="#010101" stroke-width="0.395594" stroke-miterlimit="10"/>
<path d="M69.3186 245.064L69.7541 245.316C69.974 245.442 70.2553 245.367 70.3822 245.147L71.5471 243.13C71.6741 242.91 71.5987 242.628 71.3788 242.501L70.9433 242.25C70.7234 242.123 70.4422 242.198 70.3152 242.418L69.1503 244.436C69.0233 244.656 69.0987 244.937 69.3186 245.064Z" fill="white" stroke="#010101" stroke-width="0.395594" stroke-miterlimit="10"/>
<path d="M67.6096 243.926L68.0452 244.177C68.2651 244.304 68.5463 244.229 68.6733 244.009L69.8381 241.991C69.9651 241.771 69.8897 241.49 69.6698 241.363L69.2343 241.112C69.0144 240.985 68.7332 241.06 68.6062 241.28L67.4413 243.298C67.3144 243.518 67.3897 243.799 67.6096 243.926Z" fill="white" stroke="#010101" stroke-width="0.395594" stroke-miterlimit="10"/>
<path d="M65.9026 242.787L66.3381 243.039C66.5581 243.166 66.8393 243.09 66.9662 242.87L68.1311 240.853C68.2581 240.633 68.1827 240.352 67.9628 240.225L67.5272 239.973C67.3073 239.846 67.0261 239.922 66.8992 240.141L65.7343 242.159C65.6073 242.379 65.6827 242.66 65.9026 242.787Z" fill="white" stroke="#010101" stroke-width="0.395594" stroke-miterlimit="10"/>
<path d="M35.5646 242.303C35.4791 242.182 35.3655 242.082 35.2335 242.014C35.1014 241.945 34.9548 241.909 34.8059 241.909C34.6571 241.909 34.5104 241.945 34.3784 242.014C34.2463 242.082 34.1327 242.182 34.0472 242.303C33.368 243.264 32.5051 244.814 32.3375 246.663C32.0527 249.794 32.3375 254.348 32.3375 254.348H64.7827V251.02C64.7827 250.597 64.6994 250.178 64.5374 249.787C64.3755 249.396 64.1381 249.041 63.8389 248.742C63.5397 248.443 63.1844 248.205 62.7935 248.044C62.4026 247.882 61.9836 247.799 61.5605 247.799H60.0936C57.8882 247.798 55.7264 247.184 53.8501 246.025L44.2907 240.114L44.1675 240.238C43.963 240.442 43.8357 240.711 43.8072 240.999C43.7787 241.287 43.8507 241.576 44.0109 241.817V241.817C44.0109 241.817 41.4494 244.948 39.1727 244.948C37.6922 244.944 36.3375 243.391 35.5646 242.303Z" fill="#BCADD5" stroke="#010101" stroke-width="0.395594" stroke-linecap="round" stroke-linejoin="round"/>
<path d="M32.338 254.337H64.7832V252.345H32.338V254.337Z" fill="#010101" stroke="#010101" stroke-width="0.395594" stroke-miterlimit="10"/>
<path d="M53.5179 246.797L53.9555 247.049C54.1764 247.176 54.4584 247.1 54.5854 246.879L55.7502 244.852C55.8772 244.631 55.801 244.349 55.5801 244.222L55.1426 243.971C54.9216 243.844 54.6396 243.92 54.5127 244.141L53.3478 246.168C53.2208 246.388 53.297 246.67 53.5179 246.797Z" fill="white" stroke="#010101" stroke-width="0.396956" stroke-miterlimit="10"/>
<path d="M49.8362 246.202L50.2717 246.454C50.4916 246.581 50.7728 246.505 50.8998 246.285L52.0647 244.268C52.1917 244.048 52.1163 243.767 51.8964 243.64L51.4609 243.388C51.241 243.261 50.9598 243.337 50.8328 243.557L49.6679 245.574C49.5409 245.794 49.6163 246.075 49.8362 246.202Z" fill="white" stroke="#010101" stroke-width="0.395594" stroke-miterlimit="10"/>
<path d="M49.8323 244.528L50.2699 244.78C50.4908 244.907 50.7729 244.831 50.8998 244.61L52.0647 242.583C52.1917 242.362 52.1155 242.08 51.8946 241.953L51.457 241.701C51.2361 241.574 50.9541 241.651 50.8271 241.872L49.6622 243.898C49.5353 244.119 49.6114 244.401 49.8323 244.528Z" fill="white" stroke="#010101" stroke-width="0.396956" stroke-miterlimit="10"/>
<path d="M46.4202 243.925L46.8557 244.176C47.0756 244.303 47.3568 244.228 47.4838 244.008L48.6487 241.99C48.7756 241.771 48.7003 241.489 48.4804 241.362L48.0448 241.111C47.8249 240.984 47.5437 241.059 47.4167 241.279L46.2519 243.297C46.1249 243.517 46.2002 243.798 46.4202 243.925Z" fill="white" stroke="#010101" stroke-width="0.395594" stroke-miterlimit="10"/>
<path d="M44.7131 242.786L45.1487 243.038C45.3686 243.165 45.6498 243.089 45.7768 242.869L46.9416 240.852C47.0686 240.632 46.9933 240.351 46.7734 240.224L46.3378 239.972C46.1179 239.845 45.8367 239.921 45.7097 240.14L44.5448 242.158C44.4179 242.378 44.4932 242.659 44.7131 242.786Z" fill="white" stroke="#010101" stroke-width="0.395594" stroke-miterlimit="10"/>
<path d="M74.866 81.7598L90.0871 90.8335L88.0384 102.498L68.6016 91.7703L74.866 81.7598Z" fill="#F08178" stroke="#1E1E1C" stroke-width="0.270809" stroke-linecap="round" stroke-linejoin="round"/>
<path d="M110.351 88.6133L84.1484 93.7906C83.4128 93.9359 82.6551 93.9277 81.9229 93.7664C81.1907 93.6051 80.4997 93.2942 79.8933 92.8532C79.287 92.4122 78.7782 91.8506 78.3991 91.2038C78.0201 90.5569 77.7788 89.8386 77.6904 89.0941V89.0941C77.6008 88.3407 77.6698 87.5769 77.8929 86.8517C78.1159 86.1265 78.4882 85.456 78.9857 84.8831C79.4832 84.3103 80.0949 83.8478 80.7817 83.5254C81.4685 83.203 82.2151 83.0277 82.9736 83.0108L109.866 82.4253L110.351 88.6133Z" fill="#F08178" stroke="#1E1E1C" stroke-width="0.310634" stroke-linecap="round" stroke-linejoin="round"/>
<path d="M107.734 84.7543C107.734 84.7543 107.186 83.0926 108.51 82.2113C109.619 81.4717 117.823 80.3845 120.389 80.0603C120.601 80.0334 120.816 80.084 120.994 80.2029C121.172 80.3218 121.301 80.501 121.358 80.7074V80.7074C121.418 80.9243 121.393 81.1559 121.289 81.3553C121.185 81.5548 121.009 81.7074 120.797 81.7823L118.549 82.5811L128.747 84.0221C129.024 84.0626 129.278 84.203 129.459 84.417C129.641 84.631 129.738 84.9039 129.733 85.1845L129.72 85.8107L130.645 85.9155C130.887 85.9444 131.11 86.0619 131.27 86.2454C131.431 86.4289 131.518 86.6653 131.514 86.909C131.512 87.0377 131.484 87.1646 131.432 87.2825C131.381 87.4004 131.307 87.507 131.214 87.5962C131.121 87.6854 131.012 87.7554 130.892 87.8022C130.772 87.8491 130.644 87.8719 130.516 87.8693L129.112 87.8421L129.119 88.3944C129.121 88.5511 129.091 88.7066 129.032 88.8516C128.973 88.9967 128.885 89.1283 128.774 89.2387C128.663 89.3491 128.53 89.436 128.385 89.4943C128.239 89.5525 128.084 89.5809 127.927 89.5778L126.694 89.5531L126.683 90.093C126.676 90.386 126.554 90.6643 126.343 90.8673C126.131 91.0703 125.848 91.1815 125.555 91.1765L118.036 91.0274C118.036 91.0274 114.297 90.9164 112.147 90.3432C109.825 89.7269 107.664 88.8492 107.556 87.073C107.447 85.2967 107.734 84.7543 107.734 84.7543Z" fill="#F08178" stroke="#1E1E1C" stroke-width="0.270809" stroke-linecap="round" stroke-linejoin="round"/>
<path d="M129.721 85.8105L119.186 84.8564" stroke="#1E1E1C" stroke-width="0.270809" stroke-linecap="round" stroke-linejoin="round"/>
<path d="M129.113 87.842L118.51 87.042" stroke="#1E1E1C" stroke-width="0.270809" stroke-linecap="round" stroke-linejoin="round"/>
<path d="M126.696 89.5542L117.811 88.8726" stroke="#1E1E1C" stroke-width="0.270809" stroke-linecap="round" stroke-linejoin="round"/>
<path d="M118.547 82.5811L114.32 83.9727" stroke="#1E1E1C" stroke-width="0.270809" stroke-linecap="round" stroke-linejoin="round"/>
<path d="M78.4606 82.4675C78.4606 82.4675 63.3123 73.1842 58.2928 71.6791C54.6675 70.5919 47.8484 69.5527 47.8484 69.5527L34.1657 70.1691C34.1657 70.1691 25.7478 74.73 26.6932 79.636L30.0498 131.442L70.8304 132.75L67.369 92.9477L71.8301 95.413L78.4606 82.4675Z" fill="#BCADD5" stroke="#1E1E1C" stroke-width="0.366389" stroke-linecap="round" stroke-linejoin="round"/>
<path d="M55.6731 61.9263C57.9088 61.9263 59.7212 60.1139 59.7212 57.8782C59.7212 55.6425 57.9088 53.8301 55.6731 53.8301C53.4374 53.8301 51.625 55.6425 51.625 57.8782C51.625 60.1139 53.4374 61.9263 55.6731 61.9263Z" fill="#52529F" stroke="#1E1E1C" stroke-width="0.124785" stroke-linecap="round" stroke-linejoin="round"/>
<path d="M42.1923 59.6544C42.1923 59.6544 40.8277 58.2195 40.967 56.8734C41.1063 55.5274 42.4992 54.8309 43.3818 56.3631C44.2644 57.8953 45.2974 59.9194 46.0358 61.602C46.7741 63.2846 48.8709 64.9672 51.997 64.8069C52.3754 64.7872 52.8278 67.6347 52.8278 67.6347L53.1113 72.6652C53.1113 72.6652 53.6389 75.9602 48.4395 76.7023C46.4894 76.9808 45.0805 76.4828 44.0832 75.7506C43.3896 75.2307 42.8313 74.5515 42.4556 73.7703C42.0799 72.9891 41.8979 72.1289 41.9248 71.2625L42.1923 59.6544Z" fill="#F08378" stroke="#010101" stroke-width="0.435419" stroke-miterlimit="10"/>
<path d="M58.4853 49.9681L56.4292 64.8317C56.4292 64.8317 55.8868 67.8086 51.2433 66.6733C46.5998 65.538 43.8867 54.8014 43.8867 54.8014L43.9496 47.8984L58.4853 49.9681Z" fill="#F08378" stroke="#010101" stroke-width="0.435419" stroke-miterlimit="10"/>
<path d="M46.1009 49.0522C46.1009 49.0522 45.4624 53.0979 45.8914 55.7087C46.3203 58.3195 46.3844 59.9602 47.3706 59.922L49.741 59.8308C50.4989 59.8005 51.2539 59.9412 51.95 60.2425C52.7364 60.5839 53.9703 61.3112 55.3078 61.2594C55.8852 61.2409 56.453 61.1073 56.978 60.8662C56.978 60.8662 59.1562 67.3538 54.9293 68.5014C50.7025 69.649 46.8393 67.8851 45.2886 65.5874C44.2433 64.0366 43.7182 59.8024 43.638 57.5244C43.6236 57.0932 43.4972 56.6732 43.2711 56.3058C43.045 55.9383 42.7271 55.6361 42.3487 55.4289L41.4648 51.6076L46.1009 49.0522Z" fill="#8F1A1D" stroke="#010101" stroke-width="0.435419" stroke-miterlimit="10"/>
<path d="M53.6186 61.5934L50.6158 60.394C50.6158 60.394 50.2374 61.8585 51.1828 62.333C53.0257 63.2637 53.6186 61.5934 53.6186 61.5934Z" fill="white"/>
<path d="M57.2181 55.9206L55.7734 54.8481" stroke="#010101" stroke-width="0.435419" stroke-linecap="round" stroke-linejoin="round"/>
<path d="M51.7599 54.498L49.3809 54.7964" stroke="#010101" stroke-width="0.435419" stroke-linecap="round" stroke-linejoin="round"/>
<path d="M53.7593 55.2563C53.7593 55.2563 54.2006 58.1753 53.8937 58.7658C53.5867 59.3562 52.248 59.0049 52.248 59.0049" fill="#F08378"/>
<path d="M53.7593 55.2563C53.7593 55.2563 54.2006 58.1753 53.8937 58.7658C53.5867 59.3562 52.248 59.0049 52.248 59.0049" stroke="#010101" stroke-width="0.435419" stroke-linecap="round" stroke-linejoin="round"/>
<path d="M56.1238 57.6158C56.4867 57.6158 56.7808 57.3216 56.7808 56.9588C56.7808 56.5959 56.4867 56.3018 56.1238 56.3018C55.761 56.3018 55.4668 56.5959 55.4668 56.9588C55.4668 57.3216 55.761 57.6158 56.1238 57.6158Z" fill="#010101"/>
<path d="M50.6805 57.004C51.0433 57.004 51.3375 56.7098 51.3375 56.347C51.3375 55.9841 51.0433 55.6899 50.6805 55.6899C50.3176 55.6899 50.0234 55.9841 50.0234 56.347C50.0234 56.7098 50.3176 57.004 50.6805 57.004Z" fill="#010101"/>
<path d="M46.1021 49.0523C46.1021 49.0523 49.3662 52.0662 55.2449 51.1306C61.1235 50.195 61.3614 47.8862 60.9707 46.2579C60.5799 44.6295 58.5879 44.0501 58.5879 44.0501C58.5879 44.0501 59.3213 40.8908 55.9352 40.7022C52.5046 40.5124 51.341 42.4279 51.341 42.4279C51.341 42.4279 47.0439 40.8107 43.7625 42.9789C40.0879 45.4061 41.4661 51.6077 41.4661 51.6077L46.1021 49.0523Z" fill="#8F1A1D" stroke="#010101" stroke-width="0.366389" stroke-miterlimit="10"/>
<path d="M58.1983 96.8859L58.1934 85.7832" stroke="#1E1E1C" stroke-width="0.366389" stroke-linecap="round" stroke-linejoin="round"/>
<path d="M34.3752 70.1729C34.3752 70.1729 27.5277 70.6228 25.1437 73.9941C21.7847 78.7399 23.063 84.7381 23.063 84.7381L25.2571 95.4069L37.288 92.9416L35.4489 82.1483" fill="#BCADD5"/>
<path d="M34.3752 70.1729C34.3752 70.1729 27.5277 70.6228 25.1437 73.9941C21.7847 78.7399 23.063 84.7381 23.063 84.7381L25.2571 95.4069L37.288 92.9416L35.4489 82.1483" stroke="#1E1E1C" stroke-width="0.366389" stroke-linecap="round" stroke-linejoin="round"/>
<path d="M43.9075 61.8082C46.0469 61.7723 47.7453 59.5962 47.7009 56.9476C47.6565 54.299 45.8862 52.181 43.7468 52.2168C41.6074 52.2527 39.909 54.4288 39.9534 57.0774C39.9978 59.726 41.7681 61.844 43.9075 61.8082Z" fill="#52529F" stroke="#1E1E1C" stroke-width="0.124785" stroke-linecap="round" stroke-linejoin="round"/>
<path d="M43.1197 60.5428C44.6621 60.517 45.8866 58.9482 45.8546 57.0389C45.8226 55.1295 44.5463 53.6026 43.0038 53.6285C41.4614 53.6543 40.2369 55.2231 40.2689 57.1325C40.3009 59.0418 41.5772 60.5687 43.1197 60.5428Z" fill="#BCADD5" stroke="#1E1E1C" stroke-width="0.196469" stroke-linecap="round" stroke-linejoin="round"/>
<path d="M48.8218 65.8782C49.3793 66.0356 49.9602 66.0928 50.5377 66.0471L50.5155 65.7747C48.6838 65.9189 46.9284 64.9673 45.6994 63.1663C44.1722 60.9253 42.6769 57.1879 42.6621 57.1509L42.4082 57.252C42.423 57.2889 43.9293 61.0548 45.4739 63.3204C46.37 64.6357 47.5398 65.517 48.8218 65.8782Z" fill="#1E1E1C"/>
<path d="M51.1104 66.5985L52.5883 66.4627C53.0066 66.4242 53.3145 66.054 53.2761 65.6357L53.2707 65.5768C53.2323 65.1585 52.862 64.8506 52.4437 64.889L50.9658 65.0248C50.5475 65.0632 50.2396 65.4335 50.2781 65.8518L50.2835 65.9107C50.3219 66.329 50.6921 66.6369 51.1104 66.5985Z" fill="#BCADD5" stroke="#1E1E1C" stroke-width="0.196469" stroke-linecap="round" stroke-linejoin="round"/>
<path d="M43.3756 55.9898C43.1907 53.9583 42.9367 51.7987 44.538 47.9145C46.6002 42.9098 51.3386 42.4279 51.3386 42.4279L50.2786 42.1382C50.2786 42.1382 45.3232 42.4279 42.9121 47.7049C41.5155 50.7632 41.0532 54.3614 41.3096 56.6147C41.3688 57.1361 41.7669 58.4551 42.6421 58.2382C43.5173 58.0212 43.4261 56.579 43.3756 55.9898Z" fill="#C5452B" stroke="#1E1E1C" stroke-width="0.196469" stroke-linecap="round" stroke-linejoin="round"/>
<path d="M170.267 83.3132L162.223 79.4032C161.151 78.8827 159.962 78.6503 158.774 78.7288C157.585 78.8072 156.437 79.1939 155.443 79.8506L149.193 83.9813C149.089 84.0503 149.001 84.14 148.933 84.2449C148.865 84.3497 148.819 84.4674 148.799 84.5907C148.779 84.7139 148.784 84.84 148.815 84.961C148.846 85.0821 148.901 85.1955 148.978 85.2941V85.2941C149.108 85.4611 149.293 85.5771 149.5 85.6221C149.707 85.6671 149.924 85.6383 150.112 85.5407L150.175 85.5074L150.066 85.6307C149.946 85.7715 149.876 85.9484 149.867 86.1336C149.859 86.3187 149.912 86.5013 150.019 86.6525L150.124 86.8005C150.189 86.8921 150.271 86.9697 150.367 87.0286C150.462 87.0876 150.568 87.1267 150.679 87.1436C150.79 87.1605 150.903 87.1549 151.012 87.1271C151.12 87.0993 151.222 87.0498 151.311 86.9817V86.9817L151.198 87.1653C151.086 87.3494 151.038 87.5649 151.06 87.779C151.082 87.9931 151.174 88.1941 151.321 88.3512L151.367 88.4005C151.517 88.5628 151.717 88.6698 151.936 88.7045C152.154 88.7391 152.378 88.6993 152.571 88.5915V88.5915L152.538 88.6322C152.401 88.8012 152.33 89.0138 152.338 89.2309C152.345 89.448 152.431 89.6551 152.578 89.8144V89.8144C152.715 89.9618 152.897 90.0593 153.096 90.0912C153.295 90.1232 153.498 90.0878 153.674 89.9906L160.514 86.2273L164.101 88.6433C164.835 89.1364 167.79 89.3398 168.583 88.949L202.123 95.8397C203.488 96.1821 204.931 95.9993 206.167 95.3276C207.403 94.6559 208.342 93.5443 208.797 92.2131V92.2131C209.081 91.382 209.166 90.4959 209.044 89.626C208.923 88.7561 208.6 87.9268 208.099 87.2049C207.599 86.483 206.937 85.8886 206.165 85.4696C205.393 85.0506 204.533 84.8186 203.655 84.7924L170.267 83.3132Z" fill="#9C9B9B" stroke="#1E1E1C" stroke-width="0.451349" stroke-linecap="round" stroke-linejoin="round"/>
<path d="M150.078 85.5826L155.511 81.7798" stroke="#1E1E1C" stroke-width="0.451349" stroke-linecap="round" stroke-linejoin="round"/>
<path d="M151.213 87.0814L156.729 83.1714" stroke="#1E1E1C" stroke-width="0.451349" stroke-linecap="round" stroke-linejoin="round"/>
<path d="M152.49 88.6556L158.066 84.748" stroke="#1E1E1C" stroke-width="0.451349" stroke-linecap="round" stroke-linejoin="round"/>
<path d="M210.854 133.065H235.792V123.937L210.854 126.581V133.065Z" fill="#9C9B9B" stroke="#1E1E1C" stroke-width="0.451349" stroke-miterlimit="10"/>
<path d="M227.741 84.4694L219.154 66.8853L211.502 68.6615L213.296 88.5964L227.741 84.4694Z" fill="#9C9B9B" stroke="#1E1E1C" stroke-width="0.435419" stroke-miterlimit="10"/>
<path d="M205.188 67.3136C207.38 67.0297 208.85 64.4302 208.472 61.5075C208.093 58.5847 206.009 56.4456 203.817 56.7295C201.625 57.0135 200.155 59.613 200.533 62.5357C200.912 65.4584 202.996 67.5976 205.188 67.3136Z" fill="#9C9B9B" stroke="#1E1E1C" stroke-width="0.414179" stroke-linecap="round" stroke-linejoin="round"/>
<path d="M225.158 62.1273C225.158 62.1273 226.379 56.5606 223.757 50.2764C221.276 44.3337 214.721 41.6181 210.558 42.2209C205.846 42.9038 201.92 46.6326 201.019 50.8903C199.883 56.2536 202.406 63.1763 204.015 65.1967C204.804 66.1828 212.528 63.4648 212.528 63.4648L225.158 62.1273Z" fill="#9C9B9B" stroke="#1E1E1C" stroke-width="0.446039" stroke-linecap="round" stroke-linejoin="round"/>
<path d="M202.849 62.1259C203.835 70.5365 207.617 76.4003 212.745 75.8086C218.521 75.1344 224.589 67.975 223.577 59.3043C222.81 52.7391 217.585 48.5505 212.656 48.14C211.339 48.0303 210.846 47.9872 208.91 48.4321C206.266 49.0411 206.855 47.61 205.602 48.7514C202.159 51.8799 202.15 56.1351 202.849 62.1259Z" fill="#9C9B9B" stroke="#1E1E1C" stroke-width="0.435419" stroke-linecap="round" stroke-linejoin="round"/>
<path d="M215.754 62.8258C217.037 62.7642 219.945 61.4625 218.487 57.3749C216.819 53.8187 214.197 55.3928 213.324 56.7586C212.727 57.693 212.176 59.0736 212.557 60.5133C213.015 62.2514 214.717 62.8788 215.754 62.8258Z" fill="#9C9B9B" stroke="#1E1E1C" stroke-width="0.451349" stroke-linecap="round" stroke-linejoin="round"/>
<path d="M215.511 61.6093C216.289 61.5086 216.846 60.8615 216.756 60.1641C216.665 59.4667 215.961 58.983 215.184 59.0837C214.406 59.1844 213.849 59.8315 213.939 60.5289C214.029 61.2263 214.733 61.7101 215.511 61.6093Z" fill="#9C9B9B" stroke="#1E1E1C" stroke-width="0.435419" stroke-linecap="round" stroke-linejoin="round"/>
<path d="M217.421 60.7379C217.421 60.7379 217.625 58.2725 215.606 58.4167C213.501 58.5647 213.539 60.6356 213.539 60.6356C213.539 60.6356 214.231 59.8479 215.511 59.9625C216.208 60.0359 216.87 60.3047 217.421 60.7379Z" fill="#9C9B9B" stroke="#1E1E1C" stroke-width="0.435419" stroke-linecap="round" stroke-linejoin="round"/>
<path d="M205.776 64.4027C205.121 64.5408 203.914 64.6258 203.127 64.0329C203.078 63.8517 202.939 62.9938 202.737 61.2569C202.586 59.9737 202.523 58.5068 202.523 58.5068C203.611 56.5641 205.617 57.6021 206.189 58.0471C206.725 58.4564 207.161 58.9818 207.465 59.5839C207.769 60.186 207.932 60.849 207.942 61.5232C207.971 62.1798 207.771 62.826 207.376 63.3513C206.981 63.8765 206.415 64.2482 205.776 64.4027Z" fill="#9C9B9B" stroke="#1E1E1C" stroke-width="0.430109" stroke-linecap="round" stroke-linejoin="round"/>
<path d="M205.321 63.1997C206.099 63.0989 206.656 62.4519 206.566 61.7544C206.476 61.057 205.772 60.5733 204.994 60.674C204.216 60.7748 203.659 61.4218 203.749 62.1193C203.84 62.8167 204.544 63.3004 205.321 63.1997Z" fill="#9C9B9B" stroke="#1E1E1C" stroke-width="0.435419" stroke-linecap="round" stroke-linejoin="round"/>
<path d="M203.271 62.6031C203.271 62.6031 202.992 60.3842 204.84 60.2191C206.721 60.0539 207 62.1913 207 62.1913C207 62.1913 206.048 61.416 204.799 61.7747C203.727 62.0866 203.271 62.6031 203.271 62.6031Z" fill="#9C9B9B" stroke="#1E1E1C" stroke-width="0.435419" stroke-linecap="round" stroke-linejoin="round"/>
<path d="M208.385 70.2629L210.501 71.1147L212.899 70.8041L214.765 69.437L208.385 70.2629Z" fill="#9C9B9B" stroke="#1E1E1C" stroke-width="0.435419" stroke-linecap="round" stroke-linejoin="round"/>
<path d="M214.781 69.4159L212.203 68.6245L210.618 68.8304L208.4 70.243L214.781 69.4159Z" fill="#9C9B9B" stroke="#1E1E1C" stroke-width="0.435419" stroke-linecap="round" stroke-linejoin="round"/>
<path d="M202.154 66.0596C202.305 67.2183 202.433 68.8947 203.195 70.3074C204.235 72.2303 206.368 73.4593 208.816 73.3447" stroke="#1E1E1C" stroke-width="0.406214" stroke-linecap="round" stroke-linejoin="round"/>
<path d="M210.195 74.4174C211.213 74.4163 212.037 73.8663 212.037 73.189C212.036 72.5116 211.21 71.9633 210.192 71.9644C209.175 71.9654 208.35 72.5154 208.351 73.1928C208.352 73.8702 209.177 74.4185 210.195 74.4174Z" fill="#8E181D" stroke="#1E1E1C" stroke-width="0.406214" stroke-linecap="round" stroke-linejoin="round"/>
<path d="M212.963 66.3638C212.963 66.3638 210.94 61.3173 211.338 54.5018C211.631 49.4873 212.674 48.1289 212.674 48.1289C212.674 48.1289 211.586 45.3492 208.308 46.2158C205.03 47.0823 204.748 49.6266 204.748 49.6266C204.748 49.6266 206.572 51.1317 207.894 55.9995C209.465 61.7931 209.022 66.8766 209.022 66.8766L212.963 66.3638Z" fill="#9C9B9B" stroke="#1E1E1C" stroke-width="0.435419" stroke-linecap="round" stroke-linejoin="round"/>
<path d="M212.944 66.37L211.849 65.5786L210.863 66.1728L209.788 65.888L209.021 66.8779L212.944 66.37Z" fill="#9C9B9B" stroke="#1E1E1C" stroke-width="0.435419" stroke-linecap="round" stroke-linejoin="round"/>
<path d="M227.766 60.8449C228.121 57.9192 226.653 55.3348 224.489 55.0724C222.324 54.8101 220.282 56.9692 219.927 59.8949C219.573 62.8206 221.04 65.4051 223.205 65.6674C225.369 65.9297 227.412 63.7706 227.766 60.8449Z" fill="#9C9B9B" stroke="#1E1E1C" stroke-width="0.411524" stroke-linecap="round" stroke-linejoin="round"/>
<path d="M240.003 79.9468L201.213 86.438L208.2 128.123L239.097 125.981L240.003 79.9468Z" fill="#9C9B9B" stroke="#1E1E1C" stroke-width="0.427454" stroke-miterlimit="10"/>
<path d="M227.996 198.041C227.996 198.041 226.147 192.77 223.879 189.651C221.611 186.533 218.398 185.304 214.806 186.154C211.214 187.005 203.654 190.222 207.434 199.292C211.215 208.362 220.666 203.308 222.981 201.937C225.296 200.567 227.996 198.041 227.996 198.041Z" fill="white" stroke="#1E1E1C" stroke-width="0.493829" stroke-miterlimit="10"/>
<path d="M199.327 254.826C199.327 254.826 193.951 254.935 193.951 252.987C193.951 250.37 200.742 247.329 203.566 246.41C204.078 246.243 204.616 246.072 205.156 245.904C208.291 244.925 211.555 244.426 214.839 244.425H215.702C216.603 244.418 217.496 244.598 218.324 244.955C219.152 245.313 219.896 245.839 220.509 246.5C221.24 247.305 221.812 248.356 221.812 249.677C221.812 251.202 220.891 252.368 219.816 253.21C218.338 254.347 216.517 254.946 214.653 254.908L199.327 254.826Z" fill="white" stroke="#1E1E1C" stroke-width="0.602683" stroke-miterlimit="10"/>
<path d="M243.815 201.202C243.815 201.202 242.39 195.624 240.341 192.22C238.292 188.815 235.104 187.264 231.342 187.815C227.58 188.366 219.528 190.986 222.59 200.635C225.652 210.285 235.813 205.947 238.313 204.747C240.813 203.548 243.815 201.202 243.815 201.202Z" fill="white" stroke="#1E1E1C" stroke-width="0.507104" stroke-miterlimit="10"/>
<path d="M216.55 254.866C216.55 254.866 211.174 254.974 211.174 253.027C211.174 250.41 217.965 247.369 220.789 246.449C221.3 246.283 221.839 246.111 222.379 245.944C225.513 244.965 228.778 244.466 232.062 244.465H232.924C233.826 244.457 234.719 244.638 235.547 244.995C236.375 245.352 237.119 245.878 237.732 246.539C238.463 247.344 239.035 248.396 239.035 249.717C239.035 251.242 238.114 252.408 237.039 253.25C235.561 254.387 233.74 254.986 231.875 254.947L216.55 254.866Z" fill="white" stroke="#1E1E1C" stroke-width="0.602683" stroke-miterlimit="10"/>
<path d="M237.222 130.961H209.749L208.59 142.68L215.448 145.905C215.448 145.905 221.957 141.769 223.665 141.097C227.363 139.638 232.152 139.272 237.521 143.368C239.433 144.826 241.332 146.293 243.142 149.494C240.87 142.193 237.222 130.961 237.222 130.961Z" fill="white" stroke="#1E1E1C" stroke-width="0.400904" stroke-linecap="round" stroke-linejoin="round"/>
<path d="M210.91 119.926C213.148 122.064 216.563 122.122 218.536 120.049L243.832 93.8366C245.804 91.7706 245.589 88.3622 243.349 86.2248C241.11 84.0873 237.696 84.0294 235.724 86.0954L210.428 112.314C208.454 114.38 208.67 117.789 210.91 119.926Z" fill="#9C9B9B" stroke="#1E1E1C" stroke-width="0.432764" stroke-miterlimit="10"/>
<path d="M188.298 75.9943L65.5629 91.8913C61.3871 92.4322 58.4404 96.2558 58.9813 100.432L61.3919 119.044C61.9328 123.219 65.7564 126.166 69.9322 125.625L192.668 109.728C196.843 109.187 199.79 105.364 199.249 101.188L196.839 82.5759C196.298 78.4002 192.474 75.4535 188.298 75.9943Z" fill="#9C9B9B" stroke="#1E1E1C" stroke-width="0.390284" stroke-linecap="round" stroke-linejoin="round"/>
<path fill-rule="evenodd" clip-rule="evenodd" d="M141.257 106.187C140.561 106.269 139.857 106.241 139.171 106.105C138.553 105.993 137.966 105.751 137.449 105.394L137.94 103.931C138.411 104.227 138.924 104.449 139.462 104.589C139.968 104.715 140.492 104.749 141.01 104.69C141.547 104.672 142.062 104.473 142.472 104.127C142.626 103.956 142.738 103.752 142.798 103.53C142.859 103.309 142.867 103.076 142.821 102.851C142.812 102.628 142.749 102.41 142.639 102.216C142.529 102.022 142.374 101.857 142.187 101.734C141.687 101.491 141.123 101.417 140.578 101.522L139.185 101.681L139.013 100.175L140.151 100.045C140.695 100.019 141.216 99.8205 141.64 99.4787C141.797 99.3224 141.913 99.1305 141.978 98.9194C142.044 98.7082 142.057 98.4842 142.017 98.2668C142.007 98.0565 141.951 97.8509 141.852 97.6649C141.753 97.4789 141.615 97.317 141.446 97.1908C141.066 96.9555 140.614 96.8664 140.173 96.9398C139.677 96.9982 139.196 97.1471 138.753 97.3792C138.266 97.6334 137.824 97.9648 137.443 98.3609L136.635 97.0425C137.06 96.5867 137.574 96.222 138.145 95.9707C138.764 95.6825 139.425 95.4959 140.103 95.4183C140.718 95.3333 141.345 95.3793 141.941 95.5533C142.441 95.7017 142.887 95.9922 143.225 96.3894C143.561 96.8229 143.766 97.3438 143.815 97.8903C143.864 98.4368 143.756 98.9858 143.502 99.4723C143.258 99.8837 142.906 100.218 142.487 100.44C143.016 100.529 143.51 100.769 143.909 101.134C144.411 101.672 144.69 102.382 144.687 103.118C144.685 103.854 144.403 104.562 143.898 105.097C143.166 105.749 142.235 106.133 141.257 106.187ZM89.1333 101.562C88.5721 101.391 87.9786 101.353 87.4004 101.453C86.7622 101.518 86.1521 101.749 85.6303 102.123C85.1383 102.469 84.7523 102.945 84.5154 103.498C84.2673 104.086 84.1807 104.729 84.2644 105.361C84.3219 105.973 84.5321 106.561 84.8756 107.071C85.1988 107.537 85.6439 107.906 86.1622 108.136C86.6997 108.373 87.2919 108.458 87.8742 108.381C88.3145 108.335 88.7403 108.198 89.1238 107.977C89.4833 107.769 89.7919 107.483 90.0269 107.14C90.1373 106.976 90.2268 106.799 90.294 106.614C90.4105 107.822 90.3027 108.778 89.9774 109.484C89.8333 109.83 89.5971 110.129 89.2945 110.349C88.992 110.57 88.6347 110.703 88.2616 110.734C87.8197 110.779 87.3734 110.741 86.9453 110.623C86.415 110.471 85.9097 110.243 85.4455 109.946L84.9551 111.412C85.4569 111.763 86.024 112.01 86.6229 112.137C87.2376 112.274 87.8708 112.308 88.4965 112.237C89.3177 112.166 90.0973 111.845 90.7293 111.316C91.3458 110.765 91.7823 110.042 91.9822 109.239C92.2361 108.236 92.2933 107.194 92.1509 106.169C91.9598 104.495 91.4533 103.252 90.6315 102.439C90.2076 102.034 89.6944 101.733 89.1333 101.562ZM86.9733 103.154C87.1915 103.037 87.4317 102.968 87.6784 102.951C88.0232 102.9 88.3753 102.942 88.6987 103.072C88.991 103.202 89.2404 103.413 89.4179 103.679C89.6112 103.973 89.7285 104.309 89.7595 104.659C89.806 105.005 89.7674 105.358 89.6469 105.686C89.5292 105.989 89.3267 106.252 89.0635 106.442C88.7843 106.64 88.4581 106.762 88.1173 106.796C87.873 106.835 87.6234 106.821 87.3846 106.757C87.1458 106.693 86.9232 106.579 86.7314 106.423C86.3671 106.063 86.1368 105.59 86.0787 105.081C86.0207 104.572 86.1383 104.059 86.4122 103.626C86.5639 103.431 86.7551 103.27 86.9733 103.154ZM83.3082 109.037L83.1599 107.738L80.1559 108.081L79.8148 105.093L78.5162 105.241L78.8556 108.23L75.8806 108.569L76.0288 109.868L79.0032 109.528L79.3444 112.533L80.647 112.384L80.3041 109.38L83.3082 109.037ZM96.7251 111.179L94.6833 111.412L98.4265 101.875L93.1366 102.478L92.9607 100.937L100.299 100.1L100.461 101.519L96.7251 111.179ZM103.75 108.815L103.926 110.357L110.446 109.612L110.27 108.071L107.951 108.336L106.924 99.3434L105.813 99.4702L103.09 101.58L103.284 103.281L105.266 101.754L106.042 108.554L103.75 108.815ZM120.344 108.483L120.107 106.41L115.539 106.931L115.378 105.527L119.499 97.924L121.025 97.7499L121.818 104.701L123.301 104.532L123.471 106.026L121.989 106.195L122.227 108.284L120.344 108.483ZM119.483 100.944L119.937 104.915L117.17 105.231L119.483 100.944ZM129.032 106.069L129.192 107.473L136.264 106.666L136.089 105.125L131.338 105.667L133.629 102.604C134.086 102.017 134.457 101.368 134.729 100.675C134.928 100.114 134.996 99.5134 134.925 98.9215C134.884 98.3822 134.687 97.8664 134.359 97.4366C134.024 97.0318 133.577 96.7354 133.073 96.5848C132.475 96.4119 131.848 96.3661 131.231 96.4504C130.557 96.5281 129.9 96.7142 129.285 97.0015C128.714 97.2528 128.2 97.6174 127.775 98.0732L128.583 99.3917C128.976 98.9986 129.426 98.6668 129.917 98.4073C130.351 98.1766 130.825 98.0284 131.313 97.9705C131.741 97.8912 132.182 97.9736 132.552 98.2016C132.713 98.3264 132.845 98.4849 132.938 98.6659C133.031 98.8469 133.084 99.046 133.092 99.2495C133.132 99.6475 133.076 100.049 132.929 100.421C132.729 100.911 132.469 101.375 132.155 101.801L129.032 106.069ZM150.784 102.908L151.021 104.981L152.885 104.785L152.646 102.696L154.141 102.525L153.97 101.031L152.476 101.201L151.682 94.2507L150.161 94.4244L146.04 102.027L146.2 103.432L150.784 102.908ZM150.614 101.414L150.161 97.4418L147.844 101.73L150.614 101.414ZM159.194 104.14C158.528 104.216 157.855 104.182 157.201 104.038C156.594 103.924 156.019 103.683 155.511 103.331L155.987 101.871C156.466 102.157 156.983 102.376 157.523 102.519C158.018 102.65 158.533 102.688 159.041 102.631C159.594 102.602 160.114 102.363 160.495 101.962C160.656 101.757 160.773 101.519 160.837 101.265C160.901 101.012 160.91 100.747 160.865 100.49C160.834 100.132 160.709 99.7897 160.502 99.4967C160.311 99.2314 160.047 99.0276 159.742 98.9099C159.398 98.7808 159.027 98.7401 158.663 98.7914C158.259 98.8338 157.869 98.9578 157.515 99.1561C157.162 99.3546 156.852 99.6218 156.603 99.9418L155.464 100.072L154.757 93.872L161.383 93.1157L161.553 94.6098L156.82 95.15L157.146 98.0041C157.287 97.8782 157.44 97.7656 157.603 97.6681C158.023 97.4239 158.491 97.2731 158.975 97.2262C159.581 97.1438 160.197 97.2239 160.761 97.4582C161.285 97.6769 161.737 98.0368 162.068 98.4978C162.422 99.0043 162.637 99.5945 162.692 100.21C162.778 100.85 162.683 101.502 162.419 102.091C162.158 102.656 161.739 103.133 161.213 103.465C160.601 103.843 159.91 104.074 159.194 104.14ZM166.688 103.003C167.247 103.175 167.838 103.213 168.414 103.115C169.055 103.051 169.668 102.821 170.193 102.449C170.682 102.099 171.066 101.622 171.303 101.07C171.534 100.49 171.621 99.8623 171.558 99.2411C171.495 98.62 171.283 98.0232 170.94 97.5014C170.618 97.0365 170.178 96.6666 169.664 96.4306C169.124 96.193 168.529 96.1087 167.945 96.187C167.503 96.232 167.076 96.3699 166.691 96.5916C166.332 96.799 166.025 97.0846 165.792 97.4273C165.682 97.5916 165.592 97.7681 165.525 97.9526C165.411 96.7459 165.518 95.7895 165.845 95.0833C165.992 94.7378 166.229 94.4387 166.533 94.2183C166.837 93.9979 167.195 93.8645 167.569 93.8325C168.008 93.7895 168.452 93.8276 168.877 93.9448C169.408 94.0925 169.912 94.3208 170.373 94.6219L170.864 93.1553C170.36 92.8069 169.794 92.5606 169.196 92.4304C168.58 92.294 167.945 92.2606 167.318 92.3317C166.5 92.4039 165.724 92.7248 165.093 93.2513C164.475 93.8026 164.036 94.5262 163.833 95.3289C163.58 96.332 163.524 97.3745 163.668 98.3988C163.857 100.076 164.366 101.319 165.195 102.128C165.617 102.532 166.129 102.832 166.688 103.003ZM168.85 101.414C168.635 101.53 168.397 101.599 168.152 101.616C167.81 101.661 167.462 101.617 167.143 101.485C166.847 101.358 166.593 101.151 166.409 100.888C166.208 100.598 166.086 100.261 166.055 99.9095C166.009 99.5616 166.051 99.2075 166.18 98.8808C166.297 98.5801 166.498 98.3193 166.76 98.1291C167.036 97.9272 167.361 97.8038 167.701 97.7719C167.945 97.7331 168.194 97.7464 168.432 97.8107C168.671 97.875 168.892 97.989 169.083 98.1452C169.45 98.5039 169.681 98.9776 169.739 99.4869C169.798 99.9962 169.679 100.51 169.403 100.942C169.254 101.137 169.066 101.298 168.85 101.414ZM175.821 102.15L173.783 102.383L177.527 92.846L172.237 93.4498L172.061 91.9087L179.399 91.0711L179.561 92.4909L175.821 102.15ZM183.722 100.988C184.408 101.157 185.12 101.196 185.82 101.101C186.516 101.034 187.194 100.837 187.818 100.52C188.345 100.26 188.786 99.8537 189.087 99.3489C189.366 98.8575 189.478 98.2883 189.405 97.7276C189.377 97.3944 189.281 97.0705 189.122 96.7763C188.962 96.4821 188.744 96.2241 188.481 96.0182C188.042 95.6938 187.533 95.4817 187 95.3962C187.448 95.194 187.844 94.8872 188.153 94.4984C188.341 94.2546 188.478 93.9759 188.557 93.6784C188.636 93.3809 188.655 93.0707 188.613 92.7658C188.563 92.2228 188.333 91.7119 187.96 91.3148C187.569 90.9134 187.076 90.627 186.534 90.4869C185.255 90.1729 183.907 90.3268 182.732 90.9209C182.233 91.1785 181.816 91.569 181.525 92.0492C181.251 92.5204 181.142 93.0699 181.216 93.6101C181.245 93.9131 181.334 94.2071 181.478 94.4751C181.623 94.7431 181.819 94.9795 182.056 95.1705C182.452 95.4808 182.912 95.6944 183.4 95.7979C182.89 95.996 182.432 96.3148 182.068 96.7304C181.854 96.9927 181.698 97.2967 181.609 97.6227C181.52 97.9488 181.5 98.2899 181.551 98.6241C181.604 99.1874 181.841 99.7174 182.226 100.132C182.632 100.555 183.152 100.852 183.722 100.988ZM187.171 99.0525C186.734 99.3931 186.204 99.5919 185.651 99.6222L185.652 99.634C185.103 99.7284 184.537 99.6503 184.034 99.4105C183.832 99.2999 183.662 99.1405 183.538 98.9469C183.414 98.7534 183.341 98.5319 183.325 98.3027C183.291 98.0706 183.315 97.8337 183.396 97.6134C183.477 97.3932 183.611 97.1965 183.787 97.0414C184.182 96.6351 184.706 96.3781 185.269 96.3138C185.832 96.2495 186.4 96.3819 186.877 96.6887C187.084 96.8002 187.259 96.9615 187.387 97.1579C187.515 97.3543 187.593 97.5796 187.612 97.8134C187.648 98.0403 187.626 98.2726 187.549 98.4891C187.472 98.7056 187.342 98.8993 187.171 99.0525ZM186.413 94.3601C186.053 94.7006 185.611 94.9434 185.131 95.0653L185.132 95.0771C184.635 95.064 184.149 94.9228 183.722 94.6673C183.533 94.552 183.375 94.3934 183.26 94.2047C183.144 94.0159 183.076 93.8025 183.059 93.582C183.02 93.3651 183.034 93.1421 183.1 92.9318C183.166 92.7215 183.281 92.5302 183.437 92.374C183.818 92.0716 184.277 91.8821 184.761 91.8268C185.245 91.7716 185.735 91.8529 186.175 92.0614C186.361 92.1786 186.517 92.339 186.628 92.5291C186.74 92.7192 186.803 92.9333 186.814 93.1534C186.848 93.3719 186.829 93.5953 186.76 93.8052C186.69 94.015 186.571 94.2052 186.413 94.3601Z" fill="#B3B3B3"/>
<path d="M179.546 109.932L171.5 106.022C170.429 105.501 169.24 105.268 168.051 105.346C166.862 105.425 165.714 105.812 164.72 106.469L158.471 110.6C158.367 110.669 158.278 110.758 158.21 110.863C158.142 110.968 158.097 111.086 158.076 111.209C158.056 111.332 158.062 111.458 158.092 111.579C158.123 111.7 158.178 111.814 158.255 111.913V111.913C158.385 112.079 158.57 112.195 158.777 112.24C158.984 112.285 159.2 112.257 159.388 112.159L159.452 112.126L159.344 112.249C159.223 112.39 159.153 112.567 159.144 112.753C159.136 112.938 159.189 113.121 159.297 113.272L159.401 113.42C159.466 113.512 159.548 113.589 159.644 113.648C159.739 113.707 159.845 113.746 159.956 113.763C160.067 113.78 160.18 113.774 160.288 113.747C160.397 113.719 160.498 113.669 160.587 113.601V113.601L160.475 113.785C160.363 113.968 160.313 114.183 160.334 114.398C160.355 114.612 160.446 114.813 160.592 114.971L160.638 115.02C160.788 115.182 160.989 115.289 161.207 115.324C161.425 115.359 161.649 115.319 161.842 115.211V115.211L161.809 115.252C161.672 115.421 161.601 115.633 161.609 115.851C161.616 116.068 161.702 116.275 161.85 116.434V116.434C161.987 116.581 162.169 116.678 162.367 116.71C162.566 116.742 162.769 116.707 162.945 116.61L169.786 112.847L173.373 115.263C174.112 115.756 177.061 115.958 177.855 115.569L211.393 122.459C212.758 122.802 214.202 122.619 215.438 121.948C216.674 121.276 217.613 120.164 218.068 118.833V118.833C218.352 118.002 218.437 117.115 218.316 116.246C218.194 115.376 217.871 114.546 217.371 113.825C216.87 113.103 216.208 112.508 215.436 112.089C214.664 111.67 213.805 111.438 212.927 111.412L179.546 109.932Z" fill="#9C9B9B" stroke="#1E1E1C" stroke-width="0.451349" stroke-linecap="round" stroke-linejoin="round"/>
<path d="M159.352 112.2L164.785 108.398" stroke="#1E1E1C" stroke-width="0.451349" stroke-linecap="round" stroke-linejoin="round"/>
<path d="M160.488 113.7L166.005 109.79" stroke="#1E1E1C" stroke-width="0.451349" stroke-linecap="round" stroke-linejoin="round"/>
<path d="M161.766 115.274L167.341 111.366" stroke="#1E1E1C" stroke-width="0.451349" stroke-linecap="round" stroke-linejoin="round"/>
<path d="M62.3555 105.252L69.2954 101.629C70.2199 101.147 71.2541 100.914 72.2962 100.953C73.3383 100.992 74.3522 101.301 75.2381 101.851L80.8086 105.309C80.9015 105.367 80.9814 105.443 81.0434 105.533C81.1053 105.623 81.148 105.725 81.1687 105.832C81.1895 105.939 81.1878 106.05 81.1638 106.157C81.1398 106.263 81.094 106.364 81.0293 106.452V106.452C80.9197 106.602 80.761 106.708 80.5808 106.754C80.4006 106.799 80.2104 106.779 80.0431 106.698L79.9864 106.67L80.085 106.78C80.194 106.9 80.2598 107.053 80.2718 107.214C80.2839 107.376 80.2416 107.537 80.1516 107.672L80.0641 107.805C80.0098 107.887 79.9396 107.957 79.8577 108.011C79.7758 108.064 79.6839 108.101 79.5874 108.119C79.491 108.136 79.392 108.134 79.2964 108.112C79.2008 108.091 79.1106 108.05 79.0311 107.993V107.993L79.1334 108.15C79.2364 108.308 79.2851 108.495 79.272 108.683C79.2589 108.871 79.1847 109.049 79.0607 109.191L79.0225 109.235C78.8951 109.381 78.7224 109.48 78.5321 109.515C78.3418 109.551 78.1451 109.522 77.9734 109.432V109.432L78.003 109.467C78.1277 109.611 78.1963 109.794 78.1963 109.985C78.1963 110.175 78.1277 110.359 78.003 110.502V110.502C77.887 110.635 77.7301 110.724 77.5572 110.757C77.3843 110.79 77.2054 110.764 77.0489 110.684L70.9706 107.562L67.8889 109.768C67.259 110.218 64.684 110.468 63.9752 110.146L35.4462 110.539C34.0053 110.559 32.5984 110.102 31.4449 109.238C30.2914 108.374 29.4562 107.153 29.0695 105.765L25.3789 92.5114L36.2437 90.835L38.6375 99.974C38.7145 100.229 38.86 100.459 39.0582 100.637C39.2564 100.816 39.4997 100.936 39.7618 100.986L62.3555 105.252Z" fill="#F08078" stroke="#1E1F1D" stroke-width="0.241604" stroke-miterlimit="10"/>
<path d="M80.0759 106.73L75.2266 103.541" stroke="#1E1E1C" stroke-width="0.395594" stroke-linecap="round" stroke-linejoin="round"/>
<path d="M79.1218 108.07L74.1973 104.789" stroke="#1E1E1C" stroke-width="0.395594" stroke-linecap="round" stroke-linejoin="round"/>
<path d="M78.0422 109.48L73.0684 106.201" stroke="#1E1E1C" stroke-width="0.395594" stroke-linecap="round" stroke-linejoin="round"/>
<path d="M58.7077 50.2476H44.2509C41.7306 50.2476 39.6875 52.2906 39.6875 54.8109V57.4525C39.6875 59.9728 41.7306 62.0159 44.2509 62.0159H58.7077C61.228 62.0159 63.271 59.9728 63.271 57.4525V54.8109C63.271 52.2906 61.228 50.2476 58.7077 50.2476Z" fill="#3D3838" stroke="#1E1E1C" stroke-width="0.451349" stroke-linecap="round" stroke-linejoin="round"/>
<path d="M217.96 55.0542H203.503C200.983 55.0542 198.939 57.0973 198.939 59.6176V62.2592C198.939 64.7795 200.983 66.8225 203.503 66.8225H217.96C220.48 66.8225 222.523 64.7795 222.523 62.2592V59.6176C222.523 57.0973 220.48 55.0542 217.96 55.0542Z" fill="#3D3838" stroke="#1E1E1C" stroke-width="0.451349" stroke-linecap="round" stroke-linejoin="round"/>
</svg>
