<svg width="260" height="260" viewBox="0 0 260 260" fill="none" xmlns="http://www.w3.org/2000/svg">
<g clip-path="url(#clip0_2386_442594)">
<path d="M87.6229 99.5538C88.0344 100.5 87.2484 101.762 85.8589 102.373C84.4693 102.983 83.003 102.713 82.5873 101.766C82.1717 100.82 82.9618 99.5565 84.3527 98.9461C85.7436 98.3357 87.2059 98.6073 87.6229 99.5538Z" fill="#CCCCCC"/>
<path d="M87.1922 101.055C87.0962 101.055 87.004 101.017 86.9361 100.949C86.8682 100.881 86.8301 100.789 86.8301 100.693V89.6894C86.8301 89.6113 86.8554 89.5354 86.9021 89.4728C86.9488 89.4103 87.0145 89.3645 87.0893 89.3423L95.849 86.769C95.9029 86.7532 95.9597 86.7502 96.015 86.7602C96.0702 86.7702 96.1224 86.7929 96.1673 86.8266C96.2124 86.8602 96.249 86.9038 96.2743 86.9541C96.2995 87.0044 96.3127 87.0598 96.3127 87.1161V98.1199C96.3127 98.1673 96.3033 98.2144 96.2851 98.2582C96.2669 98.3021 96.2402 98.3419 96.2065 98.3754C96.1729 98.409 96.1329 98.4355 96.089 98.4536C96.0451 98.4716 95.998 98.4808 95.9505 98.4806C95.8549 98.4806 95.7631 98.4426 95.6955 98.375C95.6278 98.3073 95.5898 98.2155 95.5898 98.1199V87.5989L87.553 89.9596V100.699C87.5515 100.794 87.5129 100.884 87.4455 100.951C87.378 101.017 87.2871 101.055 87.1922 101.055Z" fill="#CCCCCC"/>
<path d="M96.3826 96.9789C96.7941 97.9254 96.0081 99.1887 94.6186 99.7991C93.2291 100.409 91.7627 100.138 91.3471 99.1914C90.9315 98.245 91.7216 96.983 93.1111 96.3726C94.5006 95.7622 95.967 96.0351 96.3826 96.9789Z" fill="#CCCCCC"/>
<path d="M87.1927 91.7594C87.1136 91.7596 87.0367 91.7337 86.9738 91.6859C86.9108 91.6381 86.8653 91.5709 86.8443 91.4947C86.8316 91.449 86.828 91.4013 86.8337 91.3542C86.8394 91.3072 86.8544 91.2617 86.8777 91.2205C86.901 91.1792 86.9322 91.1429 86.9696 91.1137C87.0069 91.0845 87.0496 91.0629 87.0953 91.0503L95.855 88.6114C95.9007 88.5987 95.9484 88.5951 95.9955 88.6008C96.0425 88.6065 96.088 88.6215 96.1293 88.6448C96.1705 88.6681 96.2068 88.6993 96.236 88.7367C96.2652 88.774 96.2868 88.8167 96.2995 88.8624C96.3252 88.9548 96.3132 89.0536 96.2661 89.1372C96.2191 89.2208 96.1408 89.2823 96.0484 89.3082L87.2887 91.7457C87.2575 91.7549 87.2252 91.7595 87.1927 91.7594Z" fill="#CCCCCC"/>
<path d="M125.037 109.855C125.449 110.8 124.664 112.061 123.276 112.67C121.888 113.279 120.427 113.008 120.011 112.063C119.596 111.118 120.386 109.859 121.772 109.249C123.159 108.638 124.623 108.911 125.037 109.855Z" fill="#999999"/>
<path d="M124.604 111.354C124.557 111.355 124.51 111.345 124.466 111.327C124.422 111.309 124.382 111.283 124.349 111.25C124.315 111.216 124.289 111.177 124.271 111.133C124.253 111.089 124.243 111.042 124.243 110.995V100.013C124.243 99.9657 124.252 99.9187 124.27 99.8748C124.288 99.831 124.315 99.7911 124.348 99.7576C124.382 99.7241 124.422 99.6975 124.466 99.6794C124.51 99.6614 124.556 99.6522 124.604 99.6523H133.347C133.443 99.6523 133.535 99.6903 133.602 99.758C133.67 99.8257 133.708 99.9174 133.708 100.013C133.708 100.06 133.699 100.107 133.68 100.151C133.662 100.195 133.636 100.234 133.602 100.268C133.569 100.301 133.529 100.328 133.485 100.346C133.441 100.364 133.394 100.373 133.347 100.372H124.963V110.998C124.963 111.093 124.924 111.183 124.857 111.25C124.79 111.317 124.699 111.354 124.604 111.354Z" fill="#999999"/>
<path d="M133.351 111.354C133.304 111.355 133.257 111.345 133.213 111.327C133.169 111.309 133.129 111.283 133.096 111.25C133.062 111.216 133.036 111.177 133.018 111.133C133 111.089 132.99 111.042 132.99 110.995V100.013C132.99 99.9174 133.028 99.8257 133.096 99.758C133.164 99.6903 133.255 99.6523 133.351 99.6523C133.447 99.6523 133.538 99.6903 133.606 99.758C133.674 99.8257 133.712 99.9174 133.712 100.013V110.998C133.711 111.093 133.673 111.184 133.605 111.251C133.537 111.317 133.446 111.355 133.351 111.354Z" fill="#999999"/>
<path d="M133.782 109.855C134.194 110.8 133.409 112.061 132.021 112.67C130.633 113.279 129.172 113.008 128.756 112.063C128.341 111.118 129.13 109.859 130.518 109.249C131.906 108.638 133.367 108.911 133.782 109.855Z" fill="#999999"/>
<path d="M133.351 102.279H124.604C124.557 102.279 124.51 102.27 124.466 102.252C124.422 102.234 124.382 102.207 124.349 102.173C124.315 102.14 124.289 102.1 124.271 102.056C124.252 102.013 124.243 101.966 124.243 101.918C124.243 101.871 124.252 101.824 124.271 101.78C124.289 101.737 124.315 101.697 124.349 101.663C124.382 101.63 124.422 101.603 124.466 101.585C124.51 101.567 124.557 101.558 124.604 101.558H133.347C133.395 101.558 133.441 101.567 133.485 101.585C133.529 101.603 133.569 101.63 133.602 101.663C133.636 101.697 133.662 101.737 133.68 101.78C133.699 101.824 133.708 101.871 133.708 101.918C133.708 102.013 133.67 102.104 133.604 102.172C133.537 102.24 133.446 102.278 133.351 102.279Z" fill="#999999"/>
<path d="M100.325 98.1339C100.197 98.1034 100.083 98.0306 100.001 97.9273C99.9196 97.824 99.8751 97.6963 99.875 97.5646V81.1042C99.8754 80.9726 99.9199 80.845 100.001 80.7417C100.083 80.6385 100.197 80.5657 100.325 80.5349C100.383 80.5254 100.442 80.5291 100.498 80.5459C100.554 80.5626 100.606 80.5919 100.649 80.6316C100.693 80.6712 100.726 80.7202 100.748 80.7747C100.769 80.8293 100.778 80.888 100.773 80.9464V97.71C100.78 97.7695 100.773 97.8298 100.753 97.8861C100.732 97.9424 100.699 97.9931 100.655 98.0342C100.612 98.0754 100.559 98.1058 100.502 98.1231C100.445 98.1404 100.384 98.1441 100.325 98.1339Z" fill="#CCCCCC"/>
<path d="M102.759 105.261C102.628 105.212 102.515 105.123 102.435 105.008C102.355 104.893 102.311 104.757 102.31 104.617V74.0509C102.311 73.9108 102.355 73.7745 102.435 73.6597C102.515 73.5449 102.628 73.457 102.759 73.4076C103.009 73.3335 103.211 73.5091 103.211 73.7971V104.87C103.205 105.158 103.009 105.334 102.759 105.261Z" fill="#CCCCCC"/>
<path d="M105.207 94.0501C105.075 94.0265 104.956 93.9554 104.873 93.8503C104.79 93.7452 104.748 93.6132 104.756 93.4794V85.1889C104.756 84.8926 104.957 84.6402 105.207 84.6169C105.457 84.5935 105.66 84.8253 105.66 85.1257V93.5411C105.66 93.8402 105.457 94.0693 105.207 94.0501Z" fill="#CCCCCC"/>
<path d="M107.661 94.4535C107.41 94.4343 107.208 94.1682 107.208 93.8609V84.8077C107.208 84.5004 107.41 84.2357 107.661 84.2151C107.912 84.1945 108.113 84.4332 108.113 84.746V93.9254C108.113 94.2354 107.91 94.4727 107.661 94.4535Z" fill="#CCCCCC"/>
<path d="M110.12 97.1105C109.869 97.0844 109.666 96.8032 109.666 96.485V82.1809C109.666 81.8626 109.869 81.5828 110.12 81.5553C110.371 81.5279 110.574 81.7693 110.574 82.0917V96.5728C110.574 96.8979 110.371 97.1324 110.12 97.1105Z" fill="#CCCCCC"/>
<path d="M112.585 98.7583C112.334 98.7281 112.13 98.4373 112.13 98.1081V80.5599C112.13 80.2307 112.334 79.9399 112.585 79.9097C112.836 79.8795 113.041 80.1278 113.041 80.4584V98.2055C113.041 98.5416 112.838 98.7885 112.585 98.7583Z" fill="#CCCCCC"/>
<path d="M115.057 95.2123C114.805 95.1944 114.601 94.9064 114.601 94.5676V84.1015C114.601 83.7627 114.805 83.4732 115.057 83.4568C115.31 83.4403 115.513 83.7037 115.513 84.048V94.6211C115.513 94.964 115.308 95.2287 115.057 95.2123Z" fill="#B3B3B3"/>
<path d="M117.532 101.998C117.28 101.965 117.074 101.656 117.074 101.312V77.3607C117.074 77.0123 117.28 76.7023 117.532 76.6749C117.785 76.6474 117.989 76.9026 117.989 77.2537V101.425C117.989 101.772 117.785 102.031 117.532 101.998Z" fill="#B3B3B3"/>
<path d="M120.013 102.305C119.76 102.275 119.555 101.961 119.555 101.603V77.0645C119.555 76.7078 119.76 76.3924 120.013 76.3622C120.265 76.332 120.471 76.6008 120.471 76.9602V101.707C120.471 102.071 120.265 102.335 120.013 102.305Z" fill="#B3B3B3"/>
<path d="M122.499 95.3946C122.245 95.3808 122.04 95.0749 122.039 94.7087V83.9642C122.039 83.5993 122.245 83.292 122.499 83.2783C122.752 83.2646 122.957 83.5526 122.957 83.9216V94.7581C122.958 95.1188 122.752 95.4069 122.499 95.3946Z" fill="#B3B3B3"/>
<path d="M124.988 94.7262C124.734 94.7166 124.528 94.4052 124.528 94.0404V84.6401C124.528 84.2684 124.734 83.9542 124.988 83.9474C125.242 83.9405 125.446 84.2327 125.446 84.6085V94.0733C125.446 94.4409 125.24 94.7372 124.988 94.7262Z" fill="#B3B3B3"/>
<path d="M127.485 96.1542C127.231 96.1418 127.025 95.825 127.025 95.4464V83.2204C127.025 82.8418 127.231 82.5249 127.485 82.514C127.739 82.503 127.944 82.802 127.944 83.1834V95.4862C127.94 95.8647 127.735 96.172 127.485 96.1542Z" fill="#999999"/>
<path d="M129.977 95.7181C129.722 95.7085 129.517 95.3889 129.517 95.0035V83.6636C129.517 83.2795 129.722 82.9586 129.977 82.9489C130.233 82.9393 130.438 83.2466 130.438 83.6348V95.035C130.438 95.4205 130.229 95.7277 129.977 95.7181Z" fill="#999999"/>
<path d="M132.477 94.9817C132.221 94.9817 132.016 94.6511 132.016 94.2615V84.4072C132.016 84.0163 132.221 83.6939 132.477 83.6857C132.732 83.6775 132.937 83.9916 132.937 84.3839V94.2835C132.937 94.6772 132.73 94.9885 132.477 94.9817Z" fill="#999999"/>
<path d="M134.978 94.4919C134.723 94.4919 134.516 94.1614 134.516 93.7663V84.901C134.516 84.5059 134.723 84.1808 134.978 84.1754C135.233 84.1699 135.439 84.4867 135.439 84.8845V93.7841C135.44 94.1806 135.233 94.4988 134.978 94.4919Z" fill="#999999"/>
<path d="M137.481 108.841C137.226 108.824 137.021 108.485 137.021 108.086V70.5832C137.021 70.184 137.226 69.8452 137.481 69.8274C137.737 69.8096 137.944 70.1196 137.944 70.5132V108.147C137.944 108.548 137.737 108.859 137.481 108.841Z" fill="#999999"/>
<path d="M139.988 103.63C139.733 103.619 139.525 103.284 139.525 102.881V75.7858C139.525 75.3839 139.733 75.0479 139.988 75.0369C140.243 75.0259 140.45 75.3455 140.45 75.7488V102.918C140.45 103.321 140.241 103.641 139.988 103.63Z" fill="#808080"/>
<path d="M142.497 97.7498C142.24 97.7498 142.033 97.411 142.033 97.0063V81.6611C142.033 81.2496 142.24 80.9231 142.497 80.919C142.753 80.9149 142.959 81.24 142.959 81.646V97.0228C142.959 97.4288 142.752 97.7539 142.497 97.7498Z" fill="#808080"/>
<path d="M145.006 94.3604C144.749 94.3604 144.542 94.0257 144.542 93.6183V85.0493C144.542 84.6378 144.749 84.31 145.006 84.3086C145.262 84.3072 145.468 84.6351 145.468 85.0438V93.6252C145.468 94.0326 145.261 94.3618 145.006 94.3604Z" fill="#808080"/>
<path d="M147.512 96.957C147.257 96.957 147.05 96.6223 147.05 96.2135V82.4553C147.05 82.0438 147.257 81.7132 147.512 81.7105C147.767 81.7077 147.976 82.0397 147.976 82.4484V96.219C147.978 96.6277 147.771 96.9583 147.512 96.957Z" fill="#808080"/>
<path d="M150.026 97.2562C149.77 97.2562 149.562 96.9228 149.562 96.5127V82.1551C149.562 81.7436 149.77 81.413 150.026 81.4116C150.283 81.4103 150.488 81.7436 150.488 82.1523V96.5154C150.488 96.9256 150.281 97.2575 150.026 97.2562Z" fill="#808080"/>
<path d="M152.536 102.57C152.279 102.57 152.072 102.239 152.072 101.829V76.8379C152.072 76.4264 152.279 76.0972 152.536 76.0972C152.792 76.0972 152.998 76.4319 152.998 76.842V101.825C152.998 102.235 152.791 102.568 152.536 102.57Z" fill="#808080"/>
<path d="M155.047 112.155C154.792 112.155 154.583 111.833 154.583 111.423V67.2444C154.583 66.8329 154.792 66.5078 155.047 66.5133C155.302 66.5187 155.509 66.8548 155.509 67.2636V111.398C155.509 111.81 155.302 112.15 155.047 112.155Z" fill="#808080"/>
<path d="M157.556 95.7894C157.3 95.7894 157.093 95.4629 157.093 95.0542V83.6128C157.093 83.2013 157.3 82.8762 157.556 82.8789C157.813 82.8817 158.019 83.2136 158.019 83.621V95.0459C158.019 95.4533 157.812 95.7866 157.556 95.7894Z" fill="#808080"/>
<path d="M160.066 96.0417C159.811 96.0417 159.602 95.7193 159.604 95.3133V83.3534C159.604 82.9419 159.811 82.6209 160.066 82.625C160.321 82.6292 160.528 82.9611 160.528 83.3658V95.2996C160.528 95.7056 160.321 96.0348 160.066 96.0417Z" fill="#666666"/>
<path d="M162.573 99.1077C162.317 99.1159 162.11 98.7936 162.11 98.3903V80.2838C162.11 79.8723 162.317 79.5582 162.573 79.5651C162.828 79.5719 163.035 79.9052 163.035 80.3071V98.367C163.035 98.7689 162.828 99.1009 162.573 99.1077Z" fill="#666666"/>
<path d="M165.078 100.711C164.823 100.722 164.616 100.405 164.616 100.005V78.6637C164.616 78.2632 164.823 77.9463 165.078 77.9573C165.334 77.9683 165.541 78.3002 165.541 78.6994V99.9691C165.541 100.368 165.334 100.699 165.078 100.711Z" fill="#666666"/>
<path d="M167.583 96.1584C167.328 96.1584 167.121 95.8497 167.121 95.4533V83.215C167.121 82.8186 167.328 82.5017 167.583 82.5099C167.838 82.5182 168.044 82.8446 168.044 83.2397V95.4286C168.044 95.8237 167.837 96.1501 167.583 96.1584Z" fill="#666666"/>
<path d="M170.085 103.488C169.83 103.505 169.623 103.202 169.623 102.809V75.8587C169.623 75.4664 169.83 75.1618 170.085 75.181C170.34 75.2002 170.546 75.5308 170.546 75.9204V102.747C170.546 103.138 170.339 103.47 170.085 103.488Z" fill="#666666"/>
<path d="M172.585 103.305C172.33 103.325 172.124 103.03 172.124 102.641V76.034C172.124 75.6458 172.33 75.3481 172.585 75.3687C172.84 75.3893 173.044 75.7198 173.044 76.1039V102.563C173.044 102.948 172.839 103.277 172.585 103.305Z" fill="#666666"/>
<path d="M175.083 95.6237C174.829 95.6347 174.623 95.3329 174.623 94.9515V83.7214C174.623 83.3401 174.829 83.0356 175.083 83.0493C175.336 83.063 175.543 83.3771 175.543 83.7557V94.9186C175.541 95.2945 175.335 95.61 175.083 95.6237Z" fill="#4C4C4C"/>
<path d="M177.574 94.7268C177.32 94.7377 177.114 94.4415 177.114 94.0656V84.6009C177.114 84.225 177.32 83.9301 177.574 83.9397C177.828 83.9493 178.033 84.2607 178.033 84.6324V94.0327C178.033 94.4058 177.826 94.7172 177.574 94.7268Z" fill="#4C4C4C"/>
<path d="M180.063 95.9075C179.809 95.9212 179.604 95.6332 179.604 95.2669V83.4017C179.604 83.0327 179.809 82.746 180.063 82.7597C180.317 82.7735 180.521 83.0807 180.521 83.4456V95.2217C180.521 95.5865 180.315 95.8979 180.063 95.9075Z" fill="#4C4C4C"/>
<path d="M182.548 95.2644C182.296 95.2781 182.09 94.9901 182.09 94.6376V84.0315C182.09 83.6708 182.296 83.3896 182.548 83.4033C182.8 83.417 183.006 83.7188 183.006 84.0755V94.5923C183.006 94.9489 182.802 95.2507 182.548 95.2644Z" fill="#4C4C4C"/>
<path d="M185.028 94.3889C184.776 94.4013 184.572 94.127 184.57 93.7744V84.8954C184.57 84.5429 184.776 84.2685 185.028 84.2822C185.281 84.2959 185.485 84.5881 185.485 84.9365V93.7333C185.485 94.0803 185.281 94.3739 185.028 94.3889Z" fill="#4C4C4C"/>
<path d="M187.62 93.0668C187.368 93.0805 187.162 92.8048 187.162 92.4536V86.2151C187.162 85.8626 187.368 85.5869 187.62 85.6006C187.873 85.6143 188.077 85.9078 188.077 86.2562V92.4125C188.077 92.7609 187.873 93.0544 187.62 93.0668Z" fill="#4C4C4C"/>
<path d="M190.211 91.5276C189.959 91.5413 189.753 91.2656 189.753 90.9145V87.7596C189.753 87.407 189.959 87.1313 190.211 87.145C190.463 87.1587 190.668 87.4523 190.668 87.8007V90.8788C190.668 91.2217 190.463 91.5084 190.211 91.5276Z" fill="#4C4C4C"/>
<path d="M76.6963 60.1793V52.2125C76.6963 52.0185 76.5391 51.8613 76.3451 51.8613H73.9008C73.7068 51.8613 73.5496 52.0185 73.5496 52.2125V60.1793C73.5496 60.3733 73.7068 60.5305 73.9008 60.5305H76.3451C76.5391 60.5305 76.6963 60.3733 76.6963 60.1793Z" fill="#CCCCCC"/>
<path d="M111.324 60.1793V52.2125C111.324 52.0186 111.167 51.8613 110.973 51.8613H108.529C108.335 51.8613 108.178 52.0186 108.178 52.2125V60.1793C108.178 60.3733 108.335 60.5305 108.529 60.5305H110.973C111.167 60.5305 111.324 60.3733 111.324 60.1793Z" fill="#CCCCCC"/>
<path d="M115.576 51.5254H69.2986C68.7411 51.5254 68.2891 51.9774 68.2891 52.535V55.1865C68.2891 55.744 68.7411 56.196 69.2986 56.196H115.576C116.133 56.196 116.585 55.744 116.585 55.1865V52.535C116.585 51.9774 116.133 51.5254 115.576 51.5254Z" fill="#CCCCCC" stroke="black" stroke-width="0.489408" stroke-linecap="round" stroke-linejoin="round"/>
<path d="M94.5242 42.1934L117.124 42.2057C117.14 42.2057 117.156 42.2121 117.167 42.2234C117.178 42.2347 117.185 42.2501 117.185 42.2661V47.5581C117.185 47.5741 117.178 47.5895 117.167 47.6008C117.156 47.6121 117.14 47.6185 117.124 47.6185L94.5242 47.6075C94.5081 47.6071 94.4927 47.6005 94.4814 47.5889C94.4702 47.5774 94.4639 47.5619 94.4639 47.5457V42.2537C94.4639 42.2377 94.4702 42.2224 94.4815 42.211C94.4929 42.1997 94.5082 42.1934 94.5242 42.1934Z" fill="#333333" stroke="black" stroke-width="0.489408" stroke-linecap="round" stroke-linejoin="round"/>
<path d="M97.2686 42.1851H97.7939L97.7994 47.6197L97.274 47.6184L97.2686 42.1851Z" fill="#CCCCCC" stroke="black" stroke-width="0.489408" stroke-linecap="round" stroke-linejoin="round"/>
<path d="M95.8604 42.1836H96.3857L96.3912 47.6183H95.8658L95.8604 42.1836Z" fill="#CCCCCC" stroke="black" stroke-width="0.489408" stroke-linecap="round" stroke-linejoin="round"/>
<path d="M92.8494 47.5596L120.791 47.5733C120.807 47.5737 120.822 47.5802 120.833 47.5915C120.844 47.6027 120.85 47.6179 120.85 47.6337V51.4648C120.85 51.4808 120.844 51.4962 120.832 51.5075C120.821 51.5188 120.806 51.5252 120.79 51.5252L92.8494 51.5115C92.8333 51.5111 92.8179 51.5045 92.8066 51.4929C92.7954 51.4814 92.7891 51.4659 92.7891 51.4498V47.6145C92.7901 47.5993 92.797 47.5851 92.8082 47.5749C92.8195 47.5647 92.8342 47.5592 92.8494 47.5596Z" fill="#999999" stroke="black" stroke-width="0.489408" stroke-linecap="round" stroke-linejoin="round"/>
<path d="M117.188 48.7393H117.61L117.611 50.3565H117.189L117.188 48.7393Z" fill="white" stroke="black" stroke-width="0.489408" stroke-linecap="round" stroke-linejoin="round"/>
<path d="M116.284 48.7393H115.861V50.3565H116.284V48.7393Z" fill="white" stroke="black" stroke-width="0.489408" stroke-linecap="round" stroke-linejoin="round"/>
<path d="M82.6918 29.2472C82.6918 29.2472 89.8877 24.7507 88.1429 15.5233C86.3981 6.29583 80.8455 2.78564 80.8455 2.78564C80.8455 2.78564 77.8469 9.43978 80.2213 17.6138C82.5957 25.7877 82.6918 29.2472 82.6918 29.2472Z" fill="#4C4C4C" stroke="black" stroke-width="0.489408" stroke-linecap="round" stroke-linejoin="round"/>
<path d="M72.6992 30.749C72.6992 30.749 74.4824 33.2181 75.1683 36.0356C75.8541 38.8531 76.0201 40.5512 76.0201 40.5512" stroke="black" stroke-width="0.489408" stroke-linecap="round" stroke-linejoin="round"/>
<path d="M72.6991 30.7494C72.6991 30.7494 73.4453 22.8045 65.5511 18.8431C57.657 14.8816 51.8643 17.0255 51.8643 17.0255C51.8643 17.0255 55.1262 23.061 62.5924 25.9567C70.0585 28.8524 72.6991 30.7494 72.6991 30.7494Z" fill="#333333" stroke="black" stroke-width="0.489408" stroke-linecap="round" stroke-linejoin="round"/>
<path d="M47.9795 29.084C47.9795 29.084 58.2042 32.7972 65.2767 32.3761C72.3492 31.9549 77.718 30.5585 77.718 30.5585L74.7346 25.9963C74.7346 25.9963 66.8953 23.1733 60.0793 24.7069C55.8826 25.6669 51.8191 27.1368 47.9795 29.084Z" fill="#4C4C4C" stroke="black" stroke-width="0.489408" stroke-linecap="round" stroke-linejoin="round"/>
<path d="M79.526 25.992C79.526 25.992 82.6644 16.7344 74.378 9.77712C66.0915 2.81984 58.5801 3.74162 58.5801 3.74162C58.5801 3.74162 60.757 11.8635 68.8363 17.4216C76.9156 22.9798 79.526 25.992 79.526 25.992Z" fill="#4C4C4C" stroke="black" stroke-width="0.489408" stroke-linecap="round" stroke-linejoin="round"/>
<path d="M79.526 25.992C79.526 25.992 82.6644 16.7344 74.378 9.77712C66.0915 2.81984 58.5801 3.74162 58.5801 3.74162C58.5801 3.74162 67.4756 9.0172 72.5591 14.8908C78.9787 22.3021 79.526 25.992 79.526 25.992Z" fill="#333333" stroke="black" stroke-width="0.489408" stroke-linecap="round" stroke-linejoin="round"/>
<path d="M77.3761 37.8245C77.3761 37.8245 79.0221 34.5873 79.0907 31.1786C79.1593 27.7699 78.5695 25.9922 78.5695 25.9922L72.1787 26.678L77.3761 37.8245Z" fill="#333333" stroke="black" stroke-width="0.489408" stroke-linecap="round" stroke-linejoin="round"/>
<path d="M64.8513 31.5189C64.8513 31.5189 68.5152 28.5917 70.2188 28.1376C71.9225 27.6836 78.5697 25.9923 78.5697 25.9923L75.6178 25.5232C74.1248 25.2839 72.7725 24.5025 71.8196 23.3284L70.2188 21.3628C68.5311 22.2865 67.1197 23.643 66.1298 25.2927C64.5098 28.0252 64.8513 31.5189 64.8513 31.5189Z" fill="#999999" stroke="black" stroke-width="0.489408" stroke-linecap="round" stroke-linejoin="round"/>
<path d="M79.0869 24.5698C79.0869 24.5698 80.4806 27.2803 80.733 30.1623C80.9854 33.0442 79.4984 38.6833 79.4984 38.6833" stroke="black" stroke-width="0.489408" stroke-linecap="round" stroke-linejoin="round"/>
<path d="M77.377 38.6765C77.377 38.6765 79.3371 37.8246 79.7623 34.9276C80.0148 33.2653 80.1574 31.5882 80.1889 29.9071C80.1889 29.9071 88.3821 28.2104 88.3753 28.7577C88.3684 29.305 83.6017 34.5024 82.2794 35.6162C80.9571 36.73 77.377 38.6765 77.377 38.6765Z" fill="#4C4C4C" stroke="black" stroke-width="0.489408" stroke-linecap="round" stroke-linejoin="round"/>
<path d="M80.1885 29.9073L84.1664 28.515C85.706 27.976 87.1508 27.1974 88.4475 26.2078L91.0908 24.1914C91.0908 24.1914 94.5845 27.6618 95.0962 32.8331C95.6078 38.0045 95.0962 39.1924 95.0962 39.1924C95.0962 39.1924 89.1306 33.9717 86.4901 32.8331C83.8496 31.6946 80.1885 29.9073 80.1885 29.9073Z" fill="#999999" stroke="black" stroke-width="0.489408" stroke-linecap="round" stroke-linejoin="round"/>
<path d="M68.4219 36.3813V36.5898C68.4216 39.0384 68.9064 41.4627 69.8481 43.7228C70.7899 45.983 72.1699 48.0343 73.9087 49.7582C75.1054 50.9456 76.7183 51.619 78.404 51.6352C80.0898 51.6513 81.7153 51.0089 82.9345 49.8446L82.9839 49.7966C84.7969 48.0656 86.2401 45.9849 87.2261 43.6802C88.2121 41.3756 88.7204 38.8949 88.7203 36.3882H68.426L68.4219 36.3813Z" fill="#E5E5E5" stroke="black" stroke-width="0.489408" stroke-linecap="round" stroke-linejoin="round"/>
<path d="M200.733 82.6488C199.989 79.5683 197.365 77.5627 194.872 78.1692C192.379 78.7757 190.961 81.7646 191.705 84.8451C192.449 87.9256 195.073 89.9312 197.566 89.3247C200.059 88.7182 201.477 85.7293 200.733 82.6488Z" fill="#808080" stroke="black" stroke-width="0.5" stroke-linecap="round" stroke-linejoin="round"/>
<path d="M187.011 147.069C189.911 147.43 192.538 145.643 192.879 143.08L201.732 108.178C202.073 105.615 200 103.243 197.1 102.886C194.201 102.526 191.574 104.312 191.233 106.874L182.928 140.446C182.586 143.008 184.112 146.709 187.011 147.069Z" fill="#999999" stroke="black" stroke-width="0.489408" stroke-miterlimit="10" stroke-linecap="round" stroke-linejoin="round"/>
<path d="M216.992 103.405L208.735 86.4937L201.374 88.2028L203.1 107.375L216.992 103.405Z" fill="#808080" stroke="black" stroke-width="0.489408" stroke-miterlimit="10" stroke-linecap="round" stroke-linejoin="round"/>
<path d="M214.508 81.9175C214.508 81.9175 215.682 76.5679 213.16 70.5214C210.774 64.8041 204.47 62.1938 200.466 62.774C195.939 63.4297 192.16 67.0167 191.292 71.1112C190.195 76.2688 192.627 82.9271 194.173 84.8694C194.931 85.8296 202.359 83.2042 202.359 83.2042L214.508 81.9175Z" fill="#999999" stroke="black" stroke-width="0.489408" stroke-linecap="round" stroke-linejoin="round"/>
<path d="M193.052 81.9162C193.996 90.0093 197.636 95.6456 202.568 95.0709C208.123 94.4221 213.953 87.5361 212.984 79.1975C212.248 72.8877 207.223 68.8562 202.482 68.4598C201.215 68.3542 200.742 68.313 198.88 68.7342C196.337 69.3199 196.904 67.9441 195.698 69.0414C192.388 72.0633 192.38 76.1551 193.052 81.9162Z" fill="#999999" stroke="black" stroke-width="0.489408" stroke-linecap="round" stroke-linejoin="round"/>
<path d="M205.462 82.5924C206.697 82.5335 209.492 81.2811 208.09 77.3498C206.485 73.9301 203.964 75.4445 203.125 76.7586C202.551 77.657 202.02 78.9849 202.388 80.3689C202.828 82.0438 204.466 82.6418 205.462 82.5924Z" fill="#999999" stroke="black" stroke-width="0.489408" stroke-linecap="round" stroke-linejoin="round"/>
<path d="M205.235 81.4152C205.983 81.3183 206.519 80.6959 206.433 80.0249C206.346 79.354 205.669 78.8887 204.92 78.9856C204.172 79.0826 203.636 79.705 203.723 80.3759C203.81 81.0468 204.487 81.5121 205.235 81.4152Z" fill="#999999" stroke="black" stroke-width="0.489408" stroke-linecap="round" stroke-linejoin="round"/>
<path d="M207.067 80.5817C207.067 80.5817 207.263 78.2128 205.322 78.35C203.296 78.4871 203.333 80.4789 203.333 80.4789C203.582 80.2361 203.881 80.052 204.21 79.94C204.539 79.828 204.889 79.7909 205.234 79.8314C205.903 79.9049 206.538 80.1649 207.067 80.5817Z" fill="#B3B3B3" stroke="black" stroke-width="0.489408" stroke-linecap="round" stroke-linejoin="round"/>
<path d="M195.87 84.1013C195.239 84.2385 194.079 84.3167 193.321 83.7488C193.275 83.5746 193.14 82.7488 192.946 81.0795C192.802 79.8449 192.741 78.4348 192.741 78.4348C193.786 76.5666 195.716 77.5638 196.266 77.9918C196.782 78.3852 197.202 78.8905 197.494 79.4695C197.786 80.0485 197.942 80.6862 197.952 81.3346C197.979 81.9655 197.786 82.5861 197.406 83.0906C197.027 83.5952 196.484 83.9524 195.87 84.1013Z" fill="#999999" stroke="black" stroke-width="0.489408" stroke-linecap="round" stroke-linejoin="round"/>
<path d="M195.436 82.945C196.184 82.8481 196.721 82.2256 196.634 81.5547C196.547 80.8838 195.87 80.4185 195.122 80.5154C194.373 80.6123 193.837 81.2348 193.924 81.9057C194.011 82.5766 194.688 83.0419 195.436 82.945Z" fill="#999999" stroke="black" stroke-width="0.489408" stroke-linecap="round" stroke-linejoin="round"/>
<path d="M193.463 82.376C193.463 82.376 193.189 80.2389 194.972 80.0825C196.782 79.9234 197.049 81.9864 197.049 81.9864C196.749 81.7643 196.403 81.6128 196.037 81.5432C195.67 81.4736 195.293 81.4877 194.933 81.5845C193.896 81.8808 193.463 82.376 193.463 82.376Z" fill="#B3B3B3" stroke="black" stroke-width="0.489408" stroke-linecap="round" stroke-linejoin="round"/>
<path d="M198.377 89.7429L200.413 90.5604L202.718 90.2627L204.513 88.9473L198.377 89.7429Z" fill="#999999" stroke="black" stroke-width="0.489408" stroke-linecap="round" stroke-linejoin="round"/>
<path d="M204.529 88.9283L202.049 88.167L200.525 88.3645L198.392 89.7225L204.529 88.9283Z" fill="#B3B3B3" stroke="black" stroke-width="0.489408" stroke-linecap="round" stroke-linejoin="round"/>
<path d="M202.779 85.993C202.779 85.993 200.834 81.1399 201.217 74.5845C201.499 69.763 202.502 68.4557 202.502 68.4557C202.502 68.4557 201.455 65.7823 198.303 66.6163C195.151 67.4503 194.874 69.896 194.874 69.896C194.874 69.896 196.628 71.3432 197.892 76.0248C199.401 81.5939 198.978 86.4868 198.978 86.4868L202.779 85.993Z" fill="#B3B3B3" stroke="black" stroke-width="0.489408" stroke-linecap="round" stroke-linejoin="round"/>
<path d="M202.762 85.9972L201.709 85.2373L200.761 85.8079L199.727 85.535L198.99 86.4869L202.762 85.9972Z" fill="#999999" stroke="black" stroke-width="0.489408" stroke-linecap="round" stroke-linejoin="round"/>
<path d="M207.42 232.989H196.481C196.481 232.989 170.751 235.703 170.007 212.018C169.458 194.674 189.535 177.543 199.805 176.04C210.075 174.536 210.239 163.037 226.956 165.615C243.673 168.192 256.666 180.336 257.327 197.527C257.988 214.719 249.796 224.284 243.011 228.152L242.694 228.33C237.225 231.415 231.32 232.994 225.357 232.994L207.42 232.989Z" fill="#CCCCCC" stroke="black" stroke-width="0.489408" stroke-linecap="round" stroke-linejoin="round"/>
<path d="M237.504 170.939C237.504 170.939 242.132 175.691 237.395 183.714C232.549 191.922 218.141 193.5 218.141 193.5" stroke="black" stroke-width="0.489408" stroke-linecap="round" stroke-linejoin="round"/>
<path d="M200.571 149.964H226.571V141.143L200.571 143.697V149.964Z" fill="#808080" stroke="black" stroke-width="0.489408" stroke-miterlimit="10" stroke-linecap="round" stroke-linejoin="round"/>
<path d="M198.976 158.57L167.976 173.589L183.8 188.607L204.259 186.809C204.259 186.809 214.991 185.638 216.604 174.546C218.217 163.454 198.976 158.57 198.976 158.57Z" fill="#999999" stroke="black" stroke-width="0.489408" stroke-miterlimit="10" stroke-linecap="round" stroke-linejoin="round"/>
<path d="M183.462 186.947L200.355 237.891L189.647 240.628L163.938 187.456L183.462 186.947Z" fill="#999999" stroke="black" stroke-width="0.489408" stroke-miterlimit="10" stroke-linecap="round" stroke-linejoin="round"/>
<path d="M185.572 185.25C185.572 185.25 183.573 179.557 181.124 176.188C178.674 172.819 175.203 171.492 171.324 172.411C167.445 173.33 159.278 176.801 163.361 186.6C167.445 196.4 177.653 190.939 180.154 189.459C182.654 187.979 185.572 185.25 185.572 185.25Z" fill="#CCCCCC" stroke="black" stroke-width="0.489408" stroke-miterlimit="10" stroke-linecap="round" stroke-linejoin="round"/>
<path d="M178.362 245.405C178.362 245.405 172.556 245.523 172.556 243.419C172.556 240.592 179.89 237.307 182.946 236.314C183.495 236.134 184.081 235.95 184.664 235.765C188.05 234.709 191.576 234.171 195.123 234.171H196.054C197.029 234.163 197.994 234.357 198.889 234.743C199.784 235.129 200.589 235.697 201.252 236.411C202.04 237.281 202.659 238.418 202.659 239.84C202.659 241.486 201.663 242.747 200.503 243.656C198.907 244.885 196.939 245.531 194.925 245.489L178.362 245.405Z" fill="#CCCCCC" stroke="black" stroke-width="0.489408" stroke-miterlimit="10" stroke-linecap="round" stroke-linejoin="round"/>
<path d="M218.14 154.392L183.024 176.417L202.407 188.65L222.866 186.852C222.866 186.852 233.598 185.68 235.211 174.589C236.824 163.497 223.479 151.773 223.479 151.773L218.14 154.392Z" fill="#999999" stroke="black" stroke-width="0.489408" stroke-miterlimit="10" stroke-linecap="round" stroke-linejoin="round"/>
<path d="M202.068 186.99L218.96 237.934L208.253 240.67L182.543 187.499L202.068 186.99Z" fill="#999999" stroke="black" stroke-width="0.489408" stroke-miterlimit="10" stroke-linecap="round" stroke-linejoin="round"/>
<path d="M202.654 188.665C202.654 188.665 201.114 182.64 198.901 178.963C196.689 175.285 193.244 173.613 189.18 174.204C185.115 174.795 176.423 177.634 179.732 188.059C183.04 198.483 194.014 193.795 196.715 192.5C199.415 191.205 202.654 188.665 202.654 188.665Z" fill="#CCCCCC" stroke="black" stroke-width="0.489408" stroke-miterlimit="10" stroke-linecap="round" stroke-linejoin="round"/>
<path d="M196.967 245.449C196.967 245.449 191.16 245.566 191.16 243.462C191.16 240.636 198.495 237.351 201.551 236.356C202.099 236.178 202.685 235.993 203.268 235.808C206.654 234.751 210.181 234.214 213.727 234.214H214.657C215.632 234.205 216.597 234.4 217.492 234.786C218.387 235.171 219.192 235.739 219.855 236.454C220.645 237.323 221.262 238.46 221.262 239.883C221.262 241.529 220.268 242.79 219.107 243.699C217.511 244.927 215.543 245.573 213.53 245.532L196.967 245.449Z" fill="#CCCCCC" stroke="black" stroke-width="0.489408" stroke-miterlimit="10" stroke-linecap="round" stroke-linejoin="round"/>
<path d="M227.874 146.896H198.199L196.946 159.554L204.353 163.038C204.353 163.038 211.383 158.57 213.228 157.843C217.226 156.267 222.397 155.872 228.195 160.296C230.259 161.87 232.31 163.451 234.266 166.913C231.814 159.028 227.874 146.896 227.874 146.896Z" fill="#CCCCCC" stroke="black" stroke-width="0.489408" stroke-linecap="round" stroke-linejoin="round"/>
<path d="M227.006 105.891C226.861 101.682 223.06 98.5528 218.902 99.2195L201.308 102.04C196.073 102.879 192.404 107.657 192.942 112.931L196.147 144.296L228.235 141.676L227.006 105.891Z" fill="#999999" stroke="black" stroke-width="0.489408" stroke-miterlimit="10" stroke-linecap="round" stroke-linejoin="round"/>
<path d="M211.338 150.405L220.085 151.697C221.249 151.869 222.349 152.341 223.275 153.067C224.202 153.792 224.924 154.746 225.37 155.835L228.169 162.692C228.215 162.806 228.238 162.929 228.235 163.052C228.232 163.176 228.204 163.297 228.152 163.409C228.099 163.521 228.025 163.621 227.932 163.703C227.839 163.785 227.731 163.846 227.613 163.884C227.413 163.947 227.198 163.939 227.004 163.861C226.81 163.783 226.649 163.639 226.55 163.455L226.517 163.392L226.534 163.557C226.553 163.738 226.512 163.922 226.416 164.077C226.32 164.233 226.175 164.352 226.004 164.417L225.834 164.479C225.731 164.518 225.62 164.535 225.51 164.53C225.399 164.525 225.291 164.498 225.191 164.45C225.091 164.402 225.002 164.335 224.928 164.252C224.855 164.169 224.8 164.072 224.765 163.967L224.755 164.178C224.744 164.391 224.665 164.594 224.528 164.757C224.392 164.92 224.206 165.034 223.998 165.081L223.934 165.097C223.721 165.145 223.497 165.121 223.3 165.027C223.102 164.934 222.942 164.777 222.844 164.581L222.846 164.633C222.863 164.847 222.803 165.06 222.676 165.233C222.549 165.406 222.363 165.528 222.154 165.575C221.96 165.619 221.757 165.597 221.577 165.513C221.397 165.428 221.251 165.286 221.161 165.109L217.674 158.224L213.399 158.194C212.524 158.189 210 156.706 209.569 155.945L186.235 147.348C184.93 146.867 183.854 145.913 183.219 144.676C182.584 143.439 182.438 142.008 182.808 140.668C183.039 139.831 183.464 139.06 184.048 138.418C184.631 137.775 185.358 137.278 186.168 136.968C186.979 136.657 187.851 136.541 188.715 136.629C189.578 136.717 190.409 137.007 191.141 137.474L211.338 150.405Z" fill="#999999" stroke="black" stroke-width="0.50304" stroke-linecap="round" stroke-linejoin="round"/>
<path d="M226.557 163.512L224.24 157.38" stroke="black" stroke-width="0.50304" stroke-linecap="round" stroke-linejoin="round"/>
<path d="M224.796 164.104L222.472 157.838" stroke="black" stroke-width="0.50304" stroke-linecap="round" stroke-linejoin="round"/>
<path d="M222.874 164.678L220.501 158.38" stroke="black" stroke-width="0.50304" stroke-linecap="round" stroke-linejoin="round"/>
<path d="M235.525 140.458C238.425 139.655 240.155 136.922 239.39 134.343L229.824 101.406C229.06 98.827 226.089 97.389 223.189 98.1817C220.289 98.985 218.559 101.718 219.323 104.297L228.889 137.234C229.658 139.813 232.624 141.256 235.525 140.458Z" fill="#999999" stroke="black" stroke-width="0.489408" stroke-miterlimit="10" stroke-linecap="round" stroke-linejoin="round"/>
<path d="M205.569 120.991L199.056 115.372C198.188 114.623 197.141 114.113 196.016 113.893C194.892 113.672 193.73 113.749 192.644 114.114L185.816 116.414C185.702 116.452 185.597 116.514 185.508 116.594C185.419 116.675 185.348 116.773 185.299 116.883C185.25 116.993 185.224 117.111 185.222 117.231C185.221 117.352 185.245 117.471 185.292 117.581C185.372 117.769 185.514 117.922 185.696 118.015C185.877 118.108 186.085 118.135 186.283 118.09L186.351 118.075L186.219 118.167C186.072 118.268 185.964 118.415 185.91 118.585C185.856 118.755 185.861 118.938 185.923 119.105L185.984 119.27C186.021 119.371 186.079 119.463 186.153 119.542C186.227 119.62 186.316 119.682 186.415 119.725C186.514 119.768 186.62 119.791 186.728 119.792C186.836 119.793 186.943 119.772 187.042 119.731L186.892 119.873C186.742 120.016 186.643 120.204 186.609 120.408C186.576 120.612 186.611 120.822 186.708 121.005L186.74 121.06C186.84 121.25 187.001 121.4 187.197 121.487C187.394 121.573 187.613 121.59 187.82 121.536L187.778 121.561C187.609 121.684 187.49 121.864 187.444 122.068C187.397 122.271 187.425 122.485 187.524 122.669C187.614 122.84 187.759 122.975 187.936 123.054C188.112 123.132 188.31 123.149 188.497 123.103L195.785 121.292L198.523 124.426C199.083 125.066 201.78 125.982 202.614 125.815L232.088 140.497C233.272 141.153 234.659 141.34 235.974 141.02C237.289 140.701 238.436 139.899 239.187 138.774C239.656 138.071 239.954 137.269 240.056 136.43C240.158 135.592 240.062 134.741 239.775 133.947C239.489 133.152 239.02 132.436 238.406 131.856C237.792 131.276 237.05 130.848 236.241 130.607L205.569 120.991Z" fill="#999999" stroke="black" stroke-width="0.489408" stroke-linecap="round" stroke-linejoin="round"/>
<path d="M186.239 118.117L192.228 115.923" stroke="black" stroke-width="0.489408" stroke-linecap="round" stroke-linejoin="round"/>
<path d="M186.925 119.79L193.017 117.517" stroke="black" stroke-width="0.489408" stroke-linecap="round" stroke-linejoin="round"/>
<path d="M187.722 121.568L193.867 119.312" stroke="black" stroke-width="0.489408" stroke-linecap="round" stroke-linejoin="round"/>
<path d="M218.076 80.9252C218.071 77.7561 215.986 75.194 213.42 75.2026C210.855 75.2111 208.779 77.7871 208.784 80.9562C208.79 84.1253 210.874 86.6874 213.44 86.6789C216.005 86.6703 218.081 84.0943 218.076 80.9252Z" fill="#808080" stroke="black" stroke-width="0.5" stroke-linecap="round" stroke-linejoin="round"/>
<mask id="path-106-inside-1_2386_442594" fill="white">
<path d="M210.841 94.2912C210.29 94.7148 209.668 95.0375 209.005 95.2443L208.905 94.9346C211.011 94.2806 212.542 92.4382 213.112 89.8891C213.819 86.7184 213.828 81.8993 213.828 81.8511L214.156 81.85C214.156 81.8991 214.147 86.7532 213.43 89.9593C213.019 91.8179 212.108 93.3187 210.841 94.2912Z"/>
</mask>
<path d="M210.841 94.2912C210.29 94.7148 209.668 95.0375 209.005 95.2443L208.905 94.9346C211.011 94.2806 212.542 92.4382 213.112 89.8891C213.819 86.7184 213.828 81.8993 213.828 81.8511L214.156 81.85C214.156 81.8991 214.147 86.7532 213.43 89.9593C213.019 91.8179 212.108 93.3187 210.841 94.2912Z" fill="black"/>
<path d="M210.841 94.2912L210.537 93.8946L210.536 93.8948L210.841 94.2912ZM209.005 95.2443L208.529 95.3977L208.681 95.8691L209.154 95.7217L209.005 95.2443ZM208.905 94.9346L208.757 94.4571L208.274 94.607L208.429 95.088L208.905 94.9346ZM213.112 89.8891L213.6 89.9981L213.6 89.998L213.112 89.8891ZM213.828 81.8511L213.827 81.3511L213.33 81.3527L213.328 81.8492L213.828 81.8511ZM214.156 81.85L214.656 81.8451L214.651 81.3483L214.154 81.35L214.156 81.85ZM213.43 89.9593L212.942 89.8503L212.942 89.8512L213.43 89.9593ZM210.536 93.8948C210.032 94.2824 209.463 94.5778 208.856 94.767L209.154 95.7217C209.873 95.4973 210.548 95.1472 211.146 94.6877L210.536 93.8948ZM209.481 95.0909L209.381 94.7812L208.429 95.088L208.529 95.3977L209.481 95.0909ZM209.053 95.4121C211.365 94.694 213 92.6827 213.6 89.9981L212.624 89.78C212.084 92.1937 210.656 93.8672 208.757 94.4571L209.053 95.4121ZM213.6 89.998C213.963 88.3715 214.143 86.3409 214.235 84.7273C214.28 83.9171 214.304 83.2055 214.316 82.6932C214.322 82.437 214.325 82.2304 214.327 82.086C214.327 82.0138 214.328 81.9572 214.328 81.9177C214.328 81.8979 214.328 81.8824 214.328 81.8714C214.328 81.8616 214.328 81.8527 214.328 81.853L213.328 81.8492C213.328 81.908 213.317 86.6716 212.624 89.7802L213.6 89.998ZM213.83 82.3511L214.157 82.35L214.154 81.35L213.827 81.3511L213.83 82.3511ZM213.656 81.8549C213.656 81.8532 213.656 81.8708 213.656 81.9111C213.655 81.9492 213.655 82.0045 213.654 82.0754C213.653 82.2172 213.649 82.4213 213.643 82.6752C213.632 83.183 213.608 83.8889 213.563 84.6924C213.471 86.3064 213.291 88.2883 212.942 89.8503L213.918 90.0683C214.648 86.7998 214.656 81.8933 214.656 81.8451L213.656 81.8549ZM212.942 89.8512C212.552 91.614 211.696 93.0047 210.537 93.8946L211.146 94.6879C212.52 93.6327 213.486 92.0217 213.919 90.0674L212.942 89.8512Z" fill="black" mask="url(#path-106-inside-1_2386_442594)"/>
<path d="M208.078 94.3043L206.37 94.8132C205.888 94.9568 205.612 95.4634 205.755 95.9448L205.776 96.0149C205.918 96.4962 206.424 96.77 206.906 96.6263L208.614 96.1175C209.097 95.9738 209.372 95.4672 209.23 94.9859L209.209 94.9158C209.067 94.4344 208.56 94.1607 208.078 94.3043Z" fill="#4C4C4C" stroke="black" stroke-width="0.5" stroke-linecap="round" stroke-linejoin="round"/>
<path d="M217.697 80.9982C217.693 78.7136 216.19 76.8665 214.34 76.8727C212.49 76.8788 210.993 78.7359 210.997 81.0205C211.001 83.3052 212.504 85.1522 214.354 85.1461C216.204 85.1399 217.7 83.2828 217.697 80.9982Z" fill="#B3B3B3" stroke="black" stroke-width="0.5" stroke-linecap="round" stroke-linejoin="round"/>
<path d="M96.6102 233.285H114.728C114.728 233.285 147.632 233.549 148.592 203.308C149.552 173.068 126.745 165.47 109.725 163.549C92.7049 161.629 86.6077 127.516 58.8993 130.808C31.1909 134.1 14.9938 166.072 13.8964 188.019C12.7991 209.966 26.3789 222.175 37.6269 227.113L38.1509 227.342C47.2214 231.272 57.0029 233.295 66.8881 233.285H96.6102Z" fill="#CCCCCC" stroke="black" stroke-width="0.489408" stroke-linecap="round" stroke-linejoin="round"/>
<path d="M95.4866 137.873L101.997 166.818L89.6568 169.73L81.2305 135.86L95.4866 137.873Z" fill="#E5E5E5" stroke="black" stroke-width="0.489408" stroke-linecap="round" stroke-linejoin="round"/>
<path d="M50.2189 93.7229C52.9621 93.7229 55.1858 91.4992 55.1858 88.756C55.1858 86.0128 52.9621 83.7891 50.2189 83.7891C47.4757 83.7891 45.252 86.0128 45.252 88.756C45.252 91.4992 47.4757 93.7229 50.2189 93.7229Z" fill="black"/>
<path d="M98.7063 185.457L52.8008 198.577L55.2607 207.184L101.166 194.064L98.7063 185.457Z" fill="#E5E5E5" stroke="black" stroke-width="0.489408" stroke-linecap="round" stroke-linejoin="round"/>
<path d="M76.2047 194.405L92.9717 239.108L101.353 235.964L84.5863 191.262L76.2047 194.405Z" fill="#E5E5E5" stroke="black" stroke-width="0.489408" stroke-linecap="round" stroke-linejoin="round"/>
<path d="M48.5869 218.353L47.5362 224.907C47.4279 225.583 46.2455 226.314 45.5774 226.458L43.5295 225.84L41.8711 218.372L44.0452 201.013L46.1481 196.985C46.9825 196.746 47.8626 196.715 48.7118 196.894L54.7048 198.153L62.127 196.233L64.6263 204.982L56.953 207.028L48.5869 218.353Z" fill="black" stroke="black" stroke-width="0.489408" stroke-miterlimit="10" stroke-linecap="round" stroke-linejoin="round"/>
<path d="M45.3684 226.521L40.8418 227.321C40.8418 227.321 39.5236 225.7 38.2671 221.304C37.0106 216.907 37.1986 215.236 37.1986 215.236L41.0983 214.123L42.2917 207.315L35.6815 209.202C35.6815 209.202 34.4757 204.983 34.2247 202.772C33.9737 200.561 35.2672 200.096 35.2672 200.096L45.0063 197.078C45.8403 196.839 46.8732 196.605 47.7223 196.783C47.7278 196.78 41.4454 213.552 45.3684 226.521Z" fill="white" stroke="black" stroke-width="0.489408" stroke-miterlimit="10" stroke-linecap="round" stroke-linejoin="round"/>
<path d="M53.8356 180.648L56.5077 165.663C56.5077 165.663 81.6785 163.661 81.7745 163.661L89.2393 164.22L95.486 186.903C95.486 186.903 86.6001 199.79 77.7911 197.321C68.982 194.852 66.6213 193.343 61.3814 193.198C50.9989 192.923 53.8356 180.648 53.8356 180.648Z" fill="#333333" stroke="black" stroke-width="0.489408" stroke-linecap="round" stroke-linejoin="round"/>
<path d="M93.4883 192.208L119.157 171.663L87.8438 178.114" fill="#333333"/>
<path d="M93.4883 192.208L119.157 171.663L87.8438 178.114" stroke="black" stroke-width="0.489408" stroke-miterlimit="10" stroke-linecap="round" stroke-linejoin="round"/>
<path d="M73.0742 192.202L117.73 172.195C123.645 169.547 130.997 171.996 133.281 178.062C134.79 182.088 132.308 189.77 125.646 191.975L79.4074 203.95L73.0742 192.202Z" fill="#333333" stroke="black" stroke-width="0.489408" stroke-linecap="round" stroke-linejoin="round"/>
<path d="M50.9997 194.071C42.7462 192.151 35.7738 180.26 34.2046 170.94C32.121 158.573 40.963 145.388 40.963 145.388" stroke="black" stroke-width="0.489408" stroke-linecap="round" stroke-linejoin="round"/>
<path d="M102.479 239.169L94.2181 242.268L89.2402 230.476L98.7009 226.928L102.479 239.169Z" fill="black" stroke="black" stroke-width="0.489408" stroke-miterlimit="10" stroke-linecap="round" stroke-linejoin="round"/>
<path d="M107.906 248.571L95.86 253.091L93.4883 240.321L101.749 237.223L107.906 248.571Z" fill="black" stroke="black" stroke-width="0.489408" stroke-miterlimit="10" stroke-linecap="round" stroke-linejoin="round"/>
<path d="M95.8684 253.221L108.031 248.659L109.94 253.747C110.129 254.252 110.11 254.811 109.887 255.301C109.664 255.792 109.255 256.174 108.751 256.363L100.387 259.5C99.883 259.689 99.324 259.67 98.8335 259.447C98.343 259.224 97.9611 258.816 97.7719 258.311L95.8633 253.223L95.8684 253.221Z" fill="white" stroke="black" stroke-width="0.489408" stroke-miterlimit="10" stroke-linecap="round" stroke-linejoin="round"/>
<path d="M67.6174 84.833C67.6174 84.833 63.8041 81.7824 56.8413 86.6986C48.5617 92.5461 48.0981 97.2703 49.3573 105.304C50.5918 113.201 47.4616 116.193 48.4273 119.521L82.5196 111.882C82.5196 111.882 82.0779 107.607 77.2427 103.587C74.2949 101.136 73.5843 103.697 73.8587 96.0056C73.9506 93.3993 75.2839 90.2444 73.2304 87.1581C71.2991 84.2473 67.6174 84.833 67.6174 84.833Z" fill="black"/>
<path d="M57.091 157.522L44.5934 156.802L44.1064 142.713H57.8921L57.091 157.522Z" fill="#E5E5E5" stroke="black" stroke-width="0.489408" stroke-linecap="round" stroke-linejoin="round"/>
<path d="M56.6292 149.765L44.2386 148.554C44.2386 148.554 42.2373 148.473 42.2373 147.886L42.31 136.553C42.4472 134.596 42.7887 130.929 43.6501 128.686C45.3771 124.175 48.6418 120.627 59.47 116.829C62.8718 115.634 66.8443 115.458 66.8443 115.458C68.3257 115.372 72.84 115.436 78.94 116.39C84.8973 117.323 89.2991 119.297 92.0178 125.254L97.3565 140.152C97.389 140.241 97.403 140.335 97.3976 140.429C97.3922 140.523 97.3674 140.615 97.325 140.699C97.2825 140.783 97.2232 140.857 97.1508 140.917C97.0783 140.977 96.9942 141.022 96.9038 141.048L89.2689 143.329L95.3661 167.721C95.5148 168.139 95.5062 168.598 95.3419 169.01C95.1776 169.423 94.8688 169.762 94.4731 169.964C91.0891 171.686 82.1031 175.657 72.6192 174.793C65.9966 174.188 60.1188 175.393 56.8446 175.87C55.1848 176.113 54.06 174.129 54.0655 173.264L56.6292 149.765Z" fill="#808080" stroke="black" stroke-width="0.489408" stroke-linecap="round" stroke-linejoin="round"/>
<path d="M61.9707 107.322L64.2217 119.337C64.3756 120.157 64.7014 120.936 65.1777 121.621C65.654 122.307 66.2699 122.884 66.9851 123.314C67.7002 123.745 68.4984 124.019 69.3271 124.119C70.1559 124.219 70.9964 124.143 71.7935 123.895C73.1879 123.461 74.3723 122.526 75.1186 121.27C75.8649 120.015 76.1204 118.528 75.8359 117.095L73.2406 104.033L61.9707 107.322Z" fill="#E5E5E5" stroke="black" stroke-width="0.489408" stroke-miterlimit="10" stroke-linecap="round" stroke-linejoin="round"/>
<path d="M56.1396 96.2429L57.772 90.0044L65.924 88.8467C67.2387 88.3096 68.7088 88.2945 70.0343 88.8043C71.3599 89.3141 72.4409 90.3105 73.0569 91.5901C74.8305 95.2814 77.0773 100.074 77.6754 101.87C78.7042 104.953 77.84 109.688 73.3134 110.901C68.7867 112.114 65.9199 111.525 63.1093 110.223C60.2986 108.922 58.4455 104.269 57.9174 103.069C56.6513 100.137 56.1396 96.2429 56.1396 96.2429Z" fill="#E5E5E5" stroke="black" stroke-width="0.489408" stroke-miterlimit="10" stroke-linecap="round" stroke-linejoin="round"/>
<path d="M64.666 100.167L67.0377 97.8135" stroke="black" stroke-width="0.489408" stroke-linecap="round" stroke-linejoin="round"/>
<path d="M70.1934 95.3979L72.598 94.5488" stroke="black" stroke-width="0.489408" stroke-linecap="round" stroke-linejoin="round"/>
<path d="M70.3525 98.6528C70.3525 98.6528 72.3703 100.233 72.5953 101.271C72.8202 102.31 71.3004 102.658 71.3004 102.658" stroke="black" stroke-width="0.489408" stroke-linecap="round" stroke-linejoin="round"/>
<path d="M67.4397 101.688C67.9025 101.688 68.2778 101.313 68.2778 100.85C68.2778 100.387 67.9025 100.012 67.4397 100.012C66.9768 100.012 66.6016 100.387 66.6016 100.85C66.6016 101.313 66.9768 101.688 67.4397 101.688Z" fill="black"/>
<path d="M72.4309 98.1933C72.8938 98.1933 73.269 97.8181 73.269 97.3552C73.269 96.8923 72.8938 96.5171 72.4309 96.5171C71.968 96.5171 71.5928 96.8923 71.5928 97.3552C71.5928 97.8181 71.968 98.1933 72.4309 98.1933Z" fill="black"/>
<path d="M59.7317 107.732C59.7317 107.732 58.1886 100.496 64.4572 96.2934C70.346 92.3456 65.5285 87.2881 65.5285 87.2881L60.0884 86.5557C60.0884 86.5557 56.6234 88.8876 55.5041 94.7859C54.4685 100.229 59.7317 107.732 59.7317 107.732Z" fill="black"/>
<path d="M71.9937 106.504C71.5414 106.778 71.0082 106.887 70.4849 106.812C69.6618 106.665 68.9102 105.823 68.9102 105.823" stroke="black" stroke-width="0.489408" stroke-linecap="round" stroke-linejoin="round"/>
<path d="M56.6289 141.306V149.765" stroke="black" stroke-width="0.489408" stroke-linecap="round" stroke-linejoin="round"/>
<path d="M87.7344 135.404L89.2693 143.328" stroke="black" stroke-width="0.489408" stroke-linecap="round" stroke-linejoin="round"/>
<path d="M55.4826 105.471L62.3699 119.298C62.4055 119.37 62.4615 119.429 62.5309 119.468C62.6002 119.508 62.6798 119.526 62.7594 119.52C62.839 119.514 62.915 119.485 62.9778 119.435C63.0406 119.386 63.0873 119.319 63.112 119.243L65.0173 113.426C65.2945 112.578 65.227 111.655 64.8294 110.857L58.0463 97.2426C58.0108 97.1708 57.9547 97.1112 57.8852 97.0714C57.8156 97.0316 57.7358 97.0134 57.6559 97.0191C57.576 97.0248 57.4996 97.0543 57.4365 97.1036C57.3733 97.1529 57.3264 97.2199 57.3015 97.2961L55.3262 103.332C55.0959 104.038 55.152 104.806 55.4826 105.471Z" fill="#4C4C4C" stroke="black" stroke-width="0.489408" stroke-linecap="round" stroke-linejoin="round"/>
<path d="M59.1461 107.904L59.5123 105.373C59.6152 104.66 59.142 103.632 58.415 103.59C58.2679 103.58 58.1225 103.626 58.0072 103.718C57.8918 103.809 57.8147 103.941 57.7908 104.086L56.8389 109.803L59.1461 107.904Z" fill="#E5E5E5" stroke="black" stroke-width="0.489408" stroke-miterlimit="10" stroke-linecap="round" stroke-linejoin="round"/>
<path d="M57.0916 157.522L61.2163 128.991C61.2163 128.991 62.9762 126.455 62.9035 124.291C62.8459 122.622 62.2698 118.636 62.0092 116.906C61.9248 116.357 61.9248 115.797 62.0092 115.248L62.3425 113.117L65.0338 110.694C65.2887 110.464 65.451 110.149 65.4901 109.808C65.5293 109.467 65.4426 109.123 65.2464 108.842C65.2047 108.786 65.1431 108.748 65.0743 108.735C65.0054 108.723 64.9345 108.738 64.876 108.776L60.1464 112.041L60.5277 110.943L64.6812 108.402C64.8162 108.32 64.9325 108.21 65.0225 108.08C65.1126 107.951 65.1744 107.803 65.204 107.648C65.2336 107.493 65.2304 107.334 65.1944 107.18C65.1585 107.026 65.0906 106.881 64.9953 106.755C64.8891 106.614 64.7363 106.515 64.5639 106.475C64.3915 106.435 64.2106 106.457 64.053 106.537L62.2423 107.459L63.2368 106.739C63.3728 106.639 63.4867 106.512 63.5711 106.366C63.6555 106.22 63.7087 106.058 63.7273 105.891C63.7458 105.723 63.7294 105.554 63.679 105.393C63.6285 105.232 63.5453 105.083 63.4344 104.956C63.3172 104.823 63.1582 104.734 62.9837 104.703C62.8091 104.673 62.6294 104.703 62.4742 104.788L57.2315 107.68C56.9656 107.826 56.7332 108.026 56.549 108.268C56.3648 108.509 56.2328 108.786 56.1616 109.081L54.7721 114.825C54.6612 115.283 54.6388 115.757 54.7062 116.223L55.7062 123.125C55.8608 124.199 55.7669 125.293 55.4318 126.324L45.2387 153.26C43.3279 157.828 46.0288 161.13 48.2798 162.212C49.1556 162.634 50.1184 162.843 51.0902 162.824C52.062 162.804 53.0155 162.556 53.8736 162.099C54.7316 161.642 55.4701 160.99 56.0291 160.195C56.5882 159.4 56.9522 158.484 57.0916 157.522Z" fill="#E5E5E5" stroke="black" stroke-width="0.489408" stroke-linecap="round" stroke-linejoin="round"/>
<path d="M60.3395 111.503L58.7881 116.235" stroke="black" stroke-width="0.489408" stroke-linecap="round" stroke-linejoin="round"/>
<path d="M62.2473 107.47L58.6109 109.454C58.4134 109.564 58.2414 109.714 58.1064 109.896C57.9714 110.077 57.8764 110.285 57.8277 110.506L56.6631 114.942" stroke="black" stroke-width="0.489408" stroke-linecap="round" stroke-linejoin="round"/>
<path d="M53.5155 186.438C53.5155 186.438 52.6623 177.476 58.027 172.843C62.7896 168.728 70.2695 168.799 70.2695 168.799C75.818 168.799 81.6807 173.636 84.0908 180.578L95.4869 217.291L81.3254 222.342L70.9773 201.365C70.9773 201.365 69.5247 201.622 65.6798 201.311C57.0819 200.613 54.558 193.299 53.5155 186.438Z" fill="#333333" stroke="black" stroke-width="0.489408" stroke-linecap="round" stroke-linejoin="round"/>
<path d="M77.2433 214.019L64.1367 186.903" stroke="black" stroke-width="0.489408" stroke-linecap="round" stroke-linejoin="round"/>
<path d="M93.8652 158.838C95.8762 156.094 98.481 156.547 99.8294 157.183C99.8294 157.183 105.961 161.422 111.235 162.607C113.19 163.046 119.69 164.197 120.947 164.357C122.502 164.559 121.871 164.292 123.036 163.893C125.231 163.143 126.49 161.636 127.402 161.48C129.322 161.159 130.381 169.143 129.763 169.874C129.351 170.361 122.356 172.866 114.786 170.171C114.402 170.034 101.644 169.73 95.7115 168.411" fill="#E5E5E5"/>
<path d="M93.8652 158.838C95.8762 156.094 98.481 156.547 99.8294 157.183C99.8294 157.183 105.961 161.422 111.235 162.607C113.19 163.046 119.69 164.197 120.947 164.357C122.502 164.559 121.871 164.292 123.036 163.893C125.231 163.143 126.49 161.636 127.402 161.48C129.322 161.159 130.381 169.143 129.763 169.874C129.351 170.361 122.356 172.866 114.786 170.171C114.402 170.034 101.644 169.73 95.7115 168.411" stroke="black" stroke-width="0.489408" stroke-linecap="round" stroke-linejoin="round"/>
<path d="M130.811 165.996C129.835 165.716 127.836 165.414 127.552 166.376C127.316 167.171 129.06 168.099 129.885 168.341C130.766 168.606 132.454 168.783 132.69 167.957C132.984 166.942 131.89 166.305 130.811 165.996Z" fill="#E5E5E5" stroke="black" stroke-width="0.489408" stroke-linecap="round" stroke-linejoin="round"/>
<path d="M131.05 168.303C130.073 168.025 128.303 167.665 128.018 168.627C127.784 169.422 129.526 170.35 130.353 170.592C131.233 170.858 132.92 171.034 133.156 170.208C133.452 169.195 132.225 168.639 131.05 168.303Z" fill="#E5E5E5" stroke="black" stroke-width="0.489408" stroke-linecap="round" stroke-linejoin="round"/>
<path d="M129.7 170.991C128.811 170.737 127.204 170.389 126.983 171.133C126.802 171.747 128.409 172.539 129.157 172.764C129.96 173.005 131.486 173.207 131.67 172.563C131.895 171.78 130.772 171.3 129.7 170.991Z" fill="#E5E5E5" stroke="black" stroke-width="0.489408" stroke-linecap="round" stroke-linejoin="round"/>
<path d="M131.153 154.733L127.817 154.274L128.337 152.812L131.048 153.185L131.153 154.733Z" fill="#808080" stroke="black" stroke-width="0.489408" stroke-linecap="round" stroke-linejoin="round"/>
<path d="M126.587 178.467L119.95 177.554C119.448 177.485 118.993 177.219 118.687 176.815C118.381 176.411 118.247 175.902 118.317 175.399L119.97 163.384L121.866 159.121L121.101 155.164L121.274 153.906C121.287 153.81 121.318 153.717 121.367 153.634C121.416 153.55 121.481 153.477 121.558 153.418C121.635 153.36 121.723 153.317 121.817 153.293C121.91 153.269 122.008 153.263 122.104 153.276L131.073 154.51C131.266 154.537 131.441 154.639 131.559 154.795C131.677 154.951 131.728 155.147 131.702 155.34L131.529 156.599L129.037 160.037L130.398 164.819L128.745 176.834C128.71 177.083 128.627 177.323 128.5 177.54C128.373 177.757 128.205 177.946 128.005 178.098C127.804 178.25 127.576 178.36 127.333 178.424C127.089 178.487 126.836 178.502 126.587 178.467Z" fill="#808080" stroke="black" stroke-width="0.489408" stroke-linecap="round" stroke-linejoin="round"/>
<path d="M131.519 156.597L121.107 155.165C121.121 155.315 121.365 157.91 121.244 158.784C121.021 160.364 120.594 161.909 119.975 163.38L130.401 164.815C130.198 163.231 130.204 161.628 130.42 160.046C130.54 159.174 131.475 156.741 131.53 156.599L131.519 156.597Z" fill="#CCCCCC" stroke="black" stroke-width="0.489408" stroke-linecap="round" stroke-linejoin="round"/>
<path d="M123.206 151.887L119.998 147.699C119.967 147.656 119.946 147.607 119.936 147.555C119.926 147.503 119.928 147.45 119.941 147.399C119.954 147.348 119.978 147.3 120.012 147.26C120.046 147.219 120.088 147.186 120.136 147.164C120.252 147.11 120.383 147.094 120.509 147.118C120.635 147.142 120.75 147.205 120.839 147.298L122.553 149.097C124.057 150.674 126.05 151.695 128.208 151.992L132.039 152.519C132.091 152.526 132.141 152.543 132.186 152.569C132.231 152.596 132.27 152.631 132.302 152.672C132.334 152.714 132.357 152.761 132.37 152.811C132.383 152.862 132.386 152.914 132.379 152.966C132.365 153.071 132.31 153.165 132.225 153.229C132.141 153.293 132.035 153.32 131.931 153.306L126.423 152.548C125.851 152.47 125.269 152.524 124.722 152.707C124.174 152.891 123.677 153.198 123.268 153.605C123.138 153.734 122.973 153.823 122.793 153.859C122.614 153.896 122.428 153.879 122.258 153.811C122.168 153.775 122.088 153.718 122.024 153.645C121.961 153.572 121.915 153.485 121.892 153.391C121.868 153.298 121.868 153.199 121.889 153.105C121.911 153.011 121.955 152.923 122.018 152.849L123.206 151.887Z" fill="#808080" stroke="black" stroke-width="0.489408" stroke-linecap="round" stroke-linejoin="round"/>
<path d="M123.207 151.887C123.575 151.688 123.992 151.598 124.41 151.629C124.98 151.664 125.546 151.751 126.101 151.888" fill="#808080"/>
<path d="M123.207 151.887C123.575 151.688 123.992 151.598 124.41 151.629C124.98 151.664 125.546 151.751 126.101 151.888" stroke="black" stroke-width="0.489408" stroke-linecap="round" stroke-linejoin="round"/>
<path d="M119.568 164.178C119.568 164.178 127.444 166.346 127.753 167.099C128.559 169.067 121.413 167.383 121.413 167.383C119.693 168.218 117.787 168.459 115.974 168.069" fill="#E5E5E5"/>
<path d="M119.568 164.178C119.568 164.178 127.444 166.346 127.753 167.099C128.559 169.067 121.413 167.383 121.413 167.383C119.693 168.218 117.787 168.459 115.974 168.069" stroke="black" stroke-width="0.489408" stroke-linecap="round" stroke-linejoin="round"/>
<path fill-rule="evenodd" clip-rule="evenodd" d="M64.1645 32.5464C57.2002 32.5464 48.0538 29.25 47.961 29.2035C47.9539 29.1965 47.9468 29.1905 47.9402 29.1849C47.9036 29.1539 47.8823 29.1358 47.961 29.0178C47.961 28.9714 47.961 28.925 48.0074 28.925C51.7217 27.0678 55.6681 25.6285 59.7538 24.6535C54.7306 21.7955 52.2519 17.6855 51.9033 17.1074C51.8782 17.0657 51.8641 17.0424 51.861 17.0393V16.9464C51.861 16.9464 51.861 16.9 51.9074 16.9C52.0002 16.8535 57.8502 14.7643 65.6967 18.7107C67.3217 19.5464 68.6217 20.5678 69.5967 21.6357C69.7127 21.566 69.8172 21.508 69.9217 21.45C70.0261 21.3919 70.1306 21.3339 70.2467 21.2643C70.2931 21.2643 70.3395 21.2643 70.386 21.3107L71.9645 23.2607C72.8931 24.375 74.1931 25.1643 75.6788 25.3964L78.6502 25.8607H78.6967V25.9071C78.6967 25.92 78.7074 25.965 78.7257 26.042C78.8396 26.5204 79.2474 28.2341 79.2074 31.1535C79.161 33.1035 78.6038 35.0071 78.1395 36.2607H79.2538C79.4395 35.8893 79.5324 35.425 79.6252 34.9143C79.8574 33.2428 79.9967 31.5714 80.0431 29.9L80.0895 29.8535C80.0895 29.8071 80.136 29.8071 80.136 29.8071L80.5538 29.6678C80.3681 28.3214 79.9502 27.0214 79.5788 26.0928H79.5324C79.486 26.0928 79.4395 26.0464 79.4395 26.0464C79.4341 26.0464 79.3931 26.0045 79.3121 25.9217L79.3116 25.9211C78.699 25.2945 75.8101 22.3396 68.761 17.5035C60.7288 11.9785 58.4538 3.85354 58.4538 3.76069V3.66783C58.4805 3.64113 58.4919 3.62978 58.5055 3.62496C58.5156 3.6214 58.5269 3.6214 58.5467 3.6214C58.5495 3.6214 58.559 3.62064 58.5752 3.61936C59.0962 3.57811 66.4537 2.9956 74.3788 9.74997C81.8074 15.9714 80.136 24.0964 79.6717 25.7678C80.0431 26.7428 80.5538 28.1357 80.7395 29.6214L82.5038 29.0178C82.411 27.9964 81.9931 24.4678 80.0431 17.6893C77.7217 9.56426 80.6467 2.83211 80.6931 2.78569C80.7163 2.78569 80.7279 2.77408 80.7395 2.76247C80.7511 2.75087 80.7627 2.73926 80.786 2.73926H80.8788C80.8807 2.74111 80.8914 2.74862 80.9103 2.7619C81.3648 3.08066 86.5654 6.72838 88.2145 15.5535C89.5145 22.5178 85.7074 26.8357 83.7574 28.5535L84.0824 28.4607C85.6145 27.95 87.0538 27.1607 88.3538 26.1857L91.0002 24.1893C91.0467 24.1428 91.0931 24.1428 91.1395 24.1893C91.186 24.2357 94.6681 27.7643 95.1788 32.9178C95.6509 37.6814 95.2503 39.0733 95.1869 39.2933C95.1843 39.3025 95.1822 39.3097 95.1808 39.3149C95.1801 39.3179 95.1795 39.3202 95.1792 39.322C95.1789 39.3233 95.1788 39.3243 95.1788 39.325C95.1556 39.325 95.144 39.3366 95.1324 39.3482C95.1208 39.3598 95.1092 39.3714 95.086 39.3714H95.0395C94.9931 39.3714 94.9467 39.325 94.9467 39.325C94.8538 39.2321 88.9574 34.0785 86.3574 32.9643L85.3824 32.5464C84.1288 33.9393 82.8288 35.2857 82.2717 35.75C82.2154 35.7921 82.1507 35.8428 82.08 35.8982C81.9173 36.0256 81.723 36.1776 81.5288 36.3071H88.6788C88.7253 36.3071 88.7717 36.3535 88.7717 36.4C88.7717 38.9535 88.261 41.4143 87.286 43.7357C86.2645 46.1035 84.8717 48.1464 83.0145 49.9107L82.9681 49.9571C82.2717 50.6535 81.436 51.1178 80.5074 51.4428H92.6717V47.6357C92.6717 47.5893 92.6717 47.5428 92.7181 47.4964C92.7645 47.45 92.811 47.45 92.8574 47.45H94.3431V42.25C94.3431 42.2035 94.3431 42.1571 94.3895 42.1107C94.436 42.0643 94.4824 42.0643 94.5288 42.0643H117.186C117.232 42.0643 117.279 42.0643 117.325 42.1107C117.372 42.1571 117.372 42.2035 117.372 42.25V47.45H120.854C120.9 47.45 120.947 47.45 120.993 47.4964C121.04 47.5428 121.04 47.5893 121.04 47.6357V51.4893C121.04 51.5357 121.04 51.5821 120.993 51.6285C120.947 51.675 120.9 51.675 120.854 51.675H116.304C116.582 51.8607 116.768 52.1857 116.768 52.5571V55.2035C116.768 55.8071 116.257 56.3178 115.654 56.3178H111.382V60.1714C111.382 60.4036 111.197 60.5428 111.011 60.5428H108.55C108.318 60.5428 108.179 60.3571 108.179 60.1714V56.3178H76.8395V60.1714C76.8395 60.4036 76.6538 60.5428 76.4681 60.5428H74.0074C73.7752 60.5428 73.636 60.3571 73.636 60.1714V56.3178H69.3645C68.761 56.3178 68.2502 55.8071 68.2502 55.2035V52.5571C68.2502 51.9535 68.761 51.4428 69.3645 51.4428H76.4681C75.5395 51.1178 74.6574 50.6071 73.9145 49.8643C72.1502 48.1 70.8038 46.0571 69.8288 43.7821C68.8538 41.4607 68.3895 39.0464 68.3895 36.5857V36.4C68.3895 36.3535 68.436 36.3071 68.4824 36.3071H75.1681C75.1681 36.2607 75.1565 36.2259 75.1449 36.191C75.1333 36.1562 75.1217 36.1214 75.1217 36.075C74.6574 34.2643 73.7288 32.5464 73.1717 31.6178C71.036 31.9428 68.3431 32.3143 65.3252 32.5C64.9538 32.5464 64.536 32.5464 64.1645 32.5464ZM73.3574 31.5714C73.9145 32.5464 74.8431 34.2178 75.261 36.0285C75.3074 36.1214 75.3074 36.1678 75.3074 36.307L76.5145 36.3071L74.2395 31.4321C73.9611 31.4785 73.6822 31.525 73.3574 31.5714Z" fill="url(#paint0_linear_2386_442594)" style="mix-blend-mode:overlay"/>
<path d="M155.025 66.5321C154.793 66.5321 154.561 66.8571 154.561 67.275V111.429C154.561 111.846 154.747 112.171 155.025 112.171C155.257 112.171 155.489 111.846 155.489 111.429V67.275C155.489 66.8571 155.304 66.5321 155.025 66.5321Z" fill="url(#paint1_linear_2386_442594)" style="mix-blend-mode:overlay"/>
<path d="M137.94 108.132C137.94 108.55 137.707 108.829 137.475 108.829C137.243 108.829 137.011 108.504 137.011 108.039V70.525C137.011 70.1535 137.197 69.7821 137.475 69.7821C137.754 69.7821 137.94 70.1071 137.94 70.4786V108.132Z" fill="url(#paint2_linear_2386_442594)" style="mix-blend-mode:overlay"/>
<path d="M102.422 73.6357C102.514 73.5428 102.607 73.45 102.747 73.4035C103.025 73.3107 103.211 73.4964 103.211 73.7285V104.789C103.211 105.068 102.979 105.254 102.747 105.161C102.607 105.114 102.514 105.021 102.422 104.929C102.329 104.836 102.282 104.696 102.282 104.557V74.0071C102.282 73.8678 102.329 73.7285 102.422 73.6357Z" fill="url(#paint3_linear_2386_442594)" style="mix-blend-mode:overlay"/>
<path d="M100.518 80.5535H100.332C100.193 80.6 100.1 80.6464 100.007 80.7393C99.9146 80.8321 99.8681 80.9714 99.8681 81.1107V97.5928C99.8681 97.7321 99.9146 97.8714 100.007 97.9642C100.1 98.0571 100.193 98.15 100.332 98.15H100.518C100.565 98.15 100.611 98.1035 100.657 98.0571C100.704 98.0107 100.75 97.9642 100.75 97.9178C100.75 97.9038 100.755 97.8855 100.759 97.8655C100.77 97.8194 100.783 97.7645 100.75 97.7321V80.9714C100.75 80.925 100.75 80.8321 100.704 80.7857C100.704 80.7393 100.657 80.6928 100.611 80.6464C100.611 80.6 100.565 80.5535 100.518 80.5535Z" fill="url(#paint4_linear_2386_442594)" style="mix-blend-mode:overlay"/>
<path fill-rule="evenodd" clip-rule="evenodd" d="M91.3252 99.2178C90.9073 98.2428 91.6966 96.9893 93.0895 96.3857C94.0181 95.9678 94.9466 95.9678 95.5038 96.3857V89.5607L87.4716 91.7892V99.5428C87.5181 99.5428 87.5645 99.5892 87.5645 99.6357C87.9824 100.611 87.1931 101.864 85.8002 102.468C84.4538 103.071 82.9681 102.793 82.5502 101.864C82.1323 100.889 82.9216 99.6357 84.3145 99.0321C85.1966 98.6143 86.1252 98.6143 86.7752 98.8928V89.7464C86.7752 89.6535 86.8216 89.5607 86.8681 89.5143C86.9145 89.4214 86.9609 89.375 87.0538 89.375L95.8288 86.8214H96.0145C96.0609 86.8214 96.1074 86.8214 96.1538 86.8678C96.1624 86.8764 96.1694 86.885 96.1754 86.8936C96.1856 86.9082 96.1929 86.9229 96.2002 86.9375C96.2036 86.9443 96.2071 86.9512 96.2108 86.958C96.2131 86.9623 96.2155 86.9665 96.2181 86.9708C96.2209 86.9753 96.2239 86.9798 96.2272 86.9843C96.2327 86.9919 96.2391 86.9995 96.2466 87.0071C96.2931 87.0535 96.2931 87.1 96.2931 87.1464V96.8964C96.2931 96.8964 96.3395 96.9428 96.3395 96.9893C96.7573 97.9642 95.9681 99.2178 94.5752 99.8214C93.2288 100.425 91.7431 100.146 91.3252 99.2178ZM87.5645 89.9321V90.9071L95.5966 88.6321V87.5643L87.5645 89.9321Z" fill="url(#paint5_linear_2386_442594)" style="mix-blend-mode:overlay"/>
<path fill-rule="evenodd" clip-rule="evenodd" d="M123.268 112.682C121.875 113.286 120.436 113.007 120.018 112.079C119.6 111.104 120.389 109.85 121.736 109.246C122.618 108.829 123.547 108.829 124.197 109.107V100.1C124.197 100.077 124.208 100.054 124.22 100.03C124.231 100.007 124.243 99.9839 124.243 99.9607C124.246 99.9575 124.249 99.9543 124.252 99.9511L124.255 99.9473L124.258 99.9436L124.26 99.9408C124.262 99.9384 124.264 99.9359 124.266 99.9334C124.275 99.9193 124.282 99.9051 124.289 99.891C124.301 99.8678 124.313 99.8446 124.336 99.8214C124.382 99.7749 124.429 99.7285 124.475 99.7285C124.522 99.6821 124.568 99.6821 124.614 99.6821H133.343C133.436 99.6821 133.529 99.7285 133.575 99.7749C133.622 99.8214 133.668 99.9142 133.668 100.007V109.757C133.714 109.757 133.761 109.804 133.761 109.85C134.179 110.825 133.389 112.079 131.997 112.682C130.604 113.286 129.164 113.007 128.747 112.079C128.329 111.104 129.118 109.85 130.511 109.246C131.393 108.829 132.322 108.829 132.972 109.107V102.236H124.939V109.711C124.986 109.757 125.032 109.804 125.032 109.85C125.45 110.825 124.661 112.079 123.268 112.682ZM132.972 101.586V100.379H124.939V101.586H132.972Z" fill="url(#paint6_linear_2386_442594)" style="mix-blend-mode:overlay"/>
<path d="M104.743 85.1964V93.5071C104.743 93.6464 104.79 93.7857 104.882 93.8786C104.975 93.9714 105.068 94.0643 105.207 94.0643C105.44 94.0643 105.672 93.8321 105.672 93.5536V85.15C105.672 84.8714 105.486 84.6393 105.207 84.6393C104.975 84.6393 104.743 84.8714 104.743 85.1964Z" fill="url(#paint7_linear_2386_442594)" style="mix-blend-mode:overlay"/>
<path d="M107.204 93.8786V84.825C107.204 84.5 107.389 84.2214 107.668 84.2678C107.947 84.2214 108.132 84.4536 108.132 84.7786V93.9714C108.132 94.25 107.9 94.4821 107.668 94.4821C107.389 94.4357 107.204 94.2036 107.204 93.8786Z" fill="url(#paint8_linear_2386_442594)" style="mix-blend-mode:overlay"/>
<path d="M109.665 82.1785V96.4785C109.665 96.8035 109.85 97.0821 110.129 97.0821C110.361 97.0821 110.593 96.85 110.593 96.525V82.0392C110.593 81.7142 110.407 81.4821 110.129 81.4821C109.85 81.575 109.665 81.8535 109.665 82.1785Z" fill="url(#paint9_linear_2386_442594)" style="mix-blend-mode:overlay"/>
<path d="M112.125 98.1035V80.5535C112.125 80.2285 112.311 79.95 112.59 79.9035C112.868 79.9035 113.054 80.1357 113.054 80.4607V98.1964C113.054 98.5214 112.822 98.7999 112.59 98.7535C112.311 98.7071 112.125 98.4285 112.125 98.1035Z" fill="url(#paint10_linear_2386_442594)" style="mix-blend-mode:overlay"/>
<path d="M114.586 84.0821V94.5285C114.586 94.8535 114.772 95.1785 115.05 95.1785C115.282 95.1785 115.514 94.9464 115.514 94.5749V84.0357C115.514 83.7107 115.329 83.4321 115.05 83.4321C114.818 83.4785 114.586 83.7571 114.586 84.0821Z" fill="url(#paint11_linear_2386_442594)" style="mix-blend-mode:overlay"/>
<path d="M117.093 101.307V77.3499C117.093 77.0249 117.279 76.6999 117.557 76.6999C117.836 76.6535 118.022 76.8856 118.022 77.2571V101.446C118.022 101.771 117.79 102.05 117.557 102.004C117.279 101.957 117.093 101.632 117.093 101.307Z" fill="url(#paint12_linear_2386_442594)" style="mix-blend-mode:overlay"/>
<path d="M120.482 101.725V76.9786C120.482 76.6071 120.297 76.3286 120.018 76.375C119.786 76.4214 119.554 76.7 119.554 77.0714V101.632C119.554 102.004 119.74 102.282 120.018 102.329C120.25 102.329 120.482 102.05 120.482 101.725Z" fill="url(#paint13_linear_2386_442594)" style="mix-blend-mode:overlay"/>
<path d="M122.943 94.7607C122.943 95.1321 122.711 95.4107 122.479 95.4107C122.247 95.3643 122.061 95.0857 122.014 94.7143V83.9893C122.014 83.6178 122.247 83.2928 122.479 83.2928C122.757 83.2928 122.943 83.5714 122.943 83.9428V94.7607Z" fill="url(#paint14_linear_2386_442594)" style="mix-blend-mode:overlay"/>
<path d="M124.986 94.7143C125.218 94.7143 125.45 94.4357 125.45 94.0643V84.5928C125.45 84.2214 125.265 83.9428 124.986 83.9428C124.754 83.9428 124.522 84.2678 124.522 84.6393V94.0178C124.522 94.3893 124.754 94.7143 124.986 94.7143Z" fill="url(#paint15_linear_2386_442594)" style="mix-blend-mode:overlay"/>
<path d="M127.957 95.5035C127.957 95.8749 127.725 96.1535 127.493 96.1535C127.215 96.1535 127.029 95.8285 127.029 95.4571V83.2464C127.029 82.8749 127.261 82.5499 127.493 82.5499C127.772 82.5035 127.957 82.8285 127.957 83.1999V95.5035Z" fill="url(#paint16_linear_2386_442594)" style="mix-blend-mode:overlay"/>
<path d="M130 95.7357C130.232 95.7357 130.465 95.4571 130.465 95.0392V83.6178C130.465 83.2464 130.279 82.9214 130 82.9214C129.768 82.9214 129.536 83.2464 129.536 83.6178V94.9464C129.536 95.4107 129.722 95.6892 130 95.7357Z" fill="url(#paint17_linear_2386_442594)" style="mix-blend-mode:overlay"/>
<path d="M132.925 94.2964C132.925 94.6678 132.693 94.9928 132.461 94.9928C132.229 94.9928 131.997 94.6678 131.997 94.25V84.4536C131.997 84.0357 132.229 83.7107 132.461 83.7107C132.739 83.7107 132.925 84.0357 132.925 84.4071V94.2964Z" fill="url(#paint18_linear_2386_442594)" style="mix-blend-mode:overlay"/>
<path d="M134.968 94.4821C135.2 94.4821 135.432 94.1571 135.432 93.7857V84.8714C135.432 84.4536 135.247 84.175 134.968 84.175C134.736 84.175 134.504 84.5 134.504 84.9178V93.7857C134.504 94.1571 134.736 94.4821 134.968 94.4821Z" fill="url(#paint19_linear_2386_442594)" style="mix-blend-mode:overlay"/>
<path d="M139.982 103.629C140.215 103.629 140.447 103.304 140.447 102.932V75.7714C140.447 75.3535 140.261 75.0285 139.982 75.0749C139.75 75.0749 139.518 75.3999 139.518 75.8178V102.932C139.518 103.304 139.75 103.629 139.982 103.629Z" fill="url(#paint20_linear_2386_442594)" style="mix-blend-mode:overlay"/>
<path d="M142.954 96.9892C142.954 97.4071 142.722 97.7321 142.489 97.7321C142.257 97.7321 142.025 97.4071 142.025 96.9892V81.6214C142.025 81.2035 142.211 80.8785 142.489 80.8785C142.768 80.8785 142.954 81.2035 142.954 81.6214V96.9892Z" fill="url(#paint21_linear_2386_442594)" style="mix-blend-mode:overlay"/>
<path d="M144.997 94.3428C145.275 94.3428 145.461 94.0178 145.461 93.6V85.0107C145.461 84.5928 145.275 84.2678 144.997 84.2678C144.718 84.2678 144.532 84.5928 144.532 85.0107V93.6C144.532 94.0178 144.764 94.3428 144.997 94.3428Z" fill="url(#paint22_linear_2386_442594)" style="mix-blend-mode:overlay"/>
<path d="M147.968 96.2C147.968 96.6178 147.782 96.9428 147.504 96.9428C147.272 96.9428 147.04 96.6178 147.04 96.1535V82.4107C147.04 81.9928 147.272 81.6678 147.504 81.6678C147.782 81.6678 147.968 81.9928 147.968 82.4107V96.2Z" fill="url(#paint23_linear_2386_442594)" style="mix-blend-mode:overlay"/>
<path d="M150.011 81.3893C149.732 81.3893 149.547 81.7143 149.547 82.1321V96.4786C149.547 96.8964 149.732 97.2214 150.011 97.2214C150.243 97.2214 150.475 96.8964 150.475 96.4786V82.1321C150.475 81.7607 150.29 81.3893 150.011 81.3893Z" fill="url(#paint24_linear_2386_442594)" style="mix-blend-mode:overlay"/>
<path d="M152.054 76.8393C152.054 76.4214 152.24 76.0964 152.518 76.0964C152.797 76.0964 152.982 76.4214 152.982 76.8393V101.818C152.982 102.236 152.75 102.561 152.518 102.561C152.24 102.561 152.054 102.236 152.054 101.818V76.8393Z" fill="url(#paint25_linear_2386_442594)" style="mix-blend-mode:overlay"/>
<path d="M157.114 83.6178C157.114 83.2 157.3 82.875 157.579 82.875C157.811 82.875 157.997 83.2 158.043 83.6178V95.0392C158.043 95.4571 157.811 95.7821 157.579 95.7821C157.3 95.7821 157.114 95.4571 157.114 95.0392V83.6178Z" fill="url(#paint26_linear_2386_442594)" style="mix-blend-mode:overlay"/>
<path d="M160.086 82.6428C159.854 82.6428 159.622 82.9678 159.622 83.3857V95.3643C159.622 95.7821 159.807 96.1071 160.086 96.1071C160.318 96.1071 160.55 95.7821 160.55 95.3643V83.4321C160.55 82.9678 160.318 82.6428 160.086 82.6428Z" fill="url(#paint27_linear_2386_442594)" style="mix-blend-mode:overlay"/>
<path d="M163.057 98.3821C163.057 98.8 162.825 99.125 162.593 99.125C162.315 99.125 162.129 98.8 162.129 98.3821V80.275C162.129 79.9035 162.361 79.5785 162.593 79.5785C162.872 79.5785 163.057 79.9035 163.057 80.3214V98.3821Z" fill="url(#paint28_linear_2386_442594)" style="mix-blend-mode:overlay"/>
<path d="M165.1 100.704C165.332 100.704 165.565 100.379 165.565 99.9607V78.6964C165.565 78.2785 165.379 77.9535 165.1 77.9535C164.868 77.9535 164.636 78.2785 164.636 78.65V100.007C164.636 100.425 164.822 100.704 165.1 100.704Z" fill="url(#paint29_linear_2386_442594)" style="mix-blend-mode:overlay"/>
<path d="M168.025 95.4107C168.025 95.8285 167.793 96.1535 167.561 96.1535C167.329 96.1535 167.143 95.8285 167.097 95.4107V83.1535C167.097 82.7821 167.282 82.4571 167.561 82.4571C167.839 82.4571 168.025 82.7821 168.025 83.2V95.4107Z" fill="url(#paint30_linear_2386_442594)" style="mix-blend-mode:overlay"/>
<path d="M170.068 103.489C170.3 103.489 170.532 103.118 170.532 102.746V75.9107C170.532 75.5393 170.347 75.1678 170.068 75.1678C169.836 75.1678 169.604 75.4464 169.604 75.8643V102.793C169.604 103.211 169.836 103.489 170.068 103.489Z" fill="url(#paint31_linear_2386_442594)" style="mix-blend-mode:overlay"/>
<path d="M173.04 102.561C173.04 102.932 172.807 103.257 172.575 103.304C172.343 103.304 172.111 103.025 172.111 102.607V76.0036C172.111 75.6321 172.343 75.3536 172.575 75.3536C172.854 75.4 173.04 75.725 173.04 76.0964V102.561Z" fill="url(#paint32_linear_2386_442594)" style="mix-blend-mode:overlay"/>
<path d="M175.082 95.6428C175.315 95.6428 175.547 95.3178 175.547 94.9464V83.8035C175.547 83.4321 175.361 83.1071 175.082 83.1071C174.85 83.1071 174.618 83.3857 174.618 83.7571V94.9928C174.618 95.3178 174.85 95.6428 175.082 95.6428Z" fill="url(#paint33_linear_2386_442594)" style="mix-blend-mode:overlay"/>
<path d="M178.054 94.0178C178.054 94.3893 177.822 94.7143 177.59 94.7143C177.311 94.7607 177.125 94.4357 177.125 94.0643V84.5928C177.125 84.2214 177.357 83.9428 177.59 83.9428C177.868 83.9428 178.054 84.2678 178.054 84.6393V94.0178Z" fill="url(#paint34_linear_2386_442594)" style="mix-blend-mode:overlay"/>
<path d="M180.05 95.9214C180.282 95.9214 180.514 95.5964 180.514 95.2249V83.4321C180.514 83.0607 180.329 82.7821 180.05 82.7357C179.818 82.7357 179.586 83.0142 179.586 83.3857V95.2714C179.586 95.6428 179.818 95.9214 180.05 95.9214Z" fill="url(#paint35_linear_2386_442594)" style="mix-blend-mode:overlay"/>
<path d="M183.022 94.6214C183.022 94.9464 182.79 95.2714 182.557 95.2714C182.279 95.2714 182.093 94.9928 182.093 94.6678V84.0821C182.093 83.7107 182.325 83.4321 182.557 83.4321C182.836 83.4321 183.022 83.7107 183.022 84.0821V94.6214Z" fill="url(#paint36_linear_2386_442594)" style="mix-blend-mode:overlay"/>
<path d="M185.018 94.3892C185.25 94.3892 185.482 94.0642 185.482 93.7392V84.9642C185.482 84.5928 185.297 84.3142 185.018 84.3142C184.786 84.3142 184.554 84.5928 184.554 84.9178V93.7857C184.554 94.1107 184.786 94.3892 185.018 94.3892Z" fill="url(#paint37_linear_2386_442594)" style="mix-blend-mode:overlay"/>
<path d="M188.082 92.4393C188.082 92.7643 187.85 93.0893 187.618 93.0893C187.386 93.0893 187.154 92.8107 187.154 92.4393V86.2178C187.154 85.8928 187.386 85.6143 187.618 85.6143C187.897 85.6143 188.082 85.8928 188.082 86.2643V92.4393Z" fill="url(#paint38_linear_2386_442594)" style="mix-blend-mode:overlay"/>
<path d="M190.218 91.5107C190.45 91.5107 190.682 91.1857 190.682 90.8607V87.7964C190.682 87.4249 190.497 87.1464 190.218 87.1464C189.986 87.1464 189.754 87.4249 189.754 87.7499V90.9071C189.754 91.2785 189.94 91.5571 190.218 91.5107Z" fill="url(#paint39_linear_2386_442594)" style="mix-blend-mode:overlay"/>
<path fill-rule="evenodd" clip-rule="evenodd" d="M257.447 197.507C256.89 183.532 247.975 172.157 234.557 167.375C234.549 167.348 234.54 167.32 234.531 167.291L234.53 167.29C234.491 167.166 234.447 167.023 234.372 166.911V166.864C231.957 159.064 228.011 146.946 227.965 146.854C227.965 146.807 227.918 146.761 227.872 146.761H226.665V141.886L228.243 141.746C228.29 141.746 228.336 141.7 228.336 141.607L228.243 138.636L232.05 140.539C232.886 141.004 233.768 141.236 234.697 141.236C235.115 141.236 235.579 141.189 235.997 141.096C237.343 140.771 238.504 139.936 239.293 138.821C239.757 138.125 240.082 137.289 240.175 136.407C240.268 135.571 240.175 134.689 239.897 133.854C239.665 133.25 239.34 132.646 238.922 132.136L229.961 101.307C229.172 98.6607 226.154 97.2214 223.182 98.0107C222.718 98.15 222.254 98.3357 221.836 98.5678L215.336 99.5892L212.086 92.95C212.736 92.1142 213.2 91.0464 213.479 89.8857C213.711 88.9107 213.85 87.7499 213.943 86.6821C216.357 86.4035 218.215 83.8964 218.215 80.8321C218.215 79.0678 217.565 77.3964 216.45 76.2821C215.94 75.7714 215.29 75.3535 214.64 75.1678C214.407 73.6821 213.99 72.0571 213.293 70.3857C210.832 64.4428 204.24 62.0285 200.479 62.5857C196.022 63.2357 192.122 66.7642 191.193 70.9892C190.543 74.0535 191.1 77.5821 192.029 80.3678C191.425 81.6214 191.24 83.1535 191.611 84.7321C192.029 86.45 193.05 87.8892 194.397 88.725C194.536 88.8178 194.629 88.8642 194.768 88.9107C196.44 92.7642 198.993 95.0857 201.918 95.0857L202.522 101.586L196.347 102.561C193.747 102.607 191.518 104.325 191.193 106.693L189.104 115.05L185.807 116.164C185.668 116.211 185.575 116.257 185.482 116.35C185.39 116.443 185.297 116.536 185.25 116.675C185.204 116.814 185.157 116.954 185.157 117.046C185.157 117.139 185.204 117.325 185.25 117.464C185.343 117.696 185.482 117.836 185.715 117.975C185.807 118.021 185.947 118.068 186.04 118.068C185.969 118.139 185.925 118.237 185.887 118.321C185.876 118.346 185.865 118.371 185.854 118.393C185.807 118.579 185.807 118.811 185.854 118.996L185.9 119.182C185.904 119.189 185.907 119.197 185.911 119.204C185.918 119.22 185.926 119.237 185.934 119.254C185.971 119.338 186.015 119.436 186.086 119.507C186.132 119.554 186.179 119.588 186.225 119.623C186.272 119.658 186.318 119.693 186.365 119.739C186.457 119.786 186.597 119.832 186.69 119.832C186.597 119.971 186.504 120.157 186.457 120.296C186.411 120.529 186.457 120.761 186.55 120.946L186.597 120.993C186.69 121.225 186.875 121.364 187.107 121.457C187.16 121.483 187.212 121.495 187.272 121.508C187.319 121.518 187.371 121.53 187.432 121.55L187.386 121.689C187.374 121.714 187.361 121.736 187.35 121.756C187.318 121.81 187.293 121.853 187.293 121.921V122.154L182.929 139.843C182.836 140.075 182.743 140.307 182.697 140.539C182.325 141.932 182.465 143.371 183.115 144.625C183.765 145.879 184.879 146.854 186.179 147.364L197.6 151.589L196.811 159.389L167.932 173.364C166.075 174.246 164.079 175.639 162.965 177.821C161.711 180.236 161.804 183.161 163.243 186.55C163.615 187.432 164.032 188.221 164.543 188.918L171.322 202.939C170.3 205.864 169.79 208.929 169.882 211.946C170.115 218.586 172.297 223.832 176.429 227.454C179.122 229.775 182.325 231.168 185.343 232.004L186.782 235.021C186.04 235.207 185.297 235.393 184.6 235.625L184.322 235.718C184.029 235.798 183.752 235.893 183.481 235.986C183.279 236.055 183.081 236.123 182.882 236.182C179.586 237.25 172.436 240.546 172.436 243.379C172.436 243.704 172.575 244.029 172.854 244.261C174.123 245.485 178.004 245.469 178.359 245.468L178.379 245.468L194.954 245.561H195.14C195.308 245.561 195.477 245.548 195.639 245.536C195.79 245.525 195.934 245.514 196.068 245.514H196.997L213.572 245.607H213.757C215.707 245.607 217.657 244.957 219.236 243.75C220.675 242.589 221.418 241.289 221.418 239.85C221.418 238.55 220.954 237.389 219.979 236.321C219.422 235.764 218.818 235.254 218.122 234.882L217.518 233.025H225.411C231.447 233.025 237.297 231.446 242.822 228.336L243.147 228.15C246.629 226.2 258.236 217.982 257.447 197.507ZM201.315 236.321C200.804 235.764 200.154 235.3 199.504 234.929L198.9 233.118H204.472L205.447 235.114C204.704 235.3 203.961 235.486 203.265 235.718L202.94 235.811C202.475 235.95 202.011 236.089 201.547 236.275C201.454 236.275 201.361 236.275 201.315 236.321ZM195.093 134.875L195.65 140.168L194.025 139.146L195.093 134.875ZM210.507 89.8392C211.204 88.8642 211.761 87.7499 212.179 86.5892C212.597 86.7285 213.015 86.7749 213.432 86.7749H213.572C213.479 87.8428 213.34 88.9107 213.107 89.8857C212.875 90.9535 212.457 91.9285 211.9 92.7178L210.507 89.8392Z" fill="url(#paint40_linear_2386_442594)" style="mix-blend-mode:overlay"/>
<path fill-rule="evenodd" clip-rule="evenodd" d="M132.972 170.671C134.04 171.321 135.061 171.971 135.99 172.714C144.857 179.539 149.129 189.846 148.711 203.311C148.479 210.229 146.575 216.125 143 220.814C140.122 224.575 136.222 227.546 131.347 229.729C123.222 233.35 115.143 233.396 114.725 233.396H100.797L102.143 237.714L107.9 248.486V248.532H107.993C107.993 248.532 108.04 248.532 108.04 248.579L109.943 253.686C110.175 254.196 110.129 254.8 109.897 255.311C109.665 255.821 109.247 256.239 108.69 256.425L100.332 259.582C100.1 259.675 99.8217 259.721 99.5896 259.721C99.311 259.721 98.986 259.675 98.7074 259.536C98.1967 259.304 97.7788 258.886 97.5931 258.329L95.6896 253.221V253.129C95.6431 253.129 95.6431 253.082 95.6431 253.082L93.3681 240.732L90.2574 233.396H66.7646C56.8288 233.396 47.1717 231.4 38.0717 227.454L37.561 227.221C31.0146 224.343 25.1181 219.654 21.0324 214.036C15.7396 206.746 13.2788 197.971 13.7896 188.036C14.3931 176.289 19.036 162.964 26.2788 152.471C29.9003 147.179 35.1467 141.189 42.1574 136.779V136.686C42.3431 134.225 42.7146 130.882 43.5038 128.793C44.9896 124.986 47.5431 121.829 54.8788 118.625L54.8324 118.207L48.3788 119.646C47.962 118.237 48.3005 116.879 48.7266 115.168C49.2972 112.878 50.025 109.957 49.3074 105.439C48.5646 100.704 48.4253 97.1749 50.0967 93.8321C47.4038 93.7857 45.2217 91.5571 45.2217 88.8642C45.2217 86.1249 47.4503 83.8964 50.1896 83.8964C52.6967 83.8964 54.7396 85.7071 55.111 88.0749C55.6217 87.6571 56.2253 87.1928 56.8288 86.7749C63.7931 81.8535 67.6003 84.9178 67.6003 84.9178C67.6003 84.9178 71.2681 84.3142 73.2181 87.2392C74.7038 89.4214 74.4253 91.6499 74.1467 93.6928C75.6788 96.9428 77.2574 100.425 77.7681 101.911C78.0467 102.746 78.1396 103.629 78.1396 104.511C82.1324 108.271 82.5038 111.986 82.5038 111.986L75.2146 113.611L75.6788 115.932C75.8388 115.954 76 115.976 76.1624 115.998C77.0371 116.116 77.9499 116.24 78.9288 116.396C84.036 117.186 89.1431 118.811 92.1146 125.311L97.4538 140.214C97.5003 140.307 97.5003 140.446 97.5003 140.539C97.5003 140.679 97.4538 140.771 97.4074 140.864C97.361 140.957 97.3146 141.004 97.2217 141.096L96.9431 141.236L96.386 141.421L99.961 157.207C100.565 157.625 106.322 161.479 111.29 162.593C112.915 162.964 117.465 163.8 119.786 164.171L119.879 163.475V163.429L119.925 163.336C120.529 161.896 120.947 160.364 121.179 158.832C121.27 158.06 121.094 155.955 121.043 155.342L121.04 155.304V155.211L121.225 153.957C121.225 153.818 121.272 153.725 121.318 153.632C121.365 153.539 121.457 153.446 121.55 153.4L121.829 153.261V153.168C121.829 153.029 121.875 152.936 121.968 152.843L123.082 151.914L119.925 147.829C119.879 147.782 119.832 147.689 119.832 147.643V147.457C119.832 147.411 119.879 147.318 119.925 147.271C119.925 147.24 119.967 147.209 120.008 147.179C120.028 147.163 120.049 147.148 120.065 147.132C120.204 147.086 120.39 147.039 120.529 147.086C120.668 147.132 120.807 147.225 120.9 147.318L122.618 149.129C124.057 150.707 126.054 151.729 128.19 152.007L132.043 152.518C132.09 152.518 132.182 152.518 132.229 152.564L132.368 152.704C132.415 152.75 132.461 152.843 132.461 152.889V153.075C132.461 153.214 132.368 153.307 132.275 153.4C132.182 153.493 132.043 153.493 131.904 153.493L131.161 153.4L131.254 154.514C131.44 154.561 131.579 154.654 131.672 154.793C131.811 154.979 131.904 155.211 131.857 155.443L131.672 156.696C131.629 156.815 131.568 156.98 131.496 157.174C131.174 158.037 130.633 159.487 130.557 160.132C130.372 161.711 130.372 163.289 130.557 164.868L130.418 165.796C130.604 165.843 130.743 165.889 130.882 165.936C131.393 166.075 132.368 166.446 132.74 167.096C132.879 167.375 132.925 167.7 132.832 168.025C132.74 168.211 132.647 168.396 132.415 168.489C132.368 168.512 132.322 168.524 132.275 168.536C132.229 168.547 132.182 168.559 132.136 168.582C132.693 168.814 133.018 169.093 133.204 169.418C133.343 169.696 133.39 169.975 133.297 170.254C133.25 170.439 133.111 170.579 132.972 170.671ZM124.754 152.843C124.382 152.982 124.011 153.168 123.686 153.4L127.818 153.957L128.19 152.936L126.425 152.704C125.868 152.611 125.265 152.657 124.754 152.843Z" fill="url(#paint41_linear_2386_442594)" style="mix-blend-mode:overlay"/>
</g>
<defs>
<linearGradient id="paint0_linear_2386_442594" x1="257.485" y1="130.83" x2="13.7236" y2="130.83" gradientUnits="userSpaceOnUse">
<stop stop-color="#E60050"/>
<stop offset="1" stop-color="#5D6AE8"/>
</linearGradient>
<linearGradient id="paint1_linear_2386_442594" x1="257.485" y1="130.83" x2="13.7236" y2="130.83" gradientUnits="userSpaceOnUse">
<stop stop-color="#E60050"/>
<stop offset="1" stop-color="#5D6AE8"/>
</linearGradient>
<linearGradient id="paint2_linear_2386_442594" x1="257.485" y1="130.83" x2="13.7236" y2="130.83" gradientUnits="userSpaceOnUse">
<stop stop-color="#E60050"/>
<stop offset="1" stop-color="#5D6AE8"/>
</linearGradient>
<linearGradient id="paint3_linear_2386_442594" x1="257.485" y1="130.83" x2="13.7236" y2="130.83" gradientUnits="userSpaceOnUse">
<stop stop-color="#E60050"/>
<stop offset="1" stop-color="#5D6AE8"/>
</linearGradient>
<linearGradient id="paint4_linear_2386_442594" x1="257.485" y1="130.83" x2="13.7236" y2="130.83" gradientUnits="userSpaceOnUse">
<stop stop-color="#E60050"/>
<stop offset="1" stop-color="#5D6AE8"/>
</linearGradient>
<linearGradient id="paint5_linear_2386_442594" x1="257.485" y1="130.83" x2="13.7236" y2="130.83" gradientUnits="userSpaceOnUse">
<stop stop-color="#E60050"/>
<stop offset="1" stop-color="#5D6AE8"/>
</linearGradient>
<linearGradient id="paint6_linear_2386_442594" x1="257.485" y1="130.83" x2="13.7236" y2="130.83" gradientUnits="userSpaceOnUse">
<stop stop-color="#E60050"/>
<stop offset="1" stop-color="#5D6AE8"/>
</linearGradient>
<linearGradient id="paint7_linear_2386_442594" x1="257.485" y1="130.83" x2="13.7236" y2="130.83" gradientUnits="userSpaceOnUse">
<stop stop-color="#E60050"/>
<stop offset="1" stop-color="#5D6AE8"/>
</linearGradient>
<linearGradient id="paint8_linear_2386_442594" x1="257.485" y1="130.83" x2="13.7236" y2="130.83" gradientUnits="userSpaceOnUse">
<stop stop-color="#E60050"/>
<stop offset="1" stop-color="#5D6AE8"/>
</linearGradient>
<linearGradient id="paint9_linear_2386_442594" x1="257.485" y1="130.83" x2="13.7236" y2="130.83" gradientUnits="userSpaceOnUse">
<stop stop-color="#E60050"/>
<stop offset="1" stop-color="#5D6AE8"/>
</linearGradient>
<linearGradient id="paint10_linear_2386_442594" x1="257.485" y1="130.83" x2="13.7236" y2="130.83" gradientUnits="userSpaceOnUse">
<stop stop-color="#E60050"/>
<stop offset="1" stop-color="#5D6AE8"/>
</linearGradient>
<linearGradient id="paint11_linear_2386_442594" x1="257.485" y1="130.83" x2="13.7236" y2="130.83" gradientUnits="userSpaceOnUse">
<stop stop-color="#E60050"/>
<stop offset="1" stop-color="#5D6AE8"/>
</linearGradient>
<linearGradient id="paint12_linear_2386_442594" x1="257.485" y1="130.83" x2="13.7236" y2="130.83" gradientUnits="userSpaceOnUse">
<stop stop-color="#E60050"/>
<stop offset="1" stop-color="#5D6AE8"/>
</linearGradient>
<linearGradient id="paint13_linear_2386_442594" x1="257.485" y1="130.83" x2="13.7236" y2="130.83" gradientUnits="userSpaceOnUse">
<stop stop-color="#E60050"/>
<stop offset="1" stop-color="#5D6AE8"/>
</linearGradient>
<linearGradient id="paint14_linear_2386_442594" x1="257.485" y1="130.83" x2="13.7236" y2="130.83" gradientUnits="userSpaceOnUse">
<stop stop-color="#E60050"/>
<stop offset="1" stop-color="#5D6AE8"/>
</linearGradient>
<linearGradient id="paint15_linear_2386_442594" x1="257.485" y1="130.83" x2="13.7236" y2="130.83" gradientUnits="userSpaceOnUse">
<stop stop-color="#E60050"/>
<stop offset="1" stop-color="#5D6AE8"/>
</linearGradient>
<linearGradient id="paint16_linear_2386_442594" x1="257.485" y1="130.83" x2="13.7236" y2="130.83" gradientUnits="userSpaceOnUse">
<stop stop-color="#E60050"/>
<stop offset="1" stop-color="#5D6AE8"/>
</linearGradient>
<linearGradient id="paint17_linear_2386_442594" x1="257.485" y1="130.83" x2="13.7236" y2="130.83" gradientUnits="userSpaceOnUse">
<stop stop-color="#E60050"/>
<stop offset="1" stop-color="#5D6AE8"/>
</linearGradient>
<linearGradient id="paint18_linear_2386_442594" x1="257.485" y1="130.83" x2="13.7236" y2="130.83" gradientUnits="userSpaceOnUse">
<stop stop-color="#E60050"/>
<stop offset="1" stop-color="#5D6AE8"/>
</linearGradient>
<linearGradient id="paint19_linear_2386_442594" x1="257.485" y1="130.83" x2="13.7236" y2="130.83" gradientUnits="userSpaceOnUse">
<stop stop-color="#E60050"/>
<stop offset="1" stop-color="#5D6AE8"/>
</linearGradient>
<linearGradient id="paint20_linear_2386_442594" x1="257.485" y1="130.83" x2="13.7236" y2="130.83" gradientUnits="userSpaceOnUse">
<stop stop-color="#E60050"/>
<stop offset="1" stop-color="#5D6AE8"/>
</linearGradient>
<linearGradient id="paint21_linear_2386_442594" x1="257.485" y1="130.83" x2="13.7236" y2="130.83" gradientUnits="userSpaceOnUse">
<stop stop-color="#E60050"/>
<stop offset="1" stop-color="#5D6AE8"/>
</linearGradient>
<linearGradient id="paint22_linear_2386_442594" x1="257.485" y1="130.83" x2="13.7236" y2="130.83" gradientUnits="userSpaceOnUse">
<stop stop-color="#E60050"/>
<stop offset="1" stop-color="#5D6AE8"/>
</linearGradient>
<linearGradient id="paint23_linear_2386_442594" x1="257.485" y1="130.83" x2="13.7236" y2="130.83" gradientUnits="userSpaceOnUse">
<stop stop-color="#E60050"/>
<stop offset="1" stop-color="#5D6AE8"/>
</linearGradient>
<linearGradient id="paint24_linear_2386_442594" x1="257.485" y1="130.83" x2="13.7236" y2="130.83" gradientUnits="userSpaceOnUse">
<stop stop-color="#E60050"/>
<stop offset="1" stop-color="#5D6AE8"/>
</linearGradient>
<linearGradient id="paint25_linear_2386_442594" x1="257.485" y1="130.83" x2="13.7236" y2="130.83" gradientUnits="userSpaceOnUse">
<stop stop-color="#E60050"/>
<stop offset="1" stop-color="#5D6AE8"/>
</linearGradient>
<linearGradient id="paint26_linear_2386_442594" x1="257.485" y1="130.83" x2="13.7236" y2="130.83" gradientUnits="userSpaceOnUse">
<stop stop-color="#E60050"/>
<stop offset="1" stop-color="#5D6AE8"/>
</linearGradient>
<linearGradient id="paint27_linear_2386_442594" x1="257.485" y1="130.83" x2="13.7236" y2="130.83" gradientUnits="userSpaceOnUse">
<stop stop-color="#E60050"/>
<stop offset="1" stop-color="#5D6AE8"/>
</linearGradient>
<linearGradient id="paint28_linear_2386_442594" x1="257.485" y1="130.83" x2="13.7236" y2="130.83" gradientUnits="userSpaceOnUse">
<stop stop-color="#E60050"/>
<stop offset="1" stop-color="#5D6AE8"/>
</linearGradient>
<linearGradient id="paint29_linear_2386_442594" x1="257.485" y1="130.83" x2="13.7236" y2="130.83" gradientUnits="userSpaceOnUse">
<stop stop-color="#E60050"/>
<stop offset="1" stop-color="#5D6AE8"/>
</linearGradient>
<linearGradient id="paint30_linear_2386_442594" x1="257.485" y1="130.83" x2="13.7236" y2="130.83" gradientUnits="userSpaceOnUse">
<stop stop-color="#E60050"/>
<stop offset="1" stop-color="#5D6AE8"/>
</linearGradient>
<linearGradient id="paint31_linear_2386_442594" x1="257.485" y1="130.83" x2="13.7236" y2="130.83" gradientUnits="userSpaceOnUse">
<stop stop-color="#E60050"/>
<stop offset="1" stop-color="#5D6AE8"/>
</linearGradient>
<linearGradient id="paint32_linear_2386_442594" x1="257.485" y1="130.83" x2="13.7236" y2="130.83" gradientUnits="userSpaceOnUse">
<stop stop-color="#E60050"/>
<stop offset="1" stop-color="#5D6AE8"/>
</linearGradient>
<linearGradient id="paint33_linear_2386_442594" x1="257.485" y1="130.83" x2="13.7236" y2="130.83" gradientUnits="userSpaceOnUse">
<stop stop-color="#E60050"/>
<stop offset="1" stop-color="#5D6AE8"/>
</linearGradient>
<linearGradient id="paint34_linear_2386_442594" x1="257.485" y1="130.83" x2="13.7236" y2="130.83" gradientUnits="userSpaceOnUse">
<stop stop-color="#E60050"/>
<stop offset="1" stop-color="#5D6AE8"/>
</linearGradient>
<linearGradient id="paint35_linear_2386_442594" x1="257.485" y1="130.83" x2="13.7236" y2="130.83" gradientUnits="userSpaceOnUse">
<stop stop-color="#E60050"/>
<stop offset="1" stop-color="#5D6AE8"/>
</linearGradient>
<linearGradient id="paint36_linear_2386_442594" x1="257.485" y1="130.83" x2="13.7236" y2="130.83" gradientUnits="userSpaceOnUse">
<stop stop-color="#E60050"/>
<stop offset="1" stop-color="#5D6AE8"/>
</linearGradient>
<linearGradient id="paint37_linear_2386_442594" x1="257.485" y1="130.83" x2="13.7236" y2="130.83" gradientUnits="userSpaceOnUse">
<stop stop-color="#E60050"/>
<stop offset="1" stop-color="#5D6AE8"/>
</linearGradient>
<linearGradient id="paint38_linear_2386_442594" x1="257.485" y1="130.83" x2="13.7236" y2="130.83" gradientUnits="userSpaceOnUse">
<stop stop-color="#E60050"/>
<stop offset="1" stop-color="#5D6AE8"/>
</linearGradient>
<linearGradient id="paint39_linear_2386_442594" x1="257.485" y1="130.83" x2="13.7236" y2="130.83" gradientUnits="userSpaceOnUse">
<stop stop-color="#E60050"/>
<stop offset="1" stop-color="#5D6AE8"/>
</linearGradient>
<linearGradient id="paint40_linear_2386_442594" x1="257.485" y1="130.83" x2="13.7236" y2="130.83" gradientUnits="userSpaceOnUse">
<stop stop-color="#E60050"/>
<stop offset="1" stop-color="#5D6AE8"/>
</linearGradient>
<linearGradient id="paint41_linear_2386_442594" x1="257.485" y1="130.83" x2="13.7236" y2="130.83" gradientUnits="userSpaceOnUse">
<stop stop-color="#E60050"/>
<stop offset="1" stop-color="#5D6AE8"/>
</linearGradient>
<clipPath id="clip0_2386_442594">
<rect width="260" height="260" fill="white"/>
</clipPath>
</defs>
</svg>
