<svg width="570" height="452" fill="none" xmlns="http://www.w3.org/2000/svg"><g filter="url(#a)"><g clip-path="url(#b)"><rect x="65" y="32" width="440" height="372" rx="16" fill="#fff"/><path d="M86.408 122v-11.28h1.328v10.128h5.696V122h-7.024Zm11.7926.144c-.768 0-1.44-.165-2.016-.496-.5653-.341-1.0026-.821-1.312-1.44-.3093-.629-.464-1.371-.464-2.224 0-.864.1547-1.605.464-2.224.3094-.619.7467-1.093 1.312-1.424.576-.341 1.248-.512 2.016-.512.7787 0 1.4507.171 2.0164.512.576.331 1.018.805 1.328 1.424.32.619.48 1.36.48 2.224 0 .853-.16 1.595-.48 2.224-.31.619-.752 1.099-1.328 1.44-.5657.331-1.2377.496-2.0164.496Zm0-1.056c.768 0 1.376-.261 1.8244-.784.448-.533.672-1.307.672-2.32 0-1.024-.224-1.797-.672-2.32-.4484-.533-1.0564-.8-1.8244-.8-.7573 0-1.36.267-1.808.8-.448.523-.672 1.296-.672 2.32 0 1.013.224 1.787.672 2.32.448.523 1.0507.784 1.808.784Zm8.5164 1.056c-.64 0-1.237-.085-1.792-.256-.554-.181-1.013-.432-1.376-.752l.448-.912c.395.309.822.539 1.28.688.47.149.955.224 1.456.224.64 0 1.12-.112 1.44-.336.331-.235.496-.555.496-.96 0-.309-.106-.555-.32-.736-.202-.192-.538-.341-1.008-.448l-1.488-.304c-.682-.149-1.194-.4-1.536-.752-.341-.363-.512-.821-.512-1.376 0-.469.123-.88.368-1.232.246-.363.603-.645 1.072-.848.47-.213 1.019-.32 1.648-.32.587 0 1.126.091 1.616.272.502.171.918.421 1.248.752l-.464.896c-.32-.309-.688-.539-1.104-.688-.405-.16-.826-.24-1.264-.24-.629 0-1.104.128-1.424.384-.309.245-.464.571-.464.976 0 .309.096.565.288.768.203.192.512.336.928.432l1.488.304c.726.16 1.264.411 1.616.752.363.331.544.779.544 1.344 0 .48-.133.901-.4 1.264-.266.352-.64.624-1.12.816-.469.192-1.024.288-1.664.288Zm8.036 0c-.79 0-1.392-.224-1.808-.672-.416-.459-.624-1.147-.624-2.064v-4.432h-1.568v-1.008h1.568v-2.192l1.296-.368v2.56h2.304v1.008h-2.304v4.288c0 .64.106 1.099.32 1.376.224.267.554.4.992.4.202 0 .384-.016.544-.048.16-.043.304-.091.432-.144v1.088c-.15.064-.331.112-.544.144-.203.043-.406.064-.608.064Zm10.293 0c-.789 0-1.477-.171-2.064-.512-.576-.341-1.024-.827-1.344-1.456-.309-.629-.464-1.376-.464-2.24 0-.875.16-1.616.48-2.224.32-.619.768-1.088 1.344-1.408.587-.32 1.27-.48 2.048-.48.512 0 1.008.091 1.488.272.491.181.896.437 1.216.768l-.464.928c-.32-.309-.672-.539-1.056-.688-.373-.149-.741-.224-1.104-.224-.832 0-1.477.261-1.936.784-.458.523-.688 1.285-.688 2.288 0 .992.23 1.76.688 2.304.459.544 1.104.816 1.936.816.352 0 .715-.069 1.088-.208.384-.139.742-.368 1.072-.688l.464.912c-.33.341-.741.603-1.232.784-.49.181-.981.272-1.472.272Zm7.54 0c-.715 0-1.339-.165-1.872-.496-.534-.341-.95-.821-1.248-1.44-.288-.619-.432-1.36-.432-2.224 0-.875.144-1.621.432-2.24.298-.619.714-1.093 1.248-1.424.533-.331 1.157-.496 1.872-.496.725 0 1.349.187 1.872.56.533.363.885.859 1.056 1.488h-.192l.176-1.904h1.248c-.032.309-.064.624-.096.944-.022.309-.032.613-.032.912V122h-1.296v-1.888h.176c-.171.629-.523 1.125-1.056 1.488-.534.363-1.152.544-1.856.544Zm.256-1.056c.768 0 1.376-.261 1.824-.784.448-.533.672-1.307.672-2.32 0-1.024-.224-1.797-.672-2.32-.448-.533-1.056-.8-1.824-.8-.758 0-1.366.267-1.824.8-.448.523-.672 1.296-.672 2.32 0 1.013.224 1.787.672 2.32.458.523 1.066.784 1.824.784Zm6.281.912v-11.776h1.296V122h-1.296Zm3.813 0v-11.776h1.296V122h-1.296ZM86.408 174v-11.28h1.328V174h-1.328Zm3.9966 0v-6.176c0-.299-.016-.603-.048-.912-.0213-.32-.048-.635-.08-.944h1.248l.16 1.76h-.192c.2347-.619.608-1.088 1.12-1.408.5227-.331 1.1254-.496 1.808-.496.9494 0 1.664.256 2.144.768.4907.501.736 1.296.736 2.384V174h-1.296v-4.944c0-.757-.1546-1.307-.464-1.648-.2986-.352-.768-.528-1.408-.528-.7466 0-1.3386.229-1.776.688-.4373.459-.656 1.072-.656 1.84V174h-1.296Zm13.4074.144c-.726 0-1.35-.181-1.872-.544-.523-.373-.875-.88-1.056-1.52h.176V174h-1.2804v-11.776h1.2964v5.616h-.192c.181-.619.533-1.109 1.056-1.472.522-.363 1.146-.544 1.872-.544.725 0 1.349.171 1.872.512.533.331.944.805 1.232 1.424.298.619.448 1.36.448 2.224 0 .864-.15 1.605-.448 2.224-.299.619-.715 1.099-1.248 1.44-.523.331-1.142.496-1.856.496Zm-.272-1.056c.757 0 1.365-.261 1.824-.784.458-.523.688-1.296.688-2.32 0-1.024-.23-1.797-.688-2.32-.459-.533-1.067-.8-1.824-.8-.758 0-1.366.267-1.824.8-.448.523-.672 1.296-.672 2.32 0 1.013.224 1.787.672 2.32.458.523 1.066.784 1.824.784Zm9.129 1.056c-.768 0-1.44-.165-2.016-.496-.565-.341-1.002-.821-1.312-1.44-.309-.629-.464-1.371-.464-2.224 0-.864.155-1.605.464-2.224.31-.619.747-1.093 1.312-1.424.576-.341 1.248-.512 2.016-.512.779 0 1.451.171 2.016.512.576.331 1.019.805 1.328 1.424.32.619.48 1.36.48 2.224 0 .853-.16 1.595-.48 2.224-.309.619-.752 1.099-1.328 1.44-.565.331-1.237.496-2.016.496Zm0-1.056c.768 0 1.376-.261 1.824-.784.448-.533.672-1.307.672-2.32 0-1.024-.224-1.797-.672-2.32-.448-.533-1.056-.8-1.824-.8-.757 0-1.36.267-1.808.8-.448.523-.672 1.296-.672 2.32 0 1.013.224 1.787.672 2.32.448.523 1.051.784 1.808.784Zm8.677 1.056c-.949 0-1.669-.261-2.16-.784-.48-.523-.72-1.323-.72-2.4v-4.992h1.296v4.96c0 .736.149 1.28.448 1.632.299.341.763.512 1.392.512.704 0 1.269-.229 1.696-.688.427-.469.64-1.083.64-1.84v-4.576h1.296V174h-1.264v-1.808h.208c-.224.619-.587 1.099-1.088 1.44-.491.341-1.072.512-1.744.512Zm6.402-.144v-6.176c0-.299-.016-.603-.048-.912-.021-.32-.048-.635-.08-.944h1.248l.16 1.76h-.192c.235-.619.608-1.088 1.12-1.408.523-.331 1.126-.496 1.808-.496.95 0 1.664.256 2.144.768.491.501.736 1.296.736 2.384V174h-1.296v-4.944c0-.757-.154-1.307-.464-1.648-.298-.352-.768-.528-1.408-.528-.746 0-1.338.229-1.776.688-.437.459-.656 1.072-.656 1.84V174h-1.296Zm12.415.144c-.704 0-1.322-.165-1.856-.496-.533-.341-.949-.821-1.248-1.44-.288-.619-.432-1.36-.432-2.224 0-.875.144-1.621.432-2.24.299-.619.715-1.093 1.248-1.424.534-.331 1.152-.496 1.856-.496.726 0 1.35.181 1.872.544.534.363.891.853 1.072 1.472h-.192v-5.616h1.296V174h-1.28v-1.92h.176c-.17.64-.522 1.147-1.056 1.52-.533.363-1.162.544-1.888.544Zm.272-1.056c.758 0 1.366-.261 1.824-.784.459-.533.688-1.307.688-2.32 0-1.024-.229-1.797-.688-2.32-.458-.533-1.066-.8-1.824-.8-.757 0-1.365.267-1.824.8-.448.523-.672 1.296-.672 2.32 0 1.013.224 1.787.672 2.32.459.523 1.067.784 1.824.784Zm13.83 1.056c-.789 0-1.477-.171-2.064-.512-.576-.341-1.024-.827-1.344-1.456-.309-.629-.464-1.376-.464-2.24 0-.875.16-1.616.48-2.224.32-.619.768-1.088 1.344-1.408.587-.32 1.269-.48 2.048-.48.512 0 1.008.091 1.488.272.491.181.896.437 1.216.768l-.464.928c-.32-.309-.672-.539-1.056-.688-.373-.149-.741-.224-1.104-.224-.832 0-1.477.261-1.936.784-.459.523-.688 1.285-.688 2.288 0 .992.229 1.76.688 2.304.459.544 1.104.816 1.936.816.352 0 .715-.069 1.088-.208.384-.139.741-.368 1.072-.688l.464.912c-.331.341-.741.603-1.232.784-.491.181-.981.272-1.472.272Zm7.539 0c-.714 0-1.338-.165-1.872-.496-.533-.341-.949-.821-1.248-1.44-.288-.619-.432-1.36-.432-2.224 0-.875.144-1.621.432-2.24.299-.619.715-1.093 1.248-1.424.534-.331 1.158-.496 1.872-.496.726 0 1.35.187 1.872.56.534.363.886.859 1.056 1.488h-.192l.176-1.904h1.248c-.032.309-.064.624-.096.944-.021.309-.032.613-.032.912V174h-1.296v-1.888h.176c-.17.629-.522 1.125-1.056 1.488-.533.363-1.152.544-1.856.544Zm.256-1.056c.768 0 1.376-.261 1.824-.784.448-.533.672-1.307.672-2.32 0-1.024-.224-1.797-.672-2.32-.448-.533-1.056-.8-1.824-.8-.757 0-1.365.267-1.824.8-.448.523-.672 1.296-.672 2.32 0 1.013.224 1.787.672 2.32.459.523 1.067.784 1.824.784Zm6.282.912v-11.776h1.296V174h-1.296Zm3.813 0v-11.776h1.296V174h-1.296Zm11.28.144c-.768 0-1.44-.165-2.016-.496-.565-.341-1.003-.821-1.312-1.44-.309-.629-.464-1.371-.464-2.224 0-.864.155-1.605.464-2.224.309-.619.747-1.093 1.312-1.424.576-.341 1.248-.512 2.016-.512.779 0 1.451.171 2.016.512.576.331 1.019.805 1.328 1.424.32.619.48 1.36.48 2.224 0 .853-.16 1.595-.48 2.224-.309.619-.752 1.099-1.328 1.44-.565.331-1.237.496-2.016.496Zm0-1.056c.768 0 1.376-.261 1.824-.784.448-.533.672-1.307.672-2.32 0-1.024-.224-1.797-.672-2.32-.448-.533-1.056-.8-1.824-.8-.757 0-1.36.267-1.808.8-.448.523-.672 1.296-.672 2.32 0 1.013.224 1.787.672 2.32.448.523 1.051.784 1.808.784Zm5.845.912v-6.176c0-.299-.016-.603-.048-.912-.022-.32-.048-.635-.08-.944h1.248l.16 1.76h-.192c.234-.619.608-1.088 1.12-1.408.522-.331 1.125-.496 1.808-.496.949 0 1.664.256 2.144.768.49.501.736 1.296.736 2.384V174h-1.296v-4.944c0-.757-.155-1.307-.464-1.648-.299-.352-.768-.528-1.408-.528-.747 0-1.339.229-1.776.688-.438.459-.656 1.072-.656 1.84V174h-1.296Zm15.915 0-3.44-8.032h1.408l2.88 7.072h-.432l2.912-7.072h1.344l-3.44 8.032h-1.232Zm6.132 0v-8.032h1.296V174h-1.296Zm-.16-9.856v-1.456h1.6v1.456h-1.6Zm3.94 9.856v-6.096c0-.32-.011-.645-.032-.976-.011-.331-.032-.651-.064-.96h1.248l.16 1.952-.224.016c.107-.48.293-.875.56-1.184.267-.309.581-.539.944-.688.363-.16.741-.24 1.136-.24.16 0 .299.005.416.016.128.011.245.037.352.08l-.016 1.152c-.16-.053-.309-.085-.448-.096-.128-.021-.277-.032-.448-.032-.469 0-.88.112-1.232.336-.341.224-.603.512-.784.864-.171.352-.256.725-.256 1.12V174h-1.312Zm9.114.144c-.789 0-1.392-.224-1.808-.672-.416-.459-.624-1.147-.624-2.064v-4.432h-1.568v-1.008h1.568v-2.192l1.296-.368v2.56h2.304v1.008h-2.304v4.288c0 .64.107 1.099.32 1.376.224.267.555.4.992.4.203 0 .384-.016.544-.048.16-.043.304-.091.432-.144v1.088c-.149.064-.33.112-.544.144-.202.043-.405.064-.608.064Zm5.578 0c-.949 0-1.669-.261-2.16-.784-.48-.523-.72-1.323-.72-2.4v-4.992h1.296v4.96c0 .736.149 1.28.448 1.632.299.341.763.512 1.392.512.704 0 1.269-.229 1.696-.688.427-.469.64-1.083.64-1.84v-4.576h1.296V174h-1.264v-1.808h.208c-.224.619-.587 1.099-1.088 1.44-.491.341-1.072.512-1.744.512Zm9.459 0c-.715 0-1.339-.165-1.872-.496-.534-.341-.95-.821-1.248-1.44-.288-.619-.432-1.36-.432-2.224 0-.875.144-1.621.432-2.24.298-.619.714-1.093 1.248-1.424.533-.331 1.157-.496 1.872-.496.725 0 1.349.187 1.872.56.533.363.885.859 1.056 1.488h-.192l.176-1.904h1.248c-.032.309-.064.624-.096.944-.022.309-.032.613-.032.912V174h-1.296v-1.888h.176c-.171.629-.523 1.125-1.056 1.488-.534.363-1.152.544-1.856.544Zm.256-1.056c.768 0 1.376-.261 1.824-.784.448-.533.672-1.307.672-2.32 0-1.024-.224-1.797-.672-2.32-.448-.533-1.056-.8-1.824-.8-.758 0-1.366.267-1.824.8-.448.523-.672 1.296-.672 2.32 0 1.013.224 1.787.672 2.32.458.523 1.066.784 1.824.784Zm6.281.912v-11.776h1.296V174h-1.296Zm7.985 3.456v-9.632c0-.299-.016-.603-.048-.912-.022-.32-.048-.635-.08-.944h1.248l.176 1.904h-.192c.17-.629.517-1.125 1.04-1.488.522-.373 1.146-.56 1.872-.56.725 0 1.349.165 1.872.496.533.331.949.805 1.248 1.424.298.619.448 1.365.448 2.24 0 .864-.15 1.605-.448 2.224-.288.619-.699 1.099-1.232 1.44-.534.331-1.163.496-1.888.496-.715 0-1.334-.181-1.856-.544-.523-.363-.87-.859-1.04-1.488h.176v5.344h-1.296Zm3.76-4.368c.768 0 1.376-.261 1.824-.784.458-.533.688-1.307.688-2.32 0-1.024-.23-1.797-.688-2.32-.448-.533-1.056-.8-1.824-.8-.758 0-1.366.267-1.824.8-.448.523-.672 1.296-.672 2.32 0 1.013.224 1.787.672 2.32.458.523 1.066.784 1.824.784Zm5.833.912v-11.776h1.296v5.52h-.208c.224-.629.598-1.104 1.12-1.424.534-.331 1.147-.496 1.84-.496.96 0 1.675.261 2.144.784.47.512.704 1.291.704 2.336V174h-1.296v-4.976c0-.747-.149-1.291-.448-1.632-.288-.341-.757-.512-1.408-.512-.746 0-1.344.229-1.792.688-.437.459-.656 1.061-.656 1.808V174h-1.296Zm12.671.144c-.768 0-1.44-.165-2.016-.496-.565-.341-1.002-.821-1.312-1.44-.309-.629-.464-1.371-.464-2.224 0-.864.155-1.605.464-2.224.31-.619.747-1.093 1.312-1.424.576-.341 1.248-.512 2.016-.512.779 0 1.451.171 2.016.512.576.331 1.019.805 1.328 1.424.32.619.48 1.36.48 2.224 0 .853-.16 1.595-.48 2.224-.309.619-.752 1.099-1.328 1.44-.565.331-1.237.496-2.016.496Zm0-1.056c.768 0 1.376-.261 1.824-.784.448-.533.672-1.307.672-2.32 0-1.024-.224-1.797-.672-2.32-.448-.533-1.056-.8-1.824-.8-.757 0-1.36.267-1.808.8-.448.523-.672 1.296-.672 2.32 0 1.013.224 1.787.672 2.32.448.523 1.051.784 1.808.784Zm5.845.912v-6.176c0-.299-.016-.603-.048-.912-.021-.32-.048-.635-.08-.944h1.248l.16 1.76h-.192c.235-.619.608-1.088 1.12-1.408.523-.331 1.125-.496 1.808-.496.949 0 1.664.256 2.144.768.491.501.736 1.296.736 2.384V174h-1.296v-4.944c0-.757-.155-1.307-.464-1.648-.299-.352-.768-.528-1.408-.528-.747 0-1.339.229-1.776.688-.437.459-.656 1.072-.656 1.84V174h-1.296Zm12.943.144c-.832 0-1.552-.16-2.16-.48-.608-.331-1.077-.805-1.408-1.424-.331-.629-.496-1.376-.496-2.24 0-.843.16-1.573.48-2.192.32-.629.768-1.115 1.344-1.456.576-.352 1.237-.528 1.984-.528.736 0 1.355.155 1.856.464.501.309.885.752 1.152 1.328.267.565.4 1.237.4 2.016v.48h-6.224v-.816h5.376l-.272.208c0-.853-.192-1.52-.576-2-.384-.48-.955-.72-1.712-.72-.544 0-1.008.128-1.392.384-.373.256-.661.613-.864 1.072-.192.459-.288 1.008-.288 1.648v.144c0 1.003.245 1.765.736 2.288.501.512 1.2.768 2.096.768.48 0 .928-.069 1.344-.208.427-.149.832-.389 1.216-.72l.448.912c-.352.341-.8.608-1.344.8-.533.181-1.099.272-1.696.272Zm9.307-.144v-6.176c0-.299-.016-.603-.048-.912-.021-.32-.048-.635-.08-.944h1.248l.16 1.76h-.192c.235-.619.608-1.088 1.12-1.408.523-.331 1.125-.496 1.808-.496.949 0 1.664.256 2.144.768.491.501.736 1.296.736 2.384V174h-1.296v-4.944c0-.757-.155-1.307-.464-1.648-.299-.352-.768-.528-1.408-.528-.747 0-1.339.229-1.776.688-.437.459-.656 1.072-.656 1.84V174h-1.296Zm12.207.144c-.949 0-1.669-.261-2.16-.784-.48-.523-.72-1.323-.72-2.4v-4.992h1.296v4.96c0 .736.149 1.28.448 1.632.299.341.763.512 1.392.512.704 0 1.269-.229 1.696-.688.427-.469.64-1.083.64-1.84v-4.576h1.296V174h-1.264v-1.808h.208c-.224.619-.587 1.099-1.088 1.44-.491.341-1.072.512-1.744.512Zm6.402-.144v-6.176c0-.299-.016-.603-.048-.912-.021-.32-.048-.635-.08-.944h1.248l.16 1.76h-.192c.214-.608.55-1.077 1.008-1.408.47-.331 1.035-.496 1.696-.496.672 0 1.216.16 1.632.48.427.32.715.816.864 1.488h-.24c.203-.608.56-1.088 1.072-1.44.512-.352 1.11-.528 1.792-.528.886 0 1.552.256 2 .768.448.501.672 1.296.672 2.384V174h-1.296v-4.944c0-.757-.133-1.307-.4-1.648-.266-.352-.693-.528-1.28-.528-.672 0-1.205.235-1.6.704-.384.459-.576 1.077-.576 1.856V174h-1.296v-4.944c0-.757-.133-1.307-.4-1.648-.266-.352-.693-.528-1.28-.528-.672 0-1.2.235-1.584.704-.384.459-.576 1.077-.576 1.856V174h-1.296Zm18.079.144c-.725 0-1.349-.181-1.872-.544-.522-.373-.874-.88-1.056-1.52h.176V174h-1.28v-11.776h1.296v5.616h-.192c.182-.619.534-1.109 1.056-1.472.523-.363 1.147-.544 1.872-.544.726 0 1.35.171 1.872.512.534.331.944.805 1.232 1.424.299.619.448 1.36.448 2.224 0 .864-.149 1.605-.448 2.224-.298.619-.714 1.099-1.248 1.44-.522.331-1.141.496-1.856.496Zm-.272-1.056c.758 0 1.366-.261 1.824-.784.459-.523.688-1.296.688-2.32 0-1.024-.229-1.797-.688-2.32-.458-.533-1.066-.8-1.824-.8-.757 0-1.365.267-1.824.8-.448.523-.672 1.296-.672 2.32 0 1.013.224 1.787.672 2.32.459.523 1.067.784 1.824.784Zm9.402 1.056c-.832 0-1.552-.16-2.16-.48-.608-.331-1.077-.805-1.408-1.424-.331-.629-.496-1.376-.496-2.24 0-.843.16-1.573.48-2.192.32-.629.768-1.115 1.344-1.456.576-.352 1.237-.528 1.984-.528.736 0 1.355.155 1.856.464.501.309.885.752 1.152 1.328.267.565.4 1.237.4 2.016v.48h-6.224v-.816h5.376l-.272.208c0-.853-.192-1.52-.576-2-.384-.48-.955-.72-1.712-.72-.544 0-1.008.128-1.392.384-.373.256-.661.613-.864 1.072-.192.459-.288 1.008-.288 1.648v.144c0 1.003.245 1.765.736 2.288.501.512 1.2.768 2.096.768.48 0 .928-.069 1.344-.208.427-.149.832-.389 1.216-.72l.448.912c-.352.341-.8.608-1.344.8-.533.181-1.099.272-1.696.272Zm5.103-.144v-6.096c0-.32-.011-.645-.032-.976-.011-.331-.032-.651-.064-.96h1.248l.16 1.952-.224.016c.107-.48.293-.875.56-1.184.267-.309.581-.539.944-.688.363-.16.741-.24 1.136-.24.16 0 .299.005.416.016.128.011.245.037.352.08l-.016 1.152c-.16-.053-.309-.085-.448-.096-.128-.021-.277-.032-.448-.032-.469 0-.88.112-1.232.336-.341.224-.603.512-.784.864-.171.352-.256.725-.256 1.12V174h-1.312ZM85.992 220.352c0-1.195.2027-2.219.608-3.072.416-.864 1.008-1.531 1.776-2 .7787-.469 1.712-.704 2.8-.704 1.056 0 1.9733.235 2.752.704.7787.469 1.376 1.136 1.792 2 .4267.853.64 1.872.64 3.056 0 1.195-.2133 2.224-.64 3.088-.4267.864-1.0293 1.536-1.808 2.016-.768.469-1.68.704-2.736.704-1.088 0-2.016-.235-2.784-.704-.768-.48-1.36-1.152-1.776-2.016-.416-.864-.624-1.888-.624-3.072Zm1.392 0c0 .971.144 1.803.432 2.496.288.683.7147 1.211 1.28 1.584.5653.363 1.2587.544 2.08.544 1.1947 0 2.1227-.405 2.784-1.216.672-.821 1.008-1.957 1.008-3.408 0-.981-.1493-1.813-.448-2.496s-.7307-1.205-1.296-1.568-1.248-.544-2.048-.544c-1.248 0-2.192.405-2.832 1.216-.64.8-.96 1.931-.96 3.392Zm14.071 5.792c-.949 0-1.669-.261-2.1596-.784-.48-.523-.72-1.323-.72-2.4v-4.992h1.296v4.96c0 .736.1496 1.28.4476 1.632.299.341.763.512 1.392.512.704 0 1.27-.229 1.696-.688.427-.469.64-1.083.64-1.84v-4.576h1.296V226h-1.264v-1.808h.208c-.224.619-.586 1.099-1.088 1.44-.49.341-1.072.512-1.744.512Zm9.251 0c-.79 0-1.392-.224-1.808-.672-.416-.459-.624-1.147-.624-2.064v-4.432h-1.568v-1.008h1.568v-2.192l1.296-.368v2.56h2.304v1.008h-2.304v4.288c0 .64.106 1.099.32 1.376.224.267.554.4.992.4.202 0 .384-.016.544-.048.16-.043.304-.091.432-.144v1.088c-.15.064-.331.112-.544.144-.203.043-.406.064-.608.064Zm6.778 0c-.726 0-1.35-.181-1.872-.544-.523-.373-.875-.88-1.056-1.52h.176V226h-1.28v-11.776h1.296v5.616h-.192c.181-.619.533-1.109 1.056-1.472.522-.363 1.146-.544 1.872-.544.725 0 1.349.171 1.872.512.533.331.944.805 1.232 1.424.298.619.448 1.36.448 2.224 0 .864-.15 1.605-.448 2.224-.299.619-.715 1.099-1.248 1.44-.523.331-1.142.496-1.856.496Zm-.272-1.056c.757 0 1.365-.261 1.824-.784.458-.523.688-1.296.688-2.32 0-1.024-.23-1.797-.688-2.32-.459-.533-1.067-.8-1.824-.8-.758 0-1.366.267-1.824.8-.448.523-.672 1.296-.672 2.32 0 1.013.224 1.787.672 2.32.458.523 1.066.784 1.824.784Zm9.129 1.056c-.768 0-1.44-.165-2.016-.496-.565-.341-1.002-.821-1.312-1.44-.309-.629-.464-1.371-.464-2.224 0-.864.155-1.605.464-2.224.31-.619.747-1.093 1.312-1.424.576-.341 1.248-.512 2.016-.512.779 0 1.451.171 2.016.512.576.331 1.019.805 1.328 1.424.32.619.48 1.36.48 2.224 0 .853-.16 1.595-.48 2.224-.309.619-.752 1.099-1.328 1.44-.565.331-1.237.496-2.016.496Zm0-1.056c.768 0 1.376-.261 1.824-.784.448-.533.672-1.307.672-2.32 0-1.024-.224-1.797-.672-2.32-.448-.533-1.056-.8-1.824-.8-.757 0-1.36.267-1.808.8-.448.523-.672 1.296-.672 2.32 0 1.013.224 1.787.672 2.32.448.523 1.051.784 1.808.784Zm8.677 1.056c-.949 0-1.669-.261-2.16-.784-.48-.523-.72-1.323-.72-2.4v-4.992h1.296v4.96c0 .736.149 1.28.448 1.632.299.341.763.512 1.392.512.704 0 1.269-.229 1.696-.688.427-.469.64-1.083.64-1.84v-4.576h1.296V226h-1.264v-1.808h.208c-.224.619-.587 1.099-1.088 1.44-.491.341-1.072.512-1.744.512Zm6.402-.144v-6.176c0-.299-.016-.603-.048-.912-.021-.32-.048-.635-.08-.944h1.248l.16 1.76h-.192c.235-.619.608-1.088 1.12-1.408.523-.331 1.126-.496 1.808-.496.95 0 1.664.256 2.144.768.491.501.736 1.296.736 2.384V226h-1.296v-4.944c0-.757-.154-1.307-.464-1.648-.298-.352-.768-.528-1.408-.528-.746 0-1.338.229-1.776.688-.437.459-.656 1.072-.656 1.84V226h-1.296Zm12.415.144c-.704 0-1.322-.165-1.856-.496-.533-.341-.949-.821-1.248-1.44-.288-.619-.432-1.36-.432-2.224 0-.875.144-1.621.432-2.24.299-.619.715-1.093 1.248-1.424.534-.331 1.152-.496 1.856-.496.726 0 1.35.181 1.872.544.534.363.891.853 1.072 1.472h-.192v-5.616h1.296V226h-1.28v-1.92h.176c-.17.64-.522 1.147-1.056 1.52-.533.363-1.162.544-1.888.544Zm.272-1.056c.758 0 1.366-.261 1.824-.784.459-.533.688-1.307.688-2.32 0-1.024-.229-1.797-.688-2.32-.458-.533-1.066-.8-1.824-.8-.757 0-1.365.267-1.824.8-.448.523-.672 1.296-.672 2.32 0 1.013.224 1.787.672 2.32.459.523 1.067.784 1.824.784Zm13.83 1.056c-.789 0-1.477-.171-2.064-.512-.576-.341-1.024-.827-1.344-1.456-.309-.629-.464-1.376-.464-2.24 0-.875.16-1.616.48-2.224.32-.619.768-1.088 1.344-1.408.587-.32 1.269-.48 2.048-.48.512 0 1.008.091 1.488.272.491.181.896.437 1.216.768l-.464.928c-.32-.309-.672-.539-1.056-.688-.373-.149-.741-.224-1.104-.224-.832 0-1.477.261-1.936.784-.459.523-.688 1.285-.688 2.288 0 .992.229 1.76.688 2.304.459.544 1.104.816 1.936.816.352 0 .715-.069 1.088-.208.384-.139.741-.368 1.072-.688l.464.912c-.331.341-.741.603-1.232.784-.491.181-.981.272-1.472.272Zm7.539 0c-.714 0-1.338-.165-1.872-.496-.533-.341-.949-.821-1.248-1.44-.288-.619-.432-1.36-.432-2.224 0-.875.144-1.621.432-2.24.299-.619.715-1.093 1.248-1.424.534-.331 1.158-.496 1.872-.496.726 0 1.35.187 1.872.56.534.363.886.859 1.056 1.488h-.192l.176-1.904h1.248c-.032.309-.064.624-.096.944-.021.309-.032.613-.032.912V226h-1.296v-1.888h.176c-.17.629-.522 1.125-1.056 1.488-.533.363-1.152.544-1.856.544Zm.256-1.056c.768 0 1.376-.261 1.824-.784.448-.533.672-1.307.672-2.32 0-1.024-.224-1.797-.672-2.32-.448-.533-1.056-.8-1.824-.8-.757 0-1.365.267-1.824.8-.448.523-.672 1.296-.672 2.32 0 1.013.224 1.787.672 2.32.459.523 1.067.784 1.824.784Zm6.282.912v-11.776h1.296V226h-1.296Zm3.813 0v-11.776h1.296V226h-1.296ZM91.32 278.144c-1.1307 0-2.0907-.235-2.88-.704-.7893-.469-1.3973-1.136-1.824-2-.416-.864-.624-1.893-.624-3.088s.208-2.219.624-3.072c.4267-.864 1.0347-1.531 1.824-2 .7893-.469 1.7493-.704 2.88-.704.8 0 1.5147.123 2.144.368.6293.245 1.1787.603 1.648 1.072l-.496 1.056c-.512-.448-1.0187-.773-1.52-.976-.5013-.213-1.088-.32-1.76-.32-1.2907 0-2.272.4-2.944 1.2-.672.8-1.008 1.925-1.008 3.376 0 .971.1493 1.803.448 2.496.2987.683.7413 1.205 1.328 1.568.5973.352 1.3227.528 2.176.528.672 0 1.2587-.101 1.76-.304.5013-.213 1.008-.549 1.52-1.008l.496 1.072c-.4693.459-1.0187.816-1.648 1.072-.6293.245-1.344.368-2.144.368Zm8.688 0c-.7152 0-1.3392-.165-1.8725-.496-.5333-.341-.9493-.821-1.248-1.44-.288-.619-.432-1.36-.432-2.224 0-.875.144-1.621.432-2.24.2987-.619.7147-1.093 1.248-1.424.5333-.331 1.1573-.496 1.8725-.496.725 0 1.349.187 1.872.56.533.363.885.859 1.056 1.488h-.192l.176-1.904h1.248c-.032.309-.064.624-.096.944-.022.309-.032.613-.032.912V278h-1.296v-1.888h.176c-.171.629-.523 1.125-1.056 1.488-.534.363-1.152.544-1.856.544Zm.256-1.056c.768 0 1.376-.261 1.824-.784.448-.533.672-1.307.672-2.32 0-1.024-.224-1.797-.672-2.32-.448-.533-1.056-.8-1.824-.8-.7578 0-1.3658.267-1.8245.8-.448.523-.672 1.296-.672 2.32 0 1.013.224 1.787.672 2.32.4587.523 1.0667.784 1.8245.784Zm6.281.912v-11.776h1.296V278h-1.296Zm3.813 0v-11.776h1.296V278h-1.296Zm7.952 0v-6.096c0-.32-.011-.645-.032-.976-.011-.331-.032-.651-.064-.96h1.248l.16 1.952-.224.016c.107-.48.293-.875.56-1.184.267-.309.581-.539.944-.688.363-.16.741-.24 1.136-.24.16 0 .299.005.416.016.128.011.245.037.352.08l-.016 1.152c-.16-.053-.309-.085-.448-.096-.128-.021-.277-.032-.448-.032-.469 0-.88.112-1.232.336-.341.224-.603.512-.784.864-.171.352-.256.725-.256 1.12V278h-1.312Zm9.319.144c-.832 0-1.552-.16-2.16-.48-.608-.331-1.077-.805-1.408-1.424-.331-.629-.496-1.376-.496-2.24 0-.843.16-1.573.48-2.192.32-.629.768-1.115 1.344-1.456.576-.352 1.237-.528 1.984-.528.736 0 1.355.155 1.856.464.501.309.885.752 1.152 1.328.267.565.4 1.237.4 2.016v.48h-6.224v-.816h5.376l-.272.208c0-.853-.192-1.52-.576-2-.384-.48-.955-.72-1.712-.72-.544 0-1.008.128-1.392.384-.373.256-.661.613-.864 1.072-.192.459-.288 1.008-.288 1.648v.144c0 1.003.245 1.765.736 2.288.501.512 1.2.768 2.096.768.48 0 .928-.069 1.344-.208.427-.149.832-.389 1.216-.72l.448.912c-.352.341-.8.608-1.344.8-.533.181-1.099.272-1.696.272Zm8.511 0c-.789 0-1.477-.171-2.064-.512-.576-.341-1.024-.827-1.344-1.456-.309-.629-.464-1.376-.464-2.24 0-.875.16-1.616.48-2.224.32-.619.768-1.088 1.344-1.408.587-.32 1.269-.48 2.048-.48.512 0 1.008.091 1.488.272.491.181.896.437 1.216.768l-.464.928c-.32-.309-.672-.539-1.056-.688-.373-.149-.741-.224-1.104-.224-.832 0-1.477.261-1.936.784-.459.523-.688 1.285-.688 2.288 0 .992.229 1.76.688 2.304.459.544 1.104.816 1.936.816.352 0 .715-.069 1.088-.208.384-.139.741-.368 1.072-.688l.464.912c-.331.341-.741.603-1.232.784-.491.181-.981.272-1.472.272Zm7.686 0c-.768 0-1.44-.165-2.016-.496-.566-.341-1.003-.821-1.312-1.44-.31-.629-.464-1.371-.464-2.224 0-.864.154-1.605.464-2.224.309-.619.746-1.093 1.312-1.424.576-.341 1.248-.512 2.016-.512.778 0 1.45.171 2.016.512.576.331 1.018.805 1.328 1.424.32.619.48 1.36.48 2.224 0 .853-.16 1.595-.48 2.224-.31.619-.752 1.099-1.328 1.44-.566.331-1.238.496-2.016.496Zm0-1.056c.768 0 1.376-.261 1.824-.784.448-.533.672-1.307.672-2.32 0-1.024-.224-1.797-.672-2.32-.448-.533-1.056-.8-1.824-.8-.758 0-1.36.267-1.808.8-.448.523-.672 1.296-.672 2.32 0 1.013.224 1.787.672 2.32.448.523 1.05.784 1.808.784Zm5.812.912v-6.096c0-.32-.01-.645-.032-.976-.01-.331-.032-.651-.064-.96h1.248l.16 1.952-.224.016c.107-.48.294-.875.56-1.184.267-.309.582-.539.944-.688.363-.16.742-.24 1.136-.24.16 0 .299.005.416.016.128.011.246.037.352.08l-.016 1.152c-.16-.053-.309-.085-.448-.096-.128-.021-.277-.032-.448-.032-.469 0-.88.112-1.232.336-.341.224-.602.512-.784.864-.17.352-.256.725-.256 1.12V278h-1.312Zm8.791.144c-.704 0-1.323-.165-1.856-.496-.533-.341-.949-.821-1.248-1.44-.288-.619-.432-1.36-.432-2.224 0-.875.144-1.621.432-2.24.299-.619.715-1.093 1.248-1.424.533-.331 1.152-.496 1.856-.496.725 0 1.349.181 1.872.544.533.363.891.853 1.072 1.472h-.192v-5.616h1.296V278h-1.28v-1.92h.176c-.171.64-.523 1.147-1.056 1.52-.533.363-1.163.544-1.888.544Zm.272-1.056c.757 0 1.365-.261 1.824-.784.459-.533.688-1.307.688-2.32 0-1.024-.229-1.797-.688-2.32-.459-.533-1.067-.8-1.824-.8-.757 0-1.365.267-1.824.8-.448.523-.672 1.296-.672 2.32 0 1.013.224 1.787.672 2.32.459.523 1.067.784 1.824.784Zm6.282.912v-8.032h1.296V278h-1.296Zm-.16-9.856v-1.456h1.6v1.456h-1.6Zm3.972 9.856v-6.176c0-.299-.016-.603-.048-.912-.021-.32-.048-.635-.08-.944h1.248l.16 1.76h-.192c.235-.619.608-1.088 1.12-1.408.523-.331 1.126-.496 1.808-.496.95 0 1.664.256 2.144.768.491.501.736 1.296.736 2.384V278h-1.296v-4.944c0-.757-.154-1.307-.464-1.648-.298-.352-.768-.528-1.408-.528-.746 0-1.338.229-1.776.688-.437.459-.656 1.072-.656 1.84V278h-1.296Zm12.911 3.568c-.693 0-1.333-.085-1.92-.256-.586-.171-1.114-.432-1.584-.784l.384-.976c.331.235.656.421.976.56.32.139.651.24.992.304.342.075.704.112 1.088.112.79 0 1.387-.208 1.792-.624.406-.416.608-1.008.608-1.776v-2.352h.16c-.17.629-.522 1.131-1.056 1.504-.533.363-1.157.544-1.872.544-.736 0-1.376-.16-1.92-.48-.533-.331-.949-.795-1.248-1.392-.288-.608-.432-1.323-.432-2.144 0-.811.144-1.515.432-2.112.299-.597.715-1.056 1.248-1.376.544-.331 1.184-.496 1.92-.496.726 0 1.35.181 1.872.544.534.363.886.864 1.056 1.504l-.16-.16.144-1.744h1.264c-.042.309-.074.624-.096.944-.021.309-.032.613-.032.912v6.128c0 1.195-.309 2.096-.928 2.704-.608.608-1.504.912-2.688.912Zm-.192-4.8c.779 0 1.392-.256 1.84-.768.448-.523.672-1.253.672-2.192 0-.939-.224-1.664-.672-2.176-.448-.512-1.061-.768-1.84-.768-.768 0-1.381.256-1.84.768-.458.512-.688 1.237-.688 2.176 0 .939.23 1.669.688 2.192.459.512 1.072.768 1.84.768Zm13.845 1.376c-.79 0-1.478-.171-2.064-.512-.576-.341-1.024-.827-1.344-1.456-.31-.629-.464-1.376-.464-2.24 0-.875.16-1.616.48-2.224.32-.619.768-1.088 1.344-1.408.586-.32 1.269-.48 2.048-.48.512 0 1.008.091 1.488.272.49.181.896.437 1.216.768l-.464.928c-.32-.309-.672-.539-1.056-.688-.374-.149-.742-.224-1.104-.224-.832 0-1.478.261-1.936.784-.459.523-.688 1.285-.688 2.288 0 .992.229 1.76.688 2.304.458.544 1.104.816 1.936.816.352 0 .714-.069 1.088-.208.384-.139.741-.368 1.072-.688l.464.912c-.331.341-.742.603-1.232.784-.491.181-.982.272-1.472.272Zm7.685 0c-.768 0-1.44-.165-2.016-.496-.565-.341-1.002-.821-1.312-1.44-.309-.629-.464-1.371-.464-2.224 0-.864.155-1.605.464-2.224.31-.619.747-1.093 1.312-1.424.576-.341 1.248-.512 2.016-.512.779 0 1.451.171 2.016.512.576.331 1.019.805 1.328 1.424.32.619.48 1.36.48 2.224 0 .853-.16 1.595-.48 2.224-.309.619-.752 1.099-1.328 1.44-.565.331-1.237.496-2.016.496Zm0-1.056c.768 0 1.376-.261 1.824-.784.448-.533.672-1.307.672-2.32 0-1.024-.224-1.797-.672-2.32-.448-.533-1.056-.8-1.824-.8-.757 0-1.36.267-1.808.8-.448.523-.672 1.296-.672 2.32 0 1.013.224 1.787.672 2.32.448.523 1.051.784 1.808.784Zm5.845.912v-6.176c0-.299-.016-.603-.048-.912-.021-.32-.048-.635-.08-.944h1.248l.16 1.76h-.192c.213-.608.549-1.077 1.008-1.408.469-.331 1.035-.496 1.696-.496.672 0 1.216.16 1.632.48.427.32.715.816.864 1.488h-.24c.203-.608.56-1.088 1.072-1.44.512-.352 1.109-.528 1.792-.528.885 0 1.552.256 2 .768.448.501.672 1.296.672 2.384V278h-1.296v-4.944c0-.757-.133-1.307-.4-1.648-.267-.352-.693-.528-1.28-.528-.672 0-1.205.235-1.6.704-.384.459-.576 1.077-.576 1.856V278h-1.296v-4.944c0-.757-.133-1.307-.4-1.648-.267-.352-.693-.528-1.28-.528-.672 0-1.2.235-1.584.704-.384.459-.576 1.077-.576 1.856V278h-1.296Zm14.047 3.456v-9.632c0-.299-.016-.603-.048-.912-.021-.32-.048-.635-.08-.944h1.248l.176 1.904h-.192c.171-.629.517-1.125 1.04-1.488.523-.373 1.147-.56 1.872-.56.725 0 1.349.165 1.872.496.533.331.949.805 1.248 1.424.299.619.448 1.365.448 2.24 0 .864-.149 1.605-.448 2.224-.288.619-.699 1.099-1.232 1.44-.533.331-1.163.496-1.888.496-.715 0-1.333-.181-1.856-.544-.523-.363-.869-.859-1.04-1.488h.176v5.344h-1.296Zm3.76-4.368c.768 0 1.376-.261 1.824-.784.459-.533.688-1.307.688-2.32 0-1.024-.229-1.797-.688-2.32-.448-.533-1.056-.8-1.824-.8-.757 0-1.365.267-1.824.8-.448.523-.672 1.296-.672 2.32 0 1.013.224 1.787.672 2.32.459.523 1.067.784 1.824.784Zm5.834.912v-11.776h1.296V278h-1.296Zm7.38.144c-.832 0-1.552-.16-2.16-.48-.608-.331-1.077-.805-1.408-1.424-.331-.629-.496-1.376-.496-2.24 0-.843.16-1.573.48-2.192.32-.629.768-1.115 1.344-1.456.576-.352 1.237-.528 1.984-.528.736 0 1.355.155 1.856.464.501.309.885.752 1.152 1.328.267.565.4 1.237.4 2.016v.48h-6.224v-.816h5.376l-.272.208c0-.853-.192-1.52-.576-2-.384-.48-.955-.72-1.712-.72-.544 0-1.008.128-1.392.384-.373.256-.661.613-.864 1.072-.192.459-.288 1.008-.288 1.648v.144c0 1.003.245 1.765.736 2.288.501.512 1.2.768 2.096.768.48 0 .928-.069 1.344-.208.427-.149.832-.389 1.216-.72l.448.912c-.352.341-.8.608-1.344.8-.533.181-1.099.272-1.696.272Zm7.983 0c-.789 0-1.392-.224-1.808-.672-.416-.459-.624-1.147-.624-2.064v-4.432h-1.568v-1.008h1.568v-2.192l1.296-.368v2.56h2.304v1.008h-2.304v4.288c0 .64.107 1.099.32 1.376.224.267.555.4.992.4.203 0 .384-.016.544-.048.16-.043.304-.091.432-.144v1.088c-.149.064-.33.112-.544.144-.202.043-.405.064-.608.064Zm6.236 0c-.832 0-1.552-.16-2.16-.48-.608-.331-1.077-.805-1.408-1.424-.331-.629-.496-1.376-.496-2.24 0-.843.16-1.573.48-2.192.32-.629.768-1.115 1.344-1.456.576-.352 1.237-.528 1.984-.528.736 0 1.355.155 1.856.464.501.309.885.752 1.152 1.328.267.565.4 1.237.4 2.016v.48h-6.224v-.816h5.376l-.272.208c0-.853-.192-1.52-.576-2-.384-.48-.955-.72-1.712-.72-.544 0-1.008.128-1.392.384-.373.256-.661.613-.864 1.072-.192.459-.288 1.008-.288 1.648v.144c0 1.003.245 1.765.736 2.288.501.512 1.2.768 2.096.768.48 0 .928-.069 1.344-.208.427-.149.832-.389 1.216-.72l.448.912c-.352.341-.8.608-1.344.8-.533.181-1.099.272-1.696.272Zm8.175 0c-.704 0-1.323-.165-1.856-.496-.533-.341-.949-.821-1.248-1.44-.288-.619-.432-1.36-.432-2.224 0-.875.144-1.621.432-2.24.299-.619.715-1.093 1.248-1.424.533-.331 1.152-.496 1.856-.496.725 0 1.349.181 1.872.544.533.363.891.853 1.072 1.472h-.192v-5.616h1.296V278h-1.28v-1.92h.176c-.171.64-.523 1.147-1.056 1.52-.533.363-1.163.544-1.888.544Zm.272-1.056c.757 0 1.365-.261 1.824-.784.459-.533.688-1.307.688-2.32 0-1.024-.229-1.797-.688-2.32-.459-.533-1.067-.8-1.824-.8-.757 0-1.365.267-1.824.8-.448.523-.672 1.296-.672 2.32 0 1.013.224 1.787.672 2.32.459.523 1.067.784 1.824.784ZM89.96 330l-4.912-11.28h1.424l4.368 10.224h-.496l4.4-10.224h1.376L91.176 330H89.96Zm9.8344.144c-.768 0-1.44-.165-2.016-.496-.5654-.341-1.0027-.821-1.312-1.44-.3094-.629-.464-1.371-.464-2.224 0-.864.1546-1.605.464-2.224.3093-.619.7466-1.093 1.312-1.424.576-.341 1.248-.512 2.016-.512.7786 0 1.4506.171 2.0156.512.576.331 1.019.805 1.328 1.424.32.619.48 1.36.48 2.224 0 .853-.16 1.595-.48 2.224-.309.619-.752 1.099-1.328 1.44-.565.331-1.237.496-2.0156.496Zm0-1.056c.7676 0 1.3756-.261 1.8236-.784.448-.533.672-1.307.672-2.32 0-1.024-.224-1.797-.672-2.32-.448-.533-1.056-.8-1.8236-.8-.7574 0-1.36.267-1.808.8-.448.523-.672 1.296-.672 2.32 0 1.013.224 1.787.672 2.32.448.523 1.0506.784 1.808.784Zm5.8446.912v-8.032h1.296V330h-1.296Zm-.16-9.856v-1.456h1.6v1.456h-1.6Zm7.349 10c-.79 0-1.478-.171-2.064-.512-.576-.341-1.024-.827-1.344-1.456-.31-.629-.464-1.376-.464-2.24 0-.875.16-1.616.48-2.224.32-.619.768-1.088 1.344-1.408.586-.32 1.269-.48 2.048-.48.512 0 1.008.091 1.488.272.49.181.896.437 1.216.768l-.464.928c-.32-.309-.672-.539-1.056-.688-.374-.149-.742-.224-1.104-.224-.832 0-1.478.261-1.936.784-.459.523-.688 1.285-.688 2.288 0 .992.229 1.76.688 2.304.458.544 1.104.816 1.936.816.352 0 .714-.069 1.088-.208.384-.139.741-.368 1.072-.688l.464.912c-.331.341-.742.603-1.232.784-.491.181-.982.272-1.472.272Zm7.957 0c-.832 0-1.552-.16-2.16-.48-.608-.331-1.077-.805-1.408-1.424-.331-.629-.496-1.376-.496-2.24 0-.843.16-1.573.48-2.192.32-.629.768-1.115 1.344-1.456.576-.352 1.237-.528 1.984-.528.736 0 1.355.155 1.856.464.501.309.885.752 1.152 1.328.267.565.4 1.237.4 2.016v.48h-6.224v-.816h5.376l-.272.208c0-.853-.192-1.52-.576-2-.384-.48-.955-.72-1.712-.72-.544 0-1.008.128-1.392.384-.373.256-.661.613-.864 1.072-.192.459-.288 1.008-.288 1.648v.144c0 1.003.245 1.765.736 2.288.501.512 1.2.768 2.096.768.48 0 .928-.069 1.344-.208.427-.149.832-.389 1.216-.72l.448.912c-.352.341-.8.608-1.344.8-.533.181-1.099.272-1.696.272Zm9.307-.144v-6.176c0-.299-.016-.603-.048-.912-.021-.32-.048-.635-.08-.944h1.248l.16 1.76h-.192c.213-.608.549-1.077 1.008-1.408.469-.331 1.035-.496 1.696-.496.672 0 1.216.16 1.632.48.427.32.715.816.864 1.488h-.24c.203-.608.56-1.088 1.072-1.44.512-.352 1.109-.528 1.792-.528.885 0 1.552.256 2 .768.448.501.672 1.296.672 2.384V330h-1.296v-4.944c0-.757-.133-1.307-.4-1.648-.267-.352-.693-.528-1.28-.528-.672 0-1.205.235-1.6.704-.384.459-.576 1.077-.576 1.856V330h-1.296v-4.944c0-.757-.133-1.307-.4-1.648-.267-.352-.693-.528-1.28-.528-.672 0-1.2.235-1.584.704-.384.459-.576 1.077-.576 1.856V330h-1.296Zm17.615.144c-.832 0-1.552-.16-2.16-.48-.608-.331-1.077-.805-1.408-1.424-.331-.629-.496-1.376-.496-2.24 0-.843.16-1.573.48-2.192.32-.629.768-1.115 1.344-1.456.576-.352 1.237-.528 1.984-.528.736 0 1.355.155 1.856.464.501.309.885.752 1.152 1.328.267.565.4 1.237.4 2.016v.48h-6.224v-.816h5.376l-.272.208c0-.853-.192-1.52-.576-2-.384-.48-.955-.72-1.712-.72-.544 0-1.008.128-1.392.384-.373.256-.661.613-.864 1.072-.192.459-.288 1.008-.288 1.648v.144c0 1.003.245 1.765.736 2.288.501.512 1.2.768 2.096.768.48 0 .928-.069 1.344-.208.427-.149.832-.389 1.216-.72l.448.912c-.352.341-.8.608-1.344.8-.533.181-1.099.272-1.696.272Zm7.807 0c-.64 0-1.237-.085-1.792-.256-.555-.181-1.013-.432-1.376-.752l.448-.912c.395.309.821.539 1.28.688.469.149.955.224 1.456.224.64 0 1.12-.112 1.44-.336.331-.235.496-.555.496-.96 0-.309-.107-.555-.32-.736-.203-.192-.539-.341-1.008-.448l-1.488-.304c-.683-.149-1.195-.4-1.536-.752-.341-.363-.512-.821-.512-1.376 0-.469.123-.88.368-1.232.245-.363.603-.645 1.072-.848.469-.213 1.019-.32 1.648-.32.587 0 1.125.091 1.616.272.501.171.917.421 1.248.752l-.464.896c-.32-.309-.688-.539-1.104-.688-.405-.16-.827-.24-1.264-.24-.629 0-1.104.128-1.424.384-.309.245-.464.571-.464.976 0 .309.096.565.288.768.203.192.512.336.928.432l1.488.304c.725.16 1.264.411 1.616.752.363.331.544.779.544 1.344 0 .48-.133.901-.4 1.264-.267.352-.64.624-1.12.816-.469.192-1.024.288-1.664.288Zm7.938 0c-.64 0-1.238-.085-1.792-.256-.555-.181-1.014-.432-1.376-.752l.448-.912c.394.309.821.539 1.28.688.469.149.954.224 1.456.224.64 0 1.12-.112 1.44-.336.33-.235.496-.555.496-.96 0-.309-.107-.555-.32-.736-.203-.192-.539-.341-1.008-.448l-1.488-.304c-.683-.149-1.195-.4-1.536-.752-.342-.363-.512-.821-.512-1.376 0-.469.122-.88.368-1.232.245-.363.602-.645 1.072-.848.469-.213 1.018-.32 1.648-.32.586 0 1.125.091 1.616.272.501.171.917.421 1.248.752l-.464.896c-.32-.309-.688-.539-1.104-.688-.406-.16-.827-.24-1.264-.24-.63 0-1.104.128-1.424.384-.31.245-.464.571-.464.976 0 .309.096.565.288.768.202.192.512.336.928.432l1.488.304c.725.16 1.264.411 1.616.752.362.331.544.779.544 1.344 0 .48-.134.901-.4 1.264-.267.352-.64.624-1.12.816-.47.192-1.024.288-1.664.288Zm8.321 0c-.715 0-1.339-.165-1.872-.496-.533-.341-.949-.821-1.248-1.44-.288-.619-.432-1.36-.432-2.224 0-.875.144-1.621.432-2.24.299-.619.715-1.093 1.248-1.424.533-.331 1.157-.496 1.872-.496.725 0 1.349.187 1.872.56.533.363.885.859 1.056 1.488h-.192l.176-1.904h1.248c-.032.309-.064.624-.096.944-.021.309-.032.613-.032.912V330h-1.296v-1.888h.176c-.171.629-.523 1.125-1.056 1.488s-1.152.544-1.856.544Zm.256-1.056c.768 0 1.376-.261 1.824-.784.448-.533.672-1.307.672-2.32 0-1.024-.224-1.797-.672-2.32-.448-.533-1.056-.8-1.824-.8-.757 0-1.365.267-1.824.8-.448.523-.672 1.296-.672 2.32 0 1.013.224 1.787.672 2.32.459.523 1.067.784 1.824.784Zm9.818 4.48c-.693 0-1.333-.085-1.92-.256-.587-.171-1.115-.432-1.584-.784l.384-.976c.331.235.656.421.976.56.32.139.651.24.992.304.341.075.704.112 1.088.112.789 0 1.387-.208 1.792-.624.405-.416.608-1.008.608-1.776v-2.352h.16c-.171.629-.523 1.131-1.056 1.504-.533.363-1.157.544-1.872.544-.736 0-1.376-.16-1.92-.48-.533-.331-.949-.795-1.248-1.392-.288-.608-.432-1.323-.432-2.144 0-.811.144-1.515.432-2.112.299-.597.715-1.056 1.248-1.376.544-.331 1.184-.496 1.92-.496.725 0 1.349.181 1.872.544.533.363.885.864 1.056 1.504l-.16-.16.144-1.744h1.264c-.043.309-.075.624-.096.944-.021.309-.032.613-.032.912v6.128c0 1.195-.309 2.096-.928 2.704-.608.608-1.504.912-2.688.912Zm-.192-4.8c.779 0 1.392-.256 1.84-.768.448-.523.672-1.253.672-2.192 0-.939-.224-1.664-.672-2.176-.448-.512-1.061-.768-1.84-.768-.768 0-1.381.256-1.84.768-.459.512-.688 1.237-.688 2.176 0 .939.229 1.669.688 2.192.459.512 1.072.768 1.84.768Zm9.865 1.376c-.832 0-1.552-.16-2.16-.48-.608-.331-1.078-.805-1.408-1.424-.331-.629-.496-1.376-.496-2.24 0-.843.16-1.573.48-2.192.32-.629.768-1.115 1.344-1.456.576-.352 1.237-.528 1.984-.528.736 0 1.354.155 1.856.464.501.309.885.752 1.152 1.328.266.565.4 1.237.4 2.016v.48h-6.224v-.816h5.376l-.272.208c0-.853-.192-1.52-.576-2-.384-.48-.955-.72-1.712-.72-.544 0-1.008.128-1.392.384-.374.256-.662.613-.864 1.072-.192.459-.288 1.008-.288 1.648v.144c0 1.003.245 1.765.736 2.288.501.512 1.2.768 2.096.768.48 0 .928-.069 1.344-.208.426-.149.832-.389 1.216-.72l.448.912c-.352.341-.8.608-1.344.8-.534.181-1.099.272-1.696.272ZM86.408 382v-11.28h1.328V382h-1.328Zm3.9966 0v-6.176c0-.299-.016-.603-.048-.912-.0213-.32-.048-.635-.08-.944h1.248l.16 1.76h-.192c.2347-.619.608-1.088 1.12-1.408.5227-.331 1.1254-.496 1.808-.496.9494 0 1.664.256 2.144.768.4907.501.736 1.296.736 2.384V382h-1.296v-4.944c0-.757-.1546-1.307-.464-1.648-.2986-.352-.768-.528-1.408-.528-.7466 0-1.3386.229-1.776.688-.4373.459-.656 1.072-.656 1.84V382h-1.296Zm15.1674 3.456v-5.344h.176c-.171.629-.523 1.125-1.056 1.488-.534.363-1.152.544-1.856.544-.715 0-1.339-.165-1.872-.496-.534-.341-.95-.821-1.2484-1.44-.288-.619-.432-1.36-.432-2.224 0-.875.144-1.621.432-2.24.2984-.619.7144-1.093 1.2484-1.424.533-.331 1.157-.496 1.872-.496.725 0 1.349.187 1.872.56.533.363.885.859 1.056 1.488h-.192l.176-1.904h1.248c-.032.309-.064.624-.096.944-.022.309-.032.613-.032.912v9.632h-1.296Zm-2.48-4.368c.768 0 1.376-.261 1.824-.784.448-.533.672-1.307.672-2.32 0-1.024-.224-1.797-.672-2.32-.448-.533-1.056-.8-1.824-.8-.758 0-1.366.267-1.824.8-.448.523-.672 1.296-.672 2.32 0 1.013.224 1.787.672 2.32.458.523 1.066.784 1.824.784Zm9.113 1.056c-.949 0-1.669-.261-2.16-.784-.48-.523-.72-1.323-.72-2.4v-4.992h1.296v4.96c0 .736.15 1.28.448 1.632.299.341.763.512 1.392.512.704 0 1.27-.229 1.696-.688.427-.469.64-1.083.64-1.84v-4.576h1.296V382h-1.264v-1.808h.208c-.224.619-.586 1.099-1.088 1.44-.49.341-1.072.512-1.744.512Zm6.403-.144v-8.032h1.296V382h-1.296Zm-.16-9.856v-1.456h1.6v1.456h-1.6Zm3.94 9.856v-6.096c0-.32-.01-.645-.032-.976-.01-.331-.032-.651-.064-.96h1.248l.16 1.952-.224.016c.107-.48.294-.875.56-1.184.267-.309.582-.539.944-.688.363-.16.742-.24 1.136-.24.16 0 .299.005.416.016.128.011.246.037.352.08l-.016 1.152c-.16-.053-.309-.085-.448-.096-.128-.021-.277-.032-.448-.032-.469 0-.88.112-1.232.336-.341.224-.602.512-.784.864-.17.352-.256.725-.256 1.12V382h-1.312Zm6.009 3.632-.304-1.072c.501-.117.917-.256 1.248-.416.341-.149.624-.352.848-.608.224-.256.416-.576.576-.96l.416-.944-.032.544-3.504-8.208h1.408l2.896 7.056h-.416l2.864-7.056h1.36l-3.712 8.704c-.213.512-.448.939-.704 1.28-.256.352-.533.635-.832.848-.288.224-.608.4-.96.528s-.736.229-1.152.304ZM141.805 382v-7.024h-1.568v-1.008h1.92l-.352.336v-1.344c0-.907.229-1.6.688-2.08.459-.48 1.115-.72 1.968-.72.213 0 .432.021.656.064.235.032.427.08.576.144v1.072c-.128-.053-.288-.096-.48-.128a2.4165 2.4165 0 0 0-.56-.064c-.331 0-.613.069-.848.208-.235.128-.411.325-.528.592-.117.267-.176.608-.176 1.024v1.168l-.208-.272h2.448v1.008h-2.24V382h-1.296Zm4.958 0v-6.096c0-.32-.01-.645-.032-.976-.01-.331-.032-.651-.064-.96h1.248l.16 1.952-.224.016c.107-.48.294-.875.56-1.184.267-.309.582-.539.944-.688.363-.16.742-.24 1.136-.24.16 0 .299.005.416.016.128.011.246.037.352.08l-.016 1.152c-.16-.053-.309-.085-.448-.096-.128-.021-.277-.032-.448-.032-.469 0-.88.112-1.232.336-.341.224-.602.512-.784.864-.17.352-.256.725-.256 1.12V382h-1.312Zm9.047.144c-.768 0-1.44-.165-2.016-.496-.565-.341-1.003-.821-1.312-1.44-.309-.629-.464-1.371-.464-2.224 0-.864.155-1.605.464-2.224.309-.619.747-1.093 1.312-1.424.576-.341 1.248-.512 2.016-.512.779 0 1.451.171 2.016.512.576.331 1.019.805 1.328 1.424.32.619.48 1.36.48 2.224 0 .853-.16 1.595-.48 2.224-.309.619-.752 1.099-1.328 1.44-.565.331-1.237.496-2.016.496Zm0-1.056c.768 0 1.376-.261 1.824-.784.448-.533.672-1.307.672-2.32 0-1.024-.224-1.797-.672-2.32-.448-.533-1.056-.8-1.824-.8-.757 0-1.36.267-1.808.8-.448.523-.672 1.296-.672 2.32 0 1.013.224 1.787.672 2.32.448.523 1.051.784 1.808.784Zm5.845.912v-6.176c0-.299-.016-.603-.048-.912-.022-.32-.048-.635-.08-.944h1.248l.16 1.76h-.192c.213-.608.549-1.077 1.008-1.408.469-.331 1.034-.496 1.696-.496.672 0 1.216.16 1.632.48.426.32.714.816.864 1.488h-.24c.202-.608.56-1.088 1.072-1.44.512-.352 1.109-.528 1.792-.528.885 0 1.552.256 2 .768.448.501.672 1.296.672 2.384V382h-1.296v-4.944c0-.757-.134-1.307-.4-1.648-.267-.352-.694-.528-1.28-.528-.672 0-1.206.235-1.6.704-.384.459-.576 1.077-.576 1.856V382h-1.296v-4.944c0-.757-.134-1.307-.4-1.648-.267-.352-.694-.528-1.28-.528-.672 0-1.2.235-1.584.704-.384.459-.576 1.077-.576 1.856V382h-1.296Zm21.514.144c-.768 0-1.44-.165-2.016-.496-.565-.341-1.002-.821-1.312-1.44-.309-.629-.464-1.371-.464-2.224 0-.864.155-1.605.464-2.224.31-.619.747-1.093 1.312-1.424.576-.341 1.248-.512 2.016-.512.779 0 1.451.171 2.016.512.576.331 1.019.805 1.328 1.424.32.619.48 1.36.48 2.224 0 .853-.16 1.595-.48 2.224-.309.619-.752 1.099-1.328 1.44-.565.331-1.237.496-2.016.496Zm0-1.056c.768 0 1.376-.261 1.824-.784.448-.533.672-1.307.672-2.32 0-1.024-.224-1.797-.672-2.32-.448-.533-1.056-.8-1.824-.8-.757 0-1.36.267-1.808.8-.448.523-.672 1.296-.672 2.32 0 1.013.224 1.787.672 2.32.448.523 1.051.784 1.808.784Zm6.183.912v-7.024h-1.568v-1.008h1.92l-.352.336v-1.344c0-.907.229-1.6.688-2.08.459-.48 1.115-.72 1.968-.72.213 0 .432.021.656.064.235.032.427.08.576.144v1.072c-.128-.053-.288-.096-.48-.128a2.4165 2.4165 0 0 0-.56-.064c-.331 0-.613.069-.848.208-.235.128-.411.325-.528.592-.117.267-.176.608-.176 1.024v1.168l-.208-.272h2.448v1.008h-2.24V382h-1.296Zm5.156 0v-7.024h-1.568v-1.008h1.92l-.352.336v-1.344c0-.907.229-1.6.688-2.08.459-.48 1.115-.72 1.968-.72.213 0 .432.021.656.064.235.032.427.08.576.144v1.072c-.128-.053-.288-.096-.48-.128a2.4165 2.4165 0 0 0-.56-.064c-.331 0-.613.069-.848.208-.235.128-.411.325-.528.592-.117.267-.176.608-.176 1.024v1.168l-.208-.272h2.448v1.008h-2.24V382h-1.296Zm4.992 0v-11.776h1.296V382H199.5Zm3.811 0v-8.032h1.296V382h-1.296Zm-.16-9.856v-1.456h1.6v1.456h-1.6Zm3.972 9.856v-6.176c0-.299-.016-.603-.048-.912-.021-.32-.048-.635-.08-.944h1.248l.16 1.76h-.192c.235-.619.608-1.088 1.12-1.408.523-.331 1.126-.496 1.808-.496.95 0 1.664.256 2.144.768.491.501.736 1.296.736 2.384V382h-1.296v-4.944c0-.757-.154-1.307-.464-1.648-.298-.352-.768-.528-1.408-.528-.746 0-1.338.229-1.776.688-.437.459-.656 1.072-.656 1.84V382h-1.296Zm12.943.144c-.832 0-1.552-.16-2.16-.48-.608-.331-1.077-.805-1.408-1.424-.33-.629-.496-1.376-.496-2.24 0-.843.16-1.573.48-2.192.32-.629.768-1.115 1.344-1.456.576-.352 1.238-.528 1.984-.528.736 0 1.355.155 1.856.464.502.309.886.752 1.152 1.328.267.565.4 1.237.4 2.016v.48h-6.224v-.816h5.376l-.272.208c0-.853-.192-1.52-.576-2-.384-.48-.954-.72-1.712-.72-.544 0-1.008.128-1.392.384-.373.256-.661.613-.864 1.072-.192.459-.288 1.008-.288 1.648v.144c0 1.003.246 1.765.736 2.288.502.512 1.2.768 2.096.768.48 0 .928-.069 1.344-.208.427-.149.832-.389 1.216-.72l.448.912c-.352.341-.8.608-1.344.8-.533.181-1.098.272-1.696.272Zm12.363 0c-.714 0-1.338-.165-1.872-.496-.533-.341-.949-.821-1.248-1.44-.288-.619-.432-1.36-.432-2.224 0-.875.144-1.621.432-2.24.299-.619.715-1.093 1.248-1.424.534-.331 1.158-.496 1.872-.496.726 0 1.35.187 1.872.56.534.363.886.859 1.056 1.488h-.192l.176-1.904h1.248c-.032.309-.064.624-.096.944-.021.309-.032.613-.032.912V382h-1.296v-1.888h.176c-.17.629-.522 1.125-1.056 1.488-.533.363-1.152.544-1.856.544Zm.256-1.056c.768 0 1.376-.261 1.824-.784.448-.533.672-1.307.672-2.32 0-1.024-.224-1.797-.672-2.32-.448-.533-1.056-.8-1.824-.8-.757 0-1.365.267-1.824.8-.448.523-.672 1.296-.672 2.32 0 1.013.224 1.787.672 2.32.459.523 1.067.784 1.824.784Zm9.322 1.056c-.704 0-1.323-.165-1.856-.496-.533-.341-.949-.821-1.248-1.44-.288-.619-.432-1.36-.432-2.224 0-.875.144-1.621.432-2.24.299-.619.715-1.093 1.248-1.424.533-.331 1.152-.496 1.856-.496.725 0 1.349.181 1.872.544.533.363.891.853 1.072 1.472h-.192v-5.616h1.296V382h-1.28v-1.92h.176c-.171.64-.523 1.147-1.056 1.52-.533.363-1.163.544-1.888.544Zm.272-1.056c.757 0 1.365-.261 1.824-.784.459-.533.688-1.307.688-2.32 0-1.024-.229-1.797-.688-2.32-.459-.533-1.067-.8-1.824-.8-.757 0-1.365.267-1.824.8-.448.523-.672 1.296-.672 2.32 0 1.013.224 1.787.672 2.32.459.523 1.067.784 1.824.784Zm8.65.912-3.44-8.032h1.408l2.88 7.072h-.432l2.912-7.072h1.344l-3.44 8.032h-1.232Zm9.591.144c-.832 0-1.552-.16-2.16-.48-.608-.331-1.078-.805-1.408-1.424-.331-.629-.496-1.376-.496-2.24 0-.843.16-1.573.48-2.192.32-.629.768-1.115 1.344-1.456.576-.352 1.237-.528 1.984-.528.736 0 1.354.155 1.856.464.501.309.885.752 1.152 1.328.266.565.4 1.237.4 2.016v.48h-6.224v-.816h5.376l-.272.208c0-.853-.192-1.52-.576-2-.384-.48-.955-.72-1.712-.72-.544 0-1.008.128-1.392.384-.374.256-.662.613-.864 1.072-.192.459-.288 1.008-.288 1.648v.144c0 1.003.245 1.765.736 2.288.501.512 1.2.768 2.096.768.48 0 .928-.069 1.344-.208.426-.149.832-.389 1.216-.72l.448.912c-.352.341-.8.608-1.344.8-.534.181-1.099.272-1.696.272Zm5.103-.144v-6.096c0-.32-.011-.645-.032-.976-.011-.331-.032-.651-.064-.96h1.248l.16 1.952-.224.016c.106-.48.293-.875.56-1.184.266-.309.581-.539.944-.688.362-.16.741-.24 1.136-.24.16 0 .298.005.416.016.128.011.245.037.352.08l-.016 1.152c-.16-.053-.31-.085-.448-.096-.128-.021-.278-.032-.448-.032-.47 0-.88.112-1.232.336-.342.224-.603.512-.784.864-.171.352-.256.725-.256 1.12V382h-1.312Zm9.114.144c-.789 0-1.392-.224-1.808-.672-.416-.459-.624-1.147-.624-2.064v-4.432h-1.568v-1.008h1.568v-2.192l1.296-.368v2.56h2.304v1.008h-2.304v4.288c0 .64.107 1.099.32 1.376.224.267.555.4.992.4.203 0 .384-.016.544-.048.16-.043.304-.091.432-.144v1.088c-.149.064-.331.112-.544.144-.203.043-.405.064-.608.064Zm2.746-.144v-8.032h1.296V382h-1.296Zm-.16-9.856v-1.456h1.6v1.456h-1.6Zm6.644 10c-.64 0-1.237-.085-1.792-.256-.554-.181-1.013-.432-1.376-.752l.448-.912c.395.309.822.539 1.28.688.47.149.955.224 1.456.224.64 0 1.12-.112 1.44-.336.331-.235.496-.555.496-.96 0-.309-.106-.555-.32-.736-.202-.192-.538-.341-1.008-.448l-1.488-.304c-.682-.149-1.194-.4-1.536-.752-.341-.363-.512-.821-.512-1.376 0-.469.123-.88.368-1.232.246-.363.603-.645 1.072-.848.47-.213 1.019-.32 1.648-.32.587 0 1.126.091 1.616.272.502.171.918.421 1.248.752l-.464.896c-.32-.309-.688-.539-1.104-.688-.405-.16-.826-.24-1.264-.24-.629 0-1.104.128-1.424.384-.309.245-.464.571-.464.976 0 .309.096.565.288.768.203.192.512.336.928.432l1.488.304c.726.16 1.264.411 1.616.752.363.331.544.779.544 1.344 0 .48-.133.901-.4 1.264-.266.352-.64.624-1.12.816-.469.192-1.024.288-1.664.288Zm5.266-.144v-8.032h1.296V382h-1.296Zm-.16-9.856v-1.456h1.6v1.456h-1.6Zm3.972 9.856v-6.176c0-.299-.016-.603-.048-.912-.021-.32-.048-.635-.08-.944h1.248l.16 1.76h-.192c.235-.619.608-1.088 1.12-1.408.523-.331 1.126-.496 1.808-.496.95 0 1.664.256 2.144.768.491.501.736 1.296.736 2.384V382h-1.296v-4.944c0-.757-.154-1.307-.464-1.648-.298-.352-.768-.528-1.408-.528-.746 0-1.338.229-1.776.688-.437.459-.656 1.072-.656 1.84V382h-1.296Zm12.911 3.568c-.693 0-1.333-.085-1.92-.256-.586-.171-1.114-.432-1.584-.784l.384-.976c.331.235.656.421.976.56.32.139.651.24.992.304.342.075.704.112 1.088.112.79 0 1.387-.208 1.792-.624.406-.416.608-1.008.608-1.776v-2.352h.16c-.17.629-.522 1.131-1.056 1.504-.533.363-1.157.544-1.872.544-.736 0-1.376-.16-1.92-.48-.533-.331-.949-.795-1.248-1.392-.288-.608-.432-1.323-.432-2.144 0-.811.144-1.515.432-2.112.299-.597.715-1.056 1.248-1.376.544-.331 1.184-.496 1.92-.496.726 0 1.35.181 1.872.544.534.363.886.864 1.056 1.504l-.16-.16.144-1.744h1.264c-.042.309-.074.624-.096.944-.021.309-.032.613-.032.912v6.128c0 1.195-.309 2.096-.928 2.704-.608.608-1.504.912-2.688.912Zm-.192-4.8c.779 0 1.392-.256 1.84-.768.448-.523.672-1.253.672-2.192 0-.939-.224-1.664-.672-2.176-.448-.512-1.061-.768-1.84-.768-.768 0-1.381.256-1.84.768-.458.512-.688 1.237-.688 2.176 0 .939.23 1.669.688 2.192.459.512 1.072.768 1.84.768Z" fill="#000"/></g></g><rect x="66" y="33" width="438" height="54" rx="15" stroke="url(#c)" stroke-width="2"/><path opacity=".3" d="M86.408 66V54.72h7.2v1.088h-5.904v3.92h5.552v1.104h-5.552v4.064h5.904V66h-7.2Zm11.4896 0-3.44-8.032h1.408l2.88 7.072h-.432l2.9124-7.072h1.344L99.1296 66h-1.232Zm9.5904.144c-.832 0-1.552-.16-2.16-.48-.608-.3307-1.077-.8053-1.408-1.424-.33-.6293-.496-1.376-.496-2.24 0-.8427.16-1.5733.48-2.192.32-.6293.768-1.1147 1.344-1.456.576-.352 1.238-.528 1.984-.528.736 0 1.355.1547 1.856.464.502.3093.886.752 1.152 1.328.267.5653.4 1.2373.4 2.016v.48h-6.224v-.816h5.376l-.272.208c0-.8533-.192-1.52-.576-2-.384-.48-.954-.72-1.712-.72-.544 0-1.008.128-1.392.384-.373.256-.661.6133-.864 1.072-.192.4587-.288 1.008-.288 1.648v.144c0 1.0027.246 1.7653.736 2.288.502.512 1.2.768 2.096.768.48 0 .928-.0693 1.344-.208.427-.1493.832-.3893 1.216-.72l.448.912c-.352.3413-.8.608-1.344.8-.533.1813-1.098.272-1.696.272Zm5.135-.144v-6.176c0-.2987-.016-.6027-.048-.912-.021-.32-.048-.6347-.08-.944h1.248l.16 1.76h-.192c.235-.6187.608-1.088 1.12-1.408.523-.3307 1.126-.496 1.808-.496.95 0 1.664.256 2.144.768.491.5013.736 1.296.736 2.384V66h-1.296v-4.944c0-.7573-.154-1.3067-.464-1.648-.298-.352-.768-.528-1.408-.528-.746 0-1.338.2293-1.776.688-.437.4587-.656 1.072-.656 1.84V66h-1.296Zm12.223.144c-.789 0-1.392-.224-1.808-.672-.416-.4587-.624-1.1467-.624-2.064v-4.432h-1.568v-1.008h1.568v-2.192l1.296-.368v2.56h2.304v1.008h-2.304v4.288c0 .64.107 1.0987.32 1.376.224.2667.555.4.992.4.203 0 .384-.016.544-.048.16-.0427.304-.0907.432-.144v1.088c-.149.064-.33.112-.544.144-.202.0427-.405.064-.608.064Zm9.766 0c-.789 0-1.392-.224-1.808-.672-.416-.4587-.624-1.1467-.624-2.064v-4.432h-1.568v-1.008h1.568v-2.192l1.296-.368v2.56h2.304v1.008h-2.304v4.288c0 .64.107 1.0987.32 1.376.224.2667.555.4.992.4.203 0 .384-.016.544-.048.16-.0427.304-.0907.432-.144v1.088c-.149.064-.331.112-.544.144-.203.0427-.405.064-.608.064Zm2.52 3.488-.304-1.072c.501-.1173.917-.256 1.248-.416.341-.1493.624-.352.848-.608.224-.256.416-.576.576-.96l.416-.944-.032.544-3.504-8.208h1.408l2.896 7.056h-.416l2.864-7.056h1.36l-3.712 8.704c-.214.512-.448.9387-.704 1.28-.256.352-.534.6347-.832.848-.288.224-.608.4-.96.528s-.736.2293-1.152.304Zm8.82-.176v-9.632c0-.2987-.016-.6027-.048-.912-.022-.32-.048-.6347-.08-.944h1.248l.176 1.904h-.192c.17-.6293.517-1.1253 1.04-1.488.522-.3733 1.146-.56 1.872-.56.725 0 1.349.1653 1.872.496.533.3307.949.8053 1.248 1.424.298.6187.448 1.3653.448 2.24 0 .864-.15 1.6053-.448 2.224-.288.6187-.699 1.0987-1.232 1.44-.534.3307-1.163.496-1.888.496-.715 0-1.334-.1813-1.856-.544-.523-.3627-.87-.8587-1.04-1.488h.176v5.344h-1.296Zm3.76-4.368c.768 0 1.376-.2613 1.824-.784.458-.5333.688-1.3067.688-2.32 0-1.024-.23-1.7973-.688-2.32-.448-.5333-1.056-.8-1.824-.8-.758 0-1.366.2667-1.824.8-.448.5227-.672 1.296-.672 2.32 0 1.0133.224 1.7867.672 2.32.458.5227 1.066.784 1.824.784Zm9.401 1.056c-.832 0-1.552-.16-2.16-.48-.608-.3307-1.077-.8053-1.408-1.424-.33-.6293-.496-1.376-.496-2.24 0-.8427.16-1.5733.48-2.192.32-.6293.768-1.1147 1.344-1.456.576-.352 1.238-.528 1.984-.528.736 0 1.355.1547 1.856.464.502.3093.886.752 1.152 1.328.267.5653.4 1.2373.4 2.016v.48h-6.224v-.816h5.376l-.272.208c0-.8533-.192-1.52-.576-2-.384-.48-.954-.72-1.712-.72-.544 0-1.008.128-1.392.384-.373.256-.661.6133-.864 1.072-.192.4587-.288 1.008-.288 1.648v.144c0 1.0027.246 1.7653.736 2.288.502.512 1.2.768 2.096.768.48 0 .928-.0693 1.344-.208.427-.1493.832-.3893 1.216-.72l.448.912c-.352.3413-.8.608-1.344.8-.533.1813-1.098.272-1.696.272Z" fill="#000"/><path d="m473 62 4-4 4 4" stroke="#00D2FE" stroke-width="2" stroke-linecap="round" stroke-linejoin="round"/><path d="M66.008 446v-1.632h1.632V446h-1.632Zm3.6406 0v-1.632h1.632V446h-1.632Zm3.6407 0v-1.632h1.632V446h-1.632Zm11.1245.144c-.7147 0-1.3387-.165-1.872-.496-.5334-.341-.9494-.821-1.248-1.44-.288-.619-.432-1.36-.432-2.224 0-.875.144-1.621.432-2.24.2986-.619.7146-1.093 1.248-1.424.5333-.331 1.1573-.496 1.872-.496.7253 0 1.3493.187 1.872.56.5333.363.8853.859 1.056 1.488h-.192l.176-1.904h1.248c-.032.309-.064.624-.096.944-.0214.309-.032.613-.032.912V446h-1.296v-1.888h.176c-.1707.629-.5227 1.125-1.056 1.488-.5334.363-1.152.544-1.856.544Zm.256-1.056c.768 0 1.376-.261 1.824-.784.448-.533.672-1.307.672-2.32 0-1.024-.224-1.797-.672-2.32-.448-.533-1.056-.8-1.824-.8-.7574 0-1.3654.267-1.824.8-.448.523-.672 1.296-.672 2.32 0 1.013.224 1.787.672 2.32.4586.523 1.0666.784 1.824.784Zm6.2817.912v-6.176c0-.299-.016-.603-.048-.912-.0213-.32-.048-.635-.08-.944h1.248l.16 1.76h-.192c.2347-.619.608-1.088 1.12-1.408.5227-.331 1.1253-.496 1.808-.496.9493 0 1.664.256 2.144.768.4907.501.736 1.296.736 2.384V446h-1.296v-4.944c0-.757-.1547-1.307-.464-1.648-.2987-.352-.768-.528-1.408-.528-.7467 0-1.3387.229-1.776.688-.4373.459-.656 1.072-.656 1.84V446h-1.296Zm12.4155.144c-.704 0-1.323-.165-1.856-.496-.534-.341-.95-.821-1.248-1.44-.2885-.619-.4325-1.36-.4325-2.224 0-.875.144-1.621.4325-2.24.298-.619.714-1.093 1.248-1.424.533-.331 1.152-.496 1.856-.496.725 0 1.349.181 1.872.544.533.363.89.853 1.072 1.472h-.192v-5.616h1.296V446h-1.28v-1.92h.176c-.171.64-.523 1.147-1.056 1.52-.534.363-1.163.544-1.888.544Zm.272-1.056c.757 0 1.365-.261 1.824-.784.458-.533.688-1.307.688-2.32 0-1.024-.23-1.797-.688-2.32-.459-.533-1.067-.8-1.824-.8-.758 0-1.366.267-1.824.8-.448.523-.672 1.296-.672 2.32 0 1.013.224 1.787.672 2.32.458.523 1.066.784 1.824.784Zm13.749 1.056c-.768 0-1.44-.165-2.016-.496-.565-.341-1.003-.821-1.312-1.44-.309-.629-.464-1.371-.464-2.224 0-.864.155-1.605.464-2.224.309-.619.747-1.093 1.312-1.424.576-.341 1.248-.512 2.016-.512.779 0 1.451.171 2.016.512.576.331 1.019.805 1.328 1.424.32.619.48 1.36.48 2.224 0 .853-.16 1.595-.48 2.224-.309.619-.752 1.099-1.328 1.44-.565.331-1.237.496-2.016.496Zm0-1.056c.768 0 1.376-.261 1.824-.784.448-.533.672-1.307.672-2.32 0-1.024-.224-1.797-.672-2.32-.448-.533-1.056-.8-1.824-.8-.757 0-1.36.267-1.808.8-.448.523-.672 1.296-.672 2.32 0 1.013.224 1.787.672 2.32.448.523 1.051.784 1.808.784Zm8.615 1.056c-.79 0-1.392-.224-1.808-.672-.416-.459-.624-1.147-.624-2.064v-4.432h-1.568v-1.008h1.568v-2.192l1.296-.368v2.56h2.304v1.008h-2.304v4.288c0 .64.106 1.099.32 1.376.224.267.554.4.992.4.202 0 .384-.016.544-.048.16-.043.304-.091.432-.144v1.088c-.15.064-.331.112-.544.144-.203.043-.406.064-.608.064Zm2.745-.144v-11.776h1.296v5.52h-.208c.224-.629.598-1.104 1.12-1.424.534-.331 1.147-.496 1.84-.496.96 0 1.675.261 2.144.784.47.512.704 1.291.704 2.336V446h-1.296v-4.976c0-.747-.149-1.291-.448-1.632-.288-.341-.757-.512-1.408-.512-.746 0-1.344.229-1.792.688-.437.459-.656 1.061-.656 1.808V446h-1.296Zm12.943.144c-.832 0-1.552-.16-2.16-.48-.608-.331-1.077-.805-1.408-1.424-.33-.629-.496-1.376-.496-2.24 0-.843.16-1.573.48-2.192.32-.629.768-1.115 1.344-1.456.576-.352 1.238-.528 1.984-.528.736 0 1.355.155 1.856.464.502.309.886.752 1.152 1.328.267.565.4 1.237.4 2.016v.48h-6.224v-.816h5.376l-.272.208c0-.853-.192-1.52-.576-2-.384-.48-.954-.72-1.712-.72-.544 0-1.008.128-1.392.384-.373.256-.661.613-.864 1.072-.192.459-.288 1.008-.288 1.648v.144c0 1.003.246 1.765.736 2.288.502.512 1.2.768 2.096.768.48 0 .928-.069 1.344-.208.427-.149.832-.389 1.216-.72l.448.912c-.352.341-.8.608-1.344.8-.533.181-1.098.272-1.696.272Zm5.104-.144v-6.096c0-.32-.011-.645-.032-.976-.011-.331-.032-.651-.064-.96h1.248l.16 1.952-.224.016c.106-.48.293-.875.56-1.184.266-.309.581-.539.944-.688.362-.16.741-.24 1.136-.24.16 0 .298.005.416.016.128.011.245.037.352.08l-.016 1.152c-.16-.053-.31-.085-.448-.096-.128-.021-.278-.032-.448-.032-.47 0-.88.112-1.232.336-.342.224-.603.512-.784.864-.171.352-.256.725-.256 1.12V446h-1.312Zm12.864.144c-.789 0-1.392-.224-1.808-.672-.416-.459-.624-1.147-.624-2.064v-4.432h-1.568v-1.008h1.568v-2.192l1.296-.368v2.56h2.304v1.008h-2.304v4.288c0 .64.107 1.099.32 1.376.224.267.555.4.992.4.203 0 .384-.016.544-.048.16-.043.304-.091.432-.144v1.088c-.149.064-.331.112-.544.144-.203.043-.405.064-.608.064Zm2.519 3.488-.304-1.072c.502-.117.918-.256 1.248-.416.342-.149.624-.352.848-.608.224-.256.416-.576.576-.96l.416-.944-.032.544-3.504-8.208h1.408l2.896 7.056h-.416l2.864-7.056h1.36l-3.712 8.704c-.213.512-.448.939-.704 1.28-.256.352-.533.635-.832.848-.288.224-.608.4-.96.528s-.736.229-1.152.304Zm8.82-.176v-9.632c0-.299-.016-.603-.048-.912-.021-.32-.048-.635-.08-.944h1.248l.176 1.904h-.192c.171-.629.518-1.125 1.04-1.488.523-.373 1.147-.56 1.872-.56.726 0 1.35.165 1.872.496.534.331.95.805 1.248 1.424.299.619.448 1.365.448 2.24 0 .864-.149 1.605-.448 2.224-.288.619-.698 1.099-1.232 1.44-.533.331-1.162.496-1.888.496-.714 0-1.333-.181-1.856-.544-.522-.363-.869-.859-1.04-1.488h.176v5.344h-1.296Zm3.76-4.368c.768 0 1.376-.261 1.824-.784.459-.533.688-1.307.688-2.32 0-1.024-.229-1.797-.688-2.32-.448-.533-1.056-.8-1.824-.8-.757 0-1.365.267-1.824.8-.448.523-.672 1.296-.672 2.32 0 1.013.224 1.787.672 2.32.459.523 1.067.784 1.824.784Zm9.402 1.056c-.832 0-1.552-.16-2.16-.48-.608-.331-1.077-.805-1.408-1.424-.331-.629-.496-1.376-.496-2.24 0-.843.16-1.573.48-2.192.32-.629.768-1.115 1.344-1.456.576-.352 1.237-.528 1.984-.528.736 0 1.355.155 1.856.464.501.309.885.752 1.152 1.328.267.565.4 1.237.4 2.016v.48h-6.224v-.816h5.376l-.272.208c0-.853-.192-1.52-.576-2-.384-.48-.955-.72-1.712-.72-.544 0-1.008.128-1.392.384-.373.256-.661.613-.864 1.072-.192.459-.288 1.008-.288 1.648v.144c0 1.003.245 1.765.736 2.288.501.512 1.2.768 2.096.768.48 0 .928-.069 1.344-.208.427-.149.832-.389 1.216-.72l.448.912c-.352.341-.8.608-1.344.8-.533.181-1.099.272-1.696.272Zm7.807 0c-.64 0-1.237-.085-1.792-.256-.554-.181-1.013-.432-1.376-.752l.448-.912c.395.309.822.539 1.28.688.47.149.955.224 1.456.224.64 0 1.12-.112 1.44-.336.331-.235.496-.555.496-.96 0-.309-.106-.555-.32-.736-.202-.192-.538-.341-1.008-.448l-1.488-.304c-.682-.149-1.194-.4-1.536-.752-.341-.363-.512-.821-.512-1.376 0-.469.123-.88.368-1.232.246-.363.603-.645 1.072-.848.47-.213 1.019-.32 1.648-.32.587 0 1.126.091 1.616.272.502.171.918.421 1.248.752l-.464.896c-.32-.309-.688-.539-1.104-.688-.405-.16-.826-.24-1.264-.24-.629 0-1.104.128-1.424.384-.309.245-.464.571-.464.976 0 .309.096.565.288.768.203.192.512.336.928.432l1.488.304c.726.16 1.264.411 1.616.752.363.331.544.779.544 1.344 0 .48-.133.901-.4 1.264-.266.352-.64.624-1.12.816-.469.192-1.024.288-1.664.288Zm12.734 0c-.768 0-1.44-.165-2.016-.496-.566-.341-1.003-.821-1.312-1.44-.31-.629-.464-1.371-.464-2.224 0-.864.154-1.605.464-2.224.309-.619.746-1.093 1.312-1.424.576-.341 1.248-.512 2.016-.512.778 0 1.45.171 2.016.512.576.331 1.018.805 1.328 1.424.32.619.48 1.36.48 2.224 0 .853-.16 1.595-.48 2.224-.31.619-.752 1.099-1.328 1.44-.566.331-1.238.496-2.016.496Zm0-1.056c.768 0 1.376-.261 1.824-.784.448-.533.672-1.307.672-2.32 0-1.024-.224-1.797-.672-2.32-.448-.533-1.056-.8-1.824-.8-.758 0-1.36.267-1.808.8-.448.523-.672 1.296-.672 2.32 0 1.013.224 1.787.672 2.32.448.523 1.05.784 1.808.784Zm6.182.912v-7.024h-1.568v-1.008h1.92l-.352.336v-1.344c0-.907.229-1.6.688-2.08.459-.48 1.115-.72 1.968-.72.213 0 .432.021.656.064.235.032.427.08.576.144v1.072c-.128-.053-.288-.096-.48-.128a2.4165 2.4165 0 0 0-.56-.064c-.331 0-.613.069-.848.208-.235.128-.411.325-.528.592-.117.267-.176.608-.176 1.024v1.168l-.208-.272h2.448v1.008h-2.24V446h-1.296Zm12.73.144c-.832 0-1.552-.16-2.16-.48-.608-.331-1.077-.805-1.408-1.424-.33-.629-.496-1.376-.496-2.24 0-.843.16-1.573.48-2.192.32-.629.768-1.115 1.344-1.456.576-.352 1.238-.528 1.984-.528.736 0 1.355.155 1.856.464.502.309.886.752 1.152 1.328.267.565.4 1.237.4 2.016v.48h-6.224v-.816h5.376l-.272.208c0-.853-.192-1.52-.576-2-.384-.48-.954-.72-1.712-.72-.544 0-1.008.128-1.392.384-.373.256-.661.613-.864 1.072-.192.459-.288 1.008-.288 1.648v.144c0 1.003.246 1.765.736 2.288.502.512 1.2.768 2.096.768.48 0 .928-.069 1.344-.208.427-.149.832-.389 1.216-.72l.448.912c-.352.341-.8.608-1.344.8-.533.181-1.098.272-1.696.272Zm7.41-.144-3.44-8.032h1.408l2.88 7.072h-.432l2.912-7.072h1.344l-3.44 8.032h-1.232Zm9.59.144c-.832 0-1.552-.16-2.16-.48-.608-.331-1.077-.805-1.408-1.424-.33-.629-.496-1.376-.496-2.24 0-.843.16-1.573.48-2.192.32-.629.768-1.115 1.344-1.456.576-.352 1.238-.528 1.984-.528.736 0 1.355.155 1.856.464.502.309.886.752 1.152 1.328.267.565.4 1.237.4 2.016v.48h-6.224v-.816h5.376l-.272.208c0-.853-.192-1.52-.576-2-.384-.48-.954-.72-1.712-.72-.544 0-1.008.128-1.392.384-.373.256-.661.613-.864 1.072-.192.459-.288 1.008-.288 1.648v.144c0 1.003.246 1.765.736 2.288.502.512 1.2.768 2.096.768.48 0 .928-.069 1.344-.208.427-.149.832-.389 1.216-.72l.448.912c-.352.341-.8.608-1.344.8-.533.181-1.098.272-1.696.272Zm5.135-.144v-6.176c0-.299-.016-.603-.048-.912-.021-.32-.048-.635-.08-.944h1.248l.16 1.76h-.192c.235-.619.608-1.088 1.12-1.408.523-.331 1.126-.496 1.808-.496.95 0 1.664.256 2.144.768.491.501.736 1.296.736 2.384V446h-1.296v-4.944c0-.757-.154-1.307-.464-1.648-.298-.352-.768-.528-1.408-.528-.746 0-1.338.229-1.776.688-.437.459-.656 1.072-.656 1.84V446h-1.296Zm12.223.144c-.789 0-1.392-.224-1.808-.672-.416-.459-.624-1.147-.624-2.064v-4.432h-1.568v-1.008h1.568v-2.192l1.296-.368v2.56h2.304v1.008h-2.304v4.288c0 .64.107 1.099.32 1.376.224.267.555.4.992.4.203 0 .384-.016.544-.048.16-.043.304-.091.432-.144v1.088c-.149.064-.33.112-.544.144-.202.043-.405.064-.608.064Zm5.418 0c-.64 0-1.237-.085-1.792-.256-.555-.181-1.013-.432-1.376-.752l.448-.912c.395.309.821.539 1.28.688.469.149.955.224 1.456.224.64 0 1.12-.112 1.44-.336.331-.235.496-.555.496-.96 0-.309-.107-.555-.32-.736-.203-.192-.539-.341-1.008-.448l-1.488-.304c-.683-.149-1.195-.4-1.536-.752-.341-.363-.512-.821-.512-1.376 0-.469.123-.88.368-1.232.245-.363.603-.645 1.072-.848.469-.213 1.019-.32 1.648-.32.587 0 1.125.091 1.616.272.501.171.917.421 1.248.752l-.464.896c-.32-.309-.688-.539-1.104-.688-.405-.16-.827-.24-1.264-.24-.629 0-1.104.128-1.424.384-.309.245-.464.571-.464.976 0 .309.096.565.288.768.203.192.512.336.928.432l1.488.304c.725.16 1.264.411 1.616.752.363.331.544.779.544 1.344 0 .48-.133.901-.4 1.264-.267.352-.64.624-1.12.816-.469.192-1.024.288-1.664.288Z" fill="#B2B2B2"/><defs><linearGradient id="c" x1="65" y1="60" x2="505" y2="60.0001" gradientUnits="userSpaceOnUse"><stop stop-color="#5D6AE8"/><stop offset="1" stop-color="#00D2FE"/></linearGradient><clipPath id="b"><rect x="65" y="32" width="440" height="372" rx="16" fill="#fff"/></clipPath><filter id="a" x="25" y="0" width="520" height="452" filterUnits="userSpaceOnUse" color-interpolation-filters="sRGB"><feFlood flood-opacity="0" result="BackgroundImageFix"/><feColorMatrix in="SourceAlpha" values="0 0 0 0 0 0 0 0 0 0 0 0 0 0 0 0 0 0 127 0" result="hardAlpha"/><feOffset dy="8"/><feGaussianBlur stdDeviation="20"/><feComposite in2="hardAlpha" operator="out"/><feColorMatrix values="0 0 0 0 0 0 0 0 0 0 0 0 0 0 0 0 0 0 0.1 0"/><feBlend in2="BackgroundImageFix" result="effect1_dropShadow_2778_327600"/><feBlend in="SourceGraphic" in2="effect1_dropShadow_2778_327600" result="shape"/></filter></defs></svg>