<svg width="281" height="332" fill="none" xmlns="http://www.w3.org/2000/svg"><rect x=".5" width="280" height="332" rx="40" fill="#fff"/><path d="M42.06 62V47.9H44l8.18 10.58h-.52V47.9h2.4V62h-1.94l-8.16-10.58h.5V62h-2.4Zm19.4577.2c-1.04 0-1.94-.2133-2.7-.64-.76-.4267-1.3534-1.0333-1.78-1.82-.4134-.7867-.62-1.72-.62-2.8 0-1.08.2066-2.0067.62-2.78.4266-.7867 1.02-1.3933 1.78-1.82.76-.4267 1.66-.64 2.7-.64 1.04 0 1.94.2133 2.7.64.7733.4267 1.3666 1.0333 1.78 1.82.4266.7733.64 1.7.64 2.78 0 1.08-.2134 2.0133-.64 2.8-.4134.7867-1.0067 1.3933-1.78 1.82-.76.4267-1.66.64-2.7.64Zm0-1.92c.7866 0 1.4133-.2733 1.88-.82.4666-.56.7-1.4.7-2.52s-.2334-1.9533-.7-2.5c-.4667-.5467-1.0934-.82-1.88-.82-.7867 0-1.4134.2733-1.88.82-.4667.5467-.7 1.38-.7 2.5s.2333 1.96.7 2.52c.4666.5467 1.0933.82 1.88.82Zm11.4982 1.92c-1.2 0-2.1066-.3133-2.72-.94-.6133-.6267-.92-1.5667-.92-2.82v-4.66h-1.94V51.9h1.94v-2.58l2.5-.64v3.22h2.7v1.88h-2.7v4.5c0 .6933.1334 1.18.4 1.46.2667.28.6334.42 1.1.42.2534 0 .4667-.02.64-.06.1867-.04.3667-.0933.54-.16v1.98c-.2266.0933-.48.16-.76.2-.2666.0533-.5266.08-.78.08Zm3.2582-.2V51.9h2.5V62h-2.5Zm-.14-12v-2.44h2.78V50h-2.78Zm6.0348 12v-8.22h-1.94V51.9h2.64l-.7.64V51c0-1.2533.3133-2.2.94-2.84.64-.64 1.5667-.96 2.78-.96.2933 0 .6.02.92.06.3333.04.62.1133.86.22v1.96c-.1733-.0667-.38-.12-.62-.16-.24-.04-.4733-.06-.7-.06-.52 0-.9333.1533-1.24.46-.3067.2933-.46.7733-.46 1.44v1.22l-.36-.44h7.02V62h-2.5v-8.22h-4.14V62h-2.5Zm6.5-12v-2.44h2.78V50h-2.78Zm9.9991 12.2c-1.04 0-1.9534-.2133-2.74-.64-.7734-.4267-1.3734-1.0333-1.8-1.82-.4267-.8-.64-1.7467-.64-2.84s.2133-2.0267.64-2.8c.44-.7733 1.0466-1.3667 1.82-1.78.7733-.4133 1.68-.62 2.72-.62.6666 0 1.3133.1067 1.94.32.64.2 1.16.4933 1.56.88l-.76 1.74c-.36-.3333-.767-.58-1.22-.74-.44-.1733-.8734-.26-1.3-.26-.8934 0-1.5934.28-2.1.84-.4934.56-.74 1.3733-.74 2.44s.2466 1.8867.74 2.46c.5066.5733 1.2066.86 2.1.86.4133 0 .84-.08 1.28-.24.453-.16.867-.4067 1.24-.74l.76 1.72c-.413.3867-.94.6867-1.58.9-.6267.2133-1.2667.32-1.92.32Zm9.28 0c-.88 0-1.654-.2067-2.321-.62-.666-.4267-1.186-1.0333-1.559-1.82-.374-.7867-.56-1.7267-.56-2.82s.186-2.0267.56-2.8c.373-.7867.893-1.3867 1.559-1.8.667-.4267 1.441-.64 2.321-.64.853 0 1.6.2133 2.24.64.653.4133 1.086.9733 1.3 1.68h-.22l.22-2.12h2.4c-.04.4133-.08.8333-.12 1.26-.027.4267-.04.8467-.04 1.26V62h-2.48l-.02-2.08h.24c-.214.6933-.647 1.2467-1.3 1.66-.654.4133-1.394.62-2.22.62Zm.7-1.92c.786 0 1.42-.2733 1.9-.82.48-.56.72-1.4.72-2.52s-.24-1.9533-.72-2.5-1.114-.82-1.9-.82c-.787 0-1.42.2733-1.9.82s-.72 1.38-.72 2.5.233 1.96.7 2.52c.48.5467 1.12.82 1.92.82Zm12.122 1.92c-1.2 0-2.107-.3133-2.72-.94-.613-.6267-.92-1.5667-.92-2.82v-4.66h-1.94V51.9h1.94v-2.58l2.5-.64v3.22h2.7v1.88h-2.7v4.5c0 .6933.133 1.18.4 1.46s.633.42 1.1.42c.253 0 .467-.02.64-.06.187-.04.367-.0933.54-.16v1.98c-.227.0933-.48.16-.76.2-.267.0533-.527.08-.78.08Zm3.258-.2V51.9h2.5V62h-2.5Zm-.14-12v-2.44h2.78V50h-2.78Zm9.915 12.2c-1.04 0-1.94-.2133-2.7-.64-.76-.4267-1.354-1.0333-1.78-1.82-.414-.7867-.62-1.72-.62-2.8 0-1.08.206-2.0067.62-2.78.426-.7867 1.02-1.3933 1.78-1.82.76-.4267 1.66-.64 2.7-.64 1.04 0 1.94.2133 2.7.64.773.4267 1.366 1.0333 1.78 1.82.426.7733.64 1.7.64 2.78 0 1.08-.214 2.0133-.64 2.8-.414.7867-1.007 1.3933-1.78 1.82-.76.4267-1.66.64-2.7.64Zm0-1.92c.786 0 1.413-.2733 1.88-.82.466-.56.7-1.4.7-2.52s-.234-1.9533-.7-2.5c-.467-.5467-1.094-.82-1.88-.82-.787 0-1.414.2733-1.88.82-.467.5467-.7 1.38-.7 2.5s.233 1.96.7 2.52c.466.5467 1.093.82 1.88.82Zm7.276 1.72v-7.58c0-.4133-.014-.8333-.04-1.26a19.6704 19.6704 0 0 0-.12-1.26h2.42l.2 2h-.24c.32-.7067.793-1.2467 1.42-1.62.626-.3867 1.353-.58 2.18-.58 1.186 0 2.08.3333 2.68 1 .6.6667.9 1.7067.9 3.12V62h-2.5v-6.06c0-.8133-.16-1.3933-.48-1.74-.307-.36-.774-.54-1.4-.54-.774 0-1.387.24-1.84.72-.454.48-.68 1.12-.68 1.92V62h-2.5Zm17.539 0v-7.58c0-.4133-.014-.8333-.04-1.26a19.6704 19.6704 0 0 0-.12-1.26h2.42l.2 2h-.24c.28-.6933.706-1.2333 1.28-1.62.586-.3867 1.28-.58 2.08-.58s1.46.1933 1.98.58c.533.3733.906.96 1.12 1.76h-.32c.28-.72.74-1.2867 1.38-1.7.64-.4267 1.373-.64 2.2-.64 1.133 0 1.98.3333 2.54 1 .56.6667.84 1.7067.84 3.12V62h-2.5v-6.08c0-.8-.134-1.3733-.4-1.72-.267-.36-.694-.54-1.28-.54-.694 0-1.24.2467-1.64.74-.4.48-.6 1.1333-.6 1.96V62h-2.5v-6.08c0-.8-.134-1.3733-.4-1.72-.267-.36-.694-.54-1.28-.54-.694 0-1.24.2467-1.64.74-.387.48-.58 1.1333-.58 1.96V62h-2.5Zm22.868.2c-1.133 0-2.107-.2067-2.92-.62-.8-.4267-1.42-1.0333-1.86-1.82-.427-.7867-.64-1.72-.64-2.8 0-1.0533.207-1.9733.62-2.76.413-.7867.987-1.4 1.72-1.84.747-.44 1.613-.66 2.6-.66.973 0 1.787.2067 2.44.62s1.147.9933 1.48 1.74c.347.7467.52 1.62.52 2.62v.66h-7.36v-1.32h5.58l-.34.28c0-.9333-.2-1.6467-.6-2.14-.387-.4933-.953-.74-1.7-.74-.56 0-1.033.1333-1.42.4-.373.2667-.66.6467-.86 1.14-.2.4933-.3 1.0933-.3 1.8v.26c0 1.0933.267 1.9133.8 2.46.547.5333 1.313.8 2.3.8.573 0 1.107-.0733 1.6-.22.507-.16.987-.4133 1.44-.76l.74 1.68c-.48.3867-1.053.6867-1.72.9-.667.2133-1.373.32-2.12.32Zm10.358 0c-1.2 0-2.107-.3133-2.72-.94-.613-.6267-.92-1.5667-.92-2.82v-4.66h-1.94V51.9h1.94v-2.58l2.5-.64v3.22h2.7v1.88h-2.7v4.5c0 .6933.133 1.18.4 1.46s.633.42 1.1.42c.253 0 .467-.02.64-.06.187-.04.367-.0933.54-.16v1.98c-.227.0933-.48.16-.76.2-.267.0533-.527.08-.78.08Zm3.258-.2V47.28h2.5v6.64h-.28c.307-.72.78-1.2667 1.42-1.64.64-.3867 1.374-.58 2.2-.58 1.2 0 2.094.34 2.68 1.02.587.6667.88 1.6867.88 3.06V62h-2.5v-6.1c0-.7867-.153-1.3533-.46-1.7-.293-.36-.766-.54-1.42-.54-.76 0-1.373.24-1.84.72-.453.4667-.68 1.0933-.68 1.88V62h-2.5Zm16.611.2c-1.04 0-1.94-.2133-2.7-.64-.76-.4267-1.353-1.0333-1.78-1.82-.413-.7867-.62-1.72-.62-2.8 0-1.08.207-2.0067.62-2.78.427-.7867 1.02-1.3933 1.78-1.82.76-.4267 1.66-.64 2.7-.64 1.04 0 1.94.2133 2.7.64.773.4267 1.367 1.0333 1.78 1.82.427.7733.64 1.7.64 2.78 0 1.08-.213 2.0133-.64 2.8-.413.7867-1.007 1.3933-1.78 1.82-.76.4267-1.66.64-2.7.64Zm0-1.92c.787 0 1.413-.2733 1.88-.82.467-.56.7-1.4.7-2.52s-.233-1.9533-.7-2.5c-.467-.5467-1.093-.82-1.88-.82-.787 0-1.413.2733-1.88.82-.467.5467-.7 1.38-.7 2.5s.233 1.96.7 2.52c.467.5467 1.093.82 1.88.82Zm11.196 1.92c-.88 0-1.66-.2067-2.34-.62-.667-.4267-1.187-1.0333-1.56-1.82s-.56-1.7267-.56-2.82.187-2.0267.56-2.8c.373-.7867.893-1.3867 1.56-1.8.68-.4267 1.46-.64 2.34-.64.84 0 1.58.2067 2.22.62.653.4 1.087.9467 1.3 1.64h-.26v-6.68h2.5V62h-2.46v-2.14h.24c-.213.72-.647 1.2933-1.3 1.72-.64.4133-1.387.62-2.24.62Zm.7-1.92c.787 0 1.42-.2733 1.9-.82.48-.56.72-1.4.72-2.52s-.24-1.9533-.72-2.5-1.113-.82-1.9-.82c-.787 0-1.427.2733-1.92.82-.48.5467-.72 1.38-.72 2.5s.24 1.96.72 2.52c.493.5467 1.133.82 1.92.82Zm11.382 1.92c-.866 0-1.666-.1-2.4-.3-.72-.2133-1.326-.5067-1.82-.88l.7-1.68c.507.3467 1.067.6133 1.68.8.614.1867 1.234.28 1.86.28.667 0 1.16-.1133 1.48-.34.334-.2267.5-.5333.5-.92 0-.3067-.106-.5467-.32-.72-.2-.1867-.526-.3267-.98-.42l-2-.38c-.853-.1867-1.506-.5067-1.96-.96-.44-.4533-.66-1.0467-.66-1.78 0-.6267.167-1.18.5-1.66.347-.48.834-.8533 1.46-1.12.64-.28 1.387-.42 2.24-.42.747 0 1.447.1 2.1.3.667.2 1.227.5 1.68.9l-.72 1.62c-.413-.3333-.886-.5933-1.42-.78-.533-.1867-1.053-.28-1.56-.28-.693 0-1.2.1267-1.52.38-.32.24-.48.5533-.48.94 0 .2933.094.54.28.74.2.1867.507.3267.92.42l2 .38c.894.1733 1.567.48 2.02.92.467.4267.7 1.0133.7 1.76 0 .6667-.18 1.24-.54 1.72-.36.48-.86.8467-1.5 1.1-.64.2533-1.386.38-2.24.38ZM46.86 130.18c-1.1333 0-2.1467-.147-3.04-.44-.8933-.293-1.6733-.713-2.34-1.26l.6-1.32c.4667.347.9333.64 1.4.88.48.227.9933.4 1.54.52.5467.107 1.16.16 1.84.16 1.1867 0 2.0667-.22 2.64-.66.5733-.44.86-1.027.86-1.76 0-.627-.2-1.107-.6-1.44-.4-.333-1.1-.6-2.1-.8l-2.1-.42c-1.2933-.267-2.26-.7-2.9-1.3-.6267-.6-.94-1.413-.94-2.44 0-.84.2133-1.573.64-2.2.44-.627 1.0533-1.113 1.84-1.46.7867-.347 1.7-.52 2.74-.52 1 0 1.9133.153 2.74.46.8267.293 1.5333.727 2.12 1.3l-.58 1.28c-.6267-.56-1.2867-.96-1.98-1.2-.68-.253-1.4533-.38-2.32-.38-1.0933 0-1.96.24-2.6.72-.6267.467-.94 1.107-.94 1.92 0 .653.2 1.167.6 1.54.4.36 1.06.633 1.98.82l2.12.42c1.36.28 2.36.7 3 1.26.64.56.96 1.347.96 2.36 0 .773-.2133 1.46-.64 2.06-.4133.6-1.0067 1.067-1.78 1.4-.7733.333-1.6933.5-2.76.5Zm7.8809-.18v-14.1h1.44l5.66 12.78h-.58l5.66-12.78h1.44V130h-1.52v-11.96h.6l-5.34 11.96h-1.1l-5.36-11.96h.6V130h-1.5Zm21.748.18c-1.1333 0-2.1467-.147-3.04-.44-.8933-.293-1.6733-.713-2.34-1.26l.6-1.32c.4667.347.9333.64 1.4.88.48.227.9933.4 1.54.52.5467.107 1.16.16 1.84.16 1.1867 0 2.0667-.22 2.64-.66.5733-.44.86-1.027.86-1.76 0-.627-.2-1.107-.6-1.44-.4-.333-1.1-.6-2.1-.8l-2.1-.42c-1.2933-.267-2.26-.7-2.9-1.3-.6267-.6-.94-1.413-.94-2.44 0-.84.2133-1.573.64-2.2.44-.627 1.0533-1.113 1.84-1.46.7867-.347 1.7-.52 2.74-.52 1 0 1.9133.153 2.74.46.8267.293 1.5333.727 2.12 1.3l-.58 1.28c-.6267-.56-1.2867-.96-1.98-1.2-.68-.253-1.4533-.38-2.32-.38-1.0933 0-1.96.24-2.6.72-.6267.467-.94 1.107-.94 1.92 0 .653.2 1.167.6 1.54.4.36 1.06.633 1.98.82l2.12.42c1.36.28 2.36.7 3 1.26.64.56.96 1.347.96 2.36 0 .773-.2133 1.46-.64 2.06-.4133.6-1.0067 1.067-1.78 1.4-.7733.333-1.6933.5-2.76.5ZM42.26 198v-14.1h9v1.36h-7.38v4.9h6.94v1.38h-6.94v5.08h7.38V198h-9Zm11.5778 0v-7.72c0-.373-.02-.753-.06-1.14-.0267-.4-.06-.793-.1-1.18h1.56l.2 2.2h-.24c.2667-.76.6867-1.347 1.26-1.76.5867-.413 1.2933-.62 2.12-.62.84 0 1.52.2 2.04.6.5333.4.8933 1.02 1.08 1.86h-.3c.2533-.76.7-1.36 1.34-1.8.64-.44 1.3867-.66 2.24-.66 1.1067 0 1.94.32 2.5.96.56.627.84 1.62.84 2.98V198h-1.62v-6.18c0-.947-.1667-1.633-.5-2.06-.3333-.44-.8667-.66-1.6-.66-.84 0-1.5067.293-2 .88-.48.573-.72 1.347-.72 2.32v5.7h-1.62v-6.18c0-.947-.1667-1.633-.5-2.06-.3333-.44-.8667-.66-1.6-.66-.84 0-1.5.293-1.98.88-.48.573-.72 1.347-.72 2.32v5.7h-1.62Zm21.3786.18c-.8933 0-1.6733-.207-2.34-.62-.6667-.427-1.1867-1.027-1.56-1.8-.36-.773-.54-1.7-.54-2.78 0-1.093.18-2.027.54-2.8.3733-.773.8933-1.367 1.56-1.78.6667-.413 1.4467-.62 2.34-.62.9067 0 1.6867.233 2.34.7.6667.453 1.1067 1.073 1.32 1.86h-.24l.22-2.38h1.56c-.04.387-.08.78-.12 1.18-.0267.387-.04.767-.04 1.14V198h-1.62v-2.36h.22c-.2133.787-.6533 1.407-1.32 1.86-.6667.453-1.44.68-2.32.68Zm.32-1.32c.96 0 1.72-.327 2.28-.98.56-.667.84-1.633.84-2.9 0-1.28-.28-2.247-.84-2.9-.56-.667-1.32-1-2.28-1-.9467 0-1.7067.333-2.28 1-.56.653-.84 1.62-.84 2.9 0 1.267.28 2.233.84 2.9.5733.653 1.3333.98 2.28.98Zm7.8522 1.14v-10.04h1.62V198h-1.62Zm-.2-12.32v-1.82h2v1.82h-2ZM88.1542 198v-14.72h1.62V198h-1.62ZM42.26 266v-14.1h1.66v6.24h8.5v-6.24h1.64V266h-1.64v-6.44h-8.5V266h-1.66Zm18.7325 0v-12.7h-4.98v-1.4h11.6v1.4h-4.96V266h-1.66Zm12.2852 0v-12.7h-4.98v-1.4h11.6v1.4h-4.96V266h-1.66Zm8.6503 0v-14.1h5.74c1.48 0 2.62.36 3.42 1.08.8.707 1.2 1.693 1.2 2.96 0 .827-.18 1.547-.54 2.16-.36.6-.8867 1.067-1.58 1.4-.6934.32-1.5267.48-2.5.48h-4.08V266h-1.66Zm1.66-7.4h3.92c1.0266 0 1.8-.233 2.32-.7.5333-.467.8-1.12.8-1.96 0-.853-.2667-1.513-.8-1.98-.52-.467-1.2934-.7-2.32-.7h-3.92v5.34Z" fill="#000"/><g clip-path="url(#a)"><g filter="url(#b)"><path fill="#5D6AE8" d="M192.5 108h48v28h-48z"/></g><g filter="url(#c)"><circle cx="226.5" cy="122" r="12" fill="#fff"/></g></g><g clip-path="url(#d)"><g filter="url(#e)"><path fill="#5D6AE8" d="M192.5 176h48v28h-48z"/></g><g filter="url(#f)"><circle cx="226.5" cy="190" r="12" fill="#fff"/></g></g><g clip-path="url(#g)"><g filter="url(#h)"><path fill="#5D6AE8" d="M192.5 244h48v28h-48z"/></g><g filter="url(#i)"><circle cx="226.5" cy="258" r="12" fill="#fff"/></g></g><defs><filter id="b" x="192.5" y="108" width="48" height="32" filterUnits="userSpaceOnUse" color-interpolation-filters="sRGB"><feFlood flood-opacity="0" result="BackgroundImageFix"/><feBlend in="SourceGraphic" in2="BackgroundImageFix" result="shape"/><feColorMatrix in="SourceAlpha" values="0 0 0 0 0 0 0 0 0 0 0 0 0 0 0 0 0 0 127 0" result="hardAlpha"/><feOffset dy="4"/><feGaussianBlur stdDeviation="4"/><feComposite in2="hardAlpha" operator="arithmetic" k2="-1" k3="1"/><feColorMatrix values="0 0 0 0 0 0 0 0 0 0 0 0 0 0 0 0 0 0 0.2 0"/><feBlend in2="shape" result="effect1_innerShadow_3603_388847"/></filter><filter id="c" x="202.5" y="102" width="48" height="48" filterUnits="userSpaceOnUse" color-interpolation-filters="sRGB"><feFlood flood-opacity="0" result="BackgroundImageFix"/><feColorMatrix in="SourceAlpha" values="0 0 0 0 0 0 0 0 0 0 0 0 0 0 0 0 0 0 127 0" result="hardAlpha"/><feOffset dy="4"/><feGaussianBlur stdDeviation="6"/><feComposite in2="hardAlpha" operator="out"/><feColorMatrix values="0 0 0 0 0 0 0 0 0 0 0 0 0 0 0 0 0 0 0.05 0"/><feBlend in2="BackgroundImageFix" result="effect1_dropShadow_3603_388847"/><feBlend in="SourceGraphic" in2="effect1_dropShadow_3603_388847" result="shape"/></filter><filter id="e" x="192.5" y="176" width="48" height="32" filterUnits="userSpaceOnUse" color-interpolation-filters="sRGB"><feFlood flood-opacity="0" result="BackgroundImageFix"/><feBlend in="SourceGraphic" in2="BackgroundImageFix" result="shape"/><feColorMatrix in="SourceAlpha" values="0 0 0 0 0 0 0 0 0 0 0 0 0 0 0 0 0 0 127 0" result="hardAlpha"/><feOffset dy="4"/><feGaussianBlur stdDeviation="4"/><feComposite in2="hardAlpha" operator="arithmetic" k2="-1" k3="1"/><feColorMatrix values="0 0 0 0 0 0 0 0 0 0 0 0 0 0 0 0 0 0 0.2 0"/><feBlend in2="shape" result="effect1_innerShadow_3603_388847"/></filter><filter id="f" x="202.5" y="170" width="48" height="48" filterUnits="userSpaceOnUse" color-interpolation-filters="sRGB"><feFlood flood-opacity="0" result="BackgroundImageFix"/><feColorMatrix in="SourceAlpha" values="0 0 0 0 0 0 0 0 0 0 0 0 0 0 0 0 0 0 127 0" result="hardAlpha"/><feOffset dy="4"/><feGaussianBlur stdDeviation="6"/><feComposite in2="hardAlpha" operator="out"/><feColorMatrix values="0 0 0 0 0 0 0 0 0 0 0 0 0 0 0 0 0 0 0.05 0"/><feBlend in2="BackgroundImageFix" result="effect1_dropShadow_3603_388847"/><feBlend in="SourceGraphic" in2="effect1_dropShadow_3603_388847" result="shape"/></filter><filter id="h" x="192.5" y="244" width="48" height="32" filterUnits="userSpaceOnUse" color-interpolation-filters="sRGB"><feFlood flood-opacity="0" result="BackgroundImageFix"/><feBlend in="SourceGraphic" in2="BackgroundImageFix" result="shape"/><feColorMatrix in="SourceAlpha" values="0 0 0 0 0 0 0 0 0 0 0 0 0 0 0 0 0 0 127 0" result="hardAlpha"/><feOffset dy="4"/><feGaussianBlur stdDeviation="4"/><feComposite in2="hardAlpha" operator="arithmetic" k2="-1" k3="1"/><feColorMatrix values="0 0 0 0 0 0 0 0 0 0 0 0 0 0 0 0 0 0 0.2 0"/><feBlend in2="shape" result="effect1_innerShadow_3603_388847"/></filter><filter id="i" x="202.5" y="238" width="48" height="48" filterUnits="userSpaceOnUse" color-interpolation-filters="sRGB"><feFlood flood-opacity="0" result="BackgroundImageFix"/><feColorMatrix in="SourceAlpha" values="0 0 0 0 0 0 0 0 0 0 0 0 0 0 0 0 0 0 127 0" result="hardAlpha"/><feOffset dy="4"/><feGaussianBlur stdDeviation="6"/><feComposite in2="hardAlpha" operator="out"/><feColorMatrix values="0 0 0 0 0 0 0 0 0 0 0 0 0 0 0 0 0 0 0.05 0"/><feBlend in2="BackgroundImageFix" result="effect1_dropShadow_3603_388847"/><feBlend in="SourceGraphic" in2="effect1_dropShadow_3603_388847" result="shape"/></filter><clipPath id="a"><rect x="192.5" y="108" width="48" height="28" rx="14" fill="#fff"/></clipPath><clipPath id="d"><rect x="192.5" y="176" width="48" height="28" rx="14" fill="#fff"/></clipPath><clipPath id="g"><rect x="192.5" y="244" width="48" height="28" rx="14" fill="#fff"/></clipPath></defs></svg>
