<svg width="100" height="40" viewBox="0 0 100 40" fill="none" xmlns="http://www.w3.org/2000/svg">
<path fill-rule="evenodd" clip-rule="evenodd" d="M56.6414 22.0475C57.3424 19.8983 58.0714 18.2391 58.8295 17.0696C58.9964 16.8231 59.2396 16.5683 59.5591 16.3044C59.8777 16.041 60.2215 15.9092 60.59 15.9092C60.8081 15.9092 60.9175 16.1896 60.9175 16.749C60.9175 17.3084 60.8831 17.8357 60.8169 18.3296C60.6655 19.2846 60.4731 20.1737 60.2379 20.9969C59.6345 23.2358 59.3322 24.5447 59.3322 24.9234V28.554C59.3322 29.4431 58.9884 30.0527 58.3013 30.3824C57.9818 30.5302 57.6766 30.6702 57.3827 30.8019C57.0892 30.934 56.7575 30.9999 56.389 30.9999C55.6851 30.9999 55.3329 30.2054 55.3329 28.6161C55.3329 28.5399 55.3338 28.4626 55.3355 28.3844C54.6737 29.0266 53.879 29.5888 52.9509 30.0696C51.7962 30.6685 50.437 30.9677 48.8723 30.9677C47.3059 30.9677 45.9353 30.4548 44.7589 29.4266C44.2832 29.0115 43.9039 28.5221 43.6206 27.9586C43.2207 28.1472 42.7972 28.2413 42.3501 28.2413C41.6206 28.2413 41.0043 28.1923 40.5012 28.0935C39.1763 29.6252 37.5869 30.3904 35.7341 30.3904C33.8806 30.3904 32.4928 29.9249 31.5709 28.9946C31.529 28.9524 31.488 28.9097 31.4481 28.8665C30.3417 29.7997 29.1664 30.2664 27.9233 30.2664C26.7154 30.2664 26.112 29.1884 26.112 27.0314C26.112 26.4881 26.2039 25.7385 26.3887 24.7836C26.5728 23.8294 26.6655 23.1292 26.6655 22.6843C26.6655 22.1413 26.3468 21.8692 25.7095 21.8692C25.2735 21.8692 24.7872 22.2854 24.2505 23.1169C23.7134 23.9484 23.3277 24.8416 23.0933 25.7966V25.8456C23.0933 26.4062 23.181 26.9825 23.357 27.5748C23.5331 28.1675 23.6216 28.5792 23.6216 28.8097C23.6216 29.3695 22.9084 29.9211 21.4834 30.4644C21.2649 30.5463 21.0721 30.5883 20.9048 30.5883C20.4855 30.5883 20.1958 30.3734 20.0365 29.9458C19.8772 29.5181 19.7975 28.9377 19.7975 28.2046C19.7975 27.4719 19.8189 26.7808 19.8608 26.1304C19.9023 25.48 19.9447 24.8795 19.9866 24.3271C20.0285 23.7755 20.0704 23.2898 20.1119 22.8699C20.1539 22.4501 20.1753 22.1088 20.1753 21.845C20.1753 21.2856 19.9149 21.0052 19.3954 21.0052C18.8755 21.0052 18.2714 21.6021 17.5842 22.7954C16.8962 23.9899 16.5528 24.9363 16.5528 25.6356C16.5528 26.3362 16.6409 26.9825 16.817 27.5748C16.993 28.1675 17.0811 28.5792 17.0811 28.8097C17.0811 29.3695 16.3679 29.9211 14.9428 30.4644C14.7248 30.5463 14.5315 30.5883 14.3643 30.5883C13.945 30.5883 13.6557 30.3734 13.4964 29.9458C13.4226 29.7481 13.3659 29.5011 13.3264 29.2048C12.987 29.4286 12.6288 29.6264 12.2515 29.7981C11.5639 30.1105 10.893 30.2665 10.239 30.2665C9.34974 30.2665 8.75522 29.5013 8.45293 27.9697C8.01648 28.6781 7.44628 29.2585 6.74234 29.7112C6.03797 30.1644 5.09463 30.3904 3.9123 30.3904C2.72956 30.3904 1.77825 30.0286 1.05712 29.3033C0.335983 28.5793 -0.0161988 27.698 0.000571723 26.6607C0.000571723 23.8625 0.947689 21.6561 2.84318 20.0417C3.64859 19.3671 4.39865 18.9225 5.09463 18.7085C5.79061 18.4944 6.52432 18.387 7.29576 18.387C8.06721 18.387 8.6961 18.5191 9.18245 18.7822C9.41724 18.3051 9.68557 18.0663 9.98744 18.0663C10.5744 18.0663 11.132 18.317 11.6603 18.8196C12.1886 19.3222 12.4531 19.7948 12.4531 20.2393C12.2175 20.7831 11.8741 21.4334 11.4213 22.1908C11.2872 22.9478 11.2197 24.0102 11.2197 25.3768C11.2197 26.7438 11.3962 27.4263 11.7483 27.4263C12.0184 27.4263 12.5264 27.0983 13.2724 26.4418C13.3052 24.881 13.3923 23.7026 13.5341 22.907C13.7853 21.3753 14.3555 19.9268 15.2447 18.5598C15.5466 18.0992 15.8736 17.8687 16.2258 17.8687C16.7792 17.8687 17.2907 18.3132 17.7603 19.2023C17.8945 19.4332 17.9947 19.6469 18.0622 19.8445C18.8672 18.8566 19.8143 18.3622 20.9048 18.3622C21.6255 18.3622 22.2716 18.5968 22.8418 19.0665C23.4116 19.5357 23.6971 20.1244 23.6971 20.8319V21.1036C24.7197 19.8527 25.9695 19.227 27.4449 19.227C28.3509 19.227 29.0385 19.4575 29.5077 19.9186C29.9772 20.3792 30.2124 20.9476 30.2124 21.6227C30.2124 22.2977 30.1621 22.907 30.0615 23.4507C29.9605 23.9932 29.8477 24.5037 29.7219 24.9816C29.5961 25.459 29.4829 25.8826 29.3823 26.2531C29.2817 26.6239 29.2309 26.9125 29.2309 27.1175C29.2309 27.3241 29.298 27.4262 29.4326 27.4262C29.6837 27.4262 29.994 27.2702 30.3634 26.9574L30.3802 26.943C30.2623 26.5002 30.2063 26.0275 30.2124 25.525C30.1957 23.5657 30.8246 21.878 32.0991 20.4616C33.3737 19.046 35.0428 18.338 37.1051 18.338C38.0443 18.338 38.799 18.4533 39.3692 18.6838C40.3586 19.0785 40.8534 19.449 40.8534 19.7948C40.8534 20.0586 40.1616 20.1944 38.7784 20.2027C37.3944 20.2109 36.2373 20.6802 35.3061 21.61C34.3761 22.5403 33.9099 23.7134 33.9099 25.1303C33.9099 25.8708 34.1326 26.4919 34.577 26.9945C35.0214 27.4971 35.6503 27.7478 36.4637 27.7478C37.277 27.7478 37.952 27.5831 38.4887 27.2534C37.2976 26.4631 36.7026 25.3192 36.7026 23.8205C36.6855 23.0306 36.9752 22.3106 37.5705 21.6598C38.1659 21.0095 38.9289 20.6802 39.8597 20.6719C40.7905 20.6637 41.4567 20.9148 41.8596 21.4252C42.2621 21.9356 42.4633 22.5901 42.4633 23.3887C42.4633 24.1872 42.2705 25.0311 41.8847 25.9206H42.0357C42.3885 25.9125 42.7183 25.8499 43.0251 25.7328C43.004 25.4889 42.9934 25.2368 42.9934 24.9765C42.9934 23.0394 43.2692 21.2826 43.8227 19.7085C44.3757 18.1345 45.1052 16.7749 46.0116 15.6301C46.9177 14.485 47.9478 13.5938 49.1016 12.9566C50.255 12.3194 51.3489 12 52.3849 12C54.1978 12 55.1042 12.7944 55.1042 14.3808C55.1042 15.2922 54.934 16.0199 54.5927 16.5666C54.2502 17.1124 53.9039 17.3857 53.5508 17.3857C53.0792 17.3857 52.6683 17.2042 52.3153 16.8391C51.9614 16.4756 51.5732 16.2867 51.1493 16.2739C50.725 16.2612 49.5745 16.2299 48.596 17.7735C48.0324 18.6627 48.0048 18.7446 47.867 19.1539C47.8376 19.2412 47.8032 19.3433 47.7575 19.4714C47.2401 20.929 46.9365 22.0478 46.9365 23.9989C46.96 24.9353 47.8132 26.3682 48.5666 26.8371C49.0844 27.1487 49.7016 27.4109 50.403 27.324C51.9157 27.1375 52.7647 26.4333 53.3831 25.7829C53.9377 25.1992 54.4282 24.6451 54.953 24.0521L54.9986 24.0005C55.539 23.3897 56.0157 22.8245 56.4287 22.3034C56.5028 22.2097 56.5738 22.1244 56.6414 22.0475ZM68.1875 30.2334C68.7777 29.9658 69.3218 29.6332 69.8196 29.2364C69.9177 30.412 70.3293 31 71.0543 31C71.3901 31 71.7046 30.9337 71.9977 30.802C72.2907 30.6703 72.5972 30.5303 72.9167 30.3826C73.6034 30.0528 73.9477 29.4111 73.9477 28.4562C73.9477 27.9947 73.7879 27.0072 73.4693 25.492L73.4949 25.0224C73.5955 24.5128 73.738 23.9114 73.9221 23.2199C74.6273 20.5525 75.423 18.5854 76.3123 17.3171C77.2007 16.0493 78.0992 15.4154 79.0048 15.4154C79.5075 15.4154 79.8475 15.613 80.0236 16.0078C80.1997 16.4033 80.2873 16.9463 80.2873 17.6382C80.271 19.0048 79.8597 21.0794 79.0547 23.8616C78.7528 24.9153 78.4765 25.9115 78.2246 26.8504C77.9722 27.7889 77.8468 28.5302 77.8468 29.0736C77.8468 29.6161 77.9386 30.0738 78.1239 30.4435C78.3088 30.8139 78.5939 31 78.9797 31C79.6337 31 80.2249 30.781 80.7531 30.3455C81.2814 29.9088 81.5451 29.4272 81.5451 28.8999C81.5451 28.6369 81.5288 28.3903 81.4952 28.1594L81.4481 27.837C81.4301 27.714 81.4121 27.5911 81.3942 27.4678C81.4617 25.4591 82.073 23.401 83.231 21.293C83.7337 20.3714 84.2704 19.614 84.841 19.0213C85.4108 18.4285 85.9474 18.1317 86.4509 18.1317C86.736 18.1317 86.9285 18.2347 87.0291 18.4405C87.1297 18.6467 87.1805 18.9389 87.1805 19.3176C87.1633 20.2068 86.8367 21.7466 86.1994 23.9361C85.9646 24.7593 85.7466 25.5497 85.5453 26.3071C85.3437 27.0644 85.243 27.7436 85.243 28.3442C85.243 28.9456 85.4569 29.4893 85.8849 29.9746C86.3126 30.4604 86.9079 30.7032 87.671 30.7032C88.4332 30.7032 89.159 30.5472 89.847 30.2336C90.5337 29.9215 91.1584 29.5223 91.7211 29.0357C92.2829 28.5508 92.7399 28.0157 93.0921 27.4312C93.4443 26.8467 93.6204 26.3482 93.6204 25.9366C93.6204 25.1792 93.4778 24.8005 93.1927 24.8005C93.0585 24.8005 92.8405 24.9651 92.5382 25.294C90.8612 27.0072 89.8 27.8626 89.3564 27.8626C88.9116 27.8626 88.6898 27.5502 88.6898 26.9245C88.6898 26.5787 88.7691 26.0885 88.9288 25.455C89.0877 24.8215 89.3392 23.7756 89.683 22.318C90.0268 20.8612 90.1987 19.5893 90.1987 18.5026C90.1987 15.9999 89.1426 14.7486 87.0291 14.7486C85.5361 14.7486 84.2448 15.4891 83.1551 16.971V16.7734C83.1723 16.1317 83.1304 15.5307 83.0297 14.9709C82.7275 13.0284 81.5451 12.0566 79.4824 12.0566C77.5864 12.0566 76.0184 13.2013 74.7778 15.4891C74.7443 15.0285 74.6935 14.5922 74.6273 14.1805C74.3585 12.7975 73.4693 12.106 71.9599 12.106C70.7868 12.106 69.7886 12.4019 68.9672 12.9951C68.587 13.2511 68.2913 13.5396 68.0801 13.8607C67.8014 13.5951 67.4766 13.3559 67.1058 13.1431C65.8308 12.4187 64.2129 12.0523 62.2507 12.0441C60.2886 12.0358 58.5273 12.5668 56.968 13.6367C56.3475 14.0652 55.8775 14.4933 55.5589 14.9213C55.2402 15.3498 55.0813 15.6586 55.0813 15.8475C55.0813 16.0368 55.2323 16.1315 55.5341 16.1315C55.8356 16.1315 56.1584 16.041 56.5022 15.8598C56.846 15.6787 57.2401 15.4812 57.6845 15.2671C58.1285 15.0535 58.6614 14.8555 59.2823 14.6744C59.902 14.4933 60.7955 14.4027 61.961 14.4027C63.127 14.4027 64.0112 14.6657 64.615 15.193C65.2191 15.7199 65.5206 16.4242 65.5206 17.3047C65.5206 18.1855 65.3738 18.8849 65.0808 19.4035C64.7869 19.9226 64.4053 20.3713 63.9358 20.75C63.584 20.5359 63.1849 20.4285 62.7413 20.4285C62.2964 20.4285 61.9019 20.5116 61.559 20.6755C61.2147 20.8401 61.0428 21.1081 61.0428 21.4785C61.0428 21.849 61.2068 22.1618 61.5334 22.4171C61.8608 22.6727 62.2415 22.841 62.678 22.9234C62.8624 23.5494 63.0465 24.6485 63.2318 26.2201C63.4159 27.7929 63.6511 28.8594 63.9358 29.4192C64.1374 29.814 64.4141 30.1268 64.7663 30.3573C65.1185 30.5882 65.6049 30.7031 66.2254 30.7031C66.8455 30.7031 67.4995 30.5471 68.1875 30.2334ZM69.8222 26.332C69.8802 26.2749 69.9373 26.2185 69.9936 26.1628C70.204 24.4837 70.5831 22.2349 71.1306 19.416C71.4484 17.7699 71.6082 16.8479 71.6082 16.6503C71.6082 15.3166 71.2639 14.6498 70.5772 14.6498C70.342 14.6498 70.1282 14.7161 69.9349 14.8474C69.7424 14.9791 69.5492 15.1186 69.3567 15.2672C69.2736 15.331 69.1899 15.3932 69.1054 15.4539C69.2649 15.9221 69.3447 16.4361 69.3447 16.9959C69.361 18.4123 68.9837 19.5892 68.2123 20.5277C67.4408 21.4662 66.4853 22.1417 65.3445 22.5529C65.5965 23.0962 65.8015 23.6803 65.9612 24.306C66.1197 24.9321 66.2757 25.5088 66.4262 26.0352C66.5775 26.5625 66.7486 26.9985 66.9419 27.3442C67.1343 27.69 67.3695 27.8629 67.6462 27.8629C67.923 27.8629 68.2588 27.7027 68.6525 27.3813C69.0466 27.0602 69.4365 26.7107 69.8222 26.332ZM3.69848 25.8457C3.69848 27.1143 4.17686 27.7478 5.13236 27.7478C6.15495 27.7317 7.00228 27.1962 7.6731 26.1424C7.90789 25.7806 8.10075 25.3361 8.25168 24.8084C8.25168 22.9647 8.41939 21.3845 8.75522 20.0664C7.39639 20.3303 6.21406 20.9724 5.20783 21.9928C4.2016 23.0141 3.69848 24.2988 3.69848 25.8457ZM40.7028 23.4998C40.7028 24.0592 40.5599 24.6359 40.2748 25.2282C39.8387 24.8005 39.6207 24.2572 39.6207 23.5986C39.6207 23.401 39.671 23.1952 39.7717 22.9812C39.8723 22.7671 39.9981 22.6601 40.149 22.6601C40.5175 22.6601 40.7028 22.94 40.7028 23.4998ZM100 27.9191C100 29.284 98.8726 30.3905 97.4819 30.3905C96.0925 30.3896 94.9655 29.2832 94.9655 27.9182C94.9655 26.5533 96.0933 25.4468 97.4827 25.4477C98.873 25.4477 100 26.5541 100 27.9191Z" fill="white"/>
</svg>
