<svg width="97" height="40" viewBox="0 0 97 40" fill="none" xmlns="http://www.w3.org/2000/svg">
<path fill-rule="evenodd" clip-rule="evenodd" d="M94.7527 13.2526C93.5665 12.3114 92.0059 11.8672 90.5019 12.0347C88.7467 12.2131 87.1062 13.2404 86.1725 14.7376C85.2262 16.2118 85.0066 18.1197 85.5791 19.774C86.0412 21.1433 87.0314 22.3225 88.2963 23.0191C89.7225 23.8158 91.4874 23.9707 93.0305 23.4346C94.2776 23.013 95.3682 22.1524 96.0759 21.042C96.8227 19.8885 97.1326 18.4661 96.9505 17.1051C96.7614 15.5978 95.949 14.185 94.7527 13.2526ZM89.8134 13.2574C90.0351 13.179 90.2702 13.1503 90.5032 13.1229C91.0136 13.0703 91.5313 13.0798 92.0385 13.1595C92.3454 13.2012 92.6354 13.317 92.921 13.4318C93.3948 13.6385 93.8586 13.887 94.242 14.2381C94.5193 14.4979 94.7944 14.7642 95.0174 15.0731C95.3656 15.5735 95.6264 16.1352 95.796 16.7204C95.8985 17.1843 95.9251 17.6629 95.9077 18.1367C95.8846 18.5383 95.8494 18.9465 95.7029 19.3246C95.4969 19.8959 95.2222 20.4519 94.8288 20.9184C94.4971 21.2847 94.1463 21.6433 93.7238 21.9048C93.1135 22.2655 92.4463 22.5792 91.7295 22.6319C90.9949 22.6902 90.2268 22.6788 89.5356 22.3943C89.0257 22.1989 88.5328 21.9426 88.112 21.5915C87.8812 21.3887 87.6643 21.1707 87.4587 20.9428C87.1214 20.559 86.8836 20.1008 86.6811 19.6352C86.6677 19.6 86.6542 19.5648 86.6407 19.5295C86.5474 19.2861 86.4534 19.0411 86.4211 18.7815C86.332 18.1933 86.3298 17.592 86.4168 17.0032C86.4496 16.7122 86.5562 16.4378 86.6616 16.1665C86.672 16.1396 86.6825 16.1128 86.6928 16.086C86.9114 15.5944 87.1675 15.1088 87.5422 14.7172C87.7886 14.4561 88.0421 14.1972 88.3346 13.9866C88.7845 13.6668 89.2905 13.431 89.8134 13.2574Z" fill="white"/>
<path d="M61.0925 12.3024C62.104 12.2354 63.132 12.2637 64.1205 12.5056C64.8942 12.6922 65.6458 13.0194 66.2596 13.5342C66.8951 14.0576 67.3506 14.7882 67.5641 15.5818C67.7536 16.2841 67.7853 17.0273 67.678 17.7456C67.5371 18.6481 67.1116 19.487 66.5408 20.1923C65.5989 21.3618 64.3583 22.2308 63.179 23.1397C62.4796 23.6771 61.7823 24.2262 61.1807 24.8741C60.6813 25.4119 60.254 26.0345 60.0353 26.7416C62.6812 26.7407 65.3276 26.7411 67.9735 26.7416C67.974 27.7602 67.974 28.7788 67.974 29.7974C63.7601 29.7974 59.5459 29.7991 55.332 29.7969C55.4681 28.0269 55.9815 26.2682 56.9451 24.7688C57.7402 23.5126 58.8247 22.4683 59.9962 21.565C60.7895 20.9459 61.6289 20.3881 62.4144 19.7585C62.9612 19.3077 63.5102 18.8086 63.7932 18.1433C64.0622 17.4963 64.0175 16.6909 63.5802 16.1275C63.2933 15.7646 62.8656 15.5414 62.4248 15.4265C61.851 15.2746 61.2498 15.2907 60.6634 15.3382C59.3233 15.4548 58.0523 15.939 56.8365 16.4895C56.5209 15.5675 56.217 14.6411 55.908 13.7165C57.5428 12.9681 59.292 12.4281 61.0925 12.3024Z" fill="white"/>
<path fill-rule="evenodd" clip-rule="evenodd" d="M77.0456 12.317C76.7574 12.317 76.4692 12.3171 76.181 12.3171C75.048 13.7552 73.9155 15.1938 72.783 16.6323C71.0141 18.8793 69.2452 21.1262 67.4743 23.3715C67.4723 23.8809 67.4726 24.3903 67.4729 24.8997C67.473 25.1543 67.4732 25.409 67.473 25.6637C68.9573 25.6642 70.4415 25.6641 71.9258 25.6641C73.0388 25.664 74.1517 25.664 75.2647 25.6641C75.2647 26.1235 75.2647 26.5828 75.2646 27.0421C75.2645 27.9606 75.2644 28.8791 75.2647 29.7977C75.5573 29.7977 75.8498 29.7977 76.1423 29.7978C77.0198 29.7978 77.8972 29.7979 78.7748 29.7973V25.6646C79.2058 25.6641 79.6368 25.6641 80.0678 25.6641C80.4989 25.6641 80.93 25.6641 81.3612 25.6637V22.7711C80.891 22.7704 80.4207 22.7704 79.9505 22.7705C79.5587 22.7706 79.167 22.7706 78.7752 22.7702C78.7748 20.7793 78.7748 18.7884 78.7749 16.7975C78.7749 15.304 78.775 13.8105 78.7748 12.3171C78.1984 12.3168 77.622 12.3169 77.0456 12.317ZM75.1862 22.77C73.9613 22.7666 72.7361 22.7631 71.5125 22.8377C71.886 22.3447 72.2593 21.8515 72.6325 21.3583C73.5572 20.1364 74.482 18.9144 75.4108 17.6955C75.2564 19.1816 75.26 20.6754 75.2637 22.1677C75.2641 22.3686 75.2646 22.5694 75.2647 22.7702L75.1862 22.77Z" fill="white"/>
<path d="M90.473 15.0101C90.8825 15.0097 91.2924 15.0097 91.7023 15.0101C91.7027 15.7428 91.7018 16.4755 91.7027 17.2087C92.3791 17.2087 93.0559 17.2083 93.7327 17.2087C93.7327 17.6012 93.7327 17.9937 93.7327 18.3861C92.646 18.3861 91.5593 18.3866 90.473 18.3861C90.4725 17.2605 90.4725 16.1353 90.473 15.0101Z" fill="white"/>
<path d="M14.084 13.1233C14.6252 12.9984 15.2229 13.0676 15.6967 13.3674C16.087 13.6098 16.3765 14.007 16.4865 14.4534C16.603 14.9325 16.5447 15.4594 16.2965 15.8884C16.0522 16.3227 15.6293 16.6516 15.1485 16.7822C14.417 16.9867 13.5589 16.7713 13.0677 16.1756C12.5383 15.5608 12.4726 14.5896 12.9308 13.9165C13.1959 13.5175 13.6193 13.2334 14.084 13.1233Z" fill="white"/>
<path d="M37.5094 13.1239C38.0419 13.0007 38.6296 13.0651 39.1008 13.3536C39.4915 13.589 39.7871 13.978 39.9041 14.4201C40.0397 14.93 39.9701 15.4983 39.6884 15.9477C39.3498 16.506 38.7074 16.8597 38.0558 16.8545C37.5398 16.8715 37.016 16.6857 36.6387 16.3302C36.1701 15.8951 35.9667 15.2146 36.0827 14.5893C36.2092 13.8709 36.8043 13.2831 37.5094 13.1239Z" fill="white"/>
<path fill-rule="evenodd" clip-rule="evenodd" d="M0 13.9814H5.19535C6.24468 14.0102 7.32053 14.2334 8.20989 14.8151C8.85062 15.2246 9.3679 15.8298 9.65435 16.5364C9.96776 17.3018 10.0164 18.1698 9.80388 18.9683C9.57437 19.8637 8.98059 20.67 8.16338 21.1116C8.15358 21.1222 8.13649 21.1295 8.11918 21.1369C8.08661 21.1509 8.05324 21.1652 8.06601 21.2021C8.80324 21.4036 9.50221 21.7839 10.0191 22.3543C10.6672 23.0566 11.0136 24.016 11.0088 24.9689C11.0306 25.9823 10.6872 26.9987 10.059 27.7936C9.467 28.5525 8.62893 29.0977 7.72087 29.3996C6.79934 29.7234 5.81348 29.7782 4.84543 29.7543H0V13.9814ZM3.28187 16.6683C3.28168 17.2044 3.28174 17.7404 3.28179 18.2765C3.28186 18.9912 3.28193 19.7058 3.28144 20.4207C3.45635 20.4186 3.63132 20.4198 3.80627 20.4211H3.80629C4.14001 20.4235 4.47366 20.4258 4.80675 20.405C5.38183 20.365 5.97735 20.1444 6.34249 19.6792C6.84455 19.0327 6.82499 18.0402 6.32293 17.3992C5.92171 16.8945 5.25882 16.6918 4.63678 16.6687C4.35885 16.6676 4.08092 16.6679 3.80299 16.6681C3.62928 16.6683 3.45558 16.6684 3.28187 16.6683ZM3.28187 27.0674V23.097C3.53688 23.0977 3.79189 23.0974 4.0469 23.097C4.4613 23.0964 4.87571 23.0959 5.29012 23.0997C5.90954 23.1101 6.56678 23.2189 7.06363 23.617C7.45441 23.9181 7.66697 24.4067 7.68784 24.8932C7.7087 25.3918 7.61524 25.9287 7.28445 26.3203C6.97322 26.6945 6.49811 26.8843 6.03212 26.9774C5.58203 27.0729 5.12244 27.0704 4.66432 27.0678C4.55082 27.0672 4.4374 27.0666 4.32425 27.0674H3.28187Z" fill="white"/>
<path d="M19.5522 15.7681C20.6385 15.457 21.7239 15.1446 22.8106 14.8352C22.8128 16.0335 22.8106 17.2322 22.8115 18.4305C23.9564 18.431 25.1014 18.4301 26.2468 18.431C26.0012 19.269 25.7517 20.1057 25.5039 20.9429C24.6067 20.9437 23.7091 20.9433 22.8115 20.9433C22.811 22.3148 22.8115 23.6858 22.8115 25.0573C22.8176 25.5189 22.7923 25.9828 22.8423 26.4427C22.8815 26.7451 22.9806 27.0814 23.2548 27.2516C23.5596 27.4391 23.9369 27.4178 24.2781 27.376C24.7363 27.3107 25.1827 27.1497 25.5717 26.8969C25.8882 27.634 26.1994 28.3737 26.5137 29.1117C25.8586 29.5433 25.0857 29.753 24.3211 29.8883C23.3857 30.0393 22.3963 30.0767 21.4931 29.7474C20.8719 29.5289 20.3168 29.1051 19.9808 28.5343C19.6722 28.0134 19.5374 27.3999 19.5509 26.7973C19.5513 24.8463 19.5513 22.8948 19.5513 20.9433C18.8558 20.9429 18.1603 20.9437 17.4648 20.9433C17.4648 20.1057 17.4648 19.2681 17.4648 18.4305C18.1603 18.4305 18.8558 18.431 19.5513 18.4305C19.5522 17.5429 19.55 16.6557 19.5522 15.7681Z" fill="white"/>
<path d="M32.6143 18.3485C33.5667 18.0017 34.6956 18.0883 35.5385 18.6718C35.1581 19.5673 34.7834 20.4658 34.4039 21.3617C33.8393 21.0092 33.1477 20.843 32.4887 20.9709C31.8654 21.0915 31.3394 21.4778 30.8521 21.8647C30.8508 24.4945 30.8521 27.1243 30.8517 29.7541C29.7724 29.7541 28.6926 29.7541 27.6133 29.7541C27.6133 25.9795 27.6133 22.2049 27.6137 18.4303C28.527 18.4307 29.4403 18.4294 30.354 18.4312C30.4709 18.828 30.5926 19.2231 30.71 19.6195C31.2716 19.1004 31.888 18.6122 32.6143 18.3485Z" fill="white"/>
<path d="M12.9653 18.4307C14.0442 18.4303 15.1235 18.4303 16.2028 18.4307C16.2032 22.2049 16.2032 25.9795 16.2032 29.7541C15.1239 29.7541 14.0442 29.7541 12.9648 29.7541C12.9648 25.9795 12.9648 22.2049 12.9653 18.4307Z" fill="white"/>
<path d="M36.395 18.4307C37.4739 18.4303 38.5532 18.4303 39.6325 18.4307C39.6329 22.2049 39.6329 25.9795 39.6329 29.7541C38.5532 29.7541 37.4739 29.7541 36.3945 29.7541C36.3945 25.9795 36.3945 22.2049 36.395 18.4307Z" fill="white"/>
<path d="M44.9808 24.0576C43.599 22.181 42.2145 20.3065 40.8318 18.4307C41.9572 18.4303 43.083 18.4294 44.2088 18.4316C45.0539 19.5747 45.8954 20.7212 46.7422 21.8633C47.5863 20.7194 48.4309 19.576 49.2738 18.4307C50.3992 18.4294 51.5246 18.4316 52.65 18.4294C51.2542 20.3078 49.8511 22.181 48.4535 24.0581C49.8702 25.9556 51.2851 27.8544 52.6991 29.7541C51.5741 29.7541 50.4487 29.7541 49.3238 29.7541C48.4566 28.5776 47.5855 27.4041 46.72 26.2262C45.8385 27.3984 44.9656 28.5776 44.0889 29.7532C42.963 29.755 41.8368 29.7541 40.7109 29.7537C42.1328 27.854 43.5573 25.956 44.9808 24.0576Z" fill="white"/>
</svg>
