<svg width="104" height="40" viewBox="0 0 104 40" fill="none" xmlns="http://www.w3.org/2000/svg">
<path fill-rule="evenodd" clip-rule="evenodd" d="M93.6898 19.1113C93.0284 17.9793 92.0981 17.0717 90.9349 16.3885C90.0657 15.8851 89.1644 15.5656 88.1487 15.4284V11.8313C89.1644 11.4022 89.7947 10.4526 89.7947 9.34481C89.7947 7.83484 88.5775 6.61122 87.0609 6.61122C85.5431 6.61122 84.3046 7.83484 84.3046 9.34481C84.3046 10.4526 84.8985 11.4022 85.9142 11.8313V15.43C85.1017 15.5468 84.2591 15.7988 83.4896 16.186L81.8554 14.951L81.8465 14.9443C79.5972 13.2444 76.0505 10.5642 73.7496 8.82768C73.8211 8.57123 73.8762 8.30691 73.8762 8.02803C73.8762 6.35558 72.5148 5 70.833 5C69.1513 5 67.7905 6.35558 67.7905 8.02803C67.7905 9.70028 69.1527 11.0563 70.8344 11.0563C71.4081 11.0563 71.9387 10.8893 72.3966 10.6149L73.0328 11.0951L81.7749 17.3613C81.3128 17.7834 80.8823 18.2636 80.538 18.8023C79.8403 19.9007 79.4139 21.1091 79.4139 22.4273V22.7024C79.4139 23.6277 79.5906 24.5013 79.8917 25.322C80.1567 26.0386 80.5443 26.6901 81.0243 27.2792L78.1229 30.1726C77.2642 29.8546 76.2978 30.0655 75.6516 30.7118C75.2091 31.1498 74.9613 31.7458 74.9634 32.3668C74.9636 32.9919 75.2084 33.5793 75.6528 34.0213C76.0928 34.4618 76.6918 34.7088 77.3161 34.7072C77.9405 34.7088 78.5397 34.4618 78.98 34.0213C79.4222 33.5833 79.6701 32.9876 79.6686 32.3668C79.6686 32.1249 79.631 31.8889 79.5603 31.6646L82.5592 28.6808C82.9704 28.9633 83.4144 29.2012 83.8918 29.4063C84.8333 29.8113 85.8726 30.058 87.0099 30.058H87.2184C88.4758 30.058 89.6619 29.7642 90.7769 29.1632C91.9518 28.5281 92.8714 27.6595 93.5661 26.5507C94.2645 25.4388 94.6491 24.2103 94.6491 22.8588V22.7913C94.6491 21.4618 94.3397 20.2351 93.6898 19.1113ZM90.0257 25.3705C89.2117 26.2704 88.2761 26.8247 87.2184 26.8247H87.0441C86.4399 26.8247 85.849 26.6586 85.2705 26.3565C84.6184 26.0238 84.1228 25.5493 83.7171 24.9485C83.2978 24.3589 83.0703 23.715 83.0703 23.0324V22.825C83.0703 22.1539 83.1997 21.5176 83.526 20.9166C83.8747 20.2596 84.3458 19.7487 84.9723 19.3425C85.5874 18.9392 86.2443 18.7413 86.976 18.7413H87.0441C87.7075 18.7413 88.3356 18.8715 88.9283 19.1732C89.5323 19.4949 90.0257 19.9344 90.4082 20.5126C90.7797 21.091 91.0007 21.7148 91.0718 22.3944C91.083 22.5357 91.0887 22.6803 91.0887 22.8186C91.0887 23.7409 90.7344 24.5951 90.0257 25.3705ZM0 10.5931H3.62638V18.6081H11.2746V10.5931H14.9057V30.2676H11.2746V22.0842H3.62638V30.2676H0V10.5931ZM26.394 23.8593C26.394 25.5063 25.0452 26.8465 23.3901 26.8465C21.7343 26.8465 20.3863 25.5063 20.3863 23.8593V15.3887H16.9472V23.8593C16.9472 27.3931 19.8376 30.2676 23.3901 30.2676C26.9417 30.2676 29.8319 27.3931 29.8319 23.8593V15.3887H26.394V23.8593ZM35.3858 17.1034C36.5358 15.9804 37.7266 15.488 39.4325 15.488C43.2846 15.488 46.5967 18.6902 46.5967 22.878C46.5967 27.1195 43.0048 30.2676 38.9054 30.2676C35.2178 30.2676 31.9356 27.1747 31.9356 22.6585V10.5931H35.3858V17.1034ZM39.5182 27.0922C37.1803 27.0922 35.3925 25.1498 35.3925 22.878C35.3925 20.6057 37.1803 18.6627 39.5182 18.6627C41.4992 18.6627 43.288 20.6057 43.288 22.878C43.288 25.1498 41.4992 27.0922 39.5182 27.0922ZM54.8123 14.0802C53.5472 14.0802 52.3915 14.6273 52.3915 16.3527C52.3915 17.6238 53.6878 18.028 55.2512 18.5154C57.6263 19.256 60.6177 20.1887 60.6177 24.6448C60.6177 28.0665 57.7564 30.2561 54.2076 30.2561C51.8412 30.2561 49.8611 29.2703 48.2644 27.3269L50.7685 24.7545C50.8541 24.8497 50.9373 24.9445 51.0195 25.038L51.0196 25.0381L51.0198 25.0383L51.0198 25.0384C51.8361 25.9671 52.5507 26.7802 54.4008 26.7802C55.6931 26.7802 56.8207 25.7666 56.8207 24.6183C56.8207 23.0248 55.3139 22.4995 53.59 21.8985C51.286 21.0953 48.5943 20.1569 48.5943 16.3527C48.5943 12.7669 51.2905 10.6046 55.0325 10.6046C56.9034 10.6046 59.1864 11.6449 60.3136 13.1501L58.0582 15.7774C57.1786 14.8465 55.8308 14.0802 54.8123 14.0802ZM69.7007 15.2952C66.0136 15.2952 62.7309 18.3863 62.7309 22.9034V35H66.181V28.4587C67.3312 29.5809 68.5213 30.0742 70.2279 30.0742C74.0797 30.0742 77.3923 26.8724 77.3923 22.6846C77.3923 18.4424 73.7994 15.2952 69.7007 15.2952ZM66.1881 22.6846C66.1881 24.9548 67.9761 26.8999 70.3138 26.8999C72.2944 26.8999 74.0834 24.9548 74.0834 22.6846C74.0834 20.4124 72.2944 18.4693 70.3138 18.4693C67.9761 18.4693 66.1881 20.4124 66.1881 22.6846ZM102.788 27.0922C100.753 27.0922 100.176 26.2168 100.176 24.8752V18.9363H103.339V15.9261H100.176V11.9572L96.6828 13.5168V25.6142C96.6828 28.7073 98.828 30.2676 101.77 30.2676C102.211 30.2676 102.817 30.2393 103.147 30.1583L104 27.0385C103.615 27.065 103.175 27.0922 102.788 27.0922Z" fill="white"/>
</svg>
