<svg width="154" height="40" viewBox="0 0 154 40" fill="none" xmlns="http://www.w3.org/2000/svg">
<path d="M0 7H23.1309C23.1301 14.7601 23.1317 22.5202 23.1301 30.2802C19.6446 30.2802 16.159 30.2802 12.6735 30.2802C12.3501 30.2802 12.0274 30.2729 11.7048 30.294C11.6682 30.2519 11.6317 30.2105 11.5959 30.1684C11.63 26.2993 11.6016 22.4286 11.6105 18.5595C7.74795 18.5627 3.88535 18.553 0.0227546 18.5643H0V7Z" fill="white"/>
<path d="M150.751 13.8899C150.323 13.5552 150.441 12.7326 150.999 12.6111C151.373 12.5665 151.751 12.6054 152.127 12.5908C152.353 12.5973 152.622 12.5519 152.798 12.7334C153.044 12.9393 152.973 13.2862 152.984 13.5674C152.981 18.6441 152.983 23.7207 152.982 28.7974C153.226 28.8088 153.503 28.7674 153.715 28.9198C153.864 29.0178 153.935 29.1889 153.998 29.3493V29.7027C153.937 29.979 153.722 30.2376 153.425 30.2603C152.991 30.2838 152.555 30.2668 152.121 30.27C151.832 30.2943 151.538 30.0682 151.524 29.774C151.509 29.265 151.524 28.7553 151.521 28.2463C150.792 29.2537 149.687 29.9758 148.471 30.2416C146.966 30.5772 145.33 30.3259 144.014 29.5171C142.913 28.8501 142.044 27.8184 141.56 26.6286C140.888 24.9956 140.935 23.078 141.711 21.4887C142.28 20.295 143.248 19.2908 144.437 18.7016C145.665 18.0816 147.117 17.943 148.451 18.268C149.71 18.5768 150.843 19.3824 151.521 20.4878C151.516 18.3369 151.521 16.186 151.519 14.0342C151.26 14.0245 150.964 14.0707 150.751 13.8899ZM146.242 19.6223C145.175 19.8216 144.205 20.4433 143.55 21.3015C142.589 22.5342 142.292 24.237 142.751 25.7266C143.078 26.8272 143.829 27.8103 144.844 28.3622C146.093 29.0503 147.675 29.1102 148.956 28.4732C150.128 27.9343 151.046 26.8677 151.351 25.6123C151.776 23.9849 151.378 22.1363 150.21 20.902C149.226 19.8265 147.669 19.3346 146.242 19.6223Z" fill="white"/>
<path d="M71.5113 19.3101C72.2532 18.4494 73.4032 18.0167 74.523 17.9818C75.6063 17.9381 76.7448 18.3295 77.4592 19.1675C77.4706 18.9057 77.4185 18.6326 77.4998 18.3789C77.7436 17.7824 78.857 17.9081 78.8675 18.5913C78.8708 19.5338 78.8732 20.4772 78.8667 21.4206C78.8342 22.0025 78.0085 22.2124 77.6339 21.8088C77.3933 21.5778 77.4795 21.2212 77.4112 20.9278C77.2975 20.3386 76.8537 19.8564 76.319 19.606C75.3974 19.1667 74.2743 19.178 73.3585 19.6246C72.8879 19.8507 72.4621 20.2276 72.2971 20.7333C72.1061 21.2925 72.2695 21.9522 72.7262 22.3348C73.3577 22.8834 74.189 23.112 74.9781 23.3365C76.1134 23.6436 77.3381 23.826 78.3076 24.5408C78.9325 24.9955 79.2795 25.7589 79.295 26.5224C79.3519 27.3693 79.0561 28.2316 78.4799 28.8573C77.5534 29.8736 76.1199 30.3493 74.7628 30.2521C73.7583 30.1662 72.7351 29.7966 72.033 29.0518C72.0241 29.3168 72.0639 29.5899 71.9997 29.8509C71.7811 30.4676 70.6409 30.3915 70.6165 29.6912C70.6092 28.6668 70.6043 27.6416 70.6182 26.618C70.6824 26.0166 71.5218 25.7865 71.9282 26.2063C72.2581 26.5062 72.0931 26.9892 72.2362 27.366C72.4239 28.0217 73.009 28.4828 73.638 28.6911C74.5198 28.9845 75.521 29.0137 76.3808 28.632C76.9342 28.3929 77.447 27.9917 77.6973 27.4325C77.9492 26.8806 77.9061 26.1593 77.4592 25.7176C76.9561 25.2313 76.2451 25.07 75.5852 24.9152C74.2605 24.6243 72.8611 24.3123 71.7941 23.424C70.5848 22.4417 70.5044 20.461 71.5113 19.3101Z" fill="white"/>
<path d="M81.8186 20.1961C83.2318 18.4204 85.7242 17.5661 87.9233 18.1764C89.1131 18.5022 90.1557 19.2697 90.879 20.2593C90.8782 19.7276 90.8757 19.1968 90.879 18.6651C90.8643 18.3734 91.1252 18.0913 91.4226 18.1043C91.7762 18.0986 92.1305 18.1075 92.4848 18.1019C92.6725 18.1027 92.8781 18.0873 93.0439 18.1967C93.4795 18.4617 93.4803 19.1992 93.0472 19.4675C92.8399 19.5996 92.5831 19.5663 92.3507 19.5753C92.3523 24.2305 92.3507 28.8857 92.3515 33.541C92.6035 33.5458 92.8919 33.511 93.1032 33.682C93.4933 33.9827 93.4519 34.6837 93.0065 34.9139C92.4994 35.0687 91.9493 34.9625 91.4251 34.9868C91.1179 34.9876 90.8587 34.6975 90.8782 34.396C90.8782 32.2264 90.8765 30.0568 90.8798 27.8873C90.2199 28.9538 89.1374 29.7432 87.9258 30.069C86.6783 30.4045 85.3171 30.3259 84.1249 29.8251C82.9214 29.3242 81.9063 28.4059 81.2611 27.2794C79.9811 25.0969 80.2006 22.1476 81.8186 20.1961ZM85.4626 19.5461C84.103 19.7989 82.9108 20.748 82.3387 22.0009C81.7308 23.2904 81.7284 24.8456 82.3314 26.1375C82.7653 27.0898 83.5219 27.8994 84.4638 28.3662C85.6397 28.9603 87.0911 28.9789 88.2809 28.4108C89.1634 27.9934 89.8802 27.2616 90.3223 26.3968C90.9659 25.1552 91.0488 23.6454 90.5791 22.3316C89.8705 20.3168 87.5389 19.0801 85.4626 19.5461Z" fill="white"/>
<path d="M132.317 18.772C133.649 17.9745 135.323 17.7557 136.811 18.2128C137.836 18.5248 138.738 19.1886 139.378 20.042C140.268 21.2228 140.698 22.7116 140.713 24.1793C140.717 24.5594 140.454 25.0011 140.031 24.9906C136.928 24.9947 133.824 24.9898 130.72 24.993C130.902 26.1406 131.53 27.2129 132.46 27.9171C133.377 28.6271 134.558 28.9683 135.713 28.9124C136.526 28.8662 137.346 28.7349 138.105 28.431C138.404 28.294 138.755 28.11 139.081 28.281C139.541 28.5177 139.532 29.2495 139.095 29.5056C138.373 29.9352 137.541 30.1394 136.72 30.2804C135.388 30.5065 133.98 30.3728 132.75 29.7982C131.585 29.2617 130.602 28.3426 129.996 27.2145C129.145 25.66 129.025 23.7433 129.62 22.0803C130.103 20.713 131.063 19.5103 132.317 18.772ZM133.141 19.9974C131.851 20.7292 130.958 22.0786 130.72 23.5326C133.545 23.5334 136.371 23.535 139.196 23.5318C138.983 22.2407 138.432 20.9181 137.345 20.1222C136.139 19.2291 134.414 19.2542 133.141 19.9974Z" fill="white"/>
<path d="M94.2671 19.4075C93.8592 19.059 93.9762 18.2623 94.5223 18.1237C94.9213 18.0759 95.3277 18.1172 95.7299 18.1027C95.9648 18.1148 96.2314 18.054 96.4378 18.2015C96.6174 18.3158 96.6962 18.5362 96.6856 18.7429C96.6865 20.8801 96.6848 23.0172 96.6865 25.1544C96.7092 26.0986 96.9863 27.0833 97.656 27.7786C98.2273 28.3824 99.0489 28.6953 99.8672 28.7706C100.839 28.8606 101.862 28.7244 102.718 28.2317C103.359 27.8662 103.865 27.2802 104.148 26.6002C104.421 25.9673 104.505 25.2711 104.507 24.5871C104.508 22.9119 104.507 21.2367 104.508 19.5623C104.186 19.5436 103.798 19.6449 103.545 19.3897C103.146 19.0266 103.293 18.2226 103.852 18.1156C104.371 18.0889 104.892 18.1083 105.412 18.1043C105.708 18.0929 105.989 18.362 105.97 18.6611C105.972 22.0317 105.969 25.4016 105.971 28.7723C106.291 28.7893 106.653 28.7018 106.935 28.8954C107.406 29.2245 107.3 30.1119 106.712 30.244C106.166 30.2805 105.617 30.2521 105.07 30.2594C104.769 30.2732 104.493 29.9985 104.508 29.6986C104.503 29.2666 104.508 28.8347 104.508 28.4035C103.774 29.4603 102.525 30.056 101.268 30.2092C100.103 30.3453 98.8766 30.24 97.8104 29.7229C96.9855 29.3299 96.298 28.6637 95.8722 27.8581C95.3756 26.9342 95.192 25.87 95.2123 24.8302C95.2131 23.074 95.2115 21.3185 95.2131 19.5631C94.8978 19.5428 94.5248 19.6409 94.2671 19.4075Z" fill="white"/>
<path d="M111.449 18.7007C112.656 18.0937 114.078 17.9486 115.391 18.2533C116.677 18.5491 117.842 19.3628 118.53 20.4902C118.525 19.8848 118.526 19.2793 118.529 18.6739C118.508 18.3514 118.814 18.0612 119.137 18.1026C119.594 18.1147 120.055 18.0799 120.511 18.1212C121.088 18.2541 121.191 19.1254 120.725 19.4463C120.515 19.6068 120.235 19.5549 119.991 19.563C119.991 22.6419 119.991 25.7208 119.991 28.7997C120.235 28.807 120.512 28.7665 120.724 28.9205C121.189 29.2447 121.088 30.1159 120.508 30.2488C120.052 30.2974 119.59 30.2585 119.133 30.2707C118.812 30.3023 118.5 30.0187 118.528 29.6945C118.526 29.2114 118.527 28.7284 118.529 28.2446C117.863 29.1661 116.884 29.8533 115.788 30.1629C114.24 30.6006 112.516 30.3906 111.127 29.5786C110.046 28.9537 109.177 27.9787 108.665 26.8441C107.94 25.2605 107.913 23.3746 108.593 21.7715C109.142 20.4553 110.166 19.3369 111.449 18.7007ZM113.405 19.6165C112.209 19.794 111.112 20.4894 110.419 21.4741C109.679 22.5025 109.402 23.8325 109.626 25.0741C109.837 26.383 110.6 27.623 111.757 28.3013C113.019 29.0518 114.651 29.1182 115.975 28.4828C117.153 27.9617 118.113 26.93 118.451 25.6787C118.899 24.1291 118.547 22.3639 117.482 21.141C116.508 19.9739 114.91 19.3742 113.405 19.6165Z" fill="white"/>
<path d="M122.413 18.2064C122.645 18.054 122.936 18.114 123.198 18.1034C123.499 18.1083 123.8 18.0937 124.103 18.1075C124.374 18.1302 124.591 18.3968 124.58 18.6659C124.584 19.1595 124.579 19.653 124.581 20.1466C125.213 19.1951 126.208 18.4908 127.334 18.2574C127.925 18.1302 128.538 18.0702 129.143 18.1156C129.713 18.2031 129.853 19.033 129.425 19.3669C129.108 19.6206 128.679 19.5144 128.308 19.5712C127.094 19.6927 125.847 20.2236 125.14 21.2545C124.711 21.8688 124.561 22.6331 124.58 23.3714C124.581 25.4802 124.581 27.5898 124.58 29.6986C124.592 29.8866 124.49 30.0706 124.333 30.1719C124.147 30.3048 123.904 30.2489 123.691 30.261C123.335 30.2481 122.975 30.2837 122.621 30.2432C122.046 30.1233 121.921 29.2731 122.369 28.9368C122.579 28.7641 122.865 28.8038 123.118 28.8006C123.118 25.7152 123.118 22.629 123.118 19.5436C122.884 19.5379 122.629 19.5752 122.423 19.4431C121.993 19.187 121.989 18.4698 122.413 18.2064Z" fill="white"/>
<path d="M26.5131 14.0172C25.8857 13.8154 25.9206 12.7497 26.5732 12.6095C27.199 12.5706 27.828 12.6006 28.4553 12.5941C28.752 12.5827 29.0315 12.8518 29.0112 13.1509C29.0128 18.3677 29.0112 23.5846 29.012 28.8015C29.3054 28.812 29.6036 28.7731 29.8929 28.8283C30.4537 28.996 30.5276 29.8656 30.0433 30.1631C29.8588 30.2911 29.624 30.2555 29.4135 30.2619C28.5195 30.2514 27.6248 30.2741 26.7317 30.2514C26.1027 30.1614 25.9808 29.1978 26.5066 28.8931C26.817 28.7237 27.1908 28.8307 27.5289 28.8007C27.5289 23.8845 27.5289 18.9683 27.5289 14.0521C27.1908 14.0343 26.8455 14.0894 26.5131 14.0172Z" fill="white"/>
<path d="M65.9833 13.885C65.5655 13.547 65.6818 12.7423 66.2303 12.6118C66.6886 12.5672 67.1519 12.6037 67.6126 12.5915C67.9312 12.551 68.2335 12.8347 68.2205 13.1524C68.223 18.3676 68.2205 23.5837 68.2221 28.7989C68.4643 28.807 68.7382 28.7673 68.9495 28.9165C69.3965 29.2244 69.3363 30.0365 68.8097 30.227C68.4716 30.3153 68.1157 30.2513 67.7703 30.2707C67.5249 30.2553 67.2535 30.321 67.03 30.1921C66.8601 30.09 66.7431 29.8995 66.7585 29.6985C66.7561 29.2139 66.7585 28.7292 66.7594 28.2454C66.1027 29.1523 65.1438 29.8323 64.0678 30.1483C62.6229 30.5714 61.0187 30.4263 59.6737 29.7512C58.6441 29.235 57.7745 28.4132 57.1927 27.4228C56.5165 26.2801 56.228 24.9201 56.3589 23.6023C56.48 22.3064 57.0204 21.0526 57.8859 20.0777C58.809 19.0265 60.1191 18.3157 61.5128 18.1439C62.5571 18.0224 63.646 18.1431 64.605 18.5905C65.4883 18.9949 66.249 19.6603 66.7594 20.4861C66.7561 18.3352 66.7602 16.1843 66.7577 14.0333C66.496 14.0276 66.197 14.0706 65.9833 13.885ZM61.4803 19.6222C60.2393 19.8524 59.139 20.6588 58.4929 21.7326C57.7534 22.9353 57.5787 24.459 58.0126 25.7995C58.3613 26.909 59.1455 27.8904 60.1906 28.4188C61.2544 28.9602 62.5432 29.0826 63.6753 28.6839C64.7187 28.3329 65.6493 27.6124 66.1815 26.6431C67.2665 24.6478 66.787 21.902 64.9877 20.4756C64.0215 19.6903 62.7001 19.3831 61.4803 19.6222Z" fill="white"/>
<path d="M34.3794 18.5184C35.6171 17.9325 37.0759 17.8101 38.3875 18.2105C39.418 18.5225 40.3241 19.1887 40.9653 20.0453C41.8543 21.2253 42.2826 22.7125 42.298 24.1786C42.3029 24.5604 42.0372 25.0045 41.613 24.9907C38.5102 24.9948 35.4083 24.9899 32.3055 24.9931C32.4843 26.1229 33.0954 27.1797 34.0015 27.8832C34.967 28.6499 36.2331 28.9984 37.4578 28.9044C38.316 28.8363 39.1839 28.6831 39.9657 28.3095C40.1981 28.2009 40.4923 28.1612 40.7166 28.3111C41.0888 28.5518 41.1067 29.1443 40.7784 29.4287C40.4907 29.6589 40.1355 29.7845 39.7934 29.9126C38.4208 30.3737 36.9149 30.548 35.4952 30.2011C34.0974 29.8712 32.8232 29.0332 31.9886 27.8654C30.6623 26.05 30.4803 23.5165 31.4441 21.5001C32.0446 20.2123 33.0881 19.1263 34.3794 18.5184ZM34.7264 19.9975C33.4367 20.7293 32.5428 22.0788 32.3055 23.5327C35.1303 23.5335 37.956 23.5351 40.7816 23.5311C40.6231 22.5885 40.2989 21.6541 39.7113 20.889C39.2603 20.2958 38.6321 19.8297 37.9145 19.6125C36.8589 19.2867 35.6781 19.4488 34.7264 19.9975Z" fill="white"/>
<path d="M44.5965 19.7089C46.1877 18.1456 48.7208 17.6601 50.7817 18.5135C51.7374 18.9106 52.5687 19.606 53.1116 20.4878C53.1075 19.8832 53.1067 19.2786 53.11 18.674C53.0929 18.3887 53.3367 18.1051 53.6284 18.1059C53.9844 18.0961 54.3403 18.1091 54.6963 18.1018C54.8856 18.1051 55.0929 18.0832 55.2619 18.1902C55.7121 18.4519 55.7129 19.2121 55.2627 19.4747C55.0563 19.6028 54.8019 19.5533 54.5728 19.5639C54.5719 22.642 54.5719 25.7209 54.5728 28.799C54.8157 28.8071 55.0896 28.7674 55.3009 28.9173C55.769 29.2374 55.6731 30.1079 55.0961 30.2473C54.6418 30.2991 54.1802 30.2578 53.7235 30.2708C53.4301 30.3007 53.127 30.0706 53.1132 29.7715C53.101 29.2626 53.1116 28.7536 53.11 28.2454C52.4428 29.1677 51.4611 29.8566 50.3623 30.1646C48.9134 30.5731 47.3083 30.4142 45.9707 29.7229C43.9862 28.7204 42.6965 26.5556 42.6859 24.3472C42.638 22.6258 43.3393 20.893 44.5965 19.7089ZM47.9829 19.6174C46.4632 19.8386 45.1263 20.91 44.5266 22.3121C43.618 24.3528 44.3169 27.0354 46.2397 28.2414C47.349 28.9367 48.776 29.1134 50.0186 28.6928C51.032 28.363 51.956 27.7097 52.5297 26.8045C53.0856 25.9324 53.2879 24.8667 53.201 23.8447C53.0783 22.4142 52.2827 21.0446 51.0645 20.269C50.164 19.6822 49.0434 19.4553 47.9829 19.6174Z" fill="white"/>
<path d="M0 18.5645H0.0227546C3.59685 22.1864 7.1864 25.7945 10.7654 29.4115C11.0441 29.6668 11.2733 29.9764 11.5862 30.1936C11.5333 30.2252 11.4813 30.2568 11.4293 30.2893C7.61955 30.269 3.80977 30.286 0 30.2803V18.5645Z" fill="white"/>
</svg>
