<svg width="106" height="40" viewBox="0 0 106 40" fill="none" xmlns="http://www.w3.org/2000/svg">
<path fill-rule="evenodd" clip-rule="evenodd" d="M63.2888 26.5392C63.0799 26.5392 62.9992 26.4552 62.9992 26.2465V13.0266C62.9992 11.6639 62.3378 11 60.9817 11H57.6095V14.3347H58.9085C59.1271 14.3347 59.1981 14.4048 59.1981 14.626V17.0154C58.6412 16.5098 57.5538 15.8445 55.6811 15.8445C52.0193 15.8445 49.4644 18.7871 49.4644 23C49.4644 27.2801 51.9121 30.1541 55.5544 30.1541C57.6359 30.1541 58.8361 29.1821 59.4223 28.5042C59.4989 29.0952 59.879 29.8431 61.2908 29.8431H64.56V26.5392H63.2888ZM59.2761 22.9748C59.2761 25.8319 57.7223 26.8473 56.2701 26.8473C54.4754 26.8473 53.3142 25.3361 53.3142 23C53.3142 20.7283 54.5227 19.2045 56.3216 19.2045C58.3613 19.2045 59.2761 21.0966 59.2761 22.9748ZM36.1107 23C36.1107 18.7199 33.663 15.8445 30.022 15.8445C27.9002 15.8445 26.6763 16.8025 26.0818 17.4636C26.0122 16.8936 25.6404 16.1541 24.1827 16.1541H21.0151V19.4874H22.3128C22.5314 19.4874 22.6024 19.5574 22.6024 19.7787V35H26.3783V29.2871C26.3783 29.1331 26.3742 28.9888 26.37 28.8599C26.9562 29.4034 28.0867 30.1541 29.8438 30.1541C33.5335 30.1541 36.1107 27.2129 36.1107 23ZM32.2846 23.0504C32.2846 25.6751 30.7628 26.8473 29.2521 26.8473C27.2263 26.8473 26.299 24.8908 26.299 23.077C26.299 20.2213 27.8514 19.2045 29.305 19.2045C31.0872 19.2045 32.2846 20.7493 32.2846 23.0504ZM20.1641 26.2464C20.1641 26.455 20.2449 26.5391 20.4537 26.5391H21.7528V29.843H18.3764C17.0217 29.843 16.3896 29.2001 16.3896 27.8164V19.7786C16.3896 19.5587 16.3186 19.4873 16.1 19.4873H14.8009V16.1539H18.1731C19.5111 16.1539 20.1641 16.8178 20.1641 18.1805V26.2464ZM43.2126 15.845C46.8382 15.845 49.2748 18.4612 49.2748 22.3548C49.2748 22.7497 49.201 23.5578 49.194 23.5915L49.1731 23.8408H40.2247C40.5519 25.6615 41.9359 26.8225 43.8266 26.8225C45.7293 26.8225 47.1853 25.5332 47.2978 25.4336L47.3046 25.4276L47.5483 25.1951L49.1926 27.9388L49.0409 28.0901L49.0406 28.0903C48.951 28.1776 46.9202 30.1545 43.5983 30.1545C39.3712 30.1545 36.3039 27.1447 36.3039 23.0004C36.3039 18.7875 39.147 15.845 43.2126 15.845ZM40.3653 21.0242H45.3777C45.2231 19.7889 44.3488 18.9192 43.2126 18.9192C41.798 18.9192 40.7747 19.6811 40.3653 21.0242ZM73.5904 16.0279C73.5793 16.0251 73.259 15.9732 72.9569 15.9732C71.3864 15.9732 69.9411 16.885 69.0835 18.3374V18.0251C69.0835 16.7842 68.4026 16.1539 67.066 16.1539H63.8219V19.4873H65.1195C65.3381 19.4873 65.4105 19.5573 65.4105 19.7786V29.843H69.1837V24.3654C69.1837 23.6441 69.2756 22.9494 69.4538 22.3066C70.0219 20.4172 71.5312 19.745 72.7522 19.745C73.1852 19.745 73.4999 19.7912 73.5055 19.7926L73.8201 19.8402V16.0671L73.5904 16.0279ZM79.1912 26.2464C79.1912 26.455 79.2719 26.5391 79.4807 26.5391H80.7812V29.843H77.4076C76.0501 29.843 75.4166 29.2001 75.4166 27.8164V19.7786C75.4166 19.5587 75.3469 19.4873 75.127 19.4873H74.1523V16.1539H77.2029C78.5409 16.1539 79.1912 16.8178 79.1912 18.1805V26.2464ZM93.4368 19.4875V16.1542H91.4235C90.247 16.1542 89.6163 16.5646 89.2431 17.5716L86.7829 24.4833C86.698 24.7396 86.6186 25.0268 86.5504 25.3027C86.4794 25.0268 86.3945 24.7354 86.3012 24.4791L83.8409 17.5702C83.4636 16.552 82.8538 16.1542 81.662 16.1542H79.5206V19.4875H80.0761C80.3713 19.4875 80.466 19.5884 80.5356 19.7732L84.3436 29.8433H88.5874L92.3954 19.7732C92.465 19.5884 92.5624 19.4875 92.8576 19.4875H93.4368ZM106 22.3548C106 18.4612 103.562 15.845 99.9337 15.845C95.8695 15.845 93.0277 18.7875 93.0277 23.0004C93.0277 27.1447 96.0923 30.1545 100.319 30.1545C103.646 30.1545 105.678 28.1741 105.763 28.0901L105.916 27.9388L104.276 25.1951L104.026 25.4276C104.013 25.4402 102.514 26.8225 100.55 26.8225C98.6583 26.8225 97.2743 25.6615 96.9471 23.8408H105.898L105.919 23.5915C105.923 23.5578 106 22.7497 106 22.3548ZM102.1 21.0242H97.0878C97.5013 19.6811 98.5204 18.9192 99.9337 18.9192C101.073 18.9192 101.946 19.7889 102.1 21.0242ZM19.906 11.001H16.5422V14.5654H19.906V11.001ZM75.5696 11.001H78.9348V14.5654H75.5696V11.001ZM9.00553 15.8445C12.6478 15.8445 15.0969 18.7199 15.0969 23C15.0969 27.2129 12.517 30.1541 8.8287 30.1541C7.0702 30.1541 5.94382 29.4034 5.35486 28.8599C5.35905 28.9888 5.36183 29.1331 5.36183 29.2871V35H1.58864V19.7787C1.58864 19.5574 1.51763 19.4874 1.29764 19.4874H0V16.1541H3.16614C4.6239 16.1541 4.99704 16.8936 5.06804 17.4636C5.65978 16.8025 6.88641 15.8445 9.00553 15.8445ZM5.28525 23.077C5.28525 24.8908 6.20836 26.8473 8.23976 26.8473C9.74624 26.8473 11.2694 25.6751 11.2694 23.0504C11.2694 20.7493 10.072 19.2045 8.28988 19.2045C6.83769 19.2045 5.28525 20.2213 5.28525 23.077Z" fill="white"/>
</svg>
