<svg width="74" height="40" viewBox="0 0 74 40" fill="none" xmlns="http://www.w3.org/2000/svg">
<path fill-rule="evenodd" clip-rule="evenodd" d="M49.8358 6.94229H47.0866L49.0304 4.98973C48.7248 4.55855 48.3495 4.18173 47.9201 3.87483L45.976 5.82739V3.06585C45.7175 3.02218 45.4558 3.00015 45.1936 3H45.1886C44.9219 3 44.6607 3.02289 44.4061 3.06585V5.82739L42.4615 3.87468C42.2474 4.02777 42.0464 4.19863 41.8607 4.38545L41.8598 4.38634C41.674 4.57303 41.5041 4.7749 41.3517 4.98987L43.2963 6.94229H40.5464C40.5464 6.94229 40.481 7.46109 40.481 7.72926V7.73253C40.481 8.0007 40.5036 8.26352 40.5466 8.51935H43.2964L41.3515 10.4716C41.6574 10.9027 42.0327 11.2796 42.462 11.5868L44.4063 9.6344V12.3961C44.6605 12.4389 44.9213 12.4615 45.1877 12.4618H45.1944C45.4562 12.4615 45.7176 12.4396 45.9758 12.3961V9.6344L47.9203 11.5873C48.1344 11.434 48.3356 11.2632 48.5216 11.0765H48.522C48.7077 10.8896 48.8776 10.6876 49.03 10.4725L47.0861 8.5195H49.836C49.8786 8.26382 49.9011 8.00189 49.9011 7.73431V7.72747C49.9011 7.46436 49.8792 7.20198 49.836 6.94258V6.94229H49.8358ZM46.1878 8.73178C46.3075 8.41256 46.3688 8.07424 46.3688 7.73312L46.3685 7.73298H46.368V7.72852C46.3682 7.38729 46.3069 7.04885 46.187 6.72956C45.8777 6.61228 45.5426 6.54776 45.1925 6.54776H45.1886C44.8488 6.54754 44.5117 6.60914 44.1937 6.72956C44.0774 7.04025 44.0132 7.37695 44.0132 7.72852V7.73298C44.0132 8.07421 44.0746 8.41265 44.1945 8.73193C44.5124 8.85218 44.8493 8.91377 45.1891 8.91373H45.1932C45.5329 8.91366 45.8698 8.85202 46.1878 8.73178ZM54.4354 27.0536C53.6504 26.313 53.239 25.1443 53.2011 23.5484L53.2008 23.5482L53.2005 23.5478H63.1031C63.1253 23.2963 63.1441 23.0446 63.1597 22.7926C63.1784 22.4983 63.1885 22.2182 63.1885 21.9521C63.1885 20.9829 63.0556 20.0853 62.791 19.2585C62.5261 18.4325 62.1383 17.72 61.6277 17.1213C61.1168 16.5228 60.4829 16.0525 59.7266 15.7106C58.9697 15.3687 58.0902 15.1975 57.0878 15.1975C55.9144 15.1975 54.8978 15.402 54.0375 15.8105C53.1767 16.219 52.4627 16.7698 51.895 17.4635C51.3281 18.157 50.9063 18.9741 50.6325 19.9141C50.3581 20.8548 50.2211 21.8666 50.2211 22.9496C50.2211 24.0515 50.3633 25.0634 50.6469 25.9846C50.9306 26.9063 51.3801 27.7044 51.9947 28.3787C52.6095 29.0528 53.3898 29.5754 54.3358 29.9462C55.2811 30.3164 56.4163 30.5022 57.7409 30.5022C58.6483 30.5022 59.4758 30.4353 60.2235 30.3027C60.9701 30.1694 61.6564 29.9708 62.2802 29.7041C62.2599 29.2961 62.203 28.8907 62.11 28.493C62.0153 28.0845 61.8925 27.7377 61.7415 27.4527C60.5309 27.9277 59.2539 28.1655 57.9112 28.1655C56.379 28.1655 55.2201 27.7945 54.4354 27.0536ZM44.4052 17.7628H42.5607C42.5228 17.6111 42.4945 17.4353 42.4757 17.2356C42.4382 16.8471 42.4382 16.4558 42.4757 16.0672C42.4945 15.868 42.5228 15.6923 42.5607 15.5398H47.1576V30.1603C46.9275 30.2005 46.6955 30.2289 46.4625 30.2453C46.231 30.2632 45.999 30.2726 45.7669 30.2736C45.5445 30.2722 45.3222 30.2627 45.1006 30.2453C44.8676 30.2288 44.6357 30.2002 44.4057 30.1599V17.7625L44.4052 17.7628ZM60.4082 21.4396C60.4082 20.9074 60.3371 20.3993 60.1956 19.9144C60.0536 19.4302 59.8449 19.0076 59.5714 18.6464C59.2965 18.2857 58.9468 17.9957 58.5211 17.7773C58.0956 17.5588 57.5895 17.4494 57.0031 17.4494C55.8493 17.4494 54.9648 17.8014 54.3502 18.5041C53.7354 19.2069 53.362 20.1854 53.2294 21.4396H60.4082ZM66.2829 15.5398C66.4804 15.5038 66.6792 15.4753 66.8788 15.4545C67.0675 15.4359 67.2665 15.4262 67.4746 15.4262C67.6827 15.4262 67.8905 15.4359 68.0989 15.4545C68.3068 15.4738 68.4961 15.5023 68.6665 15.5398C68.7227 15.8249 68.7796 16.2006 68.8361 16.6656C68.8928 17.1311 68.9216 17.5251 68.9216 17.8482C69.3187 17.2025 69.8437 16.6416 70.4961 16.1665C71.1488 15.6919 71.9857 15.454 73.0071 15.454C73.1583 15.454 73.3143 15.4591 73.4752 15.4686C73.6128 15.476 73.7505 15.49 73.8866 15.511C73.9242 15.6822 73.9532 15.863 73.9719 16.0527C73.9905 16.2425 74 16.4421 74 16.651C74 16.8792 73.9859 17.1169 73.9577 17.3633C73.9304 17.6016 73.8973 17.8391 73.8585 18.0757C73.7052 18.0378 73.5479 18.0187 73.3901 18.0187H73.0068C72.4962 18.0187 72.0089 18.0901 71.5455 18.2324C71.0817 18.3751 70.6658 18.6269 70.297 18.9875C69.9285 19.3487 69.635 19.8429 69.4179 20.4699C69.1999 21.0969 69.0914 21.9044 69.0914 22.8922V30.1599C68.8613 30.2 68.6292 30.2287 68.3961 30.2452C68.1411 30.2642 67.9092 30.2734 67.7012 30.2734C67.4692 30.2725 67.2373 30.2631 67.0059 30.2452C66.7635 30.2275 66.5221 30.1991 66.2822 30.16V15.54L66.2829 15.5398ZM0.00010207 29.7613L0 29.7615V29.761L0.00010207 29.7613ZM0.142081 30.1603L0.00010207 29.7613L7.66113 17.7913H0.907839C0.851303 17.4494 0.823035 17.0697 0.823035 16.6516C0.823035 16.2527 0.851747 15.8819 0.908431 15.5397H11.8324L11.9745 15.9108L4.25666 27.909H11.4918C11.5485 28.2891 11.5771 28.6782 11.5771 29.0771C11.5771 29.4576 11.5487 29.8184 11.492 30.1603H0.142081ZM22.1034 23.2916C21.8197 23.254 21.4602 23.2164 21.0252 23.1779C20.5901 23.1403 20.2213 23.121 19.919 23.121C18.746 23.121 17.8522 23.3395 17.2378 23.7765C16.6226 24.2139 16.3158 24.8785 16.3158 25.7715C16.3158 26.3414 16.4194 26.788 16.6276 27.1108C16.8354 27.4343 17.0958 27.6808 17.4079 27.8519C17.7202 28.0228 18.065 28.1275 18.4432 28.1655C18.8213 28.2034 19.181 28.2223 19.5214 28.2223C19.9565 28.2223 20.4057 28.1985 20.8692 28.151C21.3324 28.1038 21.7439 28.0323 22.1035 27.9373V23.2916H22.1034ZM21.2524 18.1901C21.8197 18.6272 22.1034 19.4061 22.1034 20.5276L22.1031 20.5277V21.0693C21.8382 21.0312 21.5117 20.9979 21.1242 20.9697C20.7363 20.9411 20.2398 20.9266 19.6344 20.9266C18.821 20.9266 18.0458 21.0265 17.3078 21.2261C16.5701 21.4253 15.9175 21.7297 15.3501 22.1376C14.7887 22.5395 14.3274 23.0661 14.0021 23.6765C13.671 24.2943 13.5056 25.0117 13.5056 25.8284C13.5056 26.6646 13.6475 27.3769 13.9311 27.966C14.2152 28.5549 14.6166 29.0395 15.1373 29.4191C15.6573 29.7997 16.2911 30.0745 17.0385 30.2459C17.7853 30.417 18.6227 30.5022 19.5495 30.5022C20.5193 30.5031 21.4874 30.4221 22.4436 30.2599C23.3894 30.0983 24.193 29.9416 24.8555 29.7897V20.6413C24.8555 18.7416 24.3632 17.3596 23.3799 16.4945C22.3961 15.63 20.9586 15.1975 19.0671 15.1975C18.348 15.1975 17.6009 15.2545 16.8254 15.3687C16.0494 15.4827 15.3402 15.6442 14.6979 15.8529C14.6979 16.7274 14.8769 17.4774 15.2366 18.1044C15.7906 17.9323 16.3545 17.7945 16.9253 17.6916C17.502 17.5872 18.1211 17.5346 18.7837 17.5346C19.8619 17.5346 20.6846 17.7531 21.2524 18.1901ZM30.729 27.7659C31.0872 27.8987 31.458 27.9943 31.8356 28.0509C32.2139 28.1082 32.7053 28.1365 33.3112 28.1365C33.992 28.1365 34.616 28.0276 35.1834 27.8091C35.7512 27.591 36.2381 27.2534 36.6448 26.7972C37.0515 26.3414 37.373 25.767 37.6095 25.0728C37.8458 24.3798 37.9644 23.5583 37.9644 22.6078C37.9644 21.088 37.6849 19.8815 37.1273 18.9884C36.5689 18.0956 35.6561 17.649 34.3893 17.649C33.9164 17.649 33.462 17.7344 33.0276 17.9056C32.5919 18.0766 32.2045 18.3331 31.8639 18.6751C31.5235 19.017 31.2493 19.4495 31.0413 19.9719C30.8326 20.4949 30.729 21.1165 30.729 21.8387V27.7659ZM28.5015 15.4542C28.3061 15.4731 28.1122 15.5015 27.9198 15.5395L27.9194 15.5397V36.8863C28.1495 36.9266 28.3814 36.9552 28.6144 36.9718C28.8457 36.9896 29.0775 36.999 29.3094 37C29.5175 37 29.7494 36.9903 30.005 36.9718C30.2472 36.954 30.4885 36.9255 30.7282 36.8863V30.1889C31.0499 30.2834 31.4279 30.3595 31.8633 30.4167C32.2984 30.4737 32.7238 30.5022 33.1401 30.5022C35.6181 30.5022 37.5328 29.7948 38.8855 28.3791C40.2383 26.964 40.9146 25.0017 40.9146 22.494C40.9146 21.2402 40.7681 20.1527 40.4751 19.2304C40.1816 18.3092 39.775 17.5492 39.2551 16.9505C38.7346 16.3519 38.1107 15.9108 37.3829 15.6254C36.6543 15.3403 35.8644 15.1976 35.0134 15.1976C34.4458 15.1976 33.9303 15.2646 33.4671 15.3975C33.0034 15.5307 32.5875 15.7111 32.2187 15.9392C31.8499 16.167 31.5327 16.4234 31.2678 16.7085C31.0028 16.9935 30.7757 17.2883 30.587 17.592C30.587 17.535 30.5728 17.402 30.5443 17.1927C30.5159 16.9843 30.4877 16.7653 30.4592 16.5371C30.4307 16.3094 30.4023 16.0958 30.3741 15.8961C30.3457 15.6965 30.3217 15.5783 30.3031 15.5397C30.1137 15.5022 29.915 15.4735 29.7072 15.4542C29.4987 15.4357 29.3002 15.4259 29.1117 15.4259C28.908 15.4259 28.7043 15.4353 28.5015 15.4542Z" fill="white"/>
</svg>
