<svg width="87" height="40" viewBox="0 0 87 40" fill="none" xmlns="http://www.w3.org/2000/svg">
<path opacity="0.6" d="M87.0016 11.4052V32.0366L84.1523 34.8162V14.6406L87.0016 11.405" fill="white"/>
<path opacity="0.8" fill-rule="evenodd" clip-rule="evenodd" d="M84.1962 14.6409H65.3281V34.8411H84.1962V14.6409ZM65.3291 23.9893L65.8973 28.3642L65.3291 29.9464V23.9893ZM81.3162 21.908C80.9428 20.97 80.39 20.129 79.6591 19.387C78.9595 18.6738 78.173 18.1354 77.3049 17.7742C76.4356 17.4127 75.496 17.2322 74.4867 17.2325C73.4705 17.2322 72.5217 17.4126 71.6459 17.7739C70.7702 18.1353 69.9843 18.674 69.2914 19.3874C68.5616 20.122 68.011 20.96 67.6455 21.8976C67.2801 22.8362 67.0971 23.8598 67.0971 24.9672C67.0971 26.0602 67.2806 27.0804 67.6514 28.0249C68.0203 28.9697 68.5679 29.818 69.2914 30.5669C69.9695 31.2674 70.7472 31.7974 71.619 32.1549C72.4912 32.512 73.4483 32.6908 74.4867 32.6908C75.4879 32.6908 76.4265 32.512 77.2983 32.1549C78.1706 31.7976 78.9587 31.268 79.6587 30.5679C80.39 29.8182 80.9428 28.9726 81.3162 28.0307C81.6899 27.0898 81.8766 26.0675 81.8766 24.9672C81.8766 23.8668 81.6899 22.8463 81.3162 21.908ZM77.4384 28.5647C76.7155 29.4381 75.7419 29.8717 74.4853 29.8731C73.2201 29.8717 72.2426 29.4396 71.5157 28.5705C70.7909 27.7008 70.424 26.505 70.4236 24.9702C70.424 23.4061 70.7895 22.1925 71.5104 21.316C72.2331 20.4398 73.2134 20.0047 74.4853 20.0031C75.7419 20.0047 76.7151 20.4394 77.4384 21.316C78.1597 22.1925 78.5258 23.4061 78.5258 24.9702C78.5258 26.4979 78.1606 27.6923 77.4384 28.5647Z" fill="white"/>
<path opacity="0.5" d="M68.2835 11.4195L65.3281 14.6414L84.1962 14.6414L86.9995 11.4058L68.2831 11.4195" fill="white"/>
<path opacity="0.7" d="M44.9168 12.3041L63.4765 9.72461L61.9237 14.174L45.2391 16.4493L44.5039 13.5191L44.9168 12.3041Z" fill="white"/>
<path fill-rule="evenodd" clip-rule="evenodd" d="M45.6725 18.1726L44.2852 21.3215L46.1943 34.8413L64.4948 32.2704L61.9232 14.1731L45.2392 16.4491L45.6725 18.1726ZM57.0316 16.0537C57.1283 16.0396 57.2215 16.0323 57.312 16.0323C57.6666 16.0317 57.9778 16.1451 58.2251 16.3695C58.5363 16.6504 58.7283 17.0792 58.8109 17.6412L60.6115 29.8872C60.6345 30.0443 60.6459 30.1939 60.6459 30.336C60.6459 30.6953 60.5707 31.007 60.4148 31.264C60.1983 31.6243 59.8358 31.8411 59.3625 31.91C59.2659 31.9242 59.1724 31.9311 59.0811 31.9311C58.7257 31.9317 58.4122 31.8195 58.1586 31.5965C57.8394 31.3163 57.6443 30.8909 57.5633 30.3352L56.8272 25.4968L51.5654 26.27L52.3011 31.1085C52.3242 31.2643 52.3358 31.413 52.3358 31.5549C52.3358 31.9095 52.2623 32.2193 52.111 32.4772C51.9 32.84 51.55 33.0591 51.0971 33.1246C50.9907 33.1404 50.8877 33.1481 50.7886 33.1481C50.426 33.1488 50.1094 33.0402 49.8569 32.8241C49.5332 32.5475 49.3361 32.1197 49.2535 31.5566L47.4531 19.31C47.4301 19.1516 47.418 19.0015 47.418 18.8594C47.418 18.4895 47.4982 18.1713 47.6643 17.9136C47.8934 17.5557 48.2706 17.3398 48.7658 17.2685C48.8521 17.2558 48.9366 17.2492 49.0188 17.2492C49.3674 17.2484 49.6764 17.368 49.9242 17.6019C50.2312 17.8904 50.4205 18.3149 50.5012 18.8624L51.1687 23.5722L56.4307 22.798L55.7631 18.0891C55.7403 17.9349 55.7287 17.788 55.7287 17.6485C55.7287 17.2843 55.8074 16.9677 55.9696 16.7052C56.1926 16.342 56.5565 16.1219 57.0316 16.0537Z" fill="white"/>
<path opacity="0.9" d="M63.4747 9.72407L63.4891 9.83333L65.8961 28.3642L64.493 32.2705L61.9219 14.1732" fill="white"/>
<path opacity="0.6" fill-rule="evenodd" clip-rule="evenodd" d="M29.2412 10.7595L45.6722 18.1727L38.2582 35L21.9141 27.6271L21.9946 27.198L29.2412 10.7595ZM34.0952 14.8977L34.0523 14.8979C33.2128 14.9033 32.3821 15.07 31.5617 15.3968L31.2546 15.5265C30.2916 15.9455 29.4524 16.5319 28.7404 17.285C28.0283 18.0376 27.4484 18.9429 27.0007 19.9974C26.5591 21.0398 26.314 22.0824 26.2685 23.1253C26.2633 23.2433 26.2608 23.3614 26.2608 23.479C26.2608 24.3993 26.4186 25.301 26.734 26.1821C27.0686 27.1121 27.5621 27.9172 28.2127 28.5958C28.7908 29.199 29.4872 29.6927 30.2998 30.0763L30.6099 30.2147C31.4023 30.5513 32.2053 30.7407 33.0176 30.7825L33.3902 30.7913C34.2251 30.7875 35.054 30.628 35.8747 30.3148L36.1835 30.1894C37.1524 29.7572 37.9974 29.163 38.7179 28.4109C39.4381 27.658 40.0204 26.7553 40.4655 25.7067C40.9105 24.6583 41.1529 23.6144 41.1927 22.5761C41.1965 22.476 41.1984 22.3761 41.1984 22.2765C41.1984 21.3429 41.0334 20.428 40.7032 19.533C40.3537 18.5821 39.8555 17.7652 39.2103 17.0848C38.5647 16.4041 37.7806 15.8687 36.861 15.4788C35.9482 15.0911 35.0253 14.8977 34.0952 14.8977ZM35.7418 18.1144C35.2016 17.8852 34.6801 17.7723 34.1755 17.7723C33.5991 17.7723 33.0433 17.9202 32.5029 18.218C31.4908 18.7756 30.6644 19.7938 30.0312 21.2864C29.6183 22.2597 29.4136 23.1544 29.4136 23.9698C29.4136 24.3816 29.4658 24.7734 29.5694 25.1462C29.8795 26.2572 30.5958 27.045 31.7458 27.5351C32.2771 27.76 32.7917 27.8715 33.2909 27.8715C33.8654 27.8712 34.4207 27.7244 34.9626 27.4275C35.9739 26.8733 36.7912 25.8731 37.4103 24.4151C37.8364 23.4109 38.0468 22.4921 38.0468 21.6594C38.0468 21.255 37.997 20.8709 37.8981 20.506C37.5936 19.3899 36.8845 18.6004 35.7418 18.1144Z" fill="white"/>
<path opacity="0.4" d="M27.5352 4.99989L29.2408 10.7599L45.6715 18.1724L44.2902 12.6685L27.5352 4.99989Z" fill="white"/>
<path fill-rule="evenodd" clip-rule="evenodd" d="M21.0748 31.9557L18.3667 14.1475L18.3663 14.1484L0 16.96L2.91652 34.8024L21.0748 31.9557ZM15.8452 28.7407C16.08 28.8228 16.2727 28.9491 16.4158 29.12C16.5589 29.2907 16.6509 29.5033 16.6931 29.751C16.7111 29.8548 16.72 29.9545 16.72 30.0511C16.7216 30.4328 16.5727 30.7568 16.2853 30.9928C15.9256 31.2882 15.3067 31.5004 14.4167 31.6535L9.39114 32.5126C8.60044 32.6475 7.97577 32.7159 7.51174 32.7159C7.14617 32.7148 6.88061 32.6759 6.69988 32.5779C6.50576 32.4713 6.34854 32.2909 6.22527 32.0497C6.10201 31.8075 6.01047 31.5017 5.94702 31.131C5.90272 30.8727 5.88063 30.6057 5.88063 30.33C5.88063 29.9449 5.92375 29.5436 6.00906 29.1255C6.15547 28.4089 6.42245 27.6808 6.80705 26.9417C6.80717 26.9417 6.80717 26.9413 6.80717 26.9413C6.80736 26.941 6.80745 26.9409 6.80749 26.9408C6.80752 26.9407 6.80752 26.9405 6.80752 26.9403C7.34934 25.8665 8.24474 24.5756 9.4949 23.0615C9.81534 22.6597 10.0532 22.3631 10.2084 22.1728C10.7563 21.4757 11.1002 20.9272 11.2378 20.5437C11.3382 20.2652 11.3884 19.9824 11.3884 19.6928C11.3884 19.6118 11.383 19.53 11.3751 19.4481L6.73936 20.2297C6.47027 20.2756 6.22398 20.2989 5.99978 20.2989C5.67064 20.2989 5.38862 20.2487 5.15526 20.1434C4.75985 19.9679 4.51461 19.6228 4.4367 19.1523C4.41978 19.0544 4.41144 18.9599 4.41144 18.8685C4.41015 18.5182 4.53987 18.2131 4.79099 17.9776C5.10696 17.6801 5.60225 17.4827 6.27298 17.3678L11.8117 16.4203C12.228 16.3494 12.5837 16.3134 12.8803 16.3134C13.2395 16.314 13.5141 16.3644 13.7093 16.4832C13.8824 16.5901 14.0226 16.7596 14.133 16.9825C14.2435 17.2058 14.3258 17.4841 14.3829 17.8187C14.4457 18.1859 14.4767 18.559 14.4767 18.9379C14.4767 19.0805 14.4726 19.2242 14.4637 19.3689C14.4309 19.8977 14.3403 20.4228 14.1914 20.9438C13.9312 21.8628 13.2526 23.0336 12.1563 24.4716C11.9911 24.692 11.8636 24.8587 11.7721 24.9721L11.2187 25.7111L11.2184 25.7116C10.515 26.6381 9.98255 27.4339 9.62134 28.0965C9.29796 28.6879 9.11453 29.1732 9.06388 29.5425L13.8566 28.7235C14.2743 28.652 14.6444 28.6159 14.9682 28.6159C15.312 28.6159 15.6037 28.6564 15.8452 28.7407Z" fill="white"/>
<path opacity="0.8" d="M0 16.9587L1.27518 10.6006L19.6094 7.66232L18.3668 14.1471L0 16.9587Z" fill="white"/>
<path opacity="0.9" d="M19.6098 7.66223L22.298 25.6423L21.0754 31.9548L18.3672 14.147L19.6098 7.66223Z" fill="white"/>
<path opacity="0.7" d="M22.2985 25.6422L21.3906 19.578L27.5338 5L29.2394 10.76L21.9966 27.198L22.2985 25.6422Z" fill="white"/>
</svg>
